<?xml version="1.0" encoding="UTF-8"?>
<!-- Generator: visioncortex VTracer 0.6.4 -->
<svg version="1.1" xmlns="http://www.w3.org/2000/svg" width="64" height="64">
<path d="M0,0 L48,0 L48,1 L52,1 L52,2 L54,2 L54,4 L55,4 L55,8 L56,8 L56,56 L55,56 L55,60 L54,60 L54,62 L52,62 L52,63 L48,63 L48,64 L0,64 L0,63 L-4,63 L-4,62 L-6,62 L-6,60 L-7,60 L-7,56 L-8,56 L-8,8 L-7,8 L-7,4 L-6,4 L-6,2 L-4,2 L-4,1 L0,1 Z M-3,4 L-3,5 L0,5 L0,4 Z M48,4 L48,5 L51,5 L51,4 Z M-4,5 L-4,8 L-3,8 L-3,5 Z M51,5 L51,8 L52,8 L52,5 Z M-3,8 L-3,9 L0,9 L0,8 Z M48,8 L48,9 L51,9 L51,8 Z M-4,9 L-4,12 L-3,12 L-3,9 Z M51,9 L51,12 L52,12 L52,9 Z M3,12 L3,13 L2,13 L2,19 L3,19 L3,20 L9,20 L9,19 L10,19 L10,13 L9,13 L9,12 Z M39,12 L39,13 L38,13 L38,19 L39,19 L39,20 L45,20 L45,19 L46,19 L46,13 L45,13 L45,12 Z M20,18 L20,19 L18,19 L18,20 L17,20 L17,21 L15,21 L15,22 L13,22 L13,23 L12,23 L12,24 L11,24 L11,25 L10,25 L10,41 L11,41 L11,42 L12,42 L12,43 L13,43 L13,44 L15,44 L15,45 L17,45 L17,46 L18,46 L18,47 L20,47 L20,48 L28,48 L28,47 L30,47 L30,46 L31,46 L31,45 L33,45 L33,44 L35,44 L35,43 L36,43 L36,42 L37,42 L37,41 L38,41 L38,37 L39,37 L39,29 L38,29 L38,25 L37,25 L37,24 L36,24 L36,23 L35,23 L35,22 L33,22 L33,21 L32,21 L32,20 L30,20 L30,19 L28,19 L28,18 Z M3,47 L3,48 L2,48 L2,54 L3,54 L3,55 L9,55 L9,54 L10,54 L10,48 L9,48 L9,47 Z M39,47 L39,48 L38,48 L38,54 L39,54 L39,55 L45,55 L45,54 L46,54 L46,48 L45,48 L45,47 Z M-4,56 L-4,59 L-3,59 L-3,56 Z M51,56 L51,59 L52,59 L52,56 Z M-3,59 L-3,60 L0,60 L0,59 Z M48,59 L48,60 L51,60 L51,59 Z M4,13 L8,13 L8,14 L9,14 L9,18 L8,18 L8,19 L4,19 L4,18 L3,18 L3,14 L4,14 Z M40,13 L44,13 L44,14 L45,14 L45,18 L44,18 L44,19 L40,19 L40,18 L39,18 L39,14 L40,14 Z M21,19 L27,19 L27,20 L29,20 L29,21 L31,21 L31,22 L33,22 L33,23 L34,23 L34,24 L36,24 L36,26 L37,26 L37,29 L38,29 L38,37 L37,37 L37,40 L36,40 L36,42 L34,42 L34,43 L33,43 L33,44 L31,44 L31,45 L29,45 L29,46 L27,46 L27,47 L21,47 L21,46 L19,46 L19,45 L17,45 L17,44 L16,44 L16,43 L14,43 L14,42 L13,42 L13,41 L12,41 L12,40 L11,40 L11,26 L12,26 L12,25 L13,25 L13,24 L14,24 L14,23 L15,23 L15,22 L17,22 L17,21 L19,21 L19,20 L21,20 Z M21,21 L21,22 L19,22 L19,23 L17,23 L17,24 L16,24 L16,25 L14,25 L14,26 L13,26 L13,40 L14,40 L14,41 L16,41 L16,42 L17,42 L17,43 L19,43 L19,44 L21,44 L21,45 L27,45 L27,44 L29,44 L29,43 L31,43 L31,42 L32,42 L32,41 L34,41 L34,40 L35,40 L35,37 L36,37 L36,29 L35,29 L35,26 L34,26 L34,25 L33,25 L33,24 L31,24 L31,23 L29,23 L29,22 L27,22 L27,21 Z M22,22 L27,22 L27,23 L28,23 L28,24 L30,24 L30,25 L32,25 L32,26 L33,26 L33,27 L34,27 L34,29 L35,29 L35,37 L34,37 L34,39 L33,39 L33,40 L32,40 L32,41 L30,41 L30,42 L28,42 L28,43 L27,43 L27,44 L22,44 L22,43 L20,43 L20,42 L18,42 L18,41 L16,41 L16,40 L15,40 L15,39 L14,39 L14,27 L15,27 L15,26 L16,26 L16,25 L18,25 L18,24 L20,24 L20,23 L22,23 Z M23,25 L23,26 L21,26 L21,27 L19,27 L19,28 L18,28 L18,29 L17,29 L17,37 L18,37 L18,38 L19,38 L19,39 L21,39 L21,40 L23,40 L23,41 L25,41 L25,40 L27,40 L27,39 L29,39 L29,38 L30,38 L30,37 L31,37 L31,29 L30,29 L30,28 L29,28 L29,27 L27,27 L27,26 L25,26 L25,25 Z M22,27 L26,27 L26,28 L28,28 L28,29 L30,29 L30,37 L28,37 L28,38 L26,38 L26,39 L25,39 L25,40 L24,40 L24,39 L22,39 L22,38 L20,38 L20,37 L19,37 L19,36 L18,36 L18,30 L19,30 L19,29 L20,29 L20,28 L22,28 Z M22,30 L22,32 L23,32 L23,31 L25,31 L25,32 L26,32 L26,30 Z M22,34 L22,36 L26,36 L26,34 L25,34 L25,35 L23,35 L23,34 Z M4,48 L8,48 L8,49 L9,49 L9,53 L8,53 L8,54 L4,54 L4,53 L3,53 L3,49 L4,49 Z M40,48 L44,48 L44,49 L45,49 L45,53 L44,53 L44,54 L40,54 L40,53 L39,53 L39,49 L40,49 Z " fill="#DE7E4F" transform="translate(8,0)"/>
<path d="M0,0 L48,0 L48,1 L52,1 L52,2 L54,2 L54,4 L55,4 L55,8 L56,8 L56,56 L55,56 L55,60 L54,60 L54,62 L52,62 L52,63 L48,63 L48,64 L0,64 L0,63 L-4,63 L-4,62 L-6,62 L-6,60 L-7,60 L-7,56 L-8,56 L-8,8 L-7,8 L-7,4 L-6,4 L-6,2 L-4,2 L-4,1 L0,1 Z M-3,4 L-3,5 L-4,5 L-4,59 L-3,59 L-3,60 L51,60 L51,59 L52,59 L52,5 L51,5 L51,4 Z " fill="#353541" transform="translate(8,0)"/>
<path d="M0,0 L5,0 L5,1 L6,1 L6,2 L8,2 L8,3 L10,3 L10,4 L11,4 L11,5 L12,5 L12,7 L13,7 L13,15 L12,15 L12,17 L11,17 L11,18 L10,18 L10,19 L8,19 L8,20 L6,20 L6,21 L5,21 L5,22 L0,22 L0,21 L-2,21 L-2,20 L-4,20 L-4,19 L-6,19 L-6,18 L-7,18 L-7,17 L-8,17 L-8,5 L-7,5 L-7,4 L-6,4 L-6,3 L-4,3 L-4,2 L-2,2 L-2,1 L0,1 Z M1,3 L1,4 L-1,4 L-1,5 L-3,5 L-3,6 L-4,6 L-4,7 L-5,7 L-5,15 L-4,15 L-4,16 L-3,16 L-3,17 L-1,17 L-1,18 L1,18 L1,19 L3,19 L3,18 L5,18 L5,17 L7,17 L7,16 L8,16 L8,15 L9,15 L9,7 L8,7 L8,6 L7,6 L7,5 L5,5 L5,4 L3,4 L3,3 Z M0,5 L4,5 L4,6 L6,6 L6,7 L8,7 L8,15 L6,15 L6,16 L4,16 L4,17 L3,17 L3,18 L2,18 L2,17 L0,17 L0,16 L-2,16 L-2,15 L-3,15 L-3,14 L-4,14 L-4,8 L-3,8 L-3,7 L-2,7 L-2,6 L0,6 Z M0,8 L0,10 L1,10 L1,9 L3,9 L3,10 L4,10 L4,8 Z M0,12 L0,14 L4,14 L4,12 L3,12 L3,13 L1,13 L1,12 Z " fill="#FA9F72" transform="translate(30,22)"/>
<path d="M0,0 L6,0 L6,1 L8,1 L8,2 L10,2 L10,3 L12,3 L12,4 L13,4 L13,5 L15,5 L15,7 L16,7 L16,10 L17,10 L17,18 L16,18 L16,21 L15,21 L15,23 L13,23 L13,24 L12,24 L12,25 L10,25 L10,26 L8,26 L8,27 L6,27 L6,28 L0,28 L0,27 L-2,27 L-2,26 L-4,26 L-4,25 L-5,25 L-5,24 L-7,24 L-7,23 L-8,23 L-8,22 L-9,22 L-9,21 L-10,21 L-10,7 L-9,7 L-9,6 L-8,6 L-8,5 L-7,5 L-7,4 L-6,4 L-6,3 L-4,3 L-4,2 L-2,2 L-2,1 L0,1 Z M0,2 L0,3 L-2,3 L-2,4 L-4,4 L-4,5 L-5,5 L-5,6 L-7,6 L-7,7 L-8,7 L-8,21 L-7,21 L-7,22 L-5,22 L-5,23 L-4,23 L-4,24 L-2,24 L-2,25 L0,25 L0,26 L6,26 L6,25 L8,25 L8,24 L10,24 L10,23 L11,23 L11,22 L13,22 L13,21 L14,21 L14,18 L15,18 L15,10 L14,10 L14,7 L13,7 L13,6 L12,6 L12,5 L10,5 L10,4 L8,4 L8,3 L6,3 L6,2 Z " fill="#BD6341" transform="translate(29,19)"/>
<path d="M0,0 L48,0 L48,1 L51,1 L51,4 L-3,4 L-3,1 L0,1 Z M-4,4 L-3,4 L-3,5 L-4,5 Z M51,4 L52,4 L52,5 L51,5 Z " fill="#FA9F72" transform="translate(8,4)"/>
<path d="M0,0 L4,0 L4,1 L6,1 L6,2 L8,2 L8,10 L6,10 L6,11 L4,11 L4,12 L3,12 L3,13 L2,13 L2,12 L0,12 L0,11 L-2,11 L-2,10 L-3,10 L-3,9 L-4,9 L-4,3 L-3,3 L-3,2 L-2,2 L-2,1 L0,1 Z M0,3 L0,5 L1,5 L1,4 L3,4 L3,5 L4,5 L4,3 Z M0,7 L0,9 L4,9 L4,7 L3,7 L3,8 L1,8 L1,7 Z " fill="#BD6341" transform="translate(30,27)"/>
<path d="M0,0 L4,0 L4,1 L5,1 L5,5 L4,5 L4,6 L0,6 L0,5 L-1,5 L-1,1 L0,1 Z " fill="#BD6341" transform="translate(48,48)"/>
<path d="M0,0 L4,0 L4,1 L5,1 L5,5 L4,5 L4,6 L0,6 L0,5 L-1,5 L-1,1 L0,1 Z " fill="#BD6341" transform="translate(12,48)"/>
<path d="M0,0 L4,0 L4,1 L5,1 L5,5 L4,5 L4,6 L0,6 L0,5 L-1,5 L-1,1 L0,1 Z " fill="#BD6341" transform="translate(48,13)"/>
<path d="M0,0 L4,0 L4,1 L5,1 L5,5 L4,5 L4,6 L0,6 L0,5 L-1,5 L-1,1 L0,1 Z " fill="#BD6341" transform="translate(12,13)"/>
<path d="M0,0 L2,0 L2,1 L3,1 L3,3 L2,3 L2,4 L0,4 L0,3 L-1,3 L-1,1 L0,1 Z " fill="#FA9F72" transform="translate(31,31)"/>
<path d="M0,0 L1,0 L1,1 L0,1 Z M-1,1 L0,1 L0,2 L-1,2 Z M-2,2 L-1,2 L-1,3 L-2,3 Z M-3,4 L-2,4 L-2,12 L-3,12 Z " fill="#F79C6F" opacity="0.95686275" transform="translate(24,25)"/>
<path d="M0,0 L1,0 L1,1 L0,1 Z M-1,1 L0,1 L0,2 L-1,2 Z M-2,2 L-1,2 L-1,3 L-2,3 Z M-3,3 L-2,3 L-2,4 L-3,4 Z M-4,4 L-3,4 L-3,5 L-4,5 Z " fill="#BD6341" transform="translate(23,22)"/>
<path d="M0,0 L1,0 L1,4 L0,4 Z " fill="#CE724D" opacity="0.7529412" transform="translate(38,31)"/>
<path d="M0,0 L1,0 L1,7 L0,7 Z " fill="#BC6241" opacity="0.95686275" transform="translate(18,30)"/>
<path d="M0,0 L1,0 L1,7 L0,7 Z " fill="#DD7C4D" opacity="0.95686275" transform="translate(46,29)"/>
<path d="M0,0 L1,0 L1,7 L0,7 Z " fill="#BC6241" opacity="0.95686275" transform="translate(43,29)"/>
<path d="M0,0 L1,0 L1,4 L0,4 Z " fill="#D57A52" opacity="0.7529412" transform="translate(25,31)"/>
<path d="M0,0 L1,0 L1,1 L0,1 Z M-1,1 L0,1 L0,2 L-1,2 Z M-2,2 L-1,2 L-1,3 L-2,3 Z " fill="#FA9F72" transform="translate(24,25)"/>
<path d="M0,0 L1,0 L1,1 L0,1 Z " fill="#BD6240" opacity="0.9490196" transform="translate(32,47)"/>
<path d="M0,0 L1,0 L1,1 L0,1 Z " fill="#BD6240" opacity="0.94509804" transform="translate(32,18)"/>
<path d="M0,0 L1,0 L1,1 L0,1 Z M-1,1 L0,1 L0,2 L-1,2 Z " fill="#FA9F72" transform="translate(31,31)"/>
<path d="M0,0 L1,0 L1,1 L0,1 Z M-1,1 L0,1 L0,2 L-1,2 Z M-2,2 L-1,2 L-1,3 L-2,3 Z " fill="#BD6341" transform="translate(28,28)"/>
<path d="M0,0 L1,0 L1,1 L0,1 Z " fill="#343440" opacity="0.9019608" transform="translate(6,63)"/>
<path d="M0,0 L1,0 L1,1 L0,1 Z " fill="#BE623F" opacity="0.9137255" transform="translate(53,50)"/>
<path d="M0,0 L1,0 L1,1 L0,1 Z " fill="#BE623F" opacity="0.9137255" transform="translate(17,50)"/>
<path d="M0,0 L1,0 L1,1 L0,1 Z " fill="#BC6240" opacity="0.92156863" transform="translate(49,47)"/>
<path d="M0,0 L1,0 L1,1 L0,1 Z " fill="#BC6240" opacity="0.92156863" transform="translate(13,47)"/>
<path d="M0,0 L1,0 L1,1 L0,1 Z " fill="#BC6241" opacity="0.95686275" transform="translate(18,29)"/>
<path d="M0,0 L1,0 L1,1 L0,1 Z " fill="#BE623F" opacity="0.9137255" transform="translate(53,15)"/>
<path d="M0,0 L1,0 L1,1 L0,1 Z " fill="#BE623F" opacity="0.9137255" transform="translate(17,15)"/>
<path d="M0,0 L1,0 L1,1 L0,1 Z " fill="#BC6240" opacity="0.92156863" transform="translate(49,12)"/>
<path d="M0,0 L1,0 L1,1 L0,1 Z " fill="#BC6240" opacity="0.92156863" transform="translate(13,12)"/>
<path d="M0,0 L1,0 L1,1 L0,1 Z " fill="#343440" opacity="0.9019608" transform="translate(63,6)"/>
<path d="M0,0 L1,0 L1,1 L0,1 Z " fill="#343441" opacity="0.9098039" transform="translate(0,6)"/>
<path d="M0,0 L1,0 L1,1 L0,1 Z " fill="#343441" opacity="0.9098039" transform="translate(6,0)"/>
<path d="M0,0 L1,0 L1,1 L0,1 Z M1,1 L2,1 L2,2 L1,2 Z " fill="#33333F" opacity="0.4117647" transform="translate(1,61)"/>
<path d="M0,0 L1,0 L1,1 L0,1 Z M-1,1 L0,1 L0,2 L-1,2 Z " fill="#BD6341" transform="translate(48,48)"/>
<path d="M0,0 L1,0 L1,1 L0,1 Z M-1,1 L0,1 L0,2 L-1,2 Z " fill="#BD6341" transform="translate(12,48)"/>
<path d="M0,0 L1,0 L1,1 L0,1 Z M-1,1 L0,1 L0,2 L-1,2 Z " fill="#BD6341" transform="translate(48,13)"/>
<path d="M0,0 L1,0 L1,1 L0,1 Z M-1,1 L0,1 L0,2 L-1,2 Z " fill="#BD6341" transform="translate(12,13)"/>
<path d="M0,0 L1,0 L1,1 L0,1 Z M-1,1 L0,1 L0,2 L-1,2 Z " fill="#343440" opacity="0.40392157" transform="translate(2,1)"/>
<path d="M0,0 L1,0 L1,1 L0,1 Z " fill="#30303C" opacity="0.08235294" transform="translate(60,63)"/>
<path d="M0,0 L1,0 L1,1 L0,1 Z " fill="#343440" opacity="0.48235294" transform="translate(4,63)"/>
<path d="M0,0 L1,0 L1,1 L0,1 Z " fill="#30303C" opacity="0.08235294" transform="translate(63,60)"/>
<path d="M0,0 L1,0 L1,1 L0,1 Z " fill="#353540" opacity="0.09411765" transform="translate(0,60)"/>
<path d="M0,0 L1,0 L1,1 L0,1 Z " fill="#DD7D4E" opacity="0.9411765" transform="translate(7,59)"/>
<path d="M0,0 L1,0 L1,1 L0,1 Z M1,1 L2,1 L2,2 L1,2 Z " fill="#795145" opacity="0.78431374" transform="translate(4,58)"/>
<path d="M0,0 L1,0 L1,1 L0,1 Z " fill="#BE623F" opacity="0.9137255" transform="translate(49,54)"/>
<path d="M0,0 L1,0 L1,1 L0,1 Z " fill="#BE623F" opacity="0.9137255" transform="translate(13,54)"/>
<path d="M0,0 L1,0 L1,1 L0,1 Z M-1,1 L0,1 L0,2 L-1,2 Z " fill="#DA7B4D" opacity="0.92156863" transform="translate(53,53)"/>
<path d="M0,0 L1,0 L1,1 L0,1 Z M-1,1 L0,1 L0,2 L-1,2 Z " fill="#DA7B4D" opacity="0.92156863" transform="translate(17,53)"/>
<path d="M0,0 L1,0 L1,1 L0,1 Z " fill="#BC6240" opacity="0.92156863" transform="translate(46,50)"/>
<path d="M0,0 L1,0 L1,1 L0,1 Z " fill="#BC6240" opacity="0.92156863" transform="translate(10,50)"/>
<path d="M0,0 L1,0 L1,1 L0,1 Z M-1,1 L0,1 L0,2 L-1,2 Z " fill="#DA794C" opacity="0.88235295" transform="translate(47,47)"/>
<path d="M0,0 L1,0 L1,1 L0,1 Z " fill="#BE6441" opacity="0.83137256" transform="translate(30,47)"/>
<path d="M0,0 L1,0 L1,1 L0,1 Z M-1,1 L0,1 L0,2 L-1,2 Z " fill="#DA794C" opacity="0.88235295" transform="translate(11,47)"/>
<path d="M0,0 L1,0 L1,1 L0,1 Z " fill="#BC6240" opacity="0.94509804" transform="translate(28,46)"/>
<path d="M0,0 L1,0 L1,1 L0,1 Z " fill="#BD6340" opacity="0.8745098" transform="translate(26,45)"/>
<path d="M0,0 L1,0 L1,1 L0,1 Z " fill="#BF6541" opacity="0.8392157" transform="translate(34,44)"/>
<path d="M0,0 L1,0 L1,1 L0,1 Z " fill="#F6996D" opacity="0.92941177" transform="translate(31,44)"/>
<path d="M0,0 L1,0 L1,1 L0,1 Z " fill="#BE6240" opacity="0.9137255" transform="translate(36,43)"/>
<path d="M0,0 L1,0 L1,1 L0,1 Z M-1,1 L0,1 L0,2 L-1,2 Z " fill="#D17348" opacity="0.78431374" transform="translate(44,41)"/>
<path d="M0,0 L1,0 L1,1 L0,1 Z " fill="#F5986C" opacity="0.92156863" transform="translate(32,40)"/>
<path d="M0,0 L1,0 L1,1 L0,1 Z " fill="#BD6340" opacity="0.9254902" transform="translate(21,39)"/>
<path d="M0,0 L1,0 L1,1 L0,1 Z " fill="#CC6E45" opacity="0.7607843" transform="translate(18,39)"/>
<path d="M0,0 L1,0 L1,1 L0,1 Z " fill="#BE6341" opacity="0.91764706" transform="translate(29,38)"/>
<path d="M0,0 L1,0 L1,1 L0,1 Z " fill="#F5986C" opacity="0.9254902" transform="translate(32,35)"/>
<path d="M0,0 L1,0 L1,1 L0,1 Z " fill="#CE734C" opacity="0.75686276" transform="translate(38,30)"/>
<path d="M0,0 L1,0 L1,1 L0,1 Z " fill="#F5996C" opacity="0.93333334" transform="translate(32,30)"/>
<path d="M0,0 L1,0 L1,1 L0,1 Z " fill="#D57B53" opacity="0.75686276" transform="translate(25,30)"/>
<path d="M0,0 L1,0 L1,1 L0,1 Z " fill="#F89D70" opacity="0.9764706" transform="translate(42,28)"/>
<path d="M0,0 L1,0 L1,1 L0,1 Z " fill="#F3976C" opacity="0.90588236" transform="translate(21,28)"/>
<path d="M0,0 L1,0 L1,1 L0,1 Z " fill="#BD6340" opacity="0.8745098" transform="translate(45,27)"/>
<path d="M0,0 L1,0 L1,1 L0,1 Z " fill="#BD6340" opacity="0.92941177" transform="translate(29,27)"/>
<path d="M0,0 L1,0 L1,1 L0,1 Z " fill="#BF6440" opacity="0.81960785" transform="translate(18,27)"/>
<path d="M0,0 L1,0 L1,1 L0,1 Z " fill="#BD6340" opacity="0.98039216" transform="translate(31,26)"/>
<path d="M0,0 L1,0 L1,1 L0,1 Z " fill="#BD6240" opacity="0.9647059" transform="translate(44,25)"/>
<path d="M0,0 L1,0 L1,1 L0,1 Z " fill="#F5986C" opacity="0.9254902" transform="translate(32,25)"/>
<path d="M0,0 L1,0 L1,1 L0,1 Z " fill="#BC6241" opacity="0.95686275" transform="translate(38,23)"/>
<path d="M0,0 L1,0 L1,1 L0,1 Z " fill="#BE6340" opacity="0.8980392" transform="translate(36,22)"/>
<path d="M0,0 L1,0 L1,1 L0,1 Z " fill="#C06742" opacity="0.827451" transform="translate(34,21)"/>
<path d="M0,0 L1,0 L1,1 L0,1 Z " fill="#F69A6D" opacity="0.94509804" transform="translate(31,21)"/>
<path d="M0,0 L1,0 L1,1 L0,1 Z " fill="#BE6441" opacity="0.83137256" transform="translate(24,21)"/>
<path d="M0,0 L1,0 L1,1 L0,1 Z " fill="#BD6240" opacity="0.90588236" transform="translate(26,20)"/>
<path d="M0,0 L1,0 L1,1 L0,1 Z " fill="#BE623F" opacity="0.9137255" transform="translate(49,19)"/>
<path d="M0,0 L1,0 L1,1 L0,1 Z " fill="#BD6240" opacity="0.96862745" transform="translate(28,19)"/>
<path d="M0,0 L1,0 L1,1 L0,1 Z " fill="#BE623F" opacity="0.9137255" transform="translate(13,19)"/>
<path d="M0,0 L1,0 L1,1 L0,1 Z M-1,1 L0,1 L0,2 L-1,2 Z " fill="#DA7B4D" opacity="0.92156863" transform="translate(53,18)"/>
<path d="M0,0 L1,0 L1,1 L0,1 Z " fill="#BE6441" opacity="0.84313726" transform="translate(30,18)"/>
<path d="M0,0 L1,0 L1,1 L0,1 Z M-1,1 L0,1 L0,2 L-1,2 Z " fill="#DA7B4D" opacity="0.92156863" transform="translate(17,18)"/>
<path d="M0,0 L1,0 L1,1 L0,1 Z " fill="#BC6240" opacity="0.92156863" transform="translate(46,15)"/>
<path d="M0,0 L1,0 L1,1 L0,1 Z " fill="#BC6240" opacity="0.92156863" transform="translate(10,15)"/>
<path d="M0,0 L1,0 L1,1 L0,1 Z M-1,1 L0,1 L0,2 L-1,2 Z " fill="#DA794C" opacity="0.88235295" transform="translate(47,12)"/>
<path d="M0,0 L1,0 L1,1 L0,1 Z M-1,1 L0,1 L0,2 L-1,2 Z " fill="#DA794C" opacity="0.88235295" transform="translate(11,12)"/>
<path d="M0,0 L1,0 L1,1 L0,1 Z " fill="#E08050" opacity="0.81960785" transform="translate(59,10)"/>
<path d="M0,0 L1,0 L1,1 L0,1 Z " fill="#E07F50" opacity="0.827451" transform="translate(4,10)"/>
<path d="M0,0 L1,0 L1,1 L0,1 Z " fill="#E08050" opacity="0.827451" transform="translate(6,8)"/>
<path d="M0,0 L1,0 L1,1 L0,1 Z " fill="#F99E71" opacity="0.9372549" transform="translate(59,7)"/>
<path d="M0,0 L1,0 L1,1 L0,1 Z " fill="#F99E71" opacity="0.9411765" transform="translate(4,7)"/>
<path d="M0,0 L1,0 L1,1 L0,1 Z " fill="#34343F" opacity="0.4745098" transform="translate(63,4)"/>
<path d="M0,0 L1,0 L1,1 L0,1 Z " fill="#F99E71" opacity="0.9411765" transform="translate(7,4)"/>
<path d="M0,0 L1,0 L1,1 L0,1 Z M-1,1 L0,1 L0,2 L-1,2 Z " fill="#815C54" opacity="0.7882353" transform="translate(5,4)"/>
<path d="M0,0 L1,0 L1,1 L0,1 Z " fill="#333340" opacity="0.4862745" transform="translate(0,4)"/>
<path d="M0,0 L1,0 L1,1 L0,1 Z " fill="#343440" opacity="0.96862745" transform="translate(62,3)"/>
<path d="M0,0 L1,0 L1,1 L0,1 Z " fill="#2E2E3A" opacity="0.08627451" transform="translate(60,0)"/>
<path d="M0,0 L1,0 L1,1 L0,1 Z " fill="#333340" opacity="0.4862745" transform="translate(4,0)"/>
<path d="M0,0 L1,0 L1,1 L0,1 Z " fill="#34343F" opacity="0.4745098" transform="translate(59,63)"/>
<path d="M0,0 L1,0 L1,1 L0,1 Z " fill="#343441" opacity="0.7411765" transform="translate(58,63)"/>
<path d="M0,0 L1,0 L1,1 L0,1 Z " fill="#343440" opacity="0.8980392" transform="translate(57,63)"/>
<path d="M0,0 L1,0 L1,1 L0,1 Z " fill="#353540" opacity="0.9843137" transform="translate(56,63)"/>
<path d="M0,0 L1,0 L1,1 L0,1 Z " fill="#343441" opacity="0.9882353" transform="translate(7,63)"/>
<path d="M0,0 L1,0 L1,1 L0,1 Z " fill="#343440" opacity="0.7490196" transform="translate(5,63)"/>
<path d="M0,0 L1,0 L1,1 L0,1 Z " fill="#2C2C42" opacity="0.09019608" transform="translate(3,63)"/>
<path d="M0,0 L1,0 L1,1 L0,1 Z " fill="#35353F" opacity="0.39607844" transform="translate(61,62)"/>
<path d="M0,0 L1,0 L1,1 L0,1 Z " fill="#353540" opacity="0.9647059" transform="translate(60,62)"/>
<path d="M0,0 L1,0 L1,1 L0,1 Z " fill="#343440" opacity="0.96862745" transform="translate(3,62)"/>
<path d="M0,0 L1,0 L1,1 L0,1 Z " fill="#33333F" opacity="0.003921569" transform="translate(1,62)"/>
<path d="M0,0 L1,0 L1,1 L0,1 Z " fill="#333340" opacity="0.39215687" transform="translate(62,61)"/>
<path d="M0,0 L1,0 L1,1 L0,1 Z " fill="#343440" opacity="0.9607843" transform="translate(62,60)"/>
<path d="M0,0 L1,0 L1,1 L0,1 Z " fill="#343440" opacity="0.96862745" transform="translate(1,60)"/>
<path d="M0,0 L1,0 L1,1 L0,1 Z " fill="#34343F" opacity="0.4745098" transform="translate(63,59)"/>
<path d="M0,0 L1,0 L1,1 L0,1 Z " fill="#775044" opacity="0.7882353" transform="translate(58,59)"/>
<path d="M0,0 L1,0 L1,1 L0,1 Z " fill="#D2784E" opacity="0.8235294" transform="translate(57,59)"/>
<path d="M0,0 L1,0 L1,1 L0,1 Z " fill="#DD7D4E" opacity="0.9372549" transform="translate(56,59)"/>
<path d="M0,0 L1,0 L1,1 L0,1 Z " fill="#D3784D" opacity="0.827451" transform="translate(6,59)"/>
<path d="M0,0 L1,0 L1,1 L0,1 Z " fill="#35353F" opacity="0.49019608" transform="translate(0,59)"/>
<path d="M0,0 L1,0 L1,1 L0,1 Z " fill="#343440" opacity="0.74509805" transform="translate(63,58)"/>
<path d="M0,0 L1,0 L1,1 L0,1 Z " fill="#754F45" opacity="0.7921569" transform="translate(59,58)"/>
<path d="M0,0 L1,0 L1,1 L0,1 Z " fill="#343440" opacity="0.7607843" transform="translate(0,58)"/>
<path d="M0,0 L1,0 L1,1 L0,1 Z " fill="#343440" opacity="0.8980392" transform="translate(63,57)"/>
<path d="M0,0 L1,0 L1,1 L0,1 Z " fill="#D1774C" opacity="0.8235294" transform="translate(59,57)"/>
<path d="M0,0 L1,0 L1,1 L0,1 Z " fill="#D4784E" opacity="0.83137256" transform="translate(4,57)"/>
<path d="M0,0 L1,0 L1,1 L0,1 Z " fill="#343441" opacity="0.9098039" transform="translate(0,57)"/>
<path d="M0,0 L1,0 L1,1 L0,1 Z " fill="#343440" opacity="0.99215686" transform="translate(63,56)"/>
<path d="M0,0 L1,0 L1,1 L0,1 Z " fill="#DE7D4F" opacity="0.9647059" transform="translate(59,56)"/>
<path d="M0,0 L1,0 L1,1 L0,1 Z " fill="#DE7E4E" opacity="0.96862745" transform="translate(4,56)"/>
<path d="M0,0 L1,0 L1,1 L0,1 Z " fill="#343440" opacity="0.99215686" transform="translate(0,56)"/>
<path d="M0,0 L1,0 L1,1 L0,1 Z " fill="#C26642" opacity="0.77254903" transform="translate(51,54)"/>
<path d="M0,0 L1,0 L1,1 L0,1 Z " fill="#BD6340" opacity="0.9098039" transform="translate(50,54)"/>
<path d="M0,0 L1,0 L1,1 L0,1 Z " fill="#C16741" opacity="0.7764706" transform="translate(48,54)"/>
<path d="M0,0 L1,0 L1,1 L0,1 Z " fill="#DB7B4C" opacity="0.90588236" transform="translate(47,54)"/>
<path d="M0,0 L1,0 L1,1 L0,1 Z " fill="#C26642" opacity="0.77254903" transform="translate(15,54)"/>
<path d="M0,0 L1,0 L1,1 L0,1 Z " fill="#BD6340" opacity="0.9098039" transform="translate(14,54)"/>
<path d="M0,0 L1,0 L1,1 L0,1 Z " fill="#C16741" opacity="0.7764706" transform="translate(12,54)"/>
<path d="M0,0 L1,0 L1,1 L0,1 Z " fill="#DB7B4C" opacity="0.90588236" transform="translate(11,54)"/>
<path d="M0,0 L1,0 L1,1 L0,1 Z " fill="#BE623F" opacity="0.9137255" transform="translate(52,53)"/>
<path d="M0,0 L1,0 L1,1 L0,1 Z " fill="#BD6240" opacity="0.9372549" transform="translate(47,53)"/>
<path d="M0,0 L1,0 L1,1 L0,1 Z " fill="#D9794B" opacity="0.9019608" transform="translate(46,53)"/>
<path d="M0,0 L1,0 L1,1 L0,1 Z " fill="#BE623F" opacity="0.9137255" transform="translate(16,53)"/>
<path d="M0,0 L1,0 L1,1 L0,1 Z " fill="#BD6240" opacity="0.9372549" transform="translate(11,53)"/>
<path d="M0,0 L1,0 L1,1 L0,1 Z " fill="#D9794B" opacity="0.9019608" transform="translate(10,53)"/>
<path d="M0,0 L1,0 L1,1 L0,1 Z " fill="#C26642" opacity="0.77254903" transform="translate(53,52)"/>
<path d="M0,0 L1,0 L1,1 L0,1 Z " fill="#C06541" opacity="0.78039217" transform="translate(46,52)"/>
<path d="M0,0 L1,0 L1,1 L0,1 Z " fill="#C26642" opacity="0.77254903" transform="translate(17,52)"/>
<path d="M0,0 L1,0 L1,1 L0,1 Z " fill="#C06541" opacity="0.78039217" transform="translate(10,52)"/>
<path d="M0,0 L1,0 L1,1 L0,1 Z " fill="#BD6340" opacity="0.9098039" transform="translate(53,51)"/>
<path d="M0,0 L1,0 L1,1 L0,1 Z " fill="#BC6340" opacity="0.92156863" transform="translate(46,51)"/>
<path d="M0,0 L1,0 L1,1 L0,1 Z " fill="#BD6340" opacity="0.9098039" transform="translate(17,51)"/>
<path d="M0,0 L1,0 L1,1 L0,1 Z " fill="#BC6340" opacity="0.92156863" transform="translate(10,51)"/>
<path d="M0,0 L1,0 L1,1 L0,1 Z " fill="#C16741" opacity="0.7764706" transform="translate(53,49)"/>
<path d="M0,0 L1,0 L1,1 L0,1 Z " fill="#C16641" opacity="0.78431374" transform="translate(46,49)"/>
<path d="M0,0 L1,0 L1,1 L0,1 Z " fill="#C16741" opacity="0.7764706" transform="translate(17,49)"/>
<path d="M0,0 L1,0 L1,1 L0,1 Z " fill="#C16641" opacity="0.78431374" transform="translate(10,49)"/>
<path d="M0,0 L1,0 L1,1 L0,1 Z " fill="#DB7B4C" opacity="0.90588236" transform="translate(53,48)"/>
<path d="M0,0 L1,0 L1,1 L0,1 Z " fill="#BD6240" opacity="0.9372549" transform="translate(52,48)"/>
<path d="M0,0 L1,0 L1,1 L0,1 Z " fill="#BC6241" opacity="0.95686275" transform="translate(47,48)"/>
<path d="M0,0 L1,0 L1,1 L0,1 Z " fill="#DB7B4C" opacity="0.90588236" transform="translate(17,48)"/>
<path d="M0,0 L1,0 L1,1 L0,1 Z " fill="#BD6240" opacity="0.9372549" transform="translate(16,48)"/>
<path d="M0,0 L1,0 L1,1 L0,1 Z " fill="#BC6241" opacity="0.95686275" transform="translate(11,48)"/>
<path d="M0,0 L1,0 L1,1 L0,1 Z " fill="#D9794B" opacity="0.9019608" transform="translate(52,47)"/>
<path d="M0,0 L1,0 L1,1 L0,1 Z " fill="#C06541" opacity="0.78039217" transform="translate(51,47)"/>
<path d="M0,0 L1,0 L1,1 L0,1 Z " fill="#BC6340" opacity="0.92156863" transform="translate(50,47)"/>
<path d="M0,0 L1,0 L1,1 L0,1 Z " fill="#C16641" opacity="0.78431374" transform="translate(48,47)"/>
<path d="M0,0 L1,0 L1,1 L0,1 Z " fill="#DA7A4D" opacity="0.9098039" transform="translate(35,47)"/>
<path d="M0,0 L1,0 L1,1 L0,1 Z " fill="#C86C45" opacity="0.7529412" transform="translate(34,47)"/>
<path d="M0,0 L1,0 L1,1 L0,1 Z " fill="#BE6340" opacity="0.84705883" transform="translate(33,47)"/>
<path d="M0,0 L1,0 L1,1 L0,1 Z " fill="#BD6240" opacity="0.92941177" transform="translate(31,47)"/>
<path d="M0,0 L1,0 L1,1 L0,1 Z " fill="#CC6E45" opacity="0.7529412" transform="translate(29,47)"/>
<path d="M0,0 L1,0 L1,1 L0,1 Z " fill="#DB7B4D" opacity="0.94509804" transform="translate(28,47)"/>
<path d="M0,0 L1,0 L1,1 L0,1 Z " fill="#D9794B" opacity="0.9019608" transform="translate(16,47)"/>
<path d="M0,0 L1,0 L1,1 L0,1 Z " fill="#C06541" opacity="0.78039217" transform="translate(15,47)"/>
<path d="M0,0 L1,0 L1,1 L0,1 Z " fill="#BC6340" opacity="0.92156863" transform="translate(14,47)"/>
<path d="M0,0 L1,0 L1,1 L0,1 Z " fill="#C16641" opacity="0.78431374" transform="translate(12,47)"/>
<path d="M0,0 L1,0 L1,1 L0,1 Z " fill="#DD7B4D" opacity="0.95686275" transform="translate(37,46)"/>
<path d="M0,0 L1,0 L1,1 L0,1 Z " fill="#C66A44" opacity="0.7529412" transform="translate(36,46)"/>
<path d="M0,0 L1,0 L1,1 L0,1 Z " fill="#BD6240" opacity="0.9764706" transform="translate(35,46)"/>
<path d="M0,0 L1,0 L1,1 L0,1 Z " fill="#C96C46" opacity="0.75686276" transform="translate(27,46)"/>
<path d="M0,0 L1,0 L1,1 L0,1 Z " fill="#DD7D4D" opacity="0.9843137" transform="translate(26,46)"/>
<path d="M0,0 L1,0 L1,1 L0,1 Z " fill="#DE7E4E" transform="translate(39,45)"/>
<path d="M0,0 L1,0 L1,1 L0,1 Z " fill="#CE7046" opacity="0.76862746" transform="translate(38,45)"/>
<path d="M0,0 L1,0 L1,1 L0,1 Z " fill="#BE623F" opacity="0.9137255" transform="translate(37,45)"/>
<path d="M0,0 L1,0 L1,1 L0,1 Z " fill="#D27449" opacity="0.79607844" transform="translate(25,45)"/>
<path d="M0,0 L1,0 L1,1 L0,1 Z " fill="#DE7D4E" transform="translate(24,45)"/>
<path d="M0,0 L1,0 L1,1 L0,1 Z " fill="#D5754A" opacity="0.827451" transform="translate(40,44)"/>
<path d="M0,0 L1,0 L1,1 L0,1 Z " fill="#BE6340" opacity="0.8392157" transform="translate(39,44)"/>
<path d="M0,0 L1,0 L1,1 L0,1 Z " fill="#E1875E" opacity="0.7882353" transform="translate(33,44)"/>
<path d="M0,0 L1,0 L1,1 L0,1 Z " fill="#F79B6F" opacity="0.9490196" transform="translate(32,44)"/>
<path d="M0,0 L1,0 L1,1 L0,1 Z " fill="#DC825A" opacity="0.76862746" transform="translate(30,44)"/>
<path d="M0,0 L1,0 L1,1 L0,1 Z " fill="#BE6441" opacity="0.8784314" transform="translate(29,44)"/>
<path d="M0,0 L1,0 L1,1 L0,1 Z " fill="#C16541" opacity="0.8" transform="translate(24,44)"/>
<path d="M0,0 L1,0 L1,1 L0,1 Z " fill="#D8784B" opacity="0.8666667" transform="translate(23,44)"/>
<path d="M0,0 L1,0 L1,1 L0,1 Z " fill="#DA7A4C" opacity="0.9019608" transform="translate(42,43)"/>
<path d="M0,0 L1,0 L1,1 L0,1 Z " fill="#C26642" opacity="0.77254903" transform="translate(41,43)"/>
<path d="M0,0 L1,0 L1,1 L0,1 Z " fill="#DC815A" opacity="0.76862746" transform="translate(35,43)"/>
<path d="M0,0 L1,0 L1,1 L0,1 Z " fill="#FA9E71" transform="translate(34,43)"/>
<path d="M0,0 L1,0 L1,1 L0,1 Z " fill="#F89C6F" opacity="0.98039216" transform="translate(29,43)"/>
<path d="M0,0 L1,0 L1,1 L0,1 Z " fill="#D57A52" opacity="0.75686276" transform="translate(28,43)"/>
<path d="M0,0 L1,0 L1,1 L0,1 Z " fill="#BD6240" opacity="0.9490196" transform="translate(27,43)"/>
<path d="M0,0 L1,0 L1,1 L0,1 Z " fill="#BC6241" opacity="0.9882353" transform="translate(23,43)"/>
<path d="M0,0 L1,0 L1,1 L0,1 Z " fill="#C56843" opacity="0.75686276" transform="translate(22,43)"/>
<path d="M0,0 L1,0 L1,1 L0,1 Z " fill="#DC7B4C" opacity="0.9411765" transform="translate(21,43)"/>
<path d="M0,0 L1,0 L1,1 L0,1 Z " fill="#BD6340" opacity="0.9529412" transform="translate(42,42)"/>
<path d="M0,0 L1,0 L1,1 L0,1 Z " fill="#BD6240" opacity="0.9764706" transform="translate(38,42)"/>
<path d="M0,0 L1,0 L1,1 L0,1 Z " fill="#D0744E" opacity="0.7529412" transform="translate(37,42)"/>
<path d="M0,0 L1,0 L1,1 L0,1 Z " fill="#F79C6F" opacity="0.95686275" transform="translate(36,42)"/>
<path d="M0,0 L1,0 L1,1 L0,1 Z " fill="#F5986C" opacity="0.92156863" transform="translate(27,42)"/>
<path d="M0,0 L1,0 L1,1 L0,1 Z " fill="#CA6E49" opacity="0.7647059" transform="translate(26,42)"/>
<path d="M0,0 L1,0 L1,1 L0,1 Z " fill="#BD6240" opacity="0.99607843" transform="translate(25,42)"/>
<path d="M0,0 L1,0 L1,1 L0,1 Z " fill="#BD6240" opacity="0.90588236" transform="translate(21,42)"/>
<path d="M0,0 L1,0 L1,1 L0,1 Z " fill="#D5754A" opacity="0.827451" transform="translate(20,42)"/>
<path d="M0,0 L1,0 L1,1 L0,1 Z " fill="#C56A46" opacity="0.78431374" transform="translate(39,41)"/>
<path d="M0,0 L1,0 L1,1 L0,1 Z " fill="#F19568" opacity="0.8901961" transform="translate(38,41)"/>
<path d="M0,0 L1,0 L1,1 L0,1 Z " fill="#EB9166" opacity="0.8509804" transform="translate(25,41)"/>
<path d="M0,0 L1,0 L1,1 L0,1 Z " fill="#C26743" opacity="0.8156863" transform="translate(24,41)"/>
<path d="M0,0 L1,0 L1,1 L0,1 Z " fill="#BD6340" opacity="0.98039216" transform="translate(20,41)"/>
<path d="M0,0 L1,0 L1,1 L0,1 Z " fill="#D5764A" opacity="0.83137256" transform="translate(19,41)"/>
<path d="M0,0 L1,0 L1,1 L0,1 Z " fill="#DA7B4D" opacity="0.92156863" transform="translate(45,40)"/>
<path d="M0,0 L1,0 L1,1 L0,1 Z " fill="#BD6240" opacity="0.94509804" transform="translate(44,40)"/>
<path d="M0,0 L1,0 L1,1 L0,1 Z " fill="#BF6441" opacity="0.88235295" transform="translate(41,40)"/>
<path d="M0,0 L1,0 L1,1 L0,1 Z " fill="#E78B61" opacity="0.8156863" transform="translate(40,40)"/>
<path d="M0,0 L1,0 L1,1 L0,1 Z " fill="#F79A6E" opacity="0.9529412" transform="translate(31,40)"/>
<path d="M0,0 L1,0 L1,1 L0,1 Z " fill="#FA9E71" transform="translate(24,40)"/>
<path d="M0,0 L1,0 L1,1 L0,1 Z " fill="#E1855C" opacity="0.78039217" transform="translate(23,40)"/>
<path d="M0,0 L1,0 L1,1 L0,1 Z " fill="#BD6340" opacity="0.92156863" transform="translate(22,40)"/>
<path d="M0,0 L1,0 L1,1 L0,1 Z " fill="#BD6340" opacity="0.9098039" transform="translate(19,40)"/>
<path d="M0,0 L1,0 L1,1 L0,1 Z " fill="#DC7B4E" opacity="0.9647059" transform="translate(18,40)"/>
<path d="M0,0 L1,0 L1,1 L0,1 Z " fill="#C86C45" opacity="0.7529412" transform="translate(45,39)"/>
<path d="M0,0 L1,0 L1,1 L0,1 Z " fill="#BE6341" opacity="0.8862745" transform="translate(42,39)"/>
<path d="M0,0 L1,0 L1,1 L0,1 Z " fill="#F59A6E" opacity="0.9372549" transform="translate(41,39)"/>
<path d="M0,0 L1,0 L1,1 L0,1 Z " fill="#F3986B" opacity="0.91764706" transform="translate(34,39)"/>
<path d="M0,0 L1,0 L1,1 L0,1 Z " fill="#C96D49" opacity="0.76862746" transform="translate(33,39)"/>
<path d="M0,0 L1,0 L1,1 L0,1 Z " fill="#BC6341" opacity="0.972549" transform="translate(31,39)"/>
<path d="M0,0 L1,0 L1,1 L0,1 Z " fill="#D07550" opacity="0.7529412" transform="translate(30,39)"/>
<path d="M0,0 L1,0 L1,1 L0,1 Z " fill="#F79C6F" opacity="0.95686275" transform="translate(29,39)"/>
<path d="M0,0 L1,0 L1,1 L0,1 Z " fill="#F1966A" opacity="0.9019608" transform="translate(22,39)"/>
<path d="M0,0 L1,0 L1,1 L0,1 Z " fill="#BD6241" opacity="0.8627451" transform="translate(45,38)"/>
<path d="M0,0 L1,0 L1,1 L0,1 Z " fill="#E1855C" opacity="0.7882353" transform="translate(42,38)"/>
<path d="M0,0 L1,0 L1,1 L0,1 Z " fill="#F89C6F" opacity="0.98039216" transform="translate(36,38)"/>
<path d="M0,0 L1,0 L1,1 L0,1 Z " fill="#D47952" opacity="0.7529412" transform="translate(35,38)"/>
<path d="M0,0 L1,0 L1,1 L0,1 Z " fill="#BD6340" opacity="0.9529412" transform="translate(34,38)"/>
<path d="M0,0 L1,0 L1,1 L0,1 Z " fill="#DB8057" opacity="0.7647059" transform="translate(28,38)"/>
<path d="M0,0 L1,0 L1,1 L0,1 Z " fill="#F99E70" opacity="0.99607843" transform="translate(27,38)"/>
<path d="M0,0 L1,0 L1,1 L0,1 Z " fill="#DB7E57" opacity="0.7607843" transform="translate(21,38)"/>
<path d="M0,0 L1,0 L1,1 L0,1 Z " fill="#BF6541" opacity="0.8117647" transform="translate(18,38)"/>
<path d="M0,0 L1,0 L1,1 L0,1 Z " fill="#DE7E4E" transform="translate(46,37)"/>
<path d="M0,0 L1,0 L1,1 L0,1 Z " fill="#BC6341" opacity="0.972549" transform="translate(45,37)"/>
<path d="M0,0 L1,0 L1,1 L0,1 Z " fill="#F89B6F" opacity="0.972549" transform="translate(42,37)"/>
<path d="M0,0 L1,0 L1,1 L0,1 Z " fill="#E2875F" opacity="0.7921569" transform="translate(37,37)"/>
<path d="M0,0 L1,0 L1,1 L0,1 Z " fill="#BE6441" opacity="0.88235295" transform="translate(36,37)"/>
<path d="M0,0 L1,0 L1,1 L0,1 Z " fill="#C06443" opacity="0.8509804" transform="translate(27,37)"/>
<path d="M0,0 L1,0 L1,1 L0,1 Z " fill="#E78D62" opacity="0.8156863" transform="translate(26,37)"/>
<path d="M0,0 L1,0 L1,1 L0,1 Z " fill="#F2966B" opacity="0.8980392" transform="translate(21,37)"/>
<path d="M0,0 L1,0 L1,1 L0,1 Z " fill="#BE6240" opacity="0.8980392" transform="translate(18,37)"/>
<path d="M0,0 L1,0 L1,1 L0,1 Z " fill="#DD7D4D" opacity="0.9607843" transform="translate(46,36)"/>
<path d="M0,0 L1,0 L1,1 L0,1 Z " fill="#BD6340" opacity="0.9607843" transform="translate(43,36)"/>
<path d="M0,0 L1,0 L1,1 L0,1 Z " fill="#E1875E" opacity="0.7882353" transform="translate(38,36)"/>
<path d="M0,0 L1,0 L1,1 L0,1 Z " fill="#BC6241" opacity="0.9882353" transform="translate(26,36)"/>
<path d="M0,0 L1,0 L1,1 L0,1 Z " fill="#EC9065" opacity="0.84313726" transform="translate(25,36)"/>
<path d="M0,0 L1,0 L1,1 L0,1 Z " fill="#CE734C" opacity="0.75686276" transform="translate(38,35)"/>
<path d="M0,0 L1,0 L1,1 L0,1 Z " fill="#CA6E49" opacity="0.7647059" transform="translate(33,35)"/>
<path d="M0,0 L1,0 L1,1 L0,1 Z " fill="#EE9468" opacity="0.8666667" transform="translate(31,35)"/>
<path d="M0,0 L1,0 L1,1 L0,1 Z " fill="#CA6E49" opacity="0.7647059" transform="translate(30,35)"/>
<path d="M0,0 L1,0 L1,1 L0,1 Z " fill="#D57A53" opacity="0.75686276" transform="translate(25,35)"/>
<path d="M0,0 L1,0 L1,1 L0,1 Z " fill="#F89B6F" opacity="0.972549" transform="translate(33,34)"/>
<path d="M0,0 L1,0 L1,1 L0,1 Z " fill="#F89B6F" opacity="0.972549" transform="translate(30,34)"/>
<path d="M0,0 L1,0 L1,1 L0,1 Z " fill="#F89B6F" opacity="0.972549" transform="translate(33,31)"/>
<path d="M0,0 L1,0 L1,1 L0,1 Z " fill="#F89C6F" opacity="0.972549" transform="translate(30,31)"/>
<path d="M0,0 L1,0 L1,1 L0,1 Z " fill="#C9704B" opacity="0.7607843" transform="translate(33,30)"/>
<path d="M0,0 L1,0 L1,1 L0,1 Z " fill="#EE9268" opacity="0.8745098" transform="translate(31,30)"/>
<path d="M0,0 L1,0 L1,1 L0,1 Z " fill="#CA6E49" opacity="0.7647059" transform="translate(30,30)"/>
<path d="M0,0 L1,0 L1,1 L0,1 Z " fill="#E1855C" opacity="0.7882353" transform="translate(38,29)"/>
<path d="M0,0 L1,0 L1,1 L0,1 Z " fill="#BD6340" opacity="0.99215686" transform="translate(26,29)"/>
<path d="M0,0 L1,0 L1,1 L0,1 Z " fill="#EB8F64" opacity="0.8392157" transform="translate(25,29)"/>
<path d="M0,0 L1,0 L1,1 L0,1 Z " fill="#DE7E4E" transform="translate(46,28)"/>
<path d="M0,0 L1,0 L1,1 L0,1 Z " fill="#BD6240" opacity="0.9764706" transform="translate(45,28)"/>
<path d="M0,0 L1,0 L1,1 L0,1 Z " fill="#E58960" opacity="0.8039216" transform="translate(37,28)"/>
<path d="M0,0 L1,0 L1,1 L0,1 Z " fill="#BF6442" opacity="0.8666667" transform="translate(36,28)"/>
<path d="M0,0 L1,0 L1,1 L0,1 Z " fill="#BE6442" opacity="0.8627451" transform="translate(27,28)"/>
<path d="M0,0 L1,0 L1,1 L0,1 Z " fill="#E58B60" opacity="0.80784315" transform="translate(26,28)"/>
<path d="M0,0 L1,0 L1,1 L0,1 Z " fill="#BD6240" opacity="0.90588236" transform="translate(18,28)"/>
<path d="M0,0 L1,0 L1,1 L0,1 Z " fill="#E58A61" opacity="0.8039216" transform="translate(42,27)"/>
<path d="M0,0 L1,0 L1,1 L0,1 Z " fill="#F99D6F" opacity="0.9882353" transform="translate(36,27)"/>
<path d="M0,0 L1,0 L1,1 L0,1 Z " fill="#D67B54" opacity="0.75686276" transform="translate(35,27)"/>
<path d="M0,0 L1,0 L1,1 L0,1 Z " fill="#BD6240" opacity="0.94509804" transform="translate(34,27)"/>
<path d="M0,0 L1,0 L1,1 L0,1 Z " fill="#D97D55" opacity="0.7607843" transform="translate(28,27)"/>
<path d="M0,0 L1,0 L1,1 L0,1 Z " fill="#F99C71" opacity="0.99215686" transform="translate(27,27)"/>
<path d="M0,0 L1,0 L1,1 L0,1 Z " fill="#DE8159" opacity="0.77254903" transform="translate(21,27)"/>
<path d="M0,0 L1,0 L1,1 L0,1 Z " fill="#C66944" opacity="0.7529412" transform="translate(45,26)"/>
<path d="M0,0 L1,0 L1,1 L0,1 Z " fill="#C06443" opacity="0.8509804" transform="translate(42,26)"/>
<path d="M0,0 L1,0 L1,1 L0,1 Z " fill="#F79C6F" opacity="0.9647059" transform="translate(41,26)"/>
<path d="M0,0 L1,0 L1,1 L0,1 Z " fill="#F6996D" opacity="0.92941177" transform="translate(34,26)"/>
<path d="M0,0 L1,0 L1,1 L0,1 Z " fill="#C97049" opacity="0.7607843" transform="translate(33,26)"/>
<path d="M0,0 L1,0 L1,1 L0,1 Z " fill="#BD6340" opacity="0.99215686" transform="translate(32,26)"/>
<path d="M0,0 L1,0 L1,1 L0,1 Z " fill="#CD724E" opacity="0.75686276" transform="translate(30,26)"/>
<path d="M0,0 L1,0 L1,1 L0,1 Z " fill="#F79B6E" opacity="0.94509804" transform="translate(29,26)"/>
<path d="M0,0 L1,0 L1,1 L0,1 Z " fill="#F5996C" opacity="0.93333334" transform="translate(22,26)"/>
<path d="M0,0 L1,0 L1,1 L0,1 Z " fill="#BE6340" opacity="0.8901961" transform="translate(21,26)"/>
<path d="M0,0 L1,0 L1,1 L0,1 Z " fill="#CA6C46" opacity="0.75686276" transform="translate(18,26)"/>
<path d="M0,0 L1,0 L1,1 L0,1 Z " fill="#D97A4C" opacity="0.89411765" transform="translate(45,25)"/>
<path d="M0,0 L1,0 L1,1 L0,1 Z " fill="#C06542" opacity="0.8509804" transform="translate(41,25)"/>
<path d="M0,0 L1,0 L1,1 L0,1 Z " fill="#EC9166" opacity="0.84313726" transform="translate(40,25)"/>
<path d="M0,0 L1,0 L1,1 L0,1 Z " fill="#F69A6C" opacity="0.9411765" transform="translate(31,25)"/>
<path d="M0,0 L1,0 L1,1 L0,1 Z " fill="#E58B60" opacity="0.80784315" transform="translate(23,25)"/>
<path d="M0,0 L1,0 L1,1 L0,1 Z " fill="#BE6341" opacity="0.89411765" transform="translate(22,25)"/>
<path d="M0,0 L1,0 L1,1 L0,1 Z " fill="#BD6240" opacity="0.92941177" transform="translate(19,25)"/>
<path d="M0,0 L1,0 L1,1 L0,1 Z " fill="#DC7B4C" opacity="0.9411765" transform="translate(18,25)"/>
<path d="M0,0 L1,0 L1,1 L0,1 Z " fill="#CE7147" opacity="0.76862746" transform="translate(44,24)"/>
<path d="M0,0 L1,0 L1,1 L0,1 Z " fill="#BD6240" opacity="0.99607843" transform="translate(40,24)"/>
<path d="M0,0 L1,0 L1,1 L0,1 Z " fill="#C96D49" opacity="0.76862746" transform="translate(39,24)"/>
<path d="M0,0 L1,0 L1,1 L0,1 Z " fill="#F3986B" opacity="0.9137255" transform="translate(38,24)"/>
<path d="M0,0 L1,0 L1,1 L0,1 Z " fill="#F09568" opacity="0.88235295" transform="translate(25,24)"/>
<path d="M0,0 L1,0 L1,1 L0,1 Z " fill="#C56947" opacity="0.7882353" transform="translate(24,24)"/>
<path d="M0,0 L1,0 L1,1 L0,1 Z " fill="#BD6340" opacity="0.99215686" transform="translate(20,24)"/>
<path d="M0,0 L1,0 L1,1 L0,1 Z " fill="#D37449" opacity="0.80784315" transform="translate(19,24)"/>
<path d="M0,0 L1,0 L1,1 L0,1 Z " fill="#CE6F48" opacity="0.7647059" transform="translate(43,23)"/>
<path d="M0,0 L1,0 L1,1 L0,1 Z " fill="#BD6240" opacity="0.9764706" transform="translate(42,23)"/>
<path d="M0,0 L1,0 L1,1 L0,1 Z " fill="#D27851" opacity="0.7529412" transform="translate(37,23)"/>
<path d="M0,0 L1,0 L1,1 L0,1 Z " fill="#F89B6F" opacity="0.972549" transform="translate(36,23)"/>
<path d="M0,0 L1,0 L1,1 L0,1 Z " fill="#F89A6F" opacity="0.9490196" transform="translate(27,23)"/>
<path d="M0,0 L1,0 L1,1 L0,1 Z " fill="#CE744E" opacity="0.7529412" transform="translate(26,23)"/>
<path d="M0,0 L1,0 L1,1 L0,1 Z " fill="#BD6340" opacity="0.98039216" transform="translate(25,23)"/>
<path d="M0,0 L1,0 L1,1 L0,1 Z " fill="#BD6240" opacity="0.93333334" transform="translate(21,23)"/>
<path d="M0,0 L1,0 L1,1 L0,1 Z " fill="#D27448" opacity="0.8" transform="translate(20,23)"/>
<path d="M0,0 L1,0 L1,1 L0,1 Z " fill="#D8784B" opacity="0.8745098" transform="translate(42,22)"/>
<path d="M0,0 L1,0 L1,1 L0,1 Z " fill="#C16541" opacity="0.7921569" transform="translate(41,22)"/>
<path d="M0,0 L1,0 L1,1 L0,1 Z " fill="#DF835B" opacity="0.7764706" transform="translate(35,22)"/>
<path d="M0,0 L1,0 L1,1 L0,1 Z " fill="#FA9E71" transform="translate(34,22)"/>
<path d="M0,0 L1,0 L1,1 L0,1 Z " fill="#F99E70" opacity="0.99607843" transform="translate(29,22)"/>
<path d="M0,0 L1,0 L1,1 L0,1 Z " fill="#DB8057" opacity="0.7647059" transform="translate(28,22)"/>
<path d="M0,0 L1,0 L1,1 L0,1 Z " fill="#BD6340" opacity="0.92156863" transform="translate(27,22)"/>
<path d="M0,0 L1,0 L1,1 L0,1 Z " fill="#C36742" opacity="0.76862746" transform="translate(22,22)"/>
<path d="M0,0 L1,0 L1,1 L0,1 Z " fill="#DA7B4B" opacity="0.9137255" transform="translate(21,22)"/>
<path d="M0,0 L1,0 L1,1 L0,1 Z " fill="#D4744A" opacity="0.8039216" transform="translate(40,21)"/>
<path d="M0,0 L1,0 L1,1 L0,1 Z " fill="#BE6341" opacity="0.85882354" transform="translate(39,21)"/>
<path d="M0,0 L1,0 L1,1 L0,1 Z " fill="#E2875F" opacity="0.7921569" transform="translate(33,21)"/>
<path d="M0,0 L1,0 L1,1 L0,1 Z " fill="#F79B6F" opacity="0.9490196" transform="translate(32,21)"/>
<path d="M0,0 L1,0 L1,1 L0,1 Z " fill="#E1855D" opacity="0.78431374" transform="translate(30,21)"/>
<path d="M0,0 L1,0 L1,1 L0,1 Z " fill="#BF6642" opacity="0.84313726" transform="translate(29,21)"/>
<path d="M0,0 L1,0 L1,1 L0,1 Z " fill="#D7754A" opacity="0.8352941" transform="translate(23,21)"/>
<path d="M0,0 L1,0 L1,1 L0,1 Z " fill="#DD7D4D" opacity="0.99215686" transform="translate(39,20)"/>
<path d="M0,0 L1,0 L1,1 L0,1 Z " fill="#CB6E45" opacity="0.7607843" transform="translate(38,20)"/>
<path d="M0,0 L1,0 L1,1 L0,1 Z " fill="#BD6240" opacity="0.9254902" transform="translate(37,20)"/>
<path d="M0,0 L1,0 L1,1 L0,1 Z " fill="#CE6F47" opacity="0.77254903" transform="translate(25,20)"/>
<path d="M0,0 L1,0 L1,1 L0,1 Z " fill="#DE7E4E" transform="translate(24,20)"/>
<path d="M0,0 L1,0 L1,1 L0,1 Z " fill="#C26642" opacity="0.77254903" transform="translate(51,19)"/>
<path d="M0,0 L1,0 L1,1 L0,1 Z " fill="#BD6340" opacity="0.9098039" transform="translate(50,19)"/>
<path d="M0,0 L1,0 L1,1 L0,1 Z " fill="#C16741" opacity="0.7764706" transform="translate(48,19)"/>
<path d="M0,0 L1,0 L1,1 L0,1 Z " fill="#DB7B4C" opacity="0.90588236" transform="translate(47,19)"/>
<path d="M0,0 L1,0 L1,1 L0,1 Z " fill="#DB7C4D" opacity="0.94509804" transform="translate(37,19)"/>
<path d="M0,0 L1,0 L1,1 L0,1 Z " fill="#C56844" opacity="0.75686276" transform="translate(36,19)"/>
<path d="M0,0 L1,0 L1,1 L0,1 Z " fill="#BD6340" opacity="0.98039216" transform="translate(35,19)"/>
<path d="M0,0 L1,0 L1,1 L0,1 Z " fill="#C86C45" opacity="0.7529412" transform="translate(27,19)"/>
<path d="M0,0 L1,0 L1,1 L0,1 Z " fill="#DC7B4E" opacity="0.9647059" transform="translate(26,19)"/>
<path d="M0,0 L1,0 L1,1 L0,1 Z " fill="#C26642" opacity="0.77254903" transform="translate(15,19)"/>
<path d="M0,0 L1,0 L1,1 L0,1 Z " fill="#BD6340" opacity="0.9098039" transform="translate(14,19)"/>
<path d="M0,0 L1,0 L1,1 L0,1 Z " fill="#C16741" opacity="0.7764706" transform="translate(12,19)"/>
<path d="M0,0 L1,0 L1,1 L0,1 Z " fill="#DB7B4C" opacity="0.90588236" transform="translate(11,19)"/>
<path d="M0,0 L1,0 L1,1 L0,1 Z " fill="#BE623F" opacity="0.9137255" transform="translate(52,18)"/>
<path d="M0,0 L1,0 L1,1 L0,1 Z " fill="#BD6240" opacity="0.9372549" transform="translate(47,18)"/>
<path d="M0,0 L1,0 L1,1 L0,1 Z " fill="#D9794B" opacity="0.9019608" transform="translate(46,18)"/>
<path d="M0,0 L1,0 L1,1 L0,1 Z " fill="#DA7A4D" opacity="0.9098039" transform="translate(35,18)"/>
<path d="M0,0 L1,0 L1,1 L0,1 Z " fill="#C86C45" opacity="0.7529412" transform="translate(34,18)"/>
<path d="M0,0 L1,0 L1,1 L0,1 Z " fill="#BE6441" opacity="0.84313726" transform="translate(33,18)"/>
<path d="M0,0 L1,0 L1,1 L0,1 Z " fill="#BC6240" opacity="0.94509804" transform="translate(31,18)"/>
<path d="M0,0 L1,0 L1,1 L0,1 Z " fill="#C96A44" opacity="0.7529412" transform="translate(29,18)"/>
<path d="M0,0 L1,0 L1,1 L0,1 Z " fill="#DA7A4D" opacity="0.9098039" transform="translate(28,18)"/>
<path d="M0,0 L1,0 L1,1 L0,1 Z " fill="#BE623F" opacity="0.9137255" transform="translate(16,18)"/>
<path d="M0,0 L1,0 L1,1 L0,1 Z " fill="#BD6240" opacity="0.9372549" transform="translate(11,18)"/>
<path d="M0,0 L1,0 L1,1 L0,1 Z " fill="#D9794B" opacity="0.9019608" transform="translate(10,18)"/>
<path d="M0,0 L1,0 L1,1 L0,1 Z " fill="#C26642" opacity="0.77254903" transform="translate(53,17)"/>
<path d="M0,0 L1,0 L1,1 L0,1 Z " fill="#C06541" opacity="0.78039217" transform="translate(46,17)"/>
<path d="M0,0 L1,0 L1,1 L0,1 Z " fill="#C26642" opacity="0.77254903" transform="translate(17,17)"/>
<path d="M0,0 L1,0 L1,1 L0,1 Z " fill="#C06541" opacity="0.78039217" transform="translate(10,17)"/>
<path d="M0,0 L1,0 L1,1 L0,1 Z " fill="#BD6340" opacity="0.9098039" transform="translate(53,16)"/>
<path d="M0,0 L1,0 L1,1 L0,1 Z " fill="#BC6340" opacity="0.92156863" transform="translate(46,16)"/>
<path d="M0,0 L1,0 L1,1 L0,1 Z " fill="#BD6340" opacity="0.9098039" transform="translate(17,16)"/>
<path d="M0,0 L1,0 L1,1 L0,1 Z " fill="#BC6340" opacity="0.92156863" transform="translate(10,16)"/>
<path d="M0,0 L1,0 L1,1 L0,1 Z " fill="#C16741" opacity="0.7764706" transform="translate(53,14)"/>
<path d="M0,0 L1,0 L1,1 L0,1 Z " fill="#C16641" opacity="0.78431374" transform="translate(46,14)"/>
<path d="M0,0 L1,0 L1,1 L0,1 Z " fill="#C16741" opacity="0.7764706" transform="translate(17,14)"/>
<path d="M0,0 L1,0 L1,1 L0,1 Z " fill="#C16641" opacity="0.78431374" transform="translate(10,14)"/>
<path d="M0,0 L1,0 L1,1 L0,1 Z " fill="#DB7B4C" opacity="0.90588236" transform="translate(53,13)"/>
<path d="M0,0 L1,0 L1,1 L0,1 Z " fill="#BD6240" opacity="0.9372549" transform="translate(52,13)"/>
<path d="M0,0 L1,0 L1,1 L0,1 Z " fill="#BC6241" opacity="0.95686275" transform="translate(47,13)"/>
<path d="M0,0 L1,0 L1,1 L0,1 Z " fill="#DB7B4C" opacity="0.90588236" transform="translate(17,13)"/>
<path d="M0,0 L1,0 L1,1 L0,1 Z " fill="#BD6240" opacity="0.9372549" transform="translate(16,13)"/>
<path d="M0,0 L1,0 L1,1 L0,1 Z " fill="#BC6241" opacity="0.95686275" transform="translate(11,13)"/>
<path d="M0,0 L1,0 L1,1 L0,1 Z " fill="#D9794B" opacity="0.9019608" transform="translate(52,12)"/>
<path d="M0,0 L1,0 L1,1 L0,1 Z " fill="#C06541" opacity="0.78039217" transform="translate(51,12)"/>
<path d="M0,0 L1,0 L1,1 L0,1 Z " fill="#BC6340" opacity="0.92156863" transform="translate(50,12)"/>
<path d="M0,0 L1,0 L1,1 L0,1 Z " fill="#C16641" opacity="0.78431374" transform="translate(48,12)"/>
<path d="M0,0 L1,0 L1,1 L0,1 Z " fill="#D9794B" opacity="0.9019608" transform="translate(16,12)"/>
<path d="M0,0 L1,0 L1,1 L0,1 Z " fill="#C06541" opacity="0.78039217" transform="translate(15,12)"/>
<path d="M0,0 L1,0 L1,1 L0,1 Z " fill="#BC6340" opacity="0.92156863" transform="translate(14,12)"/>
<path d="M0,0 L1,0 L1,1 L0,1 Z " fill="#C16641" opacity="0.78431374" transform="translate(12,12)"/>
<path d="M0,0 L1,0 L1,1 L0,1 Z " fill="#DE7E4F" opacity="0.9529412" transform="translate(59,11)"/>
<path d="M0,0 L1,0 L1,1 L0,1 Z " fill="#DE7D4E" opacity="0.95686275" transform="translate(4,11)"/>
<path d="M0,0 L1,0 L1,1 L0,1 Z " fill="#F09264" opacity="0.8" transform="translate(59,9)"/>
<path d="M0,0 L1,0 L1,1 L0,1 Z " fill="#DE7E4F" transform="translate(5,9)"/>
<path d="M0,0 L1,0 L1,1 L0,1 Z " fill="#EF9162" opacity="0.7921569" transform="translate(4,9)"/>
<path d="M0,0 L1,0 L1,1 L0,1 Z " fill="#F09364" opacity="0.7921569" transform="translate(58,8)"/>
<path d="M0,0 L1,0 L1,1 L0,1 Z " fill="#E07F50" opacity="0.827451" transform="translate(57,8)"/>
<path d="M0,0 L1,0 L1,1 L0,1 Z " fill="#DE7D4E" opacity="0.9411765" transform="translate(56,8)"/>
<path d="M0,0 L1,0 L1,1 L0,1 Z " fill="#DE7D4E" opacity="0.9411765" transform="translate(7,8)"/>
<path d="M0,0 L1,0 L1,1 L0,1 Z " fill="#EF9163" opacity="0.7882353" transform="translate(5,8)"/>
<path d="M0,0 L1,0 L1,1 L0,1 Z " fill="#343441" opacity="0.972549" transform="translate(63,7)"/>
<path d="M0,0 L1,0 L1,1 L0,1 Z " fill="#343441" opacity="0.972549" transform="translate(0,7)"/>
<path d="M0,0 L1,0 L1,1 L0,1 Z " fill="#ED976E" opacity="0.8235294" transform="translate(59,6)"/>
<path d="M0,0 L1,0 L1,1 L0,1 Z " fill="#EF986F" opacity="0.83137256" transform="translate(4,6)"/>
<path d="M0,0 L1,0 L1,1 L0,1 Z " fill="#343440" opacity="0.7294118" transform="translate(63,5)"/>
<path d="M0,0 L1,0 L1,1 L0,1 Z " fill="#805C52" opacity="0.7921569" transform="translate(59,5)"/>
<path d="M0,0 L1,0 L1,1 L0,1 Z " fill="#FA9F72" transform="translate(5,5)"/>
<path d="M0,0 L1,0 L1,1 L0,1 Z " fill="#343440" opacity="0.74509805" transform="translate(0,5)"/>
<path d="M0,0 L1,0 L1,1 L0,1 Z " fill="#815D53" opacity="0.7921569" transform="translate(58,4)"/>
<path d="M0,0 L1,0 L1,1 L0,1 Z " fill="#ED976E" opacity="0.827451" transform="translate(57,4)"/>
<path d="M0,0 L1,0 L1,1 L0,1 Z " fill="#F99E71" opacity="0.9372549" transform="translate(56,4)"/>
<path d="M0,0 L1,0 L1,1 L0,1 Z " fill="#EF986F" opacity="0.83137256" transform="translate(6,4)"/>
<path d="M0,0 L1,0 L1,1 L0,1 Z " fill="#353540" transform="translate(4,4)"/>
<path d="M0,0 L1,0 L1,1 L0,1 Z " fill="#30303C" opacity="0.08235294" transform="translate(63,3)"/>
<path d="M0,0 L1,0 L1,1 L0,1 Z " fill="#343441" opacity="0.972549" transform="translate(1,3)"/>
<path d="M0,0 L1,0 L1,1 L0,1 Z " fill="#2C2C42" opacity="0.09019608" transform="translate(0,3)"/>
<path d="M0,0 L1,0 L1,1 L0,1 Z " fill="#333340" opacity="0.39215687" transform="translate(62,2)"/>
<path d="M0,0 L1,0 L1,1 L0,1 Z " fill="#353541" transform="translate(2,2)"/>
<path d="M0,0 L1,0 L1,1 L0,1 Z " fill="#35353F" opacity="0.39607844" transform="translate(61,1)"/>
<path d="M0,0 L1,0 L1,1 L0,1 Z " fill="#343440" opacity="0.96862745" transform="translate(60,1)"/>
<path d="M0,0 L1,0 L1,1 L0,1 Z " fill="#343441" opacity="0.972549" transform="translate(3,1)"/>
<path d="M0,0 L1,0 L1,1 L0,1 Z " fill="#343440" opacity="0.003921569" transform="translate(1,1)"/>
<path d="M0,0 L1,0 L1,1 L0,1 Z " fill="#343441" opacity="0.47843137" transform="translate(59,0)"/>
<path d="M0,0 L1,0 L1,1 L0,1 Z " fill="#343441" opacity="0.7411765" transform="translate(58,0)"/>
<path d="M0,0 L1,0 L1,1 L0,1 Z " fill="#343441" opacity="0.9098039" transform="translate(57,0)"/>
<path d="M0,0 L1,0 L1,1 L0,1 Z " fill="#343441" opacity="0.972549" transform="translate(56,0)"/>
<path d="M0,0 L1,0 L1,1 L0,1 Z " fill="#343441" opacity="0.972549" transform="translate(7,0)"/>
<path d="M0,0 L1,0 L1,1 L0,1 Z " fill="#343440" opacity="0.74509805" transform="translate(5,0)"/>
<path d="M0,0 L1,0 L1,1 L0,1 Z " fill="#2C2C42" opacity="0.09019608" transform="translate(3,0)"/>
</svg>
