<?xml version="1.0" encoding="UTF-8"?>
<!-- Generator: visioncortex VTracer 0.6.4 -->
<svg version="1.1" xmlns="http://www.w3.org/2000/svg" width="64" height="64">
<path d="M0,0 L48,0 L48,1 L52,1 L52,2 L54,2 L54,4 L55,4 L55,8 L56,8 L56,56 L55,56 L55,60 L54,60 L54,62 L52,62 L52,63 L48,63 L48,64 L0,64 L0,63 L-4,63 L-4,62 L-6,62 L-6,60 L-7,60 L-7,56 L-8,56 L-8,8 L-7,8 L-7,4 L-6,4 L-6,2 L-4,2 L-4,1 L0,1 Z M-3,4 L-3,5 L-4,5 L-4,10 L-3,10 L-3,7 L-1,7 L-1,8 L0,8 L0,6 L-2,6 L-2,5 L0,5 L0,4 Z M48,4 L48,5 L50,5 L50,6 L48,6 L48,8 L49,8 L49,7 L51,7 L51,10 L52,10 L52,5 L51,5 L51,4 Z M0,8 L0,9 L1,9 L1,8 Z M47,8 L47,9 L48,9 L48,8 Z M1,9 L1,10 L2,10 L2,9 Z M46,9 L46,10 L47,10 L47,9 Z M2,10 L2,11 L3,11 L3,10 Z M45,10 L45,11 L46,11 L46,10 Z M3,11 L3,12 L4,12 L4,11 Z M44,11 L44,12 L45,12 L45,11 Z M3,52 L3,53 L4,53 L4,52 Z M44,52 L44,53 L45,53 L45,52 Z M2,53 L2,54 L3,54 L3,53 Z M45,53 L45,54 L46,54 L46,53 Z M1,54 L1,55 L2,55 L2,54 Z M46,54 L46,55 L47,55 L47,54 Z M0,55 L0,56 L1,56 L1,55 Z M47,55 L47,56 L48,56 L48,55 Z M-4,56 L-4,59 L-3,59 L-3,60 L0,60 L0,59 L-2,59 L-2,58 L-3,58 L-3,56 Z M-1,56 L-1,57 L0,57 L0,56 Z M48,56 L48,57 L49,57 L49,56 Z M51,56 L51,58 L50,58 L50,59 L48,59 L48,60 L51,60 L51,59 L52,59 L52,56 Z M-2,57 L-2,58 L-1,58 L-1,57 Z M49,57 L49,58 L50,58 L50,57 Z " fill="#BD6341" transform="translate(8,0)"/>
<path d="M0,0 L48,0 L48,1 L52,1 L52,2 L54,2 L54,4 L55,4 L55,8 L56,8 L56,56 L55,56 L55,60 L54,60 L54,62 L52,62 L52,63 L48,63 L48,64 L0,64 L0,63 L-4,63 L-4,62 L-6,62 L-6,60 L-7,60 L-7,56 L-8,56 L-8,8 L-7,8 L-7,4 L-6,4 L-6,2 L-4,2 L-4,1 L0,1 Z M-3,4 L-3,5 L-4,5 L-4,59 L-3,59 L-3,60 L51,60 L51,59 L52,59 L52,5 L51,5 L51,4 Z " fill="#353541" transform="translate(8,0)"/>
<path d="M0,0 L40,0 L40,1 L41,1 L41,2 L42,2 L42,3 L43,3 L43,4 L44,4 L44,5 L45,5 L45,6 L46,6 L46,7 L44,7 L44,8 L-4,8 L-4,7 L-6,7 L-6,6 L-5,6 L-5,5 L-4,5 L-4,4 L-3,4 L-3,3 L-2,3 L-2,2 L-1,2 L-1,1 L0,1 Z " fill="#9F5438" transform="translate(12,52)"/>
<path d="M0,0 L48,0 L48,1 L50,1 L50,2 L48,2 L48,4 L47,4 L47,5 L46,5 L46,6 L45,6 L45,7 L44,7 L44,8 L4,8 L4,7 L3,7 L3,6 L2,6 L2,5 L1,5 L1,4 L0,4 L0,2 L-2,2 L-2,1 L0,1 Z " fill="#DE7E4F" transform="translate(8,4)"/>
<path d="M0,0 L2,0 L2,3 L3,3 L3,49 L2,49 L2,51 L1,51 L1,50 L0,50 L0,49 L-1,49 L-1,48 L-2,48 L-2,47 L-3,47 L-3,46 L-4,46 L-4,45 L-5,45 L-5,5 L-4,5 L-4,4 L-3,4 L-3,3 L-2,3 L-2,2 L-1,2 L-1,1 L0,1 Z " fill="#CA6D46" transform="translate(57,7)"/>
<path d="M0,0 L2,0 L2,1 L3,1 L3,2 L4,2 L4,3 L5,3 L5,4 L6,4 L6,5 L7,5 L7,45 L6,45 L6,46 L5,46 L5,47 L4,47 L4,48 L3,48 L3,49 L2,49 L2,50 L1,50 L1,51 L0,51 L0,49 L-1,49 L-1,3 L0,3 Z " fill="#CA6D46" transform="translate(5,7)"/>
<path d="M0,0 L48,0 L48,1 L50,1 L50,2 L-2,2 L-2,1 L0,1 Z " fill="#FA9F72" transform="translate(8,4)"/>
<path d="M0,0 L1,0 L1,1 L0,1 Z M-1,1 L0,1 L0,2 L-1,2 Z M-2,2 L-1,2 L-1,3 L-2,3 Z M-3,3 L-2,3 L-2,4 L-3,4 Z M-4,4 L-3,4 L-3,5 L-4,5 Z M-5,5 L-4,5 L-4,6 L-5,6 Z " fill="#CA6D46" transform="translate(57,7)"/>
<path d="M0,0 L1,0 L1,1 L0,1 Z M-1,1 L0,1 L0,2 L-1,2 Z M-2,2 L-1,2 L-1,3 L-2,3 Z M-3,3 L-2,3 L-2,4 L-3,4 Z M-4,4 L-3,4 L-3,5 L-4,5 Z M-5,5 L-4,5 L-4,6 L-5,6 Z M-6,6 L-5,6 L-5,7 L-6,7 Z " fill="#AD5C3C" opacity="0.7529412" transform="translate(11,52)"/>
<path d="M0,0 L1,0 L1,1 L0,1 Z M1,1 L2,1 L2,2 L1,2 Z M2,2 L3,2 L3,3 L2,3 Z M3,3 L4,3 L4,4 L3,4 Z M4,4 L5,4 L5,5 L4,5 Z M5,5 L6,5 L6,6 L5,6 Z M6,6 L7,6 L7,7 L6,7 Z " fill="#AD5C3C" opacity="0.7529412" transform="translate(52,52)"/>
<path d="M0,0 L1,0 L1,1 L0,1 Z M-1,1 L0,1 L0,2 L-1,2 Z M-2,2 L-1,2 L-1,3 L-2,3 Z M-3,3 L-2,3 L-2,4 L-3,4 Z M-4,4 L-3,4 L-3,5 L-4,5 Z M-5,5 L-4,5 L-4,6 L-5,6 Z M-6,6 L-5,6 L-5,7 L-6,7 Z " fill="#9F5438" transform="translate(12,52)"/>
<path d="M0,0 L1,0 L1,1 L0,1 Z M-1,1 L0,1 L0,2 L-1,2 Z M-2,2 L-1,2 L-1,3 L-2,3 Z M-3,3 L-2,3 L-2,4 L-3,4 Z M-4,4 L-3,4 L-3,5 L-4,5 Z " fill="#D07148" opacity="0.7529412" transform="translate(56,7)"/>
<path d="M0,0 L1,0 L1,1 L0,1 Z M1,1 L2,1 L2,2 L1,2 Z M2,2 L3,2 L3,3 L2,3 Z M3,3 L4,3 L4,4 L3,4 Z M4,4 L5,4 L5,5 L4,5 Z " fill="#D17248" opacity="0.7529412" transform="translate(7,7)"/>
<path d="M0,0 L1,0 L1,1 L0,1 Z " fill="#D7774A" opacity="0.7921569" transform="translate(5,6)"/>
<path d="M0,0 L1,0 L1,1 L0,1 Z M-2,1 L0,1 L0,2 L-2,2 Z " fill="#FA9F72" transform="translate(8,4)"/>
<path d="M0,0 L1,0 L1,1 L0,1 Z " fill="#333340" opacity="0.6392157" transform="translate(58,63)"/>
<path d="M0,0 L1,0 L1,1 L0,1 Z " fill="#353540" opacity="0.8117647" transform="translate(6,63)"/>
<path d="M0,0 L1,0 L1,1 L0,1 Z " fill="#343440" opacity="0.654902" transform="translate(63,58)"/>
<path d="M0,0 L1,0 L1,1 L0,1 Z " fill="#343440" opacity="0.9019608" transform="translate(63,6)"/>
<path d="M0,0 L1,0 L1,1 L0,1 Z " fill="#D6764A" opacity="0.79607844" transform="translate(58,6)"/>
<path d="M0,0 L1,0 L1,1 L0,1 Z " fill="#343441" opacity="0.9098039" transform="translate(0,6)"/>
<path d="M0,0 L1,0 L1,1 L0,1 Z " fill="#343441" opacity="0.9098039" transform="translate(6,0)"/>
<path d="M0,0 L1,0 L1,1 L0,1 Z " fill="#353540" opacity="0.4509804" transform="translate(4,63)"/>
<path d="M0,0 L1,0 L1,1 L0,1 Z " fill="#353540" opacity="0.9647059" transform="translate(3,62)"/>
<path d="M0,0 L1,0 L1,1 L0,1 Z " fill="#31313B" opacity="0.101960786" transform="translate(0,60)"/>
<path d="M0,0 L1,0 L1,1 L0,1 Z " fill="#975137" opacity="0.827451" transform="translate(6,59)"/>
<path d="M0,0 L1,0 L1,1 L0,1 Z " fill="#CA6C45" opacity="0.9490196" transform="translate(59,9)"/>
<path d="M0,0 L1,0 L1,1 L0,1 Z " fill="#CA6C45" opacity="0.9529412" transform="translate(4,9)"/>
<path d="M0,0 L1,0 L1,1 L0,1 Z " fill="#D1744A" opacity="0.75686276" transform="translate(4,7)"/>
<path d="M0,0 L1,0 L1,1 L0,1 Z " fill="#DE7E4F" transform="translate(8,6)"/>
<path d="M0,0 L1,0 L1,1 L0,1 Z " fill="#353540" opacity="0.47058824" transform="translate(63,4)"/>
<path d="M0,0 L1,0 L1,1 L0,1 Z " fill="#F99E71" opacity="0.9411765" transform="translate(7,4)"/>
<path d="M0,0 L1,0 L1,1 L0,1 Z " fill="#343440" opacity="0.48235294" transform="translate(0,4)"/>
<path d="M0,0 L1,0 L1,1 L0,1 Z " fill="#343440" opacity="0.96862745" transform="translate(62,3)"/>
<path d="M0,0 L1,0 L1,1 L0,1 Z M-1,1 L0,1 L0,2 L-1,2 Z " fill="#343441" opacity="0.4" transform="translate(2,1)"/>
<path d="M0,0 L1,0 L1,1 L0,1 Z " fill="#2E2E3A" opacity="0.08627451" transform="translate(60,0)"/>
<path d="M0,0 L1,0 L1,1 L0,1 Z " fill="#343440" opacity="0.48235294" transform="translate(4,0)"/>
<path d="M0,0 L1,0 L1,1 L0,1 Z " fill="#333340" opacity="0.078431375" transform="translate(60,63)"/>
<path d="M0,0 L1,0 L1,1 L0,1 Z " fill="#353540" opacity="0.4509804" transform="translate(59,63)"/>
<path d="M0,0 L1,0 L1,1 L0,1 Z " fill="#343440" opacity="0.80784315" transform="translate(57,63)"/>
<path d="M0,0 L1,0 L1,1 L0,1 Z " fill="#343440" opacity="0.96862745" transform="translate(56,63)"/>
<path d="M0,0 L1,0 L1,1 L0,1 Z " fill="#343441" opacity="0.972549" transform="translate(7,63)"/>
<path d="M0,0 L1,0 L1,1 L0,1 Z " fill="#333340" opacity="0.6392157" transform="translate(5,63)"/>
<path d="M0,0 L1,0 L1,1 L0,1 Z " fill="#30303C" opacity="0.08235294" transform="translate(3,63)"/>
<path d="M0,0 L1,0 L1,1 L0,1 Z " fill="#333340" opacity="0.3882353" transform="translate(61,62)"/>
<path d="M0,0 L1,0 L1,1 L0,1 Z " fill="#343440" opacity="0.9607843" transform="translate(60,62)"/>
<path d="M0,0 L1,0 L1,1 L0,1 Z " fill="#35353F" opacity="0.39607844" transform="translate(2,62)"/>
<path d="M0,0 L1,0 L1,1 L0,1 Z " fill="#343441" opacity="0.4" transform="translate(62,61)"/>
<path d="M0,0 L1,0 L1,1 L0,1 Z " fill="#33333F" opacity="0.4117647" transform="translate(1,61)"/>
<path d="M0,0 L1,0 L1,1 L0,1 Z " fill="#353540" opacity="0.09411765" transform="translate(63,60)"/>
<path d="M0,0 L1,0 L1,1 L0,1 Z " fill="#343440" opacity="0.96862745" transform="translate(62,60)"/>
<path d="M0,0 L1,0 L1,1 L0,1 Z " fill="#343441" opacity="0.972549" transform="translate(1,60)"/>
<path d="M0,0 L1,0 L1,1 L0,1 Z " fill="#333340" opacity="0.46666667" transform="translate(63,59)"/>
<path d="M0,0 L1,0 L1,1 L0,1 Z " fill="#5C3F3C" opacity="0.7921569" transform="translate(58,59)"/>
<path d="M0,0 L1,0 L1,1 L0,1 Z " fill="#975137" opacity="0.827451" transform="translate(57,59)"/>
<path d="M0,0 L1,0 L1,1 L0,1 Z " fill="#9E5337" opacity="0.9372549" transform="translate(56,59)"/>
<path d="M0,0 L1,0 L1,1 L0,1 Z " fill="#9E5337" opacity="0.9372549" transform="translate(7,59)"/>
<path d="M0,0 L1,0 L1,1 L0,1 Z " fill="#5C3F3C" opacity="0.7921569" transform="translate(5,59)"/>
<path d="M0,0 L1,0 L1,1 L0,1 Z " fill="#343440" opacity="0.5019608" transform="translate(0,59)"/>
<path d="M0,0 L1,0 L1,1 L0,1 Z " fill="#6E4942" opacity="0.7882353" transform="translate(59,58)"/>
<path d="M0,0 L1,0 L1,1 L0,1 Z " fill="#724B40" opacity="0.7882353" transform="translate(4,58)"/>
<path d="M0,0 L1,0 L1,1 L0,1 Z " fill="#343441" opacity="0.76862746" transform="translate(0,58)"/>
<path d="M0,0 L1,0 L1,1 L0,1 Z " fill="#343440" opacity="0.827451" transform="translate(63,57)"/>
<path d="M0,0 L1,0 L1,1 L0,1 Z " fill="#C06845" opacity="0.8235294" transform="translate(59,57)"/>
<path d="M0,0 L1,0 L1,1 L0,1 Z " fill="#C16945" opacity="0.8352941" transform="translate(4,57)"/>
<path d="M0,0 L1,0 L1,1 L0,1 Z " fill="#343440" opacity="0.9137255" transform="translate(0,57)"/>
<path d="M0,0 L1,0 L1,1 L0,1 Z " fill="#353540" opacity="0.9843137" transform="translate(63,56)"/>
<path d="M0,0 L1,0 L1,1 L0,1 Z " fill="#C96D45" opacity="0.9647059" transform="translate(59,56)"/>
<path d="M0,0 L1,0 L1,1 L0,1 Z " fill="#CA6C45" opacity="0.96862745" transform="translate(4,56)"/>
<path d="M0,0 L1,0 L1,1 L0,1 Z " fill="#343440" opacity="0.99607843" transform="translate(0,56)"/>
<path d="M0,0 L1,0 L1,1 L0,1 Z " fill="#CB6D46" opacity="0.8235294" transform="translate(59,8)"/>
<path d="M0,0 L1,0 L1,1 L0,1 Z " fill="#CA6D44" opacity="0.83137256" transform="translate(4,8)"/>
<path d="M0,0 L1,0 L1,1 L0,1 Z " fill="#343441" opacity="0.972549" transform="translate(63,7)"/>
<path d="M0,0 L1,0 L1,1 L0,1 Z " fill="#D17448" opacity="0.7607843" transform="translate(59,7)"/>
<path d="M0,0 L1,0 L1,1 L0,1 Z " fill="#343441" opacity="0.972549" transform="translate(0,7)"/>
<path d="M0,0 L1,0 L1,1 L0,1 Z " fill="#D3784D" opacity="0.827451" transform="translate(59,6)"/>
<path d="M0,0 L1,0 L1,1 L0,1 Z " fill="#DB7C4F" opacity="0.7176471" transform="translate(57,6)"/>
<path d="M0,0 L1,0 L1,1 L0,1 Z " fill="#E07F50" opacity="0.9372549" transform="translate(56,6)"/>
<path d="M0,0 L1,0 L1,1 L0,1 Z " fill="#E07F50" opacity="0.9372549" transform="translate(7,6)"/>
<path d="M0,0 L1,0 L1,1 L0,1 Z " fill="#DB7C4F" opacity="0.7176471" transform="translate(6,6)"/>
<path d="M0,0 L1,0 L1,1 L0,1 Z " fill="#D4784E" opacity="0.83137256" transform="translate(4,6)"/>
<path d="M0,0 L1,0 L1,1 L0,1 Z " fill="#343440" opacity="0.7294118" transform="translate(63,5)"/>
<path d="M0,0 L1,0 L1,1 L0,1 Z " fill="#744F45" opacity="0.7921569" transform="translate(59,5)"/>
<path d="M0,0 L1,0 L1,1 L0,1 Z " fill="#F09465" opacity="0.7529412" transform="translate(58,5)"/>
<path d="M0,0 L1,0 L1,1 L0,1 Z " fill="#FA9F72" transform="translate(57,5)"/>
<path d="M0,0 L1,0 L1,1 L0,1 Z " fill="#F19465" opacity="0.7529412" transform="translate(5,5)"/>
<path d="M0,0 L1,0 L1,1 L0,1 Z " fill="#765046" opacity="0.7882353" transform="translate(4,5)"/>
<path d="M0,0 L1,0 L1,1 L0,1 Z " fill="#343441" opacity="0.7411765" transform="translate(0,5)"/>
<path d="M0,0 L1,0 L1,1 L0,1 Z " fill="#805D53" opacity="0.79607844" transform="translate(58,4)"/>
<path d="M0,0 L1,0 L1,1 L0,1 Z " fill="#EF986F" opacity="0.827451" transform="translate(57,4)"/>
<path d="M0,0 L1,0 L1,1 L0,1 Z " fill="#F99E71" opacity="0.9372549" transform="translate(56,4)"/>
<path d="M0,0 L1,0 L1,1 L0,1 Z " fill="#EF986F" opacity="0.83137256" transform="translate(6,4)"/>
<path d="M0,0 L1,0 L1,1 L0,1 Z " fill="#815E54" opacity="0.7882353" transform="translate(5,4)"/>
<path d="M0,0 L1,0 L1,1 L0,1 Z " fill="#30303C" opacity="0.08235294" transform="translate(63,3)"/>
<path d="M0,0 L1,0 L1,1 L0,1 Z " fill="#343441" opacity="0.972549" transform="translate(1,3)"/>
<path d="M0,0 L1,0 L1,1 L0,1 Z " fill="#2C2C42" opacity="0.09019608" transform="translate(0,3)"/>
<path d="M0,0 L1,0 L1,1 L0,1 Z " fill="#333340" opacity="0.39215687" transform="translate(62,2)"/>
<path d="M0,0 L1,0 L1,1 L0,1 Z " fill="#353541" transform="translate(2,2)"/>
<path d="M0,0 L1,0 L1,1 L0,1 Z " fill="#35353F" opacity="0.39607844" transform="translate(61,1)"/>
<path d="M0,0 L1,0 L1,1 L0,1 Z " fill="#343440" opacity="0.96862745" transform="translate(60,1)"/>
<path d="M0,0 L1,0 L1,1 L0,1 Z " fill="#343441" opacity="0.972549" transform="translate(3,1)"/>
<path d="M0,0 L1,0 L1,1 L0,1 Z " fill="#343441" opacity="0.47843137" transform="translate(59,0)"/>
<path d="M0,0 L1,0 L1,1 L0,1 Z " fill="#343441" opacity="0.7411765" transform="translate(58,0)"/>
<path d="M0,0 L1,0 L1,1 L0,1 Z " fill="#343441" opacity="0.9098039" transform="translate(57,0)"/>
<path d="M0,0 L1,0 L1,1 L0,1 Z " fill="#343441" opacity="0.972549" transform="translate(56,0)"/>
<path d="M0,0 L1,0 L1,1 L0,1 Z " fill="#343441" opacity="0.972549" transform="translate(7,0)"/>
<path d="M0,0 L1,0 L1,1 L0,1 Z " fill="#343441" opacity="0.7411765" transform="translate(5,0)"/>
<path d="M0,0 L1,0 L1,1 L0,1 Z " fill="#2C2C42" opacity="0.09019608" transform="translate(3,0)"/>
</svg>
