<?xml version="1.0" encoding="UTF-8"?>
<!-- Generator: visioncortex VTracer 0.6.4 -->
<svg version="1.1" xmlns="http://www.w3.org/2000/svg" width="64" height="64">
<path d="M0,0 L48,0 L48,1 L52,1 L52,2 L54,2 L54,4 L55,4 L55,8 L56,8 L56,56 L55,56 L55,60 L54,60 L54,62 L52,62 L52,63 L48,63 L48,64 L0,64 L0,63 L-4,63 L-4,62 L-6,62 L-6,60 L-7,60 L-7,56 L-8,56 L-8,8 L-7,8 L-7,4 L-6,4 L-6,2 L-4,2 L-4,1 L0,1 Z M-3,4 L-3,5 L-4,5 L-4,8 L-3,8 L-3,6 L-2,6 L-2,5 L0,5 L0,4 Z M48,4 L48,5 L50,5 L50,6 L51,6 L51,8 L52,8 L52,5 L51,5 L51,4 Z M-2,6 L-2,7 L-1,7 L-1,8 L0,8 L0,6 Z M48,6 L48,8 L49,8 L49,7 L50,7 L50,6 Z M0,8 L0,9 L1,9 L1,8 Z M47,8 L47,9 L48,9 L48,8 Z M1,9 L1,10 L2,10 L2,9 Z M46,9 L46,10 L47,10 L47,9 Z M2,10 L2,11 L3,11 L3,10 Z M45,10 L45,11 L46,11 L46,10 Z M3,11 L3,12 L4,12 L4,11 Z M44,11 L44,12 L45,12 L45,11 Z M3,52 L3,53 L4,53 L4,52 Z M44,52 L44,53 L45,53 L45,52 Z M2,53 L2,54 L3,54 L3,53 Z M45,53 L45,54 L46,54 L46,53 Z M1,54 L1,55 L2,55 L2,54 Z M46,54 L46,55 L47,55 L47,54 Z M0,55 L0,56 L1,56 L1,55 Z M47,55 L47,56 L48,56 L48,55 Z M-4,56 L-4,59 L-3,59 L-3,60 L0,60 L0,59 L-2,59 L-2,58 L-3,58 L-3,56 Z M-1,56 L-1,57 L0,57 L0,56 Z M48,56 L48,57 L49,57 L49,56 Z M51,56 L51,58 L50,58 L50,59 L48,59 L48,60 L51,60 L51,59 L52,59 L52,56 Z M-2,57 L-2,58 L-1,58 L-1,57 Z M49,57 L49,58 L50,58 L50,57 Z " fill="#9F5438" transform="translate(8,0)"/>
<path d="M0,0 L48,0 L48,1 L50,1 L50,2 L48,2 L48,4 L47,4 L47,5 L46,5 L46,6 L45,6 L45,7 L44,7 L44,48 L4,48 L4,7 L3,7 L3,6 L2,6 L2,5 L1,5 L1,4 L0,4 L0,2 L-2,2 L-2,1 L0,1 Z " fill="#FABA2D" transform="translate(8,4)"/>
<path d="M0,0 L48,0 L48,1 L52,1 L52,2 L54,2 L54,4 L55,4 L55,8 L56,8 L56,56 L55,56 L55,60 L54,60 L54,62 L52,62 L52,63 L48,63 L48,64 L0,64 L0,63 L-4,63 L-4,62 L-6,62 L-6,60 L-7,60 L-7,56 L-8,56 L-8,8 L-7,8 L-7,4 L-6,4 L-6,2 L-4,2 L-4,1 L0,1 Z M-3,4 L-3,5 L-4,5 L-4,59 L-3,59 L-3,60 L51,60 L51,59 L52,59 L52,5 L51,5 L51,4 Z " fill="#353541" transform="translate(8,0)"/>
<path d="M0,0 L1,0 L1,1 L0,1 Z " fill="#343440" opacity="0.99607843" transform="translate(0,56)"/>
<path d="M0,0 L48,0 L48,1 L50,1 L50,2 L48,2 L48,4 L47,4 L47,5 L46,5 L46,6 L45,6 L45,7 L44,7 L44,8 L4,8 L4,7 L3,7 L3,6 L2,6 L2,5 L1,5 L1,4 L0,4 L0,2 L-2,2 L-2,1 L0,1 Z " fill="#DE7E4F" transform="translate(8,4)"/>
<path d="M0,0 L1,0 L1,2 L2,2 L2,50 L1,50 L1,52 L0,52 L0,51 L-1,51 L-1,50 L-2,50 L-2,49 L-3,49 L-3,48 L-4,48 L-4,47 L-5,47 L-5,46 L-6,46 L-6,6 L-5,6 L-5,5 L-4,5 L-4,4 L-3,4 L-3,3 L-2,3 L-2,2 L-1,2 L-1,1 L0,1 Z " fill="#BD6341" transform="translate(58,6)"/>
<path d="M0,0 L1,0 L1,1 L2,1 L2,2 L3,2 L3,3 L4,3 L4,4 L5,4 L5,5 L6,5 L6,6 L7,6 L7,46 L6,46 L6,47 L5,47 L5,48 L4,48 L4,49 L3,49 L3,50 L2,50 L2,51 L1,51 L1,52 L0,52 L0,50 L-1,50 L-1,2 L0,2 Z " fill="#BD6341" transform="translate(5,6)"/>
<path d="M0,0 L4,0 L4,1 L5,1 L5,3 L6,3 L6,5 L7,5 L7,7 L8,7 L8,9 L9,9 L9,11 L10,11 L10,13 L11,13 L11,15 L12,15 L12,17 L13,17 L13,21 L12,21 L12,22 L-8,22 L-8,21 L-9,21 L-9,17 L-8,17 L-8,15 L-7,15 L-7,13 L-6,13 L-6,11 L-5,11 L-5,9 L-4,9 L-4,7 L-3,7 L-3,5 L-2,5 L-2,3 L-1,3 L-1,1 L0,1 Z " fill="#FFFFFF" transform="translate(30,21)"/>
<path d="M0,0 L5,0 L5,1 L7,1 L7,2 L8,2 L8,3 L9,3 L9,5 L10,5 L10,7 L11,7 L11,9 L12,9 L12,11 L13,11 L13,13 L14,13 L14,15 L15,15 L15,17 L16,17 L16,19 L17,19 L17,24 L16,24 L16,26 L15,26 L15,27 L13,27 L13,28 L-7,28 L-7,27 L-9,27 L-9,26 L-10,26 L-10,24 L-11,24 L-11,19 L-10,19 L-10,17 L-9,17 L-9,15 L-8,15 L-8,13 L-7,13 L-7,11 L-6,11 L-6,9 L-5,9 L-5,7 L-4,7 L-4,5 L-3,5 L-3,3 L-2,3 L-2,2 L-1,2 L-1,1 L0,1 Z M1,3 L1,4 L0,4 L0,6 L-1,6 L-1,8 L-2,8 L-2,10 L-3,10 L-3,12 L-4,12 L-4,14 L-5,14 L-5,16 L-6,16 L-6,18 L-7,18 L-7,20 L-8,20 L-8,24 L-7,24 L-7,25 L13,25 L13,24 L14,24 L14,20 L13,20 L13,18 L12,18 L12,16 L11,16 L11,14 L10,14 L10,12 L9,12 L9,10 L8,10 L8,8 L7,8 L7,6 L6,6 L6,4 L5,4 L5,3 Z " fill="#E28F2B" transform="translate(29,18)"/>
<path d="M0,0 L48,0 L48,1 L50,1 L50,2 L-2,2 L-2,1 L0,1 Z " fill="#FA9F72" transform="translate(8,4)"/>
<path d="M0,0 L2,0 L2,1 L3,1 L3,6 L2,6 L2,7 L0,7 L0,6 L-1,6 L-1,1 L0,1 Z " fill="#E28F2B" transform="translate(31,28)"/>
<path d="M0,0 L5,0 L5,1 L1,1 L1,2 L0,2 L0,3 L-1,3 L-1,4 L-3,4 L-3,3 L-2,3 L-2,2 L-1,2 L-1,1 L0,1 Z " fill="#E28F2B" transform="translate(29,18)"/>
<path d="M0,0 L1,0 L1,1 L0,1 Z M-1,1 L0,1 L0,2 L-1,2 Z M-2,2 L-1,2 L-1,3 L-2,3 Z M-3,3 L-2,3 L-2,4 L-3,4 Z M-4,4 L-3,4 L-3,5 L-4,5 Z M-5,5 L-4,5 L-4,6 L-5,6 Z M-6,6 L-5,6 L-5,7 L-6,7 Z " fill="#A9583A" opacity="0.7529412" transform="translate(11,52)"/>
<path d="M0,0 L1,0 L1,1 L0,1 Z M1,1 L2,1 L2,2 L1,2 Z M2,2 L3,2 L3,3 L2,3 Z M3,3 L4,3 L4,4 L3,4 Z M4,4 L5,4 L5,5 L4,5 Z M5,5 L6,5 L6,6 L5,6 Z M6,6 L7,6 L7,7 L6,7 Z " fill="#A9583A" opacity="0.7529412" transform="translate(52,52)"/>
<path d="M0,0 L1,0 L1,1 L0,1 Z M-1,1 L0,1 L0,2 L-1,2 Z M-2,2 L-1,2 L-1,3 L-2,3 Z M-3,3 L-2,3 L-2,4 L-3,4 Z M-4,4 L-3,4 L-3,5 L-4,5 Z M-5,5 L-4,5 L-4,6 L-5,6 Z M-6,6 L-5,6 L-5,7 L-6,7 Z " fill="#9F5438" transform="translate(12,52)"/>
<path d="M0,0 L1,0 L1,1 L0,1 Z M1,1 L2,1 L2,2 L1,2 Z M2,2 L3,2 L3,3 L2,3 Z M3,3 L4,3 L4,4 L3,4 Z M4,4 L5,4 L5,5 L4,5 Z " fill="#D4744A" opacity="0.7529412" transform="translate(7,7)"/>
<path d="M0,0 L1,0 L1,1 L0,1 Z M-1,1 L0,1 L0,2 L-1,2 Z M-2,2 L-1,2 L-1,3 L-2,3 Z M-3,3 L-2,3 L-2,4 L-3,4 Z M-4,4 L-3,4 L-3,5 L-4,5 Z M-5,5 L-4,5 L-4,6 L-5,6 Z M-6,6 L-5,6 L-5,7 L-6,7 Z " fill="#BD6341" transform="translate(58,6)"/>
<path d="M0,0 L2,0 L2,3 L0,3 Z " fill="#E28F2B" transform="translate(31,37)"/>
<path d="M0,0 L1,0 L1,5 L0,5 Z " fill="#E4932B" transform="translate(45,37)"/>
<path d="M0,0 L1,0 L1,4 L0,4 Z M1,4 L2,4 L2,5 L1,5 Z " fill="#FFFAF1" transform="translate(21,38)"/>
<path d="M0,0 L2,0 L2,1 L1,1 L1,2 L0,2 L0,3 L-1,3 L-1,1 L0,1 Z " fill="#FFFFFF" transform="translate(30,21)"/>
<path d="M0,0 L5,0 L5,1 L0,1 Z " fill="#E4922A" transform="translate(29,18)"/>
<path d="M0,0 L1,0 L1,1 L0,1 Z M-1,1 L0,1 L0,2 L-1,2 Z M-2,2 L-1,2 L-1,3 L-2,3 Z M-3,3 L-2,3 L-2,4 L-3,4 Z M-4,4 L-3,4 L-3,5 L-4,5 Z " fill="#D27449" opacity="0.7529412" transform="translate(56,7)"/>
<path d="M0,0 L1,0 L1,1 L0,1 Z M-2,1 L0,1 L0,2 L-2,2 Z " fill="#FA9F72" transform="translate(8,4)"/>
<path d="M0,0 L1,0 L1,1 L0,1 Z " fill="#333340" opacity="0.6392157" transform="translate(58,63)"/>
<path d="M0,0 L1,0 L1,1 L0,1 Z " fill="#353540" opacity="0.8117647" transform="translate(6,63)"/>
<path d="M0,0 L1,0 L1,1 L0,1 Z " fill="#343440" opacity="0.9019608" transform="translate(63,6)"/>
<path d="M0,0 L1,0 L1,1 L0,1 Z " fill="#B35E40" opacity="0.827451" transform="translate(59,6)"/>
<path d="M0,0 L1,0 L1,1 L0,1 Z " fill="#B55F41" opacity="0.83137256" transform="translate(4,6)"/>
<path d="M0,0 L1,0 L1,1 L0,1 Z " fill="#343441" opacity="0.9098039" transform="translate(0,6)"/>
<path d="M0,0 L1,0 L1,1 L0,1 Z " fill="#343441" opacity="0.9098039" transform="translate(6,0)"/>
<path d="M0,0 L1,0 L1,1 L0,1 Z " fill="#333340" opacity="0.46666667" transform="translate(63,59)"/>
<path d="M0,0 L2,0 L2,1 L1,1 L1,2 L0,2 Z " fill="#E28F2B" transform="translate(30,29)"/>
<path d="M0,0 L1,0 L1,1 L0,1 Z " fill="#353540" opacity="0.4509804" transform="translate(4,63)"/>
<path d="M0,0 L1,0 L1,1 L0,1 Z " fill="#353540" opacity="0.9647059" transform="translate(3,62)"/>
<path d="M0,0 L1,0 L1,1 L0,1 Z " fill="#31313B" opacity="0.101960786" transform="translate(0,60)"/>
<path d="M0,0 L1,0 L1,1 L0,1 Z " fill="#975137" opacity="0.827451" transform="translate(6,59)"/>
<path d="M0,0 L2,0 L2,1 L0,1 Z " fill="#E5932A" transform="translate(22,45)"/>
<path d="M0,0 L1,0 L1,1 L0,1 Z M-1,1 L0,1 L0,2 L-1,2 Z " fill="#E99B2B" transform="translate(44,43)"/>
<path d="M0,0 L1,0 L1,1 L0,1 Z M1,1 L2,1 L2,2 L1,2 Z " fill="#F5CE8E" transform="translate(21,41)"/>
<path d="M0,0 L1,0 L1,2 L0,2 Z " fill="#FFFAF1" transform="translate(42,38)"/>
<path d="M0,0 L2,0 L2,1 L0,1 Z " fill="#F1BE71" transform="translate(31,39)"/>
<path d="M0,0 L1,0 L1,2 L0,2 Z " fill="#E7982B" transform="translate(45,37)"/>
<path d="M0,0 L1,0 L1,2 L0,2 Z " fill="#F4CA88" transform="translate(33,37)"/>
<path d="M0,0 L1,0 L1,2 L0,2 Z " fill="#F7D59C" transform="translate(30,37)"/>
<path d="M0,0 L1,0 L1,2 L0,2 Z " fill="#E8992A" transform="translate(18,37)"/>
<path d="M0,0 L1,0 L1,2 L0,2 Z " fill="#E3902A" transform="translate(44,35)"/>
<path d="M0,0 L2,0 L2,1 L0,1 Z " fill="#FBE4BB" transform="translate(31,36)"/>
<path d="M0,0 L1,0 L1,2 L0,2 Z " fill="#E3912A" transform="translate(19,35)"/>
<path d="M0,0 L2,0 L2,1 L0,1 Z " fill="#FEF4DF" transform="translate(31,35)"/>
<path d="M0,0 L1,0 L1,2 L0,2 Z " fill="#E3902A" transform="translate(43,33)"/>
<path d="M0,0 L1,0 L1,2 L0,2 Z " fill="#E3912A" transform="translate(20,33)"/>
<path d="M0,0 L1,0 L1,2 L0,2 Z " fill="#E3902A" transform="translate(42,31)"/>
<path d="M0,0 L1,0 L1,2 L0,2 Z " fill="#E3912A" transform="translate(21,31)"/>
<path d="M0,0 L1,0 L1,2 L0,2 Z " fill="#FBE3B8" transform="translate(34,30)"/>
<path d="M0,0 L1,0 L1,2 L0,2 Z " fill="#FBE2B6" transform="translate(29,30)"/>
<path d="M0,0 L1,0 L1,2 L0,2 Z " fill="#E3902A" transform="translate(41,29)"/>
<path d="M0,0 L1,0 L1,2 L0,2 Z " fill="#E3912A" transform="translate(22,29)"/>
<path d="M0,0 L1,0 L1,2 L0,2 Z " fill="#E3902A" transform="translate(40,27)"/>
<path d="M0,0 L2,0 L2,1 L0,1 Z " fill="#E69E3F" transform="translate(31,28)"/>
<path d="M0,0 L1,0 L1,2 L0,2 Z " fill="#E3912A" transform="translate(23,27)"/>
<path d="M0,0 L1,0 L1,2 L0,2 Z " fill="#E3912A" transform="translate(24,25)"/>
<path d="M0,0 L1,0 L1,2 L0,2 Z " fill="#E3912A" transform="translate(25,23)"/>
<path d="M0,0 L2,0 L2,1 L0,1 Z " fill="#FFFAF0" transform="translate(30,21)"/>
<path d="M0,0 L2,0 L2,1 L0,1 Z " fill="#E89B2B" transform="translate(29,18)"/>
<path d="M0,0 L2,0 L2,1 L0,1 Z " fill="#FABA2C" transform="translate(31,17)"/>
<path d="M0,0 L1,0 L1,1 L0,1 Z " fill="#E07F50" opacity="0.9372549" transform="translate(7,6)"/>
<path d="M0,0 L1,0 L1,1 L0,1 Z " fill="#E58A61" opacity="0.7529412" transform="translate(58,5)"/>
<path d="M0,0 L1,0 L1,1 L0,1 Z " fill="#E68A61" opacity="0.7529412" transform="translate(5,5)"/>
<path d="M0,0 L1,0 L1,1 L0,1 Z " fill="#353540" opacity="0.47058824" transform="translate(63,4)"/>
<path d="M0,0 L1,0 L1,1 L0,1 Z " fill="#F99E71" opacity="0.9411765" transform="translate(7,4)"/>
<path d="M0,0 L1,0 L1,1 L0,1 Z " fill="#343440" opacity="0.48235294" transform="translate(0,4)"/>
<path d="M0,0 L1,0 L1,1 L0,1 Z " fill="#343440" opacity="0.96862745" transform="translate(62,3)"/>
<path d="M0,0 L1,0 L1,1 L0,1 Z M-1,1 L0,1 L0,2 L-1,2 Z " fill="#343441" opacity="0.4" transform="translate(2,1)"/>
<path d="M0,0 L1,0 L1,1 L0,1 Z " fill="#2E2E3A" opacity="0.08627451" transform="translate(60,0)"/>
<path d="M0,0 L1,0 L1,1 L0,1 Z " fill="#343440" opacity="0.48235294" transform="translate(4,0)"/>
<path d="M0,0 L1,0 L1,1 L0,1 Z " fill="#333340" opacity="0.078431375" transform="translate(60,63)"/>
<path d="M0,0 L1,0 L1,1 L0,1 Z " fill="#353540" opacity="0.4509804" transform="translate(59,63)"/>
<path d="M0,0 L1,0 L1,1 L0,1 Z " fill="#343440" opacity="0.80784315" transform="translate(57,63)"/>
<path d="M0,0 L1,0 L1,1 L0,1 Z " fill="#343440" opacity="0.96862745" transform="translate(56,63)"/>
<path d="M0,0 L1,0 L1,1 L0,1 Z " fill="#343441" opacity="0.972549" transform="translate(7,63)"/>
<path d="M0,0 L1,0 L1,1 L0,1 Z " fill="#333340" opacity="0.6392157" transform="translate(5,63)"/>
<path d="M0,0 L1,0 L1,1 L0,1 Z " fill="#30303C" opacity="0.08235294" transform="translate(3,63)"/>
<path d="M0,0 L1,0 L1,1 L0,1 Z " fill="#333340" opacity="0.3882353" transform="translate(61,62)"/>
<path d="M0,0 L1,0 L1,1 L0,1 Z " fill="#343440" opacity="0.9607843" transform="translate(60,62)"/>
<path d="M0,0 L1,0 L1,1 L0,1 Z " fill="#35353F" opacity="0.39607844" transform="translate(2,62)"/>
<path d="M0,0 L1,0 L1,1 L0,1 Z " fill="#343441" opacity="0.4" transform="translate(62,61)"/>
<path d="M0,0 L1,0 L1,1 L0,1 Z " fill="#33333F" opacity="0.4117647" transform="translate(1,61)"/>
<path d="M0,0 L1,0 L1,1 L0,1 Z " fill="#353540" opacity="0.09411765" transform="translate(63,60)"/>
<path d="M0,0 L1,0 L1,1 L0,1 Z " fill="#343440" opacity="0.96862745" transform="translate(62,60)"/>
<path d="M0,0 L1,0 L1,1 L0,1 Z " fill="#343441" opacity="0.972549" transform="translate(1,60)"/>
<path d="M0,0 L1,0 L1,1 L0,1 Z " fill="#5C403B" opacity="0.7921569" transform="translate(58,59)"/>
<path d="M0,0 L1,0 L1,1 L0,1 Z " fill="#975038" opacity="0.8235294" transform="translate(57,59)"/>
<path d="M0,0 L1,0 L1,1 L0,1 Z " fill="#9E5337" opacity="0.93333334" transform="translate(56,59)"/>
<path d="M0,0 L1,0 L1,1 L0,1 Z " fill="#9E5337" opacity="0.9372549" transform="translate(7,59)"/>
<path d="M0,0 L1,0 L1,1 L0,1 Z " fill="#5C3F3C" opacity="0.7921569" transform="translate(5,59)"/>
<path d="M0,0 L1,0 L1,1 L0,1 Z " fill="#343440" opacity="0.5019608" transform="translate(0,59)"/>
<path d="M0,0 L1,0 L1,1 L0,1 Z " fill="#343440" opacity="0.654902" transform="translate(63,58)"/>
<path d="M0,0 L1,0 L1,1 L0,1 Z " fill="#69463F" opacity="0.7882353" transform="translate(59,58)"/>
<path d="M0,0 L1,0 L1,1 L0,1 Z " fill="#6D473F" opacity="0.7882353" transform="translate(4,58)"/>
<path d="M0,0 L1,0 L1,1 L0,1 Z " fill="#343441" opacity="0.76862746" transform="translate(0,58)"/>
<path d="M0,0 L1,0 L1,1 L0,1 Z " fill="#343440" opacity="0.827451" transform="translate(63,57)"/>
<path d="M0,0 L1,0 L1,1 L0,1 Z " fill="#B45F40" opacity="0.8235294" transform="translate(59,57)"/>
<path d="M0,0 L1,0 L1,1 L0,1 Z " fill="#B56040" opacity="0.8352941" transform="translate(4,57)"/>
<path d="M0,0 L1,0 L1,1 L0,1 Z " fill="#343440" opacity="0.9137255" transform="translate(0,57)"/>
<path d="M0,0 L1,0 L1,1 L0,1 Z " fill="#353540" opacity="0.9843137" transform="translate(63,56)"/>
<path d="M0,0 L1,0 L1,1 L0,1 Z " fill="#BD6240" opacity="0.9647059" transform="translate(59,56)"/>
<path d="M0,0 L1,0 L1,1 L0,1 Z " fill="#BD6240" opacity="0.96862745" transform="translate(4,56)"/>
<path d="M0,0 L1,0 L1,1 L0,1 Z " fill="#FABA2C" transform="translate(43,45)"/>
<path d="M0,0 L1,0 L1,1 L0,1 Z " fill="#F2AC2B" transform="translate(42,45)"/>
<path d="M0,0 L1,0 L1,1 L0,1 Z " fill="#E99A2B" transform="translate(41,45)"/>
<path d="M0,0 L1,0 L1,1 L0,1 Z " fill="#E5932A" transform="translate(40,45)"/>
<path d="M0,0 L1,0 L1,1 L0,1 Z " fill="#E99A2B" transform="translate(22,45)"/>
<path d="M0,0 L1,0 L1,1 L0,1 Z " fill="#F2AC2B" transform="translate(21,45)"/>
<path d="M0,0 L1,0 L1,1 L0,1 Z " fill="#FABA2C" transform="translate(20,45)"/>
<path d="M0,0 L1,0 L1,1 L0,1 Z " fill="#F9B82D" transform="translate(44,44)"/>
<path d="M0,0 L1,0 L1,1 L0,1 Z " fill="#E89B2B" transform="translate(20,44)"/>
<path d="M0,0 L1,0 L1,1 L0,1 Z " fill="#F9B82D" transform="translate(19,44)"/>
<path d="M0,0 L1,0 L1,1 L0,1 Z " fill="#FAB92D" transform="translate(45,43)"/>
<path d="M0,0 L1,0 L1,1 L0,1 Z " fill="#E99B2B" transform="translate(19,43)"/>
<path d="M0,0 L1,0 L1,1 L0,1 Z " fill="#FAB92C" transform="translate(18,43)"/>
<path d="M0,0 L1,0 L1,1 L0,1 Z " fill="#F2AB2B" transform="translate(45,42)"/>
<path d="M0,0 L1,0 L1,1 L0,1 Z " fill="#F5CC8C" transform="translate(41,42)"/>
<path d="M0,0 L1,0 L1,1 L0,1 Z " fill="#FEF7E7" transform="translate(40,42)"/>
<path d="M0,0 L1,0 L1,1 L0,1 Z " fill="#FFF7E8" transform="translate(23,42)"/>
<path d="M0,0 L1,0 L1,1 L0,1 Z " fill="#F2AC2B" transform="translate(18,42)"/>
<path d="M0,0 L1,0 L1,1 L0,1 Z " fill="#E8992B" transform="translate(45,41)"/>
<path d="M0,0 L1,0 L1,1 L0,1 Z " fill="#F5CD8E" transform="translate(42,41)"/>
<path d="M0,0 L1,0 L1,1 L0,1 Z " fill="#EA9C2B" transform="translate(18,41)"/>
<path d="M0,0 L1,0 L1,1 L0,1 Z " fill="#FFF7E8" transform="translate(42,40)"/>
<path d="M0,0 L1,0 L1,1 L0,1 Z " fill="#FEF6E4" transform="translate(21,40)"/>
<path d="M0,0 L1,0 L1,1 L0,1 Z " fill="#E5952B" transform="translate(18,40)"/>
<path d="M0,0 L1,0 L1,1 L0,1 Z " fill="#E3912A" transform="translate(45,39)"/>
<path d="M0,0 L1,0 L1,1 L0,1 Z " fill="#FFF8EC" transform="translate(33,39)"/>
<path d="M0,0 L1,0 L1,1 L0,1 Z " fill="#F4C984" transform="translate(31,39)"/>
<path d="M0,0 L1,0 L1,1 L0,1 Z " fill="#FFFBF1" transform="translate(30,39)"/>
<path d="M0,0 L1,0 L1,1 L0,1 Z " fill="#E3922B" transform="translate(18,39)"/>
<path d="M0,0 L1,0 L1,1 L0,1 Z " fill="#FBE1B4" transform="translate(42,38)"/>
<path d="M0,0 L1,0 L1,1 L0,1 Z " fill="#FBE3B7" transform="translate(21,38)"/>
<path d="M0,0 L1,0 L1,1 L0,1 Z " fill="#EEA52B" transform="translate(45,37)"/>
<path d="M0,0 L1,0 L1,1 L0,1 Z " fill="#EAA950" transform="translate(42,37)"/>
<path d="M0,0 L1,0 L1,1 L0,1 Z " fill="#FAE0B2" transform="translate(33,37)"/>
<path d="M0,0 L1,0 L1,1 L0,1 Z " fill="#FBE3B9" transform="translate(30,37)"/>
<path d="M0,0 L1,0 L1,1 L0,1 Z " fill="#EBAB53" transform="translate(21,37)"/>
<path d="M0,0 L1,0 L1,1 L0,1 Z " fill="#EFA72B" transform="translate(18,37)"/>
<path d="M0,0 L1,0 L1,1 L0,1 Z " fill="#F8B62C" transform="translate(45,36)"/>
<path d="M0,0 L1,0 L1,1 L0,1 Z " fill="#FBE4B9" transform="translate(41,36)"/>
<path d="M0,0 L1,0 L1,1 L0,1 Z " fill="#FBE4BC" transform="translate(31,36)"/>
<path d="M0,0 L1,0 L1,1 L0,1 Z " fill="#FBE6BE" transform="translate(22,36)"/>
<path d="M0,0 L1,0 L1,1 L0,1 Z " fill="#F8B72C" transform="translate(18,36)"/>
<path d="M0,0 L1,0 L1,1 L0,1 Z " fill="#EDA22B" transform="translate(44,35)"/>
<path d="M0,0 L1,0 L1,1 L0,1 Z " fill="#EAA950" transform="translate(41,35)"/>
<path d="M0,0 L1,0 L1,1 L0,1 Z " fill="#FEF4E0" transform="translate(31,35)"/>
<path d="M0,0 L1,0 L1,1 L0,1 Z " fill="#EBAB53" transform="translate(22,35)"/>
<path d="M0,0 L1,0 L1,1 L0,1 Z " fill="#EEA42B" transform="translate(19,35)"/>
<path d="M0,0 L1,0 L1,1 L0,1 Z " fill="#F8B62C" transform="translate(44,34)"/>
<path d="M0,0 L1,0 L1,1 L0,1 Z " fill="#FBE4B9" transform="translate(40,34)"/>
<path d="M0,0 L1,0 L1,1 L0,1 Z " fill="#FBE6BF" transform="translate(33,34)"/>
<path d="M0,0 L1,0 L1,1 L0,1 Z " fill="#E28F2C" transform="translate(31,34)"/>
<path d="M0,0 L1,0 L1,1 L0,1 Z " fill="#FCE9C6" transform="translate(30,34)"/>
<path d="M0,0 L1,0 L1,1 L0,1 Z " fill="#FBE6BE" transform="translate(23,34)"/>
<path d="M0,0 L1,0 L1,1 L0,1 Z " fill="#F8B72C" transform="translate(19,34)"/>
<path d="M0,0 L1,0 L1,1 L0,1 Z " fill="#EDA22B" transform="translate(43,33)"/>
<path d="M0,0 L1,0 L1,1 L0,1 Z " fill="#EAA950" transform="translate(40,33)"/>
<path d="M0,0 L1,0 L1,1 L0,1 Z " fill="#E8A246" transform="translate(33,33)"/>
<path d="M0,0 L1,0 L1,1 L0,1 Z " fill="#EAA64D" transform="translate(30,33)"/>
<path d="M0,0 L1,0 L1,1 L0,1 Z " fill="#EBAB53" transform="translate(23,33)"/>
<path d="M0,0 L1,0 L1,1 L0,1 Z " fill="#EEA42B" transform="translate(20,33)"/>
<path d="M0,0 L1,0 L1,1 L0,1 Z " fill="#F8B62C" transform="translate(43,32)"/>
<path d="M0,0 L1,0 L1,1 L0,1 Z " fill="#FBE4B9" transform="translate(39,32)"/>
<path d="M0,0 L1,0 L1,1 L0,1 Z " fill="#FEF1D9" transform="translate(34,32)"/>
<path d="M0,0 L1,0 L1,1 L0,1 Z " fill="#FEF1D9" transform="translate(29,32)"/>
<path d="M0,0 L1,0 L1,1 L0,1 Z " fill="#FBE6BE" transform="translate(24,32)"/>
<path d="M0,0 L1,0 L1,1 L0,1 Z " fill="#F8B62C" transform="translate(20,32)"/>
<path d="M0,0 L1,0 L1,1 L0,1 Z " fill="#EDA22B" transform="translate(42,31)"/>
<path d="M0,0 L1,0 L1,1 L0,1 Z " fill="#EAA950" transform="translate(39,31)"/>
<path d="M0,0 L1,0 L1,1 L0,1 Z " fill="#EBAB53" transform="translate(24,31)"/>
<path d="M0,0 L1,0 L1,1 L0,1 Z " fill="#EEA42B" transform="translate(21,31)"/>
<path d="M0,0 L1,0 L1,1 L0,1 Z " fill="#F8B62C" transform="translate(42,30)"/>
<path d="M0,0 L1,0 L1,1 L0,1 Z " fill="#FBE4B9" transform="translate(38,30)"/>
<path d="M0,0 L1,0 L1,1 L0,1 Z " fill="#F9DCAA" transform="translate(34,30)"/>
<path d="M0,0 L1,0 L1,1 L0,1 Z " fill="#F9DAA7" transform="translate(29,30)"/>
<path d="M0,0 L1,0 L1,1 L0,1 Z " fill="#FBE6BE" transform="translate(25,30)"/>
<path d="M0,0 L1,0 L1,1 L0,1 Z " fill="#F8B62C" transform="translate(21,30)"/>
<path d="M0,0 L1,0 L1,1 L0,1 Z " fill="#EDA22B" transform="translate(41,29)"/>
<path d="M0,0 L1,0 L1,1 L0,1 Z " fill="#EAA950" transform="translate(38,29)"/>
<path d="M0,0 L1,0 L1,1 L0,1 Z " fill="#FDF0D5" transform="translate(34,29)"/>
<path d="M0,0 L1,0 L1,1 L0,1 Z " fill="#E28F2C" transform="translate(33,29)"/>
<path d="M0,0 L1,0 L1,1 L0,1 Z " fill="#E2902C" transform="translate(30,29)"/>
<path d="M0,0 L1,0 L1,1 L0,1 Z " fill="#FDF0D5" transform="translate(29,29)"/>
<path d="M0,0 L1,0 L1,1 L0,1 Z " fill="#EBAB53" transform="translate(25,29)"/>
<path d="M0,0 L1,0 L1,1 L0,1 Z " fill="#EEA42B" transform="translate(22,29)"/>
<path d="M0,0 L1,0 L1,1 L0,1 Z " fill="#F8B52C" transform="translate(41,28)"/>
<path d="M0,0 L1,0 L1,1 L0,1 Z " fill="#FBE4B9" transform="translate(37,28)"/>
<path d="M0,0 L1,0 L1,1 L0,1 Z " fill="#F9DCA9" transform="translate(33,28)"/>
<path d="M0,0 L1,0 L1,1 L0,1 Z " fill="#E69E40" transform="translate(31,28)"/>
<path d="M0,0 L1,0 L1,1 L0,1 Z " fill="#FADFAF" transform="translate(30,28)"/>
<path d="M0,0 L1,0 L1,1 L0,1 Z " fill="#FBE6BE" transform="translate(26,28)"/>
<path d="M0,0 L1,0 L1,1 L0,1 Z " fill="#F8B62C" transform="translate(22,28)"/>
<path d="M0,0 L1,0 L1,1 L0,1 Z " fill="#EDA22B" transform="translate(40,27)"/>
<path d="M0,0 L1,0 L1,1 L0,1 Z " fill="#EAA950" transform="translate(37,27)"/>
<path d="M0,0 L1,0 L1,1 L0,1 Z " fill="#EBAB53" transform="translate(26,27)"/>
<path d="M0,0 L1,0 L1,1 L0,1 Z " fill="#EEA32B" transform="translate(23,27)"/>
<path d="M0,0 L1,0 L1,1 L0,1 Z " fill="#F8B52C" transform="translate(40,26)"/>
<path d="M0,0 L1,0 L1,1 L0,1 Z " fill="#E3902A" transform="translate(39,26)"/>
<path d="M0,0 L1,0 L1,1 L0,1 Z " fill="#FBE4B9" transform="translate(36,26)"/>
<path d="M0,0 L1,0 L1,1 L0,1 Z " fill="#FBE6BE" transform="translate(27,26)"/>
<path d="M0,0 L1,0 L1,1 L0,1 Z " fill="#F8B62C" transform="translate(23,26)"/>
<path d="M0,0 L1,0 L1,1 L0,1 Z " fill="#EDA22B" transform="translate(39,25)"/>
<path d="M0,0 L1,0 L1,1 L0,1 Z " fill="#EAA950" transform="translate(36,25)"/>
<path d="M0,0 L1,0 L1,1 L0,1 Z " fill="#EBAB53" transform="translate(27,25)"/>
<path d="M0,0 L1,0 L1,1 L0,1 Z " fill="#EEA32B" transform="translate(24,25)"/>
<path d="M0,0 L1,0 L1,1 L0,1 Z " fill="#F8B52C" transform="translate(39,24)"/>
<path d="M0,0 L1,0 L1,1 L0,1 Z " fill="#E2902A" transform="translate(38,24)"/>
<path d="M0,0 L1,0 L1,1 L0,1 Z " fill="#FBE4B9" transform="translate(35,24)"/>
<path d="M0,0 L1,0 L1,1 L0,1 Z " fill="#FBE6BE" transform="translate(28,24)"/>
<path d="M0,0 L1,0 L1,1 L0,1 Z " fill="#F8B62C" transform="translate(24,24)"/>
<path d="M0,0 L1,0 L1,1 L0,1 Z " fill="#EDA22B" transform="translate(38,23)"/>
<path d="M0,0 L1,0 L1,1 L0,1 Z " fill="#EAA950" transform="translate(35,23)"/>
<path d="M0,0 L1,0 L1,1 L0,1 Z " fill="#EBAB53" transform="translate(28,23)"/>
<path d="M0,0 L1,0 L1,1 L0,1 Z " fill="#EEA32B" transform="translate(25,23)"/>
<path d="M0,0 L1,0 L1,1 L0,1 Z " fill="#F8B52C" transform="translate(38,22)"/>
<path d="M0,0 L1,0 L1,1 L0,1 Z " fill="#E2902A" transform="translate(37,22)"/>
<path d="M0,0 L1,0 L1,1 L0,1 Z " fill="#F9DDAC" transform="translate(34,22)"/>
<path d="M0,0 L1,0 L1,1 L0,1 Z " fill="#FADFAF" transform="translate(29,22)"/>
<path d="M0,0 L1,0 L1,1 L0,1 Z " fill="#E3912A" transform="translate(26,22)"/>
<path d="M0,0 L1,0 L1,1 L0,1 Z " fill="#F8B62C" transform="translate(25,22)"/>
<path d="M0,0 L1,0 L1,1 L0,1 Z " fill="#EDA32B" transform="translate(37,21)"/>
<path d="M0,0 L1,0 L1,1 L0,1 Z " fill="#E39432" transform="translate(34,21)"/>
<path d="M0,0 L1,0 L1,1 L0,1 Z " fill="#F9DAA6" transform="translate(33,21)"/>
<path d="M0,0 L1,0 L1,1 L0,1 Z " fill="#FFFAF0" transform="translate(32,21)"/>
<path d="M0,0 L1,0 L1,1 L0,1 Z " fill="#F8D9A4" transform="translate(30,21)"/>
<path d="M0,0 L1,0 L1,1 L0,1 Z " fill="#E39432" transform="translate(29,21)"/>
<path d="M0,0 L1,0 L1,1 L0,1 Z " fill="#EEA42B" transform="translate(26,21)"/>
<path d="M0,0 L1,0 L1,1 L0,1 Z " fill="#FAB82C" transform="translate(37,20)"/>
<path d="M0,0 L1,0 L1,1 L0,1 Z " fill="#E6972B" transform="translate(36,20)"/>
<path d="M0,0 L1,0 L1,1 L0,1 Z " fill="#E7972A" transform="translate(27,20)"/>
<path d="M0,0 L1,0 L1,1 L0,1 Z " fill="#FAB92D" transform="translate(26,20)"/>
<path d="M0,0 L1,0 L1,1 L0,1 Z " fill="#F7B42C" transform="translate(36,19)"/>
<path d="M0,0 L1,0 L1,1 L0,1 Z " fill="#E7972B" transform="translate(35,19)"/>
<path d="M0,0 L1,0 L1,1 L0,1 Z " fill="#E6972A" transform="translate(28,19)"/>
<path d="M0,0 L1,0 L1,1 L0,1 Z " fill="#F7B42C" transform="translate(27,19)"/>
<path d="M0,0 L1,0 L1,1 L0,1 Z " fill="#FAB92C" transform="translate(35,18)"/>
<path d="M0,0 L1,0 L1,1 L0,1 Z " fill="#F0A72C" transform="translate(34,18)"/>
<path d="M0,0 L1,0 L1,1 L0,1 Z " fill="#E89B2B" transform="translate(33,18)"/>
<path d="M0,0 L1,0 L1,1 L0,1 Z " fill="#F0A82C" transform="translate(29,18)"/>
<path d="M0,0 L1,0 L1,1 L0,1 Z " fill="#FAB92C" transform="translate(28,18)"/>
<path d="M0,0 L1,0 L1,1 L0,1 Z " fill="#343441" opacity="0.972549" transform="translate(63,7)"/>
<path d="M0,0 L1,0 L1,1 L0,1 Z " fill="#BC6240" opacity="0.9372549" transform="translate(59,7)"/>
<path d="M0,0 L1,0 L1,1 L0,1 Z " fill="#BC6240" opacity="0.9411765" transform="translate(4,7)"/>
<path d="M0,0 L1,0 L1,1 L0,1 Z " fill="#343441" opacity="0.972549" transform="translate(0,7)"/>
<path d="M0,0 L1,0 L1,1 L0,1 Z " fill="#D97B4F" opacity="0.72156864" transform="translate(57,6)"/>
<path d="M0,0 L1,0 L1,1 L0,1 Z " fill="#E07F50" opacity="0.9372549" transform="translate(56,6)"/>
<path d="M0,0 L1,0 L1,1 L0,1 Z " fill="#D77B50" opacity="0.7254902" transform="translate(6,6)"/>
<path d="M0,0 L1,0 L1,1 L0,1 Z " fill="#343440" opacity="0.7294118" transform="translate(63,5)"/>
<path d="M0,0 L1,0 L1,1 L0,1 Z " fill="#67453F" opacity="0.7921569" transform="translate(59,5)"/>
<path d="M0,0 L1,0 L1,1 L0,1 Z " fill="#FA9F72" transform="translate(57,5)"/>
<path d="M0,0 L1,0 L1,1 L0,1 Z " fill="#694640" opacity="0.7882353" transform="translate(4,5)"/>
<path d="M0,0 L1,0 L1,1 L0,1 Z " fill="#343441" opacity="0.7411765" transform="translate(0,5)"/>
<path d="M0,0 L1,0 L1,1 L0,1 Z " fill="#805D53" opacity="0.79607844" transform="translate(58,4)"/>
<path d="M0,0 L1,0 L1,1 L0,1 Z " fill="#EF986F" opacity="0.827451" transform="translate(57,4)"/>
<path d="M0,0 L1,0 L1,1 L0,1 Z " fill="#F99E71" opacity="0.9372549" transform="translate(56,4)"/>
<path d="M0,0 L1,0 L1,1 L0,1 Z " fill="#EF986F" opacity="0.83137256" transform="translate(6,4)"/>
<path d="M0,0 L1,0 L1,1 L0,1 Z " fill="#815E54" opacity="0.7882353" transform="translate(5,4)"/>
<path d="M0,0 L1,0 L1,1 L0,1 Z " fill="#30303C" opacity="0.08235294" transform="translate(63,3)"/>
<path d="M0,0 L1,0 L1,1 L0,1 Z " fill="#343441" opacity="0.972549" transform="translate(1,3)"/>
<path d="M0,0 L1,0 L1,1 L0,1 Z " fill="#2C2C42" opacity="0.09019608" transform="translate(0,3)"/>
<path d="M0,0 L1,0 L1,1 L0,1 Z " fill="#333340" opacity="0.39215687" transform="translate(62,2)"/>
<path d="M0,0 L1,0 L1,1 L0,1 Z " fill="#353541" transform="translate(2,2)"/>
<path d="M0,0 L1,0 L1,1 L0,1 Z " fill="#35353F" opacity="0.39607844" transform="translate(61,1)"/>
<path d="M0,0 L1,0 L1,1 L0,1 Z " fill="#343440" opacity="0.96862745" transform="translate(60,1)"/>
<path d="M0,0 L1,0 L1,1 L0,1 Z " fill="#343441" opacity="0.972549" transform="translate(3,1)"/>
<path d="M0,0 L1,0 L1,1 L0,1 Z " fill="#343441" opacity="0.47843137" transform="translate(59,0)"/>
<path d="M0,0 L1,0 L1,1 L0,1 Z " fill="#343441" opacity="0.7411765" transform="translate(58,0)"/>
<path d="M0,0 L1,0 L1,1 L0,1 Z " fill="#343441" opacity="0.9098039" transform="translate(57,0)"/>
<path d="M0,0 L1,0 L1,1 L0,1 Z " fill="#343441" opacity="0.972549" transform="translate(56,0)"/>
<path d="M0,0 L1,0 L1,1 L0,1 Z " fill="#343441" opacity="0.972549" transform="translate(7,0)"/>
<path d="M0,0 L1,0 L1,1 L0,1 Z " fill="#343441" opacity="0.7411765" transform="translate(5,0)"/>
<path d="M0,0 L1,0 L1,1 L0,1 Z " fill="#2C2C42" opacity="0.09019608" transform="translate(3,0)"/>
</svg>
