<?xml version="1.0" encoding="UTF-8"?>
<!-- Generator: visioncortex VTracer 0.6.4 -->
<svg version="1.1" xmlns="http://www.w3.org/2000/svg" width="64" height="64">
<path d="M0,0 L48,0 L48,1 L52,1 L52,2 L54,2 L54,4 L55,4 L55,8 L56,8 L56,56 L55,56 L55,60 L54,60 L54,62 L52,62 L52,63 L48,63 L48,64 L0,64 L0,63 L-4,63 L-4,62 L-6,62 L-6,60 L-7,60 L-7,56 L-8,56 L-8,8 L-7,8 L-7,4 L-6,4 L-6,2 L-4,2 L-4,1 L0,1 Z M-3,4 L-3,5 L-4,5 L-4,10 L-3,10 L-3,7 L-1,7 L-1,8 L0,8 L0,6 L-2,6 L-2,5 L0,5 L0,4 Z M48,4 L48,5 L50,5 L50,6 L48,6 L48,8 L49,8 L49,7 L51,7 L51,10 L52,10 L52,5 L51,5 L51,4 Z M0,8 L0,9 L1,9 L1,8 Z M47,8 L47,9 L48,9 L48,8 Z M1,9 L1,10 L2,10 L2,9 Z M46,9 L46,10 L47,10 L47,9 Z M2,10 L2,11 L3,11 L3,10 Z M45,10 L45,11 L46,11 L46,10 Z M3,11 L3,12 L4,12 L4,11 Z M44,11 L44,12 L45,12 L45,11 Z M20,18 L20,19 L19,19 L19,20 L18,20 L18,22 L17,22 L17,24 L16,24 L16,26 L15,26 L15,28 L14,28 L14,30 L13,30 L13,32 L12,32 L12,34 L11,34 L11,36 L10,36 L10,44 L11,44 L11,45 L13,45 L13,44 L12,44 L12,43 L11,43 L11,37 L12,37 L12,35 L13,35 L13,33 L14,33 L14,31 L15,31 L15,29 L16,29 L16,27 L17,27 L17,25 L18,25 L18,23 L19,23 L19,21 L20,21 L20,20 L21,20 L21,19 L27,19 L27,20 L28,20 L28,21 L29,21 L29,23 L30,23 L30,25 L31,25 L31,27 L32,27 L32,29 L33,29 L33,31 L34,31 L34,33 L35,33 L35,35 L36,35 L36,37 L37,37 L37,43 L36,43 L36,44 L35,44 L35,45 L37,45 L37,44 L38,44 L38,36 L37,36 L37,34 L36,34 L36,32 L35,32 L35,30 L34,30 L34,28 L33,28 L33,26 L32,26 L32,24 L31,24 L31,22 L30,22 L30,20 L29,20 L29,19 L28,19 L28,18 Z M21,21 L21,23 L22,23 L22,22 L26,22 L26,23 L27,23 L27,21 Z M20,23 L20,25 L21,25 L21,23 Z M27,23 L27,25 L28,25 L28,23 Z M19,25 L19,27 L20,27 L20,25 Z M28,25 L28,27 L29,27 L29,25 Z M18,27 L18,29 L19,29 L19,27 Z M29,27 L29,29 L30,29 L30,27 Z M22,28 L22,29 L21,29 L21,33 L22,33 L22,35 L23,35 L23,37 L22,37 L22,40 L26,40 L26,37 L25,37 L25,35 L26,35 L26,33 L27,33 L27,29 L26,29 L26,28 Z M17,29 L17,31 L18,31 L18,29 Z M30,29 L30,31 L31,31 L31,29 Z M16,31 L16,33 L17,33 L17,31 Z M31,31 L31,33 L32,33 L32,31 Z M15,33 L15,35 L16,35 L16,33 Z M32,33 L32,35 L33,35 L33,33 Z M14,35 L14,37 L15,37 L15,35 Z M33,35 L33,37 L34,37 L34,35 Z M13,37 L13,42 L14,42 L14,37 Z M34,37 L34,42 L35,42 L35,37 Z M14,42 L14,43 L16,43 L16,42 Z M32,42 L32,43 L34,43 L34,42 Z M13,45 L13,46 L16,46 L16,45 Z M32,45 L32,46 L35,46 L35,45 Z M3,52 L3,53 L4,53 L4,52 Z M44,52 L44,53 L45,53 L45,52 Z M2,53 L2,54 L3,54 L3,53 Z M45,53 L45,54 L46,54 L46,53 Z M1,54 L1,55 L2,55 L2,54 Z M46,54 L46,55 L47,55 L47,54 Z M0,55 L0,56 L1,56 L1,55 Z M47,55 L47,56 L48,56 L48,55 Z M-4,56 L-4,59 L-3,59 L-3,60 L0,60 L0,59 L-2,59 L-2,58 L-3,58 L-3,56 Z M-1,56 L-1,57 L0,57 L0,56 Z M48,56 L48,57 L49,57 L49,56 Z M51,56 L51,58 L50,58 L50,59 L48,59 L48,60 L51,60 L51,59 L52,59 L52,56 Z M-2,57 L-2,58 L-1,58 L-1,57 Z M49,57 L49,58 L50,58 L50,57 Z M23,29 L26,29 L26,33 L25,33 L25,35 L23,35 L23,33 L22,33 L22,30 L23,30 Z M23,37 L25,37 L25,39 L23,39 Z " fill="#BD6341" transform="translate(8,0)"/>
<path d="M0,0 L48,0 L48,1 L52,1 L52,2 L54,2 L54,4 L55,4 L55,8 L56,8 L56,56 L55,56 L55,60 L54,60 L54,62 L52,62 L52,63 L48,63 L48,64 L0,64 L0,63 L-4,63 L-4,62 L-6,62 L-6,60 L-7,60 L-7,56 L-8,56 L-8,8 L-7,8 L-7,4 L-6,4 L-6,2 L-4,2 L-4,1 L0,1 Z M-3,4 L-3,5 L-4,5 L-4,59 L-3,59 L-3,60 L51,60 L51,59 L52,59 L52,5 L51,5 L51,4 Z " fill="#353541" transform="translate(8,0)"/>
<path d="M0,0 L40,0 L40,1 L41,1 L41,2 L42,2 L42,3 L43,3 L43,4 L44,4 L44,5 L45,5 L45,6 L46,6 L46,7 L44,7 L44,8 L-4,8 L-4,7 L-6,7 L-6,6 L-5,6 L-5,5 L-4,5 L-4,4 L-3,4 L-3,3 L-2,3 L-2,2 L-1,2 L-1,1 L0,1 Z " fill="#9F5438" transform="translate(12,52)"/>
<path d="M0,0 L48,0 L48,1 L50,1 L50,2 L48,2 L48,4 L47,4 L47,5 L46,5 L46,6 L45,6 L45,7 L44,7 L44,8 L4,8 L4,7 L3,7 L3,6 L2,6 L2,5 L1,5 L1,4 L0,4 L0,2 L-2,2 L-2,1 L0,1 Z " fill="#DE7E4F" transform="translate(8,4)"/>
<path d="M0,0 L2,0 L2,3 L3,3 L3,49 L2,49 L2,51 L1,51 L1,50 L0,50 L0,49 L-1,49 L-1,48 L-2,48 L-2,47 L-3,47 L-3,46 L-4,46 L-4,45 L-5,45 L-5,5 L-4,5 L-4,4 L-3,4 L-3,3 L-2,3 L-2,2 L-1,2 L-1,1 L0,1 Z " fill="#CA6D46" transform="translate(57,7)"/>
<path d="M0,0 L2,0 L2,1 L3,1 L3,2 L4,2 L4,3 L5,3 L5,4 L6,4 L6,5 L7,5 L7,45 L6,45 L6,46 L5,46 L5,47 L4,47 L4,48 L3,48 L3,49 L2,49 L2,50 L1,50 L1,51 L0,51 L0,49 L-1,49 L-1,3 L0,3 Z " fill="#CA6D46" transform="translate(5,7)"/>
<path d="M0,0 L4,0 L4,1 L5,1 L5,3 L6,3 L6,5 L7,5 L7,7 L8,7 L8,9 L9,9 L9,11 L10,11 L10,13 L11,13 L11,15 L12,15 L12,20 L10,20 L10,21 L-6,21 L-6,20 L-8,20 L-8,15 L-7,15 L-7,13 L-6,13 L-6,11 L-5,11 L-5,9 L-4,9 L-4,7 L-3,7 L-3,5 L-2,5 L-2,3 L-1,3 L-1,1 L0,1 Z M0,6 L0,7 L-1,7 L-1,11 L0,11 L0,13 L1,13 L1,15 L0,15 L0,18 L4,18 L4,15 L3,15 L3,13 L4,13 L4,11 L5,11 L5,7 L4,7 L4,6 Z M1,7 L4,7 L4,11 L3,11 L3,13 L1,13 L1,11 L0,11 L0,8 L1,8 Z M1,15 L3,15 L3,17 L1,17 Z " fill="#DE7E4F" transform="translate(30,22)"/>
<path d="M0,0 L6,0 L6,1 L7,1 L7,2 L8,2 L8,4 L9,4 L9,6 L10,6 L10,8 L11,8 L11,10 L12,10 L12,12 L13,12 L13,14 L14,14 L14,16 L15,16 L15,18 L16,18 L16,24 L15,24 L15,25 L14,25 L14,26 L11,26 L11,27 L-5,27 L-5,26 L-8,26 L-8,25 L-9,25 L-9,24 L-10,24 L-10,18 L-9,18 L-9,16 L-8,16 L-8,14 L-7,14 L-7,12 L-6,12 L-6,10 L-5,10 L-5,8 L-4,8 L-4,6 L-3,6 L-3,4 L-2,4 L-2,2 L-1,2 L-1,1 L0,1 Z M0,2 L0,4 L-1,4 L-1,6 L-2,6 L-2,8 L-3,8 L-3,10 L-4,10 L-4,12 L-5,12 L-5,14 L-6,14 L-6,16 L-7,16 L-7,18 L-8,18 L-8,23 L-7,23 L-7,24 L13,24 L13,23 L14,23 L14,18 L13,18 L13,16 L12,16 L12,14 L11,14 L11,12 L10,12 L10,10 L9,10 L9,8 L8,8 L8,6 L7,6 L7,4 L6,4 L6,2 Z " fill="#9F5438" transform="translate(29,19)"/>
<path d="M0,0 L48,0 L48,1 L50,1 L50,2 L-2,2 L-2,1 L0,1 Z " fill="#FA9F72" transform="translate(8,4)"/>
<path d="M0,0 L3,0 L3,4 L2,4 L2,6 L0,6 L0,4 L-1,4 L-1,1 L0,1 Z " fill="#9F5438" transform="translate(31,29)"/>
<path d="M0,0 L1,0 L1,1 L0,1 Z M-1,1 L0,1 L0,2 L-1,2 Z M-2,2 L-1,2 L-1,3 L-2,3 Z M-3,3 L-2,3 L-2,4 L-3,4 Z M-4,4 L-3,4 L-3,5 L-4,5 Z M-5,5 L-4,5 L-4,6 L-5,6 Z " fill="#CA6D46" transform="translate(57,7)"/>
<path d="M0,0 L1,0 L1,1 L0,1 Z M-1,1 L0,1 L0,2 L-1,2 Z M-2,2 L-1,2 L-1,3 L-2,3 Z M-3,3 L-2,3 L-2,4 L-3,4 Z M-4,4 L-3,4 L-3,5 L-4,5 Z M-5,5 L-4,5 L-4,6 L-5,6 Z M-6,6 L-5,6 L-5,7 L-6,7 Z " fill="#AD5C3C" opacity="0.7529412" transform="translate(11,52)"/>
<path d="M0,0 L1,0 L1,1 L0,1 Z M1,1 L2,1 L2,2 L1,2 Z M2,2 L3,2 L3,3 L2,3 Z M3,3 L4,3 L4,4 L3,4 Z M4,4 L5,4 L5,5 L4,5 Z M5,5 L6,5 L6,6 L5,6 Z M6,6 L7,6 L7,7 L6,7 Z " fill="#AD5C3C" opacity="0.7529412" transform="translate(52,52)"/>
<path d="M0,0 L2,0 L2,2 L0,2 Z " fill="#9F5438" transform="translate(31,37)"/>
<path d="M0,0 L1,0 L1,1 L0,1 Z M-1,1 L0,1 L0,2 L-1,2 Z M-2,2 L-1,2 L-1,3 L-2,3 Z " fill="#9F5438" transform="translate(29,19)"/>
<path d="M0,0 L1,0 L1,1 L0,1 Z M-1,1 L0,1 L0,2 L-1,2 Z M-2,2 L-1,2 L-1,3 L-2,3 Z M-3,3 L-2,3 L-2,4 L-3,4 Z M-4,4 L-3,4 L-3,5 L-4,5 Z M-5,5 L-4,5 L-4,6 L-5,6 Z M-6,6 L-5,6 L-5,7 L-6,7 Z " fill="#9F5438" transform="translate(12,52)"/>
<path d="M0,0 L1,0 L1,1 L0,1 Z " fill="#9E5336" opacity="0.91764706" transform="translate(45,40)"/>
<path d="M0,0 L1,0 L1,1 L0,1 Z M-1,1 L0,1 L0,2 L-1,2 Z M-2,2 L-1,2 L-1,3 L-2,3 Z M-3,3 L-2,3 L-2,4 L-3,4 Z M-4,4 L-3,4 L-3,5 L-4,5 Z " fill="#D07148" opacity="0.7529412" transform="translate(56,7)"/>
<path d="M0,0 L1,0 L1,1 L0,1 Z M1,1 L2,1 L2,2 L1,2 Z M2,2 L3,2 L3,3 L2,3 Z M3,3 L4,3 L4,4 L3,4 Z M4,4 L5,4 L5,5 L4,5 Z " fill="#D17248" opacity="0.7529412" transform="translate(7,7)"/>
<path d="M0,0 L1,0 L1,1 L0,1 Z " fill="#D7774A" opacity="0.7921569" transform="translate(5,6)"/>
<path d="M0,0 L1,0 L1,1 L0,1 Z M-2,1 L0,1 L0,2 L-2,2 Z " fill="#FA9F72" transform="translate(8,4)"/>
<path d="M0,0 L1,0 L1,1 L0,1 Z " fill="#333340" opacity="0.6392157" transform="translate(58,63)"/>
<path d="M0,0 L1,0 L1,1 L0,1 Z " fill="#353540" opacity="0.8117647" transform="translate(6,63)"/>
<path d="M0,0 L1,0 L1,1 L0,1 Z " fill="#343440" opacity="0.654902" transform="translate(63,58)"/>
<path d="M0,0 L1,0 L1,1 L0,1 Z " fill="#D97A4C" opacity="0.9372549" transform="translate(42,39)"/>
<path d="M0,0 L1,0 L1,1 L0,1 Z " fill="#BC6640" opacity="0.7607843" transform="translate(34,30)"/>
<path d="M0,0 L1,0 L1,1 L0,1 Z " fill="#BB6540" opacity="0.7607843" transform="translate(29,30)"/>
<path d="M0,0 L1,0 L1,1 L0,1 Z " fill="#343440" opacity="0.9019608" transform="translate(63,6)"/>
<path d="M0,0 L1,0 L1,1 L0,1 Z " fill="#D6764A" opacity="0.79607844" transform="translate(58,6)"/>
<path d="M0,0 L1,0 L1,1 L0,1 Z " fill="#343441" opacity="0.9098039" transform="translate(0,6)"/>
<path d="M0,0 L1,0 L1,1 L0,1 Z " fill="#343441" opacity="0.9098039" transform="translate(6,0)"/>
<path d="M0,0 L1,0 L1,1 L0,1 Z " fill="#D97A4C" opacity="0.9372549" transform="translate(21,39)"/>
<path d="M0,0 L1,0 L1,1 L0,1 Z M-1,1 L0,1 L0,2 L-1,2 Z " fill="#9F5438" transform="translate(31,29)"/>
<path d="M0,0 L1,0 L1,1 L0,1 Z " fill="#9F5337" opacity="0.96862745" transform="translate(34,21)"/>
<path d="M0,0 L1,0 L1,1 L0,1 Z " fill="#353540" opacity="0.4509804" transform="translate(4,63)"/>
<path d="M0,0 L1,0 L1,1 L0,1 Z " fill="#353540" opacity="0.9647059" transform="translate(3,62)"/>
<path d="M0,0 L1,0 L1,1 L0,1 Z " fill="#31313B" opacity="0.101960786" transform="translate(0,60)"/>
<path d="M0,0 L1,0 L1,1 L0,1 Z " fill="#975137" opacity="0.827451" transform="translate(6,59)"/>
<path d="M0,0 L1,0 L1,1 L0,1 Z " fill="#B25B3B" opacity="0.7882353" transform="translate(42,45)"/>
<path d="M0,0 L1,0 L1,1 L0,1 Z " fill="#A25436" opacity="0.8039216" transform="translate(22,45)"/>
<path d="M0,0 L1,0 L1,1 L0,1 Z " fill="#B05D3C" opacity="0.78431374" transform="translate(18,42)"/>
<path d="M0,0 L1,0 L1,1 L0,1 Z M1,1 L2,1 L2,2 L1,2 Z " fill="#B1603E" opacity="0.7529412" transform="translate(21,41)"/>
<path d="M0,0 L1,0 L1,1 L0,1 Z " fill="#A75839" opacity="0.78039217" transform="translate(32,39)"/>
<path d="M0,0 L1,0 L1,1 L0,1 Z " fill="#A15337" opacity="0.827451" transform="translate(45,38)"/>
<path d="M0,0 L1,0 L1,1 L0,1 Z " fill="#AF5C3B" opacity="0.75686276" transform="translate(33,38)"/>
<path d="M0,0 L1,0 L1,1 L0,1 Z " fill="#B66440" opacity="0.7529412" transform="translate(30,38)"/>
<path d="M0,0 L1,0 L1,1 L0,1 Z " fill="#A05437" opacity="0.81960785" transform="translate(18,38)"/>
<path d="M0,0 L1,0 L1,1 L0,1 Z " fill="#9F5438" opacity="0.9647059" transform="translate(44,36)"/>
<path d="M0,0 L1,0 L1,1 L0,1 Z " fill="#C26B43" opacity="0.78431374" transform="translate(32,36)"/>
<path d="M0,0 L1,0 L1,1 L0,1 Z " fill="#9E5338" opacity="0.9490196" transform="translate(19,36)"/>
<path d="M0,0 L2,0 L2,1 L0,1 Z " fill="#D37649" opacity="0.8745098" transform="translate(31,35)"/>
<path d="M0,0 L1,0 L1,1 L0,1 Z " fill="#9F5438" opacity="0.9647059" transform="translate(43,34)"/>
<path d="M0,0 L1,0 L1,1 L0,1 Z " fill="#9E5338" opacity="0.9490196" transform="translate(20,34)"/>
<path d="M0,0 L1,0 L1,1 L0,1 Z " fill="#9F5438" opacity="0.9647059" transform="translate(42,32)"/>
<path d="M0,0 L1,0 L1,1 L0,1 Z " fill="#9E5338" opacity="0.9490196" transform="translate(21,32)"/>
<path d="M0,0 L1,0 L1,1 L0,1 Z " fill="#9F5438" opacity="0.9647059" transform="translate(41,30)"/>
<path d="M0,0 L1,0 L1,1 L0,1 Z " fill="#9E5338" opacity="0.9490196" transform="translate(22,30)"/>
<path d="M0,0 L1,0 L1,1 L0,1 Z " fill="#9F5438" opacity="0.9647059" transform="translate(40,28)"/>
<path d="M0,0 L1,0 L1,1 L0,1 Z " fill="#A05337" opacity="0.9098039" transform="translate(31,28)"/>
<path d="M0,0 L1,0 L1,1 L0,1 Z " fill="#9E5338" opacity="0.9490196" transform="translate(23,28)"/>
<path d="M0,0 L1,0 L1,1 L0,1 Z " fill="#9F5438" opacity="0.9647059" transform="translate(39,26)"/>
<path d="M0,0 L1,0 L1,1 L0,1 Z " fill="#9E5338" opacity="0.9490196" transform="translate(24,26)"/>
<path d="M0,0 L1,0 L1,1 L0,1 Z " fill="#9F5337" opacity="0.96862745" transform="translate(38,24)"/>
<path d="M0,0 L1,0 L1,1 L0,1 Z " fill="#9E5338" opacity="0.9490196" transform="translate(25,24)"/>
<path d="M0,0 L1,0 L1,1 L0,1 Z " fill="#9F5337" opacity="0.96862745" transform="translate(37,22)"/>
<path d="M0,0 L1,0 L1,1 L0,1 Z " fill="#D9794C" opacity="0.93333334" transform="translate(31,21)"/>
<path d="M0,0 L1,0 L1,1 L0,1 Z " fill="#AB593A" opacity="0.7607843" transform="translate(34,18)"/>
<path d="M0,0 L1,0 L1,1 L0,1 Z " fill="#9F5337" opacity="0.92156863" transform="translate(32,18)"/>
<path d="M0,0 L1,0 L1,1 L0,1 Z " fill="#A25438" opacity="0.8039216" transform="translate(30,18)"/>
<path d="M0,0 L2,0 L2,1 L0,1 Z " fill="#BD6240" transform="translate(31,17)"/>
<path d="M0,0 L1,0 L1,1 L0,1 Z " fill="#CA6C45" opacity="0.9490196" transform="translate(59,9)"/>
<path d="M0,0 L1,0 L1,1 L0,1 Z " fill="#CA6C45" opacity="0.9529412" transform="translate(4,9)"/>
<path d="M0,0 L1,0 L1,1 L0,1 Z " fill="#D1744A" opacity="0.75686276" transform="translate(4,7)"/>
<path d="M0,0 L1,0 L1,1 L0,1 Z " fill="#DE7E4F" transform="translate(8,6)"/>
<path d="M0,0 L1,0 L1,1 L0,1 Z " fill="#353540" opacity="0.47058824" transform="translate(63,4)"/>
<path d="M0,0 L1,0 L1,1 L0,1 Z " fill="#F99E71" opacity="0.9411765" transform="translate(7,4)"/>
<path d="M0,0 L1,0 L1,1 L0,1 Z " fill="#343440" opacity="0.48235294" transform="translate(0,4)"/>
<path d="M0,0 L1,0 L1,1 L0,1 Z " fill="#343440" opacity="0.96862745" transform="translate(62,3)"/>
<path d="M0,0 L1,0 L1,1 L0,1 Z M-1,1 L0,1 L0,2 L-1,2 Z " fill="#343441" opacity="0.4" transform="translate(2,1)"/>
<path d="M0,0 L1,0 L1,1 L0,1 Z " fill="#2E2E3A" opacity="0.08627451" transform="translate(60,0)"/>
<path d="M0,0 L1,0 L1,1 L0,1 Z " fill="#343440" opacity="0.48235294" transform="translate(4,0)"/>
<path d="M0,0 L1,0 L1,1 L0,1 Z " fill="#333340" opacity="0.078431375" transform="translate(60,63)"/>
<path d="M0,0 L1,0 L1,1 L0,1 Z " fill="#353540" opacity="0.4509804" transform="translate(59,63)"/>
<path d="M0,0 L1,0 L1,1 L0,1 Z " fill="#343440" opacity="0.80784315" transform="translate(57,63)"/>
<path d="M0,0 L1,0 L1,1 L0,1 Z " fill="#343440" opacity="0.96862745" transform="translate(56,63)"/>
<path d="M0,0 L1,0 L1,1 L0,1 Z " fill="#343441" opacity="0.972549" transform="translate(7,63)"/>
<path d="M0,0 L1,0 L1,1 L0,1 Z " fill="#333340" opacity="0.6392157" transform="translate(5,63)"/>
<path d="M0,0 L1,0 L1,1 L0,1 Z " fill="#30303C" opacity="0.08235294" transform="translate(3,63)"/>
<path d="M0,0 L1,0 L1,1 L0,1 Z " fill="#333340" opacity="0.3882353" transform="translate(61,62)"/>
<path d="M0,0 L1,0 L1,1 L0,1 Z " fill="#343440" opacity="0.9607843" transform="translate(60,62)"/>
<path d="M0,0 L1,0 L1,1 L0,1 Z " fill="#35353F" opacity="0.39607844" transform="translate(2,62)"/>
<path d="M0,0 L1,0 L1,1 L0,1 Z " fill="#343441" opacity="0.4" transform="translate(62,61)"/>
<path d="M0,0 L1,0 L1,1 L0,1 Z " fill="#33333F" opacity="0.4117647" transform="translate(1,61)"/>
<path d="M0,0 L1,0 L1,1 L0,1 Z " fill="#353540" opacity="0.09411765" transform="translate(63,60)"/>
<path d="M0,0 L1,0 L1,1 L0,1 Z " fill="#343440" opacity="0.96862745" transform="translate(62,60)"/>
<path d="M0,0 L1,0 L1,1 L0,1 Z " fill="#343441" opacity="0.972549" transform="translate(1,60)"/>
<path d="M0,0 L1,0 L1,1 L0,1 Z " fill="#333340" opacity="0.46666667" transform="translate(63,59)"/>
<path d="M0,0 L1,0 L1,1 L0,1 Z " fill="#5C3F3C" opacity="0.7921569" transform="translate(58,59)"/>
<path d="M0,0 L1,0 L1,1 L0,1 Z " fill="#975137" opacity="0.827451" transform="translate(57,59)"/>
<path d="M0,0 L1,0 L1,1 L0,1 Z " fill="#9E5337" opacity="0.9372549" transform="translate(56,59)"/>
<path d="M0,0 L1,0 L1,1 L0,1 Z " fill="#9E5337" opacity="0.9372549" transform="translate(7,59)"/>
<path d="M0,0 L1,0 L1,1 L0,1 Z " fill="#5C3F3C" opacity="0.7921569" transform="translate(5,59)"/>
<path d="M0,0 L1,0 L1,1 L0,1 Z " fill="#343440" opacity="0.5019608" transform="translate(0,59)"/>
<path d="M0,0 L1,0 L1,1 L0,1 Z " fill="#6E4942" opacity="0.7882353" transform="translate(59,58)"/>
<path d="M0,0 L1,0 L1,1 L0,1 Z " fill="#724B40" opacity="0.7882353" transform="translate(4,58)"/>
<path d="M0,0 L1,0 L1,1 L0,1 Z " fill="#343441" opacity="0.76862746" transform="translate(0,58)"/>
<path d="M0,0 L1,0 L1,1 L0,1 Z " fill="#343440" opacity="0.827451" transform="translate(63,57)"/>
<path d="M0,0 L1,0 L1,1 L0,1 Z " fill="#C06845" opacity="0.8235294" transform="translate(59,57)"/>
<path d="M0,0 L1,0 L1,1 L0,1 Z " fill="#C16945" opacity="0.8352941" transform="translate(4,57)"/>
<path d="M0,0 L1,0 L1,1 L0,1 Z " fill="#343440" opacity="0.9137255" transform="translate(0,57)"/>
<path d="M0,0 L1,0 L1,1 L0,1 Z " fill="#353540" opacity="0.9843137" transform="translate(63,56)"/>
<path d="M0,0 L1,0 L1,1 L0,1 Z " fill="#C96D45" opacity="0.9647059" transform="translate(59,56)"/>
<path d="M0,0 L1,0 L1,1 L0,1 Z " fill="#CA6C45" opacity="0.96862745" transform="translate(4,56)"/>
<path d="M0,0 L1,0 L1,1 L0,1 Z " fill="#343440" opacity="0.99607843" transform="translate(0,56)"/>
<path d="M0,0 L1,0 L1,1 L0,1 Z " fill="#BD6240" transform="translate(43,45)"/>
<path d="M0,0 L1,0 L1,1 L0,1 Z " fill="#A15537" opacity="0.8" transform="translate(41,45)"/>
<path d="M0,0 L1,0 L1,1 L0,1 Z " fill="#9F5437" opacity="0.90588236" transform="translate(40,45)"/>
<path d="M0,0 L1,0 L1,1 L0,1 Z " fill="#9F5437" opacity="0.90588236" transform="translate(23,45)"/>
<path d="M0,0 L1,0 L1,1 L0,1 Z " fill="#B05D3C" opacity="0.78431374" transform="translate(21,45)"/>
<path d="M0,0 L1,0 L1,1 L0,1 Z " fill="#BD6240" transform="translate(20,45)"/>
<path d="M0,0 L1,0 L1,1 L0,1 Z " fill="#BC603F" opacity="0.9647059" transform="translate(44,44)"/>
<path d="M0,0 L1,0 L1,1 L0,1 Z " fill="#A15438" opacity="0.8" transform="translate(43,44)"/>
<path d="M0,0 L1,0 L1,1 L0,1 Z " fill="#A25438" opacity="0.8039216" transform="translate(20,44)"/>
<path d="M0,0 L1,0 L1,1 L0,1 Z " fill="#BC603F" opacity="0.9647059" transform="translate(19,44)"/>
<path d="M0,0 L1,0 L1,1 L0,1 Z " fill="#BB6140" opacity="0.9882353" transform="translate(45,43)"/>
<path d="M0,0 L1,0 L1,1 L0,1 Z " fill="#A25538" opacity="0.79607844" transform="translate(44,43)"/>
<path d="M0,0 L1,0 L1,1 L0,1 Z " fill="#A25639" opacity="0.7921569" transform="translate(19,43)"/>
<path d="M0,0 L1,0 L1,1 L0,1 Z " fill="#BD6240" opacity="0.99215686" transform="translate(18,43)"/>
<path d="M0,0 L1,0 L1,1 L0,1 Z " fill="#B05B3C" opacity="0.78039217" transform="translate(45,42)"/>
<path d="M0,0 L1,0 L1,1 L0,1 Z " fill="#B05F3D" opacity="0.75686276" transform="translate(41,42)"/>
<path d="M0,0 L1,0 L1,1 L0,1 Z " fill="#D5784A" opacity="0.9019608" transform="translate(40,42)"/>
<path d="M0,0 L1,0 L1,1 L0,1 Z " fill="#DE7D4E" transform="translate(39,42)"/>
<path d="M0,0 L1,0 L1,1 L0,1 Z " fill="#DE7D4E" transform="translate(24,42)"/>
<path d="M0,0 L1,0 L1,1 L0,1 Z " fill="#D5774B" opacity="0.90588236" transform="translate(23,42)"/>
<path d="M0,0 L1,0 L1,1 L0,1 Z " fill="#A15437" opacity="0.8156863" transform="translate(45,41)"/>
<path d="M0,0 L1,0 L1,1 L0,1 Z " fill="#B1603E" opacity="0.7529412" transform="translate(42,41)"/>
<path d="M0,0 L1,0 L1,1 L0,1 Z " fill="#A15538" opacity="0.7882353" transform="translate(18,41)"/>
<path d="M0,0 L1,0 L1,1 L0,1 Z " fill="#D5774B" opacity="0.90588236" transform="translate(42,40)"/>
<path d="M0,0 L1,0 L1,1 L0,1 Z " fill="#D5774A" opacity="0.8901961" transform="translate(21,40)"/>
<path d="M0,0 L1,0 L1,1 L0,1 Z " fill="#9F5337" opacity="0.88235295" transform="translate(18,40)"/>
<path d="M0,0 L1,0 L1,1 L0,1 Z " fill="#9E5337" opacity="0.94509804" transform="translate(45,39)"/>
<path d="M0,0 L1,0 L1,1 L0,1 Z " fill="#D8784B" opacity="0.91764706" transform="translate(33,39)"/>
<path d="M0,0 L1,0 L1,1 L0,1 Z " fill="#AD5C3B" opacity="0.75686276" transform="translate(31,39)"/>
<path d="M0,0 L1,0 L1,1 L0,1 Z " fill="#D97A4C" opacity="0.9411765" transform="translate(30,39)"/>
<path d="M0,0 L1,0 L1,1 L0,1 Z " fill="#9E5337" opacity="0.9372549" transform="translate(18,39)"/>
<path d="M0,0 L1,0 L1,1 L0,1 Z " fill="#C06943" opacity="0.77254903" transform="translate(42,38)"/>
<path d="M0,0 L1,0 L1,1 L0,1 Z " fill="#C36B44" opacity="0.7764706" transform="translate(21,38)"/>
<path d="M0,0 L1,0 L1,1 L0,1 Z " fill="#AA593A" opacity="0.7529412" transform="translate(45,37)"/>
<path d="M0,0 L1,0 L1,1 L0,1 Z " fill="#A15538" opacity="0.85882354" transform="translate(42,37)"/>
<path d="M0,0 L1,0 L1,1 L0,1 Z " fill="#DD7D4E" transform="translate(41,37)"/>
<path d="M0,0 L1,0 L1,1 L0,1 Z " fill="#C06942" opacity="0.77254903" transform="translate(33,37)"/>
<path d="M0,0 L1,0 L1,1 L0,1 Z " fill="#C36A45" opacity="0.78039217" transform="translate(30,37)"/>
<path d="M0,0 L1,0 L1,1 L0,1 Z " fill="#DE7D4E" transform="translate(22,37)"/>
<path d="M0,0 L1,0 L1,1 L0,1 Z " fill="#A25537" opacity="0.84705883" transform="translate(21,37)"/>
<path d="M0,0 L1,0 L1,1 L0,1 Z " fill="#AB583A" opacity="0.75686276" transform="translate(18,37)"/>
<path d="M0,0 L1,0 L1,1 L0,1 Z " fill="#BA5F3F" opacity="0.92156863" transform="translate(45,36)"/>
<path d="M0,0 L1,0 L1,1 L0,1 Z " fill="#C36C44" opacity="0.78039217" transform="translate(41,36)"/>
<path d="M0,0 L1,0 L1,1 L0,1 Z " fill="#DD7D4E" transform="translate(33,36)"/>
<path d="M0,0 L1,0 L1,1 L0,1 Z " fill="#C56C45" opacity="0.78431374" transform="translate(31,36)"/>
<path d="M0,0 L1,0 L1,1 L0,1 Z " fill="#DE7D4E" transform="translate(30,36)"/>
<path d="M0,0 L1,0 L1,1 L0,1 Z " fill="#C56D44" opacity="0.7882353" transform="translate(22,36)"/>
<path d="M0,0 L1,0 L1,1 L0,1 Z " fill="#BA613F" opacity="0.9372549" transform="translate(18,36)"/>
<path d="M0,0 L1,0 L1,1 L0,1 Z " fill="#A65839" opacity="0.7529412" transform="translate(44,35)"/>
<path d="M0,0 L1,0 L1,1 L0,1 Z " fill="#A15538" opacity="0.85882354" transform="translate(41,35)"/>
<path d="M0,0 L1,0 L1,1 L0,1 Z " fill="#DD7D4E" transform="translate(40,35)"/>
<path d="M0,0 L1,0 L1,1 L0,1 Z " fill="#DE7D4E" transform="translate(23,35)"/>
<path d="M0,0 L1,0 L1,1 L0,1 Z " fill="#A25537" opacity="0.84705883" transform="translate(22,35)"/>
<path d="M0,0 L1,0 L1,1 L0,1 Z " fill="#A8583A" opacity="0.7529412" transform="translate(19,35)"/>
<path d="M0,0 L1,0 L1,1 L0,1 Z " fill="#BA5F3F" opacity="0.92156863" transform="translate(44,34)"/>
<path d="M0,0 L1,0 L1,1 L0,1 Z " fill="#C36C44" opacity="0.78039217" transform="translate(40,34)"/>
<path d="M0,0 L1,0 L1,1 L0,1 Z " fill="#C56C45" opacity="0.7921569" transform="translate(33,34)"/>
<path d="M0,0 L1,0 L1,1 L0,1 Z " fill="#C96F45" opacity="0.8039216" transform="translate(30,34)"/>
<path d="M0,0 L1,0 L1,1 L0,1 Z " fill="#C56D44" opacity="0.7882353" transform="translate(23,34)"/>
<path d="M0,0 L1,0 L1,1 L0,1 Z " fill="#BA613F" opacity="0.9372549" transform="translate(19,34)"/>
<path d="M0,0 L1,0 L1,1 L0,1 Z " fill="#A65839" opacity="0.7529412" transform="translate(43,33)"/>
<path d="M0,0 L1,0 L1,1 L0,1 Z " fill="#A15538" opacity="0.85882354" transform="translate(40,33)"/>
<path d="M0,0 L1,0 L1,1 L0,1 Z " fill="#DD7D4E" transform="translate(39,33)"/>
<path d="M0,0 L1,0 L1,1 L0,1 Z " fill="#DE7D4E" transform="translate(34,33)"/>
<path d="M0,0 L1,0 L1,1 L0,1 Z " fill="#A05438" opacity="0.8901961" transform="translate(33,33)"/>
<path d="M0,0 L1,0 L1,1 L0,1 Z " fill="#A15438" opacity="0.8666667" transform="translate(30,33)"/>
<path d="M0,0 L1,0 L1,1 L0,1 Z " fill="#DE7D4E" transform="translate(29,33)"/>
<path d="M0,0 L1,0 L1,1 L0,1 Z " fill="#DE7D4E" transform="translate(24,33)"/>
<path d="M0,0 L1,0 L1,1 L0,1 Z " fill="#A25537" opacity="0.84705883" transform="translate(23,33)"/>
<path d="M0,0 L1,0 L1,1 L0,1 Z " fill="#A8583A" opacity="0.7529412" transform="translate(20,33)"/>
<path d="M0,0 L1,0 L1,1 L0,1 Z " fill="#BA5F3F" opacity="0.92156863" transform="translate(43,32)"/>
<path d="M0,0 L1,0 L1,1 L0,1 Z " fill="#C36C44" opacity="0.78039217" transform="translate(39,32)"/>
<path d="M0,0 L1,0 L1,1 L0,1 Z " fill="#D07449" opacity="0.8509804" transform="translate(34,32)"/>
<path d="M0,0 L1,0 L1,1 L0,1 Z " fill="#D07449" opacity="0.8509804" transform="translate(29,32)"/>
<path d="M0,0 L1,0 L1,1 L0,1 Z " fill="#C56D44" opacity="0.7882353" transform="translate(24,32)"/>
<path d="M0,0 L1,0 L1,1 L0,1 Z " fill="#BA613E" opacity="0.9411765" transform="translate(20,32)"/>
<path d="M0,0 L1,0 L1,1 L0,1 Z " fill="#A65839" opacity="0.7529412" transform="translate(42,31)"/>
<path d="M0,0 L1,0 L1,1 L0,1 Z " fill="#A15538" opacity="0.85882354" transform="translate(39,31)"/>
<path d="M0,0 L1,0 L1,1 L0,1 Z " fill="#DD7D4E" transform="translate(38,31)"/>
<path d="M0,0 L1,0 L1,1 L0,1 Z " fill="#C46B44" opacity="0.7764706" transform="translate(34,31)"/>
<path d="M0,0 L1,0 L1,1 L0,1 Z " fill="#C16A43" opacity="0.77254903" transform="translate(29,31)"/>
<path d="M0,0 L1,0 L1,1 L0,1 Z " fill="#DE7D4E" transform="translate(25,31)"/>
<path d="M0,0 L1,0 L1,1 L0,1 Z " fill="#A25537" opacity="0.84705883" transform="translate(24,31)"/>
<path d="M0,0 L1,0 L1,1 L0,1 Z " fill="#A8583A" opacity="0.7529412" transform="translate(21,31)"/>
<path d="M0,0 L1,0 L1,1 L0,1 Z " fill="#BA5F3F" opacity="0.92156863" transform="translate(42,30)"/>
<path d="M0,0 L1,0 L1,1 L0,1 Z " fill="#C36C44" opacity="0.78039217" transform="translate(38,30)"/>
<path d="M0,0 L1,0 L1,1 L0,1 Z " fill="#C56D44" opacity="0.7882353" transform="translate(25,30)"/>
<path d="M0,0 L1,0 L1,1 L0,1 Z " fill="#BA613E" opacity="0.9411765" transform="translate(21,30)"/>
<path d="M0,0 L1,0 L1,1 L0,1 Z " fill="#A7573A" opacity="0.75686276" transform="translate(41,29)"/>
<path d="M0,0 L1,0 L1,1 L0,1 Z " fill="#A15538" opacity="0.85882354" transform="translate(38,29)"/>
<path d="M0,0 L1,0 L1,1 L0,1 Z " fill="#DD7D4E" transform="translate(37,29)"/>
<path d="M0,0 L1,0 L1,1 L0,1 Z " fill="#CD7348" opacity="0.84313726" transform="translate(34,29)"/>
<path d="M0,0 L1,0 L1,1 L0,1 Z " fill="#9F5337" opacity="0.99607843" transform="translate(30,29)"/>
<path d="M0,0 L1,0 L1,1 L0,1 Z " fill="#CD7348" opacity="0.84313726" transform="translate(29,29)"/>
<path d="M0,0 L1,0 L1,1 L0,1 Z " fill="#DE7D4E" transform="translate(26,29)"/>
<path d="M0,0 L1,0 L1,1 L0,1 Z " fill="#A25537" opacity="0.84705883" transform="translate(25,29)"/>
<path d="M0,0 L1,0 L1,1 L0,1 Z " fill="#A9583A" opacity="0.7529412" transform="translate(22,29)"/>
<path d="M0,0 L1,0 L1,1 L0,1 Z " fill="#B9603F" opacity="0.92156863" transform="translate(41,28)"/>
<path d="M0,0 L1,0 L1,1 L0,1 Z " fill="#C36C44" opacity="0.78039217" transform="translate(37,28)"/>
<path d="M0,0 L1,0 L1,1 L0,1 Z " fill="#BB6641" opacity="0.7607843" transform="translate(33,28)"/>
<path d="M0,0 L1,0 L1,1 L0,1 Z " fill="#A05436" opacity="0.9137255" transform="translate(32,28)"/>
<path d="M0,0 L1,0 L1,1 L0,1 Z " fill="#BE6842" opacity="0.76862746" transform="translate(30,28)"/>
<path d="M0,0 L1,0 L1,1 L0,1 Z " fill="#C56D44" opacity="0.7882353" transform="translate(26,28)"/>
<path d="M0,0 L1,0 L1,1 L0,1 Z " fill="#BA613E" opacity="0.9411765" transform="translate(22,28)"/>
<path d="M0,0 L1,0 L1,1 L0,1 Z " fill="#A8563A" opacity="0.7529412" transform="translate(40,27)"/>
<path d="M0,0 L1,0 L1,1 L0,1 Z " fill="#A15538" opacity="0.85882354" transform="translate(37,27)"/>
<path d="M0,0 L1,0 L1,1 L0,1 Z " fill="#DD7D4E" transform="translate(36,27)"/>
<path d="M0,0 L1,0 L1,1 L0,1 Z " fill="#DE7D4E" transform="translate(27,27)"/>
<path d="M0,0 L1,0 L1,1 L0,1 Z " fill="#A25537" opacity="0.84705883" transform="translate(26,27)"/>
<path d="M0,0 L1,0 L1,1 L0,1 Z " fill="#A85839" opacity="0.7529412" transform="translate(23,27)"/>
<path d="M0,0 L1,0 L1,1 L0,1 Z " fill="#B9603F" opacity="0.92156863" transform="translate(40,26)"/>
<path d="M0,0 L1,0 L1,1 L0,1 Z " fill="#C36C44" opacity="0.78039217" transform="translate(36,26)"/>
<path d="M0,0 L1,0 L1,1 L0,1 Z " fill="#C56D44" opacity="0.7882353" transform="translate(27,26)"/>
<path d="M0,0 L1,0 L1,1 L0,1 Z " fill="#BA613E" opacity="0.9411765" transform="translate(23,26)"/>
<path d="M0,0 L1,0 L1,1 L0,1 Z " fill="#A8563A" opacity="0.7529412" transform="translate(39,25)"/>
<path d="M0,0 L1,0 L1,1 L0,1 Z " fill="#A15538" opacity="0.85882354" transform="translate(36,25)"/>
<path d="M0,0 L1,0 L1,1 L0,1 Z " fill="#DD7D4E" transform="translate(35,25)"/>
<path d="M0,0 L1,0 L1,1 L0,1 Z " fill="#DE7D4E" transform="translate(28,25)"/>
<path d="M0,0 L1,0 L1,1 L0,1 Z " fill="#A25537" opacity="0.84705883" transform="translate(27,25)"/>
<path d="M0,0 L1,0 L1,1 L0,1 Z " fill="#A85839" opacity="0.7529412" transform="translate(24,25)"/>
<path d="M0,0 L1,0 L1,1 L0,1 Z " fill="#B9603F" opacity="0.92156863" transform="translate(39,24)"/>
<path d="M0,0 L1,0 L1,1 L0,1 Z " fill="#C36C44" opacity="0.78039217" transform="translate(35,24)"/>
<path d="M0,0 L1,0 L1,1 L0,1 Z " fill="#C56D44" opacity="0.7882353" transform="translate(28,24)"/>
<path d="M0,0 L1,0 L1,1 L0,1 Z " fill="#BA613E" opacity="0.9411765" transform="translate(24,24)"/>
<path d="M0,0 L1,0 L1,1 L0,1 Z " fill="#A8563A" opacity="0.7529412" transform="translate(38,23)"/>
<path d="M0,0 L1,0 L1,1 L0,1 Z " fill="#A15538" opacity="0.85882354" transform="translate(35,23)"/>
<path d="M0,0 L1,0 L1,1 L0,1 Z " fill="#DD7D4E" transform="translate(34,23)"/>
<path d="M0,0 L1,0 L1,1 L0,1 Z " fill="#DE7D4E" transform="translate(29,23)"/>
<path d="M0,0 L1,0 L1,1 L0,1 Z " fill="#A25537" opacity="0.84705883" transform="translate(28,23)"/>
<path d="M0,0 L1,0 L1,1 L0,1 Z " fill="#A85839" opacity="0.7529412" transform="translate(25,23)"/>
<path d="M0,0 L1,0 L1,1 L0,1 Z " fill="#B9603F" opacity="0.92156863" transform="translate(38,22)"/>
<path d="M0,0 L1,0 L1,1 L0,1 Z " fill="#BD6641" opacity="0.7647059" transform="translate(34,22)"/>
<path d="M0,0 L1,0 L1,1 L0,1 Z " fill="#DE7E4F" transform="translate(30,22)"/>
<path d="M0,0 L1,0 L1,1 L0,1 Z " fill="#BE6842" opacity="0.76862746" transform="translate(29,22)"/>
<path d="M0,0 L1,0 L1,1 L0,1 Z " fill="#9E5338" opacity="0.9490196" transform="translate(26,22)"/>
<path d="M0,0 L1,0 L1,1 L0,1 Z " fill="#BA613E" opacity="0.9411765" transform="translate(25,22)"/>
<path d="M0,0 L1,0 L1,1 L0,1 Z " fill="#A85839" opacity="0.7529412" transform="translate(37,21)"/>
<path d="M0,0 L1,0 L1,1 L0,1 Z " fill="#BC6640" opacity="0.75686276" transform="translate(33,21)"/>
<path d="M0,0 L1,0 L1,1 L0,1 Z " fill="#D9794C" opacity="0.93333334" transform="translate(32,21)"/>
<path d="M0,0 L1,0 L1,1 L0,1 Z " fill="#B96440" opacity="0.75686276" transform="translate(30,21)"/>
<path d="M0,0 L1,0 L1,1 L0,1 Z " fill="#9F5337" opacity="0.96862745" transform="translate(29,21)"/>
<path d="M0,0 L1,0 L1,1 L0,1 Z " fill="#A95839" opacity="0.7529412" transform="translate(26,21)"/>
<path d="M0,0 L1,0 L1,1 L0,1 Z " fill="#BB623F" opacity="0.98039216" transform="translate(37,20)"/>
<path d="M0,0 L1,0 L1,1 L0,1 Z " fill="#A05437" opacity="0.8392157" transform="translate(36,20)"/>
<path d="M0,0 L1,0 L1,1 L0,1 Z " fill="#A15438" opacity="0.8352941" transform="translate(27,20)"/>
<path d="M0,0 L1,0 L1,1 L0,1 Z " fill="#BB6140" opacity="0.9882353" transform="translate(26,20)"/>
<path d="M0,0 L1,0 L1,1 L0,1 Z " fill="#B9603E" opacity="0.89411765" transform="translate(36,19)"/>
<path d="M0,0 L1,0 L1,1 L0,1 Z " fill="#A05337" opacity="0.8392157" transform="translate(35,19)"/>
<path d="M0,0 L1,0 L1,1 L0,1 Z " fill="#A05337" opacity="0.84313726" transform="translate(28,19)"/>
<path d="M0,0 L1,0 L1,1 L0,1 Z " fill="#B9603E" opacity="0.89411765" transform="translate(27,19)"/>
<path d="M0,0 L1,0 L1,1 L0,1 Z " fill="#BC613F" opacity="0.99607843" transform="translate(35,18)"/>
<path d="M0,0 L1,0 L1,1 L0,1 Z " fill="#A25438" opacity="0.8039216" transform="translate(33,18)"/>
<path d="M0,0 L1,0 L1,1 L0,1 Z " fill="#9F5337" opacity="0.9254902" transform="translate(31,18)"/>
<path d="M0,0 L1,0 L1,1 L0,1 Z " fill="#AC593B" opacity="0.7607843" transform="translate(29,18)"/>
<path d="M0,0 L1,0 L1,1 L0,1 Z " fill="#BD6240" opacity="0.99215686" transform="translate(28,18)"/>
<path d="M0,0 L1,0 L1,1 L0,1 Z " fill="#CB6D46" opacity="0.8235294" transform="translate(59,8)"/>
<path d="M0,0 L1,0 L1,1 L0,1 Z " fill="#CA6D44" opacity="0.83137256" transform="translate(4,8)"/>
<path d="M0,0 L1,0 L1,1 L0,1 Z " fill="#343441" opacity="0.972549" transform="translate(63,7)"/>
<path d="M0,0 L1,0 L1,1 L0,1 Z " fill="#D17448" opacity="0.7607843" transform="translate(59,7)"/>
<path d="M0,0 L1,0 L1,1 L0,1 Z " fill="#343441" opacity="0.972549" transform="translate(0,7)"/>
<path d="M0,0 L1,0 L1,1 L0,1 Z " fill="#D3784D" opacity="0.827451" transform="translate(59,6)"/>
<path d="M0,0 L1,0 L1,1 L0,1 Z " fill="#DB7C4F" opacity="0.7176471" transform="translate(57,6)"/>
<path d="M0,0 L1,0 L1,1 L0,1 Z " fill="#E07F50" opacity="0.9372549" transform="translate(56,6)"/>
<path d="M0,0 L1,0 L1,1 L0,1 Z " fill="#E07F50" opacity="0.9372549" transform="translate(7,6)"/>
<path d="M0,0 L1,0 L1,1 L0,1 Z " fill="#DB7C4F" opacity="0.7176471" transform="translate(6,6)"/>
<path d="M0,0 L1,0 L1,1 L0,1 Z " fill="#D4784E" opacity="0.83137256" transform="translate(4,6)"/>
<path d="M0,0 L1,0 L1,1 L0,1 Z " fill="#343440" opacity="0.7294118" transform="translate(63,5)"/>
<path d="M0,0 L1,0 L1,1 L0,1 Z " fill="#744F45" opacity="0.7921569" transform="translate(59,5)"/>
<path d="M0,0 L1,0 L1,1 L0,1 Z " fill="#F09465" opacity="0.7529412" transform="translate(58,5)"/>
<path d="M0,0 L1,0 L1,1 L0,1 Z " fill="#FA9F72" transform="translate(57,5)"/>
<path d="M0,0 L1,0 L1,1 L0,1 Z " fill="#F19465" opacity="0.7529412" transform="translate(5,5)"/>
<path d="M0,0 L1,0 L1,1 L0,1 Z " fill="#765046" opacity="0.7882353" transform="translate(4,5)"/>
<path d="M0,0 L1,0 L1,1 L0,1 Z " fill="#343441" opacity="0.7411765" transform="translate(0,5)"/>
<path d="M0,0 L1,0 L1,1 L0,1 Z " fill="#805D53" opacity="0.79607844" transform="translate(58,4)"/>
<path d="M0,0 L1,0 L1,1 L0,1 Z " fill="#EF986F" opacity="0.827451" transform="translate(57,4)"/>
<path d="M0,0 L1,0 L1,1 L0,1 Z " fill="#F99E71" opacity="0.9372549" transform="translate(56,4)"/>
<path d="M0,0 L1,0 L1,1 L0,1 Z " fill="#EF986F" opacity="0.83137256" transform="translate(6,4)"/>
<path d="M0,0 L1,0 L1,1 L0,1 Z " fill="#815E54" opacity="0.7882353" transform="translate(5,4)"/>
<path d="M0,0 L1,0 L1,1 L0,1 Z " fill="#30303C" opacity="0.08235294" transform="translate(63,3)"/>
<path d="M0,0 L1,0 L1,1 L0,1 Z " fill="#343441" opacity="0.972549" transform="translate(1,3)"/>
<path d="M0,0 L1,0 L1,1 L0,1 Z " fill="#2C2C42" opacity="0.09019608" transform="translate(0,3)"/>
<path d="M0,0 L1,0 L1,1 L0,1 Z " fill="#333340" opacity="0.39215687" transform="translate(62,2)"/>
<path d="M0,0 L1,0 L1,1 L0,1 Z " fill="#353541" transform="translate(2,2)"/>
<path d="M0,0 L1,0 L1,1 L0,1 Z " fill="#35353F" opacity="0.39607844" transform="translate(61,1)"/>
<path d="M0,0 L1,0 L1,1 L0,1 Z " fill="#343440" opacity="0.96862745" transform="translate(60,1)"/>
<path d="M0,0 L1,0 L1,1 L0,1 Z " fill="#343441" opacity="0.972549" transform="translate(3,1)"/>
<path d="M0,0 L1,0 L1,1 L0,1 Z " fill="#343441" opacity="0.47843137" transform="translate(59,0)"/>
<path d="M0,0 L1,0 L1,1 L0,1 Z " fill="#343441" opacity="0.7411765" transform="translate(58,0)"/>
<path d="M0,0 L1,0 L1,1 L0,1 Z " fill="#343441" opacity="0.9098039" transform="translate(57,0)"/>
<path d="M0,0 L1,0 L1,1 L0,1 Z " fill="#343441" opacity="0.972549" transform="translate(56,0)"/>
<path d="M0,0 L1,0 L1,1 L0,1 Z " fill="#343441" opacity="0.972549" transform="translate(7,0)"/>
<path d="M0,0 L1,0 L1,1 L0,1 Z " fill="#343441" opacity="0.7411765" transform="translate(5,0)"/>
<path d="M0,0 L1,0 L1,1 L0,1 Z " fill="#2C2C42" opacity="0.09019608" transform="translate(3,0)"/>
</svg>
