<?xml version="1.0" encoding="UTF-8"?>
<!-- Generator: visioncortex VTracer 0.6.4 -->
<svg version="1.1" xmlns="http://www.w3.org/2000/svg" width="64" height="64">
<path d="M0,0 L48,0 L48,1 L52,1 L52,2 L54,2 L54,4 L55,4 L55,8 L56,8 L56,56 L55,56 L55,60 L54,60 L54,62 L52,62 L52,63 L48,63 L48,64 L0,64 L0,63 L-4,63 L-4,62 L-6,62 L-6,60 L-7,60 L-7,56 L-8,56 L-8,8 L-7,8 L-7,4 L-6,4 L-6,2 L-4,2 L-4,1 L0,1 Z M-3,4 L-3,5 L-4,5 L-4,8 L-3,8 L-3,6 L-2,6 L-2,5 L0,5 L0,4 Z M48,4 L48,5 L50,5 L50,6 L51,6 L51,8 L52,8 L52,5 L51,5 L51,4 Z M-2,6 L-2,7 L-1,7 L-1,8 L0,8 L0,6 Z M48,6 L48,8 L49,8 L49,7 L50,7 L50,6 Z M0,8 L0,9 L1,9 L1,8 Z M47,8 L47,9 L48,9 L48,8 Z M1,9 L1,10 L2,10 L2,9 Z M46,9 L46,10 L47,10 L47,9 Z M2,10 L2,11 L3,11 L3,10 Z M45,10 L45,11 L46,11 L46,10 Z M3,11 L3,12 L4,12 L4,11 Z M44,11 L44,12 L45,12 L45,11 Z M3,52 L3,53 L4,53 L4,52 Z M44,52 L44,53 L45,53 L45,52 Z M2,53 L2,54 L3,54 L3,53 Z M45,53 L45,54 L46,54 L46,53 Z M1,54 L1,55 L2,55 L2,54 Z M46,54 L46,55 L47,55 L47,54 Z M0,55 L0,56 L1,56 L1,55 Z M47,55 L47,56 L48,56 L48,55 Z M-4,56 L-4,59 L-3,59 L-3,60 L0,60 L0,59 L-2,59 L-2,58 L-3,58 L-3,56 Z M-1,56 L-1,57 L0,57 L0,56 Z M48,56 L48,57 L49,57 L49,56 Z M51,56 L51,58 L50,58 L50,59 L48,59 L48,60 L51,60 L51,59 L52,59 L52,56 Z M-2,57 L-2,58 L-1,58 L-1,57 Z M49,57 L49,58 L50,58 L50,57 Z " fill="#9F5438" transform="translate(8,0)"/>
<path d="M0,0 L48,0 L48,1 L50,1 L50,2 L48,2 L48,4 L47,4 L47,5 L46,5 L46,6 L45,6 L45,7 L44,7 L44,48 L4,48 L4,7 L3,7 L3,6 L2,6 L2,5 L1,5 L1,4 L0,4 L0,2 L-2,2 L-2,1 L0,1 Z " fill="#FABA2D" transform="translate(8,4)"/>
<path d="M0,0 L48,0 L48,1 L52,1 L52,2 L54,2 L54,4 L55,4 L55,8 L56,8 L56,56 L55,56 L55,60 L54,60 L54,62 L52,62 L52,63 L48,63 L48,64 L0,64 L0,63 L-4,63 L-4,62 L-6,62 L-6,60 L-7,60 L-7,56 L-8,56 L-8,8 L-7,8 L-7,4 L-6,4 L-6,2 L-4,2 L-4,1 L0,1 Z M-3,4 L-3,5 L-4,5 L-4,59 L-3,59 L-3,60 L51,60 L51,59 L52,59 L52,5 L51,5 L51,4 Z " fill="#353541" transform="translate(8,0)"/>
<path d="M0,0 L1,0 L1,2 L2,2 L2,50 L1,50 L1,52 L0,52 L0,51 L-1,51 L-1,50 L-2,50 L-2,49 L-3,49 L-3,48 L-4,48 L-4,47 L-5,47 L-5,46 L-6,46 L-6,6 L-5,6 L-5,5 L-4,5 L-4,4 L-3,4 L-3,3 L-2,3 L-2,2 L-1,2 L-1,1 L0,1 Z " fill="#BD6341" transform="translate(58,6)"/>
<path d="M0,0 L1,0 L1,1 L2,1 L2,2 L3,2 L3,3 L4,3 L4,4 L5,4 L5,5 L6,5 L6,6 L7,6 L7,46 L6,46 L6,47 L5,47 L5,48 L4,48 L4,49 L3,49 L3,50 L2,50 L2,51 L1,51 L1,52 L0,52 L0,50 L-1,50 L-1,2 L0,2 Z " fill="#BD6341" transform="translate(5,6)"/>
<path d="M0,0 L48,0 L48,1 L50,1 L50,2 L48,2 L48,4 L47,4 L47,5 L46,5 L46,6 L45,6 L45,7 L44,7 L44,8 L4,8 L4,7 L3,7 L3,6 L2,6 L2,5 L1,5 L1,4 L0,4 L0,2 L-2,2 L-2,1 L0,1 Z " fill="#DE7E4F" transform="translate(8,4)"/>
<path d="M0,0 L6,0 L6,1 L8,1 L8,3 L9,3 L9,4 L10,4 L10,11 L9,11 L9,14 L8,14 L8,15 L7,15 L7,18 L8,18 L8,24 L7,24 L7,25 L6,25 L6,26 L0,26 L0,25 L-1,25 L-1,24 L-2,24 L-2,18 L-1,18 L-1,15 L-2,15 L-2,14 L-3,14 L-3,11 L-4,11 L-4,4 L-3,4 L-3,3 L-2,3 L-2,1 L0,1 Z M0,2 L0,3 L-1,3 L-1,4 L-2,4 L-2,11 L-1,11 L-1,14 L0,14 L0,15 L1,15 L1,16 L5,16 L5,15 L6,15 L6,14 L7,14 L7,11 L8,11 L8,4 L7,4 L7,3 L6,3 L6,2 Z M2,17 L2,18 L0,18 L0,24 L6,24 L6,18 L4,18 L4,17 Z " fill="#E28F2B" transform="translate(29,19)"/>
<path d="M0,0 L1,0 L1,1 L0,1 Z M11,0 L12,0 L12,1 L11,1 Z " fill="#E28F2A" transform="translate(26,21)"/>
<path d="M0,0 L48,0 L48,1 L50,1 L50,2 L-2,2 L-2,1 L0,1 Z " fill="#FA9F72" transform="translate(8,4)"/>
<path d="M0,0 L4,0 L4,1 L5,1 L5,2 L6,2 L6,10 L5,10 L5,12 L4,12 L4,13 L3,13 L3,14 L1,14 L1,13 L0,13 L0,12 L-1,12 L-1,10 L-2,10 L-2,2 L-1,2 L-1,1 L0,1 Z " fill="#FFFFFF" transform="translate(30,21)"/>
<path d="M0,0 L4,0 L4,1 L5,1 L5,4 L4,4 L4,5 L3,5 L3,6 L0,6 L0,4 L-1,4 L-1,1 L0,1 Z " fill="#FFFFFF" transform="translate(30,37)"/>
<path d="M0,0 L1,0 L1,1 L0,1 Z M-1,1 L0,1 L0,2 L-1,2 Z M-2,2 L-1,2 L-1,3 L-2,3 Z M-3,3 L-2,3 L-2,4 L-3,4 Z M-4,4 L-3,4 L-3,5 L-4,5 Z M-5,5 L-4,5 L-4,6 L-5,6 Z M-6,6 L-5,6 L-5,7 L-6,7 Z " fill="#BD6341" transform="translate(58,6)"/>
<path d="M0,0 L1,0 L1,1 L0,1 Z M-1,1 L0,1 L0,2 L-1,2 Z M-2,2 L-1,2 L-1,3 L-2,3 Z M-3,3 L-2,3 L-2,4 L-3,4 Z M-4,4 L-3,4 L-3,5 L-4,5 Z M-5,5 L-4,5 L-4,6 L-5,6 Z M-6,6 L-5,6 L-5,7 L-6,7 Z " fill="#A9583A" opacity="0.7529412" transform="translate(11,52)"/>
<path d="M0,0 L4,0 L4,1 L1,1 L1,2 L0,2 L0,3 L-1,3 L-1,4 L-2,4 L-2,2 L-1,2 L-1,1 L0,1 Z " fill="#FFFFFF" transform="translate(30,21)"/>
<path d="M0,0 L1,0 L1,1 L0,1 Z M1,1 L2,1 L2,2 L1,2 Z M2,2 L3,2 L3,3 L2,3 Z M3,3 L4,3 L4,4 L3,4 Z M4,4 L5,4 L5,5 L4,5 Z M5,5 L6,5 L6,6 L5,6 Z M6,6 L7,6 L7,7 L6,7 Z " fill="#A9583A" opacity="0.7529412" transform="translate(52,52)"/>
<path d="M0,0 L1,0 L1,1 L0,1 Z M-1,1 L0,1 L0,2 L-1,2 Z M-2,2 L-1,2 L-1,3 L-2,3 Z M-3,3 L-2,3 L-2,4 L-3,4 Z M-4,4 L-3,4 L-3,5 L-4,5 Z M-5,5 L-4,5 L-4,6 L-5,6 Z M-6,6 L-5,6 L-5,7 L-6,7 Z " fill="#9F5438" transform="translate(12,52)"/>
<path d="M0,0 L6,0 L6,1 L0,1 Z " fill="#E6962B" transform="translate(29,18)"/>
<path d="M0,0 L1,0 L1,5 L0,5 Z " fill="#E5932B" transform="translate(37,37)"/>
<path d="M0,0 L1,0 L1,5 L0,5 Z " fill="#E5942B" transform="translate(26,37)"/>
<path d="M0,0 L1,0 L1,5 L0,5 Z " fill="#EEA52B" transform="translate(39,24)"/>
<path d="M0,0 L1,0 L1,5 L0,5 Z " fill="#EFC28C" transform="translate(36,24)"/>
<path d="M0,0 L1,0 L1,5 L0,5 Z " fill="#EFC28C" transform="translate(27,24)"/>
<path d="M0,0 L1,0 L1,5 L0,5 Z " fill="#EEA52B" transform="translate(24,24)"/>
<path d="M0,0 L1,0 L1,1 L0,1 Z M-1,1 L0,1 L0,2 L-1,2 Z M-2,2 L-1,2 L-1,3 L-2,3 Z M-3,3 L-2,3 L-2,4 L-3,4 Z M-4,4 L-3,4 L-3,5 L-4,5 Z " fill="#C86A44" opacity="0.7529412" transform="translate(56,7)"/>
<path d="M0,0 L1,0 L1,1 L0,1 Z M1,1 L2,1 L2,2 L1,2 Z M2,2 L3,2 L3,3 L2,3 Z M3,3 L4,3 L4,4 L3,4 Z M4,4 L5,4 L5,5 L4,5 Z " fill="#C86C45" opacity="0.7529412" transform="translate(7,7)"/>
<path d="M0,0 L1,0 L1,1 L0,1 Z M-2,1 L0,1 L0,2 L-2,2 Z " fill="#FA9F72" transform="translate(8,4)"/>
<path d="M0,0 L1,0 L1,1 L0,1 Z " fill="#333340" opacity="0.6392157" transform="translate(58,63)"/>
<path d="M0,0 L1,0 L1,1 L0,1 Z " fill="#353540" opacity="0.8117647" transform="translate(6,63)"/>
<path d="M0,0 L1,0 L1,1 L0,1 Z " fill="#343440" opacity="0.654902" transform="translate(63,58)"/>
<path d="M0,0 L4,0 L4,1 L0,1 Z " fill="#E7972B" transform="translate(30,45)"/>
<path d="M0,0 L4,0 L4,1 L0,1 Z " fill="#F8E5CE" transform="translate(30,21)"/>
<path d="M0,0 L1,0 L1,1 L0,1 Z " fill="#343440" opacity="0.9019608" transform="translate(63,6)"/>
<path d="M0,0 L1,0 L1,1 L0,1 Z " fill="#343441" opacity="0.9098039" transform="translate(0,6)"/>
<path d="M0,0 L1,0 L1,1 L0,1 Z " fill="#343441" opacity="0.9098039" transform="translate(6,0)"/>
<path d="M0,0 L1,0 L1,1 L0,1 Z " fill="#BD6341" transform="translate(5,6)"/>
<path d="M0,0 L1,0 L1,1 L0,1 Z " fill="#353540" opacity="0.4509804" transform="translate(4,63)"/>
<path d="M0,0 L1,0 L1,1 L0,1 Z " fill="#353540" opacity="0.9647059" transform="translate(3,62)"/>
<path d="M0,0 L1,0 L1,1 L0,1 Z " fill="#31313B" opacity="0.101960786" transform="translate(0,60)"/>
<path d="M0,0 L1,0 L1,1 L0,1 Z " fill="#975137" opacity="0.827451" transform="translate(6,59)"/>
<path d="M0,0 L2,0 L2,1 L0,1 Z " fill="#F9E8D3" transform="translate(30,42)"/>
<path d="M0,0 L1,0 L1,2 L0,2 Z " fill="#FDF7EF" transform="translate(34,38)"/>
<path d="M0,0 L1,0 L1,2 L0,2 Z " fill="#FDF8F1" transform="translate(29,38)"/>
<path d="M0,0 L1,0 L1,2 L0,2 Z " fill="#E89A2A" transform="translate(37,37)"/>
<path d="M0,0 L1,0 L1,2 L0,2 Z " fill="#E89A2A" transform="translate(26,37)"/>
<path d="M0,0 L2,0 L2,1 L0,1 Z " fill="#FFFEFC" transform="translate(30,37)"/>
<path d="M0,0 L1,0 L1,2 L0,2 Z " fill="#E6962B" transform="translate(36,35)"/>
<path d="M0,0 L2,0 L2,1 L0,1 Z " fill="#E29231" transform="translate(31,36)"/>
<path d="M0,0 L1,0 L1,2 L0,2 Z " fill="#E7972B" transform="translate(27,35)"/>
<path d="M0,0 L2,0 L2,1 L0,1 Z " fill="#F2CC9E" transform="translate(31,34)"/>
<path d="M0,0 L1,0 L1,2 L0,2 Z " fill="#F6B22C" transform="translate(38,31)"/>
<path d="M0,0 L1,0 L1,2 L0,2 Z " fill="#E29231" transform="translate(35,31)"/>
<path d="M0,0 L1,0 L1,2 L0,2 Z " fill="#E39232" transform="translate(28,31)"/>
<path d="M0,0 L1,0 L1,2 L0,2 Z " fill="#F6B12C" transform="translate(25,31)"/>
<path d="M0,0 L1,0 L1,2 L0,2 Z " fill="#F5B02B" transform="translate(39,27)"/>
<path d="M0,0 L1,0 L1,2 L0,2 Z " fill="#F4B02C" transform="translate(24,27)"/>
<path d="M0,0 L2,0 L2,1 L0,1 Z " fill="#E99C2B" transform="translate(29,18)"/>
<path d="M0,0 L1,0 L1,1 L0,1 Z " fill="#B15F40" opacity="0.9372549" transform="translate(59,7)"/>
<path d="M0,0 L1,0 L1,1 L0,1 Z " fill="#B25D3E" opacity="0.9411765" transform="translate(4,7)"/>
<path d="M0,0 L1,0 L1,1 L0,1 Z " fill="#DE7E4F" transform="translate(8,6)"/>
<path d="M0,0 L1,0 L1,1 L0,1 Z " fill="#353540" opacity="0.47058824" transform="translate(63,4)"/>
<path d="M0,0 L1,0 L1,1 L0,1 Z " fill="#EA966C" opacity="0.9411765" transform="translate(7,4)"/>
<path d="M0,0 L1,0 L1,1 L0,1 Z " fill="#343440" opacity="0.48235294" transform="translate(0,4)"/>
<path d="M0,0 L1,0 L1,1 L0,1 Z " fill="#343440" opacity="0.96862745" transform="translate(62,3)"/>
<path d="M0,0 L1,0 L1,1 L0,1 Z M-1,1 L0,1 L0,2 L-1,2 Z " fill="#343441" opacity="0.4" transform="translate(2,1)"/>
<path d="M0,0 L1,0 L1,1 L0,1 Z " fill="#2E2E3A" opacity="0.08627451" transform="translate(60,0)"/>
<path d="M0,0 L1,0 L1,1 L0,1 Z " fill="#343440" opacity="0.48235294" transform="translate(4,0)"/>
<path d="M0,0 L1,0 L1,1 L0,1 Z " fill="#333340" opacity="0.078431375" transform="translate(60,63)"/>
<path d="M0,0 L1,0 L1,1 L0,1 Z " fill="#353540" opacity="0.4509804" transform="translate(59,63)"/>
<path d="M0,0 L1,0 L1,1 L0,1 Z " fill="#343440" opacity="0.80784315" transform="translate(57,63)"/>
<path d="M0,0 L1,0 L1,1 L0,1 Z " fill="#343440" opacity="0.96862745" transform="translate(56,63)"/>
<path d="M0,0 L1,0 L1,1 L0,1 Z " fill="#343441" opacity="0.972549" transform="translate(7,63)"/>
<path d="M0,0 L1,0 L1,1 L0,1 Z " fill="#333340" opacity="0.6392157" transform="translate(5,63)"/>
<path d="M0,0 L1,0 L1,1 L0,1 Z " fill="#30303C" opacity="0.08235294" transform="translate(3,63)"/>
<path d="M0,0 L1,0 L1,1 L0,1 Z " fill="#333340" opacity="0.3882353" transform="translate(61,62)"/>
<path d="M0,0 L1,0 L1,1 L0,1 Z " fill="#343440" opacity="0.9607843" transform="translate(60,62)"/>
<path d="M0,0 L1,0 L1,1 L0,1 Z " fill="#35353F" opacity="0.39607844" transform="translate(2,62)"/>
<path d="M0,0 L1,0 L1,1 L0,1 Z " fill="#343441" opacity="0.4" transform="translate(62,61)"/>
<path d="M0,0 L1,0 L1,1 L0,1 Z " fill="#33333F" opacity="0.4117647" transform="translate(1,61)"/>
<path d="M0,0 L1,0 L1,1 L0,1 Z " fill="#353540" opacity="0.09411765" transform="translate(63,60)"/>
<path d="M0,0 L1,0 L1,1 L0,1 Z " fill="#343440" opacity="0.96862745" transform="translate(62,60)"/>
<path d="M0,0 L1,0 L1,1 L0,1 Z " fill="#343441" opacity="0.972549" transform="translate(1,60)"/>
<path d="M0,0 L1,0 L1,1 L0,1 Z " fill="#333340" opacity="0.46666667" transform="translate(63,59)"/>
<path d="M0,0 L1,0 L1,1 L0,1 Z " fill="#5C403B" opacity="0.7921569" transform="translate(58,59)"/>
<path d="M0,0 L1,0 L1,1 L0,1 Z " fill="#975038" opacity="0.8235294" transform="translate(57,59)"/>
<path d="M0,0 L1,0 L1,1 L0,1 Z " fill="#9E5337" opacity="0.93333334" transform="translate(56,59)"/>
<path d="M0,0 L1,0 L1,1 L0,1 Z " fill="#9E5337" opacity="0.9372549" transform="translate(7,59)"/>
<path d="M0,0 L1,0 L1,1 L0,1 Z " fill="#5C3F3C" opacity="0.7921569" transform="translate(5,59)"/>
<path d="M0,0 L1,0 L1,1 L0,1 Z " fill="#343440" opacity="0.5019608" transform="translate(0,59)"/>
<path d="M0,0 L1,0 L1,1 L0,1 Z " fill="#44393F" opacity="0.7882353" transform="translate(59,58)"/>
<path d="M0,0 L1,0 L1,1 L0,1 Z " fill="#463A3F" opacity="0.7882353" transform="translate(4,58)"/>
<path d="M0,0 L1,0 L1,1 L0,1 Z " fill="#343441" opacity="0.76862746" transform="translate(0,58)"/>
<path d="M0,0 L1,0 L1,1 L0,1 Z " fill="#343440" opacity="0.827451" transform="translate(63,57)"/>
<path d="M0,0 L1,0 L1,1 L0,1 Z " fill="#955540" opacity="0.8235294" transform="translate(59,57)"/>
<path d="M0,0 L1,0 L1,1 L0,1 Z " fill="#98553F" opacity="0.8352941" transform="translate(4,57)"/>
<path d="M0,0 L1,0 L1,1 L0,1 Z " fill="#343440" opacity="0.9137255" transform="translate(0,57)"/>
<path d="M0,0 L1,0 L1,1 L0,1 Z " fill="#353540" opacity="0.9843137" transform="translate(63,56)"/>
<path d="M0,0 L1,0 L1,1 L0,1 Z " fill="#B75F40" opacity="0.9647059" transform="translate(59,56)"/>
<path d="M0,0 L1,0 L1,1 L0,1 Z " fill="#B7603F" opacity="0.96862745" transform="translate(4,56)"/>
<path d="M0,0 L1,0 L1,1 L0,1 Z " fill="#343440" opacity="0.99607843" transform="translate(0,56)"/>
<path d="M0,0 L1,0 L1,1 L0,1 Z " fill="#F2AC2C" transform="translate(34,45)"/>
<path d="M0,0 L1,0 L1,1 L0,1 Z " fill="#EBA02B" transform="translate(33,45)"/>
<path d="M0,0 L1,0 L1,1 L0,1 Z " fill="#E6972B" transform="translate(32,45)"/>
<path d="M0,0 L1,0 L1,1 L0,1 Z " fill="#EBA02B" transform="translate(30,45)"/>
<path d="M0,0 L1,0 L1,1 L0,1 Z " fill="#F2AC2C" transform="translate(29,45)"/>
<path d="M0,0 L1,0 L1,1 L0,1 Z " fill="#F8B62C" transform="translate(36,44)"/>
<path d="M0,0 L1,0 L1,1 L0,1 Z " fill="#EA9D2A" transform="translate(35,44)"/>
<path d="M0,0 L1,0 L1,1 L0,1 Z " fill="#EA9E2B" transform="translate(28,44)"/>
<path d="M0,0 L1,0 L1,1 L0,1 Z " fill="#F8B72D" transform="translate(27,44)"/>
<path d="M0,0 L1,0 L1,1 L0,1 Z " fill="#FABA2C" transform="translate(37,43)"/>
<path d="M0,0 L1,0 L1,1 L0,1 Z " fill="#EA9C2A" transform="translate(36,43)"/>
<path d="M0,0 L1,0 L1,1 L0,1 Z " fill="#EA9D2B" transform="translate(27,43)"/>
<path d="M0,0 L1,0 L1,1 L0,1 Z " fill="#F2AB2C" transform="translate(37,42)"/>
<path d="M0,0 L1,0 L1,1 L0,1 Z " fill="#E28F2C" transform="translate(34,42)"/>
<path d="M0,0 L1,0 L1,1 L0,1 Z " fill="#EEBF86" transform="translate(33,42)"/>
<path d="M0,0 L1,0 L1,1 L0,1 Z " fill="#F9E8D3" transform="translate(32,42)"/>
<path d="M0,0 L1,0 L1,1 L0,1 Z " fill="#EFC089" transform="translate(30,42)"/>
<path d="M0,0 L1,0 L1,1 L0,1 Z " fill="#E2902D" transform="translate(29,42)"/>
<path d="M0,0 L1,0 L1,1 L0,1 Z " fill="#F2AC2B" transform="translate(26,42)"/>
<path d="M0,0 L1,0 L1,1 L0,1 Z " fill="#EA9B2B" transform="translate(37,41)"/>
<path d="M0,0 L1,0 L1,1 L0,1 Z " fill="#EFC38E" transform="translate(34,41)"/>
<path d="M0,0 L1,0 L1,1 L0,1 Z " fill="#F0C591" transform="translate(29,41)"/>
<path d="M0,0 L1,0 L1,1 L0,1 Z " fill="#EA9B2B" transform="translate(26,41)"/>
<path d="M0,0 L1,0 L1,1 L0,1 Z " fill="#FCF2E6" transform="translate(34,40)"/>
<path d="M0,0 L1,0 L1,1 L0,1 Z " fill="#FCF3E7" transform="translate(29,40)"/>
<path d="M0,0 L1,0 L1,1 L0,1 Z " fill="#E4912A" transform="translate(37,39)"/>
<path d="M0,0 L1,0 L1,1 L0,1 Z " fill="#E4912A" transform="translate(26,39)"/>
<path d="M0,0 L1,0 L1,1 L0,1 Z " fill="#F3D2A9" transform="translate(34,38)"/>
<path d="M0,0 L1,0 L1,1 L0,1 Z " fill="#FFFFFF" transform="translate(30,38)"/>
<path d="M0,0 L1,0 L1,1 L0,1 Z " fill="#F4D3AB" transform="translate(29,38)"/>
<path d="M0,0 L1,0 L1,1 L0,1 Z " fill="#EFA72B" transform="translate(37,37)"/>
<path d="M0,0 L1,0 L1,1 L0,1 Z " fill="#E39435" transform="translate(34,37)"/>
<path d="M0,0 L1,0 L1,1 L0,1 Z " fill="#F5D7B4" transform="translate(33,37)"/>
<path d="M0,0 L1,0 L1,1 L0,1 Z " fill="#FFFEFC" transform="translate(32,37)"/>
<path d="M0,0 L1,0 L1,1 L0,1 Z " fill="#F5D8B5" transform="translate(30,37)"/>
<path d="M0,0 L1,0 L1,1 L0,1 Z " fill="#E39536" transform="translate(29,37)"/>
<path d="M0,0 L1,0 L1,1 L0,1 Z " fill="#EFA72B" transform="translate(26,37)"/>
<path d="M0,0 L1,0 L1,1 L0,1 Z " fill="#FAB92D" transform="translate(37,36)"/>
<path d="M0,0 L1,0 L1,1 L0,1 Z " fill="#E39232" transform="translate(31,36)"/>
<path d="M0,0 L1,0 L1,1 L0,1 Z " fill="#FAB92C" transform="translate(26,36)"/>
<path d="M0,0 L1,0 L1,1 L0,1 Z " fill="#EDA22B" transform="translate(36,35)"/>
<path d="M0,0 L1,0 L1,1 L0,1 Z " fill="#E28F2B" transform="translate(32,35)"/>
<path d="M0,0 L1,0 L1,1 L0,1 Z " fill="#EEA32B" transform="translate(27,35)"/>
<path d="M0,0 L1,0 L1,1 L0,1 Z " fill="#F6B32C" transform="translate(37,34)"/>
<path d="M0,0 L1,0 L1,1 L0,1 Z " fill="#E2902B" transform="translate(36,34)"/>
<path d="M0,0 L1,0 L1,1 L0,1 Z " fill="#E69E48" transform="translate(33,34)"/>
<path d="M0,0 L1,0 L1,1 L0,1 Z " fill="#F2CC9F" transform="translate(31,34)"/>
<path d="M0,0 L1,0 L1,1 L0,1 Z " fill="#E6A04C" transform="translate(30,34)"/>
<path d="M0,0 L1,0 L1,1 L0,1 Z " fill="#E2902B" transform="translate(27,34)"/>
<path d="M0,0 L1,0 L1,1 L0,1 Z " fill="#F6B32C" transform="translate(26,34)"/>
<path d="M0,0 L1,0 L1,1 L0,1 Z " fill="#FABA2C" transform="translate(38,33)"/>
<path d="M0,0 L1,0 L1,1 L0,1 Z " fill="#E7992B" transform="translate(37,33)"/>
<path d="M0,0 L1,0 L1,1 L0,1 Z " fill="#E8A657" transform="translate(34,33)"/>
<path d="M0,0 L1,0 L1,1 L0,1 Z " fill="#FEFAF6" transform="translate(33,33)"/>
<path d="M0,0 L1,0 L1,1 L0,1 Z " fill="#FEFCF8" transform="translate(30,33)"/>
<path d="M0,0 L1,0 L1,1 L0,1 Z " fill="#E9A95D" transform="translate(29,33)"/>
<path d="M0,0 L1,0 L1,1 L0,1 Z " fill="#E7972A" transform="translate(26,33)"/>
<path d="M0,0 L1,0 L1,1 L0,1 Z " fill="#FABA2C" transform="translate(25,33)"/>
<path d="M0,0 L1,0 L1,1 L0,1 Z " fill="#FBEFE1" transform="translate(34,32)"/>
<path d="M0,0 L1,0 L1,1 L0,1 Z " fill="#FCF1E5" transform="translate(29,32)"/>
<path d="M0,0 L1,0 L1,1 L0,1 Z " fill="#EEA32B" transform="translate(38,31)"/>
<path d="M0,0 L1,0 L1,1 L0,1 Z " fill="#ECB776" transform="translate(35,31)"/>
<path d="M0,0 L1,0 L1,1 L0,1 Z " fill="#EDB97A" transform="translate(28,31)"/>
<path d="M0,0 L1,0 L1,1 L0,1 Z " fill="#EDA32B" transform="translate(25,31)"/>
<path d="M0,0 L1,0 L1,1 L0,1 Z " fill="#FABA2C" transform="translate(39,30)"/>
<path d="M0,0 L1,0 L1,1 L0,1 Z " fill="#E6952B" transform="translate(38,30)"/>
<path d="M0,0 L1,0 L1,1 L0,1 Z " fill="#F6DDBE" transform="translate(35,30)"/>
<path d="M0,0 L1,0 L1,1 L0,1 Z " fill="#F7DEC1" transform="translate(28,30)"/>
<path d="M0,0 L1,0 L1,1 L0,1 Z " fill="#E5942A" transform="translate(25,30)"/>
<path d="M0,0 L1,0 L1,1 L0,1 Z " fill="#FABA2C" transform="translate(24,30)"/>
<path d="M0,0 L1,0 L1,1 L0,1 Z " fill="#F7B42C" transform="translate(39,29)"/>
<path d="M0,0 L1,0 L1,1 L0,1 Z " fill="#E39537" transform="translate(36,29)"/>
<path d="M0,0 L1,0 L1,1 L0,1 Z " fill="#FFFCFA" transform="translate(35,29)"/>
<path d="M0,0 L1,0 L1,1 L0,1 Z " fill="#FFFDFB" transform="translate(28,29)"/>
<path d="M0,0 L1,0 L1,1 L0,1 Z " fill="#E39638" transform="translate(27,29)"/>
<path d="M0,0 L1,0 L1,1 L0,1 Z " fill="#F7B42C" transform="translate(24,29)"/>
<path d="M0,0 L1,0 L1,1 L0,1 Z " fill="#E8A85B" transform="translate(36,28)"/>
<path d="M0,0 L1,0 L1,1 L0,1 Z " fill="#E9A95C" transform="translate(27,28)"/>
<path d="M0,0 L1,0 L1,1 L0,1 Z " fill="#F2AC2B" transform="translate(39,27)"/>
<path d="M0,0 L1,0 L1,1 L0,1 Z " fill="#EBB36F" transform="translate(36,27)"/>
<path d="M0,0 L1,0 L1,1 L0,1 Z " fill="#EBB470" transform="translate(27,27)"/>
<path d="M0,0 L1,0 L1,1 L0,1 Z " fill="#F2AB2C" transform="translate(24,27)"/>
<path d="M0,0 L1,0 L1,1 L0,1 Z " fill="#F0A82C" transform="translate(39,26)"/>
<path d="M0,0 L1,0 L1,1 L0,1 Z " fill="#EEBE84" transform="translate(36,26)"/>
<path d="M0,0 L1,0 L1,1 L0,1 Z " fill="#EEBE84" transform="translate(27,26)"/>
<path d="M0,0 L1,0 L1,1 L0,1 Z " fill="#F0A72C" transform="translate(24,26)"/>
<path d="M0,0 L1,0 L1,1 L0,1 Z " fill="#F1A82C" transform="translate(39,24)"/>
<path d="M0,0 L1,0 L1,1 L0,1 Z " fill="#EAAE66" transform="translate(36,24)"/>
<path d="M0,0 L1,0 L1,1 L0,1 Z " fill="#EAAF68" transform="translate(27,24)"/>
<path d="M0,0 L1,0 L1,1 L0,1 Z " fill="#F0A82C" transform="translate(24,24)"/>
<path d="M0,0 L1,0 L1,1 L0,1 Z " fill="#F6B32C" transform="translate(39,23)"/>
<path d="M0,0 L1,0 L1,1 L0,1 Z " fill="#E39232" transform="translate(36,23)"/>
<path d="M0,0 L1,0 L1,1 L0,1 Z " fill="#FBEEDE" transform="translate(35,23)"/>
<path d="M0,0 L1,0 L1,1 L0,1 Z " fill="#FBEFE0" transform="translate(28,23)"/>
<path d="M0,0 L1,0 L1,1 L0,1 Z " fill="#E39333" transform="translate(27,23)"/>
<path d="M0,0 L1,0 L1,1 L0,1 Z " fill="#F6B22C" transform="translate(24,23)"/>
<path d="M0,0 L1,0 L1,1 L0,1 Z " fill="#FABA2C" transform="translate(39,22)"/>
<path d="M0,0 L1,0 L1,1 L0,1 Z " fill="#E6972A" transform="translate(38,22)"/>
<path d="M0,0 L1,0 L1,1 L0,1 Z " fill="#E7A554" transform="translate(35,22)"/>
<path d="M0,0 L1,0 L1,1 L0,1 Z " fill="#FDF4EB" transform="translate(34,22)"/>
<path d="M0,0 L1,0 L1,1 L0,1 Z " fill="#FDF6ED" transform="translate(29,22)"/>
<path d="M0,0 L1,0 L1,1 L0,1 Z " fill="#E8A556" transform="translate(28,22)"/>
<path d="M0,0 L1,0 L1,1 L0,1 Z " fill="#E6982A" transform="translate(25,22)"/>
<path d="M0,0 L1,0 L1,1 L0,1 Z " fill="#FABA2C" transform="translate(24,22)"/>
<path d="M0,0 L1,0 L1,1 L0,1 Z " fill="#F4AF2B" transform="translate(38,21)"/>
<path d="M0,0 L1,0 L1,1 L0,1 Z " fill="#E28F2A" transform="translate(37,21)"/>
<path d="M0,0 L1,0 L1,1 L0,1 Z " fill="#E4973B" transform="translate(34,21)"/>
<path d="M0,0 L1,0 L1,1 L0,1 Z " fill="#F2CC9F" transform="translate(33,21)"/>
<path d="M0,0 L1,0 L1,1 L0,1 Z " fill="#F8E5CD" transform="translate(32,21)"/>
<path d="M0,0 L1,0 L1,1 L0,1 Z " fill="#F2CEA1" transform="translate(30,21)"/>
<path d="M0,0 L1,0 L1,1 L0,1 Z " fill="#E4993E" transform="translate(29,21)"/>
<path d="M0,0 L1,0 L1,1 L0,1 Z " fill="#F4AF2C" transform="translate(25,21)"/>
<path d="M0,0 L1,0 L1,1 L0,1 Z " fill="#F0A72B" transform="translate(37,20)"/>
<path d="M0,0 L1,0 L1,1 L0,1 Z " fill="#E28F2B" transform="translate(27,20)"/>
<path d="M0,0 L1,0 L1,1 L0,1 Z " fill="#F1A92B" transform="translate(26,20)"/>
<path d="M0,0 L1,0 L1,1 L0,1 Z " fill="#F2AC2B" transform="translate(36,19)"/>
<path d="M0,0 L1,0 L1,1 L0,1 Z " fill="#E4922B" transform="translate(35,19)"/>
<path d="M0,0 L1,0 L1,1 L0,1 Z " fill="#E4922A" transform="translate(28,19)"/>
<path d="M0,0 L1,0 L1,1 L0,1 Z " fill="#F2AB2C" transform="translate(27,19)"/>
<path d="M0,0 L1,0 L1,1 L0,1 Z " fill="#F9B72C" transform="translate(35,18)"/>
<path d="M0,0 L1,0 L1,1 L0,1 Z " fill="#F0A72B" transform="translate(34,18)"/>
<path d="M0,0 L1,0 L1,1 L0,1 Z " fill="#EA9B2B" transform="translate(33,18)"/>
<path d="M0,0 L1,0 L1,1 L0,1 Z " fill="#E6972B" transform="translate(31,18)"/>
<path d="M0,0 L1,0 L1,1 L0,1 Z " fill="#F0A72B" transform="translate(29,18)"/>
<path d="M0,0 L1,0 L1,1 L0,1 Z " fill="#F9B72C" transform="translate(28,18)"/>
<path d="M0,0 L1,0 L1,1 L0,1 Z " fill="#343441" opacity="0.972549" transform="translate(63,7)"/>
<path d="M0,0 L1,0 L1,1 L0,1 Z " fill="#343441" opacity="0.972549" transform="translate(0,7)"/>
<path d="M0,0 L1,0 L1,1 L0,1 Z " fill="#965440" opacity="0.827451" transform="translate(59,6)"/>
<path d="M0,0 L1,0 L1,1 L0,1 Z " fill="#CA6D46" opacity="0.7254902" transform="translate(57,6)"/>
<path d="M0,0 L1,0 L1,1 L0,1 Z " fill="#DE7D4E" opacity="0.9372549" transform="translate(56,6)"/>
<path d="M0,0 L1,0 L1,1 L0,1 Z " fill="#DE7D4E" opacity="0.9372549" transform="translate(7,6)"/>
<path d="M0,0 L1,0 L1,1 L0,1 Z " fill="#C86D46" opacity="0.7254902" transform="translate(6,6)"/>
<path d="M0,0 L1,0 L1,1 L0,1 Z " fill="#995540" opacity="0.83137256" transform="translate(4,6)"/>
<path d="M0,0 L1,0 L1,1 L0,1 Z " fill="#343440" opacity="0.7294118" transform="translate(63,5)"/>
<path d="M0,0 L1,0 L1,1 L0,1 Z " fill="#43393F" opacity="0.7921569" transform="translate(59,5)"/>
<path d="M0,0 L1,0 L1,1 L0,1 Z " fill="#D17650" opacity="0.7529412" transform="translate(58,5)"/>
<path d="M0,0 L1,0 L1,1 L0,1 Z " fill="#FA9F72" transform="translate(57,5)"/>
<path d="M0,0 L1,0 L1,1 L0,1 Z " fill="#D17651" opacity="0.7529412" transform="translate(5,5)"/>
<path d="M0,0 L1,0 L1,1 L0,1 Z " fill="#443A40" opacity="0.7882353" transform="translate(4,5)"/>
<path d="M0,0 L1,0 L1,1 L0,1 Z " fill="#343441" opacity="0.7411765" transform="translate(0,5)"/>
<path d="M0,0 L1,0 L1,1 L0,1 Z " fill="#4A4045" opacity="0.79607844" transform="translate(58,4)"/>
<path d="M0,0 L1,0 L1,1 L0,1 Z " fill="#C48163" opacity="0.827451" transform="translate(57,4)"/>
<path d="M0,0 L1,0 L1,1 L0,1 Z " fill="#EA956D" opacity="0.9372549" transform="translate(56,4)"/>
<path d="M0,0 L1,0 L1,1 L0,1 Z " fill="#C68264" opacity="0.83137256" transform="translate(6,4)"/>
<path d="M0,0 L1,0 L1,1 L0,1 Z " fill="#4C4046" opacity="0.7882353" transform="translate(5,4)"/>
<path d="M0,0 L1,0 L1,1 L0,1 Z " fill="#30303C" opacity="0.08235294" transform="translate(63,3)"/>
<path d="M0,0 L1,0 L1,1 L0,1 Z " fill="#343441" opacity="0.972549" transform="translate(1,3)"/>
<path d="M0,0 L1,0 L1,1 L0,1 Z " fill="#2C2C42" opacity="0.09019608" transform="translate(0,3)"/>
<path d="M0,0 L1,0 L1,1 L0,1 Z " fill="#333340" opacity="0.39215687" transform="translate(62,2)"/>
<path d="M0,0 L1,0 L1,1 L0,1 Z " fill="#353541" transform="translate(2,2)"/>
<path d="M0,0 L1,0 L1,1 L0,1 Z " fill="#35353F" opacity="0.39607844" transform="translate(61,1)"/>
<path d="M0,0 L1,0 L1,1 L0,1 Z " fill="#343440" opacity="0.96862745" transform="translate(60,1)"/>
<path d="M0,0 L1,0 L1,1 L0,1 Z " fill="#343441" opacity="0.972549" transform="translate(3,1)"/>
<path d="M0,0 L1,0 L1,1 L0,1 Z " fill="#343441" opacity="0.47843137" transform="translate(59,0)"/>
<path d="M0,0 L1,0 L1,1 L0,1 Z " fill="#343441" opacity="0.7411765" transform="translate(58,0)"/>
<path d="M0,0 L1,0 L1,1 L0,1 Z " fill="#343441" opacity="0.9098039" transform="translate(57,0)"/>
<path d="M0,0 L1,0 L1,1 L0,1 Z " fill="#343441" opacity="0.972549" transform="translate(56,0)"/>
<path d="M0,0 L1,0 L1,1 L0,1 Z " fill="#343441" opacity="0.972549" transform="translate(7,0)"/>
<path d="M0,0 L1,0 L1,1 L0,1 Z " fill="#343441" opacity="0.7411765" transform="translate(5,0)"/>
<path d="M0,0 L1,0 L1,1 L0,1 Z " fill="#2C2C42" opacity="0.09019608" transform="translate(3,0)"/>
</svg>
