<?xml version="1.0" encoding="UTF-8"?>
<!-- Generator: visioncortex VTracer 0.6.4 -->
<svg version="1.1" xmlns="http://www.w3.org/2000/svg" width="64" height="64">
<path d="M0,0 L7,0 L7,1 L9,1 L9,2 L12,2 L12,1 L14,1 L14,0 L20,0 L20,1 L21,1 L21,2 L22,2 L22,3 L23,3 L23,4 L36,4 L36,5 L39,5 L39,6 L42,6 L42,7 L43,7 L43,8 L45,8 L45,9 L46,9 L46,10 L47,10 L47,11 L48,11 L48,12 L49,12 L49,13 L50,13 L50,14 L51,14 L51,16 L52,16 L52,18 L53,18 L53,19 L54,19 L54,23 L55,23 L55,36 L54,36 L54,39 L53,39 L53,41 L52,41 L52,43 L51,43 L51,44 L50,44 L50,45 L49,45 L49,46 L48,46 L48,48 L46,48 L46,49 L45,49 L45,50 L44,50 L44,51 L42,51 L42,52 L40,52 L40,53 L37,53 L37,54 L32,54 L32,55 L28,55 L28,54 L23,54 L23,53 L20,53 L20,52 L18,52 L18,51 L16,51 L16,50 L15,50 L15,49 L14,49 L14,48 L12,48 L12,47 L11,47 L11,45 L10,45 L10,44 L9,44 L9,43 L8,43 L8,41 L7,41 L7,39 L6,39 L6,36 L5,36 L5,30 L4,30 L4,28 L5,28 L5,23 L4,23 L4,22 L3,22 L3,20 L2,20 L2,19 L1,19 L1,13 L2,13 L2,12 L1,12 L1,11 L-1,11 L-1,10 L-2,10 L-2,9 L-3,9 L-3,3 L-2,3 L-2,1 L0,1 Z " fill="#D6DCE0" transform="translate(6,9)"/>
<path d="M0,0 L7,0 L7,1 L9,1 L9,2 L12,2 L12,1 L14,1 L14,0 L20,0 L20,1 L21,1 L21,2 L22,2 L22,3 L23,3 L23,4 L36,4 L36,5 L39,5 L39,6 L42,6 L42,7 L43,7 L43,8 L45,8 L45,9 L46,9 L46,10 L47,10 L47,11 L48,11 L48,12 L49,12 L49,13 L50,13 L50,14 L51,14 L51,16 L52,16 L52,18 L53,18 L53,19 L54,19 L54,23 L55,23 L55,36 L54,36 L54,39 L53,39 L53,41 L52,41 L52,43 L51,43 L51,44 L50,44 L50,45 L49,45 L49,46 L48,46 L48,48 L46,48 L46,49 L45,49 L45,50 L44,50 L44,51 L42,51 L42,52 L40,52 L40,53 L37,53 L37,54 L32,54 L32,55 L28,55 L28,54 L23,54 L23,53 L20,53 L20,52 L18,52 L18,51 L16,51 L16,50 L15,50 L15,49 L14,49 L14,48 L12,48 L12,47 L11,47 L11,45 L10,45 L10,44 L9,44 L9,43 L8,43 L8,41 L7,41 L7,39 L6,39 L6,36 L5,36 L5,30 L4,30 L4,28 L5,28 L5,23 L4,23 L4,22 L3,22 L3,20 L2,20 L2,19 L1,19 L1,13 L2,13 L2,12 L1,12 L1,11 L-1,11 L-1,10 L-2,10 L-2,9 L-3,9 L-3,3 L-2,3 L-2,1 L0,1 Z M1,3 L1,4 L0,4 L0,7 L1,7 L1,8 L4,8 L4,9 L6,9 L6,10 L7,10 L7,12 L6,12 L6,13 L5,13 L5,14 L4,14 L4,18 L5,18 L5,19 L6,19 L6,20 L7,20 L7,21 L8,21 L8,22 L9,22 L9,23 L8,23 L8,34 L9,34 L9,37 L10,37 L10,39 L11,39 L11,41 L12,41 L12,42 L13,42 L13,44 L14,44 L14,45 L15,45 L15,46 L16,46 L16,47 L18,47 L18,48 L19,48 L19,49 L21,49 L21,50 L24,50 L24,51 L35,51 L35,50 L38,50 L38,49 L40,49 L40,48 L42,48 L42,47 L43,47 L43,46 L45,46 L45,45 L46,45 L46,44 L47,44 L47,42 L48,42 L48,41 L49,41 L49,39 L50,39 L50,38 L51,38 L51,34 L52,34 L52,24 L51,24 L51,21 L50,21 L50,19 L49,19 L49,17 L48,17 L48,16 L47,16 L47,15 L46,15 L46,14 L45,14 L45,13 L44,13 L44,12 L43,12 L43,11 L42,11 L42,10 L40,10 L40,9 L37,9 L37,8 L35,8 L35,7 L25,7 L25,8 L23,8 L23,7 L22,7 L22,6 L21,6 L21,5 L19,5 L19,4 L18,4 L18,3 L15,3 L15,4 L14,4 L14,5 L13,5 L13,6 L12,6 L12,7 L11,7 L11,6 L10,6 L10,5 L8,5 L8,4 L5,4 L5,3 Z " fill="#FFFFFF" transform="translate(6,9)"/>
<path d="M0,0 L4,0 L4,1 L7,1 L7,2 L9,2 L9,3 L10,3 L10,4 L11,4 L11,3 L12,3 L12,2 L13,2 L13,1 L14,1 L14,0 L17,0 L17,1 L18,1 L18,2 L20,2 L20,3 L21,3 L21,6 L19,6 L19,7 L17,7 L17,8 L16,8 L16,9 L14,9 L14,11 L13,11 L13,12 L12,12 L12,13 L11,13 L11,14 L10,14 L10,15 L9,15 L9,17 L8,17 L8,18 L6,18 L6,17 L5,17 L5,16 L4,16 L4,15 L3,15 L3,11 L4,11 L4,10 L5,10 L5,9 L6,9 L6,7 L5,7 L5,6 L3,6 L3,5 L0,5 L0,4 L-1,4 L-1,1 L0,1 Z " fill="#D0D6DB" transform="translate(7,12)"/>
<path d="M0,0 L4,0 L4,1 L5,1 L5,2 L6,2 L6,3 L7,3 L7,8 L6,8 L6,9 L5,9 L5,10 L4,10 L4,11 L-1,11 L-1,10 L-2,10 L-2,9 L-3,9 L-3,7 L-4,7 L-4,4 L-3,4 L-3,2 L-2,2 L-2,1 L0,1 Z " fill="#FFFFFF" transform="translate(39,23)"/>
<path d="M0,0 L1,0 L1,1 L0,1 Z " fill="#FEFEFE" transform="translate(35,26)"/>
<path d="M0,0 L3,0 L3,1 L4,1 L4,4 L2,4 L2,5 L0,5 L0,6 L-1,6 L-1,7 L-3,7 L-3,9 L-4,9 L-4,10 L-5,10 L-5,11 L-6,11 L-6,12 L-7,12 L-7,13 L-8,13 L-8,15 L-9,15 L-9,16 L-11,16 L-11,15 L-12,15 L-12,12 L-11,12 L-11,11 L-10,11 L-10,10 L-9,10 L-9,9 L-8,9 L-8,8 L-7,8 L-7,7 L-6,7 L-6,6 L-5,6 L-5,5 L-4,5 L-4,4 L-3,4 L-3,3 L-2,3 L-2,2 L-1,2 L-1,1 L0,1 Z " fill="#C1C9CF" transform="translate(24,14)"/>
<path d="M0,0 L5,0 L5,1 L7,1 L7,2 L9,2 L9,4 L8,4 L8,5 L7,5 L7,6 L6,6 L6,5 L5,5 L5,4 L1,4 L1,3 L0,3 Z " fill="#919EAA" transform="translate(7,13)"/>
<path d="M0,0 L1,0 L1,1 L0,1 Z " fill="#929FAB" transform="translate(14,14)"/>
<path d="M0,0 L3,0 L3,1 L1,1 L1,2 L0,2 L0,3 L-1,3 L-1,4 L-2,4 L-2,5 L-3,5 L-3,6 L-4,6 L-4,7 L-5,7 L-5,8 L-6,8 L-6,9 L-7,9 L-7,10 L-8,10 L-8,11 L-9,11 L-9,12 L-10,12 L-10,13 L-11,13 L-11,15 L-12,15 L-12,12 L-11,12 L-11,11 L-10,11 L-10,10 L-9,10 L-9,9 L-8,9 L-8,8 L-7,8 L-7,7 L-6,7 L-6,6 L-5,6 L-5,5 L-4,5 L-4,4 L-3,4 L-3,3 L-2,3 L-2,2 L-1,2 L-1,1 L0,1 Z " fill="#C9D0D5" transform="translate(24,14)"/>
<path d="M0,0 L3,0 L3,1 L1,1 L1,2 L0,2 L0,3 L-1,3 L-1,4 L-2,4 L-2,5 L-3,5 L-3,6 L-4,6 L-4,7 L-5,7 L-5,8 L-6,8 L-6,9 L-7,9 L-7,10 L-8,10 L-8,11 L-9,11 L-9,12 L-10,12 L-10,15 L-11,15 L-11,11 L-10,11 L-10,10 L-9,10 L-9,9 L-8,9 L-8,7 L-6,7 L-6,6 L-5,6 L-5,5 L-4,5 L-4,4 L-3,4 L-3,3 L-2,3 L-2,2 L-1,2 L-1,1 L0,1 Z " fill="#D2D9DD" transform="translate(21,12)"/>
<path d="M0,0 L1,0 L1,1 L0,1 Z M-1,1 L0,1 L0,2 L-1,2 Z M-2,2 L-1,2 L-1,3 L-2,3 Z M-3,3 L-2,3 L-2,4 L-3,4 Z M-4,4 L-3,4 L-3,5 L-4,5 Z M-5,5 L-4,5 L-4,6 L-5,6 Z M-6,6 L-5,6 L-5,7 L-6,7 Z M-7,7 L-6,7 L-6,8 L-7,8 Z M-8,8 L-7,8 L-7,9 L-8,9 Z M-10,9 L-8,9 L-8,10 L-9,10 L-9,11 L-10,11 L-10,12 L-11,12 L-11,13 L-12,13 L-12,15 L-13,15 L-13,12 L-12,12 L-12,11 L-11,11 L-11,10 L-10,10 Z " fill="#CBD2D7" transform="translate(24,13)"/>
<path d="M0,0 L1,0 L1,1 L0,1 Z " fill="#FFFFFF" opacity="0.9098039" transform="translate(61,38)"/>
<path d="M0,0 L1,0 L1,1 L0,1 Z M-1,1 L0,1 L0,2 L-1,2 Z M-2,2 L-1,2 L-1,3 L-2,3 Z M-3,3 L-2,3 L-2,4 L-3,4 Z M-4,4 L-3,4 L-3,5 L-4,5 Z M-5,5 L-4,5 L-4,6 L-5,6 Z M-6,6 L-5,6 L-5,7 L-6,7 Z M-7,7 L-6,7 L-6,8 L-7,8 Z M-8,8 L-7,8 L-7,9 L-8,9 Z M-9,9 L-8,9 L-8,10 L-9,10 Z M-10,10 L-9,10 L-9,11 L-10,11 Z M-8,10 L-7,10 L-7,11 L-8,11 Z M-11,11 L-10,11 L-10,12 L-11,12 Z M-12,12 L-11,12 L-11,13 L-12,13 Z " fill="#C4CBD1" transform="translate(25,15)"/>
<path d="M0,0 L1,0 L1,1 L0,1 Z M-1,1 L0,1 L0,2 L-1,2 Z M-2,2 L-1,2 L-1,3 L-2,3 Z M-3,3 L-2,3 L-2,4 L-3,4 Z M-4,4 L-3,4 L-3,5 L-4,5 Z M-5,5 L-4,5 L-4,6 L-5,6 Z M-6,6 L-5,6 L-5,7 L-6,7 Z M-7,7 L-6,7 L-6,8 L-7,8 Z M-8,8 L-7,8 L-7,10 L-8,10 Z " fill="#C6CDD3" transform="translate(20,19)"/>
<path d="M0,0 L10,0 L10,1 L0,1 Z " fill="#E7EAED" transform="translate(31,16)"/>
<path d="M0,0 L1,0 L1,1 L0,1 Z M1,1 L2,1 L2,2 L1,2 Z " fill="#FFFFFF" opacity="0.9411765" transform="translate(28,11)"/>
<path d="M0,0 L1,0 L1,1 L0,1 Z M-1,1 L0,1 L0,2 L-1,2 Z M-2,2 L-1,2 L-1,3 L-2,3 Z M-3,3 L-2,3 L-2,4 L-3,4 Z M-4,4 L-3,4 L-3,5 L-4,5 Z M-5,5 L-4,5 L-4,6 L-5,6 Z M-6,6 L-5,6 L-5,7 L-6,7 Z M-7,7 L-6,7 L-6,8 L-7,8 Z M-8,8 L-7,8 L-7,9 L-8,9 Z " fill="#CED4D9" transform="translate(23,13)"/>
<path d="M0,0 L1,0 L1,1 L0,1 Z " fill="#FFFFFF" opacity="0.972549" transform="translate(60,31)"/>
<path d="M0,0 L1,0 L1,1 L0,1 Z " fill="#FFFFFF" opacity="0.9137255" transform="translate(6,24)"/>
<path d="M0,0 L1,0 L1,1 L0,1 Z M1,1 L2,1 L2,2 L1,2 Z " fill="#FFFFFF" opacity="0.7607843" transform="translate(3,18)"/>
<path d="M0,0 L2,0 L2,2 L0,2 L0,3 L-2,3 L-2,2 L-1,2 L-1,1 L0,1 Z " fill="#BFC7CD" transform="translate(26,16)"/>
<path d="M0,0 L1,0 L1,1 L0,1 Z " fill="#FFFFFF" opacity="0.9843137" transform="translate(28,62)"/>
<path d="M0,0 L1,0 L1,1 L0,1 Z " fill="#FFFFFF" opacity="0.94509804" transform="translate(49,16)"/>
<path d="M0,0 L2,0 L2,1 L0,1 Z M-1,1 L0,1 L0,2 L-1,2 Z M-2,2 L-1,2 L-1,3 L-2,3 Z M-3,3 L-2,3 L-2,4 L-3,4 Z M-4,4 L-3,4 L-3,5 L-4,5 Z " fill="#C6CED3" transform="translate(25,14)"/>
<path d="M0,0 L1,0 L1,1 L0,1 Z " fill="#FFFFFF" opacity="0.92941177" transform="translate(2,14)"/>
<path d="M0,0 L1,0 L1,1 L0,1 Z " fill="#FFFFFF" opacity="0.77254903" transform="translate(40,63)"/>
<path d="M0,0 L1,0 L1,5 L0,5 Z " fill="#E9ECEE" transform="translate(46,26)"/>
<path d="M0,0 L1,0 L1,1 L0,1 Z M-1,1 L0,1 L0,3 L-1,3 L-1,4 L-2,4 L-2,2 L-1,2 Z " fill="#BFC7CD" transform="translate(16,26)"/>
<path d="M0,0 L1,0 L1,1 L0,1 Z " fill="#FFFFFF" opacity="0.49411765" transform="translate(39,12)"/>
<path d="M0,0 L1,0 L1,1 L0,1 Z " fill="#FFFFFF" opacity="0.96862745" transform="translate(33,63)"/>
<path d="M0,0 L1,0 L1,1 L0,1 Z " fill="#FFFFFF" opacity="0.40784314" transform="translate(22,60)"/>
<path d="M0,0 L4,0 L4,1 L0,1 Z " fill="#D7DDE1" transform="translate(30,59)"/>
<path d="M0,0 L1,0 L1,4 L0,4 Z " fill="#DFE3E6" transform="translate(57,33)"/>
<path d="M0,0 L1,0 L1,4 L0,4 Z " fill="#DBE0E4" transform="translate(14,32)"/>
<path d="M0,0 L1,0 L1,1 L0,1 Z " fill="#FFFFFF" opacity="0.92156863" transform="translate(10,35)"/>
<path d="M0,0 L1,0 L1,4 L0,4 Z " fill="#D7DDE1" transform="translate(10,23)"/>
<path d="M0,0 L1,0 L1,1 L0,1 Z M-1,1 L0,1 L0,2 L-1,2 Z M-2,2 L-1,2 L-1,3 L-2,3 Z M-3,3 L-2,3 L-2,4 L-3,4 Z " fill="#CDD4D9" transform="translate(14,22)"/>
<path d="M0,0 L1,0 L1,1 L0,1 Z " fill="#FFFFFF" opacity="0.7137255" transform="translate(55,21)"/>
<path d="M0,0 L2,0 L2,1 L1,1 L1,2 L0,2 Z M-1,2 L0,2 L0,3 L-1,3 Z " fill="#D5DBDF" transform="translate(21,21)"/>
<path d="M0,0 L4,0 L4,1 L0,1 Z " fill="#E1E6E9" transform="translate(31,16)"/>
<path d="M0,0 L1,0 L1,1 L0,1 Z " fill="#FFFFFF" opacity="0.77254903" transform="translate(35,12)"/>
<path d="M0,0 L1,0 L1,1 L0,1 Z " fill="#FFFFFF" opacity="0.5686275" transform="translate(33,12)"/>
<path d="M0,0 L4,0 L4,1 L0,1 Z " fill="#AEB8C0" transform="translate(7,12)"/>
<path d="M0,0 L1,0 L1,1 L0,1 Z " fill="#FFFFFF" opacity="0.93333334" transform="translate(19,9)"/>
<path d="M0,0 L1,0 L1,1 L0,1 Z " fill="#FFFFFF" opacity="0.9529412" transform="translate(5,9)"/>
<path d="M0,0 L1,0 L1,1 L0,1 Z " fill="#FFFFFF" opacity="0.972549" transform="translate(19,57)"/>
<path d="M0,0 L1,0 L1,1 L0,1 Z " fill="#FFFFFF" opacity="0.89411765" transform="translate(15,53)"/>
<path d="M0,0 L1,0 L1,1 L0,1 Z " fill="#FFFFFF" opacity="0.23529412" transform="translate(60,47)"/>
<path d="M0,0 L1,0 L1,1 L0,1 Z " fill="#FFFFFF" opacity="0.34901962" transform="translate(11,47)"/>
<path d="M0,0 L1,0 L1,1 L0,1 Z " fill="#FFFFFF" opacity="0.4117647" transform="translate(61,43)"/>
<path d="M0,0 L1,0 L1,3 L0,3 Z " fill="#E5E9EB" transform="translate(57,40)"/>
<path d="M0,0 L1,0 L1,3 L0,3 Z " fill="#DFE4E7" transform="translate(14,40)"/>
<path d="M0,0 L1,0 L1,3 L0,3 Z " fill="#D9DFE2" transform="translate(57,37)"/>
<path d="M0,0 L1,0 L1,1 L0,1 Z " fill="#FFFFFF" opacity="0.03137255" transform="translate(9,37)"/>
<path d="M0,0 L3,0 L3,1 L0,1 Z " fill="#EAEDEF" transform="translate(39,34)"/>
<path d="M0,0 L1,0 L1,2 L-1,2 L-1,1 L0,1 Z " fill="#D4DADE" transform="translate(15,29)"/>
<path d="M0,0 L1,0 L1,1 L0,1 Z " fill="#FFFFFF" opacity="0.99607843" transform="translate(8,29)"/>
<path d="M0,0 L1,0 L1,3 L0,3 Z " fill="#E3E7EA" transform="translate(34,27)"/>
<path d="M0,0 L2,0 L2,1 L1,1 L1,2 L0,2 Z " fill="#FFFFFF" transform="translate(36,24)"/>
<path d="M0,0 L3,0 L3,1 L0,1 Z " fill="#E7EAED" transform="translate(39,22)"/>
<path d="M0,0 L1,0 L1,1 L0,1 Z " fill="#FFFFFF" opacity="0.85490197" transform="translate(53,19)"/>
<path d="M0,0 L1,0 L1,2 L-1,2 L-1,1 L0,1 Z " fill="#BCC5CB" transform="translate(27,16)"/>
<path d="M0,0 L1,0 L1,3 L0,3 Z " fill="#94A1AD" transform="translate(6,13)"/>
<path d="M0,0 L1,0 L1,1 L0,1 Z " fill="#FFFFFF" opacity="0.3372549" transform="translate(44,13)"/>
<path d="M0,0 L3,0 L3,1 L0,1 Z " fill="#DEE3E6" transform="translate(21,12)"/>
<path d="M0,0 L1,0 L1,1 L0,1 Z " fill="#FFFFFF" opacity="0.90588236" transform="translate(27,10)"/>
<path d="M0,0 L1,0 L1,1 L0,1 Z " fill="#FFFFFF" opacity="0.25490198" transform="translate(11,8)"/>
<path d="M0,0 L1,0 L1,1 L0,1 Z " fill="#FFFFFF" opacity="0.76862746" transform="translate(8,8)"/>
<path d="M0,0 L1,0 L1,1 L0,1 Z " fill="#FFFFFF" opacity="0.047058824" transform="translate(43,63)"/>
<path d="M0,0 L1,0 L1,1 L0,1 Z " fill="#FFFFFF" opacity="0.78039217" transform="translate(31,63)"/>
<path d="M0,0 L1,0 L1,1 L0,1 Z " fill="#FFFFFF" opacity="0.3372549" transform="translate(29,63)"/>
<path d="M0,0 L1,0 L1,1 L0,1 Z " fill="#FFFFFF" opacity="0.07058824" transform="translate(46,62)"/>
<path d="M0,0 L1,0 L1,1 L0,1 Z " fill="#FFFFFF" opacity="0.44313726" transform="translate(26,62)"/>
<path d="M0,0 L1,0 L1,1 L0,1 Z " fill="#FFFFFF" opacity="0.03529412" transform="translate(48,61)"/>
<path d="M0,0 L1,0 L1,1 L0,1 Z " fill="#FFFFFF" opacity="0.49019608" transform="translate(24,61)"/>
<path d="M0,0 L1,0 L1,1 L0,1 Z " fill="#FFFFFF" opacity="0.011764706" transform="translate(50,60)"/>
<path d="M0,0 L2,0 L2,1 L0,1 Z " fill="#FAFBFB" transform="translate(35,60)"/>
<path d="M0,0 L2,0 L2,1 L0,1 Z " fill="#F9FAFB" transform="translate(41,59)"/>
<path d="M0,0 L2,0 L2,1 L0,1 Z " fill="#E0E5E8" transform="translate(30,59)"/>
<path d="M0,0 L1,0 L1,1 L0,1 Z " fill="#FFFFFF" opacity="0.8039216" transform="translate(21,59)"/>
<path d="M0,0 L2,0 L2,1 L0,1 Z " fill="#FDFDFD" transform="translate(44,58)"/>
<path d="M0,0 L2,0 L2,1 L0,1 Z " fill="#DBE0E3" transform="translate(27,58)"/>
<path d="M0,0 L2,0 L2,1 L0,1 Z " fill="#FEFEFF" transform="translate(46,57)"/>
<path d="M0,0 L2,0 L2,1 L0,1 Z " fill="#D7DDE1" transform="translate(25,57)"/>
<path d="M0,0 L1,0 L1,1 L0,1 Z M1,1 L2,1 L2,2 L1,2 Z " fill="#FEFEFE" transform="translate(19,53)"/>
<path d="M0,0 L1,0 L1,1 L0,1 Z " fill="#FFFFFF" opacity="0.003921569" transform="translate(13,52)"/>
<path d="M0,0 L1,0 L1,1 L0,1 Z " fill="#FFFFFF" opacity="0.003921569" transform="translate(59,50)"/>
<path d="M0,0 L1,0 L1,1 L0,1 Z " fill="#FFFFFF" opacity="0.023529412" transform="translate(12,50)"/>
<path d="M0,0 L1,0 L1,2 L0,2 Z " fill="#FEFEFF" transform="translate(16,48)"/>
<path d="M0,0 L1,0 L1,2 L0,2 Z " fill="#FDFDFE" transform="translate(15,46)"/>
<path d="M0,0 L1,0 L1,2 L0,2 Z " fill="#F1F3F4" transform="translate(56,45)"/>
<path d="M0,0 L1,0 L1,1 L0,1 Z " fill="#FFFFFF" opacity="0.019607844" transform="translate(10,45)"/>
<path d="M0,0 L1,0 L1,2 L0,2 Z " fill="#FBFCFC" transform="translate(14,43)"/>
<path d="M0,0 L1,0 L1,1 L0,1 Z " fill="#FFFFFF" opacity="0.5372549" transform="translate(10,43)"/>
<path d="M0,0 L1,0 L1,1 L0,1 Z " fill="#FFFFFF" opacity="0.63529414" transform="translate(61,41)"/>
<path d="M0,0 L1,0 L1,1 L0,1 Z " fill="#FFFFFF" opacity="0.7647059" transform="translate(10,41)"/>
<path d="M0,0 L1,0 L1,1 L0,1 Z " fill="#FFFFFF" opacity="0.78431374" transform="translate(61,36)"/>
<path d="M0,0 L1,0 L1,1 L0,1 Z " fill="#FFFFFF" opacity="0.6" transform="translate(61,34)"/>
<path d="M0,0 L1,0 L1,2 L0,2 Z " fill="#E6EAEC" transform="translate(57,33)"/>
<path d="M0,0 L1,0 L1,2 L0,2 Z " fill="#E9ECEF" transform="translate(14,32)"/>
<path d="M0,0 L1,0 L1,1 L0,1 Z " fill="#FFFFFF" opacity="0.61960787" transform="translate(10,33)"/>
<path d="M0,0 L1,0 L1,1 L0,1 Z " fill="#FFFFFF" opacity="0.30980393" transform="translate(61,32)"/>
<path d="M0,0 L1,0 L1,2 L0,2 Z " fill="#DCE1E4" transform="translate(56,30)"/>
<path d="M0,0 L1,0 L1,1 L0,1 Z " fill="#FFFFFF" opacity="0.41568628" transform="translate(60,29)"/>
<path d="M0,0 L1,0 L1,1 L0,1 Z M1,1 L2,1 L2,2 L1,2 Z " fill="#FBFCFC" transform="translate(12,29)"/>
<path d="M0,0 L1,0 L1,2 L0,2 Z " fill="#D6DBE0" transform="translate(16,27)"/>
<path d="M0,0 L1,0 L1,1 L0,1 Z M-1,1 L0,1 L0,2 L-1,2 Z " fill="#BCC4CB" transform="translate(15,28)"/>
<path d="M0,0 L1,0 L1,1 L0,1 Z " fill="#FFFFFF" opacity="0.64705884" transform="translate(59,27)"/>
<path d="M0,0 L1,0 L1,2 L0,2 Z " fill="#E8EBEE" transform="translate(46,26)"/>
<path d="M0,0 L1,0 L1,1 L0,1 Z " fill="#FFFFFF" opacity="0.5647059" transform="translate(58,25)"/>
<path d="M0,0 L1,0 L1,1 L0,1 Z " fill="#FFFFFF" opacity="0.9490196" transform="translate(57,24)"/>
<path d="M0,0 L1,0 L1,1 L0,1 Z M-1,1 L0,1 L0,2 L-1,2 Z " fill="#B7C0C7" transform="translate(19,23)"/>
<path d="M0,0 L1,0 L1,1 L0,1 Z " fill="#FFFFFF" opacity="0.5254902" transform="translate(6,22)"/>
<path d="M0,0 L1,0 L1,2 L0,2 Z " fill="#DBE0E3" transform="translate(13,19)"/>
<path d="M0,0 L1,0 L1,1 L0,1 Z M-1,1 L0,1 L0,2 L-1,2 Z " fill="#FAFBFB" transform="translate(12,20)"/>
<path d="M0,0 L1,0 L1,1 L0,1 Z " fill="#FFFFFF" opacity="0.47058824" transform="translate(5,20)"/>
<path d="M0,0 L2,0 L2,1 L0,1 Z " fill="#D5DBDF" transform="translate(24,19)"/>
<path d="M0,0 L2,0 L2,1 L0,1 Z " fill="#D5DBDF" transform="translate(26,18)"/>
<path d="M0,0 L1,0 L1,1 L0,1 Z M-1,1 L0,1 L0,2 L-1,2 Z " fill="#CAD1D7" transform="translate(15,18)"/>
<path d="M0,0 L1,0 L1,1 L0,1 Z " fill="#FFFFFF" opacity="0.003921569" transform="translate(2,18)"/>
<path d="M0,0 L2,0 L2,1 L0,1 Z " fill="#F9FAFB" transform="translate(43,17)"/>
<path d="M0,0 L1,0 L1,2 L0,2 Z " fill="#D1D8DC" transform="translate(28,16)"/>
<path d="M0,0 L1,0 L1,1 L0,1 Z M-1,1 L0,1 L0,2 L-1,2 Z " fill="#98A4AF" transform="translate(15,17)"/>
<path d="M0,0 L2,0 L2,1 L0,1 Z " fill="#CBD1D7" transform="translate(8,17)"/>
<path d="M0,0 L2,0 L2,1 L0,1 Z " fill="#F0F3F4" transform="translate(39,16)"/>
<path d="M0,0 L2,0 L2,1 L0,1 Z " fill="#DFE4E7" transform="translate(35,16)"/>
<path d="M0,0 L2,0 L2,1 L0,1 Z " fill="#E8ECEE" transform="translate(31,16)"/>
<path d="M0,0 L1,0 L1,2 L0,2 Z " fill="#97A4AF" transform="translate(16,15)"/>
<path d="M0,0 L1,0 L1,1 L0,1 Z M-1,1 L0,1 L0,2 L-1,2 Z " fill="#DBE0E4" transform="translate(19,14)"/>
<path d="M0,0 L1,0 L1,1 L0,1 Z M-1,1 L0,1 L0,2 L-1,2 Z " fill="#FBFBFC" transform="translate(19,13)"/>
<path d="M0,0 L1,0 L1,1 L0,1 Z " fill="#FFFFFF" opacity="0.015686275" transform="translate(42,12)"/>
<path d="M0,0 L1,0 L1,1 L0,1 Z " fill="#FFFFFF" opacity="0.3647059" transform="translate(31,12)"/>
<path d="M0,0 L2,0 L2,1 L0,1 Z " fill="#FDFEFE" transform="translate(11,12)"/>
<path d="M0,0 L1,0 L1,1 L0,1 Z " fill="#FFFFFF" opacity="0.62352943" transform="translate(2,12)"/>
<path d="M0,0 L1,0 L1,1 L0,1 Z " fill="#FFFFFF" opacity="0.9882353" transform="translate(3,11)"/>
<path d="M0,0 L1,0 L1,1 L0,1 Z " fill="#FFFFFF" opacity="0.50980395" transform="translate(17,10)"/>
<path d="M0,0 L1,0 L1,1 L0,1 Z " fill="#FFFFFF" opacity="0.039215688" transform="translate(15,9)"/>
<path d="M0,0 L1,0 L1,1 L0,1 Z " fill="#FFFFFF" opacity="0.003921569" transform="translate(26,8)"/>
<path d="M0,0 L1,0 L1,1 L0,1 Z " fill="#FFFFFF" opacity="0.98039216" transform="translate(22,8)"/>
<path d="M0,0 L1,0 L1,1 L0,1 Z " fill="#FFFFFF" opacity="0.5176471" transform="translate(20,8)"/>
<path d="M0,0 L1,0 L1,1 L0,1 Z " fill="#FFFFFF" opacity="0.5019608" transform="translate(6,8)"/>
<path d="M0,0 L1,0 L1,1 L0,1 Z " fill="#FFFFFF" opacity="0.3137255" transform="translate(42,63)"/>
<path d="M0,0 L1,0 L1,1 L0,1 Z " fill="#FFFFFF" opacity="0.6117647" transform="translate(41,63)"/>
<path d="M0,0 L1,0 L1,1 L0,1 Z " fill="#FFFFFF" opacity="0.8666667" transform="translate(39,63)"/>
<path d="M0,0 L1,0 L1,1 L0,1 Z " fill="#FFFFFF" opacity="0.95686275" transform="translate(38,63)"/>
<path d="M0,0 L1,0 L1,1 L0,1 Z " fill="#FFFFFF" opacity="0.8745098" transform="translate(32,63)"/>
<path d="M0,0 L1,0 L1,1 L0,1 Z " fill="#FFFFFF" opacity="0.6313726" transform="translate(30,63)"/>
<path d="M0,0 L1,0 L1,1 L0,1 Z " fill="#FFFFFF" opacity="0.05882353" transform="translate(28,63)"/>
<path d="M0,0 L1,0 L1,1 L0,1 Z " fill="#FFFFFF" opacity="0.43137255" transform="translate(45,62)"/>
<path d="M0,0 L1,0 L1,1 L0,1 Z " fill="#FFFFFF" opacity="0.7254902" transform="translate(44,62)"/>
<path d="M0,0 L1,0 L1,1 L0,1 Z " fill="#FFFFFF" opacity="0.9764706" transform="translate(43,62)"/>
<path d="M0,0 L1,0 L1,1 L0,1 Z " fill="#FFFFFF" opacity="0.7411765" transform="translate(27,62)"/>
<path d="M0,0 L1,0 L1,1 L0,1 Z " fill="#FFFFFF" opacity="0.08627451" transform="translate(25,62)"/>
<path d="M0,0 L1,0 L1,1 L0,1 Z " fill="#FFFFFF" opacity="0.45882353" transform="translate(47,61)"/>
<path d="M0,0 L1,0 L1,1 L0,1 Z " fill="#FFFFFF" opacity="0.9372549" transform="translate(46,61)"/>
<path d="M0,0 L1,0 L1,1 L0,1 Z " fill="#FFFFFF" opacity="0.9529412" transform="translate(25,61)"/>
<path d="M0,0 L1,0 L1,1 L0,1 Z " fill="#FFFFFF" opacity="0.047058824" transform="translate(23,61)"/>
<path d="M0,0 L1,0 L1,1 L0,1 Z " fill="#FFFFFF" opacity="0.38039216" transform="translate(49,60)"/>
<path d="M0,0 L1,0 L1,1 L0,1 Z " fill="#FFFFFF" opacity="0.8901961" transform="translate(48,60)"/>
<path d="M0,0 L1,0 L1,1 L0,1 Z " fill="#FEFEFE" transform="translate(37,60)"/>
<path d="M0,0 L1,0 L1,1 L0,1 Z " fill="#F9FAFB" transform="translate(35,60)"/>
<path d="M0,0 L1,0 L1,1 L0,1 Z " fill="#FDFDFE" transform="translate(34,60)"/>
<path d="M0,0 L1,0 L1,1 L0,1 Z " fill="#FFFFFF" opacity="0.9098039" transform="translate(23,60)"/>
<path d="M0,0 L1,0 L1,1 L0,1 Z " fill="#FFFFFF" opacity="0.019607844" transform="translate(21,60)"/>
<path d="M0,0 L1,0 L1,1 L0,1 Z " fill="#FFFFFF" opacity="0.12156863" transform="translate(51,59)"/>
<path d="M0,0 L1,0 L1,1 L0,1 Z " fill="#FFFFFF" opacity="0.7882353" transform="translate(50,59)"/>
<path d="M0,0 L1,0 L1,1 L0,1 Z " fill="#EDF0F1" transform="translate(41,59)"/>
<path d="M0,0 L1,0 L1,1 L0,1 Z " fill="#E1E5E8" transform="translate(40,59)"/>
<path d="M0,0 L1,0 L1,1 L0,1 Z " fill="#DBE0E4" transform="translate(39,59)"/>
<path d="M0,0 L1,0 L1,1 L0,1 Z " fill="#D7DDE1" transform="translate(38,59)"/>
<path d="M0,0 L1,0 L1,1 L0,1 Z " fill="#DBE0E4" transform="translate(32,59)"/>
<path d="M0,0 L1,0 L1,1 L0,1 Z " fill="#ECEFF1" transform="translate(30,59)"/>
<path d="M0,0 L1,0 L1,1 L0,1 Z " fill="#F8F9FA" transform="translate(29,59)"/>
<path d="M0,0 L1,0 L1,1 L0,1 Z " fill="#FFFFFF" opacity="0.11372549" transform="translate(20,59)"/>
<path d="M0,0 L1,0 L1,1 L0,1 Z " fill="#FFFFFF" opacity="0.28627452" transform="translate(52,58)"/>
<path d="M0,0 L1,0 L1,1 L0,1 Z " fill="#FFFFFF" opacity="0.93333334" transform="translate(51,58)"/>
<path d="M0,0 L1,0 L1,1 L0,1 Z " fill="#EAEDEF" transform="translate(44,58)"/>
<path d="M0,0 L1,0 L1,1 L0,1 Z " fill="#DCE1E4" transform="translate(43,58)"/>
<path d="M0,0 L1,0 L1,1 L0,1 Z " fill="#E8ECEE" transform="translate(27,58)"/>
<path d="M0,0 L1,0 L1,1 L0,1 Z " fill="#FCFCFD" transform="translate(26,58)"/>
<path d="M0,0 L1,0 L1,1 L0,1 Z " fill="#FFFFFF" opacity="0.90588236" transform="translate(20,58)"/>
<path d="M0,0 L1,0 L1,1 L0,1 Z " fill="#FFFFFF" opacity="0.21568628" transform="translate(19,58)"/>
<path d="M0,0 L1,0 L1,1 L0,1 Z " fill="#FFFFFF" opacity="0.37254903" transform="translate(53,57)"/>
<path d="M0,0 L1,0 L1,1 L0,1 Z " fill="#FFFFFF" opacity="0.9882353" transform="translate(52,57)"/>
<path d="M0,0 L1,0 L1,1 L0,1 Z " fill="#EDEFF1" transform="translate(46,57)"/>
<path d="M0,0 L1,0 L1,1 L0,1 Z " fill="#D8DEE2" transform="translate(45,57)"/>
<path d="M0,0 L1,0 L1,1 L0,1 Z " fill="#EBEEF0" transform="translate(25,57)"/>
<path d="M0,0 L1,0 L1,1 L0,1 Z " fill="#FDFEFE" transform="translate(24,57)"/>
<path d="M0,0 L1,0 L1,1 L0,1 Z " fill="#FFFFFF" opacity="0.3529412" transform="translate(18,57)"/>
<path d="M0,0 L1,0 L1,1 L0,1 Z " fill="#FFFFFF" opacity="0.40784314" transform="translate(54,56)"/>
<path d="M0,0 L1,0 L1,1 L0,1 Z " fill="#F4F6F7" transform="translate(48,56)"/>
<path d="M0,0 L1,0 L1,1 L0,1 Z " fill="#DBE0E3" transform="translate(47,56)"/>
<path d="M0,0 L1,0 L1,1 L0,1 Z " fill="#D9DFE2" transform="translate(24,56)"/>
<path d="M0,0 L1,0 L1,1 L0,1 Z " fill="#F1F3F5" transform="translate(23,56)"/>
<path d="M0,0 L1,0 L1,1 L0,1 Z " fill="#FFFFFF" opacity="0.45882353" transform="translate(17,56)"/>
<path d="M0,0 L1,0 L1,1 L0,1 Z " fill="#FFFFFF" opacity="0.26666668" transform="translate(55,55)"/>
<path d="M0,0 L1,0 L1,1 L0,1 Z " fill="#FFFFFF" opacity="0.9882353" transform="translate(54,55)"/>
<path d="M0,0 L1,0 L1,1 L0,1 Z " fill="#EEF0F2" transform="translate(49,55)"/>
<path d="M0,0 L1,0 L1,1 L0,1 Z " fill="#EAEDEF" transform="translate(22,55)"/>
<path d="M0,0 L1,0 L1,1 L0,1 Z " fill="#FFFFFF" opacity="0.3254902" transform="translate(16,55)"/>
<path d="M0,0 L1,0 L1,1 L0,1 Z " fill="#FFFFFF" opacity="0.14509805" transform="translate(56,54)"/>
<path d="M0,0 L1,0 L1,1 L0,1 Z " fill="#FFFFFF" opacity="0.93333334" transform="translate(55,54)"/>
<path d="M0,0 L1,0 L1,1 L0,1 Z " fill="#E7EAED" transform="translate(50,54)"/>
<path d="M0,0 L1,0 L1,1 L0,1 Z " fill="#E3E7EA" transform="translate(21,54)"/>
<path d="M0,0 L1,0 L1,1 L0,1 Z " fill="#FFFFFF" opacity="0.9647059" transform="translate(16,54)"/>
<path d="M0,0 L1,0 L1,1 L0,1 Z " fill="#FFFFFF" opacity="0.19607843" transform="translate(15,54)"/>
<path d="M0,0 L1,0 L1,1 L0,1 Z " fill="#FFFFFF" opacity="0.05882353" transform="translate(57,53)"/>
<path d="M0,0 L1,0 L1,1 L0,1 Z " fill="#FFFFFF" opacity="0.84313726" transform="translate(56,53)"/>
<path d="M0,0 L1,0 L1,1 L0,1 Z " fill="#E2E7E9" transform="translate(51,53)"/>
<path d="M0,0 L1,0 L1,1 L0,1 Z " fill="#DFE4E7" transform="translate(20,53)"/>
<path d="M0,0 L1,0 L1,1 L0,1 Z " fill="#FFFFFF" opacity="0.09803922" transform="translate(14,53)"/>
<path d="M0,0 L1,0 L1,1 L0,1 Z " fill="#FFFFFF" opacity="0.68235296" transform="translate(57,52)"/>
<path d="M0,0 L1,0 L1,1 L0,1 Z " fill="#E9ECEE" transform="translate(52,52)"/>
<path d="M0,0 L1,0 L1,1 L0,1 Z " fill="#E4E8EB" transform="translate(19,52)"/>
<path d="M0,0 L1,0 L1,1 L0,1 Z " fill="#FFFFFF" opacity="0.76862746" transform="translate(14,52)"/>
<path d="M0,0 L1,0 L1,1 L0,1 Z " fill="#FFFFFF" opacity="0.24705882" transform="translate(58,51)"/>
<path d="M0,0 L1,0 L1,1 L0,1 Z " fill="#F0F2F4" transform="translate(53,51)"/>
<path d="M0,0 L1,0 L1,1 L0,1 Z " fill="#EBEEF0" transform="translate(18,51)"/>
<path d="M0,0 L1,0 L1,1 L0,1 Z " fill="#FFFFFF" opacity="0.34117648" transform="translate(13,51)"/>
<path d="M0,0 L1,0 L1,1 L0,1 Z " fill="#FFFFFF" opacity="0.78431374" transform="translate(58,50)"/>
<path d="M0,0 L1,0 L1,1 L0,1 Z " fill="#F7F8F9" transform="translate(54,50)"/>
<path d="M0,0 L1,0 L1,1 L0,1 Z " fill="#F3F5F6" transform="translate(17,50)"/>
<path d="M0,0 L1,0 L1,1 L0,1 Z " fill="#FFFFFF" opacity="0.8627451" transform="translate(13,50)"/>
<path d="M0,0 L1,0 L1,1 L0,1 Z " fill="#FFFFFF" opacity="0.32156864" transform="translate(59,49)"/>
<path d="M0,0 L1,0 L1,1 L0,1 Z " fill="#DFE4E7" transform="translate(54,49)"/>
<path d="M0,0 L1,0 L1,1 L0,1 Z " fill="#DBE0E4" transform="translate(17,49)"/>
<path d="M0,0 L1,0 L1,1 L0,1 Z " fill="#FFFFFF" opacity="0.42745098" transform="translate(12,49)"/>
<path d="M0,0 L1,0 L1,1 L0,1 Z " fill="#FFFFFF" opacity="0.015686275" transform="translate(60,48)"/>
<path d="M0,0 L1,0 L1,1 L0,1 Z " fill="#FFFFFF" opacity="0.8509804" transform="translate(59,48)"/>
<path d="M0,0 L1,0 L1,1 L0,1 Z " fill="#F2F4F5" transform="translate(55,48)"/>
<path d="M0,0 L1,0 L1,1 L0,1 Z " fill="#EDF0F1" transform="translate(16,48)"/>
<path d="M0,0 L1,0 L1,1 L0,1 Z " fill="#FFFFFF" opacity="0.91764706" transform="translate(12,48)"/>
<path d="M0,0 L1,0 L1,1 L0,1 Z " fill="#FFFFFF" opacity="0.050980393" transform="translate(11,48)"/>
<path d="M0,0 L1,0 L1,1 L0,1 Z " fill="#DCE1E4" transform="translate(55,47)"/>
<path d="M0,0 L1,0 L1,1 L0,1 Z " fill="#D9DEE2" transform="translate(16,47)"/>
<path d="M0,0 L1,0 L1,1 L0,1 Z " fill="#FFFFFF" opacity="0.53333336" transform="translate(60,46)"/>
<path d="M0,0 L1,0 L1,1 L0,1 Z " fill="#EBEEF0" transform="translate(15,46)"/>
<path d="M0,0 L1,0 L1,1 L0,1 Z " fill="#FFFFFF" opacity="0.6509804" transform="translate(11,46)"/>
<path d="M0,0 L1,0 L1,1 L0,1 Z " fill="#FFFFFF" opacity="0.83137256" transform="translate(60,45)"/>
<path d="M0,0 L1,0 L1,1 L0,1 Z " fill="#E4E8EA" transform="translate(56,45)"/>
<path d="M0,0 L1,0 L1,1 L0,1 Z " fill="#DEE3E6" transform="translate(15,45)"/>
<path d="M0,0 L1,0 L1,1 L0,1 Z " fill="#FFFFFF" opacity="0.9372549" transform="translate(11,45)"/>
<path d="M0,0 L1,0 L1,1 L0,1 Z " fill="#FFFFFF" opacity="0.12941177" transform="translate(61,44)"/>
<path d="M0,0 L1,0 L1,1 L0,1 Z " fill="#D8DDE1" transform="translate(56,44)"/>
<path d="M0,0 L1,0 L1,1 L0,1 Z " fill="#FFFFFF" opacity="0.2509804" transform="translate(10,44)"/>
<path d="M0,0 L1,0 L1,1 L0,1 Z " fill="#F5F6F7" transform="translate(57,43)"/>
<path d="M0,0 L1,0 L1,1 L0,1 Z " fill="#EFF1F3" transform="translate(14,43)"/>
<path d="M0,0 L1,0 L1,1 L0,1 Z " fill="#FFFFFF" opacity="0.5411765" transform="translate(61,42)"/>
<path d="M0,0 L1,0 L1,1 L0,1 Z " fill="#EAEDEF" transform="translate(57,42)"/>
<path d="M0,0 L1,0 L1,1 L0,1 Z " fill="#E4E8EB" transform="translate(14,42)"/>
<path d="M0,0 L1,0 L1,1 L0,1 Z " fill="#FFFFFF" opacity="0.67058825" transform="translate(10,42)"/>
<path d="M0,0 L1,0 L1,1 L0,1 Z " fill="#FFFFFF" opacity="0.7254902" transform="translate(61,40)"/>
<path d="M0,0 L1,0 L1,1 L0,1 Z " fill="#E1E5E8" transform="translate(57,40)"/>
<path d="M0,0 L1,0 L1,1 L0,1 Z " fill="#DCE1E4" transform="translate(14,40)"/>
<path d="M0,0 L1,0 L1,1 L0,1 Z " fill="#FFFFFF" opacity="0.85490197" transform="translate(10,40)"/>
<path d="M0,0 L1,0 L1,1 L0,1 Z " fill="#FFFFFF" opacity="0.81960785" transform="translate(61,39)"/>
<path d="M0,0 L1,0 L1,1 L0,1 Z " fill="#DDE2E5" transform="translate(57,39)"/>
<path d="M0,0 L1,0 L1,1 L0,1 Z " fill="#D8DDE1" transform="translate(14,39)"/>
<path d="M0,0 L1,0 L1,1 L0,1 Z " fill="#FFFFFF" opacity="0.9490196" transform="translate(10,39)"/>
<path d="M0,0 L1,0 L1,1 L0,1 Z " fill="#FEFEFE" transform="translate(13,38)"/>
<path d="M0,0 L1,0 L1,1 L0,1 Z " fill="#FFFFFF" opacity="0.03529412" transform="translate(9,38)"/>
<path d="M0,0 L1,0 L1,1 L0,1 Z " fill="#FFFFFF" opacity="0.8784314" transform="translate(61,37)"/>
<path d="M0,0 L1,0 L1,1 L0,1 Z " fill="#DBE0E4" transform="translate(57,37)"/>
<path d="M0,0 L1,0 L1,1 L0,1 Z " fill="#D8DDE1" transform="translate(14,36)"/>
<path d="M0,0 L1,0 L1,1 L0,1 Z " fill="#FFFFFF" opacity="0.98039216" transform="translate(10,36)"/>
<path d="M0,0 L1,0 L1,1 L0,1 Z " fill="#FFFFFF" opacity="0.003921569" transform="translate(9,36)"/>
<path d="M0,0 L1,0 L1,1 L0,1 Z " fill="#FFFFFF" opacity="0.6901961" transform="translate(61,35)"/>
<path d="M0,0 L1,0 L1,1 L0,1 Z " fill="#E2E7E9" transform="translate(57,35)"/>
<path d="M0,0 L1,0 L1,1 L0,1 Z " fill="#DEE2E6" transform="translate(42,34)"/>
<path d="M0,0 L1,0 L1,1 L0,1 Z " fill="#E6E9EC" transform="translate(41,34)"/>
<path d="M0,0 L1,0 L1,1 L0,1 Z " fill="#E3E7EA" transform="translate(39,34)"/>
<path d="M0,0 L1,0 L1,1 L0,1 Z " fill="#DBE0E3" transform="translate(38,34)"/>
<path d="M0,0 L1,0 L1,1 L0,1 Z " fill="#E0E4E7" transform="translate(14,34)"/>
<path d="M0,0 L1,0 L1,1 L0,1 Z " fill="#FFFFFF" opacity="0.78431374" transform="translate(10,34)"/>
<path d="M0,0 L1,0 L1,1 L0,1 Z " fill="#FFFFFF" opacity="0.50980395" transform="translate(61,33)"/>
<path d="M0,0 L1,0 L1,1 L0,1 Z " fill="#EDF0F1" transform="translate(57,33)"/>
<path d="M0,0 L1,0 L1,1 L0,1 Z " fill="#DAE0E3" transform="translate(44,33)"/>
<path d="M0,0 L1,0 L1,1 L0,1 Z " fill="#F4F6F7" transform="translate(43,33)"/>
<path d="M0,0 L1,0 L1,1 L0,1 Z " fill="#ECEFF1" transform="translate(37,33)"/>
<path d="M0,0 L1,0 L1,1 L0,1 Z " fill="#D7DDE1" transform="translate(36,33)"/>
<path d="M0,0 L1,0 L1,1 L0,1 Z " fill="#F9FAFB" transform="translate(57,32)"/>
<path d="M0,0 L1,0 L1,1 L0,1 Z " fill="#DBE0E4" transform="translate(45,32)"/>
<path d="M0,0 L1,0 L1,1 L0,1 Z " fill="#FDFDFE" transform="translate(44,32)"/>
<path d="M0,0 L1,0 L1,1 L0,1 Z " fill="#F6F8F9" transform="translate(36,32)"/>
<path d="M0,0 L1,0 L1,1 L0,1 Z " fill="#F3F5F6" transform="translate(14,32)"/>
<path d="M0,0 L1,0 L1,1 L0,1 Z " fill="#FFFFFF" opacity="0.6039216" transform="translate(10,32)"/>
<path d="M0,0 L1,0 L1,1 L0,1 Z " fill="#FFFFFF" opacity="0.043137256" transform="translate(61,31)"/>
<path d="M0,0 L1,0 L1,1 L0,1 Z " fill="#F5F7F8" transform="translate(45,31)"/>
<path d="M0,0 L1,0 L1,1 L0,1 Z " fill="#EAEDEF" transform="translate(35,31)"/>
<path d="M0,0 L1,0 L1,1 L0,1 Z " fill="#D5DBDF" transform="translate(15,31)"/>
<path d="M0,0 L1,0 L1,1 L0,1 Z " fill="#F9FAFA" transform="translate(14,31)"/>
<path d="M0,0 L1,0 L1,1 L0,1 Z " fill="#FFFFFF" opacity="0.45882353" transform="translate(9,31)"/>
<path d="M0,0 L1,0 L1,1 L0,1 Z " fill="#FFFFFF" opacity="0.7137255" transform="translate(60,30)"/>
<path d="M0,0 L1,0 L1,1 L0,1 Z " fill="#E8ECEE" transform="translate(56,30)"/>
<path d="M0,0 L1,0 L1,1 L0,1 Z " fill="#E1E5E8" transform="translate(46,30)"/>
<path d="M0,0 L1,0 L1,1 L0,1 Z " fill="#FEFEFF" transform="translate(35,30)"/>
<path d="M0,0 L1,0 L1,1 L0,1 Z " fill="#CAD0D6" transform="translate(14,30)"/>
<path d="M0,0 L1,0 L1,1 L0,1 Z " fill="#FFFFFF" opacity="0.43137255" transform="translate(8,30)"/>
<path d="M0,0 L1,0 L1,1 L0,1 Z " fill="#F7F8F9" transform="translate(56,29)"/>
<path d="M0,0 L1,0 L1,1 L0,1 Z " fill="#DDE2E5" transform="translate(34,29)"/>
<path d="M0,0 L1,0 L1,1 L0,1 Z " fill="#CBD1D6" transform="translate(15,29)"/>
<path d="M0,0 L1,0 L1,1 L0,1 Z " fill="#CED4D8" transform="translate(13,29)"/>
<path d="M0,0 L1,0 L1,1 L0,1 Z " fill="#FFFFFF" opacity="0.30980393" transform="translate(7,29)"/>
<path d="M0,0 L1,0 L1,1 L0,1 Z " fill="#FFFFFF" opacity="0.12156863" transform="translate(60,28)"/>
<path d="M0,0 L1,0 L1,1 L0,1 Z " fill="#E4E8EB" transform="translate(55,28)"/>
<path d="M0,0 L1,0 L1,1 L0,1 Z " fill="#EEF1F3" transform="translate(46,28)"/>
<path d="M0,0 L1,0 L1,1 L0,1 Z " fill="#D2D7DB" transform="translate(12,28)"/>
<path d="M0,0 L1,0 L1,1 L0,1 Z " fill="#FCFCFC" transform="translate(11,28)"/>
<path d="M0,0 L1,0 L1,1 L0,1 Z " fill="#FFFFFF" opacity="0.92156863" transform="translate(7,28)"/>
<path d="M0,0 L1,0 L1,1 L0,1 Z " fill="#FFFFFF" opacity="0.06666667" transform="translate(6,28)"/>
<path d="M0,0 L1,0 L1,1 L0,1 Z " fill="#FAFAFB" transform="translate(55,27)"/>
<path d="M0,0 L1,0 L1,1 L0,1 Z " fill="#DDE2E5" transform="translate(34,27)"/>
<path d="M0,0 L1,0 L1,1 L0,1 Z " fill="#CCD2D7" transform="translate(16,27)"/>
<path d="M0,0 L1,0 L1,1 L0,1 Z " fill="#D7DCE0" transform="translate(11,27)"/>
<path d="M0,0 L1,0 L1,1 L0,1 Z " fill="#FEFEFE" transform="translate(10,27)"/>
<path d="M0,0 L1,0 L1,1 L0,1 Z " fill="#FFFFFF" opacity="0.49411765" transform="translate(6,27)"/>
<path d="M0,0 L1,0 L1,1 L0,1 Z " fill="#FFFFFF" opacity="0.13333334" transform="translate(59,26)"/>
<path d="M0,0 L1,0 L1,1 L0,1 Z " fill="#FFFFFF" opacity="0.98039216" transform="translate(58,26)"/>
<path d="M0,0 L1,0 L1,1 L0,1 Z " fill="#E7EBED" transform="translate(54,26)"/>
<path d="M0,0 L1,0 L1,1 L0,1 Z " fill="#E0E4E7" transform="translate(46,26)"/>
<path d="M0,0 L1,0 L1,1 L0,1 Z " fill="#E6EAEC" transform="translate(10,26)"/>
<path d="M0,0 L1,0 L1,1 L0,1 Z " fill="#FFFFFF" opacity="0.8156863" transform="translate(6,26)"/>
<path d="M0,0 L1,0 L1,1 L0,1 Z " fill="#FDFDFE" transform="translate(54,25)"/>
<path d="M0,0 L1,0 L1,1 L0,1 Z " fill="#DDE2E5" transform="translate(53,25)"/>
<path d="M0,0 L1,0 L1,1 L0,1 Z " fill="#F3F5F6" transform="translate(45,25)"/>
<path d="M0,0 L1,0 L1,1 L0,1 Z " fill="#E8EBED" transform="translate(35,25)"/>
<path d="M0,0 L1,0 L1,1 L0,1 Z " fill="#D6DBE0" transform="translate(18,25)"/>
<path d="M0,0 L1,0 L1,1 L0,1 Z " fill="#D7DCE0" transform="translate(10,25)"/>
<path d="M0,0 L1,0 L1,1 L0,1 Z " fill="#FFFFFF" opacity="0.92941177" transform="translate(6,25)"/>
<path d="M0,0 L1,0 L1,1 L0,1 Z " fill="#FFFFFF" opacity="0.08235294" transform="translate(58,24)"/>
<path d="M0,0 L1,0 L1,1 L0,1 Z " fill="#FAFBFB" transform="translate(53,24)"/>
<path d="M0,0 L1,0 L1,1 L0,1 Z " fill="#D9DEE2" transform="translate(52,24)"/>
<path d="M0,0 L1,0 L1,1 L0,1 Z " fill="#DADFE3" transform="translate(45,24)"/>
<path d="M0,0 L1,0 L1,1 L0,1 Z " fill="#FBFCFC" transform="translate(44,24)"/>
<path d="M0,0 L1,0 L1,1 L0,1 Z " fill="#F3F5F6" transform="translate(36,24)"/>
<path d="M0,0 L1,0 L1,1 L0,1 Z " fill="#D4DADF" transform="translate(19,24)"/>
<path d="M0,0 L1,0 L1,1 L0,1 Z " fill="#FFFFFF" opacity="0.38431373" transform="translate(57,23)"/>
<path d="M0,0 L1,0 L1,1 L0,1 Z " fill="#F5F7F8" transform="translate(52,23)"/>
<path d="M0,0 L1,0 L1,1 L0,1 Z " fill="#D8DEE2" transform="translate(44,23)"/>
<path d="M0,0 L1,0 L1,1 L0,1 Z " fill="#F1F3F4" transform="translate(43,23)"/>
<path d="M0,0 L1,0 L1,1 L0,1 Z " fill="#FEFFFF" transform="translate(38,23)"/>
<path d="M0,0 L1,0 L1,1 L0,1 Z " fill="#E9ECEE" transform="translate(37,23)"/>
<path d="M0,0 L1,0 L1,1 L0,1 Z " fill="#E7EAED" transform="translate(10,23)"/>
<path d="M0,0 L1,0 L1,1 L0,1 Z " fill="#FFFFFF" opacity="0.8117647" transform="translate(6,23)"/>
<path d="M0,0 L1,0 L1,1 L0,1 Z " fill="#FFFFFF" opacity="0.5568628" transform="translate(56,22)"/>
<path d="M0,0 L1,0 L1,1 L0,1 Z " fill="#F1F3F5" transform="translate(51,22)"/>
<path d="M0,0 L1,0 L1,1 L0,1 Z " fill="#DADFE3" transform="translate(42,22)"/>
<path d="M0,0 L1,0 L1,1 L0,1 Z " fill="#E2E6E9" transform="translate(41,22)"/>
<path d="M0,0 L1,0 L1,1 L0,1 Z " fill="#E0E4E7" transform="translate(39,22)"/>
<path d="M0,0 L1,0 L1,1 L0,1 Z " fill="#D8DEE1" transform="translate(38,22)"/>
<path d="M0,0 L1,0 L1,1 L0,1 Z " fill="#BAC2C9" transform="translate(20,22)"/>
<path d="M0,0 L1,0 L1,1 L0,1 Z " fill="#DCE1E4" transform="translate(11,22)"/>
<path d="M0,0 L1,0 L1,1 L0,1 Z " fill="#FDFDFD" transform="translate(10,22)"/>
<path d="M0,0 L1,0 L1,1 L0,1 Z " fill="#FFFFFF" opacity="0.011764706" transform="translate(56,21)"/>
<path d="M0,0 L1,0 L1,1 L0,1 Z " fill="#F6F7F8" transform="translate(50,21)"/>
<path d="M0,0 L1,0 L1,1 L0,1 Z " fill="#D9DFE2" transform="translate(49,21)"/>
<path d="M0,0 L1,0 L1,1 L0,1 Z " fill="#D0D6DA" transform="translate(21,21)"/>
<path d="M0,0 L1,0 L1,1 L0,1 Z " fill="#DAE0E3" transform="translate(12,21)"/>
<path d="M0,0 L1,0 L1,1 L0,1 Z " fill="#FFFFFF" opacity="0.98039216" transform="translate(7,21)"/>
<path d="M0,0 L1,0 L1,1 L0,1 Z " fill="#FFFFFF" opacity="0.09411765" transform="translate(6,21)"/>
<path d="M0,0 L1,0 L1,1 L0,1 Z " fill="#FFFFFF" opacity="0.05882353" transform="translate(55,20)"/>
<path d="M0,0 L1,0 L1,1 L0,1 Z " fill="#FFFFFF" opacity="0.8392157" transform="translate(54,20)"/>
<path d="M0,0 L1,0 L1,1 L0,1 Z " fill="#FAFBFC" transform="translate(49,20)"/>
<path d="M0,0 L1,0 L1,1 L0,1 Z " fill="#DDE2E5" transform="translate(48,20)"/>
<path d="M0,0 L1,0 L1,1 L0,1 Z " fill="#CBD2D7" transform="translate(22,20)"/>
<path d="M0,0 L1,0 L1,1 L0,1 Z " fill="#FFFFFF" opacity="0.85490197" transform="translate(6,20)"/>
<path d="M0,0 L1,0 L1,1 L0,1 Z " fill="#FFFFFF" opacity="0.03137255" transform="translate(4,20)"/>
<path d="M0,0 L1,0 L1,1 L0,1 Z " fill="#FFFFFF" opacity="0.12156863" transform="translate(54,19)"/>
<path d="M0,0 L1,0 L1,1 L0,1 Z " fill="#FDFEFE" transform="translate(48,19)"/>
<path d="M0,0 L1,0 L1,1 L0,1 Z " fill="#E9EDEF" transform="translate(47,19)"/>
<path d="M0,0 L1,0 L1,1 L0,1 Z " fill="#D7DDE1" transform="translate(46,19)"/>
<path d="M0,0 L1,0 L1,1 L0,1 Z " fill="#C2CACF" transform="translate(23,19)"/>
<path d="M0,0 L1,0 L1,1 L0,1 Z " fill="#D9DDE1" transform="translate(13,19)"/>
<path d="M0,0 L1,0 L1,1 L0,1 Z " fill="#FFFFFF" opacity="0.06666667" transform="translate(3,19)"/>
<path d="M0,0 L1,0 L1,1 L0,1 Z " fill="#FFFFFF" opacity="0.08627451" transform="translate(53,18)"/>
<path d="M0,0 L1,0 L1,1 L0,1 Z " fill="#FFFFFF" opacity="0.80784315" transform="translate(52,18)"/>
<path d="M0,0 L1,0 L1,1 L0,1 Z " fill="#FBFCFC" transform="translate(46,18)"/>
<path d="M0,0 L1,0 L1,1 L0,1 Z " fill="#E6EAEC" transform="translate(45,18)"/>
<path d="M0,0 L1,0 L1,1 L0,1 Z " fill="#D6DBDF" transform="translate(26,18)"/>
<path d="M0,0 L1,0 L1,1 L0,1 Z " fill="#C7CED3" transform="translate(25,18)"/>
<path d="M0,0 L1,0 L1,1 L0,1 Z " fill="#B9C1C9" transform="translate(12,18)"/>
<path d="M0,0 L1,0 L1,1 L0,1 Z " fill="#F2F4F5" transform="translate(11,18)"/>
<path d="M0,0 L1,0 L1,1 L0,1 Z " fill="#FFFFFF" opacity="0.043137256" transform="translate(52,17)"/>
<path d="M0,0 L1,0 L1,1 L0,1 Z " fill="#FFFFFF" opacity="0.6392157" transform="translate(51,17)"/>
<path d="M0,0 L1,0 L1,1 L0,1 Z " fill="#EBEEF0" transform="translate(43,17)"/>
<path d="M0,0 L1,0 L1,1 L0,1 Z " fill="#DFE4E7" transform="translate(42,17)"/>
<path d="M0,0 L1,0 L1,1 L0,1 Z " fill="#D8DFE2" transform="translate(29,17)"/>
<path d="M0,0 L1,0 L1,1 L0,1 Z " fill="#C4CBD1" transform="translate(27,17)"/>
<path d="M0,0 L1,0 L1,1 L0,1 Z " fill="#CAD1D6" transform="translate(16,17)"/>
<path d="M0,0 L1,0 L1,1 L0,1 Z " fill="#94A0AC" transform="translate(11,17)"/>
<path d="M0,0 L1,0 L1,1 L0,1 Z " fill="#B2BBC3" transform="translate(10,17)"/>
<path d="M0,0 L1,0 L1,1 L0,1 Z " fill="#E3E6E9" transform="translate(8,17)"/>
<path d="M0,0 L1,0 L1,1 L0,1 Z " fill="#FCFCFC" transform="translate(7,17)"/>
<path d="M0,0 L1,0 L1,1 L0,1 Z " fill="#FFFFFF" opacity="0.28235295" transform="translate(2,17)"/>
<path d="M0,0 L1,0 L1,1 L0,1 Z " fill="#FFFFFF" opacity="0.003921569" transform="translate(51,16)"/>
<path d="M0,0 L1,0 L1,1 L0,1 Z " fill="#FFFFFF" opacity="0.39215687" transform="translate(50,16)"/>
<path d="M0,0 L1,0 L1,1 L0,1 Z " fill="#FCFDFD" transform="translate(41,16)"/>
<path d="M0,0 L1,0 L1,1 L0,1 Z " fill="#EBEEF0" transform="translate(39,16)"/>
<path d="M0,0 L1,0 L1,1 L0,1 Z " fill="#E3E7EA" transform="translate(37,16)"/>
<path d="M0,0 L1,0 L1,1 L0,1 Z " fill="#DFE3E6" transform="translate(35,16)"/>
<path d="M0,0 L1,0 L1,1 L0,1 Z " fill="#E5E8EB" transform="translate(33,16)"/>
<path d="M0,0 L1,0 L1,1 L0,1 Z " fill="#F1F3F4" transform="translate(31,16)"/>
<path d="M0,0 L1,0 L1,1 L0,1 Z " fill="#FBFBFC" transform="translate(30,16)"/>
<path d="M0,0 L1,0 L1,1 L0,1 Z " fill="#DCE0E3" transform="translate(28,16)"/>
<path d="M0,0 L1,0 L1,1 L0,1 Z " fill="#CDD4D9" transform="translate(17,16)"/>
<path d="M0,0 L1,0 L1,1 L0,1 Z " fill="#97A4AF" transform="translate(7,16)"/>
<path d="M0,0 L1,0 L1,1 L0,1 Z " fill="#E3E7EA" transform="translate(6,16)"/>
<path d="M0,0 L1,0 L1,1 L0,1 Z " fill="#FFFFFF" opacity="0.7372549" transform="translate(2,16)"/>
<path d="M0,0 L1,0 L1,1 L0,1 Z " fill="#FFFFFF" opacity="0.09411765" transform="translate(49,15)"/>
<path d="M0,0 L1,0 L1,1 L0,1 Z " fill="#FFFFFF" opacity="0.64705884" transform="translate(48,15)"/>
<path d="M0,0 L1,0 L1,1 L0,1 Z " fill="#DEE2E5" transform="translate(27,15)"/>
<path d="M0,0 L1,0 L1,1 L0,1 Z " fill="#F3F5F6" transform="translate(17,15)"/>
<path d="M0,0 L1,0 L1,1 L0,1 Z " fill="#A8B3BC" transform="translate(16,15)"/>
<path d="M0,0 L1,0 L1,1 L0,1 Z " fill="#A1ACB6" transform="translate(6,15)"/>
<path d="M0,0 L1,0 L1,1 L0,1 Z " fill="#FFFFFF" opacity="0.8627451" transform="translate(2,15)"/>
<path d="M0,0 L1,0 L1,1 L0,1 Z " fill="#FFFFFF" opacity="0.16862746" transform="translate(47,14)"/>
<path d="M0,0 L1,0 L1,1 L0,1 Z " fill="#FFFFFF" opacity="0.6431373" transform="translate(46,14)"/>
<path d="M0,0 L1,0 L1,1 L0,1 Z " fill="#FFFFFF" opacity="0.9843137" transform="translate(45,14)"/>
<path d="M0,0 L1,0 L1,1 L0,1 Z " fill="#E1E4E7" transform="translate(26,14)"/>
<path d="M0,0 L1,0 L1,1 L0,1 Z " fill="#FCFDFD" transform="translate(16,14)"/>
<path d="M0,0 L1,0 L1,1 L0,1 Z " fill="#C7CDD3" transform="translate(15,14)"/>
<path d="M0,0 L1,0 L1,1 L0,1 Z " fill="#FFFFFF" opacity="0.05882353" transform="translate(45,13)"/>
<path d="M0,0 L1,0 L1,1 L0,1 Z " fill="#FFFFFF" opacity="0.6392157" transform="translate(43,13)"/>
<path d="M0,0 L1,0 L1,1 L0,1 Z " fill="#FFFFFF" opacity="0.92941177" transform="translate(42,13)"/>
<path d="M0,0 L1,0 L1,1 L0,1 Z " fill="#E6E9EB" transform="translate(25,13)"/>
<path d="M0,0 L1,0 L1,1 L0,1 Z " fill="#DEE3E6" transform="translate(20,13)"/>
<path d="M0,0 L1,0 L1,1 L0,1 Z " fill="#F2F3F5" transform="translate(14,13)"/>
<path d="M0,0 L1,0 L1,1 L0,1 Z " fill="#C1C8CF" transform="translate(13,13)"/>
<path d="M0,0 L1,0 L1,1 L0,1 Z " fill="#98A4B0" transform="translate(12,13)"/>
<path d="M0,0 L1,0 L1,1 L0,1 Z " fill="#B7C0C7" transform="translate(6,13)"/>
<path d="M0,0 L1,0 L1,1 L0,1 Z " fill="#FFFFFF" opacity="0.8666667" transform="translate(2,13)"/>
<path d="M0,0 L1,0 L1,1 L0,1 Z " fill="#FFFFFF" opacity="0.23529412" transform="translate(41,12)"/>
<path d="M0,0 L1,0 L1,1 L0,1 Z " fill="#FFFFFF" opacity="0.4" transform="translate(40,12)"/>
<path d="M0,0 L1,0 L1,1 L0,1 Z " fill="#FFFFFF" opacity="0.58431375" transform="translate(38,12)"/>
<path d="M0,0 L1,0 L1,1 L0,1 Z " fill="#FFFFFF" opacity="0.6745098" transform="translate(37,12)"/>
<path d="M0,0 L1,0 L1,1 L0,1 Z " fill="#FFFFFF" opacity="0.76862746" transform="translate(36,12)"/>
<path d="M0,0 L1,0 L1,1 L0,1 Z " fill="#FFFFFF" opacity="0.67058825" transform="translate(34,12)"/>
<path d="M0,0 L1,0 L1,1 L0,1 Z " fill="#FFFFFF" opacity="0.46666667" transform="translate(32,12)"/>
<path d="M0,0 L1,0 L1,1 L0,1 Z " fill="#FFFFFF" opacity="0.34901962" transform="translate(30,12)"/>
<path d="M0,0 L1,0 L1,1 L0,1 Z " fill="#F4F5F6" transform="translate(24,12)"/>
<path d="M0,0 L1,0 L1,1 L0,1 Z " fill="#E1E6E8" transform="translate(23,12)"/>
<path d="M0,0 L1,0 L1,1 L0,1 Z " fill="#ECEEF0" transform="translate(21,12)"/>
<path d="M0,0 L1,0 L1,1 L0,1 Z " fill="#FEFEFE" transform="translate(20,12)"/>
<path d="M0,0 L1,0 L1,1 L0,1 Z " fill="#E5E9EB" transform="translate(11,12)"/>
<path d="M0,0 L1,0 L1,1 L0,1 Z " fill="#CBD2D7" transform="translate(10,12)"/>
<path d="M0,0 L1,0 L1,1 L0,1 Z " fill="#BBC3CA" transform="translate(9,12)"/>
<path d="M0,0 L1,0 L1,1 L0,1 Z " fill="#C3CAD0" transform="translate(7,12)"/>
<path d="M0,0 L1,0 L1,1 L0,1 Z " fill="#FAFBFB" transform="translate(6,12)"/>
<path d="M0,0 L1,0 L1,1 L0,1 Z " fill="#FFFFFF" opacity="0.20784314" transform="translate(29,11)"/>
<path d="M0,0 L1,0 L1,1 L0,1 Z " fill="#FFFFFF" opacity="0.18431373" transform="translate(2,11)"/>
<path d="M0,0 L1,0 L1,1 L0,1 Z " fill="#FFFFFF" opacity="0.19607843" transform="translate(28,10)"/>
<path d="M0,0 L1,0 L1,1 L0,1 Z " fill="#FFFFFF" opacity="0.5176471" transform="translate(16,10)"/>
<path d="M0,0 L1,0 L1,1 L0,1 Z " fill="#FFFFFF" opacity="0.92941177" transform="translate(15,10)"/>
<path d="M0,0 L1,0 L1,1 L0,1 Z " fill="#FFFFFF" transform="translate(4,10)"/>
<path d="M0,0 L1,0 L1,1 L0,1 Z " fill="#FFFFFF" opacity="0.4392157" transform="translate(3,10)"/>
<path d="M0,0 L1,0 L1,1 L0,1 Z " fill="#FFFFFF" opacity="0.11764706" transform="translate(27,9)"/>
<path d="M0,0 L1,0 L1,1 L0,1 Z " fill="#FFFFFF" opacity="0.7607843" transform="translate(26,9)"/>
<path d="M0,0 L1,0 L1,1 L0,1 Z " fill="#FFFFFF" opacity="0.3529412" transform="translate(18,9)"/>
<path d="M0,0 L1,0 L1,1 L0,1 Z " fill="#FFFFFF" opacity="0.4117647" transform="translate(14,9)"/>
<path d="M0,0 L1,0 L1,1 L0,1 Z " fill="#FFFFFF" opacity="0.8235294" transform="translate(13,9)"/>
<path d="M0,0 L1,0 L1,1 L0,1 Z " fill="#FFFFFF" opacity="0.35686275" transform="translate(4,9)"/>
<path d="M0,0 L1,0 L1,1 L0,1 Z " fill="#FFFFFF" opacity="0.34117648" transform="translate(25,8)"/>
<path d="M0,0 L1,0 L1,1 L0,1 Z " fill="#FFFFFF" opacity="0.7294118" transform="translate(24,8)"/>
<path d="M0,0 L1,0 L1,1 L0,1 Z " fill="#FFFFFF" opacity="0.93333334" transform="translate(23,8)"/>
<path d="M0,0 L1,0 L1,1 L0,1 Z " fill="#FFFFFF" opacity="0.84705883" transform="translate(21,8)"/>
<path d="M0,0 L1,0 L1,1 L0,1 Z " fill="#FFFFFF" opacity="0.08627451" transform="translate(19,8)"/>
<path d="M0,0 L1,0 L1,1 L0,1 Z " fill="#FFFFFF" opacity="0.05882353" transform="translate(12,8)"/>
<path d="M0,0 L1,0 L1,1 L0,1 Z " fill="#FFFFFF" opacity="0.4627451" transform="translate(10,8)"/>
<path d="M0,0 L1,0 L1,1 L0,1 Z " fill="#FFFFFF" opacity="0.6627451" transform="translate(9,8)"/>
<path d="M0,0 L1,0 L1,1 L0,1 Z " fill="#FFFFFF" opacity="0.73333335" transform="translate(7,8)"/>
<path d="M0,0 L1,0 L1,1 L0,1 Z " fill="#FFFFFF" opacity="0.101960786" transform="translate(5,8)"/>
<path d="M0,0 L1,0 L1,1 L0,1 Z " fill="#FFFFFF" opacity="0.003921569" transform="translate(22,7)"/>
</svg>
