<?xml version="1.0" encoding="UTF-8"?>
<!-- Generator: visioncortex VTracer 0.6.4 -->
<svg version="1.1" xmlns="http://www.w3.org/2000/svg" width="64" height="64">
<path d="M0,0 L12,0 L12,1 L15,1 L15,2 L17,2 L17,3 L18,3 L18,4 L22,4 L22,5 L23,5 L23,6 L24,6 L24,7 L25,7 L25,12 L26,12 L26,15 L27,15 L27,17 L29,17 L29,18 L32,18 L32,20 L33,20 L33,21 L35,21 L35,22 L36,22 L36,23 L37,23 L37,28 L36,28 L36,30 L37,30 L37,39 L34,39 L34,30 L33,30 L33,28 L31,28 L31,29 L32,29 L32,31 L33,31 L33,39 L-19,39 L-19,37 L-20,37 L-20,35 L-21,35 L-21,26 L-22,26 L-22,36 L-21,36 L-21,38 L-20,38 L-20,39 L-23,39 L-23,38 L-24,38 L-24,36 L-25,36 L-25,26 L-24,26 L-24,20 L-23,20 L-23,18 L-21,18 L-21,17 L-17,17 L-17,12 L-16,12 L-16,11 L-15,11 L-15,9 L-14,9 L-14,7 L-13,7 L-13,6 L-12,6 L-12,5 L-8,5 L-8,4 L-6,4 L-6,3 L-5,3 L-5,2 L-3,2 L-3,1 L0,1 Z M0,3 L0,4 L12,4 L12,3 Z M-3,4 L-3,5 L-4,5 L-4,6 L-2,6 L-2,5 L0,5 L0,4 Z M12,4 L12,5 L14,5 L14,4 Z M14,5 L14,6 L16,6 L16,5 Z M-6,6 L-6,7 L-7,7 L-7,8 L-8,8 L-8,10 L-7,10 L-7,9 L-6,9 L-6,8 L-5,8 L-5,7 L-4,7 L-4,6 Z M16,6 L16,7 L17,7 L17,8 L19,8 L19,7 L18,7 L18,6 Z M21,11 L21,13 L22,13 L22,15 L23,15 L23,12 L22,12 L22,11 Z M-11,12 L-11,13 L-10,13 L-10,12 Z M23,15 L23,24 L27,24 L27,23 L24,23 L24,15 Z M-12,16 L-12,19 L-15,19 L-15,20 L-11,20 L-11,16 Z M-17,20 L-17,21 L-15,21 L-15,20 Z M-21,24 L-21,26 L-20,26 L-20,25 L-19,25 L-19,24 Z " fill="#2CC987" transform="translate(26,25)"/>
<path d="M0,0 L12,0 L12,1 L15,1 L15,2 L17,2 L17,3 L18,3 L18,4 L22,4 L22,5 L23,5 L23,6 L24,6 L24,7 L25,7 L25,12 L26,12 L26,15 L27,15 L27,17 L29,17 L29,18 L32,18 L32,20 L33,20 L33,21 L35,21 L35,22 L36,22 L36,23 L37,23 L37,28 L36,28 L36,30 L37,30 L37,39 L34,39 L34,30 L33,30 L33,27 L34,27 L34,25 L33,25 L33,24 L31,24 L31,25 L30,25 L30,21 L27,21 L27,23 L24,23 L24,15 L23,15 L23,12 L22,12 L22,9 L21,9 L21,8 L20,8 L20,7 L18,7 L18,6 L16,6 L16,5 L14,5 L14,4 L12,4 L12,3 L0,3 L0,4 L-3,4 L-3,5 L-4,5 L-4,6 L-6,6 L-6,7 L-7,7 L-7,8 L-8,8 L-8,9 L-11,9 L-11,12 L-12,12 L-12,13 L-13,13 L-13,16 L-12,16 L-12,19 L-15,19 L-15,20 L-20,20 L-20,21 L-21,21 L-21,26 L-22,26 L-22,36 L-21,36 L-21,38 L-20,38 L-20,39 L-23,39 L-23,38 L-24,38 L-24,36 L-25,36 L-25,26 L-24,26 L-24,20 L-23,20 L-23,18 L-21,18 L-21,17 L-17,17 L-17,12 L-16,12 L-16,11 L-15,11 L-15,9 L-14,9 L-14,7 L-13,7 L-13,6 L-12,6 L-12,5 L-8,5 L-8,4 L-6,4 L-6,3 L-5,3 L-5,2 L-3,2 L-3,1 L0,1 Z " fill="#353541" transform="translate(26,25)"/>
<path d="M0,0 L1,0 L1,1 L2,1 L2,2 L3,2 L3,4 L5,4 L5,3 L10,3 L10,4 L11,4 L11,6 L10,6 L10,9 L9,9 L9,10 L8,10 L8,11 L7,11 L7,12 L5,12 L5,11 L3,11 L3,10 L2,10 L2,6 L-2,6 L-2,2 L-1,2 L-1,1 L0,1 Z " fill="#3FD998" transform="translate(37,30)"/>
<path d="M0,0 L6,0 L6,1 L7,1 L7,4 L6,4 L6,6 L5,6 L5,7 L2,7 L2,6 L0,6 Z " fill="#41DB9A" transform="translate(7,46)"/>
<path d="M0,0 L1,0 L1,1 L2,1 L2,2 L3,2 L3,4 L4,4 L4,5 L3,5 L3,8 L4,8 L4,9 L5,9 L5,10 L6,10 L6,11 L7,11 L7,12 L5,12 L5,11 L3,11 L3,10 L2,10 L2,6 L-2,6 L-2,2 L-1,2 L-1,1 L0,1 Z " fill="#35D18F" transform="translate(37,30)"/>
<path d="M0,0 L2,0 L2,1 L0,1 Z " fill="#343440" opacity="0.9764706" transform="translate(31,24)"/>
<path d="M0,0 L4,0 L4,2 L3,2 L3,4 L2,4 L2,5 L0,5 Z " fill="#4BE4A3" transform="translate(7,46)"/>
<path d="M0,0 L4,0 L4,1 L5,1 L5,3 L4,3 L4,5 L3,5 L3,4 L2,4 L2,3 L1,3 L1,2 L0,2 Z " fill="#4EE6A6" transform="translate(43,33)"/>
<path d="M0,0 L1,0 L1,2 L2,2 L2,3 L3,3 L3,4 L4,4 L4,5 L5,5 L5,6 L2,6 L2,5 L1,5 L1,4 L0,4 L0,3 L-1,3 L-1,1 L0,1 Z " fill="#45DE9E" transform="translate(42,33)"/>
<path d="M0,0 L3,0 L3,4 L0,4 L0,3 L-1,3 L-1,1 L0,1 Z " fill="#4AE3A2" transform="translate(8,56)"/>
<path d="M0,0 L1,0 L1,1 L2,1 L2,4 L1,4 L1,6 L0,6 L0,7 L-1,7 L-1,3 L0,3 Z " fill="#3ED997" transform="translate(12,46)"/>
<path d="M0,0 L3,0 L3,1 L4,1 L4,2 L3,2 L3,3 L1,3 L1,1 L0,1 Z M6,1 L7,1 L7,2 L6,2 Z " fill="#2CC987" transform="translate(39,31)"/>
<path d="M0,0 L1,0 L1,1 L2,1 L2,4 L-2,4 L-2,2 L-1,2 L-1,1 L0,1 Z " fill="#52EAAA" transform="translate(37,30)"/>
<path d="M0,0 L1,0 L1,1 L0,1 Z " fill="#343440" opacity="0.8862745" transform="translate(63,50)"/>
<path d="M0,0 L1,0 L1,1 L0,1 Z M-2,4 L-1,4 L-1,5 L-2,5 Z " fill="#33CF8E" transform="translate(14,48)"/>
<path d="M0,0 L1,0 L1,1 L0,1 Z M-2,3 L-1,3 L-1,4 L-2,4 Z " fill="#30CC8B" transform="translate(14,50)"/>
<path d="M0,0 L2,0 L2,1 L0,1 Z M-1,1 L0,1 L0,4 L-1,4 Z M-4,4 L-2,4 L-2,5 L-4,5 Z " fill="#2BC987" transform="translate(19,37)"/>
<path d="M0,0 L1,0 L1,1 L0,1 Z M-1,2 L0,2 L0,3 L-1,3 Z M-3,4 L-2,4 L-2,6 L-3,6 Z " fill="#2BC986" transform="translate(20,36)"/>
<path d="M0,0 L3,0 L3,1 L4,1 L4,4 L3,4 L3,5 L2,5 L2,1 L0,1 Z " fill="#3BD694" transform="translate(9,55)"/>
<path d="M0,0 L3,0 L3,1 L1,1 L1,4 L-1,4 L-1,1 L0,1 Z " fill="#55ECAC" transform="translate(6,45)"/>
<path d="M0,0 L2,0 L2,1 L0,1 Z M2,1 L4,1 L4,3 L6,3 L6,4 L3,4 L3,2 L2,2 Z " fill="#2BC886" transform="translate(51,50)"/>
<path d="M0,0 L1,0 L1,1 L0,1 Z " fill="#343440" opacity="0.9607843" transform="translate(63,59)"/>
<path d="M0,0 L1,0 L1,1 L0,1 Z " fill="#343441" opacity="0.8627451" transform="translate(1,47)"/>
<path d="M0,0 L4,0 L4,2 L0,2 Z " fill="#36D290" transform="translate(35,34)"/>
<path d="M0,0 L3,0 L3,1 L4,1 L4,3 L2,3 L2,2 L1,2 L1,1 L0,1 Z " fill="#51E9A9" transform="translate(44,33)"/>
<path d="M0,0 L1,0 L1,1 L0,1 Z " fill="#343441" opacity="0.9882353" transform="translate(25,25)"/>
<path d="M0,0 L1,0 L1,1 L0,1 Z M-1,1 L0,1 L0,3 L-1,3 L-1,5 L-2,5 L-2,2 L-1,2 Z " fill="#2CC987" transform="translate(15,36)"/>
<path d="M0,0 L1,0 L1,1 L0,1 Z " fill="#343440" opacity="0.9019608" transform="translate(13,30)"/>
<path d="M0,0 L1,0 L1,4 L-2,4 L-2,3 L0,3 Z " fill="#41DC9B" transform="translate(10,56)"/>
<path d="M0,0 L2,0 L2,1 L1,1 L1,4 L0,4 Z " fill="#51E9A9" transform="translate(7,46)"/>
<path d="M0,0 L1,0 L1,1 L0,1 Z " fill="#343441" opacity="0.9882353" transform="translate(58,44)"/>
<path d="M0,0 L1,0 L1,1 L0,1 Z " fill="#2BC987" opacity="0.9882353" transform="translate(14,44)"/>
<path d="M0,0 L1,0 L1,1 L0,1 Z " fill="#353541" opacity="0.9254902" transform="translate(4,42)"/>
<path d="M0,0 L1,0 L1,1 L0,1 Z " fill="#343440" opacity="0.9764706" transform="translate(52,39)"/>
<path d="M0,0 L1,0 L1,1 L0,1 Z M-1,1 L0,1 L0,2 L-1,2 Z M-2,2 L-1,2 L-1,3 L-2,3 Z " fill="#2CC987" transform="translate(22,31)"/>
<path d="M0,0 L1,0 L1,1 L0,1 Z " fill="#343440" opacity="0.9607843" transform="translate(44,28)"/>
<path d="M0,0 L1,0 L1,2 L0,2 L0,3 L-2,3 L-2,2 L-1,2 L-1,1 L0,1 Z " fill="#47E09F" transform="translate(9,48)"/>
<path d="M0,0 L1,0 L1,3 L0,3 L0,4 L-1,4 L-1,2 L0,2 Z " fill="#42DC9B" transform="translate(11,46)"/>
<path d="M0,0 L3,0 L3,2 L2,2 L2,1 L0,1 Z " fill="#2CC987" transform="translate(11,45)"/>
<path d="M0,0 L1,0 L1,1 L0,1 Z " fill="#353540" opacity="0.50980395" transform="translate(8,39)"/>
<path d="M0,0 L1,0 L1,1 L2,1 L2,2 L3,2 L3,3 L1,3 L1,2 L0,2 Z " fill="#32CE8D" transform="translate(39,38)"/>
<path d="M0,0 L1,0 L1,1 L0,1 Z M1,1 L2,1 L2,2 L1,2 Z M2,2 L3,2 L3,3 L2,3 Z M3,3 L5,3 L5,4 L3,4 Z " fill="#39D492" transform="translate(40,37)"/>
<path d="M0,0 L1,0 L1,2 L0,2 Z M1,2 L2,2 L2,3 L1,3 Z M2,3 L3,3 L3,4 L2,4 Z M3,4 L4,4 L4,5 L3,5 Z " fill="#3BD695" transform="translate(40,35)"/>
<path d="M0,0 L1,0 L1,1 L0,1 Z M1,1 L2,1 L2,2 L1,2 Z " fill="#2ECB89" transform="translate(37,36)"/>
<path d="M0,0 L1,0 L1,1 L0,1 Z M2,2 L3,2 L3,3 L2,3 Z " fill="#2DCA88" transform="translate(36,36)"/>
<path d="M0,0 L1,0 L1,2 L0,2 Z M1,2 L2,2 L2,3 L1,3 Z M2,3 L3,3 L3,4 L2,4 Z M3,4 L4,4 L4,5 L3,5 Z " fill="#42DC9B" transform="translate(41,34)"/>
<path d="M0,0 L1,0 L1,2 L0,2 Z M1,2 L2,2 L2,3 L1,3 Z M2,3 L3,3 L3,4 L2,4 Z M3,4 L4,4 L4,5 L3,5 Z " fill="#48E1A0" transform="translate(42,33)"/>
<path d="M0,0 L1,0 L1,2 L2,2 L2,3 L1,3 L1,4 L0,4 Z " fill="#2FCB8A" transform="translate(39,32)"/>
<path d="M0,0 L1,0 L1,1 L4,1 L4,2 L0,2 Z " fill="#41DB9A" transform="translate(35,32)"/>
<path d="M0,0 L1,0 L1,1 L0,1 Z " fill="#2BC986" opacity="0.9607843" transform="translate(59,59)"/>
<path d="M0,0 L2,0 L2,2 L0,2 Z " fill="#51E9A9" transform="translate(7,57)"/>
<path d="M0,0 L1,0 L1,1 L0,1 Z " fill="#2BC986" opacity="0.9607843" transform="translate(4,55)"/>
<path d="M0,0 L1,0 L1,1 L0,1 Z " fill="#343440" opacity="0.7607843" transform="translate(0,53)"/>
<path d="M0,0 L1,0 L1,2 L0,2 L0,3 L-1,3 L-1,1 L0,1 Z " fill="#37D391" transform="translate(12,50)"/>
<path d="M0,0 L2,0 L2,1 L0,1 Z M2,1 L4,1 L4,2 L2,2 Z " fill="#2BC887" transform="translate(51,50)"/>
<path d="M0,0 L1,0 L1,1 L0,1 Z " fill="#333340" opacity="0.29411766" transform="translate(63,48)"/>
<path d="M0,0 L3,0 L3,1 L1,1 L1,2 L0,2 Z " fill="#2CC987" transform="translate(53,46)"/>
<path d="M0,0 L2,0 L2,1 L0,1 Z M-1,1 L0,1 L0,3 L-1,3 Z " fill="#343541" transform="translate(53,45)"/>
<path d="M0,0 L4,0 L4,1 L0,1 Z " fill="#42A781" opacity="0.9490196" transform="translate(6,45)"/>
<path d="M0,0 L1,0 L1,1 L0,1 Z " fill="#343440" opacity="0.45490196" transform="translate(1,45)"/>
<path d="M0,0 L1,0 L1,1 L0,1 Z " fill="#2AC786" opacity="0.9137255" transform="translate(49,44)"/>
<path d="M0,0 L1,0 L1,1 L0,1 Z " fill="#343440" opacity="0.7294118" transform="translate(10,35)"/>
<path d="M0,0 L1,0 L1,2 L0,2 Z M1,2 L2,2 L2,3 L1,3 Z M2,3 L3,3 L3,4 L2,4 Z " fill="#4BE4A3" transform="translate(43,33)"/>
<path d="M0,0 L4,0 L4,1 L0,1 Z " fill="#3FDA98" transform="translate(35,34)"/>
<path d="M0,0 L1,0 L1,1 L0,1 Z M-1,1 L0,1 L0,2 L-1,2 Z M-2,2 L-1,2 L-1,3 L-2,3 Z " fill="#353541" transform="translate(14,30)"/>
<path d="M0,0 L1,0 L1,1 L0,1 Z " fill="#2BC685" opacity="0.8862745" transform="translate(30,28)"/>
<path d="M0,0 L1,0 L1,1 L0,1 Z " fill="#353540" opacity="0.7764706" transform="translate(20,27)"/>
<path d="M0,0 L1,0 L1,1 L0,1 Z " fill="#343440" opacity="0.7294118" transform="translate(28,24)"/>
<path d="M0,0 L1,0 L1,1 L0,1 Z " fill="#333340" opacity="0.37254903" transform="translate(0,60)"/>
<path d="M0,0 L1,0 L1,3 L0,3 Z " fill="#34D08E" transform="translate(12,56)"/>
<path d="M0,0 L3,0 L3,1 L0,1 Z " fill="#39D492" transform="translate(9,55)"/>
<path d="M0,0 L1,0 L1,1 L0,1 Z " fill="#353540" opacity="0.05882353" transform="translate(63,54)"/>
<path d="M0,0 L1,0 L1,3 L0,3 Z " fill="#2CBC80" transform="translate(55,47)"/>
<path d="M0,0 L1,0 L1,3 L0,3 Z " fill="#38D392" transform="translate(13,47)"/>
<path d="M0,0 L1,0 L1,3 L0,3 Z " fill="#4CAD88" transform="translate(5,46)"/>
<path d="M0,0 L1,0 L1,1 L0,1 Z " fill="#2BC986" opacity="0.9764706" transform="translate(49,46)"/>
<path d="M0,0 L1,0 L1,2 L-1,2 L-1,1 L0,1 Z " fill="#2E8767" opacity="0.99215686" transform="translate(15,36)"/>
<path d="M0,0 L2,0 L2,2 L1,2 L1,1 L0,1 Z " fill="#54ECAB" transform="translate(45,33)"/>
<path d="M0,0 L3,0 L3,1 L0,1 Z " fill="#2F8566" transform="translate(15,33)"/>
<path d="M0,0 L1,0 L1,1 L0,1 Z " fill="#343441" opacity="0.95686275" transform="translate(49,30)"/>
<path d="M0,0 L1,0 L1,1 L0,1 Z " fill="#333340" opacity="0.61960787" transform="translate(16,29)"/>
<path d="M0,0 L1,0 L1,1 L0,1 Z " fill="#2DB47C" opacity="0.78039217" transform="translate(35,28)"/>
<path d="M0,0 L2,0 L2,1 L0,1 Z " fill="#2BC986" opacity="0.9607843" transform="translate(31,28)"/>
<path d="M0,0 L1,0 L1,1 L0,1 Z " fill="#353540" opacity="0.6039216" transform="translate(63,63)"/>
<path d="M0,0 L1,0 L1,1 L0,1 Z " fill="#324C4C" opacity="0.88235295" transform="translate(4,60)"/>
<path d="M0,0 L2,0 L2,1 L0,1 Z " fill="#42DC9B" transform="translate(8,59)"/>
<path d="M0,0 L1,0 L1,2 L0,2 Z " fill="#4DE5A5" transform="translate(7,57)"/>
<path d="M0,0 L1,0 L1,1 L0,1 Z " fill="#333340" opacity="0.77254903" transform="translate(63,57)"/>
<path d="M0,0 L1,0 L1,1 L0,1 Z " fill="#2BBB80" opacity="0.80784315" transform="translate(59,57)"/>
<path d="M0,0 L2,0 L2,1 L0,1 Z " fill="#47E09F" transform="translate(8,56)"/>
<path d="M0,0 L1,0 L1,1 L0,1 Z " fill="#343441" opacity="0.95686275" transform="translate(0,55)"/>
<path d="M0,0 L1,0 L1,1 L0,1 Z " fill="#353540" opacity="0.9843137" transform="translate(62,54)"/>
<path d="M0,0 L2,0 L2,1 L0,1 Z " fill="#2CC987" transform="translate(10,54)"/>
<path d="M0,0 L2,0 L2,1 L0,1 Z " fill="#33CF8D" transform="translate(10,53)"/>
<path d="M0,0 L1,0 L1,1 L0,1 Z " fill="#2CBD81" opacity="0.8117647" transform="translate(4,53)"/>
<path d="M0,0 L2,0 L2,1 L0,1 Z " fill="#3BD694" transform="translate(9,52)"/>
<path d="M0,0 L1,0 L1,2 L0,2 Z " fill="#307D62" transform="translate(59,50)"/>
<path d="M0,0 L1,0 L1,2 L0,2 Z " fill="#32CE8C" transform="translate(13,50)"/>
<path d="M0,0 L1,0 L1,2 L0,2 Z " fill="#36D190" transform="translate(12,50)"/>
<path d="M0,0 L1,0 L1,2 L0,2 Z " fill="#3DD896" transform="translate(10,50)"/>
<path d="M0,0 L2,0 L2,1 L0,1 Z " fill="#45DE9D" transform="translate(7,51)"/>
<path d="M0,0 L1,0 L1,1 L0,1 Z " fill="#2CC987" transform="translate(5,51)"/>
<path d="M0,0 L1,0 L1,1 L0,1 Z " fill="#343440" opacity="0.3254902" transform="translate(0,51)"/>
<path d="M0,0 L1,0 L1,2 L0,2 Z " fill="#3BD695" transform="translate(11,49)"/>
<path d="M0,0 L2,0 L2,1 L0,1 Z " fill="#2E8B69" transform="translate(57,49)"/>
<path d="M0,0 L1,0 L1,2 L0,2 Z " fill="#41DB9A" transform="translate(10,48)"/>
<path d="M0,0 L1,0 L1,2 L0,2 Z " fill="#45DF9E" transform="translate(9,48)"/>
<path d="M0,0 L1,0 L1,1 L0,1 Z " fill="#4DE5A5" transform="translate(7,49)"/>
<path d="M0,0 L1,0 L1,1 L0,1 Z " fill="#2D946D" opacity="0.7529412" transform="translate(51,48)"/>
<path d="M0,0 L1,0 L1,1 L0,1 Z " fill="#353540" opacity="0.75686276" transform="translate(62,47)"/>
<path d="M0,0 L1,0 L1,2 L0,2 Z " fill="#46DF9E" transform="translate(10,46)"/>
<path d="M0,0 L1,0 L1,2 L0,2 Z " fill="#4AE3A2" transform="translate(9,46)"/>
<path d="M0,0 L1,0 L1,1 L0,1 Z " fill="#35353D" opacity="0.003921569" transform="translate(61,45)"/>
<path d="M0,0 L1,0 L1,1 L0,1 Z " fill="#2ECB89" transform="translate(11,45)"/>
<path d="M0,0 L2,0 L2,1 L0,1 Z " fill="#48A281" transform="translate(6,45)"/>
<path d="M0,0 L1,0 L1,1 L0,1 Z " fill="#2BBA7F" opacity="0.8039216" transform="translate(13,44)"/>
<path d="M0,0 L1,0 L1,1 L0,1 Z " fill="#353540" opacity="0.87058824" transform="translate(2,44)"/>
<path d="M0,0 L1,0 L1,1 L0,1 Z " fill="#2CB07B" opacity="0.77254903" transform="translate(49,42)"/>
<path d="M0,0 L1,0 L1,1 L0,1 Z " fill="#2CAB78" opacity="0.7647059" transform="translate(14,42)"/>
<path d="M0,0 L1,0 L1,1 L0,1 Z " fill="#363640" opacity="0.011764706" transform="translate(55,41)"/>
<path d="M0,0 L2,0 L2,1 L0,1 Z " fill="#32CE8C" transform="translate(42,41)"/>
<path d="M0,0 L2,0 L2,1 L0,1 Z " fill="#2BC987" transform="translate(15,41)"/>
<path d="M0,0 L1,0 L1,1 L0,1 Z " fill="#353541" opacity="0.6784314" transform="translate(7,41)"/>
<path d="M0,0 L1,0 L1,1 L0,1 Z " fill="#33333F" opacity="0.33333334" transform="translate(5,41)"/>
<path d="M0,0 L1,0 L1,1 L0,1 Z " fill="#343440" opacity="0.3254902" transform="translate(53,40)"/>
<path d="M0,0 L1,0 L1,2 L0,2 Z " fill="#2BC987" transform="translate(18,39)"/>
<path d="M0,0 L1,0 L1,2 L0,2 Z " fill="#343F46" transform="translate(12,39)"/>
<path d="M0,0 L1,0 L1,1 L0,1 Z " fill="#2AC082" opacity="0.84313726" transform="translate(48,39)"/>
<path d="M0,0 L1,0 L1,1 L0,1 Z M1,1 L2,1 L2,2 L1,2 Z " fill="#2FCC8A" transform="translate(39,39)"/>
<path d="M0,0 L1,0 L1,1 L0,1 Z " fill="#353540" opacity="0.28235295" transform="translate(52,37)"/>
<path d="M0,0 L1,0 L1,1 L0,1 Z " fill="#31CB8B" opacity="0.89411765" transform="translate(47,37)"/>
<path d="M0,0 L1,0 L1,1 L0,1 Z " fill="#34343F" opacity="0.28627452" transform="translate(8,37)"/>
<path d="M0,0 L1,0 L1,1 L0,1 Z " fill="#353541" opacity="0.9254902" transform="translate(51,36)"/>
<path d="M0,0 L1,0 L1,2 L0,2 Z " fill="#4DC594" transform="translate(47,34)"/>
<path d="M0,0 L2,0 L2,1 L0,1 Z " fill="#35D18F" transform="translate(35,35)"/>
<path d="M0,0 L1,0 L1,2 L0,2 Z " fill="#2BC183" transform="translate(15,34)"/>
<path d="M0,0 L1,0 L1,2 L0,2 Z " fill="#343741" transform="translate(14,34)"/>
<path d="M0,0 L2,0 L2,1 L0,1 Z " fill="#3CD795" transform="translate(35,34)"/>
<path d="M0,0 L1,0 L1,2 L0,2 Z " fill="#31CD8C" transform="translate(34,33)"/>
<path d="M0,0 L1,0 L1,1 L0,1 Z " fill="#2BC986" transform="translate(19,34)"/>
<path d="M0,0 L1,0 L1,1 L0,1 Z " fill="#313140" opacity="0.14117648" transform="translate(10,34)"/>
<path d="M0,0 L1,0 L1,2 L0,2 Z " fill="#31CD8C" transform="translate(39,32)"/>
<path d="M0,0 L2,0 L2,1 L0,1 Z " fill="#46E09F" transform="translate(37,33)"/>
<path d="M0,0 L1,0 L1,1 L0,1 Z " fill="#343440" opacity="0.60784316" transform="translate(51,32)"/>
<path d="M0,0 L1,0 L1,1 L0,1 Z " fill="#448871" transform="translate(45,32)"/>
<path d="M0,0 L2,0 L2,1 L0,1 Z " fill="#4BE4A3" transform="translate(36,32)"/>
<path d="M0,0 L1,0 L1,1 L0,1 Z " fill="#343441" opacity="0.7254902" transform="translate(11,32)"/>
<path d="M0,0 L2,0 L2,1 L0,1 Z " fill="#2CC987" transform="translate(38,30)"/>
<path d="M0,0 L1,0 L1,1 L0,1 Z " fill="#2AC284" opacity="0.8509804" transform="translate(25,29)"/>
<path d="M0,0 L1,0 L1,1 L0,1 Z " fill="#34343F" opacity="0.45882353" transform="translate(14,29)"/>
<path d="M0,0 L1,0 L1,1 L0,1 Z " fill="#2BB47C" opacity="0.78039217" transform="translate(28,28)"/>
<path d="M0,0 L1,0 L1,1 L0,1 Z " fill="#343441" opacity="0.972549" transform="translate(19,28)"/>
<path d="M0,0 L1,0 L1,1 L0,1 Z " fill="#333340" opacity="0.007843138" transform="translate(43,26)"/>
<path d="M0,0 L1,0 L1,1 L0,1 Z " fill="#333340" opacity="0.39215687" transform="translate(21,26)"/>
<path d="M0,0 L1,0 L1,1 L0,1 Z " fill="#33333F" opacity="0.015686275" transform="translate(41,25)"/>
<path d="M0,0 L1,0 L1,1 L0,1 Z " fill="#353540" opacity="0.35686275" transform="translate(23,25)"/>
<path d="M0,0 L1,0 L1,1 L0,1 Z " fill="#33333F" opacity="0.06666667" transform="translate(38,24)"/>
<path d="M0,0 L1,0 L1,1 L0,1 Z " fill="#333340" opacity="0.54509807" transform="translate(36,24)"/>
<path d="M0,0 L1,0 L1,1 L0,1 Z " fill="#343440" opacity="0.92156863" transform="translate(30,24)"/>
<path d="M0,0 L1,0 L1,1 L0,1 Z " fill="#33333F" opacity="0.34901962" transform="translate(26,24)"/>
<path d="M0,0 L1,0 L1,1 L0,1 Z " fill="#2D916C" opacity="0.7529412" transform="translate(59,63)"/>
<path d="M0,0 L1,0 L1,1 L0,1 Z " fill="#306C5B" opacity="0.7921569" transform="translate(6,63)"/>
<path d="M0,0 L1,0 L1,1 L0,1 Z " fill="#343441" opacity="0.9882353" transform="translate(2,63)"/>
<path d="M0,0 L1,0 L1,1 L0,1 Z " fill="#333341" opacity="0.13725491" transform="translate(1,63)"/>
<path d="M0,0 L1,0 L1,1 L0,1 Z " fill="#353540" opacity="0.7176471" transform="translate(63,62)"/>
<path d="M0,0 L1,0 L1,1 L0,1 Z " fill="#2BBA7F" opacity="0.8039216" transform="translate(59,62)"/>
<path d="M0,0 L1,0 L1,1 L0,1 Z " fill="#2BC886" opacity="0.9411765" transform="translate(6,62)"/>
<path d="M0,0 L1,0 L1,1 L0,1 Z " fill="#32484A" opacity="0.89411765" transform="translate(5,62)"/>
<path d="M0,0 L1,0 L1,1 L0,1 Z " fill="#343441" opacity="0.6313726" transform="translate(1,62)"/>
<path d="M0,0 L1,0 L1,1 L0,1 Z " fill="#353541" opacity="0.83137256" transform="translate(63,61)"/>
<path d="M0,0 L1,0 L1,1 L0,1 Z " fill="#2AC685" opacity="0.89411765" transform="translate(59,61)"/>
<path d="M0,0 L1,0 L1,1 L0,1 Z " fill="#2CAF7A" opacity="0.76862746" transform="translate(5,61)"/>
<path d="M0,0 L1,0 L1,1 L0,1 Z " fill="#343440" opacity="0.9764706" transform="translate(1,61)"/>
<path d="M0,0 L1,0 L1,1 L0,1 Z " fill="#333340" opacity="0.0627451" transform="translate(0,61)"/>
<path d="M0,0 L1,0 L1,1 L0,1 Z " fill="#353540" opacity="0.94509804" transform="translate(63,60)"/>
<path d="M0,0 L1,0 L1,1 L0,1 Z " fill="#2BC887" opacity="0.9647059" transform="translate(59,60)"/>
<path d="M0,0 L1,0 L1,1 L0,1 Z " fill="#2BC986" opacity="0.99215686" transform="translate(5,60)"/>
<path d="M0,0 L1,0 L1,1 L0,1 Z " fill="#2FCB89" transform="translate(12,59)"/>
<path d="M0,0 L1,0 L1,1 L0,1 Z " fill="#35D190" transform="translate(11,59)"/>
<path d="M0,0 L1,0 L1,1 L0,1 Z " fill="#3BD695" transform="translate(10,59)"/>
<path d="M0,0 L1,0 L1,1 L0,1 Z " fill="#44DE9D" transform="translate(8,59)"/>
<path d="M0,0 L1,0 L1,1 L0,1 Z " fill="#31CE8C" transform="translate(7,59)"/>
<path d="M0,0 L1,0 L1,1 L0,1 Z " fill="#2E8E6C" opacity="0.7529412" transform="translate(4,59)"/>
<path d="M0,0 L1,0 L1,1 L0,1 Z " fill="#343440" opacity="0.6117647" transform="translate(0,59)"/>
<path d="M0,0 L1,0 L1,1 L0,1 Z " fill="#343441" opacity="0.8627451" transform="translate(63,58)"/>
<path d="M0,0 L1,0 L1,1 L0,1 Z " fill="#2AC485" opacity="0.88235295" transform="translate(59,58)"/>
<path d="M0,0 L1,0 L1,1 L0,1 Z " fill="#2DC988" transform="translate(13,58)"/>
<path d="M0,0 L1,0 L1,1 L0,1 Z " fill="#36D190" transform="translate(12,58)"/>
<path d="M0,0 L1,0 L1,1 L0,1 Z " fill="#3CD796" transform="translate(11,58)"/>
<path d="M0,0 L1,0 L1,1 L0,1 Z " fill="#43DD9C" transform="translate(10,58)"/>
<path d="M0,0 L1,0 L1,1 L0,1 Z " fill="#2BBB80" opacity="0.80784315" transform="translate(4,58)"/>
<path d="M0,0 L1,0 L1,1 L0,1 Z " fill="#343440" opacity="0.80784315" transform="translate(0,58)"/>
<path d="M0,0 L1,0 L1,1 L0,1 Z " fill="#48E1A1" transform="translate(9,57)"/>
<path d="M0,0 L1,0 L1,1 L0,1 Z " fill="#4FE7A7" transform="translate(8,57)"/>
<path d="M0,0 L1,0 L1,1 L0,1 Z " fill="#49E2A1" transform="translate(7,57)"/>
<path d="M0,0 L1,0 L1,1 L0,1 Z " fill="#2AC585" opacity="0.89411765" transform="translate(4,57)"/>
<path d="M0,0 L1,0 L1,1 L0,1 Z " fill="#343440" opacity="0.91764706" transform="translate(0,57)"/>
<path d="M0,0 L1,0 L1,1 L0,1 Z " fill="#343441" opacity="0.6156863" transform="translate(63,56)"/>
<path d="M0,0 L1,0 L1,1 L0,1 Z " fill="#2D8C6A" opacity="0.75686276" transform="translate(59,56)"/>
<path d="M0,0 L1,0 L1,1 L0,1 Z " fill="#32CE8C" transform="translate(12,56)"/>
<path d="M0,0 L1,0 L1,1 L0,1 Z " fill="#39D493" transform="translate(11,56)"/>
<path d="M0,0 L1,0 L1,1 L0,1 Z " fill="#40DA99" transform="translate(10,56)"/>
<path d="M0,0 L1,0 L1,1 L0,1 Z " fill="#45DF9E" transform="translate(8,56)"/>
<path d="M0,0 L1,0 L1,1 L0,1 Z " fill="#2FCC8A" transform="translate(7,56)"/>
<path d="M0,0 L1,0 L1,1 L0,1 Z " fill="#2BC887" opacity="0.9647059" transform="translate(4,56)"/>
<path d="M0,0 L1,0 L1,1 L0,1 Z " fill="#343440" opacity="0.9764706" transform="translate(0,56)"/>
<path d="M0,0 L1,0 L1,1 L0,1 Z " fill="#343440" opacity="0.3254902" transform="translate(63,55)"/>
<path d="M0,0 L1,0 L1,1 L0,1 Z " fill="#324C4C" opacity="0.88235295" transform="translate(59,55)"/>
<path d="M0,0 L1,0 L1,1 L0,1 Z " fill="#2BC987" opacity="0.99607843" transform="translate(58,55)"/>
<path d="M0,0 L1,0 L1,1 L0,1 Z " fill="#2ECA89" transform="translate(12,55)"/>
<path d="M0,0 L1,0 L1,1 L0,1 Z " fill="#35D08F" transform="translate(11,55)"/>
<path d="M0,0 L1,0 L1,1 L0,1 Z " fill="#35D08F" transform="translate(9,55)"/>
<path d="M0,0 L1,0 L1,1 L0,1 Z " fill="#2CAD79" opacity="0.76862746" transform="translate(58,54)"/>
<path d="M0,0 L1,0 L1,1 L0,1 Z " fill="#2AC586" opacity="0.8901961" transform="translate(4,54)"/>
<path d="M0,0 L1,0 L1,1 L0,1 Z " fill="#343440" opacity="0.85882354" transform="translate(0,54)"/>
<path d="M0,0 L1,0 L1,1 L0,1 Z " fill="#353540" opacity="0.07450981" transform="translate(63,53)"/>
<path d="M0,0 L1,0 L1,1 L0,1 Z " fill="#343440" opacity="0.9607843" transform="translate(62,53)"/>
<path d="M0,0 L1,0 L1,1 L0,1 Z " fill="#324A4A" opacity="0.9019608" transform="translate(58,53)"/>
<path d="M0,0 L1,0 L1,1 L0,1 Z " fill="#2BCA86" opacity="0.9764706" transform="translate(57,53)"/>
<path d="M0,0 L1,0 L1,1 L0,1 Z " fill="#2BC986" transform="translate(56,53)"/>
<path d="M0,0 L1,0 L1,1 L0,1 Z " fill="#2CC886" transform="translate(55,53)"/>
<path d="M0,0 L1,0 L1,1 L0,1 Z " fill="#32CE8D" transform="translate(10,53)"/>
<path d="M0,0 L1,0 L1,1 L0,1 Z " fill="#2DCA88" transform="translate(9,53)"/>
<path d="M0,0 L1,0 L1,1 L0,1 Z " fill="#353540" opacity="0.50980395" transform="translate(63,52)"/>
<path d="M0,0 L1,0 L1,1 L0,1 Z " fill="#343842" transform="translate(59,52)"/>
<path d="M0,0 L1,0 L1,1 L0,1 Z " fill="#2E9D72" transform="translate(58,52)"/>
<path d="M0,0 L1,0 L1,1 L0,1 Z " fill="#2BC986" transform="translate(54,52)"/>
<path d="M0,0 L1,0 L1,1 L0,1 Z " fill="#30CC8A" transform="translate(13,52)"/>
<path d="M0,0 L1,0 L1,1 L0,1 Z " fill="#33CF8E" transform="translate(12,52)"/>
<path d="M0,0 L1,0 L1,1 L0,1 Z " fill="#3CD796" transform="translate(9,52)"/>
<path d="M0,0 L1,0 L1,1 L0,1 Z " fill="#31CD8C" transform="translate(8,52)"/>
<path d="M0,0 L1,0 L1,1 L0,1 Z " fill="#2D906C" opacity="0.7529412" transform="translate(4,52)"/>
<path d="M0,0 L1,0 L1,1 L0,1 Z " fill="#343441" opacity="0.6313726" transform="translate(0,52)"/>
<path d="M0,0 L1,0 L1,1 L0,1 Z " fill="#353540" opacity="0.7921569" transform="translate(63,51)"/>
<path d="M0,0 L1,0 L1,1 L0,1 Z " fill="#2ECB89" transform="translate(14,51)"/>
<path d="M0,0 L1,0 L1,1 L0,1 Z " fill="#39D493" transform="translate(11,51)"/>
<path d="M0,0 L1,0 L1,1 L0,1 Z " fill="#38D492" transform="translate(7,51)"/>
<path d="M0,0 L1,0 L1,1 L0,1 Z " fill="#314E4E" opacity="0.87058824" transform="translate(4,51)"/>
<path d="M0,0 L1,0 L1,1 L0,1 Z " fill="#2E9970" transform="translate(59,50)"/>
<path d="M0,0 L1,0 L1,1 L0,1 Z " fill="#30CC8B" transform="translate(14,50)"/>
<path d="M0,0 L1,0 L1,1 L0,1 Z " fill="#34D08E" transform="translate(13,50)"/>
<path d="M0,0 L1,0 L1,1 L0,1 Z " fill="#38D392" transform="translate(12,50)"/>
<path d="M0,0 L1,0 L1,1 L0,1 Z " fill="#3FDA98" transform="translate(10,50)"/>
<path d="M0,0 L1,0 L1,1 L0,1 Z " fill="#43DD9C" transform="translate(9,50)"/>
<path d="M0,0 L1,0 L1,1 L0,1 Z " fill="#4AE3A3" transform="translate(7,50)"/>
<path d="M0,0 L1,0 L1,1 L0,1 Z " fill="#39D593" transform="translate(6,50)"/>
<path d="M0,0 L1,0 L1,1 L0,1 Z " fill="#2DB57D" opacity="0.7764706" transform="translate(5,50)"/>
<path d="M0,0 L1,0 L1,1 L0,1 Z " fill="#343440" opacity="0.9607843" transform="translate(1,50)"/>
<path d="M0,0 L1,0 L1,1 L0,1 Z " fill="#343440" opacity="0.039215688" transform="translate(0,50)"/>
<path d="M0,0 L1,0 L1,1 L0,1 Z " fill="#343440" opacity="0.7294118" transform="translate(63,49)"/>
<path d="M0,0 L1,0 L1,1 L0,1 Z " fill="#334849" transform="translate(59,49)"/>
<path d="M0,0 L1,0 L1,1 L0,1 Z " fill="#2F8A69" transform="translate(57,49)"/>
<path d="M0,0 L1,0 L1,1 L0,1 Z " fill="#325B53" transform="translate(56,49)"/>
<path d="M0,0 L1,0 L1,1 L0,1 Z " fill="#2CBB80" transform="translate(55,49)"/>
<path d="M0,0 L1,0 L1,1 L0,1 Z " fill="#2CC886" transform="translate(51,49)"/>
<path d="M0,0 L1,0 L1,1 L0,1 Z " fill="#32CE8D" transform="translate(14,49)"/>
<path d="M0,0 L1,0 L1,1 L0,1 Z " fill="#36D290" transform="translate(13,49)"/>
<path d="M0,0 L1,0 L1,1 L0,1 Z " fill="#3AD594" transform="translate(12,49)"/>
<path d="M0,0 L1,0 L1,1 L0,1 Z " fill="#3ED897" transform="translate(11,49)"/>
<path d="M0,0 L1,0 L1,1 L0,1 Z " fill="#49E2A1" transform="translate(8,49)"/>
<path d="M0,0 L1,0 L1,1 L0,1 Z " fill="#4FE8A8" opacity="0.99607843" transform="translate(6,49)"/>
<path d="M0,0 L1,0 L1,1 L0,1 Z " fill="#376A5E" opacity="0.9019608" transform="translate(5,49)"/>
<path d="M0,0 L1,0 L1,1 L0,1 Z " fill="#353540" opacity="0.69803923" transform="translate(1,49)"/>
<path d="M0,0 L1,0 L1,1 L0,1 Z " fill="#2CB27B" opacity="0.98039216" transform="translate(52,48)"/>
<path d="M0,0 L1,0 L1,1 L0,1 Z " fill="#2ABA80" opacity="0.8" transform="translate(50,48)"/>
<path d="M0,0 L1,0 L1,1 L0,1 Z " fill="#2BC987" opacity="0.9882353" transform="translate(49,48)"/>
<path d="M0,0 L1,0 L1,1 L0,1 Z " fill="#3CD796" transform="translate(12,48)"/>
<path d="M0,0 L1,0 L1,1 L0,1 Z " fill="#40DA99" transform="translate(11,48)"/>
<path d="M0,0 L1,0 L1,1 L0,1 Z " fill="#44DD9C" transform="translate(10,48)"/>
<path d="M0,0 L1,0 L1,1 L0,1 Z " fill="#47E1A0" transform="translate(9,48)"/>
<path d="M0,0 L1,0 L1,1 L0,1 Z " fill="#4FE7A7" transform="translate(7,48)"/>
<path d="M0,0 L1,0 L1,1 L0,1 Z " fill="#53EAAA" transform="translate(6,48)"/>
<path d="M0,0 L1,0 L1,1 L0,1 Z " fill="#479A7D" transform="translate(5,48)"/>
<path d="M0,0 L1,0 L1,1 L0,1 Z " fill="#343440" opacity="0.78039217" transform="translate(1,48)"/>
<path d="M0,0 L1,0 L1,1 L0,1 Z " fill="#353540" opacity="0.003921569" transform="translate(63,47)"/>
<path d="M0,0 L1,0 L1,1 L0,1 Z " fill="#316C5A" transform="translate(52,47)"/>
<path d="M0,0 L1,0 L1,1 L0,1 Z " fill="#2BC885" opacity="0.92941177" transform="translate(49,47)"/>
<path d="M0,0 L1,0 L1,1 L0,1 Z " fill="#30CC8A" transform="translate(14,47)"/>
<path d="M0,0 L1,0 L1,1 L0,1 Z " fill="#39D493" transform="translate(13,47)"/>
<path d="M0,0 L1,0 L1,1 L0,1 Z " fill="#4DE6A5" transform="translate(8,47)"/>
<path d="M0,0 L1,0 L1,1 L0,1 Z " fill="#2E2E3A" opacity="0.08627451" transform="translate(62,46)"/>
<path d="M0,0 L1,0 L1,1 L0,1 Z " fill="#343440" opacity="0.7647059" transform="translate(61,46)"/>
<path d="M0,0 L1,0 L1,1 L0,1 Z " fill="#308365" transform="translate(55,46)"/>
<path d="M0,0 L1,0 L1,1 L0,1 Z " fill="#2E916C" transform="translate(53,46)"/>
<path d="M0,0 L1,0 L1,1 L0,1 Z " fill="#2ECB89" transform="translate(13,46)"/>
<path d="M0,0 L1,0 L1,1 L0,1 Z " fill="#38D392" transform="translate(12,46)"/>
<path d="M0,0 L1,0 L1,1 L0,1 Z " fill="#43DD9C" transform="translate(11,46)"/>
<path d="M0,0 L1,0 L1,1 L0,1 Z " fill="#48E1A0" transform="translate(10,46)"/>
<path d="M0,0 L1,0 L1,1 L0,1 Z " fill="#4CE4A4" transform="translate(9,46)"/>
<path d="M0,0 L1,0 L1,1 L0,1 Z " fill="#50E8A7" transform="translate(8,46)"/>
<path d="M0,0 L1,0 L1,1 L0,1 Z " fill="#53EBAB" transform="translate(7,46)"/>
<path d="M0,0 L1,0 L1,1 L0,1 Z " fill="#57EEAE" transform="translate(6,46)"/>
<path d="M0,0 L1,0 L1,1 L0,1 Z " fill="#427B6B" transform="translate(5,46)"/>
<path d="M0,0 L1,0 L1,1 L0,1 Z " fill="#343441" opacity="0.76862746" transform="translate(1,46)"/>
<path d="M0,0 L1,0 L1,1 L0,1 Z " fill="#35353D" opacity="0.24313726" transform="translate(60,45)"/>
<path d="M0,0 L1,0 L1,1 L0,1 Z " fill="#343440" opacity="0.72156864" transform="translate(59,45)"/>
<path d="M0,0 L1,0 L1,1 L0,1 Z " fill="#343F45" transform="translate(54,45)"/>
<path d="M0,0 L1,0 L1,1 L0,1 Z " fill="#2BC987" opacity="0.972549" transform="translate(49,45)"/>
<path d="M0,0 L1,0 L1,1 L0,1 Z " fill="#39C98D" opacity="0.8627451" transform="translate(10,45)"/>
<path d="M0,0 L1,0 L1,1 L0,1 Z " fill="#49B58A" transform="translate(8,45)"/>
<path d="M0,0 L1,0 L1,1 L0,1 Z " fill="#417667" transform="translate(6,45)"/>
<path d="M0,0 L1,0 L1,1 L0,1 Z " fill="#30303E" opacity="0.14509805" transform="translate(59,44)"/>
<path d="M0,0 L1,0 L1,1 L0,1 Z " fill="#2D956D" opacity="0.7529412" transform="translate(12,44)"/>
<path d="M0,0 L1,0 L1,1 L0,1 Z " fill="#324B4A" opacity="0.8862745" transform="translate(11,44)"/>
<path d="M0,0 L1,0 L1,1 L0,1 Z " fill="#353540" opacity="0.039215688" transform="translate(1,44)"/>
<path d="M0,0 L1,0 L1,1 L0,1 Z " fill="#33333F" opacity="0.42745098" transform="translate(58,43)"/>
<path d="M0,0 L1,0 L1,1 L0,1 Z " fill="#2BC484" opacity="0.85882354" transform="translate(49,43)"/>
<path d="M0,0 L1,0 L1,1 L0,1 Z " fill="#2CC283" opacity="0.8352941" transform="translate(14,43)"/>
<path d="M0,0 L1,0 L1,1 L0,1 Z " fill="#353541" transform="translate(3,43)"/>
<path d="M0,0 L1,0 L1,1 L0,1 Z " fill="#353540" opacity="0.2627451" transform="translate(2,43)"/>
<path d="M0,0 L1,0 L1,1 L0,1 Z " fill="#333341" opacity="0.2901961" transform="translate(57,42)"/>
<path d="M0,0 L1,0 L1,1 L0,1 Z " fill="#343440" opacity="0.74509805" transform="translate(56,42)"/>
<path d="M0,0 L1,0 L1,1 L0,1 Z " fill="#353540" opacity="0.9843137" transform="translate(55,42)"/>
<path d="M0,0 L1,0 L1,1 L0,1 Z " fill="#2CC987" transform="translate(15,42)"/>
<path d="M0,0 L1,0 L1,1 L0,1 Z " fill="#35353F" opacity="0.3019608" transform="translate(3,42)"/>
<path d="M0,0 L1,0 L1,1 L0,1 Z " fill="#363640" opacity="0.10980392" transform="translate(54,41)"/>
<path d="M0,0 L1,0 L1,1 L0,1 Z " fill="#343441" opacity="0.6313726" transform="translate(53,41)"/>
<path d="M0,0 L1,0 L1,1 L0,1 Z " fill="#2E8868" opacity="0.75686276" transform="translate(49,41)"/>
<path d="M0,0 L1,0 L1,1 L0,1 Z " fill="#2DCA88" transform="translate(44,41)"/>
<path d="M0,0 L1,0 L1,1 L0,1 Z " fill="#31CD8C" transform="translate(42,41)"/>
<path d="M0,0 L1,0 L1,1 L0,1 Z " fill="#2ECB89" transform="translate(41,41)"/>
<path d="M0,0 L1,0 L1,1 L0,1 Z " fill="#2C936E" opacity="0.78431374" transform="translate(14,41)"/>
<path d="M0,0 L1,0 L1,1 L0,1 Z " fill="#343440" opacity="0.827451" transform="translate(8,41)"/>
<path d="M0,0 L1,0 L1,1 L0,1 Z " fill="#343440" opacity="0.59607846" transform="translate(6,41)"/>
<path d="M0,0 L1,0 L1,1 L0,1 Z " fill="#33333F" opacity="0.047058824" transform="translate(4,41)"/>
<path d="M0,0 L1,0 L1,1 L0,1 Z " fill="#32524D" opacity="0.8627451" transform="translate(49,40)"/>
<path d="M0,0 L1,0 L1,1 L0,1 Z " fill="#2ECB89" transform="translate(45,40)"/>
<path d="M0,0 L1,0 L1,1 L0,1 Z " fill="#39D593" transform="translate(44,40)"/>
<path d="M0,0 L1,0 L1,1 L0,1 Z " fill="#2EA073" transform="translate(13,40)"/>
<path d="M0,0 L1,0 L1,1 L0,1 Z " fill="#333340" opacity="0.4862745" transform="translate(8,40)"/>
<path d="M0,0 L1,0 L1,1 L0,1 Z " fill="#343440" opacity="0.07058824" transform="translate(53,39)"/>
<path d="M0,0 L1,0 L1,1 L0,1 Z " fill="#2DCA88" transform="translate(46,39)"/>
<path d="M0,0 L1,0 L1,1 L0,1 Z " fill="#3ED897" transform="translate(45,39)"/>
<path d="M0,0 L1,0 L1,1 L0,1 Z " fill="#31735E" transform="translate(12,39)"/>
<path d="M0,0 L1,0 L1,1 L0,1 Z " fill="#343440" opacity="0.6666667" transform="translate(52,38)"/>
<path d="M0,0 L1,0 L1,1 L0,1 Z " fill="#2F7F63" opacity="0.7647059" transform="translate(48,38)"/>
<path d="M0,0 L1,0 L1,1 L0,1 Z " fill="#2CC987" transform="translate(47,38)"/>
<path d="M0,0 L1,0 L1,1 L0,1 Z " fill="#3DD897" transform="translate(46,38)"/>
<path d="M0,0 L1,0 L1,1 L0,1 Z " fill="#2BC986" transform="translate(19,38)"/>
<path d="M0,0 L1,0 L1,1 L0,1 Z " fill="#2CB57E" transform="translate(13,38)"/>
<path d="M0,0 L1,0 L1,1 L0,1 Z " fill="#33494A" transform="translate(12,38)"/>
<path d="M0,0 L1,0 L1,1 L0,1 Z " fill="#343441" opacity="0.49411765" transform="translate(8,38)"/>
<path d="M0,0 L1,0 L1,1 L0,1 Z " fill="#333642" opacity="0.9882353" transform="translate(48,37)"/>
<path d="M0,0 L1,0 L1,1 L0,1 Z " fill="#4AE3A2" transform="translate(46,37)"/>
<path d="M0,0 L1,0 L1,1 L0,1 Z " fill="#2BC886" transform="translate(16,37)"/>
<path d="M0,0 L1,0 L1,1 L0,1 Z " fill="#316658" transform="translate(14,37)"/>
<path d="M0,0 L1,0 L1,1 L0,1 Z " fill="#343A42" transform="translate(13,37)"/>
<path d="M0,0 L1,0 L1,1 L0,1 Z " fill="#353541" opacity="0.011764706" transform="translate(52,36)"/>
<path d="M0,0 L1,0 L1,1 L0,1 Z " fill="#46BE8E" opacity="0.91764706" transform="translate(47,36)"/>
<path d="M0,0 L1,0 L1,1 L0,1 Z " fill="#38D391" transform="translate(39,36)"/>
<path d="M0,0 L1,0 L1,1 L0,1 Z " fill="#2DC987" transform="translate(38,36)"/>
<path d="M0,0 L1,0 L1,1 L0,1 Z " fill="#2DCA88" transform="translate(36,36)"/>
<path d="M0,0 L1,0 L1,1 L0,1 Z " fill="#2BC986" transform="translate(20,36)"/>
<path d="M0,0 L1,0 L1,1 L0,1 Z " fill="#30745F" transform="translate(15,36)"/>
<path d="M0,0 L1,0 L1,1 L0,1 Z " fill="#343441" opacity="0.7529412" transform="translate(9,36)"/>
<path d="M0,0 L1,0 L1,1 L0,1 Z " fill="#343441" opacity="0.011764706" transform="translate(8,36)"/>
<path d="M0,0 L1,0 L1,1 L0,1 Z " fill="#343440" opacity="0.92156863" transform="translate(51,35)"/>
<path d="M0,0 L1,0 L1,1 L0,1 Z " fill="#3DD896" transform="translate(40,35)"/>
<path d="M0,0 L1,0 L1,1 L0,1 Z " fill="#2FCC8A" transform="translate(39,35)"/>
<path d="M0,0 L1,0 L1,1 L0,1 Z " fill="#37D291" transform="translate(37,35)"/>
<path d="M0,0 L1,0 L1,1 L0,1 Z " fill="#33CF8D" transform="translate(35,35)"/>
<path d="M0,0 L1,0 L1,1 L0,1 Z " fill="#2DCA88" transform="translate(34,35)"/>
<path d="M0,0 L1,0 L1,1 L0,1 Z " fill="#2BC987" transform="translate(19,35)"/>
<path d="M0,0 L1,0 L1,1 L0,1 Z " fill="#343440" opacity="0.07450981" transform="translate(9,35)"/>
<path d="M0,0 L1,0 L1,1 L0,1 Z " fill="#343441" opacity="0.003921569" transform="translate(52,34)"/>
<path d="M0,0 L1,0 L1,1 L0,1 Z " fill="#343441" opacity="0.9882353" transform="translate(51,34)"/>
<path d="M0,0 L1,0 L1,1 L0,1 Z " fill="#51CD9A" transform="translate(47,34)"/>
<path d="M0,0 L1,0 L1,1 L0,1 Z " fill="#41DB9A" transform="translate(41,34)"/>
<path d="M0,0 L1,0 L1,1 L0,1 Z " fill="#2DCA88" transform="translate(39,34)"/>
<path d="M0,0 L1,0 L1,1 L0,1 Z " fill="#3DD897" transform="translate(37,34)"/>
<path d="M0,0 L1,0 L1,1 L0,1 Z " fill="#3AD593" transform="translate(35,34)"/>
<path d="M0,0 L1,0 L1,1 L0,1 Z " fill="#2AC685" opacity="0.94509804" transform="translate(18,34)"/>
<path d="M0,0 L1,0 L1,1 L0,1 Z " fill="#2CC987" transform="translate(16,34)"/>
<path d="M0,0 L1,0 L1,1 L0,1 Z " fill="#2BC584" transform="translate(15,34)"/>
<path d="M0,0 L1,0 L1,1 L0,1 Z " fill="#333A43" transform="translate(14,34)"/>
<path d="M0,0 L1,0 L1,1 L0,1 Z " fill="#353540" opacity="0.87058824" transform="translate(51,33)"/>
<path d="M0,0 L1,0 L1,1 L0,1 Z " fill="#427C6B" transform="translate(47,33)"/>
<path d="M0,0 L1,0 L1,1 L0,1 Z " fill="#57EEAE" transform="translate(46,33)"/>
<path d="M0,0 L1,0 L1,1 L0,1 Z " fill="#4CE4A4" transform="translate(43,33)"/>
<path d="M0,0 L1,0 L1,1 L0,1 Z " fill="#3CD795" transform="translate(42,33)"/>
<path d="M0,0 L1,0 L1,1 L0,1 Z " fill="#2DCA88" transform="translate(41,33)"/>
<path d="M0,0 L1,0 L1,1 L0,1 Z " fill="#44DE9D" transform="translate(37,33)"/>
<path d="M0,0 L1,0 L1,1 L0,1 Z " fill="#43DC9B" transform="translate(36,33)"/>
<path d="M0,0 L1,0 L1,1 L0,1 Z " fill="#30CC8A" transform="translate(34,33)"/>
<path d="M0,0 L1,0 L1,1 L0,1 Z " fill="#2BC685" opacity="0.8862745" transform="translate(19,33)"/>
<path d="M0,0 L1,0 L1,1 L0,1 Z " fill="#334448" opacity="0.91764706" transform="translate(18,33)"/>
<path d="M0,0 L1,0 L1,1 L0,1 Z " fill="#325650" transform="translate(17,33)"/>
<path d="M0,0 L1,0 L1,1 L0,1 Z " fill="#326457" transform="translate(15,33)"/>
<path d="M0,0 L1,0 L1,1 L0,1 Z " fill="#343440" opacity="0.99215686" transform="translate(11,33)"/>
<path d="M0,0 L1,0 L1,1 L0,1 Z " fill="#343440" opacity="0.05490196" transform="translate(10,33)"/>
<path d="M0,0 L1,0 L1,1 L0,1 Z " fill="#3B5755" transform="translate(46,32)"/>
<path d="M0,0 L1,0 L1,1 L0,1 Z " fill="#3F806B" opacity="0.9647059" transform="translate(44,32)"/>
<path d="M0,0 L1,0 L1,1 L0,1 Z " fill="#30C084" opacity="0.8235294" transform="translate(43,32)"/>
<path d="M0,0 L1,0 L1,1 L0,1 Z " fill="#30CD8B" transform="translate(39,32)"/>
<path d="M0,0 L1,0 L1,1 L0,1 Z " fill="#4DE5A5" transform="translate(38,32)"/>
<path d="M0,0 L1,0 L1,1 L0,1 Z " fill="#49E2A2" transform="translate(36,32)"/>
<path d="M0,0 L1,0 L1,1 L0,1 Z " fill="#42DD9B" transform="translate(35,32)"/>
<path d="M0,0 L1,0 L1,1 L0,1 Z " fill="#2CBF81" opacity="0.81960785" transform="translate(20,32)"/>
<path d="M0,0 L1,0 L1,1 L0,1 Z " fill="#314246" opacity="0.9254902" transform="translate(19,32)"/>
<path d="M0,0 L1,0 L1,1 L0,1 Z " fill="#333341" opacity="0.13725491" transform="translate(51,31)"/>
<path d="M0,0 L1,0 L1,1 L0,1 Z " fill="#343440" opacity="0.9490196" transform="translate(50,31)"/>
<path d="M0,0 L1,0 L1,1 L0,1 Z " fill="#333641" opacity="0.99215686" transform="translate(43,31)"/>
<path d="M0,0 L1,0 L1,1 L0,1 Z " fill="#2DA476" opacity="0.75686276" transform="translate(42,31)"/>
<path d="M0,0 L1,0 L1,1 L0,1 Z " fill="#4FE7A7" transform="translate(38,31)"/>
<path d="M0,0 L1,0 L1,1 L0,1 Z " fill="#50E8A8" transform="translate(36,31)"/>
<path d="M0,0 L1,0 L1,1 L0,1 Z " fill="#34D08E" transform="translate(35,31)"/>
<path d="M0,0 L1,0 L1,1 L0,1 Z " fill="#2CAB77" opacity="0.7647059" transform="translate(21,31)"/>
<path d="M0,0 L1,0 L1,1 L0,1 Z " fill="#343841" opacity="0.9843137" transform="translate(20,31)"/>
<path d="M0,0 L1,0 L1,1 L0,1 Z " fill="#343440" opacity="0.9137255" transform="translate(12,31)"/>
<path d="M0,0 L1,0 L1,1 L0,1 Z " fill="#343441" opacity="0.15294118" transform="translate(11,31)"/>
<path d="M0,0 L1,0 L1,1 L0,1 Z " fill="#32323E" opacity="0.23921569" transform="translate(50,30)"/>
<path d="M0,0 L1,0 L1,1 L0,1 Z " fill="#306757" opacity="0.8039216" transform="translate(41,30)"/>
<path d="M0,0 L1,0 L1,1 L0,1 Z " fill="#2AC284" opacity="0.8509804" transform="translate(40,30)"/>
<path d="M0,0 L1,0 L1,1 L0,1 Z " fill="#35D18F" transform="translate(38,30)"/>
<path d="M0,0 L1,0 L1,1 L0,1 Z " fill="#46E09F" transform="translate(37,30)"/>
<path d="M0,0 L1,0 L1,1 L0,1 Z " fill="#36D290" transform="translate(36,30)"/>
<path d="M0,0 L1,0 L1,1 L0,1 Z " fill="#2BC484" opacity="0.85882354" transform="translate(23,30)"/>
<path d="M0,0 L1,0 L1,1 L0,1 Z " fill="#306C5B" opacity="0.7921569" transform="translate(22,30)"/>
<path d="M0,0 L1,0 L1,1 L0,1 Z " fill="#343541" transform="translate(21,30)"/>
<path d="M0,0 L1,0 L1,1 L0,1 Z " fill="#31313E" opacity="0.16078432" transform="translate(12,30)"/>
<path d="M0,0 L1,0 L1,1 L0,1 Z " fill="#323240" opacity="0.21960784" transform="translate(49,29)"/>
<path d="M0,0 L1,0 L1,1 L0,1 Z " fill="#343440" opacity="0.8666667" transform="translate(48,29)"/>
<path d="M0,0 L1,0 L1,1 L0,1 Z " fill="#343641" transform="translate(40,29)"/>
<path d="M0,0 L1,0 L1,1 L0,1 Z " fill="#2E7A61" opacity="0.77254903" transform="translate(39,29)"/>
<path d="M0,0 L1,0 L1,1 L0,1 Z " fill="#2AC284" opacity="0.84313726" transform="translate(38,29)"/>
<path d="M0,0 L1,0 L1,1 L0,1 Z " fill="#2F7D63" opacity="0.76862746" transform="translate(24,29)"/>
<path d="M0,0 L1,0 L1,1 L0,1 Z " fill="#333641" opacity="0.99607843" transform="translate(23,29)"/>
<path d="M0,0 L1,0 L1,1 L0,1 Z " fill="#353541" opacity="0.6627451" transform="translate(17,29)"/>
<path d="M0,0 L1,0 L1,1 L0,1 Z " fill="#343441" opacity="0.64705884" transform="translate(15,29)"/>
<path d="M0,0 L1,0 L1,1 L0,1 Z " fill="#34343F" opacity="0.06666667" transform="translate(13,29)"/>
<path d="M0,0 L1,0 L1,1 L0,1 Z " fill="#323240" opacity="0.023529412" transform="translate(48,28)"/>
<path d="M0,0 L1,0 L1,1 L0,1 Z " fill="#323240" opacity="0.29803923" transform="translate(47,28)"/>
<path d="M0,0 L1,0 L1,1 L0,1 Z " fill="#353540" opacity="0.50980395" transform="translate(46,28)"/>
<path d="M0,0 L1,0 L1,1 L0,1 Z " fill="#343440" opacity="0.5882353" transform="translate(45,28)"/>
<path d="M0,0 L1,0 L1,1 L0,1 Z " fill="#324547" opacity="0.9098039" transform="translate(37,28)"/>
<path d="M0,0 L1,0 L1,1 L0,1 Z " fill="#2F8265" opacity="0.7607843" transform="translate(36,28)"/>
<path d="M0,0 L1,0 L1,1 L0,1 Z " fill="#2BBF81" opacity="0.827451" transform="translate(34,28)"/>
<path d="M0,0 L1,0 L1,1 L0,1 Z " fill="#2BC685" opacity="0.8862745" transform="translate(33,28)"/>
<path d="M0,0 L1,0 L1,1 L0,1 Z " fill="#2BBF81" opacity="0.827451" transform="translate(29,28)"/>
<path d="M0,0 L1,0 L1,1 L0,1 Z " fill="#2F8365" opacity="0.7607843" transform="translate(27,28)"/>
<path d="M0,0 L1,0 L1,1 L0,1 Z " fill="#324649" opacity="0.90588236" transform="translate(26,28)"/>
<path d="M0,0 L1,0 L1,1 L0,1 Z " fill="#343441" opacity="0.38431373" transform="translate(18,28)"/>
<path d="M0,0 L1,0 L1,1 L0,1 Z " fill="#34343C" opacity="0.13333334" transform="translate(44,27)"/>
<path d="M0,0 L1,0 L1,1 L0,1 Z " fill="#343440" opacity="0.74509805" transform="translate(43,27)"/>
<path d="M0,0 L1,0 L1,1 L0,1 Z " fill="#343440" opacity="0.17254902" transform="translate(19,27)"/>
<path d="M0,0 L1,0 L1,1 L0,1 Z " fill="#333340" opacity="0.3882353" transform="translate(42,26)"/>
<path d="M0,0 L1,0 L1,1 L0,1 Z " fill="#353540" opacity="0.87058824" transform="translate(41,26)"/>
<path d="M0,0 L1,0 L1,1 L0,1 Z " fill="#353540" opacity="0.87058824" transform="translate(22,26)"/>
<path d="M0,0 L1,0 L1,1 L0,1 Z " fill="#333340" opacity="0.007843138" transform="translate(20,26)"/>
<path d="M0,0 L1,0 L1,1 L0,1 Z " fill="#33333F" opacity="0.34901962" transform="translate(40,25)"/>
<path d="M0,0 L1,0 L1,1 L0,1 Z " fill="#353540" opacity="0.7372549" transform="translate(39,25)"/>
<path d="M0,0 L1,0 L1,1 L0,1 Z " fill="#353540" opacity="0.9843137" transform="translate(38,25)"/>
<path d="M0,0 L1,0 L1,1 L0,1 Z " fill="#353540" opacity="0.7372549" transform="translate(24,25)"/>
<path d="M0,0 L1,0 L1,1 L0,1 Z " fill="#353540" opacity="0.015686275" transform="translate(22,25)"/>
<path d="M0,0 L1,0 L1,1 L0,1 Z " fill="#33333F" opacity="0.34901962" transform="translate(37,24)"/>
<path d="M0,0 L1,0 L1,1 L0,1 Z " fill="#343441" opacity="0.7254902" transform="translate(35,24)"/>
<path d="M0,0 L1,0 L1,1 L0,1 Z " fill="#343440" opacity="0.8666667" transform="translate(34,24)"/>
<path d="M0,0 L1,0 L1,1 L0,1 Z " fill="#343440" opacity="0.92156863" transform="translate(33,24)"/>
<path d="M0,0 L1,0 L1,1 L0,1 Z " fill="#343440" opacity="0.8666667" transform="translate(29,24)"/>
<path d="M0,0 L1,0 L1,1 L0,1 Z " fill="#353540" opacity="0.54901963" transform="translate(27,24)"/>
<path d="M0,0 L1,0 L1,1 L0,1 Z " fill="#33333F" opacity="0.07058824" transform="translate(25,24)"/>
</svg>
