<?xml version="1.0" encoding="UTF-8"?>
<!-- Generator: visioncortex VTracer 0.6.4 -->
<svg version="1.1" xmlns="http://www.w3.org/2000/svg" width="64" height="64">
<path d="M0,0 L7,0 L7,1 L9,1 L9,2 L10,2 L10,4 L11,4 L11,7 L12,7 L12,31 L11,31 L11,34 L10,34 L10,36 L9,36 L9,37 L7,37 L7,38 L1,38 L1,37 L-1,37 L-1,36 L-2,36 L-2,34 L-3,34 L-3,31 L-4,31 L-4,7 L-3,7 L-3,3 L-2,3 L-2,2 L-1,2 L-1,1 L0,1 Z M1,3 L1,4 L0,4 L0,7 L1,7 L1,5 L2,5 L2,4 L6,4 L6,5 L7,5 L7,7 L8,7 L8,4 L7,4 L7,3 Z M0,31 L0,34 L1,34 L1,35 L7,35 L7,34 L8,34 L8,31 L7,31 L7,33 L6,33 L6,34 L2,34 L2,33 L1,33 L1,31 Z " fill="#353541" transform="translate(28,13)"/>
<path d="M0,0 L4,0 L4,1 L5,1 L5,3 L6,3 L6,27 L5,27 L5,29 L4,29 L4,30 L0,30 L0,29 L-1,29 L-1,27 L-2,27 L-2,3 L-1,3 L-1,1 L0,1 Z " fill="#C8D0D5" transform="translate(30,17)"/>
<path d="M0,0 L8,0 L8,4 L7,4 L7,6 L6,6 L6,7 L2,7 L2,6 L1,6 L1,4 L0,4 Z " fill="#A8B2BB" transform="translate(28,40)"/>
<path d="M0,0 L4,0 L4,1 L5,1 L5,3 L6,3 L6,7 L-2,7 L-2,3 L-1,3 L-1,1 L0,1 Z " fill="#D6DCE0" transform="translate(30,17)"/>
<path d="M0,0 L1,0 L1,1 L0,1 Z M-1,1 L0,1 L0,2 L-1,2 Z M-2,2 L-1,2 L-1,3 L-2,3 Z M-3,3 L-2,3 L-2,4 L-3,4 Z " fill="#353541" transform="translate(28,13)"/>
<path d="M0,0 L1,0 L1,1 L0,1 Z " fill="#343441" opacity="0.95686275" transform="translate(31,51)"/>
<path d="M0,0 L1,0 L1,1 L0,1 Z " fill="#343440" opacity="0.73333335" transform="translate(26,49)"/>
<path d="M0,0 L1,0 L1,1 L0,1 Z " fill="#343441" opacity="0.95686275" transform="translate(39,19)"/>
<path d="M0,0 L1,0 L1,1 L0,1 Z " fill="#343440" opacity="0.73333335" transform="translate(37,14)"/>
<path d="M0,0 L1,0 L1,1 L0,1 Z " fill="#343440" opacity="0.9607843" transform="translate(31,12)"/>
<path d="M0,0 L1,0 L1,1 L0,1 Z M-1,1 L0,1 L0,2 L-1,2 Z " fill="#D6DCE0" transform="translate(30,17)"/>
<path d="M0,0 L1,0 L1,1 L0,1 Z " fill="#343440" opacity="0.17254902" transform="translate(35,51)"/>
<path d="M0,0 L1,0 L1,1 L0,1 Z " fill="#343440" opacity="0.5764706" transform="translate(29,51)"/>
<path d="M0,0 L1,0 L1,1 L0,1 Z " fill="#343440" opacity="0.17254902" transform="translate(39,47)"/>
<path d="M0,0 L1,0 L1,1 L0,1 Z " fill="#A7B0B9" opacity="0.9137255" transform="translate(31,47)"/>
<path d="M0,0 L1,0 L1,1 L0,1 Z M-1,1 L0,1 L0,2 L-1,2 Z " fill="#40414D" opacity="0.92156863" transform="translate(35,46)"/>
<path d="M0,0 L1,0 L1,1 L0,1 Z " fill="#D4DADF" opacity="0.9137255" transform="translate(35,19)"/>
<path d="M0,0 L1,0 L1,1 L0,1 Z " fill="#D4DADE" opacity="0.92156863" transform="translate(28,19)"/>
<path d="M0,0 L1,0 L1,1 L0,1 Z " fill="#343440" opacity="0.9607843" transform="translate(24,19)"/>
<path d="M0,0 L1,0 L1,1 L0,1 Z " fill="#343440" opacity="0.5764706" transform="translate(39,17)"/>
<path d="M0,0 L1,0 L1,1 L0,1 Z " fill="#343440" opacity="0.59607846" transform="translate(24,17)"/>
<path d="M0,0 L1,0 L1,1 L0,1 Z " fill="#D4DADE" opacity="0.92156863" transform="translate(31,16)"/>
<path d="M0,0 L1,0 L1,1 L0,1 Z M-1,1 L0,1 L0,2 L-1,2 Z " fill="#4D4E5B" opacity="0.88235295" transform="translate(29,16)"/>
<path d="M0,0 L1,0 L1,1 L0,1 Z " fill="#343440" opacity="0.627451" transform="translate(25,15)"/>
<path d="M0,0 L1,0 L1,1 L0,1 Z " fill="#343440" opacity="0.627451" transform="translate(27,13)"/>
<path d="M0,0 L1,0 L1,1 L0,1 Z " fill="#343440" opacity="0.59607846" transform="translate(29,12)"/>
<path d="M0,0 L1,0 L1,1 L0,1 Z " fill="#343440" opacity="0.57254905" transform="translate(34,51)"/>
<path d="M0,0 L1,0 L1,1 L0,1 Z " fill="#343440" opacity="0.84313726" transform="translate(33,51)"/>
<path d="M0,0 L1,0 L1,1 L0,1 Z " fill="#343441" opacity="0.95686275" transform="translate(32,51)"/>
<path d="M0,0 L1,0 L1,1 L0,1 Z " fill="#343440" opacity="0.84313726" transform="translate(30,51)"/>
<path d="M0,0 L1,0 L1,1 L0,1 Z " fill="#313141" opacity="0.18431373" transform="translate(28,51)"/>
<path d="M0,0 L1,0 L1,1 L0,1 Z " fill="#343440" opacity="0.019607844" transform="translate(37,50)"/>
<path d="M0,0 L1,0 L1,1 L0,1 Z " fill="#353540" opacity="0.5647059" transform="translate(36,50)"/>
<path d="M0,0 L1,0 L1,1 L0,1 Z " fill="#343440" opacity="0.99215686" transform="translate(35,50)"/>
<path d="M0,0 L1,0 L1,1 L0,1 Z " fill="#343440" opacity="0.99607843" transform="translate(28,50)"/>
<path d="M0,0 L1,0 L1,1 L0,1 Z " fill="#333340" opacity="0.5803922" transform="translate(27,50)"/>
<path d="M0,0 L1,0 L1,1 L0,1 Z " fill="#343440" opacity="0.023529412" transform="translate(26,50)"/>
<path d="M0,0 L1,0 L1,1 L0,1 Z " fill="#353540" opacity="0.019607844" transform="translate(38,49)"/>
<path d="M0,0 L1,0 L1,1 L0,1 Z " fill="#343440" opacity="0.72156864" transform="translate(37,49)"/>
<path d="M0,0 L1,0 L1,1 L0,1 Z " fill="#353541" opacity="0.023529412" transform="translate(25,49)"/>
<path d="M0,0 L1,0 L1,1 L0,1 Z " fill="#353540" opacity="0.5647059" transform="translate(38,48)"/>
<path d="M0,0 L1,0 L1,1 L0,1 Z " fill="#353541" opacity="0.58431375" transform="translate(25,48)"/>
<path d="M0,0 L1,0 L1,1 L0,1 Z " fill="#343440" opacity="0.99215686" transform="translate(38,47)"/>
<path d="M0,0 L1,0 L1,1 L0,1 Z " fill="#949BA6" opacity="0.77254903" transform="translate(33,47)"/>
<path d="M0,0 L1,0 L1,1 L0,1 Z " fill="#A6B0B9" opacity="0.9098039" transform="translate(32,47)"/>
<path d="M0,0 L1,0 L1,1 L0,1 Z " fill="#959FA8" opacity="0.7764706" transform="translate(30,47)"/>
<path d="M0,0 L1,0 L1,1 L0,1 Z " fill="#42434F" opacity="0.90588236" transform="translate(29,47)"/>
<path d="M0,0 L1,0 L1,1 L0,1 Z " fill="#343440" opacity="0.99607843" transform="translate(25,47)"/>
<path d="M0,0 L1,0 L1,1 L0,1 Z " fill="#313141" opacity="0.18431373" transform="translate(24,47)"/>
<path d="M0,0 L1,0 L1,1 L0,1 Z " fill="#343440" opacity="0.57254905" transform="translate(39,46)"/>
<path d="M0,0 L1,0 L1,1 L0,1 Z " fill="#A7B0B9" opacity="0.9137255" transform="translate(34,46)"/>
<path d="M0,0 L1,0 L1,1 L0,1 Z " fill="#A7B1BA" opacity="0.9372549" transform="translate(29,46)"/>
<path d="M0,0 L1,0 L1,1 L0,1 Z " fill="#434550" opacity="0.9019608" transform="translate(28,46)"/>
<path d="M0,0 L1,0 L1,1 L0,1 Z " fill="#353541" opacity="0.58431375" transform="translate(24,46)"/>
<path d="M0,0 L1,0 L1,1 L0,1 Z " fill="#343440" opacity="0.84313726" transform="translate(39,45)"/>
<path d="M0,0 L1,0 L1,1 L0,1 Z " fill="#949BA6" opacity="0.77254903" transform="translate(35,45)"/>
<path d="M0,0 L1,0 L1,1 L0,1 Z " fill="#969FA9" opacity="0.78039217" transform="translate(28,45)"/>
<path d="M0,0 L1,0 L1,1 L0,1 Z " fill="#353540" opacity="0.8509804" transform="translate(24,45)"/>
<path d="M0,0 L1,0 L1,1 L0,1 Z " fill="#343441" opacity="0.95686275" transform="translate(39,44)"/>
<path d="M0,0 L1,0 L1,1 L0,1 Z " fill="#A6B0B9" opacity="0.9098039" transform="translate(35,44)"/>
<path d="M0,0 L1,0 L1,1 L0,1 Z " fill="#A6B0B9" opacity="0.92156863" transform="translate(28,44)"/>
<path d="M0,0 L1,0 L1,1 L0,1 Z " fill="#343440" opacity="0.9607843" transform="translate(24,44)"/>
<path d="M0,0 L1,0 L1,1 L0,1 Z " fill="#343440" opacity="0.84313726" transform="translate(39,18)"/>
<path d="M0,0 L1,0 L1,1 L0,1 Z " fill="#BEC3C7" opacity="0.7764706" transform="translate(35,18)"/>
<path d="M0,0 L1,0 L1,1 L0,1 Z " fill="#C2C7CC" opacity="0.78431374" transform="translate(28,18)"/>
<path d="M0,0 L1,0 L1,1 L0,1 Z " fill="#343440" opacity="0.85490197" transform="translate(24,18)"/>
<path d="M0,0 L1,0 L1,1 L0,1 Z " fill="#484854" opacity="0.90588236" transform="translate(35,17)"/>
<path d="M0,0 L1,0 L1,1 L0,1 Z " fill="#D5DBDF" opacity="0.9372549" transform="translate(34,17)"/>
<path d="M0,0 L1,0 L1,1 L0,1 Z " fill="#D6DCE0" opacity="0.95686275" transform="translate(29,17)"/>
<path d="M0,0 L1,0 L1,1 L0,1 Z " fill="#313141" opacity="0.18431373" transform="translate(39,16)"/>
<path d="M0,0 L1,0 L1,1 L0,1 Z " fill="#343440" opacity="0.99607843" transform="translate(38,16)"/>
<path d="M0,0 L1,0 L1,1 L0,1 Z " fill="#494A55" opacity="0.9019608" transform="translate(34,16)"/>
<path d="M0,0 L1,0 L1,1 L0,1 Z " fill="#BEC3C9" opacity="0.78039217" transform="translate(33,16)"/>
<path d="M0,0 L1,0 L1,1 L0,1 Z " fill="#D4DADE" opacity="0.92156863" transform="translate(32,16)"/>
<path d="M0,0 L1,0 L1,1 L0,1 Z " fill="#C2C7CC" opacity="0.78431374" transform="translate(30,16)"/>
<path d="M0,0 L1,0 L1,1 L0,1 Z " fill="#313140" opacity="0.20392157" transform="translate(24,16)"/>
<path d="M0,0 L1,0 L1,1 L0,1 Z " fill="#333340" opacity="0.5803922" transform="translate(38,15)"/>
<path d="M0,0 L1,0 L1,1 L0,1 Z " fill="#343440" opacity="0.023529412" transform="translate(38,14)"/>
<path d="M0,0 L1,0 L1,1 L0,1 Z " fill="#343441" opacity="0.78431374" transform="translate(26,14)"/>
<path d="M0,0 L1,0 L1,1 L0,1 Z " fill="#343441" opacity="0.039215688" transform="translate(25,14)"/>
<path d="M0,0 L1,0 L1,1 L0,1 Z " fill="#353541" opacity="0.023529412" transform="translate(37,13)"/>
<path d="M0,0 L1,0 L1,1 L0,1 Z " fill="#353541" opacity="0.58431375" transform="translate(36,13)"/>
<path d="M0,0 L1,0 L1,1 L0,1 Z " fill="#343440" opacity="0.99607843" transform="translate(35,13)"/>
<path d="M0,0 L1,0 L1,1 L0,1 Z " fill="#343440" opacity="0.039215688" transform="translate(26,13)"/>
<path d="M0,0 L1,0 L1,1 L0,1 Z " fill="#313141" opacity="0.18431373" transform="translate(35,12)"/>
<path d="M0,0 L1,0 L1,1 L0,1 Z " fill="#353541" opacity="0.58431375" transform="translate(34,12)"/>
<path d="M0,0 L1,0 L1,1 L0,1 Z " fill="#353540" opacity="0.8509804" transform="translate(33,12)"/>
<path d="M0,0 L1,0 L1,1 L0,1 Z " fill="#343440" opacity="0.9607843" transform="translate(32,12)"/>
<path d="M0,0 L1,0 L1,1 L0,1 Z " fill="#343440" opacity="0.85490197" transform="translate(30,12)"/>
<path d="M0,0 L1,0 L1,1 L0,1 Z " fill="#313140" opacity="0.20392157" transform="translate(28,12)"/>
</svg>
