<?xml version="1.0" encoding="UTF-8"?>
<!-- Generator: visioncortex VTracer 0.6.4 -->
<svg version="1.1" xmlns="http://www.w3.org/2000/svg" width="64" height="64">
<path d="M0,0 L7,0 L7,1 L9,1 L9,2 L11,2 L11,3 L13,3 L13,4 L14,4 L14,5 L16,5 L16,6 L18,6 L18,7 L19,7 L19,8 L20,8 L20,9 L21,9 L21,12 L22,12 L22,26 L21,26 L21,29 L20,29 L20,30 L19,30 L19,31 L18,31 L18,32 L16,32 L16,33 L15,33 L15,34 L13,34 L13,35 L11,35 L11,36 L10,36 L10,37 L8,37 L8,38 L4,38 L4,39 L3,39 L3,38 L0,38 L0,37 L-2,37 L-2,36 L-4,36 L-4,35 L-6,35 L-6,34 L-7,34 L-7,33 L-9,33 L-9,32 L-11,32 L-11,31 L-12,31 L-12,30 L-13,30 L-13,28 L-14,28 L-14,24 L-15,24 L-15,14 L-14,14 L-14,10 L-13,10 L-13,8 L-12,8 L-12,7 L-11,7 L-11,6 L-9,6 L-9,5 L-7,5 L-7,4 L-5,4 L-5,3 L-4,3 L-4,2 L-2,2 L-2,1 L0,1 Z M0,3 L0,4 L-2,4 L-2,5 L-3,5 L-3,6 L-1,6 L-1,5 L1,5 L1,4 L6,4 L6,5 L8,5 L8,6 L10,6 L10,7 L12,7 L12,6 L11,6 L11,5 L9,5 L9,4 L7,4 L7,3 Z M-5,6 L-5,7 L-7,7 L-7,8 L-9,8 L-9,9 L-10,9 L-10,10 L-11,10 L-11,14 L-10,14 L-10,11 L-9,11 L-9,10 L-8,10 L-8,9 L-6,9 L-6,8 L-4,8 L-4,7 L-3,7 L-3,6 Z M12,7 L12,8 L13,8 L13,9 L15,9 L15,10 L16,10 L16,11 L17,11 L17,12 L18,12 L18,10 L17,10 L17,9 L16,9 L16,8 L14,8 L14,7 Z M2,9 L2,10 L5,10 L5,11 L7,11 L7,10 L6,10 L6,9 Z M0,10 L0,11 L-2,11 L-2,12 L-3,12 L-3,13 L-1,13 L-1,12 L1,12 L1,11 L2,11 L2,10 Z M7,11 L7,12 L8,12 L8,13 L10,13 L10,14 L11,14 L11,15 L12,15 L12,24 L13,24 L13,14 L12,14 L12,13 L11,13 L11,12 L9,12 L9,11 Z M18,12 L18,26 L19,26 L19,12 Z M-5,13 L-5,16 L-4,16 L-4,14 L-3,14 L-3,13 Z M2,15 L2,16 L1,16 L1,22 L2,22 L2,23 L3,23 L3,24 L4,24 L4,23 L6,23 L6,15 Z M-5,23 L-5,25 L-4,25 L-4,26 L-2,26 L-2,27 L0,27 L0,28 L2,28 L2,27 L1,27 L1,26 L-1,26 L-1,25 L-3,25 L-3,24 L-4,24 L-4,23 Z M-11,24 L-11,28 L-10,28 L-10,29 L-9,29 L-9,30 L-7,30 L-7,31 L-5,31 L-5,30 L-6,30 L-6,29 L-8,29 L-8,28 L-9,28 L-9,27 L-10,27 L-10,24 Z M10,24 L10,25 L9,25 L9,26 L11,26 L11,25 L12,25 L12,24 Z M7,26 L7,27 L9,27 L9,26 Z M17,26 L17,27 L16,27 L16,28 L15,28 L15,29 L14,29 L14,30 L16,30 L16,29 L17,29 L17,28 L18,28 L18,26 Z M5,27 L5,28 L2,28 L2,29 L6,29 L6,28 L7,28 L7,27 Z M12,30 L12,31 L10,31 L10,32 L8,32 L8,33 L7,33 L7,34 L9,34 L9,33 L11,33 L11,32 L13,32 L13,31 L14,31 L14,30 Z M-5,31 L-5,32 L-4,32 L-4,33 L-2,33 L-2,34 L0,34 L0,35 L3,35 L3,34 L1,34 L1,33 L-1,33 L-1,32 L-3,32 L-3,31 Z M4,34 L4,35 L3,35 L3,36 L5,36 L5,35 L7,35 L7,34 Z M2,16 L5,16 L5,22 L2,22 Z " fill="#F09366" transform="translate(28,13)"/>
<path d="M0,0 L7,0 L7,1 L9,1 L9,2 L11,2 L11,3 L13,3 L13,4 L14,4 L14,5 L16,5 L16,6 L18,6 L18,7 L19,7 L19,8 L20,8 L20,9 L21,9 L21,12 L22,12 L22,26 L21,26 L21,29 L20,29 L20,30 L19,30 L19,31 L18,31 L18,32 L16,32 L16,33 L15,33 L15,34 L13,34 L13,35 L11,35 L11,36 L10,36 L10,37 L8,37 L8,38 L4,38 L4,39 L3,39 L3,38 L0,38 L0,37 L-2,37 L-2,36 L-4,36 L-4,35 L-6,35 L-6,34 L-7,34 L-7,33 L-9,33 L-9,32 L-11,32 L-11,31 L-12,31 L-12,30 L-13,30 L-13,28 L-14,28 L-14,24 L-15,24 L-15,14 L-14,14 L-14,10 L-13,10 L-13,8 L-12,8 L-12,7 L-11,7 L-11,6 L-9,6 L-9,5 L-7,5 L-7,4 L-5,4 L-5,3 L-4,3 L-4,2 L-2,2 L-2,1 L0,1 Z M0,3 L0,4 L-2,4 L-2,5 L-3,5 L-3,6 L-5,6 L-5,7 L-7,7 L-7,8 L-9,8 L-9,9 L-10,9 L-10,10 L-11,10 L-11,28 L-10,28 L-10,29 L-9,29 L-9,30 L-7,30 L-7,31 L-5,31 L-5,32 L-4,32 L-4,33 L-2,33 L-2,34 L0,34 L0,35 L3,35 L3,36 L5,36 L5,35 L7,35 L7,34 L9,34 L9,33 L11,33 L11,32 L13,32 L13,31 L14,31 L14,30 L16,30 L16,29 L17,29 L17,28 L18,28 L18,26 L19,26 L19,12 L18,12 L18,10 L17,10 L17,9 L16,9 L16,8 L14,8 L14,7 L12,7 L12,6 L11,6 L11,5 L9,5 L9,4 L7,4 L7,3 Z " fill="#353541" transform="translate(28,13)"/>
<path d="M0,0 L1,0 L1,1 L0,1 Z " fill="#343440" opacity="0.99607843" transform="translate(22,16)"/>
<path d="M0,0 L3,0 L3,1 L5,1 L5,2 L6,2 L6,3 L8,3 L8,4 L9,4 L9,5 L10,5 L10,14 L8,14 L8,15 L7,15 L7,16 L5,16 L5,17 L3,17 L3,18 L0,18 L0,17 L-1,17 L-1,16 L-3,16 L-3,15 L-5,15 L-5,14 L-6,14 L-6,13 L-7,13 L-7,6 L-6,6 L-6,4 L-5,4 L-5,3 L-3,3 L-3,2 L-1,2 L-1,1 L0,1 Z M0,5 L0,6 L-1,6 L-1,12 L0,12 L0,13 L1,13 L1,14 L2,14 L2,13 L4,13 L4,5 Z M0,6 L3,6 L3,12 L0,12 Z " fill="#BD6341" transform="translate(30,23)"/>
<path d="M0,0 L1,0 L1,1 L0,1 Z M-13,2 L7,2 L7,3 L-13,3 Z " fill="#E7895A" transform="translate(35,40)"/>
<path d="M0,0 L1,0 L1,1 L0,1 Z M-6,2 L11,2 L11,3 L-6,3 Z " fill="#E6885A" transform="translate(29,41)"/>
<path d="M0,0 L10,0 L10,1 L8,1 L8,2 L6,2 L6,3 L5,3 L5,4 L3,4 L3,17 L-2,17 L-2,16 L-1,16 L-1,15 L-3,15 L-3,5 L-2,5 L-2,2 L-1,2 L-1,1 L0,1 Z M14,0 L15,0 L15,1 L14,1 Z " fill="#ED9062" transform="translate(20,22)"/>
<path d="M0,0 L3,0 L3,1 L5,1 L5,2 L6,2 L6,3 L8,3 L8,4 L9,4 L9,5 L10,5 L10,9 L4,9 L4,5 L0,5 L0,6 L-1,6 L-1,9 L-7,9 L-7,6 L-6,6 L-6,4 L-5,4 L-5,3 L-3,3 L-3,2 L-1,2 L-1,1 L0,1 Z " fill="#B35B3A" transform="translate(30,23)"/>
<path d="M0,0 L1,0 L1,1 L0,1 Z M1,1 L3,1 L3,2 L4,2 L4,3 L5,3 L5,4 L6,4 L6,16 L1,16 L1,6 L0,6 L0,5 L-1,5 L-1,4 L-3,4 L-3,3 L2,3 L2,2 L1,2 Z " fill="#ED9062" transform="translate(40,21)"/>
<path d="M0,0 L6,0 L6,2 L5,2 L5,3 L4,3 L4,4 L3,4 L3,5 L2,5 L2,6 L-10,6 L-10,5 L-6,5 L-6,4 L-5,4 L-5,3 L-3,3 L-3,2 L-1,2 L-1,1 L0,1 Z " fill="#E88A5C" transform="translate(40,37)"/>
<path d="M0,0 L6,0 L6,10 L1,10 L1,9 L2,9 L2,8 L0,8 Z " fill="#EB8E60" transform="translate(17,29)"/>
<path d="M0,0 L3,0 L3,1 L5,1 L5,2 L6,2 L6,3 L7,3 L7,4 L-5,4 L-5,3 L-3,3 L-3,2 L-1,2 L-1,1 L0,1 Z M-6,4 L-5,4 L-5,5 L-6,5 Z " fill="#B05A39" transform="translate(30,23)"/>
<path d="M0,0 L1,0 L1,1 L0,1 Z M5,1 L6,1 L6,2 L8,2 L8,3 L10,3 L10,5 L2,5 L2,4 L1,4 L1,3 L0,3 L0,2 L5,2 Z " fill="#E7895B" transform="translate(18,37)"/>
<path d="M0,0 L5,0 L5,1 L7,1 L7,2 L-2,2 L-2,1 L0,1 Z M-3,2 L-2,2 L-2,3 L-3,3 Z M7,2 L9,2 L9,4 L8,4 L8,3 L7,3 Z " fill="#F19567" transform="translate(29,17)"/>
<path d="M0,0 L5,0 L5,6 L0,6 Z " fill="#EA8D5F" transform="translate(41,31)"/>
<path d="M0,0 L3,0 L3,6 L0,6 Z " fill="#EC8F61" transform="translate(30,29)"/>
<path d="M0,0 L1,0 L1,1 L0,1 Z M2,1 L11,1 L11,2 L10,2 L10,3 L7,3 L7,4 L6,4 L6,3 L4,3 L4,2 L2,2 Z " fill="#E68759" transform="translate(25,44)"/>
<path d="M0,0 L1,0 L1,1 L0,1 Z M1,1 L3,1 L3,2 L4,2 L4,3 L5,3 L5,5 L4,5 L4,4 L0,4 L0,5 L-1,5 L-1,4 L-3,4 L-3,3 L2,3 L2,2 L1,2 Z " fill="#EF9264" transform="translate(40,21)"/>
<path d="M0,0 L6,0 L6,2 L-1,2 L-1,1 L0,1 Z " fill="#E98B5C" transform="translate(40,37)"/>
<path d="M0,0 L10,0 L10,1 L0,1 Z M14,0 L15,0 L15,1 L14,1 Z M-1,1 L0,1 L0,2 L-1,2 Z " fill="#F09365" transform="translate(20,22)"/>
<path d="M0,0 L1,0 L1,1 L2,1 L2,0 L11,0 L11,1 L12,1 L12,2 L0,2 Z " fill="#F19466" transform="translate(25,19)"/>
<path d="M0,0 L6,0 L6,4 L1,4 L1,3 L2,3 L2,2 L0,2 Z " fill="#EA8C5E" transform="translate(17,35)"/>
<path d="M0,0 L3,0 L3,1 L5,1 L5,3 L-3,3 L-3,2 L-1,2 L-1,1 L0,1 Z " fill="#AE5838" transform="translate(30,23)"/>
<path d="M0,0 L6,0 L6,3 L0,3 Z " fill="#BA603F" transform="translate(34,29)"/>
<path d="M0,0 L6,0 L6,3 L0,3 Z " fill="#BA603F" transform="translate(23,29)"/>
<path d="M0,0 L5,0 L5,1 L14,1 L14,2 L2,2 L2,1 L0,1 Z " fill="#E68859" transform="translate(24,43)"/>
<path d="M0,0 L8,0 L8,1 L6,1 L6,2 L-2,2 L-2,1 L0,1 Z " fill="#EF9264" transform="translate(20,23)"/>
<path d="M0,0 L2,0 L2,1 L0,1 Z " fill="#E7895B" transform="translate(34,41)"/>
<path d="M0,0 L1,0 L1,1 L0,1 Z M-5,2 L7,2 L7,3 L-5,3 Z " fill="#E7895A" transform="translate(35,40)"/>
<path d="M0,0 L1,0 L1,9 L0,9 Z " fill="#323240" opacity="0.29803923" transform="translate(50,28)"/>
<path d="M0,0 L6,0 L6,1 L7,1 L7,2 L0,2 Z " fill="#EF9265" transform="translate(35,22)"/>
<path d="M0,0 L6,0 L6,2 L0,2 Z " fill="#EA8D5F" transform="translate(17,33)"/>
<path d="M0,0 L6,0 L6,2 L0,2 Z " fill="#EC8F61" transform="translate(17,29)"/>
<path d="M0,0 L1,0 L1,4 L0,4 Z " fill="#79564C" opacity="0.7921569" transform="translate(46,28)"/>
<path d="M0,0 L6,0 L6,1 L3,1 L3,2 L2,2 L2,1 L0,1 Z " fill="#E58758" transform="translate(29,46)"/>
<path d="M0,0 L7,0 L7,1 L2,1 L2,2 L1,2 L1,1 L0,1 Z " fill="#E7895A" transform="translate(22,42)"/>
<path d="M0,0 L1,0 L1,1 L7,1 L7,2 L0,2 Z " fill="#E7895B" transform="translate(36,40)"/>
<path d="M0,0 L1,0 L1,1 L0,1 Z M0,4 L1,4 L1,5 L0,5 Z " fill="#DB7E52" opacity="0.7882353" transform="translate(40,33)"/>
<path d="M0,0 L4,0 L4,1 L5,1 L5,0 L6,0 L6,2 L0,2 Z " fill="#EE9163" transform="translate(40,25)"/>
<path d="M0,0 L1,0 L1,1 L0,1 Z M0,2 L6,2 L6,3 L0,3 Z " fill="#E88A5C" transform="translate(18,37)"/>
<path d="M0,0 L5,0 L5,2 L0,2 Z " fill="#EA8C5E" transform="translate(41,35)"/>
<path d="M0,0 L5,0 L5,2 L0,2 Z " fill="#EB8E60" transform="translate(41,31)"/>
<path d="M0,0 L5,0 L5,2 L0,2 Z " fill="#EC8F61" transform="translate(41,29)"/>
<path d="M0,0 L7,0 L7,1 L0,1 Z " fill="#EE9164" transform="translate(18,25)"/>
<path d="M0,0 L6,0 L6,1 L3,1 L3,2 L2,2 L2,1 L0,1 Z " fill="#EF9264" transform="translate(37,24)"/>
<path d="M0,0 L1,0 L1,1 L0,1 Z M-1,1 L0,1 L0,2 L-1,2 Z M-2,2 L-1,2 L-1,3 L-2,3 Z " fill="#353541" transform="translate(17,19)"/>
<path d="M0,0 L4,0 L4,2 L-1,2 L-1,1 L0,1 Z " fill="#E98B5C" transform="translate(19,37)"/>
<path d="M0,0 L9,0 L9,1 L0,1 Z " fill="#F19467" transform="translate(27,19)"/>
<path d="M0,0 L1,0 L1,1 L7,1 L7,2 L0,2 Z " fill="#E88A5B" transform="translate(37,39)"/>
<path d="M0,0 L3,0 L3,1 L4,1 L4,2 L0,2 Z " fill="#AC5636" transform="translate(30,23)"/>
<path d="M0,0 L8,0 L8,1 L0,1 Z " fill="#EF9265" transform="translate(20,23)"/>
<path d="M0,0 L1,0 L1,1 L0,1 Z " fill="#343440" opacity="0.9490196" transform="translate(30,51)"/>
<path d="M0,0 L6,0 L6,1 L0,1 Z " fill="#B55D3C" transform="translate(34,28)"/>
<path d="M0,0 L6,0 L6,1 L0,1 Z " fill="#B55D3C" transform="translate(24,28)"/>
<path d="M0,0 L1,0 L1,1 L0,1 Z M2,1 L3,1 L3,2 L2,2 Z " fill="#E68759" transform="translate(25,44)"/>
<path d="M0,0 L6,0 L6,1 L0,1 Z " fill="#EB8D5F" transform="translate(17,33)"/>
<path d="M0,0 L1,0 L1,3 L0,3 Z " fill="#E5875B" opacity="0.76862746" transform="translate(33,31)"/>
<path d="M0,0 L1,0 L1,1 L0,1 Z " fill="#D3764F" opacity="0.76862746" transform="translate(29,32)"/>
<path d="M0,0 L6,0 L6,1 L0,1 Z " fill="#BC6240" transform="translate(34,31)"/>
<path d="M0,0 L6,0 L6,1 L0,1 Z " fill="#BC6240" transform="translate(23,31)"/>
<path d="M0,0 L6,0 L6,1 L0,1 Z " fill="#EC8E60" transform="translate(17,31)"/>
<path d="M0,0 L6,0 L6,1 L0,1 Z " fill="#B75F3D" transform="translate(34,29)"/>
<path d="M0,0 L6,0 L6,1 L0,1 Z " fill="#B75F3D" transform="translate(23,29)"/>
<path d="M0,0 L6,0 L6,1 L0,1 Z " fill="#ED8F61" transform="translate(17,29)"/>
<path d="M0,0 L5,0 L5,1 L0,1 Z " fill="#EE9163" transform="translate(18,26)"/>
<path d="M0,0 L6,0 L6,1 L0,1 Z " fill="#F09365" transform="translate(35,22)"/>
<path d="M0,0 L1,0 L1,1 L0,1 Z " fill="#343440" opacity="0.8352941" transform="translate(47,20)"/>
<path d="M0,0 L1,0 L1,1 L0,1 Z " fill="#F29568" transform="translate(31,17)"/>
<path d="M0,0 L5,0 L5,1 L0,1 Z " fill="#E6885A" transform="translate(24,43)"/>
<path d="M0,0 L5,0 L5,1 L0,1 Z " fill="#E88A5B" transform="translate(20,40)"/>
<path d="M0,0 L5,0 L5,1 L0,1 Z " fill="#E98B5D" transform="translate(41,37)"/>
<path d="M0,0 L1,0 L1,4 L0,4 Z " fill="#78544A" opacity="0.7921569" transform="translate(46,33)"/>
<path d="M0,0 L5,0 L5,1 L0,1 Z " fill="#EB8D5F" transform="translate(41,33)"/>
<path d="M0,0 L5,0 L5,1 L0,1 Z " fill="#EC8E60" transform="translate(41,31)"/>
<path d="M0,0 L5,0 L5,1 L0,1 Z " fill="#ED8F61" transform="translate(41,29)"/>
<path d="M0,0 L1,0 L1,1 L2,1 L2,2 L0,2 Z " fill="#B35B3A" transform="translate(37,26)"/>
<path d="M0,0 L1,0 L1,1 L0,1 Z M1,1 L2,1 L2,2 L1,2 Z " fill="#B05A39" transform="translate(35,25)"/>
<path d="M0,0 L1,0 L1,1 L0,1 Z M1,1 L2,1 L2,2 L1,2 Z " fill="#F09365" transform="translate(40,21)"/>
<path d="M0,0 L1,0 L1,1 L0,1 Z " fill="#F09365" transform="translate(34,22)"/>
<path d="M0,0 L1,0 L1,1 L0,1 Z " fill="#333340" opacity="0.29411766" transform="translate(22,48)"/>
<path d="M0,0 L1,0 L1,1 L0,1 Z M1,1 L2,1 L2,2 L1,2 Z " fill="#E88A5C" transform="translate(23,38)"/>
<path d="M0,0 L4,0 L4,1 L0,1 Z " fill="#E98B5D" transform="translate(19,37)"/>
<path d="M0,0 L1,0 L1,1 L0,1 Z " fill="#E98B5D" transform="translate(18,37)"/>
<path d="M0,0 L1,0 L1,2 L0,2 Z " fill="#D97C54" opacity="0.7882353" transform="translate(40,30)"/>
<path d="M0,0 L1,0 L1,1 L0,1 Z " fill="#323240" opacity="0.29803923" transform="translate(50,27)"/>
<path d="M0,0 L4,0 L4,1 L0,1 Z " fill="#EE9164" transform="translate(40,25)"/>
<path d="M0,0 L1,0 L1,1 L0,1 Z " fill="#343441" opacity="0.84705883" transform="translate(13,25)"/>
<path d="M0,0 L1,0 L1,1 L0,1 Z " fill="#AC5636" transform="translate(29,24)"/>
<path d="M0,0 L1,0 L1,1 L0,1 Z " fill="#F19466" transform="translate(24,20)"/>
<path d="M0,0 L1,0 L1,1 L0,1 Z " fill="#343441" opacity="0.95686275" transform="translate(44,18)"/>
<path d="M0,0 L1,0 L1,1 L0,1 Z " fill="#343440" opacity="0.8666667" transform="translate(18,18)"/>
<path d="M0,0 L2,0 L2,1 L0,1 Z " fill="#F29568" transform="translate(32,17)"/>
<path d="M0,0 L1,0 L1,1 L0,1 Z " fill="#343441" opacity="0.76862746" transform="translate(23,15)"/>
<path d="M0,0 L1,0 L1,1 L0,1 Z " fill="#343441" opacity="0.95686275" transform="translate(37,14)"/>
<path d="M0,0 L1,0 L1,1 L0,1 Z " fill="#343440" opacity="0.8666667" transform="translate(30,12)"/>
<path d="M0,0 L1,0 L1,1 L0,1 Z " fill="#353541" opacity="0.05882353" transform="translate(31,52)"/>
<path d="M0,0 L1,0 L1,1 L0,1 Z " fill="#E68859" transform="translate(25,44)"/>
<path d="M0,0 L3,0 L3,1 L0,1 Z " fill="#E7895A" transform="translate(30,42)"/>
<path d="M0,0 L1,0 L1,1 L0,1 Z " fill="#C56A45" opacity="0.7607843" transform="translate(31,41)"/>
<path d="M0,0 L1,0 L1,2 L0,2 Z " fill="#E88A5B" transform="translate(25,39)"/>
<path d="M0,0 L1,0 L1,1 L0,1 Z " fill="#E88A5B" transform="translate(19,40)"/>
<path d="M0,0 L1,0 L1,1 L0,1 Z " fill="#E98B5D" transform="translate(40,37)"/>
<path d="M0,0 L1,0 L1,1 L0,1 Z " fill="#EC8F60" opacity="0.9882353" transform="translate(31,35)"/>
<path d="M0,0 L1,0 L1,1 L0,1 Z " fill="#EB8D5F" opacity="0.9137255" transform="translate(31,28)"/>
<path d="M0,0 L1,0 L1,1 L0,1 Z " fill="#B35B3A" transform="translate(24,27)"/>
<path d="M0,0 L1,0 L1,2 L0,2 Z " fill="#EE9164" transform="translate(44,24)"/>
<path d="M0,0 L1,0 L1,1 L0,1 Z " fill="#EE9164" transform="translate(39,25)"/>
<path d="M0,0 L1,0 L1,2 L0,2 Z " fill="#EF9265" transform="translate(42,22)"/>
<path d="M0,0 L3,0 L3,1 L0,1 Z " fill="#A95535" transform="translate(30,23)"/>
<path d="M0,0 L1,0 L1,1 L0,1 Z " fill="#EF9265" transform="translate(19,23)"/>
<path d="M0,0 L1,0 L1,2 L0,2 Z " fill="#F19466" transform="translate(37,19)"/>
<path d="M0,0 L1,0 L1,1 L0,1 Z " fill="#F19467" transform="translate(36,19)"/>
<path d="M0,0 L1,0 L1,1 L0,1 Z " fill="#333341" opacity="0.52156866" transform="translate(16,19)"/>
<path d="M0,0 L1,0 L1,1 L0,1 Z " fill="#343441" opacity="0.003921569" transform="translate(36,51)"/>
<path d="M0,0 L1,0 L1,1 L0,1 Z " fill="#343441" opacity="0.47843137" transform="translate(28,51)"/>
<path d="M0,0 L1,0 L1,1 L0,1 Z " fill="#333340" opacity="0.5803922" transform="translate(26,50)"/>
<path d="M0,0 L1,0 L1,1 L0,1 Z " fill="#353540" opacity="0.43529412" transform="translate(24,49)"/>
<path d="M0,0 L1,0 L1,1 L0,1 Z " fill="#343440" opacity="0.03137255" transform="translate(41,48)"/>
<path d="M0,0 L1,0 L1,1 L0,1 Z " fill="#343441" opacity="0.003921569" transform="translate(43,47)"/>
<path d="M0,0 L1,0 L1,1 L0,1 Z " fill="#E48557" opacity="0.9372549" transform="translate(30,47)"/>
<path d="M0,0 L1,0 L1,1 L0,1 Z " fill="#343440" opacity="0.7294118" transform="translate(21,47)"/>
<path d="M0,0 L1,0 L1,1 L0,1 Z " fill="#333340" opacity="0.5803922" transform="translate(19,46)"/>
<path d="M0,0 L1,0 L1,1 L0,1 Z " fill="#343440" opacity="0.9372549" transform="translate(18,45)"/>
<path d="M0,0 L1,0 L1,1 L0,1 Z " fill="#343440" opacity="0.5882353" transform="translate(16,44)"/>
<path d="M0,0 L1,0 L1,1 L0,1 Z " fill="#E6885A" transform="translate(23,43)"/>
<path d="M0,0 L1,0 L1,1 L0,1 Z " fill="#34343F" opacity="0.003921569" transform="translate(14,43)"/>
<path d="M0,0 L1,0 L1,1 L0,1 Z " fill="#343440" opacity="0.003921569" transform="translate(49,42)"/>
<path d="M0,0 L1,0 L1,1 L0,1 Z " fill="#E7895A" transform="translate(33,42)"/>
<path d="M0,0 L1,0 L1,1 L0,1 Z " fill="#E78959" opacity="0.9647059" transform="translate(21,42)"/>
<path d="M0,0 L1,0 L1,1 L0,1 Z " fill="#E7895B" transform="translate(28,41)"/>
<path d="M0,0 L1,0 L1,1 L0,1 Z " fill="#34343F" opacity="0.023529412" transform="translate(13,41)"/>
<path d="M0,0 L1,0 L1,1 L0,1 Z " fill="#E88A5B" transform="translate(36,40)"/>
<path d="M0,0 L2,0 L2,1 L0,1 Z " fill="#E88A5B" transform="translate(26,40)"/>
<path d="M0,0 L1,0 L1,1 L0,1 Z " fill="#313140" opacity="0.023529412" transform="translate(50,39)"/>
<path d="M0,0 L1,0 L1,1 L0,1 Z " fill="#E88A5C" transform="translate(38,39)"/>
<path d="M0,0 L1,0 L1,1 L0,1 Z " fill="#BE6340" opacity="0.94509804" transform="translate(26,38)"/>
<path d="M0,0 L1,0 L1,1 L0,1 Z " fill="#E98B5C" transform="translate(23,38)"/>
<path d="M0,0 L1,0 L1,1 L0,1 Z " fill="#E48759" opacity="0.77254903" transform="translate(33,30)"/>
<path d="M0,0 L1,0 L1,1 L0,1 Z " fill="#D1744D" opacity="0.77254903" transform="translate(29,30)"/>
<path d="M0,0 L1,0 L1,1 L0,1 Z " fill="#D97C52" opacity="0.7882353" transform="translate(40,29)"/>
<path d="M0,0 L1,0 L1,1 L0,1 Z " fill="#B55D3C" transform="translate(34,28)"/>
<path d="M0,0 L1,0 L1,1 L0,1 Z " fill="#B55D3C" transform="translate(24,28)"/>
<path d="M0,0 L1,0 L1,1 L0,1 Z " fill="#79564C" opacity="0.7921569" transform="translate(46,27)"/>
<path d="M0,0 L1,0 L1,1 L0,1 Z " fill="#ED9062" transform="translate(41,27)"/>
<path d="M0,0 L2,0 L2,1 L0,1 Z " fill="#B35B39" opacity="0.98039216" transform="translate(38,27)"/>
<path d="M0,0 L1,0 L1,1 L0,1 Z " fill="#EE9163" transform="translate(18,26)"/>
<path d="M0,0 L1,0 L1,1 L0,1 Z " fill="#333341" opacity="0.13725491" transform="translate(50,25)"/>
<path d="M0,0 L1,0 L1,1 L0,1 Z " fill="#AE5838" transform="translate(35,25)"/>
<path d="M0,0 L1,0 L1,2 L0,2 Z " fill="#AE5838" transform="translate(34,24)"/>
<path d="M0,0 L1,0 L1,1 L0,1 Z " fill="#AF5938" opacity="0.9019608" transform="translate(26,25)"/>
<path d="M0,0 L1,0 L1,1 L0,1 Z " fill="#E88E63" opacity="0.85882354" transform="translate(17,25)"/>
<path d="M0,0 L1,0 L1,1 L0,1 Z " fill="#EF9264" transform="translate(37,24)"/>
<path d="M0,0 L1,0 L1,1 L0,1 Z " fill="#AC5636" transform="translate(33,24)"/>
<path d="M0,0 L1,0 L1,1 L0,1 Z " fill="#AC5636" opacity="0.9647059" transform="translate(28,24)"/>
<path d="M0,0 L1,0 L1,1 L0,1 Z " fill="#33333F" opacity="0.34901962" transform="translate(13,23)"/>
<path d="M0,0 L1,0 L1,1 L0,1 Z " fill="#333340" opacity="0.23529412" transform="translate(49,22)"/>
<path d="M0,0 L1,0 L1,1 L0,1 Z " fill="#D1784F" opacity="0.78039217" transform="translate(32,22)"/>
<path d="M0,0 L1,0 L1,1 L0,1 Z " fill="#343441" opacity="0.89411765" transform="translate(14,22)"/>
<path d="M0,0 L1,0 L1,1 L0,1 Z " fill="#F09366" transform="translate(40,21)"/>
<path d="M0,0 L1,0 L1,1 L0,1 Z " fill="#EF9265" opacity="0.9372549" transform="translate(21,21)"/>
<path d="M0,0 L2,0 L2,1 L0,1 Z " fill="#F19466" transform="translate(38,20)"/>
<path d="M0,0 L1,0 L1,1 L0,1 Z " fill="#F19465" opacity="0.9882353" transform="translate(23,20)"/>
<path d="M0,0 L1,0 L1,1 L0,1 Z " fill="#F19467" transform="translate(26,19)"/>
<path d="M0,0 L2,0 L2,1 L0,1 Z " fill="#F29568" transform="translate(29,17)"/>
<path d="M0,0 L1,0 L1,1 L0,1 Z " fill="#F29568" opacity="0.9411765" transform="translate(28,17)"/>
<path d="M0,0 L1,0 L1,1 L0,1 Z " fill="#333340" opacity="0.46666667" transform="translate(19,17)"/>
<path d="M0,0 L1,0 L1,1 L0,1 Z " fill="#EE9367" opacity="0.87058824" transform="translate(30,16)"/>
<path d="M0,0 L1,0 L1,1 L0,1 Z " fill="#333340" opacity="0.61960787" transform="translate(21,16)"/>
<path d="M0,0 L1,0 L1,1 L0,1 Z " fill="#353541" opacity="0.003921569" transform="translate(41,15)"/>
<path d="M0,0 L1,0 L1,1 L0,1 Z " fill="#33333F" opacity="0.34901962" transform="translate(24,14)"/>
<path d="M0,0 L1,0 L1,1 L0,1 Z " fill="#343440" opacity="0.5019608" transform="translate(26,13)"/>
<path d="M0,0 L1,0 L1,1 L0,1 Z " fill="#2C2C42" opacity="0.09019608" transform="translate(35,12)"/>
<path d="M0,0 L1,0 L1,1 L0,1 Z " fill="#343440" opacity="0.40392157" transform="translate(28,12)"/>
<path d="M0,0 L1,0 L1,1 L0,1 Z " fill="#353540" opacity="0.011764706" transform="translate(32,52)"/>
<path d="M0,0 L1,0 L1,1 L0,1 Z " fill="#343440" opacity="0.003921569" transform="translate(30,52)"/>
<path d="M0,0 L1,0 L1,1 L0,1 Z " fill="#34343D" opacity="0.21176471" transform="translate(35,51)"/>
<path d="M0,0 L1,0 L1,1 L0,1 Z " fill="#343441" opacity="0.6156863" transform="translate(34,51)"/>
<path d="M0,0 L1,0 L1,1 L0,1 Z " fill="#343441" opacity="0.8627451" transform="translate(33,51)"/>
<path d="M0,0 L1,0 L1,1 L0,1 Z " fill="#353540" opacity="0.9843137" transform="translate(32,51)"/>
<path d="M0,0 L1,0 L1,1 L0,1 Z " fill="#353540" opacity="0.8117647" transform="translate(29,51)"/>
<path d="M0,0 L1,0 L1,1 L0,1 Z " fill="#353540" opacity="0.09411765" transform="translate(27,51)"/>
<path d="M0,0 L1,0 L1,1 L0,1 Z " fill="#35353E" opacity="0.20784314" transform="translate(37,50)"/>
<path d="M0,0 L1,0 L1,1 L0,1 Z " fill="#343441" opacity="0.76862746" transform="translate(36,50)"/>
<path d="M0,0 L1,0 L1,1 L0,1 Z " fill="#353540" opacity="0.9843137" transform="translate(27,50)"/>
<path d="M0,0 L1,0 L1,1 L0,1 Z " fill="#333340" opacity="0.078431375" transform="translate(25,50)"/>
<path d="M0,0 L1,0 L1,1 L0,1 Z " fill="#31313B" opacity="0.101960786" transform="translate(39,49)"/>
<path d="M0,0 L1,0 L1,1 L0,1 Z " fill="#343440" opacity="0.627451" transform="translate(38,49)"/>
<path d="M0,0 L1,0 L1,1 L0,1 Z " fill="#343440" opacity="0.9372549" transform="translate(25,49)"/>
<path d="M0,0 L1,0 L1,1 L0,1 Z " fill="#353540" opacity="0.023529412" transform="translate(23,49)"/>
<path d="M0,0 L1,0 L1,1 L0,1 Z " fill="#34343F" opacity="0.4745098" transform="translate(40,48)"/>
<path d="M0,0 L1,0 L1,1 L0,1 Z " fill="#343441" opacity="0.95686275" transform="translate(39,48)"/>
<path d="M0,0 L1,0 L1,1 L0,1 Z " fill="#363440" opacity="0.99607843" transform="translate(32,48)"/>
<path d="M0,0 L1,0 L1,1 L0,1 Z " fill="#3F3941" opacity="0.9490196" transform="translate(31,48)"/>
<path d="M0,0 L1,0 L1,1 L0,1 Z " fill="#353540" opacity="0.8509804" transform="translate(23,48)"/>
<path d="M0,0 L1,0 L1,1 L0,1 Z " fill="#343440" opacity="0.003921569" transform="translate(21,48)"/>
<path d="M0,0 L1,0 L1,1 L0,1 Z " fill="#343440" opacity="0.3254902" transform="translate(42,47)"/>
<path d="M0,0 L1,0 L1,1 L0,1 Z " fill="#343440" opacity="0.8745098" transform="translate(41,47)"/>
<path d="M0,0 L1,0 L1,1 L0,1 Z " fill="#755149" opacity="0.79607844" transform="translate(34,47)"/>
<path d="M0,0 L1,0 L1,1 L0,1 Z " fill="#D57F56" opacity="0.8039216" transform="translate(33,47)"/>
<path d="M0,0 L1,0 L1,1 L0,1 Z " fill="#E58658" opacity="0.98039216" transform="translate(32,47)"/>
<path d="M0,0 L1,0 L1,1 L0,1 Z " fill="#E58658" transform="translate(31,47)"/>
<path d="M0,0 L1,0 L1,1 L0,1 Z " fill="#BF7452" opacity="0.75686276" transform="translate(29,47)"/>
<path d="M0,0 L1,0 L1,1 L0,1 Z " fill="#4E4043" opacity="0.8901961" transform="translate(28,47)"/>
<path d="M0,0 L1,0 L1,1 L0,1 Z " fill="#343440" opacity="0.17254902" transform="translate(20,47)"/>
<path d="M0,0 L1,0 L1,1 L0,1 Z " fill="#353540" opacity="0.1882353" transform="translate(44,46)"/>
<path d="M0,0 L1,0 L1,1 L0,1 Z " fill="#343441" opacity="0.7529412" transform="translate(43,46)"/>
<path d="M0,0 L1,0 L1,1 L0,1 Z " fill="#554344" opacity="0.8666667" transform="translate(36,46)"/>
<path d="M0,0 L1,0 L1,1 L0,1 Z " fill="#D47E55" opacity="0.8" transform="translate(35,46)"/>
<path d="M0,0 L1,0 L1,1 L0,1 Z " fill="#E58757" opacity="0.972549" transform="translate(28,46)"/>
<path d="M0,0 L1,0 L1,1 L0,1 Z " fill="#B16E50" opacity="0.7529412" transform="translate(27,46)"/>
<path d="M0,0 L1,0 L1,1 L0,1 Z " fill="#3E3841" opacity="0.9529412" transform="translate(26,46)"/>
<path d="M0,0 L1,0 L1,1 L0,1 Z " fill="#343441" opacity="0.9882353" transform="translate(20,46)"/>
<path d="M0,0 L1,0 L1,1 L0,1 Z " fill="#333340" opacity="0.078431375" transform="translate(18,46)"/>
<path d="M0,0 L1,0 L1,1 L0,1 Z " fill="#343440" opacity="0.03137255" transform="translate(46,45)"/>
<path d="M0,0 L1,0 L1,1 L0,1 Z " fill="#353541" opacity="0.58431375" transform="translate(45,45)"/>
<path d="M0,0 L1,0 L1,1 L0,1 Z " fill="#343440" opacity="0.99607843" transform="translate(44,45)"/>
<path d="M0,0 L1,0 L1,1 L0,1 Z " fill="#413A42" opacity="0.9411765" transform="translate(38,45)"/>
<path d="M0,0 L1,0 L1,1 L0,1 Z " fill="#BA7252" opacity="0.7529412" transform="translate(37,45)"/>
<path d="M0,0 L1,0 L1,1 L0,1 Z " fill="#E68658" opacity="0.9843137" transform="translate(36,45)"/>
<path d="M0,0 L1,0 L1,1 L0,1 Z " fill="#E48658" opacity="0.9137255" transform="translate(26,45)"/>
<path d="M0,0 L1,0 L1,1 L0,1 Z " fill="#8D5E4C" opacity="0.7647059" transform="translate(25,45)"/>
<path d="M0,0 L1,0 L1,1 L0,1 Z " fill="#363440" opacity="0.99607843" transform="translate(24,45)"/>
<path d="M0,0 L1,0 L1,1 L0,1 Z " fill="#343441" opacity="0.38431373" transform="translate(17,45)"/>
<path d="M0,0 L1,0 L1,1 L0,1 Z " fill="#313142" opacity="0.12156863" transform="translate(47,44)"/>
<path d="M0,0 L1,0 L1,1 L0,1 Z " fill="#343440" opacity="0.79607844" transform="translate(46,44)"/>
<path d="M0,0 L1,0 L1,1 L0,1 Z " fill="#363540" opacity="0.99215686" transform="translate(40,44)"/>
<path d="M0,0 L1,0 L1,1 L0,1 Z " fill="#94624C" opacity="0.75686276" transform="translate(39,44)"/>
<path d="M0,0 L1,0 L1,1 L0,1 Z " fill="#E58758" opacity="0.9254902" transform="translate(38,44)"/>
<path d="M0,0 L1,0 L1,1 L0,1 Z " fill="#DE8357" opacity="0.8392157" transform="translate(24,44)"/>
<path d="M0,0 L1,0 L1,1 L0,1 Z " fill="#674B47" opacity="0.8235294" transform="translate(23,44)"/>
<path d="M0,0 L1,0 L1,1 L0,1 Z " fill="#333340" opacity="0.023529412" transform="translate(15,44)"/>
<path d="M0,0 L1,0 L1,1 L0,1 Z " fill="#343440" opacity="0.06666667" transform="translate(48,43)"/>
<path d="M0,0 L1,0 L1,1 L0,1 Z " fill="#353540" opacity="0.87058824" transform="translate(47,43)"/>
<path d="M0,0 L1,0 L1,1 L0,1 Z " fill="#6C4F47" opacity="0.8117647" transform="translate(41,43)"/>
<path d="M0,0 L1,0 L1,1 L0,1 Z " fill="#E08558" opacity="0.8509804" transform="translate(40,43)"/>
<path d="M0,0 L1,0 L1,1 L0,1 Z " fill="#CA7A55" opacity="0.7764706" transform="translate(22,43)"/>
<path d="M0,0 L1,0 L1,1 L0,1 Z " fill="#4C3E43" opacity="0.8980392" transform="translate(21,43)"/>
<path d="M0,0 L1,0 L1,1 L0,1 Z " fill="#333340" opacity="0.6392157" transform="translate(15,43)"/>
<path d="M0,0 L1,0 L1,1 L0,1 Z " fill="#343440" opacity="0.6901961" transform="translate(48,42)"/>
<path d="M0,0 L1,0 L1,1 L0,1 Z " fill="#4E4143" opacity="0.8901961" transform="translate(43,42)"/>
<path d="M0,0 L1,0 L1,1 L0,1 Z " fill="#CF7E56" opacity="0.78039217" transform="translate(42,42)"/>
<path d="M0,0 L1,0 L1,1 L0,1 Z " fill="#AD6D51" opacity="0.7529412" transform="translate(20,42)"/>
<path d="M0,0 L1,0 L1,1 L0,1 Z " fill="#3C3841" opacity="0.9607843" transform="translate(19,42)"/>
<path d="M0,0 L1,0 L1,1 L0,1 Z " fill="#34343F" opacity="0.38039216" transform="translate(14,42)"/>
<path d="M0,0 L1,0 L1,1 L0,1 Z " fill="#343440" opacity="0.2509804" transform="translate(49,41)"/>
<path d="M0,0 L1,0 L1,1 L0,1 Z " fill="#7E574B" opacity="0.78431374" transform="translate(44,41)"/>
<path d="M0,0 L1,0 L1,1 L0,1 Z " fill="#E7885A" opacity="0.9529412" transform="translate(43,41)"/>
<path d="M0,0 L1,0 L1,1 L0,1 Z " fill="#E7895B" transform="translate(34,41)"/>
<path d="M0,0 L1,0 L1,1 L0,1 Z " fill="#E58659" opacity="0.94509804" transform="translate(33,41)"/>
<path d="M0,0 L1,0 L1,1 L0,1 Z " fill="#CD7149" opacity="0.7490196" transform="translate(32,41)"/>
<path d="M0,0 L1,0 L1,1 L0,1 Z " fill="#D7794F" opacity="0.78431374" transform="translate(30,41)"/>
<path d="M0,0 L1,0 L1,1 L0,1 Z " fill="#E6885A" transform="translate(29,41)"/>
<path d="M0,0 L1,0 L1,1 L0,1 Z " fill="#E3865A" opacity="0.8666667" transform="translate(19,41)"/>
<path d="M0,0 L1,0 L1,1 L0,1 Z " fill="#534344" opacity="0.8745098" transform="translate(18,41)"/>
<path d="M0,0 L1,0 L1,1 L0,1 Z " fill="#343440" opacity="0.9019608" transform="translate(14,41)"/>
<path d="M0,0 L1,0 L1,1 L0,1 Z " fill="#343440" opacity="0.6745098" transform="translate(49,40)"/>
<path d="M0,0 L1,0 L1,1 L0,1 Z " fill="#654B47" opacity="0.827451" transform="translate(45,40)"/>
<path d="M0,0 L1,0 L1,1 L0,1 Z " fill="#E8895A" opacity="0.9843137" transform="translate(44,40)"/>
<path d="M0,0 L1,0 L1,1 L0,1 Z " fill="#E7895A" transform="translate(35,40)"/>
<path d="M0,0 L1,0 L1,1 L0,1 Z " fill="#D3764D" opacity="0.7647059" transform="translate(34,40)"/>
<path d="M0,0 L1,0 L1,1 L0,1 Z " fill="#BD6340" opacity="0.91764706" transform="translate(33,40)"/>
<path d="M0,0 L1,0 L1,1 L0,1 Z " fill="#C06642" opacity="0.8117647" transform="translate(29,40)"/>
<path d="M0,0 L1,0 L1,1 L0,1 Z " fill="#DE8154" opacity="0.84705883" transform="translate(28,40)"/>
<path d="M0,0 L1,0 L1,1 L0,1 Z " fill="#E48859" opacity="0.88235295" transform="translate(18,40)"/>
<path d="M0,0 L1,0 L1,1 L0,1 Z " fill="#3E3841" opacity="0.9529412" transform="translate(17,40)"/>
<path d="M0,0 L1,0 L1,1 L0,1 Z " fill="#34343F" opacity="0.3647059" transform="translate(13,40)"/>
<path d="M0,0 L1,0 L1,1 L0,1 Z " fill="#343441" opacity="0.9882353" transform="translate(49,39)"/>
<path d="M0,0 L1,0 L1,1 L0,1 Z " fill="#DE8559" opacity="0.827451" transform="translate(45,39)"/>
<path d="M0,0 L1,0 L1,1 L0,1 Z " fill="#E88A5C" transform="translate(37,39)"/>
<path d="M0,0 L1,0 L1,1 L0,1 Z " fill="#DC7F53" opacity="0.827451" transform="translate(36,39)"/>
<path d="M0,0 L1,0 L1,1 L0,1 Z " fill="#BF6442" opacity="0.8352941" transform="translate(35,39)"/>
<path d="M0,0 L1,0 L1,1 L0,1 Z " fill="#BD6340" opacity="0.99215686" transform="translate(28,39)"/>
<path d="M0,0 L1,0 L1,1 L0,1 Z " fill="#C56A45" opacity="0.7607843" transform="translate(27,39)"/>
<path d="M0,0 L1,0 L1,1 L0,1 Z " fill="#E48659" opacity="0.91764706" transform="translate(26,39)"/>
<path d="M0,0 L1,0 L1,1 L0,1 Z " fill="#E88A5C" transform="translate(25,39)"/>
<path d="M0,0 L1,0 L1,1 L0,1 Z " fill="#AA6C51" opacity="0.7490196" transform="translate(17,39)"/>
<path d="M0,0 L1,0 L1,1 L0,1 Z " fill="#343441" opacity="0.70980394" transform="translate(13,39)"/>
<path d="M0,0 L1,0 L1,1 L0,1 Z " fill="#313140" opacity="0.14117648" transform="translate(50,38)"/>
<path d="M0,0 L1,0 L1,1 L0,1 Z " fill="#4E4143" opacity="0.8901961" transform="translate(46,38)"/>
<path d="M0,0 L1,0 L1,1 L0,1 Z " fill="#E48658" opacity="0.90588236" transform="translate(38,38)"/>
<path d="M0,0 L1,0 L1,1 L0,1 Z " fill="#C46A45" opacity="0.7647059" transform="translate(37,38)"/>
<path d="M0,0 L1,0 L1,1 L0,1 Z " fill="#CE724A" opacity="0.7529412" transform="translate(25,38)"/>
<path d="M0,0 L1,0 L1,1 L0,1 Z " fill="#E7895A" opacity="0.9764706" transform="translate(24,38)"/>
<path d="M0,0 L1,0 L1,1 L0,1 Z " fill="#E4895A" opacity="0.8627451" transform="translate(17,38)"/>
<path d="M0,0 L1,0 L1,1 L0,1 Z " fill="#353540" opacity="0.8509804" transform="translate(13,38)"/>
<path d="M0,0 L1,0 L1,1 L0,1 Z " fill="#33333F" opacity="0.27058825" transform="translate(50,37)"/>
<path d="M0,0 L1,0 L1,1 L0,1 Z " fill="#715049" opacity="0.80784315" transform="translate(46,37)"/>
<path d="M0,0 L1,0 L1,1 L0,1 Z " fill="#D3764F" opacity="0.7607843" transform="translate(39,37)"/>
<path d="M0,0 L1,0 L1,1 L0,1 Z " fill="#BD6341" opacity="0.9529412" transform="translate(38,37)"/>
<path d="M0,0 L1,0 L1,1 L0,1 Z " fill="#BE6341" opacity="0.8784314" transform="translate(24,37)"/>
<path d="M0,0 L1,0 L1,1 L0,1 Z " fill="#E08256" opacity="0.85490197" transform="translate(23,37)"/>
<path d="M0,0 L1,0 L1,1 L0,1 Z " fill="#E98B5C" opacity="0.972549" transform="translate(17,37)"/>
<path d="M0,0 L1,0 L1,1 L0,1 Z " fill="#343440" opacity="0.9764706" transform="translate(13,37)"/>
<path d="M0,0 L1,0 L1,1 L0,1 Z " fill="#E48559" opacity="0.8784314" transform="translate(40,36)"/>
<path d="M0,0 L1,0 L1,1 L0,1 Z " fill="#BD6340" opacity="0.99215686" transform="translate(31,36)"/>
<path d="M0,0 L1,0 L1,1 L0,1 Z " fill="#C06442" opacity="0.84705883" transform="translate(23,36)"/>
<path d="M0,0 L1,0 L1,1 L0,1 Z " fill="#D97C52" opacity="0.7921569" transform="translate(40,35)"/>
<path d="M0,0 L1,0 L1,1 L0,1 Z " fill="#C16643" opacity="0.92156863" transform="translate(33,35)"/>
<path d="M0,0 L1,0 L1,1 L0,1 Z " fill="#EA8C5D" opacity="0.8352941" transform="translate(32,35)"/>
<path d="M0,0 L1,0 L1,1 L0,1 Z " fill="#E28558" opacity="0.7607843" transform="translate(30,35)"/>
<path d="M0,0 L1,0 L1,1 L0,1 Z " fill="#BD6340" transform="translate(29,35)"/>
<path d="M0,0 L1,0 L1,1 L0,1 Z " fill="#D97E52" opacity="0.7882353" transform="translate(40,34)"/>
<path d="M0,0 L1,0 L1,1 L0,1 Z " fill="#E08258" opacity="0.7529412" transform="translate(33,34)"/>
<path d="M0,0 L1,0 L1,1 L0,1 Z " fill="#CD6F4A" opacity="0.80784315" transform="translate(29,34)"/>
<path d="M0,0 L1,0 L1,1 L0,1 Z " fill="#D3764F" opacity="0.76862746" transform="translate(29,33)"/>
<path d="M0,0 L1,0 L1,1 L0,1 Z " fill="#78564C" opacity="0.7921569" transform="translate(46,32)"/>
<path d="M0,0 L1,0 L1,1 L0,1 Z " fill="#DB7E54" opacity="0.7882353" transform="translate(40,32)"/>
<path d="M0,0 L1,0 L1,1 L0,1 Z " fill="#D2754F" opacity="0.76862746" transform="translate(29,31)"/>
<path d="M0,0 L1,0 L1,1 L0,1 Z " fill="#DA8054" opacity="0.7529412" transform="translate(33,29)"/>
<path d="M0,0 L1,0 L1,1 L0,1 Z " fill="#C66C46" opacity="0.8235294" transform="translate(29,29)"/>
<path d="M0,0 L1,0 L1,1 L0,1 Z " fill="#D87C54" opacity="0.79607844" transform="translate(40,28)"/>
<path d="M0,0 L1,0 L1,1 L0,1 Z " fill="#B85F3D" opacity="0.94509804" transform="translate(33,28)"/>
<path d="M0,0 L1,0 L1,1 L0,1 Z " fill="#E68A5C" opacity="0.7921569" transform="translate(32,28)"/>
<path d="M0,0 L1,0 L1,1 L0,1 Z " fill="#D97E54" opacity="0.7529412" transform="translate(30,28)"/>
<path d="M0,0 L1,0 L1,1 L0,1 Z " fill="#B55D3B" transform="translate(29,28)"/>
<path d="M0,0 L1,0 L1,1 L0,1 Z " fill="#B55D3B" opacity="0.99215686" transform="translate(23,28)"/>
<path d="M0,0 L1,0 L1,1 L0,1 Z " fill="#E6895D" opacity="0.90588236" transform="translate(40,27)"/>
<path d="M0,0 L1,0 L1,1 L0,1 Z " fill="#B35B3A" transform="translate(38,27)"/>
<path d="M0,0 L1,0 L1,1 L0,1 Z " fill="#B75E3C" opacity="0.8156863" transform="translate(23,27)"/>
<path d="M0,0 L1,0 L1,1 L0,1 Z " fill="#343440" opacity="0.26666668" transform="translate(50,26)"/>
<path d="M0,0 L1,0 L1,1 L0,1 Z " fill="#71534B" opacity="0.80784315" transform="translate(46,26)"/>
<path d="M0,0 L1,0 L1,1 L0,1 Z " fill="#D97E53" opacity="0.8039216" transform="translate(39,26)"/>
<path d="M0,0 L1,0 L1,1 L0,1 Z " fill="#B15A39" opacity="0.89411765" transform="translate(38,26)"/>
<path d="M0,0 L1,0 L1,1 L0,1 Z " fill="#B05A39" transform="translate(37,26)"/>
<path d="M0,0 L1,0 L1,1 L0,1 Z " fill="#B35C3B" opacity="0.83137256" transform="translate(24,26)"/>
<path d="M0,0 L1,0 L1,1 L0,1 Z " fill="#E68A5D" opacity="0.89411765" transform="translate(23,26)"/>
<path d="M0,0 L1,0 L1,1 L0,1 Z " fill="#EE9163" opacity="0.972549" transform="translate(17,26)"/>
<path d="M0,0 L1,0 L1,1 L0,1 Z " fill="#343440" opacity="0.9764706" transform="translate(13,26)"/>
<path d="M0,0 L1,0 L1,1 L0,1 Z " fill="#4E4145" opacity="0.89411765" transform="translate(46,25)"/>
<path d="M0,0 L1,0 L1,1 L0,1 Z " fill="#EE9164" transform="translate(45,25)"/>
<path d="M0,0 L1,0 L1,1 L0,1 Z " fill="#EB8E61" opacity="0.9647059" transform="translate(38,25)"/>
<path d="M0,0 L1,0 L1,1 L0,1 Z " fill="#C36B45" opacity="0.7490196" transform="translate(37,25)"/>
<path d="M0,0 L1,0 L1,1 L0,1 Z " fill="#AE5737" opacity="0.9607843" transform="translate(36,25)"/>
<path d="M0,0 L1,0 L1,1 L0,1 Z " fill="#CF754F" opacity="0.76862746" transform="translate(25,25)"/>
<path d="M0,0 L1,0 L1,1 L0,1 Z " fill="#ED9063" transform="translate(24,25)"/>
<path d="M0,0 L1,0 L1,1 L0,1 Z " fill="#353540" opacity="0.019607844" transform="translate(50,24)"/>
<path d="M0,0 L1,0 L1,1 L0,1 Z " fill="#353540" opacity="0.9843137" transform="translate(49,24)"/>
<path d="M0,0 L1,0 L1,1 L0,1 Z " fill="#E28B61" opacity="0.81960785" transform="translate(45,24)"/>
<path d="M0,0 L1,0 L1,1 L0,1 Z " fill="#EF9264" transform="translate(44,24)"/>
<path d="M0,0 L1,0 L1,1 L0,1 Z " fill="#E6895D" opacity="0.8980392" transform="translate(36,24)"/>
<path d="M0,0 L1,0 L1,1 L0,1 Z " fill="#B75E3D" opacity="0.77254903" transform="translate(35,24)"/>
<path d="M0,0 L1,0 L1,1 L0,1 Z " fill="#AC5636" transform="translate(34,24)"/>
<path d="M0,0 L1,0 L1,1 L0,1 Z " fill="#C26844" opacity="0.7490196" transform="translate(27,24)"/>
<path d="M0,0 L1,0 L1,1 L0,1 Z " fill="#EC8E61" opacity="0.95686275" transform="translate(26,24)"/>
<path d="M0,0 L1,0 L1,1 L0,1 Z " fill="#A86F55" opacity="0.7490196" transform="translate(17,24)"/>
<path d="M0,0 L1,0 L1,1 L0,1 Z " fill="#343440" opacity="0.7019608" transform="translate(13,24)"/>
<path d="M0,0 L1,0 L1,1 L0,1 Z " fill="#353541" opacity="0.6627451" transform="translate(49,23)"/>
<path d="M0,0 L1,0 L1,1 L0,1 Z " fill="#604948" opacity="0.84313726" transform="translate(45,23)"/>
<path d="M0,0 L1,0 L1,1 L0,1 Z " fill="#EF9265" opacity="0.972549" transform="translate(44,23)"/>
<path d="M0,0 L1,0 L1,1 L0,1 Z " fill="#EF9265" transform="translate(43,23)"/>
<path d="M0,0 L1,0 L1,1 L0,1 Z " fill="#DA7F56" opacity="0.81960785" transform="translate(34,23)"/>
<path d="M0,0 L1,0 L1,1 L0,1 Z " fill="#AC5836" opacity="0.84313726" transform="translate(33,23)"/>
<path d="M0,0 L1,0 L1,1 L0,1 Z " fill="#B45E3B" opacity="0.77254903" transform="translate(29,23)"/>
<path d="M0,0 L1,0 L1,1 L0,1 Z " fill="#E6885E" opacity="0.89411765" transform="translate(28,23)"/>
<path d="M0,0 L1,0 L1,1 L0,1 Z " fill="#EB8F64" opacity="0.8627451" transform="translate(18,23)"/>
<path d="M0,0 L1,0 L1,1 L0,1 Z " fill="#3C3841" opacity="0.9607843" transform="translate(17,23)"/>
<path d="M0,0 L1,0 L1,1 L0,1 Z " fill="#75544C" opacity="0.8039216" transform="translate(44,22)"/>
<path d="M0,0 L1,0 L1,1 L0,1 Z " fill="#EF9365" opacity="0.92156863" transform="translate(43,22)"/>
<path d="M0,0 L1,0 L1,1 L0,1 Z " fill="#F09365" transform="translate(42,22)"/>
<path d="M0,0 L1,0 L1,1 L0,1 Z " fill="#EF9164" opacity="0.99215686" transform="translate(33,22)"/>
<path d="M0,0 L1,0 L1,1 L0,1 Z " fill="#C16944" opacity="0.7490196" transform="translate(31,22)"/>
<path d="M0,0 L1,0 L1,1 L0,1 Z " fill="#DE8258" opacity="0.83137256" transform="translate(30,22)"/>
<path d="M0,0 L1,0 L1,1 L0,1 Z " fill="#E68E63" opacity="0.83137256" transform="translate(19,22)"/>
<path d="M0,0 L1,0 L1,1 L0,1 Z " fill="#4E4145" opacity="0.89411765" transform="translate(18,22)"/>
<path d="M0,0 L1,0 L1,1 L0,1 Z " fill="#343441" opacity="0.019607844" transform="translate(13,22)"/>
<path d="M0,0 L1,0 L1,1 L0,1 Z " fill="#343440" opacity="0.003921569" transform="translate(49,21)"/>
<path d="M0,0 L1,0 L1,1 L0,1 Z " fill="#343440" opacity="0.63529414" transform="translate(48,21)"/>
<path d="M0,0 L1,0 L1,1 L0,1 Z " fill="#433C43" opacity="0.93333334" transform="translate(43,21)"/>
<path d="M0,0 L1,0 L1,1 L0,1 Z " fill="#C47C5C" opacity="0.75686276" transform="translate(42,21)"/>
<path d="M0,0 L1,0 L1,1 L0,1 Z " fill="#F09265" opacity="0.9843137" transform="translate(41,21)"/>
<path d="M0,0 L1,0 L1,1 L0,1 Z " fill="#A06A56" opacity="0.75686276" transform="translate(20,21)"/>
<path d="M0,0 L1,0 L1,1 L0,1 Z " fill="#373541" opacity="0.9882353" transform="translate(19,21)"/>
<path d="M0,0 L1,0 L1,1 L0,1 Z " fill="#33333F" opacity="0.34901962" transform="translate(14,21)"/>
<path d="M0,0 L1,0 L1,1 L0,1 Z " fill="#343440" opacity="0.043137256" transform="translate(48,20)"/>
<path d="M0,0 L1,0 L1,1 L0,1 Z " fill="#594648" opacity="0.8627451" transform="translate(41,20)"/>
<path d="M0,0 L1,0 L1,1 L0,1 Z " fill="#DF8B63" opacity="0.8" transform="translate(40,20)"/>
<path d="M0,0 L1,0 L1,1 L0,1 Z " fill="#C57E5C" opacity="0.75686276" transform="translate(22,20)"/>
<path d="M0,0 L1,0 L1,1 L0,1 Z " fill="#443C43" opacity="0.93333334" transform="translate(21,20)"/>
<path d="M0,0 L1,0 L1,1 L0,1 Z " fill="#343440" opacity="0.60784316" transform="translate(15,20)"/>
<path d="M0,0 L1,0 L1,1 L0,1 Z " fill="#333340" opacity="0.078431375" transform="translate(47,19)"/>
<path d="M0,0 L1,0 L1,1 L0,1 Z " fill="#353540" opacity="0.7176471" transform="translate(46,19)"/>
<path d="M0,0 L1,0 L1,1 L0,1 Z " fill="#7C584E" opacity="0.7921569" transform="translate(39,19)"/>
<path d="M0,0 L1,0 L1,1 L0,1 Z " fill="#ED9266" opacity="0.87058824" transform="translate(38,19)"/>
<path d="M0,0 L1,0 L1,1 L0,1 Z " fill="#F19467" transform="translate(37,19)"/>
<path d="M0,0 L1,0 L1,1 L0,1 Z " fill="#F19467" transform="translate(25,19)"/>
<path d="M0,0 L1,0 L1,1 L0,1 Z " fill="#DF8A63" opacity="0.8039216" transform="translate(24,19)"/>
<path d="M0,0 L1,0 L1,1 L0,1 Z " fill="#594648" opacity="0.8627451" transform="translate(23,19)"/>
<path d="M0,0 L1,0 L1,1 L0,1 Z " fill="#333341" opacity="0.015686275" transform="translate(15,19)"/>
<path d="M0,0 L1,0 L1,1 L0,1 Z " fill="#34343F" opacity="0.007843138" transform="translate(46,18)"/>
<path d="M0,0 L1,0 L1,1 L0,1 Z " fill="#34343F" opacity="0.45882353" transform="translate(45,18)"/>
<path d="M0,0 L1,0 L1,1 L0,1 Z " fill="#393740" opacity="0.9843137" transform="translate(38,18)"/>
<path d="M0,0 L1,0 L1,1 L0,1 Z " fill="#A46D56" opacity="0.7529412" transform="translate(37,18)"/>
<path d="M0,0 L1,0 L1,1 L0,1 Z " fill="#F19466" opacity="0.9411765" transform="translate(36,18)"/>
<path d="M0,0 L1,0 L1,1 L0,1 Z " fill="#ED9266" opacity="0.8745098" transform="translate(26,18)"/>
<path d="M0,0 L1,0 L1,1 L0,1 Z " fill="#7D594E" opacity="0.7921569" transform="translate(25,18)"/>
<path d="M0,0 L1,0 L1,1 L0,1 Z " fill="#33333F" opacity="0.27058825" transform="translate(17,18)"/>
<path d="M0,0 L1,0 L1,1 L0,1 Z " fill="#31313B" opacity="0.101960786" transform="translate(44,17)"/>
<path d="M0,0 L1,0 L1,1 L0,1 Z " fill="#353540" opacity="0.62352943" transform="translate(43,17)"/>
<path d="M0,0 L1,0 L1,1 L0,1 Z " fill="#343440" opacity="0.99607843" transform="translate(42,17)"/>
<path d="M0,0 L1,0 L1,1 L0,1 Z " fill="#453D44" opacity="0.92941177" transform="translate(36,17)"/>
<path d="M0,0 L1,0 L1,1 L0,1 Z " fill="#C87F5F" opacity="0.75686276" transform="translate(35,17)"/>
<path d="M0,0 L1,0 L1,1 L0,1 Z " fill="#F29567" opacity="0.9882353" transform="translate(34,17)"/>
<path d="M0,0 L1,0 L1,1 L0,1 Z " fill="#A66E58" opacity="0.7529412" transform="translate(27,17)"/>
<path d="M0,0 L1,0 L1,1 L0,1 Z " fill="#393641" opacity="0.98039216" transform="translate(26,17)"/>
<path d="M0,0 L1,0 L1,1 L0,1 Z " fill="#343440" opacity="0.9529412" transform="translate(20,17)"/>
<path d="M0,0 L1,0 L1,1 L0,1 Z " fill="#333340" opacity="0.02745098" transform="translate(18,17)"/>
<path d="M0,0 L1,0 L1,1 L0,1 Z " fill="#323241" opacity="0.2" transform="translate(42,16)"/>
<path d="M0,0 L1,0 L1,1 L0,1 Z " fill="#343440" opacity="0.7647059" transform="translate(41,16)"/>
<path d="M0,0 L1,0 L1,1 L0,1 Z " fill="#594648" opacity="0.8627451" transform="translate(34,16)"/>
<path d="M0,0 L1,0 L1,1 L0,1 Z " fill="#CC8260" opacity="0.7607843" transform="translate(33,16)"/>
<path d="M0,0 L1,0 L1,1 L0,1 Z " fill="#F09467" opacity="0.8980392" transform="translate(32,16)"/>
<path d="M0,0 L1,0 L1,1 L0,1 Z " fill="#F29667" opacity="0.96862745" transform="translate(31,16)"/>
<path d="M0,0 L1,0 L1,1 L0,1 Z " fill="#B6765A" opacity="0.7529412" transform="translate(29,16)"/>
<path d="M0,0 L1,0 L1,1 L0,1 Z " fill="#463E44" opacity="0.92156863" transform="translate(28,16)"/>
<path d="M0,0 L1,0 L1,1 L0,1 Z " fill="#353540" opacity="0.09411765" transform="translate(20,16)"/>
<path d="M0,0 L1,0 L1,1 L0,1 Z " fill="#353541" opacity="0.3372549" transform="translate(40,15)"/>
<path d="M0,0 L1,0 L1,1 L0,1 Z " fill="#343441" opacity="0.8784314" transform="translate(39,15)"/>
<path d="M0,0 L1,0 L1,1 L0,1 Z " fill="#313140" opacity="0.20392157" transform="translate(22,15)"/>
<path d="M0,0 L1,0 L1,1 L0,1 Z " fill="#343441" opacity="0.03529412" transform="translate(39,14)"/>
<path d="M0,0 L1,0 L1,1 L0,1 Z " fill="#343441" opacity="0.47843137" transform="translate(38,14)"/>
<path d="M0,0 L1,0 L1,1 L0,1 Z " fill="#353540" opacity="0.8901961" transform="translate(25,14)"/>
<path d="M0,0 L1,0 L1,1 L0,1 Z " fill="#33333F" opacity="0.003921569" transform="translate(23,14)"/>
<path d="M0,0 L1,0 L1,1 L0,1 Z " fill="#33333D" opacity="0.09803922" transform="translate(37,13)"/>
<path d="M0,0 L1,0 L1,1 L0,1 Z " fill="#343440" opacity="0.6117647" transform="translate(36,13)"/>
<path d="M0,0 L1,0 L1,1 L0,1 Z " fill="#343440" opacity="0.98039216" transform="translate(35,13)"/>
<path d="M0,0 L1,0 L1,1 L0,1 Z " fill="#343440" opacity="0.9529412" transform="translate(27,13)"/>
<path d="M0,0 L1,0 L1,1 L0,1 Z " fill="#343440" opacity="0.039215688" transform="translate(25,13)"/>
<path d="M0,0 L1,0 L1,1 L0,1 Z " fill="#35353F" opacity="0.49019608" transform="translate(34,12)"/>
<path d="M0,0 L1,0 L1,1 L0,1 Z " fill="#353540" opacity="0.75686276" transform="translate(33,12)"/>
<path d="M0,0 L1,0 L1,1 L0,1 Z " fill="#353540" opacity="0.8901961" transform="translate(32,12)"/>
<path d="M0,0 L1,0 L1,1 L0,1 Z " fill="#343441" opacity="0.972549" transform="translate(31,12)"/>
<path d="M0,0 L1,0 L1,1 L0,1 Z " fill="#343440" opacity="0.73333335" transform="translate(29,12)"/>
<path d="M0,0 L1,0 L1,1 L0,1 Z " fill="#343440" opacity="0.050980393" transform="translate(27,12)"/>
</svg>
