<?xml version="1.0" encoding="UTF-8"?>
<!-- Generator: visioncortex VTracer 0.6.4 -->
<svg version="1.1" xmlns="http://www.w3.org/2000/svg" width="64" height="64">
<path d="M0,0 L8,0 L8,1 L10,1 L10,2 L11,2 L11,3 L12,3 L12,5 L13,5 L13,6 L15,6 L15,5 L28,5 L28,6 L31,6 L31,7 L33,7 L33,8 L35,8 L35,9 L38,9 L38,10 L53,10 L53,11 L55,11 L55,12 L56,12 L56,14 L57,14 L57,17 L58,17 L58,43 L57,43 L57,47 L56,47 L56,48 L55,48 L55,49 L54,49 L54,50 L53,50 L53,51 L50,51 L50,52 L37,52 L37,51 L34,51 L34,50 L32,50 L32,49 L30,49 L30,48 L28,48 L28,47 L15,47 L15,48 L14,48 L14,63 L-6,63 L-6,9 L-5,9 L-5,5 L-4,5 L-4,3 L-3,3 L-3,2 L-2,2 L-2,1 L0,1 Z " fill="#419FDD" transform="translate(6,1)"/>
<path d="M0,0 L8,0 L8,1 L10,1 L10,2 L11,2 L11,3 L12,3 L12,5 L13,5 L13,6 L15,6 L15,5 L28,5 L28,6 L31,6 L31,7 L33,7 L33,8 L35,8 L35,9 L38,9 L38,10 L53,10 L53,11 L55,11 L55,12 L56,12 L56,14 L57,14 L57,17 L58,17 L58,43 L57,43 L57,47 L56,47 L56,48 L55,48 L55,49 L54,49 L54,50 L53,50 L53,51 L50,51 L50,52 L37,52 L37,51 L34,51 L34,50 L32,50 L32,49 L30,49 L30,48 L28,48 L28,47 L15,47 L15,48 L14,48 L14,63 L-6,63 L-6,9 L-5,9 L-5,5 L-4,5 L-4,3 L-3,3 L-3,2 L-2,2 L-2,1 L0,1 Z M16,8 L16,9 L14,9 L14,10 L12,10 L12,11 L11,11 L11,12 L10,12 L10,15 L-2,15 L-2,23 L10,23 L10,31 L-2,31 L-2,39 L10,39 L10,42 L11,42 L11,43 L12,43 L12,44 L16,44 L16,43 L27,43 L27,44 L29,44 L29,45 L32,45 L32,46 L34,46 L34,47 L36,47 L36,48 L39,48 L39,49 L47,49 L47,48 L51,48 L51,47 L53,47 L53,45 L54,45 L54,15 L53,15 L53,14 L52,14 L52,13 L36,13 L36,12 L34,12 L34,11 L31,11 L31,10 L29,10 L29,9 L27,9 L27,8 Z " fill="#353541" transform="translate(6,1)"/>
<path d="M0,0 L2,0 L2,34 L0,34 L0,33 L-1,33 L-1,32 L-2,32 L-2,29 L-14,29 L-14,21 L-2,21 L-2,13 L-14,13 L-14,5 L-2,5 L-2,2 L-1,2 L-1,1 L0,1 Z " fill="#366FBF" transform="translate(18,11)"/>
<path d="M0,0 L12,0 L12,24 L0,24 Z " fill="#DE7E4F" transform="translate(4,40)"/>
<path d="M0,0 L5,0 L5,1 L7,1 L7,2 L8,2 L8,3 L9,3 L9,12 L-3,12 L-3,3 L-2,3 L-2,2 L-1,2 L-1,1 L0,1 Z " fill="#DE7E4F" transform="translate(7,4)"/>
<path d="M0,0 L12,0 L12,8 L0,8 Z " fill="#3C8CD1" transform="translate(4,32)"/>
<path d="M0,0 L12,0 L12,8 L0,8 Z " fill="#DE7E4F" transform="translate(4,24)"/>
<path d="M0,0 L12,0 L12,8 L0,8 Z " fill="#3C8CD1" transform="translate(4,16)"/>
<path d="M0,0 L5,0 L5,1 L7,1 L7,2 L8,2 L8,5 L6,5 L6,4 L0,4 L0,5 L-1,5 L-1,6 L-2,6 L-2,7 L-3,7 L-3,3 L-2,3 L-2,2 L-1,2 L-1,1 L0,1 Z " fill="#EE9366" transform="translate(7,4)"/>
<path d="M0,0 L5,0 L5,8 L0,8 Z " fill="#3F97D8" transform="translate(4,32)"/>
<path d="M0,0 L5,0 L5,8 L0,8 Z " fill="#3F97D8" transform="translate(4,16)"/>
<path d="M0,0 L3,0 L3,8 L0,8 Z " fill="#3D91D4" transform="translate(9,32)"/>
<path d="M0,0 L3,0 L3,8 L0,8 Z " fill="#3D91D4" transform="translate(9,16)"/>
<path d="M0,0 L2,0 L2,1 L0,1 Z M-5,2 L-4,2 L-4,3 L-5,3 Z M-6,3 L-5,3 L-5,4 L-6,4 Z M-7,4 L-6,4 L-6,5 L-7,5 Z " fill="#343440" opacity="0.9607843" transform="translate(9,0)"/>
<path d="M0,0 L2,0 L2,8 L0,8 Z " fill="#409BDB" transform="translate(4,32)"/>
<path d="M0,0 L2,0 L2,8 L0,8 Z " fill="#409BDB" transform="translate(4,16)"/>
<path d="M0,0 L1,0 L1,1 L0,1 Z " fill="#343440" opacity="0.9764706" transform="translate(27,5)"/>
<path d="M0,0 L1,0 L1,1 L0,1 Z " fill="#343441" opacity="0.5372549" transform="translate(54,10)"/>
<path d="M0,0 L1,0 L1,1 L0,1 Z " fill="#343441" opacity="0.8627451" transform="translate(50,53)"/>
<path d="M0,0 L1,0 L1,1 L0,1 Z " fill="#353540" opacity="0.8901961" transform="translate(48,53)"/>
<path d="M0,0 L14,0 L14,1 L0,1 Z " fill="#396182" transform="translate(44,14)"/>
<path d="M0,0 L6,0 L6,1 L1,1 L1,2 L0,2 L0,3 L-1,3 L-1,4 L-2,4 L-2,5 L-3,5 L-3,3 L-2,3 L-2,2 L-1,2 L-1,1 L0,1 Z " fill="#DE7E4F" transform="translate(7,8)"/>
<path d="M0,0 L5,0 L5,1 L1,1 L1,2 L0,2 L0,3 L-1,3 L-1,4 L-2,4 L-2,5 L-3,5 L-3,3 L-2,3 L-2,2 L-1,2 L-1,1 L0,1 Z " fill="#EE9366" transform="translate(7,4)"/>
<path d="M0,0 L11,0 L11,1 L0,1 Z " fill="#353A48" transform="translate(22,44)"/>
<path d="M0,0 L11,0 L11,1 L0,1 Z " fill="#409CD9" transform="translate(22,9)"/>
<path d="M0,0 L1,0 L1,1 L0,1 Z " fill="#353541" opacity="0.03137255" transform="translate(27,48)"/>
<path d="M0,0 L1,0 L1,6 L0,6 L0,4 L-1,4 L-1,3 L-2,3 L-2,2 L0,2 Z " fill="#DC8962" transform="translate(15,7)"/>
<path d="M0,0 L8,0 L8,1 L0,1 Z " fill="#3F90C7" transform="translate(45,49)"/>
<path d="M0,0 L1,0 L1,8 L0,8 Z " fill="#3B87CE" transform="translate(15,32)"/>
<path d="M0,0 L1,0 L1,8 L0,8 Z " fill="#3C8ACF" transform="translate(14,32)"/>
<path d="M0,0 L1,0 L1,8 L0,8 Z " fill="#3D8DD2" transform="translate(12,32)"/>
<path d="M0,0 L1,0 L1,8 L0,8 Z " fill="#3D90D3" transform="translate(11,32)"/>
<path d="M0,0 L1,0 L1,8 L0,8 Z " fill="#3E93D6" transform="translate(9,32)"/>
<path d="M0,0 L1,0 L1,8 L0,8 Z " fill="#3E96D7" transform="translate(8,32)"/>
<path d="M0,0 L1,0 L1,8 L0,8 Z " fill="#3F99D9" transform="translate(6,32)"/>
<path d="M0,0 L1,0 L1,8 L0,8 Z " fill="#409DDC" transform="translate(4,32)"/>
<path d="M0,0 L1,0 L1,8 L0,8 Z " fill="#3B87CE" transform="translate(15,16)"/>
<path d="M0,0 L1,0 L1,8 L0,8 Z " fill="#3C8ACF" transform="translate(14,16)"/>
<path d="M0,0 L1,0 L1,8 L0,8 Z " fill="#3D8DD2" transform="translate(12,16)"/>
<path d="M0,0 L1,0 L1,8 L0,8 Z " fill="#3D90D3" transform="translate(11,16)"/>
<path d="M0,0 L1,0 L1,8 L0,8 Z " fill="#3E93D6" transform="translate(9,16)"/>
<path d="M0,0 L1,0 L1,8 L0,8 Z " fill="#3E96D7" transform="translate(8,16)"/>
<path d="M0,0 L1,0 L1,8 L0,8 Z " fill="#3F99D9" transform="translate(6,16)"/>
<path d="M0,0 L1,0 L1,8 L0,8 Z " fill="#409DDC" transform="translate(4,16)"/>
<path d="M0,0 L1,0 L1,1 L0,1 Z " fill="#343441" opacity="0.8784314" transform="translate(25,5)"/>
<path d="M0,0 L6,0 L6,1 L0,1 Z " fill="#3C7CAB" transform="translate(52,14)"/>
<path d="M0,0 L1,0 L1,1 L0,1 Z " fill="#33333F" opacity="0.33333334" transform="translate(48,10)"/>
<path d="M0,0 L6,0 L6,1 L0,1 Z " fill="#D0774D" transform="translate(7,8)"/>
<path d="M0,0 L1,0 L1,1 L0,1 Z M-1,1 L0,1 L0,2 L-1,2 Z M-2,2 L-1,2 L-1,3 L-2,3 Z " fill="#353541" transform="translate(4,2)"/>
<path d="M0,0 L5,0 L5,1 L0,1 Z " fill="#DC8962" transform="translate(7,4)"/>
<path d="M0,0 L1,0 L1,1 L0,1 Z " fill="#353541" opacity="0.6784314" transform="translate(46,53)"/>
<path d="M0,0 L4,0 L4,1 L0,1 Z " fill="#3E91C9" transform="translate(45,49)"/>
<path d="M0,0 L4,0 L4,1 L0,1 Z " fill="#353E4E" transform="translate(22,44)"/>
<path d="M0,0 L1,0 L1,1 L0,1 Z " fill="#343440" opacity="0.9019608" transform="translate(63,17)"/>
<path d="M0,0 L1,0 L1,1 L0,1 Z " fill="#33333F" opacity="0.4117647" transform="translate(57,10)"/>
<path d="M0,0 L4,0 L4,1 L0,1 Z " fill="#3E8FC6" transform="translate(22,9)"/>
<path d="M0,0 L1,0 L1,1 L0,1 Z " fill="#343440" opacity="0.8745098" transform="translate(0,8)"/>
<path d="M0,0 L1,0 L1,1 L0,1 Z " fill="#353540" opacity="0.8901961" transform="translate(5,1)"/>
<path d="M0,0 L1,0 L1,1 L2,1 L2,2 L0,2 Z " fill="#353541" transform="translate(16,43)"/>
<path d="M0,0 L1,0 L1,1 L0,1 Z " fill="#353540" opacity="0.003921569" transform="translate(61,11)"/>
<path d="M0,0 L1,0 L1,1 L0,1 Z " fill="#333341" opacity="0.21568628" transform="translate(43,9)"/>
<path d="M0,0 L2,0 L2,1 L1,1 L1,2 L0,2 Z " fill="#DB875E" transform="translate(4,9)"/>
<path d="M0,0 L1,0 L1,1 L0,1 Z " fill="#353541" opacity="0.32156864" transform="translate(36,6)"/>
<path d="M0,0 L1,0 L1,1 L0,1 Z " fill="#343441" opacity="0.019607844" transform="translate(20,5)"/>
<path d="M0,0 L1,0 L1,1 L0,1 Z M-1,1 L0,1 L0,2 L-1,2 Z " fill="#333340" opacity="0.54509807" transform="translate(3,2)"/>
<path d="M0,0 L1,0 L1,1 L0,1 Z " fill="#343440" opacity="0.007843138" transform="translate(56,53)"/>
<path d="M0,0 L1,0 L1,1 L0,1 Z " fill="#353540" opacity="0.3764706" transform="translate(54,53)"/>
<path d="M0,0 L1,0 L1,1 L0,1 Z " fill="#353540" opacity="0.35686275" transform="translate(44,53)"/>
<path d="M0,0 L1,0 L1,1 L0,1 Z " fill="#33333E" opacity="0.1764706" transform="translate(58,52)"/>
<path d="M0,0 L1,0 L1,1 L0,1 Z " fill="#35353F" opacity="0.49019608" transform="translate(41,52)"/>
<path d="M0,0 L1,0 L1,1 L0,1 Z " fill="#333340" opacity="0.29411766" transform="translate(38,51)"/>
<path d="M0,0 L1,0 L1,1 L0,1 Z " fill="#333341" opacity="0.36862746" transform="translate(36,50)"/>
<path d="M0,0 L2,0 L2,1 L0,1 Z " fill="#38546E" transform="translate(53,49)"/>
<path d="M0,0 L2,0 L2,1 L0,1 Z " fill="#3C79A6" transform="translate(45,49)"/>
<path d="M0,0 L1,0 L1,1 L0,1 Z " fill="#343440" opacity="0.42352942" transform="translate(34,49)"/>
<path d="M0,0 L1,0 L1,1 L0,1 Z " fill="#333340" opacity="0.02745098" transform="translate(63,48)"/>
<path d="M0,0 L2,0 L2,1 L0,1 Z " fill="#3F95CF" transform="translate(42,48)"/>
<path d="M0,0 L1,0 L1,1 L0,1 Z " fill="#343441" opacity="0.69411767" transform="translate(32,48)"/>
<path d="M0,0 L1,0 L1,1 L0,1 Z " fill="#34343C" opacity="0.13333334" transform="translate(25,48)"/>
<path d="M0,0 L1,0 L1,1 L0,1 Z " fill="#353540" opacity="0.5294118" transform="translate(23,48)"/>
<path d="M0,0 L1,0 L1,2 L0,2 Z " fill="#353743" transform="translate(59,46)"/>
<path d="M0,0 L2,0 L2,1 L0,1 Z " fill="#4097D1" transform="translate(35,45)"/>
<path d="M0,0 L2,0 L2,1 L0,1 Z " fill="#353A4A" transform="translate(19,45)"/>
<path d="M0,0 L2,0 L2,1 L0,1 Z " fill="#3B6E94" transform="translate(31,44)"/>
<path d="M0,0 L2,0 L2,1 L0,1 Z " fill="#3A678A" transform="translate(22,44)"/>
<path d="M0,0 L1,0 L1,2 L0,2 Z " fill="#3F94CD" transform="translate(59,16)"/>
<path d="M0,0 L1,0 L1,1 L0,1 Z " fill="#343441" opacity="0.49411765" transform="translate(63,15)"/>
<path d="M0,0 L1,0 L1,1 L0,1 Z " fill="#343440" opacity="0.9372549" transform="translate(62,14)"/>
<path d="M0,0 L2,0 L2,1 L0,1 Z " fill="#3C7AA7" transform="translate(52,14)"/>
<path d="M0,0 L2,0 L2,1 L0,1 Z " fill="#3B719A" transform="translate(50,14)"/>
<path d="M0,0 L2,0 L2,1 L0,1 Z " fill="#3A698E" transform="translate(48,14)"/>
<path d="M0,0 L2,0 L2,1 L0,1 Z " fill="#3A678C" transform="translate(44,14)"/>
<path d="M0,0 L1,0 L1,2 L0,2 Z " fill="#356DBC" transform="translate(16,13)"/>
<path d="M0,0 L2,0 L2,1 L0,1 Z " fill="#343847" transform="translate(42,13)"/>
<path d="M0,0 L1,0 L1,2 L0,2 Z " fill="#BC704D" transform="translate(15,11)"/>
<path d="M0,0 L1,0 L1,2 L0,2 Z " fill="#BE704D" transform="translate(4,11)"/>
<path d="M0,0 L2,0 L2,1 L0,1 Z " fill="#363F4F" transform="translate(37,11)"/>
<path d="M0,0 L1,0 L1,1 L0,1 Z " fill="#353540" opacity="0.50980395" transform="translate(52,10)"/>
<path d="M0,0 L1,0 L1,1 L0,1 Z " fill="#343440" opacity="0.41960785" transform="translate(50,10)"/>
<path d="M0,0 L1,0 L1,1 L0,1 Z " fill="#33333F" opacity="0.33333334" transform="translate(46,10)"/>
<path d="M0,0 L2,0 L2,1 L0,1 Z " fill="#353A48" transform="translate(35,10)"/>
<path d="M0,0 L2,0 L2,1 L0,1 Z " fill="#409DDB" transform="translate(20,10)"/>
<path d="M0,0 L2,0 L2,1 L0,1 Z " fill="#385A79" transform="translate(31,9)"/>
<path d="M0,0 L2,0 L2,1 L0,1 Z " fill="#3B6E94" transform="translate(22,9)"/>
<path d="M0,0 L1,0 L1,1 L0,1 Z M1,1 L2,1 L2,2 L1,2 Z " fill="#C0714C" transform="translate(13,9)"/>
<path d="M0,0 L1,0 L1,1 L0,1 Z M-1,1 L0,1 L0,2 L-1,2 Z " fill="#C0714D" transform="translate(6,9)"/>
<path d="M0,0 L1,0 L1,1 L0,1 Z " fill="#353540" opacity="0.09411765" transform="translate(41,8)"/>
<path d="M0,0 L1,0 L1,2 L0,2 Z " fill="#BA785B" transform="translate(15,7)"/>
<path d="M0,0 L2,0 L2,1 L0,1 Z " fill="#BA7353" transform="translate(11,8)"/>
<path d="M0,0 L2,0 L2,1 L0,1 Z " fill="#BD704D" transform="translate(7,8)"/>
<path d="M0,0 L1,0 L1,2 L0,2 Z " fill="#BA785C" transform="translate(4,7)"/>
<path d="M0,0 L1,0 L1,1 L0,1 Z " fill="#343440" opacity="0.05490196" transform="translate(39,7)"/>
<path d="M0,0 L1,0 L1,1 L0,1 Z " fill="#343440" opacity="0.9529412" transform="translate(20,6)"/>
<path d="M0,0 L1,0 L1,1 L0,1 Z " fill="#333340" opacity="0.37254903" transform="translate(0,6)"/>
<path d="M0,0 L1,0 L1,1 L0,1 Z " fill="#323240" opacity="0.011764706" transform="translate(34,5)"/>
<path d="M0,0 L1,0 L1,1 L0,1 Z " fill="#333340" opacity="0.46666667" transform="translate(32,5)"/>
<path d="M0,0 L1,0 L1,1 L0,1 Z " fill="#333340" opacity="0.61960787" transform="translate(23,5)"/>
<path d="M0,0 L1,0 L1,1 L0,1 Z " fill="#343440" opacity="0.8862745" transform="translate(18,5)"/>
<path d="M0,0 L1,0 L1,1 L0,1 Z M1,1 L2,1 L2,2 L1,2 Z " fill="#C17C5C" transform="translate(13,5)"/>
<path d="M0,0 L1,0 L1,1 L0,1 Z M-1,1 L0,1 L0,2 L-1,2 Z " fill="#C17B5C" transform="translate(6,5)"/>
<path d="M0,0 L1,0 L1,1 L0,1 Z " fill="#353540" opacity="0.8901961" transform="translate(1,5)"/>
<path d="M0,0 L2,0 L2,1 L0,1 Z " fill="#363541" transform="translate(12,4)"/>
<path d="M0,0 L2,0 L2,1 L0,1 Z " fill="#BA785C" transform="translate(7,4)"/>
<path d="M0,0 L1,0 L1,1 L0,1 Z " fill="#343440" opacity="0.5568628" transform="translate(17,3)"/>
<path d="M0,0 L1,0 L1,1 L0,1 Z " fill="#333340" opacity="0.03529412" transform="translate(14,0)"/>
<path d="M0,0 L1,0 L1,1 L0,1 Z " fill="#343440" opacity="0.8745098" transform="translate(8,0)"/>
<path d="M0,0 L1,0 L1,1 L0,1 Z " fill="#333340" opacity="0.37254903" transform="translate(6,0)"/>
<path d="M0,0 L1,0 L1,1 L0,1 Z " fill="#32323D" opacity="0.18039216" transform="translate(55,53)"/>
<path d="M0,0 L1,0 L1,1 L0,1 Z " fill="#343440" opacity="0.57254905" transform="translate(53,53)"/>
<path d="M0,0 L1,0 L1,1 L0,1 Z " fill="#353540" opacity="0.75686276" transform="translate(52,53)"/>
<path d="M0,0 L1,0 L1,1 L0,1 Z " fill="#343440" opacity="0.8235294" transform="translate(51,53)"/>
<path d="M0,0 L1,0 L1,1 L0,1 Z " fill="#343440" opacity="0.9019608" transform="translate(49,53)"/>
<path d="M0,0 L1,0 L1,1 L0,1 Z " fill="#343441" opacity="0.78431374" transform="translate(47,53)"/>
<path d="M0,0 L1,0 L1,1 L0,1 Z " fill="#343441" opacity="0.5686275" transform="translate(45,53)"/>
<path d="M0,0 L1,0 L1,1 L0,1 Z " fill="#2F2F42" opacity="0.105882354" transform="translate(43,53)"/>
<path d="M0,0 L1,0 L1,1 L0,1 Z " fill="#353540" opacity="0.5294118" transform="translate(57,52)"/>
<path d="M0,0 L1,0 L1,1 L0,1 Z " fill="#343440" opacity="0.88235295" transform="translate(56,52)"/>
<path d="M0,0 L1,0 L1,1 L0,1 Z " fill="#353541" opacity="0.83137256" transform="translate(42,52)"/>
<path d="M0,0 L1,0 L1,1 L0,1 Z " fill="#35353C" opacity="0.14901961" transform="translate(40,52)"/>
<path d="M0,0 L1,0 L1,1 L0,1 Z " fill="#31313E" opacity="0.16078432" transform="translate(60,51)"/>
<path d="M0,0 L1,0 L1,1 L0,1 Z " fill="#343440" opacity="0.74509805" transform="translate(59,51)"/>
<path d="M0,0 L1,0 L1,1 L0,1 Z " fill="#343440" opacity="0.7607843" transform="translate(39,51)"/>
<path d="M0,0 L1,0 L1,1 L0,1 Z " fill="#343440" opacity="0.003921569" transform="translate(37,51)"/>
<path d="M0,0 L1,0 L1,1 L0,1 Z " fill="#343440" opacity="0.34509805" transform="translate(61,50)"/>
<path d="M0,0 L1,0 L1,1 L0,1 Z " fill="#343440" opacity="0.98039216" transform="translate(60,50)"/>
<path d="M0,0 L1,0 L1,1 L0,1 Z " fill="#343440" opacity="0.827451" transform="translate(37,50)"/>
<path d="M0,0 L1,0 L1,1 L0,1 Z " fill="#343440" opacity="0.011764706" transform="translate(35,50)"/>
<path d="M0,0 L1,0 L1,1 L0,1 Z " fill="#34343F" opacity="0.28627452" transform="translate(62,49)"/>
<path d="M0,0 L1,0 L1,1 L0,1 Z " fill="#353540" opacity="0.9843137" transform="translate(61,49)"/>
<path d="M0,0 L1,0 L1,1 L0,1 Z " fill="#343847" transform="translate(55,49)"/>
<path d="M0,0 L1,0 L1,1 L0,1 Z " fill="#3A688E" transform="translate(53,49)"/>
<path d="M0,0 L1,0 L1,1 L0,1 Z " fill="#3C7DAB" transform="translate(52,49)"/>
<path d="M0,0 L1,0 L1,1 L0,1 Z " fill="#3E8CC1" transform="translate(51,49)"/>
<path d="M0,0 L1,0 L1,1 L0,1 Z " fill="#3F94CD" transform="translate(49,49)"/>
<path d="M0,0 L1,0 L1,1 L0,1 Z " fill="#3D85B7" transform="translate(47,49)"/>
<path d="M0,0 L1,0 L1,1 L0,1 Z " fill="#3A6689" transform="translate(45,49)"/>
<path d="M0,0 L1,0 L1,1 L0,1 Z " fill="#374C63" transform="translate(44,49)"/>
<path d="M0,0 L1,0 L1,1 L0,1 Z " fill="#353743" transform="translate(43,49)"/>
<path d="M0,0 L1,0 L1,1 L0,1 Z " fill="#343440" opacity="0.8666667" transform="translate(35,49)"/>
<path d="M0,0 L1,0 L1,1 L0,1 Z " fill="#353540" opacity="0.047058824" transform="translate(33,49)"/>
<path d="M0,0 L1,0 L1,1 L0,1 Z " fill="#353541" opacity="0.06666667" transform="translate(20,49)"/>
<path d="M0,0 L1,0 L1,1 L0,1 Z " fill="#343440" opacity="0.8980392" transform="translate(62,48)"/>
<path d="M0,0 L1,0 L1,1 L0,1 Z " fill="#385169" transform="translate(57,48)"/>
<path d="M0,0 L1,0 L1,1 L0,1 Z " fill="#3C78A3" transform="translate(56,48)"/>
<path d="M0,0 L1,0 L1,1 L0,1 Z " fill="#3F99D5" transform="translate(55,48)"/>
<path d="M0,0 L1,0 L1,1 L0,1 Z " fill="#3B739D" transform="translate(42,48)"/>
<path d="M0,0 L1,0 L1,1 L0,1 Z " fill="#385069" transform="translate(41,48)"/>
<path d="M0,0 L1,0 L1,1 L0,1 Z " fill="#343542" transform="translate(40,48)"/>
<path d="M0,0 L1,0 L1,1 L0,1 Z " fill="#353540" opacity="0.9647059" transform="translate(33,48)"/>
<path d="M0,0 L1,0 L1,1 L0,1 Z " fill="#343440" opacity="0.40392157" transform="translate(31,48)"/>
<path d="M0,0 L1,0 L1,1 L0,1 Z " fill="#35353E" opacity="0.20784314" transform="translate(30,48)"/>
<path d="M0,0 L1,0 L1,1 L0,1 Z " fill="#353541" opacity="0.0627451" transform="translate(29,48)"/>
<path d="M0,0 L1,0 L1,1 L0,1 Z " fill="#353541" opacity="0.039215688" transform="translate(28,48)"/>
<path d="M0,0 L1,0 L1,1 L0,1 Z " fill="#353541" opacity="0.02745098" transform="translate(26,48)"/>
<path d="M0,0 L1,0 L1,1 L0,1 Z " fill="#33333F" opacity="0.33333334" transform="translate(24,48)"/>
<path d="M0,0 L1,0 L1,1 L0,1 Z " fill="#343441" opacity="0.7411765" transform="translate(22,48)"/>
<path d="M0,0 L1,0 L1,1 L0,1 Z " fill="#343440" opacity="0.91764706" transform="translate(21,48)"/>
<path d="M0,0 L1,0 L1,1 L0,1 Z " fill="#333340" opacity="0.3882353" transform="translate(63,47)"/>
<path d="M0,0 L1,0 L1,1 L0,1 Z " fill="#3C79A5" transform="translate(58,47)"/>
<path d="M0,0 L1,0 L1,1 L0,1 Z " fill="#3F8DC2" transform="translate(40,47)"/>
<path d="M0,0 L1,0 L1,1 L0,1 Z " fill="#385A79" transform="translate(39,47)"/>
<path d="M0,0 L1,0 L1,1 L0,1 Z " fill="#343644" transform="translate(38,47)"/>
<path d="M0,0 L1,0 L1,1 L0,1 Z " fill="#343440" opacity="0.7294118" transform="translate(63,46)"/>
<path d="M0,0 L1,0 L1,1 L0,1 Z " fill="#39668B" transform="translate(59,46)"/>
<path d="M0,0 L1,0 L1,1 L0,1 Z " fill="#3F91CA" transform="translate(38,46)"/>
<path d="M0,0 L1,0 L1,1 L0,1 Z " fill="#396081" transform="translate(37,46)"/>
<path d="M0,0 L1,0 L1,1 L0,1 Z " fill="#343847" transform="translate(36,46)"/>
<path d="M0,0 L1,0 L1,1 L0,1 Z " fill="#343440" opacity="0.8745098" transform="translate(63,45)"/>
<path d="M0,0 L1,0 L1,1 L0,1 Z " fill="#3F90C7" transform="translate(59,45)"/>
<path d="M0,0 L1,0 L1,1 L0,1 Z " fill="#3A6A8F" transform="translate(35,45)"/>
<path d="M0,0 L1,0 L1,1 L0,1 Z " fill="#364355" transform="translate(34,45)"/>
<path d="M0,0 L1,0 L1,1 L0,1 Z " fill="#343748" transform="translate(19,45)"/>
<path d="M0,0 L1,0 L1,1 L0,1 Z " fill="#343440" opacity="0.99215686" transform="translate(63,44)"/>
<path d="M0,0 L1,0 L1,1 L0,1 Z " fill="#409DDB" transform="translate(59,44)"/>
<path d="M0,0 L1,0 L1,1 L0,1 Z " fill="#3E8CC2" transform="translate(33,44)"/>
<path d="M0,0 L1,0 L1,1 L0,1 Z " fill="#385570" transform="translate(31,44)"/>
<path d="M0,0 L1,0 L1,1 L0,1 Z " fill="#354256" transform="translate(30,44)"/>
<path d="M0,0 L1,0 L1,1 L0,1 Z " fill="#37516B" transform="translate(24,44)"/>
<path d="M0,0 L1,0 L1,1 L0,1 Z " fill="#3C7BA9" transform="translate(22,44)"/>
<path d="M0,0 L1,0 L1,1 L0,1 Z " fill="#3F91C8" transform="translate(21,44)"/>
<path d="M0,0 L1,0 L1,1 L0,1 Z " fill="#3562A3" transform="translate(18,44)"/>
<path d="M0,0 L1,0 L1,1 L0,1 Z " fill="#35425D" transform="translate(17,44)"/>
<path d="M0,0 L1,0 L1,1 L0,1 Z " fill="#356CB9" transform="translate(17,43)"/>
<path d="M0,0 L1,0 L1,1 L0,1 Z " fill="#34405A" transform="translate(16,43)"/>
<path d="M0,0 L1,0 L1,1 L0,1 Z " fill="#355E9C" transform="translate(16,42)"/>
<path d="M0,0 L1,0 L1,1 L0,1 Z " fill="#356BB8" transform="translate(16,41)"/>
<path d="M0,0 L1,0 L1,1 L0,1 Z " fill="#343440" opacity="0.74509805" transform="translate(63,16)"/>
<path d="M0,0 L1,0 L1,1 L0,1 Z " fill="#3B729C" transform="translate(59,16)"/>
<path d="M0,0 L1,0 L1,1 L0,1 Z " fill="#353D4D" transform="translate(59,15)"/>
<path d="M0,0 L1,0 L1,1 L0,1 Z " fill="#3E8CC2" transform="translate(58,15)"/>
<path d="M0,0 L1,0 L1,1 L0,1 Z " fill="#343440" opacity="0.05882353" transform="translate(63,14)"/>
<path d="M0,0 L1,0 L1,1 L0,1 Z " fill="#353A49" transform="translate(58,14)"/>
<path d="M0,0 L1,0 L1,1 L0,1 Z " fill="#3A688C" transform="translate(57,14)"/>
<path d="M0,0 L1,0 L1,1 L0,1 Z " fill="#3C79A5" transform="translate(56,14)"/>
<path d="M0,0 L1,0 L1,1 L0,1 Z " fill="#3D7EAD" transform="translate(54,14)"/>
<path d="M0,0 L1,0 L1,1 L0,1 Z " fill="#3C76A1" transform="translate(52,14)"/>
<path d="M0,0 L1,0 L1,1 L0,1 Z " fill="#3B6D95" transform="translate(50,14)"/>
<path d="M0,0 L1,0 L1,1 L0,1 Z " fill="#396588" transform="translate(48,14)"/>
<path d="M0,0 L1,0 L1,1 L0,1 Z " fill="#385C7C" transform="translate(46,14)"/>
<path d="M0,0 L1,0 L1,1 L0,1 Z " fill="#3C7FAF" transform="translate(44,14)"/>
<path d="M0,0 L1,0 L1,1 L0,1 Z " fill="#409AD6" transform="translate(43,14)"/>
<path d="M0,0 L1,0 L1,1 L0,1 Z " fill="#33333F" opacity="0.42745098" transform="translate(62,13)"/>
<path d="M0,0 L1,0 L1,1 L0,1 Z " fill="#385875" transform="translate(42,13)"/>
<path d="M0,0 L1,0 L1,1 L0,1 Z " fill="#3D7DAB" transform="translate(41,13)"/>
<path d="M0,0 L1,0 L1,1 L0,1 Z " fill="#409DDA" transform="translate(40,13)"/>
<path d="M0,0 L1,0 L1,1 L0,1 Z " fill="#3563A7" transform="translate(16,13)"/>
<path d="M0,0 L1,0 L1,1 L0,1 Z " fill="#D1794D" transform="translate(15,13)"/>
<path d="M0,0 L1,0 L1,1 L0,1 Z " fill="#D2784E" transform="translate(4,13)"/>
<path d="M0,0 L1,0 L1,1 L0,1 Z " fill="#353540" opacity="0.50980395" transform="translate(61,12)"/>
<path d="M0,0 L1,0 L1,1 L0,1 Z " fill="#354153" transform="translate(40,12)"/>
<path d="M0,0 L1,0 L1,1 L0,1 Z " fill="#3B729B" transform="translate(39,12)"/>
<path d="M0,0 L1,0 L1,1 L0,1 Z " fill="#3F9BD8" transform="translate(38,12)"/>
<path d="M0,0 L1,0 L1,1 L0,1 Z " fill="#366FBF" transform="translate(17,12)"/>
<path d="M0,0 L1,0 L1,1 L0,1 Z " fill="#34496F" transform="translate(16,12)"/>
<path d="M0,0 L1,0 L1,1 L0,1 Z " fill="#353540" opacity="0.3764706" transform="translate(60,11)"/>
<path d="M0,0 L1,0 L1,1 L0,1 Z " fill="#343441" opacity="0.89411765" transform="translate(59,11)"/>
<path d="M0,0 L1,0 L1,1 L0,1 Z " fill="#3B6E94" transform="translate(37,11)"/>
<path d="M0,0 L1,0 L1,1 L0,1 Z " fill="#4098D4" transform="translate(36,11)"/>
<path d="M0,0 L1,0 L1,1 L0,1 Z " fill="#419FDD" transform="translate(20,11)"/>
<path d="M0,0 L1,0 L1,1 L0,1 Z " fill="#356CBB" transform="translate(18,11)"/>
<path d="M0,0 L1,0 L1,1 L0,1 Z " fill="#354F7B" transform="translate(17,11)"/>
<path d="M0,0 L1,0 L1,1 L0,1 Z " fill="#BC7353" transform="translate(15,11)"/>
<path d="M0,0 L1,0 L1,1 L0,1 Z " fill="#BB7352" transform="translate(4,11)"/>
<path d="M0,0 L1,0 L1,1 L0,1 Z " fill="#33333F" opacity="0.03529412" transform="translate(59,10)"/>
<path d="M0,0 L1,0 L1,1 L0,1 Z " fill="#33333F" opacity="0.34901962" transform="translate(58,10)"/>
<path d="M0,0 L1,0 L1,1 L0,1 Z " fill="#343440" opacity="0.45490196" transform="translate(56,10)"/>
<path d="M0,0 L1,0 L1,1 L0,1 Z " fill="#343440" opacity="0.49803922" transform="translate(55,10)"/>
<path d="M0,0 L1,0 L1,1 L0,1 Z " fill="#353540" opacity="0.54901963" transform="translate(53,10)"/>
<path d="M0,0 L1,0 L1,1 L0,1 Z " fill="#343441" opacity="0.4627451" transform="translate(51,10)"/>
<path d="M0,0 L1,0 L1,1 L0,1 Z " fill="#353540" opacity="0.3764706" transform="translate(49,10)"/>
<path d="M0,0 L1,0 L1,1 L0,1 Z " fill="#34343F" opacity="0.28627452" transform="translate(47,10)"/>
<path d="M0,0 L1,0 L1,1 L0,1 Z " fill="#333340" opacity="0.54509807" transform="translate(45,10)"/>
<path d="M0,0 L1,0 L1,1 L0,1 Z " fill="#343440" opacity="0.8666667" transform="translate(44,10)"/>
<path d="M0,0 L1,0 L1,1 L0,1 Z " fill="#396283" transform="translate(35,10)"/>
<path d="M0,0 L1,0 L1,1 L0,1 Z " fill="#3E89BC" transform="translate(34,10)"/>
<path d="M0,0 L1,0 L1,1 L0,1 Z " fill="#409EDC" transform="translate(33,10)"/>
<path d="M0,0 L1,0 L1,1 L0,1 Z " fill="#3D85B8" transform="translate(20,10)"/>
<path d="M0,0 L1,0 L1,1 L0,1 Z " fill="#354F79" transform="translate(19,10)"/>
<path d="M0,0 L1,0 L1,1 L0,1 Z " fill="#343A4D" transform="translate(18,10)"/>
<path d="M0,0 L1,0 L1,1 L0,1 Z " fill="#EE9265" transform="translate(15,10)"/>
<path d="M0,0 L1,0 L1,1 L0,1 Z " fill="#ED9164" transform="translate(4,10)"/>
<path d="M0,0 L1,0 L1,1 L0,1 Z " fill="#333341" opacity="0.003921569" transform="translate(44,9)"/>
<path d="M0,0 L1,0 L1,1 L0,1 Z " fill="#343440" opacity="0.5921569" transform="translate(42,9)"/>
<path d="M0,0 L1,0 L1,1 L0,1 Z " fill="#343440" opacity="0.96862745" transform="translate(41,9)"/>
<path d="M0,0 L1,0 L1,1 L0,1 Z " fill="#353D4D" transform="translate(33,9)"/>
<path d="M0,0 L1,0 L1,1 L0,1 Z " fill="#3B749E" transform="translate(31,9)"/>
<path d="M0,0 L1,0 L1,1 L0,1 Z " fill="#3E87B9" transform="translate(30,9)"/>
<path d="M0,0 L1,0 L1,1 L0,1 Z " fill="#3F93CC" transform="translate(29,9)"/>
<path d="M0,0 L1,0 L1,1 L0,1 Z " fill="#4099D3" transform="translate(28,9)"/>
<path d="M0,0 L1,0 L1,1 L0,1 Z " fill="#4097D1" transform="translate(26,9)"/>
<path d="M0,0 L1,0 L1,1 L0,1 Z " fill="#3C80B1" transform="translate(24,9)"/>
<path d="M0,0 L1,0 L1,1 L0,1 Z " fill="#385976" transform="translate(22,9)"/>
<path d="M0,0 L1,0 L1,1 L0,1 Z " fill="#363D4D" transform="translate(21,9)"/>
<path d="M0,0 L1,0 L1,1 L0,1 Z " fill="#DB875F" transform="translate(14,9)"/>
<path d="M0,0 L1,0 L1,1 L0,1 Z " fill="#DD8A62" transform="translate(4,9)"/>
<path d="M0,0 L1,0 L1,1 L0,1 Z " fill="#343440" opacity="0.9607843" transform="translate(0,9)"/>
<path d="M0,0 L1,0 L1,1 L0,1 Z " fill="#343441" opacity="0.5372549" transform="translate(40,8)"/>
<path d="M0,0 L1,0 L1,1 L0,1 Z " fill="#353540" opacity="0.94509804" transform="translate(39,8)"/>
<path d="M0,0 L1,0 L1,1 L0,1 Z " fill="#EE9265" transform="translate(13,8)"/>
<path d="M0,0 L1,0 L1,1 L0,1 Z " fill="#BD714E" transform="translate(11,8)"/>
<path d="M0,0 L1,0 L1,1 L0,1 Z " fill="#D0784E" transform="translate(9,8)"/>
<path d="M0,0 L1,0 L1,1 L0,1 Z " fill="#BB7352" transform="translate(7,8)"/>
<path d="M0,0 L1,0 L1,1 L0,1 Z " fill="#ED9164" transform="translate(6,8)"/>
<path d="M0,0 L1,0 L1,1 L0,1 Z " fill="#343440" opacity="0.4392157" transform="translate(38,7)"/>
<path d="M0,0 L1,0 L1,1 L0,1 Z " fill="#343440" opacity="0.8745098" transform="translate(37,7)"/>
<path d="M0,0 L1,0 L1,1 L0,1 Z " fill="#825C50" transform="translate(15,7)"/>
<path d="M0,0 L1,0 L1,1 L0,1 Z " fill="#835C50" transform="translate(4,7)"/>
<path d="M0,0 L1,0 L1,1 L0,1 Z " fill="#353541" opacity="0.6784314" transform="translate(0,7)"/>
<path d="M0,0 L1,0 L1,1 L0,1 Z " fill="#353541" opacity="0.015686275" transform="translate(37,6)"/>
<path d="M0,0 L1,0 L1,1 L0,1 Z " fill="#353540" opacity="0.6431373" transform="translate(35,6)"/>
<path d="M0,0 L1,0 L1,1 L0,1 Z " fill="#353541" opacity="0.9254902" transform="translate(34,6)"/>
<path d="M0,0 L1,0 L1,1 L0,1 Z " fill="#343440" opacity="0.80784315" transform="translate(19,6)"/>
<path d="M0,0 L1,0 L1,1 L0,1 Z " fill="#363541" transform="translate(15,6)"/>
<path d="M0,0 L1,0 L1,1 L0,1 Z " fill="#373641" transform="translate(4,6)"/>
<path d="M0,0 L1,0 L1,1 L0,1 Z " fill="#323240" opacity="0.21960784" transform="translate(33,5)"/>
<path d="M0,0 L1,0 L1,1 L0,1 Z " fill="#343440" opacity="0.6509804" transform="translate(31,5)"/>
<path d="M0,0 L1,0 L1,1 L0,1 Z " fill="#343440" opacity="0.80784315" transform="translate(30,5)"/>
<path d="M0,0 L1,0 L1,1 L0,1 Z " fill="#343441" opacity="0.8784314" transform="translate(29,5)"/>
<path d="M0,0 L1,0 L1,1 L0,1 Z " fill="#343441" opacity="0.9411765" transform="translate(28,5)"/>
<path d="M0,0 L1,0 L1,1 L0,1 Z " fill="#343440" opacity="0.92941177" transform="translate(26,5)"/>
<path d="M0,0 L1,0 L1,1 L0,1 Z " fill="#353540" opacity="0.7764706" transform="translate(24,5)"/>
<path d="M0,0 L1,0 L1,1 L0,1 Z " fill="#343441" opacity="0.4627451" transform="translate(22,5)"/>
<path d="M0,0 L1,0 L1,1 L0,1 Z " fill="#343441" opacity="0.23137255" transform="translate(21,5)"/>
<path d="M0,0 L1,0 L1,1 L0,1 Z " fill="#343440" opacity="0.02745098" transform="translate(19,5)"/>
<path d="M0,0 L1,0 L1,1 L0,1 Z " fill="#493F45" transform="translate(14,5)"/>
<path d="M0,0 L1,0 L1,1 L0,1 Z " fill="#493F45" transform="translate(5,5)"/>
<path d="M0,0 L1,0 L1,1 L0,1 Z " fill="#353540" opacity="0.03529412" transform="translate(0,5)"/>
<path d="M0,0 L1,0 L1,1 L0,1 Z " fill="#343440" opacity="0.34509805" transform="translate(18,4)"/>
<path d="M0,0 L1,0 L1,1 L0,1 Z " fill="#825C50" transform="translate(12,4)"/>
<path d="M0,0 L1,0 L1,1 L0,1 Z " fill="#B9785B" transform="translate(11,4)"/>
<path d="M0,0 L1,0 L1,1 L0,1 Z " fill="#DD8A62" transform="translate(9,4)"/>
<path d="M0,0 L1,0 L1,1 L0,1 Z " fill="#835C50" transform="translate(7,4)"/>
<path d="M0,0 L1,0 L1,1 L0,1 Z " fill="#373641" transform="translate(6,4)"/>
<path d="M0,0 L1,0 L1,1 L0,1 Z " fill="#343440" opacity="0.34509805" transform="translate(1,4)"/>
<path d="M0,0 L1,0 L1,1 L0,1 Z " fill="#333340" opacity="0.011764706" transform="translate(17,2)"/>
<path d="M0,0 L1,0 L1,1 L0,1 Z " fill="#333340" opacity="0.56078434" transform="translate(16,2)"/>
<path d="M0,0 L1,0 L1,1 L0,1 Z " fill="#333340" opacity="0.007843138" transform="translate(2,2)"/>
<path d="M0,0 L1,0 L1,1 L0,1 Z " fill="#33333F" opacity="0.34901962" transform="translate(15,1)"/>
<path d="M0,0 L1,0 L1,1 L0,1 Z " fill="#353540" opacity="0.8901961" transform="translate(14,1)"/>
<path d="M0,0 L1,0 L1,1 L0,1 Z " fill="#343440" opacity="0.34509805" transform="translate(4,1)"/>
<path d="M0,0 L1,0 L1,1 L0,1 Z " fill="#333340" opacity="0.37254903" transform="translate(13,0)"/>
<path d="M0,0 L1,0 L1,1 L0,1 Z " fill="#343440" opacity="0.6745098" transform="translate(12,0)"/>
<path d="M0,0 L1,0 L1,1 L0,1 Z " fill="#353540" opacity="0.87058824" transform="translate(11,0)"/>
<path d="M0,0 L1,0 L1,1 L0,1 Z " fill="#353541" opacity="0.6784314" transform="translate(7,0)"/>
<path d="M0,0 L1,0 L1,1 L0,1 Z " fill="#333340" opacity="0.03529412" transform="translate(5,0)"/>
</svg>
