<?xml version="1.0" encoding="UTF-8"?>
<!-- Generator: visioncortex VTracer 0.6.4 -->
<svg version="1.1" xmlns="http://www.w3.org/2000/svg" width="64" height="64">
<path d="M0,0 L64,0 L64,64 L0,64 Z M59,4 L59,5 L58,5 L58,6 L57,6 L57,7 L56,7 L56,8 L54,8 L54,9 L52,9 L52,10 L49,10 L49,11 L46,11 L46,12 L50,12 L50,11 L53,11 L53,10 L55,10 L55,9 L57,9 L57,8 L58,8 L58,7 L59,7 L59,6 L60,6 L60,4 Z M42,12 L42,13 L39,13 L39,14 L43,14 L43,13 L46,13 L46,12 Z M35,14 L35,15 L32,15 L32,16 L36,16 L36,15 L39,15 L39,14 Z M28,16 L28,17 L25,17 L25,18 L29,18 L29,17 L32,17 L32,16 Z M21,18 L21,19 L18,19 L18,20 L22,20 L22,19 L25,19 L25,18 Z M14,20 L14,21 L11,21 L11,22 L15,22 L15,21 L18,21 L18,20 Z M9,22 L9,23 L7,23 L7,24 L6,24 L6,25 L5,25 L5,26 L4,26 L4,28 L5,28 L5,27 L6,27 L6,26 L7,26 L7,25 L8,25 L8,24 L10,24 L10,23 L11,23 L11,22 Z M59,36 L59,37 L58,37 L58,38 L57,38 L57,39 L56,39 L56,40 L55,40 L55,41 L53,41 L53,42 L56,42 L56,41 L57,41 L57,40 L58,40 L58,39 L59,39 L59,38 L60,38 L60,36 Z M49,42 L49,43 L46,43 L46,44 L50,44 L50,43 L53,43 L53,42 Z M42,44 L42,45 L39,45 L39,46 L43,46 L43,45 L46,45 L46,44 Z M35,46 L35,47 L32,47 L32,48 L36,48 L36,47 L39,47 L39,46 Z M28,48 L28,49 L25,49 L25,50 L29,50 L29,49 L32,49 L32,48 Z M21,50 L21,51 L18,51 L18,52 L22,52 L22,51 L25,51 L25,50 Z M14,52 L14,53 L11,53 L11,54 L9,54 L9,55 L12,55 L12,54 L15,54 L15,53 L18,53 L18,52 Z M7,55 L7,56 L6,56 L6,57 L5,57 L5,58 L4,58 L4,60 L5,60 L5,59 L6,59 L6,58 L7,58 L7,57 L8,57 L8,56 L9,56 L9,55 Z " fill="#23B67E" transform="translate(0,0)"/>
<path d="M0,0 L1,0 L1,26 L-55,26 L-55,22 L-54,22 L-54,21 L-53,21 L-53,20 L-52,20 L-52,19 L-51,19 L-51,18 L-50,18 L-50,17 L-47,17 L-47,16 L-44,16 L-44,15 L-41,15 L-41,14 L-37,14 L-37,13 L-34,13 L-34,12 L-30,12 L-30,11 L-27,11 L-27,10 L-23,10 L-23,9 L-20,9 L-20,8 L-16,8 L-16,7 L-13,7 L-13,6 L-9,6 L-9,5 L-6,5 L-6,4 L-3,4 L-3,3 L-2,3 L-2,2 L-1,2 L-1,1 L0,1 Z " fill="#2CC987" transform="translate(59,38)"/>
<path d="M0,0 L56,0 L56,4 L55,4 L55,5 L54,5 L54,6 L53,6 L53,7 L52,7 L52,8 L50,8 L50,9 L48,9 L48,10 L45,10 L45,11 L42,11 L42,12 L38,12 L38,13 L35,13 L35,14 L31,14 L31,15 L28,15 L28,16 L24,16 L24,17 L21,17 L21,18 L17,18 L17,19 L14,19 L14,20 L10,20 L10,21 L7,21 L7,22 L5,22 L5,23 L3,23 L3,24 L2,24 L2,25 L1,25 L1,26 L0,26 Z " fill="#2CC987" transform="translate(4,0)"/>
<path d="M0,0 L4,0 L4,64 L0,64 Z " fill="#353541" transform="translate(60,0)"/>
<path d="M0,0 L4,0 L4,64 L0,64 Z " fill="#353541" transform="translate(0,0)"/>
<path d="M0,0 L1,0 L1,1 L0,1 Z M-1,1 L0,1 L0,2 L-1,2 Z M-2,2 L-1,2 L-1,3 L-2,3 Z M-3,3 L-2,3 L-2,4 L-3,4 Z M-4,4 L-3,4 L-3,5 L-4,5 Z " fill="#23B67E" transform="translate(8,24)"/>
<path d="M0,0 L1,0 L1,1 L0,1 Z M-1,1 L0,1 L0,2 L-1,2 Z M-2,2 L-1,2 L-1,3 L-2,3 Z M-3,3 L-2,3 L-2,4 L-3,4 Z M-4,4 L-3,4 L-3,5 L-4,5 Z " fill="#2CC987" transform="translate(8,56)"/>
<path d="M0,0 L1,0 L1,1 L0,1 Z " fill="#21B57E" opacity="0.92156863" transform="translate(57,7)"/>
<path d="M0,0 L1,0 L1,1 L0,1 Z " fill="#25BD81" opacity="0.7529412" transform="translate(30,48)"/>
<path d="M0,0 L1,0 L1,1 L0,1 Z " fill="#25BE82" opacity="0.7529412" transform="translate(37,46)"/>
<path d="M0,0 L1,0 L1,1 L0,1 Z " fill="#25BE82" opacity="0.7529412" transform="translate(44,44)"/>
<path d="M0,0 L1,0 L1,1 L0,1 Z " fill="#22B67E" opacity="0.88235295" transform="translate(6,25)"/>
<path d="M0,0 L1,0 L1,1 L0,1 Z " fill="#22B67D" opacity="0.98039216" transform="translate(59,5)"/>
<path d="M0,0 L1,0 L1,1 L0,1 Z " fill="#27C083" opacity="0.78039217" transform="translate(10,54)"/>
<path d="M0,0 L1,0 L1,1 L0,1 Z " fill="#27C282" opacity="0.78431374" transform="translate(13,53)"/>
<path d="M0,0 L1,0 L1,1 L0,1 Z " fill="#25BD81" opacity="0.7529412" transform="translate(16,52)"/>
<path d="M0,0 L1,0 L1,1 L0,1 Z " fill="#27C282" opacity="0.78431374" transform="translate(20,51)"/>
<path d="M0,0 L1,0 L1,1 L0,1 Z " fill="#25BD81" opacity="0.7529412" transform="translate(23,50)"/>
<path d="M0,0 L1,0 L1,1 L0,1 Z " fill="#27C282" opacity="0.78431374" transform="translate(27,49)"/>
<path d="M0,0 L1,0 L1,1 L0,1 Z " fill="#27C282" opacity="0.78431374" transform="translate(34,47)"/>
<path d="M0,0 L1,0 L1,1 L0,1 Z " fill="#27C282" opacity="0.78431374" transform="translate(41,45)"/>
<path d="M0,0 L1,0 L1,1 L0,1 Z " fill="#27C282" opacity="0.78431374" transform="translate(48,43)"/>
<path d="M0,0 L1,0 L1,1 L0,1 Z " fill="#25BE82" opacity="0.7529412" transform="translate(51,42)"/>
<path d="M0,0 L1,0 L1,1 L0,1 Z " fill="#26C083" opacity="0.78039217" transform="translate(54,41)"/>
<path d="M0,0 L1,0 L1,1 L0,1 Z " fill="#28C785" opacity="0.8862745" transform="translate(56,40)"/>
<path d="M0,0 L1,0 L1,1 L0,1 Z " fill="#22B77E" opacity="0.7921569" transform="translate(13,21)"/>
<path d="M0,0 L1,0 L1,1 L0,1 Z " fill="#24BA80" opacity="0.7529412" transform="translate(16,20)"/>
<path d="M0,0 L1,0 L1,1 L0,1 Z " fill="#22B77E" opacity="0.7921569" transform="translate(20,19)"/>
<path d="M0,0 L1,0 L1,1 L0,1 Z " fill="#23B97F" opacity="0.75686276" transform="translate(23,18)"/>
<path d="M0,0 L1,0 L1,1 L0,1 Z " fill="#22B77E" opacity="0.7921569" transform="translate(27,17)"/>
<path d="M0,0 L1,0 L1,1 L0,1 Z " fill="#23B97F" opacity="0.75686276" transform="translate(30,16)"/>
<path d="M0,0 L1,0 L1,1 L0,1 Z " fill="#22B77E" opacity="0.7921569" transform="translate(34,15)"/>
<path d="M0,0 L1,0 L1,1 L0,1 Z " fill="#23B97F" opacity="0.75686276" transform="translate(37,14)"/>
<path d="M0,0 L1,0 L1,1 L0,1 Z " fill="#22B77E" opacity="0.7921569" transform="translate(41,13)"/>
<path d="M0,0 L1,0 L1,1 L0,1 Z " fill="#23B97F" opacity="0.75686276" transform="translate(44,12)"/>
<path d="M0,0 L1,0 L1,1 L0,1 Z " fill="#22B77E" opacity="0.7921569" transform="translate(48,11)"/>
<path d="M0,0 L1,0 L1,1 L0,1 Z " fill="#23B97F" opacity="0.75686276" transform="translate(51,10)"/>
<path d="M0,0 L1,0 L1,1 L0,1 Z " fill="#22B67D" opacity="0.84705883" transform="translate(54,9)"/>
<path d="M0,0 L1,0 L1,1 L0,1 Z " fill="#22B67D" opacity="0.98039216" transform="translate(56,8)"/>
<path d="M0,0 L1,0 L1,1 L0,1 Z " fill="#22B77E" opacity="0.92156863" transform="translate(58,6)"/>
<path d="M0,0 L1,0 L1,1 L0,1 Z " fill="#25C083" opacity="0.77254903" transform="translate(4,59)"/>
<path d="M0,0 L1,0 L1,1 L0,1 Z " fill="#27C384" opacity="0.8352941" transform="translate(5,58)"/>
<path d="M0,0 L1,0 L1,1 L0,1 Z " fill="#22B57E" opacity="0.9764706" transform="translate(4,58)"/>
<path d="M0,0 L1,0 L1,1 L0,1 Z " fill="#2AC684" opacity="0.90588236" transform="translate(6,57)"/>
<path d="M0,0 L1,0 L1,1 L0,1 Z " fill="#21B57D" opacity="0.91764706" transform="translate(5,57)"/>
<path d="M0,0 L1,0 L1,1 L0,1 Z " fill="#29C786" opacity="0.90588236" transform="translate(7,56)"/>
<path d="M0,0 L1,0 L1,1 L0,1 Z " fill="#22B67D" opacity="0.8509804" transform="translate(6,56)"/>
<path d="M0,0 L1,0 L1,1 L0,1 Z " fill="#2BC986" transform="translate(9,55)"/>
<path d="M0,0 L1,0 L1,1 L0,1 Z " fill="#26C081" opacity="0.78039217" transform="translate(8,55)"/>
<path d="M0,0 L1,0 L1,1 L0,1 Z " fill="#22B67D" opacity="0.9372549" transform="translate(7,55)"/>
<path d="M0,0 L1,0 L1,1 L0,1 Z " fill="#2AC885" opacity="0.99215686" transform="translate(11,54)"/>
<path d="M0,0 L1,0 L1,1 L0,1 Z " fill="#21B77E" opacity="0.8352941" transform="translate(9,54)"/>
<path d="M0,0 L1,0 L1,1 L0,1 Z " fill="#2AC886" opacity="0.9529412" transform="translate(14,53)"/>
<path d="M0,0 L1,0 L1,1 L0,1 Z " fill="#23B97F" opacity="0.7647059" transform="translate(12,53)"/>
<path d="M0,0 L1,0 L1,1 L0,1 Z " fill="#22B77D" opacity="0.9098039" transform="translate(11,53)"/>
<path d="M0,0 L1,0 L1,1 L0,1 Z " fill="#2BC986" transform="translate(18,52)"/>
<path d="M0,0 L1,0 L1,1 L0,1 Z " fill="#28C585" opacity="0.85882354" transform="translate(17,52)"/>
<path d="M0,0 L1,0 L1,1 L0,1 Z " fill="#22B77E" opacity="0.8117647" transform="translate(15,52)"/>
<path d="M0,0 L1,0 L1,1 L0,1 Z " fill="#22B67E" opacity="0.9843137" transform="translate(14,52)"/>
<path d="M0,0 L1,0 L1,1 L0,1 Z " fill="#2AC886" opacity="0.9529412" transform="translate(21,51)"/>
<path d="M0,0 L1,0 L1,1 L0,1 Z " fill="#23B97F" opacity="0.7647059" transform="translate(19,51)"/>
<path d="M0,0 L1,0 L1,1 L0,1 Z " fill="#22B57D" opacity="0.90588236" transform="translate(18,51)"/>
<path d="M0,0 L1,0 L1,1 L0,1 Z " fill="#2BC986" transform="translate(25,50)"/>
<path d="M0,0 L1,0 L1,1 L0,1 Z " fill="#28C585" opacity="0.85882354" transform="translate(24,50)"/>
<path d="M0,0 L1,0 L1,1 L0,1 Z " fill="#22B77E" opacity="0.8117647" transform="translate(22,50)"/>
<path d="M0,0 L1,0 L1,1 L0,1 Z " fill="#22B67E" opacity="0.9843137" transform="translate(21,50)"/>
<path d="M0,0 L1,0 L1,1 L0,1 Z " fill="#2AC886" opacity="0.9529412" transform="translate(28,49)"/>
<path d="M0,0 L1,0 L1,1 L0,1 Z " fill="#23B97F" opacity="0.7647059" transform="translate(26,49)"/>
<path d="M0,0 L1,0 L1,1 L0,1 Z " fill="#22B57D" opacity="0.90588236" transform="translate(25,49)"/>
<path d="M0,0 L1,0 L1,1 L0,1 Z " fill="#2BC986" transform="translate(32,48)"/>
<path d="M0,0 L1,0 L1,1 L0,1 Z " fill="#28C585" opacity="0.85882354" transform="translate(31,48)"/>
<path d="M0,0 L1,0 L1,1 L0,1 Z " fill="#22B77D" opacity="0.8156863" transform="translate(29,48)"/>
<path d="M0,0 L1,0 L1,1 L0,1 Z " fill="#22B67E" opacity="0.9843137" transform="translate(28,48)"/>
<path d="M0,0 L1,0 L1,1 L0,1 Z " fill="#2AC886" opacity="0.9529412" transform="translate(35,47)"/>
<path d="M0,0 L1,0 L1,1 L0,1 Z " fill="#23B97F" opacity="0.7647059" transform="translate(33,47)"/>
<path d="M0,0 L1,0 L1,1 L0,1 Z " fill="#22B57D" opacity="0.90588236" transform="translate(32,47)"/>
<path d="M0,0 L1,0 L1,1 L0,1 Z " fill="#2BC986" transform="translate(39,46)"/>
<path d="M0,0 L1,0 L1,1 L0,1 Z " fill="#29C584" opacity="0.85490197" transform="translate(38,46)"/>
<path d="M0,0 L1,0 L1,1 L0,1 Z " fill="#22B77D" opacity="0.8156863" transform="translate(36,46)"/>
<path d="M0,0 L1,0 L1,1 L0,1 Z " fill="#22B67E" opacity="0.9843137" transform="translate(35,46)"/>
<path d="M0,0 L1,0 L1,1 L0,1 Z " fill="#2AC886" opacity="0.9529412" transform="translate(42,45)"/>
<path d="M0,0 L1,0 L1,1 L0,1 Z " fill="#23B97F" opacity="0.7647059" transform="translate(40,45)"/>
<path d="M0,0 L1,0 L1,1 L0,1 Z " fill="#22B57D" opacity="0.90588236" transform="translate(39,45)"/>
<path d="M0,0 L1,0 L1,1 L0,1 Z " fill="#2BC986" transform="translate(46,44)"/>
<path d="M0,0 L1,0 L1,1 L0,1 Z " fill="#28C585" opacity="0.85882354" transform="translate(45,44)"/>
<path d="M0,0 L1,0 L1,1 L0,1 Z " fill="#22B77D" opacity="0.8156863" transform="translate(43,44)"/>
<path d="M0,0 L1,0 L1,1 L0,1 Z " fill="#22B67E" opacity="0.9843137" transform="translate(42,44)"/>
<path d="M0,0 L1,0 L1,1 L0,1 Z " fill="#2AC886" opacity="0.9529412" transform="translate(49,43)"/>
<path d="M0,0 L1,0 L1,1 L0,1 Z " fill="#23B97F" opacity="0.7647059" transform="translate(47,43)"/>
<path d="M0,0 L1,0 L1,1 L0,1 Z " fill="#22B57D" opacity="0.90588236" transform="translate(46,43)"/>
<path d="M0,0 L1,0 L1,1 L0,1 Z " fill="#29C585" opacity="0.8784314" transform="translate(52,42)"/>
<path d="M0,0 L1,0 L1,1 L0,1 Z " fill="#22B77D" opacity="0.8156863" transform="translate(50,42)"/>
<path d="M0,0 L1,0 L1,1 L0,1 Z " fill="#22B67E" opacity="0.9843137" transform="translate(49,42)"/>
<path d="M0,0 L1,0 L1,1 L0,1 Z " fill="#2AC885" opacity="0.99215686" transform="translate(55,41)"/>
<path d="M0,0 L1,0 L1,1 L0,1 Z " fill="#21B97E" opacity="0.80784315" transform="translate(53,41)"/>
<path d="M0,0 L1,0 L1,1 L0,1 Z " fill="#23B77E" opacity="0.827451" transform="translate(55,40)"/>
<path d="M0,0 L1,0 L1,1 L0,1 Z " fill="#27C383" opacity="0.8117647" transform="translate(57,39)"/>
<path d="M0,0 L1,0 L1,1 L0,1 Z " fill="#22B67E" opacity="0.9529412" transform="translate(56,39)"/>
<path d="M0,0 L1,0 L1,1 L0,1 Z " fill="#2AC685" opacity="0.8980392" transform="translate(58,38)"/>
<path d="M0,0 L1,0 L1,1 L0,1 Z " fill="#22B67D" opacity="0.92941177" transform="translate(57,38)"/>
<path d="M0,0 L1,0 L1,1 L0,1 Z " fill="#2AC885" opacity="0.9764706" transform="translate(59,37)"/>
<path d="M0,0 L1,0 L1,1 L0,1 Z " fill="#22B77D" opacity="0.8392157" transform="translate(58,37)"/>
<path d="M0,0 L1,0 L1,1 L0,1 Z " fill="#23BA7F" opacity="0.7647059" transform="translate(59,36)"/>
<path d="M0,0 L1,0 L1,1 L0,1 Z " fill="#23BA7E" opacity="0.76862746" transform="translate(4,27)"/>
<path d="M0,0 L1,0 L1,1 L0,1 Z " fill="#22B77E" opacity="0.81960785" transform="translate(5,26)"/>
<path d="M0,0 L1,0 L1,1 L0,1 Z " fill="#2BC886" opacity="0.98039216" transform="translate(4,26)"/>
<path d="M0,0 L1,0 L1,1 L0,1 Z " fill="#28C686" opacity="0.93333334" transform="translate(5,25)"/>
<path d="M0,0 L1,0 L1,1 L0,1 Z " fill="#23B77E" opacity="0.85882354" transform="translate(7,24)"/>
<path d="M0,0 L1,0 L1,1 L0,1 Z " fill="#28C585" opacity="0.88235295" transform="translate(6,24)"/>
<path d="M0,0 L1,0 L1,1 L0,1 Z " fill="#22B67D" opacity="0.99607843" transform="translate(9,23)"/>
<path d="M0,0 L1,0 L1,1 L0,1 Z " fill="#23BB7E" opacity="0.7607843" transform="translate(8,23)"/>
<path d="M0,0 L1,0 L1,1 L0,1 Z " fill="#2AC885" opacity="0.96862745" transform="translate(7,23)"/>
<path d="M0,0 L1,0 L1,1 L0,1 Z " fill="#24B87E" opacity="0.7764706" transform="translate(10,22)"/>
<path d="M0,0 L1,0 L1,1 L0,1 Z " fill="#28C685" opacity="0.8666667" transform="translate(9,22)"/>
<path d="M0,0 L1,0 L1,1 L0,1 Z " fill="#22B67D" opacity="0.95686275" transform="translate(14,21)"/>
<path d="M0,0 L1,0 L1,1 L0,1 Z " fill="#26BF82" opacity="0.7607843" transform="translate(12,21)"/>
<path d="M0,0 L1,0 L1,1 L0,1 Z " fill="#2AC685" opacity="0.8980392" transform="translate(11,21)"/>
<path d="M0,0 L1,0 L1,1 L0,1 Z " fill="#22B77E" opacity="0.8666667" transform="translate(17,20)"/>
<path d="M0,0 L1,0 L1,1 L0,1 Z " fill="#27C483" opacity="0.80784315" transform="translate(15,20)"/>
<path d="M0,0 L1,0 L1,1 L0,1 Z " fill="#2BC886" opacity="0.98039216" transform="translate(14,20)"/>
<path d="M0,0 L1,0 L1,1 L0,1 Z " fill="#22B67D" opacity="0.95686275" transform="translate(21,19)"/>
<path d="M0,0 L1,0 L1,1 L0,1 Z " fill="#26BF82" opacity="0.7607843" transform="translate(19,19)"/>
<path d="M0,0 L1,0 L1,1 L0,1 Z " fill="#29C686" opacity="0.89411765" transform="translate(18,19)"/>
<path d="M0,0 L1,0 L1,1 L0,1 Z " fill="#22B67D" opacity="0.8627451" transform="translate(24,18)"/>
<path d="M0,0 L1,0 L1,1 L0,1 Z " fill="#27C483" opacity="0.80784315" transform="translate(22,18)"/>
<path d="M0,0 L1,0 L1,1 L0,1 Z " fill="#2BC886" opacity="0.98039216" transform="translate(21,18)"/>
<path d="M0,0 L1,0 L1,1 L0,1 Z " fill="#22B67D" opacity="0.95686275" transform="translate(28,17)"/>
<path d="M0,0 L1,0 L1,1 L0,1 Z " fill="#26BF82" opacity="0.7607843" transform="translate(26,17)"/>
<path d="M0,0 L1,0 L1,1 L0,1 Z " fill="#29C686" opacity="0.89411765" transform="translate(25,17)"/>
<path d="M0,0 L1,0 L1,1 L0,1 Z " fill="#22B57D" opacity="0.8666667" transform="translate(31,16)"/>
<path d="M0,0 L1,0 L1,1 L0,1 Z " fill="#27C483" opacity="0.80784315" transform="translate(29,16)"/>
<path d="M0,0 L1,0 L1,1 L0,1 Z " fill="#2BC886" opacity="0.98039216" transform="translate(28,16)"/>
<path d="M0,0 L1,0 L1,1 L0,1 Z " fill="#22B67D" opacity="0.95686275" transform="translate(35,15)"/>
<path d="M0,0 L1,0 L1,1 L0,1 Z " fill="#26BF82" opacity="0.7607843" transform="translate(33,15)"/>
<path d="M0,0 L1,0 L1,1 L0,1 Z " fill="#29C686" opacity="0.89411765" transform="translate(32,15)"/>
<path d="M0,0 L1,0 L1,1 L0,1 Z " fill="#22B57D" opacity="0.8666667" transform="translate(38,14)"/>
<path d="M0,0 L1,0 L1,1 L0,1 Z " fill="#27C483" opacity="0.80784315" transform="translate(36,14)"/>
<path d="M0,0 L1,0 L1,1 L0,1 Z " fill="#2BC886" opacity="0.98039216" transform="translate(35,14)"/>
<path d="M0,0 L1,0 L1,1 L0,1 Z " fill="#22B67D" opacity="0.95686275" transform="translate(42,13)"/>
<path d="M0,0 L1,0 L1,1 L0,1 Z " fill="#26BF82" opacity="0.7607843" transform="translate(40,13)"/>
<path d="M0,0 L1,0 L1,1 L0,1 Z " fill="#29C686" opacity="0.89411765" transform="translate(39,13)"/>
<path d="M0,0 L1,0 L1,1 L0,1 Z " fill="#22B57D" opacity="0.8666667" transform="translate(45,12)"/>
<path d="M0,0 L1,0 L1,1 L0,1 Z " fill="#27C483" opacity="0.80784315" transform="translate(43,12)"/>
<path d="M0,0 L1,0 L1,1 L0,1 Z " fill="#2BC886" opacity="0.98039216" transform="translate(42,12)"/>
<path d="M0,0 L1,0 L1,1 L0,1 Z " fill="#22B67D" opacity="0.95686275" transform="translate(49,11)"/>
<path d="M0,0 L1,0 L1,1 L0,1 Z " fill="#26BF81" opacity="0.7607843" transform="translate(47,11)"/>
<path d="M0,0 L1,0 L1,1 L0,1 Z " fill="#2AC685" opacity="0.8980392" transform="translate(46,11)"/>
<path d="M0,0 L1,0 L1,1 L0,1 Z " fill="#22B57D" opacity="0.90588236" transform="translate(52,10)"/>
<path d="M0,0 L1,0 L1,1 L0,1 Z " fill="#27C483" opacity="0.80784315" transform="translate(50,10)"/>
<path d="M0,0 L1,0 L1,1 L0,1 Z " fill="#2BC886" opacity="0.98039216" transform="translate(49,10)"/>
<path d="M0,0 L1,0 L1,1 L0,1 Z " fill="#26C083" opacity="0.77254903" transform="translate(53,9)"/>
<path d="M0,0 L1,0 L1,1 L0,1 Z " fill="#2AC986" opacity="0.9882353" transform="translate(52,9)"/>
<path d="M0,0 L1,0 L1,1 L0,1 Z " fill="#25BD81" opacity="0.7529412" transform="translate(55,8)"/>
<path d="M0,0 L1,0 L1,1 L0,1 Z " fill="#2AC886" opacity="0.99607843" transform="translate(54,8)"/>
<path d="M0,0 L1,0 L1,1 L0,1 Z " fill="#28C584" opacity="0.84705883" transform="translate(56,7)"/>
<path d="M0,0 L1,0 L1,1 L0,1 Z " fill="#28C685" opacity="0.8666667" transform="translate(57,6)"/>
<path d="M0,0 L1,0 L1,1 L0,1 Z " fill="#29C485" opacity="0.827451" transform="translate(58,5)"/>
<path d="M0,0 L1,0 L1,1 L0,1 Z " fill="#26BE81" opacity="0.7647059" transform="translate(59,4)"/>
</svg>
