<?xml version="1.0" encoding="UTF-8"?>
<!-- Generator: visioncortex VTracer 0.6.4 -->
<svg version="1.1" xmlns="http://www.w3.org/2000/svg" width="64" height="64">
<path d="M0,0 L4,0 L4,1 L7,1 L7,2 L8,2 L8,3 L9,3 L9,4 L10,4 L10,5 L11,5 L11,7 L12,7 L12,11 L13,11 L13,12 L14,12 L14,14 L15,14 L15,20 L14,20 L14,22 L13,22 L13,23 L12,23 L12,24 L11,24 L11,25 L10,25 L10,26 L9,26 L9,27 L8,27 L8,28 L7,28 L7,29 L5,29 L5,30 L3,30 L3,32 L2,32 L2,34 L1,34 L1,35 L0,35 L0,36 L-1,36 L-1,37 L-3,37 L-3,38 L-5,38 L-5,39 L-7,39 L-7,40 L-15,40 L-15,39 L-18,39 L-18,38 L-20,38 L-20,37 L-21,37 L-21,36 L-23,36 L-23,34 L-24,34 L-24,33 L-25,33 L-25,32 L-26,32 L-26,30 L-27,30 L-27,26 L-28,26 L-28,22 L-27,22 L-27,18 L-26,18 L-26,16 L-25,16 L-25,14 L-24,14 L-24,13 L-23,13 L-23,12 L-22,12 L-22,11 L-21,11 L-21,10 L-19,10 L-19,9 L-17,9 L-17,8 L-9,8 L-9,7 L-8,7 L-8,6 L-7,6 L-7,5 L-6,5 L-6,4 L-5,4 L-5,3 L-4,3 L-4,2 L-2,2 L-2,1 L0,1 Z " fill="#2CC987" transform="translate(39,13)"/>
<path d="M0,0 L4,0 L4,1 L7,1 L7,2 L8,2 L8,3 L9,3 L9,4 L10,4 L10,5 L11,5 L11,7 L12,7 L12,11 L13,11 L13,12 L14,12 L14,14 L15,14 L15,20 L14,20 L14,22 L13,22 L13,23 L12,23 L12,24 L11,24 L11,25 L10,25 L10,26 L9,26 L9,27 L8,27 L8,28 L7,28 L7,29 L5,29 L5,30 L3,30 L3,32 L2,32 L2,34 L1,34 L1,35 L0,35 L0,36 L-1,36 L-1,37 L-3,37 L-3,38 L-5,38 L-5,39 L-7,39 L-7,40 L-15,40 L-15,39 L-18,39 L-18,38 L-20,38 L-20,37 L-21,37 L-21,36 L-23,36 L-23,34 L-24,34 L-24,33 L-25,33 L-25,32 L-26,32 L-26,30 L-27,30 L-27,26 L-28,26 L-28,22 L-27,22 L-27,18 L-26,18 L-26,16 L-25,16 L-25,14 L-24,14 L-24,13 L-23,13 L-23,12 L-22,12 L-22,11 L-21,11 L-21,10 L-19,10 L-19,9 L-17,9 L-17,8 L-9,8 L-9,7 L-8,7 L-8,6 L-7,6 L-7,5 L-6,5 L-6,4 L-5,4 L-5,3 L-4,3 L-4,2 L-2,2 L-2,1 L0,1 Z M-1,4 L-1,5 L-2,5 L-2,6 L-3,6 L-3,7 L-4,7 L-4,8 L-5,8 L-5,9 L-6,9 L-6,10 L-7,10 L-7,11 L-16,11 L-16,12 L-17,12 L-17,13 L-19,13 L-19,14 L-20,14 L-20,15 L-21,15 L-21,16 L-22,16 L-22,17 L-23,17 L-23,19 L-24,19 L-24,27 L-23,27 L-23,30 L-22,30 L-22,32 L-21,32 L-21,33 L-20,33 L-20,34 L-18,34 L-18,35 L-17,35 L-17,36 L-6,36 L-6,35 L-4,35 L-4,34 L-3,34 L-3,33 L-2,33 L-2,32 L-1,32 L-1,30 L0,30 L0,28 L1,28 L1,26 L5,26 L5,25 L6,25 L6,24 L7,24 L7,23 L8,23 L8,22 L9,22 L9,21 L10,21 L10,20 L11,20 L11,19 L12,19 L12,15 L11,15 L11,14 L10,14 L10,13 L9,13 L9,12 L8,12 L8,7 L7,7 L7,5 L5,5 L5,4 Z " fill="#FFFFFF" transform="translate(39,13)"/>
<path d="M0,0 L6,0 L6,1 L8,1 L8,3 L9,3 L9,8 L10,8 L10,9 L11,9 L11,10 L12,10 L12,11 L13,11 L13,15 L12,15 L12,16 L11,16 L11,17 L10,17 L10,18 L9,18 L9,19 L8,19 L8,20 L7,20 L7,21 L6,21 L6,22 L2,22 L2,24 L1,24 L1,26 L0,26 L0,28 L-1,28 L-1,29 L-2,29 L-2,30 L-3,30 L-3,31 L-5,31 L-5,32 L-16,32 L-16,31 L-17,31 L-17,30 L-19,30 L-19,29 L-20,29 L-20,28 L-21,28 L-21,26 L-22,26 L-22,23 L-23,23 L-23,15 L-22,15 L-22,13 L-21,13 L-21,12 L-20,12 L-20,11 L-19,11 L-19,10 L-18,10 L-18,9 L-16,9 L-16,8 L-15,8 L-15,7 L-6,7 L-6,6 L-5,6 L-5,5 L-4,5 L-4,4 L-3,4 L-3,3 L-2,3 L-2,2 L-1,2 L-1,1 L0,1 Z M1,3 L1,4 L0,4 L0,5 L-1,5 L-1,6 L-2,6 L-2,7 L-3,7 L-3,8 L-4,8 L-4,9 L-5,9 L-5,10 L-6,10 L-6,11 L-7,11 L-7,10 L-14,10 L-14,11 L-16,11 L-16,12 L-17,12 L-17,13 L-18,13 L-18,14 L-19,14 L-19,16 L-20,16 L-20,24 L-19,24 L-19,25 L-18,25 L-18,26 L-17,26 L-17,27 L-16,27 L-16,28 L-15,28 L-15,29 L-12,29 L-12,30 L-8,30 L-8,29 L-6,29 L-6,28 L-4,28 L-4,27 L-3,27 L-3,26 L-2,26 L-2,24 L-1,24 L-1,16 L0,16 L0,17 L1,17 L1,18 L2,18 L2,19 L5,19 L5,18 L6,18 L6,17 L5,17 L5,16 L6,16 L6,15 L9,15 L9,11 L8,11 L8,10 L7,10 L7,9 L6,9 L6,7 L7,7 L7,5 L6,5 L6,4 L5,4 L5,3 Z " fill="#353541" transform="translate(38,17)"/>
<path d="M0,0 L2,0 L2,1 L3,1 L3,2 L4,2 L4,6 L1,6 L1,7 L0,7 L0,8 L1,8 L1,9 L0,9 L0,10 L-3,10 L-3,9 L-4,9 L-4,8 L-5,8 L-5,7 L-6,7 L-6,6 L-5,6 L-5,5 L-4,5 L-4,4 L-3,4 L-3,3 L-2,3 L-2,2 L-1,2 L-1,1 L0,1 Z " fill="#22B27C" transform="translate(43,26)"/>
<path d="M0,0 L3,0 L3,1 L4,1 L4,5 L3,5 L3,6 L0,6 L0,5 L-1,5 L-1,1 L0,1 Z " fill="#353541" transform="translate(26,34)"/>
<path d="M0,0 L1,0 L1,1 L0,1 Z M-1,1 L0,1 L0,2 L-1,2 Z M-2,2 L-1,2 L-1,3 L-2,3 Z M-3,3 L-2,3 L-2,4 L-3,4 Z M-4,4 L-3,4 L-3,5 L-4,5 Z " fill="#FFFFFF" transform="translate(18,23)"/>
<path d="M0,0 L4,0 L4,1 L1,1 L1,2 L0,2 L0,3 L1,3 L1,4 L0,4 L0,5 L-3,5 L-3,4 L-4,4 L-4,3 L-2,3 L-2,2 L-1,2 L-1,1 L0,1 Z " fill="#25BB80" transform="translate(43,31)"/>
<path d="M0,0 L2,0 L2,1 L1,1 L1,2 L0,2 L0,3 L-1,3 L-1,4 L-2,4 L-2,5 L-3,5 L-3,6 L-4,6 L-4,7 L-6,7 L-6,6 L-5,6 L-5,5 L-4,5 L-4,4 L-3,4 L-3,3 L-2,3 L-2,2 L-1,2 L-1,1 L0,1 Z " fill="#1EA978" transform="translate(43,26)"/>
<path d="M0,0 L1,0 L1,1 L0,1 Z " fill="#FFFFFF" opacity="0.44705883" transform="translate(26,53)"/>
<path d="M0,0 L1,0 L1,2 L0,2 L0,3 L-1,3 L-1,4 L-2,4 L-2,5 L-3,5 L-3,6 L-4,6 L-4,7 L-6,7 L-6,6 L-5,6 L-5,5 L-4,5 L-4,4 L-3,4 L-3,3 L-2,3 L-2,2 L-1,2 L-1,1 L0,1 Z " fill="#2BC886" transform="translate(42,25)"/>
<path d="M0,0 L2,0 L2,3 L-2,3 L-2,2 L-1,2 L-1,1 L0,1 Z M-3,3 L-2,3 L-2,4 L-3,4 Z M-4,4 L-3,4 L-3,5 L-4,5 Z M-5,5 L-4,5 L-4,6 L-5,6 Z " fill="#23B67E" transform="translate(45,28)"/>
<path d="M0,0 L2,0 L2,1 L1,1 L1,2 L0,2 L0,3 L-1,3 L-1,4 L-2,4 L-2,5 L-4,5 L-4,4 L-3,4 L-3,3 L-2,3 L-2,2 L-1,2 L-1,1 L0,1 Z " fill="#353541" transform="translate(20,26)"/>
<path d="M0,0 L1,0 L1,1 L0,1 Z M-1,1 L0,1 L0,2 L-1,2 Z M-2,2 L-1,2 L-1,3 L-2,3 Z M-3,3 L-2,3 L-2,4 L-3,4 Z M-4,4 L-3,4 L-3,5 L-4,5 Z " fill="#FFFFFF" opacity="0.019607844" transform="translate(52,36)"/>
<path d="M0,0 L1,0 L1,8 L0,8 Z " fill="#30CA89" transform="translate(18,33)"/>
<path d="M0,0 L2,0 L2,1 L1,1 L1,2 L0,2 L0,3 L-1,3 L-1,4 L-3,4 L-3,3 L-2,3 L-2,2 L-1,2 L-1,1 L0,1 Z " fill="#2CC987" transform="translate(22,28)"/>
<path d="M0,0 L1,0 L1,1 L0,1 Z M-1,1 L0,1 L0,2 L-1,2 Z M-2,2 L-1,2 L-1,3 L-2,3 Z M-3,3 L-2,3 L-2,4 L-3,4 Z M-4,4 L-3,4 L-3,5 L-4,5 Z M-7,5 L-4,5 L-4,6 L-7,6 Z " fill="#3B3B46" transform="translate(36,19)"/>
<path d="M0,0 L1,0 L1,1 L2,1 L2,2 L1,2 L1,5 L0,5 Z M2,2 L3,2 L3,3 L2,3 Z " fill="#343541" transform="translate(37,33)"/>
<path d="M0,0 L4,0 L4,1 L1,1 L1,2 L0,2 L0,3 L-1,3 L-1,1 L0,1 Z " fill="#2EBD85" transform="translate(43,31)"/>
<path d="M0,0 L2,0 L2,1 L0,1 Z M-1,1 L0,1 L0,2 L-1,2 Z M-2,2 L-1,2 L-1,3 L-2,3 Z M-3,3 L-2,3 L-2,4 L-3,4 Z M-4,4 L-3,4 L-3,5 L-4,5 Z M-5,5 L-4,5 L-4,6 L-5,6 Z " fill="#20AD7A" transform="translate(44,27)"/>
<path d="M0,0 L7,0 L7,1 L0,1 Z " fill="#4ECB98" transform="translate(24,27)"/>
<path d="M0,0 L2,0 L2,1 L0,1 Z M-1,1 L0,1 L0,2 L-1,2 Z M-2,2 L-1,2 L-1,3 L-2,3 Z M-3,3 L-2,3 L-2,4 L-3,4 Z M-4,4 L-3,4 L-3,5 L-4,5 Z M-5,5 L-4,5 L-4,6 L-5,6 Z " fill="#1CA476" transform="translate(43,26)"/>
<path d="M0,0 L1,0 L1,1 L0,1 Z " fill="#FFFFFF" opacity="0.5372549" transform="translate(51,22)"/>
<path d="M0,0 L1,0 L1,1 L0,1 Z M-1,1 L0,1 L0,2 L-1,2 Z M-2,2 L-1,2 L-1,3 L-2,3 Z M-3,3 L-2,3 L-2,4 L-3,4 Z M-4,4 L-3,4 L-3,5 L-4,5 Z M-5,5 L-4,5 L-4,6 L-5,6 Z M-6,6 L-5,6 L-5,7 L-6,7 Z " fill="#343641" transform="translate(38,20)"/>
<path d="M0,0 L1,0 L1,1 L0,1 Z " fill="#FFFFFF" opacity="0.99215686" transform="translate(54,29)"/>
<path d="M0,0 L1,0 L1,1 L0,1 Z M-1,1 L0,1 L0,2 L-1,2 Z M-2,2 L-1,2 L-1,3 L-2,3 Z M-3,3 L-2,3 L-2,4 L-3,4 Z M-4,4 L-3,4 L-3,5 L-4,5 Z M-5,5 L-4,5 L-4,6 L-5,6 Z " fill="#52BC97" transform="translate(42,26)"/>
<path d="M0,0 L5,0 L5,1 L0,1 Z " fill="#A0A0A6" transform="translate(25,49)"/>
<path d="M0,0 L1,0 L1,1 L0,1 Z " fill="#FFFFFF" opacity="0.16078432" transform="translate(10,36)"/>
<path d="M0,0 L2,0 L2,4 L1,4 L1,1 L0,1 Z " fill="#32CA8A" transform="translate(29,34)"/>
<path d="M0,0 L1,0 L1,1 L0,1 Z M-1,1 L0,1 L0,2 L-1,2 Z M-2,2 L-1,2 L-1,3 L-2,3 Z " fill="#353541" transform="translate(27,34)"/>
<path d="M0,0 L1,0 L1,1 L0,1 Z " fill="#343541" transform="translate(25,35)"/>
<path d="M0,0 L2,0 L2,2 L-1,2 L-1,1 L0,1 Z " fill="#27BF82" transform="translate(45,29)"/>
<path d="M0,0 L1,0 L1,1 L0,1 Z M-1,1 L0,1 L0,2 L-1,2 Z M-2,2 L-1,2 L-1,3 L-2,3 Z M-3,3 L-2,3 L-2,4 L-3,4 Z M-4,4 L-3,4 L-3,5 L-4,5 Z " fill="#5EBF98" transform="translate(38,21)"/>
<path d="M0,0 L1,0 L1,1 L0,1 Z M-1,1 L0,1 L0,2 L-1,2 Z M-2,2 L-1,2 L-1,3 L-2,3 Z M-3,3 L-2,3 L-2,4 L-3,4 Z M-4,4 L-3,4 L-3,5 L-4,5 Z " fill="#CACACD" transform="translate(35,19)"/>
<path d="M0,0 L1,0 L1,1 L0,1 Z M-1,1 L0,1 L0,2 L-1,2 Z M-2,2 L-1,2 L-1,3 L-2,3 Z M-3,3 L-2,3 L-2,4 L-3,4 Z M-4,4 L-3,4 L-3,5 L-4,5 Z " fill="#FFFFFF" opacity="0.050980393" transform="translate(33,15)"/>
<path d="M0,0 L1,0 L1,1 L0,1 Z " fill="#FFFFFF" opacity="0.14509805" transform="translate(40,12)"/>
<path d="M0,0 L1,0 L1,1 L0,1 Z " fill="#FFFFFF" opacity="0.9843137" transform="translate(23,52)"/>
<path d="M0,0 L4,0 L4,1 L0,1 Z " fill="#5F9986" transform="translate(26,46)"/>
<path d="M0,0 L1,0 L1,1 L0,1 Z M-1,1 L0,1 L0,2 L-1,2 Z M-2,2 L-1,2 L-1,3 L-2,3 Z M-3,3 L-2,3 L-2,4 L-3,4 Z " fill="#FFFFFF" opacity="0.67058825" transform="translate(51,36)"/>
<path d="M0,0 L1,0 L1,1 L0,1 Z " fill="#FFFFFF" opacity="0.8039216" transform="translate(11,33)"/>
<path d="M0,0 L1,0 L1,4 L0,4 Z " fill="#73737B" transform="translate(50,28)"/>
<path d="M0,0 L1,0 L1,4 L0,4 Z " fill="#A7A7AC" transform="translate(47,21)"/>
<path d="M0,0 L4,0 L4,1 L0,1 Z " fill="#484852" transform="translate(23,24)"/>
<path d="M0,0 L1,0 L1,1 L0,1 Z " fill="#FFFFFF" opacity="0.69411767" transform="translate(16,24)"/>
<path d="M0,0 L1,0 L1,1 L0,1 Z " fill="#FFFFFF" opacity="0.85882354" transform="translate(19,22)"/>
<path d="M0,0 L1,0 L1,1 L0,1 Z " fill="#FFFFFF" opacity="0.7176471" transform="translate(24,20)"/>
<path d="M0,0 L1,0 L1,1 L0,1 Z " fill="#FFFFFF" opacity="0.4862745" transform="translate(50,18)"/>
<path d="M0,0 L1,0 L1,1 L0,1 Z M-1,1 L0,1 L0,2 L-1,2 Z M-2,2 L-1,2 L-1,3 L-2,3 Z M-3,3 L-2,3 L-2,4 L-3,4 Z " fill="#FFFFFF" opacity="0.77254903" transform="translate(33,16)"/>
<path d="M0,0 L1,0 L1,1 L0,1 Z " fill="#FFFFFF" opacity="0.2901961" transform="translate(30,53)"/>
<path d="M0,0 L1,0 L1,1 L0,1 Z " fill="#FFFFFF" opacity="0.9607843" transform="translate(17,49)"/>
<path d="M0,0 L1,0 L1,1 L0,1 Z " fill="#FFFFFF" opacity="0.9372549" transform="translate(14,46)"/>
<path d="M0,0 L1,0 L1,1 L0,1 Z " fill="#FFFFFF" opacity="0.19607843" transform="translate(11,42)"/>
<path d="M0,0 L3,0 L3,1 L0,1 Z " fill="#909096" transform="translate(40,39)"/>
<path d="M0,0 L3,0 L3,1 L0,1 Z " fill="#3C454C" transform="translate(26,39)"/>
<path d="M0,0 L1,0 L1,3 L0,3 Z " fill="#61AB90" transform="translate(24,35)"/>
<path d="M0,0 L1,0 L1,1 L0,1 Z " fill="#FFFFFF" opacity="0.003921569" transform="translate(53,35)"/>
<path d="M0,0 L3,0 L3,1 L0,1 Z " fill="#30C588" transform="translate(40,35)"/>
<path d="M0,0 L1,0 L1,1 L0,1 Z M-1,1 L0,1 L0,2 L-1,2 Z M-2,2 L-1,2 L-1,3 L-2,3 Z " fill="#4E4E58" transform="translate(47,34)"/>
<path d="M0,0 L3,0 L3,1 L0,1 Z " fill="#5DC299" transform="translate(26,33)"/>
<path d="M0,0 L1,0 L1,1 L0,1 Z " fill="#FFFFFF" opacity="0.93333334" transform="translate(47,15)"/>
<path d="M0,0 L1,0 L1,1 L0,1 Z " fill="#FFFFFF" opacity="0.4745098" transform="translate(28,53)"/>
<path d="M0,0 L1,0 L1,1 L0,1 Z " fill="#FFFFFF" opacity="0.27450982" transform="translate(24,53)"/>
<path d="M0,0 L1,0 L1,1 L0,1 Z " fill="#FFFFFF" opacity="0.13333334" transform="translate(34,52)"/>
<path d="M0,0 L1,0 L1,1 L0,1 Z " fill="#FFFFFF" opacity="0.44705883" transform="translate(21,52)"/>
<path d="M0,0 L1,0 L1,1 L0,1 Z " fill="#FFFFFF" opacity="0.45490196" transform="translate(19,51)"/>
<path d="M0,0 L1,0 L1,1 L0,1 Z " fill="#FFFFFF" opacity="0.007843138" transform="translate(39,49)"/>
<path d="M0,0 L2,0 L2,1 L0,1 Z " fill="#FCFCFD" transform="translate(30,49)"/>
<path d="M0,0 L2,0 L2,1 L0,1 Z " fill="#A4A4A9" transform="translate(25,49)"/>
<path d="M0,0 L1,0 L1,1 L0,1 Z " fill="#FFFFFF" opacity="0.003921569" transform="translate(40,48)"/>
<path d="M0,0 L2,0 L2,1 L0,1 Z " fill="#4C4C57" transform="translate(22,48)"/>
<path d="M0,0 L1,0 L1,1 L0,1 Z " fill="#FFFFFF" opacity="0.05490196" transform="translate(42,45)"/>
<path d="M0,0 L2,0 L2,1 L0,1 Z " fill="#49CC95" transform="translate(23,45)"/>
<path d="M0,0 L1,0 L1,1 L0,1 Z " fill="#FFFFFF" opacity="0.003921569" transform="translate(12,45)"/>
<path d="M0,0 L1,0 L1,2 L0,2 Z " fill="#FAFAFA" transform="translate(38,43)"/>
<path d="M0,0 L1,0 L1,1 L0,1 Z " fill="#FFFFFF" opacity="0.007843138" transform="translate(44,43)"/>
<path d="M0,0 L1,0 L1,2 L0,2 Z " fill="#EBEBEC" transform="translate(39,41)"/>
<path d="M0,0 L1,0 L1,1 L0,1 Z " fill="#FFFFFF" opacity="0.007843138" transform="translate(47,41)"/>
<path d="M0,0 L1,0 L1,2 L0,2 Z " fill="#BEBEC2" transform="translate(15,40)"/>
<path d="M0,0 L1,0 L1,1 L0,1 Z " fill="#FFFFFF" opacity="0.003921569" transform="translate(10,39)"/>
<path d="M0,0 L1,0 L1,2 L0,2 Z " fill="#4C6564" transform="translate(37,36)"/>
<path d="M0,0 L1,0 L1,2 L0,2 Z " fill="#5D9483" transform="translate(30,36)"/>
<path d="M0,0 L1,0 L1,2 L0,2 Z " fill="#E2E2E4" transform="translate(14,36)"/>
<path d="M0,0 L1,0 L1,1 L0,1 Z M-1,1 L0,1 L0,2 L-1,2 Z " fill="#E6E6E8" transform="translate(46,36)"/>
<path d="M0,0 L1,0 L1,1 L0,1 Z M-1,1 L0,1 L0,2 L-1,2 Z " fill="#E5E5E7" transform="translate(48,34)"/>
<path d="M0,0 L1,0 L1,1 L0,1 Z M1,1 L2,1 L2,2 L1,2 Z " fill="#4E6866" transform="translate(38,34)"/>
<path d="M0,0 L1,0 L1,2 L0,2 Z " fill="#55C899" transform="translate(18,33)"/>
<path d="M0,0 L1,0 L1,1 L0,1 Z " fill="#FFFFFF" opacity="0.101960786" transform="translate(54,33)"/>
<path d="M0,0 L1,0 L1,2 L0,2 Z " fill="#5FBD98" transform="translate(36,32)"/>
<path d="M0,0 L1,0 L1,2 L0,2 Z " fill="#6B6B74" transform="translate(15,32)"/>
<path d="M0,0 L1,0 L1,1 L0,1 Z M-1,1 L0,1 L0,2 L-1,2 Z " fill="#353541" transform="translate(44,32)"/>
<path d="M0,0 L1,0 L1,1 L0,1 Z " fill="#FFFFFF" opacity="0.27058825" transform="translate(11,31)"/>
<path d="M0,0 L1,0 L1,1 L0,1 Z " fill="#FFFFFF" opacity="0.015686275" transform="translate(55,30)"/>
<path d="M0,0 L1,0 L1,2 L0,2 Z " fill="#4F6B67" transform="translate(47,29)"/>
<path d="M0,0 L1,0 L1,1 L0,1 Z M-1,1 L0,1 L0,2 L-1,2 Z " fill="#25BB80" transform="translate(45,29)"/>
<path d="M0,0 L1,0 L1,1 L0,1 Z " fill="#FFFFFF" opacity="0.5058824" transform="translate(12,29)"/>
<path d="M0,0 L2,0 L2,1 L0,1 Z " fill="#42CC92" transform="translate(22,28)"/>
<path d="M0,0 L1,0 L1,1 L0,1 Z " fill="#FFFFFF" opacity="0.9019608" transform="translate(13,28)"/>
<path d="M0,0 L1,0 L1,1 L0,1 Z " fill="#FFFFFF" opacity="0.5058824" transform="translate(54,27)"/>
<path d="M0,0 L2,0 L2,1 L0,1 Z " fill="#5FBA96" transform="translate(24,27)"/>
<path d="M0,0 L1,0 L1,1 L0,1 Z " fill="#FFFFFF" opacity="0.9411765" transform="translate(53,26)"/>
<path d="M0,0 L1,0 L1,1 L0,1 Z M-1,1 L0,1 L0,2 L-1,2 Z " fill="#5EBF97" transform="translate(33,26)"/>
<path d="M0,0 L1,0 L1,1 L0,1 Z " fill="#FFFFFF" opacity="0.5803922" transform="translate(14,26)"/>
<path d="M0,0 L1,0 L1,1 L0,1 Z M1,1 L2,1 L2,2 L1,2 Z " fill="#4C4C57" transform="translate(47,25)"/>
<path d="M0,0 L1,0 L1,1 L0,1 Z " fill="#FFFFFF" opacity="0.5568628" transform="translate(52,24)"/>
<path d="M0,0 L2,0 L2,1 L0,1 Z " fill="#808087" transform="translate(29,24)"/>
<path d="M0,0 L2,0 L2,1 L0,1 Z " fill="#83838A" transform="translate(23,24)"/>
<path d="M0,0 L1,0 L1,2 L0,2 Z " fill="#5D9180" transform="translate(44,22)"/>
<path d="M0,0 L1,0 L1,1 L0,1 Z " fill="#FFFFFF" opacity="0.54901963" transform="translate(17,23)"/>
<path d="M0,0 L1,0 L1,2 L0,2 Z " fill="#9F9FA4" transform="translate(47,21)"/>
<path d="M0,0 L1,0 L1,1 L0,1 Z " fill="#FFFFFF" opacity="0.42745098" transform="translate(20,21)"/>
<path d="M0,0 L1,0 L1,1 L0,1 Z " fill="#FFFFFF" opacity="0.23529412" transform="translate(51,20)"/>
<path d="M0,0 L2,0 L2,1 L0,1 Z " fill="#44CD93" transform="translate(39,20)"/>
<path d="M0,0 L1,0 L1,1 L0,1 Z " fill="#FFFFFF" opacity="0.92941177" transform="translate(29,20)"/>
<path d="M0,0 L1,0 L1,1 L0,1 Z " fill="#FFFFFF" opacity="0.91764706" transform="translate(26,20)"/>
<path d="M0,0 L1,0 L1,1 L0,1 Z " fill="#FFFFFF" opacity="0.18039216" transform="translate(22,20)"/>
<path d="M0,0 L1,0 L1,1 L0,1 Z " fill="#FFFFFF" opacity="0.88235295" transform="translate(49,17)"/>
<path d="M0,0 L2,0 L2,1 L0,1 Z " fill="#494954" transform="translate(38,17)"/>
<path d="M0,0 L2,0 L2,1 L0,1 Z " fill="#E2E2E4" transform="translate(40,16)"/>
<path d="M0,0 L1,0 L1,1 L0,1 Z " fill="#FFFFFF" opacity="0.50980395" transform="translate(35,14)"/>
<path d="M0,0 L1,0 L1,1 L0,1 Z " fill="#FFFFFF" opacity="0.003921569" transform="translate(46,13)"/>
<path d="M0,0 L1,0 L1,1 L0,1 Z " fill="#FFFFFF" opacity="0.5372549" transform="translate(37,13)"/>
<path d="M0,0 L1,0 L1,1 L0,1 Z " fill="#FFFFFF" opacity="0.105882354" transform="translate(31,53)"/>
<path d="M0,0 L1,0 L1,1 L0,1 Z " fill="#FFFFFF" opacity="0.38039216" transform="translate(29,53)"/>
<path d="M0,0 L1,0 L1,1 L0,1 Z " fill="#FFFFFF" opacity="0.5254902" transform="translate(27,53)"/>
<path d="M0,0 L1,0 L1,1 L0,1 Z " fill="#FFFFFF" opacity="0.3647059" transform="translate(25,53)"/>
<path d="M0,0 L1,0 L1,1 L0,1 Z " fill="#FFFFFF" opacity="0.05490196" transform="translate(23,53)"/>
<path d="M0,0 L1,0 L1,1 L0,1 Z " fill="#FFFFFF" opacity="0.5019608" transform="translate(33,52)"/>
<path d="M0,0 L1,0 L1,1 L0,1 Z " fill="#FFFFFF" opacity="0.8039216" transform="translate(32,52)"/>
<path d="M0,0 L1,0 L1,1 L0,1 Z " fill="#FFFFFF" opacity="0.74509805" transform="translate(22,52)"/>
<path d="M0,0 L1,0 L1,1 L0,1 Z " fill="#FFFFFF" opacity="0.06666667" transform="translate(20,52)"/>
<path d="M0,0 L1,0 L1,1 L0,1 Z " fill="#FFFFFF" opacity="0.08627451" transform="translate(36,51)"/>
<path d="M0,0 L1,0 L1,1 L0,1 Z " fill="#FFFFFF" opacity="0.5686275" transform="translate(35,51)"/>
<path d="M0,0 L1,0 L1,1 L0,1 Z " fill="#FFFFFF" opacity="0.98039216" transform="translate(34,51)"/>
<path d="M0,0 L1,0 L1,1 L0,1 Z " fill="#FFFFFF" opacity="0.93333334" transform="translate(20,51)"/>
<path d="M0,0 L1,0 L1,1 L0,1 Z " fill="#FFFFFF" opacity="0.03529412" transform="translate(18,51)"/>
<path d="M0,0 L1,0 L1,1 L0,1 Z " fill="#FFFFFF" opacity="0.33333334" transform="translate(37,50)"/>
<path d="M0,0 L1,0 L1,1 L0,1 Z " fill="#FFFFFF" opacity="0.9529412" transform="translate(36,50)"/>
<path d="M0,0 L1,0 L1,1 L0,1 Z " fill="#FFFFFF" opacity="0.8745098" transform="translate(18,50)"/>
<path d="M0,0 L1,0 L1,1 L0,1 Z " fill="#FFFFFF" opacity="0.1882353" transform="translate(17,50)"/>
<path d="M0,0 L1,0 L1,1 L0,1 Z " fill="#FFFFFF" opacity="0.5058824" transform="translate(38,49)"/>
<path d="M0,0 L1,0 L1,1 L0,1 Z " fill="#D2D2D5" transform="translate(30,49)"/>
<path d="M0,0 L1,0 L1,1 L0,1 Z " fill="#B3B3B7" transform="translate(29,49)"/>
<path d="M0,0 L1,0 L1,1 L0,1 Z " fill="#94949B" transform="translate(27,49)"/>
<path d="M0,0 L1,0 L1,1 L0,1 Z " fill="#B4B4B9" transform="translate(25,49)"/>
<path d="M0,0 L1,0 L1,1 L0,1 Z " fill="#DDDDDF" transform="translate(24,49)"/>
<path d="M0,0 L1,0 L1,1 L0,1 Z " fill="#FEFEFE" transform="translate(23,49)"/>
<path d="M0,0 L1,0 L1,1 L0,1 Z " fill="#FFFFFF" opacity="0.31764707" transform="translate(16,49)"/>
<path d="M0,0 L1,0 L1,1 L0,1 Z " fill="#FFFFFF" opacity="0.63529414" transform="translate(39,48)"/>
<path d="M0,0 L1,0 L1,1 L0,1 Z " fill="#E5E5E6" transform="translate(33,48)"/>
<path d="M0,0 L1,0 L1,1 L0,1 Z " fill="#83838A" transform="translate(32,48)"/>
<path d="M0,0 L1,0 L1,1 L0,1 Z " fill="#44444F" transform="translate(31,48)"/>
<path d="M0,0 L1,0 L1,1 L0,1 Z " fill="#94949A" transform="translate(22,48)"/>
<path d="M0,0 L1,0 L1,1 L0,1 Z " fill="#F0F0F1" transform="translate(21,48)"/>
<path d="M0,0 L1,0 L1,1 L0,1 Z " fill="#FFFFFF" opacity="0.4" transform="translate(15,48)"/>
<path d="M0,0 L1,0 L1,1 L0,1 Z " fill="#FFFFFF" opacity="0.4862745" transform="translate(40,47)"/>
<path d="M0,0 L1,0 L1,1 L0,1 Z " fill="#F9F9FA" transform="translate(35,47)"/>
<path d="M0,0 L1,0 L1,1 L0,1 Z " fill="#8F8F96" transform="translate(34,47)"/>
<path d="M0,0 L1,0 L1,1 L0,1 Z " fill="#383844" transform="translate(33,47)"/>
<path d="M0,0 L1,0 L1,1 L0,1 Z " fill="#40404C" transform="translate(21,47)"/>
<path d="M0,0 L1,0 L1,1 L0,1 Z " fill="#A7A7AD" transform="translate(20,47)"/>
<path d="M0,0 L1,0 L1,1 L0,1 Z " fill="#FEFEFE" transform="translate(19,47)"/>
<path d="M0,0 L1,0 L1,1 L0,1 Z " fill="#FFFFFF" opacity="0.9882353" transform="translate(15,47)"/>
<path d="M0,0 L1,0 L1,1 L0,1 Z " fill="#FFFFFF" opacity="0.26666668" transform="translate(14,47)"/>
<path d="M0,0 L1,0 L1,1 L0,1 Z " fill="#FFFFFF" opacity="0.31764707" transform="translate(41,46)"/>
<path d="M0,0 L1,0 L1,1 L0,1 Z " fill="#EDEDEE" transform="translate(36,46)"/>
<path d="M0,0 L1,0 L1,1 L0,1 Z " fill="#64646D" transform="translate(35,46)"/>
<path d="M0,0 L1,0 L1,1 L0,1 Z " fill="#343742" transform="translate(30,46)"/>
<path d="M0,0 L1,0 L1,1 L0,1 Z " fill="#51716A" transform="translate(29,46)"/>
<path d="M0,0 L1,0 L1,1 L0,1 Z " fill="#5B8C7E" transform="translate(28,46)"/>
<path d="M0,0 L1,0 L1,1 L0,1 Z " fill="#598578" transform="translate(26,46)"/>
<path d="M0,0 L1,0 L1,1 L0,1 Z " fill="#485D5D" transform="translate(25,46)"/>
<path d="M0,0 L1,0 L1,1 L0,1 Z " fill="#7E7E86" transform="translate(19,46)"/>
<path d="M0,0 L1,0 L1,1 L0,1 Z " fill="#F8F8F9" transform="translate(18,46)"/>
<path d="M0,0 L1,0 L1,1 L0,1 Z " fill="#FFFFFF" opacity="0.14901961" transform="translate(13,46)"/>
<path d="M0,0 L1,0 L1,1 L0,1 Z " fill="#FFFFFF" opacity="0.9137255" transform="translate(41,45)"/>
<path d="M0,0 L1,0 L1,1 L0,1 Z " fill="#EEEEEF" transform="translate(37,45)"/>
<path d="M0,0 L1,0 L1,1 L0,1 Z " fill="#51515B" transform="translate(36,45)"/>
<path d="M0,0 L1,0 L1,1 L0,1 Z " fill="#425054" transform="translate(32,45)"/>
<path d="M0,0 L1,0 L1,1 L0,1 Z " fill="#60B996" transform="translate(31,45)"/>
<path d="M0,0 L1,0 L1,1 L0,1 Z " fill="#3BCC8F" transform="translate(30,45)"/>
<path d="M0,0 L1,0 L1,1 L0,1 Z " fill="#61A48C" transform="translate(23,45)"/>
<path d="M0,0 L1,0 L1,1 L0,1 Z " fill="#363944" transform="translate(22,45)"/>
<path d="M0,0 L1,0 L1,1 L0,1 Z " fill="#6C6C75" transform="translate(18,45)"/>
<path d="M0,0 L1,0 L1,1 L0,1 Z " fill="#FCFCFC" transform="translate(17,45)"/>
<path d="M0,0 L1,0 L1,1 L0,1 Z " fill="#FFFFFF" opacity="0.7490196" transform="translate(13,45)"/>
<path d="M0,0 L1,0 L1,1 L0,1 Z " fill="#FFFFFF" opacity="0.5294118" transform="translate(42,44)"/>
<path d="M0,0 L1,0 L1,1 L0,1 Z " fill="#61616A" transform="translate(37,44)"/>
<path d="M0,0 L1,0 L1,1 L0,1 Z " fill="#5D9381" transform="translate(33,44)"/>
<path d="M0,0 L1,0 L1,1 L0,1 Z " fill="#35CB8C" transform="translate(32,44)"/>
<path d="M0,0 L1,0 L1,1 L0,1 Z " fill="#47CC95" transform="translate(22,44)"/>
<path d="M0,0 L1,0 L1,1 L0,1 Z " fill="#4C6564" transform="translate(21,44)"/>
<path d="M0,0 L1,0 L1,1 L0,1 Z " fill="#8B8B92" transform="translate(17,44)"/>
<path d="M0,0 L1,0 L1,1 L0,1 Z " fill="#FFFFFF" opacity="0.2901961" transform="translate(12,44)"/>
<path d="M0,0 L1,0 L1,1 L0,1 Z " fill="#FFFFFF" opacity="0.32156864" transform="translate(43,43)"/>
<path d="M0,0 L1,0 L1,1 L0,1 Z " fill="#FFFFFF" opacity="0.972549" transform="translate(42,43)"/>
<path d="M0,0 L1,0 L1,1 L0,1 Z " fill="#9C9CA1" transform="translate(38,43)"/>
<path d="M0,0 L1,0 L1,1 L0,1 Z " fill="#61A88E" transform="translate(34,43)"/>
<path d="M0,0 L1,0 L1,1 L0,1 Z " fill="#37CC8D" transform="translate(21,43)"/>
<path d="M0,0 L1,0 L1,1 L0,1 Z " fill="#537770" transform="translate(20,43)"/>
<path d="M0,0 L1,0 L1,1 L0,1 Z " fill="#C3C3C7" transform="translate(16,43)"/>
<path d="M0,0 L1,0 L1,1 L0,1 Z " fill="#FFFFFF" opacity="0.8235294" transform="translate(12,43)"/>
<path d="M0,0 L1,0 L1,1 L0,1 Z " fill="#FFFFFF" opacity="0.003921569" transform="translate(11,43)"/>
<path d="M0,0 L1,0 L1,1 L0,1 Z " fill="#FFFFFF" opacity="0.3019608" transform="translate(45,42)"/>
<path d="M0,0 L1,0 L1,1 L0,1 Z " fill="#FFFFFF" opacity="0.84705883" transform="translate(44,42)"/>
<path d="M0,0 L1,0 L1,1 L0,1 Z " fill="#393945" transform="translate(38,42)"/>
<path d="M0,0 L1,0 L1,1 L0,1 Z " fill="#5B8D7E" transform="translate(35,42)"/>
<path d="M0,0 L1,0 L1,1 L0,1 Z " fill="#3CCC8F" transform="translate(20,42)"/>
<path d="M0,0 L1,0 L1,1 L0,1 Z " fill="#465A5B" transform="translate(19,42)"/>
<path d="M0,0 L1,0 L1,1 L0,1 Z " fill="#575761" transform="translate(16,42)"/>
<path d="M0,0 L1,0 L1,1 L0,1 Z " fill="#FCFCFD" transform="translate(15,42)"/>
<path d="M0,0 L1,0 L1,1 L0,1 Z " fill="#FFFFFF" opacity="0.5019608" transform="translate(46,41)"/>
<path d="M0,0 L1,0 L1,1 L0,1 Z " fill="#96969C" transform="translate(39,41)"/>
<path d="M0,0 L1,0 L1,1 L0,1 Z " fill="#3C454C" transform="translate(36,41)"/>
<path d="M0,0 L1,0 L1,1 L0,1 Z " fill="#3ECC90" transform="translate(35,41)"/>
<path d="M0,0 L1,0 L1,1 L0,1 Z " fill="#58C799" transform="translate(19,41)"/>
<path d="M0,0 L1,0 L1,1 L0,1 Z " fill="#FFFFFF" opacity="0.49411765" transform="translate(11,41)"/>
<path d="M0,0 L1,0 L1,1 L0,1 Z " fill="#FFFFFF" opacity="0.6666667" transform="translate(47,40)"/>
<path d="M0,0 L1,0 L1,1 L0,1 Z " fill="#FFFFFF" transform="translate(40,40)"/>
<path d="M0,0 L1,0 L1,1 L0,1 Z " fill="#53535D" transform="translate(39,40)"/>
<path d="M0,0 L1,0 L1,1 L0,1 Z " fill="#61AB90" transform="translate(36,40)"/>
<path d="M0,0 L1,0 L1,1 L0,1 Z " fill="#537770" transform="translate(18,40)"/>
<path d="M0,0 L1,0 L1,1 L0,1 Z " fill="#7F7F87" transform="translate(15,40)"/>
<path d="M0,0 L1,0 L1,1 L0,1 Z " fill="#FFFFFF" opacity="0.7921569" transform="translate(11,40)"/>
<path d="M0,0 L1,0 L1,1 L0,1 Z " fill="#FDFDFD" transform="translate(43,39)"/>
<path d="M0,0 L1,0 L1,1 L0,1 Z " fill="#C0C0C4" transform="translate(42,39)"/>
<path d="M0,0 L1,0 L1,1 L0,1 Z " fill="#94949A" transform="translate(40,39)"/>
<path d="M0,0 L1,0 L1,1 L0,1 Z " fill="#4BCC96" transform="translate(36,39)"/>
<path d="M0,0 L1,0 L1,1 L0,1 Z " fill="#55C899" transform="translate(29,39)"/>
<path d="M0,0 L1,0 L1,1 L0,1 Z " fill="#52736D" transform="translate(28,39)"/>
<path d="M0,0 L1,0 L1,1 L0,1 Z " fill="#577F75" transform="translate(26,39)"/>
<path d="M0,0 L1,0 L1,1 L0,1 Z " fill="#4ACC95" transform="translate(25,39)"/>
<path d="M0,0 L1,0 L1,1 L0,1 Z " fill="#60B996" transform="translate(18,39)"/>
<path d="M0,0 L1,0 L1,1 L0,1 Z " fill="#454550" transform="translate(15,39)"/>
<path d="M0,0 L1,0 L1,1 L0,1 Z " fill="#FEFEFE" transform="translate(14,39)"/>
<path d="M0,0 L1,0 L1,1 L0,1 Z " fill="#FFFFFF" opacity="0.9647059" transform="translate(11,39)"/>
<path d="M0,0 L1,0 L1,1 L0,1 Z " fill="#ECECEE" transform="translate(44,38)"/>
<path d="M0,0 L1,0 L1,1 L0,1 Z " fill="#64646D" transform="translate(43,38)"/>
<path d="M0,0 L1,0 L1,1 L0,1 Z " fill="#383E48" transform="translate(37,38)"/>
<path d="M0,0 L1,0 L1,1 L0,1 Z " fill="#51CB97" transform="translate(30,38)"/>
<path d="M0,0 L1,0 L1,1 L0,1 Z " fill="#343742" transform="translate(29,38)"/>
<path d="M0,0 L1,0 L1,1 L0,1 Z " fill="#3F4A50" transform="translate(25,38)"/>
<path d="M0,0 L1,0 L1,1 L0,1 Z " fill="#3ECC90" transform="translate(24,38)"/>
<path d="M0,0 L1,0 L1,1 L0,1 Z " fill="#4ACB96" transform="translate(18,38)"/>
<path d="M0,0 L1,0 L1,1 L0,1 Z " fill="#F4F4F5" transform="translate(14,38)"/>
<path d="M0,0 L1,0 L1,1 L0,1 Z " fill="#FFFFFF" opacity="0.050980393" transform="translate(10,38)"/>
<path d="M0,0 L1,0 L1,1 L0,1 Z " fill="#4F4F59" transform="translate(44,37)"/>
<path d="M0,0 L1,0 L1,1 L0,1 Z " fill="#61B494" transform="translate(24,37)"/>
<path d="M0,0 L1,0 L1,1 L0,1 Z " fill="#39CB8E" transform="translate(18,37)"/>
<path d="M0,0 L1,0 L1,1 L0,1 Z " fill="#FFFFFF" opacity="0.14117648" transform="translate(10,37)"/>
<path d="M0,0 L1,0 L1,1 L0,1 Z " fill="#414D52" transform="translate(41,36)"/>
<path d="M0,0 L1,0 L1,1 L0,1 Z " fill="#353843" transform="translate(40,36)"/>
<path d="M0,0 L1,0 L1,1 L0,1 Z " fill="#4D6663" transform="translate(37,36)"/>
<path d="M0,0 L1,0 L1,1 L0,1 Z " fill="#578176" transform="translate(30,36)"/>
<path d="M0,0 L1,0 L1,1 L0,1 Z " fill="#E1E1E3" transform="translate(14,36)"/>
<path d="M0,0 L1,0 L1,1 L0,1 Z " fill="#FFFFFF" opacity="0.6039216" transform="translate(52,35)"/>
<path d="M0,0 L1,0 L1,1 L0,1 Z " fill="#61A98E" transform="translate(42,35)"/>
<path d="M0,0 L1,0 L1,1 L0,1 Z " fill="#41C38F" transform="translate(40,35)"/>
<path d="M0,0 L1,0 L1,1 L0,1 Z " fill="#353541" transform="translate(38,35)"/>
<path d="M0,0 L1,0 L1,1 L0,1 Z " fill="#3D464C" transform="translate(37,35)"/>
<path d="M0,0 L1,0 L1,1 L0,1 Z " fill="#61AF91" transform="translate(30,35)"/>
<path d="M0,0 L1,0 L1,1 L0,1 Z " fill="#54C999" transform="translate(24,35)"/>
<path d="M0,0 L1,0 L1,1 L0,1 Z " fill="#40CC91" transform="translate(18,35)"/>
<path d="M0,0 L1,0 L1,1 L0,1 Z " fill="#F4F4F5" transform="translate(14,35)"/>
<path d="M0,0 L1,0 L1,1 L0,1 Z " fill="#FFFFFF" opacity="0.043137256" transform="translate(10,35)"/>
<path d="M0,0 L1,0 L1,1 L0,1 Z " fill="#FFFFFF" opacity="0.41568628" transform="translate(53,34)"/>
<path d="M0,0 L1,0 L1,1 L0,1 Z " fill="#577E74" transform="translate(43,34)"/>
<path d="M0,0 L1,0 L1,1 L0,1 Z " fill="#29C484" transform="translate(42,34)"/>
<path d="M0,0 L1,0 L1,1 L0,1 Z " fill="#27BF82" transform="translate(41,34)"/>
<path d="M0,0 L1,0 L1,1 L0,1 Z " fill="#32BA86" transform="translate(39,34)"/>
<path d="M0,0 L1,0 L1,1 L0,1 Z " fill="#3CCC8F" transform="translate(36,34)"/>
<path d="M0,0 L1,0 L1,1 L0,1 Z " fill="#577F75" transform="translate(29,34)"/>
<path d="M0,0 L1,0 L1,1 L0,1 Z " fill="#343641" transform="translate(26,34)"/>
<path d="M0,0 L1,0 L1,1 L0,1 Z " fill="#61AE91" transform="translate(25,34)"/>
<path d="M0,0 L1,0 L1,1 L0,1 Z " fill="#3C3C48" transform="translate(15,34)"/>
<path d="M0,0 L1,0 L1,1 L0,1 Z " fill="#FEFEFE" transform="translate(14,34)"/>
<path d="M0,0 L1,0 L1,1 L0,1 Z " fill="#FFFFFF" opacity="0.9254902" transform="translate(11,34)"/>
<path d="M0,0 L1,0 L1,1 L0,1 Z " fill="#FFFFFF" opacity="0.9490196" transform="translate(53,33)"/>
<path d="M0,0 L1,0 L1,1 L0,1 Z " fill="#E7E7E8" transform="translate(49,33)"/>
<path d="M0,0 L1,0 L1,1 L0,1 Z " fill="#4D4D58" transform="translate(48,33)"/>
<path d="M0,0 L1,0 L1,1 L0,1 Z " fill="#5AB995" transform="translate(42,33)"/>
<path d="M0,0 L1,0 L1,1 L0,1 Z " fill="#30B283" transform="translate(38,33)"/>
<path d="M0,0 L1,0 L1,1 L0,1 Z " fill="#4D6666" transform="translate(37,33)"/>
<path d="M0,0 L1,0 L1,1 L0,1 Z " fill="#54C999" transform="translate(28,33)"/>
<path d="M0,0 L1,0 L1,1 L0,1 Z " fill="#48CC95" transform="translate(26,33)"/>
<path d="M0,0 L1,0 L1,1 L0,1 Z " fill="#60A48C" transform="translate(18,33)"/>
<path d="M0,0 L1,0 L1,1 L0,1 Z " fill="#FFFFFF" opacity="0.53333336" transform="translate(54,32)"/>
<path d="M0,0 L1,0 L1,1 L0,1 Z " fill="#FCFCFC" transform="translate(50,32)"/>
<path d="M0,0 L1,0 L1,1 L0,1 Z " fill="#62626C" transform="translate(49,32)"/>
<path d="M0,0 L1,0 L1,1 L0,1 Z " fill="#3E484F" transform="translate(45,32)"/>
<path d="M0,0 L1,0 L1,1 L0,1 Z " fill="#547771" transform="translate(43,32)"/>
<path d="M0,0 L1,0 L1,1 L0,1 Z " fill="#2BA97F" transform="translate(37,32)"/>
<path d="M0,0 L1,0 L1,1 L0,1 Z " fill="#64BA99" transform="translate(36,32)"/>
<path d="M0,0 L1,0 L1,1 L0,1 Z " fill="#39CB8E" transform="translate(19,32)"/>
<path d="M0,0 L1,0 L1,1 L0,1 Z " fill="#3E494E" transform="translate(18,32)"/>
<path d="M0,0 L1,0 L1,1 L0,1 Z " fill="#A7A7AD" transform="translate(15,32)"/>
<path d="M0,0 L1,0 L1,1 L0,1 Z " fill="#FFFFFF" opacity="0.59607846" transform="translate(11,32)"/>
<path d="M0,0 L1,0 L1,1 L0,1 Z " fill="#FFFFFF" opacity="0.85882354" transform="translate(54,31)"/>
<path d="M0,0 L1,0 L1,1 L0,1 Z " fill="#ABABB0" transform="translate(50,31)"/>
<path d="M0,0 L1,0 L1,1 L0,1 Z " fill="#61AF91" transform="translate(46,31)"/>
<path d="M0,0 L1,0 L1,1 L0,1 Z " fill="#40C890" transform="translate(45,31)"/>
<path d="M0,0 L1,0 L1,1 L0,1 Z " fill="#5C9282" transform="translate(44,31)"/>
<path d="M0,0 L1,0 L1,1 L0,1 Z " fill="#61A38B" transform="translate(19,31)"/>
<path d="M0,0 L1,0 L1,1 L0,1 Z " fill="#3C3C48" transform="translate(16,31)"/>
<path d="M0,0 L1,0 L1,1 L0,1 Z " fill="#ECECED" transform="translate(15,31)"/>
<path d="M0,0 L1,0 L1,1 L0,1 Z " fill="#FFFFFF" opacity="0.99215686" transform="translate(54,30)"/>
<path d="M0,0 L1,0 L1,1 L0,1 Z " fill="#76767E" transform="translate(50,30)"/>
<path d="M0,0 L1,0 L1,1 L0,1 Z " fill="#29C484" transform="translate(46,30)"/>
<path d="M0,0 L1,0 L1,1 L0,1 Z " fill="#5DC098" transform="translate(20,30)"/>
<path d="M0,0 L1,0 L1,1 L0,1 Z " fill="#343541" transform="translate(19,30)"/>
<path d="M0,0 L1,0 L1,1 L0,1 Z " fill="#96969C" transform="translate(16,30)"/>
<path d="M0,0 L1,0 L1,1 L0,1 Z " fill="#FFFFFF" opacity="0.93333334" transform="translate(12,30)"/>
<path d="M0,0 L1,0 L1,1 L0,1 Z " fill="#FFFFFF" opacity="0.019607844" transform="translate(11,30)"/>
<path d="M0,0 L1,0 L1,1 L0,1 Z " fill="#FFFFFF" opacity="0.023529412" transform="translate(55,29)"/>
<path d="M0,0 L1,0 L1,1 L0,1 Z " fill="#506E6A" transform="translate(47,29)"/>
<path d="M0,0 L1,0 L1,1 L0,1 Z " fill="#5FBD97" transform="translate(21,29)"/>
<path d="M0,0 L1,0 L1,1 L0,1 Z " fill="#363944" transform="translate(20,29)"/>
<path d="M0,0 L1,0 L1,1 L0,1 Z " fill="#51515B" transform="translate(17,29)"/>
<path d="M0,0 L1,0 L1,1 L0,1 Z " fill="#F4F4F4" transform="translate(16,29)"/>
<path d="M0,0 L1,0 L1,1 L0,1 Z " fill="#FFFFFF" opacity="0.8509804" transform="translate(54,28)"/>
<path d="M0,0 L1,0 L1,1 L0,1 Z " fill="#ACACB1" transform="translate(50,28)"/>
<path d="M0,0 L1,0 L1,1 L0,1 Z " fill="#5EA98F" transform="translate(46,28)"/>
<path d="M0,0 L1,0 L1,1 L0,1 Z " fill="#2FC988" transform="translate(31,28)"/>
<path d="M0,0 L1,0 L1,1 L0,1 Z " fill="#5E9683" transform="translate(22,28)"/>
<path d="M0,0 L1,0 L1,1 L0,1 Z " fill="#343541" transform="translate(21,28)"/>
<path d="M0,0 L1,0 L1,1 L0,1 Z " fill="#41414C" transform="translate(18,28)"/>
<path d="M0,0 L1,0 L1,1 L0,1 Z " fill="#E0E0E2" transform="translate(17,28)"/>
<path d="M0,0 L1,0 L1,1 L0,1 Z " fill="#FFFFFF" opacity="0.047058824" transform="translate(12,28)"/>
<path d="M0,0 L1,0 L1,1 L0,1 Z " fill="#FBFBFB" transform="translate(50,27)"/>
<path d="M0,0 L1,0 L1,1 L0,1 Z " fill="#63636D" transform="translate(49,27)"/>
<path d="M0,0 L1,0 L1,1 L0,1 Z " fill="#5CA58D" transform="translate(45,27)"/>
<path d="M0,0 L1,0 L1,1 L0,1 Z " fill="#394048" transform="translate(31,27)"/>
<path d="M0,0 L1,0 L1,1 L0,1 Z " fill="#588377" transform="translate(30,27)"/>
<path d="M0,0 L1,0 L1,1 L0,1 Z " fill="#61B594" transform="translate(29,27)"/>
<path d="M0,0 L1,0 L1,1 L0,1 Z " fill="#58C69A" transform="translate(28,27)"/>
<path d="M0,0 L1,0 L1,1 L0,1 Z " fill="#57C89A" transform="translate(26,27)"/>
<path d="M0,0 L1,0 L1,1 L0,1 Z " fill="#5B897C" transform="translate(24,27)"/>
<path d="M0,0 L1,0 L1,1 L0,1 Z " fill="#373C46" transform="translate(23,27)"/>
<path d="M0,0 L1,0 L1,1 L0,1 Z " fill="#44444F" transform="translate(19,27)"/>
<path d="M0,0 L1,0 L1,1 L0,1 Z " fill="#D1D1D3" transform="translate(18,27)"/>
<path d="M0,0 L1,0 L1,1 L0,1 Z " fill="#FFFFFF" opacity="0.36862746" transform="translate(13,27)"/>
<path d="M0,0 L1,0 L1,1 L0,1 Z " fill="#FFFFFF" opacity="0.09411765" transform="translate(54,26)"/>
<path d="M0,0 L1,0 L1,1 L0,1 Z " fill="#E9E9EB" transform="translate(49,26)"/>
<path d="M0,0 L1,0 L1,1 L0,1 Z " fill="#5AA08B" transform="translate(44,26)"/>
<path d="M0,0 L1,0 L1,1 L0,1 Z " fill="#575761" transform="translate(20,26)"/>
<path d="M0,0 L1,0 L1,1 L0,1 Z " fill="#E4E4E5" transform="translate(19,26)"/>
<path d="M0,0 L1,0 L1,1 L0,1 Z " fill="#FFFFFF" opacity="0.38431373" transform="translate(53,25)"/>
<path d="M0,0 L1,0 L1,1 L0,1 Z " fill="#E5E5E7" transform="translate(48,25)"/>
<path d="M0,0 L1,0 L1,1 L0,1 Z " fill="#64B699" transform="translate(43,25)"/>
<path d="M0,0 L1,0 L1,1 L0,1 Z " fill="#454550" transform="translate(22,25)"/>
<path d="M0,0 L1,0 L1,1 L0,1 Z " fill="#A8A8AD" transform="translate(21,25)"/>
<path d="M0,0 L1,0 L1,1 L0,1 Z " fill="#FAFAFA" transform="translate(20,25)"/>
<path d="M0,0 L1,0 L1,1 L0,1 Z " fill="#FFFFFF" opacity="0.7176471" transform="translate(15,25)"/>
<path d="M0,0 L1,0 L1,1 L0,1 Z " fill="#FFFFFF" opacity="0.015686275" transform="translate(14,25)"/>
<path d="M0,0 L1,0 L1,1 L0,1 Z " fill="#445557" transform="translate(44,24)"/>
<path d="M0,0 L1,0 L1,1 L0,1 Z " fill="#33CA8B" transform="translate(43,24)"/>
<path d="M0,0 L1,0 L1,1 L0,1 Z " fill="#676770" transform="translate(29,24)"/>
<path d="M0,0 L1,0 L1,1 L0,1 Z " fill="#4B4B56" transform="translate(28,24)"/>
<path d="M0,0 L1,0 L1,1 L0,1 Z " fill="#383844" transform="translate(27,24)"/>
<path d="M0,0 L1,0 L1,1 L0,1 Z " fill="#5A5A64" transform="translate(25,24)"/>
<path d="M0,0 L1,0 L1,1 L0,1 Z " fill="#C0C0C4" transform="translate(23,24)"/>
<path d="M0,0 L1,0 L1,1 L0,1 Z " fill="#F7F7F7" transform="translate(22,24)"/>
<path d="M0,0 L1,0 L1,1 L0,1 Z " fill="#FFFFFF" opacity="0.047058824" transform="translate(15,24)"/>
<path d="M0,0 L1,0 L1,1 L0,1 Z " fill="#FFFFFF" opacity="0.007843138" transform="translate(52,23)"/>
<path d="M0,0 L1,0 L1,1 L0,1 Z " fill="#FFFFFF" opacity="0.74509805" transform="translate(51,23)"/>
<path d="M0,0 L1,0 L1,1 L0,1 Z " fill="#94949A" transform="translate(47,23)"/>
<path d="M0,0 L1,0 L1,1 L0,1 Z " fill="#FFFFFF" opacity="0.011764706" transform="translate(16,23)"/>
<path d="M0,0 L1,0 L1,1 L0,1 Z " fill="#577F75" transform="translate(44,22)"/>
<path d="M0,0 L1,0 L1,1 L0,1 Z " fill="#FFFFFF" opacity="0.31764707" transform="translate(18,22)"/>
<path d="M0,0 L1,0 L1,1 L0,1 Z " fill="#FFFFFF" opacity="0.44705883" transform="translate(51,21)"/>
<path d="M0,0 L1,0 L1,1 L0,1 Z " fill="#C6C6C9" transform="translate(47,21)"/>
<path d="M0,0 L1,0 L1,1 L0,1 Z " fill="#373B44" transform="translate(44,21)"/>
<path d="M0,0 L1,0 L1,1 L0,1 Z " fill="#4CCB97" transform="translate(43,21)"/>
<path d="M0,0 L1,0 L1,1 L0,1 Z " fill="#FFFFFF" opacity="0.8745098" transform="translate(21,21)"/>
<path d="M0,0 L1,0 L1,1 L0,1 Z " fill="#FFFFFF" opacity="0.023529412" transform="translate(19,21)"/>
<path d="M0,0 L1,0 L1,1 L0,1 Z " fill="#F2F2F3" transform="translate(47,20)"/>
<path d="M0,0 L1,0 L1,1 L0,1 Z " fill="#44444F" transform="translate(46,20)"/>
<path d="M0,0 L1,0 L1,1 L0,1 Z " fill="#445456" transform="translate(43,20)"/>
<path d="M0,0 L1,0 L1,1 L0,1 Z " fill="#5BC499" transform="translate(42,20)"/>
<path d="M0,0 L1,0 L1,1 L0,1 Z " fill="#38CC8E" transform="translate(41,20)"/>
<path d="M0,0 L1,0 L1,1 L0,1 Z " fill="#61A88E" transform="translate(39,20)"/>
<path d="M0,0 L1,0 L1,1 L0,1 Z " fill="#FFFFFF" opacity="0.9411765" transform="translate(28,20)"/>
<path d="M0,0 L1,0 L1,1 L0,1 Z " fill="#FFFFFF" opacity="0.99215686" transform="translate(27,20)"/>
<path d="M0,0 L1,0 L1,1 L0,1 Z " fill="#FFFFFF" opacity="0.81960785" transform="translate(25,20)"/>
<path d="M0,0 L1,0 L1,1 L0,1 Z " fill="#FFFFFF" opacity="0.49019608" transform="translate(23,20)"/>
<path d="M0,0 L1,0 L1,1 L0,1 Z " fill="#FFFFFF" opacity="0.003921569" transform="translate(21,20)"/>
<path d="M0,0 L1,0 L1,1 L0,1 Z " fill="#FFFFFF" opacity="0.015686275" transform="translate(51,19)"/>
<path d="M0,0 L1,0 L1,1 L0,1 Z " fill="#FFFFFF" opacity="0.92941177" transform="translate(50,19)"/>
<path d="M0,0 L1,0 L1,1 L0,1 Z " fill="#BCBCC0" transform="translate(46,19)"/>
<path d="M0,0 L1,0 L1,1 L0,1 Z " fill="#98989F" transform="translate(45,18)"/>
<path d="M0,0 L1,0 L1,1 L0,1 Z " fill="#363642" transform="translate(44,18)"/>
<path d="M0,0 L1,0 L1,1 L0,1 Z " fill="#4B4B56" transform="translate(37,18)"/>
<path d="M0,0 L1,0 L1,1 L0,1 Z " fill="#CECED1" transform="translate(36,18)"/>
<path d="M0,0 L1,0 L1,1 L0,1 Z " fill="#FFFFFF" opacity="0.047058824" transform="translate(50,17)"/>
<path d="M0,0 L1,0 L1,1 L0,1 Z " fill="#D3D3D6" transform="translate(44,17)"/>
<path d="M0,0 L1,0 L1,1 L0,1 Z " fill="#65656E" transform="translate(43,17)"/>
<path d="M0,0 L1,0 L1,1 L0,1 Z " fill="#3C3C48" transform="translate(42,17)"/>
<path d="M0,0 L1,0 L1,1 L0,1 Z " fill="#87878E" transform="translate(38,17)"/>
<path d="M0,0 L1,0 L1,1 L0,1 Z " fill="#F3F3F4" transform="translate(37,17)"/>
<path d="M0,0 L1,0 L1,1 L0,1 Z " fill="#FFFFFF" opacity="0.1882353" transform="translate(49,16)"/>
<path d="M0,0 L1,0 L1,1 L0,1 Z " fill="#FFFFFF" opacity="0.9607843" transform="translate(48,16)"/>
<path d="M0,0 L1,0 L1,1 L0,1 Z " fill="#FCFCFD" transform="translate(42,16)"/>
<path d="M0,0 L1,0 L1,1 L0,1 Z " fill="#EEEEEF" transform="translate(40,16)"/>
<path d="M0,0 L1,0 L1,1 L0,1 Z " fill="#FFFFFF" opacity="0.25490198" transform="translate(48,15)"/>
<path d="M0,0 L1,0 L1,1 L0,1 Z " fill="#FFFFFF" opacity="0.7058824" transform="translate(34,15)"/>
<path d="M0,0 L1,0 L1,1 L0,1 Z " fill="#FFFFFF" opacity="0.14117648" transform="translate(47,14)"/>
<path d="M0,0 L1,0 L1,1 L0,1 Z " fill="#FFFFFF" opacity="0.75686276" transform="translate(46,14)"/>
<path d="M0,0 L1,0 L1,1 L0,1 Z " fill="#FFFFFF" opacity="0.96862745" transform="translate(36,14)"/>
<path d="M0,0 L1,0 L1,1 L0,1 Z " fill="#FFFFFF" opacity="0.011764706" transform="translate(34,14)"/>
<path d="M0,0 L1,0 L1,1 L0,1 Z " fill="#FFFFFF" opacity="0.2901961" transform="translate(45,13)"/>
<path d="M0,0 L1,0 L1,1 L0,1 Z " fill="#FFFFFF" opacity="0.65882355" transform="translate(44,13)"/>
<path d="M0,0 L1,0 L1,1 L0,1 Z " fill="#FFFFFF" opacity="0.9411765" transform="translate(43,13)"/>
<path d="M0,0 L1,0 L1,1 L0,1 Z " fill="#FFFFFF" opacity="0.84313726" transform="translate(38,13)"/>
<path d="M0,0 L1,0 L1,1 L0,1 Z " fill="#FFFFFF" opacity="0.11372549" transform="translate(36,13)"/>
<path d="M0,0 L1,0 L1,1 L0,1 Z " fill="#FFFFFF" opacity="0.011764706" transform="translate(43,12)"/>
<path d="M0,0 L1,0 L1,1 L0,1 Z " fill="#FFFFFF" opacity="0.09019608" transform="translate(42,12)"/>
<path d="M0,0 L1,0 L1,1 L0,1 Z " fill="#FFFFFF" opacity="0.1764706" transform="translate(41,12)"/>
<path d="M0,0 L1,0 L1,1 L0,1 Z " fill="#FFFFFF" opacity="0.05490196" transform="translate(39,12)"/>
</svg>
