<?xml version="1.0" encoding="UTF-8"?>
<!-- Generator: visioncortex VTracer 0.6.4 -->
<svg version="1.1" xmlns="http://www.w3.org/2000/svg" width="64" height="64">
<path d="M0,0 L14,0 L14,1 L17,1 L17,2 L19,2 L19,3 L21,3 L21,4 L23,4 L23,5 L24,5 L24,6 L25,6 L25,7 L26,7 L26,8 L27,8 L27,9 L28,9 L28,10 L29,10 L29,11 L30,11 L30,13 L31,13 L31,15 L32,15 L32,17 L33,17 L33,20 L34,20 L34,34 L33,34 L33,37 L32,37 L32,39 L31,39 L31,41 L30,41 L30,43 L29,43 L29,44 L28,44 L28,45 L27,45 L27,46 L26,46 L26,47 L25,47 L25,48 L24,48 L24,49 L23,49 L23,50 L21,50 L21,51 L19,51 L19,52 L17,52 L17,53 L14,53 L14,54 L0,54 L0,53 L-3,53 L-3,52 L-5,52 L-5,51 L-7,51 L-7,50 L-9,50 L-9,49 L-10,49 L-10,48 L-11,48 L-11,47 L-12,47 L-12,46 L-13,46 L-13,45 L-14,45 L-14,44 L-15,44 L-15,43 L-16,43 L-16,41 L-17,41 L-17,39 L-18,39 L-18,37 L-19,37 L-19,34 L-20,34 L-20,20 L-19,20 L-19,17 L-18,17 L-18,15 L-17,15 L-17,13 L-16,13 L-16,11 L-15,11 L-15,10 L-14,10 L-14,9 L-13,9 L-13,8 L-12,8 L-12,7 L-11,7 L-11,6 L-10,6 L-10,5 L-9,5 L-9,4 L-7,4 L-7,3 L-5,3 L-5,2 L-3,2 L-3,1 L0,1 Z M0,3 L0,4 L-3,4 L-3,5 L-5,5 L-5,6 L-7,6 L-7,7 L-8,7 L-8,8 L-9,8 L-9,9 L-10,9 L-10,10 L-11,10 L-11,11 L-12,11 L-12,12 L-13,12 L-13,13 L-14,13 L-14,15 L-15,15 L-15,17 L-16,17 L-16,20 L-17,20 L-17,34 L-16,34 L-16,37 L-15,37 L-15,39 L-14,39 L-14,41 L-13,41 L-13,42 L-12,42 L-12,43 L-11,43 L-11,44 L-10,44 L-10,45 L-9,45 L-9,46 L-8,46 L-8,47 L-7,47 L-7,48 L-5,48 L-5,49 L-3,49 L-3,50 L0,50 L0,51 L14,51 L14,50 L17,50 L17,49 L19,49 L19,48 L21,48 L21,47 L22,47 L22,46 L23,46 L23,45 L24,45 L24,44 L25,44 L25,43 L26,43 L26,42 L27,42 L27,41 L28,41 L28,39 L29,39 L29,37 L30,37 L30,34 L31,34 L31,20 L30,20 L30,17 L29,17 L29,15 L28,15 L28,13 L27,13 L27,12 L26,12 L26,11 L25,11 L25,10 L24,10 L24,9 L23,9 L23,8 L22,8 L22,7 L21,7 L21,6 L19,6 L19,5 L17,5 L17,4 L14,4 L14,3 Z M1,4 L13,4 L13,5 L16,5 L16,6 L18,6 L18,7 L20,7 L20,8 L21,8 L21,9 L22,9 L22,10 L24,10 L24,12 L25,12 L25,13 L26,13 L26,14 L27,14 L27,16 L28,16 L28,18 L29,18 L29,21 L30,21 L30,33 L29,33 L29,36 L28,36 L28,38 L27,38 L27,40 L26,40 L26,41 L25,41 L25,42 L24,42 L24,44 L22,44 L22,45 L21,45 L21,46 L20,46 L20,47 L18,47 L18,48 L16,48 L16,49 L13,49 L13,50 L1,50 L1,49 L-2,49 L-2,48 L-4,48 L-4,47 L-6,47 L-6,46 L-7,46 L-7,45 L-8,45 L-8,44 L-10,44 L-10,42 L-11,42 L-11,41 L-12,41 L-12,40 L-13,40 L-13,38 L-14,38 L-14,36 L-15,36 L-15,33 L-16,33 L-16,21 L-15,21 L-15,18 L-14,18 L-14,16 L-13,16 L-13,14 L-12,14 L-12,13 L-11,13 L-11,12 L-10,12 L-10,11 L-9,11 L-9,10 L-8,10 L-8,9 L-7,9 L-7,8 L-6,8 L-6,7 L-4,7 L-4,6 L-2,6 L-2,5 L1,5 Z M1,7 L1,8 L-2,8 L-2,9 L-4,9 L-4,10 L-5,10 L-5,11 L-6,11 L-6,12 L-8,12 L-8,14 L-9,14 L-9,15 L-10,15 L-10,16 L-11,16 L-11,18 L-12,18 L-12,21 L-13,21 L-13,33 L-12,33 L-12,36 L-11,36 L-11,38 L-10,38 L-10,39 L-9,39 L-9,40 L-8,40 L-8,42 L-6,42 L-6,43 L-5,43 L-5,44 L-4,44 L-4,45 L-2,45 L-2,46 L1,46 L1,47 L13,47 L13,46 L16,46 L16,45 L18,45 L18,44 L19,44 L19,43 L20,43 L20,42 L22,42 L22,40 L23,40 L23,39 L24,39 L24,38 L25,38 L25,36 L26,36 L26,33 L27,33 L27,21 L26,21 L26,18 L25,18 L25,16 L24,16 L24,15 L23,15 L23,14 L22,14 L22,12 L20,12 L20,11 L19,11 L19,10 L18,10 L18,9 L16,9 L16,8 L13,8 L13,7 Z M1,8 L13,8 L13,9 L1,9 Z M-1,9 L1,9 L1,10 L-1,10 Z M13,9 L15,9 L15,10 L13,10 Z M-3,10 L-1,10 L-1,11 L-3,11 Z M1,10 L13,10 L13,11 L15,11 L15,12 L17,12 L17,13 L18,13 L18,14 L19,14 L19,15 L20,15 L20,16 L21,16 L21,17 L22,17 L22,19 L23,19 L23,21 L24,21 L24,33 L23,33 L23,35 L22,35 L22,37 L21,37 L21,38 L20,38 L20,39 L19,39 L19,40 L18,40 L18,41 L17,41 L17,42 L15,42 L15,43 L13,43 L13,44 L1,44 L1,43 L-1,43 L-1,42 L-3,42 L-3,41 L-4,41 L-4,40 L-5,40 L-5,39 L-6,39 L-6,38 L-7,38 L-7,37 L-8,37 L-8,35 L-9,35 L-9,33 L-10,33 L-10,21 L-9,21 L-9,19 L-8,19 L-8,17 L-7,17 L-7,16 L-6,16 L-6,15 L-5,15 L-5,14 L-4,14 L-4,13 L-3,13 L-3,12 L-1,12 L-1,11 L1,11 Z M15,10 L17,10 L17,11 L15,11 Z M-5,11 L-3,11 L-3,12 L-4,12 L-4,13 L-6,13 L-6,12 L-5,12 Z M17,11 L19,11 L19,12 L17,12 Z M19,12 L20,12 L20,13 L19,13 Z M-7,13 L-6,13 L-6,14 L-7,14 Z M20,13 L21,13 L21,14 L20,14 Z M-8,14 L-7,14 L-7,16 L-8,16 L-8,17 L-9,17 L-9,15 L-8,15 Z M21,14 L22,14 L22,15 L21,15 Z M22,15 L23,15 L23,17 L22,17 Z M-10,17 L-9,17 L-9,19 L-10,19 Z M23,17 L24,17 L24,19 L23,19 Z M-11,19 L-10,19 L-10,21 L-11,21 Z M24,19 L25,19 L25,21 L24,21 Z M-12,21 L-11,21 L-11,33 L-12,33 Z M25,21 L26,21 L26,33 L25,33 Z M-11,33 L-10,33 L-10,35 L-11,35 Z M24,33 L25,33 L25,35 L24,35 Z M-10,35 L-9,35 L-9,37 L-10,37 Z M23,36 L24,36 L24,37 L23,37 Z M-9,37 L-8,37 L-8,39 L-9,39 Z M22,37 L23,37 L23,39 L22,39 Z M-8,39 L-7,39 L-7,40 L-8,40 Z M21,39 L22,39 L22,40 L21,40 Z M-7,40 L-6,40 L-6,41 L-7,41 Z M20,40 L21,40 L21,41 L20,41 Z M-6,41 L-5,41 L-5,42 L-6,42 Z M19,41 L20,41 L20,42 L19,42 Z M-5,42 L-3,42 L-3,43 L-5,43 Z M17,42 L19,42 L19,43 L17,43 Z M-3,43 L-1,43 L-1,44 L-3,44 Z M16,43 L17,43 L17,44 L16,44 Z M-1,44 L1,44 L1,45 L-1,45 Z M13,44 L15,44 L15,45 L13,45 Z M1,45 L13,45 L13,46 L1,46 Z " fill="#5DD4AA" transform="translate(25,5)"/>
<path d="M0,0 L14,0 L14,1 L17,1 L17,2 L19,2 L19,3 L21,3 L21,4 L23,4 L23,5 L24,5 L24,6 L25,6 L25,7 L26,7 L26,8 L27,8 L27,9 L28,9 L28,10 L29,10 L29,11 L30,11 L30,13 L31,13 L31,15 L32,15 L32,17 L33,17 L33,20 L34,20 L34,34 L33,34 L33,37 L32,37 L32,39 L31,39 L31,41 L30,41 L30,43 L29,43 L29,44 L28,44 L28,45 L27,45 L27,46 L26,46 L26,47 L25,47 L25,48 L24,48 L24,49 L23,49 L23,50 L21,50 L21,51 L19,51 L19,52 L17,52 L17,53 L14,53 L14,54 L0,54 L0,53 L-3,53 L-3,52 L-5,52 L-5,51 L-7,51 L-7,50 L-9,50 L-9,49 L-10,49 L-10,48 L-11,48 L-11,47 L-12,47 L-12,46 L-13,46 L-13,45 L-14,45 L-14,44 L-15,44 L-15,43 L-16,43 L-16,41 L-17,41 L-17,39 L-18,39 L-18,37 L-19,37 L-19,34 L-20,34 L-20,20 L-19,20 L-19,17 L-18,17 L-18,15 L-17,15 L-17,13 L-16,13 L-16,11 L-15,11 L-15,10 L-14,10 L-14,9 L-13,9 L-13,8 L-12,8 L-12,7 L-11,7 L-11,6 L-10,6 L-10,5 L-9,5 L-9,4 L-7,4 L-7,3 L-5,3 L-5,2 L-3,2 L-3,1 L0,1 Z M0,3 L0,4 L-3,4 L-3,5 L-5,5 L-5,6 L-7,6 L-7,7 L-8,7 L-8,8 L-9,8 L-9,9 L-10,9 L-10,10 L-11,10 L-11,11 L-12,11 L-12,12 L-13,12 L-13,13 L-14,13 L-14,15 L-15,15 L-15,17 L-16,17 L-16,20 L-17,20 L-17,34 L-16,34 L-16,37 L-15,37 L-15,39 L-14,39 L-14,41 L-13,41 L-13,42 L-12,42 L-12,43 L-11,43 L-11,44 L-10,44 L-10,45 L-9,45 L-9,46 L-8,46 L-8,47 L-7,47 L-7,48 L-5,48 L-5,49 L-3,49 L-3,50 L0,50 L0,51 L14,51 L14,50 L17,50 L17,49 L19,49 L19,48 L21,48 L21,47 L22,47 L22,46 L23,46 L23,45 L24,45 L24,44 L25,44 L25,43 L26,43 L26,42 L27,42 L27,41 L28,41 L28,39 L29,39 L29,37 L30,37 L30,34 L31,34 L31,20 L30,20 L30,17 L29,17 L29,15 L28,15 L28,13 L27,13 L27,12 L26,12 L26,11 L25,11 L25,10 L24,10 L24,9 L23,9 L23,8 L22,8 L22,7 L21,7 L21,6 L19,6 L19,5 L17,5 L17,4 L14,4 L14,3 Z " fill="#FFFFFF" transform="translate(25,5)"/>
<path d="M0,0 L12,0 L12,1 L15,1 L15,2 L17,2 L17,3 L19,3 L19,4 L20,4 L20,5 L21,5 L21,6 L23,6 L23,8 L24,8 L24,9 L25,9 L25,10 L26,10 L26,12 L27,12 L27,14 L28,14 L28,17 L29,17 L29,29 L28,29 L28,32 L27,32 L27,34 L26,34 L26,36 L25,36 L25,37 L24,37 L24,38 L23,38 L23,40 L21,40 L21,41 L20,41 L20,42 L19,42 L19,43 L17,43 L17,44 L15,44 L15,45 L12,45 L12,46 L0,46 L0,45 L-3,45 L-3,44 L-5,44 L-5,43 L-7,43 L-7,42 L-8,42 L-8,41 L-9,41 L-9,40 L-11,40 L-11,38 L-12,38 L-12,37 L-13,37 L-13,36 L-14,36 L-14,34 L-15,34 L-15,32 L-16,32 L-16,29 L-17,29 L-17,17 L-16,17 L-16,14 L-15,14 L-15,12 L-14,12 L-14,10 L-13,10 L-13,9 L-12,9 L-12,8 L-11,8 L-11,7 L-10,7 L-10,6 L-9,6 L-9,5 L-8,5 L-8,4 L-7,4 L-7,3 L-5,3 L-5,2 L-3,2 L-3,1 L0,1 Z M0,3 L0,4 L-3,4 L-3,5 L-5,5 L-5,6 L-6,6 L-6,7 L-7,7 L-7,8 L-9,8 L-9,10 L-10,10 L-10,11 L-11,11 L-11,12 L-12,12 L-12,14 L-13,14 L-13,17 L-14,17 L-14,29 L-13,29 L-13,32 L-12,32 L-12,34 L-11,34 L-11,35 L-10,35 L-10,36 L-9,36 L-9,38 L-7,38 L-7,39 L-6,39 L-6,40 L-5,40 L-5,41 L-3,41 L-3,42 L0,42 L0,43 L12,43 L12,42 L15,42 L15,41 L17,41 L17,40 L18,40 L18,39 L19,39 L19,38 L21,38 L21,36 L22,36 L22,35 L23,35 L23,34 L24,34 L24,32 L25,32 L25,29 L26,29 L26,17 L25,17 L25,14 L24,14 L24,12 L23,12 L23,11 L22,11 L22,10 L21,10 L21,8 L19,8 L19,7 L18,7 L18,6 L17,6 L17,5 L15,5 L15,4 L12,4 L12,3 Z " fill="#297264" transform="translate(26,9)"/>
<path d="M0,0 L12,0 L12,1 L0,1 Z M-2,1 L0,1 L0,2 L-2,2 Z M12,1 L14,1 L14,2 L12,2 Z M-4,2 L-2,2 L-2,3 L-4,3 Z M14,2 L16,2 L16,3 L14,3 Z M-6,3 L-4,3 L-4,4 L-5,4 L-5,5 L-7,5 L-7,4 L-6,4 Z M16,3 L18,3 L18,4 L16,4 Z M18,4 L19,4 L19,5 L18,5 Z M-8,5 L-7,5 L-7,6 L-8,6 Z M19,5 L20,5 L20,6 L19,6 Z M-9,6 L-8,6 L-8,8 L-9,8 L-9,9 L-10,9 L-10,7 L-9,7 Z M20,6 L21,6 L21,7 L20,7 Z M21,7 L22,7 L22,9 L21,9 Z M-11,9 L-10,9 L-10,11 L-11,11 Z M22,9 L23,9 L23,11 L22,11 Z M-12,11 L-11,11 L-11,13 L-12,13 Z M23,11 L24,11 L24,13 L23,13 Z M-13,13 L-12,13 L-12,25 L-13,25 Z M24,13 L25,13 L25,25 L24,25 Z M-12,25 L-11,25 L-11,27 L-12,27 Z M23,25 L24,25 L24,27 L23,27 Z M-11,27 L-10,27 L-10,29 L-11,29 Z M22,28 L23,28 L23,29 L22,29 Z M-10,29 L-9,29 L-9,31 L-10,31 Z M21,29 L22,29 L22,31 L21,31 Z M-9,31 L-8,31 L-8,32 L-9,32 Z M20,31 L21,31 L21,32 L20,32 Z M-8,32 L-7,32 L-7,33 L-8,33 Z M19,32 L20,32 L20,33 L19,33 Z M-7,33 L-6,33 L-6,34 L-7,34 Z M18,33 L19,33 L19,34 L18,34 Z M-6,34 L-4,34 L-4,35 L-6,35 Z M16,34 L18,34 L18,35 L16,35 Z M-4,35 L-2,35 L-2,36 L-4,36 Z M15,35 L16,35 L16,36 L15,36 Z M-2,36 L0,36 L0,37 L-2,37 Z M12,36 L14,36 L14,37 L12,37 Z M0,37 L12,37 L12,38 L0,38 Z " fill="#83F3CB" transform="translate(26,13)"/>
<path d="M0,0 L1,0 L1,1 L0,1 Z M-1,1 L0,1 L0,3 L-1,3 Z M-2,3 L-1,3 L-1,15 L-2,15 Z M-1,15 L0,15 L0,17 L-1,17 Z M0,17 L1,17 L1,19 L0,19 Z M1,19 L2,19 L2,21 L1,21 Z M2,21 L3,21 L3,22 L2,22 Z M3,22 L4,22 L4,23 L3,23 Z M4,23 L5,23 L5,24 L4,24 Z M5,24 L7,24 L7,25 L5,25 Z M7,25 L9,25 L9,26 L7,26 Z M9,26 L11,26 L11,27 L9,27 Z M11,27 L22,27 L22,28 L11,28 Z " fill="#83F3CB" transform="translate(15,23)"/>
<path d="M0,0 L4,0 L4,1 L6,1 L6,3 L7,3 L7,7 L6,7 L6,8 L5,8 L5,9 L4,9 L4,10 L0,10 L0,9 L-2,9 L-2,7 L-3,7 L-3,3 L-2,3 L-2,1 L0,1 Z " fill="#353541" transform="translate(38,28)"/>
<path d="M0,0 L4,0 L4,1 L6,1 L6,3 L7,3 L7,7 L6,7 L6,8 L5,8 L5,9 L4,9 L4,10 L0,10 L0,9 L-1,9 L-1,8 L-2,8 L-2,7 L-3,7 L-3,3 L-2,3 L-2,1 L0,1 Z " fill="#353541" transform="translate(22,28)"/>
<path d="M0,0 L11,0 L11,1 L0,1 Z M-2,1 L0,1 L0,2 L-2,2 Z M-4,2 L-2,2 L-2,3 L-4,3 Z M-6,3 L-4,3 L-4,4 L-5,4 L-5,5 L-7,5 L-7,4 L-6,4 Z M-8,5 L-7,5 L-7,6 L-8,6 Z M-9,6 L-8,6 L-8,8 L-9,8 L-9,9 L-10,9 L-10,7 L-9,7 Z M-11,9 L-10,9 L-10,10 L-11,10 Z " fill="#83F3CB" transform="translate(26,13)"/>
<path d="M0,0 L1,0 L1,1 L0,1 Z M-1,1 L0,1 L0,3 L-1,3 Z M-2,4 L-1,4 L-1,6 L-2,6 L-2,7 L-3,7 L-3,5 L-2,5 Z M-4,7 L-3,7 L-3,8 L-4,8 Z M-5,8 L-4,8 L-4,9 L-5,9 Z M-6,9 L-5,9 L-5,10 L-6,10 Z M-8,10 L-6,10 L-6,11 L-8,11 Z M-9,11 L-8,11 L-8,12 L-9,12 Z M-12,12 L-10,12 L-10,13 L-12,13 Z M-13,13 L-12,13 L-12,14 L-13,14 Z " fill="#7BE9C4" opacity="0.94509804" transform="translate(50,37)"/>
<path d="M0,0 L1,0 L1,1 L0,1 Z M-1,1 L0,1 L0,3 L-1,3 Z M-2,3 L-1,3 L-1,14 L-2,14 Z " fill="#83F3CB" transform="translate(15,23)"/>
<path d="M0,0 L1,0 L1,1 L0,1 Z M-1,1 L0,1 L0,2 L-1,2 Z M-2,2 L-1,2 L-1,3 L-2,3 Z M-3,3 L-2,3 L-2,4 L-3,4 Z M-4,4 L-3,4 L-3,5 L-4,5 Z M-5,5 L-4,5 L-4,6 L-5,6 Z M-6,6 L-5,6 L-5,7 L-6,7 Z M-7,7 L-6,7 L-6,8 L-7,8 Z " fill="#FFFFFF" transform="translate(16,9)"/>
<path d="M0,0 L1,0 L1,1 L0,1 Z " fill="#FFFFFF" opacity="0.9843137" transform="translate(31,59)"/>
<path d="M0,0 L1,0 L1,1 L0,1 Z " fill="#FFFFFF" opacity="0.9843137" transform="translate(59,31)"/>
<path d="M0,0 L1,0 L1,1 L0,1 Z " fill="#FFFFFF" opacity="0.9843137" transform="translate(4,31)"/>
<path d="M0,0 L10,0 L10,1 L0,1 Z " fill="#83F3CB" transform="translate(27,50)"/>
<path d="M0,0 L1,0 L1,10 L0,10 Z " fill="#83F3CB" transform="translate(50,27)"/>
<path d="M0,0 L2,0 L2,1 L6,1 L6,0 L8,0 L8,2 L7,2 L7,3 L1,3 L1,2 L0,2 Z " fill="#24483F" transform="translate(28,39)"/>
<path d="M0,0 L1,0 L1,2 L2,2 L2,3 L1,3 L1,5 L-3,5 L-3,1 L0,1 Z " fill="#5C686D" transform="translate(43,29)"/>
<path d="M0,0 L1,0 L1,2 L2,2 L2,3 L1,3 L1,5 L-3,5 L-3,1 L0,1 Z " fill="#5C686D" transform="translate(27,29)"/>
<path d="M0,0 L1,0 L1,1 L0,1 Z M-2,1 L0,1 L0,2 L-1,2 L-1,3 L-3,3 L-3,2 L-2,2 Z M-4,3 L-3,3 L-3,4 L-4,4 Z M-5,4 L-4,4 L-4,6 L-5,6 L-5,7 L-6,7 L-6,5 L-5,5 Z M-7,7 L-6,7 L-6,8 L-7,8 Z " fill="#83F3CB" transform="translate(22,15)"/>
<path d="M0,0 L1,0 L1,1 L0,1 Z M-1,1 L0,1 L0,2 L-1,2 Z M-2,2 L-1,2 L-1,3 L-2,3 Z M-3,3 L-2,3 L-2,4 L-3,4 Z M-4,4 L-3,4 L-3,5 L-4,5 Z M-5,5 L-4,5 L-4,6 L-5,6 Z M-6,6 L-5,6 L-5,7 L-6,7 Z M-7,7 L-6,7 L-6,8 L-7,8 Z " fill="#297264" transform="translate(19,12)"/>
<path d="M0,0 L2,0 L2,1 L1,1 L1,2 L-1,2 L-1,1 L0,1 Z M-4,2 L-2,2 L-2,3 L-4,3 Z M-5,3 L-4,3 L-4,4 L-5,4 Z " fill="#7BE9C4" opacity="0.94509804" transform="translate(42,47)"/>
<path d="M0,0 L1,0 L1,1 L0,1 Z M1,1 L2,1 L2,3 L1,3 Z M2,3 L3,3 L3,5 L2,5 Z M3,5 L4,5 L4,6 L3,6 Z " fill="#83F3CB" transform="translate(13,37)"/>
<path d="M0,0 L1,0 L1,1 L0,1 Z M1,1 L3,1 L3,2 L1,2 Z M3,2 L5,2 L5,3 L3,3 Z M5,3 L6,3 L6,4 L5,4 Z " fill="#83F3CB" transform="translate(37,13)"/>
<path d="M0,0 L1,0 L1,1 L0,1 Z M-1,1 L0,1 L0,2 L-1,2 Z M-2,2 L-1,2 L-1,3 L-2,3 Z M-3,3 L-2,3 L-2,4 L-3,4 Z M-4,4 L-3,4 L-3,5 L-4,5 Z M-5,5 L-4,5 L-4,6 L-5,6 Z " fill="#5DD4AA" transform="translate(22,17)"/>
<path d="M0,0 L1,0 L1,1 L0,1 Z M-1,1 L0,1 L0,3 L-1,3 Z M-2,3 L-1,3 L-1,4 L-2,4 Z " fill="#83F3CB" transform="translate(15,23)"/>
<path d="M0,0 L1,0 L1,1 L0,1 Z " fill="#7EEDC6" opacity="0.95686275" transform="translate(32,51)"/>
<path d="M0,0 L1,0 L1,1 L0,1 Z M-1,1 L0,1 L0,2 L-1,2 Z M-2,2 L-1,2 L-1,3 L-2,3 Z M-3,3 L-2,3 L-2,4 L-3,4 Z " fill="#83F3CB" transform="translate(47,43)"/>
<path d="M0,0 L1,0 L1,1 L0,1 Z M1,1 L2,1 L2,2 L1,2 Z M2,2 L3,2 L3,3 L2,3 Z M3,3 L4,3 L4,4 L3,4 Z " fill="#83F3CB" transform="translate(16,43)"/>
<path d="M0,0 L2,0 L2,1 L3,1 L3,2 L5,2 L5,3 L1,3 L1,2 L0,2 Z " fill="#24483F" transform="translate(28,39)"/>
<path d="M0,0 L1,0 L1,1 L0,1 Z " fill="#7EEDC6" opacity="0.95686275" transform="translate(51,32)"/>
<path d="M0,0 L1,0 L1,1 L0,1 Z M1,1 L2,1 L2,2 L1,2 Z M2,2 L3,2 L3,3 L2,3 Z M3,3 L4,3 L4,4 L3,4 Z " fill="#83F3CB" transform="translate(43,16)"/>
<path d="M0,0 L1,0 L1,1 L0,1 Z " fill="#FFFFFF" opacity="0.98039216" transform="translate(24,58)"/>
<path d="M0,0 L1,0 L1,1 L0,1 Z " fill="#FFFFFF" opacity="0.98039216" transform="translate(58,24)"/>
<path d="M0,0 L1,0 L1,1 L0,1 Z " fill="#FFFFFF" opacity="0.9882353" transform="translate(5,24)"/>
<path d="M0,0 L1,0 L1,1 L0,1 Z " fill="#FFFFFF" opacity="0.9882353" transform="translate(24,5)"/>
<path d="M0,0 L1,0 L1,2 L2,2 L2,3 L1,3 L1,5 L-1,5 L-1,4 L0,4 Z " fill="#5C686D" transform="translate(43,29)"/>
<path d="M0,0 L1,0 L1,2 L2,2 L2,3 L1,3 L1,5 L-1,5 L-1,4 L0,4 Z " fill="#5C686D" transform="translate(27,29)"/>
<path d="M0,0 L1,0 L1,1 L0,1 Z " fill="#FFFFFF" opacity="0.8901961" transform="translate(34,4)"/>
<path d="M0,0 L2,0 L2,1 L0,1 Z M-1,1 L0,1 L0,2 L-1,2 Z " fill="#83F3CB" transform="translate(38,49)"/>
<path d="M0,0 L2,0 L2,1 L0,1 Z M2,1 L3,1 L3,2 L2,2 Z " fill="#83F3CB" transform="translate(24,49)"/>
<path d="M0,0 L1,0 L1,1 L0,1 Z M-1,1 L0,1 L0,3 L-1,3 Z " fill="#83F3CB" transform="translate(50,37)"/>
<path d="M0,0 L1,0 L1,2 L0,2 Z M1,2 L2,2 L2,3 L1,3 Z " fill="#83F3CB" transform="translate(47,20)"/>
<path d="M0,0 L1,0 L1,1 L0,1 Z " fill="#FFFFFF" opacity="0.6392157" transform="translate(36,59)"/>
<path d="M0,0 L1,0 L1,2 L0,2 Z M1,2 L2,2 L2,3 L1,3 Z " fill="#83F3CB" transform="translate(15,40)"/>
<path d="M0,0 L1,0 L1,1 L0,1 Z " fill="#FFFFFF" opacity="0.6392157" transform="translate(59,36)"/>
<path d="M0,0 L1,0 L1,1 L0,1 Z " fill="#FFFFFF" opacity="0.6431373" transform="translate(4,36)"/>
<path d="M0,0 L1,0 L1,3 L-1,3 L-1,1 L0,1 Z " fill="#5D5D67" transform="translate(42,30)"/>
<path d="M0,0 L1,0 L1,3 L-1,3 L-1,1 L0,1 Z " fill="#5D5D67" transform="translate(26,30)"/>
<path d="M0,0 L2,0 L2,1 L0,1 Z M2,1 L3,1 L3,2 L2,2 Z " fill="#83F3CB" transform="translate(40,15)"/>
<path d="M0,0 L1,0 L1,1 L0,1 Z " fill="#FFFFFF" opacity="0.57254905" transform="translate(18,56)"/>
<path d="M0,0 L1,0 L1,1 L0,1 Z " fill="#448477" opacity="0.78039217" transform="translate(35,55)"/>
<path d="M0,0 L1,0 L1,1 L0,1 Z " fill="#357B6D" opacity="0.8235294" transform="translate(29,55)"/>
<path d="M0,0 L1,0 L1,1 L0,1 Z " fill="#FFFFFF" opacity="0.8" transform="translate(14,53)"/>
<path d="M0,0 L1,0 L1,1 L0,1 Z " fill="#74DDBA" opacity="0.88235295" transform="translate(30,51)"/>
<path d="M0,0 L1,0 L1,1 L0,1 Z " fill="#5DD5AB" opacity="0.8235294" transform="translate(34,49)"/>
<path d="M0,0 L1,0 L1,1 L0,1 Z " fill="#5DD4AA" opacity="0.88235295" transform="translate(30,49)"/>
<path d="M0,0 L1,0 L1,1 L0,1 Z " fill="#FFFFFF" opacity="0.9843137" transform="translate(7,44)"/>
<path d="M0,0 L4,0 L4,1 L0,1 Z " fill="#459B7E" transform="translate(30,42)"/>
<path d="M0,0 L1,0 L1,1 L0,1 Z " fill="#448477" opacity="0.78039217" transform="translate(55,35)"/>
<path d="M0,0 L1,0 L1,1 L0,1 Z " fill="#438377" opacity="0.78431374" transform="translate(8,35)"/>
<path d="M0,0 L1,0 L1,1 L0,1 Z " fill="#5DD5AB" opacity="0.8235294" transform="translate(49,34)"/>
<path d="M0,0 L1,0 L1,1 L0,1 Z " fill="#5ED5AC" opacity="0.827451" transform="translate(14,34)"/>
<path d="M0,0 L1,0 L1,1 L0,1 Z " fill="#74DDBA" opacity="0.88235295" transform="translate(51,30)"/>
<path d="M0,0 L1,0 L1,1 L0,1 Z " fill="#5DD4AA" opacity="0.88235295" transform="translate(49,30)"/>
<path d="M0,0 L1,0 L1,1 L0,1 Z " fill="#5DD4AA" opacity="0.88235295" transform="translate(14,30)"/>
<path d="M0,0 L1,0 L1,1 L0,1 Z " fill="#74E0BA" opacity="0.8862745" transform="translate(12,30)"/>
<path d="M0,0 L1,0 L1,1 L0,1 Z " fill="#357B6D" opacity="0.8235294" transform="translate(55,29)"/>
<path d="M0,0 L1,0 L1,1 L0,1 Z " fill="#357A6D" opacity="0.827451" transform="translate(8,29)"/>
<path d="M0,0 L4,0 L4,1 L0,1 Z " fill="#374249" transform="translate(38,28)"/>
<path d="M0,0 L4,0 L4,1 L0,1 Z " fill="#374249" transform="translate(22,28)"/>
<path d="M0,0 L1,0 L1,1 L0,1 Z M-1,1 L0,1 L0,2 L-1,2 Z " fill="#83F3CB" transform="translate(16,21)"/>
<path d="M0,0 L1,0 L1,1 L0,1 Z " fill="#FFFFFF" opacity="0.57254905" transform="translate(56,18)"/>
<path d="M0,0 L1,0 L1,1 L0,1 Z M-1,1 L0,1 L0,2 L-1,2 Z " fill="#83F3CB" transform="translate(22,15)"/>
<path d="M0,0 L1,0 L1,1 L0,1 Z " fill="#FFFFFF" opacity="0.8" transform="translate(53,14)"/>
<path d="M0,0 L1,0 L1,1 L0,1 Z " fill="#5ED5AC" opacity="0.827451" transform="translate(34,14)"/>
<path d="M0,0 L1,0 L1,1 L0,1 Z " fill="#5DD4AA" opacity="0.88235295" transform="translate(30,14)"/>
<path d="M0,0 L1,0 L1,1 L0,1 Z " fill="#FFFFFF" opacity="0.8156863" transform="translate(10,14)"/>
<path d="M0,0 L1,0 L1,1 L0,1 Z " fill="#74E0BA" opacity="0.8862745" transform="translate(30,12)"/>
<path d="M0,0 L1,0 L1,1 L0,1 Z " fill="#FFFFFF" opacity="0.8156863" transform="translate(14,10)"/>
<path d="M0,0 L1,0 L1,1 L0,1 Z " fill="#357A6D" opacity="0.827451" transform="translate(29,8)"/>
<path d="M0,0 L1,0 L1,1 L0,1 Z " fill="#FFFFFF" opacity="0.92156863" transform="translate(17,8)"/>
<path d="M0,0 L1,0 L1,1 L0,1 Z " fill="#FFFFFF" opacity="0.9843137" transform="translate(44,7)"/>
<path d="M0,0 L1,0 L1,1 L0,1 Z " fill="#FFFFFF" opacity="0.9843137" transform="translate(31,4)"/>
<path d="M0,0 L1,0 L1,1 L0,1 Z " fill="#FFFFFF" opacity="0.64705884" transform="translate(27,4)"/>
<path d="M0,0 L1,0 L1,1 L0,1 Z " fill="#FFFFFF" opacity="0.79607844" transform="translate(10,49)"/>
<path d="M0,0 L1,0 L1,2 L0,2 Z " fill="#7FEFC7" opacity="0.9764706" transform="translate(14,39)"/>
<path d="M0,0 L2,0 L2,2 L1,2 L1,1 L0,1 Z " fill="#346F5C" transform="translate(34,39)"/>
<path d="M0,0 L2,0 L2,1 L1,1 L1,2 L0,2 Z " fill="#316958" transform="translate(28,39)"/>
<path d="M0,0 L1,0 L1,1 L0,1 Z " fill="#69D0AF" opacity="0.827451" transform="translate(12,34)"/>
<path d="M0,0 L1,0 L1,3 L0,3 Z " fill="#39444A" transform="translate(44,32)"/>
<path d="M0,0 L1,0 L1,3 L0,3 Z " fill="#39444A" transform="translate(28,32)"/>
<path d="M0,0 L2,0 L2,1 L1,1 L1,2 L0,2 Z " fill="#353541" transform="translate(36,29)"/>
<path d="M0,0 L2,0 L2,1 L1,1 L1,2 L0,2 Z " fill="#353541" transform="translate(20,29)"/>
<path d="M0,0 L2,0 L2,1 L0,1 Z " fill="#7FEFC7" opacity="0.9764706" transform="translate(39,14)"/>
<path d="M0,0 L1,0 L1,1 L0,1 Z " fill="#69D0AF" opacity="0.827451" transform="translate(34,12)"/>
<path d="M0,0 L1,0 L1,1 L0,1 Z " fill="#FFFFFF" opacity="0.79607844" transform="translate(49,10)"/>
<path d="M0,0 L1,0 L1,1 L0,1 Z " fill="#599286" opacity="0.7607843" transform="translate(36,8)"/>
<path d="M0,0 L1,0 L1,1 L0,1 Z " fill="#FFFFFF" opacity="0.039215688" transform="translate(39,59)"/>
<path d="M0,0 L1,0 L1,1 L0,1 Z " fill="#FFFFFF" opacity="0.8901961" transform="translate(29,59)"/>
<path d="M0,0 L1,0 L1,1 L0,1 Z " fill="#FFFFFF" opacity="0.63529414" transform="translate(27,59)"/>
<path d="M0,0 L1,0 L1,1 L0,1 Z " fill="#FFFFFF" opacity="0.25882354" transform="translate(25,59)"/>
<path d="M0,0 L1,0 L1,1 L0,1 Z " fill="#FFFFFF" opacity="0.0627451" transform="translate(42,58)"/>
<path d="M0,0 L1,0 L1,1 L0,1 Z " fill="#FFFFFF" opacity="0.38039216" transform="translate(22,58)"/>
<path d="M0,0 L1,0 L1,1 L0,1 Z " fill="#FFFFFF" opacity="0.5764706" transform="translate(20,57)"/>
<path d="M0,0 L1,0 L1,1 L0,1 Z " fill="#287263" opacity="0.95686275" transform="translate(32,55)"/>
<path d="M0,0 L1,0 L1,1 L0,1 Z " fill="#5B9287" opacity="0.7607843" transform="translate(27,55)"/>
<path d="M0,0 L1,0 L1,1 L0,1 Z " fill="#FFFFFF" opacity="0.9098039" transform="translate(17,55)"/>
<path d="M0,0 L1,0 L1,1 L0,1 Z " fill="#387C70" opacity="0.8117647" transform="translate(24,54)"/>
<path d="M0,0 L1,0 L1,1 L0,1 Z " fill="#297264" opacity="0.9372549" transform="translate(20,52)"/>
<path d="M0,0 L1,0 L1,1 L0,1 Z M-1,1 L0,1 L0,2 L-1,2 Z " fill="#FFFFFF" opacity="0.14901961" transform="translate(52,51)"/>
<path d="M0,0 L1,0 L1,1 L0,1 Z " fill="#2B7567" opacity="0.85490197" transform="translate(37,51)"/>
<path d="M0,0 L1,0 L1,1 L0,1 Z " fill="#5CBCA0" opacity="0.78431374" transform="translate(35,51)"/>
<path d="M0,0 L1,0 L1,1 L0,1 Z " fill="#5CBCA0" opacity="0.78431374" transform="translate(28,51)"/>
<path d="M0,0 L1,0 L1,1 L0,1 Z M1,1 L2,1 L2,2 L1,2 Z " fill="#FFFFFF" opacity="0.12941177" transform="translate(11,51)"/>
<path d="M0,0 L1,0 L1,1 L0,1 Z " fill="#297464" opacity="0.8980392" transform="translate(40,50)"/>
<path d="M0,0 L1,0 L1,1 L0,1 Z " fill="#75E1BC" opacity="0.89411765" transform="translate(25,50)"/>
<path d="M0,0 L1,0 L1,1 L0,1 Z " fill="#287263" opacity="0.9411765" transform="translate(42,49)"/>
<path d="M0,0 L1,0 L1,1 L0,1 Z " fill="#5DD3A9" opacity="0.95686275" transform="translate(32,49)"/>
<path d="M0,0 L1,0 L1,1 L0,1 Z " fill="#62D9AE" opacity="0.7764706" transform="translate(28,49)"/>
<path d="M0,0 L1,0 L1,1 L0,1 Z M-1,1 L0,1 L0,2 L-1,2 Z " fill="#8AB3AB" opacity="0.7607843" transform="translate(49,48)"/>
<path d="M0,0 L1,0 L1,1 L0,1 Z " fill="#82F3CA" opacity="0.99607843" transform="translate(40,48)"/>
<path d="M0,0 L1,0 L1,1 L0,1 Z " fill="#5ED6AC" opacity="0.8392157" transform="translate(25,48)"/>
<path d="M0,0 L1,0 L1,1 L0,1 Z " fill="#81F2CA" transform="translate(43,47)"/>
<path d="M0,0 L1,0 L1,1 L0,1 Z " fill="#82F3CB" transform="translate(42,47)"/>
<path d="M0,0 L1,0 L1,1 L0,1 Z " fill="#5ED5AB" opacity="0.84313726" transform="translate(23,47)"/>
<path d="M0,0 L1,0 L1,1 L0,1 Z " fill="#81F2CA" transform="translate(20,47)"/>
<path d="M0,0 L1,0 L1,1 L0,1 Z M-1,1 L0,1 L0,2 L-1,2 Z " fill="#5BBB9E" opacity="0.78039217" transform="translate(46,45)"/>
<path d="M0,0 L1,0 L1,1 L0,1 Z M1,1 L2,1 L2,2 L1,2 Z " fill="#58B79B" opacity="0.77254903" transform="translate(17,45)"/>
<path d="M0,0 L1,0 L1,1 L0,1 Z M-1,1 L0,1 L0,2 L-1,2 Z " fill="#7FF0C7" opacity="0.92941177" transform="translate(45,44)"/>
<path d="M0,0 L1,0 L1,1 L0,1 Z " fill="#81F2CA" transform="translate(47,43)"/>
<path d="M0,0 L2,0 L2,1 L0,1 Z " fill="#80F3CA" opacity="0.99215686" transform="translate(16,43)"/>
<path d="M0,0 L1,0 L1,1 L0,1 Z " fill="#FFFFFF" opacity="0.0627451" transform="translate(58,42)"/>
<path d="M0,0 L1,0 L1,1 L0,1 Z " fill="#287263" opacity="0.9411765" transform="translate(49,42)"/>
<path d="M0,0 L1,0 L1,1 L0,1 Z " fill="#82F3CB" transform="translate(47,42)"/>
<path d="M0,0 L1,0 L1,1 L0,1 Z " fill="#287263" opacity="0.9411765" transform="translate(14,42)"/>
<path d="M0,0 L1,0 L1,1 L0,1 Z " fill="#FFFFFF" opacity="0.05882353" transform="translate(5,42)"/>
<path d="M0,0 L2,0 L2,1 L0,1 Z " fill="#24483F" transform="translate(31,41)"/>
<path d="M0,0 L1,0 L1,1 L0,1 Z " fill="#297464" opacity="0.8980392" transform="translate(50,40)"/>
<path d="M0,0 L1,0 L1,2 L0,2 Z " fill="#7FEFC7" opacity="0.9764706" transform="translate(49,39)"/>
<path d="M0,0 L1,0 L1,1 L0,1 Z " fill="#82F3CA" opacity="0.99607843" transform="translate(48,40)"/>
<path d="M0,0 L2,0 L2,1 L0,1 Z " fill="#3A7F69" transform="translate(31,40)"/>
<path d="M0,0 L1,0 L1,1 L0,1 Z " fill="#297464" opacity="0.8980392" transform="translate(13,40)"/>
<path d="M0,0 L1,0 L1,1 L0,1 Z " fill="#FFFFFF" opacity="0.039215688" transform="translate(59,39)"/>
<path d="M0,0 L1,0 L1,1 L0,1 Z " fill="#FFFFFF" opacity="0.039215688" transform="translate(4,39)"/>
<path d="M0,0 L1,0 L1,1 L0,1 Z " fill="#2B7567" opacity="0.85490197" transform="translate(51,37)"/>
<path d="M0,0 L2,0 L2,1 L0,1 Z " fill="#38434A" transform="translate(38,37)"/>
<path d="M0,0 L2,0 L2,1 L0,1 Z " fill="#38434A" transform="translate(22,37)"/>
<path d="M0,0 L1,0 L1,1 L0,1 Z " fill="#2B7767" opacity="0.8509804" transform="translate(12,37)"/>
<path d="M0,0 L1,0 L1,1 L0,1 Z " fill="#5CBCA0" opacity="0.78431374" transform="translate(51,35)"/>
<path d="M0,0 L1,0 L1,1 L0,1 Z M-1,1 L0,1 L0,2 L-1,2 Z " fill="#353742" transform="translate(43,35)"/>
<path d="M0,0 L1,0 L1,1 L0,1 Z M-1,1 L0,1 L0,2 L-1,2 Z " fill="#353742" transform="translate(27,35)"/>
<path d="M0,0 L1,0 L1,1 L0,1 Z " fill="#5DD3A9" opacity="0.95686275" transform="translate(49,32)"/>
<path d="M0,0 L1,0 L1,2 L0,2 Z " fill="#373F47" transform="translate(35,31)"/>
<path d="M0,0 L1,0 L1,2 L0,2 Z " fill="#38434A" transform="translate(19,31)"/>
<path d="M0,0 L1,0 L1,2 L0,2 Z " fill="#5CD4AA" opacity="0.9607843" transform="translate(14,31)"/>
<path d="M0,0 L1,0 L1,2 L0,2 Z " fill="#7EEDC6" opacity="0.9607843" transform="translate(12,31)"/>
<path d="M0,0 L1,0 L1,1 L0,1 Z " fill="#287164" opacity="0.9607843" transform="translate(55,31)"/>
<path d="M0,0 L1,0 L1,1 L0,1 Z " fill="#287164" opacity="0.9607843" transform="translate(8,31)"/>
<path d="M0,0 L1,0 L1,2 L0,2 Z " fill="#486162" transform="translate(43,29)"/>
<path d="M0,0 L2,0 L2,1 L0,1 Z " fill="#5C666B" transform="translate(40,30)"/>
<path d="M0,0 L1,0 L1,2 L0,2 Z " fill="#486162" transform="translate(27,29)"/>
<path d="M0,0 L2,0 L2,1 L0,1 Z " fill="#5C666B" transform="translate(24,30)"/>
<path d="M0,0 L1,0 L1,1 L0,1 Z " fill="#FFFFFF" opacity="0.8901961" transform="translate(59,29)"/>
<path d="M0,0 L1,0 L1,1 L0,1 Z " fill="#FFFFFF" opacity="0.8980392" transform="translate(4,29)"/>
<path d="M0,0 L1,0 L1,1 L0,1 Z " fill="#5CBCA0" opacity="0.78431374" transform="translate(51,28)"/>
<path d="M0,0 L1,0 L1,1 L0,1 Z " fill="#62D9AE" opacity="0.7764706" transform="translate(49,28)"/>
<path d="M0,0 L1,0 L1,1 L0,1 Z " fill="#62D9AE" opacity="0.7764706" transform="translate(14,28)"/>
<path d="M0,0 L1,0 L1,1 L0,1 Z " fill="#5EBEA1" opacity="0.78431374" transform="translate(12,28)"/>
<path d="M0,0 L1,0 L1,1 L0,1 Z " fill="#FFFFFF" opacity="0.63529414" transform="translate(59,27)"/>
<path d="M0,0 L1,0 L1,1 L0,1 Z " fill="#5B9287" opacity="0.7607843" transform="translate(55,27)"/>
<path d="M0,0 L1,0 L1,1 L0,1 Z " fill="#599286" opacity="0.7607843" transform="translate(8,27)"/>
<path d="M0,0 L1,0 L1,1 L0,1 Z " fill="#FFFFFF" opacity="0.64705884" transform="translate(4,27)"/>
<path d="M0,0 L1,0 L1,1 L0,1 Z " fill="#FFFFFF" opacity="0.25882354" transform="translate(59,25)"/>
<path d="M0,0 L1,0 L1,1 L0,1 Z " fill="#75E1BC" opacity="0.89411765" transform="translate(50,25)"/>
<path d="M0,0 L1,0 L1,1 L0,1 Z " fill="#5ED6AC" opacity="0.8392157" transform="translate(48,25)"/>
<path d="M0,0 L1,0 L1,1 L0,1 Z " fill="#5DD7AB" opacity="0.8352941" transform="translate(15,25)"/>
<path d="M0,0 L1,0 L1,1 L0,1 Z " fill="#75E1BC" opacity="0.89411765" transform="translate(13,25)"/>
<path d="M0,0 L1,0 L1,1 L0,1 Z " fill="#FFFFFF" opacity="0.27450982" transform="translate(4,25)"/>
<path d="M0,0 L1,0 L1,1 L0,1 Z " fill="#387C70" opacity="0.8117647" transform="translate(54,24)"/>
<path d="M0,0 L1,0 L1,1 L0,1 Z " fill="#387C70" opacity="0.8156863" transform="translate(9,24)"/>
<path d="M0,0 L2,0 L2,1 L0,1 Z " fill="#7EEDC6" opacity="0.96862745" transform="translate(48,23)"/>
<path d="M0,0 L1,0 L1,1 L0,1 Z " fill="#82F3CB" transform="translate(15,23)"/>
<path d="M0,0 L1,0 L1,1 L0,1 Z " fill="#FFFFFF" opacity="0.38039216" transform="translate(58,22)"/>
<path d="M0,0 L1,0 L1,1 L0,1 Z " fill="#287263" opacity="0.96862745" transform="translate(53,22)"/>
<path d="M0,0 L1,0 L1,1 L0,1 Z " fill="#287263" opacity="0.96862745" transform="translate(10,22)"/>
<path d="M0,0 L1,0 L1,1 L0,1 Z " fill="#FFFFFF" opacity="0.4" transform="translate(5,22)"/>
<path d="M0,0 L1,0 L1,1 L0,1 Z " fill="#FFFFFF" opacity="0.5764706" transform="translate(57,20)"/>
<path d="M0,0 L1,0 L1,1 L0,1 Z " fill="#297264" opacity="0.9372549" transform="translate(52,20)"/>
<path d="M0,0 L1,0 L1,1 L0,1 Z " fill="#81F2CA" transform="translate(47,20)"/>
<path d="M0,0 L2,0 L2,1 L0,1 Z " fill="#82F3CA" transform="translate(16,20)"/>
<path d="M0,0 L1,0 L1,1 L0,1 Z " fill="#297264" opacity="0.93333334" transform="translate(11,20)"/>
<path d="M0,0 L1,0 L1,1 L0,1 Z " fill="#FFFFFF" opacity="0.5921569" transform="translate(6,20)"/>
<path d="M0,0 L1,0 L1,1 L0,1 Z M-1,1 L0,1 L0,2 L-1,2 Z " fill="#81F1C8" opacity="0.9647059" transform="translate(19,18)"/>
<path d="M0,0 L1,0 L1,1 L0,1 Z " fill="#FFFFFF" opacity="0.5921569" transform="translate(7,18)"/>
<path d="M0,0 L1,0 L1,1 L0,1 Z " fill="#FFFFFF" opacity="0.9098039" transform="translate(55,17)"/>
<path d="M0,0 L1,0 L1,1 L0,1 Z M1,1 L2,1 L2,2 L1,2 Z " fill="#58B79B" opacity="0.77254903" transform="translate(45,17)"/>
<path d="M0,0 L1,0 L1,2 L0,2 Z " fill="#80F3CA" opacity="0.99215686" transform="translate(43,16)"/>
<path d="M0,0 L1,0 L1,2 L0,2 Z " fill="#82F3CA" transform="translate(20,16)"/>
<path d="M0,0 L1,0 L1,1 L0,1 Z M-1,1 L0,1 L0,2 L-1,2 Z " fill="#54B297" opacity="0.76862746" transform="translate(18,17)"/>
<path d="M0,0 L1,0 L1,1 L0,1 Z " fill="#FFFFFF" opacity="0.92156863" transform="translate(8,17)"/>
<path d="M0,0 L1,0 L1,1 L0,1 Z " fill="#5DD7AB" opacity="0.8352941" transform="translate(25,15)"/>
<path d="M0,0 L1,0 L1,1 L0,1 Z " fill="#82F3CB" transform="translate(23,15)"/>
<path d="M0,0 L1,0 L1,1 L0,1 Z " fill="#287263" opacity="0.9411765" transform="translate(42,14)"/>
<path d="M0,0 L2,0 L2,1 L0,1 Z " fill="#5CD4AA" opacity="0.9607843" transform="translate(31,14)"/>
<path d="M0,0 L1,0 L1,1 L0,1 Z " fill="#62D9AE" opacity="0.7764706" transform="translate(28,14)"/>
<path d="M0,0 L1,0 L1,1 L0,1 Z M-1,1 L0,1 L0,2 L-1,2 Z " fill="#ACC9C3" opacity="0.7921569" transform="translate(15,14)"/>
<path d="M0,0 L1,0 L1,1 L0,1 Z " fill="#297464" opacity="0.8980392" transform="translate(40,13)"/>
<path d="M0,0 L1,0 L1,1 L0,1 Z " fill="#75E1BC" opacity="0.89411765" transform="translate(25,13)"/>
<path d="M0,0 L1,0 L1,1 L0,1 Z " fill="#2B7767" opacity="0.8509804" transform="translate(37,12)"/>
<path d="M0,0 L2,0 L2,1 L0,1 Z " fill="#7EEDC6" opacity="0.9607843" transform="translate(31,12)"/>
<path d="M0,0 L1,0 L1,1 L0,1 Z " fill="#5EBEA1" opacity="0.78431374" transform="translate(28,12)"/>
<path d="M0,0 L1,0 L1,1 L0,1 Z M1,1 L2,1 L2,2 L1,2 Z " fill="#FFFFFF" opacity="0.12941177" transform="translate(51,11)"/>
<path d="M0,0 L1,0 L1,1 L0,1 Z " fill="#297264" opacity="0.93333334" transform="translate(20,11)"/>
<path d="M0,0 L1,0 L1,1 L0,1 Z M-1,1 L0,1 L0,2 L-1,2 Z " fill="#FFFFFF" opacity="0.14117648" transform="translate(12,11)"/>
<path d="M0,0 L1,0 L1,1 L0,1 Z " fill="#287263" opacity="0.96862745" transform="translate(22,10)"/>
<path d="M0,0 L1,0 L1,1 L0,1 Z " fill="#387C70" opacity="0.8156863" transform="translate(24,9)"/>
<path d="M0,0 L1,0 L1,1 L0,1 Z " fill="#FFFFFF" opacity="0.6156863" transform="translate(15,9)"/>
<path d="M0,0 L1,0 L1,1 L0,1 Z " fill="#357A6D" opacity="0.827451" transform="translate(34,8)"/>
<path d="M0,0 L1,0 L1,1 L0,1 Z " fill="#287164" opacity="0.9607843" transform="translate(31,8)"/>
<path d="M0,0 L1,0 L1,1 L0,1 Z " fill="#599286" opacity="0.7607843" transform="translate(27,8)"/>
<path d="M0,0 L1,0 L1,1 L0,1 Z " fill="#FFFFFF" opacity="0.5921569" transform="translate(18,7)"/>
<path d="M0,0 L1,0 L1,1 L0,1 Z " fill="#FFFFFF" opacity="0.5921569" transform="translate(20,6)"/>
<path d="M0,0 L1,0 L1,1 L0,1 Z " fill="#FFFFFF" opacity="0.05882353" transform="translate(42,5)"/>
<path d="M0,0 L1,0 L1,1 L0,1 Z " fill="#FFFFFF" opacity="0.4" transform="translate(22,5)"/>
<path d="M0,0 L1,0 L1,1 L0,1 Z " fill="#FFFFFF" opacity="0.039215688" transform="translate(39,4)"/>
<path d="M0,0 L1,0 L1,1 L0,1 Z " fill="#FFFFFF" opacity="0.49019608" transform="translate(37,4)"/>
<path d="M0,0 L1,0 L1,1 L0,1 Z " fill="#FFFFFF" opacity="0.8980392" transform="translate(29,4)"/>
<path d="M0,0 L1,0 L1,1 L0,1 Z " fill="#FFFFFF" opacity="0.27450982" transform="translate(25,4)"/>
<path d="M0,0 L1,0 L1,1 L0,1 Z " fill="#FFFFFF" opacity="0.25882354" transform="translate(38,59)"/>
<path d="M0,0 L1,0 L1,1 L0,1 Z " fill="#FFFFFF" opacity="0.49019608" transform="translate(37,59)"/>
<path d="M0,0 L1,0 L1,1 L0,1 Z " fill="#FFFFFF" opacity="0.78039217" transform="translate(35,59)"/>
<path d="M0,0 L1,0 L1,1 L0,1 Z " fill="#FFFFFF" opacity="0.8901961" transform="translate(34,59)"/>
<path d="M0,0 L1,0 L1,1 L0,1 Z " fill="#FFFFFF" opacity="0.93333334" transform="translate(33,59)"/>
<path d="M0,0 L1,0 L1,1 L0,1 Z " fill="#FFFFFF" opacity="0.98039216" transform="translate(32,59)"/>
<path d="M0,0 L1,0 L1,1 L0,1 Z " fill="#FFFFFF" opacity="0.93333334" transform="translate(30,59)"/>
<path d="M0,0 L1,0 L1,1 L0,1 Z " fill="#FFFFFF" opacity="0.78039217" transform="translate(28,59)"/>
<path d="M0,0 L1,0 L1,1 L0,1 Z " fill="#FFFFFF" opacity="0.4862745" transform="translate(26,59)"/>
<path d="M0,0 L1,0 L1,1 L0,1 Z " fill="#FFFFFF" opacity="0.039215688" transform="translate(24,59)"/>
<path d="M0,0 L1,0 L1,1 L0,1 Z " fill="#FFFFFF" opacity="0.38431373" transform="translate(41,58)"/>
<path d="M0,0 L1,0 L1,1 L0,1 Z " fill="#FFFFFF" opacity="0.7372549" transform="translate(40,58)"/>
<path d="M0,0 L1,0 L1,1 L0,1 Z " fill="#FFFFFF" opacity="0.98039216" transform="translate(39,58)"/>
<path d="M0,0 L1,0 L1,1 L0,1 Z " fill="#FFFFFF" opacity="0.7372549" transform="translate(23,58)"/>
<path d="M0,0 L1,0 L1,1 L0,1 Z " fill="#FFFFFF" opacity="0.0627451" transform="translate(21,58)"/>
<path d="M0,0 L1,0 L1,1 L0,1 Z " fill="#FFFFFF" opacity="0.1254902" transform="translate(44,57)"/>
<path d="M0,0 L1,0 L1,1 L0,1 Z " fill="#FFFFFF" opacity="0.5882353" transform="translate(43,57)"/>
<path d="M0,0 L1,0 L1,1 L0,1 Z " fill="#FFFFFF" opacity="0.972549" transform="translate(42,57)"/>
<path d="M0,0 L1,0 L1,1 L0,1 Z " fill="#FFFFFF" opacity="0.96862745" transform="translate(21,57)"/>
<path d="M0,0 L1,0 L1,1 L0,1 Z " fill="#FFFFFF" opacity="0.11764706" transform="translate(19,57)"/>
<path d="M0,0 L1,0 L1,1 L0,1 Z " fill="#FFFFFF" opacity="0.06666667" transform="translate(46,56)"/>
<path d="M0,0 L1,0 L1,1 L0,1 Z " fill="#FFFFFF" opacity="0.58431375" transform="translate(45,56)"/>
<path d="M0,0 L1,0 L1,1 L0,1 Z " fill="#FFFFFF" opacity="0.9882353" transform="translate(44,56)"/>
<path d="M0,0 L1,0 L1,1 L0,1 Z " fill="#FFFFFF" opacity="0.9843137" transform="translate(19,56)"/>
<path d="M0,0 L1,0 L1,1 L0,1 Z " fill="#FFFFFF" opacity="0.05882353" transform="translate(17,56)"/>
<path d="M0,0 L1,0 L1,1 L0,1 Z " fill="#FFFFFF" opacity="0.3529412" transform="translate(47,55)"/>
<path d="M0,0 L1,0 L1,1 L0,1 Z " fill="#FFFFFF" opacity="0.91764706" transform="translate(46,55)"/>
<path d="M0,0 L1,0 L1,1 L0,1 Z " fill="#F0F6F5" opacity="0.94509804" transform="translate(38,55)"/>
<path d="M0,0 L1,0 L1,1 L0,1 Z " fill="#A0C0BA" opacity="0.7764706" transform="translate(37,55)"/>
<path d="M0,0 L1,0 L1,1 L0,1 Z " fill="#5B9287" opacity="0.7607843" transform="translate(36,55)"/>
<path d="M0,0 L1,0 L1,1 L0,1 Z " fill="#357B6D" opacity="0.8235294" transform="translate(34,55)"/>
<path d="M0,0 L1,0 L1,1 L0,1 Z " fill="#2D7567" opacity="0.88235295" transform="translate(33,55)"/>
<path d="M0,0 L1,0 L1,1 L0,1 Z " fill="#287164" opacity="0.9607843" transform="translate(31,55)"/>
<path d="M0,0 L1,0 L1,1 L0,1 Z " fill="#2D7567" opacity="0.88235295" transform="translate(30,55)"/>
<path d="M0,0 L1,0 L1,1 L0,1 Z " fill="#448477" opacity="0.78039217" transform="translate(28,55)"/>
<path d="M0,0 L1,0 L1,1 L0,1 Z " fill="#A0C0BA" opacity="0.7764706" transform="translate(26,55)"/>
<path d="M0,0 L1,0 L1,1 L0,1 Z " fill="#F1F6F5" opacity="0.94509804" transform="translate(25,55)"/>
<path d="M0,0 L1,0 L1,1 L0,1 Z " fill="#FFFFFF" opacity="0.33333334" transform="translate(16,55)"/>
<path d="M0,0 L1,0 L1,1 L0,1 Z " fill="#FFFFFF" opacity="0.039215688" transform="translate(49,54)"/>
<path d="M0,0 L1,0 L1,1 L0,1 Z " fill="#FFFFFF" opacity="0.6156863" transform="translate(48,54)"/>
<path d="M0,0 L1,0 L1,1 L0,1 Z " fill="#E3EDEB" opacity="0.9019608" transform="translate(41,54)"/>
<path d="M0,0 L1,0 L1,1 L0,1 Z " fill="#7CA9A1" opacity="0.7529412" transform="translate(40,54)"/>
<path d="M0,0 L1,0 L1,1 L0,1 Z " fill="#387C6E" opacity="0.8156863" transform="translate(39,54)"/>
<path d="M0,0 L1,0 L1,1 L0,1 Z " fill="#287163" opacity="0.9882353" transform="translate(38,54)"/>
<path d="M0,0 L1,0 L1,1 L0,1 Z " fill="#287163" opacity="0.9882353" transform="translate(25,54)"/>
<path d="M0,0 L1,0 L1,1 L0,1 Z " fill="#7FABA3" opacity="0.75686276" transform="translate(23,54)"/>
<path d="M0,0 L1,0 L1,1 L0,1 Z " fill="#E6EFED" opacity="0.9098039" transform="translate(22,54)"/>
<path d="M0,0 L1,0 L1,1 L0,1 Z " fill="#FFFFFF" opacity="0.5921569" transform="translate(15,54)"/>
<path d="M0,0 L1,0 L1,1 L0,1 Z " fill="#FFFFFF" opacity="0.03137255" transform="translate(14,54)"/>
<path d="M0,0 L1,0 L1,1 L0,1 Z " fill="#FFFFFF" opacity="0.105882354" transform="translate(50,53)"/>
<path d="M0,0 L1,0 L1,1 L0,1 Z " fill="#FFFFFF" opacity="0.81960785" transform="translate(49,53)"/>
<path d="M0,0 L1,0 L1,1 L0,1 Z " fill="#EDF4F3" opacity="0.93333334" transform="translate(43,53)"/>
<path d="M0,0 L1,0 L1,1 L0,1 Z " fill="#60968C" opacity="0.7529412" transform="translate(42,53)"/>
<path d="M0,0 L1,0 L1,1 L0,1 Z " fill="#297263" opacity="0.9764706" transform="translate(41,53)"/>
<path d="M0,0 L1,0 L1,1 L0,1 Z " fill="#287263" opacity="0.96862745" transform="translate(22,53)"/>
<path d="M0,0 L1,0 L1,1 L0,1 Z " fill="#669C91" opacity="0.7529412" transform="translate(21,53)"/>
<path d="M0,0 L1,0 L1,1 L0,1 Z " fill="#F1F6F5" opacity="0.94509804" transform="translate(20,53)"/>
<path d="M0,0 L1,0 L1,1 L0,1 Z " fill="#FFFFFF" opacity="0.09019608" transform="translate(13,53)"/>
<path d="M0,0 L1,0 L1,1 L0,1 Z " fill="#FFFFFF" opacity="0.8784314" transform="translate(50,52)"/>
<path d="M0,0 L1,0 L1,1 L0,1 Z " fill="#F5F9F8" opacity="0.9647059" transform="translate(45,52)"/>
<path d="M0,0 L1,0 L1,1 L0,1 Z " fill="#76A59D" opacity="0.7529412" transform="translate(44,52)"/>
<path d="M0,0 L1,0 L1,1 L0,1 Z " fill="#287163" opacity="0.94509804" transform="translate(43,52)"/>
<path d="M0,0 L1,0 L1,1 L0,1 Z " fill="#7FABA3" opacity="0.75686276" transform="translate(19,52)"/>
<path d="M0,0 L1,0 L1,1 L0,1 Z " fill="#F8FBFA" opacity="0.9764706" transform="translate(18,52)"/>
<path d="M0,0 L1,0 L1,1 L0,1 Z " fill="#FFFFFF" opacity="0.8627451" transform="translate(13,52)"/>
<path d="M0,0 L1,0 L1,1 L0,1 Z " fill="#FFFFFF" opacity="0.91764706" transform="translate(51,51)"/>
<path d="M0,0 L1,0 L1,1 L0,1 Z " fill="#DEEAE8" opacity="0.8862745" transform="translate(46,51)"/>
<path d="M0,0 L1,0 L1,1 L0,1 Z " fill="#2F7668" opacity="0.8627451" transform="translate(45,51)"/>
<path d="M0,0 L1,0 L1,1 L0,1 Z " fill="#429982" opacity="0.7529412" transform="translate(36,51)"/>
<path d="M0,0 L1,0 L1,1 L0,1 Z " fill="#67CEAD" opacity="0.8235294" transform="translate(34,51)"/>
<path d="M0,0 L1,0 L1,1 L0,1 Z " fill="#74DDBA" opacity="0.88235295" transform="translate(33,51)"/>
<path d="M0,0 L1,0 L1,1 L0,1 Z " fill="#7DEDC6" opacity="0.9607843" transform="translate(31,51)"/>
<path d="M0,0 L1,0 L1,1 L0,1 Z " fill="#67CEAD" opacity="0.8235294" transform="translate(29,51)"/>
<path d="M0,0 L1,0 L1,1 L0,1 Z " fill="#429882" opacity="0.7529412" transform="translate(27,51)"/>
<path d="M0,0 L1,0 L1,1 L0,1 Z " fill="#2B7668" opacity="0.85882354" transform="translate(26,51)"/>
<path d="M0,0 L1,0 L1,1 L0,1 Z " fill="#33786B" opacity="0.8392157" transform="translate(18,51)"/>
<path d="M0,0 L1,0 L1,1 L0,1 Z " fill="#E6EFED" opacity="0.9098039" transform="translate(17,51)"/>
<path d="M0,0 L1,0 L1,1 L0,1 Z " fill="#FFFFFF" opacity="0.8980392" transform="translate(12,51)"/>
<path d="M0,0 L1,0 L1,1 L0,1 Z " fill="#FFFFFF" opacity="0.105882354" transform="translate(53,50)"/>
<path d="M0,0 L1,0 L1,1 L0,1 Z " fill="#FFFFFF" opacity="0.8784314" transform="translate(52,50)"/>
<path d="M0,0 L1,0 L1,1 L0,1 Z " fill="#BCD3CE" opacity="0.8156863" transform="translate(47,50)"/>
<path d="M0,0 L1,0 L1,1 L0,1 Z " fill="#297264" opacity="0.93333334" transform="translate(46,50)"/>
<path d="M0,0 L1,0 L1,1 L0,1 Z " fill="#4FA990" opacity="0.75686276" transform="translate(39,50)"/>
<path d="M0,0 L1,0 L1,1 L0,1 Z " fill="#76E1BE" opacity="0.8980392" transform="translate(38,50)"/>
<path d="M0,0 L1,0 L1,1 L0,1 Z " fill="#4EA88F" opacity="0.75686276" transform="translate(24,50)"/>
<path d="M0,0 L1,0 L1,1 L0,1 Z " fill="#297364" opacity="0.90588236" transform="translate(23,50)"/>
<path d="M0,0 L1,0 L1,1 L0,1 Z " fill="#297265" opacity="0.9098039" transform="translate(17,50)"/>
<path d="M0,0 L1,0 L1,1 L0,1 Z " fill="#CADDD9" opacity="0.8392157" transform="translate(16,50)"/>
<path d="M0,0 L1,0 L1,1 L0,1 Z " fill="#FFFFFF" opacity="0.85882354" transform="translate(11,50)"/>
<path d="M0,0 L1,0 L1,1 L0,1 Z " fill="#FFFFFF" opacity="0.08627451" transform="translate(10,50)"/>
<path d="M0,0 L1,0 L1,1 L0,1 Z " fill="#FFFFFF" opacity="0.039215688" transform="translate(54,49)"/>
<path d="M0,0 L1,0 L1,1 L0,1 Z " fill="#FFFFFF" opacity="0.81960785" transform="translate(53,49)"/>
<path d="M0,0 L1,0 L1,1 L0,1 Z " fill="#287163" opacity="0.9882353" transform="translate(47,49)"/>
<path d="M0,0 L1,0 L1,1 L0,1 Z " fill="#4BA48C" opacity="0.75686276" transform="translate(41,49)"/>
<path d="M0,0 L1,0 L1,1 L0,1 Z " fill="#7FEFC7" opacity="0.9764706" transform="translate(40,49)"/>
<path d="M0,0 L1,0 L1,1 L0,1 Z " fill="#83F3CB" transform="translate(39,49)"/>
<path d="M0,0 L1,0 L1,1 L0,1 Z " fill="#7EF1C7" opacity="0.90588236" transform="translate(37,49)"/>
<path d="M0,0 L1,0 L1,1 L0,1 Z " fill="#6EE4BA" opacity="0.7607843" transform="translate(36,49)"/>
<path d="M0,0 L1,0 L1,1 L0,1 Z " fill="#63D8AE" opacity="0.78039217" transform="translate(35,49)"/>
<path d="M0,0 L1,0 L1,1 L0,1 Z " fill="#5DD4AA" opacity="0.88235295" transform="translate(33,49)"/>
<path d="M0,0 L1,0 L1,1 L0,1 Z " fill="#5CD4AA" opacity="0.9607843" transform="translate(31,49)"/>
<path d="M0,0 L1,0 L1,1 L0,1 Z " fill="#5FD6AD" opacity="0.8235294" transform="translate(29,49)"/>
<path d="M0,0 L1,0 L1,1 L0,1 Z " fill="#6FE4BA" opacity="0.7647059" transform="translate(27,49)"/>
<path d="M0,0 L1,0 L1,1 L0,1 Z " fill="#7EF0C6" opacity="0.9137255" transform="translate(26,49)"/>
<path d="M0,0 L1,0 L1,1 L0,1 Z " fill="#7EEDC6" opacity="0.96862745" transform="translate(23,49)"/>
<path d="M0,0 L1,0 L1,1 L0,1 Z " fill="#49A289" opacity="0.7529412" transform="translate(22,49)"/>
<path d="M0,0 L1,0 L1,1 L0,1 Z " fill="#287163" opacity="0.94509804" transform="translate(21,49)"/>
<path d="M0,0 L1,0 L1,1 L0,1 Z " fill="#287263" opacity="0.96862745" transform="translate(16,49)"/>
<path d="M0,0 L1,0 L1,1 L0,1 Z " fill="#A1C1BB" opacity="0.7764706" transform="translate(15,49)"/>
<path d="M0,0 L1,0 L1,1 L0,1 Z " fill="#FFFFFF" opacity="0.03137255" transform="translate(9,49)"/>
<path d="M0,0 L1,0 L1,1 L0,1 Z " fill="#FFFFFF" opacity="0.6156863" transform="translate(54,48)"/>
<path d="M0,0 L1,0 L1,1 L0,1 Z " fill="#368472" opacity="0.78039217" transform="translate(43,48)"/>
<path d="M0,0 L1,0 L1,1 L0,1 Z " fill="#83F3CB" transform="translate(41,48)"/>
<path d="M0,0 L1,0 L1,1 L0,1 Z " fill="#70E4BC" opacity="0.76862746" transform="translate(39,48)"/>
<path d="M0,0 L1,0 L1,1 L0,1 Z " fill="#5FD6AC" opacity="0.84313726" transform="translate(38,48)"/>
<path d="M0,0 L1,0 L1,1 L0,1 Z " fill="#71E6BC" opacity="0.7764706" transform="translate(24,48)"/>
<path d="M0,0 L1,0 L1,1 L0,1 Z " fill="#82F3CA" transform="translate(23,48)"/>
<path d="M0,0 L1,0 L1,1 L0,1 Z " fill="#7BE8C1" opacity="0.9372549" transform="translate(21,48)"/>
<path d="M0,0 L1,0 L1,1 L0,1 Z " fill="#348270" opacity="0.78431374" transform="translate(20,48)"/>
<path d="M0,0 L1,0 L1,1 L0,1 Z " fill="#A3C3BD" opacity="0.78039217" transform="translate(14,48)"/>
<path d="M0,0 L1,0 L1,1 L0,1 Z " fill="#FFFFFF" opacity="0.5882353" transform="translate(9,48)"/>
<path d="M0,0 L1,0 L1,1 L0,1 Z " fill="#FFFFFF" opacity="0.3529412" transform="translate(55,47)"/>
<path d="M0,0 L1,0 L1,1 L0,1 Z " fill="#BCD3CE" opacity="0.8156863" transform="translate(50,47)"/>
<path d="M0,0 L1,0 L1,1 L0,1 Z " fill="#287163" opacity="0.9882353" transform="translate(49,47)"/>
<path d="M0,0 L1,0 L1,1 L0,1 Z " fill="#469D86" opacity="0.7529412" transform="translate(44,47)"/>
<path d="M0,0 L1,0 L1,1 L0,1 Z " fill="#74E8BF" opacity="0.79607844" transform="translate(41,47)"/>
<path d="M0,0 L1,0 L1,1 L0,1 Z " fill="#5DD5AB" opacity="0.85490197" transform="translate(40,47)"/>
<path d="M0,0 L1,0 L1,1 L0,1 Z " fill="#75E9C0" opacity="0.8117647" transform="translate(22,47)"/>
<path d="M0,0 L1,0 L1,1 L0,1 Z " fill="#449982" opacity="0.7529412" transform="translate(19,47)"/>
<path d="M0,0 L1,0 L1,1 L0,1 Z " fill="#287163" opacity="0.9647059" transform="translate(14,47)"/>
<path d="M0,0 L1,0 L1,1 L0,1 Z " fill="#CBDDD9" opacity="0.84313726" transform="translate(13,47)"/>
<path d="M0,0 L1,0 L1,1 L0,1 Z " fill="#FFFFFF" opacity="0.32941177" transform="translate(8,47)"/>
<path d="M0,0 L1,0 L1,1 L0,1 Z " fill="#FFFFFF" opacity="0.06666667" transform="translate(56,46)"/>
<path d="M0,0 L1,0 L1,1 L0,1 Z " fill="#FFFFFF" opacity="0.91764706" transform="translate(55,46)"/>
<path d="M0,0 L1,0 L1,1 L0,1 Z " fill="#DEEAE8" opacity="0.8862745" transform="translate(51,46)"/>
<path d="M0,0 L1,0 L1,1 L0,1 Z " fill="#297264" opacity="0.93333334" transform="translate(50,46)"/>
<path d="M0,0 L1,0 L1,1 L0,1 Z " fill="#287263" opacity="0.96862745" transform="translate(46,46)"/>
<path d="M0,0 L1,0 L1,1 L0,1 Z " fill="#81F2C9" opacity="0.9843137" transform="translate(43,46)"/>
<path d="M0,0 L1,0 L1,1 L0,1 Z " fill="#64DBB2" opacity="0.7607843" transform="translate(42,46)"/>
<path d="M0,0 L1,0 L1,1 L0,1 Z " fill="#67DCB3" opacity="0.75686276" transform="translate(21,46)"/>
<path d="M0,0 L1,0 L1,1 L0,1 Z " fill="#82F3CA" opacity="0.99607843" transform="translate(20,46)"/>
<path d="M0,0 L1,0 L1,1 L0,1 Z " fill="#297263" opacity="0.9764706" transform="translate(17,46)"/>
<path d="M0,0 L1,0 L1,1 L0,1 Z " fill="#297265" opacity="0.9098039" transform="translate(13,46)"/>
<path d="M0,0 L1,0 L1,1 L0,1 Z " fill="#E6EFED" opacity="0.90588236" transform="translate(12,46)"/>
<path d="M0,0 L1,0 L1,1 L0,1 Z " fill="#FFFFFF" opacity="0.90588236" transform="translate(8,46)"/>
<path d="M0,0 L1,0 L1,1 L0,1 Z " fill="#FFFFFF" opacity="0.05882353" transform="translate(7,46)"/>
<path d="M0,0 L1,0 L1,1 L0,1 Z " fill="#FFFFFF" opacity="0.58431375" transform="translate(56,45)"/>
<path d="M0,0 L1,0 L1,1 L0,1 Z " fill="#F5F9F8" opacity="0.9647059" transform="translate(52,45)"/>
<path d="M0,0 L1,0 L1,1 L0,1 Z " fill="#2F7668" opacity="0.8627451" transform="translate(51,45)"/>
<path d="M0,0 L1,0 L1,1 L0,1 Z " fill="#60D7AC" opacity="0.8156863" transform="translate(43,45)"/>
<path d="M0,0 L1,0 L1,1 L0,1 Z " fill="#60D7AE" opacity="0.7921569" transform="translate(20,45)"/>
<path d="M0,0 L1,0 L1,1 L0,1 Z " fill="#80F2C9" opacity="0.9529412" transform="translate(19,45)"/>
<path d="M0,0 L1,0 L1,1 L0,1 Z " fill="#32786B" opacity="0.84313726" transform="translate(12,45)"/>
<path d="M0,0 L1,0 L1,1 L0,1 Z " fill="#F8FBFA" opacity="0.9764706" transform="translate(11,45)"/>
<path d="M0,0 L1,0 L1,1 L0,1 Z " fill="#FFFFFF" opacity="0.57254905" transform="translate(7,45)"/>
<path d="M0,0 L1,0 L1,1 L0,1 Z " fill="#FFFFFF" opacity="0.1254902" transform="translate(57,44)"/>
<path d="M0,0 L1,0 L1,1 L0,1 Z " fill="#FFFFFF" opacity="0.9882353" transform="translate(56,44)"/>
<path d="M0,0 L1,0 L1,1 L0,1 Z " fill="#76A59D" opacity="0.7529412" transform="translate(52,44)"/>
<path d="M0,0 L1,0 L1,1 L0,1 Z " fill="#469D86" opacity="0.7529412" transform="translate(47,44)"/>
<path d="M0,0 L1,0 L1,1 L0,1 Z " fill="#5DD4AA" opacity="0.88235295" transform="translate(44,44)"/>
<path d="M0,0 L1,0 L1,1 L0,1 Z " fill="#5ED4AA" opacity="0.85882354" transform="translate(19,44)"/>
<path d="M0,0 L1,0 L1,1 L0,1 Z " fill="#7FF0C8" opacity="0.94509804" transform="translate(18,44)"/>
<path d="M0,0 L1,0 L1,1 L0,1 Z " fill="#459A84" opacity="0.7529412" transform="translate(16,44)"/>
<path d="M0,0 L1,0 L1,1 L0,1 Z " fill="#7FABA3" opacity="0.75686276" transform="translate(11,44)"/>
<path d="M0,0 L1,0 L1,1 L0,1 Z " fill="#FFFFFF" opacity="0.11764706" transform="translate(6,44)"/>
<path d="M0,0 L1,0 L1,1 L0,1 Z " fill="#FFFFFF" opacity="0.5882353" transform="translate(57,43)"/>
<path d="M0,0 L1,0 L1,1 L0,1 Z " fill="#EDF4F3" opacity="0.93333334" transform="translate(53,43)"/>
<path d="M0,0 L1,0 L1,1 L0,1 Z " fill="#287163" opacity="0.94509804" transform="translate(52,43)"/>
<path d="M0,0 L1,0 L1,1 L0,1 Z " fill="#368472" opacity="0.78039217" transform="translate(48,43)"/>
<path d="M0,0 L1,0 L1,1 L0,1 Z " fill="#81F2C9" opacity="0.9843137" transform="translate(46,43)"/>
<path d="M0,0 L1,0 L1,1 L0,1 Z " fill="#60D7AC" opacity="0.8156863" transform="translate(45,43)"/>
<path d="M0,0 L1,0 L1,1 L0,1 Z " fill="#5ED6AD" opacity="0.8039216" transform="translate(18,43)"/>
<path d="M0,0 L1,0 L1,1 L0,1 Z " fill="#81F2CA" transform="translate(16,43)"/>
<path d="M0,0 L1,0 L1,1 L0,1 Z " fill="#348472" opacity="0.78039217" transform="translate(15,43)"/>
<path d="M0,0 L1,0 L1,1 L0,1 Z " fill="#297264" opacity="0.9372549" transform="translate(11,43)"/>
<path d="M0,0 L1,0 L1,1 L0,1 Z " fill="#F1F6F5" opacity="0.94509804" transform="translate(10,43)"/>
<path d="M0,0 L1,0 L1,1 L0,1 Z " fill="#FFFFFF" opacity="0.5803922" transform="translate(6,43)"/>
<path d="M0,0 L1,0 L1,1 L0,1 Z " fill="#FFFFFF" opacity="0.972549" transform="translate(57,42)"/>
<path d="M0,0 L1,0 L1,1 L0,1 Z " fill="#60968C" opacity="0.7529412" transform="translate(53,42)"/>
<path d="M0,0 L1,0 L1,1 L0,1 Z " fill="#64DBB2" opacity="0.7607843" transform="translate(46,42)"/>
<path d="M0,0 L1,0 L1,1 L0,1 Z " fill="#5CD3A9" transform="translate(34,42)"/>
<path d="M0,0 L1,0 L1,1 L0,1 Z " fill="#50B793" transform="translate(33,42)"/>
<path d="M0,0 L1,0 L1,1 L0,1 Z " fill="#459A7D" transform="translate(32,42)"/>
<path d="M0,0 L1,0 L1,1 L0,1 Z " fill="#50B793" transform="translate(30,42)"/>
<path d="M0,0 L1,0 L1,1 L0,1 Z " fill="#5CD3A9" transform="translate(29,42)"/>
<path d="M0,0 L1,0 L1,1 L0,1 Z " fill="#64DCB3" opacity="0.75686276" transform="translate(17,42)"/>
<path d="M0,0 L1,0 L1,1 L0,1 Z " fill="#7BE9C3" opacity="0.9411765" transform="translate(15,42)"/>
<path d="M0,0 L1,0 L1,1 L0,1 Z " fill="#669A90" opacity="0.7529412" transform="translate(10,42)"/>
<path d="M0,0 L1,0 L1,1 L0,1 Z " fill="#FFFFFF" opacity="0.96862745" transform="translate(6,42)"/>
<path d="M0,0 L1,0 L1,1 L0,1 Z " fill="#FFFFFF" opacity="0.38431373" transform="translate(58,41)"/>
<path d="M0,0 L1,0 L1,1 L0,1 Z " fill="#E3EDEB" opacity="0.9019608" transform="translate(54,41)"/>
<path d="M0,0 L1,0 L1,1 L0,1 Z " fill="#297263" opacity="0.9764706" transform="translate(53,41)"/>
<path d="M0,0 L1,0 L1,1 L0,1 Z " fill="#4BA48C" opacity="0.75686276" transform="translate(49,41)"/>
<path d="M0,0 L1,0 L1,1 L0,1 Z " fill="#83F3CB" transform="translate(48,41)"/>
<path d="M0,0 L1,0 L1,1 L0,1 Z " fill="#74E8BF" opacity="0.79607844" transform="translate(47,41)"/>
<path d="M0,0 L1,0 L1,1 L0,1 Z " fill="#58C7A0" transform="translate(35,41)"/>
<path d="M0,0 L1,0 L1,1 L0,1 Z " fill="#357460" transform="translate(34,41)"/>
<path d="M0,0 L1,0 L1,1 L0,1 Z " fill="#34705E" transform="translate(29,41)"/>
<path d="M0,0 L1,0 L1,1 L0,1 Z " fill="#56C69F" transform="translate(28,41)"/>
<path d="M0,0 L1,0 L1,1 L0,1 Z " fill="#75E9C1" opacity="0.8039216" transform="translate(16,41)"/>
<path d="M0,0 L1,0 L1,1 L0,1 Z " fill="#4BA48C" opacity="0.75686276" transform="translate(14,41)"/>
<path d="M0,0 L1,0 L1,1 L0,1 Z " fill="#287164" opacity="0.972549" transform="translate(10,41)"/>
<path d="M0,0 L1,0 L1,1 L0,1 Z " fill="#E5EEED" opacity="0.90588236" transform="translate(9,41)"/>
<path d="M0,0 L1,0 L1,1 L0,1 Z " fill="#FFFFFF" opacity="0.38431373" transform="translate(5,41)"/>
<path d="M0,0 L1,0 L1,1 L0,1 Z " fill="#FFFFFF" opacity="0.7372549" transform="translate(58,40)"/>
<path d="M0,0 L1,0 L1,1 L0,1 Z " fill="#7CA9A1" opacity="0.7529412" transform="translate(54,40)"/>
<path d="M0,0 L1,0 L1,1 L0,1 Z " fill="#5DD5AB" opacity="0.85490197" transform="translate(47,40)"/>
<path d="M0,0 L1,0 L1,1 L0,1 Z " fill="#306756" transform="translate(35,40)"/>
<path d="M0,0 L1,0 L1,1 L0,1 Z " fill="#285247" transform="translate(33,40)"/>
<path d="M0,0 L1,0 L1,1 L0,1 Z " fill="#275146" transform="translate(30,40)"/>
<path d="M0,0 L1,0 L1,1 L0,1 Z " fill="#306857" transform="translate(28,40)"/>
<path d="M0,0 L1,0 L1,1 L0,1 Z " fill="#5DD6AB" opacity="0.84705883" transform="translate(16,40)"/>
<path d="M0,0 L1,0 L1,1 L0,1 Z " fill="#82F3CA" transform="translate(15,40)"/>
<path d="M0,0 L1,0 L1,1 L0,1 Z " fill="#7FABA3" opacity="0.75686276" transform="translate(9,40)"/>
<path d="M0,0 L1,0 L1,1 L0,1 Z " fill="#FFFFFF" opacity="0.7372549" transform="translate(5,40)"/>
<path d="M0,0 L1,0 L1,1 L0,1 Z " fill="#FFFFFF" opacity="0.98039216" transform="translate(58,39)"/>
<path d="M0,0 L1,0 L1,1 L0,1 Z " fill="#387C6E" opacity="0.8156863" transform="translate(54,39)"/>
<path d="M0,0 L1,0 L1,1 L0,1 Z " fill="#4FA990" opacity="0.75686276" transform="translate(50,39)"/>
<path d="M0,0 L1,0 L1,1 L0,1 Z " fill="#83F3CB" transform="translate(49,39)"/>
<path d="M0,0 L1,0 L1,1 L0,1 Z " fill="#70E4BC" opacity="0.76862746" transform="translate(48,39)"/>
<path d="M0,0 L1,0 L1,1 L0,1 Z " fill="#326C5A" transform="translate(34,39)"/>
<path d="M0,0 L1,0 L1,1 L0,1 Z " fill="#57C7A0" transform="translate(33,39)"/>
<path d="M0,0 L1,0 L1,1 L0,1 Z " fill="#57C69F" transform="translate(30,39)"/>
<path d="M0,0 L1,0 L1,1 L0,1 Z " fill="#35735F" transform="translate(28,39)"/>
<path d="M0,0 L1,0 L1,1 L0,1 Z " fill="#71E6BD" opacity="0.77254903" transform="translate(15,39)"/>
<path d="M0,0 L1,0 L1,1 L0,1 Z " fill="#83F3CB" transform="translate(14,39)"/>
<path d="M0,0 L1,0 L1,1 L0,1 Z " fill="#4FA990" opacity="0.75686276" transform="translate(13,39)"/>
<path d="M0,0 L1,0 L1,1 L0,1 Z " fill="#387C70" opacity="0.8156863" transform="translate(9,39)"/>
<path d="M0,0 L1,0 L1,1 L0,1 Z " fill="#FFFFFF" opacity="0.98039216" transform="translate(5,39)"/>
<path d="M0,0 L1,0 L1,1 L0,1 Z " fill="#FFFFFF" opacity="0.25882354" transform="translate(59,38)"/>
<path d="M0,0 L1,0 L1,1 L0,1 Z " fill="#F0F6F5" opacity="0.94509804" transform="translate(55,38)"/>
<path d="M0,0 L1,0 L1,1 L0,1 Z " fill="#287163" opacity="0.9882353" transform="translate(54,38)"/>
<path d="M0,0 L1,0 L1,1 L0,1 Z " fill="#76E1BE" opacity="0.8980392" transform="translate(50,38)"/>
<path d="M0,0 L1,0 L1,1 L0,1 Z " fill="#5FD6AC" opacity="0.84313726" transform="translate(48,38)"/>
<path d="M0,0 L1,0 L1,1 L0,1 Z " fill="#5ED6AC" opacity="0.8392157" transform="translate(15,38)"/>
<path d="M0,0 L1,0 L1,1 L0,1 Z " fill="#75E1BD" opacity="0.9019608" transform="translate(13,38)"/>
<path d="M0,0 L1,0 L1,1 L0,1 Z " fill="#287163" opacity="0.9882353" transform="translate(9,38)"/>
<path d="M0,0 L1,0 L1,1 L0,1 Z " fill="#F0F6F5" opacity="0.94509804" transform="translate(8,38)"/>
<path d="M0,0 L1,0 L1,1 L0,1 Z " fill="#FFFFFF" opacity="0.2627451" transform="translate(4,38)"/>
<path d="M0,0 L1,0 L1,1 L0,1 Z " fill="#FFFFFF" opacity="0.49019608" transform="translate(59,37)"/>
<path d="M0,0 L1,0 L1,1 L0,1 Z " fill="#A0C0BA" opacity="0.7764706" transform="translate(55,37)"/>
<path d="M0,0 L1,0 L1,1 L0,1 Z " fill="#7EF1C7" opacity="0.90588236" transform="translate(49,37)"/>
<path d="M0,0 L1,0 L1,1 L0,1 Z " fill="#53B092" transform="translate(42,37)"/>
<path d="M0,0 L1,0 L1,1 L0,1 Z " fill="#40635F" transform="translate(41,37)"/>
<path d="M0,0 L1,0 L1,1 L0,1 Z " fill="#39444A" transform="translate(40,37)"/>
<path d="M0,0 L1,0 L1,1 L0,1 Z " fill="#40625E" transform="translate(38,37)"/>
<path d="M0,0 L1,0 L1,1 L0,1 Z " fill="#52AA8F" transform="translate(37,37)"/>
<path d="M0,0 L1,0 L1,1 L0,1 Z " fill="#53B092" transform="translate(26,37)"/>
<path d="M0,0 L1,0 L1,1 L0,1 Z " fill="#40635F" transform="translate(25,37)"/>
<path d="M0,0 L1,0 L1,1 L0,1 Z " fill="#39444A" transform="translate(24,37)"/>
<path d="M0,0 L1,0 L1,1 L0,1 Z " fill="#40625E" transform="translate(22,37)"/>
<path d="M0,0 L1,0 L1,1 L0,1 Z " fill="#52AA8F" transform="translate(21,37)"/>
<path d="M0,0 L1,0 L1,1 L0,1 Z " fill="#7EF0C6" opacity="0.9137255" transform="translate(14,37)"/>
<path d="M0,0 L1,0 L1,1 L0,1 Z " fill="#9DBFB8" opacity="0.7764706" transform="translate(8,37)"/>
<path d="M0,0 L1,0 L1,1 L0,1 Z " fill="#FFFFFF" opacity="0.49019608" transform="translate(4,37)"/>
<path d="M0,0 L1,0 L1,1 L0,1 Z " fill="#5B9287" opacity="0.7607843" transform="translate(55,36)"/>
<path d="M0,0 L1,0 L1,1 L0,1 Z " fill="#429982" opacity="0.7529412" transform="translate(51,36)"/>
<path d="M0,0 L1,0 L1,1 L0,1 Z " fill="#6EE4BA" opacity="0.7607843" transform="translate(49,36)"/>
<path d="M0,0 L1,0 L1,1 L0,1 Z " fill="#4B8F7C" transform="translate(43,36)"/>
<path d="M0,0 L1,0 L1,1 L0,1 Z " fill="#488475" transform="translate(36,36)"/>
<path d="M0,0 L1,0 L1,1 L0,1 Z " fill="#4B8F7C" transform="translate(27,36)"/>
<path d="M0,0 L1,0 L1,1 L0,1 Z " fill="#498777" transform="translate(20,36)"/>
<path d="M0,0 L1,0 L1,1 L0,1 Z " fill="#6EE4B9" opacity="0.7647059" transform="translate(14,36)"/>
<path d="M0,0 L1,0 L1,1 L0,1 Z " fill="#459A82" opacity="0.7529412" transform="translate(12,36)"/>
<path d="M0,0 L1,0 L1,1 L0,1 Z " fill="#599286" opacity="0.7607843" transform="translate(8,36)"/>
<path d="M0,0 L1,0 L1,1 L0,1 Z " fill="#FFFFFF" opacity="0.78039217" transform="translate(59,35)"/>
<path d="M0,0 L1,0 L1,1 L0,1 Z " fill="#63D8AE" opacity="0.78039217" transform="translate(49,35)"/>
<path d="M0,0 L1,0 L1,1 L0,1 Z " fill="#53B092" transform="translate(44,35)"/>
<path d="M0,0 L1,0 L1,1 L0,1 Z " fill="#50A289" transform="translate(35,35)"/>
<path d="M0,0 L1,0 L1,1 L0,1 Z " fill="#53B092" transform="translate(28,35)"/>
<path d="M0,0 L1,0 L1,1 L0,1 Z " fill="#53AC90" transform="translate(19,35)"/>
<path d="M0,0 L1,0 L1,1 L0,1 Z " fill="#63D8AE" opacity="0.78039217" transform="translate(14,35)"/>
<path d="M0,0 L1,0 L1,1 L0,1 Z " fill="#5EBEA1" opacity="0.78431374" transform="translate(12,35)"/>
<path d="M0,0 L1,0 L1,1 L0,1 Z " fill="#FFFFFF" opacity="0.78431374" transform="translate(4,35)"/>
<path d="M0,0 L1,0 L1,1 L0,1 Z " fill="#FFFFFF" opacity="0.8901961" transform="translate(59,34)"/>
<path d="M0,0 L1,0 L1,1 L0,1 Z " fill="#357B6D" opacity="0.8235294" transform="translate(55,34)"/>
<path d="M0,0 L1,0 L1,1 L0,1 Z " fill="#67CEAD" opacity="0.8235294" transform="translate(51,34)"/>
<path d="M0,0 L1,0 L1,1 L0,1 Z " fill="#40635F" transform="translate(44,34)"/>
<path d="M0,0 L1,0 L1,1 L0,1 Z " fill="#3E5C5B" transform="translate(35,34)"/>
<path d="M0,0 L1,0 L1,1 L0,1 Z " fill="#40635F" transform="translate(28,34)"/>
<path d="M0,0 L1,0 L1,1 L0,1 Z " fill="#40615D" transform="translate(19,34)"/>
<path d="M0,0 L1,0 L1,1 L0,1 Z " fill="#357A6D" opacity="0.827451" transform="translate(8,34)"/>
<path d="M0,0 L1,0 L1,1 L0,1 Z " fill="#FFFFFF" opacity="0.8901961" transform="translate(4,34)"/>
<path d="M0,0 L1,0 L1,1 L0,1 Z " fill="#FFFFFF" opacity="0.93333334" transform="translate(59,33)"/>
<path d="M0,0 L1,0 L1,1 L0,1 Z " fill="#2D7567" opacity="0.88235295" transform="translate(55,33)"/>
<path d="M0,0 L1,0 L1,1 L0,1 Z " fill="#74DDBA" opacity="0.88235295" transform="translate(51,33)"/>
<path d="M0,0 L1,0 L1,1 L0,1 Z " fill="#5DD4AA" opacity="0.88235295" transform="translate(49,33)"/>
<path d="M0,0 L1,0 L1,1 L0,1 Z " fill="#455C5E" transform="translate(43,33)"/>
<path d="M0,0 L1,0 L1,1 L0,1 Z " fill="#465E5E" transform="translate(40,33)"/>
<path d="M0,0 L1,0 L1,1 L0,1 Z " fill="#373F47" transform="translate(35,33)"/>
<path d="M0,0 L1,0 L1,1 L0,1 Z " fill="#455C5E" transform="translate(27,33)"/>
<path d="M0,0 L1,0 L1,1 L0,1 Z " fill="#465E5E" transform="translate(24,33)"/>
<path d="M0,0 L1,0 L1,1 L0,1 Z " fill="#38434A" transform="translate(19,33)"/>
<path d="M0,0 L1,0 L1,1 L0,1 Z " fill="#5ED4AB" opacity="0.8862745" transform="translate(14,33)"/>
<path d="M0,0 L1,0 L1,1 L0,1 Z " fill="#74E0BA" opacity="0.8862745" transform="translate(12,33)"/>
<path d="M0,0 L1,0 L1,1 L0,1 Z " fill="#2C7467" opacity="0.8862745" transform="translate(8,33)"/>
<path d="M0,0 L1,0 L1,1 L0,1 Z " fill="#FFFFFF" opacity="0.9372549" transform="translate(4,33)"/>
<path d="M0,0 L1,0 L1,1 L0,1 Z " fill="#FFFFFF" opacity="0.98039216" transform="translate(59,32)"/>
<path d="M0,0 L1,0 L1,1 L0,1 Z " fill="#287263" opacity="0.95686275" transform="translate(55,32)"/>
<path d="M0,0 L1,0 L1,1 L0,1 Z " fill="#38434A" transform="translate(44,32)"/>
<path d="M0,0 L1,0 L1,1 L0,1 Z " fill="#38434A" transform="translate(28,32)"/>
<path d="M0,0 L1,0 L1,1 L0,1 Z " fill="#287164" opacity="0.9607843" transform="translate(8,32)"/>
<path d="M0,0 L1,0 L1,1 L0,1 Z " fill="#FFFFFF" opacity="0.9843137" transform="translate(4,32)"/>
<path d="M0,0 L1,0 L1,1 L0,1 Z " fill="#7DEDC6" opacity="0.9607843" transform="translate(51,31)"/>
<path d="M0,0 L1,0 L1,1 L0,1 Z " fill="#5CD4AA" opacity="0.9607843" transform="translate(49,31)"/>
<path d="M0,0 L1,0 L1,1 L0,1 Z " fill="#3F625F" transform="translate(44,31)"/>
<path d="M0,0 L1,0 L1,1 L0,1 Z " fill="#5C676C" transform="translate(43,31)"/>
<path d="M0,0 L1,0 L1,1 L0,1 Z " fill="#5D5D67" transform="translate(41,31)"/>
<path d="M0,0 L1,0 L1,1 L0,1 Z " fill="#5C676C" transform="translate(40,31)"/>
<path d="M0,0 L1,0 L1,1 L0,1 Z " fill="#3E5B5A" transform="translate(35,31)"/>
<path d="M0,0 L1,0 L1,1 L0,1 Z " fill="#3F625F" transform="translate(28,31)"/>
<path d="M0,0 L1,0 L1,1 L0,1 Z " fill="#5C676C" transform="translate(27,31)"/>
<path d="M0,0 L1,0 L1,1 L0,1 Z " fill="#5D5D67" transform="translate(25,31)"/>
<path d="M0,0 L1,0 L1,1 L0,1 Z " fill="#5C676C" transform="translate(24,31)"/>
<path d="M0,0 L1,0 L1,1 L0,1 Z " fill="#3F5F5C" transform="translate(19,31)"/>
<path d="M0,0 L1,0 L1,1 L0,1 Z " fill="#FFFFFF" opacity="0.93333334" transform="translate(59,30)"/>
<path d="M0,0 L1,0 L1,1 L0,1 Z " fill="#2D7567" opacity="0.88235295" transform="translate(55,30)"/>
<path d="M0,0 L1,0 L1,1 L0,1 Z " fill="#52AA8E" transform="translate(44,30)"/>
<path d="M0,0 L1,0 L1,1 L0,1 Z " fill="#5B666C" transform="translate(42,30)"/>
<path d="M0,0 L1,0 L1,1 L0,1 Z " fill="#496262" transform="translate(40,30)"/>
<path d="M0,0 L1,0 L1,1 L0,1 Z " fill="#4F9D86" transform="translate(35,30)"/>
<path d="M0,0 L1,0 L1,1 L0,1 Z " fill="#52AA8E" transform="translate(28,30)"/>
<path d="M0,0 L1,0 L1,1 L0,1 Z " fill="#5B666C" transform="translate(26,30)"/>
<path d="M0,0 L1,0 L1,1 L0,1 Z " fill="#496262" transform="translate(24,30)"/>
<path d="M0,0 L1,0 L1,1 L0,1 Z " fill="#50A48B" transform="translate(19,30)"/>
<path d="M0,0 L1,0 L1,1 L0,1 Z " fill="#2C7467" opacity="0.8862745" transform="translate(8,30)"/>
<path d="M0,0 L1,0 L1,1 L0,1 Z " fill="#FFFFFF" opacity="0.94509804" transform="translate(4,30)"/>
<path d="M0,0 L1,0 L1,1 L0,1 Z " fill="#67CEAD" opacity="0.8235294" transform="translate(51,29)"/>
<path d="M0,0 L1,0 L1,1 L0,1 Z " fill="#5FD6AD" opacity="0.8235294" transform="translate(49,29)"/>
<path d="M0,0 L1,0 L1,1 L0,1 Z " fill="#488173" transform="translate(43,29)"/>
<path d="M0,0 L1,0 L1,1 L0,1 Z " fill="#44746B" transform="translate(36,29)"/>
<path d="M0,0 L1,0 L1,1 L0,1 Z " fill="#5CD3A9" transform="translate(35,29)"/>
<path d="M0,0 L1,0 L1,1 L0,1 Z " fill="#488173" transform="translate(27,29)"/>
<path d="M0,0 L1,0 L1,1 L0,1 Z " fill="#45796E" transform="translate(20,29)"/>
<path d="M0,0 L1,0 L1,1 L0,1 Z " fill="#5ED5AC" opacity="0.827451" transform="translate(14,29)"/>
<path d="M0,0 L1,0 L1,1 L0,1 Z " fill="#69CFAE" opacity="0.827451" transform="translate(12,29)"/>
<path d="M0,0 L1,0 L1,1 L0,1 Z " fill="#FFFFFF" opacity="0.78039217" transform="translate(59,28)"/>
<path d="M0,0 L1,0 L1,1 L0,1 Z " fill="#448477" opacity="0.78039217" transform="translate(55,28)"/>
<path d="M0,0 L1,0 L1,1 L0,1 Z " fill="#52A98D" transform="translate(42,28)"/>
<path d="M0,0 L1,0 L1,1 L0,1 Z " fill="#3F5F5D" transform="translate(41,28)"/>
<path d="M0,0 L1,0 L1,1 L0,1 Z " fill="#38434A" transform="translate(40,28)"/>
<path d="M0,0 L1,0 L1,1 L0,1 Z " fill="#3E5D5B" transform="translate(38,28)"/>
<path d="M0,0 L1,0 L1,1 L0,1 Z " fill="#50A289" transform="translate(37,28)"/>
<path d="M0,0 L1,0 L1,1 L0,1 Z " fill="#52A98D" transform="translate(26,28)"/>
<path d="M0,0 L1,0 L1,1 L0,1 Z " fill="#3F5F5D" transform="translate(25,28)"/>
<path d="M0,0 L1,0 L1,1 L0,1 Z " fill="#38434A" transform="translate(24,28)"/>
<path d="M0,0 L1,0 L1,1 L0,1 Z " fill="#3E5D5B" transform="translate(22,28)"/>
<path d="M0,0 L1,0 L1,1 L0,1 Z " fill="#50A289" transform="translate(21,28)"/>
<path d="M0,0 L1,0 L1,1 L0,1 Z " fill="#438377" opacity="0.78431374" transform="translate(8,28)"/>
<path d="M0,0 L1,0 L1,1 L0,1 Z " fill="#FFFFFF" opacity="0.7921569" transform="translate(4,28)"/>
<path d="M0,0 L1,0 L1,1 L0,1 Z " fill="#429882" opacity="0.7529412" transform="translate(51,27)"/>
<path d="M0,0 L1,0 L1,1 L0,1 Z " fill="#6FE4BA" opacity="0.7647059" transform="translate(49,27)"/>
<path d="M0,0 L1,0 L1,1 L0,1 Z " fill="#6FE4BA" opacity="0.7647059" transform="translate(14,27)"/>
<path d="M0,0 L1,0 L1,1 L0,1 Z " fill="#449984" opacity="0.7529412" transform="translate(12,27)"/>
<path d="M0,0 L1,0 L1,1 L0,1 Z " fill="#FFFFFF" opacity="0.4862745" transform="translate(59,26)"/>
<path d="M0,0 L1,0 L1,1 L0,1 Z " fill="#A0C0BA" opacity="0.7764706" transform="translate(55,26)"/>
<path d="M0,0 L1,0 L1,1 L0,1 Z " fill="#2B7668" opacity="0.85882354" transform="translate(51,26)"/>
<path d="M0,0 L1,0 L1,1 L0,1 Z " fill="#7EF0C6" opacity="0.9137255" transform="translate(49,26)"/>
<path d="M0,0 L1,0 L1,1 L0,1 Z " fill="#7EF0C8" opacity="0.91764706" transform="translate(14,26)"/>
<path d="M0,0 L1,0 L1,1 L0,1 Z " fill="#2B7667" opacity="0.85490197" transform="translate(12,26)"/>
<path d="M0,0 L1,0 L1,1 L0,1 Z " fill="#9EC0B9" opacity="0.77254903" transform="translate(8,26)"/>
<path d="M0,0 L1,0 L1,1 L0,1 Z " fill="#FFFFFF" opacity="0.49803922" transform="translate(4,26)"/>
<path d="M0,0 L1,0 L1,1 L0,1 Z " fill="#F1F6F5" opacity="0.94509804" transform="translate(55,25)"/>
<path d="M0,0 L1,0 L1,1 L0,1 Z " fill="#287163" opacity="0.9882353" transform="translate(54,25)"/>
<path d="M0,0 L1,0 L1,1 L0,1 Z " fill="#287163" opacity="0.9882353" transform="translate(9,25)"/>
<path d="M0,0 L1,0 L1,1 L0,1 Z " fill="#F0F6F5" opacity="0.94509804" transform="translate(8,25)"/>
<path d="M0,0 L1,0 L1,1 L0,1 Z " fill="#FFFFFF" opacity="0.039215688" transform="translate(59,24)"/>
<path d="M0,0 L1,0 L1,1 L0,1 Z " fill="#4EA88F" opacity="0.75686276" transform="translate(50,24)"/>
<path d="M0,0 L1,0 L1,1 L0,1 Z " fill="#71E6BC" opacity="0.7764706" transform="translate(48,24)"/>
<path d="M0,0 L1,0 L1,1 L0,1 Z " fill="#72E6BD" opacity="0.78039217" transform="translate(15,24)"/>
<path d="M0,0 L1,0 L1,1 L0,1 Z " fill="#4EA88F" opacity="0.75686276" transform="translate(13,24)"/>
<path d="M0,0 L1,0 L1,1 L0,1 Z " fill="#FFFFFF" opacity="0.050980393" transform="translate(4,24)"/>
<path d="M0,0 L1,0 L1,1 L0,1 Z " fill="#FFFFFF" opacity="0.7372549" transform="translate(58,23)"/>
<path d="M0,0 L1,0 L1,1 L0,1 Z " fill="#7FABA3" opacity="0.75686276" transform="translate(54,23)"/>
<path d="M0,0 L1,0 L1,1 L0,1 Z " fill="#297364" opacity="0.90588236" transform="translate(50,23)"/>
<path d="M0,0 L1,0 L1,1 L0,1 Z " fill="#82F3CA" transform="translate(48,23)"/>
<path d="M0,0 L1,0 L1,1 L0,1 Z " fill="#5ED5AB" opacity="0.84313726" transform="translate(47,23)"/>
<path d="M0,0 L1,0 L1,1 L0,1 Z " fill="#5ED5AB" opacity="0.8352941" transform="translate(16,23)"/>
<path d="M0,0 L1,0 L1,1 L0,1 Z " fill="#7EEDC6" opacity="0.96862745" transform="translate(14,23)"/>
<path d="M0,0 L1,0 L1,1 L0,1 Z " fill="#297364" opacity="0.90588236" transform="translate(13,23)"/>
<path d="M0,0 L1,0 L1,1 L0,1 Z " fill="#7FABA3" opacity="0.75686276" transform="translate(9,23)"/>
<path d="M0,0 L1,0 L1,1 L0,1 Z " fill="#FFFFFF" opacity="0.75686276" transform="translate(5,23)"/>
<path d="M0,0 L1,0 L1,1 L0,1 Z " fill="#E6EFED" opacity="0.9098039" transform="translate(54,22)"/>
<path d="M0,0 L1,0 L1,1 L0,1 Z " fill="#49A289" opacity="0.7529412" transform="translate(49,22)"/>
<path d="M0,0 L1,0 L1,1 L0,1 Z " fill="#75E9C0" opacity="0.8117647" transform="translate(47,22)"/>
<path d="M0,0 L1,0 L1,1 L0,1 Z " fill="#76EBC1" opacity="0.81960785" transform="translate(16,22)"/>
<path d="M0,0 L1,0 L1,1 L0,1 Z " fill="#49A289" opacity="0.7529412" transform="translate(14,22)"/>
<path d="M0,0 L1,0 L1,1 L0,1 Z " fill="#E6EFED" opacity="0.9098039" transform="translate(9,22)"/>
<path d="M0,0 L1,0 L1,1 L0,1 Z " fill="#FFFFFF" opacity="0.0627451" transform="translate(58,21)"/>
<path d="M0,0 L1,0 L1,1 L0,1 Z " fill="#FFFFFF" opacity="0.96862745" transform="translate(57,21)"/>
<path d="M0,0 L1,0 L1,1 L0,1 Z " fill="#669C91" opacity="0.7529412" transform="translate(53,21)"/>
<path d="M0,0 L1,0 L1,1 L0,1 Z " fill="#287163" opacity="0.94509804" transform="translate(49,21)"/>
<path d="M0,0 L1,0 L1,1 L0,1 Z " fill="#7BE8C1" opacity="0.9372549" transform="translate(48,21)"/>
<path d="M0,0 L1,0 L1,1 L0,1 Z " fill="#67DCB3" opacity="0.75686276" transform="translate(46,21)"/>
<path d="M0,0 L1,0 L1,1 L0,1 Z " fill="#68DDB4" opacity="0.7529412" transform="translate(17,21)"/>
<path d="M0,0 L1,0 L1,1 L0,1 Z " fill="#7AE8C2" opacity="0.93333334" transform="translate(15,21)"/>
<path d="M0,0 L1,0 L1,1 L0,1 Z " fill="#287163" opacity="0.94509804" transform="translate(14,21)"/>
<path d="M0,0 L1,0 L1,1 L0,1 Z " fill="#689C92" opacity="0.7529412" transform="translate(10,21)"/>
<path d="M0,0 L1,0 L1,1 L0,1 Z " fill="#FFFFFF" opacity="0.972549" transform="translate(6,21)"/>
<path d="M0,0 L1,0 L1,1 L0,1 Z " fill="#FFFFFF" opacity="0.06666667" transform="translate(5,21)"/>
<path d="M0,0 L1,0 L1,1 L0,1 Z " fill="#F1F6F5" opacity="0.94509804" transform="translate(53,20)"/>
<path d="M0,0 L1,0 L1,1 L0,1 Z " fill="#348270" opacity="0.78431374" transform="translate(48,20)"/>
<path d="M0,0 L1,0 L1,1 L0,1 Z " fill="#82F3CA" opacity="0.99607843" transform="translate(46,20)"/>
<path d="M0,0 L1,0 L1,1 L0,1 Z " fill="#60D7AE" opacity="0.7921569" transform="translate(45,20)"/>
<path d="M0,0 L1,0 L1,1 L0,1 Z " fill="#61D8AE" opacity="0.78431374" transform="translate(18,20)"/>
<path d="M0,0 L1,0 L1,1 L0,1 Z " fill="#81F2CA" transform="translate(16,20)"/>
<path d="M0,0 L1,0 L1,1 L0,1 Z " fill="#328171" opacity="0.7882353" transform="translate(15,20)"/>
<path d="M0,0 L1,0 L1,1 L0,1 Z " fill="#F1F6F5" opacity="0.94509804" transform="translate(10,20)"/>
<path d="M0,0 L1,0 L1,1 L0,1 Z " fill="#FFFFFF" opacity="0.11764706" transform="translate(57,19)"/>
<path d="M0,0 L1,0 L1,1 L0,1 Z " fill="#FFFFFF" opacity="0.9843137" transform="translate(56,19)"/>
<path d="M0,0 L1,0 L1,1 L0,1 Z " fill="#7FABA3" opacity="0.75686276" transform="translate(52,19)"/>
<path d="M0,0 L1,0 L1,1 L0,1 Z " fill="#449982" opacity="0.7529412" transform="translate(47,19)"/>
<path d="M0,0 L1,0 L1,1 L0,1 Z " fill="#80F2C9" opacity="0.9529412" transform="translate(45,19)"/>
<path d="M0,0 L1,0 L1,1 L0,1 Z " fill="#5ED4AA" opacity="0.85882354" transform="translate(44,19)"/>
<path d="M0,0 L1,0 L1,1 L0,1 Z " fill="#5FD6AB" opacity="0.83137256" transform="translate(19,19)"/>
<path d="M0,0 L1,0 L1,1 L0,1 Z " fill="#429681" opacity="0.7529412" transform="translate(16,19)"/>
<path d="M0,0 L1,0 L1,1 L0,1 Z " fill="#81ACA4" opacity="0.75686276" transform="translate(11,19)"/>
<path d="M0,0 L1,0 L1,1 L0,1 Z " fill="#FFFFFF" opacity="0.9882353" transform="translate(7,19)"/>
<path d="M0,0 L1,0 L1,1 L0,1 Z " fill="#FFFFFF" opacity="0.13333334" transform="translate(6,19)"/>
<path d="M0,0 L1,0 L1,1 L0,1 Z " fill="#F8FBFA" opacity="0.9764706" transform="translate(52,18)"/>
<path d="M0,0 L1,0 L1,1 L0,1 Z " fill="#33786B" opacity="0.8392157" transform="translate(51,18)"/>
<path d="M0,0 L1,0 L1,1 L0,1 Z " fill="#7FF0C8" opacity="0.94509804" transform="translate(44,18)"/>
<path d="M0,0 L1,0 L1,1 L0,1 Z " fill="#5ED6AD" opacity="0.8039216" transform="translate(43,18)"/>
<path d="M0,0 L1,0 L1,1 L0,1 Z " fill="#61D8AE" opacity="0.78431374" transform="translate(20,18)"/>
<path d="M0,0 L1,0 L1,1 L0,1 Z " fill="#34796C" opacity="0.8352941" transform="translate(12,18)"/>
<path d="M0,0 L1,0 L1,1 L0,1 Z " fill="#F9FBFB" opacity="0.98039216" transform="translate(11,18)"/>
<path d="M0,0 L1,0 L1,1 L0,1 Z " fill="#FFFFFF" opacity="0.05882353" transform="translate(56,17)"/>
<path d="M0,0 L1,0 L1,1 L0,1 Z " fill="#E6EFED" opacity="0.9098039" transform="translate(51,17)"/>
<path d="M0,0 L1,0 L1,1 L0,1 Z " fill="#297265" opacity="0.9098039" transform="translate(50,17)"/>
<path d="M0,0 L1,0 L1,1 L0,1 Z " fill="#297263" opacity="0.9764706" transform="translate(46,17)"/>
<path d="M0,0 L1,0 L1,1 L0,1 Z " fill="#64DCB3" opacity="0.75686276" transform="translate(42,17)"/>
<path d="M0,0 L1,0 L1,1 L0,1 Z " fill="#68DDB4" opacity="0.7529412" transform="translate(21,17)"/>
<path d="M0,0 L1,0 L1,1 L0,1 Z " fill="#287263" opacity="0.9843137" transform="translate(17,17)"/>
<path d="M0,0 L1,0 L1,1 L0,1 Z " fill="#2B7465" opacity="0.8980392" transform="translate(13,17)"/>
<path d="M0,0 L1,0 L1,1 L0,1 Z " fill="#EAF1EF" opacity="0.92156863" transform="translate(12,17)"/>
<path d="M0,0 L1,0 L1,1 L0,1 Z " fill="#FFFFFF" opacity="0.07058824" transform="translate(7,17)"/>
<path d="M0,0 L1,0 L1,1 L0,1 Z " fill="#FFFFFF" opacity="0.33333334" transform="translate(55,16)"/>
<path d="M0,0 L1,0 L1,1 L0,1 Z " fill="#CADDD9" opacity="0.8392157" transform="translate(50,16)"/>
<path d="M0,0 L1,0 L1,1 L0,1 Z " fill="#287263" opacity="0.96862745" transform="translate(49,16)"/>
<path d="M0,0 L1,0 L1,1 L0,1 Z " fill="#459A84" opacity="0.7529412" transform="translate(44,16)"/>
<path d="M0,0 L1,0 L1,1 L0,1 Z " fill="#81F2CA" transform="translate(43,16)"/>
<path d="M0,0 L1,0 L1,1 L0,1 Z " fill="#75E9C1" opacity="0.8039216" transform="translate(41,16)"/>
<path d="M0,0 L1,0 L1,1 L0,1 Z " fill="#5DD6AB" opacity="0.84705883" transform="translate(40,16)"/>
<path d="M0,0 L1,0 L1,1 L0,1 Z " fill="#5ED5AB" opacity="0.8352941" transform="translate(23,16)"/>
<path d="M0,0 L1,0 L1,1 L0,1 Z " fill="#76EBC1" opacity="0.81960785" transform="translate(22,16)"/>
<path d="M0,0 L1,0 L1,1 L0,1 Z " fill="#81F2CA" transform="translate(20,16)"/>
<path d="M0,0 L1,0 L1,1 L0,1 Z " fill="#429681" opacity="0.7529412" transform="translate(19,16)"/>
<path d="M0,0 L1,0 L1,1 L0,1 Z " fill="#287263" opacity="0.95686275" transform="translate(14,16)"/>
<path d="M0,0 L1,0 L1,1 L0,1 Z " fill="#D1E1DD" opacity="0.85490197" transform="translate(13,16)"/>
<path d="M0,0 L1,0 L1,1 L0,1 Z " fill="#FFFFFF" opacity="0.3529412" transform="translate(8,16)"/>
<path d="M0,0 L1,0 L1,1 L0,1 Z " fill="#FFFFFF" opacity="0.5921569" transform="translate(54,15)"/>
<path d="M0,0 L1,0 L1,1 L0,1 Z " fill="#A1C1BB" opacity="0.7764706" transform="translate(49,15)"/>
<path d="M0,0 L1,0 L1,1 L0,1 Z " fill="#348472" opacity="0.78039217" transform="translate(43,15)"/>
<path d="M0,0 L1,0 L1,1 L0,1 Z " fill="#7BE9C3" opacity="0.9411765" transform="translate(42,15)"/>
<path d="M0,0 L1,0 L1,1 L0,1 Z " fill="#82F3CA" transform="translate(40,15)"/>
<path d="M0,0 L1,0 L1,1 L0,1 Z " fill="#71E6BD" opacity="0.77254903" transform="translate(39,15)"/>
<path d="M0,0 L1,0 L1,1 L0,1 Z " fill="#5ED6AC" opacity="0.8392157" transform="translate(38,15)"/>
<path d="M0,0 L1,0 L1,1 L0,1 Z " fill="#72E6BD" opacity="0.78039217" transform="translate(24,15)"/>
<path d="M0,0 L1,0 L1,1 L0,1 Z " fill="#7AE8C2" opacity="0.93333334" transform="translate(21,15)"/>
<path d="M0,0 L1,0 L1,1 L0,1 Z " fill="#328171" opacity="0.7882353" transform="translate(20,15)"/>
<path d="M0,0 L1,0 L1,1 L0,1 Z " fill="#287163" opacity="0.99607843" transform="translate(15,15)"/>
<path d="M0,0 L1,0 L1,1 L0,1 Z " fill="#FFFFFF" opacity="0.6156863" transform="translate(9,15)"/>
<path d="M0,0 L1,0 L1,1 L0,1 Z " fill="#FFFFFF" opacity="0.03137255" transform="translate(54,14)"/>
<path d="M0,0 L1,0 L1,1 L0,1 Z " fill="#A3C3BD" opacity="0.78039217" transform="translate(48,14)"/>
<path d="M0,0 L1,0 L1,1 L0,1 Z " fill="#287163" opacity="0.9647059" transform="translate(47,14)"/>
<path d="M0,0 L1,0 L1,1 L0,1 Z " fill="#4BA48C" opacity="0.75686276" transform="translate(41,14)"/>
<path d="M0,0 L1,0 L1,1 L0,1 Z " fill="#83F3CB" transform="translate(39,14)"/>
<path d="M0,0 L1,0 L1,1 L0,1 Z " fill="#7EF0C6" opacity="0.9137255" transform="translate(37,14)"/>
<path d="M0,0 L1,0 L1,1 L0,1 Z " fill="#6EE4B9" opacity="0.7647059" transform="translate(36,14)"/>
<path d="M0,0 L1,0 L1,1 L0,1 Z " fill="#63D8AE" opacity="0.78039217" transform="translate(35,14)"/>
<path d="M0,0 L1,0 L1,1 L0,1 Z " fill="#5ED4AB" opacity="0.8862745" transform="translate(33,14)"/>
<path d="M0,0 L1,0 L1,1 L0,1 Z " fill="#5ED5AC" opacity="0.827451" transform="translate(29,14)"/>
<path d="M0,0 L1,0 L1,1 L0,1 Z " fill="#6FE4BA" opacity="0.7647059" transform="translate(27,14)"/>
<path d="M0,0 L1,0 L1,1 L0,1 Z " fill="#7EF0C8" opacity="0.91764706" transform="translate(26,14)"/>
<path d="M0,0 L1,0 L1,1 L0,1 Z " fill="#7EEDC6" opacity="0.96862745" transform="translate(23,14)"/>
<path d="M0,0 L1,0 L1,1 L0,1 Z " fill="#49A289" opacity="0.7529412" transform="translate(22,14)"/>
<path d="M0,0 L1,0 L1,1 L0,1 Z " fill="#287163" opacity="0.94509804" transform="translate(21,14)"/>
<path d="M0,0 L1,0 L1,1 L0,1 Z " fill="#287263" opacity="0.95686275" transform="translate(16,14)"/>
<path d="M0,0 L1,0 L1,1 L0,1 Z " fill="#FFFFFF" opacity="0.039215688" transform="translate(9,14)"/>
<path d="M0,0 L1,0 L1,1 L0,1 Z " fill="#FFFFFF" opacity="0.09019608" transform="translate(53,13)"/>
<path d="M0,0 L1,0 L1,1 L0,1 Z " fill="#FFFFFF" opacity="0.8627451" transform="translate(52,13)"/>
<path d="M0,0 L1,0 L1,1 L0,1 Z " fill="#CBDDD9" opacity="0.84313726" transform="translate(47,13)"/>
<path d="M0,0 L1,0 L1,1 L0,1 Z " fill="#297265" opacity="0.9098039" transform="translate(46,13)"/>
<path d="M0,0 L1,0 L1,1 L0,1 Z " fill="#4FA990" opacity="0.75686276" transform="translate(39,13)"/>
<path d="M0,0 L1,0 L1,1 L0,1 Z " fill="#75E1BD" opacity="0.9019608" transform="translate(38,13)"/>
<path d="M0,0 L1,0 L1,1 L0,1 Z " fill="#4EA88F" opacity="0.75686276" transform="translate(24,13)"/>
<path d="M0,0 L1,0 L1,1 L0,1 Z " fill="#297364" opacity="0.90588236" transform="translate(23,13)"/>
<path d="M0,0 L1,0 L1,1 L0,1 Z " fill="#2B7465" opacity="0.8980392" transform="translate(17,13)"/>
<path d="M0,0 L1,0 L1,1 L0,1 Z " fill="#D1E1DD" opacity="0.85490197" transform="translate(16,13)"/>
<path d="M0,0 L1,0 L1,1 L0,1 Z " fill="#FFFFFF" opacity="0.87058824" transform="translate(11,13)"/>
<path d="M0,0 L1,0 L1,1 L0,1 Z " fill="#FFFFFF" opacity="0.101960786" transform="translate(10,13)"/>
<path d="M0,0 L1,0 L1,1 L0,1 Z " fill="#FFFFFF" opacity="0.8980392" transform="translate(51,12)"/>
<path d="M0,0 L1,0 L1,1 L0,1 Z " fill="#E6EFED" opacity="0.90588236" transform="translate(46,12)"/>
<path d="M0,0 L1,0 L1,1 L0,1 Z " fill="#32786B" opacity="0.84313726" transform="translate(45,12)"/>
<path d="M0,0 L1,0 L1,1 L0,1 Z " fill="#459A82" opacity="0.7529412" transform="translate(36,12)"/>
<path d="M0,0 L1,0 L1,1 L0,1 Z " fill="#5EBEA1" opacity="0.78431374" transform="translate(35,12)"/>
<path d="M0,0 L1,0 L1,1 L0,1 Z " fill="#74E0BA" opacity="0.8862745" transform="translate(33,12)"/>
<path d="M0,0 L1,0 L1,1 L0,1 Z " fill="#69CFAE" opacity="0.827451" transform="translate(29,12)"/>
<path d="M0,0 L1,0 L1,1 L0,1 Z " fill="#449984" opacity="0.7529412" transform="translate(27,12)"/>
<path d="M0,0 L1,0 L1,1 L0,1 Z " fill="#2B7667" opacity="0.85490197" transform="translate(26,12)"/>
<path d="M0,0 L1,0 L1,1 L0,1 Z " fill="#34796C" opacity="0.8352941" transform="translate(18,12)"/>
<path d="M0,0 L1,0 L1,1 L0,1 Z " fill="#EAF1EF" opacity="0.92156863" transform="translate(17,12)"/>
<path d="M0,0 L1,0 L1,1 L0,1 Z " fill="#FFFFFF" opacity="0.90588236" transform="translate(12,12)"/>
<path d="M0,0 L1,0 L1,1 L0,1 Z " fill="#FFFFFF" opacity="0.85882354" transform="translate(50,11)"/>
<path d="M0,0 L1,0 L1,1 L0,1 Z " fill="#F8FBFA" opacity="0.9764706" transform="translate(45,11)"/>
<path d="M0,0 L1,0 L1,1 L0,1 Z " fill="#7FABA3" opacity="0.75686276" transform="translate(44,11)"/>
<path d="M0,0 L1,0 L1,1 L0,1 Z " fill="#297264" opacity="0.9372549" transform="translate(43,11)"/>
<path d="M0,0 L1,0 L1,1 L0,1 Z " fill="#81ACA4" opacity="0.75686276" transform="translate(19,11)"/>
<path d="M0,0 L1,0 L1,1 L0,1 Z " fill="#F9FBFB" opacity="0.98039216" transform="translate(18,11)"/>
<path d="M0,0 L1,0 L1,1 L0,1 Z " fill="#FFFFFF" opacity="0.87058824" transform="translate(13,11)"/>
<path d="M0,0 L1,0 L1,1 L0,1 Z " fill="#FFFFFF" opacity="0.08627451" transform="translate(50,10)"/>
<path d="M0,0 L1,0 L1,1 L0,1 Z " fill="#F1F6F5" opacity="0.94509804" transform="translate(43,10)"/>
<path d="M0,0 L1,0 L1,1 L0,1 Z " fill="#669A90" opacity="0.7529412" transform="translate(42,10)"/>
<path d="M0,0 L1,0 L1,1 L0,1 Z " fill="#287164" opacity="0.972549" transform="translate(41,10)"/>
<path d="M0,0 L1,0 L1,1 L0,1 Z " fill="#689C92" opacity="0.7529412" transform="translate(21,10)"/>
<path d="M0,0 L1,0 L1,1 L0,1 Z " fill="#F1F6F5" opacity="0.94509804" transform="translate(20,10)"/>
<path d="M0,0 L1,0 L1,1 L0,1 Z " fill="#FFFFFF" opacity="0.101960786" transform="translate(13,10)"/>
<path d="M0,0 L1,0 L1,1 L0,1 Z " fill="#FFFFFF" opacity="0.03137255" transform="translate(49,9)"/>
<path d="M0,0 L1,0 L1,1 L0,1 Z " fill="#FFFFFF" opacity="0.5882353" transform="translate(48,9)"/>
<path d="M0,0 L1,0 L1,1 L0,1 Z " fill="#E5EEED" opacity="0.90588236" transform="translate(41,9)"/>
<path d="M0,0 L1,0 L1,1 L0,1 Z " fill="#7FABA3" opacity="0.75686276" transform="translate(40,9)"/>
<path d="M0,0 L1,0 L1,1 L0,1 Z " fill="#387C70" opacity="0.8156863" transform="translate(39,9)"/>
<path d="M0,0 L1,0 L1,1 L0,1 Z " fill="#287163" opacity="0.9882353" transform="translate(38,9)"/>
<path d="M0,0 L1,0 L1,1 L0,1 Z " fill="#287163" opacity="0.9882353" transform="translate(25,9)"/>
<path d="M0,0 L1,0 L1,1 L0,1 Z " fill="#7FABA3" opacity="0.75686276" transform="translate(23,9)"/>
<path d="M0,0 L1,0 L1,1 L0,1 Z " fill="#E6EFED" opacity="0.9098039" transform="translate(22,9)"/>
<path d="M0,0 L1,0 L1,1 L0,1 Z " fill="#FFFFFF" opacity="0.039215688" transform="translate(14,9)"/>
<path d="M0,0 L1,0 L1,1 L0,1 Z " fill="#FFFFFF" opacity="0.32941177" transform="translate(47,8)"/>
<path d="M0,0 L1,0 L1,1 L0,1 Z " fill="#FFFFFF" opacity="0.90588236" transform="translate(46,8)"/>
<path d="M0,0 L1,0 L1,1 L0,1 Z " fill="#F0F6F5" opacity="0.94509804" transform="translate(38,8)"/>
<path d="M0,0 L1,0 L1,1 L0,1 Z " fill="#9DBFB8" opacity="0.7764706" transform="translate(37,8)"/>
<path d="M0,0 L1,0 L1,1 L0,1 Z " fill="#438377" opacity="0.78431374" transform="translate(35,8)"/>
<path d="M0,0 L1,0 L1,1 L0,1 Z " fill="#2C7467" opacity="0.8862745" transform="translate(33,8)"/>
<path d="M0,0 L1,0 L1,1 L0,1 Z " fill="#287164" opacity="0.9607843" transform="translate(32,8)"/>
<path d="M0,0 L1,0 L1,1 L0,1 Z " fill="#2C7467" opacity="0.8862745" transform="translate(30,8)"/>
<path d="M0,0 L1,0 L1,1 L0,1 Z " fill="#438377" opacity="0.78431374" transform="translate(28,8)"/>
<path d="M0,0 L1,0 L1,1 L0,1 Z " fill="#9EC0B9" opacity="0.77254903" transform="translate(26,8)"/>
<path d="M0,0 L1,0 L1,1 L0,1 Z " fill="#F0F6F5" opacity="0.94509804" transform="translate(25,8)"/>
<path d="M0,0 L1,0 L1,1 L0,1 Z " fill="#FFFFFF" opacity="0.3529412" transform="translate(16,8)"/>
<path d="M0,0 L1,0 L1,1 L0,1 Z " fill="#FFFFFF" opacity="0.05882353" transform="translate(46,7)"/>
<path d="M0,0 L1,0 L1,1 L0,1 Z " fill="#FFFFFF" opacity="0.57254905" transform="translate(45,7)"/>
<path d="M0,0 L1,0 L1,1 L0,1 Z " fill="#FFFFFF" opacity="0.9882353" transform="translate(19,7)"/>
<path d="M0,0 L1,0 L1,1 L0,1 Z " fill="#FFFFFF" opacity="0.07058824" transform="translate(17,7)"/>
<path d="M0,0 L1,0 L1,1 L0,1 Z " fill="#FFFFFF" opacity="0.11764706" transform="translate(44,6)"/>
<path d="M0,0 L1,0 L1,1 L0,1 Z " fill="#FFFFFF" opacity="0.5803922" transform="translate(43,6)"/>
<path d="M0,0 L1,0 L1,1 L0,1 Z " fill="#FFFFFF" opacity="0.96862745" transform="translate(42,6)"/>
<path d="M0,0 L1,0 L1,1 L0,1 Z " fill="#FFFFFF" opacity="0.972549" transform="translate(21,6)"/>
<path d="M0,0 L1,0 L1,1 L0,1 Z " fill="#FFFFFF" opacity="0.13333334" transform="translate(19,6)"/>
<path d="M0,0 L1,0 L1,1 L0,1 Z " fill="#FFFFFF" opacity="0.38431373" transform="translate(41,5)"/>
<path d="M0,0 L1,0 L1,1 L0,1 Z " fill="#FFFFFF" opacity="0.7372549" transform="translate(40,5)"/>
<path d="M0,0 L1,0 L1,1 L0,1 Z " fill="#FFFFFF" opacity="0.98039216" transform="translate(39,5)"/>
<path d="M0,0 L1,0 L1,1 L0,1 Z " fill="#FFFFFF" opacity="0.75686276" transform="translate(23,5)"/>
<path d="M0,0 L1,0 L1,1 L0,1 Z " fill="#FFFFFF" opacity="0.06666667" transform="translate(21,5)"/>
<path d="M0,0 L1,0 L1,1 L0,1 Z " fill="#FFFFFF" opacity="0.2627451" transform="translate(38,4)"/>
<path d="M0,0 L1,0 L1,1 L0,1 Z " fill="#FFFFFF" opacity="0.6431373" transform="translate(36,4)"/>
<path d="M0,0 L1,0 L1,1 L0,1 Z " fill="#FFFFFF" opacity="0.78431374" transform="translate(35,4)"/>
<path d="M0,0 L1,0 L1,1 L0,1 Z " fill="#FFFFFF" opacity="0.9372549" transform="translate(33,4)"/>
<path d="M0,0 L1,0 L1,1 L0,1 Z " fill="#FFFFFF" opacity="0.9843137" transform="translate(32,4)"/>
<path d="M0,0 L1,0 L1,1 L0,1 Z " fill="#FFFFFF" opacity="0.94509804" transform="translate(30,4)"/>
<path d="M0,0 L1,0 L1,1 L0,1 Z " fill="#FFFFFF" opacity="0.7921569" transform="translate(28,4)"/>
<path d="M0,0 L1,0 L1,1 L0,1 Z " fill="#FFFFFF" opacity="0.49803922" transform="translate(26,4)"/>
<path d="M0,0 L1,0 L1,1 L0,1 Z " fill="#FFFFFF" opacity="0.050980393" transform="translate(24,4)"/>
</svg>
