<?xml version="1.0" encoding="UTF-8"?>
<!-- Generator: visioncortex VTracer 0.6.4 -->
<svg version="1.1" xmlns="http://www.w3.org/2000/svg" width="64" height="64">
<path d="M0,0 L14,0 L14,1 L17,1 L17,2 L19,2 L19,3 L21,3 L21,4 L23,4 L23,5 L24,5 L24,6 L25,6 L25,7 L26,7 L26,8 L27,8 L27,9 L28,9 L28,10 L29,10 L29,11 L30,11 L30,13 L31,13 L31,15 L32,15 L32,17 L33,17 L33,20 L34,20 L34,34 L33,34 L33,37 L32,37 L32,39 L31,39 L31,41 L30,41 L30,43 L29,43 L29,44 L28,44 L28,45 L27,45 L27,46 L26,46 L26,47 L25,47 L25,48 L24,48 L24,49 L23,49 L23,50 L21,50 L21,51 L19,51 L19,52 L17,52 L17,53 L14,53 L14,54 L0,54 L0,53 L-3,53 L-3,52 L-5,52 L-5,51 L-7,51 L-7,50 L-9,50 L-9,49 L-10,49 L-10,48 L-11,48 L-11,47 L-12,47 L-12,46 L-13,46 L-13,45 L-14,45 L-14,44 L-15,44 L-15,43 L-16,43 L-16,41 L-17,41 L-17,39 L-18,39 L-18,37 L-19,37 L-19,34 L-20,34 L-20,20 L-19,20 L-19,17 L-18,17 L-18,15 L-17,15 L-17,13 L-16,13 L-16,11 L-15,11 L-15,10 L-14,10 L-14,9 L-13,9 L-13,8 L-12,8 L-12,7 L-11,7 L-11,6 L-10,6 L-10,5 L-9,5 L-9,4 L-7,4 L-7,3 L-5,3 L-5,2 L-3,2 L-3,1 L0,1 Z M0,3 L0,4 L-3,4 L-3,5 L-5,5 L-5,6 L-7,6 L-7,7 L-8,7 L-8,8 L-9,8 L-9,9 L-10,9 L-10,10 L-11,10 L-11,11 L-12,11 L-12,12 L-13,12 L-13,13 L-14,13 L-14,15 L-15,15 L-15,17 L-16,17 L-16,20 L-17,20 L-17,34 L-16,34 L-16,37 L-15,37 L-15,39 L-14,39 L-14,41 L-13,41 L-13,42 L-12,42 L-12,43 L-11,43 L-11,44 L-10,44 L-10,45 L-9,45 L-9,46 L-8,46 L-8,47 L-7,47 L-7,48 L-5,48 L-5,49 L-3,49 L-3,50 L0,50 L0,51 L14,51 L14,50 L17,50 L17,49 L19,49 L19,48 L21,48 L21,47 L22,47 L22,46 L23,46 L23,45 L24,45 L24,44 L25,44 L25,43 L26,43 L26,42 L27,42 L27,41 L28,41 L28,39 L29,39 L29,37 L30,37 L30,34 L31,34 L31,20 L30,20 L30,17 L29,17 L29,15 L28,15 L28,13 L27,13 L27,12 L26,12 L26,11 L25,11 L25,10 L24,10 L24,9 L23,9 L23,8 L22,8 L22,7 L21,7 L21,6 L19,6 L19,5 L17,5 L17,4 L14,4 L14,3 Z M1,4 L13,4 L13,5 L16,5 L16,6 L18,6 L18,7 L20,7 L20,8 L21,8 L21,9 L22,9 L22,10 L24,10 L24,12 L25,12 L25,13 L26,13 L26,14 L27,14 L27,16 L28,16 L28,18 L29,18 L29,21 L30,21 L30,33 L29,33 L29,36 L28,36 L28,38 L27,38 L27,40 L26,40 L26,41 L25,41 L25,42 L24,42 L24,44 L22,44 L22,45 L21,45 L21,46 L20,46 L20,47 L18,47 L18,48 L16,48 L16,49 L14,49 L14,50 L0,50 L0,49 L-2,49 L-2,48 L-4,48 L-4,47 L-6,47 L-6,46 L-7,46 L-7,45 L-8,45 L-8,44 L-10,44 L-10,42 L-11,42 L-11,41 L-12,41 L-12,40 L-13,40 L-13,38 L-14,38 L-14,36 L-15,36 L-15,33 L-16,33 L-16,21 L-15,21 L-15,18 L-14,18 L-14,16 L-13,16 L-13,14 L-12,14 L-12,13 L-11,13 L-11,12 L-10,12 L-10,11 L-9,11 L-9,10 L-8,10 L-8,9 L-7,9 L-7,8 L-6,8 L-6,7 L-4,7 L-4,6 L-2,6 L-2,5 L1,5 Z M1,7 L1,8 L10,8 L10,7 Z M-2,8 L-2,9 L-4,9 L-4,10 L-5,10 L-5,11 L-3,11 L-3,10 L-1,10 L-1,9 L1,9 L1,8 Z M13,8 L13,9 L15,9 L15,10 L17,10 L17,11 L19,11 L19,10 L18,10 L18,9 L16,9 L16,8 Z M-6,11 L-6,12 L-5,12 L-5,11 Z M1,11 L1,12 L-1,12 L-1,13 L-3,13 L-3,14 L-4,14 L-4,15 L-5,15 L-5,16 L-6,16 L-6,17 L-7,17 L-7,19 L-8,19 L-8,21 L-9,21 L-9,27 L-8,27 L-8,22 L-7,22 L-7,20 L-6,20 L-6,18 L-5,18 L-5,17 L-4,17 L-4,16 L-3,16 L-3,15 L-2,15 L-2,14 L0,14 L0,13 L2,13 L2,12 L3,12 L3,11 Z M12,11 L12,13 L14,13 L14,14 L16,14 L16,15 L17,15 L17,16 L18,16 L18,17 L19,17 L19,18 L20,18 L20,20 L21,20 L21,22 L22,22 L22,27 L23,27 L23,21 L22,21 L22,19 L21,19 L21,17 L20,17 L20,16 L19,16 L19,15 L18,15 L18,14 L17,14 L17,13 L15,13 L15,12 L13,12 L13,11 Z M19,11 L19,12 L20,12 L20,11 Z M-8,12 L-8,14 L-7,14 L-7,13 L-6,13 L-6,12 Z M20,12 L20,13 L21,13 L21,14 L22,14 L22,12 Z M-9,14 L-9,15 L-8,15 L-8,14 Z M22,14 L22,15 L23,15 L23,14 Z M-10,15 L-10,16 L-11,16 L-11,18 L-12,18 L-12,21 L-11,21 L-11,19 L-10,19 L-10,17 L-9,17 L-9,15 Z M23,15 L23,17 L24,17 L24,19 L25,19 L25,21 L26,21 L26,18 L25,18 L25,16 L24,16 L24,15 Z M-13,21 L-13,34 L-12,34 L-12,36 L-11,36 L-11,38 L-10,38 L-10,39 L-9,39 L-9,37 L-10,37 L-10,35 L-11,35 L-11,33 L-12,33 L-12,21 Z M26,21 L26,33 L25,33 L25,35 L24,35 L24,37 L23,37 L23,39 L24,39 L24,38 L25,38 L25,36 L26,36 L26,34 L27,34 L27,21 Z M-9,39 L-9,40 L-8,40 L-8,39 Z M22,39 L22,40 L21,40 L21,41 L20,41 L20,42 L22,42 L22,41 L23,41 L23,39 Z M-8,40 L-8,42 L-6,42 L-6,41 L-7,41 L-7,40 Z M-6,42 L-6,43 L-5,43 L-5,42 Z M19,42 L19,43 L20,43 L20,42 Z M-5,43 L-5,44 L-4,44 L-4,45 L-2,45 L-2,46 L1,46 L1,45 L-1,45 L-1,44 L-3,44 L-3,43 Z M17,43 L17,44 L15,44 L15,45 L13,45 L13,46 L16,46 L16,45 L18,45 L18,44 L19,44 L19,43 Z M1,46 L1,47 L13,47 L13,46 Z " fill="#474758" transform="translate(25,5)"/>
<path d="M0,0 L3,0 L3,4 L2,4 L2,6 L4,6 L4,7 L6,7 L6,8 L7,8 L7,9 L8,9 L8,10 L9,10 L9,11 L10,11 L10,13 L11,13 L11,15 L12,15 L12,20 L13,20 L13,32 L12,32 L12,33 L11,33 L11,34 L10,34 L10,35 L9,35 L9,36 L7,36 L7,37 L5,37 L5,38 L3,38 L3,39 L-9,39 L-9,38 L-11,38 L-11,37 L-13,37 L-13,36 L-15,36 L-15,35 L-16,35 L-16,34 L-17,34 L-17,33 L-18,33 L-18,32 L-19,32 L-19,20 L-18,20 L-18,15 L-17,15 L-17,13 L-16,13 L-16,11 L-15,11 L-15,10 L-14,10 L-14,9 L-13,9 L-13,8 L-12,8 L-12,7 L-10,7 L-10,6 L-8,6 L-8,5 L-7,5 L-7,4 L-9,4 L-9,1 L-5,1 L-5,3 L-3,3 L-3,2 L-2,2 L-2,1 L0,1 Z " fill="#C7B6FF" transform="translate(35,12)"/>
<path d="M0,0 L14,0 L14,1 L17,1 L17,2 L19,2 L19,3 L21,3 L21,4 L23,4 L23,5 L24,5 L24,6 L25,6 L25,7 L26,7 L26,8 L27,8 L27,9 L28,9 L28,10 L29,10 L29,11 L30,11 L30,13 L31,13 L31,15 L32,15 L32,17 L33,17 L33,20 L34,20 L34,34 L33,34 L33,37 L32,37 L32,39 L31,39 L31,41 L30,41 L30,43 L29,43 L29,44 L28,44 L28,45 L27,45 L27,46 L26,46 L26,47 L25,47 L25,48 L24,48 L24,49 L23,49 L23,50 L21,50 L21,51 L19,51 L19,52 L17,52 L17,53 L14,53 L14,54 L0,54 L0,53 L-3,53 L-3,52 L-5,52 L-5,51 L-7,51 L-7,50 L-9,50 L-9,49 L-10,49 L-10,48 L-11,48 L-11,47 L-12,47 L-12,46 L-13,46 L-13,45 L-14,45 L-14,44 L-15,44 L-15,43 L-16,43 L-16,41 L-17,41 L-17,39 L-18,39 L-18,37 L-19,37 L-19,34 L-20,34 L-20,20 L-19,20 L-19,17 L-18,17 L-18,15 L-17,15 L-17,13 L-16,13 L-16,11 L-15,11 L-15,10 L-14,10 L-14,9 L-13,9 L-13,8 L-12,8 L-12,7 L-11,7 L-11,6 L-10,6 L-10,5 L-9,5 L-9,4 L-7,4 L-7,3 L-5,3 L-5,2 L-3,2 L-3,1 L0,1 Z M0,3 L0,4 L-3,4 L-3,5 L-5,5 L-5,6 L-7,6 L-7,7 L-8,7 L-8,8 L-9,8 L-9,9 L-10,9 L-10,10 L-11,10 L-11,11 L-12,11 L-12,12 L-13,12 L-13,13 L-14,13 L-14,15 L-15,15 L-15,17 L-16,17 L-16,20 L-17,20 L-17,34 L-16,34 L-16,37 L-15,37 L-15,39 L-14,39 L-14,41 L-13,41 L-13,42 L-12,42 L-12,43 L-11,43 L-11,44 L-10,44 L-10,45 L-9,45 L-9,46 L-8,46 L-8,47 L-7,47 L-7,48 L-5,48 L-5,49 L-3,49 L-3,50 L0,50 L0,51 L14,51 L14,50 L17,50 L17,49 L19,49 L19,48 L21,48 L21,47 L22,47 L22,46 L23,46 L23,45 L24,45 L24,44 L25,44 L25,43 L26,43 L26,42 L27,42 L27,41 L28,41 L28,39 L29,39 L29,37 L30,37 L30,34 L31,34 L31,20 L30,20 L30,17 L29,17 L29,15 L28,15 L28,13 L27,13 L27,12 L26,12 L26,11 L25,11 L25,10 L24,10 L24,9 L23,9 L23,8 L22,8 L22,7 L21,7 L21,6 L19,6 L19,5 L17,5 L17,4 L14,4 L14,3 Z " fill="#FFFFFF" transform="translate(25,5)"/>
<path d="M0,0 L2,0 L2,3 L1,3 L1,5 L3,5 L3,6 L5,6 L5,7 L6,7 L6,8 L7,8 L7,9 L8,9 L8,10 L9,10 L9,12 L10,12 L10,14 L11,14 L11,15 L9,15 L9,16 L7,16 L7,17 L1,17 L1,16 L0,16 L0,15 L-1,15 L-1,14 L-2,14 L-2,13 L-4,13 L-4,4 L-3,4 L-3,3 L-2,3 L-2,2 L-1,2 L-1,1 L0,1 Z " fill="#D2C4FF" transform="translate(36,13)"/>
<path d="M0,0 L2,0 L2,1 L4,1 L4,2 L6,2 L6,3 L7,3 L7,4 L8,4 L8,5 L9,5 L9,6 L10,6 L10,8 L11,8 L11,10 L12,10 L12,12 L13,12 L13,24 L12,24 L12,26 L11,26 L11,28 L10,28 L10,12 L9,12 L9,10 L8,10 L8,8 L7,8 L7,7 L6,7 L6,6 L5,6 L5,5 L4,5 L4,4 L2,4 L2,3 L0,3 Z " fill="#656574" transform="translate(38,14)"/>
<path d="M0,0 L2,0 L2,3 L0,3 L0,4 L-2,4 L-2,5 L-3,5 L-3,6 L-4,6 L-4,7 L-5,7 L-5,8 L-6,8 L-6,10 L-7,10 L-7,12 L-8,12 L-8,28 L-9,28 L-9,26 L-10,26 L-10,24 L-11,24 L-11,12 L-10,12 L-10,10 L-9,10 L-9,8 L-8,8 L-8,6 L-7,6 L-7,5 L-6,5 L-6,4 L-5,4 L-5,3 L-4,3 L-4,2 L-2,2 L-2,1 L0,1 Z " fill="#656574" transform="translate(24,14)"/>
<path d="M0,0 L2,0 L2,1 L4,1 L4,2 L6,2 L6,3 L7,3 L7,4 L8,4 L8,5 L9,5 L9,6 L10,6 L10,8 L11,8 L11,11 L10,11 L10,12 L9,12 L9,10 L8,10 L8,8 L7,8 L7,7 L6,7 L6,6 L5,6 L5,5 L4,5 L4,4 L2,4 L2,3 L0,3 Z " fill="#83838F" transform="translate(38,14)"/>
<path d="M0,0 L3,0 L3,1 L5,1 L5,3 L6,3 L6,6 L5,6 L5,7 L4,7 L4,8 L-1,8 L-1,7 L-2,7 L-2,2 L-1,2 L-1,1 L0,1 Z " fill="#353541" transform="translate(24,33)"/>
<path d="M0,0 L4,0 L4,1 L5,1 L5,2 L6,2 L6,6 L5,6 L5,7 L4,7 L4,8 L0,8 L0,7 L-1,7 L-1,6 L-2,6 L-2,2 L-1,2 L-1,1 L0,1 Z " fill="#353541" transform="translate(30,26)"/>
<path d="M0,0 L3,0 L3,1 L4,1 L4,2 L5,2 L5,7 L3,7 L3,8 L-1,8 L-1,7 L-2,7 L-2,6 L-3,6 L-3,3 L-2,3 L-2,1 L0,1 Z " fill="#353541" transform="translate(37,33)"/>
<path d="M0,0 L1,0 L1,1 L2,1 L2,2 L3,2 L3,3 L5,3 L5,5 L6,5 L6,6 L5,6 L5,8 L4,8 L4,7 L3,7 L3,5 L1,5 L1,4 L0,4 L0,3 L-1,3 L-1,2 L-3,2 L-3,1 L0,1 Z " fill="#474758" transform="translate(44,12)"/>
<path d="M0,0 L1,0 L1,1 L0,1 Z M-1,1 L0,1 L0,2 L-1,2 Z M-2,2 L-1,2 L-1,3 L-2,3 Z M-3,3 L-2,3 L-2,4 L-3,4 Z M-4,4 L-3,4 L-3,5 L-4,5 Z M-5,5 L-4,5 L-4,6 L-5,6 Z M-6,6 L-5,6 L-5,7 L-6,7 Z M-7,7 L-6,7 L-6,8 L-7,8 Z " fill="#FFFFFF" transform="translate(16,9)"/>
<path d="M0,0 L2,0 L2,1 L3,1 L3,4 L2,4 L2,5 L0,5 L0,4 L-1,4 L-1,1 L0,1 Z " fill="#D2C4FF" transform="translate(22,24)"/>
<path d="M0,0 L1,0 L1,1 L0,1 Z M1,2 L2,2 L2,3 L1,3 Z " fill="#D1C3FF" transform="translate(24,24)"/>
<path d="M0,0 L1,0 L1,1 L0,1 Z " fill="#FFFFFF" opacity="0.9843137" transform="translate(59,31)"/>
<path d="M0,0 L1,0 L1,1 L0,1 Z " fill="#FFFFFF" opacity="0.9843137" transform="translate(4,31)"/>
<path d="M0,0 L1,0 L1,1 L2,1 L2,2 L3,2 L3,6 L2,6 L2,5 L-1,5 L-1,2 L0,2 Z " fill="#5D5D67" transform="translate(33,26)"/>
<path d="M0,0 L1,0 L1,1 L0,1 Z M-1,1 L0,1 L0,2 L-1,2 Z M-2,2 L-1,2 L-1,3 L-2,3 Z M-3,3 L-2,3 L-2,4 L-3,4 Z M-4,4 L-3,4 L-3,5 L-4,5 Z M-5,5 L-4,5 L-4,6 L-5,6 Z M-6,6 L-5,6 L-5,7 L-6,7 Z M-7,7 L-6,7 L-6,8 L-7,8 Z " fill="#474758" transform="translate(19,12)"/>
<path d="M0,0 L3,0 L3,1 L4,1 L4,2 L5,2 L5,3 L6,3 L6,4 L4,4 L4,3 L3,3 L3,2 L2,2 L2,1 L0,1 Z M6,4 L7,4 L7,6 L6,6 Z " fill="#6B6B79" transform="translate(41,13)"/>
<path d="M0,0 L2,0 L2,1 L5,1 L5,0 L6,0 L6,2 L5,2 L5,3 L1,3 L1,2 L0,2 Z " fill="#7867B0" transform="translate(29,42)"/>
<path d="M0,0 L1,0 L1,1 L0,1 Z M-1,1 L0,1 L0,2 L-1,2 Z M-2,2 L-1,2 L-1,3 L-2,3 Z M-3,3 L-2,3 L-2,4 L-3,4 Z M-4,4 L-3,4 L-3,5 L-4,5 Z " fill="#C7B6FF" transform="translate(23,19)"/>
<path d="M0,0 L4,0 L4,2 L3,2 L3,3 L0,3 Z " fill="#5D5D67" transform="translate(38,35)"/>
<path d="M0,0 L1,0 L1,1 L0,1 Z M-1,1 L0,1 L0,2 L-1,2 Z M-2,2 L-1,2 L-1,3 L-2,3 Z M-3,3 L-2,3 L-2,4 L-3,4 Z " fill="#D2C4FF" transform="translate(36,14)"/>
<path d="M0,0 L1,0 L1,1 L0,1 Z M-2,3 L-1,3 L-1,4 L-2,4 Z " fill="#D1C3FF" transform="translate(34,15)"/>
<path d="M0,0 L1,0 L1,1 L0,1 Z M-1,1 L0,1 L0,2 L-1,2 Z M-2,2 L-1,2 L-1,3 L-2,3 Z M-3,3 L-2,3 L-2,4 L-3,4 Z M-4,4 L-3,4 L-3,5 L-4,5 Z " fill="#656574" transform="translate(20,16)"/>
<path d="M0,0 L3,0 L3,1 L2,1 L2,2 L0,2 Z " fill="#656574" transform="translate(30,13)"/>
<path d="M0,0 L1,0 L1,2 L2,2 L2,5 L1,5 L1,4 L-2,4 L-2,3 L0,3 Z " fill="#646271" transform="translate(28,34)"/>
<path d="M0,0 L1,0 L1,1 L0,1 Z " fill="#FFFFFF" opacity="0.98039216" transform="translate(24,58)"/>
<path d="M0,0 L1,0 L1,2 L0,2 L0,3 L-1,3 L-1,1 L0,1 Z " fill="#656574" transform="translate(49,24)"/>
<path d="M0,0 L1,0 L1,1 L0,1 Z " fill="#FFFFFF" opacity="0.98039216" transform="translate(58,24)"/>
<path d="M0,0 L1,0 L1,1 L0,1 Z " fill="#FFFFFF" opacity="0.9882353" transform="translate(5,24)"/>
<path d="M0,0 L1,0 L1,1 L0,1 Z " fill="#FFFFFF" opacity="0.9882353" transform="translate(24,5)"/>
<path d="M0,0 L1,0 L1,1 L0,1 Z " fill="#FFFFFF" opacity="0.8901961" transform="translate(34,59)"/>
<path d="M0,0 L1,0 L1,1 L0,1 Z " fill="#FFFFFF" opacity="0.8901961" transform="translate(34,4)"/>
<path d="M0,0 L1,0 L1,3 L-2,3 L-2,2 L-1,2 L-1,1 L0,1 Z " fill="#5D5D67" transform="translate(27,34)"/>
<path d="M0,0 L1,0 L1,1 L2,1 L2,2 L0,2 Z M2,2 L3,2 L3,4 L2,4 Z " fill="#6B6B79" transform="translate(45,15)"/>
<path d="M0,0 L1,0 L1,1 L0,1 Z " fill="#FFFFFF" opacity="0.6392157" transform="translate(59,36)"/>
<path d="M0,0 L1,0 L1,1 L0,1 Z " fill="#FFFFFF" opacity="0.6431373" transform="translate(4,36)"/>
<path d="M0,0 L1,0 L1,1 L0,1 Z " fill="#636372" opacity="0.84705883" transform="translate(51,34)"/>
<path d="M0,0 L2,0 L2,1 L1,1 L1,2 L0,2 L0,3 L-1,3 L-1,1 L0,1 Z " fill="#353541" transform="translate(23,34)"/>
<path d="M0,0 L1,0 L1,1 L0,1 Z " fill="#636371" opacity="0.85490197" transform="translate(12,34)"/>
<path d="M0,0 L1,0 L1,2 L3,2 L3,3 L0,3 Z " fill="#646371" transform="translate(32,28)"/>
<path d="M0,0 L1,0 L1,1 L2,1 L2,2 L3,2 L3,3 L1,3 L1,2 L0,2 Z " fill="#676674" transform="translate(33,26)"/>
<path d="M0,0 L1,0 L1,3 L0,3 Z " fill="#7C7C88" transform="translate(48,22)"/>
<path d="M0,0 L1,0 L1,5 L0,5 Z " fill="#CBBBFF" transform="translate(31,19)"/>
<path d="M0,0 L2,0 L2,1 L0,1 Z " fill="#656573" opacity="0.9607843" transform="translate(31,12)"/>
<path d="M0,0 L1,0 L1,1 L0,1 Z " fill="#FFFFFF" opacity="0.57254905" transform="translate(18,56)"/>
<path d="M0,0 L1,0 L1,1 L0,1 Z " fill="#FCFCFC" opacity="0.8901961" transform="translate(38,55)"/>
<path d="M0,0 L1,0 L1,1 L0,1 Z " fill="#4B4B5C" opacity="0.98039216" transform="translate(31,55)"/>
<path d="M0,0 L1,0 L1,1 L0,1 Z " fill="#FFFFFF" opacity="0.8" transform="translate(14,53)"/>
<path d="M0,0 L1,0 L1,1 L0,1 Z " fill="#C3B3FB" opacity="0.88235295" transform="translate(30,51)"/>
<path d="M0,0 L4,0 L4,1 L0,1 Z " fill="#8B7AC3" transform="translate(30,44)"/>
<path d="M0,0 L1,0 L1,1 L0,1 Z " fill="#FFFFFF" opacity="0.9843137" transform="translate(7,44)"/>
<path d="M0,0 L2,0 L2,1 L1,1 L1,3 L0,3 Z " fill="#5E5E69" transform="translate(38,35)"/>
<path d="M0,0 L1,0 L1,1 L0,1 Z " fill="#C7B6FF" opacity="0.95686275" transform="translate(47,31)"/>
<path d="M0,0 L1,0 L1,1 L0,1 Z " fill="#646471" opacity="0.88235295" transform="translate(55,30)"/>
<path d="M0,0 L1,0 L1,1 L0,1 Z " fill="#646472" opacity="0.88235295" transform="translate(51,30)"/>
<path d="M0,0 L1,0 L1,1 L0,1 Z " fill="#C4B3FD" opacity="0.88235295" transform="translate(16,30)"/>
<path d="M0,0 L1,0 L1,1 L0,1 Z " fill="#636373" opacity="0.8862745" transform="translate(12,30)"/>
<path d="M0,0 L1,0 L1,1 L0,1 Z " fill="#626271" opacity="0.8862745" transform="translate(8,30)"/>
<path d="M0,0 L3,0 L3,2 L2,2 L2,1 L0,1 Z " fill="#3F3E4D" transform="translate(30,26)"/>
<path d="M0,0 L1,0 L1,1 L0,1 Z " fill="#FFFFFF" opacity="0.57254905" transform="translate(56,18)"/>
<path d="M0,0 L1,0 L1,1 L0,1 Z " fill="#FFFFFF" opacity="0.8" transform="translate(53,14)"/>
<path d="M0,0 L1,0 L1,1 L0,1 Z " fill="#FFFFFF" opacity="0.8156863" transform="translate(10,14)"/>
<path d="M0,0 L2,0 L2,1 L0,1 Z " fill="#6B6B79" transform="translate(41,13)"/>
<path d="M0,0 L1,0 L1,3 L0,3 Z " fill="#B0A3E0" transform="translate(26,13)"/>
<path d="M0,0 L4,0 L4,1 L0,1 Z " fill="#4A4A5B" transform="translate(38,12)"/>
<path d="M0,0 L1,0 L1,1 L2,1 L2,2 L0,2 Z " fill="#474758" transform="translate(42,11)"/>
<path d="M0,0 L1,0 L1,1 L0,1 Z " fill="#FFFFFF" opacity="0.8156863" transform="translate(14,10)"/>
<path d="M0,0 L1,0 L1,1 L0,1 Z " fill="#626271" opacity="0.8862745" transform="translate(30,8)"/>
<path d="M0,0 L1,0 L1,1 L0,1 Z " fill="#FFFFFF" opacity="0.92156863" transform="translate(17,8)"/>
<path d="M0,0 L1,0 L1,1 L0,1 Z " fill="#FFFFFF" opacity="0.9843137" transform="translate(44,7)"/>
<path d="M0,0 L1,0 L1,1 L0,1 Z " fill="#FFFFFF" opacity="0.9843137" transform="translate(31,4)"/>
<path d="M0,0 L1,0 L1,1 L0,1 Z " fill="#FFFFFF" opacity="0.64705884" transform="translate(27,4)"/>
<path d="M0,0 L1,0 L1,1 L0,1 Z " fill="#B5A6E8" opacity="0.78431374" transform="translate(35,51)"/>
<path d="M0,0 L1,0 L1,1 L0,1 Z " fill="#C7B6FF" opacity="0.95686275" transform="translate(32,51)"/>
<path d="M0,0 L1,0 L1,1 L0,1 Z " fill="#FFFFFF" opacity="0.79607844" transform="translate(10,49)"/>
<path d="M0,0 L2,0 L2,1 L1,1 L1,2 L0,2 Z " fill="#8473BC" transform="translate(29,42)"/>
<path d="M0,0 L1,0 L1,3 L0,3 Z " fill="#756D93" transform="translate(34,36)"/>
<path d="M0,0 L1,0 L1,3 L0,3 Z " fill="#79719B" transform="translate(29,36)"/>
<path d="M0,0 L1,0 L1,1 L0,1 Z " fill="#93939C" opacity="0.78039217" transform="translate(55,35)"/>
<path d="M0,0 L1,0 L1,3 L0,3 Z " fill="#6B6681" transform="translate(28,34)"/>
<path d="M0,0 L1,0 L1,1 L0,1 Z " fill="#91919C" opacity="0.78431374" transform="translate(8,35)"/>
<path d="M0,0 L2,0 L2,1 L1,1 L1,2 L0,2 Z " fill="#353541" transform="translate(35,34)"/>
<path d="M0,0 L3,0 L3,1 L0,1 Z " fill="#55516C" transform="translate(37,33)"/>
<path d="M0,0 L3,0 L3,1 L0,1 Z " fill="#55516C" transform="translate(24,33)"/>
<path d="M0,0 L1,0 L1,1 L0,1 Z " fill="#4E4E60" opacity="0.95686275" transform="translate(55,32)"/>
<path d="M0,0 L1,0 L1,2 L0,2 Z " fill="#4F4F60" opacity="0.9607843" transform="translate(8,31)"/>
<path d="M0,0 L3,0 L3,1 L0,1 Z " fill="#C9B9FF" transform="translate(39,30)"/>
<path d="M0,0 L2,0 L2,1 L1,1 L1,2 L0,2 Z " fill="#353541" transform="translate(29,27)"/>
<path d="M0,0 L1,0 L1,3 L0,3 Z " fill="#D0C2FF" transform="translate(20,25)"/>
<path d="M0,0 L2,0 L2,1 L1,1 L1,2 L0,2 Z " fill="#D2C4FF" transform="translate(21,24)"/>
<path d="M0,0 L2,0 L2,1 L1,1 L1,2 L0,2 Z " fill="#D2C4FF" transform="translate(32,20)"/>
<path d="M0,0 L1,0 L1,1 L0,1 Z " fill="#C7B6FF" transform="translate(27,13)"/>
<path d="M0,0 L2,0 L2,1 L0,1 Z M-1,1 L0,1 L0,2 L-1,2 Z " fill="#C7B6FF" transform="translate(36,12)"/>
<path d="M0,0 L3,0 L3,1 L0,1 Z " fill="#9086B9" transform="translate(35,11)"/>
<path d="M0,0 L1,0 L1,1 L0,1 Z " fill="#FFFFFF" opacity="0.79607844" transform="translate(49,10)"/>
<path d="M0,0 L1,0 L1,1 L0,1 Z " fill="#91919C" opacity="0.78431374" transform="translate(35,8)"/>
<path d="M0,0 L2,0 L2,1 L0,1 Z " fill="#4F4F60" opacity="0.9607843" transform="translate(31,8)"/>
<path d="M0,0 L1,0 L1,1 L0,1 Z " fill="#FFFFFF" opacity="0.039215688" transform="translate(39,59)"/>
<path d="M0,0 L1,0 L1,1 L0,1 Z " fill="#FFFFFF" opacity="0.49019608" transform="translate(37,59)"/>
<path d="M0,0 L1,0 L1,1 L0,1 Z " fill="#FFFFFF" opacity="0.98039216" transform="translate(32,59)"/>
<path d="M0,0 L1,0 L1,1 L0,1 Z " fill="#FFFFFF" opacity="0.8901961" transform="translate(29,59)"/>
<path d="M0,0 L1,0 L1,1 L0,1 Z " fill="#FFFFFF" opacity="0.63529414" transform="translate(27,59)"/>
<path d="M0,0 L1,0 L1,1 L0,1 Z " fill="#FFFFFF" opacity="0.25882354" transform="translate(25,59)"/>
<path d="M0,0 L1,0 L1,1 L0,1 Z " fill="#FFFFFF" opacity="0.0627451" transform="translate(42,58)"/>
<path d="M0,0 L1,0 L1,1 L0,1 Z " fill="#FFFFFF" opacity="0.38039216" transform="translate(22,58)"/>
<path d="M0,0 L1,0 L1,1 L0,1 Z " fill="#FFFFFF" opacity="0.5764706" transform="translate(20,57)"/>
<path d="M0,0 L1,0 L1,1 L0,1 Z " fill="#BABAC1" opacity="0.7529412" transform="translate(36,55)"/>
<path d="M0,0 L1,0 L1,1 L0,1 Z " fill="#676775" opacity="0.8745098" transform="translate(29,55)"/>
<path d="M0,0 L1,0 L1,1 L0,1 Z " fill="#BCBCC2" opacity="0.7529412" transform="translate(27,55)"/>
<path d="M0,0 L1,0 L1,1 L0,1 Z " fill="#FFFFFF" opacity="0.9098039" transform="translate(17,55)"/>
<path d="M0,0 L1,0 L1,1 L0,1 Z " fill="#FDFDFD" opacity="0.90588236" transform="translate(41,54)"/>
<path d="M0,0 L1,0 L1,1 L0,1 Z " fill="#FDFDFD" opacity="0.91764706" transform="translate(43,53)"/>
<path d="M0,0 L1,0 L1,1 L0,1 Z M-1,1 L0,1 L0,2 L-1,2 Z " fill="#FFFFFF" opacity="0.14901961" transform="translate(52,51)"/>
<path d="M0,0 L1,0 L1,1 L0,1 Z " fill="#B5A6E8" opacity="0.78431374" transform="translate(28,51)"/>
<path d="M0,0 L1,0 L1,1 L0,1 Z M1,1 L2,1 L2,2 L1,2 Z " fill="#FFFFFF" opacity="0.12941177" transform="translate(11,51)"/>
<path d="M0,0 L1,0 L1,1 L0,1 Z " fill="#C5B4FD" opacity="0.89411765" transform="translate(25,50)"/>
<path d="M0,0 L1,0 L1,1 L0,1 Z " fill="#C6B6FF" opacity="0.96862745" transform="translate(23,49)"/>
<path d="M0,0 L1,0 L1,1 L0,1 Z " fill="#FEFEFE" opacity="0.93333334" transform="translate(53,43)"/>
<path d="M0,0 L1,0 L1,2 L0,2 Z " fill="#C4B4FD" transform="translate(35,42)"/>
<path d="M0,0 L1,0 L1,2 L0,2 Z " fill="#8675BE" transform="translate(34,42)"/>
<path d="M0,0 L1,0 L1,2 L0,2 Z " fill="#C5B4FE" transform="translate(28,42)"/>
<path d="M0,0 L1,0 L1,1 L0,1 Z " fill="#FFFFFF" opacity="0.94509804" transform="translate(10,43)"/>
<path d="M0,0 L1,0 L1,1 L0,1 Z " fill="#FFFFFF" opacity="0.0627451" transform="translate(58,42)"/>
<path d="M0,0 L2,0 L2,1 L0,1 Z " fill="#C6B5FE" transform="translate(31,42)"/>
<path d="M0,0 L1,0 L1,1 L0,1 Z " fill="#FFFFFF" opacity="0.05882353" transform="translate(5,42)"/>
<path d="M0,0 L1,0 L1,1 L0,1 Z " fill="#FCFCFD" opacity="0.9019608" transform="translate(54,41)"/>
<path d="M0,0 L2,0 L2,1 L0,1 Z " fill="#C4B3FD" transform="translate(38,41)"/>
<path d="M0,0 L2,0 L2,1 L0,1 Z " fill="#C1B1F9" transform="translate(25,41)"/>
<path d="M0,0 L1,0 L1,1 L0,1 Z " fill="#FDFDFD" opacity="0.90588236" transform="translate(9,41)"/>
<path d="M0,0 L2,0 L2,1 L0,1 Z " fill="#C4B4FC" transform="translate(40,40)"/>
<path d="M0,0 L1,0 L1,1 L0,1 Z " fill="#FFFFFF" opacity="0.039215688" transform="translate(59,39)"/>
<path d="M0,0 L1,0 L1,1 L0,1 Z " fill="#FFFFFF" opacity="0.039215688" transform="translate(4,39)"/>
<path d="M0,0 L1,0 L1,1 L0,1 Z " fill="#FEFEFE" opacity="0.94509804" transform="translate(55,38)"/>
<path d="M0,0 L1,0 L1,1 L0,1 Z " fill="#FEFEFE" opacity="0.94509804" transform="translate(8,38)"/>
<path d="M0,0 L1,0 L1,2 L0,2 Z " fill="#978BC1" transform="translate(42,36)"/>
<path d="M0,0 L2,0 L2,1 L0,1 Z " fill="#696779" transform="translate(39,37)"/>
<path d="M0,0 L1,0 L1,2 L0,2 Z " fill="#9489BD" transform="translate(21,36)"/>
<path d="M0,0 L1,0 L1,1 L0,1 Z " fill="#4E4E5F" opacity="0.827451" transform="translate(12,37)"/>
<path d="M0,0 L2,0 L2,1 L0,1 Z " fill="#474557" transform="translate(39,34)"/>
<path d="M0,0 L2,0 L2,1 L0,1 Z " fill="#424152" transform="translate(30,33)"/>
<path d="M0,0 L1,0 L1,1 L0,1 Z " fill="#646473" opacity="0.9647059" transform="translate(51,32)"/>
<path d="M0,0 L1,0 L1,1 L0,1 Z M-1,1 L0,1 L0,2 L-1,2 Z " fill="#B9A9ED" transform="translate(35,32)"/>
<path d="M0,0 L1,0 L1,1 L0,1 Z " fill="#646474" opacity="0.96862745" transform="translate(12,32)"/>
<path d="M0,0 L1,0 L1,2 L0,2 Z " fill="#C7B6FF" transform="translate(36,29)"/>
<path d="M0,0 L2,0 L2,1 L0,1 Z " fill="#67637D" transform="translate(33,30)"/>
<path d="M0,0 L1,0 L1,1 L0,1 Z " fill="#FFFFFF" opacity="0.8901961" transform="translate(59,29)"/>
<path d="M0,0 L1,0 L1,1 L0,1 Z " fill="#C0B0F6" opacity="0.81960785" transform="translate(47,29)"/>
<path d="M0,0 L2,0 L2,1 L0,1 Z " fill="#C8B7FF" transform="translate(43,29)"/>
<path d="M0,0 L1,0 L1,2 L0,2 Z " fill="#3D3C4C" transform="translate(28,28)"/>
<path d="M0,0 L2,0 L2,1 L0,1 Z " fill="#C8B8FF" transform="translate(22,29)"/>
<path d="M0,0 L1,0 L1,1 L0,1 Z " fill="#FFFFFF" opacity="0.8980392" transform="translate(4,29)"/>
<path d="M0,0 L1,0 L1,1 L0,1 Z " fill="#93939C" opacity="0.78039217" transform="translate(55,28)"/>
<path d="M0,0 L1,0 L1,1 L0,1 Z " fill="#60606F" opacity="0.78431374" transform="translate(51,28)"/>
<path d="M0,0 L1,0 L1,1 L0,1 Z " fill="#B3A6E4" opacity="0.7647059" transform="translate(16,28)"/>
<path d="M0,0 L1,0 L1,1 L0,1 Z " fill="#61616F" opacity="0.78431374" transform="translate(12,28)"/>
<path d="M0,0 L1,0 L1,1 L0,1 Z " fill="#91919C" opacity="0.78431374" transform="translate(8,28)"/>
<path d="M0,0 L1,0 L1,1 L0,1 Z " fill="#FFFFFF" opacity="0.63529414" transform="translate(59,27)"/>
<path d="M0,0 L1,0 L1,2 L0,2 Z " fill="#66637A" transform="translate(33,26)"/>
<path d="M0,0 L1,0 L1,1 L0,1 Z " fill="#FFFFFF" opacity="0.64705884" transform="translate(4,27)"/>
<path d="M0,0 L2,0 L2,1 L0,1 Z " fill="#403E4F" transform="translate(30,26)"/>
<path d="M0,0 L1,0 L1,1 L0,1 Z " fill="#C7B5FF" opacity="0.9764706" transform="translate(17,26)"/>
<path d="M0,0 L1,0 L1,1 L0,1 Z " fill="#FFFFFF" opacity="0.25882354" transform="translate(59,25)"/>
<path d="M0,0 L1,0 L1,1 L0,1 Z " fill="#4A4A5A" opacity="0.9882353" transform="translate(54,25)"/>
<path d="M0,0 L1,0 L1,1 L0,1 Z " fill="#656573" opacity="0.89411765" transform="translate(50,25)"/>
<path d="M0,0 L1,0 L1,1 L0,1 Z " fill="#656573" opacity="0.89411765" transform="translate(13,25)"/>
<path d="M0,0 L1,0 L1,1 L0,1 Z " fill="#4A4A5A" opacity="0.9882353" transform="translate(9,25)"/>
<path d="M0,0 L1,0 L1,1 L0,1 Z " fill="#FFFFFF" opacity="0.27450982" transform="translate(4,25)"/>
<path d="M0,0 L1,0 L1,1 L0,1 Z " fill="#D2C5FF" opacity="0.972549" transform="translate(45,24)"/>
<path d="M0,0 L1,0 L1,1 L0,1 Z " fill="#646474" opacity="0.96862745" transform="translate(49,23)"/>
<path d="M0,0 L2,0 L2,1 L0,1 Z " fill="#CCBCFF" transform="translate(22,23)"/>
<path d="M0,0 L1,0 L1,1 L0,1 Z " fill="#646474" opacity="0.96862745" transform="translate(14,23)"/>
<path d="M0,0 L1,0 L1,1 L0,1 Z " fill="#FFFFFF" opacity="0.38039216" transform="translate(58,22)"/>
<path d="M0,0 L1,0 L1,1 L0,1 Z " fill="#FFFFFF" opacity="0.4" transform="translate(5,22)"/>
<path d="M0,0 L1,0 L1,1 L0,1 Z " fill="#84848F" opacity="0.9490196" transform="translate(48,21)"/>
<path d="M0,0 L1,0 L1,1 L0,1 Z " fill="#FFFFFF" opacity="0.5764706" transform="translate(57,20)"/>
<path d="M0,0 L1,0 L1,2 L0,2 Z " fill="#CBBBFF" transform="translate(31,19)"/>
<path d="M0,0 L1,0 L1,1 L0,1 Z M-1,1 L0,1 L0,2 L-1,2 Z " fill="#C6B4FD" opacity="0.90588236" transform="translate(21,20)"/>
<path d="M0,0 L1,0 L1,1 L0,1 Z " fill="#FFFFFF" opacity="0.5921569" transform="translate(6,20)"/>
<path d="M0,0 L1,0 L1,2 L0,2 Z " fill="#6B6B78" transform="translate(47,17)"/>
<path d="M0,0 L1,0 L1,1 L0,1 Z " fill="#C7B5FF" opacity="0.9764706" transform="translate(24,18)"/>
<path d="M0,0 L1,0 L1,1 L0,1 Z " fill="#FFFFFF" opacity="0.5921569" transform="translate(7,18)"/>
<path d="M0,0 L1,0 L1,1 L0,1 Z " fill="#FFFFFF" opacity="0.9098039" transform="translate(55,17)"/>
<path d="M0,0 L1,0 L1,1 L0,1 Z M1,1 L2,1 L2,2 L1,2 Z " fill="#868692" opacity="0.8156863" transform="translate(45,17)"/>
<path d="M0,0 L1,0 L1,1 L0,1 Z " fill="#C7B5FF" opacity="0.9764706" transform="translate(26,17)"/>
<path d="M0,0 L1,0 L1,1 L0,1 Z M-1,1 L0,1 L0,2 L-1,2 Z " fill="#5F5F6D" opacity="0.76862746" transform="translate(18,17)"/>
<path d="M0,0 L1,0 L1,1 L0,1 Z " fill="#FFFFFF" opacity="0.92156863" transform="translate(8,17)"/>
<path d="M0,0 L1,0 L1,1 L0,1 Z " fill="#83838F" transform="translate(39,14)"/>
<path d="M0,0 L1,0 L1,1 L0,1 Z " fill="#9B97B1" transform="translate(38,14)"/>
<path d="M0,0 L1,0 L1,1 L0,1 Z M-1,1 L0,1 L0,2 L-1,2 Z " fill="#C8B8FF" transform="translate(34,14)"/>
<path d="M0,0 L1,0 L1,1 L0,1 Z " fill="#646474" opacity="0.96862745" transform="translate(23,14)"/>
<path d="M0,0 L1,0 L1,1 L0,1 Z M-1,1 L0,1 L0,2 L-1,2 Z " fill="#EAEAEC" opacity="0.7921569" transform="translate(15,14)"/>
<path d="M0,0 L2,0 L2,1 L0,1 Z " fill="#CFC1FF" transform="translate(36,13)"/>
<path d="M0,0 L1,0 L1,1 L0,1 Z " fill="#656573" opacity="0.89411765" transform="translate(25,13)"/>
<path d="M0,0 L2,0 L2,1 L0,1 Z " fill="#4C4C5C" transform="translate(38,12)"/>
<path d="M0,0 L1,0 L1,1 L0,1 Z " fill="#636373" opacity="0.8862745" transform="translate(30,12)"/>
<path d="M0,0 L1,0 L1,1 L0,1 Z M1,1 L2,1 L2,2 L1,2 Z " fill="#FFFFFF" opacity="0.12941177" transform="translate(51,11)"/>
<path d="M0,0 L1,0 L1,1 L0,1 Z " fill="#FFFFFF" opacity="0.9764706" transform="translate(45,11)"/>
<path d="M0,0 L1,0 L1,1 L0,1 Z M-1,1 L0,1 L0,2 L-1,2 Z " fill="#FFFFFF" opacity="0.14117648" transform="translate(12,11)"/>
<path d="M0,0 L1,0 L1,1 L0,1 Z " fill="#FFFFFF" opacity="0.94509804" transform="translate(43,10)"/>
<path d="M0,0 L1,0 L1,1 L0,1 Z " fill="#FDFDFD" opacity="0.90588236" transform="translate(41,9)"/>
<path d="M0,0 L1,0 L1,1 L0,1 Z " fill="#4A4A5A" opacity="0.9882353" transform="translate(25,9)"/>
<path d="M0,0 L1,0 L1,1 L0,1 Z " fill="#FFFFFF" opacity="0.6156863" transform="translate(15,9)"/>
<path d="M0,0 L1,0 L1,1 L0,1 Z " fill="#FEFEFE" opacity="0.94509804" transform="translate(38,8)"/>
<path d="M0,0 L1,0 L1,1 L0,1 Z " fill="#91919C" opacity="0.78431374" transform="translate(28,8)"/>
<path d="M0,0 L1,0 L1,1 L0,1 Z " fill="#FFFFFF" opacity="0.5921569" transform="translate(18,7)"/>
<path d="M0,0 L1,0 L1,1 L0,1 Z " fill="#FFFFFF" opacity="0.5921569" transform="translate(20,6)"/>
<path d="M0,0 L1,0 L1,1 L0,1 Z " fill="#FFFFFF" opacity="0.05882353" transform="translate(42,5)"/>
<path d="M0,0 L1,0 L1,1 L0,1 Z " fill="#FFFFFF" opacity="0.4" transform="translate(22,5)"/>
<path d="M0,0 L1,0 L1,1 L0,1 Z " fill="#FFFFFF" opacity="0.039215688" transform="translate(39,4)"/>
<path d="M0,0 L1,0 L1,1 L0,1 Z " fill="#FFFFFF" opacity="0.49019608" transform="translate(37,4)"/>
<path d="M0,0 L1,0 L1,1 L0,1 Z " fill="#FFFFFF" opacity="0.8980392" transform="translate(29,4)"/>
<path d="M0,0 L1,0 L1,1 L0,1 Z " fill="#FFFFFF" opacity="0.27450982" transform="translate(25,4)"/>
<path d="M0,0 L1,0 L1,1 L0,1 Z " fill="#FFFFFF" opacity="0.25882354" transform="translate(38,59)"/>
<path d="M0,0 L1,0 L1,1 L0,1 Z " fill="#FFFFFF" opacity="0.6392157" transform="translate(36,59)"/>
<path d="M0,0 L1,0 L1,1 L0,1 Z " fill="#FFFFFF" opacity="0.78039217" transform="translate(35,59)"/>
<path d="M0,0 L1,0 L1,1 L0,1 Z " fill="#FFFFFF" opacity="0.93333334" transform="translate(33,59)"/>
<path d="M0,0 L1,0 L1,1 L0,1 Z " fill="#FFFFFF" opacity="0.9843137" transform="translate(31,59)"/>
<path d="M0,0 L1,0 L1,1 L0,1 Z " fill="#FFFFFF" opacity="0.93333334" transform="translate(30,59)"/>
<path d="M0,0 L1,0 L1,1 L0,1 Z " fill="#FFFFFF" opacity="0.78039217" transform="translate(28,59)"/>
<path d="M0,0 L1,0 L1,1 L0,1 Z " fill="#FFFFFF" opacity="0.4862745" transform="translate(26,59)"/>
<path d="M0,0 L1,0 L1,1 L0,1 Z " fill="#FFFFFF" opacity="0.039215688" transform="translate(24,59)"/>
<path d="M0,0 L1,0 L1,1 L0,1 Z " fill="#FFFFFF" opacity="0.38431373" transform="translate(41,58)"/>
<path d="M0,0 L1,0 L1,1 L0,1 Z " fill="#FFFFFF" opacity="0.7372549" transform="translate(40,58)"/>
<path d="M0,0 L1,0 L1,1 L0,1 Z " fill="#FFFFFF" opacity="0.98039216" transform="translate(39,58)"/>
<path d="M0,0 L1,0 L1,1 L0,1 Z " fill="#FFFFFF" opacity="0.7372549" transform="translate(23,58)"/>
<path d="M0,0 L1,0 L1,1 L0,1 Z " fill="#FFFFFF" opacity="0.0627451" transform="translate(21,58)"/>
<path d="M0,0 L1,0 L1,1 L0,1 Z " fill="#FFFFFF" opacity="0.1254902" transform="translate(44,57)"/>
<path d="M0,0 L1,0 L1,1 L0,1 Z " fill="#FFFFFF" opacity="0.5882353" transform="translate(43,57)"/>
<path d="M0,0 L1,0 L1,1 L0,1 Z " fill="#FFFFFF" opacity="0.972549" transform="translate(42,57)"/>
<path d="M0,0 L1,0 L1,1 L0,1 Z " fill="#FFFFFF" opacity="0.96862745" transform="translate(21,57)"/>
<path d="M0,0 L1,0 L1,1 L0,1 Z " fill="#FFFFFF" opacity="0.11764706" transform="translate(19,57)"/>
<path d="M0,0 L1,0 L1,1 L0,1 Z " fill="#FFFFFF" opacity="0.06666667" transform="translate(46,56)"/>
<path d="M0,0 L1,0 L1,1 L0,1 Z " fill="#FFFFFF" opacity="0.58431375" transform="translate(45,56)"/>
<path d="M0,0 L1,0 L1,1 L0,1 Z " fill="#FFFFFF" opacity="0.9882353" transform="translate(44,56)"/>
<path d="M0,0 L1,0 L1,1 L0,1 Z " fill="#FFFFFF" opacity="0.9843137" transform="translate(19,56)"/>
<path d="M0,0 L1,0 L1,1 L0,1 Z " fill="#FFFFFF" opacity="0.05882353" transform="translate(17,56)"/>
<path d="M0,0 L1,0 L1,1 L0,1 Z " fill="#FFFFFF" opacity="0.3529412" transform="translate(47,55)"/>
<path d="M0,0 L1,0 L1,1 L0,1 Z " fill="#FFFFFF" opacity="0.91764706" transform="translate(46,55)"/>
<path d="M0,0 L1,0 L1,1 L0,1 Z " fill="#E4E4E7" opacity="0.7764706" transform="translate(37,55)"/>
<path d="M0,0 L1,0 L1,1 L0,1 Z " fill="#8A8A94" opacity="0.8" transform="translate(35,55)"/>
<path d="M0,0 L1,0 L1,1 L0,1 Z " fill="#656572" opacity="0.88235295" transform="translate(34,55)"/>
<path d="M0,0 L1,0 L1,1 L0,1 Z " fill="#555565" opacity="0.92941177" transform="translate(33,55)"/>
<path d="M0,0 L1,0 L1,1 L0,1 Z " fill="#4A4A5A" opacity="0.9882353" transform="translate(32,55)"/>
<path d="M0,0 L1,0 L1,1 L0,1 Z " fill="#585867" opacity="0.92156863" transform="translate(30,55)"/>
<path d="M0,0 L1,0 L1,1 L0,1 Z " fill="#8E8E98" opacity="0.7882353" transform="translate(28,55)"/>
<path d="M0,0 L1,0 L1,1 L0,1 Z " fill="#E2E2E4" opacity="0.7764706" transform="translate(26,55)"/>
<path d="M0,0 L1,0 L1,1 L0,1 Z " fill="#FCFCFC" opacity="0.88235295" transform="translate(25,55)"/>
<path d="M0,0 L1,0 L1,1 L0,1 Z " fill="#FFFFFF" opacity="0.33333334" transform="translate(16,55)"/>
<path d="M0,0 L1,0 L1,1 L0,1 Z " fill="#FFFFFF" opacity="0.039215688" transform="translate(49,54)"/>
<path d="M0,0 L1,0 L1,1 L0,1 Z " fill="#FFFFFF" opacity="0.6156863" transform="translate(48,54)"/>
<path d="M0,0 L1,0 L1,1 L0,1 Z " fill="#CECED2" opacity="0.75686276" transform="translate(40,54)"/>
<path d="M0,0 L1,0 L1,1 L0,1 Z " fill="#747481" opacity="0.8392157" transform="translate(39,54)"/>
<path d="M0,0 L1,0 L1,1 L0,1 Z " fill="#747481" opacity="0.8352941" transform="translate(24,54)"/>
<path d="M0,0 L1,0 L1,1 L0,1 Z " fill="#D0D0D5" opacity="0.75686276" transform="translate(23,54)"/>
<path d="M0,0 L1,0 L1,1 L0,1 Z " fill="#FDFDFD" opacity="0.9137255" transform="translate(22,54)"/>
<path d="M0,0 L1,0 L1,1 L0,1 Z " fill="#FFFFFF" opacity="0.5921569" transform="translate(15,54)"/>
<path d="M0,0 L1,0 L1,1 L0,1 Z " fill="#FFFFFF" opacity="0.03137255" transform="translate(14,54)"/>
<path d="M0,0 L1,0 L1,1 L0,1 Z " fill="#FFFFFF" opacity="0.105882354" transform="translate(50,53)"/>
<path d="M0,0 L1,0 L1,1 L0,1 Z " fill="#FFFFFF" opacity="0.81960785" transform="translate(49,53)"/>
<path d="M0,0 L1,0 L1,1 L0,1 Z " fill="#A6A6AE" opacity="0.7647059" transform="translate(42,53)"/>
<path d="M0,0 L1,0 L1,1 L0,1 Z " fill="#48485A" opacity="0.99215686" transform="translate(41,53)"/>
<path d="M0,0 L1,0 L1,1 L0,1 Z " fill="#4A4A5A" opacity="0.9882353" transform="translate(22,53)"/>
<path d="M0,0 L1,0 L1,1 L0,1 Z " fill="#ABABB3" opacity="0.7607843" transform="translate(21,53)"/>
<path d="M0,0 L1,0 L1,1 L0,1 Z " fill="#FEFEFE" opacity="0.92156863" transform="translate(20,53)"/>
<path d="M0,0 L1,0 L1,1 L0,1 Z " fill="#FFFFFF" opacity="0.09019608" transform="translate(13,53)"/>
<path d="M0,0 L1,0 L1,1 L0,1 Z " fill="#FFFFFF" opacity="0.8784314" transform="translate(50,52)"/>
<path d="M0,0 L1,0 L1,1 L0,1 Z " fill="#FFFFFF" opacity="0.9764706" transform="translate(45,52)"/>
<path d="M0,0 L1,0 L1,1 L0,1 Z " fill="#C4C4C9" opacity="0.7529412" transform="translate(44,52)"/>
<path d="M0,0 L1,0 L1,1 L0,1 Z " fill="#4F4F60" opacity="0.95686275" transform="translate(43,52)"/>
<path d="M0,0 L1,0 L1,1 L0,1 Z " fill="#515160" opacity="0.9529412" transform="translate(20,52)"/>
<path d="M0,0 L1,0 L1,1 L0,1 Z " fill="#C8C8CD" opacity="0.7529412" transform="translate(19,52)"/>
<path d="M0,0 L1,0 L1,1 L0,1 Z " fill="#FFFFFF" opacity="0.98039216" transform="translate(18,52)"/>
<path d="M0,0 L1,0 L1,1 L0,1 Z " fill="#FFFFFF" opacity="0.8627451" transform="translate(13,52)"/>
<path d="M0,0 L1,0 L1,1 L0,1 Z " fill="#FFFFFF" opacity="0.91764706" transform="translate(51,51)"/>
<path d="M0,0 L1,0 L1,1 L0,1 Z " fill="#FDFDFD" opacity="0.89411765" transform="translate(46,51)"/>
<path d="M0,0 L1,0 L1,1 L0,1 Z " fill="#747481" opacity="0.8392157" transform="translate(45,51)"/>
<path d="M0,0 L1,0 L1,1 L0,1 Z " fill="#615D7B" opacity="0.85490197" transform="translate(37,51)"/>
<path d="M0,0 L1,0 L1,1 L0,1 Z " fill="#988DC2" opacity="0.7529412" transform="translate(36,51)"/>
<path d="M0,0 L1,0 L1,1 L0,1 Z " fill="#BEAEF3" opacity="0.8235294" transform="translate(34,51)"/>
<path d="M0,0 L1,0 L1,1 L0,1 Z " fill="#C3B3FB" opacity="0.88235295" transform="translate(33,51)"/>
<path d="M0,0 L1,0 L1,1 L0,1 Z " fill="#C7B5FF" opacity="0.9607843" transform="translate(31,51)"/>
<path d="M0,0 L1,0 L1,1 L0,1 Z " fill="#BEAEF3" opacity="0.8235294" transform="translate(29,51)"/>
<path d="M0,0 L1,0 L1,1 L0,1 Z " fill="#968CC1" opacity="0.7529412" transform="translate(27,51)"/>
<path d="M0,0 L1,0 L1,1 L0,1 Z " fill="#615D7A" opacity="0.85882354" transform="translate(26,51)"/>
<path d="M0,0 L1,0 L1,1 L0,1 Z " fill="#767683" opacity="0.8352941" transform="translate(18,51)"/>
<path d="M0,0 L1,0 L1,1 L0,1 Z " fill="#FCFCFD" opacity="0.90588236" transform="translate(17,51)"/>
<path d="M0,0 L1,0 L1,1 L0,1 Z " fill="#FFFFFF" opacity="0.8980392" transform="translate(12,51)"/>
<path d="M0,0 L1,0 L1,1 L0,1 Z " fill="#FFFFFF" opacity="0.105882354" transform="translate(53,50)"/>
<path d="M0,0 L1,0 L1,1 L0,1 Z " fill="#FFFFFF" opacity="0.8784314" transform="translate(52,50)"/>
<path d="M0,0 L1,0 L1,1 L0,1 Z " fill="#EDEDEF" opacity="0.8" transform="translate(47,50)"/>
<path d="M0,0 L1,0 L1,1 L0,1 Z " fill="#555564" opacity="0.9372549" transform="translate(46,50)"/>
<path d="M0,0 L1,0 L1,1 L0,1 Z " fill="#57546E" opacity="0.8980392" transform="translate(40,50)"/>
<path d="M0,0 L1,0 L1,1 L0,1 Z " fill="#A89BD8" opacity="0.75686276" transform="translate(39,50)"/>
<path d="M0,0 L1,0 L1,1 L0,1 Z " fill="#C4B3FD" opacity="0.8980392" transform="translate(38,50)"/>
<path d="M0,0 L1,0 L1,1 L0,1 Z " fill="#A799D5" opacity="0.75686276" transform="translate(24,50)"/>
<path d="M0,0 L1,0 L1,1 L0,1 Z " fill="#56546C" opacity="0.90588236" transform="translate(23,50)"/>
<path d="M0,0 L1,0 L1,1 L0,1 Z " fill="#595967" opacity="0.92156863" transform="translate(17,50)"/>
<path d="M0,0 L1,0 L1,1 L0,1 Z " fill="#F1F1F2" opacity="0.8156863" transform="translate(16,50)"/>
<path d="M0,0 L1,0 L1,1 L0,1 Z " fill="#FFFFFF" opacity="0.85882354" transform="translate(11,50)"/>
<path d="M0,0 L1,0 L1,1 L0,1 Z " fill="#FFFFFF" opacity="0.08627451" transform="translate(10,50)"/>
<path d="M0,0 L1,0 L1,1 L0,1 Z " fill="#FFFFFF" opacity="0.039215688" transform="translate(54,49)"/>
<path d="M0,0 L1,0 L1,1 L0,1 Z " fill="#FFFFFF" opacity="0.81960785" transform="translate(53,49)"/>
<path d="M0,0 L1,0 L1,1 L0,1 Z " fill="#CECED4" opacity="0.7529412" transform="translate(48,49)"/>
<path d="M0,0 L1,0 L1,1 L0,1 Z " fill="#484858" opacity="0.99607843" transform="translate(47,49)"/>
<path d="M0,0 L1,0 L1,1 L0,1 Z " fill="#504E64" opacity="0.9411765" transform="translate(42,49)"/>
<path d="M0,0 L1,0 L1,1 L0,1 Z " fill="#A397D1" opacity="0.75686276" transform="translate(41,49)"/>
<path d="M0,0 L1,0 L1,1 L0,1 Z " fill="#C7B5FF" opacity="0.9764706" transform="translate(40,49)"/>
<path d="M0,0 L1,0 L1,1 L0,1 Z " fill="#A195CE" opacity="0.7529412" transform="translate(22,49)"/>
<path d="M0,0 L1,0 L1,1 L0,1 Z " fill="#4F4E62" opacity="0.94509804" transform="translate(21,49)"/>
<path d="M0,0 L1,0 L1,1 L0,1 Z " fill="#48485A" opacity="0.99215686" transform="translate(16,49)"/>
<path d="M0,0 L1,0 L1,1 L0,1 Z " fill="#DCDCDF" opacity="0.76862746" transform="translate(15,49)"/>
<path d="M0,0 L1,0 L1,1 L0,1 Z " fill="#FFFFFF" opacity="0.03137255" transform="translate(9,49)"/>
<path d="M0,0 L1,0 L1,1 L0,1 Z " fill="#FFFFFF" opacity="0.6156863" transform="translate(54,48)"/>
<path d="M0,0 L1,0 L1,1 L0,1 Z " fill="#D5D5D9" opacity="0.7607843" transform="translate(49,48)"/>
<path d="M0,0 L1,0 L1,1 L0,1 Z " fill="#7F77A0" opacity="0.78039217" transform="translate(43,48)"/>
<path d="M0,0 L1,0 L1,1 L0,1 Z " fill="#C6B5FE" opacity="0.94509804" transform="translate(42,48)"/>
<path d="M0,0 L1,0 L1,1 L0,1 Z " fill="#C6B5FE" opacity="0.9372549" transform="translate(21,48)"/>
<path d="M0,0 L1,0 L1,1 L0,1 Z " fill="#7A749C" opacity="0.78431374" transform="translate(20,48)"/>
<path d="M0,0 L1,0 L1,1 L0,1 Z " fill="#484859" transform="translate(15,48)"/>
<path d="M0,0 L1,0 L1,1 L0,1 Z " fill="#E6E6E8" opacity="0.78039217" transform="translate(14,48)"/>
<path d="M0,0 L1,0 L1,1 L0,1 Z " fill="#FFFFFF" opacity="0.5882353" transform="translate(9,48)"/>
<path d="M0,0 L1,0 L1,1 L0,1 Z " fill="#FFFFFF" opacity="0.3529412" transform="translate(55,47)"/>
<path d="M0,0 L1,0 L1,1 L0,1 Z " fill="#F1F1F2" opacity="0.8156863" transform="translate(50,47)"/>
<path d="M0,0 L1,0 L1,1 L0,1 Z " fill="#4A4A5A" opacity="0.9882353" transform="translate(49,47)"/>
<path d="M0,0 L1,0 L1,1 L0,1 Z " fill="#484859" transform="translate(45,47)"/>
<path d="M0,0 L1,0 L1,1 L0,1 Z " fill="#9D91C8" opacity="0.7529412" transform="translate(44,47)"/>
<path d="M0,0 L1,0 L1,1 L0,1 Z " fill="#998EC2" opacity="0.7529412" transform="translate(19,47)"/>
<path d="M0,0 L1,0 L1,1 L0,1 Z " fill="#4F4F5E" opacity="0.9647059" transform="translate(14,47)"/>
<path d="M0,0 L1,0 L1,1 L0,1 Z " fill="#F6F6F7" opacity="0.84313726" transform="translate(13,47)"/>
<path d="M0,0 L1,0 L1,1 L0,1 Z " fill="#FFFFFF" opacity="0.32941177" transform="translate(8,47)"/>
<path d="M0,0 L1,0 L1,1 L0,1 Z " fill="#FFFFFF" opacity="0.06666667" transform="translate(56,46)"/>
<path d="M0,0 L1,0 L1,1 L0,1 Z " fill="#FFFFFF" opacity="0.91764706" transform="translate(55,46)"/>
<path d="M0,0 L1,0 L1,1 L0,1 Z " fill="#FCFCFC" opacity="0.8862745" transform="translate(51,46)"/>
<path d="M0,0 L1,0 L1,1 L0,1 Z " fill="#565665" opacity="0.93333334" transform="translate(50,46)"/>
<path d="M0,0 L1,0 L1,1 L0,1 Z " fill="#4B4A5E" opacity="0.96862745" transform="translate(46,46)"/>
<path d="M0,0 L1,0 L1,1 L0,1 Z " fill="#B4A5E7" opacity="0.78039217" transform="translate(45,46)"/>
<path d="M0,0 L1,0 L1,1 L0,1 Z " fill="#B2A3E4" opacity="0.77254903" transform="translate(18,46)"/>
<path d="M0,0 L1,0 L1,1 L0,1 Z " fill="#4A4A5C" opacity="0.9764706" transform="translate(17,46)"/>
<path d="M0,0 L1,0 L1,1 L0,1 Z " fill="#5C5C6B" opacity="0.9098039" transform="translate(13,46)"/>
<path d="M0,0 L1,0 L1,1 L0,1 Z " fill="#FDFDFD" opacity="0.90588236" transform="translate(12,46)"/>
<path d="M0,0 L1,0 L1,1 L0,1 Z " fill="#FFFFFF" opacity="0.90588236" transform="translate(8,46)"/>
<path d="M0,0 L1,0 L1,1 L0,1 Z " fill="#FFFFFF" opacity="0.05882353" transform="translate(7,46)"/>
<path d="M0,0 L1,0 L1,1 L0,1 Z " fill="#FFFFFF" opacity="0.58431375" transform="translate(56,45)"/>
<path d="M0,0 L1,0 L1,1 L0,1 Z " fill="#FFFFFF" opacity="0.9647059" transform="translate(52,45)"/>
<path d="M0,0 L1,0 L1,1 L0,1 Z " fill="#6B6B79" opacity="0.8627451" transform="translate(51,45)"/>
<path d="M0,0 L1,0 L1,1 L0,1 Z " fill="#47475A" opacity="0.99215686" transform="translate(47,45)"/>
<path d="M0,0 L1,0 L1,1 L0,1 Z " fill="#B7A8EB" opacity="0.7921569" transform="translate(46,45)"/>
<path d="M0,0 L1,0 L1,1 L0,1 Z " fill="#B4A5E7" opacity="0.78039217" transform="translate(17,45)"/>
<path d="M0,0 L1,0 L1,1 L0,1 Z " fill="#484859" transform="translate(16,45)"/>
<path d="M0,0 L1,0 L1,1 L0,1 Z " fill="#73737F" opacity="0.84313726" transform="translate(12,45)"/>
<path d="M0,0 L1,0 L1,1 L0,1 Z " fill="#FFFFFF" opacity="0.9764706" transform="translate(11,45)"/>
<path d="M0,0 L1,0 L1,1 L0,1 Z " fill="#FFFFFF" opacity="0.57254905" transform="translate(7,45)"/>
<path d="M0,0 L1,0 L1,1 L0,1 Z " fill="#FFFFFF" opacity="0.1254902" transform="translate(57,44)"/>
<path d="M0,0 L1,0 L1,1 L0,1 Z " fill="#FFFFFF" opacity="0.9882353" transform="translate(56,44)"/>
<path d="M0,0 L1,0 L1,1 L0,1 Z " fill="#C8C8CD" opacity="0.7529412" transform="translate(52,44)"/>
<path d="M0,0 L1,0 L1,1 L0,1 Z " fill="#464657" transform="translate(48,44)"/>
<path d="M0,0 L1,0 L1,1 L0,1 Z " fill="#AB9EDC" opacity="0.7607843" transform="translate(47,44)"/>
<path d="M0,0 L1,0 L1,1 L0,1 Z " fill="#C5B4FE" transform="translate(34,44)"/>
<path d="M0,0 L1,0 L1,1 L0,1 Z " fill="#A191DA" transform="translate(33,44)"/>
<path d="M0,0 L1,0 L1,1 L0,1 Z " fill="#8A7AC3" transform="translate(32,44)"/>
<path d="M0,0 L1,0 L1,1 L0,1 Z " fill="#A191DA" transform="translate(30,44)"/>
<path d="M0,0 L1,0 L1,1 L0,1 Z " fill="#C5B4FD" transform="translate(29,44)"/>
<path d="M0,0 L1,0 L1,1 L0,1 Z " fill="#A599D5" opacity="0.7529412" transform="translate(16,44)"/>
<path d="M0,0 L1,0 L1,1 L0,1 Z " fill="#CECED2" opacity="0.75686276" transform="translate(11,44)"/>
<path d="M0,0 L1,0 L1,1 L0,1 Z " fill="#FFFFFF" opacity="0.11764706" transform="translate(6,44)"/>
<path d="M0,0 L1,0 L1,1 L0,1 Z " fill="#FFFFFF" opacity="0.5882353" transform="translate(57,43)"/>
<path d="M0,0 L1,0 L1,1 L0,1 Z " fill="#525262" opacity="0.94509804" transform="translate(52,43)"/>
<path d="M0,0 L1,0 L1,1 L0,1 Z " fill="#525263" opacity="0.7764706" transform="translate(48,43)"/>
<path d="M0,0 L1,0 L1,1 L0,1 Z " fill="#7161AA" transform="translate(33,43)"/>
<path d="M0,0 L1,0 L1,1 L0,1 Z " fill="#7868B1" transform="translate(32,43)"/>
<path d="M0,0 L1,0 L1,1 L0,1 Z " fill="#7161AA" transform="translate(30,43)"/>
<path d="M0,0 L1,0 L1,1 L0,1 Z " fill="#535362" opacity="0.78431374" transform="translate(15,43)"/>
<path d="M0,0 L1,0 L1,1 L0,1 Z " fill="#555564" opacity="0.9372549" transform="translate(11,43)"/>
<path d="M0,0 L1,0 L1,1 L0,1 Z " fill="#FFFFFF" opacity="0.5803922" transform="translate(6,43)"/>
<path d="M0,0 L1,0 L1,1 L0,1 Z " fill="#FFFFFF" opacity="0.972549" transform="translate(57,42)"/>
<path d="M0,0 L1,0 L1,1 L0,1 Z " fill="#B4B4BC" opacity="0.7529412" transform="translate(53,42)"/>
<path d="M0,0 L1,0 L1,1 L0,1 Z " fill="#494959" opacity="0.93333334" transform="translate(49,42)"/>
<path d="M0,0 L1,0 L1,1 L0,1 Z " fill="#646472" opacity="0.9254902" transform="translate(48,42)"/>
<path d="M0,0 L1,0 L1,1 L0,1 Z " fill="#BFAEF8" transform="translate(35,42)"/>
<path d="M0,0 L1,0 L1,1 L0,1 Z " fill="#7867B0" transform="translate(34,42)"/>
<path d="M0,0 L1,0 L1,1 L0,1 Z " fill="#9F8FD8" transform="translate(33,42)"/>
<path d="M0,0 L1,0 L1,1 L0,1 Z " fill="#9D8DD7" transform="translate(30,42)"/>
<path d="M0,0 L1,0 L1,1 L0,1 Z " fill="#7868B1" transform="translate(29,42)"/>
<path d="M0,0 L1,0 L1,1 L0,1 Z " fill="#BFAEF8" transform="translate(28,42)"/>
<path d="M0,0 L1,0 L1,1 L0,1 Z " fill="#646473" opacity="0.92156863" transform="translate(15,42)"/>
<path d="M0,0 L1,0 L1,1 L0,1 Z " fill="#484859" opacity="0.9372549" transform="translate(14,42)"/>
<path d="M0,0 L1,0 L1,1 L0,1 Z " fill="#B9B9C0" opacity="0.7529412" transform="translate(10,42)"/>
<path d="M0,0 L1,0 L1,1 L0,1 Z " fill="#FFFFFF" opacity="0.96862745" transform="translate(6,42)"/>
<path d="M0,0 L1,0 L1,1 L0,1 Z " fill="#FFFFFF" opacity="0.38431373" transform="translate(58,41)"/>
<path d="M0,0 L1,0 L1,1 L0,1 Z " fill="#4C4C5C" opacity="0.9764706" transform="translate(53,41)"/>
<path d="M0,0 L1,0 L1,1 L0,1 Z " fill="#5E5E6F" opacity="0.76862746" transform="translate(49,41)"/>
<path d="M0,0 L1,0 L1,1 L0,1 Z " fill="#656574" transform="translate(48,41)"/>
<path d="M0,0 L1,0 L1,1 L0,1 Z " fill="#B2A4E5" transform="translate(38,41)"/>
<path d="M0,0 L1,0 L1,1 L0,1 Z " fill="#C2B1F8" transform="translate(37,41)"/>
<path d="M0,0 L1,0 L1,1 L0,1 Z " fill="#B2A3E4" transform="translate(25,41)"/>
<path d="M0,0 L1,0 L1,1 L0,1 Z " fill="#C4B4FC" transform="translate(24,41)"/>
<path d="M0,0 L1,0 L1,1 L0,1 Z " fill="#656574" transform="translate(15,41)"/>
<path d="M0,0 L1,0 L1,1 L0,1 Z " fill="#5F5F6D" opacity="0.76862746" transform="translate(14,41)"/>
<path d="M0,0 L1,0 L1,1 L0,1 Z " fill="#4D4D5D" opacity="0.972549" transform="translate(10,41)"/>
<path d="M0,0 L1,0 L1,1 L0,1 Z " fill="#FFFFFF" opacity="0.38431373" transform="translate(5,41)"/>
<path d="M0,0 L1,0 L1,1 L0,1 Z " fill="#FFFFFF" opacity="0.7372549" transform="translate(58,40)"/>
<path d="M0,0 L1,0 L1,1 L0,1 Z " fill="#CCCCD1" opacity="0.7529412" transform="translate(54,40)"/>
<path d="M0,0 L1,0 L1,1 L0,1 Z " fill="#49495B" opacity="0.8980392" transform="translate(50,40)"/>
<path d="M0,0 L1,0 L1,1 L0,1 Z " fill="#656574" opacity="0.99215686" transform="translate(49,40)"/>
<path d="M0,0 L1,0 L1,1 L0,1 Z " fill="#8077A3" transform="translate(40,40)"/>
<path d="M0,0 L1,0 L1,1 L0,1 Z " fill="#3A3A47" transform="translate(39,40)"/>
<path d="M0,0 L1,0 L1,1 L0,1 Z " fill="#373643" transform="translate(37,40)"/>
<path d="M0,0 L1,0 L1,1 L0,1 Z " fill="#666081" transform="translate(36,40)"/>
<path d="M0,0 L1,0 L1,1 L0,1 Z " fill="#BCACF1" transform="translate(35,40)"/>
<path d="M0,0 L1,0 L1,1 L0,1 Z " fill="#BFAFF4" transform="translate(28,40)"/>
<path d="M0,0 L1,0 L1,1 L0,1 Z " fill="#6C6589" transform="translate(27,40)"/>
<path d="M0,0 L1,0 L1,1 L0,1 Z " fill="#373743" transform="translate(26,40)"/>
<path d="M0,0 L1,0 L1,1 L0,1 Z " fill="#393946" transform="translate(24,40)"/>
<path d="M0,0 L1,0 L1,1 L0,1 Z " fill="#7A729C" transform="translate(23,40)"/>
<path d="M0,0 L1,0 L1,1 L0,1 Z " fill="#C3B2FA" transform="translate(22,40)"/>
<path d="M0,0 L1,0 L1,1 L0,1 Z " fill="#656574" opacity="0.99215686" transform="translate(14,40)"/>
<path d="M0,0 L1,0 L1,1 L0,1 Z " fill="#49495B" opacity="0.8980392" transform="translate(13,40)"/>
<path d="M0,0 L1,0 L1,1 L0,1 Z " fill="#CECED2" opacity="0.75686276" transform="translate(9,40)"/>
<path d="M0,0 L1,0 L1,1 L0,1 Z " fill="#FFFFFF" opacity="0.7372549" transform="translate(5,40)"/>
<path d="M0,0 L1,0 L1,1 L0,1 Z " fill="#FFFFFF" opacity="0.98039216" transform="translate(58,39)"/>
<path d="M0,0 L1,0 L1,1 L0,1 Z " fill="#7D7D89" opacity="0.8156863" transform="translate(54,39)"/>
<path d="M0,0 L1,0 L1,1 L0,1 Z " fill="#5C5C6C" opacity="0.7529412" transform="translate(50,39)"/>
<path d="M0,0 L1,0 L1,1 L0,1 Z " fill="#776F98" transform="translate(41,39)"/>
<path d="M0,0 L1,0 L1,1 L0,1 Z " fill="#4E4B62" transform="translate(35,39)"/>
<path d="M0,0 L1,0 L1,1 L0,1 Z " fill="#C3B2FA" transform="translate(34,39)"/>
<path d="M0,0 L1,0 L1,1 L0,1 Z " fill="#C5B4FD" transform="translate(29,39)"/>
<path d="M0,0 L1,0 L1,1 L0,1 Z " fill="#5B5772" transform="translate(28,39)"/>
<path d="M0,0 L1,0 L1,1 L0,1 Z " fill="#6F688D" transform="translate(22,39)"/>
<path d="M0,0 L1,0 L1,1 L0,1 Z " fill="#5D5D6C" opacity="0.7529412" transform="translate(13,39)"/>
<path d="M0,0 L1,0 L1,1 L0,1 Z " fill="#80808C" opacity="0.8156863" transform="translate(9,39)"/>
<path d="M0,0 L1,0 L1,1 L0,1 Z " fill="#FFFFFF" opacity="0.98039216" transform="translate(5,39)"/>
<path d="M0,0 L1,0 L1,1 L0,1 Z " fill="#FFFFFF" opacity="0.25882354" transform="translate(59,38)"/>
<path d="M0,0 L1,0 L1,1 L0,1 Z " fill="#4A4A5A" opacity="0.9882353" transform="translate(54,38)"/>
<path d="M0,0 L1,0 L1,1 L0,1 Z " fill="#464657" opacity="0.9843137" transform="translate(51,38)"/>
<path d="M0,0 L1,0 L1,1 L0,1 Z " fill="#646473" opacity="0.9372549" transform="translate(50,38)"/>
<path d="M0,0 L1,0 L1,1 L0,1 Z " fill="#B4A5E7" transform="translate(42,38)"/>
<path d="M0,0 L1,0 L1,1 L0,1 Z " fill="#9388BB" transform="translate(34,38)"/>
<path d="M0,0 L1,0 L1,1 L0,1 Z " fill="#988DC3" transform="translate(29,38)"/>
<path d="M0,0 L1,0 L1,1 L0,1 Z " fill="#B1A2E2" transform="translate(21,38)"/>
<path d="M0,0 L1,0 L1,1 L0,1 Z " fill="#646473" opacity="0.9411765" transform="translate(13,38)"/>
<path d="M0,0 L1,0 L1,1 L0,1 Z " fill="#474758" opacity="0.98039216" transform="translate(12,38)"/>
<path d="M0,0 L1,0 L1,1 L0,1 Z " fill="#4A4A5A" opacity="0.9882353" transform="translate(9,38)"/>
<path d="M0,0 L1,0 L1,1 L0,1 Z " fill="#FFFFFF" opacity="0.2627451" transform="translate(4,38)"/>
<path d="M0,0 L1,0 L1,1 L0,1 Z " fill="#FFFFFF" opacity="0.49019608" transform="translate(59,37)"/>
<path d="M0,0 L1,0 L1,1 L0,1 Z " fill="#E3E3E6" opacity="0.7764706" transform="translate(55,37)"/>
<path d="M0,0 L1,0 L1,1 L0,1 Z " fill="#4D4D5E" opacity="0.83137256" transform="translate(51,37)"/>
<path d="M0,0 L1,0 L1,1 L0,1 Z " fill="#4A485C" transform="translate(41,37)"/>
<path d="M0,0 L1,0 L1,1 L0,1 Z " fill="#686677" transform="translate(39,37)"/>
<path d="M0,0 L1,0 L1,1 L0,1 Z " fill="#4C4B5D" transform="translate(38,37)"/>
<path d="M0,0 L1,0 L1,1 L0,1 Z " fill="#5B586F" transform="translate(28,37)"/>
<path d="M0,0 L1,0 L1,1 L0,1 Z " fill="#6D6A7F" transform="translate(26,37)"/>
<path d="M0,0 L1,0 L1,1 L0,1 Z " fill="#3D3C4B" transform="translate(25,37)"/>
<path d="M0,0 L1,0 L1,1 L0,1 Z " fill="#E2E2E4" opacity="0.7764706" transform="translate(8,37)"/>
<path d="M0,0 L1,0 L1,1 L0,1 Z " fill="#FFFFFF" opacity="0.49019608" transform="translate(4,37)"/>
<path d="M0,0 L1,0 L1,1 L0,1 Z " fill="#ACACB4" opacity="0.7607843" transform="translate(55,36)"/>
<path d="M0,0 L1,0 L1,1 L0,1 Z " fill="#585868" opacity="0.7529412" transform="translate(51,36)"/>
<path d="M0,0 L1,0 L1,1 L0,1 Z " fill="#A094CE" transform="translate(42,36)"/>
<path d="M0,0 L1,0 L1,1 L0,1 Z " fill="#6D6983" transform="translate(41,36)"/>
<path d="M0,0 L1,0 L1,1 L0,1 Z " fill="#5D5D67" transform="translate(39,36)"/>
<path d="M0,0 L1,0 L1,1 L0,1 Z " fill="#6E6A84" transform="translate(38,36)"/>
<path d="M0,0 L1,0 L1,1 L0,1 Z " fill="#7B739C" transform="translate(34,36)"/>
<path d="M0,0 L1,0 L1,1 L0,1 Z " fill="#837AA7" transform="translate(29,36)"/>
<path d="M0,0 L1,0 L1,1 L0,1 Z " fill="#6E6B80" transform="translate(28,36)"/>
<path d="M0,0 L1,0 L1,1 L0,1 Z " fill="#5D5D67" transform="translate(27,36)"/>
<path d="M0,0 L1,0 L1,1 L0,1 Z " fill="#635F79" transform="translate(25,36)"/>
<path d="M0,0 L1,0 L1,1 L0,1 Z " fill="#9D91C8" transform="translate(21,36)"/>
<path d="M0,0 L1,0 L1,1 L0,1 Z " fill="#585868" opacity="0.7529412" transform="translate(12,36)"/>
<path d="M0,0 L1,0 L1,1 L0,1 Z " fill="#ABABB3" opacity="0.7607843" transform="translate(8,36)"/>
<path d="M0,0 L1,0 L1,1 L0,1 Z " fill="#FFFFFF" opacity="0.78039217" transform="translate(59,35)"/>
<path d="M0,0 L1,0 L1,1 L0,1 Z " fill="#606070" opacity="0.7921569" transform="translate(51,35)"/>
<path d="M0,0 L1,0 L1,1 L0,1 Z " fill="#BEAEF4" transform="translate(42,35)"/>
<path d="M0,0 L1,0 L1,1 L0,1 Z " fill="#635F79" transform="translate(41,35)"/>
<path d="M0,0 L1,0 L1,1 L0,1 Z " fill="#5F5F69" transform="translate(40,35)"/>
<path d="M0,0 L1,0 L1,1 L0,1 Z " fill="#5C5971" transform="translate(38,35)"/>
<path d="M0,0 L1,0 L1,1 L0,1 Z " fill="#A799D6" transform="translate(34,35)"/>
<path d="M0,0 L1,0 L1,1 L0,1 Z " fill="#AB9DDB" transform="translate(29,35)"/>
<path d="M0,0 L1,0 L1,1 L0,1 Z " fill="#636270" transform="translate(26,35)"/>
<path d="M0,0 L1,0 L1,1 L0,1 Z " fill="#484759" transform="translate(25,35)"/>
<path d="M0,0 L1,0 L1,1 L0,1 Z " fill="#3D3C4B" transform="translate(22,35)"/>
<path d="M0,0 L1,0 L1,1 L0,1 Z " fill="#BCACF1" transform="translate(21,35)"/>
<path d="M0,0 L1,0 L1,1 L0,1 Z " fill="#616170" opacity="0.7921569" transform="translate(12,35)"/>
<path d="M0,0 L1,0 L1,1 L0,1 Z " fill="#FFFFFF" opacity="0.78431374" transform="translate(4,35)"/>
<path d="M0,0 L1,0 L1,1 L0,1 Z " fill="#FFFFFF" opacity="0.8901961" transform="translate(59,34)"/>
<path d="M0,0 L1,0 L1,1 L0,1 Z " fill="#7B7B88" opacity="0.8235294" transform="translate(55,34)"/>
<path d="M0,0 L1,0 L1,1 L0,1 Z " fill="#988DC3" transform="translate(41,34)"/>
<path d="M0,0 L1,0 L1,1 L0,1 Z " fill="#454353" transform="translate(39,34)"/>
<path d="M0,0 L1,0 L1,1 L0,1 Z " fill="#726B90" transform="translate(35,34)"/>
<path d="M0,0 L1,0 L1,1 L0,1 Z " fill="#7E75A0" transform="translate(28,34)"/>
<path d="M0,0 L1,0 L1,1 L0,1 Z " fill="#49475A" transform="translate(27,34)"/>
<path d="M0,0 L1,0 L1,1 L0,1 Z " fill="#3E3E4D" transform="translate(26,34)"/>
<path d="M0,0 L1,0 L1,1 L0,1 Z " fill="#363642" transform="translate(23,34)"/>
<path d="M0,0 L1,0 L1,1 L0,1 Z " fill="#9186B9" transform="translate(22,34)"/>
<path d="M0,0 L1,0 L1,1 L0,1 Z " fill="#797985" opacity="0.827451" transform="translate(8,34)"/>
<path d="M0,0 L1,0 L1,1 L0,1 Z " fill="#FFFFFF" opacity="0.8901961" transform="translate(4,34)"/>
<path d="M0,0 L1,0 L1,1 L0,1 Z " fill="#FFFFFF" opacity="0.93333334" transform="translate(59,33)"/>
<path d="M0,0 L1,0 L1,1 L0,1 Z " fill="#646471" opacity="0.88235295" transform="translate(55,33)"/>
<path d="M0,0 L1,0 L1,1 L0,1 Z " fill="#636373" opacity="0.8980392" transform="translate(51,33)"/>
<path d="M0,0 L1,0 L1,1 L0,1 Z " fill="#AC9EDC" transform="translate(40,33)"/>
<path d="M0,0 L1,0 L1,1 L0,1 Z " fill="#6C668A" transform="translate(39,33)"/>
<path d="M0,0 L1,0 L1,1 L0,1 Z " fill="#666081" transform="translate(37,33)"/>
<path d="M0,0 L1,0 L1,1 L0,1 Z " fill="#988CC2" transform="translate(36,33)"/>
<path d="M0,0 L1,0 L1,1 L0,1 Z " fill="#696384" transform="translate(33,33)"/>
<path d="M0,0 L1,0 L1,1 L0,1 Z " fill="#434153" transform="translate(32,33)"/>
<path d="M0,0 L1,0 L1,1 L0,1 Z " fill="#656080" transform="translate(30,33)"/>
<path d="M0,0 L1,0 L1,1 L0,1 Z " fill="#B6A7E9" transform="translate(29,33)"/>
<path d="M0,0 L1,0 L1,1 L0,1 Z " fill="#9D91C8" transform="translate(27,33)"/>
<path d="M0,0 L1,0 L1,1 L0,1 Z " fill="#676182" transform="translate(26,33)"/>
<path d="M0,0 L1,0 L1,1 L0,1 Z " fill="#6C6588" transform="translate(24,33)"/>
<path d="M0,0 L1,0 L1,1 L0,1 Z " fill="#A89BD7" transform="translate(23,33)"/>
<path d="M0,0 L1,0 L1,1 L0,1 Z " fill="#636373" opacity="0.90588236" transform="translate(12,33)"/>
<path d="M0,0 L1,0 L1,1 L0,1 Z " fill="#626271" opacity="0.8862745" transform="translate(8,33)"/>
<path d="M0,0 L1,0 L1,1 L0,1 Z " fill="#FFFFFF" opacity="0.9372549" transform="translate(4,33)"/>
<path d="M0,0 L1,0 L1,1 L0,1 Z " fill="#FFFFFF" opacity="0.98039216" transform="translate(59,32)"/>
<path d="M0,0 L1,0 L1,1 L0,1 Z " fill="#434152" transform="translate(34,32)"/>
<path d="M0,0 L1,0 L1,1 L0,1 Z " fill="#3E3D4C" transform="translate(29,32)"/>
<path d="M0,0 L1,0 L1,1 L0,1 Z " fill="#AFA1E1" transform="translate(28,32)"/>
<path d="M0,0 L1,0 L1,1 L0,1 Z " fill="#FFFFFF" opacity="0.9843137" transform="translate(4,32)"/>
<path d="M0,0 L1,0 L1,1 L0,1 Z " fill="#505060" opacity="0.9607843" transform="translate(55,31)"/>
<path d="M0,0 L1,0 L1,1 L0,1 Z " fill="#656573" opacity="0.9607843" transform="translate(51,31)"/>
<path d="M0,0 L1,0 L1,1 L0,1 Z " fill="#696384" transform="translate(35,31)"/>
<path d="M0,0 L1,0 L1,1 L0,1 Z " fill="#635E7D" transform="translate(28,31)"/>
<path d="M0,0 L1,0 L1,1 L0,1 Z " fill="#C7B5FF" opacity="0.9607843" transform="translate(16,31)"/>
<path d="M0,0 L1,0 L1,1 L0,1 Z " fill="#656573" opacity="0.9607843" transform="translate(12,31)"/>
<path d="M0,0 L1,0 L1,1 L0,1 Z " fill="#FFFFFF" opacity="0.93333334" transform="translate(59,30)"/>
<path d="M0,0 L1,0 L1,1 L0,1 Z " fill="#C5B4FC" opacity="0.8784314" transform="translate(47,30)"/>
<path d="M0,0 L1,0 L1,1 L0,1 Z " fill="#C8B7FF" transform="translate(41,30)"/>
<path d="M0,0 L1,0 L1,1 L0,1 Z " fill="#C9B8FF" transform="translate(39,30)"/>
<path d="M0,0 L1,0 L1,1 L0,1 Z " fill="#434153" transform="translate(35,30)"/>
<path d="M0,0 L1,0 L1,1 L0,1 Z " fill="#6E6B80" transform="translate(33,30)"/>
<path d="M0,0 L1,0 L1,1 L0,1 Z " fill="#5C5971" transform="translate(32,30)"/>
<path d="M0,0 L1,0 L1,1 L0,1 Z " fill="#3E3D4C" transform="translate(28,30)"/>
<path d="M0,0 L1,0 L1,1 L0,1 Z " fill="#FFFFFF" opacity="0.94509804" transform="translate(4,30)"/>
<path d="M0,0 L1,0 L1,1 L0,1 Z " fill="#7B7B88" opacity="0.8235294" transform="translate(55,29)"/>
<path d="M0,0 L1,0 L1,1 L0,1 Z " fill="#616171" opacity="0.8235294" transform="translate(51,29)"/>
<path d="M0,0 L1,0 L1,1 L0,1 Z " fill="#CDBEFF" transform="translate(43,29)"/>
<path d="M0,0 L1,0 L1,1 L0,1 Z " fill="#D1C3FF" transform="translate(42,29)"/>
<path d="M0,0 L1,0 L1,1 L0,1 Z " fill="#CFC1FF" transform="translate(37,29)"/>
<path d="M0,0 L1,0 L1,1 L0,1 Z " fill="#CBBBFF" transform="translate(36,29)"/>
<path d="M0,0 L1,0 L1,1 L0,1 Z " fill="#535067" transform="translate(35,29)"/>
<path d="M0,0 L1,0 L1,1 L0,1 Z " fill="#C0B1F7" opacity="0.827451" transform="translate(16,29)"/>
<path d="M0,0 L1,0 L1,1 L0,1 Z " fill="#626272" opacity="0.827451" transform="translate(12,29)"/>
<path d="M0,0 L1,0 L1,1 L0,1 Z " fill="#797985" opacity="0.827451" transform="translate(8,29)"/>
<path d="M0,0 L1,0 L1,1 L0,1 Z " fill="#FFFFFF" opacity="0.78039217" transform="translate(59,28)"/>
<path d="M0,0 L1,0 L1,1 L0,1 Z " fill="#B2A5E1" opacity="0.7647059" transform="translate(47,28)"/>
<path d="M0,0 L1,0 L1,1 L0,1 Z " fill="#CBBBFF" transform="translate(45,28)"/>
<path d="M0,0 L1,0 L1,1 L0,1 Z " fill="#D1C4FF" transform="translate(44,28)"/>
<path d="M0,0 L1,0 L1,1 L0,1 Z " fill="#827C99" transform="translate(35,28)"/>
<path d="M0,0 L1,0 L1,1 L0,1 Z " fill="#6C697E" transform="translate(32,28)"/>
<path d="M0,0 L1,0 L1,1 L0,1 Z " fill="#605B79" transform="translate(28,28)"/>
<path d="M0,0 L1,0 L1,1 L0,1 Z " fill="#CFC0FF" transform="translate(24,28)"/>
<path d="M0,0 L1,0 L1,1 L0,1 Z " fill="#CFC1FF" transform="translate(21,28)"/>
<path d="M0,0 L1,0 L1,1 L0,1 Z " fill="#C7B7FF" transform="translate(20,28)"/>
<path d="M0,0 L1,0 L1,1 L0,1 Z " fill="#FFFFFF" opacity="0.7921569" transform="translate(4,28)"/>
<path d="M0,0 L1,0 L1,1 L0,1 Z " fill="#ACACB4" opacity="0.7607843" transform="translate(55,27)"/>
<path d="M0,0 L1,0 L1,1 L0,1 Z " fill="#595969" opacity="0.7529412" transform="translate(51,27)"/>
<path d="M0,0 L1,0 L1,1 L0,1 Z " fill="#8A84AA" opacity="0.7882353" transform="translate(47,27)"/>
<path d="M0,0 L1,0 L1,1 L0,1 Z " fill="#CCBDFF" transform="translate(46,27)"/>
<path d="M0,0 L1,0 L1,1 L0,1 Z " fill="#C3B7EB" transform="translate(35,27)"/>
<path d="M0,0 L1,0 L1,1 L0,1 Z " fill="#686675" transform="translate(34,27)"/>
<path d="M0,0 L1,0 L1,1 L0,1 Z " fill="#393846" transform="translate(29,27)"/>
<path d="M0,0 L1,0 L1,1 L0,1 Z " fill="#AA9DDA" transform="translate(28,27)"/>
<path d="M0,0 L1,0 L1,1 L0,1 Z " fill="#CEBFFF" transform="translate(25,27)"/>
<path d="M0,0 L1,0 L1,1 L0,1 Z " fill="#CDBEFF" transform="translate(20,27)"/>
<path d="M0,0 L1,0 L1,1 L0,1 Z " fill="#8C86AC" opacity="0.78431374" transform="translate(16,27)"/>
<path d="M0,0 L1,0 L1,1 L0,1 Z " fill="#5A5A69" opacity="0.7529412" transform="translate(12,27)"/>
<path d="M0,0 L1,0 L1,1 L0,1 Z " fill="#ABABB3" opacity="0.7607843" transform="translate(8,27)"/>
<path d="M0,0 L1,0 L1,1 L0,1 Z " fill="#FFFFFF" opacity="0.4862745" transform="translate(59,26)"/>
<path d="M0,0 L1,0 L1,1 L0,1 Z " fill="#E4E4E7" opacity="0.7764706" transform="translate(55,26)"/>
<path d="M0,0 L1,0 L1,1 L0,1 Z " fill="#4D4D5D" opacity="0.85882354" transform="translate(51,26)"/>
<path d="M0,0 L1,0 L1,1 L0,1 Z " fill="#737283" opacity="0.9647059" transform="translate(47,26)"/>
<path d="M0,0 L1,0 L1,1 L0,1 Z " fill="#D2C5FF" opacity="0.9764706" transform="translate(46,26)"/>
<path d="M0,0 L1,0 L1,1 L0,1 Z " fill="#C1B5E9" transform="translate(34,26)"/>
<path d="M0,0 L1,0 L1,1 L0,1 Z " fill="#7C7892" transform="translate(33,26)"/>
<path d="M0,0 L1,0 L1,1 L0,1 Z " fill="#424051" transform="translate(32,26)"/>
<path d="M0,0 L1,0 L1,1 L0,1 Z " fill="#605B78" transform="translate(30,26)"/>
<path d="M0,0 L1,0 L1,1 L0,1 Z " fill="#AEA0DF" transform="translate(29,26)"/>
<path d="M0,0 L1,0 L1,1 L0,1 Z " fill="#69687B" opacity="0.95686275" transform="translate(16,26)"/>
<path d="M0,0 L1,0 L1,1 L0,1 Z " fill="#4C4C5C" opacity="0.85490197" transform="translate(12,26)"/>
<path d="M0,0 L1,0 L1,1 L0,1 Z " fill="#E3E3E6" opacity="0.77254903" transform="translate(8,26)"/>
<path d="M0,0 L1,0 L1,1 L0,1 Z " fill="#FFFFFF" opacity="0.49803922" transform="translate(4,26)"/>
<path d="M0,0 L1,0 L1,1 L0,1 Z " fill="#FFFFFF" opacity="0.94509804" transform="translate(55,25)"/>
<path d="M0,0 L1,0 L1,1 L0,1 Z " fill="#464657" transform="translate(51,25)"/>
<path d="M0,0 L1,0 L1,1 L0,1 Z " fill="#666675" transform="translate(48,25)"/>
<path d="M0,0 L1,0 L1,1 L0,1 Z " fill="#81818D" transform="translate(47,25)"/>
<path d="M0,0 L1,0 L1,1 L0,1 Z " fill="#C7BBEC" opacity="0.8117647" transform="translate(46,25)"/>
<path d="M0,0 L1,0 L1,1 L0,1 Z " fill="#CCBDFF" transform="translate(32,25)"/>
<path d="M0,0 L1,0 L1,1 L0,1 Z " fill="#CFC0FF" transform="translate(25,25)"/>
<path d="M0,0 L1,0 L1,1 L0,1 Z " fill="#CFC0FF" transform="translate(20,25)"/>
<path d="M0,0 L1,0 L1,1 L0,1 Z " fill="#B5A8E5" opacity="0.76862746" transform="translate(17,25)"/>
<path d="M0,0 L1,0 L1,1 L0,1 Z " fill="#464657" transform="translate(12,25)"/>
<path d="M0,0 L1,0 L1,1 L0,1 Z " fill="#FEFEFE" opacity="0.94509804" transform="translate(8,25)"/>
<path d="M0,0 L1,0 L1,1 L0,1 Z " fill="#FFFFFF" opacity="0.039215688" transform="translate(59,24)"/>
<path d="M0,0 L1,0 L1,1 L0,1 Z " fill="#80808C" opacity="0.8117647" transform="translate(54,24)"/>
<path d="M0,0 L1,0 L1,1 L0,1 Z " fill="#5C5C6C" opacity="0.75686276" transform="translate(50,24)"/>
<path d="M0,0 L1,0 L1,1 L0,1 Z " fill="#727280" transform="translate(48,24)"/>
<path d="M0,0 L1,0 L1,1 L0,1 Z " fill="#8F8EA0" opacity="0.92156863" transform="translate(46,24)"/>
<path d="M0,0 L1,0 L1,1 L0,1 Z " fill="#D1C3FF" transform="translate(32,24)"/>
<path d="M0,0 L1,0 L1,1 L0,1 Z " fill="#C9B8FF" transform="translate(25,24)"/>
<path d="M0,0 L1,0 L1,1 L0,1 Z " fill="#D1C3FF" transform="translate(24,24)"/>
<path d="M0,0 L1,0 L1,1 L0,1 Z " fill="#D1C4FF" transform="translate(21,24)"/>
<path d="M0,0 L1,0 L1,1 L0,1 Z " fill="#C9B9FF" transform="translate(20,24)"/>
<path d="M0,0 L1,0 L1,1 L0,1 Z " fill="#C7B5FF" opacity="0.9764706" transform="translate(18,24)"/>
<path d="M0,0 L1,0 L1,1 L0,1 Z " fill="#726F86" opacity="0.8980392" transform="translate(17,24)"/>
<path d="M0,0 L1,0 L1,1 L0,1 Z " fill="#5C5C6C" opacity="0.75686276" transform="translate(13,24)"/>
<path d="M0,0 L1,0 L1,1 L0,1 Z " fill="#80808C" opacity="0.8156863" transform="translate(9,24)"/>
<path d="M0,0 L1,0 L1,1 L0,1 Z " fill="#FFFFFF" opacity="0.050980393" transform="translate(4,24)"/>
<path d="M0,0 L1,0 L1,1 L0,1 Z " fill="#FFFFFF" opacity="0.7372549" transform="translate(58,23)"/>
<path d="M0,0 L1,0 L1,1 L0,1 Z " fill="#CECED2" opacity="0.75686276" transform="translate(54,23)"/>
<path d="M0,0 L1,0 L1,1 L0,1 Z " fill="#49495A" opacity="0.90588236" transform="translate(50,23)"/>
<path d="M0,0 L1,0 L1,1 L0,1 Z " fill="#BEB5E0" opacity="0.8" transform="translate(45,23)"/>
<path d="M0,0 L1,0 L1,1 L0,1 Z " fill="#C9B9FF" transform="translate(31,23)"/>
<path d="M0,0 L1,0 L1,1 L0,1 Z " fill="#C8B7FF" transform="translate(24,23)"/>
<path d="M0,0 L1,0 L1,1 L0,1 Z " fill="#C8B8FF" transform="translate(21,23)"/>
<path d="M0,0 L1,0 L1,1 L0,1 Z " fill="#AB9FD9" opacity="0.75686276" transform="translate(18,23)"/>
<path d="M0,0 L1,0 L1,1 L0,1 Z " fill="#4A4A5B" opacity="0.90588236" transform="translate(13,23)"/>
<path d="M0,0 L1,0 L1,1 L0,1 Z " fill="#CECED2" opacity="0.75686276" transform="translate(9,23)"/>
<path d="M0,0 L1,0 L1,1 L0,1 Z " fill="#FFFFFF" opacity="0.75686276" transform="translate(5,23)"/>
<path d="M0,0 L1,0 L1,1 L0,1 Z " fill="#FDFDFD" opacity="0.9098039" transform="translate(54,22)"/>
<path d="M0,0 L1,0 L1,1 L0,1 Z " fill="#4D4D5E" opacity="0.96862745" transform="translate(53,22)"/>
<path d="M0,0 L1,0 L1,1 L0,1 Z " fill="#5C5C6C" opacity="0.7529412" transform="translate(49,22)"/>
<path d="M0,0 L1,0 L1,1 L0,1 Z " fill="#80808D" transform="translate(48,22)"/>
<path d="M0,0 L1,0 L1,1 L0,1 Z " fill="#868693" opacity="0.98039216" transform="translate(45,22)"/>
<path d="M0,0 L1,0 L1,1 L0,1 Z " fill="#D0C3FA" opacity="0.85882354" transform="translate(44,22)"/>
<path d="M0,0 L1,0 L1,1 L0,1 Z " fill="#C1B1F8" opacity="0.8352941" transform="translate(19,22)"/>
<path d="M0,0 L1,0 L1,1 L0,1 Z " fill="#686878" opacity="0.972549" transform="translate(18,22)"/>
<path d="M0,0 L1,0 L1,1 L0,1 Z " fill="#5C5C6C" opacity="0.7529412" transform="translate(14,22)"/>
<path d="M0,0 L1,0 L1,1 L0,1 Z " fill="#4D4D5E" opacity="0.96862745" transform="translate(10,22)"/>
<path d="M0,0 L1,0 L1,1 L0,1 Z " fill="#FDFDFD" opacity="0.9098039" transform="translate(9,22)"/>
<path d="M0,0 L1,0 L1,1 L0,1 Z " fill="#FFFFFF" opacity="0.0627451" transform="translate(58,21)"/>
<path d="M0,0 L1,0 L1,1 L0,1 Z " fill="#FFFFFF" opacity="0.96862745" transform="translate(57,21)"/>
<path d="M0,0 L1,0 L1,1 L0,1 Z " fill="#BABAC1" opacity="0.7529412" transform="translate(53,21)"/>
<path d="M0,0 L1,0 L1,1 L0,1 Z " fill="#484859" opacity="0.94509804" transform="translate(49,21)"/>
<path d="M0,0 L1,0 L1,1 L0,1 Z " fill="#8C8C9C" opacity="0.9372549" transform="translate(44,21)"/>
<path d="M0,0 L1,0 L1,1 L0,1 Z " fill="#D2C4FD" opacity="0.91764706" transform="translate(43,21)"/>
<path d="M0,0 L1,0 L1,1 L0,1 Z " fill="#CBBCFF" transform="translate(31,21)"/>
<path d="M0,0 L1,0 L1,1 L0,1 Z " fill="#6F6D82" opacity="0.91764706" transform="translate(19,21)"/>
<path d="M0,0 L1,0 L1,1 L0,1 Z " fill="#646473" opacity="0.93333334" transform="translate(15,21)"/>
<path d="M0,0 L1,0 L1,1 L0,1 Z " fill="#484859" opacity="0.94509804" transform="translate(14,21)"/>
<path d="M0,0 L1,0 L1,1 L0,1 Z " fill="#BCBCC2" opacity="0.7529412" transform="translate(10,21)"/>
<path d="M0,0 L1,0 L1,1 L0,1 Z " fill="#FFFFFF" opacity="0.972549" transform="translate(6,21)"/>
<path d="M0,0 L1,0 L1,1 L0,1 Z " fill="#FFFFFF" opacity="0.06666667" transform="translate(5,21)"/>
<path d="M0,0 L1,0 L1,1 L0,1 Z " fill="#FFFFFF" opacity="0.94509804" transform="translate(53,20)"/>
<path d="M0,0 L1,0 L1,1 L0,1 Z " fill="#555564" opacity="0.9372549" transform="translate(52,20)"/>
<path d="M0,0 L1,0 L1,1 L0,1 Z " fill="#777784" opacity="0.8235294" transform="translate(48,20)"/>
<path d="M0,0 L1,0 L1,1 L0,1 Z " fill="#9593A8" opacity="0.8901961" transform="translate(43,20)"/>
<path d="M0,0 L1,0 L1,1 L0,1 Z " fill="#D2C5FD" opacity="0.92156863" transform="translate(42,20)"/>
<path d="M0,0 L1,0 L1,1 L0,1 Z " fill="#D2C3FF" transform="translate(33,20)"/>
<path d="M0,0 L1,0 L1,1 L0,1 Z " fill="#D1C4FF" transform="translate(32,20)"/>
<path d="M0,0 L1,0 L1,1 L0,1 Z " fill="#797690" opacity="0.85882354" transform="translate(20,20)"/>
<path d="M0,0 L1,0 L1,1 L0,1 Z " fill="#525263" opacity="0.7882353" transform="translate(15,20)"/>
<path d="M0,0 L1,0 L1,1 L0,1 Z " fill="#565665" opacity="0.93333334" transform="translate(11,20)"/>
<path d="M0,0 L1,0 L1,1 L0,1 Z " fill="#FFFFFF" opacity="0.94509804" transform="translate(10,20)"/>
<path d="M0,0 L1,0 L1,1 L0,1 Z " fill="#FFFFFF" opacity="0.11764706" transform="translate(57,19)"/>
<path d="M0,0 L1,0 L1,1 L0,1 Z " fill="#FFFFFF" opacity="0.9843137" transform="translate(56,19)"/>
<path d="M0,0 L1,0 L1,1 L0,1 Z " fill="#CECED2" opacity="0.75686276" transform="translate(52,19)"/>
<path d="M0,0 L1,0 L1,1 L0,1 Z " fill="#626270" transform="translate(48,19)"/>
<path d="M0,0 L1,0 L1,1 L0,1 Z " fill="#82828F" opacity="0.8" transform="translate(47,19)"/>
<path d="M0,0 L1,0 L1,1 L0,1 Z " fill="#8D8C9D" opacity="0.9372549" transform="translate(42,19)"/>
<path d="M0,0 L1,0 L1,1 L0,1 Z " fill="#D1C4FA" opacity="0.85882354" transform="translate(41,19)"/>
<path d="M0,0 L1,0 L1,1 L0,1 Z " fill="#C9B8FF" transform="translate(31,19)"/>
<path d="M0,0 L1,0 L1,1 L0,1 Z " fill="#C1B1F8" opacity="0.8352941" transform="translate(22,19)"/>
<path d="M0,0 L1,0 L1,1 L0,1 Z " fill="#6F6D82" opacity="0.91764706" transform="translate(21,19)"/>
<path d="M0,0 L1,0 L1,1 L0,1 Z " fill="#595969" opacity="0.7529412" transform="translate(16,19)"/>
<path d="M0,0 L1,0 L1,1 L0,1 Z " fill="#D0D0D5" opacity="0.75686276" transform="translate(11,19)"/>
<path d="M0,0 L1,0 L1,1 L0,1 Z " fill="#FFFFFF" opacity="0.9882353" transform="translate(7,19)"/>
<path d="M0,0 L1,0 L1,1 L0,1 Z " fill="#FFFFFF" opacity="0.13333334" transform="translate(6,19)"/>
<path d="M0,0 L1,0 L1,1 L0,1 Z " fill="#FFFFFF" opacity="0.9764706" transform="translate(52,18)"/>
<path d="M0,0 L1,0 L1,1 L0,1 Z " fill="#757582" opacity="0.8392157" transform="translate(51,18)"/>
<path d="M0,0 L1,0 L1,1 L0,1 Z " fill="#565666" transform="translate(48,18)"/>
<path d="M0,0 L1,0 L1,1 L0,1 Z " fill="#868693" opacity="0.98039216" transform="translate(41,18)"/>
<path d="M0,0 L1,0 L1,1 L0,1 Z " fill="#C1B7E1" opacity="0.8" transform="translate(40,18)"/>
<path d="M0,0 L1,0 L1,1 L0,1 Z " fill="#D2C5FF" opacity="0.9764706" transform="translate(39,18)"/>
<path d="M0,0 L1,0 L1,1 L0,1 Z " fill="#D1C3FF" transform="translate(37,18)"/>
<path d="M0,0 L1,0 L1,1 L0,1 Z " fill="#D1C3FF" transform="translate(32,18)"/>
<path d="M0,0 L1,0 L1,1 L0,1 Z " fill="#C6B6FF" transform="translate(29,18)"/>
<path d="M0,0 L1,0 L1,1 L0,1 Z " fill="#AB9FD9" opacity="0.75686276" transform="translate(23,18)"/>
<path d="M0,0 L1,0 L1,1 L0,1 Z " fill="#686878" opacity="0.972549" transform="translate(22,18)"/>
<path d="M0,0 L1,0 L1,1 L0,1 Z " fill="#464657" transform="translate(16,18)"/>
<path d="M0,0 L1,0 L1,1 L0,1 Z " fill="#767683" opacity="0.8352941" transform="translate(12,18)"/>
<path d="M0,0 L1,0 L1,1 L0,1 Z " fill="#FFFFFF" opacity="0.98039216" transform="translate(11,18)"/>
<path d="M0,0 L1,0 L1,1 L0,1 Z " fill="#FFFFFF" opacity="0.05882353" transform="translate(56,17)"/>
<path d="M0,0 L1,0 L1,1 L0,1 Z " fill="#FDFDFD" opacity="0.9098039" transform="translate(51,17)"/>
<path d="M0,0 L1,0 L1,1 L0,1 Z " fill="#5C5C6B" opacity="0.9098039" transform="translate(50,17)"/>
<path d="M0,0 L1,0 L1,1 L0,1 Z " fill="#494959" transform="translate(48,17)"/>
<path d="M0,0 L1,0 L1,1 L0,1 Z " fill="#686876" transform="translate(47,17)"/>
<path d="M0,0 L1,0 L1,1 L0,1 Z " fill="#6C6C79" opacity="0.98039216" transform="translate(46,17)"/>
<path d="M0,0 L1,0 L1,1 L0,1 Z " fill="#8F8EA0" opacity="0.92156863" transform="translate(39,17)"/>
<path d="M0,0 L1,0 L1,1 L0,1 Z " fill="#C7BBEC" opacity="0.8117647" transform="translate(38,17)"/>
<path d="M0,0 L1,0 L1,1 L0,1 Z " fill="#D3C5FF" opacity="0.9843137" transform="translate(37,17)"/>
<path d="M0,0 L1,0 L1,1 L0,1 Z " fill="#CCBCFF" transform="translate(32,17)"/>
<path d="M0,0 L1,0 L1,1 L0,1 Z " fill="#C7B5FF" transform="translate(30,17)"/>
<path d="M0,0 L1,0 L1,1 L0,1 Z " fill="#C7B5FF" transform="translate(28,17)"/>
<path d="M0,0 L1,0 L1,1 L0,1 Z " fill="#B5A8E5" opacity="0.76862746" transform="translate(25,17)"/>
<path d="M0,0 L1,0 L1,1 L0,1 Z " fill="#726F86" opacity="0.8980392" transform="translate(24,17)"/>
<path d="M0,0 L1,0 L1,1 L0,1 Z " fill="#464657" opacity="0.9843137" transform="translate(17,17)"/>
<path d="M0,0 L1,0 L1,1 L0,1 Z " fill="#5F5F6E" opacity="0.8980392" transform="translate(13,17)"/>
<path d="M0,0 L1,0 L1,1 L0,1 Z " fill="#FDFDFD" opacity="0.92156863" transform="translate(12,17)"/>
<path d="M0,0 L1,0 L1,1 L0,1 Z " fill="#FFFFFF" opacity="0.07058824" transform="translate(7,17)"/>
<path d="M0,0 L1,0 L1,1 L0,1 Z " fill="#FFFFFF" opacity="0.33333334" transform="translate(55,16)"/>
<path d="M0,0 L1,0 L1,1 L0,1 Z " fill="#F6F6F7" opacity="0.8392157" transform="translate(50,16)"/>
<path d="M0,0 L1,0 L1,1 L0,1 Z " fill="#4D4D5E" opacity="0.96862745" transform="translate(49,16)"/>
<path d="M0,0 L1,0 L1,1 L0,1 Z " fill="#545463" transform="translate(47,16)"/>
<path d="M0,0 L1,0 L1,1 L0,1 Z " fill="#6B6B78" transform="translate(45,16)"/>
<path d="M0,0 L1,0 L1,1 L0,1 Z " fill="#83838F" opacity="0.8" transform="translate(44,16)"/>
<path d="M0,0 L1,0 L1,1 L0,1 Z " fill="#C0B5E5" opacity="0.99215686" transform="translate(37,16)"/>
<path d="M0,0 L1,0 L1,1 L0,1 Z " fill="#D0C2FF" transform="translate(33,16)"/>
<path d="M0,0 L1,0 L1,1 L0,1 Z " fill="#C4B4FB" opacity="0.99215686" transform="translate(27,16)"/>
<path d="M0,0 L1,0 L1,1 L0,1 Z " fill="#6E6C83" opacity="0.95686275" transform="translate(26,16)"/>
<path d="M0,0 L1,0 L1,1 L0,1 Z " fill="#595969" opacity="0.7529412" transform="translate(19,16)"/>
<path d="M0,0 L1,0 L1,1 L0,1 Z " fill="#464657" transform="translate(18,16)"/>
<path d="M0,0 L1,0 L1,1 L0,1 Z " fill="#4F4F60" opacity="0.95686275" transform="translate(14,16)"/>
<path d="M0,0 L1,0 L1,1 L0,1 Z " fill="#F8F8F8" opacity="0.85490197" transform="translate(13,16)"/>
<path d="M0,0 L1,0 L1,1 L0,1 Z " fill="#FFFFFF" opacity="0.3529412" transform="translate(8,16)"/>
<path d="M0,0 L1,0 L1,1 L0,1 Z " fill="#FFFFFF" opacity="0.5921569" transform="translate(54,15)"/>
<path d="M0,0 L1,0 L1,1 L0,1 Z " fill="#E4E4E7" opacity="0.7764706" transform="translate(49,15)"/>
<path d="M0,0 L1,0 L1,1 L0,1 Z " fill="#484859" transform="translate(48,15)"/>
<path d="M0,0 L1,0 L1,1 L0,1 Z " fill="#5A5A69" transform="translate(46,15)"/>
<path d="M0,0 L1,0 L1,1 L0,1 Z " fill="#7C7C88" opacity="0.8235294" transform="translate(43,15)"/>
<path d="M0,0 L1,0 L1,1 L0,1 Z " fill="#848490" opacity="0.9529412" transform="translate(42,15)"/>
<path d="M0,0 L1,0 L1,1 L0,1 Z " fill="#888797" transform="translate(38,15)"/>
<path d="M0,0 L1,0 L1,1 L0,1 Z " fill="#D0C3FD" transform="translate(37,15)"/>
<path d="M0,0 L1,0 L1,1 L0,1 Z " fill="#A297CA" transform="translate(31,15)"/>
<path d="M0,0 L1,0 L1,1 L0,1 Z " fill="#C2B2F8" transform="translate(30,15)"/>
<path d="M0,0 L1,0 L1,1 L0,1 Z " fill="#8A83A8" transform="translate(26,15)"/>
<path d="M0,0 L1,0 L1,1 L0,1 Z " fill="#646473" opacity="0.93333334" transform="translate(21,15)"/>
<path d="M0,0 L1,0 L1,1 L0,1 Z " fill="#525263" opacity="0.7882353" transform="translate(20,15)"/>
<path d="M0,0 L1,0 L1,1 L0,1 Z " fill="#484858" opacity="0.99607843" transform="translate(15,15)"/>
<path d="M0,0 L1,0 L1,1 L0,1 Z " fill="#FFFFFF" opacity="0.6156863" transform="translate(9,15)"/>
<path d="M0,0 L1,0 L1,1 L0,1 Z " fill="#FFFFFF" opacity="0.03137255" transform="translate(54,14)"/>
<path d="M0,0 L1,0 L1,1 L0,1 Z " fill="#E6E6E8" opacity="0.78039217" transform="translate(48,14)"/>
<path d="M0,0 L1,0 L1,1 L0,1 Z " fill="#4F4F5E" opacity="0.9647059" transform="translate(47,14)"/>
<path d="M0,0 L1,0 L1,1 L0,1 Z " fill="#565666" transform="translate(45,14)"/>
<path d="M0,0 L1,0 L1,1 L0,1 Z " fill="#6A6A78" transform="translate(44,14)"/>
<path d="M0,0 L1,0 L1,1 L0,1 Z " fill="#6E6E7C" opacity="0.9529412" transform="translate(42,14)"/>
<path d="M0,0 L1,0 L1,1 L0,1 Z " fill="#84848F" opacity="0.8039216" transform="translate(41,14)"/>
<path d="M0,0 L1,0 L1,1 L0,1 Z " fill="#848490" opacity="0.98039216" transform="translate(40,14)"/>
<path d="M0,0 L1,0 L1,1 L0,1 Z " fill="#D0C1FF" transform="translate(35,14)"/>
<path d="M0,0 L1,0 L1,1 L0,1 Z " fill="#B1A4E0" transform="translate(32,14)"/>
<path d="M0,0 L1,0 L1,1 L0,1 Z " fill="#676677" transform="translate(31,14)"/>
<path d="M0,0 L1,0 L1,1 L0,1 Z " fill="#8C85AC" transform="translate(30,14)"/>
<path d="M0,0 L1,0 L1,1 L0,1 Z " fill="#A89CD4" transform="translate(26,14)"/>
<path d="M0,0 L1,0 L1,1 L0,1 Z " fill="#5C5C6C" opacity="0.7529412" transform="translate(22,14)"/>
<path d="M0,0 L1,0 L1,1 L0,1 Z " fill="#484859" opacity="0.94509804" transform="translate(21,14)"/>
<path d="M0,0 L1,0 L1,1 L0,1 Z " fill="#4F4F60" opacity="0.95686275" transform="translate(16,14)"/>
<path d="M0,0 L1,0 L1,1 L0,1 Z " fill="#FFFFFF" opacity="0.039215688" transform="translate(9,14)"/>
<path d="M0,0 L1,0 L1,1 L0,1 Z " fill="#FFFFFF" opacity="0.09019608" transform="translate(53,13)"/>
<path d="M0,0 L1,0 L1,1 L0,1 Z " fill="#FFFFFF" opacity="0.8627451" transform="translate(52,13)"/>
<path d="M0,0 L1,0 L1,1 L0,1 Z " fill="#F6F6F7" opacity="0.84313726" transform="translate(47,13)"/>
<path d="M0,0 L1,0 L1,1 L0,1 Z " fill="#5C5C6B" opacity="0.9098039" transform="translate(46,13)"/>
<path d="M0,0 L1,0 L1,1 L0,1 Z " fill="#4B4B5B" transform="translate(44,13)"/>
<path d="M0,0 L1,0 L1,1 L0,1 Z " fill="#5C5C6B" transform="translate(43,13)"/>
<path d="M0,0 L1,0 L1,1 L0,1 Z " fill="#686876" transform="translate(42,13)"/>
<path d="M0,0 L1,0 L1,1 L0,1 Z " fill="#70707E" opacity="0.91764706" transform="translate(40,13)"/>
<path d="M0,0 L1,0 L1,1 L0,1 Z " fill="#858590" opacity="0.8039216" transform="translate(39,13)"/>
<path d="M0,0 L1,0 L1,1 L0,1 Z " fill="#9A97B0" opacity="0.9372549" transform="translate(38,13)"/>
<path d="M0,0 L1,0 L1,1 L0,1 Z " fill="#CBBBFF" transform="translate(36,13)"/>
<path d="M0,0 L1,0 L1,1 L0,1 Z " fill="#B4A6E4" transform="translate(33,13)"/>
<path d="M0,0 L1,0 L1,1 L0,1 Z " fill="#6B6A7D" transform="translate(32,13)"/>
<path d="M0,0 L1,0 L1,1 L0,1 Z " fill="#9F95C7" transform="translate(29,13)"/>
<path d="M0,0 L1,0 L1,1 L0,1 Z " fill="#5C5C6C" opacity="0.75686276" transform="translate(24,13)"/>
<path d="M0,0 L1,0 L1,1 L0,1 Z " fill="#4A4A5B" opacity="0.90588236" transform="translate(23,13)"/>
<path d="M0,0 L1,0 L1,1 L0,1 Z " fill="#5F5F6E" opacity="0.8980392" transform="translate(17,13)"/>
<path d="M0,0 L1,0 L1,1 L0,1 Z " fill="#F8F8F8" opacity="0.85490197" transform="translate(16,13)"/>
<path d="M0,0 L1,0 L1,1 L0,1 Z " fill="#FFFFFF" opacity="0.87058824" transform="translate(11,13)"/>
<path d="M0,0 L1,0 L1,1 L0,1 Z " fill="#FFFFFF" opacity="0.101960786" transform="translate(10,13)"/>
<path d="M0,0 L1,0 L1,1 L0,1 Z " fill="#FFFFFF" opacity="0.8980392" transform="translate(51,12)"/>
<path d="M0,0 L1,0 L1,1 L0,1 Z " fill="#FDFDFD" opacity="0.90588236" transform="translate(46,12)"/>
<path d="M0,0 L1,0 L1,1 L0,1 Z " fill="#73737F" opacity="0.84313726" transform="translate(45,12)"/>
<path d="M0,0 L1,0 L1,1 L0,1 Z " fill="#4D4D5D" transform="translate(40,12)"/>
<path d="M0,0 L1,0 L1,1 L0,1 Z " fill="#57556D" transform="translate(38,12)"/>
<path d="M0,0 L1,0 L1,1 L0,1 Z " fill="#C6B5FE" transform="translate(37,12)"/>
<path d="M0,0 L1,0 L1,1 L0,1 Z " fill="#B2A5E3" opacity="0.9607843" transform="translate(34,12)"/>
<path d="M0,0 L1,0 L1,1 L0,1 Z " fill="#6B6A7E" opacity="0.8901961" transform="translate(33,12)"/>
<path d="M0,0 L1,0 L1,1 L0,1 Z " fill="#636374" opacity="0.827451" transform="translate(29,12)"/>
<path d="M0,0 L1,0 L1,1 L0,1 Z " fill="#9F94C7" opacity="0.90588236" transform="translate(28,12)"/>
<path d="M0,0 L1,0 L1,1 L0,1 Z " fill="#C2B1F7" opacity="0.9882353" transform="translate(27,12)"/>
<path d="M0,0 L1,0 L1,1 L0,1 Z " fill="#8880AD" opacity="0.92156863" transform="translate(26,12)"/>
<path d="M0,0 L1,0 L1,1 L0,1 Z " fill="#464657" transform="translate(25,12)"/>
<path d="M0,0 L1,0 L1,1 L0,1 Z " fill="#767683" opacity="0.8352941" transform="translate(18,12)"/>
<path d="M0,0 L1,0 L1,1 L0,1 Z " fill="#FDFDFD" opacity="0.92156863" transform="translate(17,12)"/>
<path d="M0,0 L1,0 L1,1 L0,1 Z " fill="#FFFFFF" opacity="0.90588236" transform="translate(12,12)"/>
<path d="M0,0 L1,0 L1,1 L0,1 Z " fill="#FFFFFF" opacity="0.85882354" transform="translate(50,11)"/>
<path d="M0,0 L1,0 L1,1 L0,1 Z " fill="#CECED2" opacity="0.75686276" transform="translate(44,11)"/>
<path d="M0,0 L1,0 L1,1 L0,1 Z " fill="#555564" opacity="0.9372549" transform="translate(43,11)"/>
<path d="M0,0 L1,0 L1,1 L0,1 Z " fill="#726C91" transform="translate(37,11)"/>
<path d="M0,0 L1,0 L1,1 L0,1 Z " fill="#716B8F" transform="translate(35,11)"/>
<path d="M0,0 L1,0 L1,1 L0,1 Z " fill="#484859" transform="translate(34,11)"/>
<path d="M0,0 L1,0 L1,1 L0,1 Z " fill="#565665" opacity="0.93333334" transform="translate(20,11)"/>
<path d="M0,0 L1,0 L1,1 L0,1 Z " fill="#D0D0D5" opacity="0.75686276" transform="translate(19,11)"/>
<path d="M0,0 L1,0 L1,1 L0,1 Z " fill="#FFFFFF" opacity="0.98039216" transform="translate(18,11)"/>
<path d="M0,0 L1,0 L1,1 L0,1 Z " fill="#FFFFFF" opacity="0.87058824" transform="translate(13,11)"/>
<path d="M0,0 L1,0 L1,1 L0,1 Z " fill="#FFFFFF" opacity="0.08627451" transform="translate(50,10)"/>
<path d="M0,0 L1,0 L1,1 L0,1 Z " fill="#B9B9C0" opacity="0.7529412" transform="translate(42,10)"/>
<path d="M0,0 L1,0 L1,1 L0,1 Z " fill="#4D4D5D" opacity="0.972549" transform="translate(41,10)"/>
<path d="M0,0 L1,0 L1,1 L0,1 Z " fill="#4D4D5E" opacity="0.96862745" transform="translate(22,10)"/>
<path d="M0,0 L1,0 L1,1 L0,1 Z " fill="#BCBCC2" opacity="0.7529412" transform="translate(21,10)"/>
<path d="M0,0 L1,0 L1,1 L0,1 Z " fill="#FFFFFF" opacity="0.94509804" transform="translate(20,10)"/>
<path d="M0,0 L1,0 L1,1 L0,1 Z " fill="#FFFFFF" opacity="0.101960786" transform="translate(13,10)"/>
<path d="M0,0 L1,0 L1,1 L0,1 Z " fill="#FFFFFF" opacity="0.03137255" transform="translate(49,9)"/>
<path d="M0,0 L1,0 L1,1 L0,1 Z " fill="#FFFFFF" opacity="0.5882353" transform="translate(48,9)"/>
<path d="M0,0 L1,0 L1,1 L0,1 Z " fill="#CECED2" opacity="0.75686276" transform="translate(40,9)"/>
<path d="M0,0 L1,0 L1,1 L0,1 Z " fill="#80808C" opacity="0.8156863" transform="translate(39,9)"/>
<path d="M0,0 L1,0 L1,1 L0,1 Z " fill="#4A4A5A" opacity="0.9882353" transform="translate(38,9)"/>
<path d="M0,0 L1,0 L1,1 L0,1 Z " fill="#80808C" opacity="0.8156863" transform="translate(24,9)"/>
<path d="M0,0 L1,0 L1,1 L0,1 Z " fill="#CECED2" opacity="0.75686276" transform="translate(23,9)"/>
<path d="M0,0 L1,0 L1,1 L0,1 Z " fill="#FDFDFD" opacity="0.9098039" transform="translate(22,9)"/>
<path d="M0,0 L1,0 L1,1 L0,1 Z " fill="#FFFFFF" opacity="0.039215688" transform="translate(14,9)"/>
<path d="M0,0 L1,0 L1,1 L0,1 Z " fill="#FFFFFF" opacity="0.32941177" transform="translate(47,8)"/>
<path d="M0,0 L1,0 L1,1 L0,1 Z " fill="#FFFFFF" opacity="0.90588236" transform="translate(46,8)"/>
<path d="M0,0 L1,0 L1,1 L0,1 Z " fill="#E2E2E4" opacity="0.7764706" transform="translate(37,8)"/>
<path d="M0,0 L1,0 L1,1 L0,1 Z " fill="#ABABB3" opacity="0.7607843" transform="translate(36,8)"/>
<path d="M0,0 L1,0 L1,1 L0,1 Z " fill="#797985" opacity="0.827451" transform="translate(34,8)"/>
<path d="M0,0 L1,0 L1,1 L0,1 Z " fill="#626271" opacity="0.8862745" transform="translate(33,8)"/>
<path d="M0,0 L1,0 L1,1 L0,1 Z " fill="#797985" opacity="0.827451" transform="translate(29,8)"/>
<path d="M0,0 L1,0 L1,1 L0,1 Z " fill="#ABABB3" opacity="0.7607843" transform="translate(27,8)"/>
<path d="M0,0 L1,0 L1,1 L0,1 Z " fill="#E3E3E6" opacity="0.77254903" transform="translate(26,8)"/>
<path d="M0,0 L1,0 L1,1 L0,1 Z " fill="#FEFEFE" opacity="0.94509804" transform="translate(25,8)"/>
<path d="M0,0 L1,0 L1,1 L0,1 Z " fill="#FFFFFF" opacity="0.3529412" transform="translate(16,8)"/>
<path d="M0,0 L1,0 L1,1 L0,1 Z " fill="#FFFFFF" opacity="0.05882353" transform="translate(46,7)"/>
<path d="M0,0 L1,0 L1,1 L0,1 Z " fill="#FFFFFF" opacity="0.57254905" transform="translate(45,7)"/>
<path d="M0,0 L1,0 L1,1 L0,1 Z " fill="#FFFFFF" opacity="0.9882353" transform="translate(19,7)"/>
<path d="M0,0 L1,0 L1,1 L0,1 Z " fill="#FFFFFF" opacity="0.07058824" transform="translate(17,7)"/>
<path d="M0,0 L1,0 L1,1 L0,1 Z " fill="#FFFFFF" opacity="0.11764706" transform="translate(44,6)"/>
<path d="M0,0 L1,0 L1,1 L0,1 Z " fill="#FFFFFF" opacity="0.5803922" transform="translate(43,6)"/>
<path d="M0,0 L1,0 L1,1 L0,1 Z " fill="#FFFFFF" opacity="0.96862745" transform="translate(42,6)"/>
<path d="M0,0 L1,0 L1,1 L0,1 Z " fill="#FFFFFF" opacity="0.972549" transform="translate(21,6)"/>
<path d="M0,0 L1,0 L1,1 L0,1 Z " fill="#FFFFFF" opacity="0.13333334" transform="translate(19,6)"/>
<path d="M0,0 L1,0 L1,1 L0,1 Z " fill="#FFFFFF" opacity="0.38431373" transform="translate(41,5)"/>
<path d="M0,0 L1,0 L1,1 L0,1 Z " fill="#FFFFFF" opacity="0.7372549" transform="translate(40,5)"/>
<path d="M0,0 L1,0 L1,1 L0,1 Z " fill="#FFFFFF" opacity="0.98039216" transform="translate(39,5)"/>
<path d="M0,0 L1,0 L1,1 L0,1 Z " fill="#FFFFFF" opacity="0.75686276" transform="translate(23,5)"/>
<path d="M0,0 L1,0 L1,1 L0,1 Z " fill="#FFFFFF" opacity="0.06666667" transform="translate(21,5)"/>
<path d="M0,0 L1,0 L1,1 L0,1 Z " fill="#FFFFFF" opacity="0.2627451" transform="translate(38,4)"/>
<path d="M0,0 L1,0 L1,1 L0,1 Z " fill="#FFFFFF" opacity="0.6431373" transform="translate(36,4)"/>
<path d="M0,0 L1,0 L1,1 L0,1 Z " fill="#FFFFFF" opacity="0.78431374" transform="translate(35,4)"/>
<path d="M0,0 L1,0 L1,1 L0,1 Z " fill="#FFFFFF" opacity="0.9372549" transform="translate(33,4)"/>
<path d="M0,0 L1,0 L1,1 L0,1 Z " fill="#FFFFFF" opacity="0.9843137" transform="translate(32,4)"/>
<path d="M0,0 L1,0 L1,1 L0,1 Z " fill="#FFFFFF" opacity="0.94509804" transform="translate(30,4)"/>
<path d="M0,0 L1,0 L1,1 L0,1 Z " fill="#FFFFFF" opacity="0.7921569" transform="translate(28,4)"/>
<path d="M0,0 L1,0 L1,1 L0,1 Z " fill="#FFFFFF" opacity="0.49803922" transform="translate(26,4)"/>
<path d="M0,0 L1,0 L1,1 L0,1 Z " fill="#FFFFFF" opacity="0.050980393" transform="translate(24,4)"/>
</svg>
