<?xml version="1.0" encoding="UTF-8"?>
<!-- Generator: visioncortex VTracer 0.6.4 -->
<svg version="1.1" xmlns="http://www.w3.org/2000/svg" width="64" height="64">
<path d="M0,0 L8,0 L8,1 L10,1 L10,3 L11,3 L11,4 L19,4 L19,5 L21,5 L21,6 L22,6 L22,13 L25,13 L25,15 L26,15 L26,25 L25,25 L25,26 L24,26 L24,27 L20,27 L20,28 L22,28 L22,29 L24,29 L24,30 L25,30 L25,40 L24,40 L24,41 L23,41 L23,42 L4,42 L4,41 L3,41 L3,40 L2,40 L2,30 L3,30 L3,29 L4,29 L4,28 L5,28 L5,27 L-1,27 L-1,26 L-3,26 L-3,24 L-4,24 L-4,3 L-3,3 L-3,1 L0,1 Z M-1,3 L-1,24 L10,24 L10,31 L5,31 L5,39 L22,39 L22,31 L19,31 L19,24 L23,24 L23,16 L22,16 L22,15 L19,15 L19,7 L10,7 L10,15 L8,15 L8,3 Z M0,4 L7,4 L7,16 L11,16 L11,8 L18,8 L18,16 L22,16 L22,23 L18,23 L18,32 L21,32 L21,38 L6,38 L6,32 L10,32 L10,31 L11,31 L11,23 L0,23 Z " fill="#92A1AD" transform="translate(21,11)"/>
<path d="M0,0 L7,0 L7,12 L11,12 L11,4 L18,4 L18,12 L22,12 L22,19 L18,19 L18,28 L21,28 L21,34 L6,34 L6,28 L10,28 L10,27 L11,27 L11,19 L0,19 Z " fill="#FFFFFF" transform="translate(21,15)"/>
<path d="M0,0 L1,0 L1,1 L0,1 Z " fill="#92A0AE" opacity="0.43137255" transform="translate(16,26)"/>
<path d="M0,0 L11,0 L11,1 L0,1 Z " fill="#90A1AF" opacity="0.29803923" transform="translate(28,53)"/>
<path d="M0,0 L1,0 L1,1 L0,1 Z " fill="#D9DEE2" opacity="0.7529412" transform="translate(20,31)"/>
<path d="M0,0 L11,0 L11,1 L0,1 Z " fill="#BBC4CC" opacity="0.7921569" transform="translate(27,49)"/>
<path d="M0,0 L1,0 L1,1 L0,1 Z " fill="#BBC4CC" opacity="0.7921569" transform="translate(39,36)"/>
<path d="M0,0 L1,0 L1,1 L0,1 Z " fill="#91A1AC" opacity="0.44705883" transform="translate(22,47)"/>
<path d="M0,0 L1,0 L1,7 L0,7 Z " fill="#92A2AE" opacity="0.5019608" transform="translate(47,27)"/>
<path d="M0,0 L1,0 L1,1 L0,1 Z " fill="#A1AFB9" opacity="0.89411765" transform="translate(28,18)"/>
<path d="M0,0 L1,0 L1,1 L0,1 Z " fill="#91A1AD" opacity="0.25490198" transform="translate(34,14)"/>
<path d="M0,0 L1,0 L1,1 L0,1 Z " fill="#90A1AF" opacity="0.29803923" transform="translate(27,10)"/>
<path d="M0,0 L1,0 L1,1 L0,1 Z " fill="#CAD0D7" opacity="0.7647059" transform="translate(20,22)"/>
<path d="M0,0 L1,0 L1,1 L0,1 Z " fill="#92A0AC" opacity="0.6862745" transform="translate(43,21)"/>
<path d="M0,0 L1,0 L1,1 L0,1 Z " fill="#E9EDEE" opacity="0.7647059" transform="translate(30,34)"/>
<path d="M0,0 L1,0 L1,1 L0,1 Z " fill="#F1F3F4" opacity="0.7882353" transform="translate(39,22)"/>
<path d="M0,0 L1,0 L1,1 L0,1 Z " fill="#93A0AE" opacity="0.36862746" transform="translate(16,20)"/>
<path d="M0,0 L1,0 L1,1 L0,1 Z " fill="#CBD2D8" opacity="0.7647059" transform="translate(26,45)"/>
<path d="M0,0 L1,0 L1,7 L0,7 Z " fill="#DAE0E4" opacity="0.7529412" transform="translate(43,27)"/>
<path d="M0,0 L1,0 L1,1 L0,1 Z " fill="#DCE1E5" opacity="0.7529412" transform="translate(31,22)"/>
<path d="M0,0 L1,0 L1,1 L0,1 Z " fill="#B0BBC4" opacity="0.8235294" transform="translate(35,18)"/>
<path d="M0,0 L1,0 L1,1 L0,1 Z " fill="#AAB6C0" opacity="0.84705883" transform="translate(24,14)"/>
<path d="M0,0 L1,0 L1,1 L0,1 Z " fill="#FFFFFF" opacity="0.99215686" transform="translate(42,46)"/>
<path d="M0,0 L1,0 L1,1 L0,1 Z " fill="#92A0AD" opacity="0.21960784" transform="translate(23,38)"/>
<path d="M0,0 L1,0 L1,1 L0,1 Z " fill="#91A1AE" opacity="0.49019608" transform="translate(16,31)"/>
<path d="M0,0 L1,0 L1,1 L0,1 Z " fill="#93A0AD" opacity="0.23137255" transform="translate(44,38)"/>
<path d="M0,0 L1,0 L1,1 L0,1 Z " fill="#9FACB7" opacity="0.90588236" transform="translate(28,22)"/>
<path d="M0,0 L1,0 L1,1 L0,1 Z " fill="#90A1AF" opacity="0.29803923" transform="translate(27,53)"/>
<path d="M0,0 L1,0 L1,1 L0,1 Z " fill="#91A1AD" opacity="0.9098039" transform="translate(46,43)"/>
<path d="M0,0 L1,0 L1,1 L0,1 Z " fill="#93A0AE" opacity="0.36862746" transform="translate(22,43)"/>
<path d="M0,0 L1,0 L1,1 L0,1 Z " fill="#FBFBFC" opacity="0.8392157" transform="translate(30,42)"/>
<path d="M0,0 L1,0 L1,1 L0,1 Z " fill="#FEFEFE" opacity="0.89411765" transform="translate(31,38)"/>
<path d="M0,0 L1,0 L1,1 L0,1 Z " fill="#DCE1E5" opacity="0.7529412" transform="translate(42,34)"/>
<path d="M0,0 L1,0 L1,1 L0,1 Z " fill="#C9CFD6" opacity="0.76862746" transform="translate(26,34)"/>
<path d="M0,0 L1,0 L1,1 L0,1 Z " fill="#D1D8DD" opacity="0.75686276" transform="translate(20,27)"/>
<path d="M0,0 L1,0 L1,1 L0,1 Z " fill="#92A0AD" opacity="0.4117647" transform="translate(16,24)"/>
<path d="M0,0 L1,0 L1,1 L0,1 Z " fill="#C3CAD1" opacity="0.7764706" transform="translate(20,18)"/>
<path d="M0,0 L1,0 L1,1 L0,1 Z " fill="#90A1AF" opacity="0.29803923" transform="translate(43,17)"/>
<path d="M0,0 L1,0 L1,1 L0,1 Z " fill="#91A1AD" opacity="0.31764707" transform="translate(16,16)"/>
<path d="M0,0 L1,0 L1,1 L0,1 Z " fill="#92A4B0" opacity="0.16470589" transform="translate(23,10)"/>
<path d="M0,0 L1,0 L1,1 L0,1 Z " fill="#B3BEC7" opacity="0.8156863" transform="translate(41,49)"/>
<path d="M0,0 L1,0 L1,1 L0,1 Z " fill="#D2D9DE" opacity="0.7529412" transform="translate(26,47)"/>
<path d="M0,0 L1,0 L1,1 L0,1 Z " fill="#D8DDE1" opacity="0.7529412" transform="translate(40,42)"/>
<path d="M0,0 L1,0 L1,2 L0,2 Z " fill="#B3BDC6" opacity="0.8156863" transform="translate(39,40)"/>
<path d="M0,0 L1,0 L1,1 L0,1 Z " fill="#9EABB6" opacity="0.9137255" transform="translate(41,26)"/>
<path d="M0,0 L1,0 L1,1 L0,1 Z " fill="#DAE0E4" opacity="0.7529412" transform="translate(29,26)"/>
<path d="M0,0 L1,0 L1,1 L0,1 Z " fill="#F6F7F8" opacity="0.8039216" transform="translate(39,25)"/>
<path d="M0,0 L1,0 L1,1 L0,1 Z " fill="#E9EDEE" opacity="0.7607843" transform="translate(31,24)"/>
<path d="M0,0 L1,0 L1,1 L0,1 Z " fill="#A9B5BF" opacity="0.8509804" transform="translate(37,18)"/>
<path d="M0,0 L1,0 L1,1 L0,1 Z " fill="#92A4AD" opacity="0.10980392" transform="translate(39,14)"/>
<path d="M0,0 L1,0 L1,1 L0,1 Z " fill="#90A2AC" opacity="0.21568628" transform="translate(36,14)"/>
<path d="M0,0 L1,0 L1,1 L0,1 Z " fill="#B4BFC8" opacity="0.8117647" transform="translate(26,14)"/>
<path d="M0,0 L1,0 L1,1 L0,1 Z " fill="#93A1AD" opacity="0.003921569" transform="translate(31,11)"/>
<path d="M0,0 L1,0 L1,1 L0,1 Z " fill="#92A1AD" opacity="0.047058824" transform="translate(43,53)"/>
<path d="M0,0 L1,0 L1,1 L0,1 Z " fill="#90A1AC" opacity="0.18039216" transform="translate(25,53)"/>
<path d="M0,0 L1,0 L1,1 L0,1 Z " fill="#92A1AD" opacity="0.93333334" transform="translate(24,52)"/>
<path d="M0,0 L1,0 L1,1 L0,1 Z " fill="#92A1AF" opacity="0.003921569" transform="translate(22,51)"/>
<path d="M0,0 L1,0 L1,1 L0,1 Z " fill="#91A2AC" opacity="0.40784314" transform="translate(22,45)"/>
<path d="M0,0 L1,0 L1,1 L0,1 Z " fill="#FFFFFF" opacity="0.95686275" transform="translate(42,44)"/>
<path d="M0,0 L1,0 L1,1 L0,1 Z " fill="#C5CDD3" opacity="0.77254903" transform="translate(26,43)"/>
<path d="M0,0 L1,0 L1,1 L0,1 Z " fill="#F6F7F8" opacity="0.8039216" transform="translate(28,42)"/>
<path d="M0,0 L1,0 L1,1 L0,1 Z " fill="#91A1AD" opacity="0.50980395" transform="translate(46,41)"/>
<path d="M0,0 L1,0 L1,1 L0,1 Z " fill="#90A4B1" opacity="0.15294118" transform="translate(22,41)"/>
<path d="M0,0 L1,0 L1,1 L0,1 Z " fill="#FFFFFF" opacity="0.9490196" transform="translate(31,40)"/>
<path d="M0,0 L1,0 L1,1 L0,1 Z " fill="#97A2AE" opacity="0.08627451" transform="translate(45,39)"/>
<path d="M0,0 L1,0 L1,1 L0,1 Z " fill="#8EA1AA" opacity="0.105882354" transform="translate(21,38)"/>
<path d="M0,0 L1,0 L1,1 L0,1 Z " fill="#91A2AD" opacity="0.54509807" transform="translate(18,37)"/>
<path d="M0,0 L1,0 L1,1 L0,1 Z " fill="#FBFCFD" opacity="0.8509804" transform="translate(31,36)"/>
<path d="M0,0 L1,0 L1,1 L0,1 Z " fill="#E1E6E9" opacity="0.7529412" transform="translate(40,34)"/>
<path d="M0,0 L1,0 L1,1 L0,1 Z " fill="#DCE0E4" opacity="0.7529412" transform="translate(28,34)"/>
<path d="M0,0 L1,0 L1,1 L0,1 Z " fill="#B4BFC8" opacity="0.8117647" transform="translate(24,34)"/>
<path d="M0,0 L1,0 L1,1 L0,1 Z " fill="#A3B1BA" opacity="0.8784314" transform="translate(22,34)"/>
<path d="M0,0 L1,0 L1,1 L0,1 Z " fill="#DAE0E4" opacity="0.7529412" transform="translate(20,33)"/>
<path d="M0,0 L1,0 L1,1 L0,1 Z " fill="#D5DCE0" opacity="0.7529412" transform="translate(20,29)"/>
<path d="M0,0 L1,0 L1,1 L0,1 Z " fill="#91A0AD" opacity="0.4627451" transform="translate(16,29)"/>
<path d="M0,0 L1,0 L1,1 L0,1 Z " fill="#93A2AC" opacity="0.39607844" transform="translate(47,26)"/>
<path d="M0,0 L1,0 L1,1 L0,1 Z " fill="#CED5DA" opacity="0.75686276" transform="translate(20,25)"/>
<path d="M0,0 L1,0 L1,1 L0,1 Z " fill="#92A1AD" opacity="0.52156866" transform="translate(46,24)"/>
<path d="M0,0 L1,0 L1,1 L0,1 Z " fill="#91A1AE" opacity="0.39215687" transform="translate(16,22)"/>
<path d="M0,0 L1,0 L1,1 L0,1 Z " fill="#EFF0F3" opacity="0.7764706" transform="translate(39,20)"/>
<path d="M0,0 L1,0 L1,1 L0,1 Z " fill="#CDD4D9" opacity="0.7607843" transform="translate(31,20)"/>
<path d="M0,0 L1,0 L1,1 L0,1 Z " fill="#A0ADB7" opacity="0.9019608" transform="translate(28,20)"/>
<path d="M0,0 L1,0 L1,1 L0,1 Z " fill="#C6CED4" opacity="0.76862746" transform="translate(20,20)"/>
<path d="M0,0 L1,0 L1,1 L0,1 Z " fill="#91A1AD" opacity="0.63529414" transform="translate(43,19)"/>
<path d="M0,0 L1,0 L1,1 L0,1 Z " fill="#B8C2CA" opacity="0.8" transform="translate(33,18)"/>
<path d="M0,0 L1,0 L1,1 L0,1 Z " fill="#91A0AE" opacity="0.34509805" transform="translate(16,18)"/>
<path d="M0,0 L1,0 L1,1 L0,1 Z " fill="#92A1AD" opacity="0.7137255" transform="translate(42,16)"/>
<path d="M0,0 L1,0 L1,1 L0,1 Z " fill="#A2AEB8" opacity="0.8901961" transform="translate(28,16)"/>
<path d="M0,0 L1,0 L1,1 L0,1 Z " fill="#BDC6CE" opacity="0.7882353" transform="translate(20,16)"/>
<path d="M0,0 L1,0 L1,1 L0,1 Z " fill="#91A0AE" opacity="0.38039216" transform="translate(32,14)"/>
<path d="M0,0 L1,0 L1,1 L0,1 Z " fill="#A1AFB9" opacity="0.89411765" transform="translate(22,14)"/>
<path d="M0,0 L1,0 L1,1 L0,1 Z " fill="#94A0AC" opacity="0.16862746" transform="translate(16,14)"/>
<path d="M0,0 L1,0 L1,1 L0,1 Z " fill="#91A1AD" opacity="0.92156863" transform="translate(17,13)"/>
<path d="M0,0 L1,0 L1,1 L0,1 Z " fill="#91A0AD" opacity="0.8117647" transform="translate(19,11)"/>
<path d="M0,0 L1,0 L1,1 L0,1 Z " fill="#93A0AD" opacity="0.23137255" transform="translate(25,10)"/>
<path d="M0,0 L1,0 L1,1 L0,1 Z " fill="#95A0AA" opacity="0.09411765" transform="translate(21,10)"/>
<path d="M0,0 L1,0 L1,1 L0,1 Z " fill="#93A0AC" opacity="0.15686275" transform="translate(42,53)"/>
<path d="M0,0 L1,0 L1,1 L0,1 Z " fill="#94A0AC" opacity="0.2509804" transform="translate(41,53)"/>
<path d="M0,0 L1,0 L1,1 L0,1 Z " fill="#90A3AE" opacity="0.27058825" transform="translate(40,53)"/>
<path d="M0,0 L1,0 L1,1 L0,1 Z " fill="#93A1AF" opacity="0.28627452" transform="translate(39,53)"/>
<path d="M0,0 L1,0 L1,1 L0,1 Z " fill="#93A2AD" opacity="0.2784314" transform="translate(26,53)"/>
<path d="M0,0 L1,0 L1,1 L0,1 Z " fill="#92A1AD" opacity="0.047058824" transform="translate(24,53)"/>
<path d="M0,0 L1,0 L1,1 L0,1 Z " fill="#929FAC" opacity="0.23921569" transform="translate(45,52)"/>
<path d="M0,0 L1,0 L1,1 L0,1 Z " fill="#92A1AD" opacity="0.7411765" transform="translate(44,52)"/>
<path d="M0,0 L1,0 L1,1 L0,1 Z " fill="#93A2AE" opacity="0.25882354" transform="translate(23,52)"/>
<path d="M0,0 L1,0 L1,1 L0,1 Z " fill="#90A0B0" opacity="0.1882353" transform="translate(46,51)"/>
<path d="M0,0 L1,0 L1,1 L0,1 Z " fill="#92A0AD" opacity="0.96862745" transform="translate(45,51)"/>
<path d="M0,0 L1,0 L1,1 L0,1 Z " fill="#92A1AD" opacity="0.8509804" transform="translate(23,51)"/>
<path d="M0,0 L1,0 L1,1 L0,1 Z " fill="#92A1AC" opacity="0.6509804" transform="translate(46,50)"/>
<path d="M0,0 L1,0 L1,1 L0,1 Z " fill="#92A1AF" opacity="0.21176471" transform="translate(22,50)"/>
<path d="M0,0 L1,0 L1,1 L0,1 Z " fill="#92A1AD" opacity="0.8352941" transform="translate(46,49)"/>
<path d="M0,0 L1,0 L1,1 L0,1 Z " fill="#A9B6BF" opacity="0.8509804" transform="translate(42,49)"/>
<path d="M0,0 L1,0 L1,1 L0,1 Z " fill="#B5BFC8" opacity="0.80784315" transform="translate(40,49)"/>
<path d="M0,0 L1,0 L1,1 L0,1 Z " fill="#B8C2CA" opacity="0.8" transform="translate(39,49)"/>
<path d="M0,0 L1,0 L1,1 L0,1 Z " fill="#BAC4CB" opacity="0.79607844" transform="translate(38,49)"/>
<path d="M0,0 L1,0 L1,1 L0,1 Z " fill="#9FACB6" opacity="0.90588236" transform="translate(26,49)"/>
<path d="M0,0 L1,0 L1,1 L0,1 Z " fill="#93A1AD" opacity="0.34117648" transform="translate(22,49)"/>
<path d="M0,0 L1,0 L1,1 L0,1 Z " fill="#92A0AC" opacity="0.91764706" transform="translate(46,48)"/>
<path d="M0,0 L1,0 L1,1 L0,1 Z " fill="#FEFEFF" opacity="0.93333334" transform="translate(42,48)"/>
<path d="M0,0 L1,0 L1,1 L0,1 Z " fill="#D0D8DD" opacity="0.75686276" transform="translate(26,48)"/>
<path d="M0,0 L1,0 L1,1 L0,1 Z " fill="#91A2AD" opacity="0.42745098" transform="translate(22,48)"/>
<path d="M0,0 L1,0 L1,1 L0,1 Z " fill="#91A1AD" opacity="0.95686275" transform="translate(46,47)"/>
<path d="M0,0 L1,0 L1,1 L0,1 Z " fill="#FFFFFF" opacity="0.9607843" transform="translate(42,47)"/>
<path d="M0,0 L1,0 L1,1 L0,1 Z " fill="#92A1AD" opacity="0.99607843" transform="translate(46,46)"/>
<path d="M0,0 L1,0 L1,1 L0,1 Z " fill="#CFD5DB" opacity="0.7607843" transform="translate(26,46)"/>
<path d="M0,0 L1,0 L1,1 L0,1 Z " fill="#91A2AD" opacity="0.42745098" transform="translate(22,46)"/>
<path d="M0,0 L1,0 L1,1 L0,1 Z " fill="#92A1AC" opacity="0.9882353" transform="translate(46,45)"/>
<path d="M0,0 L1,0 L1,1 L0,1 Z " fill="#FFFFFF" opacity="0.9843137" transform="translate(42,45)"/>
<path d="M0,0 L1,0 L1,1 L0,1 Z " fill="#92A0AD" opacity="0.9607843" transform="translate(46,44)"/>
<path d="M0,0 L1,0 L1,1 L0,1 Z " fill="#C9CFD6" opacity="0.76862746" transform="translate(26,44)"/>
<path d="M0,0 L1,0 L1,1 L0,1 Z " fill="#93A0AD" opacity="0.3882353" transform="translate(22,44)"/>
<path d="M0,0 L1,0 L1,1 L0,1 Z " fill="#FCFDFD" opacity="0.8666667" transform="translate(42,43)"/>
<path d="M0,0 L1,0 L1,1 L0,1 Z " fill="#FFFFFF" transform="translate(27,43)"/>
<path d="M0,0 L1,0 L1,1 L0,1 Z " fill="#91A0AD" opacity="0.7176471" transform="translate(46,42)"/>
<path d="M0,0 L1,0 L1,1 L0,1 Z " fill="#A6B3BC" opacity="0.8666667" transform="translate(42,42)"/>
<path d="M0,0 L1,0 L1,1 L0,1 Z " fill="#CBD2D8" opacity="0.7647059" transform="translate(41,42)"/>
<path d="M0,0 L1,0 L1,1 L0,1 Z " fill="#EDF0F3" opacity="0.7764706" transform="translate(39,42)"/>
<path d="M0,0 L1,0 L1,1 L0,1 Z " fill="#F8F9FB" opacity="0.81960785" transform="translate(29,42)"/>
<path d="M0,0 L1,0 L1,1 L0,1 Z " fill="#F1F3F4" opacity="0.7882353" transform="translate(27,42)"/>
<path d="M0,0 L1,0 L1,1 L0,1 Z " fill="#AEBAC2" opacity="0.8352941" transform="translate(26,42)"/>
<path d="M0,0 L1,0 L1,1 L0,1 Z " fill="#91A1AD" opacity="0.31764707" transform="translate(22,42)"/>
<path d="M0,0 L1,0 L1,1 L0,1 Z " fill="#FFFFFF" opacity="0.9843137" transform="translate(31,41)"/>
<path d="M0,0 L1,0 L1,1 L0,1 Z " fill="#93A2AA" opacity="0.12941177" transform="translate(46,40)"/>
<path d="M0,0 L1,0 L1,1 L0,1 Z " fill="#92A1AD" opacity="0.9137255" transform="translate(45,40)"/>
<path d="M0,0 L1,0 L1,1 L0,1 Z " fill="#91A1AC" opacity="0.77254903" transform="translate(23,40)"/>
<path d="M0,0 L1,0 L1,1 L0,1 Z " fill="#91A1AC" opacity="0.007843138" transform="translate(22,40)"/>
<path d="M0,0 L1,0 L1,1 L0,1 Z " fill="#92A1AD" opacity="0.65882355" transform="translate(44,39)"/>
<path d="M0,0 L1,0 L1,1 L0,1 Z " fill="#91A0AD" opacity="0.99215686" transform="translate(43,39)"/>
<path d="M0,0 L1,0 L1,1 L0,1 Z " fill="#B4BEC6" opacity="0.8156863" transform="translate(39,39)"/>
<path d="M0,0 L1,0 L1,1 L0,1 Z " fill="#FFFFFF" opacity="0.92156863" transform="translate(31,39)"/>
<path d="M0,0 L1,0 L1,1 L0,1 Z " fill="#91A1AD" opacity="0.8666667" transform="translate(24,39)"/>
<path d="M0,0 L1,0 L1,1 L0,1 Z " fill="#8FA5AD" opacity="0.13333334" transform="translate(23,39)"/>
<path d="M0,0 L1,0 L1,1 L0,1 Z " fill="#91A1AD" opacity="0.011764706" transform="translate(45,38)"/>
<path d="M0,0 L1,0 L1,1 L0,1 Z " fill="#92A1AD" opacity="0.56078434" transform="translate(43,38)"/>
<path d="M0,0 L1,0 L1,1 L0,1 Z " fill="#92A1AD" opacity="0.8352941" transform="translate(42,38)"/>
<path d="M0,0 L1,0 L1,1 L0,1 Z " fill="#91A1AD" opacity="0.9843137" transform="translate(41,38)"/>
<path d="M0,0 L1,0 L1,1 L0,1 Z " fill="#B7C1CA" opacity="0.8039216" transform="translate(39,38)"/>
<path d="M0,0 L1,0 L1,1 L0,1 Z " fill="#92A0AD" opacity="0.76862746" transform="translate(25,38)"/>
<path d="M0,0 L1,0 L1,1 L0,1 Z " fill="#91A0AE" opacity="0.34509805" transform="translate(24,38)"/>
<path d="M0,0 L1,0 L1,1 L0,1 Z " fill="#92A4B0" opacity="0.16470589" transform="translate(22,38)"/>
<path d="M0,0 L1,0 L1,1 L0,1 Z " fill="#92A1AD" opacity="0.039215688" transform="translate(20,38)"/>
<path d="M0,0 L1,0 L1,1 L0,1 Z " fill="#91A0AF" opacity="0.2" transform="translate(46,37)"/>
<path d="M0,0 L1,0 L1,1 L0,1 Z " fill="#91A1AD" opacity="0.827451" transform="translate(45,37)"/>
<path d="M0,0 L1,0 L1,1 L0,1 Z " fill="#BAC4CB" opacity="0.79607844" transform="translate(39,37)"/>
<path d="M0,0 L1,0 L1,1 L0,1 Z " fill="#FDFDFE" opacity="0.87058824" transform="translate(31,37)"/>
<path d="M0,0 L1,0 L1,1 L0,1 Z " fill="#92A0AD" opacity="0.8627451" transform="translate(19,37)"/>
<path d="M0,0 L1,0 L1,1 L0,1 Z " fill="#92A1AD" opacity="0.023529412" transform="translate(17,37)"/>
<path d="M0,0 L1,0 L1,1 L0,1 Z " fill="#8CA6B3" opacity="0.078431375" transform="translate(47,36)"/>
<path d="M0,0 L1,0 L1,1 L0,1 Z " fill="#92A1AD" opacity="0.8901961" transform="translate(46,36)"/>
<path d="M0,0 L1,0 L1,1 L0,1 Z " fill="#92A1AD" opacity="0.65882355" transform="translate(17,36)"/>
<path d="M0,0 L1,0 L1,1 L0,1 Z " fill="#93A1AD" opacity="0.34117648" transform="translate(47,35)"/>
<path d="M0,0 L1,0 L1,1 L0,1 Z " fill="#92A1AD" transform="translate(40,35)"/>
<path d="M0,0 L1,0 L1,1 L0,1 Z " fill="#BCC5CD" opacity="0.7921569" transform="translate(39,35)"/>
<path d="M0,0 L1,0 L1,1 L0,1 Z " fill="#F9F9FB" opacity="0.83137256" transform="translate(31,35)"/>
<path d="M0,0 L1,0 L1,1 L0,1 Z " fill="#92A1AD" opacity="0.99607843" transform="translate(17,35)"/>
<path d="M0,0 L1,0 L1,1 L0,1 Z " fill="#8FA5AD" opacity="0.13333334" transform="translate(16,35)"/>
<path d="M0,0 L1,0 L1,1 L0,1 Z " fill="#91A0AD" opacity="0.4745098" transform="translate(47,34)"/>
<path d="M0,0 L1,0 L1,1 L0,1 Z " fill="#AEB9C2" opacity="0.8352941" transform="translate(43,34)"/>
<path d="M0,0 L1,0 L1,1 L0,1 Z " fill="#E1E5E9" opacity="0.7529412" transform="translate(41,34)"/>
<path d="M0,0 L1,0 L1,1 L0,1 Z " fill="#F3F4F5" opacity="0.7921569" transform="translate(39,34)"/>
<path d="M0,0 L1,0 L1,1 L0,1 Z " fill="#FFFFFF" opacity="0.92156863" transform="translate(31,34)"/>
<path d="M0,0 L1,0 L1,1 L0,1 Z " fill="#E2E6E9" opacity="0.75686276" transform="translate(29,34)"/>
<path d="M0,0 L1,0 L1,1 L0,1 Z " fill="#D1D8DD" opacity="0.75686276" transform="translate(27,34)"/>
<path d="M0,0 L1,0 L1,1 L0,1 Z " fill="#BEC7CF" opacity="0.78431374" transform="translate(25,34)"/>
<path d="M0,0 L1,0 L1,1 L0,1 Z " fill="#ACB7C0" opacity="0.84313726" transform="translate(23,34)"/>
<path d="M0,0 L1,0 L1,1 L0,1 Z " fill="#9CABB5" opacity="0.92156863" transform="translate(21,34)"/>
<path d="M0,0 L1,0 L1,1 L0,1 Z " fill="#95A4AE" opacity="0.9764706" transform="translate(20,34)"/>
<path d="M0,0 L1,0 L1,1 L0,1 Z " fill="#91A1AC" opacity="0.37254903" transform="translate(16,34)"/>
<path d="M0,0 L1,0 L1,1 L0,1 Z " fill="#93A0AE" opacity="0.44313726" transform="translate(16,33)"/>
<path d="M0,0 L1,0 L1,1 L0,1 Z " fill="#DCE0E4" opacity="0.7529412" transform="translate(20,32)"/>
<path d="M0,0 L1,0 L1,1 L0,1 Z " fill="#93A1AD" opacity="0.49803922" transform="translate(16,32)"/>
<path d="M0,0 L1,0 L1,1 L0,1 Z " fill="#D8DDE1" opacity="0.7529412" transform="translate(20,30)"/>
<path d="M0,0 L1,0 L1,1 L0,1 Z " fill="#92A1AE" opacity="0.47843137" transform="translate(16,30)"/>
<path d="M0,0 L1,0 L1,1 L0,1 Z " fill="#D4DADE" opacity="0.7529412" transform="translate(20,28)"/>
<path d="M0,0 L1,0 L1,1 L0,1 Z " fill="#91A1AE" opacity="0.45490196" transform="translate(16,28)"/>
<path d="M0,0 L1,0 L1,1 L0,1 Z " fill="#93A0AE" opacity="0.44313726" transform="translate(16,27)"/>
<path d="M0,0 L1,0 L1,1 L0,1 Z " fill="#9AA8B3" opacity="0.93333334" transform="translate(42,26)"/>
<path d="M0,0 L1,0 L1,1 L0,1 Z " fill="#9AA8B3" opacity="0.9372549" transform="translate(40,26)"/>
<path d="M0,0 L1,0 L1,1 L0,1 Z " fill="#F8F8F9" opacity="0.8235294" transform="translate(39,26)"/>
<path d="M0,0 L1,0 L1,1 L0,1 Z " fill="#FCFCFD" opacity="0.8745098" transform="translate(31,26)"/>
<path d="M0,0 L1,0 L1,1 L0,1 Z " fill="#DAE0E4" opacity="0.7529412" transform="translate(30,26)"/>
<path d="M0,0 L1,0 L1,1 L0,1 Z " fill="#E1E6E9" opacity="0.7529412" transform="translate(28,26)"/>
<path d="M0,0 L1,0 L1,1 L0,1 Z " fill="#D0D8DD" opacity="0.75686276" transform="translate(20,26)"/>
<path d="M0,0 L1,0 L1,1 L0,1 Z " fill="#93A0AC" opacity="0.15686275" transform="translate(47,25)"/>
<path d="M0,0 L1,0 L1,1 L0,1 Z " fill="#92A1AC" opacity="0.9882353" transform="translate(46,25)"/>
<path d="M0,0 L1,0 L1,1 L0,1 Z " fill="#EFF1F3" opacity="0.7764706" transform="translate(31,25)"/>
<path d="M0,0 L1,0 L1,1 L0,1 Z " fill="#9DAAB5" opacity="0.91764706" transform="translate(28,25)"/>
<path d="M0,0 L1,0 L1,1 L0,1 Z " fill="#92A1AD" opacity="0.42352942" transform="translate(16,25)"/>
<path d="M0,0 L1,0 L1,1 L0,1 Z " fill="#F4F5F7" opacity="0.7921569" transform="translate(39,24)"/>
<path d="M0,0 L1,0 L1,1 L0,1 Z " fill="#9EABB6" opacity="0.9137255" transform="translate(28,24)"/>
<path d="M0,0 L1,0 L1,1 L0,1 Z " fill="#CDD4D9" opacity="0.7607843" transform="translate(20,24)"/>
<path d="M0,0 L1,0 L1,1 L0,1 Z " fill="#91A0AD" opacity="0.043137256" transform="translate(46,23)"/>
<path d="M0,0 L1,0 L1,1 L0,1 Z " fill="#91A0AD" opacity="0.5372549" transform="translate(45,23)"/>
<path d="M0,0 L1,0 L1,1 L0,1 Z " fill="#91A1AC" opacity="0.78431374" transform="translate(44,23)"/>
<path d="M0,0 L1,0 L1,1 L0,1 Z " fill="#92A0AD" opacity="0.98039216" transform="translate(43,23)"/>
<path d="M0,0 L1,0 L1,1 L0,1 Z " fill="#F1F3F4" opacity="0.7882353" transform="translate(39,23)"/>
<path d="M0,0 L1,0 L1,1 L0,1 Z " fill="#E2E6E9" opacity="0.75686276" transform="translate(31,23)"/>
<path d="M0,0 L1,0 L1,1 L0,1 Z " fill="#9EACB7" opacity="0.9098039" transform="translate(28,23)"/>
<path d="M0,0 L1,0 L1,1 L0,1 Z " fill="#CAD2D8" opacity="0.7647059" transform="translate(20,23)"/>
<path d="M0,0 L1,0 L1,1 L0,1 Z " fill="#91A0AD" opacity="0.4" transform="translate(16,23)"/>
<path d="M0,0 L1,0 L1,1 L0,1 Z " fill="#91A1AD" opacity="0.6901961" transform="translate(43,22)"/>
<path d="M0,0 L1,0 L1,1 L0,1 Z " fill="#F1F4F5" opacity="0.78431374" transform="translate(39,21)"/>
<path d="M0,0 L1,0 L1,1 L0,1 Z " fill="#D4DAE0" opacity="0.7529412" transform="translate(31,21)"/>
<path d="M0,0 L1,0 L1,1 L0,1 Z " fill="#9FACB6" opacity="0.90588236" transform="translate(28,21)"/>
<path d="M0,0 L1,0 L1,1 L0,1 Z " fill="#C7CFD6" opacity="0.76862746" transform="translate(20,21)"/>
<path d="M0,0 L1,0 L1,1 L0,1 Z " fill="#91A0AE" opacity="0.38039216" transform="translate(16,21)"/>
<path d="M0,0 L1,0 L1,1 L0,1 Z " fill="#91A0AC" opacity="0.6627451" transform="translate(43,20)"/>
<path d="M0,0 L1,0 L1,1 L0,1 Z " fill="#EBEDF0" opacity="0.76862746" transform="translate(39,19)"/>
<path d="M0,0 L1,0 L1,1 L0,1 Z " fill="#C5CDD3" opacity="0.77254903" transform="translate(31,19)"/>
<path d="M0,0 L1,0 L1,1 L0,1 Z " fill="#A0ADB8" opacity="0.8980392" transform="translate(28,19)"/>
<path d="M0,0 L1,0 L1,1 L0,1 Z " fill="#C5CDD3" opacity="0.77254903" transform="translate(20,19)"/>
<path d="M0,0 L1,0 L1,1 L0,1 Z " fill="#93A1AC" opacity="0.36078432" transform="translate(16,19)"/>
<path d="M0,0 L1,0 L1,1 L0,1 Z " fill="#92A1AD" opacity="0.52156866" transform="translate(43,18)"/>
<path d="M0,0 L1,0 L1,1 L0,1 Z " fill="#9AA8B3" opacity="0.93333334" transform="translate(39,18)"/>
<path d="M0,0 L1,0 L1,1 L0,1 Z " fill="#A6B2BC" opacity="0.8666667" transform="translate(38,18)"/>
<path d="M0,0 L1,0 L1,1 L0,1 Z " fill="#ADB9C1" opacity="0.8392157" transform="translate(36,18)"/>
<path d="M0,0 L1,0 L1,1 L0,1 Z " fill="#B4BEC6" opacity="0.8156863" transform="translate(34,18)"/>
<path d="M0,0 L1,0 L1,1 L0,1 Z " fill="#BEC7CE" opacity="0.78431374" transform="translate(32,18)"/>
<path d="M0,0 L1,0 L1,1 L0,1 Z " fill="#A0ADB7" opacity="0.9019608" transform="translate(31,18)"/>
<path d="M0,0 L1,0 L1,1 L0,1 Z " fill="#A1AEB9" opacity="0.89411765" transform="translate(28,17)"/>
<path d="M0,0 L1,0 L1,1 L0,1 Z " fill="#C0C9D0" opacity="0.78039217" transform="translate(20,17)"/>
<path d="M0,0 L1,0 L1,1 L0,1 Z " fill="#93A2AE" opacity="0.33333334" transform="translate(16,17)"/>
<path d="M0,0 L1,0 L1,1 L0,1 Z " fill="#92A1AD" opacity="0.003921569" transform="translate(43,16)"/>
<path d="M0,0 L1,0 L1,1 L0,1 Z " fill="#91A1AC" opacity="0.03529412" transform="translate(42,15)"/>
<path d="M0,0 L1,0 L1,1 L0,1 Z " fill="#91A1AC" opacity="0.5529412" transform="translate(41,15)"/>
<path d="M0,0 L1,0 L1,1 L0,1 Z " fill="#91A0AD" opacity="0.9372549" transform="translate(40,15)"/>
<path d="M0,0 L1,0 L1,1 L0,1 Z " fill="#A3AFB9" opacity="0.8862745" transform="translate(28,15)"/>
<path d="M0,0 L1,0 L1,1 L0,1 Z " fill="#B7C1CA" opacity="0.8039216" transform="translate(20,15)"/>
<path d="M0,0 L1,0 L1,1 L0,1 Z " fill="#93A2AD" opacity="0.2784314" transform="translate(16,15)"/>
<path d="M0,0 L1,0 L1,1 L0,1 Z " fill="#92A4AD" opacity="0.003921569" transform="translate(40,14)"/>
<path d="M0,0 L1,0 L1,1 L0,1 Z " fill="#92A4B0" opacity="0.16470589" transform="translate(38,14)"/>
<path d="M0,0 L1,0 L1,1 L0,1 Z " fill="#92A1AC" opacity="0.19215687" transform="translate(37,14)"/>
<path d="M0,0 L1,0 L1,1 L0,1 Z " fill="#91A2AE" opacity="0.23529412" transform="translate(35,14)"/>
<path d="M0,0 L1,0 L1,1 L0,1 Z " fill="#91A2AC" opacity="0.2901961" transform="translate(33,14)"/>
<path d="M0,0 L1,0 L1,1 L0,1 Z " fill="#97A5B1" opacity="0.9607843" transform="translate(28,14)"/>
<path d="M0,0 L1,0 L1,1 L0,1 Z " fill="#BAC4CC" opacity="0.7921569" transform="translate(27,14)"/>
<path d="M0,0 L1,0 L1,1 L0,1 Z " fill="#B1BAC4" opacity="0.827451" transform="translate(25,14)"/>
<path d="M0,0 L1,0 L1,1 L0,1 Z " fill="#A6B2BB" opacity="0.87058824" transform="translate(23,14)"/>
<path d="M0,0 L1,0 L1,1 L0,1 Z " fill="#9CA9B4" opacity="0.92156863" transform="translate(21,14)"/>
<path d="M0,0 L1,0 L1,1 L0,1 Z " fill="#94A2AD" opacity="0.9882353" transform="translate(20,14)"/>
<path d="M0,0 L1,0 L1,1 L0,1 Z " fill="#92A0AC" opacity="0.011764706" transform="translate(32,13)"/>
<path d="M0,0 L1,0 L1,1 L0,1 Z " fill="#92A0AC" opacity="0.91764706" transform="translate(31,13)"/>
<path d="M0,0 L1,0 L1,1 L0,1 Z " fill="#91A1AD" opacity="0.015686275" transform="translate(16,13)"/>
<path d="M0,0 L1,0 L1,1 L0,1 Z " fill="#91A1AC" opacity="0.43529412" transform="translate(31,12)"/>
<path d="M0,0 L1,0 L1,1 L0,1 Z " fill="#92A1AD" transform="translate(18,12)"/>
<path d="M0,0 L1,0 L1,1 L0,1 Z " fill="#92A2AE" opacity="0.32156864" transform="translate(17,12)"/>
<path d="M0,0 L1,0 L1,1 L0,1 Z " fill="#93A1AD" opacity="0.49803922" transform="translate(30,11)"/>
<path d="M0,0 L1,0 L1,1 L0,1 Z " fill="#91A1AC" opacity="0.9764706" transform="translate(29,11)"/>
<path d="M0,0 L1,0 L1,1 L0,1 Z " fill="#91A0AD" opacity="0.99215686" transform="translate(20,11)"/>
<path d="M0,0 L1,0 L1,1 L0,1 Z " fill="#92A0AB" opacity="0.27450982" transform="translate(18,11)"/>
<path d="M0,0 L1,0 L1,1 L0,1 Z " fill="#8CA6B3" opacity="0.078431375" transform="translate(29,10)"/>
<path d="M0,0 L1,0 L1,1 L0,1 Z " fill="#92A0AB" opacity="0.27450982" transform="translate(28,10)"/>
<path d="M0,0 L1,0 L1,1 L0,1 Z " fill="#91A0AB" opacity="0.2627451" transform="translate(26,10)"/>
<path d="M0,0 L1,0 L1,1 L0,1 Z " fill="#94A3AE" opacity="0.19607843" transform="translate(24,10)"/>
<path d="M0,0 L1,0 L1,1 L0,1 Z " fill="#93A2AA" opacity="0.12941177" transform="translate(22,10)"/>
<path d="M0,0 L1,0 L1,1 L0,1 Z " fill="#95A0AA" opacity="0.03529412" transform="translate(20,10)"/>
</svg>
