<?xml version="1.0" encoding="UTF-8"?>
<!-- Generator: visioncortex VTracer 0.6.4 -->
<svg version="1.1" xmlns="http://www.w3.org/2000/svg" width="64" height="64">
<path d="M0,0 L7,0 L7,1 L9,1 L9,2 L11,2 L11,3 L13,3 L13,4 L14,4 L14,5 L16,5 L16,6 L18,6 L18,7 L19,7 L19,8 L20,8 L20,9 L21,9 L21,10 L22,10 L22,12 L23,12 L23,16 L24,16 L24,26 L23,26 L23,30 L22,30 L22,32 L21,32 L21,33 L20,33 L20,34 L19,34 L19,35 L18,35 L18,36 L16,36 L16,37 L15,37 L15,38 L13,38 L13,39 L11,39 L11,40 L9,40 L9,41 L7,41 L7,42 L0,42 L0,41 L-2,41 L-2,40 L-4,40 L-4,39 L-6,39 L-6,38 L-7,38 L-7,37 L-9,37 L-9,36 L-11,36 L-11,35 L-12,35 L-12,34 L-13,34 L-13,33 L-14,33 L-14,31 L-15,31 L-15,29 L-16,29 L-16,13 L-15,13 L-15,11 L-14,11 L-14,9 L-13,9 L-13,8 L-12,8 L-12,7 L-11,7 L-11,6 L-9,6 L-9,5 L-7,5 L-7,4 L-5,4 L-5,3 L-4,3 L-4,2 L-2,2 L-2,1 L0,1 Z M1,3 L1,4 L6,4 L6,5 L8,5 L8,6 L10,6 L10,7 L12,7 L12,6 L11,6 L11,5 L9,5 L9,4 L7,4 L7,3 Z M-2,4 L-2,5 L-3,5 L-3,6 L-1,6 L-1,5 L1,5 L1,4 Z M-5,6 L-5,7 L-7,7 L-7,8 L-9,8 L-9,9 L-10,9 L-10,10 L-11,10 L-11,11 L-12,11 L-12,13 L-13,13 L-13,29 L-12,29 L-12,31 L-11,31 L-11,32 L-10,32 L-10,33 L-9,33 L-9,34 L-7,34 L-7,35 L-5,35 L-5,34 L-6,34 L-6,33 L-8,33 L-8,32 L-9,32 L-9,31 L-10,31 L-10,30 L-11,30 L-11,28 L-12,28 L-12,14 L-11,14 L-11,12 L-10,12 L-10,11 L-9,11 L-9,10 L-8,10 L-8,9 L-6,9 L-6,8 L-4,8 L-4,7 L-3,7 L-3,6 Z M3,6 L3,7 L0,7 L0,8 L-1,8 L-1,9 L-3,9 L-3,10 L-5,10 L-5,11 L-7,11 L-7,12 L-8,12 L-8,13 L-9,13 L-9,15 L-10,15 L-10,27 L-9,27 L-9,29 L-8,29 L-8,30 L-7,30 L-7,31 L-5,31 L-5,32 L-3,32 L-3,33 L-2,33 L-2,34 L0,34 L0,35 L3,35 L3,36 L5,36 L5,35 L7,35 L7,34 L9,34 L9,33 L11,33 L11,32 L12,32 L12,31 L14,31 L14,30 L15,30 L15,29 L16,29 L16,28 L17,28 L17,14 L16,14 L16,13 L15,13 L15,12 L14,12 L14,11 L12,11 L12,10 L10,10 L10,9 L9,9 L9,8 L7,8 L7,7 L4,7 L4,6 Z M12,7 L12,8 L13,8 L13,9 L15,9 L15,10 L16,10 L16,11 L18,11 L18,10 L17,10 L17,9 L16,9 L16,8 L14,8 L14,7 Z M18,11 L18,13 L19,13 L19,17 L20,17 L20,12 L19,12 L19,11 Z M19,26 L19,29 L18,29 L18,31 L19,31 L19,30 L20,30 L20,26 Z M17,31 L17,32 L18,32 L18,31 Z M15,32 L15,33 L14,33 L14,34 L16,34 L16,33 L17,33 L17,32 Z M12,34 L12,35 L14,35 L14,34 Z M-5,35 L-5,36 L-3,36 L-3,35 Z M10,35 L10,36 L8,36 L8,37 L6,37 L6,38 L1,38 L1,37 L-1,37 L-1,36 L-3,36 L-3,37 L-2,37 L-2,38 L0,38 L0,39 L7,39 L7,38 L9,38 L9,37 L11,37 L11,36 L12,36 L12,35 Z M3,7 L4,7 L4,8 L6,8 L6,9 L8,9 L8,10 L10,10 L10,11 L12,11 L12,12 L13,12 L13,13 L15,13 L15,15 L16,15 L16,27 L15,27 L15,29 L13,29 L13,30 L12,30 L12,31 L10,31 L10,32 L8,32 L8,33 L7,33 L7,34 L4,34 L4,35 L3,35 L3,34 L1,34 L1,33 L-1,33 L-1,32 L-3,32 L-3,31 L-4,31 L-4,30 L-6,30 L-6,29 L-7,29 L-7,28 L-8,28 L-8,27 L-9,27 L-9,15 L-8,15 L-8,14 L-7,14 L-7,13 L-6,13 L-6,12 L-4,12 L-4,11 L-3,11 L-3,10 L-1,10 L-1,9 L1,9 L1,8 L3,8 Z M2,12 L2,13 L0,13 L0,14 L-1,14 L-1,15 L-3,15 L-3,16 L-4,16 L-4,26 L-3,26 L-3,27 L-1,27 L-1,28 L0,28 L0,29 L2,29 L2,30 L5,30 L5,29 L7,29 L7,28 L9,28 L9,27 L10,27 L10,26 L12,26 L12,17 L11,17 L11,16 L10,16 L10,15 L9,15 L9,14 L7,14 L7,13 L5,13 L5,12 Z M3,13 L4,13 L4,14 L6,14 L6,15 L8,15 L8,16 L10,16 L10,17 L11,17 L11,25 L10,25 L10,26 L8,26 L8,27 L6,27 L6,28 L5,28 L5,29 L3,29 L3,28 L1,28 L1,27 L-1,27 L-1,26 L-3,26 L-3,17 L-2,17 L-2,16 L-1,16 L-1,15 L1,15 L1,14 L3,14 Z M2,17 L2,19 L1,19 L1,24 L2,24 L2,25 L5,25 L5,24 L6,24 L6,18 L5,18 L5,17 Z M3,18 L4,18 L4,19 L5,19 L5,23 L4,23 L4,24 L3,24 L3,23 L2,23 L2,19 L3,19 Z " fill="#F2AB2C" transform="translate(28,11)"/>
<path d="M0,0 L7,0 L7,1 L9,1 L9,2 L11,2 L11,3 L13,3 L13,4 L14,4 L14,5 L16,5 L16,6 L18,6 L18,7 L19,7 L19,8 L20,8 L20,9 L21,9 L21,10 L22,10 L22,12 L23,12 L23,16 L24,16 L24,26 L23,26 L23,30 L22,30 L22,32 L21,32 L21,33 L20,33 L20,34 L19,34 L19,35 L18,35 L18,36 L16,36 L16,37 L15,37 L15,38 L13,38 L13,39 L11,39 L11,40 L9,40 L9,41 L7,41 L7,42 L0,42 L0,41 L-2,41 L-2,40 L-4,40 L-4,39 L-6,39 L-6,38 L-7,38 L-7,37 L-9,37 L-9,36 L-11,36 L-11,35 L-12,35 L-12,34 L-13,34 L-13,33 L-14,33 L-14,31 L-15,31 L-15,29 L-16,29 L-16,13 L-15,13 L-15,11 L-14,11 L-14,9 L-13,9 L-13,8 L-12,8 L-12,7 L-11,7 L-11,6 L-9,6 L-9,5 L-7,5 L-7,4 L-5,4 L-5,3 L-4,3 L-4,2 L-2,2 L-2,1 L0,1 Z M1,3 L1,4 L-2,4 L-2,5 L-3,5 L-3,6 L-5,6 L-5,7 L-7,7 L-7,8 L-9,8 L-9,9 L-10,9 L-10,10 L-11,10 L-11,11 L-12,11 L-12,13 L-13,13 L-13,29 L-12,29 L-12,31 L-11,31 L-11,32 L-10,32 L-10,33 L-9,33 L-9,34 L-7,34 L-7,35 L-5,35 L-5,36 L-3,36 L-3,37 L-2,37 L-2,38 L0,38 L0,39 L7,39 L7,38 L9,38 L9,37 L11,37 L11,36 L12,36 L12,35 L14,35 L14,34 L16,34 L16,33 L17,33 L17,32 L18,32 L18,31 L19,31 L19,30 L20,30 L20,12 L19,12 L19,11 L18,11 L18,10 L17,10 L17,9 L16,9 L16,8 L14,8 L14,7 L12,7 L12,6 L11,6 L11,5 L9,5 L9,4 L7,4 L7,3 Z " fill="#FFFFFF" transform="translate(28,11)"/>
<path d="M0,0 L5,0 L5,1 L7,1 L7,2 L9,2 L9,3 L11,3 L11,4 L12,4 L12,5 L14,5 L14,6 L15,6 L15,7 L17,7 L17,9 L18,9 L18,13 L19,13 L19,22 L18,22 L18,25 L17,25 L17,27 L16,27 L16,28 L14,28 L14,29 L13,29 L13,30 L11,30 L11,31 L9,31 L9,32 L7,32 L7,33 L5,33 L5,34 L0,34 L0,33 L-2,33 L-2,32 L-4,32 L-4,31 L-6,31 L-6,30 L-7,30 L-7,29 L-9,29 L-9,28 L-10,28 L-10,27 L-11,27 L-11,26 L-12,26 L-12,24 L-13,24 L-13,10 L-12,10 L-12,8 L-11,8 L-11,7 L-10,7 L-10,6 L-9,6 L-9,5 L-7,5 L-7,4 L-5,4 L-5,3 L-4,3 L-4,2 L-2,2 L-2,1 L0,1 Z M2,2 L2,3 L-1,3 L-1,4 L-2,4 L-2,5 L-4,5 L-4,6 L-6,6 L-6,7 L-8,7 L-8,8 L-9,8 L-9,9 L-10,9 L-10,11 L-11,11 L-11,23 L-10,23 L-10,25 L-9,25 L-9,26 L-8,26 L-8,27 L-6,27 L-6,28 L-4,28 L-4,29 L-3,29 L-3,30 L-1,30 L-1,31 L2,31 L2,32 L4,32 L4,31 L6,31 L6,30 L8,30 L8,29 L10,29 L10,28 L11,28 L11,27 L13,27 L13,26 L14,26 L14,25 L15,25 L15,24 L16,24 L16,10 L15,10 L15,9 L14,9 L14,8 L13,8 L13,7 L11,7 L11,6 L9,6 L9,5 L8,5 L8,4 L6,4 L6,3 L3,3 L3,2 Z " fill="#353541" transform="translate(29,15)"/>
<path d="M0,0 L1,0 L1,1 L3,1 L3,2 L5,2 L5,3 L7,3 L7,4 L8,4 L8,12 L7,12 L7,13 L5,13 L5,14 L3,14 L3,15 L2,15 L2,16 L0,16 L0,15 L-2,15 L-2,14 L-4,14 L-4,13 L-6,13 L-6,4 L-5,4 L-5,3 L-4,3 L-4,2 L-2,2 L-2,1 L0,1 Z M-1,4 L-1,6 L-2,6 L-2,11 L-1,11 L-1,12 L2,12 L2,11 L3,11 L3,5 L2,5 L2,4 Z M0,5 L1,5 L1,6 L2,6 L2,10 L1,10 L1,11 L0,11 L0,10 L-1,10 L-1,6 L0,6 Z M9,10 L13,10 L13,14 L12,14 L12,16 L10,16 L10,17 L4,17 L4,16 L5,16 L5,15 L6,15 L6,14 L7,14 L7,13 L9,13 Z " fill="#E08D2A" transform="translate(31,24)"/>
<path d="M0,0 L1,0 L1,1 L3,1 L3,2 L5,2 L5,3 L7,3 L7,4 L8,4 L8,11 L3,11 L3,5 L2,5 L2,4 L-1,4 L-1,6 L-2,6 L-2,11 L-1,11 L-1,13 L-6,13 L-6,4 L-5,4 L-5,3 L-4,3 L-4,2 L-2,2 L-2,1 L0,1 Z " fill="#C36D1E" transform="translate(31,24)"/>
<path d="M0,0 L5,0 L5,5 L6,5 L6,6 L8,6 L8,7 L9,7 L9,8 L11,8 L11,9 L14,9 L14,8 L16,8 L16,9 L21,9 L21,10 L19,10 L19,11 L17,11 L17,12 L16,12 L16,13 L13,13 L13,14 L12,14 L12,13 L10,13 L10,12 L8,12 L8,11 L6,11 L6,10 L5,10 L5,9 L3,9 L3,8 L2,8 L2,7 L1,7 L1,6 L0,6 Z M16,7 L17,7 L17,8 L16,8 Z " fill="#ECA12B" transform="translate(19,32)"/>
<path d="M0,0 L4,0 L4,4 L3,4 L3,5 L-3,5 L-3,4 L-2,4 L-2,3 L0,3 Z M-7,1 L-1,1 L-1,2 L-7,2 Z " fill="#ECA12B" transform="translate(40,34)"/>
<path d="M0,0 L1,0 L1,1 L3,1 L3,3 L4,3 L4,11 L0,11 L0,5 L-1,5 L-1,4 L-2,4 L-2,3 L-3,3 L-3,2 L-5,2 L-5,1 L0,1 Z " fill="#EFA82C" transform="translate(40,23)"/>
<path d="M0,0 L4,0 L4,2 L3,2 L3,7 L4,7 L4,9 L-1,9 L-1,1 L0,1 Z " fill="#C97420" transform="translate(26,28)"/>
<path d="M0,0 L5,0 L5,1 L14,1 L14,2 L12,2 L12,3 L11,3 L11,4 L8,4 L8,5 L7,5 L7,4 L5,4 L5,3 L3,3 L3,2 L1,2 L1,1 L0,1 Z " fill="#E99C2B" transform="translate(24,41)"/>
<path d="M0,0 L6,0 L6,1 L5,1 L5,2 L3,2 L3,3 L2,3 L2,8 L-3,8 L-3,2 L-1,2 L-1,1 L0,1 Z " fill="#EFA72C" transform="translate(22,24)"/>
<path d="M0,0 L1,0 L1,1 L0,1 Z M6,0 L7,0 L7,1 L8,1 L8,2 L10,2 L10,3 L13,3 L13,2 L15,2 L15,3 L20,3 L20,4 L9,4 L9,3 L2,3 L2,2 L1,2 L1,1 L6,1 Z M15,1 L16,1 L16,2 L15,2 Z " fill="#EA9E2B" transform="translate(20,38)"/>
<path d="M0,0 L1,0 L1,7 L-4,7 L-4,1 L0,1 Z " fill="#CF7A23" transform="translate(38,28)"/>
<path d="M0,0 L1,0 L1,1 L3,1 L3,2 L5,2 L5,4 L-4,4 L-4,3 L-2,3 L-2,1 L0,1 Z " fill="#F2AC2C" transform="translate(31,18)"/>
<path d="M0,0 L4,0 L4,3 L5,3 L5,5 L0,5 Z " fill="#DA8728" transform="translate(25,32)"/>
<path d="M0,0 L1,0 L1,1 L6,1 L6,2 L-2,2 L-2,1 L0,1 Z M-3,2 L-2,2 L-2,3 L-3,3 Z M-4,3 L-3,3 L-3,4 L-4,4 Z " fill="#F1AB2C" transform="translate(24,22)"/>
<path d="M0,0 L7,0 L7,1 L5,1 L5,2 L-1,2 L-1,1 L0,1 Z " fill="#EA9E2B" transform="translate(36,39)"/>
<path d="M0,0 L6,0 L6,1 L0,1 Z " fill="#DA8728" transform="translate(33,35)"/>
<path d="M0,0 L1,0 L1,1 L2,1 L2,5 L1,5 L1,6 L0,6 L0,5 L-1,5 L-1,1 L0,1 Z " fill="#FABA2D" transform="translate(31,29)"/>
<path d="M0,0 L1,0 L1,7 L0,7 Z " fill="#FFFFFF" opacity="0.7058824" transform="translate(11,29)"/>
<path d="M0,0 L4,0 L4,4 L0,4 Z " fill="#EDA32B" transform="translate(40,30)"/>
<path d="M0,0 L1,0 L1,1 L0,1 Z M-6,1 L-5,1 L-5,2 L-2,2 L-2,1 L0,1 L0,2 L5,2 L5,3 L-6,3 Z " fill="#E99D2B" transform="translate(35,39)"/>
<path d="M0,0 L5,0 L5,1 L4,1 L4,2 L2,2 L2,1 L0,1 Z " fill="#E28F2B" transform="translate(29,38)"/>
<path d="M0,0 L5,0 L5,3 L0,3 Z " fill="#D58025" transform="translate(34,32)"/>
<path d="M0,0 L1,0 L1,1 L3,1 L3,2 L-2,2 L-2,1 L0,1 Z M3,2 L4,2 L4,3 L3,3 Z " fill="#BD661B" transform="translate(31,24)"/>
<path d="M0,0 L1,0 L1,1 L2,1 L2,2 L-2,2 L-2,3 L-3,3 L-3,2 L-5,2 L-5,1 L0,1 Z " fill="#F1AA2C" transform="translate(40,23)"/>
<path d="M0,0 L1,0 L1,1 L0,1 Z M-1,1 L0,1 L0,2 L-1,2 Z M-2,2 L-1,2 L-1,3 L-2,3 Z M-3,3 L-2,3 L-2,4 L-3,4 Z " fill="#FFFFFF" transform="translate(17,17)"/>
<path d="M0,0 L6,0 L6,1 L3,1 L3,2 L2,2 L2,1 L0,1 Z " fill="#E89A2B" transform="translate(29,44)"/>
<path d="M0,0 L4,0 L4,1 L0,1 Z " fill="#CF7A23" transform="translate(25,31)"/>
<path d="M0,0 L1,0 L1,7 L0,7 Z " fill="#4A4A54" opacity="0.7921569" transform="translate(15,29)"/>
<path d="M0,0 L4,0 L4,3 L0,3 Z " fill="#D58025" transform="translate(25,32)"/>
<path d="M0,0 L1,0 L1,2 L0,2 Z " fill="#B08032" opacity="0.7490196" transform="translate(44,28)"/>
<path d="M0,0 L6,0 L6,1 L5,1 L5,2 L-1,2 L-1,1 L0,1 Z " fill="#F0A92C" transform="translate(22,24)"/>
<path d="M0,0 L2,0 L2,1 L5,1 L5,2 L-1,2 L-1,1 L0,1 Z " fill="#EB9F2B" transform="translate(38,37)"/>
<path d="M0,0 L6,0 L6,1 L7,1 L7,2 L2,2 L2,1 L0,1 Z " fill="#EBA02B" transform="translate(19,37)"/>
<path d="M0,0 L1,0 L1,1 L3,1 L3,2 L-1,2 L-1,1 L0,1 Z " fill="#F3AE2C" transform="translate(31,18)"/>
<path d="M0,0 L5,0 L5,2 L0,2 Z " fill="#EDA32B" transform="translate(19,32)"/>
<path d="M0,0 L1,0 L1,6 L0,6 Z " fill="#604E3B" opacity="0.8392157" transform="translate(18,30)"/>
<path d="M0,0 L5,0 L5,2 L0,2 Z " fill="#EEA52C" transform="translate(19,30)"/>
<path d="M0,0 L1,0 L1,1 L0,1 Z M-1,1 L0,1 L0,2 L-1,2 Z M-2,2 L-1,2 L-1,3 L-2,3 Z M-3,3 L-2,3 L-2,4 L-3,4 Z " fill="#353541" transform="translate(20,20)"/>
<path d="M0,0 L9,0 L9,1 L0,1 Z " fill="#E99B2B" transform="translate(27,43)"/>
<path d="M0,0 L5,0 L5,1 L2,1 L2,2 L1,2 L1,1 L0,1 Z " fill="#E99D2B" transform="translate(24,41)"/>
<path d="M0,0 L7,0 L7,1 L0,1 Z " fill="#DD8A29" transform="translate(31,36)"/>
<path d="M0,0 L2,0 L2,2 L-5,2 L-5,1 L0,1 Z " fill="#F1AB2C" transform="translate(38,22)"/>
<path d="M0,0 L1,0 L1,1 L0,1 Z " fill="#FFFFFF" opacity="0.56078434" transform="translate(31,53)"/>
<path d="M0,0 L1,0 L1,1 L0,1 Z " fill="#E69828" opacity="0.8117647" transform="translate(39,33)"/>
<path d="M0,0 L4,0 L4,2 L0,2 Z " fill="#EEA52C" transform="translate(40,30)"/>
<path d="M0,0 L1,0 L1,2 L-4,2 L-4,1 L0,1 Z " fill="#C97420" transform="translate(38,28)"/>
<path d="M0,0 L1,0 L1,1 L7,1 L7,2 L0,2 Z " fill="#F2AD2C" transform="translate(29,19)"/>
<path d="M0,0 L1,0 L1,1 L0,1 Z " fill="#FFFFFF" opacity="0.53333336" transform="translate(31,10)"/>
<path d="M0,0 L2,0 L2,2 L-3,2 L-3,1 L0,1 Z " fill="#C6701F" transform="translate(36,27)"/>
<path d="M0,0 L4,0 L4,1 L0,1 Z " fill="#C6701F" transform="translate(26,28)"/>
<path d="M0,0 L7,0 L7,1 L0,1 Z " fill="#C06A1C" transform="translate(27,26)"/>
<path d="M0,0 L6,0 L6,1 L0,1 Z " fill="#F0A82C" transform="translate(19,26)"/>
<path d="M0,0 L2,0 L2,1 L0,1 Z " fill="#E89A2B" transform="translate(29,44)"/>
<path d="M0,0 L4,0 L4,1 L0,1 Z " fill="#F0A82C" transform="translate(40,26)"/>
<path d="M0,0 L1,0 L1,2 L-4,2 L-4,1 L0,1 Z " fill="#F0A92C" transform="translate(42,24)"/>
<path d="M0,0 L6,0 L6,1 L0,1 Z " fill="#F1AA2C" transform="translate(22,24)"/>
<path d="M0,0 L1,0 L1,1 L0,1 Z " fill="#7C7C82" opacity="0.7529412" transform="translate(32,49)"/>
<path d="M0,0 L1,0 L1,1 L0,1 Z " fill="#E28E2B" opacity="0.9764706" transform="translate(30,39)"/>
<path d="M0,0 L1,0 L1,1 L0,1 Z M1,1 L2,1 L2,2 L1,2 Z " fill="#EA9E2B" transform="translate(20,38)"/>
<path d="M0,0 L5,0 L5,1 L0,1 Z " fill="#EB9F2B" transform="translate(21,38)"/>
<path d="M0,0 L5,0 L5,1 L0,1 Z " fill="#DD8A29" transform="translate(25,36)"/>
<path d="M0,0 L1,0 L1,2 L0,2 Z " fill="#AF7D31" opacity="0.7490196" transform="translate(44,33)"/>
<path d="M0,0 L5,0 L5,1 L0,1 Z " fill="#D88426" transform="translate(34,34)"/>
<path d="M0,0 L4,0 L4,1 L0,1 Z " fill="#D88426" transform="translate(25,34)"/>
<path d="M0,0 L5,0 L5,1 L0,1 Z " fill="#ECA22B" transform="translate(19,34)"/>
<path d="M0,0 L1,0 L1,1 L0,1 Z " fill="#E89D27" opacity="0.7647059" transform="translate(33,33)"/>
<path d="M0,0 L5,0 L5,1 L0,1 Z " fill="#D27D24" transform="translate(34,32)"/>
<path d="M0,0 L5,0 L5,1 L0,1 Z " fill="#EDA42B" transform="translate(19,32)"/>
<path d="M0,0 L5,0 L5,1 L0,1 Z " fill="#CC7721" transform="translate(34,30)"/>
<path d="M0,0 L5,0 L5,1 L0,1 Z " fill="#EFA62C" transform="translate(19,29)"/>
<path d="M0,0 L5,0 L5,1 L0,1 Z " fill="#EFA82C" transform="translate(19,27)"/>
<path d="M0,0 L1,0 L1,1 L0,1 Z M1,1 L2,1 L2,2 L1,2 Z " fill="#C06A1C" transform="translate(33,25)"/>
<path d="M0,0 L1,0 L1,1 L0,1 Z M1,1 L2,1 L2,2 L1,2 Z " fill="#F1AA2C" transform="translate(40,23)"/>
<path d="M0,0 L2,0 L2,2 L1,2 L1,1 L0,1 Z " fill="#F2AB2C" transform="translate(36,21)"/>
<path d="M0,0 L3,0 L3,1 L0,1 Z " fill="#F3AE2C" transform="translate(31,19)"/>
<path d="M0,0 L1,0 L1,1 L0,1 Z " fill="#87878D" opacity="0.75686276" transform="translate(32,14)"/>
<path d="M0,0 L1,0 L1,1 L0,1 Z " fill="#FFFFFF" opacity="0.3764706" transform="translate(24,51)"/>
<path d="M0,0 L1,0 L1,1 L0,1 Z " fill="#FFFFFF" opacity="0.6666667" transform="translate(16,46)"/>
<path d="M0,0 L4,0 L4,1 L0,1 Z " fill="#EBA02B" transform="translate(40,37)"/>
<path d="M0,0 L2,0 L2,1 L0,1 Z " fill="#EBA02B" transform="translate(38,37)"/>
<path d="M0,0 L1,0 L1,1 L0,1 Z " fill="#DD8A29" transform="translate(30,36)"/>
<path d="M0,0 L4,0 L4,1 L0,1 Z " fill="#ECA22B" transform="translate(40,34)"/>
<path d="M0,0 L1,0 L1,1 L0,1 Z " fill="#D98425" opacity="0.9529412" transform="translate(24,34)"/>
<path d="M0,0 L1,0 L1,1 L0,1 Z " fill="#DA8725" opacity="0.90588236" transform="translate(29,33)"/>
<path d="M0,0 L4,0 L4,1 L0,1 Z " fill="#EDA42B" transform="translate(40,32)"/>
<path d="M0,0 L4,0 L4,1 L0,1 Z " fill="#D27D24" transform="translate(25,32)"/>
<path d="M0,0 L1,0 L1,1 L0,1 Z " fill="#E49628" opacity="0.8117647" transform="translate(39,31)"/>
<path d="M0,0 L4,0 L4,1 L0,1 Z " fill="#CC7721" transform="translate(25,30)"/>
<path d="M0,0 L1,0 L1,1 L0,1 Z " fill="#CC7720" opacity="0.9529412" transform="translate(24,30)"/>
<path d="M0,0 L4,0 L4,1 L0,1 Z " fill="#EFA62C" transform="translate(40,29)"/>
<path d="M0,0 L4,0 L4,1 L0,1 Z " fill="#EFA72C" transform="translate(40,28)"/>
<path d="M0,0 L1,0 L1,1 L0,1 Z M-1,1 L0,1 L0,2 L-1,2 Z " fill="#C6701F" transform="translate(26,27)"/>
<path d="M0,0 L1,0 L1,1 L0,1 Z " fill="#4A4A54" opacity="0.7921569" transform="translate(15,28)"/>
<path d="M0,0 L1,0 L1,1 L0,1 Z " fill="#FFFFFF" opacity="0.5882353" transform="translate(11,26)"/>
<path d="M0,0 L1,0 L1,1 L0,1 Z " fill="#FFFFFF" opacity="0.7764706" transform="translate(51,25)"/>
<path d="M0,0 L1,0 L1,1 L0,1 Z " fill="#F2AB2C" transform="translate(24,22)"/>
<path d="M0,0 L1,0 L1,1 L0,1 Z " fill="#FFFFFF" opacity="0.7647059" transform="translate(49,20)"/>
<path d="M0,0 L2,0 L2,1 L0,1 Z " fill="#F2AD2C" transform="translate(27,20)"/>
<path d="M0,0 L1,0 L1,1 L0,1 Z " fill="#FFFFFF" opacity="0.68235296" transform="translate(14,19)"/>
<path d="M0,0 L1,0 L1,1 L0,1 Z " fill="#FFFFFF" opacity="0.8509804" transform="translate(18,16)"/>
<path d="M0,0 L1,0 L1,1 L0,1 Z " fill="#FFFFFF" opacity="0.99215686" transform="translate(42,15)"/>
<path d="M0,0 L1,0 L1,1 L0,1 Z " fill="#FFFFFF" opacity="0.7529412" transform="translate(23,13)"/>
<path d="M0,0 L1,0 L1,1 L0,1 Z " fill="#FFFFFF" opacity="0.78431374" transform="translate(14,44)"/>
<path d="M0,0 L1,0 L1,1 L0,1 Z " fill="#FFFFFF" opacity="0.27450982" transform="translate(11,39)"/>
<path d="M0,0 L1,0 L1,2 L0,2 Z " fill="#B07F32" opacity="0.7490196" transform="translate(44,30)"/>
<path d="M0,0 L1,0 L1,1 L0,1 Z M-1,1 L0,1 L0,2 L-1,2 Z " fill="#FABA2D" transform="translate(31,29)"/>
<path d="M0,0 L1,0 L1,1 L0,1 Z " fill="#62503B" opacity="0.8392157" transform="translate(18,28)"/>
<path d="M0,0 L1,0 L1,2 L0,2 Z " fill="#C36D1E" transform="translate(35,26)"/>
<path d="M0,0 L2,0 L2,2 L1,2 L1,1 L0,1 Z " fill="#F0A82C" transform="translate(38,26)"/>
<path d="M0,0 L1,0 L1,1 L0,1 Z " fill="#F0A92C" transform="translate(37,25)"/>
<path d="M0,0 L1,0 L1,1 L0,1 Z " fill="#F0A92C" transform="translate(20,25)"/>
<path d="M0,0 L1,0 L1,1 L0,1 Z " fill="#FFFFFF" opacity="0.8980392" transform="translate(47,18)"/>
<path d="M0,0 L1,0 L1,1 L0,1 Z " fill="#FFFFFF" opacity="0.16470589" transform="translate(34,10)"/>
<path d="M0,0 L1,0 L1,1 L0,1 Z " fill="#FFFFFF" opacity="0.019607844" transform="translate(35,53)"/>
<path d="M0,0 L1,0 L1,1 L0,1 Z " fill="#FFFFFF" opacity="0.32156864" transform="translate(29,53)"/>
<path d="M0,0 L1,0 L1,1 L0,1 Z " fill="#FFFFFF" opacity="0.12941177" transform="translate(37,52)"/>
<path d="M0,0 L1,0 L1,1 L0,1 Z " fill="#FFFFFF" opacity="0.3764706" transform="translate(26,52)"/>
<path d="M0,0 L1,0 L1,1 L0,1 Z " fill="#FFFFFF" opacity="0.023529412" transform="translate(41,50)"/>
<path d="M0,0 L1,0 L1,1 L0,1 Z " fill="#FFFFFF" opacity="0.80784315" transform="translate(23,50)"/>
<path d="M0,0 L1,0 L1,1 L0,1 Z " fill="#FFFFFF" opacity="0.003921569" transform="translate(43,49)"/>
<path d="M0,0 L1,0 L1,1 L0,1 Z " fill="#86868E" opacity="0.7529412" transform="translate(30,49)"/>
<path d="M0,0 L1,0 L1,1 L0,1 Z " fill="#FFFFFF" opacity="0.6862745" transform="translate(21,49)"/>
<path d="M0,0 L1,0 L1,1 L0,1 Z " fill="#363642" opacity="0.90588236" transform="translate(28,48)"/>
<path d="M0,0 L1,0 L1,1 L0,1 Z " fill="#FFFFFF" opacity="0.5568628" transform="translate(19,48)"/>
<path d="M0,0 L1,0 L1,1 L0,1 Z " fill="#E89A2B" opacity="0.9254902" transform="translate(30,45)"/>
<path d="M0,0 L1,0 L1,1 L0,1 Z " fill="#E89A2A" opacity="0.9490196" transform="translate(28,44)"/>
<path d="M0,0 L1,0 L1,1 L0,1 Z " fill="#FFFFFF" opacity="0.043137256" transform="translate(50,43)"/>
<path d="M0,0 L1,0 L1,1 L0,1 Z " fill="#E99C2B" transform="translate(25,42)"/>
<path d="M0,0 L1,0 L1,1 L0,1 Z " fill="#FFFFFF" opacity="0.18039216" transform="translate(12,42)"/>
<path d="M0,0 L1,0 L1,1 L0,1 Z " fill="#FFFFFF" opacity="0.015686275" transform="translate(51,41)"/>
<path d="M0,0 L1,0 L1,1 L0,1 Z " fill="#E99D2A" opacity="0.9882353" transform="translate(23,41)"/>
<path d="M0,0 L1,0 L1,1 L0,1 Z " fill="#E8992A" opacity="0.8" transform="translate(32,40)"/>
<path d="M0,0 L1,0 L1,1 L0,1 Z " fill="#FFFFFF" opacity="0.6313726" transform="translate(51,39)"/>
<path d="M0,0 L1,0 L1,1 L0,1 Z M-1,1 L0,1 L0,2 L-1,2 Z " fill="#916A34" opacity="0.7647059" transform="translate(43,39)"/>
<path d="M0,0 L1,0 L1,1 L0,1 Z M-1,1 L0,1 L0,2 L-1,2 Z " fill="#EA9E2B" transform="translate(35,39)"/>
<path d="M0,0 L1,0 L1,1 L0,1 Z " fill="#E89A29" opacity="0.8627451" transform="translate(34,39)"/>
<path d="M0,0 L1,0 L1,1 L0,1 Z " fill="#EB9D2A" opacity="0.9411765" transform="translate(36,38)"/>
<path d="M0,0 L2,0 L2,1 L0,1 Z " fill="#E28F2B" transform="translate(29,38)"/>
<path d="M0,0 L1,0 L1,1 L0,1 Z " fill="#E28F2A" opacity="0.91764706" transform="translate(28,38)"/>
<path d="M0,0 L1,0 L1,1 L0,1 Z " fill="#EB9F2B" transform="translate(20,38)"/>
<path d="M0,0 L1,0 L1,1 L0,1 Z " fill="#EA9F2A" transform="translate(38,37)"/>
<path d="M0,0 L1,0 L1,1 L0,1 Z " fill="#E08D2A" opacity="0.8352941" transform="translate(26,37)"/>
<path d="M0,0 L1,0 L1,1 L0,1 Z " fill="#E49628" opacity="0.8156863" transform="translate(32,35)"/>
<path d="M0,0 L1,0 L1,1 L0,1 Z " fill="#D27D23" opacity="0.9529412" transform="translate(24,32)"/>
<path d="M0,0 L1,0 L1,1 L0,1 Z " fill="#E59B26" opacity="0.7607843" transform="translate(33,31)"/>
<path d="M0,0 L1,0 L1,1 L0,1 Z " fill="#D48223" opacity="0.9019608" transform="translate(29,31)"/>
<path d="M0,0 L1,0 L1,1 L0,1 Z " fill="#E39627" opacity="0.8117647" transform="translate(39,29)"/>
<path d="M0,0 L1,0 L1,1 L0,1 Z " fill="#C97420" transform="translate(34,29)"/>
<path d="M0,0 L1,0 L1,1 L0,1 Z " fill="#C6701F" transform="translate(38,28)"/>
<path d="M0,0 L1,0 L1,1 L0,1 Z " fill="#D18121" opacity="0.84705883" transform="translate(32,28)"/>
<path d="M0,0 L1,0 L1,1 L0,1 Z " fill="#C6701F" opacity="0.8980392" transform="translate(24,28)"/>
<path d="M0,0 L1,0 L1,1 L0,1 Z " fill="#FFFFFF" opacity="0.7058824" transform="translate(11,28)"/>
<path d="M0,0 L1,0 L1,1 L0,1 Z " fill="#AE8032" opacity="0.7529412" transform="translate(44,27)"/>
<path d="M0,0 L2,0 L2,1 L0,1 Z " fill="#C36D1E" transform="translate(36,27)"/>
<path d="M0,0 L1,0 L1,1 L0,1 Z " fill="#C36D1E" transform="translate(26,27)"/>
<path d="M0,0 L1,0 L1,1 L0,1 Z " fill="#61616A" opacity="0.7607843" transform="translate(15,26)"/>
<path d="M0,0 L1,0 L1,1 L0,1 Z " fill="#5F5F69" opacity="0.7607843" transform="translate(47,25)"/>
<path d="M0,0 L1,0 L1,1 L0,1 Z " fill="#F0A92B" opacity="0.972549" transform="translate(43,25)"/>
<path d="M0,0 L1,0 L1,1 L0,1 Z " fill="#BD661B" transform="translate(33,25)"/>
<path d="M0,0 L1,0 L1,1 L0,1 Z " fill="#BE671A" opacity="0.87058824" transform="translate(28,25)"/>
<path d="M0,0 L1,0 L1,1 L0,1 Z " fill="#F1AA2C" transform="translate(35,24)"/>
<path d="M0,0 L2,0 L2,1 L0,1 Z " fill="#B96219" opacity="0.9882353" transform="translate(31,24)"/>
<path d="M0,0 L1,0 L1,1 L0,1 Z " fill="#BA6319" opacity="0.9411765" transform="translate(30,24)"/>
<path d="M0,0 L1,0 L1,1 L0,1 Z " fill="#F1AA2C" transform="translate(21,24)"/>
<path d="M0,0 L1,0 L1,1 L0,1 Z " fill="#FFFFFF" opacity="0.30588236" transform="translate(11,24)"/>
<path d="M0,0 L1,0 L1,1 L0,1 Z " fill="#FFFFFF" opacity="0.23137255" transform="translate(51,23)"/>
<path d="M0,0 L1,0 L1,1 L0,1 Z " fill="#F1AB2C" transform="translate(40,23)"/>
<path d="M0,0 L1,0 L1,1 L0,1 Z " fill="#E89F28" opacity="0.8862745" transform="translate(32,23)"/>
<path d="M0,0 L2,0 L2,1 L0,1 Z " fill="#F2AB2C" transform="translate(38,22)"/>
<path d="M0,0 L1,0 L1,1 L0,1 Z " fill="#F2AB2B" opacity="0.9647059" transform="translate(23,22)"/>
<path d="M0,0 L1,0 L1,1 L0,1 Z " fill="#FFFFFF" opacity="0.5176471" transform="translate(12,22)"/>
<path d="M0,0 L1,0 L1,1 L0,1 Z " fill="#F2AC2C" transform="translate(36,21)"/>
<path d="M0,0 L1,0 L1,1 L0,1 Z " fill="#F2AC2C" transform="translate(26,21)"/>
<path d="M0,0 L1,0 L1,1 L0,1 Z " fill="#F1AD2C" opacity="0.9098039" transform="translate(28,19)"/>
<path d="M0,0 L1,0 L1,1 L0,1 Z " fill="#353541" opacity="0.9372549" transform="translate(21,19)"/>
<path d="M0,0 L1,0 L1,1 L0,1 Z " fill="#F1AC2B" opacity="0.89411765" transform="translate(30,18)"/>
<path d="M0,0 L1,0 L1,1 L0,1 Z " fill="#FFFFFF" opacity="0.59607846" transform="translate(16,17)"/>
<path d="M0,0 L1,0 L1,1 L0,1 Z " fill="#FFFFFF" opacity="0.019607844" transform="translate(46,16)"/>
<path d="M0,0 L1,0 L1,1 L0,1 Z " fill="#383843" opacity="0.8862745" transform="translate(28,15)"/>
<path d="M0,0 L1,0 L1,1 L0,1 Z " fill="#FFFFFF" opacity="0.44313726" transform="translate(19,15)"/>
<path d="M0,0 L1,0 L1,1 L0,1 Z " fill="#8E8E95" opacity="0.7607843" transform="translate(30,14)"/>
<path d="M0,0 L1,0 L1,1 L0,1 Z " fill="#FFFFFF" opacity="0.59607846" transform="translate(21,14)"/>
<path d="M0,0 L1,0 L1,1 L0,1 Z " fill="#FFFFFF" opacity="0.003921569" transform="translate(41,13)"/>
<path d="M0,0 L1,0 L1,1 L0,1 Z " fill="#FFFFFF" opacity="0.019607844" transform="translate(39,12)"/>
<path d="M0,0 L1,0 L1,1 L0,1 Z " fill="#FFFFFF" opacity="0.3254902" transform="translate(24,12)"/>
<path d="M0,0 L1,0 L1,1 L0,1 Z " fill="#FFFFFF" opacity="0.039215688" transform="translate(37,11)"/>
<path d="M0,0 L1,0 L1,1 L0,1 Z " fill="#FFFFFF" opacity="0.33333334" transform="translate(26,11)"/>
<path d="M0,0 L1,0 L1,1 L0,1 Z " fill="#FFFFFF" opacity="0.29411766" transform="translate(29,10)"/>
<path d="M0,0 L1,0 L1,1 L0,1 Z " fill="#FFFFFF" opacity="0.23921569" transform="translate(34,53)"/>
<path d="M0,0 L1,0 L1,1 L0,1 Z " fill="#FFFFFF" opacity="0.36862746" transform="translate(33,53)"/>
<path d="M0,0 L1,0 L1,1 L0,1 Z " fill="#FFFFFF" opacity="0.49411765" transform="translate(32,53)"/>
<path d="M0,0 L1,0 L1,1 L0,1 Z " fill="#FFFFFF" opacity="0.44705883" transform="translate(30,53)"/>
<path d="M0,0 L1,0 L1,1 L0,1 Z " fill="#FFFFFF" opacity="0.15686275" transform="translate(28,53)"/>
<path d="M0,0 L1,0 L1,1 L0,1 Z " fill="#FFFFFF" opacity="0.5254902" transform="translate(36,52)"/>
<path d="M0,0 L1,0 L1,1 L0,1 Z " fill="#FFFFFF" opacity="0.9098039" transform="translate(35,52)"/>
<path d="M0,0 L1,0 L1,1 L0,1 Z " fill="#FFFFFF" opacity="0.78039217" transform="translate(27,52)"/>
<path d="M0,0 L1,0 L1,1 L0,1 Z " fill="#FFFFFF" opacity="0.039215688" transform="translate(25,52)"/>
<path d="M0,0 L1,0 L1,1 L0,1 Z " fill="#FFFFFF" opacity="0.078431375" transform="translate(39,51)"/>
<path d="M0,0 L1,0 L1,1 L0,1 Z " fill="#FFFFFF" opacity="0.58431375" transform="translate(38,51)"/>
<path d="M0,0 L1,0 L1,1 L0,1 Z " fill="#FFFFFF" opacity="0.99215686" transform="translate(37,51)"/>
<path d="M0,0 L1,0 L1,1 L0,1 Z " fill="#FFFFFF" opacity="0.9019608" transform="translate(25,51)"/>
<path d="M0,0 L1,0 L1,1 L0,1 Z " fill="#FFFFFF" opacity="0.011764706" transform="translate(23,51)"/>
<path d="M0,0 L1,0 L1,1 L0,1 Z " fill="#FFFFFF" opacity="0.44313726" transform="translate(40,50)"/>
<path d="M0,0 L1,0 L1,1 L0,1 Z " fill="#FFFFFF" opacity="0.9411765" transform="translate(39,50)"/>
<path d="M0,0 L1,0 L1,1 L0,1 Z " fill="#FFFFFF" opacity="0.2509804" transform="translate(22,50)"/>
<path d="M0,0 L1,0 L1,1 L0,1 Z " fill="#FFFFFF" opacity="0.29803923" transform="translate(42,49)"/>
<path d="M0,0 L1,0 L1,1 L0,1 Z " fill="#FFFFFF" opacity="0.8509804" transform="translate(41,49)"/>
<path d="M0,0 L1,0 L1,1 L0,1 Z " fill="#F0F0F1" opacity="0.9411765" transform="translate(34,49)"/>
<path d="M0,0 L1,0 L1,1 L0,1 Z " fill="#A1A1A6" opacity="0.77254903" transform="translate(33,49)"/>
<path d="M0,0 L1,0 L1,1 L0,1 Z " fill="#686872" opacity="0.75686276" transform="translate(31,49)"/>
<path d="M0,0 L1,0 L1,1 L0,1 Z " fill="#B8B8BC" opacity="0.8" transform="translate(29,49)"/>
<path d="M0,0 L1,0 L1,1 L0,1 Z " fill="#FCFCFC" opacity="0.99215686" transform="translate(28,49)"/>
<path d="M0,0 L1,0 L1,1 L0,1 Z " fill="#FFFFFF" opacity="0.14509805" transform="translate(20,49)"/>
<path d="M0,0 L1,0 L1,1 L0,1 Z " fill="#FFFFFF" opacity="0.17254902" transform="translate(44,48)"/>
<path d="M0,0 L1,0 L1,1 L0,1 Z " fill="#FFFFFF" opacity="0.73333335" transform="translate(43,48)"/>
<path d="M0,0 L1,0 L1,1 L0,1 Z " fill="#E4E4E6" opacity="0.8980392" transform="translate(36,48)"/>
<path d="M0,0 L1,0 L1,1 L0,1 Z " fill="#5A5A65" opacity="0.7647059" transform="translate(35,48)"/>
<path d="M0,0 L1,0 L1,1 L0,1 Z " fill="#343440" opacity="0.96862745" transform="translate(34,48)"/>
<path d="M0,0 L1,0 L1,1 L0,1 Z " fill="#7D7D85" opacity="0.7529412" transform="translate(27,48)"/>
<path d="M0,0 L1,0 L1,1 L0,1 Z " fill="#F7F7F7" opacity="0.96862745" transform="translate(26,48)"/>
<path d="M0,0 L1,0 L1,1 L0,1 Z " fill="#FFFFFF" opacity="0.9843137" transform="translate(20,48)"/>
<path d="M0,0 L1,0 L1,1 L0,1 Z " fill="#FFFFFF" opacity="0.06666667" transform="translate(18,48)"/>
<path d="M0,0 L1,0 L1,1 L0,1 Z " fill="#FFFFFF" opacity="0.05882353" transform="translate(46,47)"/>
<path d="M0,0 L1,0 L1,1 L0,1 Z " fill="#FFFFFF" opacity="0.5882353" transform="translate(45,47)"/>
<path d="M0,0 L1,0 L1,1 L0,1 Z " fill="#FFFFFF" opacity="0.99215686" transform="translate(44,47)"/>
<path d="M0,0 L1,0 L1,1 L0,1 Z " fill="#F5F5F6" opacity="0.9607843" transform="translate(38,47)"/>
<path d="M0,0 L1,0 L1,1 L0,1 Z " fill="#75757D" opacity="0.7529412" transform="translate(37,47)"/>
<path d="M0,0 L1,0 L1,1 L0,1 Z " fill="#343440" opacity="0.96862745" transform="translate(36,47)"/>
<path d="M0,0 L1,0 L1,1 L0,1 Z " fill="#373743" opacity="0.90588236" transform="translate(26,47)"/>
<path d="M0,0 L1,0 L1,1 L0,1 Z " fill="#A1A1A6" opacity="0.77254903" transform="translate(25,47)"/>
<path d="M0,0 L1,0 L1,1 L0,1 Z " fill="#FDFDFD" transform="translate(24,47)"/>
<path d="M0,0 L1,0 L1,1 L0,1 Z " fill="#FFFFFF" opacity="0.92941177" transform="translate(18,47)"/>
<path d="M0,0 L1,0 L1,1 L0,1 Z " fill="#FFFFFF" opacity="0.41568628" transform="translate(17,47)"/>
<path d="M0,0 L1,0 L1,1 L0,1 Z " fill="#FFFFFF" opacity="0.007843138" transform="translate(16,47)"/>
<path d="M0,0 L1,0 L1,1 L0,1 Z " fill="#FFFFFF" opacity="0.15294118" transform="translate(47,46)"/>
<path d="M0,0 L1,0 L1,1 L0,1 Z " fill="#FFFFFF" opacity="0.84705883" transform="translate(46,46)"/>
<path d="M0,0 L1,0 L1,1 L0,1 Z " fill="#FDFDFD" transform="translate(40,46)"/>
<path d="M0,0 L1,0 L1,1 L0,1 Z " fill="#9E9EA4" opacity="0.76862746" transform="translate(39,46)"/>
<path d="M0,0 L1,0 L1,1 L0,1 Z " fill="#363642" opacity="0.9098039" transform="translate(38,46)"/>
<path d="M0,0 L1,0 L1,1 L0,1 Z " fill="#36353F" opacity="0.99607843" transform="translate(32,46)"/>
<path d="M0,0 L1,0 L1,1 L0,1 Z " fill="#3F3B3E" opacity="0.9490196" transform="translate(31,46)"/>
<path d="M0,0 L1,0 L1,1 L0,1 Z " fill="#353540" transform="translate(30,46)"/>
<path d="M0,0 L1,0 L1,1 L0,1 Z " fill="#3F3F4B" opacity="0.8352941" transform="translate(24,46)"/>
<path d="M0,0 L1,0 L1,1 L0,1 Z " fill="#C8C8CA" opacity="0.827451" transform="translate(23,46)"/>
<path d="M0,0 L1,0 L1,1 L0,1 Z " fill="#FFFFFF" opacity="0.03529412" transform="translate(15,46)"/>
<path d="M0,0 L1,0 L1,1 L0,1 Z " fill="#FFFFFF" opacity="0.27450982" transform="translate(48,45)"/>
<path d="M0,0 L1,0 L1,1 L0,1 Z " fill="#FFFFFF" opacity="0.94509804" transform="translate(47,45)"/>
<path d="M0,0 L1,0 L1,1 L0,1 Z " fill="#C6C6CA" opacity="0.827451" transform="translate(41,45)"/>
<path d="M0,0 L1,0 L1,1 L0,1 Z " fill="#3F3F4A" opacity="0.8392157" transform="translate(40,45)"/>
<path d="M0,0 L1,0 L1,1 L0,1 Z " fill="#634E3B" opacity="0.83137256" transform="translate(34,45)"/>
<path d="M0,0 L1,0 L1,1 L0,1 Z " fill="#D38D2C" opacity="0.7882353" transform="translate(33,45)"/>
<path d="M0,0 L1,0 L1,1 L0,1 Z " fill="#E89A2B" opacity="0.9764706" transform="translate(32,45)"/>
<path d="M0,0 L1,0 L1,1 L0,1 Z " fill="#BC802F" opacity="0.75686276" transform="translate(29,45)"/>
<path d="M0,0 L1,0 L1,1 L0,1 Z " fill="#463E3E" opacity="0.92156863" transform="translate(28,45)"/>
<path d="M0,0 L1,0 L1,1 L0,1 Z " fill="#52525D" opacity="0.7764706" transform="translate(22,45)"/>
<path d="M0,0 L1,0 L1,1 L0,1 Z " fill="#E2E2E5" opacity="0.89411765" transform="translate(21,45)"/>
<path d="M0,0 L1,0 L1,1 L0,1 Z " fill="#FFFFFF" opacity="0.7882353" transform="translate(15,45)"/>
<path d="M0,0 L1,0 L1,1 L0,1 Z " fill="#FFFFFF" opacity="0.09411765" transform="translate(14,45)"/>
<path d="M0,0 L1,0 L1,1 L0,1 Z " fill="#FFFFFF" opacity="0.14901961" transform="translate(49,44)"/>
<path d="M0,0 L1,0 L1,1 L0,1 Z " fill="#FFFFFF" opacity="0.9490196" transform="translate(48,44)"/>
<path d="M0,0 L1,0 L1,1 L0,1 Z " fill="#E4E4E6" opacity="0.8980392" transform="translate(43,44)"/>
<path d="M0,0 L1,0 L1,1 L0,1 Z " fill="#52525D" opacity="0.7764706" transform="translate(42,44)"/>
<path d="M0,0 L1,0 L1,1 L0,1 Z " fill="#473F3E" opacity="0.91764706" transform="translate(36,44)"/>
<path d="M0,0 L1,0 L1,1 L0,1 Z " fill="#C8882D" opacity="0.7647059" transform="translate(35,44)"/>
<path d="M0,0 L1,0 L1,1 L0,1 Z " fill="#A37332" opacity="0.7490196" transform="translate(27,44)"/>
<path d="M0,0 L1,0 L1,1 L0,1 Z " fill="#38363F" opacity="0.98039216" transform="translate(26,44)"/>
<path d="M0,0 L1,0 L1,1 L0,1 Z " fill="#343441" opacity="0.972549" transform="translate(21,44)"/>
<path d="M0,0 L1,0 L1,1 L0,1 Z " fill="#72727C" opacity="0.7529412" transform="translate(20,44)"/>
<path d="M0,0 L1,0 L1,1 L0,1 Z " fill="#F4F4F5" opacity="0.95686275" transform="translate(19,44)"/>
<path d="M0,0 L1,0 L1,1 L0,1 Z " fill="#FFFFFF" opacity="0.019607844" transform="translate(13,44)"/>
<path d="M0,0 L1,0 L1,1 L0,1 Z " fill="#FFFFFF" opacity="0.827451" transform="translate(49,43)"/>
<path d="M0,0 L1,0 L1,1 L0,1 Z " fill="#9E9EA5" opacity="0.77254903" transform="translate(44,43)"/>
<path d="M0,0 L1,0 L1,1 L0,1 Z " fill="#343440" opacity="0.96862745" transform="translate(43,43)"/>
<path d="M0,0 L1,0 L1,1 L0,1 Z " fill="#38363F" opacity="0.98039216" transform="translate(38,43)"/>
<path d="M0,0 L1,0 L1,1 L0,1 Z " fill="#A47432" opacity="0.7529412" transform="translate(37,43)"/>
<path d="M0,0 L1,0 L1,1 L0,1 Z " fill="#E99B2A" opacity="0.9490196" transform="translate(36,43)"/>
<path d="M0,0 L1,0 L1,1 L0,1 Z " fill="#E5982B" opacity="0.88235295" transform="translate(26,43)"/>
<path d="M0,0 L1,0 L1,1 L0,1 Z " fill="#7A5B38" opacity="0.7882353" transform="translate(25,43)"/>
<path d="M0,0 L1,0 L1,1 L0,1 Z " fill="#353540" transform="translate(24,43)"/>
<path d="M0,0 L1,0 L1,1 L0,1 Z " fill="#363643" opacity="0.8980392" transform="translate(19,43)"/>
<path d="M0,0 L1,0 L1,1 L0,1 Z " fill="#CFCFD2" opacity="0.84313726" transform="translate(18,43)"/>
<path d="M0,0 L1,0 L1,1 L0,1 Z " fill="#FFFFFF" opacity="0.5254902" transform="translate(13,43)"/>
<path d="M0,0 L1,0 L1,1 L0,1 Z " fill="#FFFFFF" opacity="0.48235294" transform="translate(50,42)"/>
<path d="M0,0 L1,0 L1,1 L0,1 Z " fill="#6E6E78" opacity="0.7529412" transform="translate(45,42)"/>
<path d="M0,0 L1,0 L1,1 L0,1 Z " fill="#353540" transform="translate(40,42)"/>
<path d="M0,0 L1,0 L1,1 L0,1 Z " fill="#795C37" opacity="0.7921569" transform="translate(39,42)"/>
<path d="M0,0 L1,0 L1,1 L0,1 Z " fill="#E59A2B" opacity="0.8784314" transform="translate(38,42)"/>
<path d="M0,0 L1,0 L1,1 L0,1 Z " fill="#D9932C" opacity="0.8039216" transform="translate(24,42)"/>
<path d="M0,0 L1,0 L1,1 L0,1 Z " fill="#5A493C" opacity="0.85882354" transform="translate(23,42)"/>
<path d="M0,0 L1,0 L1,1 L0,1 Z " fill="#343440" opacity="0.96862745" transform="translate(18,42)"/>
<path d="M0,0 L1,0 L1,1 L0,1 Z " fill="#B4B4B9" opacity="0.79607844" transform="translate(17,42)"/>
<path d="M0,0 L1,0 L1,1 L0,1 Z " fill="#FFFFFF" opacity="0.99607843" transform="translate(13,42)"/>
<path d="M0,0 L1,0 L1,1 L0,1 Z " fill="#FFFFFF" opacity="0.89411765" transform="translate(50,41)"/>
<path d="M0,0 L1,0 L1,1 L0,1 Z " fill="#A4A4A9" opacity="0.7764706" transform="translate(46,41)"/>
<path d="M0,0 L1,0 L1,1 L0,1 Z " fill="#55473D" opacity="0.87058824" transform="translate(41,41)"/>
<path d="M0,0 L1,0 L1,1 L0,1 Z " fill="#D7922D" opacity="0.8" transform="translate(40,41)"/>
<path d="M0,0 L1,0 L1,1 L0,1 Z " fill="#BE8530" opacity="0.7529412" transform="translate(22,41)"/>
<path d="M0,0 L1,0 L1,1 L0,1 Z " fill="#423D3E" opacity="0.9372549" transform="translate(21,41)"/>
<path d="M0,0 L1,0 L1,1 L0,1 Z " fill="#353541" opacity="0.94509804" transform="translate(17,41)"/>
<path d="M0,0 L1,0 L1,1 L0,1 Z " fill="#E2E2E5" opacity="0.89411765" transform="translate(16,41)"/>
<path d="M0,0 L1,0 L1,1 L0,1 Z " fill="#FFFFFF" opacity="0.5568628" transform="translate(12,41)"/>
<path d="M0,0 L1,0 L1,1 L0,1 Z " fill="#FFFFFF" opacity="0.32941177" transform="translate(51,40)"/>
<path d="M0,0 L1,0 L1,1 L0,1 Z " fill="#F4F4F5" opacity="0.95686275" transform="translate(47,40)"/>
<path d="M0,0 L1,0 L1,1 L0,1 Z " fill="#353540" opacity="0.94509804" transform="translate(46,40)"/>
<path d="M0,0 L1,0 L1,1 L0,1 Z " fill="#EA9D2B" opacity="0.98039216" transform="translate(41,40)"/>
<path d="M0,0 L1,0 L1,1 L0,1 Z " fill="#E6952A" opacity="0.7529412" transform="translate(31,40)"/>
<path d="M0,0 L1,0 L1,1 L0,1 Z " fill="#E99B29" opacity="0.8784314" transform="translate(30,40)"/>
<path d="M0,0 L1,0 L1,1 L0,1 Z " fill="#EA9E2B" transform="translate(29,40)"/>
<path d="M0,0 L1,0 L1,1 L0,1 Z " fill="#E99E2B" opacity="0.93333334" transform="translate(21,40)"/>
<path d="M0,0 L1,0 L1,1 L0,1 Z " fill="#795C37" opacity="0.7921569" transform="translate(20,40)"/>
<path d="M0,0 L1,0 L1,1 L0,1 Z " fill="#4D4D57" opacity="0.7882353" transform="translate(16,40)"/>
<path d="M0,0 L1,0 L1,1 L0,1 Z " fill="#FFFFFF" opacity="0.90588236" transform="translate(12,40)"/>
<path d="M0,0 L1,0 L1,1 L0,1 Z " fill="#FFFFFF" opacity="0.015686275" transform="translate(11,40)"/>
<path d="M0,0 L1,0 L1,1 L0,1 Z " fill="#8C8C93" opacity="0.75686276" transform="translate(47,39)"/>
<path d="M0,0 L1,0 L1,1 L0,1 Z " fill="#E4902A" opacity="0.8039216" transform="translate(33,39)"/>
<path d="M0,0 L1,0 L1,1 L0,1 Z " fill="#E5932A" opacity="0.7490196" transform="translate(29,39)"/>
<path d="M0,0 L1,0 L1,1 L0,1 Z " fill="#EA9D2A" opacity="0.94509804" transform="translate(28,39)"/>
<path d="M0,0 L1,0 L1,1 L0,1 Z " fill="#EA9E2A" opacity="0.9882353" transform="translate(20,39)"/>
<path d="M0,0 L1,0 L1,1 L0,1 Z " fill="#695339" opacity="0.81960785" transform="translate(19,39)"/>
<path d="M0,0 L1,0 L1,1 L0,1 Z " fill="#353540" opacity="0.9843137" transform="translate(16,39)"/>
<path d="M0,0 L1,0 L1,1 L0,1 Z " fill="#EDEDEE" opacity="0.92941177" transform="translate(15,39)"/>
<path d="M0,0 L1,0 L1,1 L0,1 Z " fill="#FFFFFF" opacity="0.7607843" transform="translate(51,38)"/>
<path d="M0,0 L1,0 L1,1 L0,1 Z " fill="#43434E" opacity="0.8156863" transform="translate(47,38)"/>
<path d="M0,0 L1,0 L1,1 L0,1 Z " fill="#48403D" opacity="0.9137255" transform="translate(44,38)"/>
<path d="M0,0 L1,0 L1,1 L0,1 Z " fill="#EB9E2B" opacity="0.98039216" transform="translate(43,38)"/>
<path d="M0,0 L1,0 L1,1 L0,1 Z " fill="#E59329" opacity="0.7490196" transform="translate(35,38)"/>
<path d="M0,0 L1,0 L1,1 L0,1 Z " fill="#E28E2A" opacity="0.9843137" transform="translate(34,38)"/>
<path d="M0,0 L1,0 L1,1 L0,1 Z " fill="#E7962A" opacity="0.7647059" transform="translate(27,38)"/>
<path d="M0,0 L1,0 L1,1 L0,1 Z " fill="#E3992B" opacity="0.8352941" transform="translate(19,38)"/>
<path d="M0,0 L1,0 L1,1 L0,1 Z " fill="#353540" transform="translate(18,38)"/>
<path d="M0,0 L1,0 L1,1 L0,1 Z " fill="#95959C" opacity="0.7647059" transform="translate(15,38)"/>
<path d="M0,0 L1,0 L1,1 L0,1 Z " fill="#FFFFFF" opacity="0.48235294" transform="translate(11,38)"/>
<path d="M0,0 L1,0 L1,1 L0,1 Z " fill="#FFFFFF" opacity="0.89411765" transform="translate(51,37)"/>
<path d="M0,0 L1,0 L1,1 L0,1 Z " fill="#373743" opacity="0.90588236" transform="translate(47,37)"/>
<path d="M0,0 L1,0 L1,1 L0,1 Z " fill="#916B35" opacity="0.7647059" transform="translate(44,37)"/>
<path d="M0,0 L1,0 L1,1 L0,1 Z " fill="#E6962A" opacity="0.7607843" transform="translate(37,37)"/>
<path d="M0,0 L1,0 L1,1 L0,1 Z " fill="#E18E29" opacity="0.91764706" transform="translate(36,37)"/>
<path d="M0,0 L1,0 L1,1 L0,1 Z " fill="#E89B2A" opacity="0.827451" transform="translate(25,37)"/>
<path d="M0,0 L1,0 L1,1 L0,1 Z " fill="#483F3E" opacity="0.91764706" transform="translate(18,37)"/>
<path d="M0,0 L1,0 L1,1 L0,1 Z " fill="#64646D" opacity="0.7607843" transform="translate(15,37)"/>
<path d="M0,0 L1,0 L1,1 L0,1 Z " fill="#FFFFFF" opacity="0.60784316" transform="translate(11,37)"/>
<path d="M0,0 L1,0 L1,1 L0,1 Z " fill="#AD7C31" opacity="0.7529412" transform="translate(44,36)"/>
<path d="M0,0 L1,0 L1,1 L0,1 Z " fill="#EB9F29" opacity="0.99215686" transform="translate(39,36)"/>
<path d="M0,0 L1,0 L1,1 L0,1 Z " fill="#E08D28" opacity="0.79607844" transform="translate(38,36)"/>
<path d="M0,0 L1,0 L1,1 L0,1 Z " fill="#E29229" opacity="0.7529412" transform="translate(24,36)"/>
<path d="M0,0 L1,0 L1,1 L0,1 Z " fill="#5F4D3B" opacity="0.84313726" transform="translate(18,36)"/>
<path d="M0,0 L1,0 L1,1 L0,1 Z " fill="#4C4C56" opacity="0.7921569" transform="translate(15,36)"/>
<path d="M0,0 L1,0 L1,1 L0,1 Z " fill="#FFFFFF" opacity="0.7019608" transform="translate(11,36)"/>
<path d="M0,0 L1,0 L1,1 L0,1 Z " fill="#AF7C31" opacity="0.7490196" transform="translate(44,35)"/>
<path d="M0,0 L1,0 L1,1 L0,1 Z " fill="#E89B29" opacity="0.8392157" transform="translate(39,35)"/>
<path d="M0,0 L1,0 L1,1 L0,1 Z " fill="#F0A92A" opacity="0.7529412" transform="translate(31,35)"/>
<path d="M0,0 L1,0 L1,1 L0,1 Z " fill="#DF8E27" opacity="0.8901961" transform="translate(30,35)"/>
<path d="M0,0 L1,0 L1,1 L0,1 Z " fill="#DA8727" opacity="0.9098039" transform="translate(24,35)"/>
<path d="M0,0 L1,0 L1,1 L0,1 Z " fill="#E69828" opacity="0.8117647" transform="translate(39,34)"/>
<path d="M0,0 L1,0 L1,1 L0,1 Z " fill="#E08F26" opacity="0.8509804" transform="translate(33,34)"/>
<path d="M0,0 L1,0 L1,1 L0,1 Z " fill="#FAB92C" opacity="0.9882353" transform="translate(32,34)"/>
<path d="M0,0 L1,0 L1,1 L0,1 Z " fill="#FABA2C" opacity="0.90588236" transform="translate(30,34)"/>
<path d="M0,0 L1,0 L1,1 L0,1 Z " fill="#D88424" opacity="0.9882353" transform="translate(29,34)"/>
<path d="M0,0 L1,0 L1,1 L0,1 Z " fill="#D58024" opacity="0.9529412" transform="translate(24,33)"/>
<path d="M0,0 L1,0 L1,1 L0,1 Z " fill="#AF7F31" opacity="0.7490196" transform="translate(44,32)"/>
<path d="M0,0 L1,0 L1,1 L0,1 Z " fill="#E49828" opacity="0.8117647" transform="translate(39,32)"/>
<path d="M0,0 L1,0 L1,1 L0,1 Z " fill="#E69D26" opacity="0.7607843" transform="translate(33,32)"/>
<path d="M0,0 L1,0 L1,1 L0,1 Z " fill="#D78424" opacity="0.9019608" transform="translate(29,32)"/>
<path d="M0,0 L1,0 L1,1 L0,1 Z " fill="#CF7A22" opacity="0.9529412" transform="translate(24,31)"/>
<path d="M0,0 L1,0 L1,1 L0,1 Z " fill="#E39628" opacity="0.8117647" transform="translate(39,30)"/>
<path d="M0,0 L1,0 L1,1 L0,1 Z " fill="#E39826" opacity="0.7647059" transform="translate(33,30)"/>
<path d="M0,0 L1,0 L1,1 L0,1 Z " fill="#D07D21" opacity="0.91764706" transform="translate(29,30)"/>
<path d="M0,0 L1,0 L1,1 L0,1 Z " fill="#D38121" opacity="0.87058824" transform="translate(33,29)"/>
<path d="M0,0 L1,0 L1,1 L0,1 Z " fill="#FABA2D" opacity="0.98039216" transform="translate(32,29)"/>
<path d="M0,0 L1,0 L1,1 L0,1 Z " fill="#F8B62B" opacity="0.8352941" transform="translate(30,29)"/>
<path d="M0,0 L1,0 L1,1 L0,1 Z " fill="#CA731F" opacity="0.9529412" transform="translate(24,29)"/>
<path d="M0,0 L1,0 L1,1 L0,1 Z " fill="#62503B" opacity="0.8392157" transform="translate(18,29)"/>
<path d="M0,0 L1,0 L1,1 L0,1 Z " fill="#E69B29" opacity="0.85490197" transform="translate(39,28)"/>
<path d="M0,0 L1,0 L1,1 L0,1 Z " fill="#E29724" opacity="0.7607843" transform="translate(31,28)"/>
<path d="M0,0 L1,0 L1,1 L0,1 Z " fill="#CC771F" opacity="0.91764706" transform="translate(30,28)"/>
<path d="M0,0 L1,0 L1,1 L0,1 Z " fill="#343440" opacity="0.99215686" transform="translate(47,27)"/>
<path d="M0,0 L1,0 L1,1 L0,1 Z " fill="#EEA72B" transform="translate(39,27)"/>
<path d="M0,0 L1,0 L1,1 L0,1 Z " fill="#CB771F" opacity="0.7647059" transform="translate(38,27)"/>
<path d="M0,0 L1,0 L1,1 L0,1 Z " fill="#C36D1D" opacity="0.9843137" transform="translate(25,27)"/>
<path d="M0,0 L1,0 L1,1 L0,1 Z " fill="#DA8B24" opacity="0.76862746" transform="translate(24,27)"/>
<path d="M0,0 L1,0 L1,1 L0,1 Z " fill="#604F3B" opacity="0.84313726" transform="translate(18,27)"/>
<path d="M0,0 L1,0 L1,1 L0,1 Z " fill="#4D4D57" opacity="0.7921569" transform="translate(15,27)"/>
<path d="M0,0 L1,0 L1,1 L0,1 Z " fill="#FFFFFF" opacity="0.69803923" transform="translate(11,27)"/>
<path d="M0,0 L1,0 L1,1 L0,1 Z " fill="#FFFFFF" opacity="0.91764706" transform="translate(51,26)"/>
<path d="M0,0 L1,0 L1,1 L0,1 Z " fill="#3C3C47" opacity="0.8509804" transform="translate(47,26)"/>
<path d="M0,0 L1,0 L1,1 L0,1 Z " fill="#936E35" opacity="0.7647059" transform="translate(44,26)"/>
<path d="M0,0 L1,0 L1,1 L0,1 Z " fill="#EFA72B" transform="translate(38,26)"/>
<path d="M0,0 L1,0 L1,1 L0,1 Z " fill="#DE9124" opacity="0.7882353" transform="translate(37,26)"/>
<path d="M0,0 L1,0 L1,1 L0,1 Z " fill="#C16B1B" opacity="0.87058824" transform="translate(36,26)"/>
<path d="M0,0 L1,0 L1,1 L0,1 Z " fill="#C06A1C" transform="translate(35,26)"/>
<path d="M0,0 L1,0 L1,1 L0,1 Z " fill="#C4701D" opacity="0.79607844" transform="translate(26,26)"/>
<path d="M0,0 L1,0 L1,1 L0,1 Z " fill="#E79C28" opacity="0.8666667" transform="translate(25,26)"/>
<path d="M0,0 L1,0 L1,1 L0,1 Z " fill="#47403E" opacity="0.92156863" transform="translate(18,26)"/>
<path d="M0,0 L1,0 L1,1 L0,1 Z " fill="#463F3E" opacity="0.92156863" transform="translate(44,25)"/>
<path d="M0,0 L1,0 L1,1 L0,1 Z " fill="#EEA62B" opacity="0.98039216" transform="translate(36,25)"/>
<path d="M0,0 L1,0 L1,1 L0,1 Z " fill="#D38221" opacity="0.7490196" transform="translate(35,25)"/>
<path d="M0,0 L1,0 L1,1 L0,1 Z " fill="#BD661A" opacity="0.9411765" transform="translate(34,25)"/>
<path d="M0,0 L1,0 L1,1 L0,1 Z " fill="#DD9024" opacity="0.7921569" transform="translate(27,25)"/>
<path d="M0,0 L1,0 L1,1 L0,1 Z " fill="#E5A22C" opacity="0.827451" transform="translate(19,25)"/>
<path d="M0,0 L1,0 L1,1 L0,1 Z " fill="#87878D" opacity="0.75686276" transform="translate(15,25)"/>
<path d="M0,0 L1,0 L1,1 L0,1 Z " fill="#FFFFFF" opacity="0.44705883" transform="translate(11,25)"/>
<path d="M0,0 L1,0 L1,1 L0,1 Z " fill="#FFFFFF" opacity="0.50980395" transform="translate(51,24)"/>
<path d="M0,0 L1,0 L1,1 L0,1 Z " fill="#A7A7AC" opacity="0.78039217" transform="translate(47,24)"/>
<path d="M0,0 L1,0 L1,1 L0,1 Z " fill="#A67A34" opacity="0.7529412" transform="translate(43,24)"/>
<path d="M0,0 L1,0 L1,1 L0,1 Z " fill="#F1AA2C" transform="translate(42,24)"/>
<path d="M0,0 L1,0 L1,1 L0,1 Z " fill="#EDA329" opacity="0.9254902" transform="translate(34,24)"/>
<path d="M0,0 L1,0 L1,1 L0,1 Z " fill="#C6721D" opacity="0.7529412" transform="translate(33,24)"/>
<path d="M0,0 L1,0 L1,1 L0,1 Z " fill="#BA631A" transform="translate(31,24)"/>
<path d="M0,0 L1,0 L1,1 L0,1 Z " fill="#D18020" opacity="0.7529412" transform="translate(29,24)"/>
<path d="M0,0 L1,0 L1,1 L0,1 Z " fill="#EFA72B" opacity="0.98039216" transform="translate(28,24)"/>
<path d="M0,0 L1,0 L1,1 L0,1 Z " fill="#F1A92C" opacity="0.98039216" transform="translate(20,24)"/>
<path d="M0,0 L1,0 L1,1 L0,1 Z " fill="#64523A" opacity="0.8352941" transform="translate(19,24)"/>
<path d="M0,0 L1,0 L1,1 L0,1 Z " fill="#343441" opacity="0.9882353" transform="translate(16,24)"/>
<path d="M0,0 L1,0 L1,1 L0,1 Z " fill="#E4E4E6" opacity="0.8980392" transform="translate(15,24)"/>
<path d="M0,0 L1,0 L1,1 L0,1 Z " fill="#F8F8F8" opacity="0.972549" transform="translate(47,23)"/>
<path d="M0,0 L1,0 L1,1 L0,1 Z " fill="#363641" opacity="0.92941177" transform="translate(46,23)"/>
<path d="M0,0 L1,0 L1,1 L0,1 Z " fill="#353540" transform="translate(43,23)"/>
<path d="M0,0 L1,0 L1,1 L0,1 Z " fill="#997236" opacity="0.7607843" transform="translate(42,23)"/>
<path d="M0,0 L1,0 L1,1 L0,1 Z " fill="#F1AB2B" opacity="0.9490196" transform="translate(41,23)"/>
<path d="M0,0 L1,0 L1,1 L0,1 Z " fill="#DC8E23" opacity="0.7882353" transform="translate(31,23)"/>
<path d="M0,0 L1,0 L1,1 L0,1 Z " fill="#ECA429" opacity="0.9372549" transform="translate(30,23)"/>
<path d="M0,0 L1,0 L1,1 L0,1 Z " fill="#EFA92B" opacity="0.8980392" transform="translate(21,23)"/>
<path d="M0,0 L1,0 L1,1 L0,1 Z " fill="#6F593A" opacity="0.8117647" transform="translate(20,23)"/>
<path d="M0,0 L1,0 L1,1 L0,1 Z " fill="#575760" opacity="0.77254903" transform="translate(16,23)"/>
<path d="M0,0 L1,0 L1,1 L0,1 Z " fill="#FFFFFF" opacity="0.9372549" transform="translate(12,23)"/>
<path d="M0,0 L1,0 L1,1 L0,1 Z " fill="#FFFFFF" opacity="0.050980393" transform="translate(11,23)"/>
<path d="M0,0 L1,0 L1,1 L0,1 Z " fill="#FFFFFF" opacity="0.007843138" transform="translate(51,22)"/>
<path d="M0,0 L1,0 L1,1 L0,1 Z " fill="#FFFFFF" opacity="0.87058824" transform="translate(50,22)"/>
<path d="M0,0 L1,0 L1,1 L0,1 Z " fill="#B3B3B8" opacity="0.79607844" transform="translate(46,22)"/>
<path d="M0,0 L1,0 L1,1 L0,1 Z " fill="#48413E" opacity="0.91764706" transform="translate(41,22)"/>
<path d="M0,0 L1,0 L1,1 L0,1 Z " fill="#CF952F" opacity="0.7647059" transform="translate(40,22)"/>
<path d="M0,0 L1,0 L1,1 L0,1 Z " fill="#B48432" opacity="0.7529412" transform="translate(22,22)"/>
<path d="M0,0 L1,0 L1,1 L0,1 Z " fill="#3D3A3F" opacity="0.9647059" transform="translate(21,22)"/>
<path d="M0,0 L1,0 L1,1 L0,1 Z " fill="#363641" opacity="0.9137255" transform="translate(17,22)"/>
<path d="M0,0 L1,0 L1,1 L0,1 Z " fill="#EBEBED" opacity="0.92156863" transform="translate(16,22)"/>
<path d="M0,0 L1,0 L1,1 L0,1 Z " fill="#FFFFFF" opacity="0.44705883" transform="translate(50,21)"/>
<path d="M0,0 L1,0 L1,1 L0,1 Z " fill="#82828A" opacity="0.7529412" transform="translate(45,21)"/>
<path d="M0,0 L1,0 L1,1 L0,1 Z " fill="#343440" opacity="0.99607843" transform="translate(44,21)"/>
<path d="M0,0 L1,0 L1,1 L0,1 Z " fill="#61503B" opacity="0.84313726" transform="translate(39,21)"/>
<path d="M0,0 L1,0 L1,1 L0,1 Z " fill="#E5A42D" opacity="0.8235294" transform="translate(38,21)"/>
<path d="M0,0 L1,0 L1,1 L0,1 Z " fill="#F2AC2C" transform="translate(37,21)"/>
<path d="M0,0 L1,0 L1,1 L0,1 Z " fill="#F2AC2C" transform="translate(25,21)"/>
<path d="M0,0 L1,0 L1,1 L0,1 Z " fill="#D69A2E" opacity="0.77254903" transform="translate(24,21)"/>
<path d="M0,0 L1,0 L1,1 L0,1 Z " fill="#4C433D" opacity="0.9019608" transform="translate(23,21)"/>
<path d="M0,0 L1,0 L1,1 L0,1 Z " fill="#373743" opacity="0.90588236" transform="translate(18,21)"/>
<path d="M0,0 L1,0 L1,1 L0,1 Z " fill="#D4D4D7" opacity="0.85882354" transform="translate(17,21)"/>
<path d="M0,0 L1,0 L1,1 L0,1 Z " fill="#FFFFFF" opacity="0.972549" transform="translate(13,21)"/>
<path d="M0,0 L1,0 L1,1 L0,1 Z " fill="#FFFFFF" opacity="0.08627451" transform="translate(12,21)"/>
<path d="M0,0 L1,0 L1,1 L0,1 Z " fill="#FFFFFF" opacity="0.015686275" transform="translate(50,20)"/>
<path d="M0,0 L1,0 L1,1 L0,1 Z " fill="#BBBBBF" opacity="0.80784315" transform="translate(44,20)"/>
<path d="M0,0 L1,0 L1,1 L0,1 Z " fill="#363641" opacity="0.92941177" transform="translate(43,20)"/>
<path d="M0,0 L1,0 L1,1 L0,1 Z " fill="#353540" transform="translate(38,20)"/>
<path d="M0,0 L1,0 L1,1 L0,1 Z " fill="#896A36" opacity="0.77254903" transform="translate(37,20)"/>
<path d="M0,0 L1,0 L1,1 L0,1 Z " fill="#F0AC2B" opacity="0.8980392" transform="translate(36,20)"/>
<path d="M0,0 L1,0 L1,1 L0,1 Z " fill="#EAA82C" opacity="0.8352941" transform="translate(26,20)"/>
<path d="M0,0 L1,0 L1,1 L0,1 Z " fill="#6A563A" opacity="0.8235294" transform="translate(25,20)"/>
<path d="M0,0 L1,0 L1,1 L0,1 Z " fill="#3C3C48" opacity="0.84313726" transform="translate(19,20)"/>
<path d="M0,0 L1,0 L1,1 L0,1 Z " fill="#E7E7E8" opacity="0.90588236" transform="translate(18,20)"/>
<path d="M0,0 L1,0 L1,1 L0,1 Z " fill="#FFFFFF" opacity="0.44313726" transform="translate(13,20)"/>
<path d="M0,0 L1,0 L1,1 L0,1 Z " fill="#FFFFFF" opacity="0.11764706" transform="translate(49,19)"/>
<path d="M0,0 L1,0 L1,1 L0,1 Z " fill="#FFFFFF" opacity="0.93333334" transform="translate(48,19)"/>
<path d="M0,0 L1,0 L1,1 L0,1 Z " fill="#EEEEEF" opacity="0.93333334" transform="translate(43,19)"/>
<path d="M0,0 L1,0 L1,1 L0,1 Z " fill="#63636C" opacity="0.75686276" transform="translate(42,19)"/>
<path d="M0,0 L1,0 L1,1 L0,1 Z " fill="#343441" opacity="0.9882353" transform="translate(41,19)"/>
<path d="M0,0 L1,0 L1,1 L0,1 Z " fill="#3C393F" opacity="0.96862745" transform="translate(36,19)"/>
<path d="M0,0 L1,0 L1,1 L0,1 Z " fill="#B28532" opacity="0.7529412" transform="translate(35,19)"/>
<path d="M0,0 L1,0 L1,1 L0,1 Z " fill="#F3AE2B" opacity="0.9607843" transform="translate(34,19)"/>
<path d="M0,0 L1,0 L1,1 L0,1 Z " fill="#F3AE2C" transform="translate(29,19)"/>
<path d="M0,0 L1,0 L1,1 L0,1 Z " fill="#937035" opacity="0.7647059" transform="translate(27,19)"/>
<path d="M0,0 L1,0 L1,1 L0,1 Z " fill="#363540" transform="translate(26,19)"/>
<path d="M0,0 L1,0 L1,1 L0,1 Z " fill="#8C8C93" opacity="0.75686276" transform="translate(20,19)"/>
<path d="M0,0 L1,0 L1,1 L0,1 Z " fill="#FBFBFB" opacity="0.9882353" transform="translate(19,19)"/>
<path d="M0,0 L1,0 L1,1 L0,1 Z " fill="#FFFFFF" opacity="0.003921569" transform="translate(13,19)"/>
<path d="M0,0 L1,0 L1,1 L0,1 Z " fill="#FFFFFF" opacity="0.20392157" transform="translate(48,18)"/>
<path d="M0,0 L1,0 L1,1 L0,1 Z " fill="#D8D8DA" opacity="0.8666667" transform="translate(41,18)"/>
<path d="M0,0 L1,0 L1,1 L0,1 Z " fill="#4A4A54" opacity="0.8" transform="translate(40,18)"/>
<path d="M0,0 L1,0 L1,1 L0,1 Z " fill="#4C433E" opacity="0.90588236" transform="translate(34,18)"/>
<path d="M0,0 L1,0 L1,1 L0,1 Z " fill="#C8932F" opacity="0.75686276" transform="translate(33,18)"/>
<path d="M0,0 L1,0 L1,1 L0,1 Z " fill="#F3AD2B" opacity="0.9372549" transform="translate(32,18)"/>
<path d="M0,0 L1,0 L1,1 L0,1 Z " fill="#B18432" opacity="0.7529412" transform="translate(29,18)"/>
<path d="M0,0 L1,0 L1,1 L0,1 Z " fill="#3D3A40" opacity="0.95686275" transform="translate(28,18)"/>
<path d="M0,0 L1,0 L1,1 L0,1 Z " fill="#343441" opacity="0.9882353" transform="translate(23,18)"/>
<path d="M0,0 L1,0 L1,1 L0,1 Z " fill="#63636C" opacity="0.75686276" transform="translate(22,18)"/>
<path d="M0,0 L1,0 L1,1 L0,1 Z " fill="#EFEFF1" opacity="0.9372549" transform="translate(21,18)"/>
<path d="M0,0 L1,0 L1,1 L0,1 Z " fill="#FFFFFF" opacity="0.7176471" transform="translate(15,18)"/>
<path d="M0,0 L1,0 L1,1 L0,1 Z " fill="#FFFFFF" opacity="0.03137255" transform="translate(14,18)"/>
<path d="M0,0 L1,0 L1,1 L0,1 Z " fill="#FFFFFF" opacity="0.101960786" transform="translate(47,17)"/>
<path d="M0,0 L1,0 L1,1 L0,1 Z " fill="#FFFFFF" opacity="0.7882353" transform="translate(46,17)"/>
<path d="M0,0 L1,0 L1,1 L0,1 Z " fill="#B8B8BC" opacity="0.8" transform="translate(39,17)"/>
<path d="M0,0 L1,0 L1,1 L0,1 Z " fill="#3B3B46" opacity="0.8627451" transform="translate(38,17)"/>
<path d="M0,0 L1,0 L1,1 L0,1 Z " fill="#353540" transform="translate(32,17)"/>
<path d="M0,0 L1,0 L1,1 L0,1 Z " fill="#3A373F" opacity="0.9764706" transform="translate(31,17)"/>
<path d="M0,0 L1,0 L1,1 L0,1 Z " fill="#474752" opacity="0.8039216" transform="translate(24,17)"/>
<path d="M0,0 L1,0 L1,1 L0,1 Z " fill="#D8D8DA" opacity="0.8666667" transform="translate(23,17)"/>
<path d="M0,0 L1,0 L1,1 L0,1 Z " fill="#FFFFFF" opacity="0.02745098" transform="translate(15,17)"/>
<path d="M0,0 L1,0 L1,1 L0,1 Z " fill="#FFFFFF" opacity="0.4509804" transform="translate(45,16)"/>
<path d="M0,0 L1,0 L1,1 L0,1 Z " fill="#FFFFFF" opacity="0.9411765" transform="translate(44,16)"/>
<path d="M0,0 L1,0 L1,1 L0,1 Z " fill="#FCFCFC" opacity="0.99215686" transform="translate(38,16)"/>
<path d="M0,0 L1,0 L1,1 L0,1 Z " fill="#8F8F96" opacity="0.7607843" transform="translate(37,16)"/>
<path d="M0,0 L1,0 L1,1 L0,1 Z " fill="#363641" opacity="0.92941177" transform="translate(36,16)"/>
<path d="M0,0 L1,0 L1,1 L0,1 Z " fill="#393944" opacity="0.8745098" transform="translate(26,16)"/>
<path d="M0,0 L1,0 L1,1 L0,1 Z " fill="#B2B2B6" opacity="0.7921569" transform="translate(25,16)"/>
<path d="M0,0 L1,0 L1,1 L0,1 Z " fill="#FEFEFE" transform="translate(24,16)"/>
<path d="M0,0 L1,0 L1,1 L0,1 Z " fill="#FFFFFF" opacity="0.28235295" transform="translate(17,16)"/>
<path d="M0,0 L1,0 L1,1 L0,1 Z " fill="#FFFFFF" opacity="0.08235294" transform="translate(44,15)"/>
<path d="M0,0 L1,0 L1,1 L0,1 Z " fill="#FFFFFF" opacity="0.5882353" transform="translate(43,15)"/>
<path d="M0,0 L1,0 L1,1 L0,1 Z " fill="#F2F2F3" opacity="0.94509804" transform="translate(36,15)"/>
<path d="M0,0 L1,0 L1,1 L0,1 Z " fill="#75757D" opacity="0.7529412" transform="translate(35,15)"/>
<path d="M0,0 L1,0 L1,1 L0,1 Z " fill="#353541" opacity="0.9254902" transform="translate(34,15)"/>
<path d="M0,0 L1,0 L1,1 L0,1 Z " fill="#8B8B91" opacity="0.75686276" transform="translate(27,15)"/>
<path d="M0,0 L1,0 L1,1 L0,1 Z " fill="#FAFAFA" opacity="0.9843137" transform="translate(26,15)"/>
<path d="M0,0 L1,0 L1,1 L0,1 Z " fill="#FFFFFF" opacity="0.9411765" transform="translate(20,15)"/>
<path d="M0,0 L1,0 L1,1 L0,1 Z " fill="#FFFFFF" opacity="0.023529412" transform="translate(18,15)"/>
<path d="M0,0 L1,0 L1,1 L0,1 Z " fill="#FFFFFF" opacity="0.17254902" transform="translate(42,14)"/>
<path d="M0,0 L1,0 L1,1 L0,1 Z " fill="#FFFFFF" opacity="0.7294118" transform="translate(41,14)"/>
<path d="M0,0 L1,0 L1,1 L0,1 Z " fill="#F8F8F9" opacity="0.9764706" transform="translate(34,14)"/>
<path d="M0,0 L1,0 L1,1 L0,1 Z " fill="#B2B2B6" opacity="0.7921569" transform="translate(33,14)"/>
<path d="M0,0 L1,0 L1,1 L0,1 Z " fill="#707078" opacity="0.7529412" transform="translate(31,14)"/>
<path d="M0,0 L1,0 L1,1 L0,1 Z " fill="#C1C1C4" opacity="0.8156863" transform="translate(29,14)"/>
<path d="M0,0 L1,0 L1,1 L0,1 Z " fill="#FDFDFD" transform="translate(28,14)"/>
<path d="M0,0 L1,0 L1,1 L0,1 Z " fill="#FFFFFF" opacity="0.99215686" transform="translate(22,14)"/>
<path d="M0,0 L1,0 L1,1 L0,1 Z " fill="#FFFFFF" opacity="0.08235294" transform="translate(20,14)"/>
<path d="M0,0 L1,0 L1,1 L0,1 Z " fill="#FFFFFF" opacity="0.29803923" transform="translate(40,13)"/>
<path d="M0,0 L1,0 L1,1 L0,1 Z " fill="#FFFFFF" opacity="0.84705883" transform="translate(39,13)"/>
<path d="M0,0 L1,0 L1,1 L0,1 Z " fill="#FFFFFF" opacity="0.1882353" transform="translate(22,13)"/>
<path d="M0,0 L1,0 L1,1 L0,1 Z " fill="#FFFFFF" opacity="0.43529412" transform="translate(38,12)"/>
<path d="M0,0 L1,0 L1,1 L0,1 Z " fill="#FFFFFF" opacity="0.92941177" transform="translate(37,12)"/>
<path d="M0,0 L1,0 L1,1 L0,1 Z " fill="#FFFFFF" opacity="0.8745098" transform="translate(25,12)"/>
<path d="M0,0 L1,0 L1,1 L0,1 Z " fill="#FFFFFF" opacity="0.003921569" transform="translate(23,12)"/>
<path d="M0,0 L1,0 L1,1 L0,1 Z " fill="#FFFFFF" opacity="0.4" transform="translate(36,11)"/>
<path d="M0,0 L1,0 L1,1 L0,1 Z " fill="#FFFFFF" opacity="0.8235294" transform="translate(35,11)"/>
<path d="M0,0 L1,0 L1,1 L0,1 Z " fill="#FFFFFF" opacity="0.7411765" transform="translate(27,11)"/>
<path d="M0,0 L1,0 L1,1 L0,1 Z " fill="#FFFFFF" opacity="0.023529412" transform="translate(25,11)"/>
<path d="M0,0 L1,0 L1,1 L0,1 Z " fill="#FFFFFF" opacity="0.003921569" transform="translate(35,10)"/>
<path d="M0,0 L1,0 L1,1 L0,1 Z " fill="#FFFFFF" opacity="0.3137255" transform="translate(33,10)"/>
<path d="M0,0 L1,0 L1,1 L0,1 Z " fill="#FFFFFF" opacity="0.4509804" transform="translate(32,10)"/>
<path d="M0,0 L1,0 L1,1 L0,1 Z " fill="#FFFFFF" opacity="0.42352942" transform="translate(30,10)"/>
<path d="M0,0 L1,0 L1,1 L0,1 Z " fill="#FFFFFF" opacity="0.1254902" transform="translate(28,10)"/>
</svg>
