<?xml version="1.0" encoding="UTF-8"?>
<!-- Generator: visioncortex VTracer 0.6.4 -->
<svg version="1.1" xmlns="http://www.w3.org/2000/svg" width="64" height="64">
<path d="M0,0 L2,0 L2,1 L4,1 L4,2 L5,2 L5,3 L6,3 L6,4 L7,4 L7,5 L8,5 L8,6 L9,6 L9,9 L8,9 L8,10 L7,10 L7,12 L6,12 L6,13 L5,13 L5,15 L4,15 L4,16 L6,16 L6,17 L8,17 L8,18 L9,18 L9,19 L10,19 L10,21 L11,21 L11,26 L10,26 L10,28 L9,28 L9,29 L8,29 L8,30 L7,30 L7,31 L3,31 L3,32 L2,32 L2,31 L-2,31 L-2,30 L-3,30 L-3,29 L-4,29 L-4,28 L-6,28 L-6,30 L-7,30 L-7,31 L-8,31 L-8,32 L-9,32 L-9,33 L-11,33 L-11,34 L-13,34 L-13,33 L-14,33 L-14,32 L-16,32 L-16,31 L-17,31 L-17,30 L-18,30 L-18,29 L-19,29 L-19,27 L-20,27 L-20,25 L-19,25 L-19,24 L-18,24 L-18,22 L-17,22 L-17,21 L-16,21 L-16,19 L-15,19 L-15,18 L-16,18 L-16,17 L-18,17 L-18,16 L-19,16 L-19,15 L-20,15 L-20,14 L-21,14 L-21,7 L-20,7 L-20,6 L-19,6 L-19,5 L-18,5 L-18,4 L-16,4 L-16,3 L-11,3 L-11,4 L-8,4 L-8,5 L-7,5 L-7,6 L-5,6 L-5,5 L-4,5 L-4,4 L-3,4 L-3,3 L-2,3 L-2,1 L0,1 Z M-1,4 L-1,6 L-2,6 L-2,7 L-3,7 L-3,8 L-4,8 L-4,9 L-5,9 L-5,11 L-6,11 L-6,12 L-7,12 L-7,13 L-8,13 L-8,15 L-9,15 L-9,16 L-10,16 L-10,17 L-11,17 L-11,19 L-12,19 L-12,20 L-13,20 L-13,21 L-14,21 L-14,23 L-15,23 L-15,24 L-16,24 L-16,28 L-15,28 L-15,29 L-14,29 L-14,30 L-10,30 L-10,29 L-9,29 L-9,28 L-8,28 L-8,27 L-7,27 L-7,25 L-6,25 L-6,24 L-5,24 L-5,22 L-4,22 L-4,21 L-3,21 L-3,26 L-2,26 L-2,27 L-1,27 L-1,28 L2,28 L2,29 L4,29 L4,28 L6,28 L6,27 L7,27 L7,26 L8,26 L8,21 L7,21 L7,20 L6,20 L6,19 L-1,19 L-1,20 L-2,20 L-2,18 L-1,18 L-1,17 L0,17 L0,16 L1,16 L1,14 L2,14 L2,13 L3,13 L3,11 L4,11 L4,10 L5,10 L5,8 L6,8 L6,7 L5,7 L5,6 L4,6 L4,5 L3,5 L3,4 Z M-16,6 L-16,7 L-17,7 L-17,8 L-18,8 L-18,13 L-17,13 L-17,14 L-16,14 L-16,15 L-10,15 L-10,14 L-9,14 L-9,13 L-8,13 L-8,8 L-9,8 L-9,7 L-11,7 L-11,6 Z M0,5 L3,5 L3,6 L4,6 L4,9 L3,9 L3,11 L2,11 L2,12 L1,12 L1,14 L0,14 L0,15 L-1,15 L-1,16 L-2,16 L-2,18 L-3,18 L-3,19 L-4,19 L-4,20 L-5,20 L-5,22 L-6,22 L-6,23 L-7,23 L-7,24 L-8,24 L-8,26 L-9,26 L-9,27 L-10,27 L-10,28 L-11,28 L-11,29 L-13,29 L-13,28 L-14,28 L-14,27 L-15,27 L-15,25 L-14,25 L-14,23 L-13,23 L-13,22 L-12,22 L-12,21 L-11,21 L-11,19 L-10,19 L-10,18 L-9,18 L-9,17 L-8,17 L-8,15 L-7,15 L-7,14 L-6,14 L-6,13 L-5,13 L-5,12 L-4,12 L-4,10 L-3,10 L-3,9 L-2,9 L-2,8 L-1,8 L-1,6 L0,6 Z M-15,7 L-11,7 L-11,8 L-10,8 L-10,9 L-9,9 L-9,12 L-10,12 L-10,13 L-11,13 L-11,14 L-15,14 L-15,13 L-17,13 L-17,8 L-15,8 Z M-3,20 L-2,20 L-2,21 L-3,21 Z M0,20 L5,20 L5,21 L6,21 L6,22 L7,22 L7,25 L6,25 L6,27 L3,27 L3,28 L2,28 L2,27 L-1,27 L-1,25 L-2,25 L-2,22 L-1,22 L-1,21 L0,21 Z " fill="#92A1AD" transform="translate(37,15)"/>
<path d="M0,0 L3,0 L3,1 L4,1 L4,4 L3,4 L3,6 L2,6 L2,7 L1,7 L1,9 L0,9 L0,10 L-1,10 L-1,11 L-2,11 L-2,13 L-3,13 L-3,14 L-4,14 L-4,15 L-5,15 L-5,17 L-6,17 L-6,18 L-7,18 L-7,19 L-8,19 L-8,21 L-9,21 L-9,22 L-10,22 L-10,23 L-11,23 L-11,24 L-13,24 L-13,23 L-14,23 L-14,22 L-15,22 L-15,20 L-14,20 L-14,18 L-13,18 L-13,17 L-12,17 L-12,16 L-11,16 L-11,14 L-10,14 L-10,13 L-9,13 L-9,12 L-8,12 L-8,10 L-7,10 L-7,9 L-6,9 L-6,8 L-5,8 L-5,7 L-4,7 L-4,5 L-3,5 L-3,4 L-2,4 L-2,3 L-1,3 L-1,1 L0,1 Z " fill="#FFFFFF" transform="translate(37,20)"/>
<path d="M0,0 L5,0 L5,1 L6,1 L6,2 L7,2 L7,5 L6,5 L6,7 L3,7 L3,8 L2,8 L2,7 L-1,7 L-1,5 L-2,5 L-2,2 L-1,2 L-1,1 L0,1 Z " fill="#FFFFFF" transform="translate(37,35)"/>
<path d="M0,0 L4,0 L4,1 L5,1 L5,2 L6,2 L6,5 L5,5 L5,6 L4,6 L4,7 L0,7 L0,6 L-2,6 L-2,1 L0,1 Z " fill="#FFFFFF" transform="translate(22,22)"/>
<path d="M0,0 L1,0 L1,1 L0,1 Z M-1,1 L0,1 L0,2 L-1,2 Z M-2,2 L-1,2 L-1,3 L-2,3 Z M-3,3 L-2,3 L-2,4 L-3,4 Z " fill="#92A1AD" transform="translate(19,19)"/>
<path d="M0,0 L1,0 L1,1 L0,1 Z " fill="#93A2AC" opacity="0.47058824" transform="translate(48,38)"/>
<path d="M0,0 L1,0 L1,1 L0,1 Z " fill="#92A1AD" opacity="0.72156864" transform="translate(15,25)"/>
<path d="M0,0 L1,0 L1,1 L0,1 Z " fill="#92A2AD" opacity="0.3764706" transform="translate(23,17)"/>
<path d="M0,0 L1,0 L1,1 L0,1 Z " fill="#93A0AC" opacity="0.3137255" transform="translate(24,49)"/>
<path d="M0,0 L1,0 L1,1 L0,1 Z " fill="#92A1AE" opacity="0.46666667" transform="translate(16,40)"/>
<path d="M0,0 L1,0 L1,1 L0,1 Z M-1,1 L0,1 L0,2 L-1,2 Z " fill="#FFFFFF" transform="translate(37,20)"/>
<path d="M0,0 L1,0 L1,1 L0,1 Z M-1,1 L0,1 L0,2 L-1,2 Z M-2,2 L-1,2 L-1,3 L-2,3 Z " fill="#FFFFFF" transform="translate(37,35)"/>
<path d="M0,0 L1,0 L1,1 L0,1 Z " fill="#E0E4E8" opacity="0.7529412" transform="translate(40,34)"/>
<path d="M0,0 L1,0 L1,1 L0,1 Z " fill="#92A1AE" opacity="0.47843137" transform="translate(46,23)"/>
<path d="M0,0 L1,0 L1,1 L0,1 Z " fill="#93A1AD" opacity="0.34117648" transform="translate(35,46)"/>
<path d="M0,0 L1,0 L1,1 L0,1 Z " fill="#91A1AC" opacity="0.78431374" transform="translate(19,36)"/>
<path d="M0,0 L1,0 L1,1 L0,1 Z " fill="#92A0AE" opacity="0.29411766" transform="translate(47,34)"/>
<path d="M0,0 L1,0 L1,1 L0,1 Z " fill="#CED5DA" opacity="0.75686276" transform="translate(23,29)"/>
<path d="M0,0 L1,0 L1,1 L0,1 Z " fill="#C3CAD1" opacity="0.7764706" transform="translate(23,21)"/>
<path d="M0,0 L1,0 L1,1 L0,1 Z " fill="#92A0AD" opacity="0.8627451" transform="translate(32,19)"/>
<path d="M0,0 L1,0 L1,1 L0,1 Z " fill="#92A1AD" opacity="0.85882354" transform="translate(18,19)"/>
<path d="M0,0 L1,0 L1,1 L0,1 Z " fill="#91A1AD" opacity="0.25490198" transform="translate(37,14)"/>
<path d="M0,0 L1,0 L1,1 L0,1 Z " fill="#92A1AD" opacity="0.07058824" transform="translate(39,47)"/>
<path d="M0,0 L1,0 L1,1 L0,1 Z " fill="#91A3AC" opacity="0.22745098" transform="translate(32,44)"/>
<path d="M0,0 L1,0 L1,1 L0,1 Z " fill="#D4D9DE" opacity="0.75686276" transform="translate(44,38)"/>
<path d="M0,0 L1,0 L1,1 L0,1 Z " fill="#D0D6DC" opacity="0.75686276" transform="translate(34,38)"/>
<path d="M0,0 L1,0 L1,1 L0,1 Z " fill="#92A0AD" opacity="0.8980392" transform="translate(17,30)"/>
<path d="M0,0 L1,0 L1,1 L0,1 Z " fill="#DCE0E4" opacity="0.7529412" transform="translate(28,25)"/>
<path d="M0,0 L1,0 L1,1 L0,1 Z " fill="#F5F7F8" opacity="0.8" transform="translate(19,25)"/>
<path d="M0,0 L1,0 L1,1 L0,1 Z " fill="#92A1AD" opacity="0.9254902" transform="translate(44,19)"/>
<path d="M0,0 L1,0 L1,1 L0,1 Z " fill="#92A1AD" opacity="0.9254902" transform="translate(42,17)"/>
<path d="M0,0 L1,0 L1,1 L0,1 Z " fill="#92A1AC" opacity="0.9882353" transform="translate(34,17)"/>
<path d="M0,0 L1,0 L1,1 L0,1 Z " fill="#92A1AD" opacity="0.7137255" transform="translate(23,48)"/>
<path d="M0,0 L1,0 L1,1 L0,1 Z " fill="#91A1AD" opacity="0.023529412" transform="translate(44,46)"/>
<path d="M0,0 L1,0 L1,1 L0,1 Z " fill="#92A0AC" opacity="0.90588236" transform="translate(37,46)"/>
<path d="M0,0 L1,0 L1,1 L0,1 Z " fill="#91A0AD" opacity="0.7921569" transform="translate(34,45)"/>
<path d="M0,0 L1,0 L1,1 L0,1 Z " fill="#FDFDFE" opacity="0.90588236" transform="translate(25,44)"/>
<path d="M0,0 L1,0 L1,1 L0,1 Z M1,1 L2,1 L2,2 L1,2 Z " fill="#95A4AE" opacity="0.9764706" transform="translate(22,43)"/>
<path d="M0,0 L1,0 L1,1 L0,1 Z " fill="#F6F7F8" opacity="0.8039216" transform="translate(37,42)"/>
<path d="M0,0 L1,0 L1,1 L0,1 Z " fill="#F4F5F8" opacity="0.8" transform="translate(21,41)"/>
<path d="M0,0 L1,0 L1,1 L0,1 Z " fill="#92A1AD" opacity="0.9137255" transform="translate(17,39)"/>
<path d="M0,0 L1,0 L1,1 L0,1 Z " fill="#93A0AC" opacity="0.15686275" transform="translate(48,36)"/>
<path d="M0,0 L1,0 L1,1 L0,1 Z M1,1 L2,1 L2,2 L1,2 Z " fill="#FCFCFC" opacity="0.8666667" transform="translate(42,35)"/>
<path d="M0,0 L1,0 L1,1 L0,1 Z " fill="#D1D8DD" opacity="0.75686276" transform="translate(38,34)"/>
<path d="M0,0 L1,0 L1,1 L0,1 Z " fill="#93A1AF" opacity="0.28627452" transform="translate(20,34)"/>
<path d="M0,0 L1,0 L1,1 L0,1 Z " fill="#92A1AD" opacity="0.58431375" transform="translate(46,33)"/>
<path d="M0,0 L1,0 L1,1 L0,1 Z " fill="#91A0AD" opacity="0.4745098" transform="translate(19,32)"/>
<path d="M0,0 L1,0 L1,1 L0,1 Z " fill="#93A3AE" opacity="0.18431373" transform="translate(42,30)"/>
<path d="M0,0 L1,0 L1,1 L0,1 Z " fill="#FFFFFF" opacity="0.9647059" transform="translate(21,28)"/>
<path d="M0,0 L1,0 L1,1 L0,1 Z " fill="#91A0AD" opacity="0.4745098" transform="translate(15,23)"/>
<path d="M0,0 L1,0 L1,1 L0,1 Z " fill="#FFFFFF" opacity="0.94509804" transform="translate(21,22)"/>
<path d="M0,0 L1,0 L1,1 L0,1 Z " fill="#93A1AF" opacity="0.28627452" transform="translate(46,21)"/>
<path d="M0,0 L1,0 L1,1 L0,1 Z " fill="#91A1AD" opacity="0.64705884" transform="translate(16,21)"/>
<path d="M0,0 L1,0 L1,1 L0,1 Z " fill="#92A0AD" opacity="0.69411767" transform="translate(31,20)"/>
<path d="M0,0 L1,0 L1,1 L0,1 Z " fill="#FBFCFD" opacity="0.8509804" transform="translate(38,19)"/>
<path d="M0,0 L1,0 L1,1 L0,1 Z " fill="#92A0AD" opacity="0.0627451" transform="translate(31,19)"/>
<path d="M0,0 L1,0 L1,1 L0,1 Z " fill="#93A0AE" opacity="0.44313726" transform="translate(19,18)"/>
<path d="M0,0 L1,0 L1,1 L0,1 Z " fill="#93A2AA" opacity="0.12941177" transform="translate(21,17)"/>
<path d="M0,0 L1,0 L1,1 L0,1 Z " fill="#91A1AD" opacity="0.007843138" transform="translate(41,15)"/>
<path d="M0,0 L1,0 L1,1 L0,1 Z " fill="#92A1AD" opacity="0.8509804" transform="translate(36,15)"/>
<path d="M0,0 L1,0 L1,1 L0,1 Z " fill="#92A4B0" opacity="0.16470589" transform="translate(26,49)"/>
<path d="M0,0 L1,0 L1,1 L0,1 Z " fill="#93A2AC" opacity="0.39607844" transform="translate(25,49)"/>
<path d="M0,0 L1,0 L1,1 L0,1 Z " fill="#92A1AD" opacity="0.003921569" transform="translate(23,49)"/>
<path d="M0,0 L1,0 L1,1 L0,1 Z " fill="#92A0AC" opacity="0.03529412" transform="translate(28,48)"/>
<path d="M0,0 L1,0 L1,1 L0,1 Z " fill="#91A1AC" opacity="0.5921569" transform="translate(27,48)"/>
<path d="M0,0 L1,0 L1,1 L0,1 Z " fill="#91A0AD" opacity="0.99215686" transform="translate(26,48)"/>
<path d="M0,0 L1,0 L1,1 L0,1 Z " fill="#95A3B1" opacity="0.14117648" transform="translate(22,48)"/>
<path d="M0,0 L1,0 L1,1 L0,1 Z " fill="#91A0AD" opacity="0.015686275" transform="translate(40,47)"/>
<path d="M0,0 L1,0 L1,1 L0,1 Z " fill="#92A1AD" opacity="0.011764706" transform="translate(38,47)"/>
<path d="M0,0 L1,0 L1,1 L0,1 Z " fill="#91A1AC" opacity="0.050980393" transform="translate(29,47)"/>
<path d="M0,0 L1,0 L1,1 L0,1 Z " fill="#92A0AC" opacity="0.7490196" transform="translate(28,47)"/>
<path d="M0,0 L1,0 L1,1 L0,1 Z " fill="#91A0AD" opacity="0.9490196" transform="translate(22,47)"/>
<path d="M0,0 L1,0 L1,1 L0,1 Z " fill="#93A2AE" opacity="0.33333334" transform="translate(21,47)"/>
<path d="M0,0 L1,0 L1,1 L0,1 Z " fill="#90A0AC" opacity="0.3254902" transform="translate(43,46)"/>
<path d="M0,0 L1,0 L1,1 L0,1 Z " fill="#92A0AD" opacity="0.7058824" transform="translate(42,46)"/>
<path d="M0,0 L1,0 L1,1 L0,1 Z " fill="#92A0AD" opacity="0.8980392" transform="translate(41,46)"/>
<path d="M0,0 L1,0 L1,1 L0,1 Z " fill="#91A0AD" opacity="0.99215686" transform="translate(40,46)"/>
<path d="M0,0 L1,0 L1,1 L0,1 Z " fill="#92A1AD" opacity="0.99607843" transform="translate(38,46)"/>
<path d="M0,0 L1,0 L1,1 L0,1 Z " fill="#91A0AD" opacity="0.654902" transform="translate(36,46)"/>
<path d="M0,0 L1,0 L1,1 L0,1 Z " fill="#91A0AD" opacity="0.007843138" transform="translate(34,46)"/>
<path d="M0,0 L1,0 L1,1 L0,1 Z " fill="#91A1AD" opacity="0.05882353" transform="translate(30,46)"/>
<path d="M0,0 L1,0 L1,1 L0,1 Z " fill="#91A1AC" opacity="0.78431374" transform="translate(29,46)"/>
<path d="M0,0 L1,0 L1,1 L0,1 Z " fill="#92A0AD" opacity="0.4117647" transform="translate(20,46)"/>
<path d="M0,0 L1,0 L1,1 L0,1 Z " fill="#94A1AF" opacity="0.14901961" transform="translate(45,45)"/>
<path d="M0,0 L1,0 L1,1 L0,1 Z " fill="#91A1AD" opacity="0.8392157" transform="translate(44,45)"/>
<path d="M0,0 L1,0 L1,1 L0,1 Z " fill="#93A2AC" opacity="0.20392157" transform="translate(33,45)"/>
<path d="M0,0 L1,0 L1,1 L0,1 Z " fill="#93A0AE" opacity="0.003921569" transform="translate(31,45)"/>
<path d="M0,0 L1,0 L1,1 L0,1 Z " fill="#91A1AD" opacity="0.7019608" transform="translate(30,45)"/>
<path d="M0,0 L1,0 L1,1 L0,1 Z " fill="#91A1AC" opacity="0.44705883" transform="translate(19,45)"/>
<path d="M0,0 L1,0 L1,1 L0,1 Z " fill="#93A0AD" opacity="0.23137255" transform="translate(46,44)"/>
<path d="M0,0 L1,0 L1,1 L0,1 Z " fill="#92A1AC" opacity="0.9411765" transform="translate(45,44)"/>
<path d="M0,0 L1,0 L1,1 L0,1 Z " fill="#92A0AD" opacity="0.9607843" transform="translate(33,44)"/>
<path d="M0,0 L1,0 L1,1 L0,1 Z " fill="#93A0AE" opacity="0.44313726" transform="translate(31,44)"/>
<path d="M0,0 L1,0 L1,1 L0,1 Z " fill="#AEBAC2" opacity="0.8352941" transform="translate(26,44)"/>
<path d="M0,0 L1,0 L1,1 L0,1 Z " fill="#E8ECEE" opacity="0.7647059" transform="translate(24,44)"/>
<path d="M0,0 L1,0 L1,1 L0,1 Z " fill="#91A0AD" opacity="0.4627451" transform="translate(18,44)"/>
<path d="M0,0 L1,0 L1,1 L0,1 Z " fill="#92A1AD" opacity="0.0627451" transform="translate(47,43)"/>
<path d="M0,0 L1,0 L1,1 L0,1 Z " fill="#92A0AD" opacity="0.8862745" transform="translate(46,43)"/>
<path d="M0,0 L1,0 L1,1 L0,1 Z " fill="#92A1AE" opacity="0.99215686" transform="translate(40,43)"/>
<path d="M0,0 L1,0 L1,1 L0,1 Z " fill="#98A6B2" opacity="0.9529412" transform="translate(39,43)"/>
<path d="M0,0 L1,0 L1,1 L0,1 Z " fill="#92A1AD" opacity="0.94509804" transform="translate(32,43)"/>
<path d="M0,0 L1,0 L1,1 L0,1 Z " fill="#92A0AD" opacity="0.98039216" transform="translate(31,43)"/>
<path d="M0,0 L1,0 L1,1 L0,1 Z " fill="#AAB6C0" opacity="0.84705883" transform="translate(27,43)"/>
<path d="M0,0 L1,0 L1,1 L0,1 Z " fill="#FEFEFE" opacity="0.94509804" transform="translate(26,43)"/>
<path d="M0,0 L1,0 L1,1 L0,1 Z " fill="#F5F7F8" opacity="0.8" transform="translate(23,43)"/>
<path d="M0,0 L1,0 L1,1 L0,1 Z " fill="#92A1AC" opacity="0.38431373" transform="translate(17,43)"/>
<path d="M0,0 L1,0 L1,1 L0,1 Z " fill="#92A1AD" opacity="0.53333336" transform="translate(47,42)"/>
<path d="M0,0 L1,0 L1,1 L0,1 Z " fill="#C7CFD6" opacity="0.76862746" transform="translate(42,42)"/>
<path d="M0,0 L1,0 L1,1 L0,1 Z " fill="#FBFCFD" opacity="0.8509804" transform="translate(41,42)"/>
<path d="M0,0 L1,0 L1,1 L0,1 Z " fill="#FFFFFF" opacity="0.99607843" transform="translate(40,42)"/>
<path d="M0,0 L1,0 L1,1 L0,1 Z " fill="#FEFEFE" opacity="0.90588236" transform="translate(38,42)"/>
<path d="M0,0 L1,0 L1,1 L0,1 Z " fill="#C3CCD2" opacity="0.7764706" transform="translate(36,42)"/>
<path d="M0,0 L1,0 L1,1 L0,1 Z " fill="#9AA8B3" opacity="0.9372549" transform="translate(28,42)"/>
<path d="M0,0 L1,0 L1,1 L0,1 Z " fill="#FDFDFD" opacity="0.89411765" transform="translate(27,42)"/>
<path d="M0,0 L1,0 L1,1 L0,1 Z " fill="#F7F8F9" opacity="0.80784315" transform="translate(22,42)"/>
<path d="M0,0 L1,0 L1,1 L0,1 Z " fill="#97A5B1" opacity="0.9607843" transform="translate(21,42)"/>
<path d="M0,0 L1,0 L1,1 L0,1 Z " fill="#91A0AD" opacity="0.9490196" transform="translate(17,42)"/>
<path d="M0,0 L1,0 L1,1 L0,1 Z " fill="#92A0AD" opacity="0.07450981" transform="translate(16,42)"/>
<path d="M0,0 L1,0 L1,1 L0,1 Z " fill="#90A1AD" opacity="0.02745098" transform="translate(48,41)"/>
<path d="M0,0 L1,0 L1,1 L0,1 Z " fill="#92A0AC" opacity="0.91764706" transform="translate(47,41)"/>
<path d="M0,0 L1,0 L1,1 L0,1 Z " fill="#D6DCE1" opacity="0.7529412" transform="translate(43,41)"/>
<path d="M0,0 L1,0 L1,1 L0,1 Z " fill="#E0E4E8" opacity="0.7529412" transform="translate(35,41)"/>
<path d="M0,0 L1,0 L1,1 L0,1 Z " fill="#93A2AD" opacity="0.99607843" transform="translate(29,41)"/>
<path d="M0,0 L1,0 L1,1 L0,1 Z " fill="#F4F5F8" opacity="0.8" transform="translate(28,41)"/>
<path d="M0,0 L1,0 L1,1 L0,1 Z " fill="#92A0AD" opacity="0.4509804" transform="translate(16,41)"/>
<path d="M0,0 L1,0 L1,1 L0,1 Z " fill="#90A1AD" opacity="0.24313726" transform="translate(48,40)"/>
<path d="M0,0 L1,0 L1,1 L0,1 Z " fill="#9EABB6" opacity="0.9137255" transform="translate(44,40)"/>
<path d="M0,0 L1,0 L1,1 L0,1 Z " fill="#FFFFFF" opacity="0.9843137" transform="translate(43,40)"/>
<path d="M0,0 L1,0 L1,1 L0,1 Z " fill="#FFFFFF" opacity="0.99607843" transform="translate(35,40)"/>
<path d="M0,0 L1,0 L1,1 L0,1 Z " fill="#A2AEB8" opacity="0.8901961" transform="translate(34,40)"/>
<path d="M0,0 L1,0 L1,1 L0,1 Z " fill="#D9DEE2" opacity="0.7529412" transform="translate(29,40)"/>
<path d="M0,0 L1,0 L1,1 L0,1 Z " fill="#F3F5F7" opacity="0.79607844" transform="translate(21,40)"/>
<path d="M0,0 L1,0 L1,1 L0,1 Z " fill="#92A1AC" opacity="0.38431373" transform="translate(48,39)"/>
<path d="M0,0 L1,0 L1,1 L0,1 Z " fill="#CAD2D8" opacity="0.7647059" transform="translate(44,39)"/>
<path d="M0,0 L1,0 L1,1 L0,1 Z " fill="#C5CED3" opacity="0.77254903" transform="translate(34,39)"/>
<path d="M0,0 L1,0 L1,1 L0,1 Z " fill="#B0BBC4" opacity="0.8235294" transform="translate(30,39)"/>
<path d="M0,0 L1,0 L1,1 L0,1 Z " fill="#FFFFFF" opacity="0.9882353" transform="translate(29,39)"/>
<path d="M0,0 L1,0 L1,1 L0,1 Z " fill="#FFFFFF" opacity="0.94509804" transform="translate(22,39)"/>
<path d="M0,0 L1,0 L1,1 L0,1 Z " fill="#93A3AF" opacity="0.9843137" transform="translate(21,39)"/>
<path d="M0,0 L1,0 L1,1 L0,1 Z " fill="#8EA1AA" opacity="0.105882354" transform="translate(16,39)"/>
<path d="M0,0 L1,0 L1,1 L0,1 Z " fill="#9AA8B3" opacity="0.93333334" transform="translate(31,38)"/>
<path d="M0,0 L1,0 L1,1 L0,1 Z " fill="#FDFDFE" opacity="0.90588236" transform="translate(30,38)"/>
<path d="M0,0 L1,0 L1,1 L0,1 Z " fill="#C3CAD1" opacity="0.7764706" transform="translate(22,38)"/>
<path d="M0,0 L1,0 L1,1 L0,1 Z " fill="#92A1AD" opacity="0.99607843" transform="translate(18,38)"/>
<path d="M0,0 L1,0 L1,1 L0,1 Z " fill="#93A2AE" opacity="0.25882354" transform="translate(17,38)"/>
<path d="M0,0 L1,0 L1,1 L0,1 Z " fill="#90A0AC" opacity="0.3254902" transform="translate(48,37)"/>
<path d="M0,0 L1,0 L1,1 L0,1 Z " fill="#B9C2CA" opacity="0.8" transform="translate(44,37)"/>
<path d="M0,0 L1,0 L1,1 L0,1 Z " fill="#BCC5CC" opacity="0.7921569" transform="translate(34,37)"/>
<path d="M0,0 L1,0 L1,1 L0,1 Z " fill="#F4F5F7" opacity="0.7921569" transform="translate(31,37)"/>
<path d="M0,0 L1,0 L1,1 L0,1 Z " fill="#E8EAED" opacity="0.7607843" transform="translate(23,37)"/>
<path d="M0,0 L1,0 L1,1 L0,1 Z " fill="#92A1AC" opacity="0.5411765" transform="translate(18,37)"/>
<path d="M0,0 L1,0 L1,1 L0,1 Z " fill="#93A2AD" opacity="0.99607843" transform="translate(44,36)"/>
<path d="M0,0 L1,0 L1,1 L0,1 Z " fill="#FEFEFF" opacity="0.93333334" transform="translate(35,36)"/>
<path d="M0,0 L1,0 L1,1 L0,1 Z " fill="#96A3B0" opacity="0.96862745" transform="translate(34,36)"/>
<path d="M0,0 L1,0 L1,1 L0,1 Z " fill="#D2D9DD" opacity="0.75686276" transform="translate(32,36)"/>
<path d="M0,0 L1,0 L1,1 L0,1 Z " fill="#FBFCFC" opacity="0.84313726" transform="translate(24,36)"/>
<path d="M0,0 L1,0 L1,1 L0,1 Z " fill="#95A4AE" opacity="0.9764706" transform="translate(23,36)"/>
<path d="M0,0 L1,0 L1,1 L0,1 Z " fill="#91A1AC" opacity="0.023529412" transform="translate(18,36)"/>
<path d="M0,0 L1,0 L1,1 L0,1 Z " fill="#91A0AD" opacity="0.003921569" transform="translate(48,35)"/>
<path d="M0,0 L1,0 L1,1 L0,1 Z " fill="#91A0AD" opacity="0.7921569" transform="translate(47,35)"/>
<path d="M0,0 L1,0 L1,1 L0,1 Z " fill="#A3B0BA" opacity="0.88235295" transform="translate(43,35)"/>
<path d="M0,0 L1,0 L1,1 L0,1 Z " fill="#FEFEFE" opacity="0.9098039" transform="translate(36,35)"/>
<path d="M0,0 L1,0 L1,1 L0,1 Z " fill="#B0BBC4" opacity="0.8235294" transform="translate(35,35)"/>
<path d="M0,0 L1,0 L1,1 L0,1 Z " fill="#ADB9C1" opacity="0.8392157" transform="translate(33,35)"/>
<path d="M0,0 L1,0 L1,1 L0,1 Z " fill="#FFFFFF" opacity="0.9843137" transform="translate(32,35)"/>
<path d="M0,0 L1,0 L1,1 L0,1 Z " fill="#FFFFFF" opacity="0.9490196" transform="translate(25,35)"/>
<path d="M0,0 L1,0 L1,1 L0,1 Z " fill="#A3B0BA" opacity="0.88235295" transform="translate(24,35)"/>
<path d="M0,0 L1,0 L1,1 L0,1 Z " fill="#91A0AC" opacity="0.92941177" transform="translate(20,35)"/>
<path d="M0,0 L1,0 L1,1 L0,1 Z " fill="#91A2AA" opacity="0.11764706" transform="translate(19,35)"/>
<path d="M0,0 L1,0 L1,1 L0,1 Z " fill="#93A3AF" opacity="0.9843137" transform="translate(42,34)"/>
<path d="M0,0 L1,0 L1,1 L0,1 Z " fill="#BCC5CD" opacity="0.7882353" transform="translate(41,34)"/>
<path d="M0,0 L1,0 L1,1 L0,1 Z " fill="#E6EAED" opacity="0.75686276" transform="translate(39,34)"/>
<path d="M0,0 L1,0 L1,1 L0,1 Z " fill="#B7C1CA" opacity="0.8039216" transform="translate(37,34)"/>
<path d="M0,0 L1,0 L1,1 L0,1 Z " fill="#96A4B0" opacity="0.972549" transform="translate(36,34)"/>
<path d="M0,0 L1,0 L1,1 L0,1 Z " fill="#98A7B2" opacity="0.9490196" transform="translate(34,34)"/>
<path d="M0,0 L1,0 L1,1 L0,1 Z " fill="#FDFDFE" opacity="0.8862745" transform="translate(33,34)"/>
<path d="M0,0 L1,0 L1,1 L0,1 Z " fill="#C0C8CF" opacity="0.78431374" transform="translate(25,34)"/>
<path d="M0,0 L1,0 L1,1 L0,1 Z " fill="#92A1AD" opacity="0.003921569" transform="translate(47,33)"/>
<path d="M0,0 L1,0 L1,1 L0,1 Z " fill="#EFF1F4" opacity="0.7764706" transform="translate(34,33)"/>
<path d="M0,0 L1,0 L1,1 L0,1 Z " fill="#E4E8EA" opacity="0.75686276" transform="translate(26,33)"/>
<path d="M0,0 L1,0 L1,1 L0,1 Z " fill="#92A0AD" opacity="0.7058824" transform="translate(21,33)"/>
<path d="M0,0 L1,0 L1,1 L0,1 Z " fill="#92A1AD" opacity="0.023529412" transform="translate(20,33)"/>
<path d="M0,0 L1,0 L1,1 L0,1 Z " fill="#91A1AC" opacity="0.015686275" transform="translate(46,32)"/>
<path d="M0,0 L1,0 L1,1 L0,1 Z " fill="#91A1AC" opacity="0.627451" transform="translate(45,32)"/>
<path d="M0,0 L1,0 L1,1 L0,1 Z " fill="#CBD3D8" opacity="0.7607843" transform="translate(35,32)"/>
<path d="M0,0 L1,0 L1,1 L0,1 Z " fill="#F8F9FB" opacity="0.8352941" transform="translate(27,32)"/>
<path d="M0,0 L1,0 L1,1 L0,1 Z " fill="#93A3AF" opacity="0.9843137" transform="translate(26,32)"/>
<path d="M0,0 L1,0 L1,1 L0,1 Z " fill="#92A1AD" opacity="0.93333334" transform="translate(20,32)"/>
<path d="M0,0 L1,0 L1,1 L0,1 Z " fill="#91A1AC" opacity="0.043137256" transform="translate(18,32)"/>
<path d="M0,0 L1,0 L1,1 L0,1 Z " fill="#93A1AF" opacity="0.28627452" transform="translate(44,31)"/>
<path d="M0,0 L1,0 L1,1 L0,1 Z " fill="#92A0AC" opacity="0.83137256" transform="translate(43,31)"/>
<path d="M0,0 L1,0 L1,1 L0,1 Z " fill="#A6B3BC" opacity="0.8666667" transform="translate(36,31)"/>
<path d="M0,0 L1,0 L1,1 L0,1 Z " fill="#FFFFFF" opacity="0.96862745" transform="translate(35,31)"/>
<path d="M0,0 L1,0 L1,1 L0,1 Z " fill="#FEFEFE" opacity="0.9411765" transform="translate(28,31)"/>
<path d="M0,0 L1,0 L1,1 L0,1 Z " fill="#A1AFB9" opacity="0.89411765" transform="translate(27,31)"/>
<path d="M0,0 L1,0 L1,1 L0,1 Z " fill="#91A1AC" opacity="0.89411765" transform="translate(18,31)"/>
<path d="M0,0 L1,0 L1,1 L0,1 Z " fill="#8FA2AE" opacity="0.16078432" transform="translate(17,31)"/>
<path d="M0,0 L1,0 L1,1 L0,1 Z " fill="#92A1AC" opacity="0.9529412" transform="translate(41,30)"/>
<path d="M0,0 L1,0 L1,1 L0,1 Z " fill="#96A3B0" opacity="0.96862745" transform="translate(37,30)"/>
<path d="M0,0 L1,0 L1,1 L0,1 Z " fill="#FCFCFD" opacity="0.85882354" transform="translate(36,30)"/>
<path d="M0,0 L1,0 L1,1 L0,1 Z " fill="#BCC5CC" opacity="0.7921569" transform="translate(28,30)"/>
<path d="M0,0 L1,0 L1,1 L0,1 Z " fill="#90A0B0" opacity="0.1254902" transform="translate(16,30)"/>
<path d="M0,0 L1,0 L1,1 L0,1 Z " fill="#92A1AD" opacity="0.52156866" transform="translate(42,29)"/>
<path d="M0,0 L1,0 L1,1 L0,1 Z " fill="#E9ECEE" opacity="0.7607843" transform="translate(37,29)"/>
<path d="M0,0 L1,0 L1,1 L0,1 Z " fill="#E1E5E9" opacity="0.75686276" transform="translate(29,29)"/>
<path d="M0,0 L1,0 L1,1 L0,1 Z " fill="#95A2AF" opacity="0.98039216" transform="translate(26,29)"/>
<path d="M0,0 L1,0 L1,1 L0,1 Z " fill="#BBC5CD" opacity="0.7921569" transform="translate(25,29)"/>
<path d="M0,0 L1,0 L1,1 L0,1 Z " fill="#D4DADE" opacity="0.7529412" transform="translate(24,29)"/>
<path d="M0,0 L1,0 L1,1 L0,1 Z " fill="#B3BDC6" opacity="0.8156863" transform="translate(22,29)"/>
<path d="M0,0 L1,0 L1,1 L0,1 Z " fill="#99A7B3" opacity="0.9411765" transform="translate(21,29)"/>
<path d="M0,0 L1,0 L1,1 L0,1 Z " fill="#92A0AD" opacity="0.7058824" transform="translate(16,29)"/>
<path d="M0,0 L1,0 L1,1 L0,1 Z " fill="#92A0AD" opacity="0.21960784" transform="translate(43,28)"/>
<path d="M0,0 L1,0 L1,1 L0,1 Z " fill="#91A0AD" opacity="0.99215686" transform="translate(42,28)"/>
<path d="M0,0 L1,0 L1,1 L0,1 Z " fill="#C2C9D0" opacity="0.78039217" transform="translate(38,28)"/>
<path d="M0,0 L1,0 L1,1 L0,1 Z " fill="#F9FBFB" opacity="0.827451" transform="translate(30,28)"/>
<path d="M0,0 L1,0 L1,1 L0,1 Z " fill="#94A2AD" opacity="0.9882353" transform="translate(29,28)"/>
<path d="M0,0 L1,0 L1,1 L0,1 Z " fill="#A2AEB8" opacity="0.8901961" transform="translate(27,28)"/>
<path d="M0,0 L1,0 L1,1 L0,1 Z " fill="#FDFDFE" opacity="0.8862745" transform="translate(26,28)"/>
<path d="M0,0 L1,0 L1,1 L0,1 Z " fill="#D0D8DD" opacity="0.75686276" transform="translate(20,28)"/>
<path d="M0,0 L1,0 L1,1 L0,1 Z " fill="#94A1AF" opacity="0.22352941" transform="translate(15,28)"/>
<path d="M0,0 L1,0 L1,1 L0,1 Z " fill="#91A1AD" opacity="0.043137256" transform="translate(44,27)"/>
<path d="M0,0 L1,0 L1,1 L0,1 Z " fill="#91A0AC" opacity="0.85490197" transform="translate(43,27)"/>
<path d="M0,0 L1,0 L1,1 L0,1 Z " fill="#9EABB6" opacity="0.9137255" transform="translate(39,27)"/>
<path d="M0,0 L1,0 L1,1 L0,1 Z " fill="#FEFEFE" opacity="0.94509804" transform="translate(38,27)"/>
<path d="M0,0 L1,0 L1,1 L0,1 Z " fill="#FEFEFF" opacity="0.93333334" transform="translate(31,27)"/>
<path d="M0,0 L1,0 L1,1 L0,1 Z " fill="#A0ADB7" opacity="0.9019608" transform="translate(30,27)"/>
<path d="M0,0 L1,0 L1,1 L0,1 Z " fill="#98A7B2" opacity="0.9490196" transform="translate(28,27)"/>
<path d="M0,0 L1,0 L1,1 L0,1 Z " fill="#FEFEFF" opacity="0.90588236" transform="translate(27,27)"/>
<path d="M0,0 L1,0 L1,1 L0,1 Z " fill="#B4BFC8" opacity="0.8117647" transform="translate(19,27)"/>
<path d="M0,0 L1,0 L1,1 L0,1 Z " fill="#93A1AD" opacity="0.49803922" transform="translate(15,27)"/>
<path d="M0,0 L1,0 L1,1 L0,1 Z " fill="#91A1AD" opacity="0.57254905" transform="translate(44,26)"/>
<path d="M0,0 L1,0 L1,1 L0,1 Z " fill="#F4F5F8" opacity="0.8" transform="translate(39,26)"/>
<path d="M0,0 L1,0 L1,1 L0,1 Z " fill="#FFFFFF" opacity="0.99607843" transform="translate(32,26)"/>
<path d="M0,0 L1,0 L1,1 L0,1 Z " fill="#B9C2CA" opacity="0.8" transform="translate(31,26)"/>
<path d="M0,0 L1,0 L1,1 L0,1 Z " fill="#BAC4CC" opacity="0.7921569" transform="translate(28,26)"/>
<path d="M0,0 L1,0 L1,1 L0,1 Z " fill="#ECF0F1" opacity="0.76862746" transform="translate(19,26)"/>
<path d="M0,0 L1,0 L1,1 L0,1 Z " fill="#91A1AC" opacity="0.627451" transform="translate(15,26)"/>
<path d="M0,0 L1,0 L1,1 L0,1 Z " fill="#90A1AD" opacity="0.24313726" transform="translate(45,25)"/>
<path d="M0,0 L1,0 L1,1 L0,1 Z " fill="#92A1AD" opacity="0.99607843" transform="translate(44,25)"/>
<path d="M0,0 L1,0 L1,1 L0,1 Z " fill="#D0D6DC" opacity="0.75686276" transform="translate(40,25)"/>
<path d="M0,0 L1,0 L1,1 L0,1 Z " fill="#DCE1E5" opacity="0.7529412" transform="translate(32,25)"/>
<path d="M0,0 L1,0 L1,1 L0,1 Z " fill="#8FA3AE" opacity="0.09803922" transform="translate(46,24)"/>
<path d="M0,0 L1,0 L1,1 L0,1 Z " fill="#92A0AC" opacity="0.90588236" transform="translate(45,24)"/>
<path d="M0,0 L1,0 L1,1 L0,1 Z " fill="#A4B1BB" opacity="0.8784314" transform="translate(41,24)"/>
<path d="M0,0 L1,0 L1,1 L0,1 Z " fill="#FFFFFF" opacity="0.96862745" transform="translate(40,24)"/>
<path d="M0,0 L1,0 L1,1 L0,1 Z " fill="#F6F7F8" opacity="0.8039216" transform="translate(33,24)"/>
<path d="M0,0 L1,0 L1,1 L0,1 Z " fill="#93A2AD" opacity="0.99607843" transform="translate(32,24)"/>
<path d="M0,0 L1,0 L1,1 L0,1 Z " fill="#CAD2D8" opacity="0.7647059" transform="translate(28,24)"/>
<path d="M0,0 L1,0 L1,1 L0,1 Z " fill="#EBEDF0" opacity="0.76862746" transform="translate(19,24)"/>
<path d="M0,0 L1,0 L1,1 L0,1 Z " fill="#92A1AC" opacity="0.6156863" transform="translate(15,24)"/>
<path d="M0,0 L1,0 L1,1 L0,1 Z " fill="#F3F5F7" opacity="0.8" transform="translate(41,23)"/>
<path d="M0,0 L1,0 L1,1 L0,1 Z " fill="#FDFEFE" opacity="0.88235295" transform="translate(34,23)"/>
<path d="M0,0 L1,0 L1,1 L0,1 Z " fill="#9BA9B4" opacity="0.92941177" transform="translate(33,23)"/>
<path d="M0,0 L1,0 L1,1 L0,1 Z " fill="#98A7B2" opacity="0.9490196" transform="translate(28,23)"/>
<path d="M0,0 L1,0 L1,1 L0,1 Z " fill="#FEFEFE" opacity="0.91764706" transform="translate(27,23)"/>
<path d="M0,0 L1,0 L1,1 L0,1 Z " fill="#FFFFFF" transform="translate(20,23)"/>
<path d="M0,0 L1,0 L1,1 L0,1 Z " fill="#B4BEC6" opacity="0.8156863" transform="translate(19,23)"/>
<path d="M0,0 L1,0 L1,1 L0,1 Z " fill="#92A1AE" opacity="0.5764706" transform="translate(46,22)"/>
<path d="M0,0 L1,0 L1,1 L0,1 Z " fill="#98A6B2" opacity="0.94509804" transform="translate(42,22)"/>
<path d="M0,0 L1,0 L1,1 L0,1 Z " fill="#FFFFFF" opacity="0.99607843" transform="translate(41,22)"/>
<path d="M0,0 L1,0 L1,1 L0,1 Z " fill="#FFFFFF" opacity="0.9764706" transform="translate(35,22)"/>
<path d="M0,0 L1,0 L1,1 L0,1 Z " fill="#ACB8C0" opacity="0.84313726" transform="translate(34,22)"/>
<path d="M0,0 L1,0 L1,1 L0,1 Z " fill="#A9B6BF" opacity="0.8509804" transform="translate(27,22)"/>
<path d="M0,0 L1,0 L1,1 L0,1 Z " fill="#FCFCFC" opacity="0.8666667" transform="translate(26,22)"/>
<path d="M0,0 L1,0 L1,1 L0,1 Z " fill="#CAD2D7" opacity="0.7647059" transform="translate(20,22)"/>
<path d="M0,0 L1,0 L1,1 L0,1 Z " fill="#91A0AF" opacity="0.2" transform="translate(15,22)"/>
<path d="M0,0 L1,0 L1,1 L0,1 Z " fill="#DCE0E4" opacity="0.7529412" transform="translate(41,21)"/>
<path d="M0,0 L1,0 L1,1 L0,1 Z " fill="#CED5DA" opacity="0.75686276" transform="translate(35,21)"/>
<path d="M0,0 L1,0 L1,1 L0,1 Z " fill="#ADB9C1" opacity="0.8392157" transform="translate(25,21)"/>
<path d="M0,0 L1,0 L1,1 L0,1 Z " fill="#C5CCD3" opacity="0.77254903" transform="translate(24,21)"/>
<path d="M0,0 L1,0 L1,1 L0,1 Z " fill="#ACB8C0" opacity="0.84313726" transform="translate(22,21)"/>
<path d="M0,0 L1,0 L1,1 L0,1 Z " fill="#95A5AF" opacity="0.9647059" transform="translate(21,21)"/>
<path d="M0,0 L1,0 L1,1 L0,1 Z " fill="#92A1AD" opacity="0.011764706" transform="translate(46,20)"/>
<path d="M0,0 L1,0 L1,1 L0,1 Z " fill="#92A1AD" opacity="0.8156863" transform="translate(45,20)"/>
<path d="M0,0 L1,0 L1,1 L0,1 Z " fill="#DEE2E6" opacity="0.7529412" transform="translate(40,20)"/>
<path d="M0,0 L1,0 L1,1 L0,1 Z " fill="#EBEDF0" opacity="0.76862746" transform="translate(36,20)"/>
<path d="M0,0 L1,0 L1,1 L0,1 Z " fill="#92A1AC" opacity="0.69803923" transform="translate(30,20)"/>
<path d="M0,0 L1,0 L1,1 L0,1 Z " fill="#91A1AD" opacity="0.8666667" transform="translate(17,20)"/>
<path d="M0,0 L1,0 L1,1 L0,1 Z " fill="#8FA3AE" opacity="0.09803922" transform="translate(16,20)"/>
<path d="M0,0 L1,0 L1,1 L0,1 Z " fill="#90A0B0" opacity="0.1254902" transform="translate(45,19)"/>
<path d="M0,0 L1,0 L1,1 L0,1 Z " fill="#BBC5CD" opacity="0.7921569" transform="translate(39,19)"/>
<path d="M0,0 L1,0 L1,1 L0,1 Z " fill="#F3F4F5" opacity="0.7882353" transform="translate(37,19)"/>
<path d="M0,0 L1,0 L1,1 L0,1 Z " fill="#94A2AD" opacity="0.9882353" transform="translate(36,19)"/>
<path d="M0,0 L1,0 L1,1 L0,1 Z " fill="#92A1AD" opacity="0.03137255" transform="translate(30,19)"/>
<path d="M0,0 L1,0 L1,1 L0,1 Z " fill="#92A1AD" opacity="0.6666667" transform="translate(29,19)"/>
<path d="M0,0 L1,0 L1,1 L0,1 Z " fill="#94A5AD" opacity="0.12156863" transform="translate(17,19)"/>
<path d="M0,0 L1,0 L1,1 L0,1 Z " fill="#91A2AE" opacity="0.23529412" transform="translate(44,18)"/>
<path d="M0,0 L1,0 L1,1 L0,1 Z " fill="#92A1AC" opacity="0.9529412" transform="translate(43,18)"/>
<path d="M0,0 L1,0 L1,1 L0,1 Z " fill="#92A0AD" opacity="0.96862745" transform="translate(33,18)"/>
<path d="M0,0 L1,0 L1,1 L0,1 Z " fill="#90A0B0" opacity="0.1882353" transform="translate(32,18)"/>
<path d="M0,0 L1,0 L1,1 L0,1 Z " fill="#92A2AC" opacity="0.3019608" transform="translate(28,18)"/>
<path d="M0,0 L1,0 L1,1 L0,1 Z " fill="#92A1AD" opacity="0.7764706" transform="translate(27,18)"/>
<path d="M0,0 L1,0 L1,1 L0,1 Z " fill="#92A1AD" opacity="0.99607843" transform="translate(26,18)"/>
<path d="M0,0 L1,0 L1,1 L0,1 Z " fill="#92A0AD" opacity="0.8862745" transform="translate(20,18)"/>
<path d="M0,0 L1,0 L1,1 L0,1 Z " fill="#93A0AE" opacity="0.02745098" transform="translate(18,18)"/>
<path d="M0,0 L1,0 L1,1 L0,1 Z " fill="#90A2AC" opacity="0.21568628" transform="translate(43,17)"/>
<path d="M0,0 L1,0 L1,1 L0,1 Z " fill="#91A2AE" opacity="0.30980393" transform="translate(33,17)"/>
<path d="M0,0 L1,0 L1,1 L0,1 Z " fill="#8FA3AE" opacity="0.09803922" transform="translate(26,17)"/>
<path d="M0,0 L1,0 L1,1 L0,1 Z " fill="#90A3AE" opacity="0.27058825" transform="translate(25,17)"/>
<path d="M0,0 L1,0 L1,1 L0,1 Z " fill="#93A1AC" opacity="0.36078432" transform="translate(24,17)"/>
<path d="M0,0 L1,0 L1,1 L0,1 Z " fill="#92A2AC" opacity="0.3019608" transform="translate(22,17)"/>
<path d="M0,0 L1,0 L1,1 L0,1 Z " fill="#93A2AA" opacity="0.003921569" transform="translate(20,17)"/>
<path d="M0,0 L1,0 L1,1 L0,1 Z " fill="#94A5AD" opacity="0.12156863" transform="translate(42,16)"/>
<path d="M0,0 L1,0 L1,1 L0,1 Z " fill="#92A0AD" opacity="0.78039217" transform="translate(41,16)"/>
<path d="M0,0 L1,0 L1,1 L0,1 Z " fill="#92A1AD" transform="translate(35,16)"/>
<path d="M0,0 L1,0 L1,1 L0,1 Z " fill="#93A0AE" opacity="0.36862746" transform="translate(34,16)"/>
<path d="M0,0 L1,0 L1,1 L0,1 Z " fill="#91A1AD" opacity="0.31764707" transform="translate(40,15)"/>
<path d="M0,0 L1,0 L1,1 L0,1 Z " fill="#91A0AD" opacity="0.8" transform="translate(39,15)"/>
<path d="M0,0 L1,0 L1,1 L0,1 Z " fill="#92A2AC" opacity="0.3019608" transform="translate(35,15)"/>
<path d="M0,0 L1,0 L1,1 L0,1 Z " fill="#90A2AC" opacity="0.003921569" transform="translate(39,14)"/>
<path d="M0,0 L1,0 L1,1 L0,1 Z " fill="#90A2AC" opacity="0.21568628" transform="translate(38,14)"/>
<path d="M0,0 L1,0 L1,1 L0,1 Z " fill="#91A1AD" opacity="0.015686275" transform="translate(36,14)"/>
</svg>
