<?xml version="1.0" encoding="UTF-8"?>
<!-- Generator: visioncortex VTracer 0.6.4 -->
<svg version="1.1" xmlns="http://www.w3.org/2000/svg" width="64" height="64">
<path d="M0,0 L3,0 L3,1 L8,1 L8,2 L10,2 L10,3 L12,3 L12,4 L13,4 L13,5 L14,5 L14,6 L15,6 L15,8 L16,8 L16,18 L15,18 L15,20 L14,20 L14,22 L13,22 L13,23 L12,23 L12,25 L11,25 L11,26 L15,26 L15,27 L16,27 L16,29 L17,29 L17,38 L16,38 L16,40 L14,40 L14,41 L5,41 L5,42 L-8,42 L-8,41 L-10,41 L-10,40 L-11,40 L-11,39 L-12,39 L-12,36 L-13,36 L-13,30 L-12,30 L-12,29 L-11,29 L-11,27 L-10,27 L-10,26 L-9,26 L-9,25 L-8,25 L-8,24 L-7,24 L-7,22 L-6,22 L-6,21 L-5,21 L-5,19 L-6,19 L-6,18 L-7,18 L-7,17 L-8,17 L-8,16 L-9,16 L-9,14 L-10,14 L-10,13 L-11,13 L-11,11 L-12,11 L-12,6 L-11,6 L-11,5 L-10,5 L-10,4 L-9,4 L-9,3 L-7,3 L-7,2 L-5,2 L-5,1 L0,1 Z M0,3 L0,4 L-5,4 L-5,5 L-7,5 L-7,6 L-8,6 L-8,7 L-9,7 L-9,11 L-8,11 L-8,12 L-7,12 L-7,10 L-8,10 L-8,8 L-7,8 L-7,7 L-6,7 L-6,6 L-4,6 L-4,5 L1,5 L1,4 L3,4 L3,3 Z M3,4 L3,5 L7,5 L7,6 L9,6 L9,7 L10,7 L10,8 L11,8 L11,9 L12,9 L12,7 L11,7 L11,6 L10,6 L10,5 L8,5 L8,4 Z M12,9 L12,17 L11,17 L11,19 L10,19 L10,21 L11,21 L11,20 L12,20 L12,18 L13,18 L13,9 Z M-7,12 L-7,14 L-6,14 L-6,15 L-5,15 L-5,16 L-3,16 L-3,15 L-2,15 L-2,14 L2,14 L2,16 L1,16 L1,18 L0,18 L0,19 L-1,19 L-1,21 L0,21 L0,20 L1,20 L1,19 L2,19 L2,17 L3,17 L3,13 L-3,13 L-3,14 L-5,14 L-5,13 L-6,13 L-6,12 Z M-2,21 L-2,22 L-3,22 L-3,23 L-4,23 L-4,24 L-5,24 L-5,26 L-4,26 L-4,25 L-3,25 L-3,24 L-2,24 L-2,23 L-1,23 L-1,21 Z M9,21 L9,22 L8,22 L8,24 L9,24 L9,23 L10,23 L10,21 Z M7,24 L7,25 L6,25 L6,26 L5,26 L5,28 L6,28 L6,27 L7,27 L7,26 L8,26 L8,24 Z M-6,26 L-6,27 L-5,27 L-5,26 Z M-7,27 L-7,28 L-8,28 L-8,29 L-9,29 L-9,30 L-10,30 L-10,36 L-9,36 L-9,39 L4,39 L4,38 L-8,38 L-8,35 L-9,35 L-9,31 L-8,31 L-8,30 L-7,30 L-7,29 L-6,29 L-6,27 Z M4,28 L4,29 L3,29 L3,30 L13,30 L13,37 L5,37 L5,38 L14,38 L14,29 L5,29 L5,28 Z " fill="#92A1AD" transform="translate(30,11)"/>
<path d="M0,0 L2,0 L2,1 L6,1 L6,2 L8,2 L8,3 L9,3 L9,4 L10,4 L10,5 L11,5 L11,13 L10,13 L10,15 L9,15 L9,17 L8,17 L8,18 L7,18 L7,20 L6,20 L6,21 L5,21 L5,22 L4,22 L4,24 L3,24 L3,25 L2,25 L2,26 L12,26 L12,33 L4,33 L4,34 L-9,34 L-9,31 L-10,31 L-10,27 L-9,27 L-9,26 L-8,26 L-8,25 L-7,25 L-7,23 L-6,23 L-6,22 L-5,22 L-5,21 L-4,21 L-4,20 L-3,20 L-3,19 L-2,19 L-2,17 L-1,17 L-1,16 L0,16 L0,15 L1,15 L1,13 L2,13 L2,9 L-4,9 L-4,10 L-6,10 L-6,9 L-7,9 L-7,8 L-8,8 L-8,6 L-9,6 L-9,4 L-8,4 L-8,3 L-7,3 L-7,2 L-5,2 L-5,1 L0,1 Z " fill="#FFFFFF" transform="translate(31,15)"/>
<path d="M0,0 L1,0 L1,1 L0,1 Z M-1,1 L0,1 L0,2 L-1,2 Z M-2,2 L-1,2 L-1,3 L-2,3 Z M-3,3 L-2,3 L-2,4 L-3,4 Z " fill="#92A1AD" transform="translate(21,14)"/>
<path d="M0,0 L4,0 L4,1 L0,1 Z " fill="#95A0AA" opacity="0.09411765" transform="translate(24,53)"/>
<path d="M0,0 L1,0 L1,2 L0,2 Z " fill="#93A2AE" opacity="0.33333334" transform="translate(47,43)"/>
<path d="M0,0 L1,0 L1,1 L0,1 Z " fill="#C4CDD3" opacity="0.77254903" transform="translate(36,40)"/>
<path d="M0,0 L3,0 L3,1 L0,1 Z " fill="#9CAAB5" opacity="0.91764706" transform="translate(24,49)"/>
<path d="M0,0 L1,0 L1,1 L0,1 Z M-1,1 L0,1 L0,2 L-1,2 Z M-2,2 L-1,2 L-1,3 L-2,3 Z " fill="#FFFFFF" transform="translate(24,17)"/>
<path d="M0,0 L1,0 L1,1 L0,1 Z " fill="#92A1AD" opacity="0.9137255" transform="translate(39,52)"/>
<path d="M0,0 L1,0 L1,1 L0,1 Z " fill="#FEFEFE" opacity="0.92156863" transform="translate(39,48)"/>
<path d="M0,0 L1,0 L1,1 L0,1 Z " fill="#C0C8CF" opacity="0.78431374" transform="translate(43,44)"/>
<path d="M0,0 L1,0 L1,1 L0,1 Z " fill="#91A2AD" opacity="0.3529412" transform="translate(16,43)"/>
<path d="M0,0 L1,0 L1,1 L0,1 Z " fill="#FFFFFF" opacity="0.9607843" transform="translate(42,24)"/>
<path d="M0,0 L1,0 L1,1 L0,1 Z " fill="#92A1AD" opacity="0.039215688" transform="translate(32,53)"/>
<path d="M0,0 L1,0 L1,1 L0,1 Z " fill="#91A0AD" opacity="0.7921569" transform="translate(20,36)"/>
<path d="M0,0 L1,0 L1,1 L0,1 Z " fill="#92A1AD" opacity="0.7411765" transform="translate(46,26)"/>
<path d="M0,0 L1,0 L1,1 L0,1 Z " fill="#90A1AF" opacity="0.29803923" transform="translate(47,42)"/>
<path d="M0,0 L1,0 L1,1 L0,1 Z " fill="#92A1AE" opacity="0.47843137" transform="translate(42,36)"/>
<path d="M0,0 L1,0 L1,1 L0,1 Z " fill="#91A0AC" opacity="0.7372549" transform="translate(24,31)"/>
<path d="M0,0 L1,0 L1,1 L0,1 Z " fill="#91A1AD" opacity="0.74509805" transform="translate(46,21)"/>
<path d="M0,0 L1,0 L1,1 L0,1 Z " fill="#FDFDFE" opacity="0.87058824" transform="translate(29,15)"/>
<path d="M0,0 L1,0 L1,1 L0,1 Z " fill="#92A1AC" opacity="0.87058824" transform="translate(22,13)"/>
<path d="M0,0 L1,0 L1,1 L0,1 Z " fill="#92A0AC" opacity="0.91764706" transform="translate(28,11)"/>
<path d="M0,0 L1,0 L1,1 L0,1 Z " fill="#95A0AA" opacity="0.02745098" transform="translate(32,10)"/>
<path d="M0,0 L1,0 L1,1 L0,1 Z " fill="#92A1AD" opacity="0.003921569" transform="translate(46,51)"/>
<path d="M0,0 L1,0 L1,1 L0,1 Z " fill="#91A1AD" opacity="0.95686275" transform="translate(19,51)"/>
<path d="M0,0 L1,0 L1,1 L0,1 Z " fill="#91A2AD" opacity="0.42745098" transform="translate(17,49)"/>
<path d="M0,0 L1,0 L1,1 L0,1 Z " fill="#92A0AF" opacity="0.13725491" transform="translate(47,48)"/>
<path d="M0,0 L1,0 L1,1 L0,1 Z " fill="#FEFEFE" opacity="0.9137255" transform="translate(41,48)"/>
<path d="M0,0 L1,0 L1,1 L0,1 Z " fill="#C5CDD3" opacity="0.77254903" transform="translate(20,43)"/>
<path d="M0,0 L1,0 L1,1 L0,1 Z " fill="#D1D6DC" opacity="0.75686276" transform="translate(41,40)"/>
<path d="M0,0 L1,0 L1,1 L0,1 Z " fill="#91A1AC" opacity="0.9764706" transform="translate(22,34)"/>
<path d="M0,0 L1,0 L1,1 L0,1 Z " fill="#92A0AD" opacity="0.7058824" transform="translate(22,28)"/>
<path d="M0,0 L1,0 L1,1 L0,1 Z " fill="#91A1AD" opacity="0.9843137" transform="translate(20,25)"/>
<path d="M0,0 L1,0 L1,1 L0,1 Z " fill="#92A1AD" opacity="0.7764706" transform="translate(43,15)"/>
<path d="M0,0 L1,0 L1,1 L0,1 Z " fill="#92A1AD" opacity="0.003921569" transform="translate(34,53)"/>
<path d="M0,0 L1,0 L1,1 L0,1 Z " fill="#92A1AD" opacity="0.0627451" transform="translate(30,53)"/>
<path d="M0,0 L1,0 L1,1 L0,1 Z " fill="#95A0AA" opacity="0.09411765" transform="translate(23,53)"/>
<path d="M0,0 L1,0 L1,1 L0,1 Z " fill="#90A6B2" opacity="0.09019608" transform="translate(44,52)"/>
<path d="M0,0 L1,0 L1,1 L0,1 Z " fill="#91A0AD" opacity="0.9372549" transform="translate(37,52)"/>
<path d="M0,0 L1,0 L1,1 L0,1 Z " fill="#92A1AD" opacity="0.94509804" transform="translate(21,52)"/>
<path d="M0,0 L1,0 L1,1 L0,1 Z " fill="#96A3B0" opacity="0.96862745" transform="translate(32,49)"/>
<path d="M0,0 L1,0 L1,1 L0,1 Z " fill="#9AA7B2" opacity="0.94509804" transform="translate(30,49)"/>
<path d="M0,0 L1,0 L1,1 L0,1 Z " fill="#9CABB5" opacity="0.92156863" transform="translate(23,49)"/>
<path d="M0,0 L1,0 L1,1 L0,1 Z " fill="#FEFEFE" opacity="0.9411765" transform="translate(37,48)"/>
<path d="M0,0 L1,0 L1,1 L0,1 Z " fill="#95A3B1" opacity="0.023529412" transform="translate(16,46)"/>
<path d="M0,0 L1,0 L1,1 L0,1 Z " fill="#B9C3CB" opacity="0.79607844" transform="translate(43,42)"/>
<path d="M0,0 L1,0 L1,1 L0,1 Z " fill="#93A0AD" opacity="0.23137255" transform="translate(16,41)"/>
<path d="M0,0 L1,0 L1,1 L0,1 Z " fill="#92A4AD" opacity="0.10980392" transform="translate(47,40)"/>
<path d="M0,0 L1,0 L1,1 L0,1 Z " fill="#CBD3D9" opacity="0.7607843" transform="translate(39,40)"/>
<path d="M0,0 L1,0 L1,1 L0,1 Z " fill="#C5CDD3" opacity="0.77254903" transform="translate(34,40)"/>
<path d="M0,0 L1,0 L1,1 L0,1 Z " fill="#92A1AD" opacity="0.8784314" transform="translate(17,40)"/>
<path d="M0,0 L1,0 L1,1 L0,1 Z " fill="#91A0AD" opacity="0.4" transform="translate(46,38)"/>
<path d="M0,0 L1,0 L1,1 L0,1 Z " fill="#93A0AE" opacity="0.44313726" transform="translate(18,38)"/>
<path d="M0,0 L1,0 L1,1 L0,1 Z " fill="#93A1AD" opacity="0.023529412" transform="translate(44,33)"/>
<path d="M0,0 L1,0 L1,1 L0,1 Z " fill="#91A1AC" opacity="0.0627451" transform="translate(46,29)"/>
<path d="M0,0 L1,0 L1,1 L0,1 Z " fill="#FFFFFF" opacity="0.9764706" transform="translate(31,29)"/>
<path d="M0,0 L1,0 L1,1 L0,1 Z " fill="#EFF1F3" opacity="0.78039217" transform="translate(32,26)"/>
<path d="M0,0 L1,0 L1,1 L0,1 Z " fill="#9BA9B4" opacity="0.92941177" transform="translate(26,26)"/>
<path d="M0,0 L1,0 L1,1 L0,1 Z " fill="#A4B1BB" opacity="0.8784314" transform="translate(29,24)"/>
<path d="M0,0 L1,0 L1,1 L0,1 Z " fill="#92A1AC" opacity="0.015686275" transform="translate(18,24)"/>
<path d="M0,0 L1,0 L1,1 L0,1 Z " fill="#92A0AD" opacity="0.9607843" transform="translate(46,23)"/>
<path d="M0,0 L1,0 L1,1 L0,1 Z " fill="#F7F8F9" opacity="0.81960785" transform="translate(42,22)"/>
<path d="M0,0 L1,0 L1,1 L0,1 Z " fill="#92A1AD" opacity="0.07450981" transform="translate(17,22)"/>
<path d="M0,0 L1,0 L1,1 L0,1 Z " fill="#91A2AE" opacity="0.23529412" transform="translate(46,19)"/>
<path d="M0,0 L1,0 L1,1 L0,1 Z " fill="#92A0AC" opacity="0.83137256" transform="translate(45,18)"/>
<path d="M0,0 L1,0 L1,1 L0,1 Z " fill="#91A0AD" opacity="0.8" transform="translate(17,18)"/>
<path d="M0,0 L1,0 L1,1 L0,1 Z " fill="#FEFEFF" opacity="0.93333334" transform="translate(25,16)"/>
<path d="M0,0 L1,0 L1,1 L0,1 Z " fill="#91A1AC" opacity="0.5921569" transform="translate(18,16)"/>
<path d="M0,0 L1,0 L1,1 L0,1 Z " fill="#C8D0D7" opacity="0.7647059" transform="translate(36,15)"/>
<path d="M0,0 L1,0 L1,1 L0,1 Z " fill="#E2E6EA" opacity="0.7529412" transform="translate(27,15)"/>
<path d="M0,0 L1,0 L1,1 L0,1 Z " fill="#96A4B0" opacity="0.972549" transform="translate(32,14)"/>
<path d="M0,0 L1,0 L1,1 L0,1 Z " fill="#91A0AC" opacity="0.5803922" transform="translate(20,14)"/>
<path d="M0,0 L1,0 L1,1 L0,1 Z " fill="#93A2AC" opacity="0.007843138" transform="translate(42,13)"/>
<path d="M0,0 L1,0 L1,1 L0,1 Z " fill="#91A1AE" opacity="0.03529412" transform="translate(40,12)"/>
<path d="M0,0 L1,0 L1,1 L0,1 Z " fill="#91A2AD" opacity="0.42745098" transform="translate(23,12)"/>
<path d="M0,0 L1,0 L1,1 L0,1 Z " fill="#91A3AC" opacity="0.019607844" transform="translate(38,11)"/>
<path d="M0,0 L1,0 L1,1 L0,1 Z " fill="#92A1AD" opacity="0.4862745" transform="translate(36,11)"/>
<path d="M0,0 L1,0 L1,1 L0,1 Z " fill="#92A1AC" opacity="0.45882353" transform="translate(26,11)"/>
<path d="M0,0 L1,0 L1,1 L0,1 Z " fill="#95A0AA" opacity="0.05882353" transform="translate(30,10)"/>
<path d="M0,0 L1,0 L1,1 L0,1 Z " fill="#92A1AD" opacity="0.015686275" transform="translate(33,53)"/>
<path d="M0,0 L1,0 L1,1 L0,1 Z " fill="#92A1AD" opacity="0.050980393" transform="translate(31,53)"/>
<path d="M0,0 L1,0 L1,1 L0,1 Z " fill="#92A1AD" opacity="0.07058824" transform="translate(29,53)"/>
<path d="M0,0 L1,0 L1,1 L0,1 Z " fill="#929EAA" opacity="0.08235294" transform="translate(28,53)"/>
<path d="M0,0 L1,0 L1,1 L0,1 Z " fill="#92A1AD" opacity="0.03137255" transform="translate(22,53)"/>
<path d="M0,0 L1,0 L1,1 L0,1 Z " fill="#92A0AE" opacity="0.43137255" transform="translate(43,52)"/>
<path d="M0,0 L1,0 L1,1 L0,1 Z " fill="#91A0AD" opacity="0.7176471" transform="translate(42,52)"/>
<path d="M0,0 L1,0 L1,1 L0,1 Z " fill="#92A1AD" opacity="0.8509804" transform="translate(41,52)"/>
<path d="M0,0 L1,0 L1,1 L0,1 Z " fill="#91A1AD" opacity="0.9019608" transform="translate(40,52)"/>
<path d="M0,0 L1,0 L1,1 L0,1 Z " fill="#92A1AD" opacity="0.9254902" transform="translate(38,52)"/>
<path d="M0,0 L1,0 L1,1 L0,1 Z " fill="#91A1AD" opacity="0.95686275" transform="translate(36,52)"/>
<path d="M0,0 L1,0 L1,1 L0,1 Z " fill="#91A1AC" opacity="0.9764706" transform="translate(35,52)"/>
<path d="M0,0 L1,0 L1,1 L0,1 Z " fill="#92A1AD" opacity="0.8156863" transform="translate(20,52)"/>
<path d="M0,0 L1,0 L1,1 L0,1 Z " fill="#90A0B0" opacity="0.1882353" transform="translate(19,52)"/>
<path d="M0,0 L1,0 L1,1 L0,1 Z " fill="#92A2AD" opacity="0.4392157" transform="translate(45,51)"/>
<path d="M0,0 L1,0 L1,1 L0,1 Z " fill="#91A1AD" opacity="0.95686275" transform="translate(44,51)"/>
<path d="M0,0 L1,0 L1,1 L0,1 Z " fill="#91A2AE" opacity="0.23529412" transform="translate(18,51)"/>
<path d="M0,0 L1,0 L1,1 L0,1 Z " fill="#92A1AD" opacity="0.42352942" transform="translate(46,50)"/>
<path d="M0,0 L1,0 L1,1 L0,1 Z " fill="#92A0AD" opacity="0.8862745" transform="translate(18,50)"/>
<path d="M0,0 L1,0 L1,1 L0,1 Z " fill="#91A2AD" opacity="0.05490196" transform="translate(17,50)"/>
<path d="M0,0 L1,0 L1,1 L0,1 Z " fill="#92A0AF" opacity="0.007843138" transform="translate(47,49)"/>
<path d="M0,0 L1,0 L1,1 L0,1 Z " fill="#92A1AD" opacity="0.9254902" transform="translate(46,49)"/>
<path d="M0,0 L1,0 L1,1 L0,1 Z " fill="#92A1AE" opacity="0.99215686" transform="translate(33,49)"/>
<path d="M0,0 L1,0 L1,1 L0,1 Z " fill="#97A6B0" opacity="0.9529412" transform="translate(31,49)"/>
<path d="M0,0 L1,0 L1,1 L0,1 Z " fill="#9AA8B2" opacity="0.9372549" transform="translate(29,49)"/>
<path d="M0,0 L1,0 L1,1 L0,1 Z " fill="#9BA9B4" opacity="0.92941177" transform="translate(28,49)"/>
<path d="M0,0 L1,0 L1,1 L0,1 Z " fill="#9CA9B4" opacity="0.92156863" transform="translate(27,49)"/>
<path d="M0,0 L1,0 L1,1 L0,1 Z " fill="#9AA8B2" opacity="0.9372549" transform="translate(22,49)"/>
<path d="M0,0 L1,0 L1,1 L0,1 Z " fill="#93A3AF" opacity="0.9843137" transform="translate(21,49)"/>
<path d="M0,0 L1,0 L1,1 L0,1 Z " fill="#9AA7B2" opacity="0.94509804" transform="translate(43,48)"/>
<path d="M0,0 L1,0 L1,1 L0,1 Z " fill="#FFFFFF" opacity="0.9254902" transform="translate(42,48)"/>
<path d="M0,0 L1,0 L1,1 L0,1 Z " fill="#FEFEFE" opacity="0.9098039" transform="translate(40,48)"/>
<path d="M0,0 L1,0 L1,1 L0,1 Z " fill="#FEFFFF" opacity="0.92941177" transform="translate(38,48)"/>
<path d="M0,0 L1,0 L1,1 L0,1 Z " fill="#FFFFFF" opacity="0.9529412" transform="translate(36,48)"/>
<path d="M0,0 L1,0 L1,1 L0,1 Z " fill="#FFFFFF" opacity="0.9764706" transform="translate(35,48)"/>
<path d="M0,0 L1,0 L1,1 L0,1 Z " fill="#E6EAED" opacity="0.75686276" transform="translate(21,48)"/>
<path d="M0,0 L1,0 L1,1 L0,1 Z " fill="#91A1AD" opacity="0.7019608" transform="translate(17,48)"/>
<path d="M0,0 L1,0 L1,1 L0,1 Z " fill="#90A2AC" opacity="0.21568628" transform="translate(47,47)"/>
<path d="M0,0 L1,0 L1,1 L0,1 Z " fill="#ABB5C0" opacity="0.8509804" transform="translate(43,47)"/>
<path d="M0,0 L1,0 L1,1 L0,1 Z " fill="#FBFBFC" opacity="0.8509804" transform="translate(21,47)"/>
<path d="M0,0 L1,0 L1,1 L0,1 Z " fill="#91A0AD" opacity="0.8745098" transform="translate(17,47)"/>
<path d="M0,0 L1,0 L1,1 L0,1 Z " fill="#93A1AF" opacity="0.28627452" transform="translate(47,46)"/>
<path d="M0,0 L1,0 L1,1 L0,1 Z " fill="#B7C1CA" opacity="0.8039216" transform="translate(43,46)"/>
<path d="M0,0 L1,0 L1,1 L0,1 Z " fill="#FFFFFF" opacity="0.9764706" transform="translate(21,46)"/>
<path d="M0,0 L1,0 L1,1 L0,1 Z " fill="#92A1AE" opacity="0.99215686" transform="translate(20,46)"/>
<path d="M0,0 L1,0 L1,1 L0,1 Z " fill="#93A0AC" opacity="0.3137255" transform="translate(47,45)"/>
<path d="M0,0 L1,0 L1,1 L0,1 Z " fill="#BCC5CC" opacity="0.7921569" transform="translate(43,45)"/>
<path d="M0,0 L1,0 L1,1 L0,1 Z " fill="#A2AFBA" opacity="0.88235295" transform="translate(20,45)"/>
<path d="M0,0 L1,0 L1,1 L0,1 Z " fill="#95A3B1" opacity="0.14117648" transform="translate(16,45)"/>
<path d="M0,0 L1,0 L1,1 L0,1 Z " fill="#B7C1C9" opacity="0.8039216" transform="translate(20,44)"/>
<path d="M0,0 L1,0 L1,1 L0,1 Z " fill="#90A3AE" opacity="0.27058825" transform="translate(16,44)"/>
<path d="M0,0 L1,0 L1,1 L0,1 Z " fill="#C0C9D0" opacity="0.78039217" transform="translate(43,43)"/>
<path d="M0,0 L1,0 L1,1 L0,1 Z " fill="#C2C9D1" opacity="0.78039217" transform="translate(20,42)"/>
<path d="M0,0 L1,0 L1,1 L0,1 Z " fill="#92A1AD" opacity="0.32941177" transform="translate(16,42)"/>
<path d="M0,0 L1,0 L1,1 L0,1 Z " fill="#93A2AE" opacity="0.25882354" transform="translate(47,41)"/>
<path d="M0,0 L1,0 L1,1 L0,1 Z " fill="#ACB8C1" opacity="0.8392157" transform="translate(43,41)"/>
<path d="M0,0 L1,0 L1,1 L0,1 Z " fill="#F7F8F9" opacity="0.80784315" transform="translate(21,41)"/>
<path d="M0,0 L1,0 L1,1 L0,1 Z " fill="#92A1AE" opacity="0.99215686" transform="translate(20,41)"/>
<path d="M0,0 L1,0 L1,1 L0,1 Z " fill="#93A3AF" opacity="0.9843137" transform="translate(43,40)"/>
<path d="M0,0 L1,0 L1,1 L0,1 Z " fill="#D4DADE" opacity="0.7529412" transform="translate(42,40)"/>
<path d="M0,0 L1,0 L1,1 L0,1 Z " fill="#CED5DA" opacity="0.75686276" transform="translate(40,40)"/>
<path d="M0,0 L1,0 L1,1 L0,1 Z " fill="#CAD0D7" opacity="0.7647059" transform="translate(38,40)"/>
<path d="M0,0 L1,0 L1,1 L0,1 Z " fill="#C6CED4" opacity="0.76862746" transform="translate(37,40)"/>
<path d="M0,0 L1,0 L1,1 L0,1 Z " fill="#C3CAD1" opacity="0.7764706" transform="translate(35,40)"/>
<path d="M0,0 L1,0 L1,1 L0,1 Z " fill="#FEFEFE" opacity="0.94509804" transform="translate(33,40)"/>
<path d="M0,0 L1,0 L1,1 L0,1 Z " fill="#FDFDFE" opacity="0.8862745" transform="translate(22,40)"/>
<path d="M0,0 L1,0 L1,1 L0,1 Z " fill="#9AA8B3" opacity="0.9372549" transform="translate(21,40)"/>
<path d="M0,0 L1,0 L1,1 L0,1 Z " fill="#92A1AD" opacity="0.02745098" transform="translate(16,40)"/>
<path d="M0,0 L1,0 L1,1 L0,1 Z " fill="#91A1AC" opacity="0.003921569" transform="translate(47,39)"/>
<path d="M0,0 L1,0 L1,1 L0,1 Z " fill="#91A1AC" opacity="0.88235295" transform="translate(46,39)"/>
<path d="M0,0 L1,0 L1,1 L0,1 Z " fill="#E8EAED" opacity="0.7607843" transform="translate(34,39)"/>
<path d="M0,0 L1,0 L1,1 L0,1 Z " fill="#FFFFFF" opacity="0.95686275" transform="translate(23,39)"/>
<path d="M0,0 L1,0 L1,1 L0,1 Z " fill="#A8B4BD" opacity="0.85882354" transform="translate(22,39)"/>
<path d="M0,0 L1,0 L1,1 L0,1 Z " fill="#91A0AD" opacity="0.99215686" transform="translate(18,39)"/>
<path d="M0,0 L1,0 L1,1 L0,1 Z " fill="#91A0AB" opacity="0.2627451" transform="translate(17,39)"/>
<path d="M0,0 L1,0 L1,1 L0,1 Z " fill="#C5CDD3" opacity="0.77254903" transform="translate(35,38)"/>
<path d="M0,0 L1,0 L1,1 L0,1 Z " fill="#BDC6CE" opacity="0.7882353" transform="translate(23,38)"/>
<path d="M0,0 L1,0 L1,1 L0,1 Z " fill="#92A1AC" opacity="0.003921569" transform="translate(46,37)"/>
<path d="M0,0 L1,0 L1,1 L0,1 Z " fill="#92A1AC" opacity="0.5294118" transform="translate(45,37)"/>
<path d="M0,0 L1,0 L1,1 L0,1 Z " fill="#A6B2BC" opacity="0.8666667" transform="translate(36,37)"/>
<path d="M0,0 L1,0 L1,1 L0,1 Z " fill="#FFFFFF" opacity="0.9607843" transform="translate(35,37)"/>
<path d="M0,0 L1,0 L1,1 L0,1 Z " fill="#DADEE2" opacity="0.7529412" transform="translate(24,37)"/>
<path d="M0,0 L1,0 L1,1 L0,1 Z " fill="#92A0AD" opacity="0.6313726" transform="translate(19,37)"/>
<path d="M0,0 L1,0 L1,1 L0,1 Z " fill="#92A0AD" opacity="0.003921569" transform="translate(18,37)"/>
<path d="M0,0 L1,0 L1,1 L0,1 Z " fill="#8FA5AD" opacity="0.13333334" transform="translate(44,36)"/>
<path d="M0,0 L1,0 L1,1 L0,1 Z " fill="#91A1AE" opacity="0.39215687" transform="translate(43,36)"/>
<path d="M0,0 L1,0 L1,1 L0,1 Z " fill="#92A1AC" opacity="0.9882353" transform="translate(41,36)"/>
<path d="M0,0 L1,0 L1,1 L0,1 Z " fill="#97A5B1" opacity="0.9607843" transform="translate(37,36)"/>
<path d="M0,0 L1,0 L1,1 L0,1 Z " fill="#FCFCFC" opacity="0.8666667" transform="translate(36,36)"/>
<path d="M0,0 L1,0 L1,1 L0,1 Z " fill="#F1F3F4" opacity="0.78431374" transform="translate(25,36)"/>
<path d="M0,0 L1,0 L1,1 L0,1 Z " fill="#91A0AD" opacity="0.03137255" transform="translate(19,36)"/>
<path d="M0,0 L1,0 L1,1 L0,1 Z " fill="#91A1AC" opacity="0.5529412" transform="translate(42,35)"/>
<path d="M0,0 L1,0 L1,1 L0,1 Z " fill="#EDF0F1" opacity="0.77254903" transform="translate(37,35)"/>
<path d="M0,0 L1,0 L1,1 L0,1 Z " fill="#FBFCFC" opacity="0.85882354" transform="translate(26,35)"/>
<path d="M0,0 L1,0 L1,1 L0,1 Z " fill="#97A5B1" opacity="0.9607843" transform="translate(25,35)"/>
<path d="M0,0 L1,0 L1,1 L0,1 Z " fill="#92A0AC" opacity="0.90588236" transform="translate(21,35)"/>
<path d="M0,0 L1,0 L1,1 L0,1 Z " fill="#8EA1AA" opacity="0.105882354" transform="translate(20,35)"/>
<path d="M0,0 L1,0 L1,1 L0,1 Z " fill="#90A2AC" opacity="0.21568628" transform="translate(43,34)"/>
<path d="M0,0 L1,0 L1,1 L0,1 Z " fill="#91A0AD" opacity="0.99215686" transform="translate(42,34)"/>
<path d="M0,0 L1,0 L1,1 L0,1 Z " fill="#CBD3D8" opacity="0.7607843" transform="translate(38,34)"/>
<path d="M0,0 L1,0 L1,1 L0,1 Z " fill="#FEFEFF" opacity="0.93333334" transform="translate(27,34)"/>
<path d="M0,0 L1,0 L1,1 L0,1 Z " fill="#A2AEB8" opacity="0.8901961" transform="translate(26,34)"/>
<path d="M0,0 L1,0 L1,1 L0,1 Z " fill="#94A1AF" opacity="0.22352941" transform="translate(21,34)"/>
<path d="M0,0 L1,0 L1,1 L0,1 Z " fill="#91A1AD" opacity="0.827451" transform="translate(43,33)"/>
<path d="M0,0 L1,0 L1,1 L0,1 Z " fill="#A1AFB9" opacity="0.89411765" transform="translate(39,33)"/>
<path d="M0,0 L1,0 L1,1 L0,1 Z " fill="#FFFFFF" opacity="0.9607843" transform="translate(38,33)"/>
<path d="M0,0 L1,0 L1,1 L0,1 Z " fill="#FFFFFF" opacity="0.99215686" transform="translate(28,33)"/>
<path d="M0,0 L1,0 L1,1 L0,1 Z " fill="#B6C0C8" opacity="0.80784315" transform="translate(27,33)"/>
<path d="M0,0 L1,0 L1,1 L0,1 Z " fill="#92A1AC" opacity="0.38431373" transform="translate(22,33)"/>
<path d="M0,0 L1,0 L1,1 L0,1 Z " fill="#93A1AD" opacity="0.49803922" transform="translate(44,32)"/>
<path d="M0,0 L1,0 L1,1 L0,1 Z " fill="#F6F7F8" opacity="0.8039216" transform="translate(39,32)"/>
<path d="M0,0 L1,0 L1,1 L0,1 Z " fill="#D4D9DE" opacity="0.75686276" transform="translate(28,32)"/>
<path d="M0,0 L1,0 L1,1 L0,1 Z " fill="#91A1AD" opacity="0.57254905" transform="translate(23,32)"/>
<path d="M0,0 L1,0 L1,1 L0,1 Z " fill="#94A5AD" opacity="0.12156863" transform="translate(45,31)"/>
<path d="M0,0 L1,0 L1,1 L0,1 Z " fill="#92A0AD" opacity="0.98039216" transform="translate(44,31)"/>
<path d="M0,0 L1,0 L1,1 L0,1 Z " fill="#C6CFD4" opacity="0.76862746" transform="translate(40,31)"/>
<path d="M0,0 L1,0 L1,1 L0,1 Z " fill="#EFF1F3" opacity="0.7764706" transform="translate(29,31)"/>
<path d="M0,0 L1,0 L1,1 L0,1 Z " fill="#91A0AC" opacity="0.019607844" transform="translate(23,31)"/>
<path d="M0,0 L1,0 L1,1 L0,1 Z " fill="#92A1AD" opacity="0.58431375" transform="translate(45,30)"/>
<path d="M0,0 L1,0 L1,1 L0,1 Z " fill="#9CABB5" opacity="0.92156863" transform="translate(41,30)"/>
<path d="M0,0 L1,0 L1,1 L0,1 Z " fill="#FEFEFE" opacity="0.9411765" transform="translate(40,30)"/>
<path d="M0,0 L1,0 L1,1 L0,1 Z " fill="#FBFCFD" opacity="0.8509804" transform="translate(30,30)"/>
<path d="M0,0 L1,0 L1,1 L0,1 Z " fill="#95A5AF" opacity="0.9647059" transform="translate(29,30)"/>
<path d="M0,0 L1,0 L1,1 L0,1 Z " fill="#93A1AC" opacity="0.36078432" transform="translate(24,30)"/>
<path d="M0,0 L1,0 L1,1 L0,1 Z " fill="#92A1AD" opacity="0.972549" transform="translate(45,29)"/>
<path d="M0,0 L1,0 L1,1 L0,1 Z " fill="#E5E9EC" opacity="0.75686276" transform="translate(41,29)"/>
<path d="M0,0 L1,0 L1,1 L0,1 Z " fill="#A6B2BB" opacity="0.87058824" transform="translate(30,29)"/>
<path d="M0,0 L1,0 L1,1 L0,1 Z " fill="#91A1AC" opacity="0.627451" transform="translate(23,29)"/>
<path d="M0,0 L1,0 L1,1 L0,1 Z " fill="#92A0AD" opacity="0.019607844" transform="translate(22,29)"/>
<path d="M0,0 L1,0 L1,1 L0,1 Z " fill="#91A1AC" opacity="0.37254903" transform="translate(46,28)"/>
<path d="M0,0 L1,0 L1,1 L0,1 Z " fill="#97A6B1" opacity="0.95686275" transform="translate(42,28)"/>
<path d="M0,0 L1,0 L1,1 L0,1 Z " fill="#FFFFFF" opacity="0.9490196" transform="translate(41,28)"/>
<path d="M0,0 L1,0 L1,1 L0,1 Z " fill="#DADEE2" opacity="0.7529412" transform="translate(31,28)"/>
<path d="M0,0 L1,0 L1,1 L0,1 Z " fill="#91A1AC" opacity="0.023529412" transform="translate(21,28)"/>
<path d="M0,0 L1,0 L1,1 L0,1 Z " fill="#92A0AD" opacity="0.6313726" transform="translate(46,27)"/>
<path d="M0,0 L1,0 L1,1 L0,1 Z " fill="#CCD4D9" opacity="0.7607843" transform="translate(42,27)"/>
<path d="M0,0 L1,0 L1,1 L0,1 Z " fill="#FDFDFE" opacity="0.90588236" transform="translate(32,27)"/>
<path d="M0,0 L1,0 L1,1 L0,1 Z " fill="#95A2AF" opacity="0.98039216" transform="translate(31,27)"/>
<path d="M0,0 L1,0 L1,1 L0,1 Z " fill="#91A1AC" opacity="0.5921569" transform="translate(21,27)"/>
<path d="M0,0 L1,0 L1,1 L0,1 Z " fill="#F5F7F8" opacity="0.8" transform="translate(42,26)"/>
<path d="M0,0 L1,0 L1,1 L0,1 Z " fill="#9EABB6" opacity="0.9137255" transform="translate(25,26)"/>
<path d="M0,0 L1,0 L1,1 L0,1 Z " fill="#92A0AD" opacity="0.4117647" transform="translate(20,26)"/>
<path d="M0,0 L1,0 L1,1 L0,1 Z " fill="#92A1AD" opacity="0.8509804" transform="translate(46,25)"/>
<path d="M0,0 L1,0 L1,1 L0,1 Z " fill="#FCFDFD" opacity="0.8666667" transform="translate(42,25)"/>
<path d="M0,0 L1,0 L1,1 L0,1 Z " fill="#EDF0F3" opacity="0.77254903" transform="translate(32,25)"/>
<path d="M0,0 L1,0 L1,1 L0,1 Z " fill="#A4B1BB" opacity="0.8784314" transform="translate(27,25)"/>
<path d="M0,0 L1,0 L1,1 L0,1 Z " fill="#FCFCFD" opacity="0.8627451" transform="translate(26,25)"/>
<path d="M0,0 L1,0 L1,1 L0,1 Z " fill="#FEFEFE" opacity="0.92156863" transform="translate(25,25)"/>
<path d="M0,0 L1,0 L1,1 L0,1 Z " fill="#A3B0BA" opacity="0.88235295" transform="translate(24,25)"/>
<path d="M0,0 L1,0 L1,1 L0,1 Z " fill="#92A1AC" opacity="0.19215687" transform="translate(19,25)"/>
<path d="M0,0 L1,0 L1,1 L0,1 Z " fill="#92A0AD" opacity="0.9607843" transform="translate(46,24)"/>
<path d="M0,0 L1,0 L1,1 L0,1 Z " fill="#FFFFFF" opacity="0.99215686" transform="translate(32,24)"/>
<path d="M0,0 L1,0 L1,1 L0,1 Z " fill="#C2C9D0" opacity="0.78039217" transform="translate(31,24)"/>
<path d="M0,0 L1,0 L1,1 L0,1 Z " fill="#95A5AF" opacity="0.9647059" transform="translate(30,24)"/>
<path d="M0,0 L1,0 L1,1 L0,1 Z " fill="#D5DCE0" opacity="0.7529412" transform="translate(28,24)"/>
<path d="M0,0 L1,0 L1,1 L0,1 Z " fill="#FFFFFF" opacity="0.9490196" transform="translate(27,24)"/>
<path d="M0,0 L1,0 L1,1 L0,1 Z " fill="#FCFCFD" opacity="0.8627451" transform="translate(24,24)"/>
<path d="M0,0 L1,0 L1,1 L0,1 Z " fill="#98A6B2" opacity="0.9529412" transform="translate(23,24)"/>
<path d="M0,0 L1,0 L1,1 L0,1 Z " fill="#92A1AC" opacity="0.80784315" transform="translate(19,24)"/>
<path d="M0,0 L1,0 L1,1 L0,1 Z " fill="#FEFEFE" opacity="0.91764706" transform="translate(42,23)"/>
<path d="M0,0 L1,0 L1,1 L0,1 Z " fill="#F1F3F5" opacity="0.78039217" transform="translate(23,23)"/>
<path d="M0,0 L1,0 L1,1 L0,1 Z " fill="#92A1AC" opacity="0.45882353" transform="translate(18,23)"/>
<path d="M0,0 L1,0 L1,1 L0,1 Z " fill="#92A1AC" opacity="0.87058824" transform="translate(46,22)"/>
<path d="M0,0 L1,0 L1,1 L0,1 Z " fill="#C0C9D0" opacity="0.78039217" transform="translate(22,22)"/>
<path d="M0,0 L1,0 L1,1 L0,1 Z " fill="#91A0AD" opacity="0.9490196" transform="translate(18,22)"/>
<path d="M0,0 L1,0 L1,1 L0,1 Z " fill="#E9EDEE" opacity="0.7647059" transform="translate(42,21)"/>
<path d="M0,0 L1,0 L1,1 L0,1 Z " fill="#FEFEFE" opacity="0.91764706" transform="translate(22,21)"/>
<path d="M0,0 L1,0 L1,1 L0,1 Z " fill="#98A6B2" opacity="0.94509804" transform="translate(21,21)"/>
<path d="M0,0 L1,0 L1,1 L0,1 Z " fill="#92A1AD" opacity="0.52156866" transform="translate(17,21)"/>
<path d="M0,0 L1,0 L1,1 L0,1 Z " fill="#91A0AC" opacity="0.5176471" transform="translate(46,20)"/>
<path d="M0,0 L1,0 L1,1 L0,1 Z " fill="#B1BBC5" opacity="0.8235294" transform="translate(42,20)"/>
<path d="M0,0 L1,0 L1,1 L0,1 Z " fill="#E0E4E8" opacity="0.7529412" transform="translate(21,20)"/>
<path d="M0,0 L1,0 L1,1 L0,1 Z " fill="#91A1AC" opacity="0.81960785" transform="translate(17,20)"/>
<path d="M0,0 L1,0 L1,1 L0,1 Z " fill="#F6F7F8" opacity="0.80784315" transform="translate(41,19)"/>
<path d="M0,0 L1,0 L1,1 L0,1 Z " fill="#F6F7F8" opacity="0.8039216" transform="translate(21,19)"/>
<path d="M0,0 L1,0 L1,1 L0,1 Z " fill="#91A0AD" opacity="0.9372549" transform="translate(17,19)"/>
<path d="M0,0 L1,0 L1,1 L0,1 Z " fill="#92A0AC" opacity="0.003921569" transform="translate(46,18)"/>
<path d="M0,0 L1,0 L1,1 L0,1 Z " fill="#A6B2BC" opacity="0.8666667" transform="translate(41,18)"/>
<path d="M0,0 L1,0 L1,1 L0,1 Z " fill="#FEFEFE" opacity="0.91764706" transform="translate(40,18)"/>
<path d="M0,0 L1,0 L1,1 L0,1 Z " fill="#FEFEFF" opacity="0.90588236" transform="translate(22,18)"/>
<path d="M0,0 L1,0 L1,1 L0,1 Z " fill="#A5B1BC" opacity="0.8745098" transform="translate(21,18)"/>
<path d="M0,0 L1,0 L1,1 L0,1 Z " fill="#93A0AC" opacity="0.3137255" transform="translate(45,17)"/>
<path d="M0,0 L1,0 L1,1 L0,1 Z " fill="#A3B0BA" opacity="0.88235295" transform="translate(40,17)"/>
<path d="M0,0 L1,0 L1,1 L0,1 Z " fill="#FEFEFE" opacity="0.8980392" transform="translate(39,17)"/>
<path d="M0,0 L1,0 L1,1 L0,1 Z " fill="#FBFBFC" opacity="0.8392157" transform="translate(23,17)"/>
<path d="M0,0 L1,0 L1,1 L0,1 Z " fill="#9EACB7" opacity="0.9098039" transform="translate(22,17)"/>
<path d="M0,0 L1,0 L1,1 L0,1 Z " fill="#94A0AC" opacity="0.2509804" transform="translate(17,17)"/>
<path d="M0,0 L1,0 L1,1 L0,1 Z " fill="#92A1AD" opacity="0.65882355" transform="translate(44,16)"/>
<path d="M0,0 L1,0 L1,1 L0,1 Z " fill="#98A7B2" opacity="0.9490196" transform="translate(39,16)"/>
<path d="M0,0 L1,0 L1,1 L0,1 Z " fill="#DCE1E5" opacity="0.7529412" transform="translate(38,16)"/>
<path d="M0,0 L1,0 L1,1 L0,1 Z " fill="#FFFFFF" opacity="0.95686275" transform="translate(37,16)"/>
<path d="M0,0 L1,0 L1,1 L0,1 Z " fill="#D4DAE0" opacity="0.7529412" transform="translate(24,16)"/>
<path d="M0,0 L1,0 L1,1 L0,1 Z " fill="#93A3AF" opacity="0.9843137" transform="translate(23,16)"/>
<path d="M0,0 L1,0 L1,1 L0,1 Z " fill="#92A1AD" opacity="0.043137256" transform="translate(44,15)"/>
<path d="M0,0 L1,0 L1,1 L0,1 Z " fill="#9BA9B4" opacity="0.92941177" transform="translate(37,15)"/>
<path d="M0,0 L1,0 L1,1 L0,1 Z " fill="#ECF0F1" opacity="0.76862746" transform="translate(35,15)"/>
<path d="M0,0 L1,0 L1,1 L0,1 Z " fill="#FDFDFD" opacity="0.8901961" transform="translate(34,15)"/>
<path d="M0,0 L1,0 L1,1 L0,1 Z " fill="#FFFFFF" opacity="0.972549" transform="translate(33,15)"/>
<path d="M0,0 L1,0 L1,1 L0,1 Z " fill="#FFFFFF" opacity="0.9843137" transform="translate(30,15)"/>
<path d="M0,0 L1,0 L1,1 L0,1 Z " fill="#F3F4F5" opacity="0.7921569" transform="translate(28,15)"/>
<path d="M0,0 L1,0 L1,1 L0,1 Z " fill="#BEC8CF" opacity="0.78431374" transform="translate(26,15)"/>
<path d="M0,0 L1,0 L1,1 L0,1 Z " fill="#95A2AF" opacity="0.98039216" transform="translate(25,15)"/>
<path d="M0,0 L1,0 L1,1 L0,1 Z " fill="#91A1AC" opacity="0.70980394" transform="translate(19,15)"/>
<path d="M0,0 L1,0 L1,1 L0,1 Z " fill="#91A1AC" opacity="0.023529412" transform="translate(18,15)"/>
<path d="M0,0 L1,0 L1,1 L0,1 Z " fill="#92A1AC" opacity="0.05490196" transform="translate(43,14)"/>
<path d="M0,0 L1,0 L1,1 L0,1 Z " fill="#92A1AC" opacity="0.69803923" transform="translate(42,14)"/>
<path d="M0,0 L1,0 L1,1 L0,1 Z " fill="#9CA9B4" opacity="0.92156863" transform="translate(31,14)"/>
<path d="M0,0 L1,0 L1,1 L0,1 Z " fill="#92A1AE" opacity="0.99215686" transform="translate(30,14)"/>
<path d="M0,0 L1,0 L1,1 L0,1 Z " fill="#91A0AC" opacity="0.02745098" transform="translate(19,14)"/>
<path d="M0,0 L1,0 L1,1 L0,1 Z " fill="#93A2AC" opacity="0.39607844" transform="translate(41,13)"/>
<path d="M0,0 L1,0 L1,1 L0,1 Z " fill="#91A1AC" opacity="0.89411765" transform="translate(40,13)"/>
<path d="M0,0 L1,0 L1,1 L0,1 Z " fill="#92A2AC" opacity="0.3019608" transform="translate(21,13)"/>
<path d="M0,0 L1,0 L1,1 L0,1 Z " fill="#91A1AE" opacity="0.45490196" transform="translate(39,12)"/>
<path d="M0,0 L1,0 L1,1 L0,1 Z " fill="#92A1AD" opacity="0.9254902" transform="translate(38,12)"/>
<path d="M0,0 L1,0 L1,1 L0,1 Z " fill="#91A0AD" opacity="0.8117647" transform="translate(24,12)"/>
<path d="M0,0 L1,0 L1,1 L0,1 Z " fill="#91A2AD" opacity="0.03137255" transform="translate(22,12)"/>
<path d="M0,0 L1,0 L1,1 L0,1 Z " fill="#91A3AC" opacity="0.22745098" transform="translate(37,11)"/>
<path d="M0,0 L1,0 L1,1 L0,1 Z " fill="#91A1AD" opacity="0.74509805" transform="translate(35,11)"/>
<path d="M0,0 L1,0 L1,1 L0,1 Z " fill="#92A1AD" opacity="0.8901961" transform="translate(34,11)"/>
<path d="M0,0 L1,0 L1,1 L0,1 Z " fill="#92A0AD" opacity="0.9607843" transform="translate(33,11)"/>
<path d="M0,0 L1,0 L1,1 L0,1 Z " fill="#92A1AC" opacity="0.9882353" transform="translate(29,11)"/>
<path d="M0,0 L1,0 L1,1 L0,1 Z " fill="#92A1AD" opacity="0.7137255" transform="translate(27,11)"/>
<path d="M0,0 L1,0 L1,1 L0,1 Z " fill="#939FB0" opacity="0.1764706" transform="translate(25,11)"/>
<path d="M0,0 L1,0 L1,1 L0,1 Z " fill="#95A0AA" opacity="0.09411765" transform="translate(31,10)"/>
<path d="M0,0 L1,0 L1,1 L0,1 Z " fill="#92A1AC" opacity="0.003921569" transform="translate(29,10)"/>
</svg>
