<?xml version="1.0" encoding="UTF-8"?>
<!-- Generator: visioncortex VTracer 0.6.4 -->
<svg version="1.1" xmlns="http://www.w3.org/2000/svg" width="64" height="64">
<path d="M0,0 L4,0 L4,1 L7,1 L7,2 L9,2 L9,3 L11,3 L11,4 L12,4 L12,28 L14,28 L14,29 L16,29 L16,40 L15,40 L15,41 L13,41 L13,42 L-7,42 L-7,41 L-8,41 L-8,40 L-9,40 L-9,39 L-10,39 L-10,30 L-9,30 L-9,28 L-7,28 L-7,27 L-5,27 L-5,23 L-4,23 L-4,21 L-7,21 L-7,20 L-8,20 L-8,18 L-9,18 L-9,17 L-10,17 L-10,16 L-11,16 L-11,14 L-12,14 L-12,11 L-11,11 L-11,9 L-9,9 L-9,8 L-8,8 L-8,7 L-7,7 L-7,6 L-6,6 L-6,5 L-5,5 L-5,4 L-3,4 L-3,3 L-2,3 L-2,2 L-1,2 L-1,1 L0,1 Z M1,3 L1,4 L0,4 L0,5 L-2,5 L-2,6 L-3,6 L-3,7 L-4,7 L-4,8 L-5,8 L-5,9 L-6,9 L-6,10 L-8,10 L-8,11 L-9,11 L-9,13 L-8,13 L-8,15 L-7,15 L-7,17 L-6,17 L-6,18 L-3,18 L-3,17 L-1,17 L-1,22 L-2,22 L-2,30 L-7,30 L-7,39 L13,39 L13,30 L9,30 L9,5 L7,5 L7,4 L4,4 L4,3 Z M2,4 L3,4 L3,5 L6,5 L6,6 L8,6 L8,31 L12,31 L12,38 L-6,38 L-6,31 L-1,31 L-1,22 L0,22 L0,15 L-2,15 L-2,16 L-4,16 L-4,17 L-5,17 L-5,16 L-6,16 L-6,14 L-7,14 L-7,13 L-8,13 L-8,12 L-7,12 L-7,11 L-6,11 L-6,10 L-4,10 L-4,9 L-3,9 L-3,8 L-2,8 L-2,7 L-1,7 L-1,6 L0,6 L0,5 L2,5 Z " fill="#92A1AD" transform="translate(30,11)"/>
<path d="M0,0 L1,0 L1,1 L4,1 L4,2 L6,2 L6,27 L10,27 L10,34 L-8,34 L-8,27 L-3,27 L-3,18 L-2,18 L-2,11 L-4,11 L-4,12 L-6,12 L-6,13 L-7,13 L-7,12 L-8,12 L-8,10 L-9,10 L-9,9 L-10,9 L-10,8 L-9,8 L-9,7 L-8,7 L-8,6 L-6,6 L-6,5 L-5,5 L-5,4 L-4,4 L-4,3 L-3,3 L-3,2 L-2,2 L-2,1 L0,1 Z " fill="#FFFFFF" transform="translate(32,15)"/>
<path d="M0,0 L1,0 L1,1 L0,1 Z " fill="#9FACB6" opacity="0.90588236" transform="translate(38,40)"/>
<path d="M0,0 L1,0 L1,1 L0,1 Z " fill="#93A2AC" opacity="0.39607844" transform="translate(42,18)"/>
<path d="M0,0 L11,0 L11,1 L0,1 Z " fill="#92A2AE" opacity="0.5019608" transform="translate(27,53)"/>
<path d="M0,0 L13,0 L13,1 L0,1 Z " fill="#DAE0E4" opacity="0.7529412" transform="translate(24,49)"/>
<path d="M0,0 L1,0 L1,1 L0,1 Z " fill="#BEC7CF" opacity="0.78431374" transform="translate(38,24)"/>
<path d="M0,0 L1,0 L1,1 L0,1 Z " fill="#92A1AD" opacity="0.8901961" transform="translate(22,17)"/>
<path d="M0,0 L1,0 L1,1 L0,1 Z " fill="#92A0AD" opacity="0.54901963" transform="translate(46,43)"/>
<path d="M0,0 L1,0 L1,3 L0,3 Z " fill="#94A0AC" opacity="0.2509804" transform="translate(19,42)"/>
<path d="M0,0 L1,0 L1,1 L0,1 Z " fill="#92A2AC" opacity="0.3019608" transform="translate(32,10)"/>
<path d="M0,0 L1,0 L1,1 L0,1 Z M-1,1 L0,1 L0,2 L-1,2 Z M-2,2 L-1,2 L-1,3 L-2,3 Z " fill="#FFFFFF" transform="translate(24,21)"/>
<path d="M0,0 L1,0 L1,1 L0,1 Z " fill="#E1E5E8" opacity="0.75686276" transform="translate(42,45)"/>
<path d="M0,0 L1,0 L1,2 L0,2 Z " fill="#B3BDC6" opacity="0.8156863" transform="translate(23,42)"/>
<path d="M0,0 L1,0 L1,1 L0,1 Z " fill="#AEBAC2" opacity="0.8352941" transform="translate(27,41)"/>
<path d="M0,0 L1,0 L1,1 L0,1 Z " fill="#94A1AF" opacity="0.14901961" transform="translate(42,34)"/>
<path d="M0,0 L1,0 L1,1 L0,1 Z " fill="#92A1AE" opacity="0.46666667" transform="translate(39,53)"/>
<path d="M0,0 L1,0 L1,1 L0,1 Z " fill="#92A2AE" opacity="0.24705882" transform="translate(42,29)"/>
<path d="M0,0 L1,0 L1,1 L0,1 Z " fill="#909FAD" opacity="0.20784314" transform="translate(19,47)"/>
<path d="M0,0 L1,0 L1,1 L0,1 Z " fill="#92A1AD" opacity="0.039215688" transform="translate(24,35)"/>
<path d="M0,0 L1,0 L1,1 L0,1 Z " fill="#91A1AE" opacity="0.003921569" transform="translate(21,31)"/>
<path d="M0,0 L1,0 L1,1 L0,1 Z " fill="#B4BFC7" opacity="0.8117647" transform="translate(38,28)"/>
<path d="M0,0 L1,0 L1,1 L0,1 Z " fill="#91A0AC" opacity="0.3372549" transform="translate(17,22)"/>
<path d="M0,0 L1,0 L1,1 L0,1 Z " fill="#92A2AE" opacity="0.5019608" transform="translate(26,53)"/>
<path d="M0,0 L1,0 L1,1 L0,1 Z " fill="#91A1AC" opacity="0.43529412" transform="translate(46,48)"/>
<path d="M0,0 L1,0 L1,1 L0,1 Z " fill="#A8B5BE" opacity="0.85882354" transform="translate(41,41)"/>
<path d="M0,0 L1,0 L1,1 L0,1 Z " fill="#A4B1BB" opacity="0.87058824" transform="translate(28,38)"/>
<path d="M0,0 L1,0 L1,1 L0,1 Z " fill="#A6B3BC" opacity="0.8666667" transform="translate(38,33)"/>
<path d="M0,0 L1,0 L1,1 L0,1 Z " fill="#FEFFFF" opacity="0.92941177" transform="translate(29,30)"/>
<path d="M0,0 L1,0 L1,1 L0,1 Z " fill="#C6CFD6" opacity="0.76862746" transform="translate(38,20)"/>
<path d="M0,0 L1,0 L1,1 L0,1 Z " fill="#92A1AD" opacity="0.99607843" transform="translate(20,19)"/>
<path d="M0,0 L1,0 L1,1 L0,1 Z " fill="#92A1AC" opacity="0.6392157" transform="translate(24,15)"/>
<path d="M0,0 L1,0 L1,1 L0,1 Z " fill="#91A0AD" opacity="0.9490196" transform="translate(27,13)"/>
<path d="M0,0 L1,0 L1,1 L0,1 Z " fill="#91A1AC" opacity="0.9764706" transform="translate(21,51)"/>
<path d="M0,0 L1,0 L1,1 L0,1 Z " fill="#ACB8C0" opacity="0.8392157" transform="translate(23,47)"/>
<path d="M0,0 L1,0 L1,2 L0,2 Z " fill="#92A0AD" opacity="0.54901963" transform="translate(46,44)"/>
<path d="M0,0 L1,0 L1,1 L0,1 Z " fill="#AFB9C2" opacity="0.83137256" transform="translate(28,40)"/>
<path d="M0,0 L1,0 L1,2 L0,2 Z " fill="#95A3B1" opacity="0.14117648" transform="translate(42,35)"/>
<path d="M0,0 L1,0 L1,1 L0,1 Z " fill="#A3AFB9" opacity="0.8862745" transform="translate(38,35)"/>
<path d="M0,0 L1,0 L1,1 L0,1 Z " fill="#91A1AC" opacity="0.88235295" transform="translate(20,28)"/>
<path d="M0,0 L1,0 L1,1 L0,1 Z " fill="#91A2AC" opacity="0.2901961" transform="translate(42,26)"/>
<path d="M0,0 L1,0 L1,1 L0,1 Z " fill="#93A1AD" opacity="0.34117648" transform="translate(42,23)"/>
<path d="M0,0 L1,0 L1,1 L0,1 Z " fill="#91A1AC" opacity="0.37254903" transform="translate(42,20)"/>
<path d="M0,0 L1,0 L1,1 L0,1 Z " fill="#91A1AE" opacity="0.39215687" transform="translate(24,53)"/>
<path d="M0,0 L1,0 L1,1 L0,1 Z " fill="#92A4AD" opacity="0.003921569" transform="translate(19,50)"/>
<path d="M0,0 L1,0 L1,1 L0,1 Z " fill="#CFD4DB" opacity="0.7607843" transform="translate(41,49)"/>
<path d="M0,0 L1,0 L1,1 L0,1 Z " fill="#D6DCE0" opacity="0.7529412" transform="translate(39,49)"/>
<path d="M0,0 L1,0 L1,1 L0,1 Z " fill="#E1E5E9" opacity="0.7529412" transform="translate(42,43)"/>
<path d="M0,0 L1,0 L1,1 L0,1 Z " fill="#92A1AC" opacity="0.34901962" transform="translate(46,41)"/>
<path d="M0,0 L1,0 L1,1 L0,1 Z " fill="#B3BDC6" opacity="0.8156863" transform="translate(39,41)"/>
<path d="M0,0 L1,0 L1,1 L0,1 Z " fill="#A6B2BC" opacity="0.8666667" transform="translate(25,41)"/>
<path d="M0,0 L1,0 L1,1 L0,1 Z " fill="#939FB0" opacity="0.1764706" transform="translate(19,41)"/>
<path d="M0,0 L1,0 L1,1 L0,1 Z " fill="#91A0AD" opacity="0.9372549" transform="translate(20,40)"/>
<path d="M0,0 L1,0 L1,1 L0,1 Z " fill="#9EACB7" opacity="0.9098039" transform="translate(38,38)"/>
<path d="M0,0 L1,0 L1,1 L0,1 Z " fill="#92A1AD" opacity="0.85882354" transform="translate(22,38)"/>
<path d="M0,0 L1,0 L1,1 L0,1 Z " fill="#91A0AF" opacity="0.2" transform="translate(24,37)"/>
<path d="M0,0 L1,0 L1,1 L0,1 Z " fill="#9EAAB5" opacity="0.9137255" transform="translate(28,36)"/>
<path d="M0,0 L1,0 L1,1 L0,1 Z " fill="#90A0B0" opacity="0.1882353" transform="translate(42,32)"/>
<path d="M0,0 L1,0 L1,1 L0,1 Z " fill="#FFFFFF" opacity="0.9843137" transform="translate(29,32)"/>
<path d="M0,0 L1,0 L1,1 L0,1 Z " fill="#ACB8C1" opacity="0.8392157" transform="translate(38,31)"/>
<path d="M0,0 L1,0 L1,1 L0,1 Z " fill="#FDFDFE" opacity="0.8862745" transform="translate(29,28)"/>
<path d="M0,0 L1,0 L1,1 L0,1 Z " fill="#9AA8B3" opacity="0.9372549" transform="translate(26,28)"/>
<path d="M0,0 L1,0 L1,1 L0,1 Z " fill="#B9C3CB" opacity="0.79607844" transform="translate(38,26)"/>
<path d="M0,0 L1,0 L1,1 L0,1 Z " fill="#C3CCD2" opacity="0.7764706" transform="translate(38,22)"/>
<path d="M0,0 L1,0 L1,1 L0,1 Z " fill="#92A0AD" opacity="0.98039216" transform="translate(18,21)"/>
<path d="M0,0 L1,0 L1,1 L0,1 Z " fill="#FFFFFF" opacity="0.99607843" transform="translate(25,20)"/>
<path d="M0,0 L1,0 L1,1 L0,1 Z " fill="#CAD2D8" opacity="0.7647059" transform="translate(38,18)"/>
<path d="M0,0 L1,0 L1,1 L0,1 Z " fill="#91A1AD" opacity="0.95686275" transform="translate(21,18)"/>
<path d="M0,0 L1,0 L1,1 L0,1 Z " fill="#93A2AC" opacity="0.39607844" transform="translate(42,16)"/>
<path d="M0,0 L1,0 L1,1 L0,1 Z " fill="#91A0AD" opacity="0.7921569" transform="translate(23,16)"/>
<path d="M0,0 L1,0 L1,1 L0,1 Z " fill="#93A2AD" opacity="0.99607843" transform="translate(36,15)"/>
<path d="M0,0 L1,0 L1,1 L0,1 Z " fill="#91A1AD" opacity="0.68235296" transform="translate(41,14)"/>
<path d="M0,0 L1,0 L1,1 L0,1 Z " fill="#BAC4CC" opacity="0.7921569" transform="translate(32,14)"/>
<path d="M0,0 L1,0 L1,1 L0,1 Z " fill="#92A1AC" opacity="0.45882353" transform="translate(25,14)"/>
<path d="M0,0 L1,0 L1,1 L0,1 Z " fill="#8FA3AE" opacity="0.09803922" transform="translate(39,12)"/>
<path d="M0,0 L1,0 L1,1 L0,1 Z " fill="#91A1AD" opacity="0.827451" transform="translate(28,12)"/>
<path d="M0,0 L1,0 L1,1 L0,1 Z " fill="#94A5AD" opacity="0.12156863" transform="translate(36,11)"/>
<path d="M0,0 L1,0 L1,1 L0,1 Z " fill="#92A1AC" opacity="0.6392157" transform="translate(29,11)"/>
<path d="M0,0 L1,0 L1,1 L0,1 Z " fill="#92A0AD" opacity="0.21960784" transform="translate(30,10)"/>
<path d="M0,0 L1,0 L1,1 L0,1 Z " fill="#92A0AD" opacity="0.011764706" transform="translate(43,53)"/>
<path d="M0,0 L1,0 L1,1 L0,1 Z " fill="#91A3AC" opacity="0.22745098" transform="translate(42,53)"/>
<path d="M0,0 L1,0 L1,1 L0,1 Z " fill="#91A0AE" opacity="0.38039216" transform="translate(41,53)"/>
<path d="M0,0 L1,0 L1,1 L0,1 Z " fill="#91A1AC" opacity="0.44705883" transform="translate(40,53)"/>
<path d="M0,0 L1,0 L1,1 L0,1 Z " fill="#91A0AC" opacity="0.48235294" transform="translate(38,53)"/>
<path d="M0,0 L1,0 L1,1 L0,1 Z " fill="#92A0AC" opacity="0.49411765" transform="translate(25,53)"/>
<path d="M0,0 L1,0 L1,1 L0,1 Z " fill="#93A3AE" opacity="0.18431373" transform="translate(23,53)"/>
<path d="M0,0 L1,0 L1,1 L0,1 Z " fill="#92A1AC" opacity="0.34901962" transform="translate(44,52)"/>
<path d="M0,0 L1,0 L1,1 L0,1 Z " fill="#92A0AD" opacity="0.8627451" transform="translate(43,52)"/>
<path d="M0,0 L1,0 L1,1 L0,1 Z " fill="#92A1AC" opacity="0.79607844" transform="translate(22,52)"/>
<path d="M0,0 L1,0 L1,1 L0,1 Z " fill="#92A1AF" opacity="0.21176471" transform="translate(21,52)"/>
<path d="M0,0 L1,0 L1,1 L0,1 Z " fill="#91A0AC" opacity="0.5176471" transform="translate(45,51)"/>
<path d="M0,0 L1,0 L1,1 L0,1 Z " fill="#929FAC" opacity="0.23921569" transform="translate(20,51)"/>
<path d="M0,0 L1,0 L1,1 L0,1 Z " fill="#92A0AF" opacity="0.13725491" transform="translate(46,50)"/>
<path d="M0,0 L1,0 L1,1 L0,1 Z " fill="#92A0AD" opacity="0.8235294" transform="translate(20,50)"/>
<path d="M0,0 L1,0 L1,1 L0,1 Z " fill="#93A0AC" opacity="0.3137255" transform="translate(46,49)"/>
<path d="M0,0 L1,0 L1,1 L0,1 Z " fill="#A1AEB9" opacity="0.89411765" transform="translate(42,49)"/>
<path d="M0,0 L1,0 L1,1 L0,1 Z " fill="#D2D8DD" opacity="0.75686276" transform="translate(40,49)"/>
<path d="M0,0 L1,0 L1,1 L0,1 Z " fill="#D8DDE1" opacity="0.7529412" transform="translate(38,49)"/>
<path d="M0,0 L1,0 L1,1 L0,1 Z " fill="#DCE0E4" opacity="0.7529412" transform="translate(37,49)"/>
<path d="M0,0 L1,0 L1,1 L0,1 Z " fill="#98A6B2" opacity="0.9529412" transform="translate(23,49)"/>
<path d="M0,0 L1,0 L1,1 L0,1 Z " fill="#92A4AD" opacity="0.10980392" transform="translate(19,49)"/>
<path d="M0,0 L1,0 L1,1 L0,1 Z " fill="#CCD4D9" opacity="0.7607843" transform="translate(42,48)"/>
<path d="M0,0 L1,0 L1,1 L0,1 Z " fill="#AAB6C0" opacity="0.84705883" transform="translate(23,48)"/>
<path d="M0,0 L1,0 L1,1 L0,1 Z " fill="#93A2AC" opacity="0.20392157" transform="translate(19,48)"/>
<path d="M0,0 L1,0 L1,1 L0,1 Z " fill="#92A1AE" opacity="0.47843137" transform="translate(46,47)"/>
<path d="M0,0 L1,0 L1,1 L0,1 Z " fill="#D6DCE0" opacity="0.7529412" transform="translate(42,47)"/>
<path d="M0,0 L1,0 L1,1 L0,1 Z " fill="#91A0AD" opacity="0.5254902" transform="translate(46,46)"/>
<path d="M0,0 L1,0 L1,1 L0,1 Z " fill="#DDE2E6" opacity="0.7529412" transform="translate(42,46)"/>
<path d="M0,0 L1,0 L1,1 L0,1 Z " fill="#AEB9C2" opacity="0.8352941" transform="translate(23,46)"/>
<path d="M0,0 L1,0 L1,1 L0,1 Z " fill="#92A0AD" opacity="0.21960784" transform="translate(19,46)"/>
<path d="M0,0 L1,0 L1,1 L0,1 Z " fill="#B0BBC4" opacity="0.8235294" transform="translate(23,45)"/>
<path d="M0,0 L1,0 L1,1 L0,1 Z " fill="#929FAC" opacity="0.23921569" transform="translate(19,45)"/>
<path d="M0,0 L1,0 L1,1 L0,1 Z " fill="#E1E6E9" opacity="0.7529412" transform="translate(42,44)"/>
<path d="M0,0 L1,0 L1,1 L0,1 Z " fill="#B3BEC7" opacity="0.8156863" transform="translate(23,44)"/>
<path d="M0,0 L1,0 L1,1 L0,1 Z " fill="#92A1AE" opacity="0.46666667" transform="translate(46,42)"/>
<path d="M0,0 L1,0 L1,1 L0,1 Z " fill="#CED5DA" opacity="0.75686276" transform="translate(42,42)"/>
<path d="M0,0 L1,0 L1,1 L0,1 Z " fill="#FFFFFF" transform="translate(24,42)"/>
<path d="M0,0 L1,0 L1,1 L0,1 Z " fill="#92A1AE" opacity="0.99215686" transform="translate(42,41)"/>
<path d="M0,0 L1,0 L1,1 L0,1 Z " fill="#B1BBC5" opacity="0.8235294" transform="translate(40,41)"/>
<path d="M0,0 L1,0 L1,1 L0,1 Z " fill="#CAD0D7" opacity="0.7647059" transform="translate(38,41)"/>
<path d="M0,0 L1,0 L1,1 L0,1 Z " fill="#D0D6DC" opacity="0.75686276" transform="translate(28,41)"/>
<path d="M0,0 L1,0 L1,1 L0,1 Z " fill="#ABB5C0" opacity="0.8509804" transform="translate(26,41)"/>
<path d="M0,0 L1,0 L1,1 L0,1 Z " fill="#A3AFB9" opacity="0.8862745" transform="translate(24,41)"/>
<path d="M0,0 L1,0 L1,1 L0,1 Z " fill="#95A4AE" opacity="0.9764706" transform="translate(23,41)"/>
<path d="M0,0 L1,0 L1,1 L0,1 Z " fill="#8FA2AE" opacity="0.16078432" transform="translate(46,40)"/>
<path d="M0,0 L1,0 L1,1 L0,1 Z " fill="#91A0AD" opacity="0.019607844" transform="translate(19,40)"/>
<path d="M0,0 L1,0 L1,1 L0,1 Z " fill="#92A1AC" opacity="0.45882353" transform="translate(45,39)"/>
<path d="M0,0 L1,0 L1,1 L0,1 Z " fill="#92A1AC" opacity="0.9882353" transform="translate(44,39)"/>
<path d="M0,0 L1,0 L1,1 L0,1 Z " fill="#9DAAB5" opacity="0.91764706" transform="translate(38,39)"/>
<path d="M0,0 L1,0 L1,1 L0,1 Z " fill="#A9B6BF" opacity="0.8509804" transform="translate(28,39)"/>
<path d="M0,0 L1,0 L1,1 L0,1 Z " fill="#92A1AD" transform="translate(21,39)"/>
<path d="M0,0 L1,0 L1,1 L0,1 Z " fill="#91A2AD" opacity="0.3529412" transform="translate(20,39)"/>
<path d="M0,0 L1,0 L1,1 L0,1 Z " fill="#91A0AF" opacity="0.2" transform="translate(44,38)"/>
<path d="M0,0 L1,0 L1,1 L0,1 Z " fill="#91A1AD" opacity="0.64705884" transform="translate(43,38)"/>
<path d="M0,0 L1,0 L1,1 L0,1 Z " fill="#92A0AD" opacity="0.96862745" transform="translate(42,38)"/>
<path d="M0,0 L1,0 L1,1 L0,1 Z " fill="#91A1AD" opacity="0.31764707" transform="translate(21,38)"/>
<path d="M0,0 L1,0 L1,1 L0,1 Z " fill="#939FB0" opacity="0.1764706" transform="translate(42,37)"/>
<path d="M0,0 L1,0 L1,1 L0,1 Z " fill="#A0ACB7" opacity="0.9019608" transform="translate(38,37)"/>
<path d="M0,0 L1,0 L1,1 L0,1 Z " fill="#A1AEB9" opacity="0.89411765" transform="translate(28,37)"/>
<path d="M0,0 L1,0 L1,1 L0,1 Z " fill="#91A0AF" opacity="0.07058824" transform="translate(23,37)"/>
<path d="M0,0 L1,0 L1,1 L0,1 Z " fill="#A1AFB9" opacity="0.89411765" transform="translate(38,36)"/>
<path d="M0,0 L1,0 L1,1 L0,1 Z " fill="#92A1AD" opacity="0.07058824" transform="translate(24,36)"/>
<path d="M0,0 L1,0 L1,1 L0,1 Z " fill="#99A7B3" opacity="0.9411765" transform="translate(28,35)"/>
<path d="M0,0 L1,0 L1,1 L0,1 Z " fill="#A4B0BB" opacity="0.8745098" transform="translate(38,34)"/>
<path d="M0,0 L1,0 L1,1 L0,1 Z " fill="#95A4AF" opacity="0.9647059" transform="translate(28,34)"/>
<path d="M0,0 L1,0 L1,1 L0,1 Z " fill="#92A1AD" opacity="0.011764706" transform="translate(24,34)"/>
<path d="M0,0 L1,0 L1,1 L0,1 Z " fill="#94A0AC" opacity="0.16862746" transform="translate(42,33)"/>
<path d="M0,0 L1,0 L1,1 L0,1 Z " fill="#93A2AD" opacity="0.99607843" transform="translate(28,33)"/>
<path d="M0,0 L1,0 L1,1 L0,1 Z " fill="#91A1AD" opacity="0.9843137" transform="translate(25,33)"/>
<path d="M0,0 L1,0 L1,1 L0,1 Z " fill="#A9B6BF" opacity="0.8509804" transform="translate(38,32)"/>
<path d="M0,0 L1,0 L1,1 L0,1 Z " fill="#91A0AD" opacity="0.99215686" transform="translate(25,32)"/>
<path d="M0,0 L1,0 L1,1 L0,1 Z " fill="#92A1AD" opacity="0.6784314" transform="translate(24,32)"/>
<path d="M0,0 L1,0 L1,1 L0,1 Z " fill="#92A1AC" opacity="0.38431373" transform="translate(23,32)"/>
<path d="M0,0 L1,0 L1,1 L0,1 Z " fill="#92A0AD" opacity="0.003921569" transform="translate(22,32)"/>
<path d="M0,0 L1,0 L1,1 L0,1 Z " fill="#909FAD" opacity="0.20784314" transform="translate(42,31)"/>
<path d="M0,0 L1,0 L1,1 L0,1 Z " fill="#FFFFFF" opacity="0.95686275" transform="translate(29,31)"/>
<path d="M0,0 L1,0 L1,1 L0,1 Z " fill="#92A0AD" opacity="0.6117647" transform="translate(22,31)"/>
<path d="M0,0 L1,0 L1,1 L0,1 Z " fill="#91A3AC" opacity="0.22745098" transform="translate(42,30)"/>
<path d="M0,0 L1,0 L1,1 L0,1 Z " fill="#AFBAC3" opacity="0.827451" transform="translate(38,30)"/>
<path d="M0,0 L1,0 L1,1 L0,1 Z " fill="#91A1AE" opacity="0.49019608" transform="translate(21,30)"/>
<path d="M0,0 L1,0 L1,1 L0,1 Z " fill="#B2BDC6" opacity="0.81960785" transform="translate(38,29)"/>
<path d="M0,0 L1,0 L1,1 L0,1 Z " fill="#FEFEFF" opacity="0.90588236" transform="translate(29,29)"/>
<path d="M0,0 L1,0 L1,1 L0,1 Z " fill="#92A1AD" opacity="0.99607843" transform="translate(21,29)"/>
<path d="M0,0 L1,0 L1,1 L0,1 Z " fill="#92A2AE" opacity="0.24705882" transform="translate(20,29)"/>
<path d="M0,0 L1,0 L1,1 L0,1 Z " fill="#93A2AE" opacity="0.25882354" transform="translate(42,28)"/>
<path d="M0,0 L1,0 L1,1 L0,1 Z " fill="#CDD4D9" opacity="0.7607843" transform="translate(25,28)"/>
<path d="M0,0 L1,0 L1,1 L0,1 Z " fill="#98A6B2" opacity="0.94509804" transform="translate(24,28)"/>
<path d="M0,0 L1,0 L1,1 L0,1 Z " fill="#91A1AC" opacity="0.05882353" transform="translate(19,28)"/>
<path d="M0,0 L1,0 L1,1 L0,1 Z " fill="#92A0AB" opacity="0.27450982" transform="translate(42,27)"/>
<path d="M0,0 L1,0 L1,1 L0,1 Z " fill="#B7C1C9" opacity="0.8039216" transform="translate(38,27)"/>
<path d="M0,0 L1,0 L1,1 L0,1 Z " fill="#FCFDFD" opacity="0.8627451" transform="translate(29,27)"/>
<path d="M0,0 L1,0 L1,1 L0,1 Z " fill="#A1AEB9" opacity="0.89411765" transform="translate(28,27)"/>
<path d="M0,0 L1,0 L1,1 L0,1 Z " fill="#E5E9EC" opacity="0.75686276" transform="translate(27,27)"/>
<path d="M0,0 L1,0 L1,1 L0,1 Z " fill="#FFFFFF" opacity="0.9647059" transform="translate(26,27)"/>
<path d="M0,0 L1,0 L1,1 L0,1 Z " fill="#F8F8F9" opacity="0.8156863" transform="translate(24,27)"/>
<path d="M0,0 L1,0 L1,1 L0,1 Z " fill="#93A2AD" opacity="0.99607843" transform="translate(23,27)"/>
<path d="M0,0 L1,0 L1,1 L0,1 Z " fill="#91A1AC" opacity="0.5921569" transform="translate(19,27)"/>
<path d="M0,0 L1,0 L1,1 L0,1 Z " fill="#FFFFFF" opacity="0.9764706" transform="translate(29,26)"/>
<path d="M0,0 L1,0 L1,1 L0,1 Z " fill="#FFFFFF" opacity="0.99215686" transform="translate(28,26)"/>
<path d="M0,0 L1,0 L1,1 L0,1 Z " fill="#D5DCE0" opacity="0.7529412" transform="translate(23,26)"/>
<path d="M0,0 L1,0 L1,1 L0,1 Z " fill="#93A0AD" opacity="0.23137255" transform="translate(18,26)"/>
<path d="M0,0 L1,0 L1,1 L0,1 Z " fill="#93A0AD" opacity="0.30588236" transform="translate(42,25)"/>
<path d="M0,0 L1,0 L1,1 L0,1 Z " fill="#BCC5CD" opacity="0.7882353" transform="translate(38,25)"/>
<path d="M0,0 L1,0 L1,1 L0,1 Z " fill="#FFFFFF" opacity="0.9764706" transform="translate(23,25)"/>
<path d="M0,0 L1,0 L1,1 L0,1 Z " fill="#A5B1BB" opacity="0.8745098" transform="translate(22,25)"/>
<path d="M0,0 L1,0 L1,1 L0,1 Z " fill="#92A1AD" opacity="0.7882353" transform="translate(18,25)"/>
<path d="M0,0 L1,0 L1,1 L0,1 Z " fill="#90A0B0" opacity="0.003921569" transform="translate(17,25)"/>
<path d="M0,0 L1,0 L1,1 L0,1 Z " fill="#92A2AE" opacity="0.32156864" transform="translate(42,24)"/>
<path d="M0,0 L1,0 L1,1 L0,1 Z " fill="#F6F7F8" opacity="0.80784315" transform="translate(22,24)"/>
<path d="M0,0 L1,0 L1,1 L0,1 Z " fill="#90A0B0" opacity="0.1882353" transform="translate(17,24)"/>
<path d="M0,0 L1,0 L1,1 L0,1 Z " fill="#C2C9D0" opacity="0.78039217" transform="translate(38,23)"/>
<path d="M0,0 L1,0 L1,1 L0,1 Z " fill="#BAC4CB" opacity="0.79607844" transform="translate(21,23)"/>
<path d="M0,0 L1,0 L1,1 L0,1 Z " fill="#91A0AC" opacity="0.41960785" transform="translate(17,23)"/>
<path d="M0,0 L1,0 L1,1 L0,1 Z " fill="#91A2AD" opacity="0.3529412" transform="translate(42,22)"/>
<path d="M0,0 L1,0 L1,1 L0,1 Z " fill="#F7F8F9" opacity="0.80784315" transform="translate(22,22)"/>
<path d="M0,0 L1,0 L1,1 L0,1 Z " fill="#97A5B1" opacity="0.9607843" transform="translate(21,22)"/>
<path d="M0,0 L1,0 L1,1 L0,1 Z " fill="#93A1AC" opacity="0.36078432" transform="translate(42,21)"/>
<path d="M0,0 L1,0 L1,1 L0,1 Z " fill="#C5CCD3" opacity="0.77254903" transform="translate(38,21)"/>
<path d="M0,0 L1,0 L1,1 L0,1 Z " fill="#EAEDF0" opacity="0.7647059" transform="translate(23,21)"/>
<path d="M0,0 L1,0 L1,1 L0,1 Z " fill="#93A3AF" opacity="0.9843137" transform="translate(22,21)"/>
<path d="M0,0 L1,0 L1,1 L0,1 Z " fill="#90A6B2" opacity="0.09019608" transform="translate(17,21)"/>
<path d="M0,0 L1,0 L1,1 L0,1 Z " fill="#D5DAE0" opacity="0.7529412" transform="translate(24,20)"/>
<path d="M0,0 L1,0 L1,1 L0,1 Z " fill="#92A1AD" transform="translate(19,20)"/>
<path d="M0,0 L1,0 L1,1 L0,1 Z " fill="#91A0AC" opacity="0.41960785" transform="translate(18,20)"/>
<path d="M0,0 L1,0 L1,1 L0,1 Z " fill="#92A1AC" opacity="0.38431373" transform="translate(42,19)"/>
<path d="M0,0 L1,0 L1,1 L0,1 Z " fill="#C8D0D7" opacity="0.7647059" transform="translate(38,19)"/>
<path d="M0,0 L1,0 L1,1 L0,1 Z " fill="#FFFFFF" opacity="0.9490196" transform="translate(26,19)"/>
<path d="M0,0 L1,0 L1,1 L0,1 Z " fill="#BCC5CD" opacity="0.7921569" transform="translate(25,19)"/>
<path d="M0,0 L1,0 L1,1 L0,1 Z " fill="#91A1AE" opacity="0.39215687" transform="translate(19,19)"/>
<path d="M0,0 L1,0 L1,1 L0,1 Z " fill="#FDFDFE" opacity="0.8745098" transform="translate(27,18)"/>
<path d="M0,0 L1,0 L1,1 L0,1 Z " fill="#A5B1BC" opacity="0.8745098" transform="translate(26,18)"/>
<path d="M0,0 L1,0 L1,1 L0,1 Z " fill="#93A0AD" opacity="0.30588236" transform="translate(20,18)"/>
<path d="M0,0 L1,0 L1,1 L0,1 Z " fill="#91A0AC" opacity="0.41960785" transform="translate(42,17)"/>
<path d="M0,0 L1,0 L1,1 L0,1 Z " fill="#CFD4DB" opacity="0.7607843" transform="translate(38,17)"/>
<path d="M0,0 L1,0 L1,1 L0,1 Z " fill="#F7F8F9" opacity="0.8117647" transform="translate(28,17)"/>
<path d="M0,0 L1,0 L1,1 L0,1 Z " fill="#9AA8B3" opacity="0.9372549" transform="translate(27,17)"/>
<path d="M0,0 L1,0 L1,1 L0,1 Z " fill="#90A0B0" opacity="0.1882353" transform="translate(21,17)"/>
<path d="M0,0 L1,0 L1,1 L0,1 Z " fill="#A3B0BA" opacity="0.88235295" transform="translate(38,16)"/>
<path d="M0,0 L1,0 L1,1 L0,1 Z " fill="#E5E9EC" opacity="0.75686276" transform="translate(37,16)"/>
<path d="M0,0 L1,0 L1,1 L0,1 Z " fill="#FEFEFE" opacity="0.91764706" transform="translate(36,16)"/>
<path d="M0,0 L1,0 L1,1 L0,1 Z " fill="#E5E8EC" opacity="0.75686276" transform="translate(29,16)"/>
<path d="M0,0 L1,0 L1,1 L0,1 Z " fill="#94A2AD" opacity="0.9882353" transform="translate(28,16)"/>
<path d="M0,0 L1,0 L1,1 L0,1 Z " fill="#939DB1" opacity="0.101960786" transform="translate(22,16)"/>
<path d="M0,0 L1,0 L1,1 L0,1 Z " fill="#91A0AF" opacity="0.2" transform="translate(42,15)"/>
<path d="M0,0 L1,0 L1,1 L0,1 Z " fill="#B5BFC8" opacity="0.80784315" transform="translate(35,15)"/>
<path d="M0,0 L1,0 L1,1 L0,1 Z " fill="#E9EDEE" opacity="0.7607843" transform="translate(34,15)"/>
<path d="M0,0 L1,0 L1,1 L0,1 Z " fill="#FEFEFE" opacity="0.9372549" transform="translate(33,15)"/>
<path d="M0,0 L1,0 L1,1 L0,1 Z " fill="#FFFFFF" opacity="0.9764706" transform="translate(31,15)"/>
<path d="M0,0 L1,0 L1,1 L0,1 Z " fill="#C7CFD6" opacity="0.76862746" transform="translate(30,15)"/>
<path d="M0,0 L1,0 L1,1 L0,1 Z " fill="#92A1AC" opacity="0.03529412" transform="translate(23,15)"/>
<path d="M0,0 L1,0 L1,1 L0,1 Z " fill="#93A3AF" opacity="0.9843137" transform="translate(33,14)"/>
<path d="M0,0 L1,0 L1,1 L0,1 Z " fill="#ADB9C1" opacity="0.8392157" transform="translate(31,14)"/>
<path d="M0,0 L1,0 L1,1 L0,1 Z " fill="#92A1AD" opacity="0.99607843" transform="translate(26,14)"/>
<path d="M0,0 L1,0 L1,1 L0,1 Z " fill="#92A1AC" opacity="0.003921569" transform="translate(24,14)"/>
<path d="M0,0 L1,0 L1,1 L0,1 Z " fill="#91A1AD" opacity="0.03529412" transform="translate(41,13)"/>
<path d="M0,0 L1,0 L1,1 L0,1 Z " fill="#91A1AD" opacity="0.60784316" transform="translate(40,13)"/>
<path d="M0,0 L1,0 L1,1 L0,1 Z " fill="#92A1AC" opacity="0.9882353" transform="translate(39,13)"/>
<path d="M0,0 L1,0 L1,1 L0,1 Z " fill="#90A1AF" opacity="0.29803923" transform="translate(26,13)"/>
<path d="M0,0 L1,0 L1,1 L0,1 Z " fill="#92A0AE" opacity="0.43137255" transform="translate(38,12)"/>
<path d="M0,0 L1,0 L1,1 L0,1 Z " fill="#92A1AD" opacity="0.7764706" transform="translate(37,12)"/>
<path d="M0,0 L1,0 L1,1 L0,1 Z " fill="#94A1AF" opacity="0.14901961" transform="translate(27,12)"/>
<path d="M0,0 L1,0 L1,1 L0,1 Z " fill="#91A0AD" opacity="0.4627451" transform="translate(35,11)"/>
<path d="M0,0 L1,0 L1,1 L0,1 Z " fill="#92A1AD" opacity="0.8039216" transform="translate(34,11)"/>
<path d="M0,0 L1,0 L1,1 L0,1 Z " fill="#92A1AC" opacity="0.039215688" transform="translate(28,11)"/>
<path d="M0,0 L1,0 L1,1 L0,1 Z " fill="#95A3B1" opacity="0.14117648" transform="translate(33,10)"/>
<path d="M0,0 L1,0 L1,1 L0,1 Z " fill="#91A1AC" opacity="0.37254903" transform="translate(31,10)"/>
<path d="M0,0 L1,0 L1,1 L0,1 Z " fill="#92A0AD" opacity="0.003921569" transform="translate(29,10)"/>
</svg>
