<?xml version="1.0" encoding="UTF-8"?>
<!-- Generator: visioncortex VTracer 0.6.4 -->
<svg version="1.1" xmlns="http://www.w3.org/2000/svg" width="64" height="64">
<path d="M0,0 L20,0 L20,1 L23,1 L23,2 L24,2 L24,4 L25,4 L25,5 L26,5 L26,7 L27,7 L27,11 L26,11 L26,14 L25,14 L25,16 L24,16 L24,18 L23,18 L23,20 L22,20 L22,23 L21,23 L21,25 L20,25 L20,27 L19,27 L19,29 L18,29 L18,32 L17,32 L17,34 L16,34 L16,36 L15,36 L15,38 L14,38 L14,40 L13,40 L13,41 L12,41 L12,42 L10,42 L10,41 L7,41 L7,40 L4,40 L4,39 L2,39 L2,38 L0,38 L0,37 L-1,37 L-1,36 L-2,36 L-2,32 L-1,32 L-1,30 L0,30 L0,28 L1,28 L1,26 L2,26 L2,24 L3,24 L3,22 L4,22 L4,20 L1,20 L1,21 L0,21 L0,20 L-3,20 L-3,19 L-4,19 L-4,14 L-5,14 L-5,2 L-4,2 L-4,1 L0,1 Z M0,3 L0,4 L20,4 L20,3 Z M-2,4 L-2,14 L-1,14 L-1,5 L0,5 L0,4 Z M20,4 L20,5 L21,5 L21,6 L22,6 L22,4 Z M22,6 L22,8 L23,8 L23,10 L22,10 L22,13 L23,13 L23,11 L24,11 L24,7 L23,7 L23,6 Z M6,12 L6,16 L1,16 L1,17 L7,17 L7,13 L11,13 L11,14 L10,14 L10,16 L9,16 L9,18 L8,18 L8,20 L7,20 L7,22 L6,22 L6,24 L5,24 L5,26 L4,26 L4,28 L3,28 L3,30 L2,30 L2,32 L1,32 L1,35 L2,35 L2,36 L5,36 L5,35 L3,35 L3,34 L2,34 L2,33 L3,33 L3,31 L4,31 L4,29 L5,29 L5,27 L6,27 L6,25 L7,25 L7,23 L8,23 L8,21 L9,21 L9,19 L10,19 L10,17 L11,17 L11,15 L12,15 L12,12 Z M21,13 L21,15 L20,15 L20,17 L19,17 L19,20 L20,20 L20,18 L21,18 L21,16 L22,16 L22,13 Z M-1,14 L-1,17 L0,17 L0,14 Z M18,20 L18,22 L19,22 L19,20 Z M17,22 L17,24 L16,24 L16,26 L15,26 L15,29 L16,29 L16,27 L17,27 L17,25 L18,25 L18,22 Z M14,29 L14,31 L13,31 L13,33 L12,33 L12,36 L13,36 L13,34 L14,34 L14,32 L15,32 L15,29 Z M5,36 L5,37 L7,37 L7,38 L10,38 L10,37 L8,37 L8,36 Z M11,36 L11,38 L12,38 L12,36 Z M10,38 L10,39 L11,39 L11,38 Z " fill="#92A1AD" transform="translate(21,11)"/>
<path d="M0,0 L20,0 L20,1 L21,1 L21,2 L22,2 L22,4 L23,4 L23,6 L22,6 L22,9 L21,9 L21,11 L20,11 L20,13 L19,13 L19,16 L18,16 L18,18 L17,18 L17,20 L16,20 L16,22 L15,22 L15,25 L14,25 L14,27 L13,27 L13,29 L12,29 L12,32 L11,32 L11,34 L10,34 L10,33 L8,33 L8,32 L5,32 L5,31 L3,31 L3,30 L2,30 L2,29 L3,29 L3,27 L4,27 L4,25 L5,25 L5,23 L6,23 L6,21 L7,21 L7,19 L8,19 L8,17 L9,17 L9,15 L10,15 L10,13 L11,13 L11,11 L12,11 L12,8 L6,8 L6,12 L1,12 L1,13 L0,13 L0,10 L-1,10 L-1,1 L0,1 Z " fill="#FFFFFF" transform="translate(21,15)"/>
<path d="M0,0 L6,0 L6,1 L0,1 Z " fill="#94A0AC" opacity="0.2509804" transform="translate(25,10)"/>
<path d="M0,0 L1,0 L1,1 L0,1 Z " fill="#92A0AD" opacity="0.98039216" transform="translate(15,17)"/>
<path d="M0,0 L3,0 L3,1 L0,1 Z " fill="#B3BDC6" opacity="0.8156863" transform="translate(27,14)"/>
<path d="M0,0 L1,0 L1,1 L0,1 Z M-1,1 L0,1 L0,2 L-1,2 Z " fill="#FFFFFF" transform="translate(21,15)"/>
<path d="M0,0 L1,0 L1,1 L0,1 Z " fill="#919FAC" opacity="0.14509805" transform="translate(31,53)"/>
<path d="M0,0 L1,0 L1,1 L0,1 Z " fill="#92A1AD" opacity="0.8352941" transform="translate(18,45)"/>
<path d="M0,0 L1,0 L1,1 L0,1 Z " fill="#DDE1E5" opacity="0.7529412" transform="translate(29,23)"/>
<path d="M0,0 L1,0 L1,1 L0,1 Z " fill="#91A1AC" opacity="0.9764706" transform="translate(24,31)"/>
<path d="M0,0 L1,0 L1,1 L0,1 Z " fill="#92A1AD" opacity="0.40392157" transform="translate(15,13)"/>
<path d="M0,0 L1,0 L1,1 L0,1 Z " fill="#8FA3AE" opacity="0.09803922" transform="translate(38,10)"/>
<path d="M0,0 L1,0 L1,1 L0,1 Z " fill="#93A2AC" opacity="0.20392157" transform="translate(33,10)"/>
<path d="M0,0 L1,0 L1,1 L0,1 Z " fill="#91A1AC" opacity="0.89411765" transform="translate(30,52)"/>
<path d="M0,0 L1,0 L1,1 L0,1 Z " fill="#93A2AE" opacity="0.33333334" transform="translate(21,49)"/>
<path d="M0,0 L1,0 L1,1 L0,1 Z " fill="#92A0AD" opacity="0.98039216" transform="translate(20,31)"/>
<path d="M0,0 L1,0 L1,1 L0,1 Z " fill="#EDEFF1" opacity="0.77254903" transform="translate(27,25)"/>
<path d="M0,0 L1,0 L1,1 L0,1 Z " fill="#9FADB8" opacity="0.8980392" transform="translate(37,14)"/>
<path d="M0,0 L1,0 L1,1 L0,1 Z " fill="#B3BDC6" opacity="0.8156863" transform="translate(26,14)"/>
<path d="M0,0 L1,0 L1,1 L0,1 Z " fill="#92A2AD" opacity="0.4392157" transform="translate(16,28)"/>
<path d="M0,0 L1,0 L1,1 L0,1 Z " fill="#91A2AE" opacity="0.17254902" transform="translate(15,24)"/>
<path d="M0,0 L1,0 L1,1 L0,1 Z " fill="#92A0AD" opacity="0.9607843" transform="translate(45,14)"/>
<path d="M0,0 L1,0 L1,1 L0,1 Z " fill="#93A0AD" opacity="0.003921569" transform="translate(44,11)"/>
<path d="M0,0 L1,0 L1,1 L0,1 Z " fill="#95A0AA" opacity="0.03529412" transform="translate(21,10)"/>
<path d="M0,0 L1,0 L1,1 L0,1 Z " fill="#93A1AF" opacity="0.28627452" transform="translate(28,52)"/>
<path d="M0,0 L1,0 L1,1 L0,1 Z " fill="#92A0AE" opacity="0.5882353" transform="translate(26,51)"/>
<path d="M0,0 L1,0 L1,1 L0,1 Z " fill="#92A0AE" opacity="0.35686275" transform="translate(23,50)"/>
<path d="M0,0 L1,0 L1,1 L0,1 Z " fill="#F8F8F9" opacity="0.8235294" transform="translate(30,48)"/>
<path d="M0,0 L1,0 L1,1 L0,1 Z " fill="#92A0AD" opacity="0.76862746" transform="translate(20,48)"/>
<path d="M0,0 L1,0 L1,1 L0,1 Z " fill="#91A2AA" opacity="0.11764706" transform="translate(37,47)"/>
<path d="M0,0 L1,0 L1,1 L0,1 Z " fill="#FDFDFE" opacity="0.8745098" transform="translate(25,46)"/>
<path d="M0,0 L1,0 L1,1 L0,1 Z " fill="#91A0AD" opacity="0.043137256" transform="translate(38,45)"/>
<path d="M0,0 L1,0 L1,1 L0,1 Z " fill="#91A1AD" opacity="0.003921569" transform="translate(39,43)"/>
<path d="M0,0 L1,0 L1,1 L0,1 Z " fill="#92A2AD" opacity="0.5137255" transform="translate(18,43)"/>
<path d="M0,0 L1,0 L1,1 L0,1 Z " fill="#91A1AC" opacity="0.5529412" transform="translate(19,41)"/>
<path d="M0,0 L1,0 L1,1 L0,1 Z " fill="#FFFFFF" opacity="0.9764706" transform="translate(25,39)"/>
<path d="M0,0 L1,0 L1,1 L0,1 Z " fill="#91A2AD" opacity="0.54509807" transform="translate(20,39)"/>
<path d="M0,0 L1,0 L1,1 L0,1 Z " fill="#92A0AE" opacity="0.050980393" transform="translate(41,38)"/>
<path d="M0,0 L1,0 L1,1 L0,1 Z " fill="#FFFFFF" opacity="0.96862745" transform="translate(26,37)"/>
<path d="M0,0 L1,0 L1,1 L0,1 Z " fill="#91A0AD" opacity="0.5372549" transform="translate(21,37)"/>
<path d="M0,0 L1,0 L1,1 L0,1 Z " fill="#91A2AE" opacity="0.011764706" transform="translate(42,36)"/>
<path d="M0,0 L1,0 L1,1 L0,1 Z " fill="#95A2AF" opacity="0.98039216" transform="translate(38,35)"/>
<path d="M0,0 L1,0 L1,1 L0,1 Z " fill="#FFFFFF" opacity="0.9647059" transform="translate(27,35)"/>
<path d="M0,0 L1,0 L1,1 L0,1 Z " fill="#92A1AC" opacity="0.5294118" transform="translate(22,35)"/>
<path d="M0,0 L1,0 L1,1 L0,1 Z " fill="#FFFFFF" opacity="0.9607843" transform="translate(28,33)"/>
<path d="M0,0 L1,0 L1,1 L0,1 Z " fill="#92A1AD" opacity="0.52156866" transform="translate(23,33)"/>
<path d="M0,0 L1,0 L1,1 L0,1 Z " fill="#969EB0" opacity="0.11372549" transform="translate(44,31)"/>
<path d="M0,0 L1,0 L1,1 L0,1 Z " fill="#FFFFFF" opacity="0.9529412" transform="translate(29,31)"/>
<path d="M0,0 L1,0 L1,1 L0,1 Z " fill="#93A0AE" opacity="0.44313726" transform="translate(18,31)"/>
<path d="M0,0 L1,0 L1,1 L0,1 Z " fill="#92A2AD" opacity="0.03137255" transform="translate(45,29)"/>
<path d="M0,0 L1,0 L1,1 L0,1 Z " fill="#FFFFFF" opacity="0.9490196" transform="translate(30,29)"/>
<path d="M0,0 L1,0 L1,1 L0,1 Z " fill="#93A2AD" opacity="0.007843138" transform="translate(46,27)"/>
<path d="M0,0 L1,0 L1,1 L0,1 Z " fill="#FFFFFF" opacity="0.94509804" transform="translate(31,27)"/>
<path d="M0,0 L1,0 L1,1 L0,1 Z " fill="#FBFCFC" opacity="0.84313726" transform="translate(26,27)"/>
<path d="M0,0 L1,0 L1,1 L0,1 Z " fill="#FEFEFE" opacity="0.89411765" transform="translate(24,27)"/>
<path d="M0,0 L1,0 L1,1 L0,1 Z " fill="#93A2AD" opacity="0.99607843" transform="translate(42,26)"/>
<path d="M0,0 L1,0 L1,1 L0,1 Z " fill="#A3AFB9" opacity="0.8862745" transform="translate(19,24)"/>
<path d="M0,0 L1,0 L1,1 L0,1 Z " fill="#91A0AE" opacity="0.047058824" transform="translate(48,22)"/>
<path d="M0,0 L1,0 L1,1 L0,1 Z " fill="#D4DADE" opacity="0.7529412" transform="translate(19,22)"/>
<path d="M0,0 L1,0 L1,1 L0,1 Z " fill="#91A0AD" opacity="0.4745098" transform="translate(15,22)"/>
<path d="M0,0 L1,0 L1,1 L0,1 Z " fill="#D6DCE1" opacity="0.7529412" transform="translate(44,20)"/>
<path d="M0,0 L1,0 L1,1 L0,1 Z " fill="#F8F8F9" opacity="0.8235294" transform="translate(19,20)"/>
<path d="M0,0 L1,0 L1,1 L0,1 Z " fill="#92A0AC" opacity="0.7607843" transform="translate(15,20)"/>
<path d="M0,0 L1,0 L1,1 L0,1 Z " fill="#91A1AD" opacity="0.7294118" transform="translate(48,18)"/>
<path d="M0,0 L1,0 L1,1 L0,1 Z " fill="#91A0AD" opacity="0.5254902" transform="translate(47,16)"/>
<path d="M0,0 L1,0 L1,1 L0,1 Z " fill="#FFFFFF" opacity="0.92156863" transform="translate(20,15)"/>
<path d="M0,0 L1,0 L1,1 L0,1 Z " fill="#91A1AD" opacity="0.8666667" transform="translate(15,15)"/>
<path d="M0,0 L1,0 L1,1 L0,1 Z " fill="#99A7B3" opacity="0.9411765" transform="translate(39,14)"/>
<path d="M0,0 L1,0 L1,1 L0,1 Z " fill="#A6B2BC" opacity="0.8666667" transform="translate(35,14)"/>
<path d="M0,0 L1,0 L1,1 L0,1 Z " fill="#ACB7C0" opacity="0.84313726" transform="translate(33,14)"/>
<path d="M0,0 L1,0 L1,1 L0,1 Z " fill="#ADB9C1" opacity="0.8392157" transform="translate(24,14)"/>
<path d="M0,0 L1,0 L1,1 L0,1 Z " fill="#A0AEB8" opacity="0.89411765" transform="translate(22,14)"/>
<path d="M0,0 L1,0 L1,1 L0,1 Z M-1,1 L0,1 L0,2 L-1,2 Z " fill="#92A1AD" transform="translate(17,12)"/>
<path d="M0,0 L1,0 L1,1 L0,1 Z " fill="#92A0AD" opacity="0.8235294" transform="translate(19,11)"/>
<path d="M0,0 L1,0 L1,1 L0,1 Z " fill="#92A1AD" opacity="0.32941177" transform="translate(17,11)"/>
<path d="M0,0 L1,0 L1,1 L0,1 Z " fill="#92A0AD" opacity="0.003921569" transform="translate(41,10)"/>
<path d="M0,0 L1,0 L1,1 L0,1 Z " fill="#919FAC" opacity="0.14509805" transform="translate(36,10)"/>
<path d="M0,0 L1,0 L1,1 L0,1 Z " fill="#93A2AC" opacity="0.20392157" transform="translate(24,10)"/>
<path d="M0,0 L1,0 L1,1 L0,1 Z " fill="#92A1AC" opacity="0.003921569" transform="translate(33,53)"/>
<path d="M0,0 L1,0 L1,1 L0,1 Z " fill="#8FA5AD" opacity="0.13333334" transform="translate(32,53)"/>
<path d="M0,0 L1,0 L1,1 L0,1 Z " fill="#91A1AC" opacity="0.003921569" transform="translate(30,53)"/>
<path d="M0,0 L1,0 L1,1 L0,1 Z " fill="#93A2AE" opacity="0.25882354" transform="translate(34,52)"/>
<path d="M0,0 L1,0 L1,1 L0,1 Z " fill="#92A1AC" opacity="0.87058824" transform="translate(33,52)"/>
<path d="M0,0 L1,0 L1,1 L0,1 Z " fill="#92A1AD" opacity="0.62352943" transform="translate(29,52)"/>
<path d="M0,0 L1,0 L1,1 L0,1 Z " fill="#91A1AD" opacity="0.019607844" transform="translate(27,52)"/>
<path d="M0,0 L1,0 L1,1 L0,1 Z " fill="#969EB0" opacity="0.11372549" transform="translate(35,51)"/>
<path d="M0,0 L1,0 L1,1 L0,1 Z " fill="#92A0AD" opacity="0.96862745" transform="translate(34,51)"/>
<path d="M0,0 L1,0 L1,1 L0,1 Z " fill="#91A1AD" opacity="0.92156863" transform="translate(27,51)"/>
<path d="M0,0 L1,0 L1,1 L0,1 Z " fill="#92A1AC" opacity="0.19215687" transform="translate(25,51)"/>
<path d="M0,0 L1,0 L1,1 L0,1 Z " fill="#92A0AD" opacity="0.6313726" transform="translate(35,50)"/>
<path d="M0,0 L1,0 L1,1 L0,1 Z " fill="#92A1AD" opacity="0.7764706" transform="translate(24,50)"/>
<path d="M0,0 L1,0 L1,1 L0,1 Z " fill="#92A1AD" opacity="0.02745098" transform="translate(22,50)"/>
<path d="M0,0 L1,0 L1,1 L0,1 Z " fill="#94A3AE" opacity="0.19607843" transform="translate(36,49)"/>
<path d="M0,0 L1,0 L1,1 L0,1 Z " fill="#92A1AD" opacity="0.99607843" transform="translate(35,49)"/>
<path d="M0,0 L1,0 L1,1 L0,1 Z " fill="#9EACB7" opacity="0.9098039" transform="translate(31,49)"/>
<path d="M0,0 L1,0 L1,1 L0,1 Z " fill="#92A1AD" opacity="0.8784314" transform="translate(22,49)"/>
<path d="M0,0 L1,0 L1,1 L0,1 Z " fill="#92A0AD" opacity="0.003921569" transform="translate(20,49)"/>
<path d="M0,0 L1,0 L1,1 L0,1 Z " fill="#92A1AD" opacity="0.67058825" transform="translate(36,48)"/>
<path d="M0,0 L1,0 L1,1 L0,1 Z " fill="#B1BCC5" opacity="0.81960785" transform="translate(32,48)"/>
<path d="M0,0 L1,0 L1,1 L0,1 Z " fill="#CDD4D9" opacity="0.7607843" transform="translate(29,48)"/>
<path d="M0,0 L1,0 L1,1 L0,1 Z " fill="#9AA8B3" opacity="0.93333334" transform="translate(28,48)"/>
<path d="M0,0 L1,0 L1,1 L0,1 Z " fill="#939FB0" opacity="0.1764706" transform="translate(19,48)"/>
<path d="M0,0 L1,0 L1,1 L0,1 Z " fill="#91A0AD" opacity="0.99215686" transform="translate(36,47)"/>
<path d="M0,0 L1,0 L1,1 L0,1 Z " fill="#F4F5F7" opacity="0.7921569" transform="translate(32,47)"/>
<path d="M0,0 L1,0 L1,1 L0,1 Z " fill="#FFFFFF" opacity="0.9843137" transform="translate(28,47)"/>
<path d="M0,0 L1,0 L1,1 L0,1 Z " fill="#F1F3F5" opacity="0.7882353" transform="translate(27,47)"/>
<path d="M0,0 L1,0 L1,1 L0,1 Z " fill="#B7C1CA" opacity="0.8039216" transform="translate(26,47)"/>
<path d="M0,0 L1,0 L1,1 L0,1 Z " fill="#92A1AD" opacity="0.9254902" transform="translate(19,47)"/>
<path d="M0,0 L1,0 L1,1 L0,1 Z " fill="#8FA5AD" opacity="0.13333334" transform="translate(18,47)"/>
<path d="M0,0 L1,0 L1,1 L0,1 Z " fill="#91A0AD" opacity="0.5372549" transform="translate(37,46)"/>
<path d="M0,0 L1,0 L1,1 L0,1 Z " fill="#A4B1BB" opacity="0.8784314" transform="translate(33,46)"/>
<path d="M0,0 L1,0 L1,1 L0,1 Z " fill="#D0D6DC" opacity="0.75686276" transform="translate(24,46)"/>
<path d="M0,0 L1,0 L1,1 L0,1 Z " fill="#95A2AF" opacity="0.98039216" transform="translate(23,46)"/>
<path d="M0,0 L1,0 L1,1 L0,1 Z " fill="#92A1AD" opacity="0.59607846" transform="translate(18,46)"/>
<path d="M0,0 L1,0 L1,1 L0,1 Z " fill="#92A1AD" opacity="0.93333334" transform="translate(37,45)"/>
<path d="M0,0 L1,0 L1,1 L0,1 Z " fill="#E5E9EC" opacity="0.75686276" transform="translate(33,45)"/>
<path d="M0,0 L1,0 L1,1 L0,1 Z " fill="#FDFEFE" opacity="0.88235295" transform="translate(23,45)"/>
<path d="M0,0 L1,0 L1,1 L0,1 Z " fill="#BDC6CE" opacity="0.7882353" transform="translate(22,45)"/>
<path d="M0,0 L1,0 L1,1 L0,1 Z " fill="#91A0AD" opacity="0.4" transform="translate(38,44)"/>
<path d="M0,0 L1,0 L1,1 L0,1 Z " fill="#9AA7B2" opacity="0.94509804" transform="translate(34,44)"/>
<path d="M0,0 L1,0 L1,1 L0,1 Z " fill="#FFFFFF" opacity="0.95686275" transform="translate(33,44)"/>
<path d="M0,0 L1,0 L1,1 L0,1 Z " fill="#E9EDEE" opacity="0.7647059" transform="translate(22,44)"/>
<path d="M0,0 L1,0 L1,1 L0,1 Z " fill="#92A1AD" opacity="0.8156863" transform="translate(18,44)"/>
<path d="M0,0 L1,0 L1,1 L0,1 Z " fill="#92A0AC" opacity="0.83137256" transform="translate(38,43)"/>
<path d="M0,0 L1,0 L1,1 L0,1 Z " fill="#D2D9DD" opacity="0.75686276" transform="translate(34,43)"/>
<path d="M0,0 L1,0 L1,1 L0,1 Z " fill="#FFFFFF" opacity="0.9843137" transform="translate(23,43)"/>
<path d="M0,0 L1,0 L1,1 L0,1 Z " fill="#A1AFB9" opacity="0.89411765" transform="translate(22,43)"/>
<path d="M0,0 L1,0 L1,1 L0,1 Z " fill="#91A1AD" opacity="0.25490198" transform="translate(39,42)"/>
<path d="M0,0 L1,0 L1,1 L0,1 Z " fill="#93A2AD" opacity="0.99607843" transform="translate(35,42)"/>
<path d="M0,0 L1,0 L1,1 L0,1 Z " fill="#FDFDFD" opacity="0.89411765" transform="translate(34,42)"/>
<path d="M0,0 L1,0 L1,1 L0,1 Z " fill="#E8ECEE" opacity="0.7607843" transform="translate(23,42)"/>
<path d="M0,0 L1,0 L1,1 L0,1 Z " fill="#91A1AC" opacity="0.9647059" transform="translate(19,42)"/>
<path d="M0,0 L1,0 L1,1 L0,1 Z " fill="#95A0AA" opacity="0.09411765" transform="translate(18,42)"/>
<path d="M0,0 L1,0 L1,1 L0,1 Z " fill="#91A1AD" opacity="0.68235296" transform="translate(39,41)"/>
<path d="M0,0 L1,0 L1,1 L0,1 Z " fill="#BCC6CD" opacity="0.7882353" transform="translate(35,41)"/>
<path d="M0,0 L1,0 L1,1 L0,1 Z " fill="#FFFFFF" opacity="0.98039216" transform="translate(24,41)"/>
<path d="M0,0 L1,0 L1,1 L0,1 Z " fill="#A0ADB7" opacity="0.9019608" transform="translate(23,41)"/>
<path d="M0,0 L1,0 L1,1 L0,1 Z " fill="#94A5AD" opacity="0.12156863" transform="translate(40,40)"/>
<path d="M0,0 L1,0 L1,1 L0,1 Z " fill="#91A0AD" opacity="0.99215686" transform="translate(39,40)"/>
<path d="M0,0 L1,0 L1,1 L0,1 Z " fill="#F7F8F9" opacity="0.8117647" transform="translate(35,40)"/>
<path d="M0,0 L1,0 L1,1 L0,1 Z " fill="#E6EAED" opacity="0.75686276" transform="translate(24,40)"/>
<path d="M0,0 L1,0 L1,1 L0,1 Z " fill="#91A1AC" opacity="0.9647059" transform="translate(20,40)"/>
<path d="M0,0 L1,0 L1,1 L0,1 Z " fill="#90A6B2" opacity="0.09019608" transform="translate(19,40)"/>
<path d="M0,0 L1,0 L1,1 L0,1 Z " fill="#92A1AC" opacity="0.5411765" transform="translate(40,39)"/>
<path d="M0,0 L1,0 L1,1 L0,1 Z " fill="#A8B5BE" opacity="0.85882354" transform="translate(36,39)"/>
<path d="M0,0 L1,0 L1,1 L0,1 Z " fill="#9FACB7" opacity="0.90588236" transform="translate(24,39)"/>
<path d="M0,0 L1,0 L1,1 L0,1 Z " fill="#92A1AD" opacity="0.94509804" transform="translate(40,38)"/>
<path d="M0,0 L1,0 L1,1 L0,1 Z " fill="#E9EDEE" opacity="0.7647059" transform="translate(36,38)"/>
<path d="M0,0 L1,0 L1,1 L0,1 Z " fill="#E5E8EC" opacity="0.75686276" transform="translate(25,38)"/>
<path d="M0,0 L1,0 L1,1 L0,1 Z " fill="#92A0AD" opacity="0.9607843" transform="translate(21,38)"/>
<path d="M0,0 L1,0 L1,1 L0,1 Z " fill="#97A2AE" opacity="0.08627451" transform="translate(20,38)"/>
<path d="M0,0 L1,0 L1,1 L0,1 Z " fill="#92A0AE" opacity="0.43137255" transform="translate(41,37)"/>
<path d="M0,0 L1,0 L1,1 L0,1 Z " fill="#9AA8B3" opacity="0.93333334" transform="translate(37,37)"/>
<path d="M0,0 L1,0 L1,1 L0,1 Z " fill="#FFFFFF" opacity="0.96862745" transform="translate(36,37)"/>
<path d="M0,0 L1,0 L1,1 L0,1 Z " fill="#9EABB6" opacity="0.9137255" transform="translate(25,37)"/>
<path d="M0,0 L1,0 L1,1 L0,1 Z " fill="#91A1AD" opacity="0.8666667" transform="translate(41,36)"/>
<path d="M0,0 L1,0 L1,1 L0,1 Z " fill="#D8DDE1" opacity="0.7529412" transform="translate(37,36)"/>
<path d="M0,0 L1,0 L1,1 L0,1 Z " fill="#E4E8EA" opacity="0.7529412" transform="translate(26,36)"/>
<path d="M0,0 L1,0 L1,1 L0,1 Z " fill="#91A1AD" opacity="0.95686275" transform="translate(22,36)"/>
<path d="M0,0 L1,0 L1,1 L0,1 Z " fill="#8CA6B3" opacity="0.078431375" transform="translate(21,36)"/>
<path d="M0,0 L1,0 L1,1 L0,1 Z " fill="#91A2AE" opacity="0.30980393" transform="translate(42,35)"/>
<path d="M0,0 L1,0 L1,1 L0,1 Z " fill="#FEFEFE" opacity="0.91764706" transform="translate(37,35)"/>
<path d="M0,0 L1,0 L1,1 L0,1 Z " fill="#9CABB5" opacity="0.92156863" transform="translate(26,35)"/>
<path d="M0,0 L1,0 L1,1 L0,1 Z " fill="#92A1AD" opacity="0.7529412" transform="translate(42,34)"/>
<path d="M0,0 L1,0 L1,1 L0,1 Z " fill="#C6CED4" opacity="0.76862746" transform="translate(38,34)"/>
<path d="M0,0 L1,0 L1,1 L0,1 Z " fill="#E1E6E9" opacity="0.7529412" transform="translate(27,34)"/>
<path d="M0,0 L1,0 L1,1 L0,1 Z " fill="#92A1AC" opacity="0.9529412" transform="translate(23,34)"/>
<path d="M0,0 L1,0 L1,1 L0,1 Z " fill="#92A1AC" opacity="0.07450981" transform="translate(22,34)"/>
<path d="M0,0 L1,0 L1,1 L0,1 Z " fill="#92A1AC" opacity="0.19215687" transform="translate(43,33)"/>
<path d="M0,0 L1,0 L1,1 L0,1 Z " fill="#FBFCFD" opacity="0.8509804" transform="translate(38,33)"/>
<path d="M0,0 L1,0 L1,1 L0,1 Z " fill="#9CAAB5" opacity="0.9254902" transform="translate(27,33)"/>
<path d="M0,0 L1,0 L1,1 L0,1 Z " fill="#92A1AD" opacity="0.6666667" transform="translate(43,32)"/>
<path d="M0,0 L1,0 L1,1 L0,1 Z " fill="#B5BFC8" opacity="0.80784315" transform="translate(39,32)"/>
<path d="M0,0 L1,0 L1,1 L0,1 Z " fill="#E1E5E8" opacity="0.7529412" transform="translate(28,32)"/>
<path d="M0,0 L1,0 L1,1 L0,1 Z " fill="#91A0AD" opacity="0.9490196" transform="translate(24,32)"/>
<path d="M0,0 L1,0 L1,1 L0,1 Z " fill="#91A0AC" opacity="0.07058824" transform="translate(23,32)"/>
<path d="M0,0 L1,0 L1,1 L0,1 Z " fill="#92A1AC" opacity="0.9882353" transform="translate(43,31)"/>
<path d="M0,0 L1,0 L1,1 L0,1 Z " fill="#F3F5F7" opacity="0.79607844" transform="translate(39,31)"/>
<path d="M0,0 L1,0 L1,1 L0,1 Z " fill="#9AA8B3" opacity="0.93333334" transform="translate(28,31)"/>
<path d="M0,0 L1,0 L1,1 L0,1 Z " fill="#91A0AC" opacity="0.92941177" transform="translate(23,31)"/>
<path d="M0,0 L1,0 L1,1 L0,1 Z " fill="#91A1AC" opacity="0.9764706" transform="translate(22,31)"/>
<path d="M0,0 L1,0 L1,1 L0,1 Z " fill="#91A1AC" opacity="0.89411765" transform="translate(19,31)"/>
<path d="M0,0 L1,0 L1,1 L0,1 Z " fill="#92A0AD" opacity="0.007843138" transform="translate(17,31)"/>
<path d="M0,0 L1,0 L1,1 L0,1 Z " fill="#92A1AD" opacity="0.52156866" transform="translate(44,30)"/>
<path d="M0,0 L1,0 L1,1 L0,1 Z " fill="#A5B1BB" opacity="0.8745098" transform="translate(40,30)"/>
<path d="M0,0 L1,0 L1,1 L0,1 Z " fill="#DEE2E6" opacity="0.7529412" transform="translate(29,30)"/>
<path d="M0,0 L1,0 L1,1 L0,1 Z " fill="#92A0AD" opacity="0.5686275" transform="translate(17,30)"/>
<path d="M0,0 L1,0 L1,1 L0,1 Z " fill="#91A1AD" opacity="0.92156863" transform="translate(44,29)"/>
<path d="M0,0 L1,0 L1,1 L0,1 Z " fill="#E6EAED" opacity="0.75686276" transform="translate(40,29)"/>
<path d="M0,0 L1,0 L1,1 L0,1 Z " fill="#9AA8B3" opacity="0.9372549" transform="translate(29,29)"/>
<path d="M0,0 L1,0 L1,1 L0,1 Z " fill="#939FB0" opacity="0.1764706" transform="translate(16,29)"/>
<path d="M0,0 L1,0 L1,1 L0,1 Z " fill="#92A2AD" opacity="0.3764706" transform="translate(45,28)"/>
<path d="M0,0 L1,0 L1,1 L0,1 Z " fill="#9AA7B2" opacity="0.94509804" transform="translate(41,28)"/>
<path d="M0,0 L1,0 L1,1 L0,1 Z " fill="#FFFFFF" opacity="0.95686275" transform="translate(40,28)"/>
<path d="M0,0 L1,0 L1,1 L0,1 Z " fill="#DDE1E5" opacity="0.7529412" transform="translate(30,28)"/>
<path d="M0,0 L1,0 L1,1 L0,1 Z " fill="#91A0AD" opacity="0.8117647" transform="translate(45,27)"/>
<path d="M0,0 L1,0 L1,1 L0,1 Z " fill="#D2D9DE" opacity="0.7529412" transform="translate(41,27)"/>
<path d="M0,0 L1,0 L1,1 L0,1 Z " fill="#98A6B2" opacity="0.94509804" transform="translate(30,27)"/>
<path d="M0,0 L1,0 L1,1 L0,1 Z " fill="#E4E8EA" opacity="0.75686276" transform="translate(27,27)"/>
<path d="M0,0 L1,0 L1,1 L0,1 Z " fill="#FCFDFD" opacity="0.8666667" transform="translate(25,27)"/>
<path d="M0,0 L1,0 L1,1 L0,1 Z " fill="#FEFFFF" opacity="0.92941177" transform="translate(23,27)"/>
<path d="M0,0 L1,0 L1,1 L0,1 Z " fill="#FFFFFF" opacity="0.96862745" transform="translate(22,27)"/>
<path d="M0,0 L1,0 L1,1 L0,1 Z " fill="#E8ECEE" opacity="0.7647059" transform="translate(20,27)"/>
<path d="M0,0 L1,0 L1,1 L0,1 Z " fill="#92A1AD" opacity="0.65882355" transform="translate(16,27)"/>
<path d="M0,0 L1,0 L1,1 L0,1 Z " fill="#93A2AD" opacity="0.2784314" transform="translate(46,26)"/>
<path d="M0,0 L1,0 L1,1 L0,1 Z " fill="#FDFDFD" opacity="0.8901961" transform="translate(41,26)"/>
<path d="M0,0 L1,0 L1,1 L0,1 Z " fill="#DADEE2" opacity="0.7529412" transform="translate(31,26)"/>
<path d="M0,0 L1,0 L1,1 L0,1 Z " fill="#F1F3F4" opacity="0.7882353" transform="translate(27,26)"/>
<path d="M0,0 L1,0 L1,1 L0,1 Z " fill="#FAFBFB" opacity="0.8392157" transform="translate(20,26)"/>
<path d="M0,0 L1,0 L1,1 L0,1 Z " fill="#91A1AD" opacity="0.84705883" transform="translate(16,26)"/>
<path d="M0,0 L1,0 L1,1 L0,1 Z " fill="#92A1AD" opacity="0.7137255" transform="translate(46,25)"/>
<path d="M0,0 L1,0 L1,1 L0,1 Z " fill="#BDC6CE" opacity="0.7882353" transform="translate(42,25)"/>
<path d="M0,0 L1,0 L1,1 L0,1 Z " fill="#FEFEFE" opacity="0.9411765" transform="translate(32,25)"/>
<path d="M0,0 L1,0 L1,1 L0,1 Z " fill="#98A7B2" opacity="0.9490196" transform="translate(31,25)"/>
<path d="M0,0 L1,0 L1,1 L0,1 Z " fill="#FFFFFF" opacity="0.9607843" transform="translate(20,25)"/>
<path d="M0,0 L1,0 L1,1 L0,1 Z " fill="#92A1AC" opacity="0.9882353" transform="translate(16,25)"/>
<path d="M0,0 L1,0 L1,1 L0,1 Z " fill="#91A2AE" opacity="0.02745098" transform="translate(15,25)"/>
<path d="M0,0 L1,0 L1,1 L0,1 Z " fill="#90A4B1" opacity="0.15294118" transform="translate(47,24)"/>
<path d="M0,0 L1,0 L1,1 L0,1 Z " fill="#F7F8F9" opacity="0.8156863" transform="translate(42,24)"/>
<path d="M0,0 L1,0 L1,1 L0,1 Z " fill="#D8DDE1" opacity="0.7529412" transform="translate(32,24)"/>
<path d="M0,0 L1,0 L1,1 L0,1 Z " fill="#92A1AD" transform="translate(28,24)"/>
<path d="M0,0 L1,0 L1,1 L0,1 Z " fill="#E6EAED" opacity="0.7607843" transform="translate(27,24)"/>
<path d="M0,0 L1,0 L1,1 L0,1 Z " fill="#91A0AC" opacity="0.5803922" transform="translate(47,23)"/>
<path d="M0,0 L1,0 L1,1 L0,1 Z " fill="#A9B6BF" opacity="0.8509804" transform="translate(43,23)"/>
<path d="M0,0 L1,0 L1,1 L0,1 Z " fill="#E8EAED" opacity="0.7607843" transform="translate(32,23)"/>
<path d="M0,0 L1,0 L1,1 L0,1 Z " fill="#E0E4E6" opacity="0.7529412" transform="translate(31,23)"/>
<path d="M0,0 L1,0 L1,1 L0,1 Z " fill="#DEE2E6" opacity="0.7529412" transform="translate(30,23)"/>
<path d="M0,0 L1,0 L1,1 L0,1 Z " fill="#DCE1E5" opacity="0.7529412" transform="translate(28,23)"/>
<path d="M0,0 L1,0 L1,1 L0,1 Z " fill="#F9F9FB" opacity="0.83137256" transform="translate(27,23)"/>
<path d="M0,0 L1,0 L1,1 L0,1 Z " fill="#BAC4CB" opacity="0.79607844" transform="translate(19,23)"/>
<path d="M0,0 L1,0 L1,1 L0,1 Z " fill="#90A0AC" opacity="0.3254902" transform="translate(15,23)"/>
<path d="M0,0 L1,0 L1,1 L0,1 Z " fill="#92A1AC" opacity="0.9529412" transform="translate(47,22)"/>
<path d="M0,0 L1,0 L1,1 L0,1 Z " fill="#EAEDF0" opacity="0.7647059" transform="translate(43,22)"/>
<path d="M0,0 L1,0 L1,1 L0,1 Z " fill="#91A0AE" opacity="0.38039216" transform="translate(48,21)"/>
<path d="M0,0 L1,0 L1,1 L0,1 Z " fill="#9CAAB5" opacity="0.9254902" transform="translate(44,21)"/>
<path d="M0,0 L1,0 L1,1 L0,1 Z " fill="#FFFFFF" opacity="0.972549" transform="translate(43,21)"/>
<path d="M0,0 L1,0 L1,1 L0,1 Z " fill="#E9ECEE" opacity="0.7647059" transform="translate(19,21)"/>
<path d="M0,0 L1,0 L1,1 L0,1 Z " fill="#91A1AC" opacity="0.627451" transform="translate(15,21)"/>
<path d="M0,0 L1,0 L1,1 L0,1 Z " fill="#92A0AC" opacity="0.7254902" transform="translate(48,20)"/>
<path d="M0,0 L1,0 L1,1 L0,1 Z " fill="#92A0AD" opacity="0.8980392" transform="translate(48,19)"/>
<path d="M0,0 L1,0 L1,1 L0,1 Z " fill="#F1F3F4" opacity="0.78431374" transform="translate(44,19)"/>
<path d="M0,0 L1,0 L1,1 L0,1 Z " fill="#FDFDFD" opacity="0.8784314" transform="translate(19,19)"/>
<path d="M0,0 L1,0 L1,1 L0,1 Z " fill="#91A1AD" opacity="0.8392157" transform="translate(15,19)"/>
<path d="M0,0 L1,0 L1,1 L0,1 Z " fill="#A1AFB9" opacity="0.89411765" transform="translate(44,18)"/>
<path d="M0,0 L1,0 L1,1 L0,1 Z " fill="#FEFEFE" opacity="0.94509804" transform="translate(43,18)"/>
<path d="M0,0 L1,0 L1,1 L0,1 Z " fill="#FFFFFF" opacity="0.9254902" transform="translate(19,18)"/>
<path d="M0,0 L1,0 L1,1 L0,1 Z " fill="#91A1AD" opacity="0.9098039" transform="translate(15,18)"/>
<path d="M0,0 L1,0 L1,1 L0,1 Z " fill="#94A0AC" opacity="0.16862746" transform="translate(48,17)"/>
<path d="M0,0 L1,0 L1,1 L0,1 Z " fill="#91A1AD" opacity="0.9843137" transform="translate(47,17)"/>
<path d="M0,0 L1,0 L1,1 L0,1 Z " fill="#C2C9D1" opacity="0.78039217" transform="translate(43,17)"/>
<path d="M0,0 L1,0 L1,1 L0,1 Z " fill="#FFFFFF" opacity="0.98039216" transform="translate(19,17)"/>
<path d="M0,0 L1,0 L1,1 L0,1 Z " fill="#E8ECEE" opacity="0.7607843" transform="translate(42,16)"/>
<path d="M0,0 L1,0 L1,1 L0,1 Z " fill="#FFFFFF" opacity="0.99215686" transform="translate(19,16)"/>
<path d="M0,0 L1,0 L1,1 L0,1 Z " fill="#91A1AD" opacity="0.95686275" transform="translate(15,16)"/>
<path d="M0,0 L1,0 L1,1 L0,1 Z " fill="#91A0AD" opacity="0.023529412" transform="translate(47,15)"/>
<path d="M0,0 L1,0 L1,1 L0,1 Z " fill="#91A0AD" opacity="0.8117647" transform="translate(46,15)"/>
<path d="M0,0 L1,0 L1,1 L0,1 Z " fill="#96A3B0" opacity="0.96862745" transform="translate(42,15)"/>
<path d="M0,0 L1,0 L1,1 L0,1 Z " fill="#FAFBFB" opacity="0.8392157" transform="translate(41,15)"/>
<path d="M0,0 L1,0 L1,1 L0,1 Z " fill="#ECF0F1" opacity="0.76862746" transform="translate(19,15)"/>
<path d="M0,0 L1,0 L1,1 L0,1 Z " fill="#8FA2AE" opacity="0.16078432" transform="translate(46,14)"/>
<path d="M0,0 L1,0 L1,1 L0,1 Z " fill="#96A3B0" opacity="0.96862745" transform="translate(40,14)"/>
<path d="M0,0 L1,0 L1,1 L0,1 Z " fill="#9CAAB5" opacity="0.91764706" transform="translate(38,14)"/>
<path d="M0,0 L1,0 L1,1 L0,1 Z " fill="#A3B0BA" opacity="0.88235295" transform="translate(36,14)"/>
<path d="M0,0 L1,0 L1,1 L0,1 Z " fill="#A9B4BE" opacity="0.85490197" transform="translate(34,14)"/>
<path d="M0,0 L1,0 L1,1 L0,1 Z " fill="#AFB9C2" opacity="0.83137256" transform="translate(32,14)"/>
<path d="M0,0 L1,0 L1,1 L0,1 Z " fill="#B1BBC5" opacity="0.8235294" transform="translate(31,14)"/>
<path d="M0,0 L1,0 L1,1 L0,1 Z " fill="#B3BEC7" opacity="0.8156863" transform="translate(30,14)"/>
<path d="M0,0 L1,0 L1,1 L0,1 Z " fill="#B2BCC5" opacity="0.81960785" transform="translate(25,14)"/>
<path d="M0,0 L1,0 L1,1 L0,1 Z " fill="#A6B3BC" opacity="0.8666667" transform="translate(23,14)"/>
<path d="M0,0 L1,0 L1,1 L0,1 Z " fill="#99A7B3" opacity="0.9411765" transform="translate(21,14)"/>
<path d="M0,0 L1,0 L1,1 L0,1 Z " fill="#92A0AD" opacity="0.76862746" transform="translate(15,14)"/>
<path d="M0,0 L1,0 L1,1 L0,1 Z " fill="#91A2AD" opacity="0.3647059" transform="translate(45,13)"/>
<path d="M0,0 L1,0 L1,1 L0,1 Z " fill="#93A1AD" opacity="0.49803922" transform="translate(44,12)"/>
<path d="M0,0 L1,0 L1,1 L0,1 Z " fill="#91A0AC" opacity="0.5176471" transform="translate(16,12)"/>
<path d="M0,0 L1,0 L1,1 L0,1 Z " fill="#91A0AC" opacity="0.003921569" transform="translate(15,12)"/>
<path d="M0,0 L1,0 L1,1 L0,1 Z " fill="#93A0AD" opacity="0.3882353" transform="translate(43,11)"/>
<path d="M0,0 L1,0 L1,1 L0,1 Z " fill="#91A0AC" opacity="0.7372549" transform="translate(42,11)"/>
<path d="M0,0 L1,0 L1,1 L0,1 Z " fill="#92A0AD" opacity="0.9607843" transform="translate(41,11)"/>
<path d="M0,0 L1,0 L1,1 L0,1 Z " fill="#91A1AC" opacity="0.9764706" transform="translate(20,11)"/>
<path d="M0,0 L1,0 L1,1 L0,1 Z " fill="#92A1AD" opacity="0.65882355" transform="translate(18,11)"/>
<path d="M0,0 L1,0 L1,1 L0,1 Z " fill="#92A1AD" opacity="0.003921569" transform="translate(16,11)"/>
<path d="M0,0 L1,0 L1,1 L0,1 Z " fill="#92A1AD" opacity="0.043137256" transform="translate(40,10)"/>
<path d="M0,0 L1,0 L1,1 L0,1 Z " fill="#8FA3AE" opacity="0.07450981" transform="translate(39,10)"/>
<path d="M0,0 L1,0 L1,1 L0,1 Z " fill="#94A5AD" opacity="0.12156863" transform="translate(37,10)"/>
<path d="M0,0 L1,0 L1,1 L0,1 Z " fill="#94A0AC" opacity="0.16862746" transform="translate(35,10)"/>
<path d="M0,0 L1,0 L1,1 L0,1 Z " fill="#90A0B0" opacity="0.1882353" transform="translate(34,10)"/>
<path d="M0,0 L1,0 L1,1 L0,1 Z " fill="#94A1AF" opacity="0.22352941" transform="translate(32,10)"/>
<path d="M0,0 L1,0 L1,1 L0,1 Z " fill="#90A1AD" opacity="0.24313726" transform="translate(31,10)"/>
<path d="M0,0 L1,0 L1,1 L0,1 Z " fill="#94A1AF" opacity="0.14901961" transform="translate(23,10)"/>
<path d="M0,0 L1,0 L1,1 L0,1 Z " fill="#95A0AA" opacity="0.09411765" transform="translate(22,10)"/>
<path d="M0,0 L1,0 L1,1 L0,1 Z " fill="#91A1AC" opacity="0.011764706" transform="translate(20,10)"/>
</svg>
