<?xml version="1.0" encoding="UTF-8"?>
<!-- Generator: visioncortex VTracer 0.6.4 -->
<svg version="1.1" xmlns="http://www.w3.org/2000/svg" width="64" height="64">
<path d="M0,0 L1,0 L1,1 L8,1 L8,2 L12,2 L12,3 L14,3 L14,4 L16,4 L16,7 L14,7 L14,8 L16,8 L16,15 L14,15 L14,16 L16,16 L16,19 L14,19 L14,20 L16,20 L16,32 L-48,32 L-48,21 L-46,21 L-46,22 L-43,22 L-43,23 L-39,23 L-39,22 L-42,22 L-42,21 L-45,21 L-45,20 L-47,20 L-47,19 L-48,19 L-48,17 L-46,17 L-46,18 L-43,18 L-43,19 L-39,19 L-39,18 L-42,18 L-42,17 L-45,17 L-45,16 L-47,16 L-47,15 L-48,15 L-48,9 L-46,9 L-46,10 L-43,10 L-43,11 L-39,11 L-39,10 L-42,10 L-42,9 L-45,9 L-45,8 L-47,8 L-47,7 L-48,7 L-48,5 L-46,5 L-46,6 L-43,6 L-43,7 L-39,7 L-39,8 L-23,8 L-23,7 L-20,7 L-20,6 L-17,6 L-17,5 L-15,5 L-15,4 L-13,4 L-13,3 L-10,3 L-10,2 L-7,2 L-7,1 L0,1 Z M-7,4 L-7,5 L0,5 L0,4 Z M1,4 L1,5 L8,5 L8,6 L12,6 L12,5 L9,5 L9,4 Z M-11,5 L-11,6 L-13,6 L-13,7 L-10,7 L-10,6 L-7,6 L-7,5 Z M12,6 L12,7 L14,7 L14,6 Z M-15,7 L-15,8 L-13,8 L-13,7 Z M-18,8 L-18,9 L-20,9 L-20,10 L-17,10 L-17,9 L-15,9 L-15,8 Z M-23,10 L-23,11 L-20,11 L-20,10 Z M-39,11 L-39,12 L-23,12 L-23,11 Z M-7,12 L-7,13 L0,13 L0,12 Z M1,12 L1,13 L8,13 L8,14 L12,14 L12,13 L9,13 L9,12 Z M-11,13 L-11,14 L-13,14 L-13,15 L-10,15 L-10,14 L-7,14 L-7,13 Z M12,14 L12,15 L14,15 L14,14 Z M-15,15 L-15,16 L-13,16 L-13,15 Z M-18,16 L-18,17 L-20,17 L-20,18 L-17,18 L-17,17 L-15,17 L-15,16 Z M-7,16 L-7,17 L0,17 L0,16 Z M1,16 L1,17 L8,17 L8,18 L12,18 L12,17 L9,17 L9,16 Z M-11,17 L-11,18 L-13,18 L-13,19 L-10,19 L-10,18 L-7,18 L-7,17 Z M-23,18 L-23,19 L-20,19 L-20,18 Z M12,18 L12,19 L14,19 L14,18 Z M-39,19 L-39,20 L-23,20 L-23,19 Z M-15,19 L-15,20 L-13,20 L-13,19 Z M-18,20 L-18,21 L-20,21 L-20,22 L-17,22 L-17,21 L-15,21 L-15,20 Z M-23,22 L-23,23 L-20,23 L-20,22 Z M-39,23 L-39,24 L-23,24 L-23,23 Z " fill="#FA7F20" transform="translate(48,32)"/>
<path d="M0,0 L1,0 L1,1 L8,1 L8,2 L12,2 L12,3 L14,3 L14,4 L16,4 L16,7 L14,7 L14,8 L16,8 L16,15 L14,15 L14,14 L12,14 L12,13 L9,13 L9,12 L-7,12 L-7,13 L-11,13 L-11,14 L-13,14 L-13,15 L-15,15 L-15,16 L-18,16 L-18,17 L-20,17 L-20,18 L-23,18 L-23,19 L-39,19 L-39,18 L-42,18 L-42,17 L-45,17 L-45,16 L-47,16 L-47,15 L-48,15 L-48,9 L-46,9 L-46,10 L-43,10 L-43,11 L-39,11 L-39,10 L-42,10 L-42,9 L-45,9 L-45,8 L-47,8 L-47,7 L-48,7 L-48,5 L-46,5 L-46,6 L-43,6 L-43,7 L-39,7 L-39,8 L-23,8 L-23,7 L-20,7 L-20,6 L-17,6 L-17,5 L-15,5 L-15,4 L-13,4 L-13,3 L-10,3 L-10,2 L-7,2 L-7,1 L0,1 Z M-7,4 L-7,5 L0,5 L0,4 Z M1,4 L1,5 L8,5 L8,6 L12,6 L12,5 L9,5 L9,4 Z M-11,5 L-11,6 L-13,6 L-13,7 L-10,7 L-10,6 L-7,6 L-7,5 Z M12,6 L12,7 L14,7 L14,6 Z M-15,7 L-15,8 L-13,8 L-13,7 Z M-18,8 L-18,9 L-20,9 L-20,10 L-17,10 L-17,9 L-15,9 L-15,8 Z M-23,10 L-23,11 L-20,11 L-20,10 Z M-39,11 L-39,12 L-23,12 L-23,11 Z " fill="#FF9935" transform="translate(48,32)"/>
<path d="M0,0 L1,0 L1,1 L8,1 L8,2 L12,2 L12,3 L14,3 L14,4 L16,4 L16,7 L14,7 L14,6 L12,6 L12,5 L9,5 L9,4 L-7,4 L-7,5 L-11,5 L-11,6 L-13,6 L-13,7 L-15,7 L-15,8 L-18,8 L-18,9 L-20,9 L-20,10 L-23,10 L-23,11 L-39,11 L-39,10 L-42,10 L-42,9 L-45,9 L-45,8 L-47,8 L-47,7 L-48,7 L-48,5 L-46,5 L-46,6 L-43,6 L-43,7 L-39,7 L-39,8 L-23,8 L-23,7 L-20,7 L-20,6 L-17,6 L-17,5 L-15,5 L-15,4 L-13,4 L-13,3 L-10,3 L-10,2 L-7,2 L-7,1 L0,1 Z " fill="#353541" transform="translate(48,32)"/>
<path d="M0,0 L1,0 L1,1 L0,1 Z " fill="#343440" opacity="0.99215686" transform="translate(56,33)"/>
<path d="M0,0 L1,0 L1,1 L8,1 L8,2 L12,2 L12,3 L14,3 L14,4 L16,4 L16,7 L14,7 L14,6 L12,6 L12,5 L9,5 L9,4 L-7,4 L-7,5 L-11,5 L-11,6 L-13,6 L-13,7 L-15,7 L-15,8 L-18,8 L-18,9 L-20,9 L-20,10 L-23,10 L-23,11 L-39,11 L-39,10 L-42,10 L-42,9 L-45,9 L-45,8 L-47,8 L-47,7 L-48,7 L-48,5 L-46,5 L-46,6 L-43,6 L-43,7 L-39,7 L-39,8 L-23,8 L-23,7 L-20,7 L-20,6 L-17,6 L-17,5 L-15,5 L-15,4 L-13,4 L-13,3 L-10,3 L-10,2 L-7,2 L-7,1 L0,1 Z " fill="#DB6226" transform="translate(48,44)"/>
<path d="M0,0 L1,0 L1,1 L0,1 Z " fill="#DB6225" opacity="0.99215686" transform="translate(0,51)"/>
<path d="M0,0 L1,0 L1,1 L0,1 Z " fill="#30303C" opacity="0.16470589" transform="translate(19,39)"/>
<path d="M0,0 L1,0 L1,1 L0,1 Z " fill="#FD9432" opacity="0.9372549" transform="translate(17,51)"/>
<path d="M0,0 L1,0 L1,1 L0,1 Z " fill="#353540" opacity="0.90588236" transform="translate(24,39)"/>
<path d="M0,0 L1,0 L1,1 L0,1 Z " fill="#343441" opacity="0.8784314" transform="translate(51,32)"/>
<path d="M0,0 L1,0 L1,1 L0,1 Z " fill="#3A3740" opacity="0.8627451" transform="translate(19,43)"/>
<path d="M0,0 L1,0 L1,1 L0,1 Z " fill="#DE6324" opacity="0.8156863" transform="translate(13,55)"/>
<path d="M0,0 L1,0 L1,1 L0,1 Z " fill="#F4872E" opacity="0.8156863" transform="translate(13,51)"/>
<path d="M0,0 L1,0 L1,1 L0,1 Z " fill="#F17620" opacity="0.8352941" transform="translate(45,48)"/>
<path d="M0,0 L1,0 L1,1 L0,1 Z " fill="#DD6425" opacity="0.8352941" transform="translate(45,44)"/>
<path d="M0,0 L1,0 L1,1 L0,1 Z " fill="#433B40" opacity="0.8156863" transform="translate(13,43)"/>
<path d="M0,0 L1,0 L1,1 L0,1 Z " fill="#2F2F42" opacity="0.105882354" transform="translate(15,39)"/>
<path d="M0,0 L1,0 L1,1 L0,1 Z " fill="#353540" opacity="0.7921569" transform="translate(27,38)"/>
<path d="M0,0 L1,0 L1,1 L0,1 Z " fill="#353440" opacity="0.9372549" transform="translate(56,36)"/>
<path d="M0,0 L1,0 L1,1 L0,1 Z " fill="#F29234" opacity="0.94509804" transform="translate(47,36)"/>
<path d="M0,0 L1,0 L1,1 L0,1 Z " fill="#343441" opacity="0.89411765" transform="translate(0,36)"/>
<path d="M0,0 L1,0 L1,1 L0,1 Z " fill="#343441" opacity="0.8784314" transform="translate(40,33)"/>
<path d="M0,0 L1,0 L1,1 L0,1 Z " fill="#343440" opacity="0.6901961" transform="translate(44,32)"/>
<path d="M0,0 L1,0 L1,1 L0,1 Z " fill="#E66C22" opacity="0.75686276" transform="translate(22,55)"/>
<path d="M0,0 L1,0 L1,1 L0,1 Z " fill="#E56F27" opacity="0.75686276" transform="translate(22,51)"/>
<path d="M0,0 L1,0 L1,1 L0,1 Z " fill="#F98F30" opacity="0.8627451" transform="translate(19,51)"/>
<path d="M0,0 L1,0 L1,1 L0,1 Z " fill="#DB6226" transform="translate(0,49)"/>
<path d="M0,0 L1,0 L1,1 L0,1 Z " fill="#E46822" opacity="0.75686276" transform="translate(54,48)"/>
<path d="M0,0 L1,0 L1,1 L0,1 Z " fill="#F57A20" opacity="0.89411765" transform="translate(51,48)"/>
<path d="M0,0 L1,0 L1,1 L0,1 Z " fill="#E9772A" opacity="0.75686276" transform="translate(54,44)"/>
<path d="M0,0 L1,0 L1,1 L0,1 Z " fill="#DC6225" opacity="0.89411765" transform="translate(51,44)"/>
<path d="M0,0 L1,0 L1,1 L0,1 Z " fill="#E28A35" opacity="0.89411765" transform="translate(51,36)"/>
<path d="M0,0 L1,0 L1,1 L0,1 Z " fill="#DC6324" opacity="0.83137256" transform="translate(20,55)"/>
<path d="M0,0 L1,0 L1,1 L0,1 Z " fill="#DC6124" opacity="0.8980392" transform="translate(18,55)"/>
<path d="M0,0 L1,0 L1,1 L0,1 Z " fill="#DB6225" opacity="0.9098039" transform="translate(15,55)"/>
<path d="M0,0 L1,0 L1,1 L0,1 Z " fill="#E66C22" opacity="0.7529412" transform="translate(11,55)"/>
<path d="M0,0 L1,0 L1,1 L0,1 Z " fill="#F27620" opacity="0.8352941" transform="translate(27,54)"/>
<path d="M0,0 L1,0 L1,1 L0,1 Z " fill="#E16623" opacity="0.7647059" transform="translate(7,54)"/>
<path d="M0,0 L1,0 L1,1 L0,1 Z " fill="#DD6424" opacity="0.79607844" transform="translate(4,53)"/>
<path d="M0,0 L1,0 L1,1 L0,1 Z " fill="#FA7F20" transform="translate(0,53)"/>
<path d="M0,0 L1,0 L1,1 L0,1 Z " fill="#F3781F" opacity="0.8666667" transform="translate(32,52)"/>
<path d="M0,0 L1,0 L1,1 L0,1 Z " fill="#DB6125" opacity="0.9137255" transform="translate(2,52)"/>
<path d="M0,0 L1,0 L1,1 L0,1 Z " fill="#EF7420" opacity="0.8039216" transform="translate(34,51)"/>
<path d="M0,0 L1,0 L1,1 L0,1 Z " fill="#FB9232" opacity="0.9098039" transform="translate(15,51)"/>
<path d="M0,0 L1,0 L1,1 L0,1 Z " fill="#E67229" opacity="0.7529412" transform="translate(11,51)"/>
<path d="M0,0 L1,0 L1,1 L0,1 Z " fill="#DF6424" opacity="0.8" transform="translate(61,50)"/>
<path d="M0,0 L1,0 L1,1 L0,1 Z " fill="#F77C1F" opacity="0.92156863" transform="translate(37,50)"/>
<path d="M0,0 L1,0 L1,1 L0,1 Z " fill="#DD6326" opacity="0.8352941" transform="translate(27,50)"/>
<path d="M0,0 L1,0 L1,1 L0,1 Z " fill="#ED7C2B" opacity="0.7647059" transform="translate(7,50)"/>
<path d="M0,0 L1,0 L1,1 L0,1 Z " fill="#E26822" opacity="0.75686276" transform="translate(58,49)"/>
<path d="M0,0 L1,0 L1,1 L0,1 Z " fill="#E86E22" opacity="0.75686276" transform="translate(39,49)"/>
<path d="M0,0 L1,0 L1,1 L0,1 Z " fill="#DB6125" opacity="0.9411765" transform="translate(30,49)"/>
<path d="M0,0 L1,0 L1,1 L0,1 Z " fill="#F2832E" opacity="0.79607844" transform="translate(4,49)"/>
<path d="M0,0 L1,0 L1,1 L0,1 Z " fill="#F87C1F" opacity="0.94509804" transform="translate(47,48)"/>
<path d="M0,0 L1,0 L1,1 L0,1 Z " fill="#E66A22" opacity="0.7529412" transform="translate(43,48)"/>
<path d="M0,0 L1,0 L1,1 L0,1 Z " fill="#DC6325" opacity="0.8666667" transform="translate(32,48)"/>
<path d="M0,0 L1,0 L1,1 L0,1 Z " fill="#DE6625" opacity="0.8039216" transform="translate(34,47)"/>
<path d="M0,0 L1,0 L1,1 L0,1 Z " fill="#DC6225" opacity="0.92156863" transform="translate(37,46)"/>
<path d="M0,0 L1,0 L1,1 L0,1 Z " fill="#FB9131" opacity="0.90588236" transform="translate(59,45)"/>
<path d="M0,0 L1,0 L1,1 L0,1 Z " fill="#E46F27" opacity="0.75686276" transform="translate(39,45)"/>
<path d="M0,0 L1,0 L1,1 L0,1 Z " fill="#DB6125" opacity="0.94509804" transform="translate(47,44)"/>
<path d="M0,0 L1,0 L1,1 L0,1 Z " fill="#E8742A" opacity="0.7529412" transform="translate(43,44)"/>
<path d="M0,0 L1,0 L1,1 L0,1 Z " fill="#E88C35" opacity="0.9137255" transform="translate(24,43)"/>
<path d="M0,0 L1,0 L1,1 L0,1 Z " fill="#845B3A" opacity="0.75686276" transform="translate(22,43)"/>
<path d="M0,0 L1,0 L1,1 L0,1 Z " fill="#363440" opacity="0.9098039" transform="translate(15,43)"/>
<path d="M0,0 L1,0 L1,1 L0,1 Z " fill="#7D583C" opacity="0.7529412" transform="translate(11,43)"/>
<path d="M0,0 L1,0 L1,1 L0,1 Z " fill="#FD9734" transform="translate(28,42)"/>
<path d="M0,0 L1,0 L1,1 L0,1 Z " fill="#5A463D" opacity="0.7647059" transform="translate(7,42)"/>
<path d="M0,0 L1,0 L1,1 L0,1 Z " fill="#4A3F3F" opacity="0.79607844" transform="translate(4,41)"/>
<path d="M0,0 L1,0 L1,1 L0,1 Z " fill="#FF9935" transform="translate(0,41)"/>
<path d="M0,0 L1,0 L1,1 L0,1 Z " fill="#36353F" opacity="0.9137255" transform="translate(2,40)"/>
<path d="M0,0 L1,0 L1,1 L0,1 Z " fill="#353540" opacity="0.54901963" transform="translate(22,39)"/>
<path d="M0,0 L1,0 L1,1 L0,1 Z " fill="#33333B" opacity="0.07058824" transform="translate(17,39)"/>
<path d="M0,0 L1,0 L1,1 L0,1 Z " fill="#33333F" opacity="0.25490198" transform="translate(13,39)"/>
<path d="M0,0 L1,0 L1,1 L0,1 Z " fill="#333341" opacity="0.52156866" transform="translate(11,39)"/>
<path d="M0,0 L1,0 L1,1 L0,1 Z " fill="#EB8D35" opacity="0.92156863" transform="translate(37,38)"/>
<path d="M0,0 L1,0 L1,1 L0,1 Z " fill="#34343E" opacity="0.19215687" transform="translate(25,38)"/>
<path d="M0,0 L1,0 L1,1 L0,1 Z " fill="#31313B" opacity="0.101960786" transform="translate(8,38)"/>
<path d="M0,0 L1,0 L1,1 L0,1 Z " fill="#373540" opacity="0.90588236" transform="translate(59,37)"/>
<path d="M0,0 L1,0 L1,1 L0,1 Z " fill="#E28A35" opacity="0.89411765" transform="translate(40,37)"/>
<path d="M0,0 L1,0 L1,1 L0,1 Z " fill="#333340" opacity="0.54509807" transform="translate(29,37)"/>
<path d="M0,0 L1,0 L1,1 L0,1 Z " fill="#323240" opacity="0.03529412" transform="translate(5,37)"/>
<path d="M0,0 L1,0 L1,1 L0,1 Z " fill="#6C4F3B" opacity="0.75686276" transform="translate(54,36)"/>
<path d="M0,0 L1,0 L1,1 L0,1 Z " fill="#C97C37" opacity="0.8352941" transform="translate(45,36)"/>
<path d="M0,0 L1,0 L1,1 L0,1 Z " fill="#76543C" opacity="0.7529412" transform="translate(43,36)"/>
<path d="M0,0 L1,0 L1,1 L0,1 Z " fill="#343440" opacity="0.40392157" transform="translate(31,36)"/>
<path d="M0,0 L1,0 L1,1 L0,1 Z " fill="#34343F" opacity="0.28627452" transform="translate(33,35)"/>
<path d="M0,0 L1,0 L1,1 L0,1 Z " fill="#353540" opacity="0.003921569" transform="translate(62,34)"/>
<path d="M0,0 L1,0 L1,1 L0,1 Z " fill="#343440" opacity="0.5882353" transform="translate(36,34)"/>
<path d="M0,0 L1,0 L1,1 L0,1 Z " fill="#34343D" opacity="0.11372549" transform="translate(59,33)"/>
<path d="M0,0 L1,0 L1,1 L0,1 Z " fill="#35353D" opacity="0.24313726" transform="translate(38,33)"/>
<path d="M0,0 L1,0 L1,1 L0,1 Z " fill="#33333F" opacity="0.07450981" transform="translate(56,32)"/>
<path d="M0,0 L1,0 L1,1 L0,1 Z " fill="#34343F" opacity="0.45882353" transform="translate(54,32)"/>
<path d="M0,0 L1,0 L1,1 L0,1 Z " fill="#343441" opacity="0.8627451" transform="translate(46,32)"/>
<path d="M0,0 L1,0 L1,1 L0,1 Z " fill="#333340" opacity="0.29411766" transform="translate(42,32)"/>
<path d="M0,0 L1,0 L1,1 L0,1 Z " fill="#F87C20" opacity="0.9137255" transform="translate(24,55)"/>
<path d="M0,0 L1,0 L1,1 L0,1 Z " fill="#EF7520" opacity="0.79607844" transform="translate(23,55)"/>
<path d="M0,0 L1,0 L1,1 L0,1 Z " fill="#E06723" opacity="0.76862746" transform="translate(21,55)"/>
<path d="M0,0 L1,0 L1,1 L0,1 Z " fill="#DB6224" opacity="0.8627451" transform="translate(19,55)"/>
<path d="M0,0 L1,0 L1,1 L0,1 Z " fill="#DB6125" opacity="0.9372549" transform="translate(17,55)"/>
<path d="M0,0 L1,0 L1,1 L0,1 Z " fill="#DB6125" opacity="0.9647059" transform="translate(16,55)"/>
<path d="M0,0 L1,0 L1,1 L0,1 Z " fill="#DB6324" opacity="0.85882354" transform="translate(14,55)"/>
<path d="M0,0 L1,0 L1,1 L0,1 Z " fill="#E06624" opacity="0.7764706" transform="translate(12,55)"/>
<path d="M0,0 L1,0 L1,1 L0,1 Z " fill="#EF7420" opacity="0.79607844" transform="translate(10,55)"/>
<path d="M0,0 L1,0 L1,1 L0,1 Z " fill="#F87C20" opacity="0.9137255" transform="translate(9,55)"/>
<path d="M0,0 L1,0 L1,1 L0,1 Z " fill="#FA7E1F" transform="translate(8,55)"/>
<path d="M0,0 L1,0 L1,1 L0,1 Z " fill="#FA7F1F" transform="translate(28,54)"/>
<path d="M0,0 L1,0 L1,1 L0,1 Z " fill="#E56A22" opacity="0.7529412" transform="translate(26,54)"/>
<path d="M0,0 L1,0 L1,1 L0,1 Z " fill="#DC6325" opacity="0.8509804" transform="translate(25,54)"/>
<path d="M0,0 L1,0 L1,1 L0,1 Z " fill="#DB6125" opacity="0.9137255" transform="translate(8,54)"/>
<path d="M0,0 L1,0 L1,1 L0,1 Z " fill="#EE7222" opacity="0.7882353" transform="translate(6,54)"/>
<path d="M0,0 L1,0 L1,1 L0,1 Z " fill="#F97D1E" opacity="0.9607843" transform="translate(5,54)"/>
<path d="M0,0 L1,0 L1,1 L0,1 Z " fill="#F87C1E" opacity="0.9411765" transform="translate(30,53)"/>
<path d="M0,0 L1,0 L1,1 L0,1 Z " fill="#E66D22" opacity="0.7529412" transform="translate(29,53)"/>
<path d="M0,0 L1,0 L1,1 L0,1 Z " fill="#DC6125" opacity="0.89411765" transform="translate(28,53)"/>
<path d="M0,0 L1,0 L1,1 L0,1 Z " fill="#DB6225" opacity="0.972549" transform="translate(5,53)"/>
<path d="M0,0 L1,0 L1,1 L0,1 Z " fill="#EC7121" opacity="0.78431374" transform="translate(3,53)"/>
<path d="M0,0 L1,0 L1,1 L0,1 Z " fill="#FA7D1E" opacity="0.9882353" transform="translate(2,53)"/>
<path d="M0,0 L1,0 L1,1 L0,1 Z " fill="#E16623" opacity="0.7607843" transform="translate(31,52)"/>
<path d="M0,0 L1,0 L1,1 L0,1 Z " fill="#DB6125" opacity="0.9647059" transform="translate(30,52)"/>
<path d="M0,0 L1,0 L1,1 L0,1 Z " fill="#E66C22" opacity="0.7529412" transform="translate(1,52)"/>
<path d="M0,0 L1,0 L1,1 L0,1 Z " fill="#F67B1F" opacity="0.90588236" transform="translate(0,52)"/>
<path d="M0,0 L1,0 L1,1 L0,1 Z " fill="#DF6624" opacity="0.7764706" transform="translate(63,51)"/>
<path d="M0,0 L1,0 L1,1 L0,1 Z " fill="#F37821" opacity="0.8509804" transform="translate(62,51)"/>
<path d="M0,0 L1,0 L1,1 L0,1 Z " fill="#FA7E1F" transform="translate(35,51)"/>
<path d="M0,0 L1,0 L1,1 L0,1 Z " fill="#DF6424" opacity="0.8" transform="translate(33,51)"/>
<path d="M0,0 L1,0 L1,1 L0,1 Z " fill="#DB6125" opacity="0.9137255" transform="translate(24,51)"/>
<path d="M0,0 L1,0 L1,1 L0,1 Z " fill="#DF6727" opacity="0.79607844" transform="translate(23,51)"/>
<path d="M0,0 L1,0 L1,1 L0,1 Z " fill="#ED7E2C" opacity="0.76862746" transform="translate(21,51)"/>
<path d="M0,0 L1,0 L1,1 L0,1 Z " fill="#F68A2F" opacity="0.83137256" transform="translate(20,51)"/>
<path d="M0,0 L1,0 L1,1 L0,1 Z " fill="#FB9131" opacity="0.8980392" transform="translate(18,51)"/>
<path d="M0,0 L1,0 L1,1 L0,1 Z " fill="#FE9532" opacity="0.9647059" transform="translate(16,51)"/>
<path d="M0,0 L1,0 L1,1 L0,1 Z " fill="#F88C2F" opacity="0.85882354" transform="translate(14,51)"/>
<path d="M0,0 L1,0 L1,1 L0,1 Z " fill="#F0812D" opacity="0.7764706" transform="translate(12,51)"/>
<path d="M0,0 L1,0 L1,1 L0,1 Z " fill="#DF6827" opacity="0.79607844" transform="translate(10,51)"/>
<path d="M0,0 L1,0 L1,1 L0,1 Z " fill="#DB6125" opacity="0.9137255" transform="translate(9,51)"/>
<path d="M0,0 L1,0 L1,1 L0,1 Z " fill="#F17520" opacity="0.8117647" transform="translate(60,50)"/>
<path d="M0,0 L1,0 L1,1 L0,1 Z " fill="#FA7F1F" transform="translate(59,50)"/>
<path d="M0,0 L1,0 L1,1 L0,1 Z " fill="#E96E22" opacity="0.7607843" transform="translate(36,50)"/>
<path d="M0,0 L1,0 L1,1 L0,1 Z " fill="#DC6224" opacity="0.85882354" transform="translate(35,50)"/>
<path d="M0,0 L1,0 L1,1 L0,1 Z " fill="#E87429" opacity="0.7529412" transform="translate(26,50)"/>
<path d="M0,0 L1,0 L1,1 L0,1 Z " fill="#F78C30" opacity="0.8509804" transform="translate(25,50)"/>
<path d="M0,0 L1,0 L1,1 L0,1 Z " fill="#FF9834" transform="translate(24,50)"/>
<path d="M0,0 L1,0 L1,1 L0,1 Z " fill="#FC9233" opacity="0.9137255" transform="translate(8,50)"/>
<path d="M0,0 L1,0 L1,1 L0,1 Z " fill="#E06827" opacity="0.7882353" transform="translate(6,50)"/>
<path d="M0,0 L1,0 L1,1 L0,1 Z " fill="#DB6225" opacity="0.9607843" transform="translate(5,50)"/>
<path d="M0,0 L1,0 L1,1 L0,1 Z " fill="#DB6124" opacity="0.90588236" transform="translate(59,49)"/>
<path d="M0,0 L1,0 L1,1 L0,1 Z " fill="#F17421" opacity="0.8156863" transform="translate(57,49)"/>
<path d="M0,0 L1,0 L1,1 L0,1 Z " fill="#FA7E1E" opacity="0.99215686" transform="translate(56,49)"/>
<path d="M0,0 L1,0 L1,1 L0,1 Z " fill="#FA7E1F" transform="translate(41,49)"/>
<path d="M0,0 L1,0 L1,1 L0,1 Z " fill="#F57A20" opacity="0.89411765" transform="translate(40,49)"/>
<path d="M0,0 L1,0 L1,1 L0,1 Z " fill="#DD6424" opacity="0.81960785" transform="translate(38,49)"/>
<path d="M0,0 L1,0 L1,1 L0,1 Z " fill="#DB6125" opacity="0.99607843" transform="translate(37,49)"/>
<path d="M0,0 L1,0 L1,1 L0,1 Z " fill="#E57028" opacity="0.7529412" transform="translate(29,49)"/>
<path d="M0,0 L1,0 L1,1 L0,1 Z " fill="#FB9131" opacity="0.89411765" transform="translate(28,49)"/>
<path d="M0,0 L1,0 L1,1 L0,1 Z " fill="#FE9533" opacity="0.972549" transform="translate(5,49)"/>
<path d="M0,0 L1,0 L1,1 L0,1 Z " fill="#E06826" opacity="0.78431374" transform="translate(3,49)"/>
<path d="M0,0 L1,0 L1,1 L0,1 Z " fill="#DB6125" opacity="0.9882353" transform="translate(2,49)"/>
<path d="M0,0 L1,0 L1,1 L0,1 Z " fill="#DB6125" opacity="0.9372549" transform="translate(56,48)"/>
<path d="M0,0 L1,0 L1,1 L0,1 Z " fill="#DE6324" opacity="0.8039216" transform="translate(55,48)"/>
<path d="M0,0 L1,0 L1,1 L0,1 Z " fill="#EC6F20" opacity="0.77254903" transform="translate(53,48)"/>
<path d="M0,0 L1,0 L1,1 L0,1 Z " fill="#F47720" opacity="0.84705883" transform="translate(52,48)"/>
<path d="M0,0 L1,0 L1,1 L0,1 Z " fill="#F77C1F" opacity="0.93333334" transform="translate(50,48)"/>
<path d="M0,0 L1,0 L1,1 L0,1 Z " fill="#F97D1F" opacity="0.98039216" transform="translate(49,48)"/>
<path d="M0,0 L1,0 L1,1 L0,1 Z " fill="#FA7E1F" transform="translate(48,48)"/>
<path d="M0,0 L1,0 L1,1 L0,1 Z " fill="#F4791F" opacity="0.88235295" transform="translate(46,48)"/>
<path d="M0,0 L1,0 L1,1 L0,1 Z " fill="#EE7222" opacity="0.7882353" transform="translate(44,48)"/>
<path d="M0,0 L1,0 L1,1 L0,1 Z " fill="#DF6424" opacity="0.7921569" transform="translate(42,48)"/>
<path d="M0,0 L1,0 L1,1 L0,1 Z " fill="#DC6025" opacity="0.92156863" transform="translate(41,48)"/>
<path d="M0,0 L1,0 L1,1 L0,1 Z " fill="#EC7A2B" opacity="0.7607843" transform="translate(31,48)"/>
<path d="M0,0 L1,0 L1,1 L0,1 Z " fill="#FE9532" opacity="0.9647059" transform="translate(30,48)"/>
<path d="M0,0 L1,0 L1,1 L0,1 Z " fill="#FC9233" opacity="0.9137255" transform="translate(2,48)"/>
<path d="M0,0 L1,0 L1,1 L0,1 Z " fill="#E8752A" opacity="0.7529412" transform="translate(1,48)"/>
<path d="M0,0 L1,0 L1,1 L0,1 Z " fill="#DB6124" opacity="0.90588236" transform="translate(0,48)"/>
<path d="M0,0 L1,0 L1,1 L0,1 Z " fill="#EF802D" opacity="0.7764706" transform="translate(63,47)"/>
<path d="M0,0 L1,0 L1,1 L0,1 Z " fill="#DC6425" opacity="0.8509804" transform="translate(62,47)"/>
<path d="M0,0 L1,0 L1,1 L0,1 Z " fill="#F3852E" opacity="0.8" transform="translate(33,47)"/>
<path d="M0,0 L1,0 L1,1 L0,1 Z " fill="#FF9834" transform="translate(32,47)"/>
<path d="M0,0 L1,0 L1,1 L0,1 Z " fill="#FF9633" opacity="0.99215686" transform="translate(0,47)"/>
<path d="M0,0 L1,0 L1,1 L0,1 Z " fill="#FF9834" transform="translate(62,46)"/>
<path d="M0,0 L1,0 L1,1 L0,1 Z " fill="#F3852E" opacity="0.8" transform="translate(61,46)"/>
<path d="M0,0 L1,0 L1,1 L0,1 Z " fill="#DE6626" opacity="0.8117647" transform="translate(60,46)"/>
<path d="M0,0 L1,0 L1,1 L0,1 Z " fill="#E46D28" opacity="0.7607843" transform="translate(36,46)"/>
<path d="M0,0 L1,0 L1,1 L0,1 Z " fill="#F88D31" opacity="0.85882354" transform="translate(35,46)"/>
<path d="M0,0 L1,0 L1,1 L0,1 Z " fill="#EA7A2B" opacity="0.75686276" transform="translate(58,45)"/>
<path d="M0,0 L1,0 L1,1 L0,1 Z " fill="#DE6426" opacity="0.8156863" transform="translate(57,45)"/>
<path d="M0,0 L1,0 L1,1 L0,1 Z " fill="#DB6225" opacity="0.99215686" transform="translate(56,45)"/>
<path d="M0,0 L1,0 L1,1 L0,1 Z " fill="#DC6225" opacity="0.89411765" transform="translate(40,45)"/>
<path d="M0,0 L1,0 L1,1 L0,1 Z " fill="#F4892F" opacity="0.81960785" transform="translate(38,45)"/>
<path d="M0,0 L1,0 L1,1 L0,1 Z " fill="#FF9833" opacity="0.99607843" transform="translate(37,45)"/>
<path d="M0,0 L1,0 L1,1 L0,1 Z " fill="#FD9332" opacity="0.9372549" transform="translate(56,44)"/>
<path d="M0,0 L1,0 L1,1 L0,1 Z " fill="#F3852E" opacity="0.8039216" transform="translate(55,44)"/>
<path d="M0,0 L1,0 L1,1 L0,1 Z " fill="#E26A26" opacity="0.77254903" transform="translate(53,44)"/>
<path d="M0,0 L1,0 L1,1 L0,1 Z " fill="#DC6324" opacity="0.84705883" transform="translate(52,44)"/>
<path d="M0,0 L1,0 L1,1 L0,1 Z " fill="#DB6125" opacity="0.93333334" transform="translate(50,44)"/>
<path d="M0,0 L1,0 L1,1 L0,1 Z " fill="#DB6225" opacity="0.98039216" transform="translate(49,44)"/>
<path d="M0,0 L1,0 L1,1 L0,1 Z " fill="#DC6224" opacity="0.88235295" transform="translate(46,44)"/>
<path d="M0,0 L1,0 L1,1 L0,1 Z " fill="#E06827" opacity="0.7882353" transform="translate(44,44)"/>
<path d="M0,0 L1,0 L1,1 L0,1 Z " fill="#F3852E" opacity="0.7921569" transform="translate(42,44)"/>
<path d="M0,0 L1,0 L1,1 L0,1 Z " fill="#FC9432" opacity="0.92156863" transform="translate(41,44)"/>
<path d="M0,0 L1,0 L1,1 L0,1 Z " fill="#FF9834" transform="translate(48,43)"/>
<path d="M0,0 L1,0 L1,1 L0,1 Z " fill="#B67438" opacity="0.79607844" transform="translate(23,43)"/>
<path d="M0,0 L1,0 L1,1 L0,1 Z " fill="#5A463D" opacity="0.76862746" transform="translate(21,43)"/>
<path d="M0,0 L1,0 L1,1 L0,1 Z " fill="#403940" opacity="0.83137256" transform="translate(20,43)"/>
<path d="M0,0 L1,0 L1,1 L0,1 Z " fill="#36353F" opacity="0.8980392" transform="translate(18,43)"/>
<path d="M0,0 L1,0 L1,1 L0,1 Z " fill="#353440" opacity="0.9372549" transform="translate(17,43)"/>
<path d="M0,0 L1,0 L1,1 L0,1 Z " fill="#353540" opacity="0.9647059" transform="translate(16,43)"/>
<path d="M0,0 L1,0 L1,1 L0,1 Z " fill="#3B363F" opacity="0.85882354" transform="translate(14,43)"/>
<path d="M0,0 L1,0 L1,1 L0,1 Z " fill="#52443F" opacity="0.7764706" transform="translate(12,43)"/>
<path d="M0,0 L1,0 L1,1 L0,1 Z " fill="#B47438" opacity="0.79607844" transform="translate(10,43)"/>
<path d="M0,0 L1,0 L1,1 L0,1 Z " fill="#E88C35" opacity="0.9137255" transform="translate(9,43)"/>
<path d="M0,0 L1,0 L1,1 L0,1 Z " fill="#FE9834" transform="translate(8,43)"/>
<path d="M0,0 L1,0 L1,1 L0,1 Z " fill="#CB7F37" opacity="0.8352941" transform="translate(27,42)"/>
<path d="M0,0 L1,0 L1,1 L0,1 Z " fill="#75543C" opacity="0.7529412" transform="translate(26,42)"/>
<path d="M0,0 L1,0 L1,1 L0,1 Z " fill="#3D383F" opacity="0.8509804" transform="translate(25,42)"/>
<path d="M0,0 L1,0 L1,1 L0,1 Z " fill="#36353F" opacity="0.9137255" transform="translate(8,42)"/>
<path d="M0,0 L1,0 L1,1 L0,1 Z " fill="#AD6E38" opacity="0.7882353" transform="translate(6,42)"/>
<path d="M0,0 L1,0 L1,1 L0,1 Z " fill="#F59434" opacity="0.9607843" transform="translate(5,42)"/>
<path d="M0,0 L1,0 L1,1 L0,1 Z " fill="#F09034" opacity="0.9411765" transform="translate(30,41)"/>
<path d="M0,0 L1,0 L1,1 L0,1 Z " fill="#845C3A" opacity="0.7529412" transform="translate(29,41)"/>
<path d="M0,0 L1,0 L1,1 L0,1 Z " fill="#373540" opacity="0.89411765" transform="translate(28,41)"/>
<path d="M0,0 L1,0 L1,1 L0,1 Z " fill="#343441" opacity="0.972549" transform="translate(5,41)"/>
<path d="M0,0 L1,0 L1,1 L0,1 Z " fill="#AA6E39" opacity="0.78431374" transform="translate(3,41)"/>
<path d="M0,0 L1,0 L1,1 L0,1 Z " fill="#FB9733" opacity="0.9882353" transform="translate(2,41)"/>
<path d="M0,0 L1,0 L1,1 L0,1 Z " fill="#D88536" opacity="0.8666667" transform="translate(32,40)"/>
<path d="M0,0 L1,0 L1,1 L0,1 Z " fill="#5F483E" opacity="0.7607843" transform="translate(31,40)"/>
<path d="M0,0 L1,0 L1,1 L0,1 Z " fill="#353540" opacity="0.9647059" transform="translate(30,40)"/>
<path d="M0,0 L1,0 L1,1 L0,1 Z " fill="#76553C" opacity="0.7529412" transform="translate(1,40)"/>
<path d="M0,0 L1,0 L1,1 L0,1 Z " fill="#E68B35" opacity="0.90588236" transform="translate(0,40)"/>
<path d="M0,0 L1,0 L1,1 L0,1 Z " fill="#52433E" opacity="0.7764706" transform="translate(63,39)"/>
<path d="M0,0 L1,0 L1,1 L0,1 Z " fill="#D18136" opacity="0.8509804" transform="translate(62,39)"/>
<path d="M0,0 L1,0 L1,1 L0,1 Z " fill="#FE9834" transform="translate(35,39)"/>
<path d="M0,0 L1,0 L1,1 L0,1 Z " fill="#BA7538" opacity="0.8039216" transform="translate(34,39)"/>
<path d="M0,0 L1,0 L1,1 L0,1 Z " fill="#483E3E" opacity="0.8" transform="translate(33,39)"/>
<path d="M0,0 L1,0 L1,1 L0,1 Z " fill="#353540" opacity="0.7176471" transform="translate(23,39)"/>
<path d="M0,0 L1,0 L1,1 L0,1 Z " fill="#353540" opacity="0.3764706" transform="translate(21,39)"/>
<path d="M0,0 L1,0 L1,1 L0,1 Z " fill="#35353E" opacity="0.22352941" transform="translate(20,39)"/>
<path d="M0,0 L1,0 L1,1 L0,1 Z " fill="#33333B" opacity="0.11764706" transform="translate(18,39)"/>
<path d="M0,0 L1,0 L1,1 L0,1 Z " fill="#2F2F42" opacity="0.043137256" transform="translate(16,39)"/>
<path d="M0,0 L1,0 L1,1 L0,1 Z " fill="#32323D" opacity="0.18039216" transform="translate(14,39)"/>
<path d="M0,0 L1,0 L1,1 L0,1 Z " fill="#343440" opacity="0.34509805" transform="translate(12,39)"/>
<path d="M0,0 L1,0 L1,1 L0,1 Z " fill="#343440" opacity="0.7137255" transform="translate(10,39)"/>
<path d="M0,0 L1,0 L1,1 L0,1 Z " fill="#353540" opacity="0.90588236" transform="translate(9,39)"/>
<path d="M0,0 L1,0 L1,1 L0,1 Z " fill="#343440" opacity="0.99215686" transform="translate(0,39)"/>
<path d="M0,0 L1,0 L1,1 L0,1 Z " fill="#473D40" opacity="0.8" transform="translate(61,38)"/>
<path d="M0,0 L1,0 L1,1 L0,1 Z " fill="#BE7937" opacity="0.8117647" transform="translate(60,38)"/>
<path d="M0,0 L1,0 L1,1 L0,1 Z " fill="#FD9734" transform="translate(59,38)"/>
<path d="M0,0 L1,0 L1,1 L0,1 Z " fill="#8F613B" opacity="0.7607843" transform="translate(36,38)"/>
<path d="M0,0 L1,0 L1,1 L0,1 Z " fill="#3B3840" opacity="0.85882354" transform="translate(35,38)"/>
<path d="M0,0 L1,0 L1,1 L0,1 Z " fill="#35353F" opacity="0.49019608" transform="translate(26,38)"/>
<path d="M0,0 L1,0 L1,1 L0,1 Z " fill="#34343E" opacity="0.003921569" transform="translate(24,38)"/>
<path d="M0,0 L1,0 L1,1 L0,1 Z " fill="#343441" opacity="0.38431373" transform="translate(7,38)"/>
<path d="M0,0 L1,0 L1,1 L0,1 Z " fill="#343440" opacity="0.6901961" transform="translate(6,38)"/>
<path d="M0,0 L1,0 L1,1 L0,1 Z " fill="#343440" opacity="0.9607843" transform="translate(5,38)"/>
<path d="M0,0 L1,0 L1,1 L0,1 Z " fill="#644C3D" opacity="0.75686276" transform="translate(58,37)"/>
<path d="M0,0 L1,0 L1,1 L0,1 Z " fill="#C17937" opacity="0.8156863" transform="translate(57,37)"/>
<path d="M0,0 L1,0 L1,1 L0,1 Z " fill="#FC9634" opacity="0.99215686" transform="translate(56,37)"/>
<path d="M0,0 L1,0 L1,1 L0,1 Z " fill="#FE9834" transform="translate(41,37)"/>
<path d="M0,0 L1,0 L1,1 L0,1 Z " fill="#895E3A" opacity="0.75686276" transform="translate(39,37)"/>
<path d="M0,0 L1,0 L1,1 L0,1 Z " fill="#423A3F" opacity="0.81960785" transform="translate(38,37)"/>
<path d="M0,0 L1,0 L1,1 L0,1 Z " fill="#343440" opacity="0.99607843" transform="translate(37,37)"/>
<path d="M0,0 L1,0 L1,1 L0,1 Z " fill="#343440" opacity="0.9372549" transform="translate(30,37)"/>
<path d="M0,0 L1,0 L1,1 L0,1 Z " fill="#303040" opacity="0.1254902" transform="translate(28,37)"/>
<path d="M0,0 L1,0 L1,1 L0,1 Z " fill="#323240" opacity="0.29803923" transform="translate(4,37)"/>
<path d="M0,0 L1,0 L1,1 L0,1 Z " fill="#353541" opacity="0.6784314" transform="translate(3,37)"/>
<path d="M0,0 L1,0 L1,1 L0,1 Z " fill="#343441" opacity="0.9882353" transform="translate(2,37)"/>
<path d="M0,0 L1,0 L1,1 L0,1 Z " fill="#353541" transform="translate(0,37)"/>
<path d="M0,0 L1,0 L1,1 L0,1 Z " fill="#453D3E" opacity="0.8039216" transform="translate(55,36)"/>
<path d="M0,0 L1,0 L1,1 L0,1 Z " fill="#A16939" opacity="0.77254903" transform="translate(53,36)"/>
<path d="M0,0 L1,0 L1,1 L0,1 Z " fill="#D08136" opacity="0.84705883" transform="translate(52,36)"/>
<path d="M0,0 L1,0 L1,1 L0,1 Z " fill="#EE9035" opacity="0.93333334" transform="translate(50,36)"/>
<path d="M0,0 L1,0 L1,1 L0,1 Z " fill="#F99534" opacity="0.98039216" transform="translate(49,36)"/>
<path d="M0,0 L1,0 L1,1 L0,1 Z " fill="#FE9834" transform="translate(48,36)"/>
<path d="M0,0 L1,0 L1,1 L0,1 Z " fill="#DF8835" opacity="0.88235295" transform="translate(46,36)"/>
<path d="M0,0 L1,0 L1,1 L0,1 Z " fill="#AD6E38" opacity="0.7882353" transform="translate(44,36)"/>
<path d="M0,0 L1,0 L1,1 L0,1 Z " fill="#493F3F" opacity="0.7921569" transform="translate(42,36)"/>
<path d="M0,0 L1,0 L1,1 L0,1 Z " fill="#353540" opacity="0.92156863" transform="translate(41,36)"/>
<path d="M0,0 L1,0 L1,1 L0,1 Z " fill="#343440" opacity="0.8392157" transform="translate(32,36)"/>
<path d="M0,0 L1,0 L1,1 L0,1 Z " fill="#343440" opacity="0.043137256" transform="translate(30,36)"/>
<path d="M0,0 L1,0 L1,1 L0,1 Z " fill="#31313B" opacity="0.101960786" transform="translate(2,36)"/>
<path d="M0,0 L1,0 L1,1 L0,1 Z " fill="#343440" opacity="0.49803922" transform="translate(1,36)"/>
<path d="M0,0 L1,0 L1,1 L0,1 Z " fill="#33333F" opacity="0.34901962" transform="translate(63,35)"/>
<path d="M0,0 L1,0 L1,1 L0,1 Z " fill="#343441" opacity="0.8156863" transform="translate(62,35)"/>
<path d="M0,0 L1,0 L1,1 L0,1 Z " fill="#343440" opacity="0.7294118" transform="translate(34,35)"/>
<path d="M0,0 L1,0 L1,1 L0,1 Z " fill="#34343F" opacity="0.007843138" transform="translate(32,35)"/>
<path d="M0,0 L1,0 L1,1 L0,1 Z " fill="#343441" opacity="0.015686275" transform="translate(0,35)"/>
<path d="M0,0 L1,0 L1,1 L0,1 Z " fill="#353540" opacity="0.28235295" transform="translate(61,34)"/>
<path d="M0,0 L1,0 L1,1 L0,1 Z " fill="#343440" opacity="0.74509805" transform="translate(60,34)"/>
<path d="M0,0 L1,0 L1,1 L0,1 Z " fill="#343440" opacity="0.9137255" transform="translate(37,34)"/>
<path d="M0,0 L1,0 L1,1 L0,1 Z " fill="#33333E" opacity="0.1764706" transform="translate(35,34)"/>
<path d="M0,0 L1,0 L1,1 L0,1 Z " fill="#333341" opacity="0.43137255" transform="translate(58,33)"/>
<path d="M0,0 L1,0 L1,1 L0,1 Z " fill="#343441" opacity="0.7529412" transform="translate(57,33)"/>
<path d="M0,0 L1,0 L1,1 L0,1 Z " fill="#343441" opacity="0.5686275" transform="translate(39,33)"/>
<path d="M0,0 L1,0 L1,1 L0,1 Z " fill="#35353D" opacity="0.011764706" transform="translate(37,33)"/>
<path d="M0,0 L1,0 L1,1 L0,1 Z " fill="#33333F" opacity="0.27058825" transform="translate(55,32)"/>
<path d="M0,0 L1,0 L1,1 L0,1 Z " fill="#353540" opacity="0.6431373" transform="translate(53,32)"/>
<path d="M0,0 L1,0 L1,1 L0,1 Z " fill="#353540" opacity="0.8117647" transform="translate(52,32)"/>
<path d="M0,0 L1,0 L1,1 L0,1 Z " fill="#343440" opacity="0.92941177" transform="translate(50,32)"/>
<path d="M0,0 L1,0 L1,1 L0,1 Z " fill="#343440" opacity="0.98039216" transform="translate(49,32)"/>
<path d="M0,0 L1,0 L1,1 L0,1 Z " fill="#343441" opacity="0.9411765" transform="translate(47,32)"/>
<path d="M0,0 L1,0 L1,1 L0,1 Z " fill="#343440" opacity="0.7882353" transform="translate(45,32)"/>
<path d="M0,0 L1,0 L1,1 L0,1 Z " fill="#343440" opacity="0.49803922" transform="translate(43,32)"/>
<path d="M0,0 L1,0 L1,1 L0,1 Z " fill="#2C2C42" opacity="0.09019608" transform="translate(41,32)"/>
<path d="M0,0 L1,0 L1,1 L0,1 Z " fill="#353541" opacity="0.007843138" transform="translate(48,31)"/>
</svg>
