<?xml version="1.0" encoding="UTF-8"?>
<!-- Generator: visioncortex VTracer 0.6.4 -->
<svg version="1.1" xmlns="http://www.w3.org/2000/svg" width="64" height="64">
<path d="M0,0 L48,0 L48,1 L52,1 L52,2 L54,2 L54,4 L55,4 L55,8 L56,8 L56,56 L55,56 L55,60 L54,60 L54,62 L52,62 L52,63 L48,63 L48,64 L0,64 L0,63 L-4,63 L-4,62 L-6,62 L-6,60 L-7,60 L-7,56 L-8,56 L-8,8 L-7,8 L-7,4 L-6,4 L-6,2 L-4,2 L-4,1 L0,1 Z M-3,4 L-3,5 L0,5 L0,4 Z M48,4 L48,5 L51,5 L51,4 Z M-4,5 L-4,8 L-3,8 L-3,5 Z M51,5 L51,8 L52,8 L52,5 Z M-3,8 L-3,9 L0,9 L0,8 Z M48,8 L48,9 L51,9 L51,8 Z M-4,9 L-4,12 L-3,12 L-3,9 Z M51,9 L51,12 L52,12 L52,9 Z M3,12 L3,13 L2,13 L2,19 L3,19 L3,20 L9,20 L9,19 L10,19 L10,13 L9,13 L9,12 Z M39,12 L39,13 L38,13 L38,19 L39,19 L39,20 L45,20 L45,19 L46,19 L46,13 L45,13 L45,12 Z M20,20 L20,21 L28,21 L28,20 Z M18,21 L18,22 L17,22 L17,24 L18,24 L18,23 L19,23 L19,22 L20,22 L20,21 Z M28,21 L28,22 L29,22 L29,23 L30,23 L30,24 L31,24 L31,22 L30,22 L30,21 Z M16,24 L16,34 L17,34 L17,35 L18,35 L18,39 L19,39 L19,37 L20,37 L20,33 L19,33 L19,32 L18,32 L18,31 L17,31 L17,24 Z M31,24 L31,31 L30,31 L30,32 L29,32 L29,33 L28,33 L28,37 L29,37 L29,39 L30,39 L30,35 L31,35 L31,34 L32,34 L32,24 Z M17,39 L17,41 L16,41 L16,48 L18,48 L18,47 L17,47 L17,46 L18,46 L18,45 L17,45 L17,42 L18,42 L18,39 Z M30,39 L30,42 L31,42 L31,45 L30,45 L30,46 L31,46 L31,47 L30,47 L30,48 L32,48 L32,41 L31,41 L31,39 Z M3,47 L3,48 L2,48 L2,54 L3,54 L3,55 L9,55 L9,54 L10,54 L10,48 L9,48 L9,47 Z M39,47 L39,48 L38,48 L38,54 L39,54 L39,55 L45,55 L45,54 L46,54 L46,48 L45,48 L45,47 Z M-4,56 L-4,59 L-3,59 L-3,56 Z M51,56 L51,59 L52,59 L52,56 Z M-3,59 L-3,60 L0,60 L0,59 Z M48,59 L48,60 L51,60 L51,59 Z M4,13 L8,13 L8,14 L9,14 L9,18 L8,18 L8,19 L4,19 L4,18 L3,18 L3,14 L4,14 Z M40,13 L44,13 L44,14 L45,14 L45,18 L44,18 L44,19 L40,19 L40,18 L39,18 L39,14 L40,14 Z M4,48 L8,48 L8,49 L9,49 L9,53 L8,53 L8,54 L4,54 L4,53 L3,53 L3,49 L4,49 Z M40,48 L44,48 L44,49 L45,49 L45,53 L44,53 L44,54 L40,54 L40,53 L39,53 L39,49 L40,49 Z " fill="#E54341" transform="translate(8,0)"/>
<path d="M0,0 L48,0 L48,1 L52,1 L52,2 L54,2 L54,4 L55,4 L55,8 L56,8 L56,56 L55,56 L55,60 L54,60 L54,62 L52,62 L52,63 L48,63 L48,64 L0,64 L0,63 L-4,63 L-4,62 L-6,62 L-6,60 L-7,60 L-7,56 L-8,56 L-8,8 L-7,8 L-7,4 L-6,4 L-6,2 L-4,2 L-4,1 L0,1 Z M-3,4 L-3,5 L-4,5 L-4,59 L-3,59 L-3,60 L51,60 L51,59 L52,59 L52,5 L51,5 L51,4 Z " fill="#353541" transform="translate(8,0)"/>
<path d="M0,0 L8,0 L8,1 L9,1 L9,2 L10,2 L10,3 L11,3 L11,10 L10,10 L10,11 L9,11 L9,12 L8,12 L8,16 L9,16 L9,18 L10,18 L10,21 L11,21 L11,24 L10,24 L10,25 L-2,25 L-2,24 L-3,24 L-3,21 L-2,21 L-2,18 L-1,18 L-1,16 L0,16 L0,12 L-1,12 L-1,11 L-2,11 L-2,10 L-3,10 L-3,3 L-2,3 L-2,2 L-1,2 L-1,1 L0,1 Z " fill="#781A19" transform="translate(28,21)"/>
<path d="M0,0 L48,0 L48,1 L51,1 L51,4 L-3,4 L-3,1 L0,1 Z M-4,4 L-3,4 L-3,5 L-4,5 Z M51,4 L52,4 L52,5 L51,5 Z " fill="#F17575" transform="translate(8,4)"/>
<path d="M0,0 L4,0 L4,1 L5,1 L5,5 L4,5 L4,6 L0,6 L0,5 L-1,5 L-1,1 L0,1 Z " fill="#BC2423" transform="translate(48,48)"/>
<path d="M0,0 L4,0 L4,1 L5,1 L5,5 L4,5 L4,6 L0,6 L0,5 L-1,5 L-1,1 L0,1 Z " fill="#BC2423" transform="translate(12,48)"/>
<path d="M0,0 L4,0 L4,1 L5,1 L5,5 L4,5 L4,6 L0,6 L0,5 L-1,5 L-1,1 L0,1 Z " fill="#BC2423" transform="translate(48,13)"/>
<path d="M0,0 L4,0 L4,1 L5,1 L5,5 L4,5 L4,6 L0,6 L0,5 L-1,5 L-1,1 L0,1 Z " fill="#BC2423" transform="translate(12,13)"/>
<path d="M0,0 L14,0 L14,1 L13,1 L13,2 L1,2 L1,1 L0,1 Z " fill="#F17575" transform="translate(25,46)"/>
<path d="M0,0 L1,0 L1,1 L0,1 Z " fill="#EE6A6A" opacity="0.8745098" transform="translate(25,33)"/>
<path d="M0,0 L1,0 L1,1 L0,1 Z M-1,1 L0,1 L0,2 L-1,2 Z M-2,2 L-1,2 L-1,3 L-2,3 Z M-3,3 L-2,3 L-2,4 L-3,4 Z " fill="#781A19" transform="translate(28,21)"/>
<path d="M0,0 L1,0 L1,1 L0,1 Z " fill="#771918" opacity="0.98039216" transform="translate(39,27)"/>
<path d="M0,0 L1,0 L1,1 L0,1 Z " fill="#781918" opacity="0.9411765" transform="translate(39,28)"/>
<path d="M0,0 L2,0 L2,1 L0,1 Z " fill="#771A18" opacity="0.9647059" transform="translate(31,20)"/>
<path d="M0,0 L1,0 L1,1 L0,1 Z " fill="#7A1A19" opacity="0.8784314" transform="translate(24,28)"/>
<path d="M0,0 L1,0 L1,1 L0,1 Z " fill="#343440" opacity="0.9019608" transform="translate(6,63)"/>
<path d="M0,0 L1,0 L1,1 L0,1 Z " fill="#BB2221" opacity="0.92156863" transform="translate(49,47)"/>
<path d="M0,0 L1,0 L1,1 L0,1 Z " fill="#BB2221" opacity="0.92156863" transform="translate(13,47)"/>
<path d="M0,0 L1,0 L1,1 L0,1 Z " fill="#F06D6C" opacity="0.8901961" transform="translate(38,33)"/>
<path d="M0,0 L1,0 L1,1 L0,1 Z " fill="#BB2221" opacity="0.92156863" transform="translate(49,12)"/>
<path d="M0,0 L1,0 L1,1 L0,1 Z " fill="#BB2221" opacity="0.92156863" transform="translate(13,12)"/>
<path d="M0,0 L1,0 L1,1 L0,1 Z " fill="#343440" opacity="0.9019608" transform="translate(63,6)"/>
<path d="M0,0 L1,0 L1,1 L0,1 Z " fill="#343441" opacity="0.9098039" transform="translate(0,6)"/>
<path d="M0,0 L1,0 L1,1 L0,1 Z " fill="#343441" opacity="0.9098039" transform="translate(6,0)"/>
<path d="M0,0 L1,0 L1,1 L0,1 Z M1,1 L2,1 L2,2 L1,2 Z " fill="#33333F" opacity="0.4117647" transform="translate(1,61)"/>
<path d="M0,0 L1,0 L1,1 L0,1 Z M-1,1 L0,1 L0,2 L-1,2 Z " fill="#BC2423" transform="translate(48,48)"/>
<path d="M0,0 L1,0 L1,1 L0,1 Z M-1,1 L0,1 L0,2 L-1,2 Z " fill="#BC2423" transform="translate(12,48)"/>
<path d="M0,0 L1,0 L1,1 L0,1 Z " fill="#F17575" transform="translate(25,46)"/>
<path d="M0,0 L1,0 L1,1 L0,1 Z " fill="#E75C5B" opacity="0.76862746" transform="translate(39,31)"/>
<path d="M0,0 L1,0 L1,1 L0,1 Z " fill="#E85857" opacity="0.75686276" transform="translate(24,31)"/>
<path d="M0,0 L1,0 L1,1 L0,1 Z M-1,1 L0,1 L0,2 L-1,2 Z " fill="#BC2423" transform="translate(48,13)"/>
<path d="M0,0 L1,0 L1,1 L0,1 Z M-1,1 L0,1 L0,2 L-1,2 Z " fill="#BC2423" transform="translate(12,13)"/>
<path d="M0,0 L1,0 L1,1 L0,1 Z M-1,1 L0,1 L0,2 L-1,2 Z " fill="#343440" opacity="0.40392157" transform="translate(2,1)"/>
<path d="M0,0 L1,0 L1,1 L0,1 Z " fill="#30303C" opacity="0.08235294" transform="translate(60,63)"/>
<path d="M0,0 L1,0 L1,1 L0,1 Z " fill="#343440" opacity="0.48235294" transform="translate(4,63)"/>
<path d="M0,0 L1,0 L1,1 L0,1 Z " fill="#30303C" opacity="0.08235294" transform="translate(63,60)"/>
<path d="M0,0 L1,0 L1,1 L0,1 Z " fill="#353540" opacity="0.09411765" transform="translate(0,60)"/>
<path d="M0,0 L1,0 L1,1 L0,1 Z " fill="#D74140" opacity="0.9411765" transform="translate(7,59)"/>
<path d="M0,0 L1,0 L1,1 L0,1 Z M1,1 L2,1 L2,2 L1,2 Z " fill="#4B3540" opacity="0.78431374" transform="translate(4,58)"/>
<path d="M0,0 L1,0 L1,1 L0,1 Z " fill="#BC2322" opacity="0.9137255" transform="translate(49,54)"/>
<path d="M0,0 L1,0 L1,1 L0,1 Z " fill="#BC2322" opacity="0.9137255" transform="translate(13,54)"/>
<path d="M0,0 L1,0 L1,1 L0,1 Z M-1,1 L0,1 L0,2 L-1,2 Z " fill="#E13F3D" opacity="0.92156863" transform="translate(53,53)"/>
<path d="M0,0 L1,0 L1,1 L0,1 Z M-1,1 L0,1 L0,2 L-1,2 Z " fill="#E13F3D" opacity="0.92156863" transform="translate(17,53)"/>
<path d="M0,0 L1,0 L1,1 L0,1 Z " fill="#BC2322" opacity="0.9137255" transform="translate(53,50)"/>
<path d="M0,0 L1,0 L1,1 L0,1 Z " fill="#BB2221" opacity="0.92156863" transform="translate(46,50)"/>
<path d="M0,0 L1,0 L1,1 L0,1 Z " fill="#BC2322" opacity="0.9137255" transform="translate(17,50)"/>
<path d="M0,0 L1,0 L1,1 L0,1 Z " fill="#BB2221" opacity="0.92156863" transform="translate(10,50)"/>
<path d="M0,0 L1,0 L1,1 L0,1 Z M-1,1 L0,1 L0,2 L-1,2 Z " fill="#E03D3C" opacity="0.88235295" transform="translate(47,47)"/>
<path d="M0,0 L1,0 L1,1 L0,1 Z M-1,1 L0,1 L0,2 L-1,2 Z " fill="#E03D3C" opacity="0.88235295" transform="translate(11,47)"/>
<path d="M0,0 L1,0 L1,1 L0,1 Z " fill="#781817" opacity="0.9254902" transform="translate(25,45)"/>
<path d="M0,0 L1,0 L1,1 L0,1 Z " fill="#7D1A1A" opacity="0.84313726" transform="translate(39,43)"/>
<path d="M0,0 L1,0 L1,1 L0,1 Z " fill="#801C19" opacity="0.8156863" transform="translate(24,43)"/>
<path d="M0,0 L1,0 L1,1 L0,1 Z " fill="#771A18" opacity="0.9647059" transform="translate(25,41)"/>
<path d="M0,0 L1,0 L1,1 L0,1 Z " fill="#891F1F" opacity="0.77254903" transform="translate(38,40)"/>
<path d="M0,0 L1,0 L1,1 L0,1 Z " fill="#7A1A18" opacity="0.8862745" transform="translate(37,38)"/>
<path d="M0,0 L1,0 L1,1 L0,1 Z " fill="#7A1A19" opacity="0.88235295" transform="translate(26,38)"/>
<path d="M0,0 L1,0 L1,1 L0,1 Z " fill="#852221" opacity="0.7882353" transform="translate(36,35)"/>
<path d="M0,0 L1,0 L1,1 L0,1 Z " fill="#7D1B1A" opacity="0.84313726" transform="translate(24,26)"/>
<path d="M0,0 L1,0 L1,1 L0,1 Z " fill="#871F1D" opacity="0.7764706" transform="translate(39,25)"/>
<path d="M0,0 L1,0 L1,1 L0,1 Z M-1,1 L0,1 L0,2 L-1,2 Z " fill="#DB3D3B" opacity="0.9411765" transform="translate(26,21)"/>
<path d="M0,0 L1,0 L1,1 L0,1 Z " fill="#7A1A19" opacity="0.88235295" transform="translate(30,20)"/>
<path d="M0,0 L1,0 L1,1 L0,1 Z " fill="#BC2322" opacity="0.9137255" transform="translate(49,19)"/>
<path d="M0,0 L1,0 L1,1 L0,1 Z " fill="#BC2322" opacity="0.9137255" transform="translate(13,19)"/>
<path d="M0,0 L1,0 L1,1 L0,1 Z M-1,1 L0,1 L0,2 L-1,2 Z " fill="#E13F3D" opacity="0.92156863" transform="translate(53,18)"/>
<path d="M0,0 L1,0 L1,1 L0,1 Z M-1,1 L0,1 L0,2 L-1,2 Z " fill="#E13F3D" opacity="0.92156863" transform="translate(17,18)"/>
<path d="M0,0 L1,0 L1,1 L0,1 Z " fill="#BC2322" opacity="0.9137255" transform="translate(53,15)"/>
<path d="M0,0 L1,0 L1,1 L0,1 Z " fill="#BB2221" opacity="0.92156863" transform="translate(46,15)"/>
<path d="M0,0 L1,0 L1,1 L0,1 Z " fill="#BC2322" opacity="0.9137255" transform="translate(17,15)"/>
<path d="M0,0 L1,0 L1,1 L0,1 Z " fill="#BB2221" opacity="0.92156863" transform="translate(10,15)"/>
<path d="M0,0 L1,0 L1,1 L0,1 Z M-1,1 L0,1 L0,2 L-1,2 Z " fill="#E03D3C" opacity="0.88235295" transform="translate(47,12)"/>
<path d="M0,0 L1,0 L1,1 L0,1 Z M-1,1 L0,1 L0,2 L-1,2 Z " fill="#E03D3C" opacity="0.88235295" transform="translate(11,12)"/>
<path d="M0,0 L1,0 L1,1 L0,1 Z " fill="#E74543" opacity="0.81960785" transform="translate(59,10)"/>
<path d="M0,0 L1,0 L1,1 L0,1 Z " fill="#E64643" opacity="0.827451" transform="translate(4,10)"/>
<path d="M0,0 L1,0 L1,1 L0,1 Z " fill="#E64542" opacity="0.827451" transform="translate(6,8)"/>
<path d="M0,0 L1,0 L1,1 L0,1 Z " fill="#E06F70" opacity="0.9372549" transform="translate(59,7)"/>
<path d="M0,0 L1,0 L1,1 L0,1 Z " fill="#E26E70" opacity="0.9411765" transform="translate(4,7)"/>
<path d="M0,0 L1,0 L1,1 L0,1 Z " fill="#34343F" opacity="0.4745098" transform="translate(63,4)"/>
<path d="M0,0 L1,0 L1,1 L0,1 Z " fill="#E26E70" opacity="0.9411765" transform="translate(7,4)"/>
<path d="M0,0 L1,0 L1,1 L0,1 Z M-1,1 L0,1 L0,2 L-1,2 Z " fill="#4B3B47" opacity="0.7882353" transform="translate(5,4)"/>
<path d="M0,0 L1,0 L1,1 L0,1 Z " fill="#333340" opacity="0.4862745" transform="translate(0,4)"/>
<path d="M0,0 L1,0 L1,1 L0,1 Z " fill="#343440" opacity="0.96862745" transform="translate(62,3)"/>
<path d="M0,0 L1,0 L1,1 L0,1 Z " fill="#2E2E3A" opacity="0.08627451" transform="translate(60,0)"/>
<path d="M0,0 L1,0 L1,1 L0,1 Z " fill="#333340" opacity="0.4862745" transform="translate(4,0)"/>
<path d="M0,0 L1,0 L1,1 L0,1 Z " fill="#34343F" opacity="0.4745098" transform="translate(59,63)"/>
<path d="M0,0 L1,0 L1,1 L0,1 Z " fill="#343441" opacity="0.7411765" transform="translate(58,63)"/>
<path d="M0,0 L1,0 L1,1 L0,1 Z " fill="#343440" opacity="0.8980392" transform="translate(57,63)"/>
<path d="M0,0 L1,0 L1,1 L0,1 Z " fill="#353540" opacity="0.9843137" transform="translate(56,63)"/>
<path d="M0,0 L1,0 L1,1 L0,1 Z " fill="#343441" opacity="0.9882353" transform="translate(7,63)"/>
<path d="M0,0 L1,0 L1,1 L0,1 Z " fill="#343440" opacity="0.7490196" transform="translate(5,63)"/>
<path d="M0,0 L1,0 L1,1 L0,1 Z " fill="#2C2C42" opacity="0.09019608" transform="translate(3,63)"/>
<path d="M0,0 L1,0 L1,1 L0,1 Z " fill="#35353F" opacity="0.39607844" transform="translate(61,62)"/>
<path d="M0,0 L1,0 L1,1 L0,1 Z " fill="#353540" opacity="0.9647059" transform="translate(60,62)"/>
<path d="M0,0 L1,0 L1,1 L0,1 Z " fill="#343440" opacity="0.96862745" transform="translate(3,62)"/>
<path d="M0,0 L1,0 L1,1 L0,1 Z " fill="#33333F" opacity="0.003921569" transform="translate(1,62)"/>
<path d="M0,0 L1,0 L1,1 L0,1 Z " fill="#333340" opacity="0.39215687" transform="translate(62,61)"/>
<path d="M0,0 L1,0 L1,1 L0,1 Z " fill="#343440" opacity="0.9607843" transform="translate(62,60)"/>
<path d="M0,0 L1,0 L1,1 L0,1 Z " fill="#343440" opacity="0.96862745" transform="translate(1,60)"/>
<path d="M0,0 L1,0 L1,1 L0,1 Z " fill="#34343F" opacity="0.4745098" transform="translate(63,59)"/>
<path d="M0,0 L1,0 L1,1 L0,1 Z " fill="#493540" opacity="0.7882353" transform="translate(58,59)"/>
<path d="M0,0 L1,0 L1,1 L0,1 Z " fill="#B33E40" opacity="0.8235294" transform="translate(57,59)"/>
<path d="M0,0 L1,0 L1,1 L0,1 Z " fill="#D7403F" opacity="0.9372549" transform="translate(56,59)"/>
<path d="M0,0 L1,0 L1,1 L0,1 Z " fill="#B33F40" opacity="0.827451" transform="translate(6,59)"/>
<path d="M0,0 L1,0 L1,1 L0,1 Z " fill="#35353F" opacity="0.49019608" transform="translate(0,59)"/>
<path d="M0,0 L1,0 L1,1 L0,1 Z " fill="#343440" opacity="0.74509805" transform="translate(63,58)"/>
<path d="M0,0 L1,0 L1,1 L0,1 Z " fill="#493640" opacity="0.7921569" transform="translate(59,58)"/>
<path d="M0,0 L1,0 L1,1 L0,1 Z " fill="#E44240" transform="translate(58,58)"/>
<path d="M0,0 L1,0 L1,1 L0,1 Z " fill="#E44240" transform="translate(5,58)"/>
<path d="M0,0 L1,0 L1,1 L0,1 Z " fill="#343440" opacity="0.7607843" transform="translate(0,58)"/>
<path d="M0,0 L1,0 L1,1 L0,1 Z " fill="#343440" opacity="0.8980392" transform="translate(63,57)"/>
<path d="M0,0 L1,0 L1,1 L0,1 Z " fill="#B13C40" opacity="0.8235294" transform="translate(59,57)"/>
<path d="M0,0 L1,0 L1,1 L0,1 Z " fill="#B63E40" opacity="0.83137256" transform="translate(4,57)"/>
<path d="M0,0 L1,0 L1,1 L0,1 Z " fill="#343441" opacity="0.9098039" transform="translate(0,57)"/>
<path d="M0,0 L1,0 L1,1 L0,1 Z " fill="#343440" opacity="0.99215686" transform="translate(63,56)"/>
<path d="M0,0 L1,0 L1,1 L0,1 Z " fill="#DC4140" opacity="0.9647059" transform="translate(59,56)"/>
<path d="M0,0 L1,0 L1,1 L0,1 Z " fill="#DD413F" opacity="0.96862745" transform="translate(4,56)"/>
<path d="M0,0 L1,0 L1,1 L0,1 Z " fill="#343440" opacity="0.99215686" transform="translate(0,56)"/>
<path d="M0,0 L1,0 L1,1 L0,1 Z " fill="#C42826" opacity="0.77254903" transform="translate(51,54)"/>
<path d="M0,0 L1,0 L1,1 L0,1 Z " fill="#BC2322" opacity="0.9098039" transform="translate(50,54)"/>
<path d="M0,0 L1,0 L1,1 L0,1 Z " fill="#C32626" opacity="0.7764706" transform="translate(48,54)"/>
<path d="M0,0 L1,0 L1,1 L0,1 Z " fill="#E03F3B" opacity="0.90588236" transform="translate(47,54)"/>
<path d="M0,0 L1,0 L1,1 L0,1 Z " fill="#C42826" opacity="0.77254903" transform="translate(15,54)"/>
<path d="M0,0 L1,0 L1,1 L0,1 Z " fill="#BC2322" opacity="0.9098039" transform="translate(14,54)"/>
<path d="M0,0 L1,0 L1,1 L0,1 Z " fill="#C32626" opacity="0.7764706" transform="translate(12,54)"/>
<path d="M0,0 L1,0 L1,1 L0,1 Z " fill="#E03F3B" opacity="0.90588236" transform="translate(11,54)"/>
<path d="M0,0 L1,0 L1,1 L0,1 Z " fill="#BC2322" opacity="0.9137255" transform="translate(52,53)"/>
<path d="M0,0 L1,0 L1,1 L0,1 Z " fill="#BC2322" opacity="0.9372549" transform="translate(47,53)"/>
<path d="M0,0 L1,0 L1,1 L0,1 Z " fill="#DF3E3C" opacity="0.9019608" transform="translate(46,53)"/>
<path d="M0,0 L1,0 L1,1 L0,1 Z " fill="#BC2322" opacity="0.9137255" transform="translate(16,53)"/>
<path d="M0,0 L1,0 L1,1 L0,1 Z " fill="#BC2322" opacity="0.9372549" transform="translate(11,53)"/>
<path d="M0,0 L1,0 L1,1 L0,1 Z " fill="#DF3E3C" opacity="0.9019608" transform="translate(10,53)"/>
<path d="M0,0 L1,0 L1,1 L0,1 Z " fill="#C42826" opacity="0.77254903" transform="translate(53,52)"/>
<path d="M0,0 L1,0 L1,1 L0,1 Z " fill="#C22726" opacity="0.78039217" transform="translate(46,52)"/>
<path d="M0,0 L1,0 L1,1 L0,1 Z " fill="#C42826" opacity="0.77254903" transform="translate(17,52)"/>
<path d="M0,0 L1,0 L1,1 L0,1 Z " fill="#C22726" opacity="0.78039217" transform="translate(10,52)"/>
<path d="M0,0 L1,0 L1,1 L0,1 Z " fill="#BC2322" opacity="0.9098039" transform="translate(53,51)"/>
<path d="M0,0 L1,0 L1,1 L0,1 Z " fill="#BB2221" opacity="0.92156863" transform="translate(46,51)"/>
<path d="M0,0 L1,0 L1,1 L0,1 Z " fill="#BC2322" opacity="0.9098039" transform="translate(17,51)"/>
<path d="M0,0 L1,0 L1,1 L0,1 Z " fill="#BB2221" opacity="0.92156863" transform="translate(10,51)"/>
<path d="M0,0 L1,0 L1,1 L0,1 Z " fill="#C32626" opacity="0.7764706" transform="translate(53,49)"/>
<path d="M0,0 L1,0 L1,1 L0,1 Z " fill="#C22626" opacity="0.78431374" transform="translate(46,49)"/>
<path d="M0,0 L1,0 L1,1 L0,1 Z " fill="#C32626" opacity="0.7764706" transform="translate(17,49)"/>
<path d="M0,0 L1,0 L1,1 L0,1 Z " fill="#C22626" opacity="0.78431374" transform="translate(10,49)"/>
<path d="M0,0 L1,0 L1,1 L0,1 Z " fill="#E03F3B" opacity="0.90588236" transform="translate(53,48)"/>
<path d="M0,0 L1,0 L1,1 L0,1 Z " fill="#BC2322" opacity="0.9372549" transform="translate(52,48)"/>
<path d="M0,0 L1,0 L1,1 L0,1 Z " fill="#BB2322" opacity="0.95686275" transform="translate(47,48)"/>
<path d="M0,0 L1,0 L1,1 L0,1 Z " fill="#E03F3B" opacity="0.90588236" transform="translate(17,48)"/>
<path d="M0,0 L1,0 L1,1 L0,1 Z " fill="#BC2322" opacity="0.9372549" transform="translate(16,48)"/>
<path d="M0,0 L1,0 L1,1 L0,1 Z " fill="#BB2322" opacity="0.95686275" transform="translate(11,48)"/>
<path d="M0,0 L1,0 L1,1 L0,1 Z " fill="#DF3E3C" opacity="0.9019608" transform="translate(52,47)"/>
<path d="M0,0 L1,0 L1,1 L0,1 Z " fill="#C22726" opacity="0.78039217" transform="translate(51,47)"/>
<path d="M0,0 L1,0 L1,1 L0,1 Z " fill="#BB2221" opacity="0.92156863" transform="translate(50,47)"/>
<path d="M0,0 L1,0 L1,1 L0,1 Z " fill="#C22626" opacity="0.78431374" transform="translate(48,47)"/>
<path d="M0,0 L1,0 L1,1 L0,1 Z " fill="#E95453" opacity="0.75686276" transform="translate(39,47)"/>
<path d="M0,0 L1,0 L1,1 L0,1 Z " fill="#F07070" opacity="0.92941177" transform="translate(38,47)"/>
<path d="M0,0 L1,0 L1,1 L0,1 Z " fill="#F06E6E" opacity="0.9254902" transform="translate(25,47)"/>
<path d="M0,0 L1,0 L1,1 L0,1 Z " fill="#E94F4E" opacity="0.75686276" transform="translate(24,47)"/>
<path d="M0,0 L1,0 L1,1 L0,1 Z " fill="#DF3E3C" opacity="0.9019608" transform="translate(16,47)"/>
<path d="M0,0 L1,0 L1,1 L0,1 Z " fill="#C22726" opacity="0.78039217" transform="translate(15,47)"/>
<path d="M0,0 L1,0 L1,1 L0,1 Z " fill="#BB2221" opacity="0.92156863" transform="translate(14,47)"/>
<path d="M0,0 L1,0 L1,1 L0,1 Z " fill="#C22626" opacity="0.78431374" transform="translate(12,47)"/>
<path d="M0,0 L1,0 L1,1 L0,1 Z " fill="#F17474" opacity="0.99215686" transform="translate(39,46)"/>
<path d="M0,0 L1,0 L1,1 L0,1 Z " fill="#F07070" opacity="0.9411765" transform="translate(24,46)"/>
<path d="M0,0 L1,0 L1,1 L0,1 Z " fill="#952B2A" opacity="0.7372549" transform="translate(39,45)"/>
<path d="M0,0 L1,0 L1,1 L0,1 Z " fill="#781918" opacity="0.92941177" transform="translate(38,45)"/>
<path d="M0,0 L1,0 L1,1 L0,1 Z " fill="#A2302F" opacity="0.7176471" transform="translate(24,45)"/>
<path d="M0,0 L1,0 L1,1 L0,1 Z " fill="#781918" opacity="0.99215686" transform="translate(39,44)"/>
<path d="M0,0 L1,0 L1,1 L0,1 Z " fill="#781918" opacity="0.9411765" transform="translate(24,44)"/>
<path d="M0,0 L1,0 L1,1 L0,1 Z " fill="#A72A29" opacity="0.75686276" transform="translate(39,42)"/>
<path d="M0,0 L1,0 L1,1 L0,1 Z " fill="#AC2C2A" opacity="0.7607843" transform="translate(24,42)"/>
<path d="M0,0 L1,0 L1,1 L0,1 Z " fill="#DC3F3B" opacity="0.9372549" transform="translate(39,41)"/>
<path d="M0,0 L1,0 L1,1 L0,1 Z " fill="#781918" opacity="0.9764706" transform="translate(38,41)"/>
<path d="M0,0 L1,0 L1,1 L0,1 Z " fill="#E03F3D" opacity="0.9529412" transform="translate(24,41)"/>
<path d="M0,0 L1,0 L1,1 L0,1 Z " fill="#8A201E" opacity="0.76862746" transform="translate(25,40)"/>
<path d="M0,0 L1,0 L1,1 L0,1 Z " fill="#C23332" opacity="0.8117647" transform="translate(38,39)"/>
<path d="M0,0 L1,0 L1,1 L0,1 Z " fill="#C43433" opacity="0.8156863" transform="translate(25,39)"/>
<path d="M0,0 L1,0 L1,1 L0,1 Z " fill="#E44240" transform="translate(38,38)"/>
<path d="M0,0 L1,0 L1,1 L0,1 Z " fill="#E44240" transform="translate(25,38)"/>
<path d="M0,0 L1,0 L1,1 L0,1 Z " fill="#9E2826" opacity="0.7529412" transform="translate(37,37)"/>
<path d="M0,0 L1,0 L1,1 L0,1 Z " fill="#9D2626" opacity="0.7529412" transform="translate(26,37)"/>
<path d="M0,0 L1,0 L1,1 L0,1 Z " fill="#D93C3A" opacity="0.9098039" transform="translate(37,36)"/>
<path d="M0,0 L1,0 L1,1 L0,1 Z " fill="#781918" opacity="0.99215686" transform="translate(36,36)"/>
<path d="M0,0 L1,0 L1,1 L0,1 Z " fill="#771918" opacity="0.99607843" transform="translate(27,36)"/>
<path d="M0,0 L1,0 L1,1 L0,1 Z " fill="#D63C3A" opacity="0.90588236" transform="translate(26,36)"/>
<path d="M0,0 L1,0 L1,1 L0,1 Z " fill="#E64441" opacity="0.85490197" transform="translate(37,35)"/>
<path d="M0,0 L1,0 L1,1 L0,1 Z " fill="#831F1F" opacity="0.79607844" transform="translate(27,35)"/>
<path d="M0,0 L1,0 L1,1 L0,1 Z " fill="#E44443" opacity="0.8509804" transform="translate(26,35)"/>
<path d="M0,0 L1,0 L1,1 L0,1 Z " fill="#E64542" opacity="0.84313726" transform="translate(38,34)"/>
<path d="M0,0 L1,0 L1,1 L0,1 Z " fill="#F07070" opacity="0.94509804" transform="translate(37,34)"/>
<path d="M0,0 L1,0 L1,1 L0,1 Z " fill="#BB4B4B" opacity="0.78039217" transform="translate(36,34)"/>
<path d="M0,0 L1,0 L1,1 L0,1 Z " fill="#BB4A48" opacity="0.77254903" transform="translate(27,34)"/>
<path d="M0,0 L1,0 L1,1 L0,1 Z " fill="#F17171" opacity="0.94509804" transform="translate(26,34)"/>
<path d="M0,0 L1,0 L1,1 L0,1 Z " fill="#E64443" opacity="0.8509804" transform="translate(25,34)"/>
<path d="M0,0 L1,0 L1,1 L0,1 Z " fill="#E54240" opacity="0.96862745" transform="translate(39,33)"/>
<path d="M0,0 L1,0 L1,1 L0,1 Z " fill="#D96262" opacity="0.8666667" transform="translate(37,33)"/>
<path d="M0,0 L1,0 L1,1 L0,1 Z " fill="#7A1B1A" opacity="0.88235295" transform="translate(36,33)"/>
<path d="M0,0 L1,0 L1,1 L0,1 Z " fill="#7A1918" opacity="0.8901961" transform="translate(27,33)"/>
<path d="M0,0 L1,0 L1,1 L0,1 Z " fill="#D86161" opacity="0.85882354" transform="translate(26,33)"/>
<path d="M0,0 L1,0 L1,1 L0,1 Z " fill="#E54240" opacity="0.9843137" transform="translate(24,33)"/>
<path d="M0,0 L1,0 L1,1 L0,1 Z " fill="#E84B4A" opacity="0.76862746" transform="translate(39,32)"/>
<path d="M0,0 L1,0 L1,1 L0,1 Z " fill="#D55F5F" opacity="0.84313726" transform="translate(38,32)"/>
<path d="M0,0 L1,0 L1,1 L0,1 Z " fill="#781918" opacity="0.94509804" transform="translate(37,32)"/>
<path d="M0,0 L1,0 L1,1 L0,1 Z " fill="#781918" opacity="0.94509804" transform="translate(26,32)"/>
<path d="M0,0 L1,0 L1,1 L0,1 Z " fill="#D65F5F" opacity="0.8509804" transform="translate(25,32)"/>
<path d="M0,0 L1,0 L1,1 L0,1 Z " fill="#E64946" opacity="0.78039217" transform="translate(24,32)"/>
<path d="M0,0 L1,0 L1,1 L0,1 Z " fill="#7A1918" opacity="0.8901961" transform="translate(38,31)"/>
<path d="M0,0 L1,0 L1,1 L0,1 Z " fill="#7A1B1A" opacity="0.8745098" transform="translate(25,31)"/>
<path d="M0,0 L1,0 L1,1 L0,1 Z " fill="#B1413F" opacity="0.7411765" transform="translate(39,30)"/>
<path d="M0,0 L1,0 L1,1 L0,1 Z " fill="#B84242" opacity="0.7294118" transform="translate(24,30)"/>
<path d="M0,0 L1,0 L1,1 L0,1 Z " fill="#862222" opacity="0.78431374" transform="translate(39,29)"/>
<path d="M0,0 L1,0 L1,1 L0,1 Z " fill="#8B2523" opacity="0.75686276" transform="translate(24,29)"/>
<path d="M0,0 L1,0 L1,1 L0,1 Z " fill="#791918" opacity="0.9019608" transform="translate(24,27)"/>
<path d="M0,0 L1,0 L1,1 L0,1 Z " fill="#791918" opacity="0.9019608" transform="translate(39,26)"/>
<path d="M0,0 L1,0 L1,1 L0,1 Z " fill="#8F221F" opacity="0.7607843" transform="translate(24,25)"/>
<path d="M0,0 L1,0 L1,1 L0,1 Z " fill="#BD3231" opacity="0.79607844" transform="translate(39,24)"/>
<path d="M0,0 L1,0 L1,1 L0,1 Z " fill="#C63535" opacity="0.8235294" transform="translate(24,24)"/>
<path d="M0,0 L1,0 L1,1 L0,1 Z " fill="#E44240" transform="translate(39,23)"/>
<path d="M0,0 L1,0 L1,1 L0,1 Z " fill="#821C1C" opacity="0.8" transform="translate(38,23)"/>
<path d="M0,0 L1,0 L1,1 L0,1 Z " fill="#851E1D" opacity="0.7882353" transform="translate(25,23)"/>
<path d="M0,0 L1,0 L1,1 L0,1 Z " fill="#DB3D3B" opacity="0.9411765" transform="translate(38,22)"/>
<path d="M0,0 L1,0 L1,1 L0,1 Z " fill="#7A1918" opacity="0.8666667" transform="translate(37,22)"/>
<path d="M0,0 L1,0 L1,1 L0,1 Z " fill="#7A1A19" opacity="0.87058824" transform="translate(26,22)"/>
<path d="M0,0 L1,0 L1,1 L0,1 Z " fill="#DC3E3C" opacity="0.94509804" transform="translate(37,21)"/>
<path d="M0,0 L1,0 L1,1 L0,1 Z " fill="#851E1D" opacity="0.7882353" transform="translate(36,21)"/>
<path d="M0,0 L1,0 L1,1 L0,1 Z " fill="#831E1D" opacity="0.7921569" transform="translate(27,21)"/>
<path d="M0,0 L1,0 L1,1 L0,1 Z " fill="#C53533" opacity="0.81960785" transform="translate(35,20)"/>
<path d="M0,0 L1,0 L1,1 L0,1 Z " fill="#8D201F" opacity="0.76862746" transform="translate(34,20)"/>
<path d="M0,0 L1,0 L1,1 L0,1 Z " fill="#7A1A19" opacity="0.88235295" transform="translate(33,20)"/>
<path d="M0,0 L1,0 L1,1 L0,1 Z " fill="#8D201F" opacity="0.76862746" transform="translate(29,20)"/>
<path d="M0,0 L1,0 L1,1 L0,1 Z " fill="#C53534" opacity="0.81960785" transform="translate(28,20)"/>
<path d="M0,0 L1,0 L1,1 L0,1 Z " fill="#C42826" opacity="0.77254903" transform="translate(51,19)"/>
<path d="M0,0 L1,0 L1,1 L0,1 Z " fill="#BC2322" opacity="0.9098039" transform="translate(50,19)"/>
<path d="M0,0 L1,0 L1,1 L0,1 Z " fill="#C32626" opacity="0.7764706" transform="translate(48,19)"/>
<path d="M0,0 L1,0 L1,1 L0,1 Z " fill="#E03F3B" opacity="0.90588236" transform="translate(47,19)"/>
<path d="M0,0 L1,0 L1,1 L0,1 Z " fill="#C42826" opacity="0.77254903" transform="translate(15,19)"/>
<path d="M0,0 L1,0 L1,1 L0,1 Z " fill="#BC2322" opacity="0.9098039" transform="translate(14,19)"/>
<path d="M0,0 L1,0 L1,1 L0,1 Z " fill="#C32626" opacity="0.7764706" transform="translate(12,19)"/>
<path d="M0,0 L1,0 L1,1 L0,1 Z " fill="#E03F3B" opacity="0.90588236" transform="translate(11,19)"/>
<path d="M0,0 L1,0 L1,1 L0,1 Z " fill="#BC2322" opacity="0.9137255" transform="translate(52,18)"/>
<path d="M0,0 L1,0 L1,1 L0,1 Z " fill="#BC2322" opacity="0.9372549" transform="translate(47,18)"/>
<path d="M0,0 L1,0 L1,1 L0,1 Z " fill="#DF3E3C" opacity="0.9019608" transform="translate(46,18)"/>
<path d="M0,0 L1,0 L1,1 L0,1 Z " fill="#BC2322" opacity="0.9137255" transform="translate(16,18)"/>
<path d="M0,0 L1,0 L1,1 L0,1 Z " fill="#BC2322" opacity="0.9372549" transform="translate(11,18)"/>
<path d="M0,0 L1,0 L1,1 L0,1 Z " fill="#DF3E3C" opacity="0.9019608" transform="translate(10,18)"/>
<path d="M0,0 L1,0 L1,1 L0,1 Z " fill="#C42826" opacity="0.77254903" transform="translate(53,17)"/>
<path d="M0,0 L1,0 L1,1 L0,1 Z " fill="#C22726" opacity="0.78039217" transform="translate(46,17)"/>
<path d="M0,0 L1,0 L1,1 L0,1 Z " fill="#C42826" opacity="0.77254903" transform="translate(17,17)"/>
<path d="M0,0 L1,0 L1,1 L0,1 Z " fill="#C22726" opacity="0.78039217" transform="translate(10,17)"/>
<path d="M0,0 L1,0 L1,1 L0,1 Z " fill="#BC2322" opacity="0.9098039" transform="translate(53,16)"/>
<path d="M0,0 L1,0 L1,1 L0,1 Z " fill="#BB2221" opacity="0.92156863" transform="translate(46,16)"/>
<path d="M0,0 L1,0 L1,1 L0,1 Z " fill="#BC2322" opacity="0.9098039" transform="translate(17,16)"/>
<path d="M0,0 L1,0 L1,1 L0,1 Z " fill="#BB2221" opacity="0.92156863" transform="translate(10,16)"/>
<path d="M0,0 L1,0 L1,1 L0,1 Z " fill="#C32626" opacity="0.7764706" transform="translate(53,14)"/>
<path d="M0,0 L1,0 L1,1 L0,1 Z " fill="#C22626" opacity="0.78431374" transform="translate(46,14)"/>
<path d="M0,0 L1,0 L1,1 L0,1 Z " fill="#C32626" opacity="0.7764706" transform="translate(17,14)"/>
<path d="M0,0 L1,0 L1,1 L0,1 Z " fill="#C22626" opacity="0.78431374" transform="translate(10,14)"/>
<path d="M0,0 L1,0 L1,1 L0,1 Z " fill="#E03F3B" opacity="0.90588236" transform="translate(53,13)"/>
<path d="M0,0 L1,0 L1,1 L0,1 Z " fill="#BC2322" opacity="0.9372549" transform="translate(52,13)"/>
<path d="M0,0 L1,0 L1,1 L0,1 Z " fill="#BB2322" opacity="0.95686275" transform="translate(47,13)"/>
<path d="M0,0 L1,0 L1,1 L0,1 Z " fill="#E03F3B" opacity="0.90588236" transform="translate(17,13)"/>
<path d="M0,0 L1,0 L1,1 L0,1 Z " fill="#BC2322" opacity="0.9372549" transform="translate(16,13)"/>
<path d="M0,0 L1,0 L1,1 L0,1 Z " fill="#BB2322" opacity="0.95686275" transform="translate(11,13)"/>
<path d="M0,0 L1,0 L1,1 L0,1 Z " fill="#DF3E3C" opacity="0.9019608" transform="translate(52,12)"/>
<path d="M0,0 L1,0 L1,1 L0,1 Z " fill="#C22726" opacity="0.78039217" transform="translate(51,12)"/>
<path d="M0,0 L1,0 L1,1 L0,1 Z " fill="#BB2221" opacity="0.92156863" transform="translate(50,12)"/>
<path d="M0,0 L1,0 L1,1 L0,1 Z " fill="#C22626" opacity="0.78431374" transform="translate(48,12)"/>
<path d="M0,0 L1,0 L1,1 L0,1 Z " fill="#DF3E3C" opacity="0.9019608" transform="translate(16,12)"/>
<path d="M0,0 L1,0 L1,1 L0,1 Z " fill="#C22726" opacity="0.78039217" transform="translate(15,12)"/>
<path d="M0,0 L1,0 L1,1 L0,1 Z " fill="#BB2221" opacity="0.92156863" transform="translate(14,12)"/>
<path d="M0,0 L1,0 L1,1 L0,1 Z " fill="#C22626" opacity="0.78431374" transform="translate(12,12)"/>
<path d="M0,0 L1,0 L1,1 L0,1 Z " fill="#E54240" opacity="0.9529412" transform="translate(59,11)"/>
<path d="M0,0 L1,0 L1,1 L0,1 Z " fill="#E54341" opacity="0.95686275" transform="translate(4,11)"/>
<path d="M0,0 L1,0 L1,1 L0,1 Z " fill="#ED6161" opacity="0.8" transform="translate(59,9)"/>
<path d="M0,0 L1,0 L1,1 L0,1 Z " fill="#E54341" transform="translate(5,9)"/>
<path d="M0,0 L1,0 L1,1 L0,1 Z " fill="#EC6060" opacity="0.7921569" transform="translate(4,9)"/>
<path d="M0,0 L1,0 L1,1 L0,1 Z " fill="#EC6160" opacity="0.7921569" transform="translate(58,8)"/>
<path d="M0,0 L1,0 L1,1 L0,1 Z " fill="#E64643" opacity="0.827451" transform="translate(57,8)"/>
<path d="M0,0 L1,0 L1,1 L0,1 Z " fill="#E54240" opacity="0.9411765" transform="translate(56,8)"/>
<path d="M0,0 L1,0 L1,1 L0,1 Z " fill="#E54240" opacity="0.9411765" transform="translate(7,8)"/>
<path d="M0,0 L1,0 L1,1 L0,1 Z " fill="#EC605F" opacity="0.7882353" transform="translate(5,8)"/>
<path d="M0,0 L1,0 L1,1 L0,1 Z " fill="#343441" opacity="0.972549" transform="translate(63,7)"/>
<path d="M0,0 L1,0 L1,1 L0,1 Z " fill="#343441" opacity="0.972549" transform="translate(0,7)"/>
<path d="M0,0 L1,0 L1,1 L0,1 Z " fill="#BB6165" opacity="0.8235294" transform="translate(59,6)"/>
<path d="M0,0 L1,0 L1,1 L0,1 Z " fill="#BE6365" opacity="0.83137256" transform="translate(4,6)"/>
<path d="M0,0 L1,0 L1,1 L0,1 Z " fill="#343440" opacity="0.7294118" transform="translate(63,5)"/>
<path d="M0,0 L1,0 L1,1 L0,1 Z " fill="#493B45" opacity="0.7921569" transform="translate(59,5)"/>
<path d="M0,0 L1,0 L1,1 L0,1 Z " fill="#F17575" transform="translate(5,5)"/>
<path d="M0,0 L1,0 L1,1 L0,1 Z " fill="#343440" opacity="0.74509805" transform="translate(0,5)"/>
<path d="M0,0 L1,0 L1,1 L0,1 Z " fill="#4A3B45" opacity="0.7921569" transform="translate(58,4)"/>
<path d="M0,0 L1,0 L1,1 L0,1 Z " fill="#BC6265" opacity="0.827451" transform="translate(57,4)"/>
<path d="M0,0 L1,0 L1,1 L0,1 Z " fill="#E26F70" opacity="0.9372549" transform="translate(56,4)"/>
<path d="M0,0 L1,0 L1,1 L0,1 Z " fill="#BE6365" opacity="0.83137256" transform="translate(6,4)"/>
<path d="M0,0 L1,0 L1,1 L0,1 Z " fill="#30303C" opacity="0.08235294" transform="translate(63,3)"/>
<path d="M0,0 L1,0 L1,1 L0,1 Z " fill="#343441" opacity="0.972549" transform="translate(1,3)"/>
<path d="M0,0 L1,0 L1,1 L0,1 Z " fill="#2C2C42" opacity="0.09019608" transform="translate(0,3)"/>
<path d="M0,0 L1,0 L1,1 L0,1 Z " fill="#333340" opacity="0.39215687" transform="translate(62,2)"/>
<path d="M0,0 L1,0 L1,1 L0,1 Z " fill="#353541" transform="translate(2,2)"/>
<path d="M0,0 L1,0 L1,1 L0,1 Z " fill="#35353F" opacity="0.39607844" transform="translate(61,1)"/>
<path d="M0,0 L1,0 L1,1 L0,1 Z " fill="#343440" opacity="0.96862745" transform="translate(60,1)"/>
<path d="M0,0 L1,0 L1,1 L0,1 Z " fill="#343441" opacity="0.972549" transform="translate(3,1)"/>
<path d="M0,0 L1,0 L1,1 L0,1 Z " fill="#343440" opacity="0.003921569" transform="translate(1,1)"/>
<path d="M0,0 L1,0 L1,1 L0,1 Z " fill="#343441" opacity="0.47843137" transform="translate(59,0)"/>
<path d="M0,0 L1,0 L1,1 L0,1 Z " fill="#343441" opacity="0.7411765" transform="translate(58,0)"/>
<path d="M0,0 L1,0 L1,1 L0,1 Z " fill="#343441" opacity="0.9098039" transform="translate(57,0)"/>
<path d="M0,0 L1,0 L1,1 L0,1 Z " fill="#343441" opacity="0.972549" transform="translate(56,0)"/>
<path d="M0,0 L1,0 L1,1 L0,1 Z " fill="#343441" opacity="0.972549" transform="translate(7,0)"/>
<path d="M0,0 L1,0 L1,1 L0,1 Z " fill="#343440" opacity="0.74509805" transform="translate(5,0)"/>
<path d="M0,0 L1,0 L1,1 L0,1 Z " fill="#2C2C42" opacity="0.09019608" transform="translate(3,0)"/>
</svg>
