<?xml version="1.0" encoding="UTF-8"?>
<!-- Generator: visioncortex VTracer 0.6.4 -->
<svg version="1.1" xmlns="http://www.w3.org/2000/svg" width="64" height="64">
<path d="M0,0 L14,0 L14,1 L17,1 L17,2 L18,2 L18,5 L19,5 L19,8 L20,8 L20,11 L21,11 L21,12 L31,12 L31,13 L33,13 L33,14 L34,14 L34,15 L35,15 L35,17 L36,17 L36,18 L20,18 L20,19 L19,19 L19,25 L20,25 L20,26 L39,26 L39,27 L38,27 L38,29 L37,29 L37,30 L36,30 L36,32 L35,32 L35,33 L34,33 L34,34 L33,34 L33,35 L31,35 L31,36 L-4,36 L-4,35 L-6,35 L-6,34 L-7,34 L-7,33 L-8,33 L-8,32 L-9,32 L-9,30 L-10,30 L-10,29 L-11,29 L-11,27 L-12,27 L-12,26 L-13,26 L-13,25 L-12,25 L-12,22 L-11,22 L-11,20 L-10,20 L-10,18 L-9,18 L-9,16 L1,16 L1,15 L2,15 L2,14 L3,14 L3,10 L2,10 L2,8 L-5,8 L-5,6 L-4,6 L-4,4 L-3,4 L-3,2 L-2,2 L-2,1 L0,1 Z M11,3 L11,4 L10,4 L10,5 L9,5 L9,7 L10,7 L10,8 L11,8 L11,9 L14,9 L14,8 L15,8 L15,4 L14,4 L14,3 Z M4,22 L4,23 L3,23 L3,26 L4,26 L4,27 L6,27 L6,28 L7,28 L7,27 L8,27 L8,26 L9,26 L9,23 L8,23 L8,22 Z M-5,24 L-5,25 L-6,25 L-6,27 L-7,27 L-7,30 L-6,30 L-6,31 L-5,31 L-5,32 L-3,32 L-3,33 L-1,33 L-1,32 L0,32 L0,31 L1,31 L1,30 L2,30 L2,26 L1,26 L1,25 L0,25 L0,24 Z M26,28 L26,29 L25,29 L25,30 L24,30 L24,32 L25,32 L25,33 L26,33 L26,34 L29,34 L29,33 L30,33 L30,29 L29,29 L29,28 Z " fill="#BBC4CB" transform="translate(18,28)"/>
<path d="M0,0 L1,0 L1,1 L0,1 Z " fill="#BBC4CB" opacity="0.99607843" transform="translate(19,36)"/>
<path d="M0,0 L14,0 L14,1 L18,1 L18,2 L19,2 L19,3 L20,3 L20,4 L21,4 L21,5 L22,5 L22,8 L23,8 L23,11 L24,11 L24,12 L31,12 L31,13 L34,13 L34,14 L36,14 L36,15 L37,15 L37,17 L38,17 L38,18 L39,18 L39,20 L40,20 L40,22 L41,22 L41,25 L42,25 L42,27 L43,27 L43,29 L44,29 L44,35 L43,35 L43,37 L42,37 L42,38 L41,38 L41,40 L40,40 L40,41 L39,41 L39,43 L38,43 L38,44 L34,44 L34,43 L35,43 L35,42 L36,42 L36,41 L37,41 L37,39 L38,39 L38,38 L39,38 L39,36 L40,36 L40,34 L41,34 L41,29 L40,29 L40,27 L39,27 L39,25 L38,25 L38,23 L37,23 L37,21 L36,21 L36,19 L35,19 L35,17 L34,17 L34,16 L22,16 L22,14 L21,14 L21,11 L20,11 L20,8 L19,8 L19,6 L18,6 L18,4 L-3,4 L-3,5 L-4,5 L-4,7 L-5,7 L-5,9 L-6,9 L-6,12 L-7,12 L-7,14 L-8,14 L-8,16 L-9,16 L-9,19 L-10,19 L-10,21 L-11,21 L-11,23 L-12,23 L-12,26 L-13,26 L-13,28 L-14,28 L-14,35 L-13,35 L-13,36 L-12,36 L-12,38 L-11,38 L-11,39 L-10,39 L-10,41 L-9,41 L-9,42 L-8,42 L-8,43 L-7,43 L-7,44 L-11,44 L-11,43 L-12,43 L-12,41 L-13,41 L-13,40 L-14,40 L-14,38 L-15,38 L-15,37 L-16,37 L-16,35 L-17,35 L-17,28 L-16,28 L-16,26 L-15,26 L-15,23 L-14,23 L-14,21 L-13,21 L-13,19 L-12,19 L-12,16 L-11,16 L-11,14 L-10,14 L-10,12 L-9,12 L-9,9 L-8,9 L-8,7 L-7,7 L-7,5 L-6,5 L-6,3 L-5,3 L-5,2 L-3,2 L-3,1 L0,1 Z " fill="#353541" transform="translate(18,20)"/>
<path d="M0,0 L14,0 L14,1 L17,1 L17,2 L18,2 L18,4 L-3,4 L-3,2 L-2,2 L-2,1 L0,1 Z M-4,4 L-3,4 L-3,5 L-4,5 Z M18,5 L19,5 L19,6 L18,6 Z M21,12 L31,12 L31,13 L33,13 L33,14 L34,14 L34,15 L35,15 L35,17 L34,17 L34,16 L22,16 L22,14 L21,14 Z M35,17 L36,17 L36,19 L35,19 Z M36,19 L37,19 L37,21 L36,21 Z M37,21 L38,21 L38,23 L39,23 L39,25 L40,25 L40,29 L39,29 L39,30 L23,30 L23,29 L21,29 L21,28 L20,28 L20,24 L21,24 L21,23 L23,23 L23,22 L37,22 Z " fill="#E8EBEE" transform="translate(18,24)"/>
<path d="M0,0 L1,0 L1,1 L0,1 Z M-1,3 L0,3 L0,4 L4,4 L4,5 L7,5 L7,6 L8,6 L8,10 L7,10 L7,11 L4,11 L4,12 L-4,12 L-4,10 L-3,10 L-3,7 L-2,7 L-2,5 L-1,5 Z M-5,12 L-4,12 L-4,13 L-5,13 Z M-6,14 L-5,14 L-5,15 L-6,15 Z M-7,17 L-6,17 L-6,18 L-7,18 Z " fill="#E8EBEE" transform="translate(12,32)"/>
<path d="M0,0 L14,0 L14,1 L17,1 L17,2 L18,2 L18,4 L-3,4 L-3,2 L-2,2 L-2,1 L0,1 Z M-4,4 L-3,4 L-3,5 L-4,5 Z " fill="#E8EBEE" transform="translate(18,24)"/>
<path d="M0,0 L1,0 L1,1 L0,1 Z M3,7 L13,7 L13,8 L15,8 L15,9 L16,9 L16,10 L17,10 L17,12 L16,12 L16,11 L4,11 L4,9 L3,9 Z M17,12 L18,12 L18,14 L17,14 Z M18,14 L19,14 L19,15 L18,15 Z " fill="#E8EBEE" transform="translate(36,29)"/>
<path d="M0,0 L3,0 L3,1 L4,1 L4,2 L5,2 L5,3 L6,3 L6,5 L5,5 L5,6 L4,6 L4,7 L3,7 L3,8 L0,8 L0,7 L-1,7 L-1,6 L-2,6 L-2,2 L-1,2 L-1,1 L0,1 Z " fill="#92A1AD" transform="translate(14,52)"/>
<path d="M0,0 L4,0 L4,1 L5,1 L5,3 L4,3 L4,4 L0,4 Z " fill="#E8EBEE" transform="translate(43,57)"/>
<path d="M0,0 L3,0 L3,1 L4,1 L4,3 L3,3 L3,4 L-1,4 L-1,1 L0,1 Z " fill="#E8EBEE" transform="translate(29,32)"/>
<path d="M0,0 L2,0 L2,1 L3,1 L3,4 L2,4 L2,5 L0,5 L0,4 L-1,4 L-1,1 L0,1 Z " fill="#92A1AD" transform="translate(23,50)"/>
<path d="M0,0 L1,0 L1,2 L0,2 Z M-1,3 L0,3 L0,4 L-1,4 Z " fill="#E7EAED" opacity="0.9882353" transform="translate(6,46)"/>
<path d="M0,0 L1,0 L1,2 L0,2 Z " fill="#DBE0E5" opacity="0.8352941" transform="translate(36,29)"/>
<path d="M0,0 L1,0 L1,1 L0,1 Z M-3,1 L-2,1 L-2,3 L-3,3 Z M-1,1 L0,1 L0,2 L-1,2 Z " fill="#E3E8EC" opacity="0.9254902" transform="translate(16,29)"/>
<path d="M0,0 L1,0 L1,1 L0,1 Z " fill="#343440" opacity="0.9137255" transform="translate(0,52)"/>
<path d="M0,0 L1,0 L1,1 L0,1 Z M-1,1 L0,1 L0,2 L-1,2 Z " fill="#E8EBEE" transform="translate(39,47)"/>
<path d="M0,0 L3,0 L3,1 L1,1 L1,2 L0,2 L0,3 L-1,3 L-1,4 L-2,4 L-2,2 L-1,2 L-1,1 L0,1 Z " fill="#92A1AD" transform="translate(14,52)"/>
<path d="M0,0 L1,0 L1,1 L0,1 Z " fill="#343440" opacity="0.7882353" transform="translate(62,51)"/>
<path d="M0,0 L1,0 L1,1 L0,1 Z M-1,3 L0,3 L0,4 L-1,4 Z " fill="#DADEE2" opacity="0.80784315" transform="translate(5,49)"/>
<path d="M0,0 L1,0 L1,1 L0,1 Z " fill="#343440" opacity="0.99215686" transform="translate(52,33)"/>
<path d="M0,0 L1,0 L1,1 L0,1 Z M-1,1 L0,1 L0,2 L-1,2 Z " fill="#353541" transform="translate(13,22)"/>
<path d="M0,0 L2,0 L2,1 L1,1 L1,2 L0,2 L0,4 L-1,4 L-1,1 L0,1 Z " fill="#92A1AD" transform="translate(23,50)"/>
<path d="M0,0 L1,0 L1,1 L0,1 Z M-1,1 L0,1 L0,2 L-1,2 Z " fill="#BBC4CB" transform="translate(16,29)"/>
<path d="M0,0 L1,0 L1,1 L0,1 Z M-1,1 L0,1 L0,2 L-1,2 Z " fill="#E8EBEE" transform="translate(16,25)"/>
<path d="M0,0 L1,0 L1,1 L0,1 Z M-1,2 L0,2 L0,3 L-1,3 Z " fill="#E8EBEE" opacity="0.98039216" transform="translate(12,32)"/>
<path d="M0,0 L1,0 L1,1 L0,1 Z " fill="#343440" opacity="0.93333334" transform="translate(5,61)"/>
<path d="M0,0 L1,0 L1,1 L0,1 Z " fill="#343440" opacity="0.93333334" transform="translate(3,58)"/>
<path d="M0,0 L1,0 L1,1 L0,1 Z " fill="#DFE3E5" opacity="0.8392157" transform="translate(58,51)"/>
<path d="M0,0 L1,0 L1,1 L0,1 Z " fill="#343441" opacity="0.9098039" transform="translate(0,50)"/>
<path d="M0,0 L1,0 L1,1 L0,1 Z " fill="#D4D9DE" opacity="0.78039217" transform="translate(37,49)"/>
<path d="M0,0 L1,0 L1,1 L0,1 Z M1,1 L2,1 L2,2 L1,2 Z " fill="#E8EBEE" transform="translate(53,42)"/>
<path d="M0,0 L1,0 L1,1 L0,1 Z " fill="#C9D1D6" opacity="0.7529412" transform="translate(20,39)"/>
<path d="M0,0 L1,0 L1,1 L0,1 Z " fill="#C4CBD2" opacity="0.7647059" transform="translate(38,37)"/>
<path d="M0,0 L1,0 L1,1 L0,1 Z " fill="#343440" opacity="0.92941177" transform="translate(17,20)"/>
<path d="M0,0 L2,0 L2,1 L1,1 L1,2 L0,2 Z " fill="#E8EBEE" transform="translate(43,57)"/>
<path d="M0,0 L1,0 L1,1 L0,1 Z " fill="#9AA8B3" transform="translate(15,52)"/>
<path d="M0,0 L1,0 L1,1 L0,1 Z " fill="#A0ADB7" transform="translate(16,52)"/>
<path d="M0,0 L1,0 L1,1 L0,1 Z " fill="#E8EBEE" transform="translate(5,49)"/>
<path d="M0,0 L1,0 L1,1 L0,1 Z " fill="#C5CCD4" opacity="0.7607843" transform="translate(37,34)"/>
<path d="M0,0 L1,0 L1,1 L0,1 Z " fill="#353540" opacity="0.9647059" transform="translate(37,22)"/>
<path d="M0,0 L1,0 L1,1 L0,1 Z " fill="#BAC4CB" opacity="0.972549" transform="translate(13,63)"/>
<path d="M0,0 L2,0 L2,1 L0,1 Z " fill="#CCD3D8" transform="translate(44,61)"/>
<path d="M0,0 L2,0 L2,1 L0,1 Z " fill="#B9C3CA" transform="translate(15,60)"/>
<path d="M0,0 L1,0 L1,2 L0,2 Z " fill="#D3D8DE" transform="translate(47,58)"/>
<path d="M0,0 L1,0 L1,2 L0,2 Z " fill="#C6CDD3" transform="translate(42,58)"/>
<path d="M0,0 L1,0 L1,1 L0,1 Z M1,1 L2,1 L2,2 L1,2 Z " fill="#B4BEC6" transform="translate(12,58)"/>
<path d="M0,0 L1,0 L1,1 L0,1 Z " fill="#343440" opacity="0.003921569" transform="translate(1,57)"/>
<path d="M0,0 L2,0 L2,1 L0,1 Z " fill="#CBD3D8" transform="translate(44,56)"/>
<path d="M0,0 L1,0 L1,2 L0,2 Z " fill="#A3B0BA" transform="translate(19,55)"/>
<path d="M0,0 L1,0 L1,2 L0,2 Z " fill="#AFB9C2" transform="translate(11,55)"/>
<path d="M0,0 L1,0 L1,1 L0,1 Z " fill="#32323F" opacity="0.007843138" transform="translate(62,55)"/>
<path d="M0,0 L1,0 L1,1 L0,1 Z " fill="#353540" opacity="0.039215688" transform="translate(0,55)"/>
<path d="M0,0 L2,0 L2,1 L0,1 Z " fill="#94A2AE" transform="translate(23,54)"/>
<path d="M0,0 L1,0 L1,1 L0,1 Z " fill="#E1E5E9" opacity="0.8745098" transform="translate(40,53)"/>
<path d="M0,0 L1,0 L1,2 L0,2 Z " fill="#AEB9C2" transform="translate(26,52)"/>
<path d="M0,0 L1,0 L1,2 L0,2 Z " fill="#B7C0C8" transform="translate(21,52)"/>
<path d="M0,0 L1,0 L1,1 L0,1 Z " fill="#BBC4CB" opacity="0.9764706" transform="translate(5,52)"/>
<path d="M0,0 L2,0 L2,1 L0,1 Z " fill="#97A5B1" transform="translate(23,50)"/>
<path d="M0,0 L1,0 L1,1 L0,1 Z " fill="#E4E7EA" opacity="0.8745098" transform="translate(4,50)"/>
<path d="M0,0 L1,0 L1,1 L0,1 Z " fill="#343441" opacity="0.4627451" transform="translate(62,49)"/>
<path d="M0,0 L1,0 L1,1 L0,1 Z " fill="#333340" opacity="0.39215687" transform="translate(0,48)"/>
<path d="M0,0 L1,0 L1,1 L0,1 Z " fill="#333340" opacity="0.65882355" transform="translate(61,47)"/>
<path d="M0,0 L1,0 L1,1 L0,1 Z " fill="#BCC5CB" opacity="0.90588236" transform="translate(7,47)"/>
<path d="M0,0 L1,0 L1,1 L0,1 Z " fill="#E2E5E9" opacity="0.8862745" transform="translate(40,46)"/>
<path d="M0,0 L1,0 L1,1 L0,1 Z " fill="#343440" opacity="0.53333336" transform="translate(1,46)"/>
<path d="M0,0 L1,0 L1,1 L0,1 Z " fill="#353541" opacity="0.6627451" transform="translate(60,45)"/>
<path d="M0,0 L1,0 L1,1 L0,1 Z " fill="#BAC4CB" opacity="0.972549" transform="translate(8,45)"/>
<path d="M0,0 L1,0 L1,1 L0,1 Z " fill="#DEE0E4" opacity="0.827451" transform="translate(6,45)"/>
<path d="M0,0 L1,0 L1,1 L0,1 Z " fill="#353541" opacity="0.6627451" transform="translate(59,43)"/>
<path d="M0,0 L1,0 L1,1 L0,1 Z " fill="#E6E8EC" opacity="0.9137255" transform="translate(7,43)"/>
<path d="M0,0 L1,0 L1,1 L0,1 Z " fill="#343441" opacity="0.24705882" transform="translate(2,43)"/>
<path d="M0,0 L1,0 L1,1 L0,1 Z " fill="#343440" opacity="0.6666667" transform="translate(58,41)"/>
<path d="M0,0 L1,0 L1,1 L0,1 Z " fill="#333340" opacity="0.39215687" transform="translate(3,41)"/>
<path d="M0,0 L1,0 L1,1 L0,1 Z " fill="#343440" opacity="0.67058825" transform="translate(57,39)"/>
<path d="M0,0 L1,0 L1,1 L0,1 Z " fill="#343440" opacity="0.53333336" transform="translate(4,39)"/>
<path d="M0,0 L1,0 L1,1 L0,1 Z " fill="#DEE0E4" opacity="0.83137256" transform="translate(9,38)"/>
<path d="M0,0 L1,0 L1,1 L0,1 Z " fill="#343440" opacity="0.67058825" transform="translate(56,37)"/>
<path d="M0,0 L2,0 L2,1 L0,1 Z " fill="#CFD6DB" transform="translate(29,36)"/>
<path d="M0,0 L1,0 L1,1 L0,1 Z " fill="#E6E8EC" opacity="0.9137255" transform="translate(10,36)"/>
<path d="M0,0 L1,0 L1,1 L0,1 Z " fill="#343441" opacity="0.24705882" transform="translate(5,36)"/>
<path d="M0,0 L1,0 L1,1 L0,1 Z " fill="#E7EAED" opacity="0.99215686" transform="translate(38,35)"/>
<path d="M0,0 L1,0 L1,2 L0,2 Z " fill="#D3D8DE" transform="translate(32,33)"/>
<path d="M0,0 L1,0 L1,2 L0,2 Z " fill="#C6CDD3" transform="translate(27,33)"/>
<path d="M0,0 L1,0 L1,1 L0,1 Z " fill="#333340" opacity="0.39215687" transform="translate(6,34)"/>
<path d="M0,0 L1,0 L1,1 L0,1 Z " fill="#BCC5CB" opacity="0.9019608" transform="translate(13,33)"/>
<path d="M0,0 L1,0 L1,2 L0,2 Z " fill="#E7EAED" opacity="0.99215686" transform="translate(12,32)"/>
<path d="M0,0 L1,0 L1,1 L0,1 Z " fill="#E7EAED" opacity="0.99215686" transform="translate(37,32)"/>
<path d="M0,0 L1,0 L1,1 L0,1 Z M-1,1 L0,1 L0,2 L-1,2 Z " fill="#E8EBEE" transform="translate(29,32)"/>
<path d="M0,0 L1,0 L1,1 L0,1 Z " fill="#343441" opacity="0.5372549" transform="translate(7,32)"/>
<path d="M0,0 L1,0 L1,1 L0,1 Z " fill="#33333E" opacity="0.1764706" transform="translate(42,31)"/>
<path d="M0,0 L2,0 L2,1 L0,1 Z " fill="#CBD3D8" transform="translate(29,31)"/>
<path d="M0,0 L1,0 L1,1 L0,1 Z " fill="#DEE0E4" opacity="0.83137256" transform="translate(12,31)"/>
<path d="M0,0 L1,0 L1,1 L0,1 Z " fill="#333341" opacity="0.5058824" transform="translate(41,29)"/>
<path d="M0,0 L1,0 L1,1 L0,1 Z " fill="#E6E8EC" opacity="0.9137255" transform="translate(13,29)"/>
<path d="M0,0 L1,0 L1,1 L0,1 Z " fill="#343441" opacity="0.24705882" transform="translate(8,29)"/>
<path d="M0,0 L1,0 L1,1 L0,1 Z " fill="#E7EAED" opacity="0.9254902" transform="translate(36,28)"/>
<path d="M0,0 L1,0 L1,1 L0,1 Z " fill="#BBC4CB" opacity="0.9254902" transform="translate(17,28)"/>
<path d="M0,0 L1,0 L1,1 L0,1 Z " fill="#333340" opacity="0.39215687" transform="translate(9,27)"/>
<path d="M0,0 L1,0 L1,1 L0,1 Z " fill="#343440" opacity="0.49803922" transform="translate(40,26)"/>
<path d="M0,0 L1,0 L1,1 L0,1 Z " fill="#343441" opacity="0.5372549" transform="translate(10,25)"/>
<path d="M0,0 L1,0 L1,1 L0,1 Z " fill="#343440" opacity="0.6509804" transform="translate(39,24)"/>
<path d="M0,0 L1,0 L1,1 L0,1 Z " fill="#E7EAED" opacity="0.9254902" transform="translate(17,24)"/>
<path d="M0,0 L1,0 L1,1 L0,1 Z " fill="#343440" opacity="0.45490196" transform="translate(11,23)"/>
<path d="M0,0 L1,0 L1,1 L0,1 Z " fill="#333340" opacity="0.4862745" transform="translate(13,21)"/>
<path d="M0,0 L1,0 L1,1 L0,1 Z " fill="#353540" opacity="0.015686275" transform="translate(36,20)"/>
<path d="M0,0 L1,0 L1,1 L0,1 Z " fill="#333340" opacity="0.54509807" transform="translate(15,20)"/>
<path d="M0,0 L1,0 L1,1 L0,1 Z " fill="#343440" opacity="0.5882353" transform="translate(56,63)"/>
<path d="M0,0 L1,0 L1,1 L0,1 Z " fill="#626670" opacity="0.8039216" transform="translate(51,63)"/>
<path d="M0,0 L1,0 L1,1 L0,1 Z " fill="#ADB5BD" opacity="0.8" transform="translate(50,63)"/>
<path d="M0,0 L1,0 L1,1 L0,1 Z " fill="#BBC4CA" opacity="0.9647059" transform="translate(49,63)"/>
<path d="M0,0 L1,0 L1,1 L0,1 Z " fill="#AFB7BF" opacity="0.80784315" transform="translate(12,63)"/>
<path d="M0,0 L1,0 L1,1 L0,1 Z " fill="#696D77" opacity="0.7882353" transform="translate(11,63)"/>
<path d="M0,0 L1,0 L1,1 L0,1 Z " fill="#353540" opacity="0.69803923" transform="translate(6,63)"/>
<path d="M0,0 L1,0 L1,1 L0,1 Z " fill="#34343F" opacity="0.003921569" transform="translate(5,63)"/>
<path d="M0,0 L1,0 L1,1 L0,1 Z " fill="#343440" opacity="0.26666668" transform="translate(57,62)"/>
<path d="M0,0 L1,0 L1,1 L0,1 Z " fill="#737781" opacity="0.77254903" transform="translate(52,62)"/>
<path d="M0,0 L1,0 L1,1 L0,1 Z " fill="#BAC4CB" opacity="0.9882353" transform="translate(51,62)"/>
<path d="M0,0 L1,0 L1,1 L0,1 Z " fill="#BBC4CB" opacity="0.99607843" transform="translate(11,62)"/>
<path d="M0,0 L1,0 L1,1 L0,1 Z " fill="#7E838D" opacity="0.7607843" transform="translate(10,62)"/>
<path d="M0,0 L1,0 L1,1 L0,1 Z " fill="#34343F" opacity="0.3647059" transform="translate(5,62)"/>
<path d="M0,0 L1,0 L1,1 L0,1 Z " fill="#353540" opacity="0.05490196" transform="translate(58,61)"/>
<path d="M0,0 L1,0 L1,1 L0,1 Z " fill="#343440" opacity="0.88235295" transform="translate(57,61)"/>
<path d="M0,0 L1,0 L1,1 L0,1 Z " fill="#4D4E5B" opacity="0.8666667" transform="translate(53,61)"/>
<path d="M0,0 L1,0 L1,1 L0,1 Z " fill="#BBC4CB" opacity="0.9764706" transform="translate(52,61)"/>
<path d="M0,0 L1,0 L1,1 L0,1 Z " fill="#BDC6CC" transform="translate(46,61)"/>
<path d="M0,0 L1,0 L1,1 L0,1 Z " fill="#CCD2D8" transform="translate(44,61)"/>
<path d="M0,0 L1,0 L1,1 L0,1 Z " fill="#BBC4CB" opacity="0.99215686" transform="translate(10,61)"/>
<path d="M0,0 L1,0 L1,1 L0,1 Z " fill="#575A64" opacity="0.8352941" transform="translate(9,61)"/>
<path d="M0,0 L1,0 L1,1 L0,1 Z " fill="#33333D" opacity="0.09803922" transform="translate(4,61)"/>
<path d="M0,0 L1,0 L1,1 L0,1 Z " fill="#353540" opacity="0.6039216" transform="translate(58,60)"/>
<path d="M0,0 L1,0 L1,1 L0,1 Z " fill="#363642" opacity="0.99215686" transform="translate(54,60)"/>
<path d="M0,0 L1,0 L1,1 L0,1 Z " fill="#B3BBC3" opacity="0.8352941" transform="translate(53,60)"/>
<path d="M0,0 L1,0 L1,1 L0,1 Z " fill="#BEC6CD" transform="translate(47,60)"/>
<path d="M0,0 L1,0 L1,1 L0,1 Z " fill="#DEE3E7" transform="translate(46,60)"/>
<path d="M0,0 L1,0 L1,1 L0,1 Z " fill="#D5DADF" transform="translate(43,60)"/>
<path d="M0,0 L1,0 L1,1 L0,1 Z " fill="#B7C1C8" transform="translate(15,60)"/>
<path d="M0,0 L1,0 L1,1 L0,1 Z " fill="#B7C0C7" opacity="0.87058824" transform="translate(9,60)"/>
<path d="M0,0 L1,0 L1,1 L0,1 Z " fill="#393945" opacity="0.972549" transform="translate(8,60)"/>
<path d="M0,0 L1,0 L1,1 L0,1 Z " fill="#343441" opacity="0.69411767" transform="translate(4,60)"/>
<path d="M0,0 L1,0 L1,1 L0,1 Z " fill="#343440" opacity="0.003921569" transform="translate(3,60)"/>
<path d="M0,0 L1,0 L1,1 L0,1 Z " fill="#323240" opacity="0.2784314" transform="translate(59,59)"/>
<path d="M0,0 L1,0 L1,1 L0,1 Z " fill="#868D95" opacity="0.7529412" transform="translate(54,59)"/>
<path d="M0,0 L1,0 L1,1 L0,1 Z " fill="#AAB5BF" transform="translate(17,59)"/>
<path d="M0,0 L1,0 L1,1 L0,1 Z " fill="#94A2AE" transform="translate(16,59)"/>
<path d="M0,0 L1,0 L1,1 L0,1 Z " fill="#9AA8B3" transform="translate(14,59)"/>
<path d="M0,0 L1,0 L1,1 L0,1 Z " fill="#949BA4" opacity="0.75686276" transform="translate(8,59)"/>
<path d="M0,0 L1,0 L1,1 L0,1 Z " fill="#343440" opacity="0.36078432" transform="translate(3,59)"/>
<path d="M0,0 L1,0 L1,1 L0,1 Z " fill="#333340" opacity="0.0627451" transform="translate(60,58)"/>
<path d="M0,0 L1,0 L1,1 L0,1 Z " fill="#353540" opacity="0.8901961" transform="translate(59,58)"/>
<path d="M0,0 L1,0 L1,1 L0,1 Z " fill="#4B4E59" opacity="0.8745098" transform="translate(55,58)"/>
<path d="M0,0 L1,0 L1,1 L0,1 Z " fill="#BAC4CB" opacity="0.972549" transform="translate(54,58)"/>
<path d="M0,0 L1,0 L1,1 L0,1 Z " fill="#D2D7DD" transform="translate(47,58)"/>
<path d="M0,0 L1,0 L1,1 L0,1 Z " fill="#C5CDD2" transform="translate(42,58)"/>
<path d="M0,0 L1,0 L1,1 L0,1 Z " fill="#A9B5BE" transform="translate(18,58)"/>
<path d="M0,0 L1,0 L1,1 L0,1 Z " fill="#96A4AF" transform="translate(13,58)"/>
<path d="M0,0 L1,0 L1,1 L0,1 Z " fill="#BBC4CB" opacity="0.99607843" transform="translate(8,58)"/>
<path d="M0,0 L1,0 L1,1 L0,1 Z " fill="#595C65" opacity="0.827451" transform="translate(7,58)"/>
<path d="M0,0 L1,0 L1,1 L0,1 Z " fill="#33333D" opacity="0.09803922" transform="translate(2,58)"/>
<path d="M0,0 L1,0 L1,1 L0,1 Z " fill="#333340" opacity="0.61960787" transform="translate(60,57)"/>
<path d="M0,0 L1,0 L1,1 L0,1 Z " fill="#353642" opacity="0.99607843" transform="translate(56,57)"/>
<path d="M0,0 L1,0 L1,1 L0,1 Z " fill="#B2BAC2" opacity="0.827451" transform="translate(55,57)"/>
<path d="M0,0 L1,0 L1,1 L0,1 Z " fill="#BCC6CD" transform="translate(47,57)"/>
<path d="M0,0 L1,0 L1,1 L0,1 Z " fill="#DDE2E6" transform="translate(46,57)"/>
<path d="M0,0 L1,0 L1,1 L0,1 Z " fill="#D1D7DD" transform="translate(43,57)"/>
<path d="M0,0 L1,0 L1,1 L0,1 Z " fill="#B0BBC3" transform="translate(19,57)"/>
<path d="M0,0 L1,0 L1,1 L0,1 Z " fill="#97A6B0" transform="translate(12,57)"/>
<path d="M0,0 L1,0 L1,1 L0,1 Z " fill="#B8C2CA" transform="translate(11,57)"/>
<path d="M0,0 L1,0 L1,1 L0,1 Z " fill="#B7BFC6" opacity="0.8745098" transform="translate(7,57)"/>
<path d="M0,0 L1,0 L1,1 L0,1 Z " fill="#393945" opacity="0.972549" transform="translate(6,57)"/>
<path d="M0,0 L1,0 L1,1 L0,1 Z " fill="#343441" opacity="0.69411767" transform="translate(2,57)"/>
<path d="M0,0 L1,0 L1,1 L0,1 Z " fill="#333341" opacity="0.2901961" transform="translate(61,56)"/>
<path d="M0,0 L1,0 L1,1 L0,1 Z " fill="#848991" opacity="0.75686276" transform="translate(56,56)"/>
<path d="M0,0 L1,0 L1,1 L0,1 Z " fill="#BDC5CC" transform="translate(46,56)"/>
<path d="M0,0 L1,0 L1,1 L0,1 Z " fill="#C8CFD4" transform="translate(44,56)"/>
<path d="M0,0 L1,0 L1,1 L0,1 Z " fill="#979DA5" opacity="0.75686276" transform="translate(6,56)"/>
<path d="M0,0 L1,0 L1,1 L0,1 Z " fill="#343440" opacity="0.36078432" transform="translate(1,56)"/>
<path d="M0,0 L1,0 L1,1 L0,1 Z " fill="#343440" opacity="0.8352941" transform="translate(61,55)"/>
<path d="M0,0 L1,0 L1,1 L0,1 Z " fill="#494C57" opacity="0.88235295" transform="translate(57,55)"/>
<path d="M0,0 L1,0 L1,1 L0,1 Z " fill="#BBC3CB" opacity="0.96862745" transform="translate(56,55)"/>
<path d="M0,0 L1,0 L1,1 L0,1 Z " fill="#BAC3CA" transform="translate(24,55)"/>
<path d="M0,0 L1,0 L1,1 L0,1 Z " fill="#A6B3BC" transform="translate(19,55)"/>
<path d="M0,0 L1,0 L1,1 L0,1 Z " fill="#B2BCC5" transform="translate(11,55)"/>
<path d="M0,0 L1,0 L1,1 L0,1 Z " fill="#BBC4CB" opacity="0.99607843" transform="translate(6,55)"/>
<path d="M0,0 L1,0 L1,1 L0,1 Z " fill="#595C67" opacity="0.827451" transform="translate(5,55)"/>
<path d="M0,0 L1,0 L1,1 L0,1 Z " fill="#343440" opacity="0.91764706" transform="translate(1,55)"/>
<path d="M0,0 L1,0 L1,1 L0,1 Z " fill="#32323F" opacity="0.31764707" transform="translate(62,54)"/>
<path d="M0,0 L1,0 L1,1 L0,1 Z " fill="#363642" transform="translate(58,54)"/>
<path d="M0,0 L1,0 L1,1 L0,1 Z " fill="#B2BBC1" opacity="0.81960785" transform="translate(57,54)"/>
<path d="M0,0 L1,0 L1,1 L0,1 Z " fill="#ACB7C0" transform="translate(25,54)"/>
<path d="M0,0 L1,0 L1,1 L0,1 Z " fill="#97A5B1" transform="translate(23,54)"/>
<path d="M0,0 L1,0 L1,1 L0,1 Z " fill="#B4BDC6" transform="translate(22,54)"/>
<path d="M0,0 L1,0 L1,1 L0,1 Z " fill="#B7C0C8" transform="translate(19,54)"/>
<path d="M0,0 L1,0 L1,1 L0,1 Z " fill="#96A4B0" transform="translate(18,54)"/>
<path d="M0,0 L1,0 L1,1 L0,1 Z " fill="#A0ADB7" transform="translate(12,54)"/>
<path d="M0,0 L1,0 L1,1 L0,1 Z " fill="#B7C0C7" opacity="0.8745098" transform="translate(5,54)"/>
<path d="M0,0 L1,0 L1,1 L0,1 Z " fill="#3B3B45" opacity="0.96862745" transform="translate(4,54)"/>
<path d="M0,0 L1,0 L1,1 L0,1 Z " fill="#353540" opacity="0.43529412" transform="translate(0,54)"/>
<path d="M0,0 L1,0 L1,1 L0,1 Z " fill="#343440" opacity="0.5921569" transform="translate(62,53)"/>
<path d="M0,0 L1,0 L1,1 L0,1 Z " fill="#878991" opacity="0.7647059" transform="translate(58,53)"/>
<path d="M0,0 L1,0 L1,1 L0,1 Z " fill="#E7EAED" opacity="0.9843137" transform="translate(57,53)"/>
<path d="M0,0 L1,0 L1,1 L0,1 Z " fill="#CDD2D9" opacity="0.7529412" transform="translate(39,53)"/>
<path d="M0,0 L1,0 L1,1 L0,1 Z " fill="#BAC4CB" opacity="0.972549" transform="translate(38,53)"/>
<path d="M0,0 L1,0 L1,1 L0,1 Z " fill="#95A4B0" transform="translate(22,53)"/>
<path d="M0,0 L1,0 L1,1 L0,1 Z " fill="#B4BEC6" transform="translate(18,53)"/>
<path d="M0,0 L1,0 L1,1 L0,1 Z " fill="#95A4B0" transform="translate(17,53)"/>
<path d="M0,0 L1,0 L1,1 L0,1 Z " fill="#9EACB6" transform="translate(13,53)"/>
<path d="M0,0 L1,0 L1,1 L0,1 Z " fill="#B9C3CA" transform="translate(12,53)"/>
<path d="M0,0 L1,0 L1,1 L0,1 Z " fill="#8B9197" opacity="0.73333335" transform="translate(4,53)"/>
<path d="M0,0 L1,0 L1,1 L0,1 Z " fill="#343440" opacity="0.72156864" transform="translate(0,53)"/>
<path d="M0,0 L1,0 L1,1 L0,1 Z " fill="#343440" opacity="0.7882353" transform="translate(62,52)"/>
<path d="M0,0 L1,0 L1,1 L0,1 Z " fill="#D2D4D8" opacity="0.7882353" transform="translate(58,52)"/>
<path d="M0,0 L1,0 L1,1 L0,1 Z " fill="#DCE1E5" opacity="0.827451" transform="translate(38,52)"/>
<path d="M0,0 L1,0 L1,1 L0,1 Z " fill="#BAC4CB" opacity="0.9882353" transform="translate(37,52)"/>
<path d="M0,0 L1,0 L1,1 L0,1 Z " fill="#A2AFB9" transform="translate(26,52)"/>
<path d="M0,0 L1,0 L1,1 L0,1 Z " fill="#AEB8C1" transform="translate(21,52)"/>
<path d="M0,0 L1,0 L1,1 L0,1 Z " fill="#B6C0C7" transform="translate(17,52)"/>
<path d="M0,0 L1,0 L1,1 L0,1 Z " fill="#A6B2BC" transform="translate(14,52)"/>
<path d="M0,0 L1,0 L1,1 L0,1 Z " fill="#BAC3CB" transform="translate(13,52)"/>
<path d="M0,0 L1,0 L1,1 L0,1 Z " fill="#C5CCD3" opacity="0.7607843" transform="translate(37,51)"/>
<path d="M0,0 L1,0 L1,1 L0,1 Z " fill="#B0BBC4" transform="translate(26,51)"/>
<path d="M0,0 L1,0 L1,1 L0,1 Z " fill="#97A5B1" transform="translate(22,51)"/>
<path d="M0,0 L1,0 L1,1 L0,1 Z " fill="#B8C1C9" transform="translate(21,51)"/>
<path d="M0,0 L1,0 L1,1 L0,1 Z " fill="#C2CBD0" opacity="0.76862746" transform="translate(5,51)"/>
<path d="M0,0 L1,0 L1,1 L0,1 Z " fill="#E8EBEE" opacity="0.99607843" transform="translate(4,51)"/>
<path d="M0,0 L1,0 L1,1 L0,1 Z " fill="#353540" opacity="0.94509804" transform="translate(0,51)"/>
<path d="M0,0 L1,0 L1,1 L0,1 Z " fill="#343441" opacity="0.70980394" transform="translate(62,50)"/>
<path d="M0,0 L1,0 L1,1 L0,1 Z " fill="#C0C3C8" opacity="0.7607843" transform="translate(58,50)"/>
<path d="M0,0 L1,0 L1,1 L0,1 Z " fill="#D6DBDF" opacity="0.7764706" transform="translate(37,50)"/>
<path d="M0,0 L1,0 L1,1 L0,1 Z " fill="#AFB9C2" transform="translate(25,50)"/>
<path d="M0,0 L1,0 L1,1 L0,1 Z " fill="#9AA8B3" transform="translate(23,50)"/>
<path d="M0,0 L1,0 L1,1 L0,1 Z " fill="#B5BFC6" transform="translate(22,50)"/>
<path d="M0,0 L1,0 L1,1 L0,1 Z " fill="#DDE3E6" opacity="0.84313726" transform="translate(5,50)"/>
<path d="M0,0 L1,0 L1,1 L0,1 Z " fill="#5A5B64" opacity="0.85882354" transform="translate(58,49)"/>
<path d="M0,0 L1,0 L1,1 L0,1 Z " fill="#BCC5CE" opacity="0.8235294" transform="translate(6,49)"/>
<path d="M0,0 L1,0 L1,1 L0,1 Z " fill="#AAACB2" opacity="0.7529412" transform="translate(4,49)"/>
<path d="M0,0 L1,0 L1,1 L0,1 Z " fill="#353540" opacity="0.69803923" transform="translate(0,49)"/>
<path d="M0,0 L1,0 L1,1 L0,1 Z " fill="#303040" opacity="0.1254902" transform="translate(62,48)"/>
<path d="M0,0 L1,0 L1,1 L0,1 Z " fill="#343440" opacity="0.99607843" transform="translate(61,48)"/>
<path d="M0,0 L1,0 L1,1 L0,1 Z " fill="#CDD0D4" opacity="0.78039217" transform="translate(57,48)"/>
<path d="M0,0 L1,0 L1,1 L0,1 Z " fill="#C6CDD4" opacity="0.75686276" transform="translate(37,48)"/>
<path d="M0,0 L1,0 L1,1 L0,1 Z " fill="#D4D9DE" opacity="0.78039217" transform="translate(6,48)"/>
<path d="M0,0 L1,0 L1,1 L0,1 Z " fill="#E8EBEE" opacity="0.98039216" transform="translate(5,48)"/>
<path d="M0,0 L1,0 L1,1 L0,1 Z " fill="#454651" opacity="0.92156863" transform="translate(4,48)"/>
<path d="M0,0 L1,0 L1,1 L0,1 Z " fill="#5A5B64" opacity="0.85882354" transform="translate(57,47)"/>
<path d="M0,0 L1,0 L1,1 L0,1 Z " fill="#DEE3E7" opacity="0.8509804" transform="translate(38,47)"/>
<path d="M0,0 L1,0 L1,1 L0,1 Z " fill="#BBC3CA" opacity="0.9843137" transform="translate(37,47)"/>
<path d="M0,0 L1,0 L1,1 L0,1 Z " fill="#C8CACF" opacity="0.77254903" transform="translate(5,47)"/>
<path d="M0,0 L1,0 L1,1 L0,1 Z " fill="#343440" opacity="0.92941177" transform="translate(1,47)"/>
<path d="M0,0 L1,0 L1,1 L0,1 Z " fill="#343440" opacity="0.039215688" transform="translate(0,47)"/>
<path d="M0,0 L1,0 L1,1 L0,1 Z " fill="#353541" opacity="0.16862746" transform="translate(61,46)"/>
<path d="M0,0 L1,0 L1,1 L0,1 Z " fill="#343440" opacity="0.99607843" transform="translate(60,46)"/>
<path d="M0,0 L1,0 L1,1 L0,1 Z " fill="#CDD0D4" opacity="0.78039217" transform="translate(56,46)"/>
<path d="M0,0 L1,0 L1,1 L0,1 Z " fill="#CED5D9" opacity="0.75686276" transform="translate(39,46)"/>
<path d="M0,0 L1,0 L1,1 L0,1 Z " fill="#BBC3CB" opacity="0.9529412" transform="translate(38,46)"/>
<path d="M0,0 L1,0 L1,1 L0,1 Z " fill="#CAD1D8" opacity="0.7529412" transform="translate(7,46)"/>
<path d="M0,0 L1,0 L1,1 L0,1 Z " fill="#E8EBEE" transform="translate(6,46)"/>
<path d="M0,0 L1,0 L1,1 L0,1 Z " fill="#60626C" opacity="0.8392157" transform="translate(5,46)"/>
<path d="M0,0 L1,0 L1,1 L0,1 Z " fill="#5A5B64" opacity="0.85882354" transform="translate(56,45)"/>
<path d="M0,0 L1,0 L1,1 L0,1 Z " fill="#DDE2E6" opacity="0.8509804" transform="translate(54,45)"/>
<path d="M0,0 L1,0 L1,1 L0,1 Z " fill="#E4E8EB" opacity="0.92941177" transform="translate(7,45)"/>
<path d="M0,0 L1,0 L1,1 L0,1 Z " fill="#343440" opacity="0.99215686" transform="translate(2,45)"/>
<path d="M0,0 L1,0 L1,1 L0,1 Z " fill="#33333B" opacity="0.11764706" transform="translate(1,45)"/>
<path d="M0,0 L1,0 L1,1 L0,1 Z " fill="#343440" opacity="0.17254902" transform="translate(60,44)"/>
<path d="M0,0 L1,0 L1,1 L0,1 Z " fill="#343440" opacity="0.99607843" transform="translate(59,44)"/>
<path d="M0,0 L1,0 L1,1 L0,1 Z " fill="#CDD0D4" opacity="0.78039217" transform="translate(55,44)"/>
<path d="M0,0 L1,0 L1,1 L0,1 Z " fill="#C1C8CF" opacity="0.78431374" transform="translate(53,44)"/>
<path d="M0,0 L1,0 L1,1 L0,1 Z " fill="#BBC4CB" transform="translate(9,44)"/>
<path d="M0,0 L1,0 L1,1 L0,1 Z " fill="#C3CBD2" opacity="0.7647059" transform="translate(8,44)"/>
<path d="M0,0 L1,0 L1,1 L0,1 Z " fill="#86878F" opacity="0.7764706" transform="translate(6,44)"/>
<path d="M0,0 L1,0 L1,1 L0,1 Z " fill="#353541" opacity="0.6784314" transform="translate(2,44)"/>
<path d="M0,0 L1,0 L1,1 L0,1 Z " fill="#5A5B64" opacity="0.85882354" transform="translate(55,43)"/>
<path d="M0,0 L1,0 L1,1 L0,1 Z " fill="#DFE2E8" opacity="0.85490197" transform="translate(53,43)"/>
<path d="M0,0 L1,0 L1,1 L0,1 Z " fill="#C4CCD3" opacity="0.7607843" transform="translate(18,43)"/>
<path d="M0,0 L1,0 L1,1 L0,1 Z " fill="#E0E2E8" opacity="0.8509804" transform="translate(17,43)"/>
<path d="M0,0 L1,0 L1,1 L0,1 Z " fill="#E7EAED" opacity="0.9882353" transform="translate(16,43)"/>
<path d="M0,0 L1,0 L1,1 L0,1 Z " fill="#393944" opacity="0.9843137" transform="translate(6,43)"/>
<path d="M0,0 L1,0 L1,1 L0,1 Z " fill="#343440" opacity="0.17254902" transform="translate(59,42)"/>
<path d="M0,0 L1,0 L1,1 L0,1 Z " fill="#CDD0D4" opacity="0.78039217" transform="translate(54,42)"/>
<path d="M0,0 L1,0 L1,1 L0,1 Z " fill="#C0C9D0" opacity="0.78039217" transform="translate(52,42)"/>
<path d="M0,0 L1,0 L1,1 L0,1 Z " fill="#CFD5DB" opacity="0.7607843" transform="translate(19,42)"/>
<path d="M0,0 L1,0 L1,1 L0,1 Z " fill="#AAACB2" opacity="0.7529412" transform="translate(7,42)"/>
<path d="M0,0 L1,0 L1,1 L0,1 Z " fill="#343440" opacity="0.81960785" transform="translate(3,42)"/>
<path d="M0,0 L1,0 L1,1 L0,1 Z " fill="#343440" opacity="0.003921569" transform="translate(2,42)"/>
<path d="M0,0 L1,0 L1,1 L0,1 Z " fill="#5A5B64" opacity="0.85882354" transform="translate(54,41)"/>
<path d="M0,0 L1,0 L1,1 L0,1 Z " fill="#E2E6E8" opacity="0.90588236" transform="translate(52,41)"/>
<path d="M0,0 L1,0 L1,1 L0,1 Z " fill="#BBC4CB" opacity="0.9254902" transform="translate(51,41)"/>
<path d="M0,0 L1,0 L1,1 L0,1 Z " fill="#BEC6CE" opacity="0.8235294" transform="translate(20,41)"/>
<path d="M0,0 L1,0 L1,1 L0,1 Z " fill="#E8EBEE" opacity="0.98039216" transform="translate(8,41)"/>
<path d="M0,0 L1,0 L1,1 L0,1 Z " fill="#454651" opacity="0.92156863" transform="translate(7,41)"/>
<path d="M0,0 L1,0 L1,1 L0,1 Z " fill="#33333E" opacity="0.1764706" transform="translate(58,40)"/>
<path d="M0,0 L1,0 L1,1 L0,1 Z " fill="#CDD0D4" opacity="0.78039217" transform="translate(53,40)"/>
<path d="M0,0 L1,0 L1,1 L0,1 Z " fill="#E2E5E9" opacity="0.8862745" transform="translate(51,40)"/>
<path d="M0,0 L1,0 L1,1 L0,1 Z " fill="#C0C9D0" opacity="0.78039217" transform="translate(50,40)"/>
<path d="M0,0 L1,0 L1,1 L0,1 Z " fill="#BBC4CB" opacity="0.9411765" transform="translate(49,40)"/>
<path d="M0,0 L1,0 L1,1 L0,1 Z " fill="#C9D1D6" opacity="0.7529412" transform="translate(20,40)"/>
<path d="M0,0 L1,0 L1,1 L0,1 Z " fill="#C9CBD0" opacity="0.76862746" transform="translate(8,40)"/>
<path d="M0,0 L1,0 L1,1 L0,1 Z " fill="#343440" opacity="0.92941177" transform="translate(4,40)"/>
<path d="M0,0 L1,0 L1,1 L0,1 Z " fill="#343440" opacity="0.039215688" transform="translate(3,40)"/>
<path d="M0,0 L1,0 L1,1 L0,1 Z " fill="#5A5B64" opacity="0.85882354" transform="translate(53,39)"/>
<path d="M0,0 L1,0 L1,1 L0,1 Z " fill="#D9DEE2" opacity="0.80784315" transform="translate(39,39)"/>
<path d="M0,0 L1,0 L1,1 L0,1 Z " fill="#60626C" opacity="0.8392157" transform="translate(8,39)"/>
<path d="M0,0 L1,0 L1,1 L0,1 Z " fill="#33333E" opacity="0.1764706" transform="translate(57,38)"/>
<path d="M0,0 L1,0 L1,1 L0,1 Z " fill="#CDD0D5" opacity="0.78039217" transform="translate(52,38)"/>
<path d="M0,0 L1,0 L1,1 L0,1 Z " fill="#E7EAED" opacity="0.9882353" transform="translate(39,38)"/>
<path d="M0,0 L1,0 L1,1 L0,1 Z " fill="#BBC4CB" opacity="0.92941177" transform="translate(38,38)"/>
<path d="M0,0 L1,0 L1,1 L0,1 Z " fill="#BEC7CD" opacity="0.8156863" transform="translate(20,38)"/>
<path d="M0,0 L1,0 L1,1 L0,1 Z " fill="#343440" opacity="0.99215686" transform="translate(5,38)"/>
<path d="M0,0 L1,0 L1,1 L0,1 Z " fill="#33333B" opacity="0.11764706" transform="translate(4,38)"/>
<path d="M0,0 L1,0 L1,1 L0,1 Z " fill="#4B4B56" opacity="0.90588236" transform="translate(52,37)"/>
<path d="M0,0 L1,0 L1,1 L0,1 Z " fill="#E7EAED" opacity="0.9254902" transform="translate(51,37)"/>
<path d="M0,0 L1,0 L1,1 L0,1 Z " fill="#D2D8DC" opacity="0.76862746" transform="translate(19,37)"/>
<path d="M0,0 L1,0 L1,1 L0,1 Z " fill="#878890" opacity="0.77254903" transform="translate(9,37)"/>
<path d="M0,0 L1,0 L1,1 L0,1 Z " fill="#353541" opacity="0.6784314" transform="translate(5,37)"/>
<path d="M0,0 L1,0 L1,1 L0,1 Z " fill="#343440" opacity="0.17254902" transform="translate(56,36)"/>
<path d="M0,0 L1,0 L1,1 L0,1 Z " fill="#343441" opacity="0.9882353" transform="translate(55,36)"/>
<path d="M0,0 L1,0 L1,1 L0,1 Z " fill="#50515B" opacity="0.8862745" transform="translate(51,36)"/>
<path d="M0,0 L1,0 L1,1 L0,1 Z " fill="#CDD0D5" opacity="0.78039217" transform="translate(50,36)"/>
<path d="M0,0 L1,0 L1,1 L0,1 Z " fill="#E7EAED" opacity="0.9411765" transform="translate(49,36)"/>
<path d="M0,0 L1,0 L1,1 L0,1 Z " fill="#D9DEE2" opacity="0.80784315" transform="translate(38,36)"/>
<path d="M0,0 L1,0 L1,1 L0,1 Z " fill="#BDC5CD" transform="translate(31,36)"/>
<path d="M0,0 L1,0 L1,1 L0,1 Z " fill="#CCD2D8" transform="translate(29,36)"/>
<path d="M0,0 L1,0 L1,1 L0,1 Z " fill="#C6CDD4" opacity="0.75686276" transform="translate(18,36)"/>
<path d="M0,0 L1,0 L1,1 L0,1 Z " fill="#DFE3E6" opacity="0.8666667" transform="translate(17,36)"/>
<path d="M0,0 L1,0 L1,1 L0,1 Z " fill="#E7EAED" opacity="0.99215686" transform="translate(16,36)"/>
<path d="M0,0 L1,0 L1,1 L0,1 Z " fill="#393944" opacity="0.9843137" transform="translate(9,36)"/>
<path d="M0,0 L1,0 L1,1 L0,1 Z " fill="#343441" opacity="0.49411765" transform="translate(55,35)"/>
<path d="M0,0 L1,0 L1,1 L0,1 Z " fill="#71727B" opacity="0.80784315" transform="translate(39,35)"/>
<path d="M0,0 L1,0 L1,1 L0,1 Z " fill="#BBC4CB" opacity="0.9254902" transform="translate(37,35)"/>
<path d="M0,0 L1,0 L1,1 L0,1 Z " fill="#BEC6CD" transform="translate(32,35)"/>
<path d="M0,0 L1,0 L1,1 L0,1 Z " fill="#DEE3E7" transform="translate(31,35)"/>
<path d="M0,0 L1,0 L1,1 L0,1 Z " fill="#D5DADF" transform="translate(28,35)"/>
<path d="M0,0 L1,0 L1,1 L0,1 Z " fill="#BEC8CE" opacity="0.8117647" transform="translate(12,35)"/>
<path d="M0,0 L1,0 L1,1 L0,1 Z " fill="#ACADB4" opacity="0.7529412" transform="translate(10,35)"/>
<path d="M0,0 L1,0 L1,1 L0,1 Z " fill="#343440" opacity="0.8235294" transform="translate(6,35)"/>
<path d="M0,0 L1,0 L1,1 L0,1 Z " fill="#343440" opacity="0.003921569" transform="translate(5,35)"/>
<path d="M0,0 L1,0 L1,1 L0,1 Z " fill="#353540" opacity="0.015686275" transform="translate(55,34)"/>
<path d="M0,0 L1,0 L1,1 L0,1 Z " fill="#353540" opacity="0.69803923" transform="translate(54,34)"/>
<path d="M0,0 L1,0 L1,1 L0,1 Z " fill="#373744" opacity="0.9882353" transform="translate(39,34)"/>
<path d="M0,0 L1,0 L1,1 L0,1 Z " fill="#E7EAED" opacity="0.92941177" transform="translate(38,34)"/>
<path d="M0,0 L1,0 L1,1 L0,1 Z " fill="#D6DBDF" opacity="0.78039217" transform="translate(12,34)"/>
<path d="M0,0 L1,0 L1,1 L0,1 Z " fill="#464652" opacity="0.92156863" transform="translate(10,34)"/>
<path d="M0,0 L1,0 L1,1 L0,1 Z " fill="#353540" opacity="0.011764706" transform="translate(54,33)"/>
<path d="M0,0 L1,0 L1,1 L0,1 Z " fill="#353540" opacity="0.54901963" transform="translate(53,33)"/>
<path d="M0,0 L1,0 L1,1 L0,1 Z " fill="#C2C4CA" opacity="0.7647059" transform="translate(38,33)"/>
<path d="M0,0 L1,0 L1,1 L0,1 Z " fill="#D9DFE2" opacity="0.80784315" transform="translate(37,33)"/>
<path d="M0,0 L1,0 L1,1 L0,1 Z " fill="#D2D7DD" transform="translate(32,33)"/>
<path d="M0,0 L1,0 L1,1 L0,1 Z " fill="#C5CDD2" transform="translate(27,33)"/>
<path d="M0,0 L1,0 L1,1 L0,1 Z " fill="#C9CBD0" opacity="0.76862746" transform="translate(11,33)"/>
<path d="M0,0 L1,0 L1,1 L0,1 Z " fill="#343440" opacity="0.92941177" transform="translate(7,33)"/>
<path d="M0,0 L1,0 L1,1 L0,1 Z " fill="#343440" opacity="0.039215688" transform="translate(6,33)"/>
<path d="M0,0 L1,0 L1,1 L0,1 Z " fill="#34343C" opacity="0.13333334" transform="translate(52,32)"/>
<path d="M0,0 L1,0 L1,1 L0,1 Z " fill="#333340" opacity="0.56078434" transform="translate(51,32)"/>
<path d="M0,0 L1,0 L1,1 L0,1 Z " fill="#343440" opacity="0.8039216" transform="translate(50,32)"/>
<path d="M0,0 L1,0 L1,1 L0,1 Z " fill="#343440" opacity="0.9372549" transform="translate(49,32)"/>
<path d="M0,0 L1,0 L1,1 L0,1 Z " fill="#6F7179" opacity="0.80784315" transform="translate(38,32)"/>
<path d="M0,0 L1,0 L1,1 L0,1 Z " fill="#BBC4CB" opacity="0.9254902" transform="translate(36,32)"/>
<path d="M0,0 L1,0 L1,1 L0,1 Z " fill="#BCC6CD" transform="translate(32,32)"/>
<path d="M0,0 L1,0 L1,1 L0,1 Z " fill="#DDE2E6" transform="translate(31,32)"/>
<path d="M0,0 L1,0 L1,1 L0,1 Z " fill="#D1D7DD" transform="translate(28,32)"/>
<path d="M0,0 L1,0 L1,1 L0,1 Z " fill="#CAD1D8" opacity="0.7529412" transform="translate(13,32)"/>
<path d="M0,0 L1,0 L1,1 L0,1 Z " fill="#E8EBEE" transform="translate(12,32)"/>
<path d="M0,0 L1,0 L1,1 L0,1 Z " fill="#62636C" opacity="0.8392157" transform="translate(11,32)"/>
<path d="M0,0 L1,0 L1,1 L0,1 Z " fill="#373743" opacity="0.99215686" transform="translate(38,31)"/>
<path d="M0,0 L1,0 L1,1 L0,1 Z " fill="#E7EAED" opacity="0.9254902" transform="translate(37,31)"/>
<path d="M0,0 L1,0 L1,1 L0,1 Z " fill="#C4CDD3" opacity="0.7607843" transform="translate(36,31)"/>
<path d="M0,0 L1,0 L1,1 L0,1 Z " fill="#BDC5CC" transform="translate(31,31)"/>
<path d="M0,0 L1,0 L1,1 L0,1 Z " fill="#C8CFD4" transform="translate(29,31)"/>
<path d="M0,0 L1,0 L1,1 L0,1 Z " fill="#BBC4CB" opacity="0.9764706" transform="translate(14,31)"/>
<path d="M0,0 L1,0 L1,1 L0,1 Z " fill="#343440" opacity="0.99215686" transform="translate(8,31)"/>
<path d="M0,0 L1,0 L1,1 L0,1 Z " fill="#313142" opacity="0.12156863" transform="translate(7,31)"/>
<path d="M0,0 L1,0 L1,1 L0,1 Z " fill="#343441" opacity="0.003921569" transform="translate(42,30)"/>
<path d="M0,0 L1,0 L1,1 L0,1 Z " fill="#343441" opacity="0.84705883" transform="translate(41,30)"/>
<path d="M0,0 L1,0 L1,1 L0,1 Z " fill="#C1C4C9" opacity="0.7607843" transform="translate(37,30)"/>
<path d="M0,0 L1,0 L1,1 L0,1 Z " fill="#C2CBD0" opacity="0.76862746" transform="translate(14,30)"/>
<path d="M0,0 L1,0 L1,1 L0,1 Z " fill="#E8EBEE" transform="translate(13,30)"/>
<path d="M0,0 L1,0 L1,1 L0,1 Z " fill="#878890" opacity="0.77254903" transform="translate(12,30)"/>
<path d="M0,0 L1,0 L1,1 L0,1 Z " fill="#353541" opacity="0.6784314" transform="translate(8,30)"/>
<path d="M0,0 L1,0 L1,1 L0,1 Z " fill="#6E6F79" opacity="0.80784315" transform="translate(37,29)"/>
<path d="M0,0 L1,0 L1,1 L0,1 Z " fill="#E8EBEE" transform="translate(36,29)"/>
<path d="M0,0 L1,0 L1,1 L0,1 Z " fill="#C2CBD0" opacity="0.76862746" transform="translate(35,29)"/>
<path d="M0,0 L1,0 L1,1 L0,1 Z " fill="#BCC5CB" opacity="0.9019608" transform="translate(15,29)"/>
<path d="M0,0 L1,0 L1,1 L0,1 Z " fill="#E3E6EB" opacity="0.9137255" transform="translate(14,29)"/>
<path d="M0,0 L1,0 L1,1 L0,1 Z " fill="#393944" opacity="0.9843137" transform="translate(12,29)"/>
<path d="M0,0 L1,0 L1,1 L0,1 Z " fill="#353541" opacity="0.16862746" transform="translate(41,28)"/>
<path d="M0,0 L1,0 L1,1 L0,1 Z " fill="#373743" opacity="0.99215686" transform="translate(37,28)"/>
<path d="M0,0 L1,0 L1,1 L0,1 Z " fill="#E7EBEE" opacity="0.99607843" transform="translate(35,28)"/>
<path d="M0,0 L1,0 L1,1 L0,1 Z " fill="#CDD4D8" opacity="0.75686276" transform="translate(34,28)"/>
<path d="M0,0 L1,0 L1,1 L0,1 Z " fill="#BCC4CB" opacity="0.8745098" transform="translate(33,28)"/>
<path d="M0,0 L1,0 L1,1 L0,1 Z " fill="#BBC4CB" opacity="0.99215686" transform="translate(32,28)"/>
<path d="M0,0 L1,0 L1,1 L0,1 Z " fill="#C4CBD2" opacity="0.7647059" transform="translate(16,28)"/>
<path d="M0,0 L1,0 L1,1 L0,1 Z " fill="#E3E6EA" opacity="0.91764706" transform="translate(15,28)"/>
<path d="M0,0 L1,0 L1,1 L0,1 Z " fill="#ACADB4" opacity="0.7529412" transform="translate(13,28)"/>
<path d="M0,0 L1,0 L1,1 L0,1 Z " fill="#343440" opacity="0.8235294" transform="translate(9,28)"/>
<path d="M0,0 L1,0 L1,1 L0,1 Z " fill="#343440" opacity="0.003921569" transform="translate(8,28)"/>
<path d="M0,0 L1,0 L1,1 L0,1 Z " fill="#343440" opacity="0.8392157" transform="translate(40,27)"/>
<path d="M0,0 L1,0 L1,1 L0,1 Z " fill="#C0C3C8" opacity="0.7607843" transform="translate(36,27)"/>
<path d="M0,0 L1,0 L1,1 L0,1 Z " fill="#E8EBEE" opacity="0.98039216" transform="translate(14,27)"/>
<path d="M0,0 L1,0 L1,1 L0,1 Z " fill="#464652" opacity="0.92156863" transform="translate(13,27)"/>
<path d="M0,0 L1,0 L1,1 L0,1 Z " fill="#63646D" opacity="0.8352941" transform="translate(36,26)"/>
<path d="M0,0 L1,0 L1,1 L0,1 Z " fill="#C6C7CD" opacity="0.76862746" transform="translate(14,26)"/>
<path d="M0,0 L1,0 L1,1 L0,1 Z " fill="#343440" opacity="0.92941177" transform="translate(10,26)"/>
<path d="M0,0 L1,0 L1,1 L0,1 Z " fill="#343440" opacity="0.039215688" transform="translate(9,26)"/>
<path d="M0,0 L1,0 L1,1 L0,1 Z " fill="#343441" opacity="0.15294118" transform="translate(40,25)"/>
<path d="M0,0 L1,0 L1,1 L0,1 Z " fill="#C6C7CD" opacity="0.76862746" transform="translate(35,25)"/>
<path d="M0,0 L1,0 L1,1 L0,1 Z " fill="#E5E8EA" opacity="0.9019608" transform="translate(15,25)"/>
<path d="M0,0 L1,0 L1,1 L0,1 Z " fill="#494954" opacity="0.9137255" transform="translate(14,25)"/>
<path d="M0,0 L1,0 L1,1 L0,1 Z " fill="#363642" opacity="0.99607843" transform="translate(35,24)"/>
<path d="M0,0 L1,0 L1,1 L0,1 Z " fill="#9FA0A7" opacity="0.75686276" transform="translate(34,24)"/>
<path d="M0,0 L1,0 L1,1 L0,1 Z " fill="#E3E6E9" opacity="0.8745098" transform="translate(33,24)"/>
<path d="M0,0 L1,0 L1,1 L0,1 Z " fill="#E8EBEE" opacity="0.99215686" transform="translate(32,24)"/>
<path d="M0,0 L1,0 L1,1 L0,1 Z " fill="#C4C7CB" opacity="0.7647059" transform="translate(16,24)"/>
<path d="M0,0 L1,0 L1,1 L0,1 Z " fill="#484854" opacity="0.91764706" transform="translate(15,24)"/>
<path d="M0,0 L1,0 L1,1 L0,1 Z " fill="#343440" opacity="0.9529412" transform="translate(11,24)"/>
<path d="M0,0 L1,0 L1,1 L0,1 Z " fill="#33333D" opacity="0.09803922" transform="translate(10,24)"/>
<path d="M0,0 L1,0 L1,1 L0,1 Z " fill="#313140" opacity="0.14117648" transform="translate(39,23)"/>
<path d="M0,0 L1,0 L1,1 L0,1 Z " fill="#343441" opacity="0.972549" transform="translate(38,23)"/>
<path d="M0,0 L1,0 L1,1 L0,1 Z " fill="#343440" opacity="0.26666668" transform="translate(38,22)"/>
<path d="M0,0 L1,0 L1,1 L0,1 Z " fill="#343440" opacity="0.63529414" transform="translate(12,22)"/>
<path d="M0,0 L1,0 L1,1 L0,1 Z " fill="#343440" opacity="0.019607844" transform="translate(11,22)"/>
<path d="M0,0 L1,0 L1,1 L0,1 Z " fill="#32323E" opacity="0.23921569" transform="translate(37,21)"/>
<path d="M0,0 L1,0 L1,1 L0,1 Z " fill="#343441" opacity="0.8627451" transform="translate(36,21)"/>
<path d="M0,0 L1,0 L1,1 L0,1 Z " fill="#343440" opacity="0.9764706" transform="translate(14,21)"/>
<path d="M0,0 L1,0 L1,1 L0,1 Z " fill="#333340" opacity="0.003921569" transform="translate(12,21)"/>
<path d="M0,0 L1,0 L1,1 L0,1 Z " fill="#353540" opacity="0.3764706" transform="translate(35,20)"/>
<path d="M0,0 L1,0 L1,1 L0,1 Z " fill="#343440" opacity="0.7058824" transform="translate(34,20)"/>
<path d="M0,0 L1,0 L1,1 L0,1 Z " fill="#343441" opacity="0.8627451" transform="translate(33,20)"/>
<path d="M0,0 L1,0 L1,1 L0,1 Z " fill="#343440" opacity="0.99215686" transform="translate(32,20)"/>
<path d="M0,0 L1,0 L1,1 L0,1 Z " fill="#343441" opacity="0.78431374" transform="translate(16,20)"/>
<path d="M0,0 L1,0 L1,1 L0,1 Z " fill="#31313B" opacity="0.101960786" transform="translate(14,20)"/>
</svg>
