<?xml version="1.0" encoding="UTF-8"?>
<!-- Generator: visioncortex VTracer 0.6.4 -->
<svg version="1.1" xmlns="http://www.w3.org/2000/svg" width="64" height="64">
<path d="M0,0 L4,0 L4,1 L5,1 L5,0 L16,0 L16,64 L0,64 Z M5,1 L5,2 L6,2 L6,1 Z M6,2 L6,3 L7,3 L7,2 Z M7,3 L7,4 L8,4 L8,3 Z M8,4 L8,5 L9,5 L9,4 Z M9,5 L9,6 L10,6 L10,5 Z M10,6 L10,7 L11,7 L11,6 Z M11,7 L11,8 L12,8 L12,7 Z M4,16 L4,17 L5,17 L5,16 Z M5,17 L5,18 L6,18 L6,17 Z M6,18 L6,19 L7,19 L7,18 Z M7,19 L7,20 L8,20 L8,19 Z M8,20 L8,21 L9,21 L9,20 Z M9,21 L9,22 L10,22 L10,21 Z M10,22 L10,23 L11,23 L11,22 Z M11,23 L11,24 L12,24 L12,23 Z M4,32 L4,33 L5,33 L5,32 Z M5,33 L5,34 L6,34 L6,33 Z M6,34 L6,35 L7,35 L7,34 Z M7,35 L7,36 L8,36 L8,35 Z M8,36 L8,37 L9,37 L9,36 Z M9,37 L9,38 L10,38 L10,37 Z M10,38 L10,39 L11,39 L11,38 Z M11,39 L11,40 L12,40 L12,39 Z M4,48 L4,49 L5,49 L5,48 Z M5,49 L5,50 L6,50 L6,49 Z M6,50 L6,51 L7,51 L7,50 Z M7,51 L7,52 L8,52 L8,51 Z M8,52 L8,53 L9,53 L9,52 Z M9,53 L9,54 L10,54 L10,53 Z M10,54 L10,55 L11,55 L11,54 Z M11,55 L11,56 L12,56 L12,55 Z " fill="#DE7E4F" transform="translate(24,0)"/>
<path d="M0,0 L4,0 L4,64 L0,64 Z " fill="#353541" transform="translate(36,0)"/>
<path d="M0,0 L4,0 L4,64 L0,64 Z " fill="#353541" transform="translate(24,0)"/>
<path d="M0,0 L7,0 L7,7 L6,7 L6,6 L5,6 L5,5 L4,5 L4,4 L3,4 L3,3 L2,3 L2,2 L1,2 L1,1 L0,1 Z M-1,1 L0,1 L0,2 L1,2 L1,3 L2,3 L2,4 L3,4 L3,5 L4,5 L4,6 L5,6 L5,7 L6,7 L6,8 L7,8 L7,23 L6,23 L6,22 L5,22 L5,21 L4,21 L4,20 L3,20 L3,19 L2,19 L2,18 L1,18 L1,17 L0,17 L0,16 L-1,16 Z " fill="#DE7E4F" transform="translate(29,0)"/>
<path d="M0,0 L1,0 L1,1 L2,1 L2,2 L3,2 L3,3 L4,3 L4,4 L5,4 L5,5 L6,5 L6,6 L7,6 L7,7 L8,7 L8,22 L7,22 L7,21 L6,21 L6,20 L5,20 L5,19 L4,19 L4,18 L3,18 L3,17 L2,17 L2,16 L1,16 L1,15 L0,15 Z " fill="#EE9366" transform="translate(28,17)"/>
<path d="M0,0 L1,0 L1,1 L2,1 L2,2 L3,2 L3,3 L4,3 L4,4 L5,4 L5,5 L6,5 L6,6 L7,6 L7,7 L8,7 L8,15 L0,15 Z " fill="#EE9366" transform="translate(28,49)"/>
<path d="M0,0 L7,0 L7,7 L6,7 L6,6 L5,6 L5,5 L4,5 L4,4 L3,4 L3,3 L2,3 L2,2 L1,2 L1,1 L0,1 Z " fill="#EE9366" transform="translate(29,0)"/>
<path d="M0,0 L1,0 L1,1 L0,1 Z M1,1 L2,1 L2,2 L1,2 Z M2,2 L3,2 L3,3 L2,3 Z M3,3 L4,3 L4,4 L3,4 Z M4,4 L5,4 L5,5 L4,5 Z M5,5 L6,5 L6,6 L5,6 Z M6,6 L7,6 L7,7 L6,7 Z M7,7 L8,7 L8,8 L7,8 Z " fill="#E98C5D" opacity="0.7529412" transform="translate(28,48)"/>
<path d="M0,0 L1,0 L1,1 L0,1 Z M1,1 L2,1 L2,2 L1,2 Z M2,2 L3,2 L3,3 L2,3 Z M3,3 L4,3 L4,4 L3,4 Z M4,4 L5,4 L5,5 L4,5 Z M5,5 L6,5 L6,6 L5,6 Z M6,6 L7,6 L7,7 L6,7 Z M7,7 L8,7 L8,8 L7,8 Z " fill="#E98C5D" opacity="0.7529412" transform="translate(28,32)"/>
<path d="M0,0 L1,0 L1,1 L0,1 Z M1,1 L2,1 L2,2 L1,2 Z M2,2 L3,2 L3,3 L2,3 Z M3,3 L4,3 L4,4 L3,4 Z M4,4 L5,4 L5,5 L4,5 Z M5,5 L6,5 L6,6 L5,6 Z M6,6 L7,6 L7,7 L6,7 Z M7,7 L8,7 L8,8 L7,8 Z " fill="#E98C5D" opacity="0.7529412" transform="translate(28,16)"/>
<path d="M0,0 L1,0 L1,1 L0,1 Z M1,1 L2,1 L2,2 L1,2 Z M2,2 L3,2 L3,3 L2,3 Z M3,3 L4,3 L4,4 L3,4 Z M4,4 L5,4 L5,5 L4,5 Z M5,5 L6,5 L6,6 L5,6 Z M6,6 L7,6 L7,7 L6,7 Z M7,7 L8,7 L8,8 L7,8 Z " fill="#E98C5D" opacity="0.7529412" transform="translate(28,0)"/>
</svg>
