<?xml version="1.0" encoding="UTF-8"?>
<!-- Generator: visioncortex VTracer 0.6.4 -->
<svg version="1.1" xmlns="http://www.w3.org/2000/svg" width="64" height="64">
<path d="M0,0 L8,0 L8,1 L10,1 L10,2 L11,2 L11,3 L12,3 L12,4 L13,4 L13,5 L14,5 L14,7 L28,7 L28,8 L32,8 L32,9 L34,9 L34,11 L35,11 L35,15 L36,15 L36,26 L35,26 L35,28 L34,28 L34,30 L33,30 L33,31 L32,31 L32,32 L33,32 L33,33 L34,33 L34,34 L35,34 L35,36 L36,36 L36,47 L35,47 L35,51 L34,51 L34,53 L32,53 L32,54 L28,54 L28,55 L16,55 L16,63 L-8,63 L-8,55 L-20,55 L-20,54 L-24,54 L-24,53 L-26,53 L-26,51 L-27,51 L-27,47 L-28,47 L-28,36 L-27,36 L-27,34 L-26,34 L-26,33 L-25,33 L-25,32 L-24,32 L-24,30 L-25,30 L-25,29 L-26,29 L-26,28 L-27,28 L-27,26 L-28,26 L-28,15 L-27,15 L-27,11 L-26,11 L-26,9 L-24,9 L-24,8 L-20,8 L-20,7 L-6,7 L-6,5 L-5,5 L-5,4 L-4,4 L-4,3 L-3,3 L-3,2 L-2,2 L-2,1 L0,1 Z " fill="#DE7E4F" transform="translate(28,1)"/>
<path d="M0,0 L8,0 L8,1 L10,1 L10,2 L11,2 L11,3 L12,3 L12,4 L13,4 L13,5 L14,5 L14,7 L28,7 L28,8 L32,8 L32,9 L34,9 L34,11 L35,11 L35,15 L36,15 L36,26 L35,26 L35,28 L34,28 L34,30 L33,30 L33,31 L32,31 L32,32 L33,32 L33,33 L34,33 L34,34 L35,34 L35,36 L36,36 L36,47 L35,47 L35,51 L34,51 L34,53 L32,53 L32,54 L28,54 L28,55 L16,55 L16,63 L12,63 L12,51 L31,51 L31,50 L32,50 L32,34 L31,34 L31,33 L30,33 L30,32 L29,32 L29,30 L30,30 L30,29 L31,29 L31,28 L32,28 L32,12 L31,12 L31,11 L12,11 L12,7 L11,7 L11,5 L10,5 L10,4 L8,4 L8,3 L0,3 L0,4 L-2,4 L-2,5 L-3,5 L-3,7 L-4,7 L-4,11 L-24,11 L-24,28 L-23,28 L-23,29 L-22,29 L-22,30 L-21,30 L-21,32 L-22,32 L-22,33 L-23,33 L-23,34 L-24,34 L-24,50 L-23,50 L-23,51 L-4,51 L-4,63 L-8,63 L-8,55 L-20,55 L-20,54 L-24,54 L-24,53 L-26,53 L-26,51 L-27,51 L-27,47 L-28,47 L-28,36 L-27,36 L-27,34 L-26,34 L-26,33 L-25,33 L-25,32 L-24,32 L-24,30 L-25,30 L-25,29 L-26,29 L-26,28 L-27,28 L-27,26 L-28,26 L-28,15 L-27,15 L-27,11 L-26,11 L-26,9 L-24,9 L-24,8 L-20,8 L-20,7 L-6,7 L-6,5 L-5,5 L-5,4 L-4,4 L-4,3 L-3,3 L-3,2 L-2,2 L-2,1 L0,1 Z " fill="#353541" transform="translate(28,1)"/>
<path d="M0,0 L1,0 L1,1 L0,1 Z " fill="#343440" opacity="0.99607843" transform="translate(36,1)"/>
<path d="M0,0 L6,0 L6,1 L8,1 L8,2 L9,2 L9,3 L10,3 L10,5 L11,5 L11,8 L29,8 L29,9 L30,9 L30,10 L31,10 L31,13 L30,13 L30,12 L-24,12 L-24,13 L-25,13 L-25,10 L-24,10 L-24,9 L-23,9 L-23,8 L-5,8 L-5,5 L-4,5 L-4,3 L-3,3 L-3,2 L-2,2 L-2,1 L0,1 Z " fill="#FA9F72" transform="translate(29,4)"/>
<path d="M0,0 L16,0 L16,12 L0,12 Z " fill="#C66A3E" transform="translate(24,52)"/>
<path d="M0,0 L6,0 L6,1 L8,1 L8,2 L9,2 L9,3 L10,3 L10,5 L11,5 L11,8 L-5,8 L-5,5 L-4,5 L-4,3 L-3,3 L-3,2 L-2,2 L-2,1 L0,1 Z " fill="#C66A3E" transform="translate(29,4)"/>
<path d="M0,0 L16,0 L16,4 L0,4 Z " fill="#AA5E39" transform="translate(24,52)"/>
<path d="M0,0 L3,0 L3,1 L4,1 L4,4 L3,4 L3,5 L0,5 L0,4 L-1,4 L-1,1 L0,1 Z " fill="#C66A3E" transform="translate(53,44)"/>
<path d="M0,0 L3,0 L3,1 L4,1 L4,4 L3,4 L3,5 L0,5 L0,4 L-1,4 L-1,1 L0,1 Z " fill="#C66A3E" transform="translate(8,44)"/>
<path d="M0,0 L3,0 L3,1 L4,1 L4,4 L3,4 L3,5 L0,5 L0,4 L-1,4 L-1,1 L0,1 Z " fill="#C66A3E" transform="translate(53,19)"/>
<path d="M0,0 L3,0 L3,1 L4,1 L4,4 L3,4 L3,5 L0,5 L0,4 L-1,4 L-1,1 L0,1 Z " fill="#C66A3E" transform="translate(8,19)"/>
<path d="M0,0 L1,0 L1,1 L0,1 Z " fill="#343440" opacity="0.9607843" transform="translate(32,0)"/>
<path d="M0,0 L2,0 L2,1 L1,1 L1,2 L0,2 L0,3 L-1,3 L-1,4 L-2,4 L-2,2 L-1,2 L-1,1 L0,1 Z " fill="#C66A3E" transform="translate(27,5)"/>
<path d="M0,0 L1,0 L1,1 L0,1 Z M1,1 L2,1 L2,2 L1,2 Z " fill="#343440" opacity="0.99607843" transform="translate(39,3)"/>
<path d="M0,0 L1,0 L1,1 L0,1 Z M1,1 L2,1 L2,2 L1,2 Z " fill="#333340" opacity="0.37254903" transform="translate(1,30)"/>
<path d="M0,0 L1,0 L1,1 L0,1 Z " fill="#343440" opacity="0.9372549" transform="translate(22,5)"/>
<path d="M0,0 L6,0 L6,1 L0,1 Z " fill="#C0673D" transform="translate(29,4)"/>
<path d="M0,0 L1,0 L1,1 L0,1 Z M-1,1 L0,1 L0,2 L-1,2 Z M-2,2 L-1,2 L-1,3 L-2,3 Z M-3,3 L-2,3 L-2,4 L-3,4 Z M-4,4 L-3,4 L-3,5 L-4,5 Z " fill="#353541" transform="translate(26,2)"/>
<path d="M0,0 L1,0 L1,1 L0,1 Z " fill="#353540" opacity="0.90588236" transform="translate(25,2)"/>
<path d="M0,0 L1,0 L1,1 L0,1 Z " fill="#343440" opacity="0.8980392" transform="translate(6,55)"/>
<path d="M0,0 L1,0 L1,1 L0,1 Z M1,1 L2,1 L2,2 L1,2 Z " fill="#353541" opacity="0.32156864" transform="translate(61,32)"/>
<path d="M0,0 L1,0 L1,1 L0,1 Z M-1,1 L0,1 L0,2 L-1,2 Z " fill="#343440" opacity="0.98039216" transform="translate(3,32)"/>
<path d="M0,0 L1,0 L1,1 L0,1 Z " fill="#343440" opacity="0.9019608" transform="translate(63,14)"/>
<path d="M0,0 L1,0 L1,1 L0,1 Z " fill="#343441" opacity="0.9098039" transform="translate(0,14)"/>
<path d="M0,0 L1,0 L1,1 L0,1 Z " fill="#343441" opacity="0.9098039" transform="translate(6,8)"/>
<path d="M0,0 L1,0 L1,1 L0,1 Z " fill="#343441" opacity="0.8156863" transform="translate(30,0)"/>
<path d="M0,0 L1,0 L1,1 L0,1 Z " fill="#34343F" opacity="0.45882353" transform="translate(59,55)"/>
<path d="M0,0 L3,0 L3,1 L0,1 Z " fill="#BF673E" transform="translate(53,48)"/>
<path d="M0,0 L3,0 L3,1 L0,1 Z " fill="#BF673E" transform="translate(8,48)"/>
<path d="M0,0 L1,0 L1,1 L0,1 Z M1,1 L2,1 L2,2 L1,2 Z M2,2 L3,2 L3,3 L2,3 Z " fill="#A1634A" transform="translate(57,34)"/>
<path d="M0,0 L1,0 L1,1 L0,1 Z M1,1 L2,1 L2,2 L1,2 Z M2,2 L3,2 L3,3 L2,3 Z " fill="#383640" transform="translate(57,33)"/>
<path d="M0,0 L1,0 L1,1 L0,1 Z M-1,1 L0,1 L0,2 L-1,2 Z M-2,2 L-1,2 L-1,3 L-2,3 Z " fill="#383640" transform="translate(6,33)"/>
<path d="M0,0 L1,0 L1,1 L0,1 Z M-1,1 L0,1 L0,2 L-1,2 Z M-2,2 L-1,2 L-1,3 L-2,3 Z " fill="#383540" transform="translate(59,28)"/>
<path d="M0,0 L1,0 L1,1 L0,1 Z M-1,1 L0,1 L0,2 L-1,2 Z M-2,2 L-1,2 L-1,3 L-2,3 Z " fill="#A6654A" transform="translate(59,27)"/>
<path d="M0,0 L1,0 L1,1 L0,1 Z M1,1 L2,1 L2,2 L1,2 Z M2,2 L3,2 L3,3 L2,3 Z " fill="#A7664A" transform="translate(4,27)"/>
<path d="M0,0 L3,0 L3,1 L0,1 Z " fill="#BF673E" transform="translate(53,23)"/>
<path d="M0,0 L3,0 L3,1 L0,1 Z " fill="#BF673E" transform="translate(8,23)"/>
<path d="M0,0 L1,0 L1,1 L0,1 Z M-1,1 L0,1 L0,2 L-1,2 Z " fill="#343440" opacity="0.40392157" transform="translate(2,9)"/>
<path d="M0,0 L1,0 L1,1 L0,1 Z " fill="#343441" opacity="0.47843137" transform="translate(59,8)"/>
<path d="M0,0 L1,0 L1,1 L0,1 Z " fill="#343440" opacity="0.9529412" transform="translate(38,2)"/>
<path d="M0,0 L1,0 L1,1 L0,1 Z " fill="#343441" opacity="0.4627451" transform="translate(4,55)"/>
<path d="M0,0 L1,0 L1,1 L0,1 Z " fill="#343440" opacity="0.9607843" transform="translate(3,54)"/>
<path d="M0,0 L1,0 L1,1 L0,1 Z " fill="#353540" opacity="0.06666667" transform="translate(63,52)"/>
<path d="M0,0 L1,0 L1,1 L0,1 Z " fill="#333340" opacity="0.078431375" transform="translate(0,52)"/>
<path d="M0,0 L2,0 L2,1 L0,1 Z " fill="#D3794E" transform="translate(6,51)"/>
<path d="M0,0 L1,0 L1,1 L0,1 Z M1,1 L2,1 L2,2 L1,2 Z " fill="#A76040" transform="translate(55,44)"/>
<path d="M0,0 L1,0 L1,1 L0,1 Z M-1,1 L0,1 L0,2 L-1,2 Z " fill="#A76040" transform="translate(53,44)"/>
<path d="M0,0 L1,0 L1,1 L0,1 Z M1,1 L2,1 L2,2 L1,2 Z " fill="#A76040" transform="translate(10,44)"/>
<path d="M0,0 L1,0 L1,1 L0,1 Z M-1,1 L0,1 L0,2 L-1,2 Z " fill="#A76040" transform="translate(8,44)"/>
<path d="M0,0 L1,0 L1,1 L0,1 Z " fill="#343440" opacity="0.72156864" transform="translate(63,35)"/>
<path d="M0,0 L1,0 L1,1 L0,1 Z " fill="#343440" opacity="0.72156864" transform="translate(0,35)"/>
<path d="M0,0 L1,0 L1,2 L0,2 Z " fill="#473C42" transform="translate(56,31)"/>
<path d="M0,0 L1,0 L1,2 L0,2 Z " fill="#483C42" transform="translate(7,31)"/>
<path d="M0,0 L1,0 L1,1 L0,1 Z M-1,1 L0,1 L0,2 L-1,2 Z " fill="#323240" opacity="0.29803923" transform="translate(2,32)"/>
<path d="M0,0 L1,0 L1,1 L0,1 Z M-1,1 L0,1 L0,2 L-1,2 Z " fill="#35353F" opacity="0.39607844" transform="translate(62,30)"/>
<path d="M0,0 L1,0 L1,1 L0,1 Z M1,1 L2,1 L2,2 L1,2 Z " fill="#343440" opacity="0.99607843" transform="translate(2,30)"/>
<path d="M0,0 L1,0 L1,1 L0,1 Z " fill="#343441" opacity="0.9882353" transform="translate(1,29)"/>
<path d="M0,0 L1,0 L1,1 L0,1 Z M1,1 L2,1 L2,2 L1,2 Z " fill="#383540" transform="translate(4,28)"/>
<path d="M0,0 L1,0 L1,2 L0,2 Z " fill="#D67A4E" transform="translate(59,18)"/>
<path d="M0,0 L1,0 L1,1 L0,1 Z M1,1 L2,1 L2,2 L1,2 Z " fill="#A76040" transform="translate(55,19)"/>
<path d="M0,0 L1,0 L1,1 L0,1 Z M-1,1 L0,1 L0,2 L-1,2 Z " fill="#A76040" transform="translate(53,19)"/>
<path d="M0,0 L1,0 L1,1 L0,1 Z M1,1 L2,1 L2,2 L1,2 Z " fill="#A76040" transform="translate(10,19)"/>
<path d="M0,0 L1,0 L1,1 L0,1 Z M-1,1 L0,1 L0,2 L-1,2 Z " fill="#A76040" transform="translate(8,19)"/>
<path d="M0,0 L1,0 L1,2 L0,2 Z " fill="#C2724E" transform="translate(4,17)"/>
<path d="M0,0 L2,0 L2,1 L0,1 Z " fill="#C87E5D" transform="translate(57,16)"/>
<path d="M0,0 L2,0 L2,1 L0,1 Z " fill="#C2724D" transform="translate(5,16)"/>
<path d="M0,0 L1,0 L1,2 L0,2 Z " fill="#EC976E" transform="translate(59,14)"/>
<path d="M0,0 L1,0 L1,2 L0,2 Z " fill="#ED986E" transform="translate(4,14)"/>
<path d="M0,0 L1,0 L1,1 L0,1 Z " fill="#34343F" opacity="0.4745098" transform="translate(63,12)"/>
<path d="M0,0 L2,0 L2,1 L0,1 Z " fill="#ED986E" transform="translate(6,12)"/>
<path d="M0,0 L1,0 L1,1 L0,1 Z M-1,1 L0,1 L0,2 L-1,2 Z " fill="#72554F" transform="translate(5,12)"/>
<path d="M0,0 L1,0 L1,1 L0,1 Z " fill="#333340" opacity="0.4862745" transform="translate(0,12)"/>
<path d="M0,0 L1,0 L1,1 L0,1 Z " fill="#343440" opacity="0.96862745" transform="translate(62,11)"/>
<path d="M0,0 L1,0 L1,2 L0,2 Z " fill="#AF613E" transform="translate(39,9)"/>
<path d="M0,0 L1,0 L1,2 L0,2 Z " fill="#B0623D" transform="translate(24,9)"/>
<path d="M0,0 L1,0 L1,1 L0,1 Z " fill="#333340" opacity="0.4862745" transform="translate(4,8)"/>
<path d="M0,0 L1,0 L1,1 L0,1 Z " fill="#343441" opacity="0.9882353" transform="translate(21,7)"/>
<path d="M0,0 L1,0 L1,1 L0,1 Z " fill="#343441" opacity="0.6156863" transform="translate(42,6)"/>
<path d="M0,0 L1,0 L1,1 L0,1 Z M1,1 L2,1 L2,2 L1,2 Z " fill="#383540" transform="translate(37,5)"/>
<path d="M0,0 L2,0 L2,1 L0,1 Z " fill="#AC603E" transform="translate(29,4)"/>
<path d="M0,0 L1,0 L1,1 L0,1 Z " fill="#353540" opacity="0.9843137" transform="translate(24,3)"/>
<path d="M0,0 L1,0 L1,1 L0,1 Z " fill="#343441" opacity="0.6313726" transform="translate(26,1)"/>
<path d="M0,0 L1,0 L1,1 L0,1 Z " fill="#333341" opacity="0.13725491" transform="translate(36,0)"/>
<path d="M0,0 L1,0 L1,1 L0,1 Z " fill="#343440" opacity="0.41960785" transform="translate(28,0)"/>
<path d="M0,0 L1,0 L1,1 L0,1 Z " fill="#343440" opacity="0.07450981" transform="translate(60,55)"/>
<path d="M0,0 L1,0 L1,1 L0,1 Z " fill="#343440" opacity="0.72156864" transform="translate(58,55)"/>
<path d="M0,0 L1,0 L1,1 L0,1 Z " fill="#343440" opacity="0.8980392" transform="translate(57,55)"/>
<path d="M0,0 L1,0 L1,1 L0,1 Z " fill="#343440" opacity="0.96862745" transform="translate(56,55)"/>
<path d="M0,0 L1,0 L1,1 L0,1 Z " fill="#343441" opacity="0.972549" transform="translate(7,55)"/>
<path d="M0,0 L1,0 L1,1 L0,1 Z " fill="#343441" opacity="0.7254902" transform="translate(5,55)"/>
<path d="M0,0 L1,0 L1,1 L0,1 Z " fill="#333340" opacity="0.078431375" transform="translate(3,55)"/>
<path d="M0,0 L1,0 L1,1 L0,1 Z " fill="#34343F" opacity="0.3647059" transform="translate(61,54)"/>
<path d="M0,0 L1,0 L1,1 L0,1 Z " fill="#343440" opacity="0.9529412" transform="translate(60,54)"/>
<path d="M0,0 L1,0 L1,1 L0,1 Z " fill="#34343F" opacity="0.38039216" transform="translate(2,54)"/>
<path d="M0,0 L1,0 L1,1 L0,1 Z " fill="#353540" opacity="0.35686275" transform="translate(62,53)"/>
<path d="M0,0 L1,0 L1,1 L0,1 Z " fill="#353540" opacity="0.3764706" transform="translate(1,53)"/>
<path d="M0,0 L1,0 L1,1 L0,1 Z " fill="#353540" opacity="0.94509804" transform="translate(62,52)"/>
<path d="M0,0 L1,0 L1,1 L0,1 Z " fill="#353541" transform="translate(40,52)"/>
<path d="M0,0 L1,0 L1,1 L0,1 Z " fill="#343441" opacity="0.95686275" transform="translate(1,52)"/>
<path d="M0,0 L1,0 L1,1 L0,1 Z " fill="#353540" opacity="0.4509804" transform="translate(63,51)"/>
<path d="M0,0 L1,0 L1,1 L0,1 Z " fill="#684B45" transform="translate(58,51)"/>
<path d="M0,0 L1,0 L1,1 L0,1 Z " fill="#B86D4B" transform="translate(57,51)"/>
<path d="M0,0 L1,0 L1,1 L0,1 Z " fill="#D2784D" transform="translate(56,51)"/>
<path d="M0,0 L1,0 L1,1 L0,1 Z " fill="#B86D4B" transform="translate(6,51)"/>
<path d="M0,0 L1,0 L1,1 L0,1 Z " fill="#694B44" transform="translate(5,51)"/>
<path d="M0,0 L1,0 L1,1 L0,1 Z " fill="#333340" opacity="0.46666667" transform="translate(0,51)"/>
<path d="M0,0 L1,0 L1,1 L0,1 Z " fill="#343441" opacity="0.7254902" transform="translate(63,50)"/>
<path d="M0,0 L1,0 L1,1 L0,1 Z " fill="#664945" transform="translate(59,50)"/>
<path d="M0,0 L1,0 L1,1 L0,1 Z " fill="#684A45" transform="translate(4,50)"/>
<path d="M0,0 L1,0 L1,1 L0,1 Z " fill="#343441" opacity="0.7411765" transform="translate(0,50)"/>
<path d="M0,0 L1,0 L1,1 L0,1 Z " fill="#343440" opacity="0.8862745" transform="translate(63,49)"/>
<path d="M0,0 L1,0 L1,1 L0,1 Z " fill="#B56C4B" transform="translate(59,49)"/>
<path d="M0,0 L1,0 L1,1 L0,1 Z " fill="#B86D4B" transform="translate(4,49)"/>
<path d="M0,0 L1,0 L1,1 L0,1 Z " fill="#343440" opacity="0.8980392" transform="translate(0,49)"/>
<path d="M0,0 L1,0 L1,1 L0,1 Z " fill="#353540" opacity="0.9843137" transform="translate(63,48)"/>
<path d="M0,0 L1,0 L1,1 L0,1 Z " fill="#D57A4E" transform="translate(59,48)"/>
<path d="M0,0 L1,0 L1,1 L0,1 Z " fill="#DB7D4D" transform="translate(56,48)"/>
<path d="M0,0 L1,0 L1,1 L0,1 Z " fill="#A66040" transform="translate(55,48)"/>
<path d="M0,0 L1,0 L1,1 L0,1 Z " fill="#A76040" transform="translate(53,48)"/>
<path d="M0,0 L1,0 L1,1 L0,1 Z " fill="#DB7D4D" transform="translate(52,48)"/>
<path d="M0,0 L1,0 L1,1 L0,1 Z " fill="#DB7D4D" transform="translate(11,48)"/>
<path d="M0,0 L1,0 L1,1 L0,1 Z " fill="#A66040" transform="translate(10,48)"/>
<path d="M0,0 L1,0 L1,1 L0,1 Z " fill="#A76040" transform="translate(8,48)"/>
<path d="M0,0 L1,0 L1,1 L0,1 Z " fill="#DB7D4D" transform="translate(7,48)"/>
<path d="M0,0 L1,0 L1,1 L0,1 Z " fill="#D67A4E" transform="translate(4,48)"/>
<path d="M0,0 L1,0 L1,1 L0,1 Z " fill="#343441" opacity="0.9882353" transform="translate(0,48)"/>
<path d="M0,0 L1,0 L1,1 L0,1 Z " fill="#A75F40" transform="translate(56,47)"/>
<path d="M0,0 L1,0 L1,1 L0,1 Z " fill="#A66040" transform="translate(52,47)"/>
<path d="M0,0 L1,0 L1,1 L0,1 Z " fill="#A75F40" transform="translate(11,47)"/>
<path d="M0,0 L1,0 L1,1 L0,1 Z " fill="#A66040" transform="translate(7,47)"/>
<path d="M0,0 L1,0 L1,1 L0,1 Z " fill="#BF673E" transform="translate(56,46)"/>
<path d="M0,0 L1,0 L1,1 L0,1 Z " fill="#C0673D" transform="translate(52,46)"/>
<path d="M0,0 L1,0 L1,1 L0,1 Z " fill="#BF673E" transform="translate(11,46)"/>
<path d="M0,0 L1,0 L1,1 L0,1 Z " fill="#C0673D" transform="translate(7,46)"/>
<path d="M0,0 L1,0 L1,1 L0,1 Z " fill="#C66A3E" transform="translate(53,45)"/>
<path d="M0,0 L1,0 L1,1 L0,1 Z " fill="#C66A3E" transform="translate(8,45)"/>
<path d="M0,0 L1,0 L1,1 L0,1 Z " fill="#DA7C4D" transform="translate(56,44)"/>
<path d="M0,0 L1,0 L1,1 L0,1 Z " fill="#C0673D" transform="translate(54,44)"/>
<path d="M0,0 L1,0 L1,1 L0,1 Z " fill="#DA7B4E" transform="translate(52,44)"/>
<path d="M0,0 L1,0 L1,1 L0,1 Z " fill="#DA7C4D" transform="translate(11,44)"/>
<path d="M0,0 L1,0 L1,1 L0,1 Z " fill="#C0673D" transform="translate(9,44)"/>
<path d="M0,0 L1,0 L1,1 L0,1 Z " fill="#DA7B4E" transform="translate(7,44)"/>
<path d="M0,0 L1,0 L1,1 L0,1 Z " fill="#343440" opacity="0.9372549" transform="translate(63,36)"/>
<path d="M0,0 L1,0 L1,1 L0,1 Z " fill="#A26449" transform="translate(4,36)"/>
<path d="M0,0 L1,0 L1,1 L0,1 Z " fill="#343440" opacity="0.9372549" transform="translate(0,36)"/>
<path d="M0,0 L1,0 L1,1 L0,1 Z " fill="#A36449" transform="translate(5,35)"/>
<path d="M0,0 L1,0 L1,1 L0,1 Z " fill="#32323D" opacity="0.18039216" transform="translate(63,34)"/>
<path d="M0,0 L1,0 L1,1 L0,1 Z " fill="#343440" opacity="0.98039216" transform="translate(62,34)"/>
<path d="M0,0 L1,0 L1,1 L0,1 Z " fill="#A4654A" transform="translate(6,34)"/>
<path d="M0,0 L1,0 L1,1 L0,1 Z " fill="#343441" opacity="0.972549" transform="translate(1,34)"/>
<path d="M0,0 L1,0 L1,1 L0,1 Z " fill="#353541" opacity="0.16862746" transform="translate(0,34)"/>
<path d="M0,0 L1,0 L1,1 L0,1 Z " fill="#353540" opacity="0.9843137" transform="translate(61,33)"/>
<path d="M0,0 L1,0 L1,1 L0,1 Z " fill="#A7664A" transform="translate(56,33)"/>
<path d="M0,0 L1,0 L1,1 L0,1 Z " fill="#A9674A" transform="translate(7,33)"/>
<path d="M0,0 L1,0 L1,1 L0,1 Z " fill="#343441" opacity="0.9882353" transform="translate(60,32)"/>
<path d="M0,0 L1,0 L1,1 L0,1 Z " fill="#4C3E43" transform="translate(56,31)"/>
<path d="M0,0 L1,0 L1,1 L0,1 Z " fill="#483D41" transform="translate(7,31)"/>
<path d="M0,0 L1,0 L1,1 L0,1 Z " fill="#AC684B" transform="translate(56,30)"/>
<path d="M0,0 L1,0 L1,1 L0,1 Z " fill="#AE694A" transform="translate(7,30)"/>
<path d="M0,0 L1,0 L1,1 L0,1 Z " fill="#393641" transform="translate(6,30)"/>
<path d="M0,0 L1,0 L1,1 L0,1 Z " fill="#333341" opacity="0.21568628" transform="translate(63,29)"/>
<path d="M0,0 L1,0 L1,1 L0,1 Z " fill="#343440" opacity="0.99215686" transform="translate(62,29)"/>
<path d="M0,0 L1,0 L1,1 L0,1 Z " fill="#313140" opacity="0.20392157" transform="translate(0,29)"/>
<path d="M0,0 L1,0 L1,1 L0,1 Z " fill="#353540" opacity="0.7372549" transform="translate(63,28)"/>
<path d="M0,0 L1,0 L1,1 L0,1 Z " fill="#343441" opacity="0.7411765" transform="translate(0,28)"/>
<path d="M0,0 L1,0 L1,1 L0,1 Z " fill="#343441" opacity="0.9411765" transform="translate(63,27)"/>
<path d="M0,0 L1,0 L1,1 L0,1 Z " fill="#353540" opacity="0.94509804" transform="translate(0,27)"/>
<path d="M0,0 L1,0 L1,1 L0,1 Z " fill="#DB7D4D" transform="translate(56,23)"/>
<path d="M0,0 L1,0 L1,1 L0,1 Z " fill="#A66040" transform="translate(55,23)"/>
<path d="M0,0 L1,0 L1,1 L0,1 Z " fill="#A76040" transform="translate(53,23)"/>
<path d="M0,0 L1,0 L1,1 L0,1 Z " fill="#DB7D4D" transform="translate(52,23)"/>
<path d="M0,0 L1,0 L1,1 L0,1 Z " fill="#DB7D4D" transform="translate(11,23)"/>
<path d="M0,0 L1,0 L1,1 L0,1 Z " fill="#A66040" transform="translate(10,23)"/>
<path d="M0,0 L1,0 L1,1 L0,1 Z " fill="#A76040" transform="translate(8,23)"/>
<path d="M0,0 L1,0 L1,1 L0,1 Z " fill="#DB7D4D" transform="translate(7,23)"/>
<path d="M0,0 L1,0 L1,1 L0,1 Z " fill="#A75F40" transform="translate(56,22)"/>
<path d="M0,0 L1,0 L1,1 L0,1 Z " fill="#A66040" transform="translate(52,22)"/>
<path d="M0,0 L1,0 L1,1 L0,1 Z " fill="#A75F40" transform="translate(11,22)"/>
<path d="M0,0 L1,0 L1,1 L0,1 Z " fill="#A66040" transform="translate(7,22)"/>
<path d="M0,0 L1,0 L1,1 L0,1 Z " fill="#BF673E" transform="translate(56,21)"/>
<path d="M0,0 L1,0 L1,1 L0,1 Z " fill="#C0673D" transform="translate(52,21)"/>
<path d="M0,0 L1,0 L1,1 L0,1 Z " fill="#BF673E" transform="translate(11,21)"/>
<path d="M0,0 L1,0 L1,1 L0,1 Z " fill="#C0673D" transform="translate(7,21)"/>
<path d="M0,0 L1,0 L1,1 L0,1 Z " fill="#C66A3E" transform="translate(53,20)"/>
<path d="M0,0 L1,0 L1,1 L0,1 Z " fill="#C66A3E" transform="translate(8,20)"/>
<path d="M0,0 L1,0 L1,1 L0,1 Z " fill="#DA7C4D" transform="translate(56,19)"/>
<path d="M0,0 L1,0 L1,1 L0,1 Z " fill="#C0673D" transform="translate(54,19)"/>
<path d="M0,0 L1,0 L1,1 L0,1 Z " fill="#DA7B4E" transform="translate(52,19)"/>
<path d="M0,0 L1,0 L1,1 L0,1 Z " fill="#DA7C4D" transform="translate(11,19)"/>
<path d="M0,0 L1,0 L1,1 L0,1 Z " fill="#C0673D" transform="translate(9,19)"/>
<path d="M0,0 L1,0 L1,1 L0,1 Z " fill="#DA7B4E" transform="translate(7,19)"/>
<path d="M0,0 L1,0 L1,1 L0,1 Z " fill="#D67A4E" transform="translate(4,19)"/>
<path d="M0,0 L1,0 L1,1 L0,1 Z " fill="#C1724E" transform="translate(59,18)"/>
<path d="M0,0 L1,0 L1,1 L0,1 Z " fill="#CA7F5D" transform="translate(59,17)"/>
<path d="M0,0 L1,0 L1,1 L0,1 Z " fill="#DE7E4F" transform="translate(5,17)"/>
<path d="M0,0 L1,0 L1,1 L0,1 Z " fill="#C87E5B" transform="translate(4,17)"/>
<path d="M0,0 L1,0 L1,1 L0,1 Z " fill="#C2724E" transform="translate(57,16)"/>
<path d="M0,0 L1,0 L1,1 L0,1 Z " fill="#D4794E" transform="translate(56,16)"/>
<path d="M0,0 L1,0 L1,1 L0,1 Z " fill="#D4794E" transform="translate(7,16)"/>
<path d="M0,0 L1,0 L1,1 L0,1 Z " fill="#C77D5C" transform="translate(5,16)"/>
<path d="M0,0 L1,0 L1,1 L0,1 Z " fill="#343441" opacity="0.972549" transform="translate(63,15)"/>
<path d="M0,0 L1,0 L1,1 L0,1 Z " fill="#343441" opacity="0.972549" transform="translate(0,15)"/>
<path d="M0,0 L1,0 L1,1 L0,1 Z " fill="#CD8666" transform="translate(59,14)"/>
<path d="M0,0 L1,0 L1,1 L0,1 Z " fill="#CF8767" transform="translate(4,14)"/>
<path d="M0,0 L1,0 L1,1 L0,1 Z " fill="#343440" opacity="0.7294118" transform="translate(63,13)"/>
<path d="M0,0 L1,0 L1,1 L0,1 Z " fill="#71554F" transform="translate(59,13)"/>
<path d="M0,0 L1,0 L1,1 L0,1 Z " fill="#FA9F72" transform="translate(5,13)"/>
<path d="M0,0 L1,0 L1,1 L0,1 Z " fill="#343440" opacity="0.74509805" transform="translate(0,13)"/>
<path d="M0,0 L1,0 L1,1 L0,1 Z " fill="#715550" transform="translate(58,12)"/>
<path d="M0,0 L1,0 L1,1 L0,1 Z " fill="#CE8766" transform="translate(57,12)"/>
<path d="M0,0 L1,0 L1,1 L0,1 Z " fill="#EC976E" transform="translate(56,12)"/>
<path d="M0,0 L1,0 L1,1 L0,1 Z " fill="#CF8767" transform="translate(6,12)"/>
<path d="M0,0 L1,0 L1,1 L0,1 Z " fill="#353540" transform="translate(4,12)"/>
<path d="M0,0 L1,0 L1,1 L0,1 Z " fill="#30303C" opacity="0.08235294" transform="translate(63,11)"/>
<path d="M0,0 L1,0 L1,1 L0,1 Z " fill="#BF673E" transform="translate(39,11)"/>
<path d="M0,0 L1,0 L1,1 L0,1 Z " fill="#C0673D" transform="translate(24,11)"/>
<path d="M0,0 L1,0 L1,1 L0,1 Z " fill="#343441" opacity="0.972549" transform="translate(1,11)"/>
<path d="M0,0 L1,0 L1,1 L0,1 Z " fill="#2C2C42" opacity="0.09019608" transform="translate(0,11)"/>
<path d="M0,0 L1,0 L1,1 L0,1 Z " fill="#333340" opacity="0.39215687" transform="translate(62,10)"/>
<path d="M0,0 L1,0 L1,1 L0,1 Z " fill="#353541" transform="translate(2,10)"/>
<path d="M0,0 L1,0 L1,1 L0,1 Z " fill="#35353F" opacity="0.39607844" transform="translate(61,9)"/>
<path d="M0,0 L1,0 L1,1 L0,1 Z " fill="#343440" opacity="0.96862745" transform="translate(60,9)"/>
<path d="M0,0 L1,0 L1,1 L0,1 Z " fill="#88533E" transform="translate(39,9)"/>
<path d="M0,0 L1,0 L1,1 L0,1 Z " fill="#89533E" transform="translate(24,9)"/>
<path d="M0,0 L1,0 L1,1 L0,1 Z " fill="#343441" opacity="0.972549" transform="translate(3,9)"/>
<path d="M0,0 L1,0 L1,1 L0,1 Z " fill="#343440" opacity="0.003921569" transform="translate(1,9)"/>
<path d="M0,0 L1,0 L1,1 L0,1 Z " fill="#2E2E3A" opacity="0.08627451" transform="translate(60,8)"/>
<path d="M0,0 L1,0 L1,1 L0,1 Z " fill="#343441" opacity="0.7411765" transform="translate(58,8)"/>
<path d="M0,0 L1,0 L1,1 L0,1 Z " fill="#343441" opacity="0.9098039" transform="translate(57,8)"/>
<path d="M0,0 L1,0 L1,1 L0,1 Z " fill="#343441" opacity="0.972549" transform="translate(56,8)"/>
<path d="M0,0 L1,0 L1,1 L0,1 Z " fill="#503E40" transform="translate(39,8)"/>
<path d="M0,0 L1,0 L1,1 L0,1 Z " fill="#C5693D" transform="translate(38,8)"/>
<path d="M0,0 L1,0 L1,1 L0,1 Z " fill="#503E40" transform="translate(24,8)"/>
<path d="M0,0 L1,0 L1,1 L0,1 Z " fill="#343441" opacity="0.972549" transform="translate(7,8)"/>
<path d="M0,0 L1,0 L1,1 L0,1 Z " fill="#343440" opacity="0.74509805" transform="translate(5,8)"/>
<path d="M0,0 L1,0 L1,1 L0,1 Z " fill="#2C2C42" opacity="0.09019608" transform="translate(3,8)"/>
<path d="M0,0 L1,0 L1,1 L0,1 Z " fill="#313142" opacity="0.12156863" transform="translate(43,7)"/>
<path d="M0,0 L1,0 L1,1 L0,1 Z " fill="#353540" opacity="0.9843137" transform="translate(42,7)"/>
<path d="M0,0 L1,0 L1,1 L0,1 Z " fill="#89533F" transform="translate(38,7)"/>
<path d="M0,0 L1,0 L1,1 L0,1 Z " fill="#8C543F" transform="translate(25,7)"/>
<path d="M0,0 L1,0 L1,1 L0,1 Z " fill="#333341" opacity="0.13725491" transform="translate(20,7)"/>
<path d="M0,0 L1,0 L1,1 L0,1 Z " fill="#9F5B3E" transform="translate(37,6)"/>
<path d="M0,0 L1,0 L1,1 L0,1 Z " fill="#9F5B3F" transform="translate(26,6)"/>
<path d="M0,0 L1,0 L1,1 L0,1 Z " fill="#393640" transform="translate(25,6)"/>
<path d="M0,0 L1,0 L1,1 L0,1 Z " fill="#343441" opacity="0.6313726" transform="translate(21,6)"/>
<path d="M0,0 L1,0 L1,1 L0,1 Z " fill="#36363E" opacity="0.12941177" transform="translate(42,5)"/>
<path d="M0,0 L1,0 L1,1 L0,1 Z " fill="#343441" opacity="0.9411765" transform="translate(41,5)"/>
<path d="M0,0 L1,0 L1,1 L0,1 Z " fill="#8A543F" transform="translate(36,5)"/>
<path d="M0,0 L1,0 L1,1 L0,1 Z " fill="#C5693D" transform="translate(35,5)"/>
<path d="M0,0 L1,0 L1,1 L0,1 Z " fill="#87533F" transform="translate(27,5)"/>
<path d="M0,0 L1,0 L1,1 L0,1 Z " fill="#373540" transform="translate(26,5)"/>
<path d="M0,0 L1,0 L1,1 L0,1 Z " fill="#36363E" opacity="0.12941177" transform="translate(21,5)"/>
<path d="M0,0 L1,0 L1,1 L0,1 Z " fill="#34343F" opacity="0.28627452" transform="translate(41,4)"/>
<path d="M0,0 L1,0 L1,1 L0,1 Z " fill="#503E40" transform="translate(35,4)"/>
<path d="M0,0 L1,0 L1,1 L0,1 Z " fill="#8A543F" transform="translate(34,4)"/>
<path d="M0,0 L1,0 L1,1 L0,1 Z " fill="#B0623D" transform="translate(33,4)"/>
<path d="M0,0 L1,0 L1,1 L0,1 Z " fill="#BE673D" transform="translate(31,4)"/>
<path d="M0,0 L1,0 L1,1 L0,1 Z " fill="#88533E" transform="translate(29,4)"/>
<path d="M0,0 L1,0 L1,1 L0,1 Z " fill="#4D3D3F" transform="translate(28,4)"/>
<path d="M0,0 L1,0 L1,1 L0,1 Z " fill="#343441" opacity="0.9882353" transform="translate(23,4)"/>
<path d="M0,0 L1,0 L1,1 L0,1 Z " fill="#33333F" opacity="0.27058825" transform="translate(22,4)"/>
<path d="M0,0 L1,0 L1,1 L0,1 Z " fill="#353541" opacity="0.41568628" transform="translate(40,3)"/>
<path d="M0,0 L1,0 L1,1 L0,1 Z " fill="#353540" opacity="0.3764706" transform="translate(23,3)"/>
<path d="M0,0 L1,0 L1,1 L0,1 Z " fill="#323240" opacity="0.29803923" transform="translate(39,2)"/>
<path d="M0,0 L1,0 L1,1 L0,1 Z " fill="#333340" opacity="0.23529412" transform="translate(24,2)"/>
<path d="M0,0 L1,0 L1,1 L0,1 Z " fill="#33333B" opacity="0.11764706" transform="translate(38,1)"/>
<path d="M0,0 L1,0 L1,1 L0,1 Z " fill="#343441" opacity="0.6313726" transform="translate(37,1)"/>
<path d="M0,0 L1,0 L1,1 L0,1 Z " fill="#343440" opacity="0.96862745" transform="translate(27,1)"/>
<path d="M0,0 L1,0 L1,1 L0,1 Z " fill="#31313B" opacity="0.101960786" transform="translate(25,1)"/>
<path d="M0,0 L1,0 L1,1 L0,1 Z " fill="#353540" opacity="0.4509804" transform="translate(35,0)"/>
<path d="M0,0 L1,0 L1,1 L0,1 Z " fill="#343441" opacity="0.7411765" transform="translate(34,0)"/>
<path d="M0,0 L1,0 L1,1 L0,1 Z " fill="#353540" opacity="0.87058824" transform="translate(33,0)"/>
<path d="M0,0 L1,0 L1,1 L0,1 Z " fill="#343441" opacity="0.9411765" transform="translate(31,0)"/>
<path d="M0,0 L1,0 L1,1 L0,1 Z " fill="#343440" opacity="0.6862745" transform="translate(29,0)"/>
<path d="M0,0 L1,0 L1,1 L0,1 Z " fill="#343440" opacity="0.0627451" transform="translate(27,0)"/>
</svg>
