<?xml version="1.0" encoding="UTF-8"?>
<!-- Generator: visioncortex VTracer 0.6.4 -->
<svg version="1.1" xmlns="http://www.w3.org/2000/svg" width="64" height="64">
<path d="M0,0 L10,0 L10,1 L12,1 L12,2 L13,2 L13,3 L14,3 L14,4 L15,4 L15,5 L16,5 L16,6 L18,6 L18,7 L19,7 L19,8 L20,8 L20,9 L21,9 L21,10 L22,10 L22,11 L24,11 L24,12 L25,12 L25,13 L27,13 L27,14 L29,14 L29,15 L31,15 L31,16 L33,16 L33,17 L34,17 L34,19 L31,19 L31,18 L29,18 L29,17 L26,17 L26,16 L25,16 L25,15 L23,15 L23,14 L22,14 L22,13 L20,13 L20,12 L19,12 L19,11 L18,11 L18,10 L17,10 L17,9 L16,9 L16,8 L15,8 L15,7 L14,7 L14,6 L13,6 L13,5 L11,5 L11,4 L10,4 L10,3 L0,3 L0,4 L-2,4 L-2,5 L-3,5 L-3,6 L-4,6 L-4,7 L-5,7 L-5,8 L-6,8 L-6,9 L-12,9 L-12,10 L-14,10 L-14,11 L-15,11 L-15,12 L-16,12 L-16,13 L-17,13 L-17,14 L-18,14 L-18,15 L-19,15 L-19,16 L-21,16 L-21,17 L-22,17 L-22,18 L-25,18 L-25,19 L-28,19 L-28,17 L-27,17 L-27,16 L-25,16 L-25,15 L-23,15 L-23,14 L-21,14 L-21,13 L-20,13 L-20,12 L-19,12 L-19,11 L-18,11 L-18,10 L-17,10 L-17,9 L-16,9 L-16,8 L-15,8 L-15,7 L-13,7 L-13,6 L-7,6 L-7,5 L-6,5 L-6,4 L-5,4 L-5,3 L-4,3 L-4,2 L-2,2 L-2,1 L0,1 Z M0,4 L9,4 L9,5 L11,5 L11,6 L12,6 L12,7 L13,7 L13,8 L14,8 L14,9 L15,9 L15,10 L16,10 L16,11 L17,11 L17,12 L18,12 L18,13 L20,13 L20,14 L21,14 L21,15 L22,15 L22,16 L24,16 L24,17 L26,17 L26,18 L28,18 L28,19 L-22,19 L-22,18 L-20,18 L-20,17 L-19,17 L-19,16 L-17,16 L-17,14 L-16,14 L-16,13 L-15,13 L-15,12 L-14,12 L-14,11 L-12,11 L-12,10 L-5,10 L-5,9 L-4,9 L-4,8 L-3,8 L-3,7 L-2,7 L-2,6 L-1,6 L-1,5 L0,5 Z " fill="#FFFFFF" transform="translate(29,45)"/>
<path d="M0,0 L10,0 L10,1 L12,1 L12,2 L13,2 L13,3 L14,3 L14,4 L15,4 L15,5 L16,5 L16,6 L18,6 L18,7 L19,7 L19,8 L20,8 L20,9 L21,9 L21,10 L22,10 L22,11 L24,11 L24,12 L25,12 L25,13 L27,13 L27,14 L29,14 L29,15 L31,15 L31,16 L33,16 L33,17 L34,17 L34,19 L31,19 L31,18 L29,18 L29,17 L26,17 L26,16 L25,16 L25,15 L23,15 L23,14 L22,14 L22,13 L20,13 L20,12 L19,12 L19,11 L18,11 L18,10 L17,10 L17,9 L16,9 L16,8 L15,8 L15,7 L14,7 L14,6 L13,6 L13,5 L11,5 L11,4 L10,4 L10,3 L0,3 L0,4 L-2,4 L-2,5 L-3,5 L-3,6 L-4,6 L-4,7 L-5,7 L-5,8 L-6,8 L-6,9 L-12,9 L-12,10 L-14,10 L-14,11 L-15,11 L-15,12 L-16,12 L-16,13 L-17,13 L-17,14 L-18,14 L-18,15 L-19,15 L-19,16 L-21,16 L-21,17 L-22,17 L-22,18 L-25,18 L-25,19 L-28,19 L-28,17 L-27,17 L-27,16 L-25,16 L-25,15 L-23,15 L-23,14 L-21,14 L-21,13 L-20,13 L-20,12 L-19,12 L-19,11 L-18,11 L-18,10 L-17,10 L-17,9 L-16,9 L-16,8 L-15,8 L-15,7 L-13,7 L-13,6 L-7,6 L-7,5 L-6,5 L-6,4 L-5,4 L-5,3 L-4,3 L-4,2 L-2,2 L-2,1 L0,1 Z " fill="#E5F0FF" transform="translate(29,45)"/>
<path d="M0,0 L1,0 L1,1 L0,1 Z " fill="#E5F0FF" opacity="0.9764706" transform="translate(60,60)"/>
<path d="M0,0 L1,0 L1,1 L0,1 Z " fill="#E5F0FF" opacity="0.9764706" transform="translate(33,44)"/>
<path d="M0,0 L1,0 L1,1 L0,1 Z M-1,1 L0,1 L0,2 L-1,2 Z M-2,2 L-1,2 L-1,3 L-2,3 Z M-3,3 L-2,3 L-2,4 L-3,4 Z " fill="#FFFFFF" transform="translate(15,56)"/>
<path d="M0,0 L1,0 L1,1 L0,1 Z M-1,1 L0,1 L0,2 L-1,2 Z M-3,2 L-1,2 L-1,3 L-3,3 Z " fill="#FFFFFF" transform="translate(10,61)"/>
<path d="M0,0 L1,0 L1,1 L0,1 Z M1,1 L2,1 L2,2 L1,2 Z M2,2 L3,2 L3,3 L2,3 Z " fill="#E5F0FF" opacity="0.99607843" transform="translate(43,48)"/>
<path d="M0,0 L1,0 L1,1 L0,1 Z " fill="#FFFFFF" opacity="0.972549" transform="translate(33,48)"/>
<path d="M0,0 L1,0 L1,1 L0,1 Z " fill="#FFFFFF" opacity="0.9254902" transform="translate(34,48)"/>
<path d="M0,0 L1,0 L1,1 L0,1 Z " fill="#FCFEFF" opacity="0.77254903" transform="translate(20,54)"/>
<path d="M0,0 L1,0 L1,1 L0,1 Z " fill="#E5F0FF" opacity="0.91764706" transform="translate(9,56)"/>
<path d="M0,0 L1,0 L1,1 L0,1 Z " fill="#E5F0FF" opacity="0.9098039" transform="translate(62,61)"/>
<path d="M0,0 L1,0 L1,1 L0,1 Z " fill="#E5F0FF" opacity="0.972549" transform="translate(54,57)"/>
<path d="M0,0 L1,0 L1,1 L0,1 Z " fill="#E5F0FF" opacity="0.9764706" transform="translate(51,55)"/>
<path d="M0,0 L1,0 L1,1 L0,1 Z " fill="#E5F0FF" opacity="0.7882353" transform="translate(13,52)"/>
<path d="M0,0 L1,0 L1,1 L0,1 Z " fill="#E6F1FF" opacity="0.61960787" transform="translate(18,50)"/>
<path d="M0,0 L1,0 L1,1 L0,1 Z " fill="#E5F0FF" opacity="0.79607844" transform="translate(24,47)"/>
<path d="M0,0 L1,0 L1,1 L0,1 Z " fill="#E6F0FF" opacity="0.7764706" transform="translate(31,44)"/>
<path d="M0,0 L1,0 L1,1 L0,1 Z M-1,1 L0,1 L0,2 L-1,2 Z " fill="#E5F0FF" transform="translate(2,61)"/>
<path d="M0,0 L1,0 L1,1 L0,1 Z " fill="#E5F0FF" opacity="0.95686275" transform="translate(11,54)"/>
<path d="M0,0 L1,0 L1,1 L0,1 Z " fill="#E5F0FF" opacity="0.7254902" transform="translate(49,53)"/>
<path d="M0,0 L1,0 L1,1 L0,1 Z " fill="#E6F1FF" opacity="0.8117647" transform="translate(22,49)"/>
<path d="M0,0 L1,0 L1,1 L0,1 Z " fill="#E5F0FF" opacity="0.9764706" transform="translate(42,47)"/>
<path d="M0,0 L1,0 L1,1 L0,1 Z " fill="#EAF4FF" opacity="0.85882354" transform="translate(59,63)"/>
<path d="M0,0 L1,0 L1,1 L0,1 Z " fill="#FDFEFF" opacity="0.8" transform="translate(6,63)"/>
<path d="M0,0 L1,0 L1,1 L0,1 Z " fill="#FEFFFF" opacity="0.827451" transform="translate(8,62)"/>
<path d="M0,0 L1,0 L1,1 L0,1 Z " fill="#E4F0FF" opacity="0.6666667" transform="translate(0,62)"/>
<path d="M0,0 L1,0 L1,1 L0,1 Z " fill="#E5F0FF" opacity="0.64705884" transform="translate(2,60)"/>
<path d="M0,0 L1,0 L1,1 L0,1 Z " fill="#E5F0FF" opacity="0.0627451" transform="translate(60,59)"/>
<path d="M0,0 L1,0 L1,1 L0,1 Z " fill="#E7F1FF" opacity="0.28627452" transform="translate(4,59)"/>
<path d="M0,0 L1,0 L1,1 L0,1 Z " fill="#E6F1FF" opacity="0.003921569" transform="translate(58,58)"/>
<path d="M0,0 L1,0 L1,1 L0,1 Z " fill="#E6F3FF" opacity="0.30980393" transform="translate(6,58)"/>
<path d="M0,0 L1,0 L1,1 L0,1 Z " fill="#E5F1FF" opacity="0.87058824" transform="translate(8,57)"/>
<path d="M0,0 L1,0 L1,1 L0,1 Z " fill="#FEFEFF" opacity="0.85882354" transform="translate(16,55)"/>
<path d="M0,0 L1,0 L1,1 L0,1 Z " fill="#F5F9FF" opacity="0.7529412" transform="translate(18,54)"/>
<path d="M0,0 L1,0 L1,1 L0,1 Z " fill="#FFFFFF" opacity="0.9254902" transform="translate(24,53)"/>
<path d="M0,0 L1,0 L1,1 L0,1 Z M1,1 L2,1 L2,2 L1,2 Z " fill="#E5F0FF" opacity="0.9843137" transform="translate(42,51)"/>
<path d="M0,0 L1,0 L1,1 L0,1 Z " fill="#E4F1FF" opacity="0.40784314" transform="translate(14,51)"/>
<path d="M0,0 L1,0 L1,1 L0,1 Z " fill="#FFFFFF" opacity="0.92941177" transform="translate(27,50)"/>
<path d="M0,0 L1,0 L1,1 L0,1 Z " fill="#E5F0FF" opacity="0.6509804" transform="translate(20,50)"/>
<path d="M0,0 L1,0 L1,1 L0,1 Z " fill="#E8F4FF" opacity="0.17254902" transform="translate(16,50)"/>
<path d="M0,0 L1,0 L1,1 L0,1 Z " fill="#EEF5FF" opacity="0.8" transform="translate(37,48)"/>
<path d="M0,0 L1,0 L1,1 L0,1 Z " fill="#FDFEFF" opacity="0.8156863" transform="translate(31,48)"/>
<path d="M0,0 L1,0 L1,1 L0,1 Z " fill="#E6F1FF" opacity="0.47058824" transform="translate(25,46)"/>
<path d="M0,0 L1,0 L1,1 L0,1 Z " fill="#E5F1FF" opacity="0.011764706" transform="translate(41,45)"/>
<path d="M0,0 L1,0 L1,1 L0,1 Z " fill="#E6F0FF" opacity="0.65882355" transform="translate(27,45)"/>
<path d="M0,0 L1,0 L1,1 L0,1 Z " fill="#E6F0FF" opacity="0.003921569" transform="translate(39,44)"/>
<path d="M0,0 L1,0 L1,1 L0,1 Z " fill="#E5F2FF" opacity="0.37254903" transform="translate(29,44)"/>
<path d="M0,0 L1,0 L1,1 L0,1 Z " fill="#E4F0FF" opacity="0.92941177" transform="translate(63,63)"/>
<path d="M0,0 L1,0 L1,1 L0,1 Z " fill="#F6FAFF" opacity="0.7529412" transform="translate(58,63)"/>
<path d="M0,0 L1,0 L1,1 L0,1 Z " fill="#FEFFFF" opacity="0.8901961" transform="translate(57,63)"/>
<path d="M0,0 L1,0 L1,1 L0,1 Z " fill="#FFFFFF" transform="translate(56,63)"/>
<path d="M0,0 L1,0 L1,1 L0,1 Z " fill="#FFFFFF" transform="translate(7,63)"/>
<path d="M0,0 L1,0 L1,1 L0,1 Z " fill="#F2F8FF" opacity="0.7647059" transform="translate(5,63)"/>
<path d="M0,0 L1,0 L1,1 L0,1 Z " fill="#E9F3FF" opacity="0.8862745" transform="translate(4,63)"/>
<path d="M0,0 L1,0 L1,1 L0,1 Z " fill="#E5F0FF" opacity="0.92156863" transform="translate(0,63)"/>
<path d="M0,0 L1,0 L1,1 L0,1 Z " fill="#E6F0FF" opacity="0.6627451" transform="translate(63,62)"/>
<path d="M0,0 L1,0 L1,1 L0,1 Z " fill="#E5F0FF" opacity="0.99215686" transform="translate(57,62)"/>
<path d="M0,0 L1,0 L1,1 L0,1 Z " fill="#F3F8FF" opacity="0.77254903" transform="translate(56,62)"/>
<path d="M0,0 L1,0 L1,1 L0,1 Z " fill="#FEFEFF" opacity="0.8666667" transform="translate(55,62)"/>
<path d="M0,0 L1,0 L1,1 L0,1 Z " fill="#EDF5FF" opacity="0.8235294" transform="translate(7,62)"/>
<path d="M0,0 L1,0 L1,1 L0,1 Z " fill="#EAF1FF" opacity="0.13725491" transform="translate(63,61)"/>
<path d="M0,0 L1,0 L1,1 L0,1 Z " fill="#F1F6FF" opacity="0.77254903" transform="translate(54,61)"/>
<path d="M0,0 L1,0 L1,1 L0,1 Z " fill="#FEFFFF" opacity="0.92156863" transform="translate(53,61)"/>
<path d="M0,0 L1,0 L1,1 L0,1 Z " fill="#F9FCFF" opacity="0.7529412" transform="translate(9,61)"/>
<path d="M0,0 L1,0 L1,1 L0,1 Z " fill="#E5F0FF" opacity="0.99215686" transform="translate(8,61)"/>
<path d="M0,0 L1,0 L1,1 L0,1 Z " fill="#E5F0FF" opacity="0.91764706" transform="translate(1,61)"/>
<path d="M0,0 L1,0 L1,1 L0,1 Z " fill="#E9F0FF" opacity="0.13333334" transform="translate(0,61)"/>
<path d="M0,0 L1,0 L1,1 L0,1 Z " fill="#EAF1FF" opacity="0.14117648" transform="translate(62,60)"/>
<path d="M0,0 L1,0 L1,1 L0,1 Z " fill="#E5F0FF" opacity="0.6392157" transform="translate(61,60)"/>
<path d="M0,0 L1,0 L1,1 L0,1 Z " fill="#E7F1FF" opacity="0.94509804" transform="translate(53,60)"/>
<path d="M0,0 L1,0 L1,1 L0,1 Z " fill="#FAFDFF" opacity="0.75686276" transform="translate(52,60)"/>
<path d="M0,0 L1,0 L1,1 L0,1 Z " fill="#FFFFFF" opacity="0.99607843" transform="translate(51,60)"/>
<path d="M0,0 L1,0 L1,1 L0,1 Z " fill="#FFFFFF" opacity="0.99215686" transform="translate(11,60)"/>
<path d="M0,0 L1,0 L1,1 L0,1 Z " fill="#F2F8FF" opacity="0.76862746" transform="translate(10,60)"/>
<path d="M0,0 L1,0 L1,1 L0,1 Z " fill="#E5F0FF" opacity="0.9411765" transform="translate(3,60)"/>
<path d="M0,0 L1,0 L1,1 L0,1 Z " fill="#E7F7FF" opacity="0.12156863" transform="translate(1,60)"/>
<path d="M0,0 L1,0 L1,1 L0,1 Z " fill="#E5F0FF" opacity="0.38431373" transform="translate(59,59)"/>
<path d="M0,0 L1,0 L1,1 L0,1 Z " fill="#E5F0FF" opacity="0.78431374" transform="translate(58,59)"/>
<path d="M0,0 L1,0 L1,1 L0,1 Z " fill="#EDF4FF" opacity="0.81960785" transform="translate(51,59)"/>
<path d="M0,0 L1,0 L1,1 L0,1 Z " fill="#FFFFFF" opacity="0.8980392" transform="translate(50,59)"/>
<path d="M0,0 L1,0 L1,1 L0,1 Z " fill="#F2F9FF" opacity="0.7647059" transform="translate(11,59)"/>
<path d="M0,0 L1,0 L1,1 L0,1 Z " fill="#E5F0FF" opacity="0.7137255" transform="translate(5,59)"/>
<path d="M0,0 L1,0 L1,1 L0,1 Z " fill="#E7F1FF" opacity="0.023529412" transform="translate(3,59)"/>
<path d="M0,0 L1,0 L1,1 L0,1 Z " fill="#E6F1FF" opacity="0.2784314" transform="translate(57,58)"/>
<path d="M0,0 L1,0 L1,1 L0,1 Z " fill="#E5F0FF" opacity="0.7882353" transform="translate(56,58)"/>
<path d="M0,0 L1,0 L1,1 L0,1 Z " fill="#E6F1FF" opacity="0.94509804" transform="translate(50,58)"/>
<path d="M0,0 L1,0 L1,1 L0,1 Z " fill="#FCFDFF" opacity="0.78039217" transform="translate(49,58)"/>
<path d="M0,0 L1,0 L1,1 L0,1 Z " fill="#F6FAFF" opacity="0.7529412" transform="translate(12,58)"/>
<path d="M0,0 L1,0 L1,1 L0,1 Z " fill="#E5F1FF" opacity="0.9372549" transform="translate(7,58)"/>
<path d="M0,0 L1,0 L1,1 L0,1 Z " fill="#E6F3FF" opacity="0.003921569" transform="translate(5,58)"/>
<path d="M0,0 L1,0 L1,1 L0,1 Z " fill="#E5F0FF" opacity="0.011764706" transform="translate(56,57)"/>
<path d="M0,0 L1,0 L1,1 L0,1 Z " fill="#E5F0FF" opacity="0.4509804" transform="translate(55,57)"/>
<path d="M0,0 L1,0 L1,1 L0,1 Z " fill="#F4F9FF" opacity="0.7607843" transform="translate(48,57)"/>
<path d="M0,0 L1,0 L1,1 L0,1 Z " fill="#FFFFFF" opacity="0.9843137" transform="translate(47,57)"/>
<path d="M0,0 L1,0 L1,1 L0,1 Z " fill="#F8FAFF" opacity="0.75686276" transform="translate(13,57)"/>
<path d="M0,0 L1,0 L1,1 L0,1 Z " fill="#E6F3FF" opacity="0.15686275" transform="translate(7,57)"/>
<path d="M0,0 L1,0 L1,1 L0,1 Z " fill="#E7F3FF" opacity="0.16078432" transform="translate(54,56)"/>
<path d="M0,0 L1,0 L1,1 L0,1 Z " fill="#E5F0FF" opacity="0.7882353" transform="translate(53,56)"/>
<path d="M0,0 L1,0 L1,1 L0,1 Z " fill="#EDF4FF" opacity="0.81960785" transform="translate(47,56)"/>
<path d="M0,0 L1,0 L1,1 L0,1 Z " fill="#FFFFFF" opacity="0.9254902" transform="translate(46,56)"/>
<path d="M0,0 L1,0 L1,1 L0,1 Z " fill="#F8FCFF" opacity="0.7529412" transform="translate(14,56)"/>
<path d="M0,0 L1,0 L1,1 L0,1 Z " fill="#EAF1FF" opacity="0.13725491" transform="translate(8,56)"/>
<path d="M0,0 L1,0 L1,1 L0,1 Z " fill="#E6F1FF" opacity="0.015686275" transform="translate(53,55)"/>
<path d="M0,0 L1,0 L1,1 L0,1 Z " fill="#E6F1FF" opacity="0.4745098" transform="translate(52,55)"/>
<path d="M0,0 L1,0 L1,1 L0,1 Z " fill="#E9F2FF" opacity="0.8980392" transform="translate(46,55)"/>
<path d="M0,0 L1,0 L1,1 L0,1 Z " fill="#FEFEFF" opacity="0.8509804" transform="translate(45,55)"/>
<path d="M0,0 L1,0 L1,1 L0,1 Z " fill="#F0F7FF" opacity="0.78431374" transform="translate(15,55)"/>
<path d="M0,0 L1,0 L1,1 L0,1 Z " fill="#E5F0FF" opacity="0.9490196" transform="translate(10,55)"/>
<path d="M0,0 L1,0 L1,1 L0,1 Z " fill="#E7F1FF" opacity="0.20784314" transform="translate(9,55)"/>
<path d="M0,0 L1,0 L1,1 L0,1 Z " fill="#E9F4FF" opacity="0.1764706" transform="translate(51,54)"/>
<path d="M0,0 L1,0 L1,1 L0,1 Z " fill="#E5F0FF" opacity="0.85882354" transform="translate(50,54)"/>
<path d="M0,0 L1,0 L1,1 L0,1 Z " fill="#E5F1FF" opacity="0.9647059" transform="translate(45,54)"/>
<path d="M0,0 L1,0 L1,1 L0,1 Z " fill="#FDFEFF" opacity="0.8039216" transform="translate(44,54)"/>
<path d="M0,0 L1,0 L1,1 L0,1 Z " fill="#FDFEFF" opacity="0.8039216" transform="translate(23,54)"/>
<path d="M0,0 L1,0 L1,1 L0,1 Z " fill="#F1F6FF" opacity="0.7764706" transform="translate(22,54)"/>
<path d="M0,0 L1,0 L1,1 L0,1 Z " fill="#F8FAFF" opacity="0.7529412" transform="translate(21,54)"/>
<path d="M0,0 L1,0 L1,1 L0,1 Z " fill="#FAFCFF" opacity="0.7647059" transform="translate(19,54)"/>
<path d="M0,0 L1,0 L1,1 L0,1 Z " fill="#EEF5FF" opacity="0.8" transform="translate(17,54)"/>
<path d="M0,0 L1,0 L1,1 L0,1 Z " fill="#E5F2FF" opacity="0.23137255" transform="translate(10,54)"/>
<path d="M0,0 L1,0 L1,1 L0,1 Z " fill="#E5F0FF" opacity="0.06666667" transform="translate(50,53)"/>
<path d="M0,0 L1,0 L1,1 L0,1 Z " fill="#E6F0FF" opacity="0.9764706" transform="translate(44,53)"/>
<path d="M0,0 L1,0 L1,1 L0,1 Z " fill="#FCFEFF" opacity="0.79607844" transform="translate(43,53)"/>
<path d="M0,0 L1,0 L1,1 L0,1 Z " fill="#E7F1FF" opacity="0.91764706" transform="translate(23,53)"/>
<path d="M0,0 L1,0 L1,1 L0,1 Z " fill="#E4F0FF" opacity="0.9647059" transform="translate(12,53)"/>
<path d="M0,0 L1,0 L1,1 L0,1 Z " fill="#E7F3FF" opacity="0.24705882" transform="translate(11,53)"/>
<path d="M0,0 L1,0 L1,1 L0,1 Z " fill="#E6F1FF" opacity="0.015686275" transform="translate(49,52)"/>
<path d="M0,0 L1,0 L1,1 L0,1 Z " fill="#E6F1FF" opacity="0.54901963" transform="translate(48,52)"/>
<path d="M0,0 L1,0 L1,1 L0,1 Z " fill="#FCFDFF" opacity="0.7882353" transform="translate(42,52)"/>
<path d="M0,0 L1,0 L1,1 L0,1 Z " fill="#FFFFFF" opacity="0.98039216" transform="translate(25,52)"/>
<path d="M0,0 L1,0 L1,1 L0,1 Z " fill="#EFF6FF" opacity="0.8039216" transform="translate(24,52)"/>
<path d="M0,0 L1,0 L1,1 L0,1 Z " fill="#E5F0FF" opacity="0.1882353" transform="translate(12,52)"/>
<path d="M0,0 L1,0 L1,1 L0,1 Z " fill="#E6F0FF" opacity="0.4392157" transform="translate(47,51)"/>
<path d="M0,0 L1,0 L1,1 L0,1 Z " fill="#FDFEFF" opacity="0.7921569" transform="translate(41,51)"/>
<path d="M0,0 L1,0 L1,1 L0,1 Z " fill="#FFFFFF" opacity="0.9843137" transform="translate(26,51)"/>
<path d="M0,0 L1,0 L1,1 L0,1 Z " fill="#EFF5FF" opacity="0.7921569" transform="translate(25,51)"/>
<path d="M0,0 L1,0 L1,1 L0,1 Z " fill="#E5F0FF" opacity="0.88235295" transform="translate(15,51)"/>
<path d="M0,0 L1,0 L1,1 L0,1 Z " fill="#E4F1FF" opacity="0.011764706" transform="translate(13,51)"/>
<path d="M0,0 L1,0 L1,1 L0,1 Z " fill="#E6F0FF" opacity="0.4" transform="translate(46,50)"/>
<path d="M0,0 L1,0 L1,1 L0,1 Z " fill="#E6F0FF" opacity="0.9764706" transform="translate(41,50)"/>
<path d="M0,0 L1,0 L1,1 L0,1 Z " fill="#FAFDFF" opacity="0.76862746" transform="translate(40,50)"/>
<path d="M0,0 L1,0 L1,1 L0,1 Z " fill="#EFF7FF" opacity="0.7921569" transform="translate(26,50)"/>
<path d="M0,0 L1,0 L1,1 L0,1 Z " fill="#E6F0FF" opacity="0.8509804" transform="translate(21,50)"/>
<path d="M0,0 L1,0 L1,1 L0,1 Z " fill="#E5F0FF" opacity="0.63529414" transform="translate(19,50)"/>
<path d="M0,0 L1,0 L1,1 L0,1 Z " fill="#E5F0FF" opacity="0.45882353" transform="translate(17,50)"/>
<path d="M0,0 L1,0 L1,1 L0,1 Z " fill="#E8F4FF" opacity="0.003921569" transform="translate(15,50)"/>
<path d="M0,0 L1,0 L1,1 L0,1 Z " fill="#E5F2FF" opacity="0.37254903" transform="translate(45,49)"/>
<path d="M0,0 L1,0 L1,1 L0,1 Z " fill="#EEF5FF" opacity="0.79607844" transform="translate(39,49)"/>
<path d="M0,0 L1,0 L1,1 L0,1 Z " fill="#FFFFFF" opacity="0.8980392" transform="translate(38,49)"/>
<path d="M0,0 L1,0 L1,1 L0,1 Z " fill="#FCFDFF" opacity="0.7764706" transform="translate(28,49)"/>
<path d="M0,0 L1,0 L1,1 L0,1 Z " fill="#E8F2FF" opacity="0.9254902" transform="translate(27,49)"/>
<path d="M0,0 L1,0 L1,1 L0,1 Z " fill="#E6F1FF" opacity="0.07058824" transform="translate(21,49)"/>
<path d="M0,0 L1,0 L1,1 L0,1 Z " fill="#E5F0FF" opacity="0.3764706" transform="translate(44,48)"/>
<path d="M0,0 L1,0 L1,1 L0,1 Z " fill="#E5F0FF" opacity="0.99215686" transform="translate(38,48)"/>
<path d="M0,0 L1,0 L1,1 L0,1 Z " fill="#FCFEFF" opacity="0.76862746" transform="translate(36,48)"/>
<path d="M0,0 L1,0 L1,1 L0,1 Z " fill="#FEFEFF" opacity="0.84705883" transform="translate(35,48)"/>
<path d="M0,0 L1,0 L1,1 L0,1 Z " fill="#FFFFFF" opacity="0.88235295" transform="translate(32,48)"/>
<path d="M0,0 L1,0 L1,1 L0,1 Z " fill="#F6FAFF" opacity="0.7529412" transform="translate(30,48)"/>
<path d="M0,0 L1,0 L1,1 L0,1 Z " fill="#E9F2FF" opacity="0.8980392" transform="translate(29,48)"/>
<path d="M0,0 L1,0 L1,1 L0,1 Z " fill="#E5F0FF" opacity="0.827451" transform="translate(23,48)"/>
<path d="M0,0 L1,0 L1,1 L0,1 Z " fill="#E6F3FF" opacity="0.078431375" transform="translate(22,48)"/>
<path d="M0,0 L1,0 L1,1 L0,1 Z " fill="#E5F2FF" opacity="0.37254903" transform="translate(43,47)"/>
<path d="M0,0 L1,0 L1,1 L0,1 Z " fill="#E8F4FF" opacity="0.08627451" transform="translate(23,47)"/>
<path d="M0,0 L1,0 L1,1 L0,1 Z " fill="#E7F3FF" opacity="0.16470589" transform="translate(42,46)"/>
<path d="M0,0 L1,0 L1,1 L0,1 Z " fill="#E4F0FF" opacity="0.78039217" transform="translate(41,46)"/>
<path d="M0,0 L1,0 L1,1 L0,1 Z " fill="#E5F0FF" opacity="0.972549" transform="translate(26,46)"/>
<path d="M0,0 L1,0 L1,1 L0,1 Z " fill="#E6F1FF" opacity="0.015686275" transform="translate(24,46)"/>
<path d="M0,0 L1,0 L1,1 L0,1 Z " fill="#E5F1FF" opacity="0.42352942" transform="translate(40,45)"/>
<path d="M0,0 L1,0 L1,1 L0,1 Z " fill="#E6F0FF" opacity="0.8509804" transform="translate(39,45)"/>
<path d="M0,0 L1,0 L1,1 L0,1 Z " fill="#E5F0FF" opacity="0.96862745" transform="translate(28,45)"/>
<path d="M0,0 L1,0 L1,1 L0,1 Z " fill="#E6F3FF" opacity="0.15686275" transform="translate(26,45)"/>
<path d="M0,0 L1,0 L1,1 L0,1 Z " fill="#E6F0FF" opacity="0.2" transform="translate(38,44)"/>
<path d="M0,0 L1,0 L1,1 L0,1 Z " fill="#E6F1FF" opacity="0.5529412" transform="translate(37,44)"/>
<path d="M0,0 L1,0 L1,1 L0,1 Z " fill="#E4F1FF" opacity="0.7411765" transform="translate(36,44)"/>
<path d="M0,0 L1,0 L1,1 L0,1 Z " fill="#E5F0FF" opacity="0.8392157" transform="translate(35,44)"/>
<path d="M0,0 L1,0 L1,1 L0,1 Z " fill="#E5F0FF" opacity="0.93333334" transform="translate(34,44)"/>
<path d="M0,0 L1,0 L1,1 L0,1 Z " fill="#E5F0FF" opacity="0.8784314" transform="translate(32,44)"/>
<path d="M0,0 L1,0 L1,1 L0,1 Z " fill="#E6F0FF" opacity="0.6627451" transform="translate(30,44)"/>
<path d="M0,0 L1,0 L1,1 L0,1 Z " fill="#E5F2FF" opacity="0.05490196" transform="translate(28,44)"/>
</svg>
