<?xml version="1.0" encoding="UTF-8"?>
<!-- Generator: visioncortex VTracer 0.6.4 -->
<svg version="1.1" xmlns="http://www.w3.org/2000/svg" width="64" height="64">
<path d="M0,0 L14,0 L14,1 L16,1 L16,2 L18,2 L18,3 L20,3 L20,4 L21,4 L21,5 L22,5 L22,6 L24,6 L24,8 L25,8 L25,9 L26,9 L26,10 L27,10 L27,12 L28,12 L28,14 L29,14 L29,16 L30,16 L30,20 L31,20 L31,21 L33,21 L33,22 L34,22 L34,23 L35,23 L35,24 L36,24 L36,25 L37,25 L37,27 L38,27 L38,31 L39,31 L39,39 L-25,39 L-25,31 L-24,31 L-24,27 L-23,27 L-23,25 L-22,25 L-22,24 L-21,24 L-21,23 L-20,23 L-20,22 L-19,22 L-19,21 L-17,21 L-17,20 L-16,20 L-16,16 L-15,16 L-15,14 L-14,14 L-14,12 L-13,12 L-13,10 L-12,10 L-12,9 L-11,9 L-11,8 L-10,8 L-10,6 L-8,6 L-8,5 L-7,5 L-7,4 L-6,4 L-6,3 L-4,3 L-4,2 L-2,2 L-2,1 L0,1 Z M1,3 L1,4 L13,4 L13,3 Z M-2,4 L-2,5 L-4,5 L-4,6 L-5,6 L-5,7 L-3,7 L-3,6 L-1,6 L-1,5 L1,5 L1,4 Z M13,4 L13,5 L15,5 L15,6 L17,6 L17,7 L19,7 L19,6 L18,6 L18,5 L16,5 L16,4 Z M-7,7 L-7,8 L-8,8 L-8,9 L-9,9 L-9,11 L-8,11 L-8,10 L-7,10 L-7,9 L-6,9 L-6,8 L-5,8 L-5,7 Z M19,7 L19,8 L20,8 L20,7 Z M20,8 L20,9 L21,9 L21,10 L22,10 L22,8 Z M22,10 L22,11 L23,11 L23,10 Z M-10,11 L-10,12 L-11,12 L-11,14 L-12,14 L-12,17 L-13,17 L-13,23 L-12,23 L-12,20 L-11,20 L-11,18 L-10,18 L-10,17 L-11,17 L-11,15 L-10,15 L-10,13 L-9,13 L-9,11 Z M1,11 L1,12 L-3,12 L-3,13 L-6,13 L-6,14 L-8,14 L-8,15 L-9,15 L-9,16 L-10,16 L-10,17 L-8,17 L-8,16 L-7,16 L-7,15 L-5,15 L-5,14 L-2,14 L-2,13 L2,13 L2,12 L12,12 L12,11 Z M23,11 L23,13 L24,13 L24,15 L25,15 L25,17 L24,17 L24,18 L25,18 L25,20 L26,20 L26,23 L27,23 L27,17 L26,17 L26,14 L25,14 L25,12 L24,12 L24,11 Z M19,13 L19,15 L21,15 L21,16 L22,16 L22,17 L24,17 L24,16 L23,16 L23,15 L22,15 L22,14 L20,14 L20,13 Z M-17,23 L-17,24 L-13,24 L-13,23 Z M27,23 L27,24 L30,24 L30,25 L32,25 L32,26 L33,26 L33,28 L31,28 L31,27 L27,27 L27,28 L30,28 L30,29 L32,29 L32,30 L33,30 L33,32 L34,32 L34,35 L35,35 L35,27 L34,27 L34,25 L33,25 L33,24 L31,24 L31,23 Z M-19,24 L-19,25 L-20,25 L-20,27 L-19,27 L-19,26 L-18,26 L-18,25 L-17,25 L-17,24 Z M-21,27 L-21,35 L-20,35 L-20,31 L-19,31 L-19,30 L-18,30 L-18,29 L-17,29 L-17,28 L-19,28 L-19,29 L-20,29 L-20,27 Z M-17,27 L-17,28 L-13,28 L-13,27 Z M-12,17 L-11,17 L-11,18 L-12,18 Z M25,17 L26,17 L26,18 L25,18 Z M33,28 L34,28 L34,29 L33,29 Z " fill="#F35452" transform="translate(25,25)"/>
<path d="M0,0 L40,0 L40,1 L43,1 L43,2 L45,2 L45,3 L46,3 L46,5 L47,5 L47,8 L48,8 L48,12 L-8,12 L-8,8 L-7,8 L-7,4 L-6,4 L-6,3 L-5,3 L-5,2 L-4,2 L-4,1 L0,1 Z " fill="#B9C2CA" transform="translate(12,52)"/>
<path d="M0,0 L1,0 L1,1 L0,1 Z " fill="#B9C2CA" opacity="0.99607843" transform="translate(58,56)"/>
<path d="M0,0 L14,0 L14,1 L16,1 L16,2 L18,2 L18,3 L20,3 L20,4 L21,4 L21,5 L22,5 L22,6 L24,6 L24,8 L25,8 L25,9 L26,9 L26,10 L27,10 L27,12 L28,12 L28,14 L29,14 L29,16 L30,16 L30,20 L31,20 L31,21 L33,21 L33,22 L34,22 L34,23 L35,23 L35,24 L36,24 L36,25 L37,25 L37,27 L38,27 L38,31 L39,31 L39,39 L35,39 L35,27 L34,27 L34,25 L33,25 L33,24 L31,24 L31,23 L27,23 L27,17 L26,17 L26,14 L25,14 L25,12 L24,12 L24,11 L23,11 L23,10 L22,10 L22,8 L20,8 L20,7 L19,7 L19,6 L18,6 L18,5 L16,5 L16,4 L13,4 L13,3 L1,3 L1,4 L-2,4 L-2,5 L-4,5 L-4,6 L-5,6 L-5,7 L-7,7 L-7,8 L-8,8 L-8,9 L-9,9 L-9,11 L-10,11 L-10,12 L-11,12 L-11,14 L-12,14 L-12,17 L-13,17 L-13,23 L-17,23 L-17,24 L-19,24 L-19,25 L-20,25 L-20,27 L-21,27 L-21,39 L-25,39 L-25,31 L-24,31 L-24,27 L-23,27 L-23,25 L-22,25 L-22,24 L-21,24 L-21,23 L-20,23 L-20,22 L-19,22 L-19,21 L-17,21 L-17,20 L-16,20 L-16,16 L-15,16 L-15,14 L-14,14 L-14,12 L-13,12 L-13,10 L-12,10 L-12,9 L-11,9 L-11,8 L-10,8 L-10,6 L-8,6 L-8,5 L-7,5 L-7,4 L-6,4 L-6,3 L-4,3 L-4,2 L-2,2 L-2,1 L0,1 Z " fill="#353541" transform="translate(25,25)"/>
<path d="M0,0 L9,0 L9,1 L8,1 L8,5 L9,5 L9,6 L10,6 L10,7 L11,7 L11,8 L15,8 L15,7 L16,7 L16,6 L17,6 L17,5 L18,5 L18,3 L19,3 L19,4 L20,4 L20,5 L22,5 L22,6 L23,6 L23,8 L24,8 L24,11 L-14,11 L-14,8 L-13,8 L-13,6 L-12,6 L-12,5 L-10,5 L-10,4 L-9,4 L-9,3 L-7,3 L-7,2 L-4,2 L-4,1 L0,1 Z " fill="#E54341" transform="translate(27,37)"/>
<path d="M0,0 L40,0 L40,1 L43,1 L43,2 L45,2 L45,3 L46,3 L46,5 L44,5 L44,4 L-4,4 L-4,5 L-6,5 L-6,6 L-7,6 L-7,4 L-6,4 L-6,3 L-5,3 L-5,2 L-4,2 L-4,1 L0,1 Z M46,5 L47,5 L47,6 L46,6 Z " fill="#CDD3D9" transform="translate(12,48)"/>
<path d="M0,0 L4,0 L4,1 L5,1 L5,2 L6,2 L6,5 L7,5 L7,7 L6,7 L6,8 L5,8 L5,9 L4,9 L4,10 L0,10 L0,9 L-1,9 L-1,8 L-2,8 L-2,7 L-3,7 L-3,3 L-2,3 L-2,2 L-1,2 L-1,1 L0,1 Z " fill="#F17575" transform="translate(38,35)"/>
<path d="M0,0 L2,0 L2,1 L0,1 Z " fill="#343440" opacity="0.9764706" transform="translate(31,24)"/>
<path d="M0,0 L1,0 L1,1 L0,1 Z M-1,1 L0,1 L0,2 L-1,2 Z M-2,2 L-1,2 L-1,3 L-2,3 Z M-3,3 L-2,3 L-2,4 L-3,4 Z " fill="#B9C2CA" transform="translate(8,53)"/>
<path d="M0,0 L1,0 L1,1 L0,1 Z M-1,1 L0,1 L0,2 L-1,2 Z M-2,2 L-1,2 L-1,3 L-2,3 Z M-3,3 L-2,3 L-2,4 L-3,4 Z M-4,4 L-3,4 L-3,5 L-4,5 Z " fill="#F35452" transform="translate(20,32)"/>
<path d="M0,0 L1,0 L1,1 L0,1 Z " fill="#F14F4C" opacity="0.75686276" transform="translate(32,36)"/>
<path d="M0,0 L1,0 L1,1 L0,1 Z " fill="#353540" opacity="0.9843137" transform="translate(16,30)"/>
<path d="M0,0 L1,0 L1,1 L0,1 Z M-1,1 L0,1 L0,2 L-1,2 Z M-2,2 L-1,2 L-1,3 L-2,3 Z M-3,3 L-2,3 L-2,4 L-3,4 Z " fill="#CDD3D9" transform="translate(8,49)"/>
<path d="M0,0 L1,0 L1,1 L0,1 Z " fill="#C8CFD5" opacity="0.85490197" transform="translate(59,56)"/>
<path d="M0,0 L1,0 L1,1 L0,1 Z " fill="#C8CFD6" opacity="0.84705883" transform="translate(4,56)"/>
<path d="M0,0 L1,0 L1,1 L0,1 Z M-1,1 L0,1 L0,2 L-1,2 Z M-2,2 L-1,2 L-1,3 L-2,3 Z M-3,3 L-2,3 L-2,4 L-3,4 Z M-4,4 L-3,4 L-3,5 L-4,5 Z " fill="#353541" transform="translate(6,46)"/>
<path d="M0,0 L1,0 L1,1 L0,1 Z " fill="#343440" opacity="0.92941177" transform="translate(5,46)"/>
<path d="M0,0 L1,0 L1,1 L0,1 Z " fill="#343440" opacity="0.80784315" transform="translate(8,44)"/>
<path d="M0,0 L1,0 L1,1 L0,1 Z " fill="#343441" opacity="0.8627451" transform="translate(63,54)"/>
<path d="M0,0 L1,0 L1,1 L0,1 Z " fill="#343440" opacity="0.8745098" transform="translate(0,54)"/>
<path d="M0,0 L1,0 L1,1 L0,1 Z " fill="#343441" opacity="0.95686275" transform="translate(61,49)"/>
<path d="M0,0 L1,0 L1,1 L0,1 Z " fill="#343440" opacity="0.9490196" transform="translate(2,49)"/>
<path d="M0,0 L1,0 L1,1 L0,1 Z " fill="#E24441" opacity="0.8117647" transform="translate(51,46)"/>
<path d="M0,0 L1,0 L1,1 L0,1 Z " fill="#343440" opacity="0.98039216" transform="translate(56,45)"/>
<path d="M0,0 L1,0 L1,1 L0,1 Z " fill="#D44D4D" opacity="0.7529412" transform="translate(12,44)"/>
<path d="M0,0 L1,0 L1,1 L0,1 Z " fill="#333340" opacity="0.56078434" transform="translate(55,43)"/>
<path d="M0,0 L1,0 L1,1 L0,1 Z " fill="#F35452" opacity="0.9764706" transform="translate(46,39)"/>
<path d="M0,0 L1,0 L1,1 L0,1 Z " fill="#F04F4E" opacity="0.76862746" transform="translate(30,36)"/>
<path d="M0,0 L1,0 L1,1 L0,1 Z " fill="#333340" opacity="0.46666667" transform="translate(52,35)"/>
<path d="M0,0 L4,0 L4,1 L0,1 Z " fill="#F17171" transform="translate(38,35)"/>
<path d="M0,0 L1,0 L1,1 L0,1 Z " fill="#34343F" opacity="0.45882353" transform="translate(11,35)"/>
<path d="M0,0 L1,0 L1,1 L0,1 Z " fill="#EF5251" opacity="0.8862745" transform="translate(30,28)"/>
<path d="M0,0 L1,0 L1,1 L0,1 Z " fill="#343440" opacity="0.8235294" transform="translate(18,28)"/>
<path d="M0,0 L1,0 L1,1 L0,1 Z " fill="#343441" opacity="0.972549" transform="translate(43,27)"/>
<path d="M0,0 L1,0 L1,1 L0,1 Z " fill="#343440" opacity="0.7607843" transform="translate(28,24)"/>
<path d="M0,0 L1,0 L1,1 L0,1 Z " fill="#343440" opacity="0.99215686" transform="translate(59,47)"/>
<path d="M0,0 L1,0 L1,1 L0,1 Z " fill="#EC4848" opacity="0.7764706" transform="translate(24,37)"/>
<path d="M0,0 L1,0 L1,1 L0,1 Z M-1,1 L0,1 L0,2 L-1,2 Z " fill="#F17575" transform="translate(37,36)"/>
<path d="M0,0 L1,0 L1,1 L0,1 Z " fill="#343441" opacity="0.9882353" transform="translate(49,32)"/>
<path d="M0,0 L1,0 L1,1 L0,1 Z " fill="#343440" opacity="0.98039216" transform="translate(14,32)"/>
<path d="M0,0 L1,0 L1,1 L0,1 Z " fill="#343440" opacity="0.9529412" transform="translate(46,29)"/>
<path d="M0,0 L1,0 L1,1 L0,1 Z " fill="#DC4F4F" opacity="0.78431374" transform="translate(35,28)"/>
<path d="M0,0 L2,0 L2,1 L0,1 Z " fill="#F35351" opacity="0.9607843" transform="translate(31,28)"/>
<path d="M0,0 L1,0 L1,1 L0,1 Z " fill="#343441" opacity="0.4" transform="translate(37,24)"/>
<path d="M0,0 L1,0 L1,1 L0,1 Z " fill="#B9C1CA" opacity="0.8666667" transform="translate(59,58)"/>
<path d="M0,0 L1,0 L1,1 L0,1 Z " fill="#B9C2CA" opacity="0.8745098" transform="translate(4,58)"/>
<path d="M0,0 L1,0 L1,1 L0,1 Z " fill="#C8CFD5" opacity="0.8666667" transform="translate(59,54)"/>
<path d="M0,0 L1,0 L1,1 L0,1 Z " fill="#C8CED4" opacity="0.8745098" transform="translate(4,54)"/>
<path d="M0,0 L1,0 L1,1 L0,1 Z M1,1 L2,1 L2,2 L1,2 Z " fill="#CDD3D9" opacity="0.9843137" transform="translate(57,53)"/>
<path d="M0,0 L1,0 L1,1 L0,1 Z M-1,1 L0,1 L0,2 L-1,2 Z " fill="#CBD2D9" opacity="0.98039216" transform="translate(6,53)"/>
<path d="M0,0 L1,0 L1,1 L0,1 Z " fill="#333341" opacity="0.44705883" transform="translate(63,52)"/>
<path d="M0,0 L1,0 L1,1 L0,1 Z " fill="#C8CFD5" opacity="0.85490197" transform="translate(55,52)"/>
<path d="M0,0 L1,0 L1,1 L0,1 Z " fill="#B8C3CB" opacity="0.8745098" transform="translate(10,52)"/>
<path d="M0,0 L1,0 L1,1 L0,1 Z " fill="#343440" opacity="0.45490196" transform="translate(0,52)"/>
<path d="M0,0 L1,0 L1,1 L0,1 Z M1,1 L2,1 L2,2 L1,2 Z " fill="#383843" opacity="0.9843137" transform="translate(57,49)"/>
<path d="M0,0 L1,0 L1,1 L0,1 Z M-1,1 L0,1 L0,2 L-1,2 Z " fill="#383844" opacity="0.98039216" transform="translate(6,49)"/>
<path d="M0,0 L1,0 L1,1 L0,1 Z " fill="#C8CED4" opacity="0.8745098" transform="translate(10,48)"/>
<path d="M0,0 L1,0 L1,1 L0,1 Z " fill="#E54240" opacity="0.9607843" transform="translate(12,47)"/>
<path d="M0,0 L1,0 L1,1 L0,1 Z " fill="#343441" opacity="0.9882353" transform="translate(4,47)"/>
<path d="M0,0 L1,0 L1,1 L0,1 Z " fill="#353540" opacity="0.6039216" transform="translate(6,45)"/>
<path d="M0,0 L1,0 L1,1 L0,1 Z " fill="#D24D4E" opacity="0.7529412" transform="translate(51,44)"/>
<path d="M0,0 L2,0 L2,1 L0,1 Z " fill="#F07070" transform="translate(38,44)"/>
<path d="M0,0 L1,0 L1,1 L0,1 Z M-1,1 L0,1 L0,2 L-1,2 Z " fill="#F17474" transform="translate(43,42)"/>
<path d="M0,0 L1,0 L1,1 L0,1 Z M-1,1 L0,1 L0,2 L-1,2 Z " fill="#E54341" transform="translate(15,42)"/>
<path d="M0,0 L1,0 L1,1 L0,1 Z " fill="#32323F" opacity="0.31764707" transform="translate(8,42)"/>
<path d="M0,0 L1,0 L1,1 L0,1 Z " fill="#313142" opacity="0.12156863" transform="translate(55,41)"/>
<path d="M0,0 L1,0 L1,1 L0,1 Z " fill="#F05250" opacity="0.8980392" transform="translate(50,41)"/>
<path d="M0,0 L1,0 L1,1 L0,1 Z " fill="#F15250" opacity="0.9098039" transform="translate(13,41)"/>
<path d="M0,0 L1,0 L1,1 L0,1 Z " fill="#333341" opacity="0.44705883" transform="translate(54,39)"/>
<path d="M0,0 L1,0 L1,1 L0,1 Z " fill="#F35351" opacity="0.98039216" transform="translate(49,39)"/>
<path d="M0,0 L1,0 L1,1 L0,1 Z " fill="#F07070" opacity="0.99215686" transform="translate(44,39)"/>
<path d="M0,0 L1,0 L1,2 L0,2 Z " fill="#F0706F" transform="translate(35,38)"/>
<path d="M0,0 L1,0 L1,1 L0,1 Z " fill="#E84443" opacity="0.8980392" transform="translate(19,39)"/>
<path d="M0,0 L1,0 L1,1 L0,1 Z " fill="#F35351" opacity="0.9843137" transform="translate(14,39)"/>
<path d="M0,0 L1,0 L1,1 L0,1 Z " fill="#343440" opacity="0.4392157" transform="translate(9,39)"/>
<path d="M0,0 L1,0 L1,1 L0,1 Z " fill="#E94745" opacity="0.81960785" transform="translate(21,38)"/>
<path d="M0,0 L1,0 L1,1 L0,1 Z " fill="#353540" opacity="0.6431373" transform="translate(53,37)"/>
<path d="M0,0 L1,0 L1,1 L0,1 Z " fill="#343441" opacity="0.6313726" transform="translate(10,37)"/>
<path d="M0,0 L1,0 L1,1 L0,1 Z " fill="#F2514E" opacity="0.8039216" transform="translate(35,36)"/>
<path d="M0,0 L1,0 L1,1 L0,1 Z " fill="#F3524F" opacity="0.8" transform="translate(28,36)"/>
<path d="M0,0 L1,0 L1,1 L0,1 Z " fill="#343440" opacity="0.8392157" transform="translate(51,34)"/>
<path d="M0,0 L1,0 L1,1 L0,1 Z " fill="#343440" opacity="0.827451" transform="translate(12,34)"/>
<path d="M0,0 L1,0 L1,1 L0,1 Z M1,1 L2,1 L2,2 L1,2 Z " fill="#DC4F4F" opacity="0.78431374" transform="translate(45,33)"/>
<path d="M0,0 L1,0 L1,1 L0,1 Z M-1,1 L0,1 L0,2 L-1,2 Z " fill="#DC4F4F" opacity="0.7921569" transform="translate(18,33)"/>
<path d="M0,0 L1,0 L1,1 L0,1 Z " fill="#F35452" opacity="0.9529412" transform="translate(21,31)"/>
<path d="M0,0 L1,0 L1,1 L0,1 Z " fill="#F35351" opacity="0.9843137" transform="translate(23,30)"/>
<path d="M0,0 L1,0 L1,1 L0,1 Z " fill="#F15350" opacity="0.90588236" transform="translate(25,29)"/>
<path d="M0,0 L1,0 L1,1 L0,1 Z " fill="#343440" opacity="0.9490196" transform="translate(17,29)"/>
<path d="M0,0 L1,0 L1,1 L0,1 Z " fill="#DC504E" opacity="0.7882353" transform="translate(28,28)"/>
<path d="M0,0 L1,0 L1,1 L0,1 Z " fill="#35353F" opacity="0.49019608" transform="translate(19,27)"/>
<path d="M0,0 L1,0 L1,1 L0,1 Z " fill="#343440" opacity="0.63529414" transform="translate(21,26)"/>
<path d="M0,0 L1,0 L1,1 L0,1 Z " fill="#363640" opacity="0.10980392" transform="translate(41,25)"/>
<path d="M0,0 L1,0 L1,1 L0,1 Z " fill="#333340" opacity="0.5254902" transform="translate(23,25)"/>
<path d="M0,0 L1,0 L1,1 L0,1 Z " fill="#343440" opacity="0.92156863" transform="translate(30,24)"/>
<path d="M0,0 L1,0 L1,1 L0,1 Z " fill="#343441" opacity="0.4" transform="translate(26,24)"/>
<path d="M0,0 L1,0 L1,1 L0,1 Z " fill="#B9C1CA" opacity="0.96862745" transform="translate(59,59)"/>
<path d="M0,0 L1,0 L1,1 L0,1 Z " fill="#B8C2CA" opacity="0.972549" transform="translate(4,59)"/>
<path d="M0,0 L1,0 L1,1 L0,1 Z " fill="#BDC6CD" opacity="0.75686276" transform="translate(59,57)"/>
<path d="M0,0 L1,0 L1,1 L0,1 Z " fill="#BCC5CC" opacity="0.7607843" transform="translate(4,57)"/>
<path d="M0,0 L1,0 L1,1 L0,1 Z " fill="#343440" opacity="0.9607843" transform="translate(63,55)"/>
<path d="M0,0 L1,0 L1,1 L0,1 Z " fill="#CDD2D9" opacity="0.95686275" transform="translate(59,55)"/>
<path d="M0,0 L1,0 L1,1 L0,1 Z " fill="#BEC5CD" opacity="0.7607843" transform="translate(58,55)"/>
<path d="M0,0 L1,0 L1,1 L0,1 Z " fill="#BEC4CE" opacity="0.7647059" transform="translate(5,55)"/>
<path d="M0,0 L1,0 L1,1 L0,1 Z " fill="#CCD3D9" opacity="0.9607843" transform="translate(4,55)"/>
<path d="M0,0 L1,0 L1,1 L0,1 Z " fill="#343440" opacity="0.9607843" transform="translate(0,55)"/>
<path d="M0,0 L1,0 L1,1 L0,1 Z " fill="#BBC4CC" opacity="0.8039216" transform="translate(57,54)"/>
<path d="M0,0 L1,0 L1,1 L0,1 Z " fill="#BAC3CA" opacity="0.8117647" transform="translate(6,54)"/>
<path d="M0,0 L1,0 L1,1 L0,1 Z " fill="#343440" opacity="0.73333335" transform="translate(63,53)"/>
<path d="M0,0 L1,0 L1,1 L0,1 Z " fill="#A8ACB4" opacity="0.75686276" transform="translate(59,53)"/>
<path d="M0,0 L1,0 L1,1 L0,1 Z " fill="#BEC5CD" opacity="0.7607843" transform="translate(56,53)"/>
<path d="M0,0 L1,0 L1,1 L0,1 Z " fill="#B9C2CA" opacity="0.99607843" transform="translate(55,53)"/>
<path d="M0,0 L1,0 L1,1 L0,1 Z " fill="#BEC5CD" opacity="0.7607843" transform="translate(7,53)"/>
<path d="M0,0 L1,0 L1,1 L0,1 Z " fill="#ABB0B7" opacity="0.75686276" transform="translate(4,53)"/>
<path d="M0,0 L1,0 L1,1 L0,1 Z " fill="#343440" opacity="0.74509805" transform="translate(0,53)"/>
<path d="M0,0 L1,0 L1,1 L0,1 Z " fill="#555661" opacity="0.85490197" transform="translate(59,52)"/>
<path d="M0,0 L1,0 L1,1 L0,1 Z " fill="#CDD3D9" opacity="0.99607843" transform="translate(58,52)"/>
<path d="M0,0 L1,0 L1,1 L0,1 Z " fill="#BDC6CE" opacity="0.75686276" transform="translate(54,52)"/>
<path d="M0,0 L1,0 L1,1 L0,1 Z " fill="#B8C3CB" opacity="0.8745098" transform="translate(53,52)"/>
<path d="M0,0 L1,0 L1,1 L0,1 Z " fill="#B8C2CA" opacity="0.9607843" transform="translate(52,52)"/>
<path d="M0,0 L1,0 L1,1 L0,1 Z " fill="#B8C2CA" opacity="0.9607843" transform="translate(11,52)"/>
<path d="M0,0 L1,0 L1,1 L0,1 Z " fill="#BFC6CE" opacity="0.75686276" transform="translate(9,52)"/>
<path d="M0,0 L1,0 L1,1 L0,1 Z " fill="#C9CFD6" opacity="0.8509804" transform="translate(8,52)"/>
<path d="M0,0 L1,0 L1,1 L0,1 Z " fill="#575863" opacity="0.8509804" transform="translate(4,52)"/>
<path d="M0,0 L1,0 L1,1 L0,1 Z " fill="#313140" opacity="0.14117648" transform="translate(63,51)"/>
<path d="M0,0 L1,0 L1,1 L0,1 Z " fill="#343440" opacity="0.99607843" transform="translate(62,51)"/>
<path d="M0,0 L1,0 L1,1 L0,1 Z " fill="#A9ADB5" opacity="0.75686276" transform="translate(58,51)"/>
<path d="M0,0 L1,0 L1,1 L0,1 Z " fill="#ACB0B8" opacity="0.7607843" transform="translate(5,51)"/>
<path d="M0,0 L1,0 L1,1 L0,1 Z " fill="#343440" opacity="0.99607843" transform="translate(1,51)"/>
<path d="M0,0 L1,0 L1,1 L0,1 Z " fill="#313140" opacity="0.14117648" transform="translate(0,51)"/>
<path d="M0,0 L1,0 L1,1 L0,1 Z " fill="#343440" opacity="0.63529414" transform="translate(62,50)"/>
<path d="M0,0 L1,0 L1,1 L0,1 Z " fill="#BFC4CB" opacity="0.8039216" transform="translate(57,50)"/>
<path d="M0,0 L1,0 L1,1 L0,1 Z " fill="#BFC5CC" opacity="0.8117647" transform="translate(6,50)"/>
<path d="M0,0 L1,0 L1,1 L0,1 Z " fill="#343440" opacity="0.627451" transform="translate(1,50)"/>
<path d="M0,0 L1,0 L1,1 L0,1 Z " fill="#313142" opacity="0.12156863" transform="translate(62,49)"/>
<path d="M0,0 L1,0 L1,1 L0,1 Z " fill="#AAAEB6" opacity="0.7607843" transform="translate(56,49)"/>
<path d="M0,0 L1,0 L1,1 L0,1 Z " fill="#CDD3D9" opacity="0.99607843" transform="translate(55,49)"/>
<path d="M0,0 L1,0 L1,1 L0,1 Z " fill="#ACB0B8" opacity="0.7607843" transform="translate(7,49)"/>
<path d="M0,0 L1,0 L1,1 L0,1 Z " fill="#34343D" opacity="0.11372549" transform="translate(1,49)"/>
<path d="M0,0 L1,0 L1,1 L0,1 Z " fill="#343441" opacity="0.30588236" transform="translate(61,48)"/>
<path d="M0,0 L1,0 L1,1 L0,1 Z " fill="#343440" opacity="0.99607843" transform="translate(60,48)"/>
<path d="M0,0 L1,0 L1,1 L0,1 Z " fill="#555661" opacity="0.85490197" transform="translate(55,48)"/>
<path d="M0,0 L1,0 L1,1 L0,1 Z " fill="#ABAFB7" opacity="0.75686276" transform="translate(54,48)"/>
<path d="M0,0 L1,0 L1,1 L0,1 Z " fill="#C8CED4" opacity="0.8745098" transform="translate(53,48)"/>
<path d="M0,0 L1,0 L1,1 L0,1 Z " fill="#CCD3D9" opacity="0.9607843" transform="translate(52,48)"/>
<path d="M0,0 L1,0 L1,1 L0,1 Z " fill="#CCD3D9" opacity="0.9607843" transform="translate(11,48)"/>
<path d="M0,0 L1,0 L1,1 L0,1 Z " fill="#ABB0B7" opacity="0.75686276" transform="translate(9,48)"/>
<path d="M0,0 L1,0 L1,1 L0,1 Z " fill="#575863" opacity="0.8509804" transform="translate(8,48)"/>
<path d="M0,0 L1,0 L1,1 L0,1 Z " fill="#343440" opacity="0.99215686" transform="translate(3,48)"/>
<path d="M0,0 L1,0 L1,1 L0,1 Z " fill="#353540" opacity="0.28235295" transform="translate(2,48)"/>
<path d="M0,0 L1,0 L1,1 L0,1 Z " fill="#353541" opacity="0.41568628" transform="translate(60,47)"/>
<path d="M0,0 L1,0 L1,1 L0,1 Z " fill="#E54341" opacity="0.95686275" transform="translate(51,47)"/>
<path d="M0,0 L1,0 L1,1 L0,1 Z " fill="#34343F" opacity="0.38039216" transform="translate(3,47)"/>
<path d="M0,0 L1,0 L1,1 L0,1 Z " fill="#33333F" opacity="0.27058825" transform="translate(59,46)"/>
<path d="M0,0 L1,0 L1,1 L0,1 Z " fill="#343440" opacity="0.93333334" transform="translate(58,46)"/>
<path d="M0,0 L1,0 L1,1 L0,1 Z " fill="#E24342" opacity="0.81960785" transform="translate(12,46)"/>
<path d="M0,0 L1,0 L1,1 L0,1 Z " fill="#33333F" opacity="0.25490198" transform="translate(4,46)"/>
<path d="M0,0 L1,0 L1,1 L0,1 Z " fill="#303040" opacity="0.1254902" transform="translate(58,45)"/>
<path d="M0,0 L1,0 L1,1 L0,1 Z " fill="#343440" opacity="0.6117647" transform="translate(57,45)"/>
<path d="M0,0 L1,0 L1,1 L0,1 Z " fill="#D54345" opacity="0.7254902" transform="translate(51,45)"/>
<path d="M0,0 L1,0 L1,1 L0,1 Z " fill="#D74545" opacity="0.7254902" transform="translate(12,45)"/>
<path d="M0,0 L1,0 L1,1 L0,1 Z " fill="#343440" opacity="0.9764706" transform="translate(7,45)"/>
<path d="M0,0 L1,0 L1,1 L0,1 Z " fill="#313142" opacity="0.12156863" transform="translate(5,45)"/>
<path d="M0,0 L1,0 L1,1 L0,1 Z " fill="#2F2F42" opacity="0.105882354" transform="translate(56,44)"/>
<path d="M0,0 L1,0 L1,1 L0,1 Z " fill="#343440" opacity="0.8352941" transform="translate(55,44)"/>
<path d="M0,0 L1,0 L1,1 L0,1 Z " fill="#E64341" opacity="0.9411765" transform="translate(50,44)"/>
<path d="M0,0 L1,0 L1,1 L0,1 Z " fill="#E74E4C" transform="translate(42,44)"/>
<path d="M0,0 L1,0 L1,1 L0,1 Z " fill="#ED6565" transform="translate(41,44)"/>
<path d="M0,0 L1,0 L1,1 L0,1 Z " fill="#F07070" transform="translate(40,44)"/>
<path d="M0,0 L1,0 L1,1 L0,1 Z " fill="#EE6666" transform="translate(38,44)"/>
<path d="M0,0 L1,0 L1,1 L0,1 Z " fill="#E84E4D" transform="translate(37,44)"/>
<path d="M0,0 L1,0 L1,1 L0,1 Z " fill="#E74341" opacity="0.94509804" transform="translate(13,44)"/>
<path d="M0,0 L1,0 L1,1 L0,1 Z " fill="#353540" opacity="0.09411765" transform="translate(7,44)"/>
<path d="M0,0 L1,0 L1,1 L0,1 Z " fill="#B2494C" opacity="0.7529412" transform="translate(51,43)"/>
<path d="M0,0 L1,0 L1,1 L0,1 Z " fill="#F14F4D" opacity="0.7607843" transform="translate(50,43)"/>
<path d="M0,0 L1,0 L1,1 L0,1 Z " fill="#E54240" transform="translate(49,43)"/>
<path d="M0,0 L1,0 L1,1 L0,1 Z " fill="#EA5857" transform="translate(43,43)"/>
<path d="M0,0 L1,0 L1,1 L0,1 Z " fill="#F17474" transform="translate(37,43)"/>
<path d="M0,0 L1,0 L1,1 L0,1 Z " fill="#EA5B5A" transform="translate(36,43)"/>
<path d="M0,0 L1,0 L1,1 L0,1 Z " fill="#F04F4D" opacity="0.7607843" transform="translate(13,43)"/>
<path d="M0,0 L1,0 L1,1 L0,1 Z " fill="#B6494C" opacity="0.7529412" transform="translate(12,43)"/>
<path d="M0,0 L1,0 L1,1 L0,1 Z " fill="#333340" opacity="0.5254902" transform="translate(8,43)"/>
<path d="M0,0 L1,0 L1,1 L0,1 Z " fill="#343440" opacity="0.34117648" transform="translate(55,42)"/>
<path d="M0,0 L1,0 L1,1 L0,1 Z " fill="#5F3A44" opacity="0.8509804" transform="translate(51,42)"/>
<path d="M0,0 L1,0 L1,1 L0,1 Z " fill="#F04D4A" opacity="0.7529412" transform="translate(49,42)"/>
<path d="M0,0 L1,0 L1,1 L0,1 Z " fill="#E74E4C" transform="translate(44,42)"/>
<path d="M0,0 L1,0 L1,1 L0,1 Z " fill="#E84F4E" transform="translate(35,42)"/>
<path d="M0,0 L1,0 L1,1 L0,1 Z " fill="#EE4E4C" opacity="0.7529412" transform="translate(14,42)"/>
<path d="M0,0 L1,0 L1,1 L0,1 Z " fill="#653D44" opacity="0.8392157" transform="translate(12,42)"/>
<path d="M0,0 L1,0 L1,1 L0,1 Z " fill="#353440" transform="translate(51,41)"/>
<path d="M0,0 L1,0 L1,1 L0,1 Z " fill="#F04E4C" opacity="0.7529412" transform="translate(48,41)"/>
<path d="M0,0 L1,0 L1,1 L0,1 Z " fill="#E54240" opacity="0.9843137" transform="translate(47,41)"/>
<path d="M0,0 L1,0 L1,1 L0,1 Z " fill="#ED6565" transform="translate(44,41)"/>
<path d="M0,0 L1,0 L1,1 L0,1 Z " fill="#EE6666" transform="translate(35,41)"/>
<path d="M0,0 L1,0 L1,1 L0,1 Z " fill="#E54240" opacity="0.9882353" transform="translate(16,41)"/>
<path d="M0,0 L1,0 L1,1 L0,1 Z " fill="#F04D4A" opacity="0.7529412" transform="translate(15,41)"/>
<path d="M0,0 L1,0 L1,1 L0,1 Z " fill="#363440" transform="translate(12,41)"/>
<path d="M0,0 L1,0 L1,1 L0,1 Z " fill="#2F2F42" opacity="0.105882354" transform="translate(8,41)"/>
<path d="M0,0 L1,0 L1,1 L0,1 Z " fill="#343441" opacity="0.003921569" transform="translate(55,40)"/>
<path d="M0,0 L1,0 L1,1 L0,1 Z " fill="#343441" opacity="0.84705883" transform="translate(54,40)"/>
<path d="M0,0 L1,0 L1,1 L0,1 Z " fill="#C44B4E" opacity="0.75686276" transform="translate(50,40)"/>
<path d="M0,0 L1,0 L1,1 L0,1 Z " fill="#F25250" opacity="0.84313726" transform="translate(47,40)"/>
<path d="M0,0 L1,0 L1,1 L0,1 Z " fill="#E74543" opacity="0.8666667" transform="translate(46,40)"/>
<path d="M0,0 L1,0 L1,1 L0,1 Z " fill="#E54341" transform="translate(45,40)"/>
<path d="M0,0 L1,0 L1,1 L0,1 Z " fill="#F07070" transform="translate(44,40)"/>
<path d="M0,0 L1,0 L1,1 L0,1 Z " fill="#F07070" transform="translate(35,40)"/>
<path d="M0,0 L1,0 L1,1 L0,1 Z " fill="#E84543" opacity="0.8666667" transform="translate(17,40)"/>
<path d="M0,0 L1,0 L1,1 L0,1 Z " fill="#F25250" opacity="0.8392157" transform="translate(16,40)"/>
<path d="M0,0 L1,0 L1,1 L0,1 Z " fill="#C94C4D" opacity="0.7607843" transform="translate(13,40)"/>
<path d="M0,0 L1,0 L1,1 L0,1 Z " fill="#343440" opacity="0.8352941" transform="translate(9,40)"/>
<path d="M0,0 L1,0 L1,1 L0,1 Z " fill="#513842" opacity="0.8901961" transform="translate(50,39)"/>
<path d="M0,0 L1,0 L1,1 L0,1 Z " fill="#F14F4E" opacity="0.75686276" transform="translate(45,39)"/>
<path d="M0,0 L1,0 L1,1 L0,1 Z " fill="#F04E4C" opacity="0.75686276" transform="translate(18,39)"/>
<path d="M0,0 L1,0 L1,1 L0,1 Z " fill="#F35351" opacity="0.972549" transform="translate(17,39)"/>
<path d="M0,0 L1,0 L1,1 L0,1 Z " fill="#543843" opacity="0.88235295" transform="translate(13,39)"/>
<path d="M0,0 L1,0 L1,1 L0,1 Z " fill="#333340" opacity="0.078431375" transform="translate(54,38)"/>
<path d="M0,0 L1,0 L1,1 L0,1 Z " fill="#343440" opacity="0.9764706" transform="translate(53,38)"/>
<path d="M0,0 L1,0 L1,1 L0,1 Z " fill="#C14A4C" opacity="0.7529412" transform="translate(49,38)"/>
<path d="M0,0 L1,0 L1,1 L0,1 Z " fill="#F26B6A" opacity="0.99607843" transform="translate(44,38)"/>
<path d="M0,0 L1,0 L1,1 L0,1 Z " fill="#EE6767" transform="translate(35,38)"/>
<path d="M0,0 L1,0 L1,1 L0,1 Z " fill="#E54140" opacity="0.99215686" transform="translate(22,38)"/>
<path d="M0,0 L1,0 L1,1 L0,1 Z " fill="#F04F4E" opacity="0.76862746" transform="translate(20,38)"/>
<path d="M0,0 L1,0 L1,1 L0,1 Z " fill="#F35351" opacity="0.9843137" transform="translate(19,38)"/>
<path d="M0,0 L1,0 L1,1 L0,1 Z " fill="#C54B4C" opacity="0.75686276" transform="translate(14,38)"/>
<path d="M0,0 L1,0 L1,1 L0,1 Z " fill="#343441" opacity="0.972549" transform="translate(10,38)"/>
<path d="M0,0 L1,0 L1,1 L0,1 Z " fill="#343441" opacity="0.07058824" transform="translate(9,38)"/>
<path d="M0,0 L1,0 L1,1 L0,1 Z " fill="#433641" opacity="0.9372549" transform="translate(49,37)"/>
<path d="M0,0 L1,0 L1,1 L0,1 Z " fill="#F25351" opacity="0.94509804" transform="translate(48,37)"/>
<path d="M0,0 L1,0 L1,1 L0,1 Z " fill="#F35B5A" transform="translate(44,37)"/>
<path d="M0,0 L1,0 L1,1 L0,1 Z " fill="#F17474" transform="translate(43,37)"/>
<path d="M0,0 L1,0 L1,1 L0,1 Z " fill="#E84F4E" transform="translate(35,37)"/>
<path d="M0,0 L1,0 L1,1 L0,1 Z " fill="#E54240" opacity="0.98039216" transform="translate(26,37)"/>
<path d="M0,0 L1,0 L1,1 L0,1 Z " fill="#E84643" opacity="0.85882354" transform="translate(25,37)"/>
<path d="M0,0 L1,0 L1,1 L0,1 Z " fill="#F04F4E" opacity="0.76862746" transform="translate(23,37)"/>
<path d="M0,0 L1,0 L1,1 L0,1 Z " fill="#F35351" opacity="0.92941177" transform="translate(22,37)"/>
<path d="M0,0 L1,0 L1,1 L0,1 Z " fill="#F35351" opacity="0.9490196" transform="translate(15,37)"/>
<path d="M0,0 L1,0 L1,1 L0,1 Z " fill="#453641" opacity="0.9254902" transform="translate(14,37)"/>
<path d="M0,0 L1,0 L1,1 L0,1 Z " fill="#313142" opacity="0.12156863" transform="translate(53,36)"/>
<path d="M0,0 L1,0 L1,1 L0,1 Z " fill="#353540" opacity="0.9647059" transform="translate(52,36)"/>
<path d="M0,0 L1,0 L1,1 L0,1 Z " fill="#8E4248" opacity="0.77254903" transform="translate(48,36)"/>
<path d="M0,0 L1,0 L1,1 L0,1 Z " fill="#F26362" transform="translate(43,36)"/>
<path d="M0,0 L1,0 L1,1 L0,1 Z " fill="#F36564" opacity="0.9372549" transform="translate(36,36)"/>
<path d="M0,0 L1,0 L1,1 L0,1 Z " fill="#F1514E" opacity="0.78431374" transform="translate(34,36)"/>
<path d="M0,0 L1,0 L1,1 L0,1 Z " fill="#F04F4E" opacity="0.76862746" transform="translate(33,36)"/>
<path d="M0,0 L1,0 L1,1 L0,1 Z " fill="#F04F4E" opacity="0.75686276" transform="translate(31,36)"/>
<path d="M0,0 L1,0 L1,1 L0,1 Z " fill="#F1514E" opacity="0.78039217" transform="translate(29,36)"/>
<path d="M0,0 L1,0 L1,1 L0,1 Z " fill="#F3524F" opacity="0.8666667" transform="translate(27,36)"/>
<path d="M0,0 L1,0 L1,1 L0,1 Z " fill="#F35452" opacity="0.9882353" transform="translate(26,36)"/>
<path d="M0,0 L1,0 L1,1 L0,1 Z " fill="#934347" opacity="0.76862746" transform="translate(15,36)"/>
<path d="M0,0 L1,0 L1,1 L0,1 Z " fill="#343440" opacity="0.9607843" transform="translate(11,36)"/>
<path d="M0,0 L1,0 L1,1 L0,1 Z " fill="#33333B" opacity="0.11764706" transform="translate(10,36)"/>
<path d="M0,0 L1,0 L1,1 L0,1 Z " fill="#B9494C" opacity="0.7529412" transform="translate(47,35)"/>
<path d="M0,0 L1,0 L1,1 L0,1 Z " fill="#F35C5A" transform="translate(42,35)"/>
<path d="M0,0 L1,0 L1,1 L0,1 Z " fill="#F26B6B" transform="translate(41,35)"/>
<path d="M0,0 L1,0 L1,1 L0,1 Z " fill="#F17171" transform="translate(40,35)"/>
<path d="M0,0 L1,0 L1,1 L0,1 Z " fill="#F26C6B" transform="translate(38,35)"/>
<path d="M0,0 L1,0 L1,1 L0,1 Z " fill="#F25C5A" transform="translate(37,35)"/>
<path d="M0,0 L1,0 L1,1 L0,1 Z " fill="#BD494C" opacity="0.7529412" transform="translate(16,35)"/>
<path d="M0,0 L1,0 L1,1 L0,1 Z " fill="#343440" opacity="0.023529412" transform="translate(52,34)"/>
<path d="M0,0 L1,0 L1,1 L0,1 Z " fill="#363440" transform="translate(47,34)"/>
<path d="M0,0 L1,0 L1,1 L0,1 Z " fill="#363440" opacity="0.99607843" transform="translate(16,34)"/>
<path d="M0,0 L1,0 L1,1 L0,1 Z " fill="#343440" opacity="0.019607844" transform="translate(11,34)"/>
<path d="M0,0 L1,0 L1,1 L0,1 Z " fill="#343440" opacity="0.17254902" transform="translate(51,33)"/>
<path d="M0,0 L1,0 L1,1 L0,1 Z " fill="#353540" opacity="0.94509804" transform="translate(50,33)"/>
<path d="M0,0 L1,0 L1,1 L0,1 Z " fill="#3D3540" opacity="0.9647059" transform="translate(46,33)"/>
<path d="M0,0 L1,0 L1,1 L0,1 Z " fill="#3D3541" opacity="0.9607843" transform="translate(17,33)"/>
<path d="M0,0 L1,0 L1,1 L0,1 Z " fill="#343440" opacity="0.9372549" transform="translate(13,33)"/>
<path d="M0,0 L1,0 L1,1 L0,1 Z " fill="#31313E" opacity="0.16078432" transform="translate(12,33)"/>
<path d="M0,0 L1,0 L1,1 L0,1 Z " fill="#33333F" opacity="0.27058825" transform="translate(50,32)"/>
<path d="M0,0 L1,0 L1,1 L0,1 Z " fill="#363440" transform="translate(45,32)"/>
<path d="M0,0 L1,0 L1,1 L0,1 Z " fill="#BA494C" opacity="0.7529412" transform="translate(44,32)"/>
<path d="M0,0 L1,0 L1,1 L0,1 Z " fill="#BD4A4C" opacity="0.7529412" transform="translate(19,32)"/>
<path d="M0,0 L1,0 L1,1 L0,1 Z " fill="#363440" opacity="0.99607843" transform="translate(18,32)"/>
<path d="M0,0 L1,0 L1,1 L0,1 Z " fill="#343441" opacity="0.24705882" transform="translate(13,32)"/>
<path d="M0,0 L1,0 L1,1 L0,1 Z " fill="#333340" opacity="0.39215687" transform="translate(49,31)"/>
<path d="M0,0 L1,0 L1,1 L0,1 Z " fill="#8D4247" opacity="0.77254903" transform="translate(43,31)"/>
<path d="M0,0 L1,0 L1,1 L0,1 Z " fill="#F35351" opacity="0.9490196" transform="translate(42,31)"/>
<path d="M0,0 L1,0 L1,1 L0,1 Z " fill="#924249" opacity="0.76862746" transform="translate(20,31)"/>
<path d="M0,0 L1,0 L1,1 L0,1 Z " fill="#353541" transform="translate(15,31)"/>
<path d="M0,0 L1,0 L1,1 L0,1 Z " fill="#353540" opacity="0.35686275" transform="translate(14,31)"/>
<path d="M0,0 L1,0 L1,1 L0,1 Z " fill="#35353F" opacity="0.39607844" transform="translate(48,30)"/>
<path d="M0,0 L1,0 L1,1 L0,1 Z " fill="#343441" opacity="0.9882353" transform="translate(47,30)"/>
<path d="M0,0 L1,0 L1,1 L0,1 Z " fill="#453742" opacity="0.92941177" transform="translate(42,30)"/>
<path d="M0,0 L1,0 L1,1 L0,1 Z " fill="#C24A4C" opacity="0.75686276" transform="translate(41,30)"/>
<path d="M0,0 L1,0 L1,1 L0,1 Z " fill="#F35351" opacity="0.98039216" transform="translate(40,30)"/>
<path d="M0,0 L1,0 L1,1 L0,1 Z " fill="#C54B4C" opacity="0.75686276" transform="translate(22,30)"/>
<path d="M0,0 L1,0 L1,1 L0,1 Z " fill="#453641" opacity="0.9254902" transform="translate(21,30)"/>
<path d="M0,0 L1,0 L1,1 L0,1 Z " fill="#34343F" opacity="0.3647059" transform="translate(15,30)"/>
<path d="M0,0 L1,0 L1,1 L0,1 Z " fill="#353540" opacity="0.28235295" transform="translate(47,29)"/>
<path d="M0,0 L1,0 L1,1 L0,1 Z " fill="#513941" opacity="0.8901961" transform="translate(40,29)"/>
<path d="M0,0 L1,0 L1,1 L0,1 Z " fill="#C84C4D" opacity="0.7607843" transform="translate(39,29)"/>
<path d="M0,0 L1,0 L1,1 L0,1 Z " fill="#F15350" opacity="0.90588236" transform="translate(38,29)"/>
<path d="M0,0 L1,0 L1,1 L0,1 Z " fill="#C94C4D" opacity="0.7607843" transform="translate(24,29)"/>
<path d="M0,0 L1,0 L1,1 L0,1 Z " fill="#523842" opacity="0.8862745" transform="translate(23,29)"/>
<path d="M0,0 L1,0 L1,1 L0,1 Z " fill="#33333F" opacity="0.27058825" transform="translate(16,29)"/>
<path d="M0,0 L1,0 L1,1 L0,1 Z " fill="#32323D" opacity="0.18039216" transform="translate(46,28)"/>
<path d="M0,0 L1,0 L1,1 L0,1 Z " fill="#343440" opacity="0.81960785" transform="translate(45,28)"/>
<path d="M0,0 L1,0 L1,1 L0,1 Z " fill="#353440" transform="translate(38,28)"/>
<path d="M0,0 L1,0 L1,1 L0,1 Z " fill="#603B44" opacity="0.84705883" transform="translate(37,28)"/>
<path d="M0,0 L1,0 L1,1 L0,1 Z " fill="#B0484A" opacity="0.7529412" transform="translate(36,28)"/>
<path d="M0,0 L1,0 L1,1 L0,1 Z " fill="#E75151" opacity="0.827451" transform="translate(34,28)"/>
<path d="M0,0 L1,0 L1,1 L0,1 Z " fill="#EF5251" opacity="0.8862745" transform="translate(33,28)"/>
<path d="M0,0 L1,0 L1,1 L0,1 Z " fill="#E75151" opacity="0.827451" transform="translate(29,28)"/>
<path d="M0,0 L1,0 L1,1 L0,1 Z " fill="#B1484A" opacity="0.7529412" transform="translate(27,28)"/>
<path d="M0,0 L1,0 L1,1 L0,1 Z " fill="#603A43" opacity="0.84313726" transform="translate(26,28)"/>
<path d="M0,0 L1,0 L1,1 L0,1 Z " fill="#353440" transform="translate(25,28)"/>
<path d="M0,0 L1,0 L1,1 L0,1 Z " fill="#32323D" opacity="0.18039216" transform="translate(17,28)"/>
<path d="M0,0 L1,0 L1,1 L0,1 Z " fill="#343440" opacity="0.019607844" transform="translate(45,27)"/>
<path d="M0,0 L1,0 L1,1 L0,1 Z " fill="#343440" opacity="0.48235294" transform="translate(44,27)"/>
<path d="M0,0 L1,0 L1,1 L0,1 Z " fill="#343440" opacity="0.9764706" transform="translate(20,27)"/>
<path d="M0,0 L1,0 L1,1 L0,1 Z " fill="#35353F" opacity="0.023529412" transform="translate(18,27)"/>
<path d="M0,0 L1,0 L1,1 L0,1 Z " fill="#30303E" opacity="0.14509805" transform="translate(43,26)"/>
<path d="M0,0 L1,0 L1,1 L0,1 Z " fill="#343440" opacity="0.627451" transform="translate(42,26)"/>
<path d="M0,0 L1,0 L1,1 L0,1 Z " fill="#353540" opacity="0.9843137" transform="translate(41,26)"/>
<path d="M0,0 L1,0 L1,1 L0,1 Z " fill="#353540" opacity="0.9843137" transform="translate(22,26)"/>
<path d="M0,0 L1,0 L1,1 L0,1 Z " fill="#343441" opacity="0.15294118" transform="translate(20,26)"/>
<path d="M0,0 L1,0 L1,1 L0,1 Z " fill="#343440" opacity="0.5176471" transform="translate(40,25)"/>
<path d="M0,0 L1,0 L1,1 L0,1 Z " fill="#343440" opacity="0.8352941" transform="translate(39,25)"/>
<path d="M0,0 L1,0 L1,1 L0,1 Z " fill="#343440" opacity="0.84313726" transform="translate(24,25)"/>
<path d="M0,0 L1,0 L1,1 L0,1 Z " fill="#33333B" opacity="0.11764706" transform="translate(22,25)"/>
<path d="M0,0 L1,0 L1,1 L0,1 Z " fill="#30303E" opacity="0.14509805" transform="translate(38,24)"/>
<path d="M0,0 L1,0 L1,1 L0,1 Z " fill="#343440" opacity="0.5764706" transform="translate(36,24)"/>
<path d="M0,0 L1,0 L1,1 L0,1 Z " fill="#353540" opacity="0.75686276" transform="translate(35,24)"/>
<path d="M0,0 L1,0 L1,1 L0,1 Z " fill="#343440" opacity="0.8666667" transform="translate(34,24)"/>
<path d="M0,0 L1,0 L1,1 L0,1 Z " fill="#343440" opacity="0.92156863" transform="translate(33,24)"/>
<path d="M0,0 L1,0 L1,1 L0,1 Z " fill="#343440" opacity="0.8666667" transform="translate(29,24)"/>
<path d="M0,0 L1,0 L1,1 L0,1 Z " fill="#333340" opacity="0.5803922" transform="translate(27,24)"/>
<path d="M0,0 L1,0 L1,1 L0,1 Z " fill="#343441" opacity="0.15294118" transform="translate(25,24)"/>
</svg>
