<?xml version="1.0" encoding="UTF-8"?>
<!-- Generator: visioncortex VTracer 0.6.4 -->
<svg version="1.1" xmlns="http://www.w3.org/2000/svg" width="64" height="64">
<path d="M0,0 L40,0 L40,1 L45,1 L45,2 L47,2 L47,3 L48,3 L48,4 L49,4 L49,5 L50,5 L50,7 L51,7 L51,12 L52,12 L52,52 L51,52 L51,57 L50,57 L50,59 L49,59 L49,60 L48,60 L48,61 L47,61 L47,62 L45,62 L45,63 L40,63 L40,64 L0,64 L0,63 L-5,63 L-5,62 L-7,62 L-7,61 L-8,61 L-8,60 L-9,60 L-9,59 L-10,59 L-10,57 L-11,57 L-11,52 L-12,52 L-12,12 L-11,12 L-11,7 L-10,7 L-10,5 L-9,5 L-9,4 L-8,4 L-8,3 L-7,3 L-7,2 L-5,2 L-5,1 L0,1 Z M-5,4 L-5,5 L-6,5 L-6,6 L-7,6 L-7,7 L-8,7 L-8,16 L-7,16 L-7,12 L-6,12 L-6,11 L-5,11 L-5,10 L-4,10 L-4,9 L0,9 L0,8 L-5,8 L-5,9 L-6,9 L-6,10 L-7,10 L-7,8 L-6,8 L-6,7 L-5,7 L-5,6 L-4,6 L-4,5 L0,5 L0,4 Z M40,4 L40,5 L44,5 L44,6 L45,6 L45,7 L46,7 L46,8 L47,8 L47,10 L46,10 L46,9 L45,9 L45,8 L40,8 L40,9 L44,9 L44,10 L45,10 L45,11 L46,11 L46,12 L47,12 L47,16 L48,16 L48,7 L47,7 L47,6 L46,6 L46,5 L45,5 L45,4 Z M32,12 L32,17 L37,17 L37,12 Z M25,14 L25,15 L24,15 L24,18 L25,18 L25,20 L28,20 L28,19 L30,19 L30,15 L29,15 L29,14 Z M-8,18 L-8,19 L-3,19 L-3,18 Z M43,18 L43,19 L48,19 L48,18 Z M-3,19 L-3,20 L0,20 L0,19 Z M40,19 L40,20 L43,20 L43,19 Z M0,20 L0,21 L2,21 L2,22 L4,22 L4,23 L6,23 L6,24 L9,24 L9,25 L12,25 L12,26 L27,26 L27,25 L13,25 L13,24 L10,24 L10,23 L7,23 L7,22 L5,22 L5,21 L3,21 L3,20 Z M37,20 L37,21 L35,21 L35,22 L33,22 L33,23 L36,23 L36,22 L38,22 L38,21 L40,21 L40,20 Z M-8,22 L-8,23 L-3,23 L-3,22 Z M43,22 L43,23 L48,23 L48,22 Z M-3,23 L-3,24 L0,24 L0,23 Z M30,23 L30,24 L27,24 L27,25 L31,25 L31,24 L33,24 L33,23 Z M40,23 L40,24 L43,24 L43,23 Z M0,24 L0,25 L2,25 L2,26 L4,26 L4,27 L6,27 L6,28 L9,28 L9,29 L12,29 L12,30 L27,30 L27,29 L13,29 L13,28 L10,28 L10,27 L7,27 L7,26 L5,26 L5,25 L3,25 L3,24 Z M37,24 L37,25 L35,25 L35,26 L33,26 L33,27 L36,27 L36,26 L38,26 L38,25 L40,25 L40,24 Z M30,27 L30,28 L27,28 L27,29 L31,29 L31,28 L33,28 L33,27 Z M-8,30 L-8,31 L-3,31 L-3,30 Z M43,30 L43,31 L48,31 L48,30 Z M-3,31 L-3,32 L0,32 L0,31 Z M40,31 L40,32 L43,32 L43,31 Z M0,32 L0,33 L2,33 L2,34 L4,34 L4,35 L6,35 L6,36 L9,36 L9,37 L12,37 L12,38 L27,38 L27,37 L13,37 L13,36 L10,36 L10,35 L7,35 L7,34 L5,34 L5,33 L3,33 L3,32 Z M37,32 L37,33 L35,33 L35,34 L33,34 L33,35 L36,35 L36,34 L38,34 L38,33 L40,33 L40,32 Z M-8,34 L-8,35 L-3,35 L-3,34 Z M43,34 L43,35 L48,35 L48,34 Z M-3,35 L-3,36 L0,36 L0,35 Z M30,35 L30,36 L27,36 L27,37 L31,37 L31,36 L33,36 L33,35 Z M40,35 L40,36 L43,36 L43,35 Z M0,36 L0,37 L2,37 L2,38 L4,38 L4,39 L6,39 L6,40 L9,40 L9,41 L12,41 L12,42 L27,42 L27,41 L13,41 L13,40 L10,40 L10,39 L7,39 L7,38 L5,38 L5,37 L3,37 L3,36 Z M37,36 L37,37 L35,37 L35,38 L33,38 L33,39 L36,39 L36,38 L38,38 L38,37 L40,37 L40,36 Z M30,39 L30,40 L27,40 L27,41 L31,41 L31,40 L33,40 L33,39 Z M39,39 L39,40 L38,40 L38,41 L37,41 L37,44 L38,44 L38,45 L42,45 L42,44 L43,44 L43,41 L42,41 L42,40 L41,40 L41,39 Z M-8,46 L-8,47 L-3,47 L-3,46 Z M43,46 L43,47 L48,47 L48,46 Z M-3,47 L-3,48 L0,48 L0,47 Z M40,47 L40,48 L43,48 L43,47 Z M0,48 L0,49 L2,49 L2,50 L4,50 L4,51 L6,51 L6,52 L9,52 L9,53 L12,53 L12,54 L27,54 L27,53 L13,53 L13,52 L10,52 L10,51 L7,51 L7,50 L5,50 L5,49 L3,49 L3,48 Z M37,48 L37,49 L35,49 L35,50 L33,50 L33,51 L36,51 L36,50 L38,50 L38,49 L40,49 L40,48 Z M-3,51 L-3,52 L-4,52 L-4,56 L-3,56 L-3,57 L0,57 L0,56 L1,56 L1,55 L2,55 L2,53 L1,53 L1,52 L0,52 L0,51 Z M30,51 L30,52 L27,52 L27,53 L31,53 L31,52 L33,52 L33,51 Z M-8,52 L-8,57 L-7,57 L-7,58 L-6,58 L-6,59 L-4,59 L-4,58 L-5,58 L-5,57 L-6,57 L-6,56 L-7,56 L-7,52 Z M47,52 L47,56 L46,56 L46,57 L45,57 L45,58 L44,58 L44,59 L46,59 L46,58 L47,58 L47,57 L48,57 L48,52 Z M-4,59 L-4,60 L0,60 L0,59 Z M40,59 L40,60 L44,60 L44,59 Z M33,13 L36,13 L36,16 L33,16 Z M26,15 L28,15 L28,16 L29,16 L29,18 L28,18 L28,19 L26,19 L26,18 L25,18 L25,16 L26,16 Z M39,41 L41,41 L41,42 L42,42 L42,43 L41,43 L41,44 L39,44 L39,43 L38,43 L38,42 L39,42 Z M-2,52 L0,52 L0,53 L1,53 L1,55 L0,55 L0,56 L-2,56 L-2,55 L-3,55 L-3,53 L-2,53 Z " fill="#EE9366" transform="translate(12,0)"/>
<path d="M0,0 L40,0 L40,1 L44,1 L44,2 L45,2 L45,3 L46,3 L46,4 L47,4 L47,6 L46,6 L46,5 L45,5 L45,4 L40,4 L40,5 L44,5 L44,6 L45,6 L45,7 L46,7 L46,8 L47,8 L47,12 L48,12 L48,14 L43,14 L43,15 L40,15 L40,16 L37,16 L37,17 L35,17 L35,18 L33,18 L33,19 L30,19 L30,20 L27,20 L27,21 L13,21 L13,20 L10,20 L10,19 L7,19 L7,18 L5,18 L5,17 L3,17 L3,16 L0,16 L0,15 L-3,15 L-3,14 L-8,14 L-8,12 L-7,12 L-7,8 L-6,8 L-6,7 L-5,7 L-5,6 L-4,6 L-4,5 L0,5 L0,4 L-5,4 L-5,5 L-6,5 L-6,6 L-7,6 L-7,4 L-6,4 L-6,3 L-5,3 L-5,2 L-4,2 L-4,1 L0,1 Z M32,8 L32,13 L37,13 L37,8 Z M25,10 L25,11 L24,11 L24,14 L25,14 L25,16 L28,16 L28,15 L30,15 L30,11 L29,11 L29,10 Z M33,9 L36,9 L36,12 L33,12 Z M26,11 L28,11 L28,12 L29,12 L29,14 L28,14 L28,15 L26,15 L26,14 L25,14 L25,12 L26,12 Z M-8,15 L-3,15 L-3,16 L0,16 L0,17 L2,17 L2,18 L4,18 L4,19 L6,19 L6,20 L9,20 L9,21 L12,21 L12,22 L27,22 L27,21 L31,21 L31,20 L33,20 L33,19 L36,19 L36,18 L38,18 L38,17 L40,17 L40,16 L43,16 L43,15 L48,15 L48,18 L43,18 L43,19 L40,19 L40,20 L37,20 L37,21 L35,21 L35,22 L33,22 L33,23 L30,23 L30,24 L27,24 L27,25 L13,25 L13,24 L10,24 L10,23 L7,23 L7,22 L5,22 L5,21 L3,21 L3,20 L0,20 L0,19 L-3,19 L-3,18 L-8,18 Z " fill="#F3C7A5" transform="translate(12,4)"/>
<path d="M0,0 L40,0 L40,1 L45,1 L45,2 L47,2 L47,3 L48,3 L48,4 L49,4 L49,5 L50,5 L50,7 L51,7 L51,12 L52,12 L52,52 L51,52 L51,57 L50,57 L50,59 L49,59 L49,60 L48,60 L48,61 L47,61 L47,62 L45,62 L45,63 L40,63 L40,64 L0,64 L0,63 L-5,63 L-5,62 L-7,62 L-7,61 L-8,61 L-8,60 L-9,60 L-9,59 L-10,59 L-10,57 L-11,57 L-11,52 L-12,52 L-12,12 L-11,12 L-11,7 L-10,7 L-10,5 L-9,5 L-9,4 L-8,4 L-8,3 L-7,3 L-7,2 L-5,2 L-5,1 L0,1 Z M-5,4 L-5,5 L-6,5 L-6,6 L-7,6 L-7,7 L-8,7 L-8,57 L-7,57 L-7,58 L-6,58 L-6,59 L-4,59 L-4,60 L44,60 L44,59 L46,59 L46,58 L47,58 L47,57 L48,57 L48,7 L47,7 L47,6 L46,6 L46,5 L45,5 L45,4 Z " fill="#353541" transform="translate(12,0)"/>
<path d="M0,0 L5,0 L5,1 L8,1 L8,2 L10,2 L10,3 L12,3 L12,4 L14,4 L14,5 L17,5 L17,6 L20,6 L20,7 L35,7 L35,6 L39,6 L39,5 L41,5 L41,4 L44,4 L44,3 L46,3 L46,2 L48,2 L48,1 L51,1 L51,0 L56,0 L56,7 L51,7 L51,8 L48,8 L48,9 L45,9 L45,10 L43,10 L43,11 L41,11 L41,12 L38,12 L38,13 L35,13 L35,14 L21,14 L21,13 L18,13 L18,12 L15,12 L15,11 L13,11 L13,10 L11,10 L11,9 L8,9 L8,8 L5,8 L5,7 L0,7 Z M0,8 L5,8 L5,9 L8,9 L8,10 L10,10 L10,11 L12,11 L12,12 L14,12 L14,13 L17,13 L17,14 L20,14 L20,15 L35,15 L35,14 L39,14 L39,13 L41,13 L41,12 L44,12 L44,11 L46,11 L46,10 L48,10 L48,9 L51,9 L51,8 L56,8 L56,11 L51,11 L51,12 L48,12 L48,13 L45,13 L45,14 L43,14 L43,15 L41,15 L41,16 L38,16 L38,17 L35,17 L35,18 L21,18 L21,17 L18,17 L18,16 L15,16 L15,15 L13,15 L13,14 L11,14 L11,13 L8,13 L8,12 L5,12 L5,11 L0,11 Z " fill="#DE7E4F" transform="translate(4,23)"/>
<path d="M0,0 L4,0 L4,1 L7,1 L7,2 L10,2 L10,3 L12,3 L12,4 L14,4 L14,5 L17,5 L17,6 L20,6 L20,7 L35,7 L35,6 L39,6 L39,5 L42,5 L42,4 L44,4 L44,3 L46,3 L46,2 L49,2 L49,1 L52,1 L52,0 L56,0 L56,5 L55,5 L55,9 L54,9 L54,10 L53,10 L53,11 L52,11 L52,12 L48,12 L48,13 L8,13 L8,12 L4,12 L4,11 L3,11 L3,10 L2,10 L2,9 L1,9 L1,5 L0,5 Z M5,4 L5,5 L4,5 L4,9 L5,9 L5,10 L8,10 L8,9 L9,9 L9,8 L10,8 L10,6 L9,6 L9,4 Z " fill="#DE7E4F" transform="translate(4,47)"/>
<path d="M0,0 L1,0 L1,1 L0,1 Z M47,0 L48,0 L48,1 L47,1 Z M3,1 L4,1 L4,2 L3,2 Z M44,1 L45,1 L45,2 L44,2 Z M37,4 L38,4 L38,5 L37,5 Z " fill="#DE7E4E" transform="translate(8,47)"/>
<path d="M0,0 L5,0 L5,1 L8,1 L8,2 L10,2 L10,3 L12,3 L12,4 L14,4 L14,5 L17,5 L17,6 L20,6 L20,7 L35,7 L35,6 L39,6 L39,5 L41,5 L41,4 L44,4 L44,3 L46,3 L46,2 L48,2 L48,1 L51,1 L51,0 L56,0 L56,3 L51,3 L51,4 L48,4 L48,5 L45,5 L45,6 L43,6 L43,7 L41,7 L41,8 L38,8 L38,9 L35,9 L35,10 L21,10 L21,9 L18,9 L18,8 L15,8 L15,7 L13,7 L13,6 L11,6 L11,5 L8,5 L8,4 L5,4 L5,3 L0,3 Z " fill="#E7B187" transform="translate(4,19)"/>
<path d="M0,0 L5,0 L5,1 L8,1 L8,2 L10,2 L10,3 L12,3 L12,4 L14,4 L14,5 L17,5 L17,6 L20,6 L20,7 L35,7 L35,6 L39,6 L39,5 L41,5 L41,4 L44,4 L44,3 L46,3 L46,2 L48,2 L48,1 L51,1 L51,0 L56,0 L56,3 L51,3 L51,4 L48,4 L48,5 L45,5 L45,6 L43,6 L43,7 L41,7 L41,8 L38,8 L38,9 L35,9 L35,10 L21,10 L21,9 L18,9 L18,8 L15,8 L15,7 L13,7 L13,6 L11,6 L11,5 L8,5 L8,4 L5,4 L5,3 L0,3 Z " fill="#C66A3E" transform="translate(4,31)"/>
<path d="M0,0 L40,0 L40,1 L44,1 L44,2 L45,2 L45,3 L46,3 L46,4 L47,4 L47,6 L46,6 L46,5 L45,5 L45,4 L-5,4 L-5,3 L-4,3 L-4,2 L-3,2 L-3,1 L0,1 Z M-6,4 L-5,4 L-5,5 L-6,5 Z M-7,5 L-6,5 L-6,6 L-7,6 Z " fill="#FFE0C2" transform="translate(12,4)"/>
<path d="M0,0 L1,0 L1,1 L0,1 Z M-1,1 L0,1 L0,2 L-1,2 Z M-2,2 L-1,2 L-1,3 L-2,3 Z M-3,3 L-2,3 L-2,4 L-3,4 Z M0,4 L1,4 L1,5 L0,5 Z M-1,5 L0,5 L0,6 L-1,6 Z M-2,6 L-1,6 L-1,7 L-2,7 Z M-3,7 L-2,7 L-2,8 L-3,8 Z " fill="#F3C7A5" transform="translate(8,5)"/>
<path d="M0,0 L2,0 L2,1 L3,1 L3,3 L2,3 L2,4 L0,4 L0,3 L-1,3 L-1,1 L0,1 Z " fill="#C66A3E" transform="translate(10,52)"/>
<path d="M0,0 L2,0 L2,1 L3,1 L3,3 L2,3 L2,4 L0,4 L0,3 L-1,3 L-1,1 L0,1 Z " fill="#E7B187" transform="translate(38,15)"/>
<path d="M0,0 L3,0 L3,3 L0,3 Z " fill="#E7B187" transform="translate(45,13)"/>
<path d="M0,0 L2,0 L2,1 L3,1 L3,2 L2,2 L2,3 L0,3 L0,2 L-1,2 L-1,1 L0,1 Z " fill="#DE7E4F" transform="translate(51,41)"/>
<path d="M0,0 L1,0 L1,1 L0,1 Z " fill="#EE9366" opacity="0.9607843" transform="translate(32,53)"/>
<path d="M0,0 L1,0 L1,1 L0,1 Z " fill="#C96B3F" opacity="0.9607843" transform="translate(32,41)"/>
<path d="M0,0 L1,0 L1,1 L0,1 Z " fill="#DE7D4D" opacity="0.9607843" transform="translate(32,37)"/>
<path d="M0,0 L1,0 L1,1 L0,1 Z " fill="#E6AF83" opacity="0.9607843" transform="translate(32,29)"/>
<path d="M0,0 L1,0 L1,1 L0,1 Z " fill="#F3C6A3" opacity="0.9607843" transform="translate(32,25)"/>
<path d="M0,0 L1,0 L1,1 L0,1 Z M-1,1 L0,1 L0,2 L-1,2 Z M-2,2 L-1,2 L-1,3 L-2,3 Z M-3,3 L-2,3 L-2,4 L-3,4 Z " fill="#FFE0C2" transform="translate(8,5)"/>
<path d="M0,0 L1,0 L1,1 L0,1 Z " fill="#F7D9BD" opacity="0.85490197" transform="translate(59,10)"/>
<path d="M0,0 L1,0 L1,1 L0,1 Z M-1,1 L0,1 L0,2 L-1,2 Z " fill="#E7B187" transform="translate(38,15)"/>
<path d="M0,0 L1,0 L1,1 L0,1 Z " fill="#FFDEC1" opacity="0.83137256" transform="translate(5,10)"/>
<path d="M0,0 L1,0 L1,1 L0,1 Z M-1,1 L0,1 L0,2 L-1,2 Z " fill="#DE7E4F" transform="translate(51,41)"/>
<path d="M0,0 L1,0 L1,1 L0,1 Z M-1,1 L0,1 L0,2 L-1,2 Z M-2,2 L-1,2 L-1,3 L-2,3 Z M-3,3 L-2,3 L-2,4 L-3,4 Z " fill="#353541" transform="translate(5,2)"/>
<path d="M0,0 L1,0 L1,1 L0,1 Z " fill="#353540" opacity="0.69803923" transform="translate(54,0)"/>
<path d="M0,0 L1,0 L1,1 L0,1 Z " fill="#333340" opacity="0.77254903" transform="translate(9,63)"/>
<path d="M0,0 L1,0 L1,1 L0,1 Z M1,1 L2,1 L2,2 L1,2 Z " fill="#353540" opacity="0.1882353" transform="translate(2,60)"/>
<path d="M0,0 L1,0 L1,1 L0,1 Z " fill="#DD7D4E" opacity="0.93333334" transform="translate(11,59)"/>
<path d="M0,0 L1,0 L1,1 L0,1 Z " fill="#ED9164" opacity="0.81960785" transform="translate(28,53)"/>
<path d="M0,0 L1,0 L1,1 L0,1 Z " fill="#EC8D60" opacity="0.75686276" transform="translate(57,46)"/>
<path d="M0,0 L1,0 L1,1 L0,1 Z " fill="#ED9263" opacity="0.8235294" transform="translate(7,46)"/>
<path d="M0,0 L1,0 L1,1 L0,1 Z " fill="#D27649" opacity="0.81960785" transform="translate(28,41)"/>
<path d="M0,0 L1,0 L1,1 L0,1 Z " fill="#D77849" opacity="0.81960785" transform="translate(28,37)"/>
<path d="M0,0 L1,0 L1,1 L0,1 Z " fill="#EC9063" opacity="0.827451" transform="translate(59,34)"/>
<path d="M0,0 L1,0 L1,1 L0,1 Z " fill="#C66A3F" opacity="0.827451" transform="translate(59,30)"/>
<path d="M0,0 L1,0 L1,1 L0,1 Z " fill="#CB6D41" opacity="0.7607843" transform="translate(5,30)"/>
<path d="M0,0 L1,0 L1,1 L0,1 Z " fill="#E5A276" opacity="0.81960785" transform="translate(28,29)"/>
<path d="M0,0 L1,0 L1,1 L0,1 Z " fill="#F0C19C" opacity="0.81960785" transform="translate(28,25)"/>
<path d="M0,0 L1,0 L1,1 L0,1 Z " fill="#DF8052" opacity="0.827451" transform="translate(59,22)"/>
<path d="M0,0 L1,0 L1,1 L0,1 Z " fill="#E7B287" opacity="0.827451" transform="translate(59,18)"/>
<path d="M0,0 L1,0 L1,1 L0,1 Z " fill="#EAB48D" opacity="0.7607843" transform="translate(5,18)"/>
<path d="M0,0 L1,0 L1,1 L0,1 Z " fill="#F4C9A6" opacity="0.94509804" transform="translate(59,15)"/>
<path d="M0,0 L1,0 L1,1 L0,1 Z " fill="#353540" opacity="0.75686276" transform="translate(63,9)"/>
<path d="M0,0 L1,0 L1,1 L0,1 Z " fill="#353540" opacity="0.7764706" transform="translate(0,9)"/>
<path d="M0,0 L1,0 L1,1 L0,1 Z " fill="#F4C9A6" opacity="0.94509804" transform="translate(11,8)"/>
<path d="M0,0 L1,0 L1,1 L0,1 Z " fill="#333340" opacity="0.3137255" transform="translate(1,5)"/>
<path d="M0,0 L1,0 L1,1 L0,1 Z " fill="#FFE0C2" opacity="0.94509804" transform="translate(11,4)"/>
<path d="M0,0 L1,0 L1,1 L0,1 Z " fill="#343440" opacity="0.8392157" transform="translate(4,2)"/>
<path d="M0,0 L1,0 L1,1 L0,1 Z " fill="#343440" opacity="0.7019608" transform="translate(9,0)"/>
<path d="M0,0 L1,0 L1,1 L0,1 Z " fill="#333340" opacity="0.3137255" transform="translate(56,63)"/>
<path d="M0,0 L1,0 L1,1 L0,1 Z " fill="#BD6E4A" opacity="0.7647059" transform="translate(54,59)"/>
<path d="M0,0 L1,0 L1,1 L0,1 Z " fill="#32323F" opacity="0.31764707" transform="translate(63,56)"/>
<path d="M0,0 L1,0 L1,1 L0,1 Z " fill="#343440" opacity="0.34117648" transform="translate(0,56)"/>
<path d="M0,0 L1,0 L1,1 L0,1 Z " fill="#EA8F61" opacity="0.7647059" transform="translate(36,53)"/>
<path d="M0,0 L1,0 L1,1 L0,1 Z M-1,1 L0,1 L0,2 L-1,2 Z " fill="#C66A3E" transform="translate(10,52)"/>
<path d="M0,0 L1,0 L1,1 L0,1 Z " fill="#DB7F52" opacity="0.7647059" transform="translate(36,41)"/>
<path d="M0,0 L1,0 L1,1 L0,1 Z " fill="#D27345" opacity="0.7647059" transform="translate(36,37)"/>
<path d="M0,0 L1,0 L1,1 L0,1 Z " fill="#E5895C" opacity="0.7607843" transform="translate(5,34)"/>
<path d="M0,0 L1,0 L1,1 L0,1 Z " fill="#E39669" opacity="0.7647059" transform="translate(36,29)"/>
<path d="M0,0 L1,0 L1,1 L0,1 Z " fill="#EEBB95" opacity="0.7647059" transform="translate(36,25)"/>
<path d="M0,0 L1,0 L1,1 L0,1 Z " fill="#E0895B" opacity="0.7607843" transform="translate(5,22)"/>
<path d="M0,0 L1,0 L1,1 L0,1 Z " fill="#E7B086" opacity="0.9529412" transform="translate(46,16)"/>
<path d="M0,0 L1,0 L1,1 L0,1 Z " fill="#E7B086" opacity="0.9529412" transform="translate(48,14)"/>
<path d="M0,0 L1,0 L1,1 L0,1 Z " fill="#E6B186" opacity="0.9607843" transform="translate(44,14)"/>
<path d="M0,0 L1,0 L1,1 L0,1 Z " fill="#E6B186" opacity="0.9607843" transform="translate(46,12)"/>
<path d="M0,0 L1,0 L1,1 L0,1 Z " fill="#F8D2B1" opacity="0.78039217" transform="translate(54,8)"/>
<path d="M0,0 L1,0 L1,1 L0,1 Z " fill="#343441" opacity="0.89411765" transform="translate(60,3)"/>
<path d="M0,0 L1,0 L1,1 L0,1 Z " fill="#343441" opacity="0.76862746" transform="translate(54,63)"/>
<path d="M0,0 L1,0 L1,1 L0,1 Z " fill="#343441" opacity="0.972549" transform="translate(11,63)"/>
<path d="M0,0 L1,0 L1,1 L0,1 Z " fill="#32323F" opacity="0.31764707" transform="translate(7,63)"/>
<path d="M0,0 L1,0 L1,1 L0,1 Z " fill="#343441" opacity="0.03529412" transform="translate(59,62)"/>
<path d="M0,0 L1,0 L1,1 L0,1 Z " fill="#353540" opacity="0.50980395" transform="translate(5,62)"/>
<path d="M0,0 L1,0 L1,1 L0,1 Z " fill="#343440" opacity="0.03529412" transform="translate(62,59)"/>
<path d="M0,0 L1,0 L1,1 L0,1 Z " fill="#BD6E4A" opacity="0.7647059" transform="translate(9,59)"/>
<path d="M0,0 L1,0 L1,1 L0,1 Z " fill="#343440" opacity="0.8666667" transform="translate(2,59)"/>
<path d="M0,0 L1,0 L1,1 L0,1 Z " fill="#373540" opacity="0.99215686" transform="translate(59,56)"/>
<path d="M0,0 L1,0 L1,1 L0,1 Z " fill="#D67746" opacity="0.7921569" transform="translate(11,56)"/>
<path d="M0,0 L1,0 L1,1 L0,1 Z " fill="#393640" opacity="0.9843137" transform="translate(4,56)"/>
<path d="M0,0 L1,0 L1,1 L0,1 Z " fill="#343440" opacity="0.78039217" transform="translate(63,54)"/>
<path d="M0,0 L1,0 L1,1 L0,1 Z " fill="#D97849" opacity="0.8352941" transform="translate(13,54)"/>
<path d="M0,0 L1,0 L1,1 L0,1 Z " fill="#CD7142" opacity="0.7529412" transform="translate(8,54)"/>
<path d="M0,0 L1,0 L1,1 L0,1 Z " fill="#343441" opacity="0.8" transform="translate(0,54)"/>
<path d="M0,0 L1,0 L1,1 L0,1 Z " fill="#EC9264" opacity="0.83137256" transform="translate(34,53)"/>
<path d="M0,0 L1,0 L1,1 L0,1 Z " fill="#EE9265" opacity="0.9098039" transform="translate(30,53)"/>
<path d="M0,0 L1,0 L1,1 L0,1 Z " fill="#E6895B" opacity="0.7607843" transform="translate(26,53)"/>
<path d="M0,0 L1,0 L1,1 L0,1 Z " fill="#E8895B" opacity="0.7607843" transform="translate(41,52)"/>
<path d="M0,0 L1,0 L1,1 L0,1 Z " fill="#ED9064" opacity="0.8" transform="translate(23,52)"/>
<path d="M0,0 L1,0 L1,1 L0,1 Z " fill="#E28354" opacity="0.8235294" transform="translate(44,51)"/>
<path d="M0,0 L1,0 L1,1 L0,1 Z " fill="#ED9163" opacity="0.80784315" transform="translate(20,51)"/>
<path d="M0,0 L1,0 L1,1 L0,1 Z " fill="#D87748" opacity="0.8156863" transform="translate(11,51)"/>
<path d="M0,0 L1,0 L1,1 L0,1 Z " fill="#DF7F4F" opacity="0.96862745" transform="translate(47,50)"/>
<path d="M0,0 L1,0 L1,1 L0,1 Z " fill="#ED9265" opacity="0.8901961" transform="translate(18,50)"/>
<path d="M0,0 L1,0 L1,1 L0,1 Z " fill="#EE9265" opacity="0.9411765" transform="translate(16,49)"/>
<path d="M0,0 L1,0 L1,1 L0,1 Z " fill="#E18254" opacity="0.85490197" transform="translate(51,48)"/>
<path d="M0,0 L1,0 L1,1 L0,1 Z " fill="#E28152" opacity="0.8509804" transform="translate(54,47)"/>
<path d="M0,0 L1,0 L1,1 L0,1 Z " fill="#E98C5E" opacity="0.7529412" transform="translate(10,47)"/>
<path d="M0,0 L1,0 L1,1 L0,1 Z " fill="#E68959" opacity="0.7607843" transform="translate(5,46)"/>
<path d="M0,0 L1,0 L1,1 L0,1 Z " fill="#E38153" opacity="0.84313726" transform="translate(52,44)"/>
<path d="M0,0 L1,0 L1,1 L0,1 Z " fill="#EF9364" opacity="0.8862745" transform="translate(54,43)"/>
<path d="M0,0 L1,0 L1,1 L0,1 Z " fill="#EF9166" opacity="0.89411765" transform="translate(49,43)"/>
<path d="M0,0 L1,0 L1,1 L0,1 Z " fill="#D07347" opacity="0.83137256" transform="translate(34,41)"/>
<path d="M0,0 L1,0 L1,1 L0,1 Z " fill="#CC6E42" opacity="0.9098039" transform="translate(30,41)"/>
<path d="M0,0 L1,0 L1,1 L0,1 Z " fill="#E5895C" opacity="0.7607843" transform="translate(26,41)"/>
<path d="M0,0 L1,0 L1,1 L0,1 Z " fill="#DF8050" opacity="0.93333334" transform="translate(52,40)"/>
<path d="M0,0 L1,0 L1,1 L0,1 Z " fill="#E5895B" opacity="0.7607843" transform="translate(41,40)"/>
<path d="M0,0 L1,0 L1,1 L0,1 Z " fill="#D4784B" opacity="0.8" transform="translate(23,40)"/>
<path d="M0,0 L2,0 L2,1 L0,1 Z " fill="#EE9365" opacity="0.99607843" transform="translate(51,39)"/>
<path d="M0,0 L1,0 L1,1 L0,1 Z " fill="#EC8F62" opacity="0.8235294" transform="translate(44,39)"/>
<path d="M0,0 L1,0 L1,1 L0,1 Z " fill="#D4774A" opacity="0.80784315" transform="translate(20,39)"/>
<path d="M0,0 L1,0 L1,1 L0,1 Z " fill="#EE9365" opacity="0.96862745" transform="translate(47,38)"/>
<path d="M0,0 L1,0 L1,1 L0,1 Z " fill="#ED9164" opacity="0.91764706" transform="translate(49,37)"/>
<path d="M0,0 L1,0 L1,1 L0,1 Z " fill="#D87749" opacity="0.83137256" transform="translate(34,37)"/>
<path d="M0,0 L1,0 L1,1 L0,1 Z " fill="#DB7B4C" opacity="0.9098039" transform="translate(30,37)"/>
<path d="M0,0 L1,0 L1,1 L0,1 Z " fill="#CB6E41" opacity="0.7607843" transform="translate(26,37)"/>
<path d="M0,0 L1,0 L1,1 L0,1 Z " fill="#ED9163" opacity="0.85490197" transform="translate(51,36)"/>
<path d="M0,0 L1,0 L1,1 L0,1 Z " fill="#CC6E40" opacity="0.7607843" transform="translate(41,36)"/>
<path d="M0,0 L1,0 L1,1 L0,1 Z " fill="#D67548" opacity="0.8" transform="translate(23,36)"/>
<path d="M0,0 L1,0 L1,1 L0,1 Z " fill="#C76A3E" opacity="0.98039216" transform="translate(14,36)"/>
<path d="M0,0 L1,0 L1,1 L0,1 Z " fill="#ED9164" opacity="0.8509804" transform="translate(54,35)"/>
<path d="M0,0 L1,0 L1,1 L0,1 Z " fill="#C76B3E" opacity="0.8235294" transform="translate(44,35)"/>
<path d="M0,0 L1,0 L1,1 L0,1 Z " fill="#D67748" opacity="0.80784315" transform="translate(20,35)"/>
<path d="M0,0 L1,0 L1,1 L0,1 Z " fill="#CE7043" opacity="0.8745098" transform="translate(11,35)"/>
<path d="M0,0 L1,0 L1,1 L0,1 Z " fill="#DC8053" opacity="0.75686276" transform="translate(57,34)"/>
<path d="M0,0 L1,0 L1,1 L0,1 Z " fill="#C5693E" opacity="0.96862745" transform="translate(47,34)"/>
<path d="M0,0 L1,0 L1,1 L0,1 Z " fill="#DB7A4B" opacity="0.8901961" transform="translate(18,34)"/>
<path d="M0,0 L1,0 L1,1 L0,1 Z " fill="#C86C3F" opacity="0.9490196" transform="translate(8,34)"/>
<path d="M0,0 L1,0 L1,1 L0,1 Z " fill="#C76A3D" opacity="0.91764706" transform="translate(49,33)"/>
<path d="M0,0 L1,0 L1,1 L0,1 Z " fill="#DC7B4C" opacity="0.9411765" transform="translate(16,33)"/>
<path d="M0,0 L1,0 L1,1 L0,1 Z " fill="#C76A3E" opacity="0.85490197" transform="translate(51,32)"/>
<path d="M0,0 L1,0 L1,1 L0,1 Z " fill="#DE7C4C" opacity="0.98039216" transform="translate(14,32)"/>
<path d="M0,0 L1,0 L1,1 L0,1 Z " fill="#C76A3D" opacity="0.8509804" transform="translate(54,31)"/>
<path d="M0,0 L1,0 L1,1 L0,1 Z " fill="#DA794A" opacity="0.8745098" transform="translate(11,31)"/>
<path d="M0,0 L1,0 L1,1 L0,1 Z " fill="#D17343" opacity="0.75686276" transform="translate(57,30)"/>
<path d="M0,0 L1,0 L1,1 L0,1 Z " fill="#E5A377" opacity="0.83137256" transform="translate(34,29)"/>
<path d="M0,0 L1,0 L1,1 L0,1 Z " fill="#E7AB80" opacity="0.9098039" transform="translate(30,29)"/>
<path d="M0,0 L1,0 L1,1 L0,1 Z " fill="#E0895B" opacity="0.7607843" transform="translate(26,29)"/>
<path d="M0,0 L1,0 L1,1 L0,1 Z " fill="#E0895B" opacity="0.7607843" transform="translate(41,28)"/>
<path d="M0,0 L1,0 L1,1 L0,1 Z " fill="#E49F73" opacity="0.8" transform="translate(23,28)"/>
<path d="M0,0 L1,0 L1,1 L0,1 Z " fill="#DD8051" opacity="0.8235294" transform="translate(44,27)"/>
<path d="M0,0 L1,0 L1,1 L0,1 Z " fill="#E4A074" opacity="0.80784315" transform="translate(20,27)"/>
<path d="M0,0 L1,0 L1,1 L0,1 Z " fill="#DE7E4E" opacity="0.96862745" transform="translate(47,26)"/>
<path d="M0,0 L1,0 L1,1 L0,1 Z " fill="#DF7D4E" opacity="0.91764706" transform="translate(49,25)"/>
<path d="M0,0 L1,0 L1,1 L0,1 Z " fill="#F0C19C" opacity="0.83137256" transform="translate(34,25)"/>
<path d="M0,0 L1,0 L1,1 L0,1 Z " fill="#F2C5A1" opacity="0.9098039" transform="translate(30,25)"/>
<path d="M0,0 L1,0 L1,1 L0,1 Z " fill="#EAB68D" opacity="0.7607843" transform="translate(26,25)"/>
<path d="M0,0 L1,0 L1,1 L0,1 Z " fill="#DD7E51" opacity="0.85490197" transform="translate(51,24)"/>
<path d="M0,0 L1,0 L1,1 L0,1 Z " fill="#EAB68E" opacity="0.7607843" transform="translate(41,24)"/>
<path d="M0,0 L1,0 L1,1 L0,1 Z " fill="#EFC099" opacity="0.8" transform="translate(23,24)"/>
<path d="M0,0 L1,0 L1,1 L0,1 Z " fill="#E6AF85" opacity="0.98039216" transform="translate(14,24)"/>
<path d="M0,0 L1,0 L1,1 L0,1 Z " fill="#DE7F50" opacity="0.8509804" transform="translate(54,23)"/>
<path d="M0,0 L1,0 L1,1 L0,1 Z " fill="#E7B388" opacity="0.8235294" transform="translate(44,23)"/>
<path d="M0,0 L1,0 L1,1 L0,1 Z " fill="#F1BF9B" opacity="0.80784315" transform="translate(20,23)"/>
<path d="M0,0 L1,0 L1,1 L0,1 Z " fill="#E5A77D" opacity="0.8745098" transform="translate(11,23)"/>
<path d="M0,0 L1,0 L1,1 L0,1 Z " fill="#E29468" opacity="0.75686276" transform="translate(57,22)"/>
<path d="M0,0 L1,0 L1,1 L0,1 Z " fill="#E7B186" opacity="0.96862745" transform="translate(47,22)"/>
<path d="M0,0 L1,0 L1,1 L0,1 Z " fill="#F1C4A0" opacity="0.8901961" transform="translate(18,22)"/>
<path d="M0,0 L1,0 L1,1 L0,1 Z " fill="#E7AE83" opacity="0.9490196" transform="translate(8,22)"/>
<path d="M0,0 L1,0 L1,1 L0,1 Z " fill="#E7B186" opacity="0.91764706" transform="translate(49,21)"/>
<path d="M0,0 L1,0 L1,1 L0,1 Z " fill="#E8B188" opacity="0.85490197" transform="translate(51,20)"/>
<path d="M0,0 L1,0 L1,1 L0,1 Z " fill="#F3C6A3" opacity="0.98039216" transform="translate(14,20)"/>
<path d="M0,0 L1,0 L1,1 L0,1 Z " fill="#E7B288" opacity="0.8509804" transform="translate(54,19)"/>
<path d="M0,0 L1,0 L1,1 L0,1 Z " fill="#EDBC96" opacity="0.77254903" transform="translate(39,19)"/>
<path d="M0,0 L1,0 L1,1 L0,1 Z " fill="#F2C4A0" opacity="0.8745098" transform="translate(11,19)"/>
<path d="M0,0 L1,0 L1,1 L0,1 Z " fill="#EDBB94" opacity="0.75686276" transform="translate(57,18)"/>
<path d="M0,0 L1,0 L1,2 L0,2 Z " fill="#EDBD97" opacity="0.76862746" transform="translate(41,16)"/>
<path d="M0,0 L1,0 L1,1 L0,1 Z " fill="#EDBC96" opacity="0.77254903" transform="translate(36,17)"/>
<path d="M0,0 L1,0 L1,1 L0,1 Z " fill="#F4C8A7" opacity="0.9490196" transform="translate(4,15)"/>
<path d="M0,0 L1,0 L1,1 L0,1 Z " fill="#EDBC94" opacity="0.76862746" transform="translate(39,14)"/>
<path d="M0,0 L1,0 L1,1 L0,1 Z " fill="#F9D3B3" opacity="0.77254903" transform="translate(59,13)"/>
<path d="M0,0 L1,0 L1,1 L0,1 Z " fill="#F9D2B2" opacity="0.7764706" transform="translate(4,13)"/>
<path d="M0,0 L1,0 L1,1 L0,1 Z " fill="#343441" opacity="0.972549" transform="translate(63,11)"/>
<path d="M0,0 L1,0 L1,1 L0,1 Z " fill="#343440" opacity="0.9764706" transform="translate(0,11)"/>
<path d="M0,0 L1,0 L1,1 L0,1 Z " fill="#DCC2AC" opacity="0.77254903" transform="translate(59,9)"/>
<path d="M0,0 L1,0 L1,1 L0,1 Z " fill="#E0C5AE" opacity="0.7764706" transform="translate(4,9)"/>
<path d="M0,0 L1,0 L1,1 L0,1 Z " fill="#F9D2B1" opacity="0.78039217" transform="translate(9,8)"/>
<path d="M0,0 L1,0 L1,1 L0,1 Z " fill="#323241" opacity="0.25882354" transform="translate(63,7)"/>
<path d="M0,0 L1,0 L1,1 L0,1 Z " fill="#323240" opacity="0.2784314" transform="translate(0,7)"/>
<path d="M0,0 L1,0 L1,1 L0,1 Z " fill="#343440" opacity="0.8666667" transform="translate(62,6)"/>
<path d="M0,0 L1,0 L1,1 L0,1 Z " fill="#393943" opacity="0.9843137" transform="translate(56,4)"/>
<path d="M0,0 L1,0 L1,1 L0,1 Z " fill="#E2C7B0" opacity="0.78039217" transform="translate(9,4)"/>
<path d="M0,0 L1,0 L1,1 L0,1 Z " fill="#353540" opacity="0.7176471" transform="translate(2,4)"/>
<path d="M0,0 L1,0 L1,1 L0,1 Z " fill="#353540" opacity="0.03137255" transform="translate(59,1)"/>
<path d="M0,0 L1,0 L1,1 L0,1 Z " fill="#34343F" opacity="0.45882353" transform="translate(5,1)"/>
<path d="M0,0 L1,0 L1,1 L0,1 Z " fill="#323241" opacity="0.003921569" transform="translate(57,0)"/>
<path d="M0,0 L1,0 L1,1 L0,1 Z " fill="#343440" opacity="0.9607843" transform="translate(11,0)"/>
<path d="M0,0 L1,0 L1,1 L0,1 Z " fill="#33333F" opacity="0.27058825" transform="translate(7,0)"/>
<path d="M0,0 L1,0 L1,1 L0,1 Z " fill="#343440" opacity="0.02745098" transform="translate(57,63)"/>
<path d="M0,0 L1,0 L1,1 L0,1 Z " fill="#343441" opacity="0.5529412" transform="translate(55,63)"/>
<path d="M0,0 L1,0 L1,1 L0,1 Z " fill="#343440" opacity="0.8745098" transform="translate(53,63)"/>
<path d="M0,0 L1,0 L1,1 L0,1 Z " fill="#343440" opacity="0.96862745" transform="translate(52,63)"/>
<path d="M0,0 L1,0 L1,1 L0,1 Z " fill="#343440" opacity="0.8745098" transform="translate(10,63)"/>
<path d="M0,0 L1,0 L1,1 L0,1 Z " fill="#343440" opacity="0.5568628" transform="translate(8,63)"/>
<path d="M0,0 L1,0 L1,1 L0,1 Z " fill="#343440" opacity="0.03137255" transform="translate(6,63)"/>
<path d="M0,0 L1,0 L1,1 L0,1 Z " fill="#343440" opacity="0.49803922" transform="translate(58,62)"/>
<path d="M0,0 L1,0 L1,1 L0,1 Z " fill="#343440" opacity="0.91764706" transform="translate(57,62)"/>
<path d="M0,0 L1,0 L1,1 L0,1 Z " fill="#343440" opacity="0.92156863" transform="translate(6,62)"/>
<path d="M0,0 L1,0 L1,1 L0,1 Z " fill="#343440" opacity="0.039215688" transform="translate(4,62)"/>
<path d="M0,0 L1,0 L1,1 L0,1 Z " fill="#33333E" opacity="0.1764706" transform="translate(60,61)"/>
<path d="M0,0 L1,0 L1,1 L0,1 Z " fill="#343441" opacity="0.84705883" transform="translate(59,61)"/>
<path d="M0,0 L1,0 L1,1 L0,1 Z " fill="#343440" opacity="0.85882354" transform="translate(4,61)"/>
<path d="M0,0 L1,0 L1,1 L0,1 Z " fill="#343440" opacity="0.17254902" transform="translate(61,60)"/>
<path d="M0,0 L1,0 L1,1 L0,1 Z " fill="#343440" opacity="0.92156863" transform="translate(60,60)"/>
<path d="M0,0 L1,0 L1,1 L0,1 Z " fill="#343440" opacity="0.93333334" transform="translate(3,60)"/>
<path d="M0,0 L1,0 L1,1 L0,1 Z " fill="#343441" opacity="0.84705883" transform="translate(61,59)"/>
<path d="M0,0 L1,0 L1,1 L0,1 Z " fill="#353440" transform="translate(56,59)"/>
<path d="M0,0 L1,0 L1,1 L0,1 Z " fill="#724F45" opacity="0.79607844" transform="translate(55,59)"/>
<path d="M0,0 L1,0 L1,1 L0,1 Z " fill="#D1774C" opacity="0.8235294" transform="translate(53,59)"/>
<path d="M0,0 L1,0 L1,1 L0,1 Z " fill="#DD7D4E" opacity="0.92941177" transform="translate(52,59)"/>
<path d="M0,0 L1,0 L1,1 L0,1 Z " fill="#D2784E" opacity="0.8235294" transform="translate(10,59)"/>
<path d="M0,0 L1,0 L1,1 L0,1 Z " fill="#744F45" opacity="0.7921569" transform="translate(8,59)"/>
<path d="M0,0 L1,0 L1,1 L0,1 Z " fill="#353440" transform="translate(7,59)"/>
<path d="M0,0 L1,0 L1,1 L0,1 Z " fill="#353540" opacity="0.043137256" transform="translate(1,59)"/>
<path d="M0,0 L1,0 L1,1 L0,1 Z " fill="#343440" opacity="0.5019608" transform="translate(62,58)"/>
<path d="M0,0 L1,0 L1,1 L0,1 Z " fill="#604644" opacity="0.8352941" transform="translate(57,58)"/>
<path d="M0,0 L1,0 L1,1 L0,1 Z " fill="#D4784E" opacity="0.83137256" transform="translate(56,58)"/>
<path d="M0,0 L1,0 L1,1 L0,1 Z " fill="#D5794C" opacity="0.8352941" transform="translate(7,58)"/>
<path d="M0,0 L1,0 L1,1 L0,1 Z " fill="#634843" opacity="0.827451" transform="translate(6,58)"/>
<path d="M0,0 L1,0 L1,1 L0,1 Z " fill="#353540" opacity="0.5294118" transform="translate(1,58)"/>
<path d="M0,0 L1,0 L1,1 L0,1 Z " fill="#32323F" opacity="0.02745098" transform="translate(63,57)"/>
<path d="M0,0 L1,0 L1,1 L0,1 Z " fill="#343440" opacity="0.91764706" transform="translate(62,57)"/>
<path d="M0,0 L1,0 L1,1 L0,1 Z " fill="#614743" opacity="0.83137256" transform="translate(58,57)"/>
<path d="M0,0 L1,0 L1,1 L0,1 Z " fill="#DE7D4F" opacity="0.9647059" transform="translate(57,57)"/>
<path d="M0,0 L1,0 L1,1 L0,1 Z " fill="#DE7E4E" opacity="0.96862745" transform="translate(6,57)"/>
<path d="M0,0 L1,0 L1,1 L0,1 Z " fill="#664A44" opacity="0.81960785" transform="translate(5,57)"/>
<path d="M0,0 L1,0 L1,1 L0,1 Z " fill="#343440" opacity="0.93333334" transform="translate(1,57)"/>
<path d="M0,0 L1,0 L1,1 L0,1 Z " fill="#343440" opacity="0.039215688" transform="translate(0,57)"/>
<path d="M0,0 L1,0 L1,1 L0,1 Z " fill="#DA7C4E" opacity="0.88235295" transform="translate(58,56)"/>
<path d="M0,0 L1,0 L1,1 L0,1 Z " fill="#D17244" opacity="0.7607843" transform="translate(10,56)"/>
<path d="M0,0 L1,0 L1,1 L0,1 Z " fill="#DE7D4D" opacity="0.9607843" transform="translate(9,56)"/>
<path d="M0,0 L1,0 L1,1 L0,1 Z " fill="#DA7C4D" opacity="0.89411765" transform="translate(5,56)"/>
<path d="M0,0 L1,0 L1,1 L0,1 Z " fill="#333340" opacity="0.56078434" transform="translate(63,55)"/>
<path d="M0,0 L1,0 L1,1 L0,1 Z " fill="#6C4C44" opacity="0.8039216" transform="translate(59,55)"/>
<path d="M0,0 L1,0 L1,1 L0,1 Z " fill="#CD7142" opacity="0.7529412" transform="translate(12,55)"/>
<path d="M0,0 L1,0 L1,1 L0,1 Z " fill="#C76B3D" opacity="0.83137256" transform="translate(9,55)"/>
<path d="M0,0 L1,0 L1,1 L0,1 Z " fill="#DD7B4D" opacity="0.9647059" transform="translate(8,55)"/>
<path d="M0,0 L1,0 L1,1 L0,1 Z " fill="#724F45" opacity="0.79607844" transform="translate(4,55)"/>
<path d="M0,0 L1,0 L1,1 L0,1 Z " fill="#343440" opacity="0.5882353" transform="translate(0,55)"/>
<path d="M0,0 L1,0 L1,1 L0,1 Z " fill="#BC6E4B" opacity="0.7607843" transform="translate(59,54)"/>
<path d="M0,0 L1,0 L1,1 L0,1 Z " fill="#BE704B" opacity="0.76862746" transform="translate(4,54)"/>
<path d="M0,0 L1,0 L1,1 L0,1 Z " fill="#343440" opacity="0.8862745" transform="translate(63,53)"/>
<path d="M0,0 L1,0 L1,1 L0,1 Z " fill="#DA7C4E" opacity="0.88235295" transform="translate(59,53)"/>
<path d="M0,0 L1,0 L1,1 L0,1 Z " fill="#E18253" opacity="0.85490197" transform="translate(38,53)"/>
<path d="M0,0 L1,0 L1,1 L0,1 Z " fill="#E9895B" opacity="0.75686276" transform="translate(37,53)"/>
<path d="M0,0 L1,0 L1,1 L0,1 Z " fill="#EC8F63" opacity="0.7882353" transform="translate(35,53)"/>
<path d="M0,0 L1,0 L1,1 L0,1 Z " fill="#ED9364" opacity="0.8862745" transform="translate(33,53)"/>
<path d="M0,0 L1,0 L1,1 L0,1 Z " fill="#EE9266" opacity="0.972549" transform="translate(31,53)"/>
<path d="M0,0 L1,0 L1,1 L0,1 Z " fill="#EE9264" opacity="0.85882354" transform="translate(29,53)"/>
<path d="M0,0 L1,0 L1,1 L0,1 Z " fill="#E98F61" opacity="0.7647059" transform="translate(27,53)"/>
<path d="M0,0 L1,0 L1,1 L0,1 Z " fill="#E28252" opacity="0.8392157" transform="translate(25,53)"/>
<path d="M0,0 L1,0 L1,1 L0,1 Z " fill="#DF7F4F" opacity="0.9764706" transform="translate(24,53)"/>
<path d="M0,0 L1,0 L1,1 L0,1 Z " fill="#D87849" opacity="0.8352941" transform="translate(13,53)"/>
<path d="M0,0 L1,0 L1,1 L0,1 Z " fill="#CD7042" opacity="0.7529412" transform="translate(8,53)"/>
<path d="M0,0 L1,0 L1,1 L0,1 Z " fill="#DA7C4D" opacity="0.89411765" transform="translate(4,53)"/>
<path d="M0,0 L1,0 L1,1 L0,1 Z " fill="#343440" opacity="0.8980392" transform="translate(0,53)"/>
<path d="M0,0 L1,0 L1,1 L0,1 Z " fill="#343441" opacity="0.972549" transform="translate(63,52)"/>
<path d="M0,0 L1,0 L1,1 L0,1 Z " fill="#DE7E4E" opacity="0.9607843" transform="translate(59,52)"/>
<path d="M0,0 L1,0 L1,1 L0,1 Z " fill="#E18151" opacity="0.9098039" transform="translate(42,52)"/>
<path d="M0,0 L1,0 L1,1 L0,1 Z " fill="#EB9061" opacity="0.78039217" transform="translate(40,52)"/>
<path d="M0,0 L1,0 L1,1 L0,1 Z " fill="#EE9265" opacity="0.92941177" transform="translate(39,52)"/>
<path d="M0,0 L1,0 L1,1 L0,1 Z " fill="#EE9265" opacity="0.9843137" transform="translate(24,52)"/>
<path d="M0,0 L1,0 L1,1 L0,1 Z " fill="#E6895B" opacity="0.7607843" transform="translate(22,52)"/>
<path d="M0,0 L1,0 L1,1 L0,1 Z " fill="#E07F51" opacity="0.92941177" transform="translate(21,52)"/>
<path d="M0,0 L1,0 L1,1 L0,1 Z " fill="#CD6F42" opacity="0.75686276" transform="translate(12,52)"/>
<path d="M0,0 L1,0 L1,1 L0,1 Z " fill="#C76A3D" opacity="0.8352941" transform="translate(9,52)"/>
<path d="M0,0 L1,0 L1,1 L0,1 Z " fill="#DD7B4D" opacity="0.95686275" transform="translate(8,52)"/>
<path d="M0,0 L1,0 L1,1 L0,1 Z " fill="#DE7D4F" opacity="0.9647059" transform="translate(4,52)"/>
<path d="M0,0 L1,0 L1,1 L0,1 Z " fill="#343440" opacity="0.9764706" transform="translate(0,52)"/>
<path d="M0,0 L1,0 L1,1 L0,1 Z " fill="#DE7E4E" transform="translate(45,51)"/>
<path d="M0,0 L1,0 L1,1 L0,1 Z " fill="#ED8F62" opacity="0.7764706" transform="translate(43,51)"/>
<path d="M0,0 L1,0 L1,1 L0,1 Z " fill="#EE9365" opacity="0.9882353" transform="translate(42,51)"/>
<path d="M0,0 L1,0 L1,1 L0,1 Z " fill="#EE9266" opacity="0.99215686" transform="translate(21,51)"/>
<path d="M0,0 L1,0 L1,1 L0,1 Z " fill="#E68758" opacity="0.78039217" transform="translate(19,51)"/>
<path d="M0,0 L1,0 L1,1 L0,1 Z " fill="#DE7E4D" opacity="0.99215686" transform="translate(18,51)"/>
<path d="M0,0 L1,0 L1,1 L0,1 Z " fill="#DE7D4E" transform="translate(12,51)"/>
<path d="M0,0 L1,0 L1,1 L0,1 Z " fill="#D27243" opacity="0.75686276" transform="translate(10,51)"/>
<path d="M0,0 L1,0 L1,1 L0,1 Z " fill="#DE7D4D" opacity="0.9607843" transform="translate(9,51)"/>
<path d="M0,0 L1,0 L1,1 L0,1 Z " fill="#E7885A" opacity="0.7647059" transform="translate(46,50)"/>
<path d="M0,0 L1,0 L1,1 L0,1 Z " fill="#EE9264" opacity="0.8509804" transform="translate(45,50)"/>
<path d="M0,0 L1,0 L1,1 L0,1 Z " fill="#E9895B" opacity="0.75686276" transform="translate(17,50)"/>
<path d="M0,0 L1,0 L1,1 L0,1 Z " fill="#E07F4F" opacity="0.9607843" transform="translate(16,50)"/>
<path d="M0,0 L1,0 L1,1 L0,1 Z " fill="#E17E50" opacity="0.91764706" transform="translate(49,49)"/>
<path d="M0,0 L1,0 L1,1 L0,1 Z " fill="#E98C5E" opacity="0.7529412" transform="translate(48,49)"/>
<path d="M0,0 L1,0 L1,1 L0,1 Z " fill="#EE9265" opacity="0.9372549" transform="translate(47,49)"/>
<path d="M0,0 L1,0 L1,1 L0,1 Z " fill="#EA8D5E" opacity="0.7529412" transform="translate(15,49)"/>
<path d="M0,0 L1,0 L1,1 L0,1 Z " fill="#E18050" opacity="0.9137255" transform="translate(14,49)"/>
<path d="M0,0 L1,0 L1,1 L0,1 Z " fill="#DE7E4E" transform="translate(52,48)"/>
<path d="M0,0 L1,0 L1,1 L0,1 Z " fill="#E98F61" opacity="0.7647059" transform="translate(50,48)"/>
<path d="M0,0 L1,0 L1,1 L0,1 Z " fill="#EE9365" opacity="0.9764706" transform="translate(49,48)"/>
<path d="M0,0 L1,0 L1,1 L0,1 Z " fill="#EE9366" opacity="0.98039216" transform="translate(14,48)"/>
<path d="M0,0 L1,0 L1,1 L0,1 Z " fill="#EA8F61" opacity="0.7647059" transform="translate(13,48)"/>
<path d="M0,0 L1,0 L1,1 L0,1 Z " fill="#E28253" opacity="0.8509804" transform="translate(12,48)"/>
<path d="M0,0 L1,0 L1,1 L0,1 Z " fill="#E98C5D" opacity="0.7529412" transform="translate(53,47)"/>
<path d="M0,0 L1,0 L1,1 L0,1 Z " fill="#ED9264" opacity="0.87058824" transform="translate(52,47)"/>
<path d="M0,0 L1,0 L1,1 L0,1 Z " fill="#EE9165" opacity="0.8745098" transform="translate(11,47)"/>
<path d="M0,0 L1,0 L1,1 L0,1 Z " fill="#E28354" opacity="0.84705883" transform="translate(9,47)"/>
<path d="M0,0 L1,0 L1,1 L0,1 Z " fill="#DE7E4E" transform="translate(8,47)"/>
<path d="M0,0 L1,0 L1,1 L0,1 Z " fill="#E28354" opacity="0.827451" transform="translate(59,46)"/>
<path d="M0,0 L1,0 L1,1 L0,1 Z " fill="#E68959" opacity="0.7607843" transform="translate(58,46)"/>
<path d="M0,0 L1,0 L1,1 L0,1 Z " fill="#ED9263" opacity="0.8235294" transform="translate(56,46)"/>
<path d="M0,0 L1,0 L1,1 L0,1 Z " fill="#EE9365" opacity="0.9490196" transform="translate(55,46)"/>
<path d="M0,0 L1,0 L1,1 L0,1 Z " fill="#EE9365" opacity="0.9490196" transform="translate(8,46)"/>
<path d="M0,0 L1,0 L1,1 L0,1 Z " fill="#EC8D60" opacity="0.75686276" transform="translate(6,46)"/>
<path d="M0,0 L1,0 L1,1 L0,1 Z " fill="#E28353" opacity="0.827451" transform="translate(4,46)"/>
<path d="M0,0 L1,0 L1,1 L0,1 Z " fill="#ED9165" opacity="0.8627451" transform="translate(53,44)"/>
<path d="M0,0 L1,0 L1,1 L0,1 Z " fill="#E28253" opacity="0.8509804" transform="translate(51,44)"/>
<path d="M0,0 L1,0 L1,1 L0,1 Z " fill="#EE9163" opacity="0.84705883" transform="translate(50,44)"/>
<path d="M0,0 L1,0 L1,1 L0,1 Z " fill="#DF7F4F" opacity="0.9372549" transform="translate(53,43)"/>
<path d="M0,0 L1,0 L1,1 L0,1 Z " fill="#DF8050" opacity="0.93333334" transform="translate(50,43)"/>
<path d="M0,0 L1,0 L1,1 L0,1 Z " fill="#E98D5E" opacity="0.75686276" transform="translate(54,42)"/>
<path d="M0,0 L1,0 L1,1 L0,1 Z " fill="#EA8C5F" opacity="0.75686276" transform="translate(49,42)"/>
<path d="M0,0 L1,0 L1,1 L0,1 Z " fill="#EE9264" opacity="0.85490197" transform="translate(54,41)"/>
<path d="M0,0 L1,0 L1,1 L0,1 Z " fill="#DF7F4F" opacity="0.9764706" transform="translate(53,41)"/>
<path d="M0,0 L1,0 L1,1 L0,1 Z " fill="#DF7D4F" opacity="0.9647059" transform="translate(50,41)"/>
<path d="M0,0 L1,0 L1,1 L0,1 Z " fill="#EE9264" opacity="0.85882354" transform="translate(49,41)"/>
<path d="M0,0 L1,0 L1,1 L0,1 Z " fill="#EE9163" opacity="0.85490197" transform="translate(38,41)"/>
<path d="M0,0 L1,0 L1,1 L0,1 Z " fill="#E5885B" opacity="0.75686276" transform="translate(37,41)"/>
<path d="M0,0 L1,0 L1,1 L0,1 Z " fill="#D57A4C" opacity="0.7882353" transform="translate(35,41)"/>
<path d="M0,0 L1,0 L1,1 L0,1 Z " fill="#CD7042" opacity="0.8862745" transform="translate(33,41)"/>
<path d="M0,0 L1,0 L1,1 L0,1 Z " fill="#C86B3E" opacity="0.972549" transform="translate(31,41)"/>
<path d="M0,0 L1,0 L1,1 L0,1 Z " fill="#CD7144" opacity="0.85882354" transform="translate(29,41)"/>
<path d="M0,0 L1,0 L1,1 L0,1 Z " fill="#D97E52" opacity="0.7647059" transform="translate(27,41)"/>
<path d="M0,0 L1,0 L1,1 L0,1 Z " fill="#EB9063" opacity="0.8392157" transform="translate(25,41)"/>
<path d="M0,0 L1,0 L1,1 L0,1 Z " fill="#EE9365" opacity="0.9764706" transform="translate(24,41)"/>
<path d="M0,0 L1,0 L1,1 L0,1 Z " fill="#EC9063" opacity="0.8039216" transform="translate(53,40)"/>
<path d="M0,0 L1,0 L1,1 L0,1 Z " fill="#E28151" opacity="0.88235295" transform="translate(51,40)"/>
<path d="M0,0 L1,0 L1,1 L0,1 Z " fill="#ED9062" opacity="0.8039216" transform="translate(50,40)"/>
<path d="M0,0 L1,0 L1,1 L0,1 Z " fill="#EE9265" opacity="0.9098039" transform="translate(42,40)"/>
<path d="M0,0 L1,0 L1,1 L0,1 Z " fill="#D87A4D" opacity="0.78039217" transform="translate(40,40)"/>
<path d="M0,0 L1,0 L1,1 L0,1 Z " fill="#C96D40" opacity="0.92941177" transform="translate(39,40)"/>
<path d="M0,0 L1,0 L1,1 L0,1 Z " fill="#C66B3E" opacity="0.9843137" transform="translate(24,40)"/>
<path d="M0,0 L1,0 L1,1 L0,1 Z " fill="#E68A5D" opacity="0.7607843" transform="translate(22,40)"/>
<path d="M0,0 L1,0 L1,1 L0,1 Z " fill="#EE9265" opacity="0.92941177" transform="translate(21,40)"/>
<path d="M0,0 L1,0 L1,1 L0,1 Z " fill="#D77C4E" opacity="0.7764706" transform="translate(43,39)"/>
<path d="M0,0 L1,0 L1,1 L0,1 Z " fill="#C7693D" opacity="0.9882353" transform="translate(42,39)"/>
<path d="M0,0 L1,0 L1,1 L0,1 Z " fill="#C66A3D" opacity="0.99215686" transform="translate(21,39)"/>
<path d="M0,0 L1,0 L1,1 L0,1 Z " fill="#E88D5F" opacity="0.78039217" transform="translate(19,39)"/>
<path d="M0,0 L1,0 L1,1 L0,1 Z " fill="#EE9266" opacity="0.99215686" transform="translate(18,39)"/>
<path d="M0,0 L1,0 L1,1 L0,1 Z " fill="#E78B5E" opacity="0.7647059" transform="translate(46,38)"/>
<path d="M0,0 L1,0 L1,1 L0,1 Z " fill="#CF7245" opacity="0.8509804" transform="translate(45,38)"/>
<path d="M0,0 L1,0 L1,1 L0,1 Z " fill="#CD6F42" opacity="0.8901961" transform="translate(18,38)"/>
<path d="M0,0 L1,0 L1,1 L0,1 Z " fill="#E5885B" opacity="0.75686276" transform="translate(17,38)"/>
<path d="M0,0 L1,0 L1,1 L0,1 Z " fill="#EE9366" opacity="0.9607843" transform="translate(16,38)"/>
<path d="M0,0 L1,0 L1,1 L0,1 Z " fill="#E08456" opacity="0.7529412" transform="translate(48,37)"/>
<path d="M0,0 L1,0 L1,1 L0,1 Z " fill="#C96C3F" opacity="0.9372549" transform="translate(47,37)"/>
<path d="M0,0 L1,0 L1,1 L0,1 Z " fill="#C6693E" opacity="0.85490197" transform="translate(38,37)"/>
<path d="M0,0 L1,0 L1,1 L0,1 Z " fill="#CC6E40" opacity="0.75686276" transform="translate(37,37)"/>
<path d="M0,0 L1,0 L1,1 L0,1 Z " fill="#D57648" opacity="0.7882353" transform="translate(35,37)"/>
<path d="M0,0 L1,0 L1,1 L0,1 Z " fill="#DB7A4A" opacity="0.8862745" transform="translate(33,37)"/>
<path d="M0,0 L1,0 L1,1 L0,1 Z " fill="#DC7C4D" opacity="0.972549" transform="translate(31,37)"/>
<path d="M0,0 L1,0 L1,1 L0,1 Z " fill="#D97949" opacity="0.85882354" transform="translate(29,37)"/>
<path d="M0,0 L1,0 L1,1 L0,1 Z " fill="#D27245" opacity="0.7647059" transform="translate(27,37)"/>
<path d="M0,0 L1,0 L1,1 L0,1 Z " fill="#C66A3E" opacity="0.8392157" transform="translate(25,37)"/>
<path d="M0,0 L1,0 L1,1 L0,1 Z " fill="#C6693D" opacity="0.9764706" transform="translate(24,37)"/>
<path d="M0,0 L1,0 L1,1 L0,1 Z " fill="#C86C40" opacity="0.9411765" transform="translate(16,37)"/>
<path d="M0,0 L1,0 L1,1 L0,1 Z " fill="#E08456" opacity="0.7529412" transform="translate(15,37)"/>
<path d="M0,0 L1,0 L1,1 L0,1 Z " fill="#ED9365" opacity="0.9137255" transform="translate(14,37)"/>
<path d="M0,0 L1,0 L1,1 L0,1 Z " fill="#D97E52" opacity="0.7647059" transform="translate(50,36)"/>
<path d="M0,0 L1,0 L1,1 L0,1 Z " fill="#C76A3E" opacity="0.9764706" transform="translate(49,36)"/>
<path d="M0,0 L1,0 L1,1 L0,1 Z " fill="#C6693C" opacity="0.9098039" transform="translate(42,36)"/>
<path d="M0,0 L1,0 L1,1 L0,1 Z " fill="#D47646" opacity="0.78039217" transform="translate(40,36)"/>
<path d="M0,0 L1,0 L1,1 L0,1 Z " fill="#DD7C4D" opacity="0.92941177" transform="translate(39,36)"/>
<path d="M0,0 L1,0 L1,1 L0,1 Z " fill="#DD7D4D" opacity="0.9843137" transform="translate(24,36)"/>
<path d="M0,0 L1,0 L1,1 L0,1 Z " fill="#CB6D40" opacity="0.7607843" transform="translate(22,36)"/>
<path d="M0,0 L1,0 L1,1 L0,1 Z " fill="#C6693D" opacity="0.92941177" transform="translate(21,36)"/>
<path d="M0,0 L1,0 L1,1 L0,1 Z " fill="#DB7E51" opacity="0.7647059" transform="translate(13,36)"/>
<path d="M0,0 L1,0 L1,1 L0,1 Z " fill="#ED9164" opacity="0.8509804" transform="translate(12,36)"/>
<path d="M0,0 L1,0 L1,1 L0,1 Z " fill="#E08456" opacity="0.7529412" transform="translate(53,35)"/>
<path d="M0,0 L1,0 L1,1 L0,1 Z " fill="#CE7144" opacity="0.87058824" transform="translate(52,35)"/>
<path d="M0,0 L1,0 L1,1 L0,1 Z " fill="#D47447" opacity="0.7764706" transform="translate(43,35)"/>
<path d="M0,0 L1,0 L1,1 L0,1 Z " fill="#DD7C4E" opacity="0.9882353" transform="translate(42,35)"/>
<path d="M0,0 L1,0 L1,1 L0,1 Z " fill="#DD7E4D" opacity="0.99215686" transform="translate(21,35)"/>
<path d="M0,0 L1,0 L1,1 L0,1 Z " fill="#C96C3F" opacity="0.78039217" transform="translate(19,35)"/>
<path d="M0,0 L1,0 L1,1 L0,1 Z " fill="#C66A3D" opacity="0.99215686" transform="translate(18,35)"/>
<path d="M0,0 L1,0 L1,1 L0,1 Z " fill="#E08456" opacity="0.7529412" transform="translate(10,35)"/>
<path d="M0,0 L1,0 L1,1 L0,1 Z " fill="#ED9163" opacity="0.84705883" transform="translate(9,35)"/>
<path d="M0,0 L1,0 L1,1 L0,1 Z " fill="#E5895C" opacity="0.7607843" transform="translate(58,34)"/>
<path d="M0,0 L1,0 L1,1 L0,1 Z " fill="#D17647" opacity="0.8235294" transform="translate(56,34)"/>
<path d="M0,0 L1,0 L1,1 L0,1 Z " fill="#C86C3F" opacity="0.9490196" transform="translate(55,34)"/>
<path d="M0,0 L1,0 L1,1 L0,1 Z " fill="#CA6C40" opacity="0.7647059" transform="translate(46,34)"/>
<path d="M0,0 L1,0 L1,1 L0,1 Z " fill="#D9784A" opacity="0.8509804" transform="translate(45,34)"/>
<path d="M0,0 L1,0 L1,1 L0,1 Z " fill="#CC6E40" opacity="0.75686276" transform="translate(17,34)"/>
<path d="M0,0 L1,0 L1,1 L0,1 Z " fill="#C6693D" opacity="0.9607843" transform="translate(16,34)"/>
<path d="M0,0 L1,0 L1,1 L0,1 Z " fill="#D17647" opacity="0.8235294" transform="translate(7,34)"/>
<path d="M0,0 L1,0 L1,1 L0,1 Z " fill="#DC8053" opacity="0.75686276" transform="translate(6,34)"/>
<path d="M0,0 L1,0 L1,1 L0,1 Z " fill="#EC9063" opacity="0.827451" transform="translate(4,34)"/>
<path d="M0,0 L1,0 L1,1 L0,1 Z " fill="#CE7044" opacity="0.7529412" transform="translate(48,33)"/>
<path d="M0,0 L1,0 L1,1 L0,1 Z " fill="#DC7C4C" opacity="0.9372549" transform="translate(47,33)"/>
<path d="M0,0 L1,0 L1,1 L0,1 Z " fill="#D07042" opacity="0.7529412" transform="translate(15,33)"/>
<path d="M0,0 L1,0 L1,1 L0,1 Z " fill="#C66A3D" opacity="0.9137255" transform="translate(14,33)"/>
<path d="M0,0 L1,0 L1,1 L0,1 Z " fill="#D27245" opacity="0.7647059" transform="translate(50,32)"/>
<path d="M0,0 L1,0 L1,1 L0,1 Z " fill="#DD7D4E" opacity="0.9764706" transform="translate(49,32)"/>
<path d="M0,0 L1,0 L1,1 L0,1 Z " fill="#D27345" opacity="0.7647059" transform="translate(13,32)"/>
<path d="M0,0 L1,0 L1,1 L0,1 Z " fill="#C76A3D" opacity="0.8509804" transform="translate(12,32)"/>
<path d="M0,0 L1,0 L1,1 L0,1 Z " fill="#CE7044" opacity="0.7529412" transform="translate(53,31)"/>
<path d="M0,0 L1,0 L1,1 L0,1 Z " fill="#D97A4A" opacity="0.87058824" transform="translate(52,31)"/>
<path d="M0,0 L1,0 L1,1 L0,1 Z " fill="#CE7044" opacity="0.7529412" transform="translate(10,31)"/>
<path d="M0,0 L1,0 L1,1 L0,1 Z " fill="#C76A3D" opacity="0.84705883" transform="translate(9,31)"/>
<path d="M0,0 L1,0 L1,1 L0,1 Z " fill="#CB6D41" opacity="0.7607843" transform="translate(58,30)"/>
<path d="M0,0 L1,0 L1,1 L0,1 Z " fill="#D77747" opacity="0.8235294" transform="translate(56,30)"/>
<path d="M0,0 L1,0 L1,1 L0,1 Z " fill="#DD7C4C" opacity="0.9490196" transform="translate(55,30)"/>
<path d="M0,0 L1,0 L1,1 L0,1 Z " fill="#DD7C4C" opacity="0.9490196" transform="translate(8,30)"/>
<path d="M0,0 L1,0 L1,1 L0,1 Z " fill="#D77747" opacity="0.8235294" transform="translate(7,30)"/>
<path d="M0,0 L1,0 L1,1 L0,1 Z " fill="#D17343" opacity="0.75686276" transform="translate(6,30)"/>
<path d="M0,0 L1,0 L1,1 L0,1 Z " fill="#C66A3F" opacity="0.827451" transform="translate(4,30)"/>
<path d="M0,0 L1,0 L1,1 L0,1 Z " fill="#DF8051" opacity="0.85490197" transform="translate(38,29)"/>
<path d="M0,0 L1,0 L1,1 L0,1 Z " fill="#E1895B" opacity="0.75686276" transform="translate(37,29)"/>
<path d="M0,0 L1,0 L1,1 L0,1 Z " fill="#E39C71" opacity="0.7882353" transform="translate(35,29)"/>
<path d="M0,0 L1,0 L1,1 L0,1 Z " fill="#E7A97D" opacity="0.8862745" transform="translate(33,29)"/>
<path d="M0,0 L1,0 L1,1 L0,1 Z " fill="#E7AF84" opacity="0.972549" transform="translate(31,29)"/>
<path d="M0,0 L1,0 L1,1 L0,1 Z " fill="#E7A77A" opacity="0.85882354" transform="translate(29,29)"/>
<path d="M0,0 L1,0 L1,1 L0,1 Z " fill="#E19569" opacity="0.7647059" transform="translate(27,29)"/>
<path d="M0,0 L1,0 L1,1 L0,1 Z " fill="#DE8051" opacity="0.8392157" transform="translate(25,29)"/>
<path d="M0,0 L1,0 L1,1 L0,1 Z " fill="#DE7E4F" opacity="0.9764706" transform="translate(24,29)"/>
<path d="M0,0 L1,0 L1,1 L0,1 Z " fill="#DE7D4F" opacity="0.9098039" transform="translate(42,28)"/>
<path d="M0,0 L1,0 L1,1 L0,1 Z " fill="#E39A6F" opacity="0.78039217" transform="translate(40,28)"/>
<path d="M0,0 L1,0 L1,1 L0,1 Z " fill="#E7AB80" opacity="0.92941177" transform="translate(39,28)"/>
<path d="M0,0 L1,0 L1,1 L0,1 Z " fill="#E7AF84" opacity="0.9843137" transform="translate(24,28)"/>
<path d="M0,0 L1,0 L1,1 L0,1 Z " fill="#E18759" opacity="0.7607843" transform="translate(22,28)"/>
<path d="M0,0 L1,0 L1,1 L0,1 Z " fill="#DE7E4E" opacity="0.92941177" transform="translate(21,28)"/>
<path d="M0,0 L1,0 L1,1 L0,1 Z " fill="#E4996D" opacity="0.7764706" transform="translate(43,27)"/>
<path d="M0,0 L1,0 L1,1 L0,1 Z " fill="#E7AE85" opacity="0.9882353" transform="translate(42,27)"/>
<path d="M0,0 L1,0 L1,1 L0,1 Z " fill="#E7B084" opacity="0.99215686" transform="translate(21,27)"/>
<path d="M0,0 L1,0 L1,1 L0,1 Z " fill="#E18556" opacity="0.78039217" transform="translate(19,27)"/>
<path d="M0,0 L1,0 L1,1 L0,1 Z " fill="#DE7E4E" opacity="0.99215686" transform="translate(18,27)"/>
<path d="M0,0 L1,0 L1,1 L0,1 Z " fill="#E08859" opacity="0.7647059" transform="translate(46,26)"/>
<path d="M0,0 L1,0 L1,1 L0,1 Z " fill="#E6A579" opacity="0.8509804" transform="translate(45,26)"/>
<path d="M0,0 L1,0 L1,1 L0,1 Z " fill="#E7A97E" opacity="0.8901961" transform="translate(18,26)"/>
<path d="M0,0 L1,0 L1,1 L0,1 Z " fill="#E1895B" opacity="0.75686276" transform="translate(17,26)"/>
<path d="M0,0 L1,0 L1,1 L0,1 Z " fill="#DE7E4E" opacity="0.9607843" transform="translate(16,26)"/>
<path d="M0,0 L1,0 L1,1 L0,1 Z " fill="#E19062" opacity="0.7529412" transform="translate(48,25)"/>
<path d="M0,0 L1,0 L1,1 L0,1 Z " fill="#E7AC82" opacity="0.9372549" transform="translate(47,25)"/>
<path d="M0,0 L1,0 L1,1 L0,1 Z " fill="#E8B288" opacity="0.85490197" transform="translate(38,25)"/>
<path d="M0,0 L1,0 L1,1 L0,1 Z " fill="#EAB78F" opacity="0.75686276" transform="translate(37,25)"/>
<path d="M0,0 L1,0 L1,1 L0,1 Z " fill="#EFBF98" opacity="0.7882353" transform="translate(35,25)"/>
<path d="M0,0 L1,0 L1,1 L0,1 Z " fill="#F1C5A0" opacity="0.8862745" transform="translate(33,25)"/>
<path d="M0,0 L1,0 L1,1 L0,1 Z " fill="#F2C6A3" opacity="0.972549" transform="translate(31,25)"/>
<path d="M0,0 L1,0 L1,1 L0,1 Z " fill="#F1C39E" opacity="0.85882354" transform="translate(29,25)"/>
<path d="M0,0 L1,0 L1,1 L0,1 Z " fill="#EDBB95" opacity="0.7647059" transform="translate(27,25)"/>
<path d="M0,0 L1,0 L1,1 L0,1 Z " fill="#E8B288" opacity="0.8392157" transform="translate(25,25)"/>
<path d="M0,0 L1,0 L1,1 L0,1 Z " fill="#E7B086" opacity="0.9764706" transform="translate(24,25)"/>
<path d="M0,0 L1,0 L1,1 L0,1 Z " fill="#E6AC82" opacity="0.9411765" transform="translate(16,25)"/>
<path d="M0,0 L1,0 L1,1 L0,1 Z " fill="#E19162" opacity="0.7529412" transform="translate(15,25)"/>
<path d="M0,0 L1,0 L1,1 L0,1 Z " fill="#DF7E4F" opacity="0.9137255" transform="translate(14,25)"/>
<path d="M0,0 L1,0 L1,1 L0,1 Z " fill="#E19569" opacity="0.7647059" transform="translate(50,24)"/>
<path d="M0,0 L1,0 L1,1 L0,1 Z " fill="#E6AE83" opacity="0.9764706" transform="translate(49,24)"/>
<path d="M0,0 L1,0 L1,1 L0,1 Z " fill="#E7B186" opacity="0.9098039" transform="translate(42,24)"/>
<path d="M0,0 L1,0 L1,1 L0,1 Z " fill="#EFBE97" opacity="0.78039217" transform="translate(40,24)"/>
<path d="M0,0 L1,0 L1,1 L0,1 Z " fill="#F1C5A2" opacity="0.92941177" transform="translate(39,24)"/>
<path d="M0,0 L1,0 L1,1 L0,1 Z " fill="#F3C5A4" opacity="0.9843137" transform="translate(24,24)"/>
<path d="M0,0 L1,0 L1,1 L0,1 Z " fill="#E9B68D" opacity="0.7607843" transform="translate(22,24)"/>
<path d="M0,0 L1,0 L1,1 L0,1 Z " fill="#E7B187" opacity="0.92941177" transform="translate(21,24)"/>
<path d="M0,0 L1,0 L1,1 L0,1 Z " fill="#E3966A" opacity="0.7647059" transform="translate(13,24)"/>
<path d="M0,0 L1,0 L1,1 L0,1 Z " fill="#E08050" opacity="0.8509804" transform="translate(12,24)"/>
<path d="M0,0 L1,0 L1,1 L0,1 Z " fill="#E18E62" opacity="0.7529412" transform="translate(53,23)"/>
<path d="M0,0 L1,0 L1,1 L0,1 Z " fill="#E5A77B" opacity="0.87058824" transform="translate(52,23)"/>
<path d="M0,0 L1,0 L1,1 L0,1 Z " fill="#EFBE97" opacity="0.7764706" transform="translate(43,23)"/>
<path d="M0,0 L1,0 L1,1 L0,1 Z " fill="#F3C7A4" opacity="0.9882353" transform="translate(42,23)"/>
<path d="M0,0 L1,0 L1,1 L0,1 Z " fill="#F3C6A3" opacity="0.99215686" transform="translate(21,23)"/>
<path d="M0,0 L1,0 L1,1 L0,1 Z " fill="#EAB48C" opacity="0.78039217" transform="translate(19,23)"/>
<path d="M0,0 L1,0 L1,1 L0,1 Z " fill="#E7B186" opacity="0.99215686" transform="translate(18,23)"/>
<path d="M0,0 L1,0 L1,1 L0,1 Z " fill="#E19062" opacity="0.7529412" transform="translate(10,23)"/>
<path d="M0,0 L1,0 L1,1 L0,1 Z " fill="#DE8050" opacity="0.84705883" transform="translate(9,23)"/>
<path d="M0,0 L1,0 L1,1 L0,1 Z " fill="#E0895B" opacity="0.7607843" transform="translate(58,22)"/>
<path d="M0,0 L1,0 L1,1 L0,1 Z " fill="#E3A375" opacity="0.8235294" transform="translate(56,22)"/>
<path d="M0,0 L1,0 L1,1 L0,1 Z " fill="#E7AE83" opacity="0.9490196" transform="translate(55,22)"/>
<path d="M0,0 L1,0 L1,1 L0,1 Z " fill="#E9B58C" opacity="0.7647059" transform="translate(46,22)"/>
<path d="M0,0 L1,0 L1,1 L0,1 Z " fill="#F1C19E" opacity="0.8509804" transform="translate(45,22)"/>
<path d="M0,0 L1,0 L1,1 L0,1 Z " fill="#EAB78F" opacity="0.75686276" transform="translate(17,22)"/>
<path d="M0,0 L1,0 L1,1 L0,1 Z " fill="#E6B186" opacity="0.9607843" transform="translate(16,22)"/>
<path d="M0,0 L1,0 L1,1 L0,1 Z " fill="#E3A375" opacity="0.8235294" transform="translate(7,22)"/>
<path d="M0,0 L1,0 L1,1 L0,1 Z " fill="#E29468" opacity="0.75686276" transform="translate(6,22)"/>
<path d="M0,0 L1,0 L1,1 L0,1 Z " fill="#DF8052" opacity="0.827451" transform="translate(4,22)"/>
<path d="M0,0 L1,0 L1,1 L0,1 Z " fill="#EAB991" opacity="0.7529412" transform="translate(48,21)"/>
<path d="M0,0 L1,0 L1,1 L0,1 Z " fill="#F3C5A2" opacity="0.9372549" transform="translate(47,21)"/>
<path d="M0,0 L1,0 L1,1 L0,1 Z " fill="#F3C5A3" opacity="0.9411765" transform="translate(16,21)"/>
<path d="M0,0 L1,0 L1,1 L0,1 Z " fill="#ECB991" opacity="0.7529412" transform="translate(15,21)"/>
<path d="M0,0 L1,0 L1,1 L0,1 Z " fill="#E7B087" opacity="0.9137255" transform="translate(14,21)"/>
<path d="M0,0 L1,0 L1,1 L0,1 Z " fill="#EDBB95" opacity="0.7647059" transform="translate(50,20)"/>
<path d="M0,0 L1,0 L1,1 L0,1 Z " fill="#F3C6A3" opacity="0.9764706" transform="translate(49,20)"/>
<path d="M0,0 L1,0 L1,1 L0,1 Z " fill="#EDBB95" opacity="0.7647059" transform="translate(13,20)"/>
<path d="M0,0 L1,0 L1,1 L0,1 Z " fill="#E8B287" opacity="0.8509804" transform="translate(12,20)"/>
<path d="M0,0 L1,0 L1,1 L0,1 Z " fill="#EAB990" opacity="0.7529412" transform="translate(53,19)"/>
<path d="M0,0 L1,0 L1,1 L0,1 Z " fill="#F1C49F" opacity="0.87058824" transform="translate(52,19)"/>
<path d="M0,0 L1,0 L1,1 L0,1 Z " fill="#F3C7A4" transform="translate(40,19)"/>
<path d="M0,0 L1,0 L1,1 L0,1 Z " fill="#EDBD97" opacity="0.76862746" transform="translate(38,19)"/>
<path d="M0,0 L1,0 L1,1 L0,1 Z " fill="#F3C6A3" opacity="0.99215686" transform="translate(37,19)"/>
<path d="M0,0 L1,0 L1,1 L0,1 Z " fill="#EAB991" opacity="0.7529412" transform="translate(10,19)"/>
<path d="M0,0 L1,0 L1,1 L0,1 Z " fill="#E8B188" opacity="0.84705883" transform="translate(9,19)"/>
<path d="M0,0 L1,0 L1,1 L0,1 Z " fill="#EAB48D" opacity="0.7607843" transform="translate(58,18)"/>
<path d="M0,0 L1,0 L1,1 L0,1 Z " fill="#F0C19C" opacity="0.8235294" transform="translate(56,18)"/>
<path d="M0,0 L1,0 L1,1 L0,1 Z " fill="#F3C5A2" opacity="0.9490196" transform="translate(55,18)"/>
<path d="M0,0 L1,0 L1,1 L0,1 Z " fill="#F3C6A4" opacity="0.99215686" transform="translate(41,18)"/>
<path d="M0,0 L1,0 L1,1 L0,1 Z " fill="#E9B48C" opacity="0.77254903" transform="translate(40,18)"/>
<path d="M0,0 L1,0 L1,1 L0,1 Z " fill="#EAB58B" opacity="0.7764706" transform="translate(37,18)"/>
<path d="M0,0 L1,0 L1,1 L0,1 Z " fill="#F3C7A4" transform="translate(36,18)"/>
<path d="M0,0 L1,0 L1,1 L0,1 Z " fill="#F3C5A2" opacity="0.9490196" transform="translate(8,18)"/>
<path d="M0,0 L1,0 L1,1 L0,1 Z " fill="#F0C19C" opacity="0.8235294" transform="translate(7,18)"/>
<path d="M0,0 L1,0 L1,1 L0,1 Z " fill="#EDBB94" opacity="0.75686276" transform="translate(6,18)"/>
<path d="M0,0 L1,0 L1,1 L0,1 Z " fill="#E7B287" opacity="0.827451" transform="translate(4,18)"/>
<path d="M0,0 L1,0 L1,1 L0,1 Z " fill="#F3C6A3" opacity="0.99215686" transform="translate(48,16)"/>
<path d="M0,0 L1,0 L1,1 L0,1 Z " fill="#EAB68D" opacity="0.7607843" transform="translate(47,16)"/>
<path d="M0,0 L1,0 L1,1 L0,1 Z " fill="#E9B58C" opacity="0.7647059" transform="translate(45,16)"/>
<path d="M0,0 L1,0 L1,1 L0,1 Z " fill="#F3C6A3" opacity="0.99215686" transform="translate(44,16)"/>
<path d="M0,0 L1,0 L1,1 L0,1 Z " fill="#EDBC94" opacity="0.76862746" transform="translate(36,16)"/>
<path d="M0,0 L1,0 L1,1 L0,1 Z " fill="#E9B58D" opacity="0.7647059" transform="translate(48,15)"/>
<path d="M0,0 L1,0 L1,1 L0,1 Z " fill="#EAB68D" opacity="0.7607843" transform="translate(44,15)"/>
<path d="M0,0 L1,0 L1,1 L0,1 Z " fill="#F3C6A3" opacity="0.99215686" transform="translate(41,15)"/>
<path d="M0,0 L1,0 L1,1 L0,1 Z " fill="#E8B48A" opacity="0.78431374" transform="translate(40,15)"/>
<path d="M0,0 L1,0 L1,1 L0,1 Z " fill="#E8B48A" opacity="0.78039217" transform="translate(37,15)"/>
<path d="M0,0 L1,0 L1,1 L0,1 Z " fill="#F3C6A5" opacity="0.99607843" transform="translate(36,15)"/>
<path d="M0,0 L1,0 L1,1 L0,1 Z " fill="#F6CDAB" opacity="0.85490197" transform="translate(59,14)"/>
<path d="M0,0 L1,0 L1,1 L0,1 Z " fill="#F3C7A4" opacity="0.9882353" transform="translate(40,14)"/>
<path d="M0,0 L1,0 L1,1 L0,1 Z " fill="#EDBD95" opacity="0.7647059" transform="translate(38,14)"/>
<path d="M0,0 L1,0 L1,1 L0,1 Z " fill="#F3C6A3" opacity="0.99215686" transform="translate(37,14)"/>
<path d="M0,0 L1,0 L1,1 L0,1 Z " fill="#F5CBAA" opacity="0.8666667" transform="translate(4,14)"/>
<path d="M0,0 L1,0 L1,1 L0,1 Z " fill="#E9B58C" opacity="0.7647059" transform="translate(48,13)"/>
<path d="M0,0 L1,0 L1,1 L0,1 Z " fill="#E9B58C" opacity="0.7647059" transform="translate(44,13)"/>
<path d="M0,0 L1,0 L1,1 L0,1 Z " fill="#FDDBBD" opacity="0.78039217" transform="translate(59,12)"/>
<path d="M0,0 L1,0 L1,1 L0,1 Z " fill="#F3C5A4" opacity="0.9843137" transform="translate(48,12)"/>
<path d="M0,0 L1,0 L1,1 L0,1 Z " fill="#E9B58B" opacity="0.76862746" transform="translate(47,12)"/>
<path d="M0,0 L1,0 L1,1 L0,1 Z " fill="#E9B58B" opacity="0.76862746" transform="translate(45,12)"/>
<path d="M0,0 L1,0 L1,1 L0,1 Z " fill="#F3C7A4" opacity="0.9882353" transform="translate(44,12)"/>
<path d="M0,0 L1,0 L1,1 L0,1 Z " fill="#FDDCBC" opacity="0.77254903" transform="translate(4,12)"/>
<path d="M0,0 L1,0 L1,1 L0,1 Z " fill="#FEDFC1" opacity="0.92156863" transform="translate(59,11)"/>
<path d="M0,0 L1,0 L1,1 L0,1 Z " fill="#F6CCAB" opacity="0.8627451" transform="translate(58,11)"/>
<path d="M0,0 L1,0 L1,1 L0,1 Z " fill="#F5CCA9" opacity="0.87058824" transform="translate(5,11)"/>
<path d="M0,0 L1,0 L1,1 L0,1 Z " fill="#FEDFC1" opacity="0.92156863" transform="translate(4,11)"/>
<path d="M0,0 L1,0 L1,1 L0,1 Z " fill="#343440" opacity="0.8862745" transform="translate(63,10)"/>
<path d="M0,0 L1,0 L1,1 L0,1 Z " fill="#FEDEC0" opacity="0.8392157" transform="translate(58,10)"/>
<path d="M0,0 L1,0 L1,1 L0,1 Z " fill="#F3C8A5" opacity="0.96862745" transform="translate(57,10)"/>
<path d="M0,0 L1,0 L1,1 L0,1 Z " fill="#F3C8A5" opacity="0.96862745" transform="translate(6,10)"/>
<path d="M0,0 L1,0 L1,1 L0,1 Z " fill="#F9DABC" opacity="0.8666667" transform="translate(4,10)"/>
<path d="M0,0 L1,0 L1,1 L0,1 Z " fill="#343440" opacity="0.9019608" transform="translate(0,10)"/>
<path d="M0,0 L1,0 L1,1 L0,1 Z " fill="#FFDEC1" opacity="0.8509804" transform="translate(57,9)"/>
<path d="M0,0 L1,0 L1,1 L0,1 Z " fill="#F5CBAA" opacity="0.88235295" transform="translate(56,9)"/>
<path d="M0,0 L1,0 L1,1 L0,1 Z " fill="#F5CBA9" opacity="0.8862745" transform="translate(7,9)"/>
<path d="M0,0 L1,0 L1,1 L0,1 Z " fill="#FEDEC1" opacity="0.8509804" transform="translate(6,9)"/>
<path d="M0,0 L1,0 L1,1 L0,1 Z " fill="#333340" opacity="0.54509807" transform="translate(63,8)"/>
<path d="M0,0 L1,0 L1,1 L0,1 Z " fill="#8D8078" opacity="0.78039217" transform="translate(59,8)"/>
<path d="M0,0 L1,0 L1,1 L0,1 Z " fill="#FFE0C1" opacity="0.9843137" transform="translate(56,8)"/>
<path d="M0,0 L1,0 L1,1 L0,1 Z " fill="#FEDCBF" opacity="0.7882353" transform="translate(55,8)"/>
<path d="M0,0 L1,0 L1,1 L0,1 Z " fill="#F5CCAA" opacity="0.85882354" transform="translate(53,8)"/>
<path d="M0,0 L1,0 L1,1 L0,1 Z " fill="#F4C9A6" opacity="0.94509804" transform="translate(52,8)"/>
<path d="M0,0 L1,0 L1,1 L0,1 Z " fill="#F5CCAA" opacity="0.85882354" transform="translate(10,8)"/>
<path d="M0,0 L1,0 L1,1 L0,1 Z " fill="#FEDEBE" opacity="0.78431374" transform="translate(8,8)"/>
<path d="M0,0 L1,0 L1,1 L0,1 Z " fill="#FFE0C1" opacity="0.9843137" transform="translate(7,8)"/>
<path d="M0,0 L1,0 L1,1 L0,1 Z " fill="#91837C" opacity="0.77254903" transform="translate(4,8)"/>
<path d="M0,0 L1,0 L1,1 L0,1 Z " fill="#353540" opacity="0.5647059" transform="translate(0,8)"/>
<path d="M0,0 L1,0 L1,1 L0,1 Z " fill="#393944" opacity="0.98039216" transform="translate(59,7)"/>
<path d="M0,0 L1,0 L1,1 L0,1 Z " fill="#F9DABD" opacity="0.8627451" transform="translate(58,7)"/>
<path d="M0,0 L1,0 L1,1 L0,1 Z " fill="#FADBBE" opacity="0.87058824" transform="translate(5,7)"/>
<path d="M0,0 L1,0 L1,1 L0,1 Z " fill="#3B3A45" opacity="0.972549" transform="translate(4,7)"/>
<path d="M0,0 L1,0 L1,1 L0,1 Z " fill="#343440" opacity="0.011764706" transform="translate(63,6)"/>
<path d="M0,0 L1,0 L1,1 L0,1 Z " fill="#686060" opacity="0.8392157" transform="translate(58,6)"/>
<path d="M0,0 L1,0 L1,1 L0,1 Z " fill="#FFE0C1" opacity="0.96862745" transform="translate(57,6)"/>
<path d="M0,0 L1,0 L1,1 L0,1 Z " fill="#FFE0C1" opacity="0.96862745" transform="translate(6,6)"/>
<path d="M0,0 L1,0 L1,1 L0,1 Z " fill="#6A6163" opacity="0.83137256" transform="translate(5,6)"/>
<path d="M0,0 L1,0 L1,1 L0,1 Z " fill="#343441" opacity="0.8784314" transform="translate(1,6)"/>
<path d="M0,0 L1,0 L1,1 L0,1 Z " fill="#343441" opacity="0.015686275" transform="translate(0,6)"/>
<path d="M0,0 L1,0 L1,1 L0,1 Z " fill="#333340" opacity="0.29411766" transform="translate(62,5)"/>
<path d="M0,0 L1,0 L1,1 L0,1 Z " fill="#60595E" opacity="0.8509804" transform="translate(57,5)"/>
<path d="M0,0 L1,0 L1,1 L0,1 Z " fill="#FBDCC0" opacity="0.88235295" transform="translate(56,5)"/>
<path d="M0,0 L1,0 L1,1 L0,1 Z " fill="#FBDCBF" opacity="0.8862745" transform="translate(7,5)"/>
<path d="M0,0 L1,0 L1,1 L0,1 Z " fill="#615A5D" opacity="0.8509804" transform="translate(6,5)"/>
<path d="M0,0 L1,0 L1,1 L0,1 Z " fill="#343441" opacity="0.69411767" transform="translate(61,4)"/>
<path d="M0,0 L1,0 L1,1 L0,1 Z " fill="#857875" opacity="0.7882353" transform="translate(55,4)"/>
<path d="M0,0 L1,0 L1,1 L0,1 Z " fill="#E2C7AE" opacity="0.78039217" transform="translate(54,4)"/>
<path d="M0,0 L1,0 L1,1 L0,1 Z " fill="#F7D9BC" opacity="0.85882354" transform="translate(53,4)"/>
<path d="M0,0 L1,0 L1,1 L0,1 Z " fill="#FFE0C2" opacity="0.94509804" transform="translate(52,4)"/>
<path d="M0,0 L1,0 L1,1 L0,1 Z " fill="#F7D9BC" opacity="0.85882354" transform="translate(10,4)"/>
<path d="M0,0 L1,0 L1,1 L0,1 Z " fill="#877A74" opacity="0.78431374" transform="translate(8,4)"/>
<path d="M0,0 L1,0 L1,1 L0,1 Z " fill="#393943" opacity="0.9843137" transform="translate(7,4)"/>
<path d="M0,0 L1,0 L1,1 L0,1 Z " fill="#353540" opacity="0.003921569" transform="translate(1,4)"/>
<path d="M0,0 L1,0 L1,1 L0,1 Z " fill="#33333B" opacity="0.11764706" transform="translate(61,3)"/>
<path d="M0,0 L1,0 L1,1 L0,1 Z " fill="#353540" opacity="0.90588236" transform="translate(3,3)"/>
<path d="M0,0 L1,0 L1,1 L0,1 Z " fill="#36363E" opacity="0.12941177" transform="translate(2,3)"/>
<path d="M0,0 L1,0 L1,1 L0,1 Z " fill="#313140" opacity="0.14117648" transform="translate(60,2)"/>
<path d="M0,0 L1,0 L1,1 L0,1 Z " fill="#343440" opacity="0.827451" transform="translate(59,2)"/>
<path d="M0,0 L1,0 L1,1 L0,1 Z " fill="#333340" opacity="0.15686275" transform="translate(3,2)"/>
<path d="M0,0 L1,0 L1,1 L0,1 Z " fill="#353540" opacity="0.4509804" transform="translate(58,1)"/>
<path d="M0,0 L1,0 L1,1 L0,1 Z " fill="#343440" opacity="0.85490197" transform="translate(57,1)"/>
<path d="M0,0 L1,0 L1,1 L0,1 Z " fill="#343441" opacity="0.8627451" transform="translate(6,1)"/>
<path d="M0,0 L1,0 L1,1 L0,1 Z " fill="#34343F" opacity="0.039215688" transform="translate(4,1)"/>
<path d="M0,0 L1,0 L1,1 L0,1 Z " fill="#323241" opacity="0.25882354" transform="translate(56,0)"/>
<path d="M0,0 L1,0 L1,1 L0,1 Z " fill="#353540" opacity="0.5647059" transform="translate(55,0)"/>
<path d="M0,0 L1,0 L1,1 L0,1 Z " fill="#353541" opacity="0.83137256" transform="translate(53,0)"/>
<path d="M0,0 L1,0 L1,1 L0,1 Z " fill="#343441" opacity="0.95686275" transform="translate(52,0)"/>
<path d="M0,0 L1,0 L1,1 L0,1 Z " fill="#353541" opacity="0.83137256" transform="translate(10,0)"/>
<path d="M0,0 L1,0 L1,1 L0,1 Z " fill="#343441" opacity="0.5686275" transform="translate(8,0)"/>
<path d="M0,0 L1,0 L1,1 L0,1 Z " fill="#33333F" opacity="0.007843138" transform="translate(6,0)"/>
</svg>
