<?xml version="1.0" encoding="UTF-8"?>
<!-- Generator: visioncortex VTracer 0.6.4 -->
<svg version="1.1" xmlns="http://www.w3.org/2000/svg" width="64" height="64">
<path d="M0,0 L52,0 L52,1 L57,1 L57,2 L59,2 L59,3 L60,3 L60,4 L61,4 L61,5 L62,5 L62,7 L63,7 L63,12 L64,12 L64,64 L0,64 L0,52 L9,52 L9,51 L0,51 L0,36 L9,36 L9,35 L0,35 L0,32 L9,32 L9,31 L0,31 L0,23 L9,23 L9,22 L0,22 L0,19 L9,19 L9,18 L0,18 Z M52,4 L52,5 L56,5 L56,6 L57,6 L57,7 L58,7 L58,8 L59,8 L59,10 L58,10 L58,9 L57,9 L57,8 L52,8 L52,9 L56,9 L56,10 L57,10 L57,11 L58,11 L58,12 L59,12 L59,16 L60,16 L60,7 L59,7 L59,6 L58,6 L58,5 L57,5 L57,4 Z M22,14 L22,15 L21,15 L21,18 L22,18 L22,19 L23,19 L23,20 L25,20 L25,19 L26,19 L26,18 L27,18 L27,15 L26,15 L26,14 Z M29,16 L29,17 L28,17 L28,21 L29,21 L29,22 L32,22 L32,21 L33,21 L33,17 L32,17 L32,16 Z M55,18 L55,19 L60,19 L60,18 Z M9,19 L9,20 L12,20 L12,19 Z M52,19 L52,20 L55,20 L55,19 Z M12,20 L12,21 L14,21 L14,22 L16,22 L16,23 L18,23 L18,24 L21,24 L21,25 L24,25 L24,26 L39,26 L39,25 L25,25 L25,24 L22,24 L22,23 L19,23 L19,22 L17,22 L17,21 L15,21 L15,20 Z M49,20 L49,21 L47,21 L47,22 L45,22 L45,23 L48,23 L48,22 L50,22 L50,21 L52,21 L52,20 Z M55,22 L55,23 L60,23 L60,22 Z M9,23 L9,24 L12,24 L12,23 Z M42,23 L42,24 L39,24 L39,25 L43,25 L43,24 L45,24 L45,23 Z M52,23 L52,24 L55,24 L55,23 Z M12,24 L12,25 L14,25 L14,26 L16,26 L16,27 L18,27 L18,28 L21,28 L21,29 L24,29 L24,30 L39,30 L39,29 L25,29 L25,28 L22,28 L22,27 L19,27 L19,26 L17,26 L17,25 L15,25 L15,24 Z M49,24 L49,25 L47,25 L47,26 L45,26 L45,27 L48,27 L48,26 L50,26 L50,25 L52,25 L52,24 Z M42,27 L42,28 L39,28 L39,29 L43,29 L43,28 L45,28 L45,27 Z M55,31 L55,32 L60,32 L60,31 Z M9,32 L9,33 L12,33 L12,32 Z M52,32 L52,33 L55,33 L55,32 Z M12,33 L12,34 L14,34 L14,35 L16,35 L16,36 L18,36 L18,37 L21,37 L21,38 L24,38 L24,39 L39,39 L39,38 L25,38 L25,37 L22,37 L22,36 L19,36 L19,35 L17,35 L17,34 L15,34 L15,33 Z M49,33 L49,34 L47,34 L47,35 L45,35 L45,36 L48,36 L48,35 L50,35 L50,34 L52,34 L52,33 Z M55,35 L55,36 L60,36 L60,35 Z M9,36 L9,37 L12,37 L12,36 Z M42,36 L42,37 L39,37 L39,38 L43,38 L43,37 L45,37 L45,36 Z M52,36 L52,37 L55,37 L55,36 Z M12,37 L12,38 L14,38 L14,39 L16,39 L16,40 L18,40 L18,41 L21,41 L21,42 L24,42 L24,43 L39,43 L39,42 L25,42 L25,41 L22,41 L22,40 L19,40 L19,39 L17,39 L17,38 L15,38 L15,37 Z M49,37 L49,38 L47,38 L47,39 L45,39 L45,40 L48,40 L48,39 L50,39 L50,38 L52,38 L52,37 Z M42,40 L42,41 L39,41 L39,42 L43,42 L43,41 L45,41 L45,40 Z M50,41 L50,42 L49,42 L49,45 L50,45 L50,46 L54,46 L54,45 L55,45 L55,42 L54,42 L54,41 Z M55,51 L55,52 L60,52 L60,51 Z M9,52 L9,53 L12,53 L12,52 Z M52,52 L52,53 L55,53 L55,52 Z M12,53 L12,54 L14,54 L14,55 L16,55 L16,56 L18,56 L18,57 L21,57 L21,58 L24,58 L24,59 L39,59 L39,58 L25,58 L25,57 L22,57 L22,56 L19,56 L19,55 L17,55 L17,54 L15,54 L15,53 Z M49,53 L49,54 L47,54 L47,55 L45,55 L45,56 L48,56 L48,55 L50,55 L50,54 L52,54 L52,53 Z M42,56 L42,57 L39,57 L39,58 L43,58 L43,57 L45,57 L45,56 Z M23,15 L25,15 L25,16 L26,16 L26,18 L23,18 L23,17 L22,17 L22,16 L23,16 Z M30,17 L31,17 L31,18 L32,18 L32,20 L31,20 L31,21 L29,21 L29,18 L30,18 Z M51,42 L53,42 L53,43 L54,43 L54,44 L53,44 L53,45 L51,45 L51,44 L50,44 L50,43 L51,43 Z " fill="#EE9366" transform="translate(0,0)"/>
<path d="M0,0 L52,0 L52,1 L56,1 L56,2 L57,2 L57,3 L58,3 L58,4 L59,4 L59,6 L58,6 L58,5 L57,5 L57,4 L52,4 L52,5 L56,5 L56,6 L57,6 L57,7 L58,7 L58,8 L59,8 L59,12 L60,12 L60,14 L55,14 L55,15 L52,15 L52,16 L49,16 L49,17 L47,17 L47,18 L45,18 L45,19 L42,19 L42,20 L39,20 L39,21 L25,21 L25,20 L22,20 L22,19 L19,19 L19,18 L17,18 L17,17 L15,17 L15,16 L12,16 L12,15 L9,15 L9,14 L0,14 Z M22,10 L22,11 L21,11 L21,14 L22,14 L22,15 L23,15 L23,16 L25,16 L25,15 L26,15 L26,14 L27,14 L27,11 L26,11 L26,10 Z M29,12 L29,13 L28,13 L28,17 L29,17 L29,18 L32,18 L32,17 L33,17 L33,13 L32,13 L32,12 Z M23,11 L25,11 L25,12 L26,12 L26,14 L23,14 L23,13 L22,13 L22,12 L23,12 Z M30,13 L31,13 L31,14 L32,14 L32,16 L31,16 L31,17 L29,17 L29,14 L30,14 Z M0,15 L9,15 L9,16 L12,16 L12,17 L14,17 L14,18 L16,18 L16,19 L18,19 L18,20 L21,20 L21,21 L24,21 L24,22 L39,22 L39,21 L43,21 L43,20 L45,20 L45,19 L48,19 L48,18 L50,18 L50,17 L52,17 L52,16 L55,16 L55,15 L60,15 L60,18 L55,18 L55,19 L52,19 L52,20 L49,20 L49,21 L47,21 L47,22 L45,22 L45,23 L42,23 L42,24 L39,24 L39,25 L25,25 L25,24 L22,24 L22,23 L19,23 L19,22 L17,22 L17,21 L15,21 L15,20 L12,20 L12,19 L9,19 L9,18 L0,18 Z " fill="#F3C7A5" transform="translate(0,4)"/>
<path d="M0,0 L52,0 L52,1 L57,1 L57,2 L59,2 L59,3 L60,3 L60,4 L61,4 L61,5 L62,5 L62,7 L63,7 L63,12 L64,12 L64,64 L60,64 L60,35 L55,35 L55,36 L52,36 L52,37 L49,37 L49,38 L47,38 L47,39 L45,39 L45,40 L42,40 L42,41 L39,41 L39,42 L25,42 L25,41 L22,41 L22,40 L19,40 L19,39 L17,39 L17,38 L15,38 L15,37 L12,37 L12,36 L9,36 L9,35 L0,35 L0,32 L9,32 L9,31 L0,31 L0,23 L9,23 L9,24 L12,24 L12,25 L14,25 L14,26 L16,26 L16,27 L18,27 L18,28 L21,28 L21,29 L24,29 L24,30 L39,30 L39,29 L43,29 L43,28 L45,28 L45,27 L48,27 L48,26 L50,26 L50,25 L52,25 L52,24 L55,24 L55,23 L60,23 L60,7 L59,7 L59,6 L58,6 L58,5 L57,5 L57,4 L0,4 Z M55,31 L55,32 L60,32 L60,31 Z M9,32 L9,33 L12,33 L12,32 Z M52,32 L52,33 L55,33 L55,32 Z M12,33 L12,34 L14,34 L14,35 L16,35 L16,36 L18,36 L18,37 L21,37 L21,38 L24,38 L24,39 L39,39 L39,38 L25,38 L25,37 L22,37 L22,36 L19,36 L19,35 L17,35 L17,34 L15,34 L15,33 Z M49,33 L49,34 L47,34 L47,35 L45,35 L45,36 L48,36 L48,35 L50,35 L50,34 L52,34 L52,33 Z M42,36 L42,37 L39,37 L39,38 L43,38 L43,37 L45,37 L45,36 Z " fill="#DE7E4F" transform="translate(0,0)"/>
<path d="M0,0 L8,0 L8,1 L11,1 L11,2 L14,2 L14,3 L16,3 L16,4 L18,4 L18,5 L21,5 L21,6 L24,6 L24,7 L39,7 L39,6 L43,6 L43,5 L46,5 L46,4 L48,4 L48,3 L50,3 L50,2 L53,2 L53,1 L56,1 L56,0 L60,0 L60,12 L0,12 Z " fill="#DE7E4F" transform="translate(0,52)"/>
<path d="M0,0 L1,0 L1,1 L0,1 Z M47,0 L48,0 L48,1 L47,1 Z M3,1 L4,1 L4,2 L3,2 Z M44,1 L45,1 L45,2 L44,2 Z M37,4 L38,4 L38,5 L37,5 Z " fill="#DE7E4E" transform="translate(8,52)"/>
<path d="M0,0 L52,0 L52,1 L57,1 L57,2 L59,2 L59,3 L60,3 L60,4 L61,4 L61,5 L62,5 L62,7 L63,7 L63,12 L64,12 L64,64 L60,64 L60,7 L59,7 L59,6 L58,6 L58,5 L57,5 L57,4 L0,4 Z " fill="#353541" transform="translate(0,0)"/>
<path d="M0,0 L9,0 L9,1 L12,1 L12,2 L14,2 L14,3 L16,3 L16,4 L18,4 L18,5 L21,5 L21,6 L24,6 L24,7 L39,7 L39,6 L43,6 L43,5 L45,5 L45,4 L48,4 L48,3 L50,3 L50,2 L52,2 L52,1 L55,1 L55,0 L60,0 L60,3 L55,3 L55,4 L52,4 L52,5 L49,5 L49,6 L47,6 L47,7 L45,7 L45,8 L42,8 L42,9 L39,9 L39,10 L25,10 L25,9 L22,9 L22,8 L19,8 L19,7 L17,7 L17,6 L15,6 L15,5 L12,5 L12,4 L9,4 L9,3 L0,3 Z " fill="#C66A3E" transform="translate(0,32)"/>
<path d="M0,0 L9,0 L9,1 L12,1 L12,2 L14,2 L14,3 L16,3 L16,4 L18,4 L18,5 L21,5 L21,6 L24,6 L24,7 L39,7 L39,6 L43,6 L43,5 L45,5 L45,4 L48,4 L48,3 L50,3 L50,2 L52,2 L52,1 L55,1 L55,0 L60,0 L60,3 L55,3 L55,4 L52,4 L52,5 L49,5 L49,6 L47,6 L47,7 L45,7 L45,8 L42,8 L42,9 L39,9 L39,10 L25,10 L25,9 L22,9 L22,8 L19,8 L19,7 L17,7 L17,6 L15,6 L15,5 L12,5 L12,4 L9,4 L9,3 L0,3 Z " fill="#E7B187" transform="translate(0,19)"/>
<path d="M0,0 L52,0 L52,1 L56,1 L56,2 L57,2 L57,3 L58,3 L58,4 L59,4 L59,6 L58,6 L58,5 L57,5 L57,4 L0,4 Z " fill="#FFE0C2" transform="translate(0,4)"/>
<path d="M0,0 L2,0 L2,1 L3,1 L3,3 L0,3 L0,2 L-1,2 L-1,1 L0,1 Z " fill="#E7B187" transform="translate(23,15)"/>
<path d="M0,0 L1,0 L1,1 L2,1 L2,3 L1,3 L1,4 L-1,4 L-1,1 L0,1 Z " fill="#FFE0C2" transform="translate(30,17)"/>
<path d="M0,0 L2,0 L2,1 L3,1 L3,2 L2,2 L2,3 L0,3 L0,2 L-1,2 L-1,1 L0,1 Z " fill="#DE7E4F" transform="translate(51,42)"/>
<path d="M0,0 L1,0 L1,1 L0,1 Z " fill="#EE9366" opacity="0.9607843" transform="translate(32,58)"/>
<path d="M0,0 L1,0 L1,1 L0,1 Z " fill="#C6693D" opacity="0.9607843" transform="translate(32,42)"/>
<path d="M0,0 L1,0 L1,1 L0,1 Z " fill="#DE7D4D" opacity="0.9607843" transform="translate(32,38)"/>
<path d="M0,0 L1,0 L1,1 L0,1 Z " fill="#E6AF83" opacity="0.9607843" transform="translate(32,29)"/>
<path d="M0,0 L1,0 L1,1 L0,1 Z " fill="#F3C6A3" opacity="0.9607843" transform="translate(32,25)"/>
<path d="M0,0 L1,0 L1,1 L0,1 Z " fill="#DE7E4F" transform="translate(0,23)"/>
<path d="M0,0 L1,0 L1,1 L0,1 Z " fill="#F7D9BD" opacity="0.85490197" transform="translate(59,10)"/>
<path d="M0,0 L1,0 L1,1 L0,1 Z " fill="#C76A3D" opacity="0.8352941" transform="translate(4,31)"/>
<path d="M0,0 L1,0 L1,1 L0,1 Z M-1,1 L0,1 L0,2 L-1,2 Z " fill="#FFE0C2" transform="translate(30,17)"/>
<path d="M0,0 L1,0 L1,1 L0,1 Z " fill="#DE7E4F" transform="translate(0,52)"/>
<path d="M0,0 L1,0 L1,1 L0,1 Z M-1,1 L0,1 L0,2 L-1,2 Z " fill="#DE7E4F" transform="translate(51,42)"/>
<path d="M0,0 L1,0 L1,1 L0,1 Z " fill="#EE9366" transform="translate(0,36)"/>
<path d="M0,0 L1,0 L1,1 L0,1 Z " fill="#343440" opacity="0.7058824" transform="translate(54,0)"/>
<path d="M0,0 L1,0 L1,1 L0,1 Z " fill="#ED9164" opacity="0.81960785" transform="translate(28,58)"/>
<path d="M0,0 L1,0 L1,1 L0,1 Z " fill="#EC8D60" opacity="0.75686276" transform="translate(57,51)"/>
<path d="M0,0 L1,0 L1,1 L0,1 Z " fill="#C86D3F" opacity="0.81960785" transform="translate(28,42)"/>
<path d="M0,0 L1,0 L1,1 L0,1 Z " fill="#D77849" opacity="0.81960785" transform="translate(28,38)"/>
<path d="M0,0 L1,0 L1,1 L0,1 Z " fill="#CE7346" opacity="0.75686276" transform="translate(57,35)"/>
<path d="M0,0 L1,0 L1,1 L0,1 Z " fill="#C66A3D" opacity="0.94509804" transform="translate(8,35)"/>
<path d="M0,0 L1,0 L1,1 L0,1 Z " fill="#C66A3F" opacity="0.827451" transform="translate(59,31)"/>
<path d="M0,0 L1,0 L1,1 L0,1 Z " fill="#E5A276" opacity="0.81960785" transform="translate(28,29)"/>
<path d="M0,0 L1,0 L1,1 L0,1 Z " fill="#F0C19C" opacity="0.81960785" transform="translate(28,25)"/>
<path d="M0,0 L1,0 L1,1 L0,1 Z " fill="#DF8052" opacity="0.827451" transform="translate(59,22)"/>
<path d="M0,0 L1,0 L1,1 L0,1 Z " fill="#E7B287" opacity="0.827451" transform="translate(59,18)"/>
<path d="M0,0 L1,0 L1,1 L0,1 Z " fill="#343440" opacity="0.72156864" transform="translate(63,9)"/>
<path d="M0,0 L1,0 L1,1 L0,1 Z " fill="#EA8F61" opacity="0.7647059" transform="translate(36,58)"/>
<path d="M0,0 L1,0 L1,1 L0,1 Z " fill="#EA8D5F" opacity="0.75686276" transform="translate(6,51)"/>
<path d="M0,0 L1,0 L1,1 L0,1 Z " fill="#CE7245" opacity="0.7647059" transform="translate(36,42)"/>
<path d="M0,0 L1,0 L1,1 L0,1 Z " fill="#D27345" opacity="0.7647059" transform="translate(36,38)"/>
<path d="M0,0 L1,0 L1,1 L0,1 Z " fill="#D07244" opacity="0.75686276" transform="translate(6,31)"/>
<path d="M0,0 L1,0 L1,1 L0,1 Z " fill="#E39669" opacity="0.7647059" transform="translate(36,29)"/>
<path d="M0,0 L1,0 L1,1 L0,1 Z " fill="#EEBB95" opacity="0.7647059" transform="translate(36,25)"/>
<path d="M0,0 L1,0 L1,1 L0,1 Z " fill="#E29466" opacity="0.75686276" transform="translate(6,22)"/>
<path d="M0,0 L1,0 L1,1 L0,1 Z " fill="#FDDCBD" opacity="0.77254903" transform="translate(30,21)"/>
<path d="M0,0 L1,0 L1,1 L0,1 Z " fill="#FFE0C1" opacity="0.93333334" transform="translate(32,19)"/>
<path d="M0,0 L1,0 L1,1 L0,1 Z " fill="#FFE0C1" opacity="0.93333334" transform="translate(28,19)"/>
<path d="M0,0 L1,0 L1,1 L0,1 Z " fill="#EDBB94" opacity="0.75686276" transform="translate(6,18)"/>
<path d="M0,0 L1,0 L1,1 L0,1 Z M-1,1 L0,1 L0,2 L-1,2 Z " fill="#E7B187" transform="translate(23,15)"/>
<path d="M0,0 L1,0 L1,1 L0,1 Z " fill="#343440" opacity="0.91764706" transform="translate(60,3)"/>
<path d="M0,0 L1,0 L1,1 L0,1 Z " fill="#EC9264" opacity="0.83137256" transform="translate(34,58)"/>
<path d="M0,0 L1,0 L1,1 L0,1 Z " fill="#EE9265" opacity="0.9098039" transform="translate(30,58)"/>
<path d="M0,0 L1,0 L1,1 L0,1 Z " fill="#E6895B" opacity="0.7607843" transform="translate(26,58)"/>
<path d="M0,0 L1,0 L1,1 L0,1 Z " fill="#E8895B" opacity="0.7607843" transform="translate(41,57)"/>
<path d="M0,0 L1,0 L1,1 L0,1 Z " fill="#ED9064" opacity="0.8" transform="translate(23,57)"/>
<path d="M0,0 L1,0 L1,1 L0,1 Z " fill="#E28354" opacity="0.8235294" transform="translate(44,56)"/>
<path d="M0,0 L1,0 L1,1 L0,1 Z " fill="#ED9163" opacity="0.80784315" transform="translate(20,56)"/>
<path d="M0,0 L1,0 L1,1 L0,1 Z " fill="#DF7F4F" opacity="0.96862745" transform="translate(47,55)"/>
<path d="M0,0 L1,0 L1,1 L0,1 Z " fill="#ED9265" opacity="0.8901961" transform="translate(18,55)"/>
<path d="M0,0 L1,0 L1,1 L0,1 Z " fill="#E17E50" opacity="0.91764706" transform="translate(49,54)"/>
<path d="M0,0 L1,0 L1,1 L0,1 Z " fill="#EE9265" opacity="0.9411765" transform="translate(16,54)"/>
<path d="M0,0 L1,0 L1,1 L0,1 Z " fill="#E18254" opacity="0.85490197" transform="translate(51,53)"/>
<path d="M0,0 L1,0 L1,1 L0,1 Z " fill="#EE9366" opacity="0.98039216" transform="translate(14,53)"/>
<path d="M0,0 L1,0 L1,1 L0,1 Z " fill="#E28152" opacity="0.8509804" transform="translate(54,52)"/>
<path d="M0,0 L1,0 L1,1 L0,1 Z " fill="#E98C5E" opacity="0.7529412" transform="translate(10,52)"/>
<path d="M0,0 L1,0 L1,1 L0,1 Z " fill="#E18354" opacity="0.8352941" transform="translate(4,51)"/>
<path d="M0,0 L1,0 L1,1 L0,1 Z " fill="#DF8050" opacity="0.90588236" transform="translate(2,51)"/>
<path d="M0,0 L1,0 L1,1 L0,1 Z " fill="#E28151" opacity="0.88235295" transform="translate(52,45)"/>
<path d="M0,0 L1,0 L1,1 L0,1 Z " fill="#ED9263" opacity="0.8745098" transform="translate(54,44)"/>
<path d="M0,0 L1,0 L1,1 L0,1 Z " fill="#ED9165" opacity="0.88235295" transform="translate(49,44)"/>
<path d="M0,0 L1,0 L1,1 L0,1 Z " fill="#C86C3E" opacity="0.83137256" transform="translate(34,42)"/>
<path d="M0,0 L1,0 L1,1 L0,1 Z " fill="#C6693D" opacity="0.9098039" transform="translate(30,42)"/>
<path d="M0,0 L1,0 L1,1 L0,1 Z " fill="#D87C4F" opacity="0.7607843" transform="translate(26,42)"/>
<path d="M0,0 L1,0 L1,1 L0,1 Z " fill="#E08151" opacity="0.89411765" transform="translate(52,41)"/>
<path d="M0,0 L1,0 L1,1 L0,1 Z " fill="#D87C4F" opacity="0.7607843" transform="translate(41,41)"/>
<path d="M0,0 L1,0 L1,1 L0,1 Z " fill="#CA6E41" opacity="0.8" transform="translate(23,41)"/>
<path d="M0,0 L1,0 L1,1 L0,1 Z " fill="#C96D41" opacity="0.80784315" transform="translate(20,40)"/>
<path d="M0,0 L1,0 L1,1 L0,1 Z " fill="#ED9163" opacity="0.96862745" transform="translate(47,39)"/>
<path d="M0,0 L1,0 L1,1 L0,1 Z " fill="#C76A3E" opacity="0.8901961" transform="translate(18,39)"/>
<path d="M0,0 L1,0 L1,1 L0,1 Z " fill="#D87749" opacity="0.83137256" transform="translate(34,38)"/>
<path d="M0,0 L1,0 L1,1 L0,1 Z " fill="#DB7B4C" opacity="0.9098039" transform="translate(30,38)"/>
<path d="M0,0 L1,0 L1,1 L0,1 Z " fill="#CB6E41" opacity="0.7607843" transform="translate(26,38)"/>
<path d="M0,0 L1,0 L1,1 L0,1 Z " fill="#C6693D" opacity="0.9411765" transform="translate(16,38)"/>
<path d="M0,0 L1,0 L1,1 L0,1 Z " fill="#CC6E40" opacity="0.7607843" transform="translate(41,37)"/>
<path d="M0,0 L1,0 L1,1 L0,1 Z " fill="#D67548" opacity="0.8" transform="translate(23,37)"/>
<path d="M0,0 L1,0 L1,1 L0,1 Z " fill="#C6693D" opacity="0.98039216" transform="translate(14,37)"/>
<path d="M0,0 L1,0 L1,1 L0,1 Z " fill="#E48A5D" opacity="0.8509804" transform="translate(54,36)"/>
<path d="M0,0 L1,0 L1,1 L0,1 Z " fill="#C76B3E" opacity="0.8235294" transform="translate(44,36)"/>
<path d="M0,0 L1,0 L1,1 L0,1 Z " fill="#D67748" opacity="0.80784315" transform="translate(20,36)"/>
<path d="M0,0 L1,0 L1,1 L0,1 Z " fill="#C76A3F" opacity="0.8745098" transform="translate(11,36)"/>
<path d="M0,0 L1,0 L1,1 L0,1 Z " fill="#C5693E" opacity="0.96862745" transform="translate(47,35)"/>
<path d="M0,0 L1,0 L1,1 L0,1 Z " fill="#DB7A4B" opacity="0.8901961" transform="translate(18,35)"/>
<path d="M0,0 L1,0 L1,1 L0,1 Z " fill="#D07346" opacity="0.75686276" transform="translate(6,35)"/>
<path d="M0,0 L1,0 L1,1 L0,1 Z " fill="#E4865A" opacity="0.8352941" transform="translate(4,35)"/>
<path d="M0,0 L1,0 L1,1 L0,1 Z " fill="#E88D60" opacity="0.90588236" transform="translate(2,35)"/>
<path d="M0,0 L1,0 L1,1 L0,1 Z " fill="#C76A3D" opacity="0.91764706" transform="translate(49,34)"/>
<path d="M0,0 L1,0 L1,1 L0,1 Z " fill="#DC7B4C" opacity="0.9411765" transform="translate(16,34)"/>
<path d="M0,0 L1,0 L1,1 L0,1 Z " fill="#C76A3E" opacity="0.85490197" transform="translate(51,33)"/>
<path d="M0,0 L1,0 L1,1 L0,1 Z " fill="#DE7C4C" opacity="0.98039216" transform="translate(14,33)"/>
<path d="M0,0 L1,0 L1,1 L0,1 Z " fill="#C76A3D" opacity="0.8509804" transform="translate(54,32)"/>
<path d="M0,0 L1,0 L1,1 L0,1 Z " fill="#DA794A" opacity="0.8745098" transform="translate(11,32)"/>
<path d="M0,0 L1,0 L1,1 L0,1 Z " fill="#C66A3E" transform="translate(0,32)"/>
<path d="M0,0 L1,0 L1,1 L0,1 Z " fill="#D17343" opacity="0.75686276" transform="translate(57,31)"/>
<path d="M0,0 L1,0 L1,1 L0,1 Z " fill="#C6693C" opacity="0.90588236" transform="translate(2,31)"/>
<path d="M0,0 L1,0 L1,1 L0,1 Z " fill="#E5A377" opacity="0.83137256" transform="translate(34,29)"/>
<path d="M0,0 L1,0 L1,1 L0,1 Z " fill="#E7AB80" opacity="0.9098039" transform="translate(30,29)"/>
<path d="M0,0 L1,0 L1,1 L0,1 Z " fill="#E0895B" opacity="0.7607843" transform="translate(26,29)"/>
<path d="M0,0 L1,0 L1,1 L0,1 Z " fill="#E0895B" opacity="0.7607843" transform="translate(41,28)"/>
<path d="M0,0 L1,0 L1,1 L0,1 Z " fill="#E49F73" opacity="0.8" transform="translate(23,28)"/>
<path d="M0,0 L1,0 L1,1 L0,1 Z " fill="#DD8051" opacity="0.8235294" transform="translate(44,27)"/>
<path d="M0,0 L1,0 L1,1 L0,1 Z " fill="#E4A074" opacity="0.80784315" transform="translate(20,27)"/>
<path d="M0,0 L1,0 L1,1 L0,1 Z " fill="#DE7E4E" opacity="0.96862745" transform="translate(47,26)"/>
<path d="M0,0 L1,0 L1,1 L0,1 Z " fill="#DF7D4E" opacity="0.91764706" transform="translate(49,25)"/>
<path d="M0,0 L1,0 L1,1 L0,1 Z " fill="#F0C19C" opacity="0.83137256" transform="translate(34,25)"/>
<path d="M0,0 L1,0 L1,1 L0,1 Z " fill="#F2C5A1" opacity="0.9098039" transform="translate(30,25)"/>
<path d="M0,0 L1,0 L1,1 L0,1 Z " fill="#EAB68D" opacity="0.7607843" transform="translate(26,25)"/>
<path d="M0,0 L1,0 L1,1 L0,1 Z " fill="#DD7E51" opacity="0.85490197" transform="translate(51,24)"/>
<path d="M0,0 L1,0 L1,1 L0,1 Z " fill="#EAB68E" opacity="0.7607843" transform="translate(41,24)"/>
<path d="M0,0 L1,0 L1,1 L0,1 Z " fill="#EFC099" opacity="0.8" transform="translate(23,24)"/>
<path d="M0,0 L1,0 L1,1 L0,1 Z " fill="#E6AF85" opacity="0.98039216" transform="translate(14,24)"/>
<path d="M0,0 L1,0 L1,1 L0,1 Z " fill="#DE7F50" opacity="0.8509804" transform="translate(54,23)"/>
<path d="M0,0 L1,0 L1,1 L0,1 Z " fill="#E7B388" opacity="0.8235294" transform="translate(44,23)"/>
<path d="M0,0 L1,0 L1,1 L0,1 Z " fill="#F1BF9B" opacity="0.80784315" transform="translate(20,23)"/>
<path d="M0,0 L1,0 L1,1 L0,1 Z " fill="#E5A77D" opacity="0.8745098" transform="translate(11,23)"/>
<path d="M0,0 L1,0 L1,1 L0,1 Z " fill="#E29468" opacity="0.75686276" transform="translate(57,22)"/>
<path d="M0,0 L1,0 L1,1 L0,1 Z " fill="#E7B186" opacity="0.96862745" transform="translate(47,22)"/>
<path d="M0,0 L1,0 L1,1 L0,1 Z " fill="#F1C4A0" opacity="0.8901961" transform="translate(18,22)"/>
<path d="M0,0 L1,0 L1,1 L0,1 Z " fill="#DE8051" opacity="0.8352941" transform="translate(4,22)"/>
<path d="M0,0 L1,0 L1,1 L0,1 Z " fill="#DD7E4E" opacity="0.90588236" transform="translate(2,22)"/>
<path d="M0,0 L1,0 L1,1 L0,1 Z " fill="#E7B186" opacity="0.91764706" transform="translate(49,21)"/>
<path d="M0,0 L1,0 L1,1 L0,1 Z " fill="#E8B188" opacity="0.85490197" transform="translate(51,20)"/>
<path d="M0,0 L1,0 L1,1 L0,1 Z " fill="#F3C6A3" opacity="0.98039216" transform="translate(14,20)"/>
<path d="M0,0 L1,0 L1,1 L0,1 Z " fill="#E7B288" opacity="0.8509804" transform="translate(54,19)"/>
<path d="M0,0 L2,0 L2,1 L0,1 Z " fill="#F2C5A2" opacity="0.9254902" transform="translate(23,19)"/>
<path d="M0,0 L1,0 L1,1 L0,1 Z " fill="#F2C4A0" opacity="0.8745098" transform="translate(11,19)"/>
<path d="M0,0 L1,0 L1,1 L0,1 Z " fill="#E7B187" transform="translate(0,19)"/>
<path d="M0,0 L1,0 L1,1 L0,1 Z " fill="#EDBB94" opacity="0.75686276" transform="translate(57,18)"/>
<path d="M0,0 L1,0 L1,1 L0,1 Z " fill="#E7B086" opacity="0.9764706" transform="translate(24,18)"/>
<path d="M0,0 L1,0 L1,1 L0,1 Z " fill="#E7B187" opacity="0.8352941" transform="translate(4,18)"/>
<path d="M0,0 L1,0 L1,1 L0,1 Z " fill="#E7B187" opacity="0.90588236" transform="translate(2,18)"/>
<path d="M0,0 L1,0 L1,1 L0,1 Z " fill="#F0C19C" opacity="0.81960785" transform="translate(26,17)"/>
<path d="M0,0 L1,0 L1,1 L0,1 Z " fill="#F0C09C" opacity="0.827451" transform="translate(21,17)"/>
<path d="M0,0 L1,0 L1,1 L0,1 Z " fill="#F4C9A7" opacity="0.9529412" transform="translate(31,16)"/>
<path d="M0,0 L1,0 L1,1 L0,1 Z " fill="#F5CCA9" opacity="0.87058824" transform="translate(59,14)"/>
<path d="M0,0 L1,0 L1,1 L0,1 Z " fill="#E9B38A" opacity="0.7882353" transform="translate(24,14)"/>
<path d="M0,0 L1,0 L1,1 L0,1 Z " fill="#353540" opacity="0.9647059" transform="translate(63,11)"/>
<path d="M0,0 L1,0 L1,1 L0,1 Z " fill="#DCC2AC" opacity="0.77254903" transform="translate(59,9)"/>
<path d="M0,0 L1,0 L1,1 L0,1 Z " fill="#FDDDBE" opacity="0.7764706" transform="translate(55,8)"/>
<path d="M0,0 L1,0 L1,1 L0,1 Z " fill="#323240" opacity="0.21960784" transform="translate(63,7)"/>
<path d="M0,0 L1,0 L1,1 L0,1 Z " fill="#353540" opacity="0.35686275" transform="translate(62,5)"/>
<path d="M0,0 L1,0 L1,1 L0,1 Z " fill="#393943" opacity="0.9843137" transform="translate(56,4)"/>
<path d="M0,0 L1,0 L1,1 L0,1 Z " fill="#343441" opacity="0.043137256" transform="translate(59,1)"/>
<path d="M0,0 L1,0 L1,1 L0,1 Z " fill="#333341" opacity="0.007843138" transform="translate(57,0)"/>
<path d="M0,0 L1,0 L1,1 L0,1 Z " fill="#E18253" opacity="0.85490197" transform="translate(38,58)"/>
<path d="M0,0 L1,0 L1,1 L0,1 Z " fill="#E9895B" opacity="0.75686276" transform="translate(37,58)"/>
<path d="M0,0 L1,0 L1,1 L0,1 Z " fill="#EC8F63" opacity="0.7882353" transform="translate(35,58)"/>
<path d="M0,0 L1,0 L1,1 L0,1 Z " fill="#ED9364" opacity="0.8862745" transform="translate(33,58)"/>
<path d="M0,0 L1,0 L1,1 L0,1 Z " fill="#EE9266" opacity="0.972549" transform="translate(31,58)"/>
<path d="M0,0 L1,0 L1,1 L0,1 Z " fill="#EE9264" opacity="0.85882354" transform="translate(29,58)"/>
<path d="M0,0 L1,0 L1,1 L0,1 Z " fill="#E98F61" opacity="0.7647059" transform="translate(27,58)"/>
<path d="M0,0 L1,0 L1,1 L0,1 Z " fill="#E28252" opacity="0.8392157" transform="translate(25,58)"/>
<path d="M0,0 L1,0 L1,1 L0,1 Z " fill="#DF7F4F" opacity="0.9764706" transform="translate(24,58)"/>
<path d="M0,0 L1,0 L1,1 L0,1 Z " fill="#E18151" opacity="0.9098039" transform="translate(42,57)"/>
<path d="M0,0 L1,0 L1,1 L0,1 Z " fill="#EB9061" opacity="0.78039217" transform="translate(40,57)"/>
<path d="M0,0 L1,0 L1,1 L0,1 Z " fill="#EE9265" opacity="0.92941177" transform="translate(39,57)"/>
<path d="M0,0 L1,0 L1,1 L0,1 Z " fill="#EE9265" opacity="0.9843137" transform="translate(24,57)"/>
<path d="M0,0 L1,0 L1,1 L0,1 Z " fill="#E6895B" opacity="0.7607843" transform="translate(22,57)"/>
<path d="M0,0 L1,0 L1,1 L0,1 Z " fill="#E07F51" opacity="0.92941177" transform="translate(21,57)"/>
<path d="M0,0 L1,0 L1,1 L0,1 Z " fill="#DE7E4E" transform="translate(45,56)"/>
<path d="M0,0 L1,0 L1,1 L0,1 Z " fill="#ED8F62" opacity="0.7764706" transform="translate(43,56)"/>
<path d="M0,0 L1,0 L1,1 L0,1 Z " fill="#EE9365" opacity="0.9882353" transform="translate(42,56)"/>
<path d="M0,0 L1,0 L1,1 L0,1 Z " fill="#EE9266" opacity="0.99215686" transform="translate(21,56)"/>
<path d="M0,0 L1,0 L1,1 L0,1 Z " fill="#E68758" opacity="0.78039217" transform="translate(19,56)"/>
<path d="M0,0 L1,0 L1,1 L0,1 Z " fill="#DE7E4D" opacity="0.99215686" transform="translate(18,56)"/>
<path d="M0,0 L1,0 L1,1 L0,1 Z " fill="#E7885A" opacity="0.7647059" transform="translate(46,55)"/>
<path d="M0,0 L1,0 L1,1 L0,1 Z " fill="#EE9264" opacity="0.8509804" transform="translate(45,55)"/>
<path d="M0,0 L1,0 L1,1 L0,1 Z " fill="#E9895B" opacity="0.75686276" transform="translate(17,55)"/>
<path d="M0,0 L1,0 L1,1 L0,1 Z " fill="#E07F4F" opacity="0.9607843" transform="translate(16,55)"/>
<path d="M0,0 L1,0 L1,1 L0,1 Z " fill="#E98C5E" opacity="0.7529412" transform="translate(48,54)"/>
<path d="M0,0 L1,0 L1,1 L0,1 Z " fill="#EE9265" opacity="0.9372549" transform="translate(47,54)"/>
<path d="M0,0 L1,0 L1,1 L0,1 Z " fill="#EA8D5E" opacity="0.7529412" transform="translate(15,54)"/>
<path d="M0,0 L1,0 L1,1 L0,1 Z " fill="#E18050" opacity="0.9137255" transform="translate(14,54)"/>
<path d="M0,0 L1,0 L1,1 L0,1 Z " fill="#DE7E4E" transform="translate(52,53)"/>
<path d="M0,0 L1,0 L1,1 L0,1 Z " fill="#E98F61" opacity="0.7647059" transform="translate(50,53)"/>
<path d="M0,0 L1,0 L1,1 L0,1 Z " fill="#EE9365" opacity="0.9764706" transform="translate(49,53)"/>
<path d="M0,0 L1,0 L1,1 L0,1 Z " fill="#EA8F61" opacity="0.7647059" transform="translate(13,53)"/>
<path d="M0,0 L1,0 L1,1 L0,1 Z " fill="#E28253" opacity="0.8509804" transform="translate(12,53)"/>
<path d="M0,0 L1,0 L1,1 L0,1 Z " fill="#E98C5D" opacity="0.7529412" transform="translate(53,52)"/>
<path d="M0,0 L1,0 L1,1 L0,1 Z " fill="#ED9264" opacity="0.87058824" transform="translate(52,52)"/>
<path d="M0,0 L1,0 L1,1 L0,1 Z " fill="#EE9165" opacity="0.8745098" transform="translate(11,52)"/>
<path d="M0,0 L1,0 L1,1 L0,1 Z " fill="#E28354" opacity="0.84705883" transform="translate(9,52)"/>
<path d="M0,0 L1,0 L1,1 L0,1 Z " fill="#DE7E4E" transform="translate(8,52)"/>
<path d="M0,0 L1,0 L1,1 L0,1 Z " fill="#E28354" opacity="0.827451" transform="translate(59,51)"/>
<path d="M0,0 L1,0 L1,1 L0,1 Z " fill="#E68959" opacity="0.7607843" transform="translate(58,51)"/>
<path d="M0,0 L1,0 L1,1 L0,1 Z " fill="#ED9263" opacity="0.8235294" transform="translate(56,51)"/>
<path d="M0,0 L1,0 L1,1 L0,1 Z " fill="#EE9365" opacity="0.9490196" transform="translate(55,51)"/>
<path d="M0,0 L1,0 L1,1 L0,1 Z " fill="#ED9265" opacity="0.94509804" transform="translate(8,51)"/>
<path d="M0,0 L1,0 L1,1 L0,1 Z " fill="#ED9163" opacity="0.8156863" transform="translate(7,51)"/>
<path d="M0,0 L1,0 L1,1 L0,1 Z " fill="#E7885A" opacity="0.7647059" transform="translate(5,51)"/>
<path d="M0,0 L1,0 L1,1 L0,1 Z " fill="#E28151" opacity="0.87058824" transform="translate(3,51)"/>
<path d="M0,0 L1,0 L1,1 L0,1 Z " fill="#E08051" opacity="0.9411765" transform="translate(1,51)"/>
<path d="M0,0 L1,0 L1,1 L0,1 Z " fill="#DE7F4E" opacity="0.9843137" transform="translate(0,51)"/>
<path d="M0,0 L1,0 L1,1 L0,1 Z " fill="#EC9164" opacity="0.8392157" transform="translate(53,45)"/>
<path d="M0,0 L1,0 L1,1 L0,1 Z " fill="#E08051" opacity="0.89411765" transform="translate(51,45)"/>
<path d="M0,0 L1,0 L1,1 L0,1 Z " fill="#ED9163" opacity="0.8235294" transform="translate(50,45)"/>
<path d="M0,0 L1,0 L1,1 L0,1 Z " fill="#DF7F4F" opacity="0.9529412" transform="translate(53,44)"/>
<path d="M0,0 L1,0 L1,1 L0,1 Z " fill="#DF7F4F" opacity="0.94509804" transform="translate(50,44)"/>
<path d="M0,0 L1,0 L1,1 L0,1 Z " fill="#EA8D5E" opacity="0.7529412" transform="translate(54,43)"/>
<path d="M0,0 L1,0 L1,1 L0,1 Z " fill="#EA8C5F" opacity="0.75686276" transform="translate(49,43)"/>
<path d="M0,0 L1,0 L1,1 L0,1 Z " fill="#ED9365" opacity="0.8666667" transform="translate(54,42)"/>
<path d="M0,0 L1,0 L1,1 L0,1 Z " fill="#E07F4F" opacity="0.9607843" transform="translate(53,42)"/>
<path d="M0,0 L1,0 L1,1 L0,1 Z " fill="#DF804F" opacity="0.9490196" transform="translate(50,42)"/>
<path d="M0,0 L1,0 L1,1 L0,1 Z " fill="#ED9264" opacity="0.87058824" transform="translate(49,42)"/>
<path d="M0,0 L1,0 L1,1 L0,1 Z " fill="#EE9265" transform="translate(39,42)"/>
<path d="M0,0 L1,0 L1,1 L0,1 Z " fill="#E78A5D" opacity="0.85490197" transform="translate(38,42)"/>
<path d="M0,0 L1,0 L1,1 L0,1 Z " fill="#D87A4E" opacity="0.75686276" transform="translate(37,42)"/>
<path d="M0,0 L1,0 L1,1 L0,1 Z " fill="#CB6E42" opacity="0.7882353" transform="translate(35,42)"/>
<path d="M0,0 L1,0 L1,1 L0,1 Z " fill="#C76A3E" opacity="0.8862745" transform="translate(33,42)"/>
<path d="M0,0 L1,0 L1,1 L0,1 Z " fill="#C66A3D" opacity="0.972549" transform="translate(31,42)"/>
<path d="M0,0 L1,0 L1,1 L0,1 Z " fill="#C76B3D" opacity="0.85882354" transform="translate(29,42)"/>
<path d="M0,0 L1,0 L1,1 L0,1 Z " fill="#CE7245" opacity="0.7647059" transform="translate(27,42)"/>
<path d="M0,0 L1,0 L1,1 L0,1 Z " fill="#E4885A" opacity="0.8392157" transform="translate(25,42)"/>
<path d="M0,0 L1,0 L1,1 L0,1 Z " fill="#EC9063" opacity="0.9764706" transform="translate(24,42)"/>
<path d="M0,0 L1,0 L1,1 L0,1 Z " fill="#ED9063" opacity="0.81960785" transform="translate(53,41)"/>
<path d="M0,0 L1,0 L1,1 L0,1 Z " fill="#DF8051" opacity="0.9019608" transform="translate(51,41)"/>
<path d="M0,0 L1,0 L1,1 L0,1 Z " fill="#ED9263" opacity="0.8235294" transform="translate(50,41)"/>
<path d="M0,0 L1,0 L1,1 L0,1 Z " fill="#E98E61" opacity="0.9098039" transform="translate(42,41)"/>
<path d="M0,0 L1,0 L1,1 L0,1 Z " fill="#CB6E41" opacity="0.78039217" transform="translate(40,41)"/>
<path d="M0,0 L1,0 L1,1 L0,1 Z " fill="#C6693D" opacity="0.92941177" transform="translate(39,41)"/>
<path d="M0,0 L1,0 L1,1 L0,1 Z " fill="#C56A3E" opacity="0.9843137" transform="translate(24,41)"/>
<path d="M0,0 L1,0 L1,1 L0,1 Z " fill="#D97D50" opacity="0.7607843" transform="translate(22,41)"/>
<path d="M0,0 L1,0 L1,1 L0,1 Z " fill="#EB8F62" opacity="0.92941177" transform="translate(21,41)"/>
<path d="M0,0 L1,0 L1,1 L0,1 Z " fill="#EE9265" transform="translate(45,40)"/>
<path d="M0,0 L1,0 L1,1 L0,1 Z " fill="#E38758" opacity="0.8235294" transform="translate(44,40)"/>
<path d="M0,0 L1,0 L1,1 L0,1 Z " fill="#CC7043" opacity="0.7764706" transform="translate(43,40)"/>
<path d="M0,0 L1,0 L1,1 L0,1 Z " fill="#C6693D" opacity="0.9882353" transform="translate(42,40)"/>
<path d="M0,0 L1,0 L1,1 L0,1 Z " fill="#C66A3D" opacity="0.99215686" transform="translate(21,40)"/>
<path d="M0,0 L1,0 L1,1 L0,1 Z " fill="#DD8153" opacity="0.78039217" transform="translate(19,40)"/>
<path d="M0,0 L1,0 L1,1 L0,1 Z " fill="#ED9165" opacity="0.99215686" transform="translate(18,40)"/>
<path d="M0,0 L1,0 L1,1 L0,1 Z " fill="#DB7E51" opacity="0.7647059" transform="translate(46,39)"/>
<path d="M0,0 L1,0 L1,1 L0,1 Z " fill="#C76B3E" opacity="0.8509804" transform="translate(45,39)"/>
<path d="M0,0 L1,0 L1,1 L0,1 Z " fill="#D87A4E" opacity="0.75686276" transform="translate(17,39)"/>
<path d="M0,0 L1,0 L1,1 L0,1 Z " fill="#ED9164" opacity="0.9607843" transform="translate(16,39)"/>
<path d="M0,0 L1,0 L1,1 L0,1 Z " fill="#EA8E61" opacity="0.91764706" transform="translate(49,38)"/>
<path d="M0,0 L1,0 L1,1 L0,1 Z " fill="#D27649" opacity="0.7529412" transform="translate(48,38)"/>
<path d="M0,0 L1,0 L1,1 L0,1 Z " fill="#C6683D" opacity="0.9372549" transform="translate(47,38)"/>
<path d="M0,0 L1,0 L1,1 L0,1 Z " fill="#C6693E" opacity="0.85490197" transform="translate(38,38)"/>
<path d="M0,0 L1,0 L1,1 L0,1 Z " fill="#CC6E40" opacity="0.75686276" transform="translate(37,38)"/>
<path d="M0,0 L1,0 L1,1 L0,1 Z " fill="#D57648" opacity="0.7882353" transform="translate(35,38)"/>
<path d="M0,0 L1,0 L1,1 L0,1 Z " fill="#DB7A4A" opacity="0.8862745" transform="translate(33,38)"/>
<path d="M0,0 L1,0 L1,1 L0,1 Z " fill="#DC7C4D" opacity="0.972549" transform="translate(31,38)"/>
<path d="M0,0 L1,0 L1,1 L0,1 Z " fill="#D97949" opacity="0.85882354" transform="translate(29,38)"/>
<path d="M0,0 L1,0 L1,1 L0,1 Z " fill="#D27245" opacity="0.7647059" transform="translate(27,38)"/>
<path d="M0,0 L1,0 L1,1 L0,1 Z " fill="#C66A3E" opacity="0.8392157" transform="translate(25,38)"/>
<path d="M0,0 L1,0 L1,1 L0,1 Z " fill="#C6693D" opacity="0.9764706" transform="translate(24,38)"/>
<path d="M0,0 L1,0 L1,1 L0,1 Z " fill="#D27649" opacity="0.7529412" transform="translate(15,38)"/>
<path d="M0,0 L1,0 L1,1 L0,1 Z " fill="#EA8E60" opacity="0.9137255" transform="translate(14,38)"/>
<path d="M0,0 L1,0 L1,1 L0,1 Z " fill="#EE9265" transform="translate(52,37)"/>
<path d="M0,0 L1,0 L1,1 L0,1 Z " fill="#E7895C" opacity="0.85490197" transform="translate(51,37)"/>
<path d="M0,0 L1,0 L1,1 L0,1 Z " fill="#CE7245" opacity="0.7647059" transform="translate(50,37)"/>
<path d="M0,0 L1,0 L1,1 L0,1 Z " fill="#C6693D" opacity="0.9764706" transform="translate(49,37)"/>
<path d="M0,0 L1,0 L1,1 L0,1 Z " fill="#C6693C" opacity="0.9098039" transform="translate(42,37)"/>
<path d="M0,0 L1,0 L1,1 L0,1 Z " fill="#D47646" opacity="0.78039217" transform="translate(40,37)"/>
<path d="M0,0 L1,0 L1,1 L0,1 Z " fill="#DD7C4D" opacity="0.92941177" transform="translate(39,37)"/>
<path d="M0,0 L1,0 L1,1 L0,1 Z " fill="#DD7D4D" opacity="0.9843137" transform="translate(24,37)"/>
<path d="M0,0 L1,0 L1,1 L0,1 Z " fill="#CB6D40" opacity="0.7607843" transform="translate(22,37)"/>
<path d="M0,0 L1,0 L1,1 L0,1 Z " fill="#C6693D" opacity="0.92941177" transform="translate(21,37)"/>
<path d="M0,0 L1,0 L1,1 L0,1 Z " fill="#CE7044" opacity="0.7647059" transform="translate(13,37)"/>
<path d="M0,0 L1,0 L1,1 L0,1 Z " fill="#E68A5C" opacity="0.8509804" transform="translate(12,37)"/>
<path d="M0,0 L1,0 L1,1 L0,1 Z " fill="#EE9265" transform="translate(11,37)"/>
<path d="M0,0 L1,0 L1,1 L0,1 Z " fill="#EE9265" transform="translate(55,36)"/>
<path d="M0,0 L1,0 L1,1 L0,1 Z " fill="#D27649" opacity="0.7529412" transform="translate(53,36)"/>
<path d="M0,0 L1,0 L1,1 L0,1 Z " fill="#C76A3E" opacity="0.87058824" transform="translate(52,36)"/>
<path d="M0,0 L1,0 L1,1 L0,1 Z " fill="#D47447" opacity="0.7764706" transform="translate(43,36)"/>
<path d="M0,0 L1,0 L1,1 L0,1 Z " fill="#DD7C4E" opacity="0.9882353" transform="translate(42,36)"/>
<path d="M0,0 L1,0 L1,1 L0,1 Z " fill="#DD7E4D" opacity="0.99215686" transform="translate(21,36)"/>
<path d="M0,0 L1,0 L1,1 L0,1 Z " fill="#C96C3F" opacity="0.78039217" transform="translate(19,36)"/>
<path d="M0,0 L1,0 L1,1 L0,1 Z " fill="#C66A3D" opacity="0.99215686" transform="translate(18,36)"/>
<path d="M0,0 L1,0 L1,1 L0,1 Z " fill="#D27649" opacity="0.7529412" transform="translate(10,36)"/>
<path d="M0,0 L1,0 L1,1 L0,1 Z " fill="#E5895B" opacity="0.84705883" transform="translate(9,36)"/>
<path d="M0,0 L1,0 L1,1 L0,1 Z " fill="#EE9265" transform="translate(8,36)"/>
<path d="M0,0 L1,0 L1,1 L0,1 Z " fill="#E4875A" opacity="0.827451" transform="translate(59,35)"/>
<path d="M0,0 L1,0 L1,1 L0,1 Z " fill="#D97C4F" opacity="0.7607843" transform="translate(58,35)"/>
<path d="M0,0 L1,0 L1,1 L0,1 Z " fill="#C96C3F" opacity="0.8235294" transform="translate(56,35)"/>
<path d="M0,0 L1,0 L1,1 L0,1 Z " fill="#C5693D" opacity="0.9490196" transform="translate(55,35)"/>
<path d="M0,0 L1,0 L1,1 L0,1 Z " fill="#CA6C40" opacity="0.7647059" transform="translate(46,35)"/>
<path d="M0,0 L1,0 L1,1 L0,1 Z " fill="#D9784A" opacity="0.8509804" transform="translate(45,35)"/>
<path d="M0,0 L1,0 L1,1 L0,1 Z " fill="#CC6E40" opacity="0.75686276" transform="translate(17,35)"/>
<path d="M0,0 L1,0 L1,1 L0,1 Z " fill="#C6693D" opacity="0.9607843" transform="translate(16,35)"/>
<path d="M0,0 L1,0 L1,1 L0,1 Z " fill="#C96C40" opacity="0.8156863" transform="translate(7,35)"/>
<path d="M0,0 L1,0 L1,1 L0,1 Z " fill="#D97E50" opacity="0.7647059" transform="translate(5,35)"/>
<path d="M0,0 L1,0 L1,1 L0,1 Z " fill="#E68A5D" opacity="0.87058824" transform="translate(3,35)"/>
<path d="M0,0 L1,0 L1,1 L0,1 Z " fill="#EB8E62" opacity="0.9411765" transform="translate(1,35)"/>
<path d="M0,0 L1,0 L1,1 L0,1 Z " fill="#ED9063" opacity="0.9843137" transform="translate(0,35)"/>
<path d="M0,0 L1,0 L1,1 L0,1 Z " fill="#CE7044" opacity="0.7529412" transform="translate(48,34)"/>
<path d="M0,0 L1,0 L1,1 L0,1 Z " fill="#DC7C4C" opacity="0.9372549" transform="translate(47,34)"/>
<path d="M0,0 L1,0 L1,1 L0,1 Z " fill="#D07042" opacity="0.7529412" transform="translate(15,34)"/>
<path d="M0,0 L1,0 L1,1 L0,1 Z " fill="#C66A3D" opacity="0.9137255" transform="translate(14,34)"/>
<path d="M0,0 L1,0 L1,1 L0,1 Z " fill="#D27245" opacity="0.7647059" transform="translate(50,33)"/>
<path d="M0,0 L1,0 L1,1 L0,1 Z " fill="#DD7D4E" opacity="0.9764706" transform="translate(49,33)"/>
<path d="M0,0 L1,0 L1,1 L0,1 Z " fill="#D27345" opacity="0.7647059" transform="translate(13,33)"/>
<path d="M0,0 L1,0 L1,1 L0,1 Z " fill="#C76A3D" opacity="0.8509804" transform="translate(12,33)"/>
<path d="M0,0 L1,0 L1,1 L0,1 Z " fill="#CE7044" opacity="0.7529412" transform="translate(53,32)"/>
<path d="M0,0 L1,0 L1,1 L0,1 Z " fill="#D97A4A" opacity="0.87058824" transform="translate(52,32)"/>
<path d="M0,0 L1,0 L1,1 L0,1 Z " fill="#CE7044" opacity="0.7529412" transform="translate(10,32)"/>
<path d="M0,0 L1,0 L1,1 L0,1 Z " fill="#C76A3D" opacity="0.84705883" transform="translate(9,32)"/>
<path d="M0,0 L1,0 L1,1 L0,1 Z " fill="#CB6D41" opacity="0.7607843" transform="translate(58,31)"/>
<path d="M0,0 L1,0 L1,1 L0,1 Z " fill="#D77747" opacity="0.8235294" transform="translate(56,31)"/>
<path d="M0,0 L1,0 L1,1 L0,1 Z " fill="#DD7C4C" opacity="0.9490196" transform="translate(55,31)"/>
<path d="M0,0 L1,0 L1,1 L0,1 Z " fill="#DC7D4D" opacity="0.94509804" transform="translate(8,31)"/>
<path d="M0,0 L1,0 L1,1 L0,1 Z " fill="#D77748" opacity="0.8156863" transform="translate(7,31)"/>
<path d="M0,0 L1,0 L1,1 L0,1 Z " fill="#CA6C40" opacity="0.7647059" transform="translate(5,31)"/>
<path d="M0,0 L1,0 L1,1 L0,1 Z " fill="#C66A3D" opacity="0.87058824" transform="translate(3,31)"/>
<path d="M0,0 L1,0 L1,1 L0,1 Z " fill="#C5693D" opacity="0.9411765" transform="translate(1,31)"/>
<path d="M0,0 L1,0 L1,1 L0,1 Z " fill="#C56A3E" opacity="0.9843137" transform="translate(0,31)"/>
<path d="M0,0 L1,0 L1,1 L0,1 Z " fill="#DF8051" opacity="0.85490197" transform="translate(38,29)"/>
<path d="M0,0 L1,0 L1,1 L0,1 Z " fill="#E1895B" opacity="0.75686276" transform="translate(37,29)"/>
<path d="M0,0 L1,0 L1,1 L0,1 Z " fill="#E39C71" opacity="0.7882353" transform="translate(35,29)"/>
<path d="M0,0 L1,0 L1,1 L0,1 Z " fill="#E7A97D" opacity="0.8862745" transform="translate(33,29)"/>
<path d="M0,0 L1,0 L1,1 L0,1 Z " fill="#E7AF84" opacity="0.972549" transform="translate(31,29)"/>
<path d="M0,0 L1,0 L1,1 L0,1 Z " fill="#E7A77A" opacity="0.85882354" transform="translate(29,29)"/>
<path d="M0,0 L1,0 L1,1 L0,1 Z " fill="#E19569" opacity="0.7647059" transform="translate(27,29)"/>
<path d="M0,0 L1,0 L1,1 L0,1 Z " fill="#DE8051" opacity="0.8392157" transform="translate(25,29)"/>
<path d="M0,0 L1,0 L1,1 L0,1 Z " fill="#DE7E4F" opacity="0.9764706" transform="translate(24,29)"/>
<path d="M0,0 L1,0 L1,1 L0,1 Z " fill="#DE7D4F" opacity="0.9098039" transform="translate(42,28)"/>
<path d="M0,0 L1,0 L1,1 L0,1 Z " fill="#E39A6F" opacity="0.78039217" transform="translate(40,28)"/>
<path d="M0,0 L1,0 L1,1 L0,1 Z " fill="#E7AB80" opacity="0.92941177" transform="translate(39,28)"/>
<path d="M0,0 L1,0 L1,1 L0,1 Z " fill="#E7AF84" opacity="0.9843137" transform="translate(24,28)"/>
<path d="M0,0 L1,0 L1,1 L0,1 Z " fill="#E18759" opacity="0.7607843" transform="translate(22,28)"/>
<path d="M0,0 L1,0 L1,1 L0,1 Z " fill="#DE7E4E" opacity="0.92941177" transform="translate(21,28)"/>
<path d="M0,0 L1,0 L1,1 L0,1 Z " fill="#E4996D" opacity="0.7764706" transform="translate(43,27)"/>
<path d="M0,0 L1,0 L1,1 L0,1 Z " fill="#E7AE85" opacity="0.9882353" transform="translate(42,27)"/>
<path d="M0,0 L1,0 L1,1 L0,1 Z " fill="#E7B084" opacity="0.99215686" transform="translate(21,27)"/>
<path d="M0,0 L1,0 L1,1 L0,1 Z " fill="#E18556" opacity="0.78039217" transform="translate(19,27)"/>
<path d="M0,0 L1,0 L1,1 L0,1 Z " fill="#DE7E4E" opacity="0.99215686" transform="translate(18,27)"/>
<path d="M0,0 L1,0 L1,1 L0,1 Z " fill="#E08859" opacity="0.7647059" transform="translate(46,26)"/>
<path d="M0,0 L1,0 L1,1 L0,1 Z " fill="#E6A579" opacity="0.8509804" transform="translate(45,26)"/>
<path d="M0,0 L1,0 L1,1 L0,1 Z " fill="#E7A97E" opacity="0.8901961" transform="translate(18,26)"/>
<path d="M0,0 L1,0 L1,1 L0,1 Z " fill="#E1895B" opacity="0.75686276" transform="translate(17,26)"/>
<path d="M0,0 L1,0 L1,1 L0,1 Z " fill="#DE7E4E" opacity="0.9607843" transform="translate(16,26)"/>
<path d="M0,0 L1,0 L1,1 L0,1 Z " fill="#E19062" opacity="0.7529412" transform="translate(48,25)"/>
<path d="M0,0 L1,0 L1,1 L0,1 Z " fill="#E7AC82" opacity="0.9372549" transform="translate(47,25)"/>
<path d="M0,0 L1,0 L1,1 L0,1 Z " fill="#E8B288" opacity="0.85490197" transform="translate(38,25)"/>
<path d="M0,0 L1,0 L1,1 L0,1 Z " fill="#EAB78F" opacity="0.75686276" transform="translate(37,25)"/>
<path d="M0,0 L1,0 L1,1 L0,1 Z " fill="#EFBF98" opacity="0.7882353" transform="translate(35,25)"/>
<path d="M0,0 L1,0 L1,1 L0,1 Z " fill="#F1C5A0" opacity="0.8862745" transform="translate(33,25)"/>
<path d="M0,0 L1,0 L1,1 L0,1 Z " fill="#F2C6A3" opacity="0.972549" transform="translate(31,25)"/>
<path d="M0,0 L1,0 L1,1 L0,1 Z " fill="#F1C39E" opacity="0.85882354" transform="translate(29,25)"/>
<path d="M0,0 L1,0 L1,1 L0,1 Z " fill="#EDBB95" opacity="0.7647059" transform="translate(27,25)"/>
<path d="M0,0 L1,0 L1,1 L0,1 Z " fill="#E8B288" opacity="0.8392157" transform="translate(25,25)"/>
<path d="M0,0 L1,0 L1,1 L0,1 Z " fill="#E7B086" opacity="0.9764706" transform="translate(24,25)"/>
<path d="M0,0 L1,0 L1,1 L0,1 Z " fill="#E6AC82" opacity="0.9411765" transform="translate(16,25)"/>
<path d="M0,0 L1,0 L1,1 L0,1 Z " fill="#E19162" opacity="0.7529412" transform="translate(15,25)"/>
<path d="M0,0 L1,0 L1,1 L0,1 Z " fill="#DF7E4F" opacity="0.9137255" transform="translate(14,25)"/>
<path d="M0,0 L1,0 L1,1 L0,1 Z " fill="#E19569" opacity="0.7647059" transform="translate(50,24)"/>
<path d="M0,0 L1,0 L1,1 L0,1 Z " fill="#E6AE83" opacity="0.9764706" transform="translate(49,24)"/>
<path d="M0,0 L1,0 L1,1 L0,1 Z " fill="#E7B186" opacity="0.9098039" transform="translate(42,24)"/>
<path d="M0,0 L1,0 L1,1 L0,1 Z " fill="#EFBE97" opacity="0.78039217" transform="translate(40,24)"/>
<path d="M0,0 L1,0 L1,1 L0,1 Z " fill="#F1C5A2" opacity="0.92941177" transform="translate(39,24)"/>
<path d="M0,0 L1,0 L1,1 L0,1 Z " fill="#F3C5A4" opacity="0.9843137" transform="translate(24,24)"/>
<path d="M0,0 L1,0 L1,1 L0,1 Z " fill="#E9B68D" opacity="0.7607843" transform="translate(22,24)"/>
<path d="M0,0 L1,0 L1,1 L0,1 Z " fill="#E7B187" opacity="0.92941177" transform="translate(21,24)"/>
<path d="M0,0 L1,0 L1,1 L0,1 Z " fill="#E3966A" opacity="0.7647059" transform="translate(13,24)"/>
<path d="M0,0 L1,0 L1,1 L0,1 Z " fill="#E08050" opacity="0.8509804" transform="translate(12,24)"/>
<path d="M0,0 L1,0 L1,1 L0,1 Z " fill="#E18E62" opacity="0.7529412" transform="translate(53,23)"/>
<path d="M0,0 L1,0 L1,1 L0,1 Z " fill="#E5A77B" opacity="0.87058824" transform="translate(52,23)"/>
<path d="M0,0 L1,0 L1,1 L0,1 Z " fill="#EFBE97" opacity="0.7764706" transform="translate(43,23)"/>
<path d="M0,0 L1,0 L1,1 L0,1 Z " fill="#F3C7A4" opacity="0.9882353" transform="translate(42,23)"/>
<path d="M0,0 L1,0 L1,1 L0,1 Z " fill="#F3C6A3" opacity="0.99215686" transform="translate(21,23)"/>
<path d="M0,0 L1,0 L1,1 L0,1 Z " fill="#EAB48C" opacity="0.78039217" transform="translate(19,23)"/>
<path d="M0,0 L1,0 L1,1 L0,1 Z " fill="#E7B186" opacity="0.99215686" transform="translate(18,23)"/>
<path d="M0,0 L1,0 L1,1 L0,1 Z " fill="#E19062" opacity="0.7529412" transform="translate(10,23)"/>
<path d="M0,0 L1,0 L1,1 L0,1 Z " fill="#DE8050" opacity="0.84705883" transform="translate(9,23)"/>
<path d="M0,0 L1,0 L1,1 L0,1 Z " fill="#E0895B" opacity="0.7607843" transform="translate(58,22)"/>
<path d="M0,0 L1,0 L1,1 L0,1 Z " fill="#E3A375" opacity="0.8235294" transform="translate(56,22)"/>
<path d="M0,0 L1,0 L1,1 L0,1 Z " fill="#E7AE83" opacity="0.9490196" transform="translate(55,22)"/>
<path d="M0,0 L1,0 L1,1 L0,1 Z " fill="#E9B58C" opacity="0.7647059" transform="translate(46,22)"/>
<path d="M0,0 L1,0 L1,1 L0,1 Z " fill="#F1C19E" opacity="0.8509804" transform="translate(45,22)"/>
<path d="M0,0 L1,0 L1,1 L0,1 Z " fill="#EAB78F" opacity="0.75686276" transform="translate(17,22)"/>
<path d="M0,0 L1,0 L1,1 L0,1 Z " fill="#E6B186" opacity="0.9607843" transform="translate(16,22)"/>
<path d="M0,0 L1,0 L1,1 L0,1 Z " fill="#E7AE83" opacity="0.94509804" transform="translate(8,22)"/>
<path d="M0,0 L1,0 L1,1 L0,1 Z " fill="#E4A274" opacity="0.8156863" transform="translate(7,22)"/>
<path d="M0,0 L1,0 L1,1 L0,1 Z " fill="#E08859" opacity="0.7647059" transform="translate(5,22)"/>
<path d="M0,0 L1,0 L1,1 L0,1 Z " fill="#DE7E4F" opacity="0.87058824" transform="translate(3,22)"/>
<path d="M0,0 L1,0 L1,1 L0,1 Z " fill="#DE7D4E" opacity="0.9411765" transform="translate(1,22)"/>
<path d="M0,0 L1,0 L1,1 L0,1 Z " fill="#DE7E4E" opacity="0.9843137" transform="translate(0,22)"/>
<path d="M0,0 L1,0 L1,1 L0,1 Z " fill="#EAB991" opacity="0.7529412" transform="translate(48,21)"/>
<path d="M0,0 L1,0 L1,1 L0,1 Z " fill="#F3C5A2" opacity="0.9372549" transform="translate(47,21)"/>
<path d="M0,0 L1,0 L1,1 L0,1 Z " fill="#F7D0AE" opacity="0.8" transform="translate(31,21)"/>
<path d="M0,0 L1,0 L1,1 L0,1 Z " fill="#F8D0B1" opacity="0.7882353" transform="translate(29,21)"/>
<path d="M0,0 L1,0 L1,1 L0,1 Z " fill="#F3C5A3" opacity="0.9411765" transform="translate(16,21)"/>
<path d="M0,0 L1,0 L1,1 L0,1 Z " fill="#ECB991" opacity="0.7529412" transform="translate(15,21)"/>
<path d="M0,0 L1,0 L1,1 L0,1 Z " fill="#E7B087" opacity="0.9137255" transform="translate(14,21)"/>
<path d="M0,0 L1,0 L1,1 L0,1 Z " fill="#EDBB95" opacity="0.7647059" transform="translate(50,20)"/>
<path d="M0,0 L1,0 L1,1 L0,1 Z " fill="#F3C6A3" opacity="0.9764706" transform="translate(49,20)"/>
<path d="M0,0 L1,0 L1,1 L0,1 Z " fill="#F9D3B3" opacity="0.77254903" transform="translate(32,20)"/>
<path d="M0,0 L1,0 L1,1 L0,1 Z " fill="#FFE0C2" opacity="0.99215686" transform="translate(31,20)"/>
<path d="M0,0 L1,0 L1,1 L0,1 Z " fill="#F9D2B2" opacity="0.7764706" transform="translate(28,20)"/>
<path d="M0,0 L1,0 L1,1 L0,1 Z " fill="#EDBB95" opacity="0.7647059" transform="translate(13,20)"/>
<path d="M0,0 L1,0 L1,1 L0,1 Z " fill="#E8B287" opacity="0.8509804" transform="translate(12,20)"/>
<path d="M0,0 L1,0 L1,1 L0,1 Z " fill="#EAB990" opacity="0.7529412" transform="translate(53,19)"/>
<path d="M0,0 L1,0 L1,1 L0,1 Z " fill="#F1C49F" opacity="0.87058824" transform="translate(52,19)"/>
<path d="M0,0 L1,0 L1,1 L0,1 Z " fill="#EAB991" opacity="0.7529412" transform="translate(10,19)"/>
<path d="M0,0 L1,0 L1,1 L0,1 Z " fill="#E8B188" opacity="0.84705883" transform="translate(9,19)"/>
<path d="M0,0 L1,0 L1,1 L0,1 Z " fill="#EAB48D" opacity="0.7607843" transform="translate(58,18)"/>
<path d="M0,0 L1,0 L1,1 L0,1 Z " fill="#F0C19C" opacity="0.8235294" transform="translate(56,18)"/>
<path d="M0,0 L1,0 L1,1 L0,1 Z " fill="#F3C5A2" opacity="0.9490196" transform="translate(55,18)"/>
<path d="M0,0 L1,0 L1,1 L0,1 Z " fill="#FEDEC0" opacity="0.8392157" transform="translate(32,18)"/>
<path d="M0,0 L1,0 L1,1 L0,1 Z " fill="#FFDFC0" opacity="0.8352941" transform="translate(28,18)"/>
<path d="M0,0 L1,0 L1,1 L0,1 Z " fill="#EDBD96" opacity="0.77254903" transform="translate(25,18)"/>
<path d="M0,0 L1,0 L1,1 L0,1 Z " fill="#E7B186" opacity="0.9843137" transform="translate(23,18)"/>
<path d="M0,0 L1,0 L1,1 L0,1 Z " fill="#EDBC94" opacity="0.76862746" transform="translate(22,18)"/>
<path d="M0,0 L1,0 L1,1 L0,1 Z " fill="#F3C6A2" opacity="0.94509804" transform="translate(8,18)"/>
<path d="M0,0 L1,0 L1,1 L0,1 Z " fill="#F0C19C" opacity="0.8156863" transform="translate(7,18)"/>
<path d="M0,0 L1,0 L1,1 L0,1 Z " fill="#E9B58C" opacity="0.7647059" transform="translate(5,18)"/>
<path d="M0,0 L1,0 L1,1 L0,1 Z " fill="#E6B188" opacity="0.87058824" transform="translate(3,18)"/>
<path d="M0,0 L1,0 L1,1 L0,1 Z " fill="#E7B086" opacity="0.9411765" transform="translate(1,18)"/>
<path d="M0,0 L1,0 L1,1 L0,1 Z " fill="#E7B186" opacity="0.9843137" transform="translate(0,18)"/>
<path d="M0,0 L1,0 L1,1 L0,1 Z " fill="#F5CBA9" opacity="0.89411765" transform="translate(32,17)"/>
<path d="M0,0 L1,0 L1,1 L0,1 Z " fill="#FFE0C0" opacity="0.8901961" transform="translate(31,17)"/>
<path d="M0,0 L1,0 L1,1 L0,1 Z " fill="#FFE0C1" opacity="0.88235295" transform="translate(29,17)"/>
<path d="M0,0 L1,0 L1,1 L0,1 Z " fill="#F4CBA8" opacity="0.9019608" transform="translate(28,17)"/>
<path d="M0,0 L1,0 L1,1 L0,1 Z " fill="#E7B187" opacity="0.99607843" transform="translate(22,17)"/>
<path d="M0,0 L1,0 L1,1 L0,1 Z " fill="#F7CFAD" opacity="0.81960785" transform="translate(30,16)"/>
<path d="M0,0 L1,0 L1,1 L0,1 Z " fill="#F3C8A5" opacity="0.9882353" transform="translate(29,16)"/>
<path d="M0,0 L1,0 L1,1 L0,1 Z " fill="#ECB993" opacity="0.75686276" transform="translate(26,16)"/>
<path d="M0,0 L1,0 L1,1 L0,1 Z " fill="#ECBB93" opacity="0.75686276" transform="translate(21,16)"/>
<path d="M0,0 L1,0 L1,1 L0,1 Z " fill="#F4C9A7" opacity="0.9529412" transform="translate(59,15)"/>
<path d="M0,0 L1,0 L1,1 L0,1 Z " fill="#F2C5A3" opacity="0.92156863" transform="translate(26,15)"/>
<path d="M0,0 L1,0 L1,1 L0,1 Z " fill="#E7B287" opacity="0.89411765" transform="translate(25,15)"/>
<path d="M0,0 L1,0 L1,1 L0,1 Z " fill="#E8B188" opacity="0.88235295" transform="translate(22,15)"/>
<path d="M0,0 L1,0 L1,1 L0,1 Z " fill="#F1C5A2" opacity="0.92941177" transform="translate(21,15)"/>
<path d="M0,0 L1,0 L1,1 L0,1 Z " fill="#F1C4A0" opacity="0.8980392" transform="translate(25,14)"/>
<path d="M0,0 L1,0 L1,1 L0,1 Z " fill="#E9B48B" opacity="0.76862746" transform="translate(23,14)"/>
<path d="M0,0 L1,0 L1,1 L0,1 Z " fill="#F1C4A0" opacity="0.8980392" transform="translate(22,14)"/>
<path d="M0,0 L1,0 L1,1 L0,1 Z " fill="#F9D3B2" opacity="0.76862746" transform="translate(59,13)"/>
<path d="M0,0 L1,0 L1,1 L0,1 Z " fill="#FEDDBE" opacity="0.7764706" transform="translate(59,12)"/>
<path d="M0,0 L1,0 L1,1 L0,1 Z " fill="#FEDFC1" opacity="0.93333334" transform="translate(59,11)"/>
<path d="M0,0 L1,0 L1,1 L0,1 Z " fill="#F5CCAA" opacity="0.8784314" transform="translate(58,11)"/>
<path d="M0,0 L1,0 L1,1 L0,1 Z " fill="#343440" opacity="0.84313726" transform="translate(63,10)"/>
<path d="M0,0 L1,0 L1,1 L0,1 Z " fill="#FEDFC0" opacity="0.84313726" transform="translate(58,10)"/>
<path d="M0,0 L1,0 L1,1 L0,1 Z " fill="#F3C8A5" opacity="0.96862745" transform="translate(57,10)"/>
<path d="M0,0 L1,0 L1,1 L0,1 Z " fill="#FFDFC0" opacity="0.8392157" transform="translate(57,9)"/>
<path d="M0,0 L1,0 L1,1 L0,1 Z " fill="#F5CBAA" opacity="0.88235295" transform="translate(56,9)"/>
<path d="M0,0 L1,0 L1,1 L0,1 Z " fill="#353540" opacity="0.5294118" transform="translate(63,8)"/>
<path d="M0,0 L1,0 L1,1 L0,1 Z " fill="#8D8078" opacity="0.78039217" transform="translate(59,8)"/>
<path d="M0,0 L1,0 L1,1 L0,1 Z " fill="#FFE0C2" opacity="0.9882353" transform="translate(56,8)"/>
<path d="M0,0 L1,0 L1,1 L0,1 Z " fill="#F9D2B2" opacity="0.77254903" transform="translate(54,8)"/>
<path d="M0,0 L1,0 L1,1 L0,1 Z " fill="#F5CCAA" opacity="0.8784314" transform="translate(53,8)"/>
<path d="M0,0 L1,0 L1,1 L0,1 Z " fill="#F4C9A5" opacity="0.95686275" transform="translate(52,8)"/>
<path d="M0,0 L1,0 L1,1 L0,1 Z " fill="#393944" opacity="0.98039216" transform="translate(59,7)"/>
<path d="M0,0 L1,0 L1,1 L0,1 Z " fill="#F9DABD" opacity="0.8627451" transform="translate(58,7)"/>
<path d="M0,0 L1,0 L1,1 L0,1 Z " fill="#343441" opacity="0.007843138" transform="translate(63,6)"/>
<path d="M0,0 L1,0 L1,1 L0,1 Z " fill="#343441" opacity="0.89411765" transform="translate(62,6)"/>
<path d="M0,0 L1,0 L1,1 L0,1 Z " fill="#686060" opacity="0.8392157" transform="translate(58,6)"/>
<path d="M0,0 L1,0 L1,1 L0,1 Z " fill="#FFE0C1" opacity="0.96862745" transform="translate(57,6)"/>
<path d="M0,0 L1,0 L1,1 L0,1 Z " fill="#60595E" opacity="0.8509804" transform="translate(57,5)"/>
<path d="M0,0 L1,0 L1,1 L0,1 Z " fill="#FBDCC0" opacity="0.88235295" transform="translate(56,5)"/>
<path d="M0,0 L1,0 L1,1 L0,1 Z " fill="#343440" opacity="0.003921569" transform="translate(62,4)"/>
<path d="M0,0 L1,0 L1,1 L0,1 Z " fill="#343440" opacity="0.74509805" transform="translate(61,4)"/>
<path d="M0,0 L1,0 L1,1 L0,1 Z " fill="#857875" opacity="0.7882353" transform="translate(55,4)"/>
<path d="M0,0 L1,0 L1,1 L0,1 Z " fill="#E2C7AE" opacity="0.78039217" transform="translate(54,4)"/>
<path d="M0,0 L1,0 L1,1 L0,1 Z " fill="#F7D9BC" opacity="0.85882354" transform="translate(53,4)"/>
<path d="M0,0 L1,0 L1,1 L0,1 Z " fill="#FFE0C2" opacity="0.94509804" transform="translate(52,4)"/>
<path d="M0,0 L1,0 L1,1 L0,1 Z " fill="#30303E" opacity="0.14509805" transform="translate(61,3)"/>
<path d="M0,0 L1,0 L1,1 L0,1 Z " fill="#30303C" opacity="0.16470589" transform="translate(60,2)"/>
<path d="M0,0 L1,0 L1,1 L0,1 Z " fill="#353540" opacity="0.8509804" transform="translate(59,2)"/>
<path d="M0,0 L1,0 L1,1 L0,1 Z " fill="#343441" opacity="0.47843137" transform="translate(58,1)"/>
<path d="M0,0 L1,0 L1,1 L0,1 Z " fill="#353540" opacity="0.87058824" transform="translate(57,1)"/>
<path d="M0,0 L1,0 L1,1 L0,1 Z " fill="#333341" opacity="0.27450982" transform="translate(56,0)"/>
<path d="M0,0 L1,0 L1,1 L0,1 Z " fill="#333340" opacity="0.5803922" transform="translate(55,0)"/>
<path d="M0,0 L1,0 L1,1 L0,1 Z " fill="#353541" opacity="0.83137256" transform="translate(53,0)"/>
<path d="M0,0 L1,0 L1,1 L0,1 Z " fill="#343441" opacity="0.95686275" transform="translate(52,0)"/>
</svg>
