<?xml version="1.0" encoding="UTF-8"?>
<!-- Generator: visioncortex VTracer 0.6.4 -->
<svg version="1.1" xmlns="http://www.w3.org/2000/svg" width="64" height="64">
<path d="M0,0 L64,0 L64,52 L63,52 L63,57 L62,57 L62,59 L61,59 L61,60 L60,60 L60,61 L59,61 L59,62 L57,62 L57,63 L52,63 L52,64 L0,64 L0,47 L4,47 L4,48 L6,48 L6,47 L5,47 L5,46 L0,46 L0,34 L4,34 L4,35 L6,35 L6,34 L5,34 L5,33 L0,33 L0,30 L4,30 L4,31 L6,31 L6,30 L5,30 L5,29 L0,29 L0,23 L4,23 L4,24 L6,24 L6,23 L5,23 L5,22 L0,22 L0,19 L4,19 L4,20 L6,20 L6,19 L5,19 L5,18 L0,18 L0,7 L4,7 L4,8 L6,8 L6,7 L5,7 L5,6 L0,6 Z M27,6 L27,7 L26,7 L26,8 L28,8 L28,7 L36,7 L36,8 L38,8 L38,7 L37,7 L37,6 Z M59,6 L59,7 L58,7 L58,8 L60,8 L60,6 Z M6,8 L6,9 L7,9 L7,10 L8,10 L8,11 L9,11 L9,12 L10,12 L10,13 L12,13 L12,14 L20,14 L20,13 L22,13 L22,12 L23,12 L23,11 L24,11 L24,10 L25,10 L25,9 L26,9 L26,8 L24,8 L24,9 L23,9 L23,10 L22,10 L22,11 L21,11 L21,12 L19,12 L19,13 L13,13 L13,12 L11,12 L11,11 L10,11 L10,10 L9,10 L9,9 L8,9 L8,8 Z M38,8 L38,9 L39,9 L39,10 L40,10 L40,11 L41,11 L41,12 L42,12 L42,13 L44,13 L44,14 L52,14 L52,13 L54,13 L54,12 L55,12 L55,11 L56,11 L56,10 L57,10 L57,9 L58,9 L58,8 L56,8 L56,9 L55,9 L55,10 L54,10 L54,11 L53,11 L53,12 L51,12 L51,13 L45,13 L45,12 L43,12 L43,11 L42,11 L42,10 L41,10 L41,9 L40,9 L40,8 Z M27,18 L27,19 L26,19 L26,20 L28,20 L28,19 L36,19 L36,20 L38,20 L38,19 L37,19 L37,18 Z M59,18 L59,19 L58,19 L58,20 L60,20 L60,18 Z M6,20 L6,21 L7,21 L7,22 L8,22 L8,23 L9,23 L9,24 L10,24 L10,25 L12,25 L12,26 L20,26 L20,25 L22,25 L22,24 L23,24 L23,23 L24,23 L24,22 L25,22 L25,21 L26,21 L26,20 L24,20 L24,21 L23,21 L23,22 L22,22 L22,23 L21,23 L21,24 L19,24 L19,25 L13,25 L13,24 L11,24 L11,23 L10,23 L10,22 L9,22 L9,21 L8,21 L8,20 Z M38,20 L38,21 L39,21 L39,22 L40,22 L40,23 L41,23 L41,24 L42,24 L42,25 L44,25 L44,26 L52,26 L52,25 L54,25 L54,24 L55,24 L55,23 L56,23 L56,22 L57,22 L57,21 L58,21 L58,20 L56,20 L56,21 L55,21 L55,22 L54,22 L54,23 L53,23 L53,24 L51,24 L51,25 L45,25 L45,24 L43,24 L43,23 L42,23 L42,22 L41,22 L41,21 L40,21 L40,20 Z M27,22 L27,23 L26,23 L26,24 L28,24 L28,23 L36,23 L36,24 L38,24 L38,23 L37,23 L37,22 Z M59,22 L59,23 L58,23 L58,24 L60,24 L60,22 Z M6,24 L6,25 L7,25 L7,26 L8,26 L8,27 L9,27 L9,28 L10,28 L10,29 L12,29 L12,30 L20,30 L20,29 L22,29 L22,28 L23,28 L23,27 L24,27 L24,26 L25,26 L25,25 L26,25 L26,24 L24,24 L24,25 L23,25 L23,26 L22,26 L22,27 L21,27 L21,28 L19,28 L19,29 L13,29 L13,28 L11,28 L11,27 L10,27 L10,26 L9,26 L9,25 L8,25 L8,24 Z M38,24 L38,25 L39,25 L39,26 L40,26 L40,27 L41,27 L41,28 L42,28 L42,29 L44,29 L44,30 L52,30 L52,29 L54,29 L54,28 L55,28 L55,27 L56,27 L56,26 L57,26 L57,25 L58,25 L58,24 L56,24 L56,25 L55,25 L55,26 L54,26 L54,27 L53,27 L53,28 L51,28 L51,29 L45,29 L45,28 L43,28 L43,27 L42,27 L42,26 L41,26 L41,25 L40,25 L40,24 Z M27,29 L27,30 L26,30 L26,31 L28,31 L28,30 L36,30 L36,31 L38,31 L38,30 L37,30 L37,29 Z M59,29 L59,30 L58,30 L58,31 L60,31 L60,29 Z M6,31 L6,32 L7,32 L7,33 L8,33 L8,34 L9,34 L9,35 L10,35 L10,36 L12,36 L12,37 L20,37 L20,36 L22,36 L22,35 L23,35 L23,34 L24,34 L24,33 L25,33 L25,32 L26,32 L26,31 L24,31 L24,32 L23,32 L23,33 L22,33 L22,34 L21,34 L21,35 L19,35 L19,36 L13,36 L13,35 L11,35 L11,34 L10,34 L10,33 L9,33 L9,32 L8,32 L8,31 Z M38,31 L38,32 L39,32 L39,33 L40,33 L40,34 L41,34 L41,35 L42,35 L42,36 L44,36 L44,37 L52,37 L52,36 L54,36 L54,35 L55,35 L55,34 L56,34 L56,33 L57,33 L57,32 L58,32 L58,31 L56,31 L56,32 L55,32 L55,33 L54,33 L54,34 L53,34 L53,35 L51,35 L51,36 L45,36 L45,35 L43,35 L43,34 L42,34 L42,33 L41,33 L41,32 L40,32 L40,31 Z M27,33 L27,34 L26,34 L26,35 L28,35 L28,34 L36,34 L36,35 L38,35 L38,34 L37,34 L37,33 Z M59,33 L59,34 L58,34 L58,35 L60,35 L60,33 Z M6,35 L6,36 L7,36 L7,37 L8,37 L8,38 L9,38 L9,39 L10,39 L10,40 L12,40 L12,41 L20,41 L20,40 L22,40 L22,39 L23,39 L23,38 L24,38 L24,37 L25,37 L25,36 L26,36 L26,35 L24,35 L24,36 L23,36 L23,37 L22,37 L22,38 L21,38 L21,39 L19,39 L19,40 L13,40 L13,39 L11,39 L11,38 L10,38 L10,37 L9,37 L9,36 L8,36 L8,35 Z M38,35 L38,36 L39,36 L39,37 L40,37 L40,38 L41,38 L41,39 L42,39 L42,40 L44,40 L44,41 L52,41 L52,40 L54,40 L54,39 L55,39 L55,38 L56,38 L56,37 L57,37 L57,36 L58,36 L58,35 L56,35 L56,36 L55,36 L55,37 L54,37 L54,38 L53,38 L53,39 L51,39 L51,40 L45,40 L45,39 L43,39 L43,38 L42,38 L42,37 L41,37 L41,36 L40,36 L40,35 Z M27,46 L27,47 L26,47 L26,48 L28,48 L28,47 L36,47 L36,48 L38,48 L38,47 L37,47 L37,46 Z M59,46 L59,47 L58,47 L58,48 L60,48 L60,46 Z M6,48 L6,49 L7,49 L7,50 L8,50 L8,51 L9,51 L9,52 L10,52 L10,53 L12,53 L12,54 L20,54 L20,53 L22,53 L22,52 L23,52 L23,51 L24,51 L24,50 L25,50 L25,49 L26,49 L26,48 L24,48 L24,49 L23,49 L23,50 L22,50 L22,51 L21,51 L21,52 L19,52 L19,53 L13,53 L13,52 L11,52 L11,51 L10,51 L10,50 L9,50 L9,49 L8,49 L8,48 Z M38,48 L38,49 L39,49 L39,50 L40,50 L40,51 L41,51 L41,52 L42,52 L42,53 L44,53 L44,54 L52,54 L52,53 L54,53 L54,52 L55,52 L55,51 L56,51 L56,50 L57,50 L57,49 L58,49 L58,48 L56,48 L56,49 L55,49 L55,50 L54,50 L54,51 L53,51 L53,52 L51,52 L51,53 L45,53 L45,52 L43,52 L43,51 L42,51 L42,50 L41,50 L41,49 L40,49 L40,48 Z M59,52 L59,56 L58,56 L58,57 L57,57 L57,58 L56,58 L56,59 L58,59 L58,58 L59,58 L59,57 L60,57 L60,52 Z M52,59 L52,60 L56,60 L56,59 Z " fill="#CFD5DA" transform="translate(0,0)"/>
<path d="M0,0 L64,0 L64,52 L63,52 L63,57 L62,57 L62,59 L61,59 L61,60 L60,60 L60,61 L59,61 L59,62 L57,62 L57,63 L52,63 L52,64 L0,64 L0,60 L56,60 L56,59 L58,59 L58,58 L59,58 L59,57 L60,57 L60,18 L59,18 L59,19 L58,19 L58,20 L56,20 L56,21 L55,21 L55,22 L54,22 L54,23 L53,23 L53,24 L51,24 L51,25 L45,25 L45,24 L43,24 L43,23 L42,23 L42,22 L41,22 L41,21 L40,21 L40,20 L38,20 L38,19 L37,19 L37,18 L27,18 L27,19 L26,19 L26,20 L24,20 L24,21 L23,21 L23,22 L22,22 L22,23 L21,23 L21,24 L19,24 L19,25 L13,25 L13,24 L11,24 L11,23 L10,23 L10,22 L9,22 L9,21 L8,21 L8,20 L6,20 L6,19 L5,19 L5,18 L0,18 L0,7 L4,7 L4,8 L6,8 L6,7 L5,7 L5,6 L0,6 Z M27,6 L27,7 L26,7 L26,8 L28,8 L28,7 L36,7 L36,8 L38,8 L38,7 L37,7 L37,6 Z M59,6 L59,7 L58,7 L58,8 L60,8 L60,6 Z M6,8 L6,9 L7,9 L7,10 L8,10 L8,11 L9,11 L9,12 L10,12 L10,13 L12,13 L12,14 L20,14 L20,13 L22,13 L22,12 L23,12 L23,11 L24,11 L24,10 L25,10 L25,9 L26,9 L26,8 L24,8 L24,9 L23,9 L23,10 L22,10 L22,11 L21,11 L21,12 L19,12 L19,13 L13,13 L13,12 L11,12 L11,11 L10,11 L10,10 L9,10 L9,9 L8,9 L8,8 Z M38,8 L38,9 L39,9 L39,10 L40,10 L40,11 L41,11 L41,12 L42,12 L42,13 L44,13 L44,14 L52,14 L52,13 L54,13 L54,12 L55,12 L55,11 L56,11 L56,10 L57,10 L57,9 L58,9 L58,8 L56,8 L56,9 L55,9 L55,10 L54,10 L54,11 L53,11 L53,12 L51,12 L51,13 L45,13 L45,12 L43,12 L43,11 L42,11 L42,10 L41,10 L41,9 L40,9 L40,8 Z " fill="#A6B2BB" transform="translate(0,0)"/>
<path d="M0,0 L4,0 L4,1 L6,1 L6,2 L7,2 L7,3 L8,3 L8,4 L9,4 L9,5 L10,5 L10,6 L12,6 L12,7 L20,7 L20,6 L22,6 L22,5 L23,5 L23,4 L24,4 L24,3 L25,3 L25,2 L26,2 L26,1 L28,1 L28,0 L36,0 L36,1 L38,1 L38,2 L39,2 L39,3 L40,3 L40,4 L41,4 L41,5 L42,5 L42,6 L44,6 L44,7 L52,7 L52,6 L54,6 L54,5 L55,5 L55,4 L56,4 L56,3 L57,3 L57,2 L58,2 L58,1 L60,1 L60,3 L59,3 L59,4 L58,4 L58,5 L56,5 L56,6 L55,6 L55,7 L54,7 L54,8 L53,8 L53,9 L51,9 L51,10 L45,10 L45,9 L43,9 L43,8 L42,8 L42,7 L41,7 L41,6 L40,6 L40,5 L38,5 L38,4 L37,4 L37,3 L27,3 L27,4 L26,4 L26,5 L24,5 L24,6 L23,6 L23,7 L22,7 L22,8 L21,8 L21,9 L19,9 L19,10 L13,10 L13,9 L11,9 L11,8 L10,8 L10,7 L9,7 L9,6 L8,6 L8,5 L6,5 L6,4 L5,4 L5,3 L0,3 Z M0,4 L4,4 L4,5 L6,5 L6,6 L7,6 L7,7 L8,7 L8,8 L9,8 L9,9 L10,9 L10,10 L12,10 L12,11 L20,11 L20,10 L22,10 L22,9 L23,9 L23,8 L24,8 L24,7 L25,7 L25,6 L26,6 L26,5 L28,5 L28,4 L36,4 L36,5 L38,5 L38,6 L39,6 L39,7 L40,7 L40,8 L41,8 L41,9 L42,9 L42,10 L44,10 L44,11 L52,11 L52,10 L54,10 L54,9 L55,9 L55,8 L56,8 L56,7 L57,7 L57,6 L58,6 L58,5 L60,5 L60,10 L59,10 L59,11 L58,11 L58,12 L56,12 L56,13 L55,13 L55,14 L54,14 L54,15 L53,15 L53,16 L51,16 L51,17 L45,17 L45,16 L43,16 L43,15 L42,15 L42,14 L41,14 L41,13 L40,13 L40,12 L38,12 L38,11 L37,11 L37,10 L27,10 L27,11 L26,11 L26,12 L24,12 L24,13 L23,13 L23,14 L22,14 L22,15 L21,15 L21,16 L19,16 L19,17 L13,17 L13,16 L11,16 L11,15 L10,15 L10,14 L9,14 L9,13 L8,13 L8,12 L6,12 L6,11 L5,11 L5,10 L0,10 Z M0,11 L4,11 L4,12 L6,12 L6,13 L7,13 L7,14 L8,14 L8,15 L9,15 L9,16 L10,16 L10,17 L12,17 L12,18 L20,18 L20,17 L22,17 L22,16 L23,16 L23,15 L24,15 L24,14 L25,14 L25,13 L26,13 L26,12 L28,12 L28,11 L36,11 L36,12 L38,12 L38,13 L39,13 L39,14 L40,14 L40,15 L41,15 L41,16 L42,16 L42,17 L44,17 L44,18 L52,18 L52,17 L54,17 L54,16 L55,16 L55,15 L56,15 L56,14 L57,14 L57,13 L58,13 L58,12 L60,12 L60,14 L59,14 L59,15 L58,15 L58,16 L56,16 L56,17 L55,17 L55,18 L54,18 L54,19 L53,19 L53,20 L51,20 L51,21 L45,21 L45,20 L43,20 L43,19 L42,19 L42,18 L41,18 L41,17 L40,17 L40,16 L38,16 L38,15 L37,15 L37,14 L27,14 L27,15 L26,15 L26,16 L24,16 L24,17 L23,17 L23,18 L22,18 L22,19 L21,19 L21,20 L19,20 L19,21 L13,21 L13,20 L11,20 L11,19 L10,19 L10,18 L9,18 L9,17 L8,17 L8,16 L6,16 L6,15 L5,15 L5,14 L0,14 Z " fill="#BBC4CB" transform="translate(0,19)"/>
<path d="M0,0 L60,0 L60,6 L59,6 L59,7 L58,7 L58,8 L56,8 L56,9 L55,9 L55,10 L54,10 L54,11 L53,11 L53,12 L51,12 L51,13 L45,13 L45,12 L43,12 L43,11 L42,11 L42,10 L41,10 L41,9 L40,9 L40,8 L38,8 L38,7 L37,7 L37,6 L27,6 L27,7 L26,7 L26,8 L24,8 L24,9 L23,9 L23,10 L22,10 L22,11 L21,11 L21,12 L19,12 L19,13 L13,13 L13,12 L11,12 L11,11 L10,11 L10,10 L9,10 L9,9 L8,9 L8,8 L6,8 L6,7 L5,7 L5,6 L0,6 Z " fill="#BBC4CB" transform="translate(0,0)"/>
<path d="M0,0 L1,0 L1,1 L0,1 Z M32,0 L33,0 L33,1 L32,1 Z " fill="#BAC3CA" opacity="0.99607843" transform="translate(12,12)"/>
<path d="M0,0 L4,0 L4,1 L6,1 L6,2 L7,2 L7,3 L8,3 L8,4 L9,4 L9,5 L10,5 L10,6 L12,6 L12,7 L20,7 L20,6 L22,6 L22,5 L23,5 L23,4 L24,4 L24,3 L25,3 L25,2 L26,2 L26,1 L28,1 L28,0 L36,0 L36,1 L38,1 L38,2 L39,2 L39,3 L40,3 L40,4 L41,4 L41,5 L42,5 L42,6 L44,6 L44,7 L52,7 L52,6 L54,6 L54,5 L55,5 L55,4 L56,4 L56,3 L57,3 L57,2 L58,2 L58,1 L60,1 L60,5 L59,5 L59,9 L58,9 L58,10 L57,10 L57,11 L56,11 L56,12 L52,12 L52,13 L0,13 Z " fill="#BBC4CB" transform="translate(0,47)"/>
<path d="M0,0 L4,0 L4,52 L3,52 L3,57 L2,57 L2,59 L1,59 L1,60 L0,60 L0,61 L-1,61 L-1,62 L-3,62 L-3,63 L-8,63 L-8,64 L-60,64 L-60,60 L-4,60 L-4,59 L-2,59 L-2,58 L-1,58 L-1,57 L0,57 Z " fill="#353541" transform="translate(60,0)"/>
<path d="M0,0 L4,0 L4,1 L6,1 L6,2 L7,2 L7,3 L8,3 L8,4 L9,4 L9,5 L10,5 L10,6 L12,6 L12,7 L20,7 L20,6 L22,6 L22,5 L23,5 L23,4 L24,4 L24,3 L25,3 L25,2 L26,2 L26,1 L28,1 L28,0 L36,0 L36,1 L38,1 L38,2 L39,2 L39,3 L40,3 L40,4 L41,4 L41,5 L42,5 L42,6 L44,6 L44,7 L52,7 L52,6 L54,6 L54,5 L55,5 L55,4 L56,4 L56,3 L57,3 L57,2 L58,2 L58,1 L60,1 L60,3 L59,3 L59,4 L58,4 L58,5 L56,5 L56,6 L55,6 L55,7 L54,7 L54,8 L53,8 L53,9 L51,9 L51,10 L45,10 L45,9 L43,9 L43,8 L42,8 L42,7 L41,7 L41,6 L40,6 L40,5 L38,5 L38,4 L37,4 L37,3 L27,3 L27,4 L26,4 L26,5 L24,5 L24,6 L23,6 L23,7 L22,7 L22,8 L21,8 L21,9 L19,9 L19,10 L13,10 L13,9 L11,9 L11,8 L10,8 L10,7 L9,7 L9,6 L8,6 L8,5 L6,5 L6,4 L5,4 L5,3 L0,3 Z " fill="#CFD5DA" transform="translate(0,19)"/>
<path d="M0,0 L4,0 L4,1 L6,1 L6,2 L7,2 L7,3 L8,3 L8,4 L9,4 L9,5 L10,5 L10,6 L12,6 L12,7 L20,7 L20,6 L22,6 L22,5 L23,5 L23,4 L24,4 L24,3 L25,3 L25,2 L26,2 L26,1 L28,1 L28,0 L36,0 L36,1 L38,1 L38,2 L39,2 L39,3 L40,3 L40,4 L41,4 L41,5 L42,5 L42,6 L44,6 L44,7 L52,7 L52,6 L54,6 L54,5 L55,5 L55,4 L56,4 L56,3 L57,3 L57,2 L58,2 L58,1 L60,1 L60,3 L59,3 L59,4 L58,4 L58,5 L56,5 L56,6 L55,6 L55,7 L54,7 L54,8 L53,8 L53,9 L51,9 L51,10 L45,10 L45,9 L43,9 L43,8 L42,8 L42,7 L41,7 L41,6 L40,6 L40,5 L38,5 L38,4 L37,4 L37,3 L27,3 L27,4 L26,4 L26,5 L24,5 L24,6 L23,6 L23,7 L22,7 L22,8 L21,8 L21,9 L19,9 L19,10 L13,10 L13,9 L11,9 L11,8 L10,8 L10,7 L9,7 L9,6 L8,6 L8,5 L6,5 L6,4 L5,4 L5,3 L0,3 Z " fill="#A6B2BB" transform="translate(0,30)"/>
<path d="M0,0 L1,0 L1,1 L0,1 Z " fill="#D0D5DA" opacity="0.92156863" transform="translate(48,53)"/>
<path d="M0,0 L1,0 L1,1 L0,1 Z " fill="#D0D5DA" opacity="0.92156863" transform="translate(16,53)"/>
<path d="M0,0 L1,0 L1,1 L0,1 Z " fill="#ABB5BE" opacity="0.92156863" transform="translate(48,40)"/>
<path d="M0,0 L1,0 L1,1 L0,1 Z " fill="#ABB5BE" opacity="0.92156863" transform="translate(16,40)"/>
<path d="M0,0 L1,0 L1,1 L0,1 Z " fill="#B9C1CA" opacity="0.92156863" transform="translate(48,36)"/>
<path d="M0,0 L1,0 L1,1 L0,1 Z " fill="#B9C1CA" opacity="0.92156863" transform="translate(16,36)"/>
<path d="M0,0 L1,0 L1,1 L0,1 Z " fill="#ABB5BE" opacity="0.92156863" transform="translate(48,25)"/>
<path d="M0,0 L1,0 L1,1 L0,1 Z " fill="#ABB5BE" opacity="0.92156863" transform="translate(16,25)"/>
<path d="M0,0 L1,0 L1,1 L0,1 Z " fill="#B9C1CA" opacity="0.92156863" transform="translate(48,13)"/>
<path d="M0,0 L1,0 L1,1 L0,1 Z " fill="#B9C1CA" opacity="0.92156863" transform="translate(16,13)"/>
<path d="M0,0 L1,0 L1,1 L0,1 Z " fill="#CFD5DA" transform="translate(0,34)"/>
<path d="M0,0 L1,0 L1,1 L0,1 Z " fill="#A6B2BB" transform="translate(0,30)"/>
<path d="M0,0 L1,0 L1,1 L0,1 Z " fill="#CFD5DA" transform="translate(0,19)"/>
<path d="M0,0 L1,0 L1,1 L0,1 Z " fill="#A6B2BB" transform="translate(0,7)"/>
<path d="M0,0 L1,0 L1,1 L0,1 Z " fill="#BCC5CC" opacity="0.9607843" transform="translate(31,46)"/>
<path d="M0,0 L1,0 L1,1 L0,1 Z " fill="#CED5DA" opacity="0.9607843" transform="translate(31,33)"/>
<path d="M0,0 L1,0 L1,1 L0,1 Z " fill="#A6B2BB" opacity="0.9607843" transform="translate(31,29)"/>
<path d="M0,0 L1,0 L1,1 L0,1 Z " fill="#CED5DA" opacity="0.9607843" transform="translate(31,18)"/>
<path d="M0,0 L1,0 L1,1 L0,1 Z " fill="#A6B2BB" opacity="0.9607843" transform="translate(31,6)"/>
<path d="M0,0 L1,0 L1,1 L0,1 Z " fill="#333340" opacity="0.3137255" transform="translate(56,63)"/>
<path d="M0,0 L1,0 L1,1 L0,1 Z " fill="#32323F" opacity="0.31764707" transform="translate(63,56)"/>
<path d="M0,0 L1,0 L1,1 L0,1 Z " fill="#BBC4CB" transform="translate(0,47)"/>
<path d="M0,0 L1,0 L1,1 L0,1 Z " fill="#BBC4CB" transform="translate(0,23)"/>
<path d="M0,0 L1,0 L1,1 L0,1 Z " fill="#343441" opacity="0.76862746" transform="translate(54,63)"/>
<path d="M0,0 L1,0 L1,1 L0,1 Z " fill="#343441" opacity="0.03529412" transform="translate(59,62)"/>
<path d="M0,0 L1,0 L1,1 L0,1 Z " fill="#343440" opacity="0.03529412" transform="translate(62,59)"/>
<path d="M0,0 L1,0 L1,1 L0,1 Z " fill="#A0A6AF" opacity="0.7647059" transform="translate(54,59)"/>
<path d="M0,0 L1,0 L1,1 L0,1 Z " fill="#363642" opacity="0.99215686" transform="translate(59,56)"/>
<path d="M0,0 L1,0 L1,1 L0,1 Z " fill="#343440" opacity="0.78039217" transform="translate(63,54)"/>
<path d="M0,0 L1,0 L1,1 L0,1 Z " fill="#C9D0D6" opacity="0.7529412" transform="translate(50,53)"/>
<path d="M0,0 L1,0 L1,1 L0,1 Z " fill="#CDD4D9" opacity="0.8392157" transform="translate(46,53)"/>
<path d="M0,0 L1,0 L1,1 L0,1 Z " fill="#C9D0D6" opacity="0.7529412" transform="translate(18,53)"/>
<path d="M0,0 L1,0 L1,1 L0,1 Z " fill="#CDD4D9" opacity="0.8392157" transform="translate(14,53)"/>
<path d="M0,0 L1,0 L1,1 L0,1 Z " fill="#CFD4D9" opacity="0.8862745" transform="translate(42,51)"/>
<path d="M0,0 L1,0 L1,1 L0,1 Z " fill="#CFD4D9" opacity="0.8862745" transform="translate(10,51)"/>
<path d="M0,0 L1,0 L1,1 L0,1 Z " fill="#CCD2D7" opacity="0.77254903" transform="translate(35,46)"/>
<path d="M0,0 L1,0 L1,1 L0,1 Z " fill="#C4CAD1" opacity="0.7921569" transform="translate(29,46)"/>
<path d="M0,0 L1,0 L1,1 L0,1 Z " fill="#CCD2D7" opacity="0.7764706" transform="translate(3,46)"/>
<path d="M0,0 L1,0 L1,1 L0,1 Z " fill="#C1C9D0" opacity="0.7529412" transform="translate(50,40)"/>
<path d="M0,0 L1,0 L1,1 L0,1 Z " fill="#AFBAC2" opacity="0.8392157" transform="translate(46,40)"/>
<path d="M0,0 L1,0 L1,1 L0,1 Z " fill="#C1C9D0" opacity="0.7529412" transform="translate(18,40)"/>
<path d="M0,0 L1,0 L1,1 L0,1 Z " fill="#AFBAC2" opacity="0.8392157" transform="translate(14,40)"/>
<path d="M0,0 L1,0 L1,1 L0,1 Z " fill="#CFD5DA" opacity="0.9529412" transform="translate(53,39)"/>
<path d="M0,0 L1,0 L1,1 L0,1 Z " fill="#CFD5DA" opacity="0.9529412" transform="translate(21,39)"/>
<path d="M0,0 L1,0 L1,1 L0,1 Z " fill="#AEB8C1" opacity="0.7529412" transform="translate(50,36)"/>
<path d="M0,0 L1,0 L1,1 L0,1 Z " fill="#B7BFC7" opacity="0.8392157" transform="translate(46,36)"/>
<path d="M0,0 L1,0 L1,1 L0,1 Z " fill="#AEB8C1" opacity="0.7529412" transform="translate(18,36)"/>
<path d="M0,0 L1,0 L1,1 L0,1 Z " fill="#B7BFC7" opacity="0.8392157" transform="translate(14,36)"/>
<path d="M0,0 L1,0 L1,1 L0,1 Z " fill="#A6B2BB" opacity="0.9529412" transform="translate(53,35)"/>
<path d="M0,0 L1,0 L1,1 L0,1 Z " fill="#A6B2BB" opacity="0.9529412" transform="translate(21,35)"/>
<path d="M0,0 L1,0 L1,1 L0,1 Z " fill="#B9C2CA" opacity="0.77254903" transform="translate(35,33)"/>
<path d="M0,0 L1,0 L1,1 L0,1 Z " fill="#CAD2D7" opacity="0.7921569" transform="translate(29,33)"/>
<path d="M0,0 L1,0 L1,1 L0,1 Z " fill="#A7B2BC" opacity="0.90588236" transform="translate(59,30)"/>
<path d="M0,0 L1,0 L1,1 L0,1 Z " fill="#A7B2BC" opacity="0.90588236" transform="translate(27,30)"/>
<path d="M0,0 L1,0 L1,1 L0,1 Z " fill="#C9D0D6" opacity="0.7529412" transform="translate(50,29)"/>
<path d="M0,0 L1,0 L1,1 L0,1 Z " fill="#CDD4D9" opacity="0.8392157" transform="translate(46,29)"/>
<path d="M0,0 L1,0 L1,1 L0,1 Z " fill="#B0BCC2" opacity="0.77254903" transform="translate(35,29)"/>
<path d="M0,0 L1,0 L1,1 L0,1 Z " fill="#A8B3BE" opacity="0.7921569" transform="translate(29,29)"/>
<path d="M0,0 L1,0 L1,1 L0,1 Z " fill="#C9D0D6" opacity="0.7529412" transform="translate(18,29)"/>
<path d="M0,0 L1,0 L1,1 L0,1 Z " fill="#CDD4D9" opacity="0.8392157" transform="translate(14,29)"/>
<path d="M0,0 L1,0 L1,1 L0,1 Z " fill="#B1BBC4" opacity="0.7764706" transform="translate(3,29)"/>
<path d="M0,0 L1,0 L1,1 L0,1 Z " fill="#CFD4D9" opacity="0.8862745" transform="translate(42,27)"/>
<path d="M0,0 L1,0 L1,1 L0,1 Z " fill="#CFD4D9" opacity="0.8862745" transform="translate(10,27)"/>
<path d="M0,0 L1,0 L1,1 L0,1 Z " fill="#C1C9D0" opacity="0.7529412" transform="translate(50,25)"/>
<path d="M0,0 L1,0 L1,1 L0,1 Z " fill="#AFBAC2" opacity="0.8392157" transform="translate(46,25)"/>
<path d="M0,0 L1,0 L1,1 L0,1 Z " fill="#C1C9D0" opacity="0.7529412" transform="translate(18,25)"/>
<path d="M0,0 L1,0 L1,1 L0,1 Z " fill="#AFBAC2" opacity="0.8392157" transform="translate(14,25)"/>
<path d="M0,0 L1,0 L1,1 L0,1 Z " fill="#CFD5DA" opacity="0.9529412" transform="translate(53,24)"/>
<path d="M0,0 L1,0 L1,1 L0,1 Z " fill="#CFD5DA" opacity="0.9529412" transform="translate(21,24)"/>
<path d="M0,0 L1,0 L1,1 L0,1 Z " fill="#CCD2D7" opacity="0.77254903" transform="translate(35,22)"/>
<path d="M0,0 L1,0 L1,1 L0,1 Z " fill="#BCC5CC" opacity="0.9607843" transform="translate(31,22)"/>
<path d="M0,0 L1,0 L1,1 L0,1 Z " fill="#C4CAD1" opacity="0.7921569" transform="translate(29,22)"/>
<path d="M0,0 L1,0 L1,1 L0,1 Z " fill="#CCD2D7" opacity="0.7764706" transform="translate(3,22)"/>
<path d="M0,0 L1,0 L1,1 L0,1 Z " fill="#CED5DA" opacity="0.90588236" transform="translate(59,19)"/>
<path d="M0,0 L1,0 L1,1 L0,1 Z " fill="#CED5DA" opacity="0.90588236" transform="translate(27,19)"/>
<path d="M0,0 L1,0 L1,1 L0,1 Z " fill="#B9C2CA" opacity="0.77254903" transform="translate(35,18)"/>
<path d="M0,0 L1,0 L1,1 L0,1 Z " fill="#CAD2D7" opacity="0.7921569" transform="translate(29,18)"/>
<path d="M0,0 L1,0 L1,1 L0,1 Z " fill="#AEB8C1" opacity="0.7529412" transform="translate(50,13)"/>
<path d="M0,0 L1,0 L1,1 L0,1 Z " fill="#B7BFC7" opacity="0.8392157" transform="translate(46,13)"/>
<path d="M0,0 L1,0 L1,1 L0,1 Z " fill="#AEB8C1" opacity="0.7529412" transform="translate(18,13)"/>
<path d="M0,0 L1,0 L1,1 L0,1 Z " fill="#B7BFC7" opacity="0.8392157" transform="translate(14,13)"/>
<path d="M0,0 L1,0 L1,1 L0,1 Z " fill="#A6B2BB" opacity="0.9529412" transform="translate(53,12)"/>
<path d="M0,0 L1,0 L1,1 L0,1 Z " fill="#A6B2BB" opacity="0.9529412" transform="translate(21,12)"/>
<path d="M0,0 L1,0 L1,1 L0,1 Z " fill="#A7B2BC" opacity="0.90588236" transform="translate(59,7)"/>
<path d="M0,0 L1,0 L1,1 L0,1 Z " fill="#A7B2BC" opacity="0.90588236" transform="translate(27,7)"/>
<path d="M0,0 L1,0 L1,1 L0,1 Z " fill="#B0BCC2" opacity="0.77254903" transform="translate(35,6)"/>
<path d="M0,0 L1,0 L1,1 L0,1 Z " fill="#A8B3BE" opacity="0.7921569" transform="translate(29,6)"/>
<path d="M0,0 L1,0 L1,1 L0,1 Z " fill="#B1BBC4" opacity="0.7764706" transform="translate(3,6)"/>
<path d="M0,0 L1,0 L1,1 L0,1 Z " fill="#343440" opacity="0.02745098" transform="translate(57,63)"/>
<path d="M0,0 L1,0 L1,1 L0,1 Z " fill="#343441" opacity="0.5529412" transform="translate(55,63)"/>
<path d="M0,0 L1,0 L1,1 L0,1 Z " fill="#343440" opacity="0.8745098" transform="translate(53,63)"/>
<path d="M0,0 L1,0 L1,1 L0,1 Z " fill="#343440" opacity="0.96862745" transform="translate(52,63)"/>
<path d="M0,0 L1,0 L1,1 L0,1 Z " fill="#343440" opacity="0.49803922" transform="translate(58,62)"/>
<path d="M0,0 L1,0 L1,1 L0,1 Z " fill="#343440" opacity="0.91764706" transform="translate(57,62)"/>
<path d="M0,0 L1,0 L1,1 L0,1 Z " fill="#33333E" opacity="0.1764706" transform="translate(60,61)"/>
<path d="M0,0 L1,0 L1,1 L0,1 Z " fill="#343441" opacity="0.84705883" transform="translate(59,61)"/>
<path d="M0,0 L1,0 L1,1 L0,1 Z " fill="#343440" opacity="0.17254902" transform="translate(61,60)"/>
<path d="M0,0 L1,0 L1,1 L0,1 Z " fill="#343440" opacity="0.92156863" transform="translate(60,60)"/>
<path d="M0,0 L1,0 L1,1 L0,1 Z " fill="#353541" transform="translate(0,60)"/>
<path d="M0,0 L1,0 L1,1 L0,1 Z " fill="#343441" opacity="0.84705883" transform="translate(61,59)"/>
<path d="M0,0 L1,0 L1,1 L0,1 Z " fill="#666974" opacity="0.79607844" transform="translate(55,59)"/>
<path d="M0,0 L1,0 L1,1 L0,1 Z " fill="#B0B9C1" opacity="0.8235294" transform="translate(53,59)"/>
<path d="M0,0 L1,0 L1,1 L0,1 Z " fill="#BAC3C9" opacity="0.92941177" transform="translate(52,59)"/>
<path d="M0,0 L1,0 L1,1 L0,1 Z " fill="#343440" opacity="0.5019608" transform="translate(62,58)"/>
<path d="M0,0 L1,0 L1,1 L0,1 Z " fill="#565864" opacity="0.8352941" transform="translate(57,58)"/>
<path d="M0,0 L1,0 L1,1 L0,1 Z " fill="#B2BBC3" opacity="0.83137256" transform="translate(56,58)"/>
<path d="M0,0 L1,0 L1,1 L0,1 Z " fill="#32323F" opacity="0.02745098" transform="translate(63,57)"/>
<path d="M0,0 L1,0 L1,1 L0,1 Z " fill="#343440" opacity="0.91764706" transform="translate(62,57)"/>
<path d="M0,0 L1,0 L1,1 L0,1 Z " fill="#585A65" opacity="0.83137256" transform="translate(58,57)"/>
<path d="M0,0 L1,0 L1,1 L0,1 Z " fill="#BBC4CA" opacity="0.9647059" transform="translate(57,57)"/>
<path d="M0,0 L1,0 L1,1 L0,1 Z " fill="#B8C0C9" opacity="0.88235295" transform="translate(58,56)"/>
<path d="M0,0 L1,0 L1,1 L0,1 Z " fill="#333340" opacity="0.56078434" transform="translate(63,55)"/>
<path d="M0,0 L1,0 L1,1 L0,1 Z " fill="#61636F" opacity="0.8039216" transform="translate(59,55)"/>
<path d="M0,0 L1,0 L1,1 L0,1 Z " fill="#9FA7AE" opacity="0.7607843" transform="translate(59,54)"/>
<path d="M0,0 L1,0 L1,1 L0,1 Z " fill="#343440" opacity="0.8862745" transform="translate(63,53)"/>
<path d="M0,0 L1,0 L1,1 L0,1 Z " fill="#B8C0C9" opacity="0.88235295" transform="translate(59,53)"/>
<path d="M0,0 L1,0 L1,1 L0,1 Z " fill="#BDC6CC" opacity="0.92156863" transform="translate(51,53)"/>
<path d="M0,0 L1,0 L1,1 L0,1 Z " fill="#CED4D9" opacity="0.80784315" transform="translate(49,53)"/>
<path d="M0,0 L1,0 L1,1 L0,1 Z " fill="#CED4D9" opacity="0.9411765" transform="translate(47,53)"/>
<path d="M0,0 L1,0 L1,1 L0,1 Z " fill="#C8CED5" opacity="0.7529412" transform="translate(45,53)"/>
<path d="M0,0 L1,0 L1,1 L0,1 Z " fill="#BEC7CE" opacity="0.89411765" transform="translate(44,53)"/>
<path d="M0,0 L1,0 L1,1 L0,1 Z " fill="#BDC6CC" opacity="0.92156863" transform="translate(19,53)"/>
<path d="M0,0 L1,0 L1,1 L0,1 Z " fill="#CED4D9" opacity="0.80784315" transform="translate(17,53)"/>
<path d="M0,0 L1,0 L1,1 L0,1 Z " fill="#CED4D9" opacity="0.9411765" transform="translate(15,53)"/>
<path d="M0,0 L1,0 L1,1 L0,1 Z " fill="#C8CED5" opacity="0.7529412" transform="translate(13,53)"/>
<path d="M0,0 L1,0 L1,1 L0,1 Z " fill="#BEC7CE" opacity="0.89411765" transform="translate(12,53)"/>
<path d="M0,0 L1,0 L1,1 L0,1 Z " fill="#343441" opacity="0.972549" transform="translate(63,52)"/>
<path d="M0,0 L1,0 L1,1 L0,1 Z " fill="#BBC4CB" opacity="0.9607843" transform="translate(59,52)"/>
<path d="M0,0 L1,0 L1,1 L0,1 Z " fill="#BDC5CC" opacity="0.9529412" transform="translate(53,52)"/>
<path d="M0,0 L1,0 L1,1 L0,1 Z " fill="#C9D0D6" opacity="0.75686276" transform="translate(52,52)"/>
<path d="M0,0 L1,0 L1,1 L0,1 Z " fill="#CFD5DA" opacity="0.9647059" transform="translate(51,52)"/>
<path d="M0,0 L1,0 L1,1 L0,1 Z " fill="#CFD5DA" opacity="0.99607843" transform="translate(44,52)"/>
<path d="M0,0 L1,0 L1,1 L0,1 Z " fill="#C9D0D5" opacity="0.75686276" transform="translate(43,52)"/>
<path d="M0,0 L1,0 L1,1 L0,1 Z " fill="#BCC4CB" opacity="0.9647059" transform="translate(42,52)"/>
<path d="M0,0 L1,0 L1,1 L0,1 Z " fill="#BDC5CC" opacity="0.9529412" transform="translate(21,52)"/>
<path d="M0,0 L1,0 L1,1 L0,1 Z " fill="#C9D0D6" opacity="0.75686276" transform="translate(20,52)"/>
<path d="M0,0 L1,0 L1,1 L0,1 Z " fill="#CFD5DA" opacity="0.9647059" transform="translate(19,52)"/>
<path d="M0,0 L1,0 L1,1 L0,1 Z " fill="#CFD5DA" opacity="0.99607843" transform="translate(12,52)"/>
<path d="M0,0 L1,0 L1,1 L0,1 Z " fill="#C9D0D5" opacity="0.75686276" transform="translate(11,52)"/>
<path d="M0,0 L1,0 L1,1 L0,1 Z " fill="#BCC4CB" opacity="0.9647059" transform="translate(10,52)"/>
<path d="M0,0 L1,0 L1,1 L0,1 Z " fill="#BEC6CC" opacity="0.9019608" transform="translate(54,51)"/>
<path d="M0,0 L1,0 L1,1 L0,1 Z " fill="#CED4D9" opacity="0.85490197" transform="translate(53,51)"/>
<path d="M0,0 L1,0 L1,1 L0,1 Z " fill="#BFC9CE" opacity="0.85882354" transform="translate(41,51)"/>
<path d="M0,0 L1,0 L1,1 L0,1 Z " fill="#BEC6CC" opacity="0.9019608" transform="translate(22,51)"/>
<path d="M0,0 L1,0 L1,1 L0,1 Z " fill="#CED4D9" opacity="0.85490197" transform="translate(21,51)"/>
<path d="M0,0 L1,0 L1,1 L0,1 Z " fill="#BFC9CE" opacity="0.85882354" transform="translate(9,51)"/>
<path d="M0,0 L1,0 L1,1 L0,1 Z " fill="#C0C7CE" opacity="0.8392157" transform="translate(55,50)"/>
<path d="M0,0 L1,0 L1,1 L0,1 Z " fill="#CED4D9" opacity="0.91764706" transform="translate(54,50)"/>
<path d="M0,0 L1,0 L1,1 L0,1 Z " fill="#CED4D9" opacity="0.94509804" transform="translate(41,50)"/>
<path d="M0,0 L1,0 L1,1 L0,1 Z " fill="#C1CAD0" opacity="0.81960785" transform="translate(40,50)"/>
<path d="M0,0 L1,0 L1,1 L0,1 Z " fill="#C0C7CE" opacity="0.8392157" transform="translate(23,50)"/>
<path d="M0,0 L1,0 L1,1 L0,1 Z " fill="#CED4D9" opacity="0.91764706" transform="translate(22,50)"/>
<path d="M0,0 L1,0 L1,1 L0,1 Z " fill="#CED4D9" opacity="0.94509804" transform="translate(9,50)"/>
<path d="M0,0 L1,0 L1,1 L0,1 Z " fill="#C1CAD0" opacity="0.81960785" transform="translate(8,50)"/>
<path d="M0,0 L1,0 L1,1 L0,1 Z " fill="#C3CAD1" opacity="0.7921569" transform="translate(56,49)"/>
<path d="M0,0 L1,0 L1,1 L0,1 Z " fill="#CFD5DA" opacity="0.9647059" transform="translate(55,49)"/>
<path d="M0,0 L1,0 L1,1 L0,1 Z " fill="#CFD5DA" opacity="0.972549" transform="translate(40,49)"/>
<path d="M0,0 L1,0 L1,1 L0,1 Z " fill="#C4CBD0" opacity="0.7882353" transform="translate(39,49)"/>
<path d="M0,0 L1,0 L1,1 L0,1 Z " fill="#C3CAD1" opacity="0.7921569" transform="translate(24,49)"/>
<path d="M0,0 L1,0 L1,1 L0,1 Z " fill="#CFD5DA" opacity="0.9647059" transform="translate(23,49)"/>
<path d="M0,0 L1,0 L1,1 L0,1 Z " fill="#CFD5DA" opacity="0.972549" transform="translate(8,49)"/>
<path d="M0,0 L1,0 L1,1 L0,1 Z " fill="#C4CBD0" opacity="0.7882353" transform="translate(7,49)"/>
<path d="M0,0 L1,0 L1,1 L0,1 Z " fill="#C6CCD2" opacity="0.7647059" transform="translate(57,48)"/>
<path d="M0,0 L1,0 L1,1 L0,1 Z " fill="#CFD5DA" opacity="0.99215686" transform="translate(56,48)"/>
<path d="M0,0 L1,0 L1,1 L0,1 Z " fill="#CFD5DA" opacity="0.99215686" transform="translate(39,48)"/>
<path d="M0,0 L1,0 L1,1 L0,1 Z " fill="#C5CDD4" opacity="0.7607843" transform="translate(38,48)"/>
<path d="M0,0 L1,0 L1,1 L0,1 Z " fill="#C6CCD2" opacity="0.7647059" transform="translate(25,48)"/>
<path d="M0,0 L1,0 L1,1 L0,1 Z " fill="#CFD5DA" opacity="0.99215686" transform="translate(24,48)"/>
<path d="M0,0 L1,0 L1,1 L0,1 Z " fill="#CFD5DA" opacity="0.99215686" transform="translate(7,48)"/>
<path d="M0,0 L1,0 L1,1 L0,1 Z " fill="#C5CDD4" opacity="0.7607843" transform="translate(6,48)"/>
<path d="M0,0 L1,0 L1,1 L0,1 Z " fill="#BEC7CE" opacity="0.90588236" transform="translate(59,47)"/>
<path d="M0,0 L1,0 L1,1 L0,1 Z " fill="#CDD4D8" opacity="0.7882353" transform="translate(58,47)"/>
<path d="M0,0 L1,0 L1,1 L0,1 Z " fill="#CCD3D9" opacity="0.78431374" transform="translate(37,47)"/>
<path d="M0,0 L1,0 L1,1 L0,1 Z " fill="#BDC6CC" opacity="0.92156863" transform="translate(36,47)"/>
<path d="M0,0 L1,0 L1,1 L0,1 Z " fill="#BEC7CE" opacity="0.90588236" transform="translate(27,47)"/>
<path d="M0,0 L1,0 L1,1 L0,1 Z " fill="#CDD4D8" opacity="0.7882353" transform="translate(26,47)"/>
<path d="M0,0 L1,0 L1,1 L0,1 Z " fill="#CCD3D9" opacity="0.78431374" transform="translate(5,47)"/>
<path d="M0,0 L1,0 L1,1 L0,1 Z " fill="#BDC6CC" opacity="0.92156863" transform="translate(4,47)"/>
<path d="M0,0 L1,0 L1,1 L0,1 Z " fill="#CFD5DA" opacity="0.9647059" transform="translate(59,46)"/>
<path d="M0,0 L1,0 L1,1 L0,1 Z " fill="#CFD5DA" opacity="0.9647059" transform="translate(36,46)"/>
<path d="M0,0 L1,0 L1,1 L0,1 Z " fill="#C4CBD0" opacity="0.7882353" transform="translate(34,46)"/>
<path d="M0,0 L1,0 L1,1 L0,1 Z " fill="#BCC6CC" opacity="0.9137255" transform="translate(33,46)"/>
<path d="M0,0 L1,0 L1,1 L0,1 Z " fill="#BBC5CC" opacity="0.972549" transform="translate(32,46)"/>
<path d="M0,0 L1,0 L1,1 L0,1 Z " fill="#BEC6CD" opacity="0.8862745" transform="translate(30,46)"/>
<path d="M0,0 L1,0 L1,1 L0,1 Z " fill="#CCD2D8" opacity="0.78039217" transform="translate(28,46)"/>
<path d="M0,0 L1,0 L1,1 L0,1 Z " fill="#CFD5D9" opacity="0.9764706" transform="translate(27,46)"/>
<path d="M0,0 L1,0 L1,1 L0,1 Z " fill="#CFD5DA" opacity="0.972549" transform="translate(4,46)"/>
<path d="M0,0 L1,0 L1,1 L0,1 Z " fill="#C2CBD1" opacity="0.79607844" transform="translate(2,46)"/>
<path d="M0,0 L1,0 L1,1 L0,1 Z " fill="#BEC6CD" opacity="0.8862745" transform="translate(1,46)"/>
<path d="M0,0 L1,0 L1,1 L0,1 Z " fill="#BCC5CC" opacity="0.9607843" transform="translate(0,46)"/>
<path d="M0,0 L1,0 L1,1 L0,1 Z " fill="#CED4D9" opacity="0.92156863" transform="translate(51,40)"/>
<path d="M0,0 L1,0 L1,1 L0,1 Z " fill="#B4BEC5" opacity="0.80784315" transform="translate(49,40)"/>
<path d="M0,0 L1,0 L1,1 L0,1 Z " fill="#A9B4BD" opacity="0.9411765" transform="translate(47,40)"/>
<path d="M0,0 L1,0 L1,1 L0,1 Z " fill="#C0C8D0" opacity="0.7529412" transform="translate(45,40)"/>
<path d="M0,0 L1,0 L1,1 L0,1 Z " fill="#CED5D9" opacity="0.89411765" transform="translate(44,40)"/>
<path d="M0,0 L1,0 L1,1 L0,1 Z " fill="#CED4D9" opacity="0.92156863" transform="translate(19,40)"/>
<path d="M0,0 L1,0 L1,1 L0,1 Z " fill="#B4BEC5" opacity="0.80784315" transform="translate(17,40)"/>
<path d="M0,0 L1,0 L1,1 L0,1 Z " fill="#A9B4BD" opacity="0.9411765" transform="translate(15,40)"/>
<path d="M0,0 L1,0 L1,1 L0,1 Z " fill="#C0C8D0" opacity="0.7529412" transform="translate(13,40)"/>
<path d="M0,0 L1,0 L1,1 L0,1 Z " fill="#CED5D9" opacity="0.89411765" transform="translate(12,40)"/>
<path d="M0,0 L1,0 L1,1 L0,1 Z " fill="#BFC8CD" opacity="0.75686276" transform="translate(52,39)"/>
<path d="M0,0 L1,0 L1,1 L0,1 Z " fill="#A8B2BD" opacity="0.9647059" transform="translate(51,39)"/>
<path d="M0,0 L1,0 L1,1 L0,1 Z " fill="#A7B2BB" opacity="0.99607843" transform="translate(44,39)"/>
<path d="M0,0 L1,0 L1,1 L0,1 Z " fill="#BDC6CD" opacity="0.75686276" transform="translate(43,39)"/>
<path d="M0,0 L1,0 L1,1 L0,1 Z " fill="#CFD5DA" opacity="0.9647059" transform="translate(42,39)"/>
<path d="M0,0 L1,0 L1,1 L0,1 Z " fill="#BFC8CD" opacity="0.75686276" transform="translate(20,39)"/>
<path d="M0,0 L1,0 L1,1 L0,1 Z " fill="#A8B2BD" opacity="0.9647059" transform="translate(19,39)"/>
<path d="M0,0 L1,0 L1,1 L0,1 Z " fill="#A7B2BB" opacity="0.99607843" transform="translate(12,39)"/>
<path d="M0,0 L1,0 L1,1 L0,1 Z " fill="#BDC6CD" opacity="0.75686276" transform="translate(11,39)"/>
<path d="M0,0 L1,0 L1,1 L0,1 Z " fill="#CFD5DA" opacity="0.9647059" transform="translate(10,39)"/>
<path d="M0,0 L1,0 L1,1 L0,1 Z " fill="#CFD4DA" opacity="0.9019608" transform="translate(54,38)"/>
<path d="M0,0 L1,0 L1,1 L0,1 Z " fill="#AEB9C1" opacity="0.85490197" transform="translate(53,38)"/>
<path d="M0,0 L1,0 L1,1 L0,1 Z " fill="#ADB7BF" opacity="0.8862745" transform="translate(42,38)"/>
<path d="M0,0 L1,0 L1,1 L0,1 Z " fill="#CDD4D9" opacity="0.85882354" transform="translate(41,38)"/>
<path d="M0,0 L1,0 L1,1 L0,1 Z " fill="#CFD4DA" opacity="0.9019608" transform="translate(22,38)"/>
<path d="M0,0 L1,0 L1,1 L0,1 Z " fill="#AEB9C1" opacity="0.85490197" transform="translate(21,38)"/>
<path d="M0,0 L1,0 L1,1 L0,1 Z " fill="#ADB7BF" opacity="0.8862745" transform="translate(10,38)"/>
<path d="M0,0 L1,0 L1,1 L0,1 Z " fill="#CDD4D9" opacity="0.85882354" transform="translate(9,38)"/>
<path d="M0,0 L1,0 L1,1 L0,1 Z " fill="#CDD3D8" opacity="0.8392157" transform="translate(55,37)"/>
<path d="M0,0 L1,0 L1,1 L0,1 Z " fill="#ABB6BF" opacity="0.91764706" transform="translate(54,37)"/>
<path d="M0,0 L1,0 L1,1 L0,1 Z " fill="#A8B3BE" opacity="0.94509804" transform="translate(41,37)"/>
<path d="M0,0 L1,0 L1,1 L0,1 Z " fill="#CCD3D7" opacity="0.81960785" transform="translate(40,37)"/>
<path d="M0,0 L1,0 L1,1 L0,1 Z " fill="#CDD3D8" opacity="0.8392157" transform="translate(23,37)"/>
<path d="M0,0 L1,0 L1,1 L0,1 Z " fill="#ABB6BF" opacity="0.91764706" transform="translate(22,37)"/>
<path d="M0,0 L1,0 L1,1 L0,1 Z " fill="#A8B3BE" opacity="0.94509804" transform="translate(9,37)"/>
<path d="M0,0 L1,0 L1,1 L0,1 Z " fill="#CCD3D7" opacity="0.81960785" transform="translate(8,37)"/>
<path d="M0,0 L1,0 L1,1 L0,1 Z " fill="#CAD1D7" opacity="0.7921569" transform="translate(56,36)"/>
<path d="M0,0 L1,0 L1,1 L0,1 Z " fill="#A8B2BD" opacity="0.9647059" transform="translate(55,36)"/>
<path d="M0,0 L1,0 L1,1 L0,1 Z " fill="#A5B1BA" opacity="0.92156863" transform="translate(51,36)"/>
<path d="M0,0 L1,0 L1,1 L0,1 Z " fill="#B4BEC6" opacity="0.80784315" transform="translate(49,36)"/>
<path d="M0,0 L1,0 L1,1 L0,1 Z " fill="#B9C3C9" opacity="0.9411765" transform="translate(47,36)"/>
<path d="M0,0 L1,0 L1,1 L0,1 Z " fill="#ADB8C1" opacity="0.7529412" transform="translate(45,36)"/>
<path d="M0,0 L1,0 L1,1 L0,1 Z " fill="#A6B3BC" opacity="0.89411765" transform="translate(44,36)"/>
<path d="M0,0 L1,0 L1,1 L0,1 Z " fill="#A8B3BB" opacity="0.972549" transform="translate(40,36)"/>
<path d="M0,0 L1,0 L1,1 L0,1 Z " fill="#CAD0D5" opacity="0.7882353" transform="translate(39,36)"/>
<path d="M0,0 L1,0 L1,1 L0,1 Z " fill="#CAD1D7" opacity="0.7921569" transform="translate(24,36)"/>
<path d="M0,0 L1,0 L1,1 L0,1 Z " fill="#A8B2BD" opacity="0.9647059" transform="translate(23,36)"/>
<path d="M0,0 L1,0 L1,1 L0,1 Z " fill="#A5B1BA" opacity="0.92156863" transform="translate(19,36)"/>
<path d="M0,0 L1,0 L1,1 L0,1 Z " fill="#B4BEC6" opacity="0.80784315" transform="translate(17,36)"/>
<path d="M0,0 L1,0 L1,1 L0,1 Z " fill="#B9C3C9" opacity="0.9411765" transform="translate(15,36)"/>
<path d="M0,0 L1,0 L1,1 L0,1 Z " fill="#ADB8C1" opacity="0.7529412" transform="translate(13,36)"/>
<path d="M0,0 L1,0 L1,1 L0,1 Z " fill="#A6B3BC" opacity="0.89411765" transform="translate(12,36)"/>
<path d="M0,0 L1,0 L1,1 L0,1 Z " fill="#A8B3BB" opacity="0.972549" transform="translate(8,36)"/>
<path d="M0,0 L1,0 L1,1 L0,1 Z " fill="#CAD0D5" opacity="0.7882353" transform="translate(7,36)"/>
<path d="M0,0 L1,0 L1,1 L0,1 Z " fill="#C6CCD2" opacity="0.7647059" transform="translate(57,35)"/>
<path d="M0,0 L1,0 L1,1 L0,1 Z " fill="#A6B3BC" opacity="0.99215686" transform="translate(56,35)"/>
<path d="M0,0 L1,0 L1,1 L0,1 Z " fill="#ADB9C1" opacity="0.75686276" transform="translate(52,35)"/>
<path d="M0,0 L1,0 L1,1 L0,1 Z " fill="#BAC3C9" opacity="0.9647059" transform="translate(51,35)"/>
<path d="M0,0 L1,0 L1,1 L0,1 Z " fill="#BAC3CA" opacity="0.99607843" transform="translate(44,35)"/>
<path d="M0,0 L1,0 L1,1 L0,1 Z " fill="#AFB9C1" opacity="0.75686276" transform="translate(43,35)"/>
<path d="M0,0 L1,0 L1,1 L0,1 Z " fill="#A6B1BB" opacity="0.9647059" transform="translate(42,35)"/>
<path d="M0,0 L1,0 L1,1 L0,1 Z " fill="#A6B3BC" opacity="0.99215686" transform="translate(39,35)"/>
<path d="M0,0 L1,0 L1,1 L0,1 Z " fill="#C7CFD4" opacity="0.7607843" transform="translate(38,35)"/>
<path d="M0,0 L1,0 L1,1 L0,1 Z " fill="#C6CCD2" opacity="0.7647059" transform="translate(25,35)"/>
<path d="M0,0 L1,0 L1,1 L0,1 Z " fill="#A6B3BC" opacity="0.99215686" transform="translate(24,35)"/>
<path d="M0,0 L1,0 L1,1 L0,1 Z " fill="#ADB9C1" opacity="0.75686276" transform="translate(20,35)"/>
<path d="M0,0 L1,0 L1,1 L0,1 Z " fill="#BAC3C9" opacity="0.9647059" transform="translate(19,35)"/>
<path d="M0,0 L1,0 L1,1 L0,1 Z " fill="#BAC3CA" opacity="0.99607843" transform="translate(12,35)"/>
<path d="M0,0 L1,0 L1,1 L0,1 Z " fill="#AFB9C1" opacity="0.75686276" transform="translate(11,35)"/>
<path d="M0,0 L1,0 L1,1 L0,1 Z " fill="#A6B1BB" opacity="0.9647059" transform="translate(10,35)"/>
<path d="M0,0 L1,0 L1,1 L0,1 Z " fill="#A6B3BC" opacity="0.99215686" transform="translate(7,35)"/>
<path d="M0,0 L1,0 L1,1 L0,1 Z " fill="#C7CFD4" opacity="0.7607843" transform="translate(6,35)"/>
<path d="M0,0 L1,0 L1,1 L0,1 Z " fill="#CED5DA" opacity="0.90588236" transform="translate(59,34)"/>
<path d="M0,0 L1,0 L1,1 L0,1 Z " fill="#B7C0C7" opacity="0.7882353" transform="translate(58,34)"/>
<path d="M0,0 L1,0 L1,1 L0,1 Z " fill="#A5B2BA" opacity="0.9019608" transform="translate(54,34)"/>
<path d="M0,0 L1,0 L1,1 L0,1 Z " fill="#B7C0C8" opacity="0.85490197" transform="translate(53,34)"/>
<path d="M0,0 L1,0 L1,1 L0,1 Z " fill="#B7C1C8" opacity="0.8862745" transform="translate(42,34)"/>
<path d="M0,0 L1,0 L1,1 L0,1 Z " fill="#A7B4BC" opacity="0.85882354" transform="translate(41,34)"/>
<path d="M0,0 L1,0 L1,1 L0,1 Z " fill="#B7C0C7" opacity="0.78431374" transform="translate(37,34)"/>
<path d="M0,0 L1,0 L1,1 L0,1 Z " fill="#CED4D9" opacity="0.92156863" transform="translate(36,34)"/>
<path d="M0,0 L1,0 L1,1 L0,1 Z " fill="#CED5DA" opacity="0.90588236" transform="translate(27,34)"/>
<path d="M0,0 L1,0 L1,1 L0,1 Z " fill="#B7C0C7" opacity="0.7882353" transform="translate(26,34)"/>
<path d="M0,0 L1,0 L1,1 L0,1 Z " fill="#A5B2BA" opacity="0.9019608" transform="translate(22,34)"/>
<path d="M0,0 L1,0 L1,1 L0,1 Z " fill="#B7C0C8" opacity="0.85490197" transform="translate(21,34)"/>
<path d="M0,0 L1,0 L1,1 L0,1 Z " fill="#B7C1C8" opacity="0.8862745" transform="translate(10,34)"/>
<path d="M0,0 L1,0 L1,1 L0,1 Z " fill="#A7B4BC" opacity="0.85882354" transform="translate(9,34)"/>
<path d="M0,0 L1,0 L1,1 L0,1 Z " fill="#B7C0C7" opacity="0.78431374" transform="translate(5,34)"/>
<path d="M0,0 L1,0 L1,1 L0,1 Z " fill="#CED4D9" opacity="0.92156863" transform="translate(4,34)"/>
<path d="M0,0 L1,0 L1,1 L0,1 Z " fill="#A8B2BD" opacity="0.9647059" transform="translate(59,33)"/>
<path d="M0,0 L1,0 L1,1 L0,1 Z " fill="#A6B3BB" opacity="0.8392157" transform="translate(55,33)"/>
<path d="M0,0 L1,0 L1,1 L0,1 Z " fill="#B8C2C9" opacity="0.91764706" transform="translate(54,33)"/>
<path d="M0,0 L1,0 L1,1 L0,1 Z " fill="#B9C2CA" opacity="0.94509804" transform="translate(41,33)"/>
<path d="M0,0 L1,0 L1,1 L0,1 Z " fill="#A7B4BC" opacity="0.81960785" transform="translate(40,33)"/>
<path d="M0,0 L1,0 L1,1 L0,1 Z " fill="#A8B2BD" opacity="0.9647059" transform="translate(36,33)"/>
<path d="M0,0 L1,0 L1,1 L0,1 Z " fill="#CAD2D7" opacity="0.7882353" transform="translate(34,33)"/>
<path d="M0,0 L1,0 L1,1 L0,1 Z " fill="#CED5D9" opacity="0.9137255" transform="translate(33,33)"/>
<path d="M0,0 L1,0 L1,1 L0,1 Z " fill="#CFD5DA" opacity="0.972549" transform="translate(32,33)"/>
<path d="M0,0 L1,0 L1,1 L0,1 Z " fill="#CFD4D9" opacity="0.8862745" transform="translate(30,33)"/>
<path d="M0,0 L1,0 L1,1 L0,1 Z " fill="#B7C2C9" opacity="0.78039217" transform="translate(28,33)"/>
<path d="M0,0 L1,0 L1,1 L0,1 Z " fill="#A7B2BC" opacity="0.9764706" transform="translate(27,33)"/>
<path d="M0,0 L1,0 L1,1 L0,1 Z " fill="#A6B3BB" opacity="0.8392157" transform="translate(23,33)"/>
<path d="M0,0 L1,0 L1,1 L0,1 Z " fill="#B8C2C9" opacity="0.91764706" transform="translate(22,33)"/>
<path d="M0,0 L1,0 L1,1 L0,1 Z " fill="#B9C2CA" opacity="0.94509804" transform="translate(9,33)"/>
<path d="M0,0 L1,0 L1,1 L0,1 Z " fill="#A7B4BC" opacity="0.81960785" transform="translate(8,33)"/>
<path d="M0,0 L1,0 L1,1 L0,1 Z " fill="#A8B3BB" opacity="0.972549" transform="translate(4,33)"/>
<path d="M0,0 L1,0 L1,1 L0,1 Z " fill="#B7C1C8" opacity="0.7764706" transform="translate(3,33)"/>
<path d="M0,0 L1,0 L1,1 L0,1 Z " fill="#CBD1D6" opacity="0.79607844" transform="translate(2,33)"/>
<path d="M0,0 L1,0 L1,1 L0,1 Z " fill="#CFD4D9" opacity="0.8862745" transform="translate(1,33)"/>
<path d="M0,0 L1,0 L1,1 L0,1 Z " fill="#CED5DA" opacity="0.9607843" transform="translate(0,33)"/>
<path d="M0,0 L1,0 L1,1 L0,1 Z " fill="#A8B5BC" opacity="0.7921569" transform="translate(56,32)"/>
<path d="M0,0 L1,0 L1,1 L0,1 Z " fill="#BAC3C9" opacity="0.9647059" transform="translate(55,32)"/>
<path d="M0,0 L1,0 L1,1 L0,1 Z " fill="#B9C3CB" opacity="0.972549" transform="translate(40,32)"/>
<path d="M0,0 L1,0 L1,1 L0,1 Z " fill="#A8B4BD" opacity="0.7882353" transform="translate(39,32)"/>
<path d="M0,0 L1,0 L1,1 L0,1 Z " fill="#A8B5BC" opacity="0.7921569" transform="translate(24,32)"/>
<path d="M0,0 L1,0 L1,1 L0,1 Z " fill="#BAC3C9" opacity="0.9647059" transform="translate(23,32)"/>
<path d="M0,0 L1,0 L1,1 L0,1 Z " fill="#B9C3CB" opacity="0.972549" transform="translate(8,32)"/>
<path d="M0,0 L1,0 L1,1 L0,1 Z " fill="#A8B4BD" opacity="0.7882353" transform="translate(7,32)"/>
<path d="M0,0 L1,0 L1,1 L0,1 Z " fill="#A9B5BE" opacity="0.7647059" transform="translate(57,31)"/>
<path d="M0,0 L1,0 L1,1 L0,1 Z " fill="#BBC3CA" opacity="0.99215686" transform="translate(56,31)"/>
<path d="M0,0 L1,0 L1,1 L0,1 Z " fill="#BBC3CA" opacity="0.99215686" transform="translate(39,31)"/>
<path d="M0,0 L1,0 L1,1 L0,1 Z " fill="#AAB7BF" opacity="0.7607843" transform="translate(38,31)"/>
<path d="M0,0 L1,0 L1,1 L0,1 Z " fill="#A9B5BE" opacity="0.7647059" transform="translate(25,31)"/>
<path d="M0,0 L1,0 L1,1 L0,1 Z " fill="#BBC3CA" opacity="0.99215686" transform="translate(24,31)"/>
<path d="M0,0 L1,0 L1,1 L0,1 Z " fill="#BBC3CA" opacity="0.99215686" transform="translate(7,31)"/>
<path d="M0,0 L1,0 L1,1 L0,1 Z " fill="#AAB7BF" opacity="0.7607843" transform="translate(6,31)"/>
<path d="M0,0 L1,0 L1,1 L0,1 Z " fill="#B3BDC5" opacity="0.7882353" transform="translate(58,30)"/>
<path d="M0,0 L1,0 L1,1 L0,1 Z " fill="#B1BCC5" opacity="0.78431374" transform="translate(37,30)"/>
<path d="M0,0 L1,0 L1,1 L0,1 Z " fill="#A5B1BA" opacity="0.92156863" transform="translate(36,30)"/>
<path d="M0,0 L1,0 L1,1 L0,1 Z " fill="#B3BDC5" opacity="0.7882353" transform="translate(26,30)"/>
<path d="M0,0 L1,0 L1,1 L0,1 Z " fill="#B1BCC5" opacity="0.78431374" transform="translate(5,30)"/>
<path d="M0,0 L1,0 L1,1 L0,1 Z " fill="#A5B1BA" opacity="0.92156863" transform="translate(4,30)"/>
<path d="M0,0 L1,0 L1,1 L0,1 Z " fill="#BAC3C9" opacity="0.9647059" transform="translate(59,29)"/>
<path d="M0,0 L1,0 L1,1 L0,1 Z " fill="#BDC6CC" opacity="0.92156863" transform="translate(51,29)"/>
<path d="M0,0 L1,0 L1,1 L0,1 Z " fill="#CED4D9" opacity="0.80784315" transform="translate(49,29)"/>
<path d="M0,0 L1,0 L1,1 L0,1 Z " fill="#D0D5DA" opacity="0.92156863" transform="translate(48,29)"/>
<path d="M0,0 L1,0 L1,1 L0,1 Z " fill="#CED4D9" opacity="0.9411765" transform="translate(47,29)"/>
<path d="M0,0 L1,0 L1,1 L0,1 Z " fill="#C8CED5" opacity="0.7529412" transform="translate(45,29)"/>
<path d="M0,0 L1,0 L1,1 L0,1 Z " fill="#BEC7CE" opacity="0.89411765" transform="translate(44,29)"/>
<path d="M0,0 L1,0 L1,1 L0,1 Z " fill="#BAC3C9" opacity="0.9647059" transform="translate(36,29)"/>
<path d="M0,0 L1,0 L1,1 L0,1 Z " fill="#A9B4BD" opacity="0.7882353" transform="translate(34,29)"/>
<path d="M0,0 L1,0 L1,1 L0,1 Z " fill="#A5B1BB" opacity="0.9137255" transform="translate(33,29)"/>
<path d="M0,0 L1,0 L1,1 L0,1 Z " fill="#A6B2BA" opacity="0.972549" transform="translate(32,29)"/>
<path d="M0,0 L1,0 L1,1 L0,1 Z " fill="#A6B2BA" opacity="0.8862745" transform="translate(30,29)"/>
<path d="M0,0 L1,0 L1,1 L0,1 Z " fill="#B2BBC4" opacity="0.78039217" transform="translate(28,29)"/>
<path d="M0,0 L1,0 L1,1 L0,1 Z " fill="#BAC4CA" opacity="0.9764706" transform="translate(27,29)"/>
<path d="M0,0 L1,0 L1,1 L0,1 Z " fill="#BDC6CC" opacity="0.92156863" transform="translate(19,29)"/>
<path d="M0,0 L1,0 L1,1 L0,1 Z " fill="#CED4D9" opacity="0.80784315" transform="translate(17,29)"/>
<path d="M0,0 L1,0 L1,1 L0,1 Z " fill="#D0D5DA" opacity="0.92156863" transform="translate(16,29)"/>
<path d="M0,0 L1,0 L1,1 L0,1 Z " fill="#CED4D9" opacity="0.9411765" transform="translate(15,29)"/>
<path d="M0,0 L1,0 L1,1 L0,1 Z " fill="#C8CED5" opacity="0.7529412" transform="translate(13,29)"/>
<path d="M0,0 L1,0 L1,1 L0,1 Z " fill="#BEC7CE" opacity="0.89411765" transform="translate(12,29)"/>
<path d="M0,0 L1,0 L1,1 L0,1 Z " fill="#B9C3CB" opacity="0.972549" transform="translate(4,29)"/>
<path d="M0,0 L1,0 L1,1 L0,1 Z " fill="#A8B3BB" opacity="0.79607844" transform="translate(2,29)"/>
<path d="M0,0 L1,0 L1,1 L0,1 Z " fill="#A6B2BA" opacity="0.8862745" transform="translate(1,29)"/>
<path d="M0,0 L1,0 L1,1 L0,1 Z " fill="#A6B2BB" opacity="0.9607843" transform="translate(0,29)"/>
<path d="M0,0 L1,0 L1,1 L0,1 Z " fill="#BDC5CC" opacity="0.9529412" transform="translate(53,28)"/>
<path d="M0,0 L1,0 L1,1 L0,1 Z " fill="#C9D0D6" opacity="0.75686276" transform="translate(52,28)"/>
<path d="M0,0 L1,0 L1,1 L0,1 Z " fill="#CFD5DA" opacity="0.9647059" transform="translate(51,28)"/>
<path d="M0,0 L1,0 L1,1 L0,1 Z " fill="#CFD5DA" opacity="0.99607843" transform="translate(44,28)"/>
<path d="M0,0 L1,0 L1,1 L0,1 Z " fill="#C9D0D5" opacity="0.75686276" transform="translate(43,28)"/>
<path d="M0,0 L1,0 L1,1 L0,1 Z " fill="#BCC4CB" opacity="0.9647059" transform="translate(42,28)"/>
<path d="M0,0 L1,0 L1,1 L0,1 Z " fill="#BDC5CC" opacity="0.9529412" transform="translate(21,28)"/>
<path d="M0,0 L1,0 L1,1 L0,1 Z " fill="#C9D0D6" opacity="0.75686276" transform="translate(20,28)"/>
<path d="M0,0 L1,0 L1,1 L0,1 Z " fill="#CFD5DA" opacity="0.9647059" transform="translate(19,28)"/>
<path d="M0,0 L1,0 L1,1 L0,1 Z " fill="#CFD5DA" opacity="0.99607843" transform="translate(12,28)"/>
<path d="M0,0 L1,0 L1,1 L0,1 Z " fill="#C9D0D5" opacity="0.75686276" transform="translate(11,28)"/>
<path d="M0,0 L1,0 L1,1 L0,1 Z " fill="#BCC4CB" opacity="0.9647059" transform="translate(10,28)"/>
<path d="M0,0 L1,0 L1,1 L0,1 Z " fill="#BEC6CC" opacity="0.9019608" transform="translate(54,27)"/>
<path d="M0,0 L1,0 L1,1 L0,1 Z " fill="#CED4D9" opacity="0.85490197" transform="translate(53,27)"/>
<path d="M0,0 L1,0 L1,1 L0,1 Z " fill="#BFC9CE" opacity="0.85882354" transform="translate(41,27)"/>
<path d="M0,0 L1,0 L1,1 L0,1 Z " fill="#BEC6CC" opacity="0.9019608" transform="translate(22,27)"/>
<path d="M0,0 L1,0 L1,1 L0,1 Z " fill="#CED4D9" opacity="0.85490197" transform="translate(21,27)"/>
<path d="M0,0 L1,0 L1,1 L0,1 Z " fill="#BFC9CE" opacity="0.85882354" transform="translate(9,27)"/>
<path d="M0,0 L1,0 L1,1 L0,1 Z " fill="#C0C7CE" opacity="0.8392157" transform="translate(55,26)"/>
<path d="M0,0 L1,0 L1,1 L0,1 Z " fill="#CED4D9" opacity="0.91764706" transform="translate(54,26)"/>
<path d="M0,0 L1,0 L1,1 L0,1 Z " fill="#CED4D9" opacity="0.94509804" transform="translate(41,26)"/>
<path d="M0,0 L1,0 L1,1 L0,1 Z " fill="#C1CAD0" opacity="0.81960785" transform="translate(40,26)"/>
<path d="M0,0 L1,0 L1,1 L0,1 Z " fill="#C0C7CE" opacity="0.8392157" transform="translate(23,26)"/>
<path d="M0,0 L1,0 L1,1 L0,1 Z " fill="#CED4D9" opacity="0.91764706" transform="translate(22,26)"/>
<path d="M0,0 L1,0 L1,1 L0,1 Z " fill="#CED4D9" opacity="0.94509804" transform="translate(9,26)"/>
<path d="M0,0 L1,0 L1,1 L0,1 Z " fill="#C1CAD0" opacity="0.81960785" transform="translate(8,26)"/>
<path d="M0,0 L1,0 L1,1 L0,1 Z " fill="#C3CAD1" opacity="0.7921569" transform="translate(56,25)"/>
<path d="M0,0 L1,0 L1,1 L0,1 Z " fill="#CFD5DA" opacity="0.9647059" transform="translate(55,25)"/>
<path d="M0,0 L1,0 L1,1 L0,1 Z " fill="#CED4D9" opacity="0.92156863" transform="translate(51,25)"/>
<path d="M0,0 L1,0 L1,1 L0,1 Z " fill="#B4BEC5" opacity="0.80784315" transform="translate(49,25)"/>
<path d="M0,0 L1,0 L1,1 L0,1 Z " fill="#A9B4BD" opacity="0.9411765" transform="translate(47,25)"/>
<path d="M0,0 L1,0 L1,1 L0,1 Z " fill="#C0C8D0" opacity="0.7529412" transform="translate(45,25)"/>
<path d="M0,0 L1,0 L1,1 L0,1 Z " fill="#CED5D9" opacity="0.89411765" transform="translate(44,25)"/>
<path d="M0,0 L1,0 L1,1 L0,1 Z " fill="#CFD5DA" opacity="0.972549" transform="translate(40,25)"/>
<path d="M0,0 L1,0 L1,1 L0,1 Z " fill="#C4CBD0" opacity="0.7882353" transform="translate(39,25)"/>
<path d="M0,0 L1,0 L1,1 L0,1 Z " fill="#C3CAD1" opacity="0.7921569" transform="translate(24,25)"/>
<path d="M0,0 L1,0 L1,1 L0,1 Z " fill="#CFD5DA" opacity="0.9647059" transform="translate(23,25)"/>
<path d="M0,0 L1,0 L1,1 L0,1 Z " fill="#CED4D9" opacity="0.92156863" transform="translate(19,25)"/>
<path d="M0,0 L1,0 L1,1 L0,1 Z " fill="#B4BEC5" opacity="0.80784315" transform="translate(17,25)"/>
<path d="M0,0 L1,0 L1,1 L0,1 Z " fill="#A9B4BD" opacity="0.9411765" transform="translate(15,25)"/>
<path d="M0,0 L1,0 L1,1 L0,1 Z " fill="#C0C8D0" opacity="0.7529412" transform="translate(13,25)"/>
<path d="M0,0 L1,0 L1,1 L0,1 Z " fill="#CED5D9" opacity="0.89411765" transform="translate(12,25)"/>
<path d="M0,0 L1,0 L1,1 L0,1 Z " fill="#CFD5DA" opacity="0.972549" transform="translate(8,25)"/>
<path d="M0,0 L1,0 L1,1 L0,1 Z " fill="#C4CBD0" opacity="0.7882353" transform="translate(7,25)"/>
<path d="M0,0 L1,0 L1,1 L0,1 Z " fill="#C6CCD2" opacity="0.7647059" transform="translate(57,24)"/>
<path d="M0,0 L1,0 L1,1 L0,1 Z " fill="#CFD5DA" opacity="0.99215686" transform="translate(56,24)"/>
<path d="M0,0 L1,0 L1,1 L0,1 Z " fill="#BFC8CD" opacity="0.75686276" transform="translate(52,24)"/>
<path d="M0,0 L1,0 L1,1 L0,1 Z " fill="#A8B2BD" opacity="0.9647059" transform="translate(51,24)"/>
<path d="M0,0 L1,0 L1,1 L0,1 Z " fill="#A7B2BB" opacity="0.99607843" transform="translate(44,24)"/>
<path d="M0,0 L1,0 L1,1 L0,1 Z " fill="#BDC6CD" opacity="0.75686276" transform="translate(43,24)"/>
<path d="M0,0 L1,0 L1,1 L0,1 Z " fill="#CFD5DA" opacity="0.9647059" transform="translate(42,24)"/>
<path d="M0,0 L1,0 L1,1 L0,1 Z " fill="#CFD5DA" opacity="0.99215686" transform="translate(39,24)"/>
<path d="M0,0 L1,0 L1,1 L0,1 Z " fill="#C5CDD4" opacity="0.7607843" transform="translate(38,24)"/>
<path d="M0,0 L1,0 L1,1 L0,1 Z " fill="#C6CCD2" opacity="0.7647059" transform="translate(25,24)"/>
<path d="M0,0 L1,0 L1,1 L0,1 Z " fill="#CFD5DA" opacity="0.99215686" transform="translate(24,24)"/>
<path d="M0,0 L1,0 L1,1 L0,1 Z " fill="#BFC8CD" opacity="0.75686276" transform="translate(20,24)"/>
<path d="M0,0 L1,0 L1,1 L0,1 Z " fill="#A8B2BD" opacity="0.9647059" transform="translate(19,24)"/>
<path d="M0,0 L1,0 L1,1 L0,1 Z " fill="#A7B2BB" opacity="0.99607843" transform="translate(12,24)"/>
<path d="M0,0 L1,0 L1,1 L0,1 Z " fill="#BDC6CD" opacity="0.75686276" transform="translate(11,24)"/>
<path d="M0,0 L1,0 L1,1 L0,1 Z " fill="#CFD5DA" opacity="0.9647059" transform="translate(10,24)"/>
<path d="M0,0 L1,0 L1,1 L0,1 Z " fill="#CFD5DA" opacity="0.99215686" transform="translate(7,24)"/>
<path d="M0,0 L1,0 L1,1 L0,1 Z " fill="#C5CDD4" opacity="0.7607843" transform="translate(6,24)"/>
<path d="M0,0 L1,0 L1,1 L0,1 Z " fill="#BEC7CE" opacity="0.90588236" transform="translate(59,23)"/>
<path d="M0,0 L1,0 L1,1 L0,1 Z " fill="#CDD4D8" opacity="0.7882353" transform="translate(58,23)"/>
<path d="M0,0 L1,0 L1,1 L0,1 Z " fill="#CFD4DA" opacity="0.9019608" transform="translate(54,23)"/>
<path d="M0,0 L1,0 L1,1 L0,1 Z " fill="#AEB9C1" opacity="0.85490197" transform="translate(53,23)"/>
<path d="M0,0 L1,0 L1,1 L0,1 Z " fill="#ADB7BF" opacity="0.8862745" transform="translate(42,23)"/>
<path d="M0,0 L1,0 L1,1 L0,1 Z " fill="#CDD4D9" opacity="0.85882354" transform="translate(41,23)"/>
<path d="M0,0 L1,0 L1,1 L0,1 Z " fill="#CCD3D9" opacity="0.78431374" transform="translate(37,23)"/>
<path d="M0,0 L1,0 L1,1 L0,1 Z " fill="#BDC6CC" opacity="0.92156863" transform="translate(36,23)"/>
<path d="M0,0 L1,0 L1,1 L0,1 Z " fill="#BEC7CE" opacity="0.90588236" transform="translate(27,23)"/>
<path d="M0,0 L1,0 L1,1 L0,1 Z " fill="#CDD4D8" opacity="0.7882353" transform="translate(26,23)"/>
<path d="M0,0 L1,0 L1,1 L0,1 Z " fill="#CFD4DA" opacity="0.9019608" transform="translate(22,23)"/>
<path d="M0,0 L1,0 L1,1 L0,1 Z " fill="#AEB9C1" opacity="0.85490197" transform="translate(21,23)"/>
<path d="M0,0 L1,0 L1,1 L0,1 Z " fill="#ADB7BF" opacity="0.8862745" transform="translate(10,23)"/>
<path d="M0,0 L1,0 L1,1 L0,1 Z " fill="#CDD4D9" opacity="0.85882354" transform="translate(9,23)"/>
<path d="M0,0 L1,0 L1,1 L0,1 Z " fill="#CCD3D9" opacity="0.78431374" transform="translate(5,23)"/>
<path d="M0,0 L1,0 L1,1 L0,1 Z " fill="#BDC6CC" opacity="0.92156863" transform="translate(4,23)"/>
<path d="M0,0 L1,0 L1,1 L0,1 Z " fill="#CFD5DA" opacity="0.9647059" transform="translate(59,22)"/>
<path d="M0,0 L1,0 L1,1 L0,1 Z " fill="#CDD3D8" opacity="0.8392157" transform="translate(55,22)"/>
<path d="M0,0 L1,0 L1,1 L0,1 Z " fill="#ABB6BF" opacity="0.91764706" transform="translate(54,22)"/>
<path d="M0,0 L1,0 L1,1 L0,1 Z " fill="#A8B3BE" opacity="0.94509804" transform="translate(41,22)"/>
<path d="M0,0 L1,0 L1,1 L0,1 Z " fill="#CCD3D7" opacity="0.81960785" transform="translate(40,22)"/>
<path d="M0,0 L1,0 L1,1 L0,1 Z " fill="#CFD5DA" opacity="0.9647059" transform="translate(36,22)"/>
<path d="M0,0 L1,0 L1,1 L0,1 Z " fill="#C4CBD0" opacity="0.7882353" transform="translate(34,22)"/>
<path d="M0,0 L1,0 L1,1 L0,1 Z " fill="#BCC6CC" opacity="0.9137255" transform="translate(33,22)"/>
<path d="M0,0 L1,0 L1,1 L0,1 Z " fill="#BBC5CC" opacity="0.972549" transform="translate(32,22)"/>
<path d="M0,0 L1,0 L1,1 L0,1 Z " fill="#BEC6CD" opacity="0.8862745" transform="translate(30,22)"/>
<path d="M0,0 L1,0 L1,1 L0,1 Z " fill="#CCD2D8" opacity="0.78039217" transform="translate(28,22)"/>
<path d="M0,0 L1,0 L1,1 L0,1 Z " fill="#CFD5D9" opacity="0.9764706" transform="translate(27,22)"/>
<path d="M0,0 L1,0 L1,1 L0,1 Z " fill="#CDD3D8" opacity="0.8392157" transform="translate(23,22)"/>
<path d="M0,0 L1,0 L1,1 L0,1 Z " fill="#ABB6BF" opacity="0.91764706" transform="translate(22,22)"/>
<path d="M0,0 L1,0 L1,1 L0,1 Z " fill="#A8B3BE" opacity="0.94509804" transform="translate(9,22)"/>
<path d="M0,0 L1,0 L1,1 L0,1 Z " fill="#CCD3D7" opacity="0.81960785" transform="translate(8,22)"/>
<path d="M0,0 L1,0 L1,1 L0,1 Z " fill="#CFD5DA" opacity="0.972549" transform="translate(4,22)"/>
<path d="M0,0 L1,0 L1,1 L0,1 Z " fill="#C2CBD1" opacity="0.79607844" transform="translate(2,22)"/>
<path d="M0,0 L1,0 L1,1 L0,1 Z " fill="#BEC6CD" opacity="0.8862745" transform="translate(1,22)"/>
<path d="M0,0 L1,0 L1,1 L0,1 Z " fill="#BCC5CC" opacity="0.9607843" transform="translate(0,22)"/>
<path d="M0,0 L1,0 L1,1 L0,1 Z " fill="#CAD1D7" opacity="0.7921569" transform="translate(56,21)"/>
<path d="M0,0 L1,0 L1,1 L0,1 Z " fill="#A8B2BD" opacity="0.9647059" transform="translate(55,21)"/>
<path d="M0,0 L1,0 L1,1 L0,1 Z " fill="#A8B3BB" opacity="0.972549" transform="translate(40,21)"/>
<path d="M0,0 L1,0 L1,1 L0,1 Z " fill="#CAD0D5" opacity="0.7882353" transform="translate(39,21)"/>
<path d="M0,0 L1,0 L1,1 L0,1 Z " fill="#CAD1D7" opacity="0.7921569" transform="translate(24,21)"/>
<path d="M0,0 L1,0 L1,1 L0,1 Z " fill="#A8B2BD" opacity="0.9647059" transform="translate(23,21)"/>
<path d="M0,0 L1,0 L1,1 L0,1 Z " fill="#A8B3BB" opacity="0.972549" transform="translate(8,21)"/>
<path d="M0,0 L1,0 L1,1 L0,1 Z " fill="#CAD0D5" opacity="0.7882353" transform="translate(7,21)"/>
<path d="M0,0 L1,0 L1,1 L0,1 Z " fill="#C6CCD2" opacity="0.7647059" transform="translate(57,20)"/>
<path d="M0,0 L1,0 L1,1 L0,1 Z " fill="#A6B3BC" opacity="0.99215686" transform="translate(56,20)"/>
<path d="M0,0 L1,0 L1,1 L0,1 Z " fill="#A6B3BC" opacity="0.99215686" transform="translate(39,20)"/>
<path d="M0,0 L1,0 L1,1 L0,1 Z " fill="#C7CFD4" opacity="0.7607843" transform="translate(38,20)"/>
<path d="M0,0 L1,0 L1,1 L0,1 Z " fill="#C6CCD2" opacity="0.7647059" transform="translate(25,20)"/>
<path d="M0,0 L1,0 L1,1 L0,1 Z " fill="#A6B3BC" opacity="0.99215686" transform="translate(24,20)"/>
<path d="M0,0 L1,0 L1,1 L0,1 Z " fill="#A6B3BC" opacity="0.99215686" transform="translate(7,20)"/>
<path d="M0,0 L1,0 L1,1 L0,1 Z " fill="#C7CFD4" opacity="0.7607843" transform="translate(6,20)"/>
<path d="M0,0 L1,0 L1,1 L0,1 Z " fill="#B7C0C7" opacity="0.7882353" transform="translate(58,19)"/>
<path d="M0,0 L1,0 L1,1 L0,1 Z " fill="#B7C0C7" opacity="0.78431374" transform="translate(37,19)"/>
<path d="M0,0 L1,0 L1,1 L0,1 Z " fill="#CED4D9" opacity="0.92156863" transform="translate(36,19)"/>
<path d="M0,0 L1,0 L1,1 L0,1 Z " fill="#B7C0C7" opacity="0.7882353" transform="translate(26,19)"/>
<path d="M0,0 L1,0 L1,1 L0,1 Z " fill="#B7C0C7" opacity="0.78431374" transform="translate(5,19)"/>
<path d="M0,0 L1,0 L1,1 L0,1 Z " fill="#CED4D9" opacity="0.92156863" transform="translate(4,19)"/>
<path d="M0,0 L1,0 L1,1 L0,1 Z " fill="#A8B2BD" opacity="0.9647059" transform="translate(59,18)"/>
<path d="M0,0 L1,0 L1,1 L0,1 Z " fill="#A8B2BD" opacity="0.9647059" transform="translate(36,18)"/>
<path d="M0,0 L1,0 L1,1 L0,1 Z " fill="#CAD2D7" opacity="0.7882353" transform="translate(34,18)"/>
<path d="M0,0 L1,0 L1,1 L0,1 Z " fill="#CED5D9" opacity="0.9137255" transform="translate(33,18)"/>
<path d="M0,0 L1,0 L1,1 L0,1 Z " fill="#CFD5DA" opacity="0.972549" transform="translate(32,18)"/>
<path d="M0,0 L1,0 L1,1 L0,1 Z " fill="#CFD4D9" opacity="0.8862745" transform="translate(30,18)"/>
<path d="M0,0 L1,0 L1,1 L0,1 Z " fill="#B7C2C9" opacity="0.78039217" transform="translate(28,18)"/>
<path d="M0,0 L1,0 L1,1 L0,1 Z " fill="#A7B2BC" opacity="0.9764706" transform="translate(27,18)"/>
<path d="M0,0 L1,0 L1,1 L0,1 Z " fill="#A8B3BB" opacity="0.972549" transform="translate(4,18)"/>
<path d="M0,0 L1,0 L1,1 L0,1 Z " fill="#B7C1C8" opacity="0.7764706" transform="translate(3,18)"/>
<path d="M0,0 L1,0 L1,1 L0,1 Z " fill="#CBD1D6" opacity="0.79607844" transform="translate(2,18)"/>
<path d="M0,0 L1,0 L1,1 L0,1 Z " fill="#CFD4D9" opacity="0.8862745" transform="translate(1,18)"/>
<path d="M0,0 L1,0 L1,1 L0,1 Z " fill="#CED5DA" opacity="0.9607843" transform="translate(0,18)"/>
<path d="M0,0 L1,0 L1,1 L0,1 Z " fill="#A5B1BA" opacity="0.92156863" transform="translate(51,13)"/>
<path d="M0,0 L1,0 L1,1 L0,1 Z " fill="#B4BEC6" opacity="0.80784315" transform="translate(49,13)"/>
<path d="M0,0 L1,0 L1,1 L0,1 Z " fill="#B9C3C9" opacity="0.9411765" transform="translate(47,13)"/>
<path d="M0,0 L1,0 L1,1 L0,1 Z " fill="#ADB8C1" opacity="0.7529412" transform="translate(45,13)"/>
<path d="M0,0 L1,0 L1,1 L0,1 Z " fill="#A6B3BC" opacity="0.89411765" transform="translate(44,13)"/>
<path d="M0,0 L1,0 L1,1 L0,1 Z " fill="#A5B1BA" opacity="0.92156863" transform="translate(19,13)"/>
<path d="M0,0 L1,0 L1,1 L0,1 Z " fill="#B4BEC6" opacity="0.80784315" transform="translate(17,13)"/>
<path d="M0,0 L1,0 L1,1 L0,1 Z " fill="#B9C3C9" opacity="0.9411765" transform="translate(15,13)"/>
<path d="M0,0 L1,0 L1,1 L0,1 Z " fill="#ADB8C1" opacity="0.7529412" transform="translate(13,13)"/>
<path d="M0,0 L1,0 L1,1 L0,1 Z " fill="#A6B3BC" opacity="0.89411765" transform="translate(12,13)"/>
<path d="M0,0 L1,0 L1,1 L0,1 Z " fill="#ADB9C1" opacity="0.75686276" transform="translate(52,12)"/>
<path d="M0,0 L1,0 L1,1 L0,1 Z " fill="#BAC3C9" opacity="0.9647059" transform="translate(51,12)"/>
<path d="M0,0 L1,0 L1,1 L0,1 Z " fill="#AFB9C1" opacity="0.75686276" transform="translate(43,12)"/>
<path d="M0,0 L1,0 L1,1 L0,1 Z " fill="#A6B1BB" opacity="0.9647059" transform="translate(42,12)"/>
<path d="M0,0 L1,0 L1,1 L0,1 Z " fill="#ADB9C1" opacity="0.75686276" transform="translate(20,12)"/>
<path d="M0,0 L1,0 L1,1 L0,1 Z " fill="#BAC3C9" opacity="0.9647059" transform="translate(19,12)"/>
<path d="M0,0 L1,0 L1,1 L0,1 Z " fill="#AFB9C1" opacity="0.75686276" transform="translate(11,12)"/>
<path d="M0,0 L1,0 L1,1 L0,1 Z " fill="#A6B1BB" opacity="0.9647059" transform="translate(10,12)"/>
<path d="M0,0 L1,0 L1,1 L0,1 Z " fill="#A5B2BA" opacity="0.9019608" transform="translate(54,11)"/>
<path d="M0,0 L1,0 L1,1 L0,1 Z " fill="#B7C0C8" opacity="0.85490197" transform="translate(53,11)"/>
<path d="M0,0 L1,0 L1,1 L0,1 Z " fill="#B7C1C8" opacity="0.8862745" transform="translate(42,11)"/>
<path d="M0,0 L1,0 L1,1 L0,1 Z " fill="#A7B4BC" opacity="0.85882354" transform="translate(41,11)"/>
<path d="M0,0 L1,0 L1,1 L0,1 Z " fill="#A5B2BA" opacity="0.9019608" transform="translate(22,11)"/>
<path d="M0,0 L1,0 L1,1 L0,1 Z " fill="#B7C0C8" opacity="0.85490197" transform="translate(21,11)"/>
<path d="M0,0 L1,0 L1,1 L0,1 Z " fill="#B7C1C8" opacity="0.8862745" transform="translate(10,11)"/>
<path d="M0,0 L1,0 L1,1 L0,1 Z " fill="#A7B4BC" opacity="0.85882354" transform="translate(9,11)"/>
<path d="M0,0 L1,0 L1,1 L0,1 Z " fill="#A6B3BB" opacity="0.8392157" transform="translate(55,10)"/>
<path d="M0,0 L1,0 L1,1 L0,1 Z " fill="#B8C2C9" opacity="0.91764706" transform="translate(54,10)"/>
<path d="M0,0 L1,0 L1,1 L0,1 Z " fill="#B9C2CA" opacity="0.94509804" transform="translate(41,10)"/>
<path d="M0,0 L1,0 L1,1 L0,1 Z " fill="#A7B4BC" opacity="0.81960785" transform="translate(40,10)"/>
<path d="M0,0 L1,0 L1,1 L0,1 Z " fill="#A6B3BB" opacity="0.8392157" transform="translate(23,10)"/>
<path d="M0,0 L1,0 L1,1 L0,1 Z " fill="#B8C2C9" opacity="0.91764706" transform="translate(22,10)"/>
<path d="M0,0 L1,0 L1,1 L0,1 Z " fill="#B9C2CA" opacity="0.94509804" transform="translate(9,10)"/>
<path d="M0,0 L1,0 L1,1 L0,1 Z " fill="#A7B4BC" opacity="0.81960785" transform="translate(8,10)"/>
<path d="M0,0 L1,0 L1,1 L0,1 Z " fill="#A8B5BC" opacity="0.7921569" transform="translate(56,9)"/>
<path d="M0,0 L1,0 L1,1 L0,1 Z " fill="#BAC3C9" opacity="0.9647059" transform="translate(55,9)"/>
<path d="M0,0 L1,0 L1,1 L0,1 Z " fill="#B9C3CB" opacity="0.972549" transform="translate(40,9)"/>
<path d="M0,0 L1,0 L1,1 L0,1 Z " fill="#A8B4BD" opacity="0.7882353" transform="translate(39,9)"/>
<path d="M0,0 L1,0 L1,1 L0,1 Z " fill="#A8B5BC" opacity="0.7921569" transform="translate(24,9)"/>
<path d="M0,0 L1,0 L1,1 L0,1 Z " fill="#BAC3C9" opacity="0.9647059" transform="translate(23,9)"/>
<path d="M0,0 L1,0 L1,1 L0,1 Z " fill="#B9C3CB" opacity="0.972549" transform="translate(8,9)"/>
<path d="M0,0 L1,0 L1,1 L0,1 Z " fill="#A8B4BD" opacity="0.7882353" transform="translate(7,9)"/>
<path d="M0,0 L1,0 L1,1 L0,1 Z " fill="#A9B5BE" opacity="0.7647059" transform="translate(57,8)"/>
<path d="M0,0 L1,0 L1,1 L0,1 Z " fill="#BBC3CA" opacity="0.99215686" transform="translate(56,8)"/>
<path d="M0,0 L1,0 L1,1 L0,1 Z " fill="#BBC3CA" opacity="0.99215686" transform="translate(39,8)"/>
<path d="M0,0 L1,0 L1,1 L0,1 Z " fill="#AAB7BF" opacity="0.7607843" transform="translate(38,8)"/>
<path d="M0,0 L1,0 L1,1 L0,1 Z " fill="#A9B5BE" opacity="0.7647059" transform="translate(25,8)"/>
<path d="M0,0 L1,0 L1,1 L0,1 Z " fill="#BBC3CA" opacity="0.99215686" transform="translate(24,8)"/>
<path d="M0,0 L1,0 L1,1 L0,1 Z " fill="#BBC3CA" opacity="0.99215686" transform="translate(7,8)"/>
<path d="M0,0 L1,0 L1,1 L0,1 Z " fill="#AAB7BF" opacity="0.7607843" transform="translate(6,8)"/>
<path d="M0,0 L1,0 L1,1 L0,1 Z " fill="#B3BDC5" opacity="0.7882353" transform="translate(58,7)"/>
<path d="M0,0 L1,0 L1,1 L0,1 Z " fill="#B1BCC5" opacity="0.78431374" transform="translate(37,7)"/>
<path d="M0,0 L1,0 L1,1 L0,1 Z " fill="#A5B1BA" opacity="0.92156863" transform="translate(36,7)"/>
<path d="M0,0 L1,0 L1,1 L0,1 Z " fill="#B3BDC5" opacity="0.7882353" transform="translate(26,7)"/>
<path d="M0,0 L1,0 L1,1 L0,1 Z " fill="#B1BCC5" opacity="0.78431374" transform="translate(5,7)"/>
<path d="M0,0 L1,0 L1,1 L0,1 Z " fill="#A5B1BA" opacity="0.92156863" transform="translate(4,7)"/>
<path d="M0,0 L1,0 L1,1 L0,1 Z " fill="#BAC3C9" opacity="0.9647059" transform="translate(59,6)"/>
<path d="M0,0 L1,0 L1,1 L0,1 Z " fill="#BAC3C9" opacity="0.9647059" transform="translate(36,6)"/>
<path d="M0,0 L1,0 L1,1 L0,1 Z " fill="#A9B4BD" opacity="0.7882353" transform="translate(34,6)"/>
<path d="M0,0 L1,0 L1,1 L0,1 Z " fill="#A5B1BB" opacity="0.9137255" transform="translate(33,6)"/>
<path d="M0,0 L1,0 L1,1 L0,1 Z " fill="#A6B2BA" opacity="0.972549" transform="translate(32,6)"/>
<path d="M0,0 L1,0 L1,1 L0,1 Z " fill="#A6B2BA" opacity="0.8862745" transform="translate(30,6)"/>
<path d="M0,0 L1,0 L1,1 L0,1 Z " fill="#B2BBC4" opacity="0.78039217" transform="translate(28,6)"/>
<path d="M0,0 L1,0 L1,1 L0,1 Z " fill="#BAC4CA" opacity="0.9764706" transform="translate(27,6)"/>
<path d="M0,0 L1,0 L1,1 L0,1 Z " fill="#B9C3CB" opacity="0.972549" transform="translate(4,6)"/>
<path d="M0,0 L1,0 L1,1 L0,1 Z " fill="#A8B3BB" opacity="0.79607844" transform="translate(2,6)"/>
<path d="M0,0 L1,0 L1,1 L0,1 Z " fill="#A6B2BA" opacity="0.8862745" transform="translate(1,6)"/>
<path d="M0,0 L1,0 L1,1 L0,1 Z " fill="#A6B2BB" opacity="0.9607843" transform="translate(0,6)"/>
</svg>
