<?xml version="1.0" encoding="UTF-8"?>
<!-- Generator: visioncortex VTracer 0.6.4 -->
<svg version="1.1" xmlns="http://www.w3.org/2000/svg" width="64" height="64">
<path d="M0,0 L64,0 L64,18 L55,18 L55,19 L52,19 L52,20 L49,20 L49,21 L47,21 L47,22 L45,22 L45,23 L42,23 L42,24 L39,24 L39,25 L25,25 L25,24 L22,24 L22,23 L19,23 L19,22 L17,22 L17,21 L15,21 L15,20 L12,20 L12,19 L9,19 L9,18 L0,18 Z M8,11 L8,12 L7,12 L7,16 L8,16 L8,17 L11,17 L11,16 L12,16 L12,15 L13,15 L13,13 L12,13 L12,12 L11,12 L11,11 Z M35,17 L35,18 L34,18 L34,21 L35,21 L35,22 L39,22 L39,20 L40,20 L40,19 L39,19 L39,17 Z M9,12 L10,12 L10,13 L11,13 L11,15 L10,15 L10,16 L9,16 L9,15 L8,15 L8,13 L9,13 Z M35,18 L38,18 L38,19 L39,19 L39,20 L38,20 L38,21 L35,21 Z M0,19 L9,19 L9,20 L12,20 L12,21 L14,21 L14,22 L16,22 L16,23 L18,23 L18,24 L21,24 L21,25 L24,25 L24,26 L39,26 L39,25 L43,25 L43,24 L45,24 L45,23 L48,23 L48,22 L50,22 L50,21 L52,21 L52,20 L55,20 L55,19 L64,19 L64,22 L55,22 L55,23 L52,23 L52,24 L49,24 L49,25 L47,25 L47,26 L45,26 L45,27 L42,27 L42,28 L39,28 L39,29 L25,29 L25,28 L22,28 L22,27 L19,27 L19,26 L17,26 L17,25 L15,25 L15,24 L12,24 L12,23 L9,23 L9,22 L0,22 Z M0,23 L9,23 L9,24 L12,24 L12,25 L14,25 L14,26 L16,26 L16,27 L18,27 L18,28 L21,28 L21,29 L24,29 L24,30 L39,30 L39,29 L43,29 L43,28 L45,28 L45,27 L48,27 L48,26 L50,26 L50,25 L52,25 L52,24 L55,24 L55,23 L64,23 L64,30 L55,30 L55,31 L52,31 L52,32 L49,32 L49,33 L47,33 L47,34 L45,34 L45,35 L42,35 L42,36 L39,36 L39,37 L25,37 L25,36 L22,36 L22,35 L19,35 L19,34 L17,34 L17,33 L15,33 L15,32 L12,32 L12,31 L9,31 L9,30 L0,30 Z M0,31 L9,31 L9,32 L12,32 L12,33 L14,33 L14,34 L16,34 L16,35 L18,35 L18,36 L21,36 L21,37 L24,37 L24,38 L39,38 L39,37 L43,37 L43,36 L45,36 L45,35 L48,35 L48,34 L50,34 L50,33 L52,33 L52,32 L55,32 L55,31 L64,31 L64,34 L55,34 L55,35 L52,35 L52,36 L49,36 L49,37 L47,37 L47,38 L45,38 L45,39 L42,39 L42,40 L39,40 L39,41 L25,41 L25,40 L22,40 L22,39 L19,39 L19,38 L17,38 L17,37 L15,37 L15,36 L12,36 L12,35 L9,35 L9,34 L0,34 Z M0,35 L9,35 L9,36 L12,36 L12,37 L14,37 L14,38 L16,38 L16,39 L18,39 L18,40 L21,40 L21,41 L24,41 L24,42 L39,42 L39,41 L43,41 L43,40 L45,40 L45,39 L48,39 L48,38 L50,38 L50,37 L52,37 L52,36 L55,36 L55,35 L64,35 L64,46 L55,46 L55,47 L52,47 L52,48 L49,48 L49,49 L47,49 L47,50 L45,50 L45,51 L42,51 L42,52 L39,52 L39,53 L25,53 L25,52 L22,52 L22,51 L19,51 L19,50 L17,50 L17,49 L15,49 L15,48 L12,48 L12,47 L9,47 L9,46 L0,46 Z M54,37 L54,38 L53,38 L53,39 L52,39 L52,43 L53,43 L53,44 L54,44 L54,45 L59,45 L59,44 L60,44 L60,39 L59,39 L59,38 L58,38 L58,37 Z M44,42 L44,43 L43,43 L43,47 L44,47 L44,48 L47,48 L47,47 L48,47 L48,43 L47,43 L47,42 Z M54,38 L58,38 L58,39 L59,39 L59,43 L58,43 L58,44 L54,44 L54,43 L53,43 L53,39 L54,39 Z M44,43 L47,43 L47,46 L46,46 L46,47 L45,47 L45,46 L44,46 Z M0,47 L9,47 L9,48 L12,48 L12,49 L14,49 L14,50 L16,50 L16,51 L18,51 L18,52 L21,52 L21,53 L24,53 L24,54 L39,54 L39,53 L43,53 L43,52 L45,52 L45,51 L48,51 L48,50 L50,50 L50,49 L52,49 L52,48 L55,48 L55,47 L64,47 L64,64 L0,64 Z " fill="#CFD5DA" transform="translate(0,0)"/>
<path d="M0,0 L64,0 L64,18 L55,18 L55,19 L52,19 L52,20 L49,20 L49,21 L47,21 L47,22 L45,22 L45,23 L42,23 L42,24 L39,24 L39,25 L25,25 L25,24 L22,24 L22,23 L19,23 L19,22 L17,22 L17,21 L15,21 L15,20 L12,20 L12,19 L9,19 L9,18 L0,18 Z M8,11 L8,12 L7,12 L7,16 L8,16 L8,17 L11,17 L11,16 L12,16 L12,15 L13,15 L13,13 L12,13 L12,12 L11,12 L11,11 Z M35,17 L35,18 L34,18 L34,21 L35,21 L35,22 L39,22 L39,20 L40,20 L40,19 L39,19 L39,17 Z M9,12 L10,12 L10,13 L11,13 L11,15 L10,15 L10,16 L9,16 L9,15 L8,15 L8,13 L9,13 Z M35,18 L38,18 L38,19 L39,19 L39,20 L38,20 L38,21 L35,21 Z M0,19 L9,19 L9,20 L12,20 L12,21 L14,21 L14,22 L16,22 L16,23 L18,23 L18,24 L21,24 L21,25 L24,25 L24,26 L39,26 L39,25 L43,25 L43,24 L45,24 L45,23 L48,23 L48,22 L50,22 L50,21 L52,21 L52,20 L55,20 L55,19 L64,19 L64,22 L55,22 L55,23 L52,23 L52,24 L49,24 L49,25 L47,25 L47,26 L45,26 L45,27 L42,27 L42,28 L39,28 L39,29 L25,29 L25,28 L22,28 L22,27 L19,27 L19,26 L17,26 L17,25 L15,25 L15,24 L12,24 L12,23 L9,23 L9,22 L0,22 Z " fill="#E5F0FF" transform="translate(0,0)"/>
<path d="M0,0 L9,0 L9,1 L12,1 L12,2 L14,2 L14,3 L16,3 L16,4 L18,4 L18,5 L21,5 L21,6 L24,6 L24,7 L39,7 L39,6 L43,6 L43,5 L45,5 L45,4 L48,4 L48,3 L50,3 L50,2 L52,2 L52,1 L55,1 L55,0 L64,0 L64,17 L0,17 Z " fill="#BBC4CB" transform="translate(0,47)"/>
<path d="M0,0 L9,0 L9,1 L12,1 L12,2 L14,2 L14,3 L16,3 L16,4 L18,4 L18,5 L21,5 L21,6 L24,6 L24,7 L39,7 L39,6 L43,6 L43,5 L45,5 L45,4 L48,4 L48,3 L50,3 L50,2 L52,2 L52,1 L55,1 L55,0 L64,0 L64,7 L55,7 L55,8 L52,8 L52,9 L49,9 L49,10 L47,10 L47,11 L45,11 L45,12 L42,12 L42,13 L39,13 L39,14 L25,14 L25,13 L22,13 L22,12 L19,12 L19,11 L17,11 L17,10 L15,10 L15,9 L12,9 L12,8 L9,8 L9,7 L0,7 Z M0,8 L9,8 L9,9 L12,9 L12,10 L14,10 L14,11 L16,11 L16,12 L18,12 L18,13 L21,13 L21,14 L24,14 L24,15 L39,15 L39,14 L43,14 L43,13 L45,13 L45,12 L48,12 L48,11 L50,11 L50,10 L52,10 L52,9 L55,9 L55,8 L64,8 L64,11 L55,11 L55,12 L52,12 L52,13 L49,13 L49,14 L47,14 L47,15 L45,15 L45,16 L42,16 L42,17 L39,17 L39,18 L25,18 L25,17 L22,17 L22,16 L19,16 L19,15 L17,15 L17,14 L15,14 L15,13 L12,13 L12,12 L9,12 L9,11 L0,11 Z " fill="#BBC4CB" transform="translate(0,23)"/>
<path d="M0,0 L64,0 L64,8 L0,8 Z " fill="#FFFFFF" transform="translate(0,0)"/>
<path d="M0,0 L9,0 L9,1 L12,1 L12,2 L14,2 L14,3 L16,3 L16,4 L18,4 L18,5 L21,5 L21,6 L24,6 L24,7 L39,7 L39,6 L43,6 L43,5 L45,5 L45,4 L48,4 L48,3 L50,3 L50,2 L52,2 L52,1 L55,1 L55,0 L64,0 L64,3 L55,3 L55,4 L52,4 L52,5 L49,5 L49,6 L47,6 L47,7 L45,7 L45,8 L42,8 L42,9 L39,9 L39,10 L25,10 L25,9 L22,9 L22,8 L19,8 L19,7 L17,7 L17,6 L15,6 L15,5 L12,5 L12,4 L9,4 L9,3 L0,3 Z " fill="#C8DBF5" transform="translate(0,19)"/>
<path d="M0,0 L1,0 L1,1 L0,1 Z " fill="#C7DAF4" opacity="0.99215686" transform="translate(21,27)"/>
<path d="M0,0 L64,0 L64,4 L0,4 Z " fill="#353541" transform="translate(0,60)"/>
<path d="M0,0 L64,0 L64,4 L0,4 Z " fill="#353541" transform="translate(0,0)"/>
<path d="M0,0 L9,0 L9,1 L12,1 L12,2 L14,2 L14,3 L16,3 L16,4 L18,4 L18,5 L21,5 L21,6 L24,6 L24,7 L39,7 L39,6 L43,6 L43,5 L45,5 L45,4 L48,4 L48,3 L50,3 L50,2 L52,2 L52,1 L55,1 L55,0 L64,0 L64,3 L55,3 L55,4 L52,4 L52,5 L49,5 L49,6 L47,6 L47,7 L45,7 L45,8 L42,8 L42,9 L39,9 L39,10 L25,10 L25,9 L22,9 L22,8 L19,8 L19,7 L17,7 L17,6 L15,6 L15,5 L12,5 L12,4 L9,4 L9,3 L0,3 Z " fill="#A6B2BB" transform="translate(0,31)"/>
<path d="M0,0 L8,0 L8,11 L2,11 L2,10 L3,10 L3,9 L4,9 L4,4 L3,4 L3,3 L2,3 L2,2 L-1,2 L-1,1 L0,1 Z " fill="#CFD5DA" transform="translate(56,35)"/>
<path d="M0,0 L4,0 L4,1 L5,1 L5,5 L4,5 L4,6 L0,6 L0,5 L-1,5 L-1,1 L0,1 Z " fill="#BBC4CB" transform="translate(54,38)"/>
<path d="M0,0 L3,0 L3,1 L4,1 L4,2 L3,2 L3,3 L0,3 Z " fill="#C8DBF5" transform="translate(35,18)"/>
<path d="M0,0 L3,0 L3,3 L2,3 L2,4 L1,4 L1,3 L0,3 Z " fill="#BBC4CB" transform="translate(44,43)"/>
<path d="M0,0 L1,0 L1,1 L2,1 L2,3 L1,3 L1,4 L0,4 L0,3 L-1,3 L-1,1 L0,1 Z " fill="#C8DBF5" transform="translate(9,12)"/>
<path d="M0,0 L1,0 L1,1 L0,1 Z " fill="#CED5DA" opacity="0.9607843" transform="translate(32,53)"/>
<path d="M0,0 L1,0 L1,1 L0,1 Z " fill="#A8B3BD" opacity="0.9607843" transform="translate(32,41)"/>
<path d="M0,0 L1,0 L1,1 L0,1 Z " fill="#B9C3CB" opacity="0.972549" transform="translate(31,37)"/>
<path d="M0,0 L1,0 L1,1 L0,1 Z " fill="#C8DAF3" opacity="0.9607843" transform="translate(32,29)"/>
<path d="M0,0 L1,0 L1,1 L0,1 Z " fill="#E4EFFF" opacity="0.972549" transform="translate(31,25)"/>
<path d="M0,0 L1,0 L1,1 L0,1 Z " fill="#BBC4CB" transform="translate(0,23)"/>
<path d="M0,0 L1,0 L1,1 L0,1 Z " fill="#C8DBF5" transform="translate(0,19)"/>
<path d="M0,0 L1,0 L1,1 L0,1 Z " fill="#BBC3CA" opacity="0.9843137" transform="translate(63,22)"/>
<path d="M0,0 L1,0 L1,1 L0,1 Z " fill="#BCC4CC" opacity="0.9411765" transform="translate(62,46)"/>
<path d="M0,0 L1,0 L1,1 L0,1 Z " fill="#A5B1BA" opacity="0.9411765" transform="translate(62,30)"/>
<path d="M0,0 L1,0 L1,1 L0,1 Z " fill="#A5B3BB" opacity="0.8352941" transform="translate(4,30)"/>
<path d="M0,0 L1,0 L1,1 L0,1 Z " fill="#C8DBF5" opacity="0.9411765" transform="translate(62,18)"/>
<path d="M0,0 L1,0 L1,1 L0,1 Z " fill="#C9D1D6" opacity="0.75686276" transform="translate(6,46)"/>
<path d="M0,0 L1,0 L1,1 L0,1 Z M-1,1 L0,1 L0,2 L-1,2 Z " fill="#C8DBF5" transform="translate(9,12)"/>
<path d="M0,0 L1,0 L1,1 L0,1 Z " fill="#CDD5D8" opacity="0.81960785" transform="translate(28,53)"/>
<path d="M0,0 L1,0 L1,1 L0,1 Z " fill="#B2BDC5" opacity="0.81960785" transform="translate(28,41)"/>
<path d="M0,0 L1,0 L1,1 L0,1 Z " fill="#CCD3D8" opacity="0.8352941" transform="translate(59,34)"/>
<path d="M0,0 L1,0 L1,1 L0,1 Z " fill="#C5D5E8" opacity="0.81960785" transform="translate(28,29)"/>
<path d="M0,0 L1,0 L1,1 L0,1 Z " fill="#D0E1F8" opacity="0.75686276" transform="translate(37,25)"/>
<path d="M0,0 L1,0 L1,1 L0,1 Z " fill="#BBC5CD" opacity="0.8352941" transform="translate(59,22)"/>
<path d="M0,0 L1,0 L1,1 L0,1 Z " fill="#CAD2D7" opacity="0.7647059" transform="translate(36,53)"/>
<path d="M0,0 L1,0 L1,1 L0,1 Z " fill="#CAD0D6" opacity="0.75686276" transform="translate(57,46)"/>
<path d="M0,0 L1,0 L1,1 L0,1 Z M-1,1 L0,1 L0,2 L-1,2 Z " fill="#CFD5DA" opacity="0.99607843" transform="translate(59,43)"/>
<path d="M0,0 L1,0 L1,1 L0,1 Z " fill="#C4CDD1" opacity="0.7764706" transform="translate(45,42)"/>
<path d="M0,0 L1,0 L1,1 L0,1 Z " fill="#BEC7CE" opacity="0.90588236" transform="translate(52,41)"/>
<path d="M0,0 L1,0 L1,1 L0,1 Z " fill="#BBC3CB" opacity="0.7647059" transform="translate(36,41)"/>
<path d="M0,0 L1,0 L1,1 L0,1 Z " fill="#B1BAC3" opacity="0.7647059" transform="translate(36,37)"/>
<path d="M0,0 L1,0 L1,1 L0,1 Z " fill="#ABB6BF" opacity="0.7607843" transform="translate(26,37)"/>
<path d="M0,0 L1,0 L1,1 L0,1 Z " fill="#CFD4DA" opacity="0.90588236" transform="translate(61,34)"/>
<path d="M0,0 L1,0 L1,1 L0,1 Z " fill="#BDC6CD" opacity="0.75686276" transform="translate(6,34)"/>
<path d="M0,0 L1,0 L1,1 L0,1 Z " fill="#AFB8C1" opacity="0.75686276" transform="translate(57,30)"/>
<path d="M0,0 L1,0 L1,1 L0,1 Z " fill="#AFB9C1" opacity="0.75686276" transform="translate(6,30)"/>
<path d="M0,0 L1,0 L1,1 L0,1 Z " fill="#C0D0DF" opacity="0.7647059" transform="translate(36,29)"/>
<path d="M0,0 L1,0 L1,1 L0,1 Z " fill="#CFE0F8" opacity="0.7607843" transform="translate(26,25)"/>
<path d="M0,0 L1,0 L1,1 L0,1 Z " fill="#C0CDDD" opacity="0.75686276" transform="translate(6,22)"/>
<path d="M0,0 L1,0 L1,1 L0,1 Z " fill="#C8DBF5" opacity="0.9529412" transform="translate(36,21)"/>
<path d="M0,0 L1,0 L1,1 L0,1 Z " fill="#C9DBF6" opacity="0.8509804" transform="translate(34,19)"/>
<path d="M0,0 L1,0 L1,1 L0,1 Z " fill="#D4E4FA" opacity="0.75686276" transform="translate(57,18)"/>
<path d="M0,0 L1,0 L1,1 L0,1 Z " fill="#D5E4FA" opacity="0.75686276" transform="translate(6,18)"/>
<path d="M0,0 L1,0 L1,1 L0,1 Z " fill="#C8DBF5" opacity="0.95686275" transform="translate(36,17)"/>
<path d="M0,0 L1,0 L1,1 L0,1 Z " fill="#CDD4D9" opacity="0.83137256" transform="translate(34,53)"/>
<path d="M0,0 L1,0 L1,1 L0,1 Z " fill="#CFD6DA" opacity="0.9098039" transform="translate(30,53)"/>
<path d="M0,0 L1,0 L1,1 L0,1 Z " fill="#C5CFD4" opacity="0.7607843" transform="translate(26,53)"/>
<path d="M0,0 L1,0 L1,1 L0,1 Z " fill="#C7CCD3" opacity="0.7607843" transform="translate(41,52)"/>
<path d="M0,0 L1,0 L1,1 L0,1 Z " fill="#CDD4D9" opacity="0.8" transform="translate(23,52)"/>
<path d="M0,0 L1,0 L1,1 L0,1 Z " fill="#C0C7CF" opacity="0.8235294" transform="translate(44,51)"/>
<path d="M0,0 L1,0 L1,1 L0,1 Z " fill="#CED4D9" opacity="0.80784315" transform="translate(20,51)"/>
<path d="M0,0 L1,0 L1,1 L0,1 Z " fill="#CFD5D9" opacity="0.8901961" transform="translate(18,50)"/>
<path d="M0,0 L1,0 L1,1 L0,1 Z " fill="#BEC6CD" opacity="0.91764706" transform="translate(49,49)"/>
<path d="M0,0 L1,0 L1,1 L0,1 Z " fill="#CED4D9" opacity="0.9411765" transform="translate(16,49)"/>
<path d="M0,0 L1,0 L1,1 L0,1 Z " fill="#BFC7CE" opacity="0.85490197" transform="translate(51,48)"/>
<path d="M0,0 L1,0 L1,1 L0,1 Z " fill="#CED4DA" opacity="0.98039216" transform="translate(14,48)"/>
<path d="M0,0 L1,0 L1,1 L0,1 Z " fill="#BFC8CE" opacity="0.8509804" transform="translate(54,47)"/>
<path d="M0,0 L1,0 L1,1 L0,1 Z " fill="#CFD5DA" opacity="0.9647059" transform="translate(46,47)"/>
<path d="M0,0 L1,0 L1,1 L0,1 Z " fill="#C9D0D6" opacity="0.7529412" transform="translate(10,47)"/>
<path d="M0,0 L1,0 L1,1 L0,1 Z " fill="#BBC4CB" transform="translate(0,47)"/>
<path d="M0,0 L1,0 L1,1 L0,1 Z " fill="#BFC8CE" opacity="0.87058824" transform="translate(60,46)"/>
<path d="M0,0 L1,0 L1,1 L0,1 Z " fill="#C0C8CF" opacity="0.8352941" transform="translate(4,46)"/>
<path d="M0,0 L1,0 L1,1 L0,1 Z " fill="#BEC6CD" opacity="0.90588236" transform="translate(2,46)"/>
<path d="M0,0 L2,0 L2,1 L0,1 Z " fill="#CFD5DA" transform="translate(56,45)"/>
<path d="M0,0 L1,0 L1,1 L0,1 Z " fill="#BEC6CD" opacity="0.90588236" transform="translate(55,44)"/>
<path d="M0,0 L1,0 L1,1 L0,1 Z " fill="#B1BBC3" opacity="0.83137256" transform="translate(34,41)"/>
<path d="M0,0 L1,0 L1,1 L0,1 Z " fill="#ABB7BE" opacity="0.9098039" transform="translate(30,41)"/>
<path d="M0,0 L1,0 L1,1 L0,1 Z " fill="#C5CDD4" opacity="0.7607843" transform="translate(26,41)"/>
<path d="M0,0 L1,0 L1,1 L0,1 Z " fill="#BEC6CD" opacity="0.90588236" transform="translate(59,40)"/>
<path d="M0,0 L1,0 L1,1 L0,1 Z " fill="#C5CCD3" opacity="0.7607843" transform="translate(41,40)"/>
<path d="M0,0 L1,0 L1,1 L0,1 Z " fill="#B4BEC6" opacity="0.8" transform="translate(23,40)"/>
<path d="M0,0 L1,0 L1,1 L0,1 Z " fill="#CCD1D7" opacity="0.8235294" transform="translate(44,39)"/>
<path d="M0,0 L1,0 L1,1 L0,1 Z " fill="#B4BEC5" opacity="0.80784315" transform="translate(20,39)"/>
<path d="M0,0 L1,0 L1,1 L0,1 Z M-1,1 L0,1 L0,2 L-1,2 Z " fill="#BBC4CB" transform="translate(54,38)"/>
<path d="M0,0 L1,0 L1,1 L0,1 Z " fill="#CFD5DA" opacity="0.96862745" transform="translate(47,38)"/>
<path d="M0,0 L1,0 L1,1 L0,1 Z " fill="#BEC7CE" opacity="0.90588236" transform="translate(55,37)"/>
<path d="M0,0 L1,0 L1,1 L0,1 Z " fill="#CED4D9" opacity="0.91764706" transform="translate(49,37)"/>
<path d="M0,0 L1,0 L1,1 L0,1 Z " fill="#B5BEC7" opacity="0.83137256" transform="translate(34,37)"/>
<path d="M0,0 L1,0 L1,1 L0,1 Z " fill="#B7C0C7" opacity="0.85882354" transform="translate(29,37)"/>
<path d="M0,0 L1,0 L1,1 L0,1 Z " fill="#CDD3D9" opacity="0.85490197" transform="translate(51,36)"/>
<path d="M0,0 L1,0 L1,1 L0,1 Z " fill="#ABB6BE" opacity="0.7607843" transform="translate(41,36)"/>
<path d="M0,0 L1,0 L1,1 L0,1 Z " fill="#B3BEC6" opacity="0.8" transform="translate(23,36)"/>
<path d="M0,0 L1,0 L1,1 L0,1 Z " fill="#A6B3BB" opacity="0.98039216" transform="translate(14,36)"/>
<path d="M0,0 L1,0 L1,1 L0,1 Z " fill="#CDD3D7" opacity="0.8509804" transform="translate(54,35)"/>
<path d="M0,0 L1,0 L1,1 L0,1 Z " fill="#A7B1BB" opacity="0.8235294" transform="translate(44,35)"/>
<path d="M0,0 L1,0 L1,1 L0,1 Z " fill="#B4BEC6" opacity="0.80784315" transform="translate(20,35)"/>
<path d="M0,0 L1,0 L1,1 L0,1 Z " fill="#AEB8C0" opacity="0.8745098" transform="translate(11,35)"/>
<path d="M0,0 L1,0 L1,1 L0,1 Z " fill="#CFD5DA" transform="translate(0,35)"/>
<path d="M0,0 L1,0 L1,1 L0,1 Z " fill="#BDC6CD" opacity="0.75686276" transform="translate(57,34)"/>
<path d="M0,0 L1,0 L1,1 L0,1 Z " fill="#A5B2BB" opacity="0.96862745" transform="translate(47,34)"/>
<path d="M0,0 L1,0 L1,1 L0,1 Z " fill="#B7C1C8" opacity="0.8901961" transform="translate(18,34)"/>
<path d="M0,0 L1,0 L1,1 L0,1 Z " fill="#CCD3D8" opacity="0.8352941" transform="translate(4,34)"/>
<path d="M0,0 L1,0 L1,1 L0,1 Z " fill="#CFD4DA" opacity="0.90588236" transform="translate(2,34)"/>
<path d="M0,0 L1,0 L1,1 L0,1 Z " fill="#A6B2BB" opacity="0.91764706" transform="translate(49,33)"/>
<path d="M0,0 L1,0 L1,1 L0,1 Z " fill="#B9C3C9" opacity="0.9411765" transform="translate(16,33)"/>
<path d="M0,0 L1,0 L1,1 L0,1 Z " fill="#A6B2BB" opacity="0.85490197" transform="translate(51,32)"/>
<path d="M0,0 L1,0 L1,1 L0,1 Z " fill="#BAC3CA" opacity="0.98039216" transform="translate(14,32)"/>
<path d="M0,0 L1,0 L1,1 L0,1 Z " fill="#A6B3BB" opacity="0.8509804" transform="translate(54,31)"/>
<path d="M0,0 L1,0 L1,1 L0,1 Z " fill="#B6C0C8" opacity="0.8745098" transform="translate(11,31)"/>
<path d="M0,0 L1,0 L1,1 L0,1 Z " fill="#A6B1BB" opacity="0.87058824" transform="translate(60,30)"/>
<path d="M0,0 L1,0 L1,1 L0,1 Z " fill="#A6B2BB" opacity="0.90588236" transform="translate(2,30)"/>
<path d="M0,0 L1,0 L1,1 L0,1 Z " fill="#C4D4EB" opacity="0.83137256" transform="translate(34,29)"/>
<path d="M0,0 L1,0 L1,1 L0,1 Z " fill="#C7D9F1" opacity="0.9098039" transform="translate(30,29)"/>
<path d="M0,0 L1,0 L1,1 L0,1 Z " fill="#BEC9D5" opacity="0.7607843" transform="translate(26,29)"/>
<path d="M0,0 L1,0 L1,1 L0,1 Z " fill="#BEC8D4" opacity="0.7607843" transform="translate(41,28)"/>
<path d="M0,0 L1,0 L1,1 L0,1 Z " fill="#C3D4E8" opacity="0.8" transform="translate(23,28)"/>
<path d="M0,0 L1,0 L1,1 L0,1 Z " fill="#BBC5CE" opacity="0.8235294" transform="translate(44,27)"/>
<path d="M0,0 L1,0 L1,1 L0,1 Z " fill="#C4D3E7" opacity="0.80784315" transform="translate(20,27)"/>
<path d="M0,0 L1,0 L1,1 L0,1 Z " fill="#BBC3CB" opacity="0.96862745" transform="translate(47,26)"/>
<path d="M0,0 L1,0 L1,1 L0,1 Z " fill="#C6D7EF" opacity="0.8901961" transform="translate(18,26)"/>
<path d="M0,0 L1,0 L1,1 L0,1 Z " fill="#BBC4CB" opacity="0.91764706" transform="translate(49,25)"/>
<path d="M0,0 L1,0 L1,1 L0,1 Z " fill="#DBE9FC" opacity="0.7882353" transform="translate(35,25)"/>
<path d="M0,0 L1,0 L1,1 L0,1 Z " fill="#E0ECFE" opacity="0.85882354" transform="translate(29,25)"/>
<path d="M0,0 L1,0 L1,1 L0,1 Z " fill="#C6D9F2" opacity="0.9411765" transform="translate(16,25)"/>
<path d="M0,0 L1,0 L1,1 L0,1 Z " fill="#BBC5CD" opacity="0.85490197" transform="translate(51,24)"/>
<path d="M0,0 L1,0 L1,1 L0,1 Z " fill="#CFE0F8" opacity="0.7607843" transform="translate(41,24)"/>
<path d="M0,0 L1,0 L1,1 L0,1 Z " fill="#DBE9FC" opacity="0.8" transform="translate(23,24)"/>
<path d="M0,0 L1,0 L1,1 L0,1 Z " fill="#C7DBF4" opacity="0.98039216" transform="translate(14,24)"/>
<path d="M0,0 L1,0 L1,1 L0,1 Z " fill="#BBC5CC" opacity="0.8509804" transform="translate(54,23)"/>
<path d="M0,0 L1,0 L1,1 L0,1 Z " fill="#C9DCF6" opacity="0.8235294" transform="translate(44,23)"/>
<path d="M0,0 L1,0 L1,1 L0,1 Z " fill="#DBEAFD" opacity="0.80784315" transform="translate(20,23)"/>
<path d="M0,0 L1,0 L1,1 L0,1 Z " fill="#C6D7EE" opacity="0.8745098" transform="translate(11,23)"/>
<path d="M0,0 L1,0 L1,1 L0,1 Z " fill="#BBC4CB" opacity="0.90588236" transform="translate(61,22)"/>
<path d="M0,0 L1,0 L1,1 L0,1 Z " fill="#C0CDDC" opacity="0.75686276" transform="translate(57,22)"/>
<path d="M0,0 L1,0 L1,1 L0,1 Z " fill="#C8DBF5" opacity="0.96862745" transform="translate(47,22)"/>
<path d="M0,0 L1,0 L1,1 L0,1 Z " fill="#E1EDFE" opacity="0.8901961" transform="translate(18,22)"/>
<path d="M0,0 L1,0 L1,1 L0,1 Z " fill="#BBC5CD" opacity="0.8352941" transform="translate(4,22)"/>
<path d="M0,0 L1,0 L1,1 L0,1 Z " fill="#BBC4CB" opacity="0.90588236" transform="translate(2,22)"/>
<path d="M0,0 L1,0 L1,1 L0,1 Z " fill="#C9DBF5" opacity="0.91764706" transform="translate(49,21)"/>
<path d="M0,0 L1,0 L1,1 L0,1 Z " fill="#E2F0FF" opacity="0.9411765" transform="translate(16,21)"/>
<path d="M0,0 L1,0 L1,1 L0,1 Z " fill="#C8DCF5" opacity="0.85490197" transform="translate(51,20)"/>
<path d="M0,0 L1,0 L1,1 L0,1 Z " fill="#E4EFFF" opacity="0.98039216" transform="translate(14,20)"/>
<path d="M0,0 L1,0 L1,1 L0,1 Z " fill="#C9DBF6" opacity="0.8509804" transform="translate(54,19)"/>
<path d="M0,0 L1,0 L1,1 L0,1 Z " fill="#E1EDFE" opacity="0.8745098" transform="translate(11,19)"/>
<path d="M0,0 L1,0 L1,1 L0,1 Z " fill="#C8DBF5" opacity="0.87058824" transform="translate(60,18)"/>
<path d="M0,0 L1,0 L1,1 L0,1 Z " fill="#C8DBF6" opacity="0.8352941" transform="translate(4,18)"/>
<path d="M0,0 L1,0 L1,1 L0,1 Z " fill="#C7DBF6" opacity="0.90588236" transform="translate(2,18)"/>
<path d="M0,0 L1,0 L1,1 L0,1 Z " fill="#DDEBFD" opacity="0.8392157" transform="translate(10,16)"/>
<path d="M0,0 L1,0 L1,2 L0,2 Z " fill="#E3EFFF" opacity="0.95686275" transform="translate(12,13)"/>
<path d="M0,0 L1,0 L1,1 L0,1 Z " fill="#C7DBF5" opacity="0.9647059" transform="translate(11,14)"/>
<path d="M0,0 L1,0 L1,1 L0,1 Z " fill="#CBDEF7" opacity="0.8" transform="translate(7,14)"/>
<path d="M0,0 L1,0 L1,1 L0,1 Z " fill="#DDEBFD" opacity="0.8235294" transform="translate(10,11)"/>
<path d="M0,0 L1,0 L1,1 L0,1 Z " fill="#BFC8CF" opacity="0.85490197" transform="translate(38,53)"/>
<path d="M0,0 L1,0 L1,1 L0,1 Z " fill="#C6CED4" opacity="0.75686276" transform="translate(37,53)"/>
<path d="M0,0 L1,0 L1,1 L0,1 Z " fill="#CDD3D8" opacity="0.7882353" transform="translate(35,53)"/>
<path d="M0,0 L1,0 L1,1 L0,1 Z " fill="#CFD4D9" opacity="0.8862745" transform="translate(33,53)"/>
<path d="M0,0 L1,0 L1,1 L0,1 Z " fill="#CFD5DA" opacity="0.972549" transform="translate(31,53)"/>
<path d="M0,0 L1,0 L1,1 L0,1 Z " fill="#CED4DA" opacity="0.85882354" transform="translate(29,53)"/>
<path d="M0,0 L1,0 L1,1 L0,1 Z " fill="#CAD2D7" opacity="0.7647059" transform="translate(27,53)"/>
<path d="M0,0 L1,0 L1,1 L0,1 Z " fill="#C0C8CE" opacity="0.8392157" transform="translate(25,53)"/>
<path d="M0,0 L1,0 L1,1 L0,1 Z " fill="#BCC5CB" opacity="0.9764706" transform="translate(24,53)"/>
<path d="M0,0 L1,0 L1,1 L0,1 Z " fill="#BDC6CD" opacity="0.9098039" transform="translate(42,52)"/>
<path d="M0,0 L1,0 L1,1 L0,1 Z " fill="#CCD2D8" opacity="0.78039217" transform="translate(40,52)"/>
<path d="M0,0 L1,0 L1,1 L0,1 Z " fill="#CFD5DA" opacity="0.92941177" transform="translate(39,52)"/>
<path d="M0,0 L1,0 L1,1 L0,1 Z " fill="#CFD5DA" opacity="0.9843137" transform="translate(24,52)"/>
<path d="M0,0 L1,0 L1,1 L0,1 Z " fill="#C5CDD3" opacity="0.7607843" transform="translate(22,52)"/>
<path d="M0,0 L1,0 L1,1 L0,1 Z " fill="#BDC6CC" opacity="0.92941177" transform="translate(21,52)"/>
<path d="M0,0 L1,0 L1,1 L0,1 Z " fill="#CDD4D7" opacity="0.7764706" transform="translate(43,51)"/>
<path d="M0,0 L1,0 L1,1 L0,1 Z " fill="#CFD5DA" opacity="0.9882353" transform="translate(42,51)"/>
<path d="M0,0 L1,0 L1,1 L0,1 Z " fill="#CFD5DA" opacity="0.99215686" transform="translate(21,51)"/>
<path d="M0,0 L1,0 L1,1 L0,1 Z " fill="#C4CCD2" opacity="0.78039217" transform="translate(19,51)"/>
<path d="M0,0 L1,0 L1,1 L0,1 Z " fill="#BCC4CB" opacity="0.99215686" transform="translate(18,51)"/>
<path d="M0,0 L1,0 L1,1 L0,1 Z " fill="#BBC4CC" opacity="0.96862745" transform="translate(47,50)"/>
<path d="M0,0 L1,0 L1,1 L0,1 Z " fill="#C6CED4" opacity="0.7647059" transform="translate(46,50)"/>
<path d="M0,0 L1,0 L1,1 L0,1 Z " fill="#CDD4D9" opacity="0.8509804" transform="translate(45,50)"/>
<path d="M0,0 L1,0 L1,1 L0,1 Z " fill="#C6CED4" opacity="0.75686276" transform="translate(17,50)"/>
<path d="M0,0 L1,0 L1,1 L0,1 Z " fill="#BCC5CC" opacity="0.9607843" transform="translate(16,50)"/>
<path d="M0,0 L1,0 L1,1 L0,1 Z " fill="#C9D0D6" opacity="0.7529412" transform="translate(48,49)"/>
<path d="M0,0 L1,0 L1,1 L0,1 Z " fill="#CED5DA" opacity="0.9372549" transform="translate(47,49)"/>
<path d="M0,0 L1,0 L1,1 L0,1 Z " fill="#C9D1D5" opacity="0.7529412" transform="translate(15,49)"/>
<path d="M0,0 L1,0 L1,1 L0,1 Z " fill="#BCC6CC" opacity="0.9137255" transform="translate(14,49)"/>
<path d="M0,0 L1,0 L1,1 L0,1 Z " fill="#CAD2D7" opacity="0.7647059" transform="translate(50,48)"/>
<path d="M0,0 L1,0 L1,1 L0,1 Z " fill="#CFD5D9" opacity="0.9764706" transform="translate(49,48)"/>
<path d="M0,0 L1,0 L1,1 L0,1 Z " fill="#CBD2D7" opacity="0.7647059" transform="translate(13,48)"/>
<path d="M0,0 L1,0 L1,1 L0,1 Z " fill="#C0C8CE" opacity="0.8509804" transform="translate(12,48)"/>
<path d="M0,0 L1,0 L1,1 L0,1 Z " fill="#C9D0D5" opacity="0.7529412" transform="translate(53,47)"/>
<path d="M0,0 L1,0 L1,1 L0,1 Z " fill="#CED5D9" opacity="0.87058824" transform="translate(52,47)"/>
<path d="M0,0 L1,0 L1,1 L0,1 Z " fill="#CDD3DA" opacity="0.81960785" transform="translate(45,47)"/>
<path d="M0,0 L1,0 L1,1 L0,1 Z " fill="#CFD4DA" opacity="0.95686275" transform="translate(44,47)"/>
<path d="M0,0 L1,0 L1,1 L0,1 Z " fill="#CFD5DA" opacity="0.8745098" transform="translate(11,47)"/>
<path d="M0,0 L1,0 L1,1 L0,1 Z " fill="#C0C8CE" opacity="0.84705883" transform="translate(9,47)"/>
<path d="M0,0 L1,0 L1,1 L0,1 Z " fill="#BBC3CA" opacity="0.9843137" transform="translate(63,46)"/>
<path d="M0,0 L1,0 L1,1 L0,1 Z " fill="#BEC6CD" opacity="0.90588236" transform="translate(61,46)"/>
<path d="M0,0 L1,0 L1,1 L0,1 Z " fill="#C0C8CF" opacity="0.8352941" transform="translate(59,46)"/>
<path d="M0,0 L1,0 L1,1 L0,1 Z " fill="#C6CCD3" opacity="0.7647059" transform="translate(58,46)"/>
<path d="M0,0 L1,0 L1,1 L0,1 Z " fill="#CDD4D9" opacity="0.8156863" transform="translate(56,46)"/>
<path d="M0,0 L1,0 L1,1 L0,1 Z " fill="#CFD5DA" opacity="0.94509804" transform="translate(55,46)"/>
<path d="M0,0 L1,0 L1,1 L0,1 Z " fill="#CFD4DA" opacity="0.9019608" transform="translate(47,46)"/>
<path d="M0,0 L1,0 L1,1 L0,1 Z " fill="#BFC7CE" opacity="0.8666667" transform="translate(46,46)"/>
<path d="M0,0 L1,0 L1,1 L0,1 Z " fill="#BFC7CF" opacity="0.88235295" transform="translate(44,46)"/>
<path d="M0,0 L1,0 L1,1 L0,1 Z " fill="#CFD5DA" opacity="0.90588236" transform="translate(43,46)"/>
<path d="M0,0 L1,0 L1,1 L0,1 Z " fill="#CFD5DA" opacity="0.94509804" transform="translate(8,46)"/>
<path d="M0,0 L1,0 L1,1 L0,1 Z " fill="#CDD4D9" opacity="0.8156863" transform="translate(7,46)"/>
<path d="M0,0 L1,0 L1,1 L0,1 Z " fill="#C6CCD3" opacity="0.7647059" transform="translate(5,46)"/>
<path d="M0,0 L1,0 L1,1 L0,1 Z " fill="#BFC8CE" opacity="0.87058824" transform="translate(3,46)"/>
<path d="M0,0 L1,0 L1,1 L0,1 Z " fill="#BCC4CC" opacity="0.9411765" transform="translate(1,46)"/>
<path d="M0,0 L1,0 L1,1 L0,1 Z " fill="#BBC3CA" opacity="0.9843137" transform="translate(0,46)"/>
<path d="M0,0 L1,0 L1,1 L0,1 Z " fill="#C1C8CE" opacity="0.8352941" transform="translate(47,45)"/>
<path d="M0,0 L1,0 L1,1 L0,1 Z " fill="#C0C8CF" opacity="0.827451" transform="translate(43,45)"/>
<path d="M0,0 L1,0 L1,1 L0,1 Z " fill="#C9D0D5" opacity="0.7529412" transform="translate(57,44)"/>
<path d="M0,0 L1,0 L1,1 L0,1 Z " fill="#BDC6CD" opacity="0.9254902" transform="translate(56,44)"/>
<path d="M0,0 L1,0 L1,1 L0,1 Z " fill="#C9D1D6" opacity="0.75686276" transform="translate(54,44)"/>
<path d="M0,0 L1,0 L1,1 L0,1 Z " fill="#BDC5CC" opacity="0.9372549" transform="translate(47,44)"/>
<path d="M0,0 L1,0 L1,1 L0,1 Z " fill="#BCC5CC" opacity="0.9411765" transform="translate(43,44)"/>
<path d="M0,0 L1,0 L1,1 L0,1 Z " fill="#C5CDD2" opacity="0.76862746" transform="translate(58,43)"/>
<path d="M0,0 L1,0 L1,1 L0,1 Z " fill="#C6CED4" opacity="0.75686276" transform="translate(53,43)"/>
<path d="M0,0 L1,0 L1,1 L0,1 Z " fill="#CBD2D7" opacity="0.76862746" transform="translate(47,43)"/>
<path d="M0,0 L1,0 L1,1 L0,1 Z " fill="#CCD2D7" opacity="0.77254903" transform="translate(43,43)"/>
<path d="M0,0 L1,0 L1,1 L0,1 Z " fill="#C8D0D5" opacity="0.7529412" transform="translate(59,42)"/>
<path d="M0,0 L1,0 L1,1 L0,1 Z " fill="#CAD0D6" opacity="0.75686276" transform="translate(52,42)"/>
<path d="M0,0 L1,0 L1,1 L0,1 Z " fill="#CCD3D9" opacity="0.78431374" transform="translate(46,42)"/>
<path d="M0,0 L1,0 L1,1 L0,1 Z " fill="#CCD2D9" opacity="0.78039217" transform="translate(44,42)"/>
<path d="M0,0 L1,0 L1,1 L0,1 Z " fill="#BDC6CC" opacity="0.92156863" transform="translate(59,41)"/>
<path d="M0,0 L1,0 L1,1 L0,1 Z " fill="#CED4D9" opacity="0.85490197" transform="translate(38,41)"/>
<path d="M0,0 L1,0 L1,1 L0,1 Z " fill="#C5CDD4" opacity="0.75686276" transform="translate(37,41)"/>
<path d="M0,0 L1,0 L1,1 L0,1 Z " fill="#B6C0C7" opacity="0.7882353" transform="translate(35,41)"/>
<path d="M0,0 L1,0 L1,1 L0,1 Z " fill="#ACB8BF" opacity="0.8862745" transform="translate(33,41)"/>
<path d="M0,0 L1,0 L1,1 L0,1 Z " fill="#A7B4BB" opacity="0.972549" transform="translate(31,41)"/>
<path d="M0,0 L1,0 L1,1 L0,1 Z " fill="#AFB9C2" opacity="0.85882354" transform="translate(29,41)"/>
<path d="M0,0 L1,0 L1,1 L0,1 Z " fill="#BAC4CB" opacity="0.7647059" transform="translate(27,41)"/>
<path d="M0,0 L1,0 L1,1 L0,1 Z " fill="#CCD2D8" opacity="0.8392157" transform="translate(25,41)"/>
<path d="M0,0 L1,0 L1,1 L0,1 Z " fill="#CFD5D9" opacity="0.9764706" transform="translate(24,41)"/>
<path d="M0,0 L1,0 L1,1 L0,1 Z " fill="#BEC6CD" opacity="0.90588236" transform="translate(52,40)"/>
<path d="M0,0 L1,0 L1,1 L0,1 Z " fill="#CED4DA" opacity="0.9098039" transform="translate(42,40)"/>
<path d="M0,0 L1,0 L1,1 L0,1 Z " fill="#B7C0C8" opacity="0.78039217" transform="translate(40,40)"/>
<path d="M0,0 L1,0 L1,1 L0,1 Z " fill="#A9B5BE" opacity="0.92941177" transform="translate(39,40)"/>
<path d="M0,0 L1,0 L1,1 L0,1 Z " fill="#A7B2BB" opacity="0.9843137" transform="translate(24,40)"/>
<path d="M0,0 L1,0 L1,1 L0,1 Z " fill="#C8CDD4" opacity="0.7607843" transform="translate(22,40)"/>
<path d="M0,0 L1,0 L1,1 L0,1 Z " fill="#CFD5DA" opacity="0.92941177" transform="translate(21,40)"/>
<path d="M0,0 L1,0 L1,1 L0,1 Z " fill="#C9D1D6" opacity="0.75686276" transform="translate(59,39)"/>
<path d="M0,0 L1,0 L1,1 L0,1 Z " fill="#CBD0D7" opacity="0.7607843" transform="translate(52,39)"/>
<path d="M0,0 L1,0 L1,1 L0,1 Z " fill="#B8C3C9" opacity="0.7764706" transform="translate(43,39)"/>
<path d="M0,0 L1,0 L1,1 L0,1 Z " fill="#A6B1BB" opacity="0.9882353" transform="translate(42,39)"/>
<path d="M0,0 L1,0 L1,1 L0,1 Z " fill="#A6B3BC" opacity="0.99215686" transform="translate(21,39)"/>
<path d="M0,0 L1,0 L1,1 L0,1 Z " fill="#C9D0D6" opacity="0.78039217" transform="translate(19,39)"/>
<path d="M0,0 L1,0 L1,1 L0,1 Z " fill="#CFD5DA" opacity="0.99215686" transform="translate(18,39)"/>
<path d="M0,0 L1,0 L1,1 L0,1 Z " fill="#C6CED4" opacity="0.75686276" transform="translate(58,38)"/>
<path d="M0,0 L1,0 L1,1 L0,1 Z " fill="#C9D0D5" opacity="0.7529412" transform="translate(53,38)"/>
<path d="M0,0 L1,0 L1,1 L0,1 Z " fill="#C7CFD4" opacity="0.7647059" transform="translate(46,38)"/>
<path d="M0,0 L1,0 L1,1 L0,1 Z " fill="#AFBAC1" opacity="0.8509804" transform="translate(45,38)"/>
<path d="M0,0 L1,0 L1,1 L0,1 Z " fill="#ACB7BF" opacity="0.8901961" transform="translate(18,38)"/>
<path d="M0,0 L1,0 L1,1 L0,1 Z " fill="#C5CDD4" opacity="0.75686276" transform="translate(17,38)"/>
<path d="M0,0 L1,0 L1,1 L0,1 Z " fill="#CED5DA" opacity="0.9607843" transform="translate(16,38)"/>
<path d="M0,0 L1,0 L1,1 L0,1 Z " fill="#CAD1D6" opacity="0.75686276" transform="translate(57,37)"/>
<path d="M0,0 L1,0 L1,1 L0,1 Z " fill="#BEC6CC" opacity="0.9019608" transform="translate(56,37)"/>
<path d="M0,0 L1,0 L1,1 L0,1 Z " fill="#C9D1D7" opacity="0.7607843" transform="translate(54,37)"/>
<path d="M0,0 L1,0 L1,1 L0,1 Z " fill="#C0C9CE" opacity="0.7529412" transform="translate(48,37)"/>
<path d="M0,0 L1,0 L1,1 L0,1 Z " fill="#A9B5BE" opacity="0.9372549" transform="translate(47,37)"/>
<path d="M0,0 L1,0 L1,1 L0,1 Z " fill="#A6B3BB" opacity="0.85490197" transform="translate(38,37)"/>
<path d="M0,0 L1,0 L1,1 L0,1 Z " fill="#ABB5C0" opacity="0.75686276" transform="translate(37,37)"/>
<path d="M0,0 L1,0 L1,1 L0,1 Z " fill="#B3BDC5" opacity="0.7882353" transform="translate(35,37)"/>
<path d="M0,0 L1,0 L1,1 L0,1 Z " fill="#B7C1C8" opacity="0.8862745" transform="translate(33,37)"/>
<path d="M0,0 L1,0 L1,1 L0,1 Z " fill="#B9C4CA" opacity="0.9607843" transform="translate(32,37)"/>
<path d="M0,0 L1,0 L1,1 L0,1 Z " fill="#B9C2C9" opacity="0.9098039" transform="translate(30,37)"/>
<path d="M0,0 L1,0 L1,1 L0,1 Z " fill="#B5BFC7" opacity="0.81960785" transform="translate(28,37)"/>
<path d="M0,0 L1,0 L1,1 L0,1 Z " fill="#AFBBC2" opacity="0.7647059" transform="translate(27,37)"/>
<path d="M0,0 L1,0 L1,1 L0,1 Z " fill="#A7B2BB" opacity="0.8392157" transform="translate(25,37)"/>
<path d="M0,0 L1,0 L1,1 L0,1 Z " fill="#A6B1BB" opacity="0.9764706" transform="translate(24,37)"/>
<path d="M0,0 L1,0 L1,1 L0,1 Z " fill="#A9B4BD" opacity="0.9411765" transform="translate(16,37)"/>
<path d="M0,0 L1,0 L1,1 L0,1 Z " fill="#C1C9CE" opacity="0.7529412" transform="translate(15,37)"/>
<path d="M0,0 L1,0 L1,1 L0,1 Z " fill="#CED5D9" opacity="0.9137255" transform="translate(14,37)"/>
<path d="M0,0 L1,0 L1,1 L0,1 Z " fill="#BAC4CB" opacity="0.7647059" transform="translate(50,36)"/>
<path d="M0,0 L1,0 L1,1 L0,1 Z " fill="#A7B2BC" opacity="0.9764706" transform="translate(49,36)"/>
<path d="M0,0 L1,0 L1,1 L0,1 Z " fill="#A6B2BB" opacity="0.9098039" transform="translate(42,36)"/>
<path d="M0,0 L1,0 L1,1 L0,1 Z " fill="#B2BDC6" opacity="0.78039217" transform="translate(40,36)"/>
<path d="M0,0 L1,0 L1,1 L0,1 Z " fill="#B9C3C9" opacity="0.92941177" transform="translate(39,36)"/>
<path d="M0,0 L1,0 L1,1 L0,1 Z " fill="#BAC2CA" opacity="0.9843137" transform="translate(24,36)"/>
<path d="M0,0 L1,0 L1,1 L0,1 Z " fill="#ABB6BE" opacity="0.7607843" transform="translate(22,36)"/>
<path d="M0,0 L1,0 L1,1 L0,1 Z " fill="#A6B2BB" opacity="0.92941177" transform="translate(21,36)"/>
<path d="M0,0 L1,0 L1,1 L0,1 Z " fill="#BBC3CB" opacity="0.7647059" transform="translate(13,36)"/>
<path d="M0,0 L1,0 L1,1 L0,1 Z " fill="#CDD4D9" opacity="0.8509804" transform="translate(12,36)"/>
<path d="M0,0 L1,0 L1,1 L0,1 Z " fill="#C1C9D0" opacity="0.7529412" transform="translate(53,35)"/>
<path d="M0,0 L1,0 L1,1 L0,1 Z " fill="#ACB7C0" opacity="0.87058824" transform="translate(52,35)"/>
<path d="M0,0 L1,0 L1,1 L0,1 Z " fill="#B2BCC4" opacity="0.7764706" transform="translate(43,35)"/>
<path d="M0,0 L1,0 L1,1 L0,1 Z " fill="#B9C4CB" opacity="0.9882353" transform="translate(42,35)"/>
<path d="M0,0 L1,0 L1,1 L0,1 Z " fill="#BBC3CA" opacity="0.99215686" transform="translate(21,35)"/>
<path d="M0,0 L1,0 L1,1 L0,1 Z " fill="#A9B5BE" opacity="0.78039217" transform="translate(19,35)"/>
<path d="M0,0 L1,0 L1,1 L0,1 Z " fill="#A5B2BB" opacity="0.99215686" transform="translate(18,35)"/>
<path d="M0,0 L1,0 L1,1 L0,1 Z " fill="#C0C9CE" opacity="0.7529412" transform="translate(10,35)"/>
<path d="M0,0 L1,0 L1,1 L0,1 Z " fill="#CED4DA" opacity="0.84705883" transform="translate(9,35)"/>
<path d="M0,0 L1,0 L1,1 L0,1 Z " fill="#CFD5DA" opacity="0.9843137" transform="translate(63,34)"/>
<path d="M0,0 L1,0 L1,1 L0,1 Z " fill="#CED4D9" opacity="0.9411765" transform="translate(62,34)"/>
<path d="M0,0 L1,0 L1,1 L0,1 Z " fill="#CED4D8" opacity="0.87058824" transform="translate(60,34)"/>
<path d="M0,0 L1,0 L1,1 L0,1 Z " fill="#C7CFD4" opacity="0.7647059" transform="translate(58,34)"/>
<path d="M0,0 L1,0 L1,1 L0,1 Z " fill="#B2BDC4" opacity="0.8156863" transform="translate(56,34)"/>
<path d="M0,0 L1,0 L1,1 L0,1 Z " fill="#A8B5BE" opacity="0.94509804" transform="translate(55,34)"/>
<path d="M0,0 L1,0 L1,1 L0,1 Z " fill="#AAB6BF" opacity="0.7647059" transform="translate(46,34)"/>
<path d="M0,0 L1,0 L1,1 L0,1 Z " fill="#B5C0C7" opacity="0.8509804" transform="translate(45,34)"/>
<path d="M0,0 L1,0 L1,1 L0,1 Z " fill="#ABB5C0" opacity="0.75686276" transform="translate(17,34)"/>
<path d="M0,0 L1,0 L1,1 L0,1 Z " fill="#A6B2BB" opacity="0.9607843" transform="translate(16,34)"/>
<path d="M0,0 L1,0 L1,1 L0,1 Z " fill="#A8B5BE" opacity="0.94509804" transform="translate(8,34)"/>
<path d="M0,0 L1,0 L1,1 L0,1 Z " fill="#B2BDC4" opacity="0.8156863" transform="translate(7,34)"/>
<path d="M0,0 L1,0 L1,1 L0,1 Z " fill="#C7CFD4" opacity="0.7647059" transform="translate(5,34)"/>
<path d="M0,0 L1,0 L1,1 L0,1 Z " fill="#CED4D8" opacity="0.87058824" transform="translate(3,34)"/>
<path d="M0,0 L1,0 L1,1 L0,1 Z " fill="#CED4D9" opacity="0.9411765" transform="translate(1,34)"/>
<path d="M0,0 L1,0 L1,1 L0,1 Z " fill="#CFD5DA" opacity="0.9843137" transform="translate(0,34)"/>
<path d="M0,0 L1,0 L1,1 L0,1 Z " fill="#ADB8C1" opacity="0.7529412" transform="translate(48,33)"/>
<path d="M0,0 L1,0 L1,1 L0,1 Z " fill="#B9C1C9" opacity="0.9372549" transform="translate(47,33)"/>
<path d="M0,0 L1,0 L1,1 L0,1 Z " fill="#ADB9C1" opacity="0.7529412" transform="translate(15,33)"/>
<path d="M0,0 L1,0 L1,1 L0,1 Z " fill="#A5B1BB" opacity="0.9137255" transform="translate(14,33)"/>
<path d="M0,0 L1,0 L1,1 L0,1 Z " fill="#AFBBC2" opacity="0.7647059" transform="translate(50,32)"/>
<path d="M0,0 L1,0 L1,1 L0,1 Z " fill="#BAC4CA" opacity="0.9764706" transform="translate(49,32)"/>
<path d="M0,0 L1,0 L1,1 L0,1 Z " fill="#B1BAC3" opacity="0.7647059" transform="translate(13,32)"/>
<path d="M0,0 L1,0 L1,1 L0,1 Z " fill="#A7B3BB" opacity="0.8509804" transform="translate(12,32)"/>
<path d="M0,0 L1,0 L1,1 L0,1 Z " fill="#AEB8C1" opacity="0.7529412" transform="translate(53,31)"/>
<path d="M0,0 L1,0 L1,1 L0,1 Z " fill="#B7C1C8" opacity="0.87058824" transform="translate(52,31)"/>
<path d="M0,0 L1,0 L1,1 L0,1 Z " fill="#ADB8C1" opacity="0.7529412" transform="translate(10,31)"/>
<path d="M0,0 L1,0 L1,1 L0,1 Z " fill="#A7B2BB" opacity="0.84705883" transform="translate(9,31)"/>
<path d="M0,0 L1,0 L1,1 L0,1 Z " fill="#A6B2BB" opacity="0.9843137" transform="translate(63,30)"/>
<path d="M0,0 L1,0 L1,1 L0,1 Z " fill="#A6B2BB" opacity="0.90588236" transform="translate(61,30)"/>
<path d="M0,0 L1,0 L1,1 L0,1 Z " fill="#A5B3BB" opacity="0.8352941" transform="translate(59,30)"/>
<path d="M0,0 L1,0 L1,1 L0,1 Z " fill="#A9B6BE" opacity="0.7647059" transform="translate(58,30)"/>
<path d="M0,0 L1,0 L1,1 L0,1 Z " fill="#B4BEC6" opacity="0.8156863" transform="translate(56,30)"/>
<path d="M0,0 L1,0 L1,1 L0,1 Z " fill="#BAC3CA" opacity="0.94509804" transform="translate(55,30)"/>
<path d="M0,0 L1,0 L1,1 L0,1 Z " fill="#BAC3CA" opacity="0.94509804" transform="translate(8,30)"/>
<path d="M0,0 L1,0 L1,1 L0,1 Z " fill="#B4BEC6" opacity="0.8156863" transform="translate(7,30)"/>
<path d="M0,0 L1,0 L1,1 L0,1 Z " fill="#AAB5BE" opacity="0.7647059" transform="translate(5,30)"/>
<path d="M0,0 L1,0 L1,1 L0,1 Z " fill="#A6B1BB" opacity="0.87058824" transform="translate(3,30)"/>
<path d="M0,0 L1,0 L1,1 L0,1 Z " fill="#A5B1BA" opacity="0.9411765" transform="translate(1,30)"/>
<path d="M0,0 L1,0 L1,1 L0,1 Z " fill="#A6B2BB" opacity="0.9843137" transform="translate(0,30)"/>
<path d="M0,0 L1,0 L1,1 L0,1 Z " fill="#BBC5CD" opacity="0.85490197" transform="translate(38,29)"/>
<path d="M0,0 L1,0 L1,1 L0,1 Z " fill="#BFCAD6" opacity="0.75686276" transform="translate(37,29)"/>
<path d="M0,0 L1,0 L1,1 L0,1 Z " fill="#C2D3E5" opacity="0.7882353" transform="translate(35,29)"/>
<path d="M0,0 L1,0 L1,1 L0,1 Z " fill="#C6D7EF" opacity="0.8862745" transform="translate(33,29)"/>
<path d="M0,0 L1,0 L1,1 L0,1 Z " fill="#C8DAF3" opacity="0.972549" transform="translate(31,29)"/>
<path d="M0,0 L1,0 L1,1 L0,1 Z " fill="#C5D7ED" opacity="0.85882354" transform="translate(29,29)"/>
<path d="M0,0 L1,0 L1,1 L0,1 Z " fill="#C0CFE0" opacity="0.7647059" transform="translate(27,29)"/>
<path d="M0,0 L1,0 L1,1 L0,1 Z " fill="#BBC5CC" opacity="0.8392157" transform="translate(25,29)"/>
<path d="M0,0 L1,0 L1,1 L0,1 Z " fill="#BBC4CB" opacity="0.9764706" transform="translate(24,29)"/>
<path d="M0,0 L1,0 L1,1 L0,1 Z " fill="#BBC4CC" opacity="0.9098039" transform="translate(42,28)"/>
<path d="M0,0 L1,0 L1,1 L0,1 Z " fill="#C3D1E3" opacity="0.78039217" transform="translate(40,28)"/>
<path d="M0,0 L1,0 L1,1 L0,1 Z " fill="#C7D9F1" opacity="0.92941177" transform="translate(39,28)"/>
<path d="M0,0 L1,0 L1,1 L0,1 Z " fill="#C7DAF4" opacity="0.9843137" transform="translate(24,28)"/>
<path d="M0,0 L1,0 L1,1 L0,1 Z " fill="#BEC9D4" opacity="0.7607843" transform="translate(22,28)"/>
<path d="M0,0 L1,0 L1,1 L0,1 Z " fill="#BBC4CB" opacity="0.92941177" transform="translate(21,28)"/>
<path d="M0,0 L1,0 L1,1 L0,1 Z " fill="#C3D2E3" opacity="0.7764706" transform="translate(43,27)"/>
<path d="M0,0 L1,0 L1,1 L0,1 Z " fill="#C8DAF4" opacity="0.9882353" transform="translate(42,27)"/>
<path d="M0,0 L1,0 L1,1 L0,1 Z " fill="#BDC7D1" opacity="0.78039217" transform="translate(19,27)"/>
<path d="M0,0 L1,0 L1,1 L0,1 Z " fill="#BBC4CB" opacity="0.99215686" transform="translate(18,27)"/>
<path d="M0,0 L1,0 L1,1 L0,1 Z " fill="#BEC8D4" opacity="0.7647059" transform="translate(46,26)"/>
<path d="M0,0 L1,0 L1,1 L0,1 Z " fill="#C5D5EB" opacity="0.8509804" transform="translate(45,26)"/>
<path d="M0,0 L1,0 L1,1 L0,1 Z " fill="#BFCAD6" opacity="0.75686276" transform="translate(17,26)"/>
<path d="M0,0 L1,0 L1,1 L0,1 Z " fill="#BBC4CB" opacity="0.9607843" transform="translate(16,26)"/>
<path d="M0,0 L1,0 L1,1 L0,1 Z " fill="#C0CCDA" opacity="0.7529412" transform="translate(48,25)"/>
<path d="M0,0 L1,0 L1,1 L0,1 Z " fill="#C7D9F2" opacity="0.9372549" transform="translate(47,25)"/>
<path d="M0,0 L1,0 L1,1 L0,1 Z " fill="#C9DCF5" opacity="0.85490197" transform="translate(38,25)"/>
<path d="M0,0 L1,0 L1,1 L0,1 Z " fill="#D5E7FA" opacity="0.7647059" transform="translate(36,25)"/>
<path d="M0,0 L1,0 L1,1 L0,1 Z " fill="#DCEAFD" opacity="0.83137256" transform="translate(34,25)"/>
<path d="M0,0 L1,0 L1,1 L0,1 Z " fill="#E1EDFE" opacity="0.8862745" transform="translate(33,25)"/>
<path d="M0,0 L1,0 L1,1 L0,1 Z " fill="#E4F0FF" opacity="0.9607843" transform="translate(32,25)"/>
<path d="M0,0 L1,0 L1,1 L0,1 Z " fill="#E2EEFE" opacity="0.9098039" transform="translate(30,25)"/>
<path d="M0,0 L1,0 L1,1 L0,1 Z " fill="#DDE9FD" opacity="0.81960785" transform="translate(28,25)"/>
<path d="M0,0 L1,0 L1,1 L0,1 Z " fill="#D5E5FA" opacity="0.7647059" transform="translate(27,25)"/>
<path d="M0,0 L1,0 L1,1 L0,1 Z " fill="#CADCF6" opacity="0.8392157" transform="translate(25,25)"/>
<path d="M0,0 L1,0 L1,1 L0,1 Z " fill="#C8DAF5" opacity="0.9764706" transform="translate(24,25)"/>
<path d="M0,0 L1,0 L1,1 L0,1 Z " fill="#C0CDDC" opacity="0.7529412" transform="translate(15,25)"/>
<path d="M0,0 L1,0 L1,1 L0,1 Z " fill="#BBC4CB" opacity="0.9137255" transform="translate(14,25)"/>
<path d="M0,0 L1,0 L1,1 L0,1 Z " fill="#C0CFE0" opacity="0.7647059" transform="translate(50,24)"/>
<path d="M0,0 L1,0 L1,1 L0,1 Z " fill="#C7D9F4" opacity="0.9764706" transform="translate(49,24)"/>
<path d="M0,0 L1,0 L1,1 L0,1 Z " fill="#C8DBF6" opacity="0.9098039" transform="translate(42,24)"/>
<path d="M0,0 L1,0 L1,1 L0,1 Z " fill="#D9E7FC" opacity="0.78039217" transform="translate(40,24)"/>
<path d="M0,0 L1,0 L1,1 L0,1 Z " fill="#E3EEFF" opacity="0.92941177" transform="translate(39,24)"/>
<path d="M0,0 L1,0 L1,1 L0,1 Z " fill="#E4EFFF" opacity="0.9843137" transform="translate(24,24)"/>
<path d="M0,0 L1,0 L1,1 L0,1 Z " fill="#CDE0F8" opacity="0.7607843" transform="translate(22,24)"/>
<path d="M0,0 L1,0 L1,1 L0,1 Z " fill="#C8DBF5" opacity="0.92941177" transform="translate(21,24)"/>
<path d="M0,0 L1,0 L1,1 L0,1 Z " fill="#C2CFE0" opacity="0.7647059" transform="translate(13,24)"/>
<path d="M0,0 L1,0 L1,1 L0,1 Z " fill="#BBC5CD" opacity="0.8509804" transform="translate(12,24)"/>
<path d="M0,0 L1,0 L1,1 L0,1 Z " fill="#C0CCDA" opacity="0.7529412" transform="translate(53,23)"/>
<path d="M0,0 L1,0 L1,1 L0,1 Z " fill="#C5D7ED" opacity="0.87058824" transform="translate(52,23)"/>
<path d="M0,0 L1,0 L1,1 L0,1 Z " fill="#D9E8FC" opacity="0.7764706" transform="translate(43,23)"/>
<path d="M0,0 L1,0 L1,1 L0,1 Z " fill="#E4F0FF" opacity="0.9882353" transform="translate(42,23)"/>
<path d="M0,0 L1,0 L1,1 L0,1 Z " fill="#E4F0FF" opacity="0.99215686" transform="translate(21,23)"/>
<path d="M0,0 L1,0 L1,1 L0,1 Z " fill="#CCDEF6" opacity="0.78039217" transform="translate(19,23)"/>
<path d="M0,0 L1,0 L1,1 L0,1 Z " fill="#C8DBF5" opacity="0.99215686" transform="translate(18,23)"/>
<path d="M0,0 L1,0 L1,1 L0,1 Z " fill="#C0CCDA" opacity="0.7529412" transform="translate(10,23)"/>
<path d="M0,0 L1,0 L1,1 L0,1 Z " fill="#BBC5CD" opacity="0.84705883" transform="translate(9,23)"/>
<path d="M0,0 L1,0 L1,1 L0,1 Z " fill="#BAC3CB" opacity="0.9411765" transform="translate(62,22)"/>
<path d="M0,0 L1,0 L1,1 L0,1 Z " fill="#BBC5CD" opacity="0.87058824" transform="translate(60,22)"/>
<path d="M0,0 L1,0 L1,1 L0,1 Z " fill="#BDC8D3" opacity="0.7647059" transform="translate(58,22)"/>
<path d="M0,0 L1,0 L1,1 L0,1 Z " fill="#C3D4E8" opacity="0.8156863" transform="translate(56,22)"/>
<path d="M0,0 L1,0 L1,1 L0,1 Z " fill="#C8DBF3" opacity="0.94509804" transform="translate(55,22)"/>
<path d="M0,0 L1,0 L1,1 L0,1 Z " fill="#CFE0F8" opacity="0.7647059" transform="translate(46,22)"/>
<path d="M0,0 L1,0 L1,1 L0,1 Z " fill="#DEEAFD" opacity="0.8509804" transform="translate(45,22)"/>
<path d="M0,0 L1,0 L1,1 L0,1 Z " fill="#D0E1F8" opacity="0.75686276" transform="translate(17,22)"/>
<path d="M0,0 L1,0 L1,1 L0,1 Z " fill="#C8DBF5" opacity="0.9607843" transform="translate(16,22)"/>
<path d="M0,0 L1,0 L1,1 L0,1 Z " fill="#C8DBF3" opacity="0.94509804" transform="translate(8,22)"/>
<path d="M0,0 L1,0 L1,1 L0,1 Z " fill="#C3D4E8" opacity="0.8156863" transform="translate(7,22)"/>
<path d="M0,0 L1,0 L1,1 L0,1 Z " fill="#BEC8D3" opacity="0.7647059" transform="translate(5,22)"/>
<path d="M0,0 L1,0 L1,1 L0,1 Z " fill="#BBC5CD" opacity="0.87058824" transform="translate(3,22)"/>
<path d="M0,0 L1,0 L1,1 L0,1 Z " fill="#BAC3CB" opacity="0.9411765" transform="translate(1,22)"/>
<path d="M0,0 L1,0 L1,1 L0,1 Z " fill="#BBC3CA" opacity="0.9843137" transform="translate(0,22)"/>
<path d="M0,0 L1,0 L1,1 L0,1 Z " fill="#D1E2F9" opacity="0.7529412" transform="translate(48,21)"/>
<path d="M0,0 L1,0 L1,1 L0,1 Z " fill="#E3EFFF" opacity="0.9372549" transform="translate(47,21)"/>
<path d="M0,0 L1,0 L1,1 L0,1 Z " fill="#E3EFFF" opacity="0.95686275" transform="translate(38,21)"/>
<path d="M0,0 L1,0 L1,1 L0,1 Z " fill="#CBDDF7" opacity="0.7882353" transform="translate(37,21)"/>
<path d="M0,0 L1,0 L1,1 L0,1 Z " fill="#D2E2F9" opacity="0.7529412" transform="translate(35,21)"/>
<path d="M0,0 L1,0 L1,1 L0,1 Z " fill="#D4E4F9" opacity="0.7529412" transform="translate(15,21)"/>
<path d="M0,0 L1,0 L1,1 L0,1 Z " fill="#C9DBF6" opacity="0.9137255" transform="translate(14,21)"/>
<path d="M0,0 L1,0 L1,1 L0,1 Z " fill="#D5E5FA" opacity="0.7647059" transform="translate(50,20)"/>
<path d="M0,0 L1,0 L1,1 L0,1 Z " fill="#E5EFFF" opacity="0.9764706" transform="translate(49,20)"/>
<path d="M0,0 L1,0 L1,1 L0,1 Z " fill="#CADDF6" opacity="0.8117647" transform="translate(38,20)"/>
<path d="M0,0 L1,0 L1,1 L0,1 Z " fill="#D4E4FA" opacity="0.75686276" transform="translate(34,20)"/>
<path d="M0,0 L1,0 L1,1 L0,1 Z " fill="#D7E5FA" opacity="0.7647059" transform="translate(13,20)"/>
<path d="M0,0 L1,0 L1,1 L0,1 Z " fill="#C9DCF5" opacity="0.8509804" transform="translate(12,20)"/>
<path d="M0,0 L1,0 L1,1 L0,1 Z " fill="#D1E1F9" opacity="0.7529412" transform="translate(53,19)"/>
<path d="M0,0 L1,0 L1,1 L0,1 Z " fill="#DFECFE" opacity="0.87058824" transform="translate(52,19)"/>
<path d="M0,0 L1,0 L1,1 L0,1 Z " fill="#E2EEFE" opacity="0.92156863" transform="translate(39,19)"/>
<path d="M0,0 L1,0 L1,1 L0,1 Z " fill="#D1E2F9" opacity="0.7529412" transform="translate(10,19)"/>
<path d="M0,0 L1,0 L1,1 L0,1 Z " fill="#C9DBF6" opacity="0.84705883" transform="translate(9,19)"/>
<path d="M0,0 L1,0 L1,1 L0,1 Z " fill="#C7DBF5" opacity="0.9843137" transform="translate(63,18)"/>
<path d="M0,0 L1,0 L1,1 L0,1 Z " fill="#C7DBF6" opacity="0.90588236" transform="translate(61,18)"/>
<path d="M0,0 L1,0 L1,1 L0,1 Z " fill="#C8DBF6" opacity="0.8352941" transform="translate(59,18)"/>
<path d="M0,0 L1,0 L1,1 L0,1 Z " fill="#CEDFF8" opacity="0.7647059" transform="translate(58,18)"/>
<path d="M0,0 L1,0 L1,1 L0,1 Z " fill="#DDE9FD" opacity="0.8156863" transform="translate(56,18)"/>
<path d="M0,0 L1,0 L1,1 L0,1 Z " fill="#E4EFFF" opacity="0.94509804" transform="translate(55,18)"/>
<path d="M0,0 L1,0 L1,1 L0,1 Z " fill="#CADCF6" opacity="0.81960785" transform="translate(38,18)"/>
<path d="M0,0 L1,0 L1,1 L0,1 Z " fill="#D4E4F9" opacity="0.7529412" transform="translate(34,18)"/>
<path d="M0,0 L1,0 L1,1 L0,1 Z " fill="#E4EFFF" opacity="0.94509804" transform="translate(8,18)"/>
<path d="M0,0 L1,0 L1,1 L0,1 Z " fill="#DDE9FD" opacity="0.8156863" transform="translate(7,18)"/>
<path d="M0,0 L1,0 L1,1 L0,1 Z " fill="#CEE0F8" opacity="0.7647059" transform="translate(5,18)"/>
<path d="M0,0 L1,0 L1,1 L0,1 Z " fill="#C8DBF5" opacity="0.87058824" transform="translate(3,18)"/>
<path d="M0,0 L1,0 L1,1 L0,1 Z " fill="#C8DBF5" opacity="0.9411765" transform="translate(1,18)"/>
<path d="M0,0 L1,0 L1,1 L0,1 Z " fill="#C7DBF5" opacity="0.9843137" transform="translate(0,18)"/>
<path d="M0,0 L1,0 L1,1 L0,1 Z " fill="#E4EFFF" opacity="0.94509804" transform="translate(38,17)"/>
<path d="M0,0 L1,0 L1,1 L0,1 Z " fill="#CBDDF6" opacity="0.8039216" transform="translate(37,17)"/>
<path d="M0,0 L1,0 L1,1 L0,1 Z " fill="#D2E2F9" opacity="0.7529412" transform="translate(35,17)"/>
<path d="M0,0 L1,0 L1,1 L0,1 Z " fill="#D2E4FA" opacity="0.75686276" transform="translate(9,16)"/>
<path d="M0,0 L1,0 L1,1 L0,1 Z " fill="#E2EEFE" opacity="0.90588236" transform="translate(8,16)"/>
<path d="M0,0 L1,0 L1,1 L0,1 Z " fill="#D9E8FC" opacity="0.78039217" transform="translate(11,15)"/>
<path d="M0,0 L1,0 L1,1 L0,1 Z " fill="#C7DBF5" opacity="0.9843137" transform="translate(10,15)"/>
<path d="M0,0 L1,0 L1,1 L0,1 Z " fill="#C8DBF6" opacity="0.9098039" transform="translate(8,15)"/>
<path d="M0,0 L1,0 L1,1 L0,1 Z " fill="#E1ECFE" opacity="0.89411765" transform="translate(7,15)"/>
<path d="M0,0 L1,0 L1,1 L0,1 Z " fill="#C8DBF5" opacity="0.96862745" transform="translate(11,13)"/>
<path d="M0,0 L1,0 L1,1 L0,1 Z " fill="#CADDF6" opacity="0.80784315" transform="translate(7,13)"/>
<path d="M0,0 L1,0 L1,1 L0,1 Z " fill="#D9E7FC" opacity="0.77254903" transform="translate(11,12)"/>
<path d="M0,0 L1,0 L1,1 L0,1 Z " fill="#C8DBF5" opacity="0.99607843" transform="translate(10,12)"/>
<path d="M0,0 L1,0 L1,1 L0,1 Z " fill="#C9DBF6" opacity="0.9137255" transform="translate(8,12)"/>
<path d="M0,0 L1,0 L1,1 L0,1 Z " fill="#E1EDFE" opacity="0.8862745" transform="translate(7,12)"/>
<path d="M0,0 L1,0 L1,1 L0,1 Z " fill="#D4E4F9" opacity="0.75686276" transform="translate(9,11)"/>
<path d="M0,0 L1,0 L1,1 L0,1 Z " fill="#E0EDFE" opacity="0.90588236" transform="translate(8,11)"/>
</svg>
