<?xml version="1.0" encoding="UTF-8"?>
<!-- Generator: visioncortex VTracer 0.6.4 -->
<svg version="1.1" xmlns="http://www.w3.org/2000/svg" width="64" height="64">
<path d="M0,0 L2,0 L2,1 L4,1 L4,2 L6,2 L6,3 L8,3 L8,4 L10,4 L10,5 L12,5 L12,6 L14,6 L14,7 L16,7 L16,8 L18,8 L18,9 L20,9 L20,10 L22,10 L22,11 L24,11 L24,12 L26,12 L26,13 L28,13 L28,14 L30,14 L30,15 L32,15 L32,16 L34,16 L34,17 L36,17 L36,18 L38,18 L38,19 L40,19 L40,20 L42,20 L42,21 L44,21 L44,22 L46,22 L46,23 L48,23 L48,24 L50,24 L50,25 L52,25 L52,26 L54,26 L54,27 L56,27 L56,28 L58,28 L58,29 L60,29 L60,30 L62,30 L62,31 L56,31 L56,30 L54,30 L54,29 L52,29 L52,28 L50,28 L50,27 L48,27 L48,26 L46,26 L46,25 L44,25 L44,24 L42,24 L42,23 L40,23 L40,22 L38,22 L38,21 L36,21 L36,20 L34,20 L34,19 L32,19 L32,18 L30,18 L30,17 L28,17 L28,16 L26,16 L26,15 L24,15 L24,14 L22,14 L22,13 L20,13 L20,12 L18,12 L18,11 L16,11 L16,10 L14,10 L14,9 L12,9 L12,8 L10,8 L10,7 L8,7 L8,6 L6,6 L6,5 L4,5 L4,4 L2,4 L2,3 L0,3 Z M0,4 L2,4 L2,5 L4,5 L4,6 L6,6 L6,7 L8,7 L8,8 L10,8 L10,9 L12,9 L12,10 L14,10 L14,11 L16,11 L16,12 L18,12 L18,13 L20,13 L20,14 L22,14 L22,15 L24,15 L24,16 L26,16 L26,17 L28,17 L28,18 L30,18 L30,19 L32,19 L32,20 L34,20 L34,21 L36,21 L36,22 L38,22 L38,23 L40,23 L40,24 L42,24 L42,25 L44,25 L44,26 L46,26 L46,27 L48,27 L48,28 L50,28 L50,29 L52,29 L52,30 L54,30 L54,31 L48,31 L48,30 L46,30 L46,29 L44,29 L44,28 L42,28 L42,27 L40,27 L40,26 L38,26 L38,25 L36,25 L36,24 L34,24 L34,23 L32,23 L32,22 L30,22 L30,21 L28,21 L28,20 L26,20 L26,19 L24,19 L24,18 L22,18 L22,17 L20,17 L20,16 L18,16 L18,15 L16,15 L16,14 L14,14 L14,13 L12,13 L12,12 L10,12 L10,11 L8,11 L8,10 L6,10 L6,9 L4,9 L4,8 L2,8 L2,7 L0,7 Z M0,8 L2,8 L2,9 L4,9 L4,10 L6,10 L6,11 L8,11 L8,12 L10,12 L10,13 L12,13 L12,14 L14,14 L14,15 L16,15 L16,16 L18,16 L18,17 L20,17 L20,18 L22,18 L22,19 L24,19 L24,20 L26,20 L26,21 L28,21 L28,22 L30,22 L30,23 L32,23 L32,24 L34,24 L34,25 L36,25 L36,26 L38,26 L38,27 L40,27 L40,28 L42,28 L42,29 L44,29 L44,30 L46,30 L46,31 L28,31 L28,30 L26,30 L26,29 L24,29 L24,28 L22,28 L22,27 L20,27 L20,26 L18,26 L18,25 L16,25 L16,24 L14,24 L14,23 L12,23 L12,22 L10,22 L10,21 L8,21 L8,20 L6,20 L6,19 L4,19 L4,18 L2,18 L2,17 L0,17 Z M0,18 L2,18 L2,19 L4,19 L4,20 L6,20 L6,21 L8,21 L8,22 L10,22 L10,23 L12,23 L12,24 L14,24 L14,25 L16,25 L16,26 L18,26 L18,27 L20,27 L20,28 L22,28 L22,29 L24,29 L24,30 L26,30 L26,31 L20,31 L20,30 L18,30 L18,29 L16,29 L16,28 L14,28 L14,27 L12,27 L12,26 L10,26 L10,25 L8,25 L8,24 L6,24 L6,23 L4,23 L4,22 L2,22 L2,21 L0,21 Z M0,22 L2,22 L2,23 L4,23 L4,24 L6,24 L6,25 L8,25 L8,26 L10,26 L10,27 L12,27 L12,28 L14,28 L14,29 L16,29 L16,30 L18,30 L18,31 L0,31 Z " fill="#BA6BE9" transform="translate(0,33)"/>
<path d="M0,0 L2,0 L2,1 L4,1 L4,2 L6,2 L6,3 L8,3 L8,4 L10,4 L10,5 L12,5 L12,6 L14,6 L14,7 L16,7 L16,8 L18,8 L18,9 L20,9 L20,10 L22,10 L22,11 L24,11 L24,12 L26,12 L26,13 L28,13 L28,14 L30,14 L30,15 L32,15 L32,16 L34,16 L34,17 L36,17 L36,18 L38,18 L38,19 L40,19 L40,20 L42,20 L42,21 L44,21 L44,22 L46,22 L46,23 L48,23 L48,24 L50,24 L50,25 L52,25 L52,26 L54,26 L54,27 L56,27 L56,28 L58,28 L58,29 L60,29 L60,30 L62,30 L62,31 L56,31 L56,30 L54,30 L54,29 L52,29 L52,28 L50,28 L50,27 L48,27 L48,26 L46,26 L46,25 L44,25 L44,24 L42,24 L42,23 L40,23 L40,22 L38,22 L38,21 L36,21 L36,20 L34,20 L34,19 L32,19 L32,18 L30,18 L30,17 L28,17 L28,16 L26,16 L26,15 L24,15 L24,14 L22,14 L22,13 L20,13 L20,12 L18,12 L18,11 L16,11 L16,10 L14,10 L14,9 L12,9 L12,8 L10,8 L10,7 L8,7 L8,6 L6,6 L6,5 L4,5 L4,4 L2,4 L2,3 L0,3 Z " fill="#353541" transform="translate(0,33)"/>
<path d="M0,0 L2,0 L2,1 L4,1 L4,2 L6,2 L6,3 L8,3 L8,4 L10,4 L10,5 L12,5 L12,6 L14,6 L14,7 L16,7 L16,8 L18,8 L18,9 L20,9 L20,10 L22,10 L22,11 L24,11 L24,12 L26,12 L26,13 L28,13 L28,14 L30,14 L30,15 L32,15 L32,16 L34,16 L34,17 L36,17 L36,18 L38,18 L38,19 L40,19 L40,20 L42,20 L42,21 L44,21 L44,22 L46,22 L46,23 L48,23 L48,24 L50,24 L50,25 L52,25 L52,26 L54,26 L54,27 L48,27 L48,26 L46,26 L46,25 L44,25 L44,24 L42,24 L42,23 L40,23 L40,22 L38,22 L38,21 L36,21 L36,20 L34,20 L34,19 L32,19 L32,18 L30,18 L30,17 L28,17 L28,16 L26,16 L26,15 L24,15 L24,14 L22,14 L22,13 L20,13 L20,12 L18,12 L18,11 L16,11 L16,10 L14,10 L14,9 L12,9 L12,8 L10,8 L10,7 L8,7 L8,6 L6,6 L6,5 L4,5 L4,4 L2,4 L2,3 L0,3 Z " fill="#D699FA" transform="translate(0,37)"/>
<path d="M0,0 L2,0 L2,1 L4,1 L4,2 L6,2 L6,3 L8,3 L8,4 L10,4 L10,5 L12,5 L12,6 L14,6 L14,7 L16,7 L16,8 L18,8 L18,9 L0,9 Z " fill="#BBC4CB" transform="translate(0,55)"/>
<path d="M0,0 L2,0 L2,1 L4,1 L4,2 L6,2 L6,3 L8,3 L8,4 L10,4 L10,5 L12,5 L12,6 L14,6 L14,7 L16,7 L16,8 L18,8 L18,9 L20,9 L20,10 L22,10 L22,11 L24,11 L24,12 L26,12 L26,13 L20,13 L20,12 L18,12 L18,11 L16,11 L16,10 L14,10 L14,9 L12,9 L12,8 L10,8 L10,7 L8,7 L8,6 L6,6 L6,5 L4,5 L4,4 L2,4 L2,3 L0,3 Z " fill="#A452D4" transform="translate(0,51)"/>
<path d="M0,0 L1,0 L1,1 L0,1 Z " fill="#353541" transform="translate(0,33)"/>
<path d="M0,0 L1,0 L1,1 L0,1 Z " fill="#B868E7" opacity="0.8156863" transform="translate(27,63)"/>
<path d="M0,0 L1,0 L1,1 L0,1 Z " fill="#B868E7" opacity="0.8156863" transform="translate(25,62)"/>
<path d="M0,0 L1,0 L1,1 L0,1 Z " fill="#B868E7" opacity="0.8156863" transform="translate(23,61)"/>
<path d="M0,0 L1,0 L1,1 L0,1 Z " fill="#B868E7" opacity="0.8156863" transform="translate(21,60)"/>
<path d="M0,0 L1,0 L1,1 L0,1 Z " fill="#B868E7" opacity="0.8156863" transform="translate(19,59)"/>
<path d="M0,0 L1,0 L1,1 L0,1 Z " fill="#B868E7" opacity="0.8156863" transform="translate(17,58)"/>
<path d="M0,0 L1,0 L1,1 L0,1 Z " fill="#B868E7" opacity="0.8156863" transform="translate(15,57)"/>
<path d="M0,0 L1,0 L1,1 L0,1 Z " fill="#B868E7" opacity="0.8156863" transform="translate(13,56)"/>
<path d="M0,0 L1,0 L1,1 L0,1 Z " fill="#B868E7" opacity="0.8156863" transform="translate(11,55)"/>
<path d="M0,0 L1,0 L1,1 L0,1 Z " fill="#BBC4CB" transform="translate(0,55)"/>
<path d="M0,0 L1,0 L1,1 L0,1 Z " fill="#B868E7" opacity="0.8156863" transform="translate(9,54)"/>
<path d="M0,0 L1,0 L1,1 L0,1 Z " fill="#B868E7" opacity="0.8156863" transform="translate(7,53)"/>
<path d="M0,0 L1,0 L1,1 L0,1 Z " fill="#B868E7" opacity="0.8156863" transform="translate(5,52)"/>
<path d="M0,0 L1,0 L1,1 L0,1 Z " fill="#B868E7" opacity="0.8156863" transform="translate(3,51)"/>
<path d="M0,0 L1,0 L1,1 L0,1 Z " fill="#B868E7" opacity="0.8156863" transform="translate(1,50)"/>
<path d="M0,0 L1,0 L1,1 L0,1 Z " fill="#BA6BE9" transform="translate(0,41)"/>
<path d="M0,0 L1,0 L1,1 L0,1 Z " fill="#D699FA" transform="translate(0,37)"/>
<path d="M0,0 L1,0 L1,1 L0,1 Z " fill="#33333F" opacity="0.25490198" transform="translate(63,63)"/>
<path d="M0,0 L1,0 L1,1 L0,1 Z " fill="#353540" opacity="0.75686276" transform="translate(62,63)"/>
<path d="M0,0 L1,0 L1,1 L0,1 Z " fill="#353541" transform="translate(61,63)"/>
<path d="M0,0 L1,0 L1,1 L0,1 Z " fill="#403B50" opacity="0.8156863" transform="translate(55,63)"/>
<path d="M0,0 L1,0 L1,1 L0,1 Z " fill="#A479C1" opacity="0.8156863" transform="translate(54,63)"/>
<path d="M0,0 L1,0 L1,1 L0,1 Z " fill="#D699FA" transform="translate(53,63)"/>
<path d="M0,0 L1,0 L1,1 L0,1 Z " fill="#CD89F6" opacity="0.8156863" transform="translate(47,63)"/>
<path d="M0,0 L1,0 L1,1 L0,1 Z " fill="#BC6EEB" opacity="0.8156863" transform="translate(46,63)"/>
<path d="M0,0 L1,0 L1,1 L0,1 Z " fill="#BA6BE9" transform="translate(45,63)"/>
<path d="M0,0 L1,0 L1,1 L0,1 Z " fill="#AC59DC" opacity="0.8156863" transform="translate(26,63)"/>
<path d="M0,0 L1,0 L1,1 L0,1 Z " fill="#A452D4" transform="translate(25,63)"/>
<path d="M0,0 L1,0 L1,1 L0,1 Z " fill="#AB74D1" opacity="0.8156863" transform="translate(19,63)"/>
<path d="M0,0 L1,0 L1,1 L0,1 Z " fill="#B9BBCC" opacity="0.8156863" transform="translate(18,63)"/>
<path d="M0,0 L1,0 L1,1 L0,1 Z " fill="#BBC4CB" transform="translate(17,63)"/>
<path d="M0,0 L1,0 L1,1 L0,1 Z " fill="#33333F" opacity="0.25490198" transform="translate(61,62)"/>
<path d="M0,0 L1,0 L1,1 L0,1 Z " fill="#353540" opacity="0.75686276" transform="translate(60,62)"/>
<path d="M0,0 L1,0 L1,1 L0,1 Z " fill="#403B50" opacity="0.8156863" transform="translate(53,62)"/>
<path d="M0,0 L1,0 L1,1 L0,1 Z " fill="#A479C1" opacity="0.8156863" transform="translate(52,62)"/>
<path d="M0,0 L1,0 L1,1 L0,1 Z " fill="#CD89F6" opacity="0.8156863" transform="translate(45,62)"/>
<path d="M0,0 L1,0 L1,1 L0,1 Z " fill="#BC6EEB" opacity="0.8156863" transform="translate(44,62)"/>
<path d="M0,0 L1,0 L1,1 L0,1 Z " fill="#AC59DC" opacity="0.8156863" transform="translate(24,62)"/>
<path d="M0,0 L1,0 L1,1 L0,1 Z " fill="#AB74D1" opacity="0.8156863" transform="translate(17,62)"/>
<path d="M0,0 L1,0 L1,1 L0,1 Z " fill="#B9BBCC" opacity="0.8156863" transform="translate(16,62)"/>
<path d="M0,0 L1,0 L1,1 L0,1 Z " fill="#33333F" opacity="0.25490198" transform="translate(59,61)"/>
<path d="M0,0 L1,0 L1,1 L0,1 Z " fill="#353540" opacity="0.75686276" transform="translate(58,61)"/>
<path d="M0,0 L1,0 L1,1 L0,1 Z " fill="#403B50" opacity="0.8156863" transform="translate(51,61)"/>
<path d="M0,0 L1,0 L1,1 L0,1 Z " fill="#A479C1" opacity="0.8156863" transform="translate(50,61)"/>
<path d="M0,0 L1,0 L1,1 L0,1 Z " fill="#CD89F6" opacity="0.8156863" transform="translate(43,61)"/>
<path d="M0,0 L1,0 L1,1 L0,1 Z " fill="#BC6EEB" opacity="0.8156863" transform="translate(42,61)"/>
<path d="M0,0 L1,0 L1,1 L0,1 Z " fill="#AC59DC" opacity="0.8156863" transform="translate(22,61)"/>
<path d="M0,0 L1,0 L1,1 L0,1 Z " fill="#AB74D1" opacity="0.8156863" transform="translate(15,61)"/>
<path d="M0,0 L1,0 L1,1 L0,1 Z " fill="#B9BBCC" opacity="0.8156863" transform="translate(14,61)"/>
<path d="M0,0 L1,0 L1,1 L0,1 Z " fill="#33333F" opacity="0.25490198" transform="translate(57,60)"/>
<path d="M0,0 L1,0 L1,1 L0,1 Z " fill="#353540" opacity="0.75686276" transform="translate(56,60)"/>
<path d="M0,0 L1,0 L1,1 L0,1 Z " fill="#403B50" opacity="0.8156863" transform="translate(49,60)"/>
<path d="M0,0 L1,0 L1,1 L0,1 Z " fill="#A479C1" opacity="0.8156863" transform="translate(48,60)"/>
<path d="M0,0 L1,0 L1,1 L0,1 Z " fill="#CD89F6" opacity="0.8156863" transform="translate(41,60)"/>
<path d="M0,0 L1,0 L1,1 L0,1 Z " fill="#BC6EEB" opacity="0.8156863" transform="translate(40,60)"/>
<path d="M0,0 L1,0 L1,1 L0,1 Z " fill="#AC59DC" opacity="0.8156863" transform="translate(20,60)"/>
<path d="M0,0 L1,0 L1,1 L0,1 Z " fill="#AB74D1" opacity="0.8156863" transform="translate(13,60)"/>
<path d="M0,0 L1,0 L1,1 L0,1 Z " fill="#B9BBCC" opacity="0.8156863" transform="translate(12,60)"/>
<path d="M0,0 L1,0 L1,1 L0,1 Z " fill="#33333F" opacity="0.25490198" transform="translate(55,59)"/>
<path d="M0,0 L1,0 L1,1 L0,1 Z " fill="#353540" opacity="0.75686276" transform="translate(54,59)"/>
<path d="M0,0 L1,0 L1,1 L0,1 Z " fill="#403B50" opacity="0.8156863" transform="translate(47,59)"/>
<path d="M0,0 L1,0 L1,1 L0,1 Z " fill="#A479C1" opacity="0.8156863" transform="translate(46,59)"/>
<path d="M0,0 L1,0 L1,1 L0,1 Z " fill="#CD89F6" opacity="0.8156863" transform="translate(39,59)"/>
<path d="M0,0 L1,0 L1,1 L0,1 Z " fill="#BC6EEB" opacity="0.8156863" transform="translate(38,59)"/>
<path d="M0,0 L1,0 L1,1 L0,1 Z " fill="#AC59DC" opacity="0.8156863" transform="translate(18,59)"/>
<path d="M0,0 L1,0 L1,1 L0,1 Z " fill="#AB74D1" opacity="0.8156863" transform="translate(11,59)"/>
<path d="M0,0 L1,0 L1,1 L0,1 Z " fill="#B9BBCC" opacity="0.8156863" transform="translate(10,59)"/>
<path d="M0,0 L1,0 L1,1 L0,1 Z " fill="#33333F" opacity="0.25490198" transform="translate(53,58)"/>
<path d="M0,0 L1,0 L1,1 L0,1 Z " fill="#353540" opacity="0.75686276" transform="translate(52,58)"/>
<path d="M0,0 L1,0 L1,1 L0,1 Z " fill="#403B50" opacity="0.8156863" transform="translate(45,58)"/>
<path d="M0,0 L1,0 L1,1 L0,1 Z " fill="#A479C1" opacity="0.8156863" transform="translate(44,58)"/>
<path d="M0,0 L1,0 L1,1 L0,1 Z " fill="#CD89F6" opacity="0.8156863" transform="translate(37,58)"/>
<path d="M0,0 L1,0 L1,1 L0,1 Z " fill="#BC6EEB" opacity="0.8156863" transform="translate(36,58)"/>
<path d="M0,0 L1,0 L1,1 L0,1 Z " fill="#AC59DC" opacity="0.8156863" transform="translate(16,58)"/>
<path d="M0,0 L1,0 L1,1 L0,1 Z " fill="#AB74D1" opacity="0.8156863" transform="translate(9,58)"/>
<path d="M0,0 L1,0 L1,1 L0,1 Z " fill="#B9BBCC" opacity="0.8156863" transform="translate(8,58)"/>
<path d="M0,0 L1,0 L1,1 L0,1 Z " fill="#33333F" opacity="0.25490198" transform="translate(51,57)"/>
<path d="M0,0 L1,0 L1,1 L0,1 Z " fill="#353540" opacity="0.75686276" transform="translate(50,57)"/>
<path d="M0,0 L1,0 L1,1 L0,1 Z " fill="#403B50" opacity="0.8156863" transform="translate(43,57)"/>
<path d="M0,0 L1,0 L1,1 L0,1 Z " fill="#A479C1" opacity="0.8156863" transform="translate(42,57)"/>
<path d="M0,0 L1,0 L1,1 L0,1 Z " fill="#CD89F6" opacity="0.8156863" transform="translate(35,57)"/>
<path d="M0,0 L1,0 L1,1 L0,1 Z " fill="#BC6EEB" opacity="0.8156863" transform="translate(34,57)"/>
<path d="M0,0 L1,0 L1,1 L0,1 Z " fill="#AC59DC" opacity="0.8156863" transform="translate(14,57)"/>
<path d="M0,0 L1,0 L1,1 L0,1 Z " fill="#AB74D1" opacity="0.8156863" transform="translate(7,57)"/>
<path d="M0,0 L1,0 L1,1 L0,1 Z " fill="#B9BBCC" opacity="0.8156863" transform="translate(6,57)"/>
<path d="M0,0 L1,0 L1,1 L0,1 Z " fill="#33333F" opacity="0.25490198" transform="translate(49,56)"/>
<path d="M0,0 L1,0 L1,1 L0,1 Z " fill="#353540" opacity="0.75686276" transform="translate(48,56)"/>
<path d="M0,0 L1,0 L1,1 L0,1 Z " fill="#403B50" opacity="0.8156863" transform="translate(41,56)"/>
<path d="M0,0 L1,0 L1,1 L0,1 Z " fill="#A479C1" opacity="0.8156863" transform="translate(40,56)"/>
<path d="M0,0 L1,0 L1,1 L0,1 Z " fill="#CD89F6" opacity="0.8156863" transform="translate(33,56)"/>
<path d="M0,0 L1,0 L1,1 L0,1 Z " fill="#BC6EEB" opacity="0.8156863" transform="translate(32,56)"/>
<path d="M0,0 L1,0 L1,1 L0,1 Z " fill="#AC59DC" opacity="0.8156863" transform="translate(12,56)"/>
<path d="M0,0 L1,0 L1,1 L0,1 Z " fill="#AB74D1" opacity="0.8156863" transform="translate(5,56)"/>
<path d="M0,0 L1,0 L1,1 L0,1 Z " fill="#B9BBCC" opacity="0.8156863" transform="translate(4,56)"/>
<path d="M0,0 L1,0 L1,1 L0,1 Z " fill="#33333F" opacity="0.25490198" transform="translate(47,55)"/>
<path d="M0,0 L1,0 L1,1 L0,1 Z " fill="#353540" opacity="0.75686276" transform="translate(46,55)"/>
<path d="M0,0 L1,0 L1,1 L0,1 Z " fill="#403B50" opacity="0.8156863" transform="translate(39,55)"/>
<path d="M0,0 L1,0 L1,1 L0,1 Z " fill="#A479C1" opacity="0.8156863" transform="translate(38,55)"/>
<path d="M0,0 L1,0 L1,1 L0,1 Z " fill="#CD89F6" opacity="0.8156863" transform="translate(31,55)"/>
<path d="M0,0 L1,0 L1,1 L0,1 Z " fill="#BC6EEB" opacity="0.8156863" transform="translate(30,55)"/>
<path d="M0,0 L1,0 L1,1 L0,1 Z " fill="#AC59DC" opacity="0.8156863" transform="translate(10,55)"/>
<path d="M0,0 L1,0 L1,1 L0,1 Z " fill="#AB74D1" opacity="0.8156863" transform="translate(3,55)"/>
<path d="M0,0 L1,0 L1,1 L0,1 Z " fill="#B9BBCC" opacity="0.8156863" transform="translate(2,55)"/>
<path d="M0,0 L1,0 L1,1 L0,1 Z " fill="#33333F" opacity="0.25490198" transform="translate(45,54)"/>
<path d="M0,0 L1,0 L1,1 L0,1 Z " fill="#353540" opacity="0.75686276" transform="translate(44,54)"/>
<path d="M0,0 L1,0 L1,1 L0,1 Z " fill="#403B50" opacity="0.8156863" transform="translate(37,54)"/>
<path d="M0,0 L1,0 L1,1 L0,1 Z " fill="#A479C1" opacity="0.8156863" transform="translate(36,54)"/>
<path d="M0,0 L1,0 L1,1 L0,1 Z " fill="#CD89F6" opacity="0.8156863" transform="translate(29,54)"/>
<path d="M0,0 L1,0 L1,1 L0,1 Z " fill="#BC6EEB" opacity="0.8156863" transform="translate(28,54)"/>
<path d="M0,0 L1,0 L1,1 L0,1 Z " fill="#AC59DC" opacity="0.8156863" transform="translate(8,54)"/>
<path d="M0,0 L1,0 L1,1 L0,1 Z " fill="#AB74D1" opacity="0.8156863" transform="translate(1,54)"/>
<path d="M0,0 L1,0 L1,1 L0,1 Z " fill="#B9BBCC" opacity="0.8156863" transform="translate(0,54)"/>
<path d="M0,0 L1,0 L1,1 L0,1 Z " fill="#33333F" opacity="0.25490198" transform="translate(43,53)"/>
<path d="M0,0 L1,0 L1,1 L0,1 Z " fill="#353540" opacity="0.75686276" transform="translate(42,53)"/>
<path d="M0,0 L1,0 L1,1 L0,1 Z " fill="#403B50" opacity="0.8156863" transform="translate(35,53)"/>
<path d="M0,0 L1,0 L1,1 L0,1 Z " fill="#A479C1" opacity="0.8156863" transform="translate(34,53)"/>
<path d="M0,0 L1,0 L1,1 L0,1 Z " fill="#CD89F6" opacity="0.8156863" transform="translate(27,53)"/>
<path d="M0,0 L1,0 L1,1 L0,1 Z " fill="#BC6EEB" opacity="0.8156863" transform="translate(26,53)"/>
<path d="M0,0 L1,0 L1,1 L0,1 Z " fill="#AC59DC" opacity="0.8156863" transform="translate(6,53)"/>
<path d="M0,0 L1,0 L1,1 L0,1 Z " fill="#33333F" opacity="0.25490198" transform="translate(41,52)"/>
<path d="M0,0 L1,0 L1,1 L0,1 Z " fill="#353540" opacity="0.75686276" transform="translate(40,52)"/>
<path d="M0,0 L1,0 L1,1 L0,1 Z " fill="#403B50" opacity="0.8156863" transform="translate(33,52)"/>
<path d="M0,0 L1,0 L1,1 L0,1 Z " fill="#A479C1" opacity="0.8156863" transform="translate(32,52)"/>
<path d="M0,0 L1,0 L1,1 L0,1 Z " fill="#CD89F6" opacity="0.8156863" transform="translate(25,52)"/>
<path d="M0,0 L1,0 L1,1 L0,1 Z " fill="#BC6EEB" opacity="0.8156863" transform="translate(24,52)"/>
<path d="M0,0 L1,0 L1,1 L0,1 Z " fill="#AC59DC" opacity="0.8156863" transform="translate(4,52)"/>
<path d="M0,0 L1,0 L1,1 L0,1 Z " fill="#33333F" opacity="0.25490198" transform="translate(39,51)"/>
<path d="M0,0 L1,0 L1,1 L0,1 Z " fill="#353540" opacity="0.75686276" transform="translate(38,51)"/>
<path d="M0,0 L1,0 L1,1 L0,1 Z " fill="#403B50" opacity="0.8156863" transform="translate(31,51)"/>
<path d="M0,0 L1,0 L1,1 L0,1 Z " fill="#A479C1" opacity="0.8156863" transform="translate(30,51)"/>
<path d="M0,0 L1,0 L1,1 L0,1 Z " fill="#CD89F6" opacity="0.8156863" transform="translate(23,51)"/>
<path d="M0,0 L1,0 L1,1 L0,1 Z " fill="#BC6EEB" opacity="0.8156863" transform="translate(22,51)"/>
<path d="M0,0 L1,0 L1,1 L0,1 Z " fill="#AC59DC" opacity="0.8156863" transform="translate(2,51)"/>
<path d="M0,0 L1,0 L1,1 L0,1 Z " fill="#33333F" opacity="0.25490198" transform="translate(37,50)"/>
<path d="M0,0 L1,0 L1,1 L0,1 Z " fill="#353540" opacity="0.75686276" transform="translate(36,50)"/>
<path d="M0,0 L1,0 L1,1 L0,1 Z " fill="#403B50" opacity="0.8156863" transform="translate(29,50)"/>
<path d="M0,0 L1,0 L1,1 L0,1 Z " fill="#A479C1" opacity="0.8156863" transform="translate(28,50)"/>
<path d="M0,0 L1,0 L1,1 L0,1 Z " fill="#CD89F6" opacity="0.8156863" transform="translate(21,50)"/>
<path d="M0,0 L1,0 L1,1 L0,1 Z " fill="#BC6EEB" opacity="0.8156863" transform="translate(20,50)"/>
<path d="M0,0 L1,0 L1,1 L0,1 Z " fill="#AC59DC" opacity="0.8156863" transform="translate(0,50)"/>
<path d="M0,0 L1,0 L1,1 L0,1 Z " fill="#33333F" opacity="0.25490198" transform="translate(35,49)"/>
<path d="M0,0 L1,0 L1,1 L0,1 Z " fill="#353540" opacity="0.75686276" transform="translate(34,49)"/>
<path d="M0,0 L1,0 L1,1 L0,1 Z " fill="#403B50" opacity="0.8156863" transform="translate(27,49)"/>
<path d="M0,0 L1,0 L1,1 L0,1 Z " fill="#A479C1" opacity="0.8156863" transform="translate(26,49)"/>
<path d="M0,0 L1,0 L1,1 L0,1 Z " fill="#CD89F6" opacity="0.8156863" transform="translate(19,49)"/>
<path d="M0,0 L1,0 L1,1 L0,1 Z " fill="#BC6EEB" opacity="0.8156863" transform="translate(18,49)"/>
<path d="M0,0 L1,0 L1,1 L0,1 Z " fill="#33333F" opacity="0.25490198" transform="translate(33,48)"/>
<path d="M0,0 L1,0 L1,1 L0,1 Z " fill="#353540" opacity="0.75686276" transform="translate(32,48)"/>
<path d="M0,0 L1,0 L1,1 L0,1 Z " fill="#403B50" opacity="0.8156863" transform="translate(25,48)"/>
<path d="M0,0 L1,0 L1,1 L0,1 Z " fill="#A479C1" opacity="0.8156863" transform="translate(24,48)"/>
<path d="M0,0 L1,0 L1,1 L0,1 Z " fill="#CD89F6" opacity="0.8156863" transform="translate(17,48)"/>
<path d="M0,0 L1,0 L1,1 L0,1 Z " fill="#BC6EEB" opacity="0.8156863" transform="translate(16,48)"/>
<path d="M0,0 L1,0 L1,1 L0,1 Z " fill="#33333F" opacity="0.25490198" transform="translate(31,47)"/>
<path d="M0,0 L1,0 L1,1 L0,1 Z " fill="#353540" opacity="0.75686276" transform="translate(30,47)"/>
<path d="M0,0 L1,0 L1,1 L0,1 Z " fill="#403B50" opacity="0.8156863" transform="translate(23,47)"/>
<path d="M0,0 L1,0 L1,1 L0,1 Z " fill="#A479C1" opacity="0.8156863" transform="translate(22,47)"/>
<path d="M0,0 L1,0 L1,1 L0,1 Z " fill="#CD89F6" opacity="0.8156863" transform="translate(15,47)"/>
<path d="M0,0 L1,0 L1,1 L0,1 Z " fill="#BC6EEB" opacity="0.8156863" transform="translate(14,47)"/>
<path d="M0,0 L1,0 L1,1 L0,1 Z " fill="#33333F" opacity="0.25490198" transform="translate(29,46)"/>
<path d="M0,0 L1,0 L1,1 L0,1 Z " fill="#353540" opacity="0.75686276" transform="translate(28,46)"/>
<path d="M0,0 L1,0 L1,1 L0,1 Z " fill="#403B50" opacity="0.8156863" transform="translate(21,46)"/>
<path d="M0,0 L1,0 L1,1 L0,1 Z " fill="#A479C1" opacity="0.8156863" transform="translate(20,46)"/>
<path d="M0,0 L1,0 L1,1 L0,1 Z " fill="#CD89F6" opacity="0.8156863" transform="translate(13,46)"/>
<path d="M0,0 L1,0 L1,1 L0,1 Z " fill="#BC6EEB" opacity="0.8156863" transform="translate(12,46)"/>
<path d="M0,0 L1,0 L1,1 L0,1 Z " fill="#33333F" opacity="0.25490198" transform="translate(27,45)"/>
<path d="M0,0 L1,0 L1,1 L0,1 Z " fill="#353540" opacity="0.75686276" transform="translate(26,45)"/>
<path d="M0,0 L1,0 L1,1 L0,1 Z " fill="#403B50" opacity="0.8156863" transform="translate(19,45)"/>
<path d="M0,0 L1,0 L1,1 L0,1 Z " fill="#A479C1" opacity="0.8156863" transform="translate(18,45)"/>
<path d="M0,0 L1,0 L1,1 L0,1 Z " fill="#CD89F6" opacity="0.8156863" transform="translate(11,45)"/>
<path d="M0,0 L1,0 L1,1 L0,1 Z " fill="#BC6EEB" opacity="0.8156863" transform="translate(10,45)"/>
<path d="M0,0 L1,0 L1,1 L0,1 Z " fill="#33333F" opacity="0.25490198" transform="translate(25,44)"/>
<path d="M0,0 L1,0 L1,1 L0,1 Z " fill="#353540" opacity="0.75686276" transform="translate(24,44)"/>
<path d="M0,0 L1,0 L1,1 L0,1 Z " fill="#403B50" opacity="0.8156863" transform="translate(17,44)"/>
<path d="M0,0 L1,0 L1,1 L0,1 Z " fill="#A479C1" opacity="0.8156863" transform="translate(16,44)"/>
<path d="M0,0 L1,0 L1,1 L0,1 Z " fill="#CD89F6" opacity="0.8156863" transform="translate(9,44)"/>
<path d="M0,0 L1,0 L1,1 L0,1 Z " fill="#BC6EEB" opacity="0.8156863" transform="translate(8,44)"/>
<path d="M0,0 L1,0 L1,1 L0,1 Z " fill="#33333F" opacity="0.25490198" transform="translate(23,43)"/>
<path d="M0,0 L1,0 L1,1 L0,1 Z " fill="#353540" opacity="0.75686276" transform="translate(22,43)"/>
<path d="M0,0 L1,0 L1,1 L0,1 Z " fill="#403B50" opacity="0.8156863" transform="translate(15,43)"/>
<path d="M0,0 L1,0 L1,1 L0,1 Z " fill="#A479C1" opacity="0.8156863" transform="translate(14,43)"/>
<path d="M0,0 L1,0 L1,1 L0,1 Z " fill="#CD89F6" opacity="0.8156863" transform="translate(7,43)"/>
<path d="M0,0 L1,0 L1,1 L0,1 Z " fill="#BC6EEB" opacity="0.8156863" transform="translate(6,43)"/>
<path d="M0,0 L1,0 L1,1 L0,1 Z " fill="#33333F" opacity="0.25490198" transform="translate(21,42)"/>
<path d="M0,0 L1,0 L1,1 L0,1 Z " fill="#353540" opacity="0.75686276" transform="translate(20,42)"/>
<path d="M0,0 L1,0 L1,1 L0,1 Z " fill="#403B50" opacity="0.8156863" transform="translate(13,42)"/>
<path d="M0,0 L1,0 L1,1 L0,1 Z " fill="#A479C1" opacity="0.8156863" transform="translate(12,42)"/>
<path d="M0,0 L1,0 L1,1 L0,1 Z " fill="#CD89F6" opacity="0.8156863" transform="translate(5,42)"/>
<path d="M0,0 L1,0 L1,1 L0,1 Z " fill="#BC6EEB" opacity="0.8156863" transform="translate(4,42)"/>
<path d="M0,0 L1,0 L1,1 L0,1 Z " fill="#33333F" opacity="0.25490198" transform="translate(19,41)"/>
<path d="M0,0 L1,0 L1,1 L0,1 Z " fill="#353540" opacity="0.75686276" transform="translate(18,41)"/>
<path d="M0,0 L1,0 L1,1 L0,1 Z " fill="#403B50" opacity="0.8156863" transform="translate(11,41)"/>
<path d="M0,0 L1,0 L1,1 L0,1 Z " fill="#A479C1" opacity="0.8156863" transform="translate(10,41)"/>
<path d="M0,0 L1,0 L1,1 L0,1 Z " fill="#CD89F6" opacity="0.8156863" transform="translate(3,41)"/>
<path d="M0,0 L1,0 L1,1 L0,1 Z " fill="#BC6EEB" opacity="0.8156863" transform="translate(2,41)"/>
<path d="M0,0 L1,0 L1,1 L0,1 Z " fill="#33333F" opacity="0.25490198" transform="translate(17,40)"/>
<path d="M0,0 L1,0 L1,1 L0,1 Z " fill="#353540" opacity="0.75686276" transform="translate(16,40)"/>
<path d="M0,0 L1,0 L1,1 L0,1 Z " fill="#403B50" opacity="0.8156863" transform="translate(9,40)"/>
<path d="M0,0 L1,0 L1,1 L0,1 Z " fill="#A479C1" opacity="0.8156863" transform="translate(8,40)"/>
<path d="M0,0 L1,0 L1,1 L0,1 Z " fill="#CD89F6" opacity="0.8156863" transform="translate(1,40)"/>
<path d="M0,0 L1,0 L1,1 L0,1 Z " fill="#BC6EEB" opacity="0.8156863" transform="translate(0,40)"/>
<path d="M0,0 L1,0 L1,1 L0,1 Z " fill="#33333F" opacity="0.25490198" transform="translate(15,39)"/>
<path d="M0,0 L1,0 L1,1 L0,1 Z " fill="#353540" opacity="0.75686276" transform="translate(14,39)"/>
<path d="M0,0 L1,0 L1,1 L0,1 Z " fill="#403B50" opacity="0.8156863" transform="translate(7,39)"/>
<path d="M0,0 L1,0 L1,1 L0,1 Z " fill="#A479C1" opacity="0.8156863" transform="translate(6,39)"/>
<path d="M0,0 L1,0 L1,1 L0,1 Z " fill="#33333F" opacity="0.25490198" transform="translate(13,38)"/>
<path d="M0,0 L1,0 L1,1 L0,1 Z " fill="#353540" opacity="0.75686276" transform="translate(12,38)"/>
<path d="M0,0 L1,0 L1,1 L0,1 Z " fill="#403B50" opacity="0.8156863" transform="translate(5,38)"/>
<path d="M0,0 L1,0 L1,1 L0,1 Z " fill="#A479C1" opacity="0.8156863" transform="translate(4,38)"/>
<path d="M0,0 L1,0 L1,1 L0,1 Z " fill="#33333F" opacity="0.25490198" transform="translate(11,37)"/>
<path d="M0,0 L1,0 L1,1 L0,1 Z " fill="#353540" opacity="0.75686276" transform="translate(10,37)"/>
<path d="M0,0 L1,0 L1,1 L0,1 Z " fill="#403B50" opacity="0.8156863" transform="translate(3,37)"/>
<path d="M0,0 L1,0 L1,1 L0,1 Z " fill="#A479C1" opacity="0.8156863" transform="translate(2,37)"/>
<path d="M0,0 L1,0 L1,1 L0,1 Z " fill="#33333F" opacity="0.25490198" transform="translate(9,36)"/>
<path d="M0,0 L1,0 L1,1 L0,1 Z " fill="#353540" opacity="0.75686276" transform="translate(8,36)"/>
<path d="M0,0 L1,0 L1,1 L0,1 Z " fill="#403B50" opacity="0.8156863" transform="translate(1,36)"/>
<path d="M0,0 L1,0 L1,1 L0,1 Z " fill="#A479C1" opacity="0.8156863" transform="translate(0,36)"/>
<path d="M0,0 L1,0 L1,1 L0,1 Z " fill="#33333F" opacity="0.25490198" transform="translate(7,35)"/>
<path d="M0,0 L1,0 L1,1 L0,1 Z " fill="#353540" opacity="0.75686276" transform="translate(6,35)"/>
<path d="M0,0 L1,0 L1,1 L0,1 Z " fill="#33333F" opacity="0.25490198" transform="translate(5,34)"/>
<path d="M0,0 L1,0 L1,1 L0,1 Z " fill="#353540" opacity="0.75686276" transform="translate(4,34)"/>
<path d="M0,0 L1,0 L1,1 L0,1 Z " fill="#33333F" opacity="0.25490198" transform="translate(3,33)"/>
<path d="M0,0 L1,0 L1,1 L0,1 Z " fill="#353540" opacity="0.75686276" transform="translate(2,33)"/>
<path d="M0,0 L1,0 L1,1 L0,1 Z " fill="#33333F" opacity="0.25490198" transform="translate(1,32)"/>
<path d="M0,0 L1,0 L1,1 L0,1 Z " fill="#353540" opacity="0.75686276" transform="translate(0,32)"/>
</svg>
