<?xml version="1.0" encoding="UTF-8"?>
<!-- Generator: visioncortex VTracer 0.6.4 -->
<svg version="1.1" xmlns="http://www.w3.org/2000/svg" width="64" height="64">
<path d="M0,0 L36,0 L36,1 L37,1 L37,2 L38,2 L38,3 L39,3 L39,4 L40,4 L40,5 L41,5 L41,6 L39,6 L39,7 L37,7 L37,8 L35,8 L35,9 L33,9 L33,10 L31,10 L31,9 L29,9 L29,8 L27,8 L27,7 L25,7 L25,6 L23,6 L23,5 L21,5 L21,4 L18,4 L18,3 L14,3 L14,4 L11,4 L11,5 L9,5 L9,6 L7,6 L7,7 L5,7 L5,8 L3,8 L3,9 L1,9 L1,10 L0,10 Z M37,0 L40,0 L40,1 L41,1 L41,2 L42,2 L42,3 L43,3 L43,4 L44,4 L44,5 L45,5 L45,6 L46,6 L46,7 L47,7 L47,8 L48,8 L48,9 L49,9 L49,10 L50,10 L50,11 L51,11 L51,12 L52,12 L52,13 L53,13 L53,14 L54,14 L54,15 L55,15 L55,16 L56,16 L56,17 L57,17 L57,18 L58,18 L58,19 L59,19 L59,20 L60,20 L60,21 L61,21 L61,22 L62,22 L62,23 L63,23 L63,24 L64,24 L64,27 L63,27 L63,26 L62,26 L62,25 L61,25 L61,24 L60,24 L60,23 L59,23 L59,22 L58,22 L58,21 L57,21 L57,20 L56,20 L56,19 L55,19 L55,18 L54,18 L54,17 L53,17 L53,16 L52,16 L52,15 L51,15 L51,14 L50,14 L50,13 L49,13 L49,12 L48,12 L48,11 L47,11 L47,10 L46,10 L46,9 L45,9 L45,8 L44,8 L44,7 L43,7 L43,6 L42,6 L42,5 L41,5 L41,4 L40,4 L40,3 L39,3 L39,2 L38,2 L38,1 L37,1 Z M41,0 L56,0 L56,1 L57,1 L57,2 L58,2 L58,3 L59,3 L59,4 L60,4 L60,5 L61,5 L61,6 L62,6 L62,7 L63,7 L63,8 L64,8 L64,23 L63,23 L63,22 L62,22 L62,21 L61,21 L61,20 L60,20 L60,19 L59,19 L59,18 L58,18 L58,17 L57,17 L57,16 L56,16 L56,15 L55,15 L55,14 L54,14 L54,13 L53,13 L53,12 L52,12 L52,11 L51,11 L51,10 L50,10 L50,9 L49,9 L49,8 L48,8 L48,7 L47,7 L47,6 L46,6 L46,5 L45,5 L45,4 L44,4 L44,3 L43,3 L43,2 L42,2 L42,1 L41,1 Z M57,0 L60,0 L60,1 L61,1 L61,2 L62,2 L62,3 L63,3 L63,4 L64,4 L64,7 L63,7 L63,6 L62,6 L62,5 L61,5 L61,4 L60,4 L60,3 L59,3 L59,2 L58,2 L58,1 L57,1 Z M61,0 L64,0 L64,3 L63,3 L63,2 L62,2 L62,1 L61,1 Z M14,4 L18,4 L18,5 L20,5 L20,6 L22,6 L22,7 L24,7 L24,8 L26,8 L26,9 L28,9 L28,10 L30,10 L30,11 L34,11 L34,10 L36,10 L36,9 L38,9 L38,8 L40,8 L40,7 L43,7 L43,8 L44,8 L44,9 L45,9 L45,10 L46,10 L46,11 L47,11 L47,12 L48,12 L48,13 L47,13 L47,14 L45,14 L45,15 L43,15 L43,16 L41,16 L41,17 L39,17 L39,18 L37,18 L37,19 L35,19 L35,20 L29,20 L29,19 L27,19 L27,18 L25,18 L25,17 L23,17 L23,16 L21,16 L21,15 L19,15 L19,14 L17,14 L17,13 L15,13 L15,14 L13,14 L13,15 L11,15 L11,16 L9,16 L9,17 L7,17 L7,18 L5,18 L5,19 L3,19 L3,20 L0,20 L0,11 L2,11 L2,10 L4,10 L4,9 L6,9 L6,8 L8,8 L8,7 L10,7 L10,6 L12,6 L12,5 L14,5 Z M14,15 L18,15 L18,16 L20,16 L20,17 L22,17 L22,18 L24,18 L24,19 L26,19 L26,20 L28,20 L28,21 L36,21 L36,20 L38,20 L38,19 L40,19 L40,18 L42,18 L42,17 L44,17 L44,16 L46,16 L46,15 L50,15 L50,16 L52,16 L52,17 L53,17 L53,18 L54,18 L54,19 L55,19 L55,20 L53,20 L53,19 L51,19 L51,18 L49,18 L49,17 L47,17 L47,18 L45,18 L45,19 L43,19 L43,20 L41,20 L41,21 L39,21 L39,22 L37,22 L37,23 L35,23 L35,24 L29,24 L29,23 L27,23 L27,22 L25,22 L25,21 L23,21 L23,20 L21,20 L21,19 L19,19 L19,18 L17,18 L17,17 L15,17 L15,18 L13,18 L13,19 L11,19 L11,20 L9,20 L9,21 L7,21 L7,22 L5,22 L5,23 L3,23 L3,24 L0,24 L0,21 L4,21 L4,20 L6,20 L6,19 L8,19 L8,18 L10,18 L10,17 L12,17 L12,16 L14,16 Z M14,19 L18,19 L18,20 L20,20 L20,21 L22,21 L22,22 L24,22 L24,23 L26,23 L26,24 L28,24 L28,25 L36,25 L36,24 L38,24 L38,23 L40,23 L40,22 L42,22 L42,21 L44,21 L44,20 L46,20 L46,19 L50,19 L50,20 L52,20 L52,21 L54,21 L54,22 L56,22 L56,23 L58,23 L58,24 L60,24 L60,25 L61,25 L61,26 L62,26 L62,27 L63,27 L63,28 L64,28 L64,35 L62,35 L62,34 L60,34 L60,33 L58,33 L58,32 L56,32 L56,31 L54,31 L54,30 L52,30 L52,29 L49,29 L49,28 L47,28 L47,29 L44,29 L44,30 L42,30 L42,31 L40,31 L40,32 L38,32 L38,33 L36,33 L36,34 L34,34 L34,35 L30,35 L30,34 L28,34 L28,33 L26,33 L26,32 L24,32 L24,31 L22,31 L22,30 L20,30 L20,29 L17,29 L17,28 L15,28 L15,29 L12,29 L12,30 L10,30 L10,31 L8,31 L8,32 L6,32 L6,33 L4,33 L4,34 L2,34 L2,35 L0,35 L0,25 L4,25 L4,24 L6,24 L6,23 L8,23 L8,22 L10,22 L10,21 L12,21 L12,20 L14,20 Z M55,20 L56,20 L56,21 L55,21 Z M15,29 L17,29 L17,30 L20,30 L20,31 L22,31 L22,32 L24,32 L24,33 L26,33 L26,34 L28,34 L28,35 L30,35 L30,36 L34,36 L34,35 L36,35 L36,34 L38,34 L38,33 L40,33 L40,32 L42,32 L42,31 L44,31 L44,30 L47,30 L47,29 L49,29 L49,30 L52,30 L52,31 L54,31 L54,32 L56,32 L56,33 L58,33 L58,34 L60,34 L60,35 L62,35 L62,36 L64,36 L64,39 L62,39 L62,38 L60,38 L60,37 L58,37 L58,36 L56,36 L56,35 L54,35 L54,34 L52,34 L52,33 L49,33 L49,32 L47,32 L47,33 L44,33 L44,34 L42,34 L42,35 L40,35 L40,36 L38,36 L38,37 L36,37 L36,38 L34,38 L34,39 L30,39 L30,38 L28,38 L28,37 L26,37 L26,36 L24,36 L24,35 L22,35 L22,34 L20,34 L20,33 L17,33 L17,32 L15,32 L15,33 L12,33 L12,34 L10,34 L10,35 L8,35 L8,36 L6,36 L6,37 L4,37 L4,38 L2,38 L2,39 L0,39 L0,36 L2,36 L2,35 L4,35 L4,34 L6,34 L6,33 L8,33 L8,32 L10,32 L10,31 L12,31 L12,30 L15,30 Z M15,33 L17,33 L17,34 L20,34 L20,35 L22,35 L22,36 L24,36 L24,37 L26,37 L26,38 L28,38 L28,39 L30,39 L30,40 L34,40 L34,39 L36,39 L36,38 L38,38 L38,37 L40,37 L40,36 L42,36 L42,35 L44,35 L44,34 L47,34 L47,33 L49,33 L49,34 L52,34 L52,35 L54,35 L54,36 L56,36 L56,37 L58,37 L58,38 L60,38 L60,39 L62,39 L62,40 L64,40 L64,59 L61,59 L61,58 L59,58 L59,57 L57,57 L57,56 L55,56 L55,55 L53,55 L53,54 L51,54 L51,53 L49,53 L49,52 L47,52 L47,53 L45,53 L45,54 L43,54 L43,55 L41,55 L41,56 L39,56 L39,57 L37,57 L37,58 L35,58 L35,59 L29,59 L29,58 L27,58 L27,57 L25,57 L25,56 L23,56 L23,55 L21,55 L21,54 L19,54 L19,53 L17,53 L17,52 L15,52 L15,53 L13,53 L13,54 L11,54 L11,55 L9,55 L9,56 L7,56 L7,57 L5,57 L5,58 L3,58 L3,59 L0,59 L0,40 L2,40 L2,39 L4,39 L4,38 L6,38 L6,37 L8,37 L8,36 L10,36 L10,35 L12,35 L12,34 L15,34 Z M14,54 L18,54 L18,55 L20,55 L20,56 L22,56 L22,57 L24,57 L24,58 L26,58 L26,59 L28,59 L28,60 L36,60 L36,59 L38,59 L38,58 L40,58 L40,57 L42,57 L42,56 L44,56 L44,55 L46,55 L46,54 L50,54 L50,55 L52,55 L52,56 L54,56 L54,57 L56,57 L56,58 L58,58 L58,59 L60,59 L60,60 L64,60 L64,64 L0,64 L0,60 L4,60 L4,59 L6,59 L6,58 L8,58 L8,57 L10,57 L10,56 L12,56 L12,55 L14,55 Z " fill="#CFD5DA" transform="translate(0,0)"/>
<path d="M0,0 L36,0 L36,1 L37,1 L37,2 L38,2 L38,3 L39,3 L39,4 L40,4 L40,5 L41,5 L41,6 L39,6 L39,7 L37,7 L37,8 L35,8 L35,9 L33,9 L33,10 L31,10 L31,9 L29,9 L29,8 L27,8 L27,7 L25,7 L25,6 L23,6 L23,5 L21,5 L21,4 L18,4 L18,3 L14,3 L14,4 L11,4 L11,5 L9,5 L9,6 L7,6 L7,7 L5,7 L5,8 L3,8 L3,9 L1,9 L1,10 L0,10 Z M37,0 L40,0 L40,1 L41,1 L41,2 L42,2 L42,3 L43,3 L43,4 L44,4 L44,5 L45,5 L45,6 L46,6 L46,7 L47,7 L47,8 L48,8 L48,9 L49,9 L49,10 L50,10 L50,11 L51,11 L51,12 L52,12 L52,13 L53,13 L53,14 L54,14 L54,15 L55,15 L55,16 L56,16 L56,17 L57,17 L57,18 L58,18 L58,19 L59,19 L59,20 L60,20 L60,21 L61,21 L61,22 L62,22 L62,23 L63,23 L63,24 L64,24 L64,27 L63,27 L63,26 L62,26 L62,25 L61,25 L61,24 L60,24 L60,23 L59,23 L59,22 L58,22 L58,21 L57,21 L57,20 L56,20 L56,19 L55,19 L55,18 L54,18 L54,17 L53,17 L53,16 L52,16 L52,15 L51,15 L51,14 L50,14 L50,13 L49,13 L49,12 L48,12 L48,11 L47,11 L47,10 L46,10 L46,9 L45,9 L45,8 L44,8 L44,7 L43,7 L43,6 L42,6 L42,5 L41,5 L41,4 L40,4 L40,3 L39,3 L39,2 L38,2 L38,1 L37,1 Z M41,0 L56,0 L56,1 L57,1 L57,2 L58,2 L58,3 L59,3 L59,4 L60,4 L60,5 L61,5 L61,6 L62,6 L62,7 L63,7 L63,8 L64,8 L64,23 L63,23 L63,22 L62,22 L62,21 L61,21 L61,20 L60,20 L60,19 L59,19 L59,18 L58,18 L58,17 L57,17 L57,16 L56,16 L56,15 L55,15 L55,14 L54,14 L54,13 L53,13 L53,12 L52,12 L52,11 L51,11 L51,10 L50,10 L50,9 L49,9 L49,8 L48,8 L48,7 L47,7 L47,6 L46,6 L46,5 L45,5 L45,4 L44,4 L44,3 L43,3 L43,2 L42,2 L42,1 L41,1 Z M57,0 L60,0 L60,1 L61,1 L61,2 L62,2 L62,3 L63,3 L63,4 L64,4 L64,7 L63,7 L63,6 L62,6 L62,5 L61,5 L61,4 L60,4 L60,3 L59,3 L59,2 L58,2 L58,1 L57,1 Z M61,0 L64,0 L64,3 L63,3 L63,2 L62,2 L62,1 L61,1 Z M14,4 L18,4 L18,5 L20,5 L20,6 L22,6 L22,7 L24,7 L24,8 L26,8 L26,9 L28,9 L28,10 L30,10 L30,11 L34,11 L34,10 L36,10 L36,9 L38,9 L38,8 L40,8 L40,7 L43,7 L43,8 L44,8 L44,9 L45,9 L45,10 L46,10 L46,11 L47,11 L47,12 L48,12 L48,13 L47,13 L47,14 L45,14 L45,15 L43,15 L43,16 L41,16 L41,17 L39,17 L39,18 L37,18 L37,19 L35,19 L35,20 L29,20 L29,19 L27,19 L27,18 L25,18 L25,17 L23,17 L23,16 L21,16 L21,15 L19,15 L19,14 L17,14 L17,13 L15,13 L15,14 L13,14 L13,15 L11,15 L11,16 L9,16 L9,17 L7,17 L7,18 L5,18 L5,19 L3,19 L3,20 L0,20 L0,11 L2,11 L2,10 L4,10 L4,9 L6,9 L6,8 L8,8 L8,7 L10,7 L10,6 L12,6 L12,5 L14,5 Z " fill="#A6B2BB" transform="translate(0,0)"/>
<path d="M0,0 L4,0 L4,1 L6,1 L6,2 L8,2 L8,3 L10,3 L10,4 L12,4 L12,5 L14,5 L14,6 L22,6 L22,5 L24,5 L24,4 L26,4 L26,3 L28,3 L28,2 L30,2 L30,1 L32,1 L32,0 L36,0 L36,1 L38,1 L38,2 L39,2 L39,3 L40,3 L40,4 L41,4 L41,5 L39,5 L39,4 L37,4 L37,3 L35,3 L35,2 L33,2 L33,3 L31,3 L31,4 L29,4 L29,5 L27,5 L27,6 L25,6 L25,7 L23,7 L23,8 L21,8 L21,9 L15,9 L15,8 L13,8 L13,7 L11,7 L11,6 L9,6 L9,5 L7,5 L7,4 L5,4 L5,3 L3,3 L3,2 L1,2 L1,3 L-1,3 L-1,4 L-3,4 L-3,5 L-5,5 L-5,6 L-7,6 L-7,7 L-9,7 L-9,8 L-11,8 L-11,9 L-14,9 L-14,6 L-10,6 L-10,5 L-8,5 L-8,4 L-6,4 L-6,3 L-4,3 L-4,2 L-2,2 L-2,1 L0,1 Z M0,4 L4,4 L4,5 L6,5 L6,6 L8,6 L8,7 L10,7 L10,8 L12,8 L12,9 L14,9 L14,10 L22,10 L22,9 L24,9 L24,8 L26,8 L26,7 L28,7 L28,6 L30,6 L30,5 L32,5 L32,4 L36,4 L36,5 L38,5 L38,6 L40,6 L40,7 L42,7 L42,8 L44,8 L44,9 L46,9 L46,10 L47,10 L47,11 L48,11 L48,12 L49,12 L49,13 L50,13 L50,20 L48,20 L48,19 L46,19 L46,18 L44,18 L44,17 L42,17 L42,16 L40,16 L40,15 L38,15 L38,14 L35,14 L35,13 L33,13 L33,14 L30,14 L30,15 L28,15 L28,16 L26,16 L26,17 L24,17 L24,18 L22,18 L22,19 L20,19 L20,20 L16,20 L16,19 L14,19 L14,18 L12,18 L12,17 L10,17 L10,16 L8,16 L8,15 L6,15 L6,14 L3,14 L3,13 L1,13 L1,14 L-2,14 L-2,15 L-4,15 L-4,16 L-6,16 L-6,17 L-8,17 L-8,18 L-10,18 L-10,19 L-12,19 L-12,20 L-14,20 L-14,10 L-10,10 L-10,9 L-8,9 L-8,8 L-6,8 L-6,7 L-4,7 L-4,6 L-2,6 L-2,5 L0,5 Z M41,5 L42,5 L42,6 L41,6 Z M1,14 L3,14 L3,15 L6,15 L6,16 L8,16 L8,17 L10,17 L10,18 L12,18 L12,19 L14,19 L14,20 L16,20 L16,21 L20,21 L20,20 L22,20 L22,19 L24,19 L24,18 L26,18 L26,17 L28,17 L28,16 L30,16 L30,15 L33,15 L33,14 L35,14 L35,15 L38,15 L38,16 L40,16 L40,17 L42,17 L42,18 L44,18 L44,19 L46,19 L46,20 L48,20 L48,21 L50,21 L50,24 L48,24 L48,23 L46,23 L46,22 L44,22 L44,21 L42,21 L42,20 L40,20 L40,19 L38,19 L38,18 L35,18 L35,17 L33,17 L33,18 L30,18 L30,19 L28,19 L28,20 L26,20 L26,21 L24,21 L24,22 L22,22 L22,23 L20,23 L20,24 L16,24 L16,23 L14,23 L14,22 L12,22 L12,21 L10,21 L10,20 L8,20 L8,19 L6,19 L6,18 L3,18 L3,17 L1,17 L1,18 L-2,18 L-2,19 L-4,19 L-4,20 L-6,20 L-6,21 L-8,21 L-8,22 L-10,22 L-10,23 L-12,23 L-12,24 L-14,24 L-14,21 L-12,21 L-12,20 L-10,20 L-10,19 L-8,19 L-8,18 L-6,18 L-6,17 L-4,17 L-4,16 L-2,16 L-2,15 L1,15 Z " fill="#BBC4CB" transform="translate(14,15)"/>
<path d="M0,0 L4,0 L4,1 L6,1 L6,2 L8,2 L8,3 L10,3 L10,4 L12,4 L12,5 L14,5 L14,6 L22,6 L22,5 L24,5 L24,4 L26,4 L26,3 L28,3 L28,2 L30,2 L30,1 L32,1 L32,0 L36,0 L36,1 L38,1 L38,2 L40,2 L40,3 L42,3 L42,4 L44,4 L44,5 L46,5 L46,6 L50,6 L50,10 L-14,10 L-14,6 L-10,6 L-10,5 L-8,5 L-8,4 L-6,4 L-6,3 L-4,3 L-4,2 L-2,2 L-2,1 L0,1 Z " fill="#BBC4CB" transform="translate(14,54)"/>
<path d="M0,0 L3,0 L3,1 L4,1 L4,2 L5,2 L5,3 L6,3 L6,4 L7,4 L7,5 L8,5 L8,6 L9,6 L9,7 L10,7 L10,8 L11,8 L11,9 L12,9 L12,10 L13,10 L13,11 L14,11 L14,12 L15,12 L15,13 L16,13 L16,14 L17,14 L17,15 L18,15 L18,16 L19,16 L19,17 L20,17 L20,18 L21,18 L21,19 L22,19 L22,20 L23,20 L23,21 L24,21 L24,22 L25,22 L25,23 L26,23 L26,24 L27,24 L27,27 L26,27 L26,26 L25,26 L25,25 L24,25 L24,24 L23,24 L23,23 L22,23 L22,22 L21,22 L21,21 L20,21 L20,20 L19,20 L19,19 L18,19 L18,18 L17,18 L17,17 L16,17 L16,16 L15,16 L15,15 L14,15 L14,14 L13,14 L13,13 L12,13 L12,12 L11,12 L11,11 L10,11 L10,10 L9,10 L9,9 L8,9 L8,8 L7,8 L7,7 L6,7 L6,6 L5,6 L5,5 L4,5 L4,4 L3,4 L3,3 L2,3 L2,2 L1,2 L1,1 L0,1 Z M4,0 L19,0 L19,1 L20,1 L20,2 L21,2 L21,3 L22,3 L22,4 L23,4 L23,5 L24,5 L24,6 L25,6 L25,7 L26,7 L26,8 L27,8 L27,23 L26,23 L26,22 L25,22 L25,21 L24,21 L24,20 L23,20 L23,19 L22,19 L22,18 L21,18 L21,17 L20,17 L20,16 L19,16 L19,15 L18,15 L18,14 L17,14 L17,13 L16,13 L16,12 L15,12 L15,11 L14,11 L14,10 L13,10 L13,9 L12,9 L12,8 L11,8 L11,7 L10,7 L10,6 L9,6 L9,5 L8,5 L8,4 L7,4 L7,3 L6,3 L6,2 L5,2 L5,1 L4,1 Z M20,0 L23,0 L23,1 L24,1 L24,2 L25,2 L25,3 L26,3 L26,4 L27,4 L27,7 L26,7 L26,6 L25,6 L25,5 L24,5 L24,4 L23,4 L23,3 L22,3 L22,2 L21,2 L21,1 L20,1 Z M24,0 L27,0 L27,3 L26,3 L26,2 L25,2 L25,1 L24,1 Z " fill="#DE7E4F" transform="translate(37,0)"/>
<path d="M0,0 L2,0 L2,1 L5,1 L5,2 L7,2 L7,3 L9,3 L9,4 L11,4 L11,5 L13,5 L13,6 L15,6 L15,7 L19,7 L19,6 L21,6 L21,5 L23,5 L23,4 L25,4 L25,3 L27,3 L27,2 L29,2 L29,1 L32,1 L32,0 L34,0 L34,1 L37,1 L37,2 L39,2 L39,3 L41,3 L41,4 L43,4 L43,5 L45,5 L45,6 L47,6 L47,7 L49,7 L49,10 L47,10 L47,9 L45,9 L45,8 L43,8 L43,7 L41,7 L41,6 L39,6 L39,5 L37,5 L37,4 L34,4 L34,3 L32,3 L32,4 L29,4 L29,5 L27,5 L27,6 L25,6 L25,7 L23,7 L23,8 L21,8 L21,9 L19,9 L19,10 L15,10 L15,9 L13,9 L13,8 L11,8 L11,7 L9,7 L9,6 L7,6 L7,5 L5,5 L5,4 L2,4 L2,3 L0,3 L0,4 L-3,4 L-3,5 L-5,5 L-5,6 L-7,6 L-7,7 L-9,7 L-9,8 L-11,8 L-11,9 L-13,9 L-13,10 L-15,10 L-15,7 L-13,7 L-13,6 L-11,6 L-11,5 L-9,5 L-9,4 L-7,4 L-7,3 L-5,3 L-5,2 L-3,2 L-3,1 L0,1 Z " fill="#A6B2BB" transform="translate(15,29)"/>
<path d="M0,0 L36,0 L36,1 L37,1 L37,2 L38,2 L38,3 L39,3 L39,4 L40,4 L40,5 L41,5 L41,6 L39,6 L39,7 L37,7 L37,8 L35,8 L35,9 L33,9 L33,10 L31,10 L31,9 L29,9 L29,8 L27,8 L27,7 L25,7 L25,6 L23,6 L23,5 L21,5 L21,4 L18,4 L18,3 L14,3 L14,4 L11,4 L11,5 L9,5 L9,6 L7,6 L7,7 L5,7 L5,8 L3,8 L3,9 L1,9 L1,10 L0,10 Z " fill="#BBC4CB" transform="translate(0,0)"/>
<path d="M0,0 L1,0 L1,1 L0,1 Z M-2,1 L-1,1 L-1,2 L-2,2 Z M-4,2 L-3,2 L-3,3 L-4,3 Z " fill="#BAC3CA" opacity="0.99607843" transform="translate(39,6)"/>
<path d="M0,0 L4,0 L4,1 L6,1 L6,2 L8,2 L8,3 L10,3 L10,4 L12,4 L12,5 L14,5 L14,6 L22,6 L22,5 L24,5 L24,4 L26,4 L26,3 L28,3 L28,2 L30,2 L30,1 L32,1 L32,0 L36,0 L36,1 L38,1 L38,2 L39,2 L39,3 L40,3 L40,4 L41,4 L41,5 L39,5 L39,4 L37,4 L37,3 L35,3 L35,2 L33,2 L33,3 L31,3 L31,4 L29,4 L29,5 L27,5 L27,6 L25,6 L25,7 L23,7 L23,8 L21,8 L21,9 L15,9 L15,8 L13,8 L13,7 L11,7 L11,6 L9,6 L9,5 L7,5 L7,4 L5,4 L5,3 L3,3 L3,2 L1,2 L1,3 L-1,3 L-1,4 L-3,4 L-3,5 L-5,5 L-5,6 L-7,6 L-7,7 L-9,7 L-9,8 L-11,8 L-11,9 L-14,9 L-14,6 L-10,6 L-10,5 L-8,5 L-8,4 L-6,4 L-6,3 L-4,3 L-4,2 L-2,2 L-2,1 L0,1 Z M41,5 L42,5 L42,6 L41,6 Z " fill="#CFD5DA" transform="translate(14,15)"/>
<path d="M0,0 L3,0 L3,1 L4,1 L4,2 L5,2 L5,3 L6,3 L6,4 L7,4 L7,5 L8,5 L8,6 L9,6 L9,7 L10,7 L10,8 L11,8 L11,9 L12,9 L12,10 L13,10 L13,11 L14,11 L14,12 L15,12 L15,13 L16,13 L16,14 L17,14 L17,15 L18,15 L18,16 L19,16 L19,17 L20,17 L20,18 L21,18 L21,19 L22,19 L22,20 L23,20 L23,21 L24,21 L24,22 L25,22 L25,23 L26,23 L26,24 L27,24 L27,27 L26,27 L26,26 L25,26 L25,25 L24,25 L24,24 L23,24 L23,23 L22,23 L22,22 L21,22 L21,21 L20,21 L20,20 L19,20 L19,19 L18,19 L18,18 L17,18 L17,17 L16,17 L16,16 L15,16 L15,15 L14,15 L14,14 L13,14 L13,13 L12,13 L12,12 L11,12 L11,11 L10,11 L10,10 L9,10 L9,9 L8,9 L8,8 L7,8 L7,7 L6,7 L6,6 L5,6 L5,5 L4,5 L4,4 L3,4 L3,3 L2,3 L2,2 L1,2 L1,1 L0,1 Z " fill="#C66A3E" transform="translate(37,0)"/>
<path d="M0,0 L3,0 L3,1 L4,1 L4,2 L5,2 L5,6 L4,6 L4,7 L3,7 L3,8 L0,8 L0,7 L-1,7 L-1,6 L-2,6 L-2,2 L-1,2 L-1,1 L0,1 Z " fill="#BBC4CB" transform="translate(53,40)"/>
<path d="M0,0 L3,0 L3,1 L4,1 L4,2 L5,2 L5,3 L6,3 L6,4 L7,4 L7,7 L6,7 L6,6 L5,6 L5,5 L4,5 L4,4 L3,4 L3,3 L2,3 L2,2 L1,2 L1,1 L0,1 Z M4,0 L7,0 L7,3 L6,3 L6,2 L5,2 L5,1 L4,1 Z " fill="#EE9366" transform="translate(57,0)"/>
<path d="M0,0 L1,0 L1,1 L0,1 Z M1,1 L2,1 L2,2 L1,2 Z M2,2 L3,2 L3,3 L2,3 Z M3,3 L4,3 L4,4 L3,4 Z M4,4 L5,4 L5,5 L4,5 Z M5,5 L6,5 L6,6 L5,6 Z M6,6 L7,6 L7,7 L6,7 Z M7,7 L8,7 L8,8 L7,8 Z M8,8 L9,8 L9,9 L8,9 Z M9,9 L10,9 L10,10 L9,10 Z M10,10 L11,10 L11,11 L10,11 Z M11,11 L12,11 L12,12 L11,12 Z M12,12 L13,12 L13,13 L12,13 Z M13,13 L14,13 L14,14 L13,14 Z M14,14 L15,14 L15,15 L14,15 Z M15,15 L16,15 L16,16 L15,16 Z M16,16 L17,16 L17,17 L16,17 Z M17,17 L18,17 L18,18 L17,18 Z M18,18 L19,18 L19,19 L18,19 Z M19,19 L20,19 L20,20 L19,20 Z M20,20 L21,20 L21,21 L20,21 Z M21,21 L22,21 L22,22 L21,22 Z M22,22 L23,22 L23,23 L22,23 Z M23,23 L24,23 L24,24 L23,24 Z " fill="#D67649" opacity="0.7529412" transform="translate(40,0)"/>
<path d="M0,0 L3,0 L3,1 L4,1 L4,4 L3,4 L3,5 L0,5 L0,4 L-1,4 L-1,1 L0,1 Z " fill="#BBC4CB" transform="translate(43,40)"/>
<path d="M0,0 L3,0 L3,1 L4,1 L4,3 L3,3 L3,4 L0,4 L0,3 L-1,3 L-1,1 L0,1 Z " fill="#A6B2BB" transform="translate(14,22)"/>
<path d="M0,0 L1,0 L1,1 L0,1 Z M1,1 L2,1 L2,2 L1,2 Z M2,2 L3,2 L3,3 L2,3 Z M3,3 L4,3 L4,4 L3,4 Z M4,4 L5,4 L5,5 L4,5 Z M5,5 L6,5 L6,6 L5,6 Z M6,6 L7,6 L7,7 L6,7 Z M7,7 L8,7 L8,8 L7,8 Z " fill="#B19A91" opacity="0.7529412" transform="translate(42,6)"/>
<path d="M0,0 L3,0 L3,1 L1,1 L1,2 L0,2 L0,3 L-1,3 L-1,4 L-2,4 L-2,2 L-1,2 L-1,1 L0,1 Z " fill="#BBC4CB" transform="translate(53,40)"/>
<path d="M0,0 L1,0 L1,1 L0,1 Z M1,1 L2,1 L2,2 L1,2 Z M2,2 L3,2 L3,3 L2,3 Z M3,3 L4,3 L4,4 L3,4 Z M4,4 L5,4 L5,5 L4,5 Z M5,5 L6,5 L6,6 L5,6 Z " fill="#CDB2A6" opacity="0.7529412" transform="translate(52,16)"/>
<path d="M0,0 L1,0 L1,1 L0,1 Z M1,1 L2,1 L2,2 L1,2 Z M2,2 L3,2 L3,3 L2,3 Z M3,3 L4,3 L4,4 L3,4 Z M4,4 L5,4 L5,5 L4,5 Z M5,5 L6,5 L6,6 L5,6 Z M6,6 L7,6 L7,7 L6,7 Z M7,7 L8,7 L8,8 L7,8 Z " fill="#E48456" opacity="0.7529412" transform="translate(56,0)"/>
<path d="M0,0 L3,0 L3,1 L1,1 L1,2 L0,2 L0,4 L-1,4 L-1,1 L0,1 Z " fill="#BBC4CB" transform="translate(43,40)"/>
<path d="M0,0 L1,0 L1,1 L0,1 Z " fill="#CED5DA" opacity="0.89411765" transform="translate(32,59)"/>
<path d="M0,0 L1,0 L1,3 L0,3 Z M-3,3 L0,3 L0,4 L-3,4 Z " fill="#C3CBD1" transform="translate(46,41)"/>
<path d="M0,0 L1,0 L1,1 L0,1 Z " fill="#CED5DA" opacity="0.83137256" transform="translate(32,24)"/>
<path d="M0,0 L1,0 L1,1 L0,1 Z " fill="#A7B3BD" opacity="0.83137256" transform="translate(32,20)"/>
<path d="M0,0 L3,0 L3,3 L2,3 L2,2 L1,2 L1,1 L0,1 Z " fill="#353541" transform="translate(61,0)"/>
<path d="M0,0 L1,0 L1,1 L0,1 Z M1,1 L2,1 L2,2 L1,2 Z M2,2 L3,2 L3,3 L2,3 Z M3,3 L4,3 L4,4 L3,4 Z M4,4 L5,4 L5,5 L4,5 Z " fill="#BEA69D" opacity="0.7529412" transform="translate(36,0)"/>
<path d="M0,0 L1,0 L1,1 L0,1 Z " fill="#BEC7CE" opacity="0.8745098" transform="translate(47,53)"/>
<path d="M0,0 L1,0 L1,1 L0,1 Z " fill="#BEC7CE" opacity="0.8745098" transform="translate(15,53)"/>
<path d="M0,0 L1,0 L1,1 L0,1 Z " fill="#A9B4BD" opacity="0.8156863" transform="translate(31,39)"/>
<path d="M0,0 L1,0 L1,1 L0,1 Z " fill="#B3BDC7" opacity="0.8156863" transform="translate(31,35)"/>
<path d="M0,0 L1,0 L1,1 L0,1 Z M1,1 L2,1 L2,2 L1,2 Z M2,2 L3,2 L3,3 L2,3 Z M3,3 L4,3 L4,4 L3,4 Z " fill="#BEA69D" opacity="0.7529412" transform="translate(60,24)"/>
<path d="M0,0 L1,0 L1,1 L0,1 Z M1,1 L2,1 L2,2 L1,2 Z M2,2 L3,2 L3,3 L2,3 Z M3,3 L4,3 L4,4 L3,4 Z " fill="#B07259" opacity="0.7529412" transform="translate(60,0)"/>
<path d="M0,0 L3,0 L3,1 L0,1 Z " fill="#BBC4CC" transform="translate(53,47)"/>
<path d="M0,0 L3,0 L3,1 L0,1 Z " fill="#BCC5CB" transform="translate(53,40)"/>
<path d="M0,0 L3,0 L3,1 L0,1 Z " fill="#BBC5CC" transform="translate(43,40)"/>
<path d="M0,0 L1,0 L1,1 L0,1 Z " fill="#CCD3D8" opacity="0.78431374" transform="translate(1,24)"/>
<path d="M0,0 L1,0 L1,1 L0,1 Z M-1,1 L0,1 L0,3 L-1,3 Z " fill="#A6B2BB" transform="translate(14,22)"/>
<path d="M0,0 L1,0 L1,1 L0,1 Z " fill="#ACB7C0" opacity="0.78431374" transform="translate(1,20)"/>
<path d="M0,0 L1,0 L1,1 L0,1 Z " fill="#A6B3BB" opacity="0.8666667" transform="translate(41,6)"/>
<path d="M0,0 L1,0 L1,1 L0,1 Z " fill="#CED4D9" opacity="0.83137256" transform="translate(62,59)"/>
<path d="M0,0 L1,0 L1,1 L0,1 Z " fill="#CED4D8" opacity="0.8235294" transform="translate(30,59)"/>
<path d="M0,0 L1,0 L1,1 L0,1 Z " fill="#C8CED5" opacity="0.7529412" transform="translate(2,59)"/>
<path d="M0,0 L1,0 L1,1 L0,1 Z " fill="#BEC7CE" opacity="0.8745098" transform="translate(37,58)"/>
<path d="M0,0 L1,0 L1,1 L0,1 Z " fill="#BEC7CE" opacity="0.8745098" transform="translate(5,58)"/>
<path d="M0,0 L1,0 L1,1 L0,1 Z " fill="#BEC7CE" opacity="0.8745098" transform="translate(39,57)"/>
<path d="M0,0 L1,0 L1,1 L0,1 Z " fill="#BEC7CE" opacity="0.8745098" transform="translate(7,57)"/>
<path d="M0,0 L1,0 L1,1 L0,1 Z " fill="#BEC7CE" opacity="0.8745098" transform="translate(41,56)"/>
<path d="M0,0 L1,0 L1,1 L0,1 Z " fill="#BEC7CE" opacity="0.8745098" transform="translate(9,56)"/>
<path d="M0,0 L1,0 L1,1 L0,1 Z " fill="#BEC7CE" opacity="0.8745098" transform="translate(43,55)"/>
<path d="M0,0 L1,0 L1,1 L0,1 Z " fill="#BEC7CE" opacity="0.8745098" transform="translate(11,55)"/>
<path d="M0,0 L1,0 L1,1 L0,1 Z " fill="#BEC7CE" opacity="0.8745098" transform="translate(45,54)"/>
<path d="M0,0 L1,0 L1,1 L0,1 Z " fill="#BEC7CE" opacity="0.8745098" transform="translate(13,54)"/>
<path d="M0,0 L2,0 L2,1 L0,1 Z " fill="#CFD5DA" opacity="0.99215686" transform="translate(47,52)"/>
<path d="M0,0 L2,0 L2,1 L0,1 Z " fill="#CFD5DA" opacity="0.99215686" transform="translate(15,52)"/>
<path d="M0,0 L1,0 L1,2 L0,2 Z " fill="#C8CFD5" transform="translate(58,43)"/>
<path d="M0,0 L1,0 L1,2 L0,2 Z " fill="#C6CDD3" transform="translate(50,43)"/>
<path d="M0,0 L2,0 L2,1 L0,1 Z " fill="#BCC4CC" transform="translate(43,44)"/>
<path d="M0,0 L1,0 L1,2 L0,2 Z " fill="#BDC6CC" transform="translate(46,41)"/>
<path d="M0,0 L1,0 L1,1 L0,1 Z M1,1 L2,1 L2,2 L1,2 Z " fill="#BEC6CD" transform="translate(56,41)"/>
<path d="M0,0 L1,0 L1,1 L0,1 Z M-1,1 L0,1 L0,2 L-1,2 Z " fill="#CCD2D8" transform="translate(52,40)"/>
<path d="M0,0 L1,0 L1,1 L0,1 Z " fill="#A9B4BD" opacity="0.8156863" transform="translate(63,39)"/>
<path d="M0,0 L1,0 L1,1 L0,1 Z " fill="#A9B5BE" opacity="0.80784315" transform="translate(59,37)"/>
<path d="M0,0 L1,0 L1,1 L0,1 Z " fill="#A9B5BE" opacity="0.80784315" transform="translate(27,37)"/>
<path d="M0,0 L1,0 L1,1 L0,1 Z " fill="#B3BDC7" opacity="0.8156863" transform="translate(63,35)"/>
<path d="M0,0 L1,0 L1,1 L0,1 Z " fill="#A7B2BC" opacity="0.81960785" transform="translate(1,35)"/>
<path d="M0,0 L1,0 L1,1 L0,1 Z " fill="#B4BEC5" opacity="0.8117647" transform="translate(61,34)"/>
<path d="M0,0 L1,0 L1,1 L0,1 Z " fill="#A7B4BC" opacity="0.81960785" transform="translate(35,34)"/>
<path d="M0,0 L1,0 L1,1 L0,1 Z " fill="#B4BEC5" opacity="0.8117647" transform="translate(29,34)"/>
<path d="M0,0 L1,0 L1,1 L0,1 Z " fill="#A7B4BC" opacity="0.81960785" transform="translate(3,34)"/>
<path d="M0,0 L1,0 L1,1 L0,1 Z " fill="#B4BEC5" opacity="0.80784315" transform="translate(59,33)"/>
<path d="M0,0 L1,0 L1,1 L0,1 Z " fill="#A9B6BD" opacity="0.8039216" transform="translate(51,33)"/>
<path d="M0,0 L1,0 L1,1 L0,1 Z " fill="#BCC5CC" opacity="0.7764706" transform="translate(45,33)"/>
<path d="M0,0 L1,0 L1,1 L0,1 Z " fill="#A7B3BB" opacity="0.8235294" transform="translate(37,33)"/>
<path d="M0,0 L1,0 L1,1 L0,1 Z " fill="#B4BEC5" opacity="0.80784315" transform="translate(27,33)"/>
<path d="M0,0 L1,0 L1,1 L0,1 Z " fill="#A9B6BD" opacity="0.8039216" transform="translate(19,33)"/>
<path d="M0,0 L1,0 L1,1 L0,1 Z " fill="#BCC5CC" opacity="0.7764706" transform="translate(13,33)"/>
<path d="M0,0 L1,0 L1,1 L0,1 Z " fill="#A7B3BB" opacity="0.8235294" transform="translate(5,33)"/>
<path d="M0,0 L1,0 L1,1 L0,1 Z " fill="#B3BFC5" opacity="0.8039216" transform="translate(57,32)"/>
<path d="M0,0 L2,0 L2,1 L0,1 Z " fill="#A6B2BB" opacity="0.9529412" transform="translate(47,32)"/>
<path d="M0,0 L1,0 L1,1 L0,1 Z " fill="#A7B3BC" opacity="0.827451" transform="translate(39,32)"/>
<path d="M0,0 L1,0 L1,1 L0,1 Z " fill="#B3BFC5" opacity="0.8039216" transform="translate(25,32)"/>
<path d="M0,0 L2,0 L2,1 L0,1 Z " fill="#A6B2BB" opacity="0.9529412" transform="translate(15,32)"/>
<path d="M0,0 L1,0 L1,1 L0,1 Z " fill="#A7B3BC" opacity="0.827451" transform="translate(7,32)"/>
<path d="M0,0 L1,0 L1,1 L0,1 Z " fill="#A7B4BD" opacity="0.827451" transform="translate(41,31)"/>
<path d="M0,0 L1,0 L1,1 L0,1 Z " fill="#A7B4BD" opacity="0.827451" transform="translate(9,31)"/>
<path d="M0,0 L1,0 L1,1 L0,1 Z " fill="#A7B2BB" opacity="0.83137256" transform="translate(43,30)"/>
<path d="M0,0 L1,0 L1,1 L0,1 Z " fill="#A7B2BB" opacity="0.83137256" transform="translate(11,30)"/>
<path d="M0,0 L1,0 L1,1 L0,1 Z " fill="#B3BFC5" opacity="0.8039216" transform="translate(51,29)"/>
<path d="M0,0 L1,0 L1,1 L0,1 Z " fill="#A9B5BE" opacity="0.7764706" transform="translate(45,29)"/>
<path d="M0,0 L1,0 L1,1 L0,1 Z " fill="#B3BFC5" opacity="0.8039216" transform="translate(19,29)"/>
<path d="M0,0 L1,0 L1,1 L0,1 Z " fill="#A9B5BE" opacity="0.7764706" transform="translate(13,29)"/>
<path d="M0,0 L2,0 L2,1 L0,1 Z " fill="#BAC2CA" opacity="0.9529412" transform="translate(47,28)"/>
<path d="M0,0 L2,0 L2,1 L0,1 Z " fill="#BAC2CA" opacity="0.9529412" transform="translate(15,28)"/>
<path d="M0,0 L2,0 L2,1 L0,1 Z " fill="#B9C3CA" transform="translate(15,26)"/>
<path d="M0,0 L1,0 L1,1 L0,1 Z " fill="#CCD2D9" opacity="0.78039217" transform="translate(30,24)"/>
<path d="M0,0 L1,0 L1,2 L0,2 Z " fill="#ACB7C0" transform="translate(17,23)"/>
<path d="M0,0 L1,0 L1,2 L0,2 Z " fill="#B9C3CA" transform="translate(12,23)"/>
<path d="M0,0 L1,0 L1,1 L0,1 Z " fill="#CFD4DA" opacity="0.95686275" transform="translate(28,23)"/>
<path d="M0,0 L1,0 L1,1 L0,1 Z " fill="#CFD4DA" opacity="0.95686275" transform="translate(26,22)"/>
<path d="M0,0 L1,0 L1,1 L0,1 Z " fill="#CFD4DA" opacity="0.95686275" transform="translate(56,21)"/>
<path d="M0,0 L1,0 L1,1 L0,1 Z " fill="#CED5DA" opacity="0.9607843" transform="translate(24,21)"/>
<path d="M0,0 L2,0 L2,1 L0,1 Z " fill="#B0BAC2" transform="translate(14,21)"/>
<path d="M0,0 L1,0 L1,1 L0,1 Z " fill="#CFD4DA" opacity="0.95686275" transform="translate(54,20)"/>
<path d="M0,0 L1,0 L1,1 L0,1 Z " fill="#ACB7BF" opacity="0.78039217" transform="translate(30,20)"/>
<path d="M0,0 L1,0 L1,1 L0,1 Z " fill="#CED5DA" opacity="0.9607843" transform="translate(22,20)"/>
<path d="M0,0 L1,0 L1,1 L0,1 Z " fill="#CED5DA" opacity="0.9607843" transform="translate(52,19)"/>
<path d="M0,0 L1,0 L1,1 L0,1 Z " fill="#A5B2BA" opacity="0.95686275" transform="translate(28,19)"/>
<path d="M0,0 L1,0 L1,1 L0,1 Z " fill="#CED5DA" opacity="0.9607843" transform="translate(20,19)"/>
<path d="M0,0 L1,0 L1,1 L0,1 Z " fill="#CED5DA" opacity="0.9607843" transform="translate(50,18)"/>
<path d="M0,0 L2,0 L2,1 L0,1 Z " fill="#BDC5CD" opacity="0.92156863" transform="translate(47,18)"/>
<path d="M0,0 L1,0 L1,1 L0,1 Z " fill="#A5B2BA" opacity="0.95686275" transform="translate(26,18)"/>
<path d="M0,0 L1,0 L1,1 L0,1 Z " fill="#CFD5DA" opacity="0.9647059" transform="translate(18,18)"/>
<path d="M0,0 L2,0 L2,1 L0,1 Z " fill="#BDC5CD" opacity="0.92156863" transform="translate(15,18)"/>
<path d="M0,0 L2,0 L2,1 L0,1 Z " fill="#CFD5DA" opacity="0.9647059" transform="translate(47,17)"/>
<path d="M0,0 L1,0 L1,1 L0,1 Z " fill="#A6B2BB" opacity="0.9607843" transform="translate(24,17)"/>
<path d="M0,0 L2,0 L2,1 L0,1 Z " fill="#CFD5DA" opacity="0.9647059" transform="translate(15,17)"/>
<path d="M0,0 L1,0 L1,1 L0,1 Z " fill="#A6B2BB" opacity="0.9607843" transform="translate(22,16)"/>
<path d="M0,0 L1,0 L1,1 L0,1 Z " fill="#A6B2BB" opacity="0.9607843" transform="translate(20,15)"/>
<path d="M0,0 L2,0 L2,1 L0,1 Z " fill="#CBD2D8" opacity="0.92156863" transform="translate(47,14)"/>
<path d="M0,0 L1,0 L1,1 L0,1 Z " fill="#A6B1BB" opacity="0.9647059" transform="translate(18,14)"/>
<path d="M0,0 L2,0 L2,1 L0,1 Z " fill="#CBD2D8" opacity="0.92156863" transform="translate(15,14)"/>
<path d="M0,0 L2,0 L2,1 L0,1 Z " fill="#A6B1BB" opacity="0.9647059" transform="translate(47,13)"/>
<path d="M0,0 L2,0 L2,1 L0,1 Z " fill="#A6B1BB" opacity="0.9647059" transform="translate(15,13)"/>
<path d="M0,0 L1,0 L1,1 L0,1 Z " fill="#B0BBC2" opacity="0.77254903" transform="translate(32,10)"/>
<path d="M0,0 L1,0 L1,1 L0,1 Z " fill="#A7B3BB" opacity="0.8745098" transform="translate(1,10)"/>
<path d="M0,0 L1,0 L1,1 L0,1 Z " fill="#A6B2BB" opacity="0.87058824" transform="translate(35,9)"/>
<path d="M0,0 L1,0 L1,1 L0,1 Z " fill="#A6B2BB" opacity="0.8784314" transform="translate(3,9)"/>
<path d="M0,0 L1,0 L1,1 L0,1 Z " fill="#A6B2BB" opacity="0.87058824" transform="translate(37,8)"/>
<path d="M0,0 L1,0 L1,1 L0,1 Z " fill="#A6B1BB" opacity="0.88235295" transform="translate(5,8)"/>
<path d="M0,0 L1,0 L1,1 L0,1 Z " fill="#A6B3BB" opacity="0.8666667" transform="translate(39,7)"/>
<path d="M0,0 L1,0 L1,1 L0,1 Z " fill="#B9C4CB" opacity="0.9882353" transform="translate(26,7)"/>
<path d="M0,0 L1,0 L1,1 L0,1 Z " fill="#A6B2BB" opacity="0.88235295" transform="translate(7,7)"/>
<path d="M0,0 L1,0 L1,1 L0,1 Z " fill="#B9C4CB" opacity="0.9882353" transform="translate(24,6)"/>
<path d="M0,0 L1,0 L1,1 L0,1 Z " fill="#A6B2BA" opacity="0.8862745" transform="translate(9,6)"/>
<path d="M0,0 L1,0 L1,1 L0,1 Z " fill="#A6B2BB" opacity="0.8901961" transform="translate(11,5)"/>
<path d="M0,0 L1,0 L1,1 L0,1 Z " fill="#B0BAC2" opacity="0.76862746" transform="translate(19,4)"/>
<path d="M0,0 L1,0 L1,1 L0,1 Z " fill="#A7B3BC" opacity="0.8156863" transform="translate(13,4)"/>
<path d="M0,0 L1,0 L1,1 L0,1 Z " fill="#B8C2C9" opacity="0.8784314" transform="translate(16,3)"/>
<path d="M0,0 L1,0 L1,1 L0,1 Z " fill="#BBC4CB" transform="translate(0,60)"/>
<path d="M0,0 L1,0 L1,1 L0,1 Z " fill="#CED5DA" opacity="0.9372549" transform="translate(63,59)"/>
<path d="M0,0 L1,0 L1,1 L0,1 Z " fill="#C9D0D5" opacity="0.7529412" transform="translate(61,59)"/>
<path d="M0,0 L1,0 L1,1 L0,1 Z " fill="#BEC6CE" opacity="0.8980392" transform="translate(60,59)"/>
<path d="M0,0 L1,0 L1,1 L0,1 Z " fill="#BDC6CD" opacity="0.89411765" transform="translate(35,59)"/>
<path d="M0,0 L1,0 L1,1 L0,1 Z " fill="#C8CED5" opacity="0.7529412" transform="translate(34,59)"/>
<path d="M0,0 L1,0 L1,1 L0,1 Z " fill="#CDD5D8" opacity="0.81960785" transform="translate(33,59)"/>
<path d="M0,0 L1,0 L1,1 L0,1 Z " fill="#CED6DA" opacity="0.89411765" transform="translate(31,59)"/>
<path d="M0,0 L1,0 L1,1 L0,1 Z " fill="#C9D0D5" opacity="0.7529412" transform="translate(29,59)"/>
<path d="M0,0 L1,0 L1,1 L0,1 Z " fill="#BEC6CE" opacity="0.8980392" transform="translate(28,59)"/>
<path d="M0,0 L1,0 L1,1 L0,1 Z " fill="#BDC6CD" opacity="0.89411765" transform="translate(3,59)"/>
<path d="M0,0 L1,0 L1,1 L0,1 Z " fill="#CED4D9" opacity="0.83137256" transform="translate(1,59)"/>
<path d="M0,0 L1,0 L1,1 L0,1 Z " fill="#CED5DA" opacity="0.9372549" transform="translate(0,59)"/>
<path d="M0,0 L1,0 L1,1 L0,1 Z " fill="#CFD5DA" opacity="0.99215686" transform="translate(60,58)"/>
<path d="M0,0 L1,0 L1,1 L0,1 Z " fill="#CBD0D7" opacity="0.76862746" transform="translate(59,58)"/>
<path d="M0,0 L1,0 L1,1 L0,1 Z " fill="#BEC7CD" opacity="0.88235295" transform="translate(58,58)"/>
<path d="M0,0 L1,0 L1,1 L0,1 Z " fill="#CBD2D7" opacity="0.76862746" transform="translate(36,58)"/>
<path d="M0,0 L1,0 L1,1 L0,1 Z " fill="#CFD5DA" opacity="0.99215686" transform="translate(35,58)"/>
<path d="M0,0 L1,0 L1,1 L0,1 Z " fill="#CFD5DA" opacity="0.99215686" transform="translate(28,58)"/>
<path d="M0,0 L1,0 L1,1 L0,1 Z " fill="#CBD0D7" opacity="0.76862746" transform="translate(27,58)"/>
<path d="M0,0 L1,0 L1,1 L0,1 Z " fill="#BEC7CD" opacity="0.88235295" transform="translate(26,58)"/>
<path d="M0,0 L1,0 L1,1 L0,1 Z " fill="#CBD2D7" opacity="0.76862746" transform="translate(4,58)"/>
<path d="M0,0 L1,0 L1,1 L0,1 Z " fill="#CFD5DA" opacity="0.99215686" transform="translate(3,58)"/>
<path d="M0,0 L1,0 L1,1 L0,1 Z " fill="#CFD5DA" opacity="0.99215686" transform="translate(58,57)"/>
<path d="M0,0 L1,0 L1,1 L0,1 Z " fill="#CAD2D7" opacity="0.76862746" transform="translate(57,57)"/>
<path d="M0,0 L1,0 L1,1 L0,1 Z " fill="#BEC7CD" opacity="0.88235295" transform="translate(56,57)"/>
<path d="M0,0 L1,0 L1,1 L0,1 Z " fill="#CBD2D7" opacity="0.76862746" transform="translate(38,57)"/>
<path d="M0,0 L1,0 L1,1 L0,1 Z " fill="#CFD5DA" opacity="0.99215686" transform="translate(37,57)"/>
<path d="M0,0 L1,0 L1,1 L0,1 Z " fill="#CFD5DA" opacity="0.99215686" transform="translate(26,57)"/>
<path d="M0,0 L1,0 L1,1 L0,1 Z " fill="#CAD2D7" opacity="0.76862746" transform="translate(25,57)"/>
<path d="M0,0 L1,0 L1,1 L0,1 Z " fill="#BEC7CD" opacity="0.88235295" transform="translate(24,57)"/>
<path d="M0,0 L1,0 L1,1 L0,1 Z " fill="#CBD2D7" opacity="0.76862746" transform="translate(6,57)"/>
<path d="M0,0 L1,0 L1,1 L0,1 Z " fill="#CFD5DA" opacity="0.99215686" transform="translate(5,57)"/>
<path d="M0,0 L1,0 L1,1 L0,1 Z " fill="#CFD5DA" opacity="0.99215686" transform="translate(56,56)"/>
<path d="M0,0 L1,0 L1,1 L0,1 Z " fill="#CAD2D7" opacity="0.76862746" transform="translate(55,56)"/>
<path d="M0,0 L1,0 L1,1 L0,1 Z " fill="#BEC8CE" opacity="0.8784314" transform="translate(54,56)"/>
<path d="M0,0 L1,0 L1,1 L0,1 Z " fill="#CBD2D7" opacity="0.76862746" transform="translate(40,56)"/>
<path d="M0,0 L1,0 L1,1 L0,1 Z " fill="#CFD5DA" opacity="0.99215686" transform="translate(39,56)"/>
<path d="M0,0 L1,0 L1,1 L0,1 Z " fill="#CFD5DA" opacity="0.99215686" transform="translate(24,56)"/>
<path d="M0,0 L1,0 L1,1 L0,1 Z " fill="#CAD2D7" opacity="0.76862746" transform="translate(23,56)"/>
<path d="M0,0 L1,0 L1,1 L0,1 Z " fill="#BEC8CE" opacity="0.8784314" transform="translate(22,56)"/>
<path d="M0,0 L1,0 L1,1 L0,1 Z " fill="#CBD2D7" opacity="0.76862746" transform="translate(8,56)"/>
<path d="M0,0 L1,0 L1,1 L0,1 Z " fill="#CFD5DA" opacity="0.99215686" transform="translate(7,56)"/>
<path d="M0,0 L1,0 L1,1 L0,1 Z " fill="#CFD5DA" opacity="0.99215686" transform="translate(54,55)"/>
<path d="M0,0 L1,0 L1,1 L0,1 Z " fill="#CBD2D7" opacity="0.76862746" transform="translate(53,55)"/>
<path d="M0,0 L1,0 L1,1 L0,1 Z " fill="#BEC8CE" opacity="0.8784314" transform="translate(52,55)"/>
<path d="M0,0 L1,0 L1,1 L0,1 Z " fill="#CBD2D7" opacity="0.76862746" transform="translate(42,55)"/>
<path d="M0,0 L1,0 L1,1 L0,1 Z " fill="#CFD5DA" opacity="0.99215686" transform="translate(41,55)"/>
<path d="M0,0 L1,0 L1,1 L0,1 Z " fill="#CFD5DA" opacity="0.99215686" transform="translate(22,55)"/>
<path d="M0,0 L1,0 L1,1 L0,1 Z " fill="#CBD2D7" opacity="0.76862746" transform="translate(21,55)"/>
<path d="M0,0 L1,0 L1,1 L0,1 Z " fill="#BEC8CE" opacity="0.8784314" transform="translate(20,55)"/>
<path d="M0,0 L1,0 L1,1 L0,1 Z " fill="#CBD2D7" opacity="0.76862746" transform="translate(10,55)"/>
<path d="M0,0 L1,0 L1,1 L0,1 Z " fill="#CFD5DA" opacity="0.99215686" transform="translate(9,55)"/>
<path d="M0,0 L1,0 L1,1 L0,1 Z " fill="#CFD5DA" opacity="0.99215686" transform="translate(52,54)"/>
<path d="M0,0 L1,0 L1,1 L0,1 Z " fill="#CCD2D7" opacity="0.77254903" transform="translate(51,54)"/>
<path d="M0,0 L1,0 L1,1 L0,1 Z " fill="#BEC7CE" opacity="0.8745098" transform="translate(50,54)"/>
<path d="M0,0 L1,0 L1,1 L0,1 Z " fill="#CBD2D7" opacity="0.76862746" transform="translate(44,54)"/>
<path d="M0,0 L1,0 L1,1 L0,1 Z " fill="#CFD5DA" opacity="0.99215686" transform="translate(43,54)"/>
<path d="M0,0 L1,0 L1,1 L0,1 Z " fill="#CFD5DA" opacity="0.99215686" transform="translate(20,54)"/>
<path d="M0,0 L1,0 L1,1 L0,1 Z " fill="#CCD2D7" opacity="0.77254903" transform="translate(19,54)"/>
<path d="M0,0 L1,0 L1,1 L0,1 Z " fill="#BEC7CE" opacity="0.8745098" transform="translate(18,54)"/>
<path d="M0,0 L1,0 L1,1 L0,1 Z " fill="#CBD2D7" opacity="0.76862746" transform="translate(12,54)"/>
<path d="M0,0 L1,0 L1,1 L0,1 Z " fill="#CFD5DA" opacity="0.99215686" transform="translate(11,54)"/>
<path d="M0,0 L1,0 L1,1 L0,1 Z " fill="#CFD5DA" opacity="0.99215686" transform="translate(50,53)"/>
<path d="M0,0 L1,0 L1,1 L0,1 Z " fill="#CBD2D7" opacity="0.76862746" transform="translate(49,53)"/>
<path d="M0,0 L1,0 L1,1 L0,1 Z " fill="#BEC7CE" opacity="0.8745098" transform="translate(48,53)"/>
<path d="M0,0 L1,0 L1,1 L0,1 Z " fill="#CBD2D7" opacity="0.76862746" transform="translate(46,53)"/>
<path d="M0,0 L1,0 L1,1 L0,1 Z " fill="#CFD5DA" opacity="0.99215686" transform="translate(45,53)"/>
<path d="M0,0 L1,0 L1,1 L0,1 Z " fill="#CFD5DA" opacity="0.99215686" transform="translate(18,53)"/>
<path d="M0,0 L1,0 L1,1 L0,1 Z " fill="#CBD2D7" opacity="0.76862746" transform="translate(17,53)"/>
<path d="M0,0 L1,0 L1,1 L0,1 Z " fill="#BEC7CE" opacity="0.8745098" transform="translate(16,53)"/>
<path d="M0,0 L1,0 L1,1 L0,1 Z " fill="#CBD2D7" opacity="0.76862746" transform="translate(14,53)"/>
<path d="M0,0 L1,0 L1,1 L0,1 Z " fill="#CFD5DA" opacity="0.99215686" transform="translate(13,53)"/>
<path d="M0,0 L1,0 L1,1 L0,1 Z " fill="#CBD2D8" transform="translate(56,47)"/>
<path d="M0,0 L1,0 L1,1 L0,1 Z " fill="#C0C8CE" transform="translate(55,47)"/>
<path d="M0,0 L1,0 L1,1 L0,1 Z " fill="#C0C9CF" transform="translate(53,47)"/>
<path d="M0,0 L1,0 L1,1 L0,1 Z " fill="#CCD2D7" transform="translate(52,47)"/>
<path d="M0,0 L1,0 L1,1 L0,1 Z " fill="#CBD2D7" transform="translate(57,46)"/>
<path d="M0,0 L1,0 L1,1 L0,1 Z " fill="#BCC5CC" transform="translate(56,46)"/>
<path d="M0,0 L1,0 L1,1 L0,1 Z " fill="#BCC5CC" transform="translate(52,46)"/>
<path d="M0,0 L1,0 L1,1 L0,1 Z " fill="#CBD1D7" transform="translate(51,46)"/>
<path d="M0,0 L1,0 L1,1 L0,1 Z " fill="#CDD4D9" transform="translate(58,45)"/>
<path d="M0,0 L1,0 L1,1 L0,1 Z " fill="#BDC5CD" transform="translate(57,45)"/>
<path d="M0,0 L1,0 L1,1 L0,1 Z " fill="#BDC5CC" transform="translate(51,45)"/>
<path d="M0,0 L1,0 L1,1 L0,1 Z " fill="#CDD3D9" transform="translate(50,45)"/>
<path d="M0,0 L1,0 L1,1 L0,1 Z " fill="#C1CAD0" transform="translate(43,44)"/>
<path d="M0,0 L1,0 L1,1 L0,1 Z " fill="#CED5DA" transform="translate(42,44)"/>
<path d="M0,0 L1,0 L1,1 L0,1 Z " fill="#C1C9D0" transform="translate(42,43)"/>
<path d="M0,0 L1,0 L1,1 L0,1 Z " fill="#CED4D9" transform="translate(58,42)"/>
<path d="M0,0 L1,0 L1,1 L0,1 Z " fill="#BDC6CC" transform="translate(51,42)"/>
<path d="M0,0 L1,0 L1,1 L0,1 Z " fill="#CDD4D8" transform="translate(50,42)"/>
<path d="M0,0 L1,0 L1,1 L0,1 Z " fill="#CFD5D9" transform="translate(41,42)"/>
<path d="M0,0 L1,0 L1,1 L0,1 Z " fill="#CDD3D8" transform="translate(57,41)"/>
<path d="M0,0 L1,0 L1,1 L0,1 Z " fill="#BDC5CC" transform="translate(52,41)"/>
<path d="M0,0 L1,0 L1,1 L0,1 Z " fill="#C3CCD1" transform="translate(46,41)"/>
<path d="M0,0 L1,0 L1,1 L0,1 Z " fill="#C1C9D0" transform="translate(42,41)"/>
<path d="M0,0 L1,0 L1,1 L0,1 Z " fill="#CCD2D8" transform="translate(56,40)"/>
<path d="M0,0 L1,0 L1,1 L0,1 Z " fill="#C1C9CF" transform="translate(55,40)"/>
<path d="M0,0 L1,0 L1,1 L0,1 Z " fill="#C0C8CF" transform="translate(53,40)"/>
<path d="M0,0 L1,0 L1,1 L0,1 Z " fill="#CED5DA" transform="translate(46,40)"/>
<path d="M0,0 L1,0 L1,1 L0,1 Z " fill="#C3CBD1" transform="translate(45,40)"/>
<path d="M0,0 L1,0 L1,1 L0,1 Z " fill="#C2CAD0" transform="translate(43,40)"/>
<path d="M0,0 L1,0 L1,1 L0,1 Z " fill="#CED4DA" transform="translate(42,40)"/>
<path d="M0,0 L1,0 L1,1 L0,1 Z " fill="#CFD5DA" transform="translate(0,40)"/>
<path d="M0,0 L1,0 L1,1 L0,1 Z " fill="#C2CBD1" opacity="0.81960785" transform="translate(62,39)"/>
<path d="M0,0 L1,0 L1,1 L0,1 Z " fill="#C2CBD1" opacity="0.81960785" transform="translate(33,39)"/>
<path d="M0,0 L1,0 L1,1 L0,1 Z " fill="#A9B4BD" opacity="0.8156863" transform="translate(32,39)"/>
<path d="M0,0 L1,0 L1,1 L0,1 Z " fill="#C2CBD1" opacity="0.81960785" transform="translate(30,39)"/>
<path d="M0,0 L1,0 L1,1 L0,1 Z " fill="#C2CBD1" opacity="0.81960785" transform="translate(1,39)"/>
<path d="M0,0 L1,0 L1,1 L0,1 Z " fill="#A9B4BD" opacity="0.8156863" transform="translate(0,39)"/>
<path d="M0,0 L1,0 L1,1 L0,1 Z " fill="#A8B4BD" opacity="0.8117647" transform="translate(61,38)"/>
<path d="M0,0 L1,0 L1,1 L0,1 Z " fill="#C4CBD1" opacity="0.8235294" transform="translate(60,38)"/>
<path d="M0,0 L1,0 L1,1 L0,1 Z " fill="#C2CBD1" opacity="0.81960785" transform="translate(35,38)"/>
<path d="M0,0 L1,0 L1,1 L0,1 Z " fill="#A8B4BD" opacity="0.8117647" transform="translate(34,38)"/>
<path d="M0,0 L1,0 L1,1 L0,1 Z " fill="#A8B4BD" opacity="0.8117647" transform="translate(29,38)"/>
<path d="M0,0 L1,0 L1,1 L0,1 Z " fill="#C4CBD1" opacity="0.8235294" transform="translate(28,38)"/>
<path d="M0,0 L1,0 L1,1 L0,1 Z " fill="#C2CBD1" opacity="0.81960785" transform="translate(3,38)"/>
<path d="M0,0 L1,0 L1,1 L0,1 Z " fill="#A8B4BD" opacity="0.8117647" transform="translate(2,38)"/>
<path d="M0,0 L1,0 L1,1 L0,1 Z " fill="#C3CAD1" opacity="0.827451" transform="translate(58,37)"/>
<path d="M0,0 L1,0 L1,1 L0,1 Z " fill="#C4CBD1" opacity="0.8235294" transform="translate(37,37)"/>
<path d="M0,0 L1,0 L1,1 L0,1 Z " fill="#AAB5BE" opacity="0.80784315" transform="translate(36,37)"/>
<path d="M0,0 L1,0 L1,1 L0,1 Z " fill="#C3CAD1" opacity="0.827451" transform="translate(26,37)"/>
<path d="M0,0 L1,0 L1,1 L0,1 Z " fill="#C4CBD1" opacity="0.8235294" transform="translate(5,37)"/>
<path d="M0,0 L1,0 L1,1 L0,1 Z " fill="#AAB5BE" opacity="0.80784315" transform="translate(4,37)"/>
<path d="M0,0 L1,0 L1,1 L0,1 Z " fill="#A9B6BD" opacity="0.8039216" transform="translate(57,36)"/>
<path d="M0,0 L1,0 L1,1 L0,1 Z " fill="#C3CCD2" opacity="0.83137256" transform="translate(56,36)"/>
<path d="M0,0 L1,0 L1,1 L0,1 Z " fill="#C3CAD1" opacity="0.827451" transform="translate(39,36)"/>
<path d="M0,0 L1,0 L1,1 L0,1 Z " fill="#A9B5BE" opacity="0.80784315" transform="translate(38,36)"/>
<path d="M0,0 L1,0 L1,1 L0,1 Z " fill="#A9B6BD" opacity="0.8039216" transform="translate(25,36)"/>
<path d="M0,0 L1,0 L1,1 L0,1 Z " fill="#C3CCD2" opacity="0.83137256" transform="translate(24,36)"/>
<path d="M0,0 L1,0 L1,1 L0,1 Z " fill="#C3CAD1" opacity="0.827451" transform="translate(7,36)"/>
<path d="M0,0 L1,0 L1,1 L0,1 Z " fill="#A9B5BE" opacity="0.80784315" transform="translate(6,36)"/>
<path d="M0,0 L1,0 L1,1 L0,1 Z " fill="#A6B2BB" transform="translate(0,36)"/>
<path d="M0,0 L1,0 L1,1 L0,1 Z " fill="#A7B2BC" opacity="0.81960785" transform="translate(62,35)"/>
<path d="M0,0 L1,0 L1,1 L0,1 Z " fill="#A9B5BE" opacity="0.8" transform="translate(55,35)"/>
<path d="M0,0 L1,0 L1,1 L0,1 Z " fill="#C3CCD2" opacity="0.8352941" transform="translate(54,35)"/>
<path d="M0,0 L1,0 L1,1 L0,1 Z " fill="#C4CDD3" opacity="0.827451" transform="translate(41,35)"/>
<path d="M0,0 L1,0 L1,1 L0,1 Z " fill="#A9B6BD" opacity="0.8039216" transform="translate(40,35)"/>
<path d="M0,0 L1,0 L1,1 L0,1 Z " fill="#A7B2BC" opacity="0.81960785" transform="translate(33,35)"/>
<path d="M0,0 L1,0 L1,1 L0,1 Z " fill="#B3BDC7" opacity="0.8156863" transform="translate(32,35)"/>
<path d="M0,0 L1,0 L1,1 L0,1 Z " fill="#A7B2BC" opacity="0.81960785" transform="translate(30,35)"/>
<path d="M0,0 L1,0 L1,1 L0,1 Z " fill="#A9B5BE" opacity="0.8" transform="translate(23,35)"/>
<path d="M0,0 L1,0 L1,1 L0,1 Z " fill="#C3CCD2" opacity="0.8352941" transform="translate(22,35)"/>
<path d="M0,0 L1,0 L1,1 L0,1 Z " fill="#C4CDD3" opacity="0.827451" transform="translate(9,35)"/>
<path d="M0,0 L1,0 L1,1 L0,1 Z " fill="#A9B6BD" opacity="0.8039216" transform="translate(8,35)"/>
<path d="M0,0 L1,0 L1,1 L0,1 Z " fill="#B3BDC7" opacity="0.8156863" transform="translate(0,35)"/>
<path d="M0,0 L1,0 L1,1 L0,1 Z " fill="#A7B3BB" opacity="0.8235294" transform="translate(60,34)"/>
<path d="M0,0 L1,0 L1,1 L0,1 Z " fill="#AAB6BE" opacity="0.79607844" transform="translate(53,34)"/>
<path d="M0,0 L1,0 L1,1 L0,1 Z " fill="#C4CCD2" opacity="0.8392157" transform="translate(52,34)"/>
<path d="M0,0 L1,0 L1,1 L0,1 Z " fill="#C3CCD2" opacity="0.83137256" transform="translate(43,34)"/>
<path d="M0,0 L1,0 L1,1 L0,1 Z " fill="#AAB5BE" opacity="0.8" transform="translate(42,34)"/>
<path d="M0,0 L1,0 L1,1 L0,1 Z " fill="#B4BEC5" opacity="0.8117647" transform="translate(34,34)"/>
<path d="M0,0 L1,0 L1,1 L0,1 Z " fill="#A7B3BB" opacity="0.8235294" transform="translate(28,34)"/>
<path d="M0,0 L1,0 L1,1 L0,1 Z " fill="#AAB6BE" opacity="0.79607844" transform="translate(21,34)"/>
<path d="M0,0 L1,0 L1,1 L0,1 Z " fill="#C4CCD2" opacity="0.8392157" transform="translate(20,34)"/>
<path d="M0,0 L1,0 L1,1 L0,1 Z " fill="#C3CCD2" opacity="0.83137256" transform="translate(11,34)"/>
<path d="M0,0 L1,0 L1,1 L0,1 Z " fill="#AAB5BE" opacity="0.8" transform="translate(10,34)"/>
<path d="M0,0 L1,0 L1,1 L0,1 Z " fill="#B4BEC5" opacity="0.8117647" transform="translate(2,34)"/>
<path d="M0,0 L1,0 L1,1 L0,1 Z " fill="#A7B3BC" opacity="0.827451" transform="translate(58,33)"/>
<path d="M0,0 L1,0 L1,1 L0,1 Z " fill="#BCC5CD" opacity="0.7764706" transform="translate(50,33)"/>
<path d="M0,0 L1,0 L1,1 L0,1 Z " fill="#CBD2D8" opacity="0.94509804" transform="translate(49,33)"/>
<path d="M0,0 L1,0 L1,1 L0,1 Z " fill="#CBD2D8" opacity="0.94509804" transform="translate(46,33)"/>
<path d="M0,0 L1,0 L1,1 L0,1 Z " fill="#AAB5BE" opacity="0.80784315" transform="translate(44,33)"/>
<path d="M0,0 L1,0 L1,1 L0,1 Z " fill="#B4BEC6" opacity="0.80784315" transform="translate(36,33)"/>
<path d="M0,0 L1,0 L1,1 L0,1 Z " fill="#A7B3BC" opacity="0.827451" transform="translate(26,33)"/>
<path d="M0,0 L1,0 L1,1 L0,1 Z " fill="#BCC5CD" opacity="0.7764706" transform="translate(18,33)"/>
<path d="M0,0 L1,0 L1,1 L0,1 Z " fill="#CBD2D8" opacity="0.94509804" transform="translate(17,33)"/>
<path d="M0,0 L1,0 L1,1 L0,1 Z " fill="#CBD2D8" opacity="0.94509804" transform="translate(14,33)"/>
<path d="M0,0 L1,0 L1,1 L0,1 Z " fill="#AAB5BE" opacity="0.80784315" transform="translate(12,33)"/>
<path d="M0,0 L1,0 L1,1 L0,1 Z " fill="#B4BEC6" opacity="0.80784315" transform="translate(4,33)"/>
<path d="M0,0 L1,0 L1,1 L0,1 Z " fill="#A7B2BB" opacity="0.83137256" transform="translate(56,32)"/>
<path d="M0,0 L1,0 L1,1 L0,1 Z " fill="#B4BEC5" opacity="0.80784315" transform="translate(38,32)"/>
<path d="M0,0 L1,0 L1,1 L0,1 Z " fill="#A7B2BB" opacity="0.83137256" transform="translate(24,32)"/>
<path d="M0,0 L1,0 L1,1 L0,1 Z " fill="#B4BEC5" opacity="0.80784315" transform="translate(6,32)"/>
<path d="M0,0 L1,0 L1,1 L0,1 Z " fill="#B3BDC6" opacity="0.8" transform="translate(55,31)"/>
<path d="M0,0 L1,0 L1,1 L0,1 Z " fill="#A5B3BB" opacity="0.8352941" transform="translate(54,31)"/>
<path d="M0,0 L1,0 L1,1 L0,1 Z " fill="#B3BDC5" opacity="0.8039216" transform="translate(40,31)"/>
<path d="M0,0 L1,0 L1,1 L0,1 Z " fill="#B3BDC6" opacity="0.8" transform="translate(23,31)"/>
<path d="M0,0 L1,0 L1,1 L0,1 Z " fill="#A5B3BB" opacity="0.8352941" transform="translate(22,31)"/>
<path d="M0,0 L1,0 L1,1 L0,1 Z " fill="#B3BDC5" opacity="0.8039216" transform="translate(8,31)"/>
<path d="M0,0 L1,0 L1,1 L0,1 Z " fill="#B4BDC5" opacity="0.79607844" transform="translate(53,30)"/>
<path d="M0,0 L1,0 L1,1 L0,1 Z " fill="#A7B2BB" opacity="0.8392157" transform="translate(52,30)"/>
<path d="M0,0 L1,0 L1,1 L0,1 Z " fill="#B4BEC6" opacity="0.8" transform="translate(42,30)"/>
<path d="M0,0 L1,0 L1,1 L0,1 Z " fill="#B4BDC5" opacity="0.79607844" transform="translate(21,30)"/>
<path d="M0,0 L1,0 L1,1 L0,1 Z " fill="#A7B2BB" opacity="0.8392157" transform="translate(20,30)"/>
<path d="M0,0 L1,0 L1,1 L0,1 Z " fill="#B4BEC6" opacity="0.8" transform="translate(10,30)"/>
<path d="M0,0 L1,0 L1,1 L0,1 Z " fill="#AAB6BE" opacity="0.7764706" transform="translate(50,29)"/>
<path d="M0,0 L1,0 L1,1 L0,1 Z " fill="#A5B1BA" opacity="0.94509804" transform="translate(49,29)"/>
<path d="M0,0 L1,0 L1,1 L0,1 Z " fill="#A5B1BA" opacity="0.94509804" transform="translate(46,29)"/>
<path d="M0,0 L1,0 L1,1 L0,1 Z " fill="#B4BEC6" opacity="0.80784315" transform="translate(44,29)"/>
<path d="M0,0 L1,0 L1,1 L0,1 Z " fill="#AAB6BE" opacity="0.7764706" transform="translate(18,29)"/>
<path d="M0,0 L1,0 L1,1 L0,1 Z " fill="#A5B1BA" opacity="0.94509804" transform="translate(17,29)"/>
<path d="M0,0 L1,0 L1,1 L0,1 Z " fill="#A5B1BA" opacity="0.94509804" transform="translate(14,29)"/>
<path d="M0,0 L1,0 L1,1 L0,1 Z " fill="#B4BEC6" opacity="0.80784315" transform="translate(12,29)"/>
<path d="M0,0 L1,0 L1,1 L0,1 Z " fill="#B4BEC5" transform="translate(15,26)"/>
<path d="M0,0 L1,0 L1,1 L0,1 Z " fill="#B7C1C8" transform="translate(14,26)"/>
<path d="M0,0 L1,0 L1,1 L0,1 Z " fill="#B9C2C9" transform="translate(17,25)"/>
<path d="M0,0 L1,0 L1,1 L0,1 Z " fill="#A9B5BE" transform="translate(16,25)"/>
<path d="M0,0 L1,0 L1,1 L0,1 Z " fill="#A6B3BB" transform="translate(14,25)"/>
<path d="M0,0 L1,0 L1,1 L0,1 Z " fill="#B6BFC6" transform="translate(13,25)"/>
<path d="M0,0 L1,0 L1,1 L0,1 Z " fill="#BBC4CB" transform="translate(0,25)"/>
<path d="M0,0 L1,0 L1,1 L0,1 Z " fill="#BDC4CD" opacity="0.94509804" transform="translate(35,24)"/>
<path d="M0,0 L1,0 L1,1 L0,1 Z " fill="#C6CCD3" opacity="0.7647059" transform="translate(34,24)"/>
<path d="M0,0 L1,0 L1,1 L0,1 Z " fill="#CCD2D8" opacity="0.78039217" transform="translate(33,24)"/>
<path d="M0,0 L1,0 L1,1 L0,1 Z " fill="#CDD4D9" opacity="0.8352941" transform="translate(31,24)"/>
<path d="M0,0 L1,0 L1,1 L0,1 Z " fill="#C4CED3" opacity="0.7647059" transform="translate(29,24)"/>
<path d="M0,0 L1,0 L1,1 L0,1 Z " fill="#BCC6CC" opacity="0.9490196" transform="translate(28,24)"/>
<path d="M0,0 L1,0 L1,1 L0,1 Z " fill="#A7B3BC" transform="translate(13,24)"/>
<path d="M0,0 L1,0 L1,1 L0,1 Z " fill="#BDC4CD" opacity="0.94509804" transform="translate(3,24)"/>
<path d="M0,0 L1,0 L1,1 L0,1 Z " fill="#C6CCD3" opacity="0.7647059" transform="translate(2,24)"/>
<path d="M0,0 L1,0 L1,1 L0,1 Z " fill="#CDD4D9" opacity="0.85882354" transform="translate(0,24)"/>
<path d="M0,0 L1,0 L1,1 L0,1 Z " fill="#C2A699" opacity="0.7372549" transform="translate(59,23)"/>
<path d="M0,0 L1,0 L1,1 L0,1 Z " fill="#BCC5CC" opacity="0.93333334" transform="translate(58,23)"/>
<path d="M0,0 L1,0 L1,1 L0,1 Z " fill="#BDC5CD" opacity="0.92156863" transform="translate(37,23)"/>
<path d="M0,0 L1,0 L1,1 L0,1 Z " fill="#CAD1D6" opacity="0.7529412" transform="translate(36,23)"/>
<path d="M0,0 L1,0 L1,1 L0,1 Z " fill="#CFD5DA" opacity="0.9647059" transform="translate(35,23)"/>
<path d="M0,0 L1,0 L1,1 L0,1 Z " fill="#C9D0D5" opacity="0.7529412" transform="translate(27,23)"/>
<path d="M0,0 L1,0 L1,1 L0,1 Z " fill="#BDC6CC" opacity="0.92941177" transform="translate(26,23)"/>
<path d="M0,0 L1,0 L1,1 L0,1 Z " fill="#ABB7BE" transform="translate(17,23)"/>
<path d="M0,0 L1,0 L1,1 L0,1 Z " fill="#B9C2CA" transform="translate(12,23)"/>
<path d="M0,0 L1,0 L1,1 L0,1 Z " fill="#BDC5CD" opacity="0.92156863" transform="translate(5,23)"/>
<path d="M0,0 L1,0 L1,1 L0,1 Z " fill="#CAD1D6" opacity="0.7529412" transform="translate(4,23)"/>
<path d="M0,0 L1,0 L1,1 L0,1 Z " fill="#CFD5DA" opacity="0.9647059" transform="translate(3,23)"/>
<path d="M0,0 L1,0 L1,1 L0,1 Z " fill="#CBAEA2" opacity="0.7411765" transform="translate(58,22)"/>
<path d="M0,0 L1,0 L1,1 L0,1 Z " fill="#C9D1D5" opacity="0.7529412" transform="translate(57,22)"/>
<path d="M0,0 L1,0 L1,1 L0,1 Z " fill="#BCC5CC" opacity="0.93333334" transform="translate(56,22)"/>
<path d="M0,0 L1,0 L1,1 L0,1 Z " fill="#BDC5CD" opacity="0.92156863" transform="translate(39,22)"/>
<path d="M0,0 L1,0 L1,1 L0,1 Z " fill="#CAD1D6" opacity="0.7529412" transform="translate(38,22)"/>
<path d="M0,0 L1,0 L1,1 L0,1 Z " fill="#CFD5DA" opacity="0.9647059" transform="translate(37,22)"/>
<path d="M0,0 L1,0 L1,1 L0,1 Z " fill="#C9D0D6" opacity="0.7529412" transform="translate(25,22)"/>
<path d="M0,0 L1,0 L1,1 L0,1 Z " fill="#BDC6CC" opacity="0.92941177" transform="translate(24,22)"/>
<path d="M0,0 L1,0 L1,1 L0,1 Z " fill="#B7C0C7" transform="translate(17,22)"/>
<path d="M0,0 L1,0 L1,1 L0,1 Z " fill="#A6B3BB" transform="translate(16,22)"/>
<path d="M0,0 L1,0 L1,1 L0,1 Z " fill="#B2BCC4" transform="translate(13,22)"/>
<path d="M0,0 L1,0 L1,1 L0,1 Z " fill="#BDC5CD" opacity="0.92156863" transform="translate(7,22)"/>
<path d="M0,0 L1,0 L1,1 L0,1 Z " fill="#CAD1D6" opacity="0.7529412" transform="translate(6,22)"/>
<path d="M0,0 L1,0 L1,1 L0,1 Z " fill="#CFD5DA" opacity="0.9647059" transform="translate(5,22)"/>
<path d="M0,0 L1,0 L1,1 L0,1 Z " fill="#C9D0D6" opacity="0.7529412" transform="translate(55,21)"/>
<path d="M0,0 L1,0 L1,1 L0,1 Z " fill="#BDC6CC" opacity="0.92941177" transform="translate(54,21)"/>
<path d="M0,0 L1,0 L1,1 L0,1 Z " fill="#BDC5CD" opacity="0.92156863" transform="translate(41,21)"/>
<path d="M0,0 L1,0 L1,1 L0,1 Z " fill="#CAD1D6" opacity="0.7529412" transform="translate(40,21)"/>
<path d="M0,0 L1,0 L1,1 L0,1 Z " fill="#CFD5DA" opacity="0.9647059" transform="translate(39,21)"/>
<path d="M0,0 L1,0 L1,1 L0,1 Z " fill="#C9D0D6" opacity="0.7529412" transform="translate(23,21)"/>
<path d="M0,0 L1,0 L1,1 L0,1 Z " fill="#BDC6CD" opacity="0.9254902" transform="translate(22,21)"/>
<path d="M0,0 L1,0 L1,1 L0,1 Z " fill="#B7C1C8" transform="translate(16,21)"/>
<path d="M0,0 L1,0 L1,1 L0,1 Z " fill="#B6BFC6" transform="translate(14,21)"/>
<path d="M0,0 L1,0 L1,1 L0,1 Z " fill="#BDC5CD" opacity="0.92156863" transform="translate(9,21)"/>
<path d="M0,0 L1,0 L1,1 L0,1 Z " fill="#CAD1D6" opacity="0.7529412" transform="translate(8,21)"/>
<path d="M0,0 L1,0 L1,1 L0,1 Z " fill="#CFD5DA" opacity="0.9647059" transform="translate(7,21)"/>
<path d="M0,0 L1,0 L1,1 L0,1 Z " fill="#CFD5DA" transform="translate(0,21)"/>
<path d="M0,0 L1,0 L1,1 L0,1 Z " fill="#C9D0D6" opacity="0.7529412" transform="translate(53,20)"/>
<path d="M0,0 L1,0 L1,1 L0,1 Z " fill="#BDC6CD" opacity="0.9254902" transform="translate(52,20)"/>
<path d="M0,0 L1,0 L1,1 L0,1 Z " fill="#BDC5CD" opacity="0.92156863" transform="translate(43,20)"/>
<path d="M0,0 L1,0 L1,1 L0,1 Z " fill="#CAD1D6" opacity="0.7529412" transform="translate(42,20)"/>
<path d="M0,0 L1,0 L1,1 L0,1 Z " fill="#CFD5DA" opacity="0.9647059" transform="translate(41,20)"/>
<path d="M0,0 L1,0 L1,1 L0,1 Z " fill="#CBD2D8" opacity="0.94509804" transform="translate(35,20)"/>
<path d="M0,0 L1,0 L1,1 L0,1 Z " fill="#BAC2CA" opacity="0.7647059" transform="translate(34,20)"/>
<path d="M0,0 L1,0 L1,1 L0,1 Z " fill="#ACB6BF" opacity="0.78039217" transform="translate(33,20)"/>
<path d="M0,0 L1,0 L1,1 L0,1 Z " fill="#A7B4BC" opacity="0.8352941" transform="translate(31,20)"/>
<path d="M0,0 L1,0 L1,1 L0,1 Z " fill="#B9C3CA" opacity="0.7647059" transform="translate(29,20)"/>
<path d="M0,0 L1,0 L1,1 L0,1 Z " fill="#CDD4D7" opacity="0.9490196" transform="translate(28,20)"/>
<path d="M0,0 L1,0 L1,1 L0,1 Z " fill="#C9D0D6" opacity="0.7529412" transform="translate(21,20)"/>
<path d="M0,0 L1,0 L1,1 L0,1 Z " fill="#BDC6CD" opacity="0.9254902" transform="translate(20,20)"/>
<path d="M0,0 L1,0 L1,1 L0,1 Z " fill="#BDC5CD" opacity="0.92156863" transform="translate(11,20)"/>
<path d="M0,0 L1,0 L1,1 L0,1 Z " fill="#CAD1D6" opacity="0.7529412" transform="translate(10,20)"/>
<path d="M0,0 L1,0 L1,1 L0,1 Z " fill="#CFD5DA" opacity="0.9647059" transform="translate(9,20)"/>
<path d="M0,0 L1,0 L1,1 L0,1 Z " fill="#CBD2D8" opacity="0.94509804" transform="translate(3,20)"/>
<path d="M0,0 L1,0 L1,1 L0,1 Z " fill="#BAC2CA" opacity="0.7647059" transform="translate(2,20)"/>
<path d="M0,0 L1,0 L1,1 L0,1 Z " fill="#A7B2BC" opacity="0.85882354" transform="translate(0,20)"/>
<path d="M0,0 L1,0 L1,1 L0,1 Z " fill="#CAD0D6" opacity="0.7529412" transform="translate(51,19)"/>
<path d="M0,0 L1,0 L1,1 L0,1 Z " fill="#BDC6CD" opacity="0.9254902" transform="translate(50,19)"/>
<path d="M0,0 L1,0 L1,1 L0,1 Z " fill="#BDC5CD" opacity="0.92156863" transform="translate(45,19)"/>
<path d="M0,0 L1,0 L1,1 L0,1 Z " fill="#CAD1D6" opacity="0.7529412" transform="translate(44,19)"/>
<path d="M0,0 L1,0 L1,1 L0,1 Z " fill="#CFD5DA" opacity="0.9647059" transform="translate(43,19)"/>
<path d="M0,0 L1,0 L1,1 L0,1 Z " fill="#CBD2D8" opacity="0.92156863" transform="translate(37,19)"/>
<path d="M0,0 L1,0 L1,1 L0,1 Z " fill="#B1BCC4" opacity="0.7529412" transform="translate(36,19)"/>
<path d="M0,0 L1,0 L1,1 L0,1 Z " fill="#A6B1BB" opacity="0.9647059" transform="translate(35,19)"/>
<path d="M0,0 L1,0 L1,1 L0,1 Z " fill="#B1BCC5" opacity="0.7529412" transform="translate(27,19)"/>
<path d="M0,0 L1,0 L1,1 L0,1 Z " fill="#CCD2D8" opacity="0.92941177" transform="translate(26,19)"/>
<path d="M0,0 L1,0 L1,1 L0,1 Z " fill="#CAD1D6" opacity="0.7529412" transform="translate(19,19)"/>
<path d="M0,0 L1,0 L1,1 L0,1 Z " fill="#BDC5CD" opacity="0.92156863" transform="translate(18,19)"/>
<path d="M0,0 L1,0 L1,1 L0,1 Z " fill="#BDC5CD" opacity="0.92156863" transform="translate(13,19)"/>
<path d="M0,0 L1,0 L1,1 L0,1 Z " fill="#CAD1D6" opacity="0.7529412" transform="translate(12,19)"/>
<path d="M0,0 L1,0 L1,1 L0,1 Z " fill="#CFD5DA" opacity="0.9647059" transform="translate(11,19)"/>
<path d="M0,0 L1,0 L1,1 L0,1 Z " fill="#CBD2D8" opacity="0.92156863" transform="translate(5,19)"/>
<path d="M0,0 L1,0 L1,1 L0,1 Z " fill="#B1BCC4" opacity="0.7529412" transform="translate(4,19)"/>
<path d="M0,0 L1,0 L1,1 L0,1 Z " fill="#A6B1BB" opacity="0.9647059" transform="translate(3,19)"/>
<path d="M0,0 L1,0 L1,1 L0,1 Z " fill="#CAD1D6" opacity="0.7529412" transform="translate(49,18)"/>
<path d="M0,0 L1,0 L1,1 L0,1 Z " fill="#CAD1D6" opacity="0.7529412" transform="translate(46,18)"/>
<path d="M0,0 L1,0 L1,1 L0,1 Z " fill="#CFD5DA" opacity="0.9647059" transform="translate(45,18)"/>
<path d="M0,0 L1,0 L1,1 L0,1 Z " fill="#CBD2D8" opacity="0.92156863" transform="translate(39,18)"/>
<path d="M0,0 L1,0 L1,1 L0,1 Z " fill="#B1BCC4" opacity="0.7529412" transform="translate(38,18)"/>
<path d="M0,0 L1,0 L1,1 L0,1 Z " fill="#A6B1BB" opacity="0.9647059" transform="translate(37,18)"/>
<path d="M0,0 L1,0 L1,1 L0,1 Z " fill="#B2BCC4" opacity="0.7529412" transform="translate(25,18)"/>
<path d="M0,0 L1,0 L1,1 L0,1 Z " fill="#CCD2D8" opacity="0.92941177" transform="translate(24,18)"/>
<path d="M0,0 L1,0 L1,1 L0,1 Z " fill="#CAD1D6" opacity="0.7529412" transform="translate(17,18)"/>
<path d="M0,0 L1,0 L1,1 L0,1 Z " fill="#CAD1D6" opacity="0.7529412" transform="translate(14,18)"/>
<path d="M0,0 L1,0 L1,1 L0,1 Z " fill="#CFD5DA" opacity="0.9647059" transform="translate(13,18)"/>
<path d="M0,0 L1,0 L1,1 L0,1 Z " fill="#CBD2D8" opacity="0.92156863" transform="translate(7,18)"/>
<path d="M0,0 L1,0 L1,1 L0,1 Z " fill="#B1BCC4" opacity="0.7529412" transform="translate(6,18)"/>
<path d="M0,0 L1,0 L1,1 L0,1 Z " fill="#A6B1BB" opacity="0.9647059" transform="translate(5,18)"/>
<path d="M0,0 L1,0 L1,1 L0,1 Z " fill="#CBD2D8" opacity="0.92156863" transform="translate(41,17)"/>
<path d="M0,0 L1,0 L1,1 L0,1 Z " fill="#B1BCC4" opacity="0.7529412" transform="translate(40,17)"/>
<path d="M0,0 L1,0 L1,1 L0,1 Z " fill="#A6B1BB" opacity="0.9647059" transform="translate(39,17)"/>
<path d="M0,0 L1,0 L1,1 L0,1 Z " fill="#B2BCC4" opacity="0.7529412" transform="translate(23,17)"/>
<path d="M0,0 L1,0 L1,1 L0,1 Z " fill="#CAD2D6" opacity="0.9254902" transform="translate(22,17)"/>
<path d="M0,0 L1,0 L1,1 L0,1 Z " fill="#CBD2D8" opacity="0.92156863" transform="translate(9,17)"/>
<path d="M0,0 L1,0 L1,1 L0,1 Z " fill="#B1BCC4" opacity="0.7529412" transform="translate(8,17)"/>
<path d="M0,0 L1,0 L1,1 L0,1 Z " fill="#A6B1BB" opacity="0.9647059" transform="translate(7,17)"/>
<path d="M0,0 L1,0 L1,1 L0,1 Z " fill="#CBD2D8" opacity="0.92156863" transform="translate(43,16)"/>
<path d="M0,0 L1,0 L1,1 L0,1 Z " fill="#B1BCC4" opacity="0.7529412" transform="translate(42,16)"/>
<path d="M0,0 L1,0 L1,1 L0,1 Z " fill="#A6B1BB" opacity="0.9647059" transform="translate(41,16)"/>
<path d="M0,0 L1,0 L1,1 L0,1 Z " fill="#B2BCC4" opacity="0.7529412" transform="translate(21,16)"/>
<path d="M0,0 L1,0 L1,1 L0,1 Z " fill="#CAD2D6" opacity="0.9254902" transform="translate(20,16)"/>
<path d="M0,0 L1,0 L1,1 L0,1 Z " fill="#CBD2D8" opacity="0.92156863" transform="translate(11,16)"/>
<path d="M0,0 L1,0 L1,1 L0,1 Z " fill="#B1BCC4" opacity="0.7529412" transform="translate(10,16)"/>
<path d="M0,0 L1,0 L1,1 L0,1 Z " fill="#A6B1BB" opacity="0.9647059" transform="translate(9,16)"/>
<path d="M0,0 L1,0 L1,1 L0,1 Z " fill="#C7AB9E" opacity="0.73333335" transform="translate(51,15)"/>
<path d="M0,0 L1,0 L1,1 L0,1 Z " fill="#CBD2D8" opacity="0.92156863" transform="translate(50,15)"/>
<path d="M0,0 L1,0 L1,1 L0,1 Z " fill="#CBD2D8" opacity="0.92156863" transform="translate(45,15)"/>
<path d="M0,0 L1,0 L1,1 L0,1 Z " fill="#B1BCC4" opacity="0.7529412" transform="translate(44,15)"/>
<path d="M0,0 L1,0 L1,1 L0,1 Z " fill="#A6B1BB" opacity="0.9647059" transform="translate(43,15)"/>
<path d="M0,0 L1,0 L1,1 L0,1 Z " fill="#B1BDC5" opacity="0.7529412" transform="translate(19,15)"/>
<path d="M0,0 L1,0 L1,1 L0,1 Z " fill="#CBD2D8" opacity="0.92156863" transform="translate(18,15)"/>
<path d="M0,0 L1,0 L1,1 L0,1 Z " fill="#CBD2D8" opacity="0.92156863" transform="translate(13,15)"/>
<path d="M0,0 L1,0 L1,1 L0,1 Z " fill="#B1BCC4" opacity="0.7529412" transform="translate(12,15)"/>
<path d="M0,0 L1,0 L1,1 L0,1 Z " fill="#A6B1BB" opacity="0.9647059" transform="translate(11,15)"/>
<path d="M0,0 L1,0 L1,1 L0,1 Z " fill="#B39890" opacity="0.74509805" transform="translate(50,14)"/>
<path d="M0,0 L1,0 L1,1 L0,1 Z " fill="#B1BCC4" opacity="0.7529412" transform="translate(49,14)"/>
<path d="M0,0 L1,0 L1,1 L0,1 Z " fill="#B1BCC4" opacity="0.7529412" transform="translate(46,14)"/>
<path d="M0,0 L1,0 L1,1 L0,1 Z " fill="#A6B1BB" opacity="0.9647059" transform="translate(45,14)"/>
<path d="M0,0 L1,0 L1,1 L0,1 Z " fill="#B1BCC4" opacity="0.7529412" transform="translate(17,14)"/>
<path d="M0,0 L1,0 L1,1 L0,1 Z " fill="#B1BCC4" opacity="0.7529412" transform="translate(14,14)"/>
<path d="M0,0 L1,0 L1,1 L0,1 Z " fill="#A6B1BB" opacity="0.9647059" transform="translate(13,14)"/>
<path d="M0,0 L1,0 L1,1 L0,1 Z " fill="#A6B2BB" transform="translate(0,11)"/>
<path d="M0,0 L1,0 L1,1 L0,1 Z " fill="#A6B1BB" opacity="0.8745098" transform="translate(33,10)"/>
<path d="M0,0 L1,0 L1,1 L0,1 Z " fill="#B0BCC3" opacity="0.76862746" transform="translate(31,10)"/>
<path d="M0,0 L1,0 L1,1 L0,1 Z " fill="#A7B3BB" opacity="0.8745098" transform="translate(30,10)"/>
<path d="M0,0 L1,0 L1,1 L0,1 Z " fill="#B0BCC2" opacity="0.77254903" transform="translate(0,10)"/>
<path d="M0,0 L1,0 L1,1 L0,1 Z " fill="#B2BCC2" opacity="0.77254903" transform="translate(34,9)"/>
<path d="M0,0 L1,0 L1,1 L0,1 Z " fill="#BBC3CA" opacity="0.99215686" transform="translate(33,9)"/>
<path d="M0,0 L1,0 L1,1 L0,1 Z " fill="#BBC3CA" opacity="0.99215686" transform="translate(30,9)"/>
<path d="M0,0 L1,0 L1,1 L0,1 Z " fill="#B1BAC5" opacity="0.76862746" transform="translate(29,9)"/>
<path d="M0,0 L1,0 L1,1 L0,1 Z " fill="#A6B2BB" opacity="0.88235295" transform="translate(28,9)"/>
<path d="M0,0 L1,0 L1,1 L0,1 Z " fill="#B1BCC3" opacity="0.76862746" transform="translate(2,9)"/>
<path d="M0,0 L1,0 L1,1 L0,1 Z " fill="#BBC3CA" opacity="0.99215686" transform="translate(1,9)"/>
<path d="M0,0 L1,0 L1,1 L0,1 Z " fill="#B0BBC4" opacity="0.77254903" transform="translate(36,8)"/>
<path d="M0,0 L1,0 L1,1 L0,1 Z " fill="#BBC3CA" opacity="0.99215686" transform="translate(28,8)"/>
<path d="M0,0 L1,0 L1,1 L0,1 Z " fill="#B0BCC2" opacity="0.76862746" transform="translate(27,8)"/>
<path d="M0,0 L1,0 L1,1 L0,1 Z " fill="#A6B2BB" opacity="0.88235295" transform="translate(26,8)"/>
<path d="M0,0 L1,0 L1,1 L0,1 Z " fill="#B0BCC3" opacity="0.76862746" transform="translate(4,8)"/>
<path d="M0,0 L1,0 L1,1 L0,1 Z " fill="#BBC3CA" opacity="0.99215686" transform="translate(3,8)"/>
<path d="M0,0 L1,0 L1,1 L0,1 Z " fill="#B2BCC4" opacity="0.77254903" transform="translate(38,7)"/>
<path d="M0,0 L1,0 L1,1 L0,1 Z " fill="#B1BBC4" opacity="0.7647059" transform="translate(25,7)"/>
<path d="M0,0 L1,0 L1,1 L0,1 Z " fill="#A6B2BB" opacity="0.8901961" transform="translate(24,7)"/>
<path d="M0,0 L1,0 L1,1 L0,1 Z " fill="#B0BCC2" opacity="0.76862746" transform="translate(6,7)"/>
<path d="M0,0 L1,0 L1,1 L0,1 Z " fill="#BAC3CA" opacity="0.9882353" transform="translate(5,7)"/>
<path d="M0,0 L1,0 L1,1 L0,1 Z " fill="#B2BCC4" opacity="0.77254903" transform="translate(40,6)"/>
<path d="M0,0 L1,0 L1,1 L0,1 Z " fill="#B1BAC3" opacity="0.7647059" transform="translate(23,6)"/>
<path d="M0,0 L1,0 L1,1 L0,1 Z " fill="#A6B2BB" opacity="0.89411765" transform="translate(22,6)"/>
<path d="M0,0 L1,0 L1,1 L0,1 Z " fill="#B1BAC3" opacity="0.7647059" transform="translate(8,6)"/>
<path d="M0,0 L1,0 L1,1 L0,1 Z " fill="#B9C4CB" opacity="0.9882353" transform="translate(7,6)"/>
<path d="M0,0 L1,0 L1,1 L0,1 Z " fill="#BDA69C" opacity="0.7529412" transform="translate(41,5)"/>
<path d="M0,0 L1,0 L1,1 L0,1 Z " fill="#BAC2CA" opacity="0.9843137" transform="translate(22,5)"/>
<path d="M0,0 L1,0 L1,1 L0,1 Z " fill="#AFBAC0" opacity="0.7647059" transform="translate(21,5)"/>
<path d="M0,0 L1,0 L1,1 L0,1 Z " fill="#A6B1BA" opacity="0.8980392" transform="translate(20,5)"/>
<path d="M0,0 L1,0 L1,1 L0,1 Z " fill="#B1BBC3" opacity="0.7647059" transform="translate(10,5)"/>
<path d="M0,0 L1,0 L1,1 L0,1 Z " fill="#B9C4CB" opacity="0.9882353" transform="translate(9,5)"/>
<path d="M0,0 L1,0 L1,1 L0,1 Z " fill="#BAC3CA" opacity="0.98039216" transform="translate(20,4)"/>
<path d="M0,0 L1,0 L1,1 L0,1 Z " fill="#A7B2BC" opacity="0.81960785" transform="translate(18,4)"/>
<path d="M0,0 L1,0 L1,1 L0,1 Z " fill="#B1BAC5" opacity="0.76862746" transform="translate(12,4)"/>
<path d="M0,0 L1,0 L1,1 L0,1 Z " fill="#BAC2CA" opacity="0.9843137" transform="translate(11,4)"/>
<path d="M0,0 L1,0 L1,1 L0,1 Z " fill="#B9C3CB" opacity="0.972549" transform="translate(17,3)"/>
<path d="M0,0 L1,0 L1,1 L0,1 Z " fill="#B7C2C8" opacity="0.8745098" transform="translate(15,3)"/>
<path d="M0,0 L1,0 L1,1 L0,1 Z " fill="#B9C3CB" opacity="0.972549" transform="translate(14,3)"/>
</svg>
