<?xml version="1.0" encoding="UTF-8"?>
<!-- Generator: visioncortex VTracer 0.6.4 -->
<svg version="1.1" xmlns="http://www.w3.org/2000/svg" width="64" height="64">
<path d="M0,0 L40,0 L40,1 L46,1 L46,2 L47,2 L47,3 L48,3 L48,4 L49,4 L49,5 L50,5 L50,7 L51,7 L51,11 L52,11 L52,64 L48,64 L48,63 L45,63 L45,64 L-5,64 L-5,63 L-8,63 L-8,64 L-12,64 L-12,11 L-11,11 L-11,7 L-10,7 L-10,5 L-9,5 L-9,4 L-8,4 L-8,3 L-7,3 L-7,2 L-6,2 L-6,1 L0,1 Z M-5,4 L-5,5 L-6,5 L-6,6 L-4,6 L-4,5 L0,5 L0,4 Z M40,4 L40,5 L44,5 L44,6 L46,6 L46,5 L45,5 L45,4 Z M-7,6 L-7,7 L-8,7 L-8,16 L-7,16 L-7,12 L-6,12 L-6,11 L-5,11 L-5,10 L-4,10 L-4,9 L0,9 L0,8 L-5,8 L-5,9 L-6,9 L-6,10 L-7,10 L-7,8 L-6,8 L-6,6 Z M46,6 L46,8 L47,8 L47,10 L46,10 L46,9 L45,9 L45,8 L40,8 L40,9 L44,9 L44,10 L45,10 L45,11 L46,11 L46,12 L47,12 L47,16 L48,16 L48,7 L47,7 L47,6 Z M3,16 L3,19 L4,19 L4,16 Z M36,16 L36,17 L35,17 L35,22 L34,22 L34,23 L32,23 L32,24 L35,24 L35,23 L37,23 L37,20 L40,20 L40,19 L37,19 L37,16 Z M0,19 L0,20 L3,20 L3,19 Z M3,20 L3,23 L0,23 L0,24 L4,24 L4,27 L5,27 L5,24 L8,24 L8,23 L5,23 L5,20 Z M37,23 L37,24 L40,24 L40,23 Z M35,24 L35,27 L36,27 L36,24 Z M5,27 L5,28 L8,28 L8,27 Z M32,27 L32,28 L35,28 L35,27 Z M-7,28 L-7,29 L-4,29 L-4,28 Z M0,28 L0,29 L3,29 L3,28 Z M-8,29 L-8,32 L-7,32 L-7,29 Z M3,29 L3,32 L4,32 L4,29 Z M21,31 L21,32 L24,32 L24,31 Z M36,31 L36,32 L39,32 L39,31 Z M20,32 L20,35 L21,35 L21,32 Z M39,32 L39,35 L40,35 L40,32 Z M-8,36 L-8,39 L-7,39 L-7,36 Z M3,36 L3,39 L4,39 L4,36 Z M-7,39 L-7,40 L-4,40 L-4,39 Z M0,39 L0,40 L3,40 L3,39 Z M1,44 L1,45 L4,45 L4,44 Z M12,44 L12,45 L15,45 L15,44 Z M0,45 L0,48 L1,48 L1,45 Z M15,45 L15,48 L16,48 L16,45 Z M20,45 L20,50 L21,50 L21,49 L24,49 L24,48 L21,48 L21,45 Z M39,45 L39,48 L36,48 L36,49 L39,49 L39,50 L40,50 L40,45 Z M-8,48 L-8,49 L-5,49 L-5,48 Z M45,48 L45,49 L48,49 L48,48 Z M-5,49 L-5,52 L-4,52 L-4,49 Z M44,49 L44,52 L45,52 L45,49 Z M21,50 L21,51 L24,51 L24,50 Z M36,50 L36,51 L39,51 L39,50 Z M0,56 L0,59 L1,59 L1,56 Z M15,56 L15,59 L16,59 L16,56 Z M-5,58 L-5,61 L-8,61 L-8,62 L-5,62 L-5,63 L-4,63 L-4,58 Z M44,58 L44,63 L45,63 L45,62 L48,62 L48,61 L45,61 L45,58 Z M1,59 L1,60 L4,60 L4,59 Z M12,59 L12,60 L15,60 L15,59 Z M36,19 L37,19 L37,20 L36,20 Z M4,23 L5,23 L5,24 L4,24 Z " fill="#BBC4CB" transform="translate(12,0)"/>
<path d="M0,0 L40,0 L40,1 L46,1 L46,2 L47,2 L47,3 L48,3 L48,4 L49,4 L49,5 L50,5 L50,7 L51,7 L51,11 L52,11 L52,64 L48,64 L48,24 L40,24 L40,23 L37,23 L37,20 L40,20 L40,19 L37,19 L37,16 L36,16 L36,17 L35,17 L35,22 L34,22 L34,23 L32,23 L32,24 L35,24 L35,27 L32,27 L32,28 L8,28 L8,27 L5,27 L5,24 L8,24 L8,23 L5,23 L5,20 L3,20 L3,23 L0,23 L0,24 L-8,24 L-8,64 L-12,64 L-12,11 L-11,11 L-11,7 L-10,7 L-10,5 L-9,5 L-9,4 L-8,4 L-8,3 L-7,3 L-7,2 L-6,2 L-6,1 L0,1 Z M-5,4 L-5,5 L-6,5 L-6,6 L-4,6 L-4,5 L0,5 L0,4 Z M40,4 L40,5 L44,5 L44,6 L46,6 L46,5 L45,5 L45,4 Z M-7,6 L-7,7 L-8,7 L-8,16 L-7,16 L-7,12 L-6,12 L-6,11 L-5,11 L-5,10 L-4,10 L-4,9 L0,9 L0,8 L-5,8 L-5,9 L-6,9 L-6,10 L-7,10 L-7,8 L-6,8 L-6,6 Z M46,6 L46,8 L47,8 L47,10 L46,10 L46,9 L45,9 L45,8 L40,8 L40,9 L44,9 L44,10 L45,10 L45,11 L46,11 L46,12 L47,12 L47,16 L48,16 L48,7 L47,7 L47,6 Z M3,16 L3,19 L4,19 L4,16 Z M0,19 L0,20 L3,20 L3,19 Z M36,19 L37,19 L37,20 L36,20 Z M4,23 L5,23 L5,24 L4,24 Z M35,23 L36,23 L36,24 L35,24 Z " fill="#353541" transform="translate(12,0)"/>
<path d="M0,0 L40,0 L40,1 L44,1 L44,2 L46,2 L46,4 L47,4 L47,6 L46,6 L46,5 L45,5 L45,4 L40,4 L40,5 L44,5 L44,6 L45,6 L45,7 L46,7 L46,8 L47,8 L47,12 L48,12 L48,16 L40,16 L40,15 L37,15 L37,12 L36,12 L36,4 L32,4 L32,20 L8,20 L8,4 L4,4 L4,12 L3,12 L3,15 L0,15 L0,16 L-8,16 L-8,12 L-7,12 L-7,8 L-6,8 L-6,7 L-5,7 L-5,6 L-4,6 L-4,5 L0,5 L0,4 L-5,4 L-5,5 L-6,5 L-6,6 L-7,6 L-7,4 L-6,4 L-6,2 L-4,2 L-4,1 L0,1 Z " fill="#5E5E6D" transform="translate(12,4)"/>
<path d="M0,0 L12,0 L12,1 L15,1 L15,4 L16,4 L16,14 L15,14 L15,17 L12,17 L12,18 L0,18 L0,17 L-3,17 L-3,14 L-4,14 L-4,4 L-3,4 L-3,1 L0,1 Z " fill="#CFD5DA" transform="translate(36,31)"/>
<path d="M0,0 L32,0 L32,4 L9,4 L9,5 L8,5 L8,4 L4,4 L4,12 L3,12 L3,15 L0,15 L0,16 L-8,16 L-8,12 L-7,12 L-7,8 L-6,8 L-6,7 L-5,7 L-5,6 L-4,6 L-4,5 L0,5 L0,4 L-5,4 L-5,5 L-6,5 L-6,6 L-7,6 L-7,4 L-6,4 L-6,2 L-4,2 L-4,1 L0,1 Z " fill="#5E5E6D" transform="translate(12,4)"/>
<path d="M0,0 L4,0 L4,15 L1,15 L1,12 L0,12 Z M28,0 L32,0 L32,9 L31,9 L31,14 L30,14 L30,15 L28,15 Z M0,15 L1,15 L1,16 L0,16 Z M31,15 L32,15 L32,16 L31,16 Z M1,16 L31,16 L31,19 L28,19 L28,20 L4,20 L4,19 L1,19 Z " fill="#383848" transform="translate(16,8)"/>
<path d="M0,0 L8,0 L8,1 L11,1 L11,4 L12,4 L12,12 L11,12 L11,15 L8,15 L8,16 L0,16 L0,15 L-3,15 L-3,12 L-4,12 L-4,4 L-3,4 L-3,1 L0,1 Z " fill="#A6B2BB" transform="translate(16,44)"/>
<path d="M0,0 L4,0 L4,1 L8,1 L8,2 L10,2 L10,4 L11,4 L11,6 L10,6 L10,5 L9,5 L9,4 L4,4 L4,5 L8,5 L8,6 L9,6 L9,7 L10,7 L10,8 L11,8 L11,12 L12,12 L12,16 L4,16 L4,15 L1,15 L1,12 L0,12 L0,5 L1,5 L1,4 L0,4 Z " fill="#5E5E6D" transform="translate(48,4)"/>
<path d="M0,0 L4,0 L4,1 L7,1 L7,4 L8,4 L8,8 L7,8 L7,11 L4,11 L4,12 L0,12 L0,11 L-3,11 L-3,8 L-4,8 L-4,4 L-3,4 L-3,1 L0,1 Z " fill="#A6B2BB" transform="translate(8,28)"/>
<path d="M0,0 L24,0 L24,4 L0,4 Z " fill="#717180" transform="translate(20,4)"/>
<path d="M0,0 L4,0 L4,15 L1,15 L1,12 L0,12 Z " fill="#474758" transform="translate(16,8)"/>
<path d="M0,0 L4,0 L4,9 L3,9 L3,14 L2,14 L2,15 L0,15 Z " fill="#474758" transform="translate(44,8)"/>
<path d="M0,0 L3,0 L3,12 L0,12 L0,9 L-1,9 L-1,3 L0,3 Z " fill="#A6B2BB" transform="translate(57,49)"/>
<path d="M0,0 L3,0 L3,3 L4,3 L4,9 L3,9 L3,12 L0,12 Z " fill="#A6B2BB" transform="translate(4,49)"/>
<path d="M0,0 L4,0 L4,1 L8,1 L8,2 L10,2 L10,4 L11,4 L11,6 L10,6 L10,5 L9,5 L9,4 L0,4 Z " fill="#717180" transform="translate(48,4)"/>
<path d="M0,0 L1,0 L1,1 L0,1 Z M1,1 L12,1 L12,5 L4,5 L4,4 L1,4 Z " fill="#383848" transform="translate(48,19)"/>
<path d="M0,0 L18,0 L18,1 L15,1 L15,2 L3,2 L3,1 L0,1 Z " fill="#A6B2BB" transform="translate(33,49)"/>
<path d="M0,0 L1,0 L1,1 L0,1 Z M-11,1 L0,1 L0,4 L-3,4 L-3,5 L-11,5 Z " fill="#383848" transform="translate(15,19)"/>
<path d="M0,0 L4,0 L4,4 L-5,4 L-5,5 L-6,5 L-6,6 L-7,6 L-7,4 L-6,4 L-6,2 L-4,2 L-4,1 L0,1 Z " fill="#717180" transform="translate(12,4)"/>
<path d="M0,0 L1,0 L1,1 L0,1 Z M-1,1 L0,1 L0,2 L-1,2 Z M-2,2 L-1,2 L-1,3 L-2,3 Z M-3,3 L-2,3 L-2,4 L-3,4 Z M-4,4 L-3,4 L-3,5 L-4,5 Z " fill="#353541" transform="translate(6,1)"/>
<path d="M0,0 L1,0 L1,1 L0,1 Z M-1,1 L0,1 L0,2 L-1,2 Z M-2,2 L-1,2 L-1,3 L-2,3 Z M-3,3 L-2,3 L-2,4 L-3,4 Z " fill="#5E5E6D" transform="translate(8,9)"/>
<path d="M0,0 L3,0 L3,1 L0,1 Z " fill="#CFD5DA" transform="translate(57,62)"/>
<path d="M0,0 L3,0 L3,1 L0,1 Z " fill="#CFD5DA" transform="translate(4,62)"/>
<path d="M0,0 L3,0 L3,1 L0,1 Z " fill="#A6B2BB" transform="translate(33,49)"/>
<path d="M0,0 L1,0 L1,1 L0,1 Z M1,1 L2,1 L2,2 L1,2 Z " fill="#383848" transform="translate(16,23)"/>
<path d="M0,0 L1,0 L1,1 L0,1 Z " fill="#6F6F7F" opacity="0.94509804" transform="translate(4,11)"/>
<path d="M0,0 L1,0 L1,1 L0,1 Z " fill="#6F6F7E" opacity="0.8862745" transform="translate(59,10)"/>
<path d="M0,0 L1,0 L1,1 L0,1 Z " fill="#A7B4BC" opacity="0.81960785" transform="translate(51,48)"/>
<path d="M0,0 L1,0 L1,1 L0,1 Z M1,1 L2,1 L2,2 L1,2 Z " fill="#383848" transform="translate(48,19)"/>
<path d="M0,0 L1,0 L1,1 L0,1 Z " fill="#CED5DA" opacity="0.827451" transform="translate(56,61)"/>
<path d="M0,0 L1,0 L1,1 L0,1 Z " fill="#CDD4D9" opacity="0.827451" transform="translate(7,61)"/>
<path d="M0,0 L1,0 L1,1 L0,1 Z " fill="#A6B2BB" transform="translate(4,49)"/>
<path d="M0,0 L1,0 L1,1 L0,1 Z " fill="#A7B3BC" opacity="0.827451" transform="translate(32,48)"/>
<path d="M0,0 L1,0 L1,1 L0,1 Z " fill="#A5B1BA" opacity="0.9411765" transform="translate(15,44)"/>
<path d="M0,0 L1,0 L1,1 L0,1 Z " fill="#3E3E4D" opacity="0.8392157" transform="translate(48,21)"/>
<path d="M0,0 L1,0 L1,1 L0,1 Z " fill="#464656" opacity="0.972549" transform="translate(47,18)"/>
<path d="M0,0 L1,0 L1,1 L0,1 Z M-1,1 L0,1 L0,2 L-1,2 Z " fill="#3B3B4B" opacity="0.79607844" transform="translate(15,18)"/>
<path d="M0,0 L1,0 L1,1 L0,1 Z " fill="#343440" opacity="0.8235294" transform="translate(63,9)"/>
<path d="M0,0 L1,0 L1,1 L0,1 Z " fill="#353540" opacity="0.8117647" transform="translate(0,9)"/>
<path d="M0,0 L1,0 L1,1 L0,1 Z " fill="#333340" opacity="0.56078434" transform="translate(1,5)"/>
<path d="M0,0 L1,0 L1,1 L0,1 Z " fill="#343440" opacity="0.9529412" transform="translate(61,4)"/>
<path d="M0,0 L1,0 L1,1 L0,1 Z " fill="#717180" opacity="0.9843137" transform="translate(11,4)"/>
<path d="M0,0 L1,0 L1,1 L0,1 Z " fill="#343440" opacity="0.9607843" transform="translate(4,2)"/>
<path d="M0,0 L1,0 L1,1 L0,1 Z " fill="#343440" opacity="0.8039216" transform="translate(9,0)"/>
<path d="M0,0 L1,0 L1,1 L0,1 Z " fill="#CED4D9" opacity="0.92156863" transform="translate(15,23)"/>
<path d="M0,0 L1,0 L1,1 L0,1 Z " fill="#5F5F6F" opacity="0.7764706" transform="translate(54,8)"/>
<path d="M0,0 L1,0 L1,1 L0,1 Z " fill="#60606F" opacity="0.7764706" transform="translate(9,8)"/>
<path d="M0,0 L1,0 L1,1 L0,1 Z " fill="#686878" opacity="0.7882353" transform="translate(54,4)"/>
<path d="M0,0 L1,0 L1,1 L0,1 Z " fill="#343441" opacity="0.95686275" transform="translate(59,2)"/>
<path d="M0,0 L1,0 L1,1 L0,1 Z " fill="#CDD4D9" opacity="0.827451" transform="translate(58,63)"/>
<path d="M0,0 L1,0 L1,1 L0,1 Z " fill="#C3CAD1" opacity="0.7921569" transform="translate(6,63)"/>
<path d="M0,0 L1,0 L1,1 L0,1 Z " fill="#A5B2BA" opacity="0.95686275" transform="translate(59,61)"/>
<path d="M0,0 L1,0 L1,1 L0,1 Z " fill="#B3BCC4" opacity="0.7921569" transform="translate(26,59)"/>
<path d="M0,0 L1,0 L1,1 L0,1 Z " fill="#A7B3BC" opacity="0.827451" transform="translate(14,59)"/>
<path d="M0,0 L1,0 L1,1 L0,1 Z " fill="#B3BDC5" opacity="0.7882353" transform="translate(27,58)"/>
<path d="M0,0 L1,0 L1,1 L0,1 Z " fill="#B3BDC5" opacity="0.7882353" transform="translate(12,58)"/>
<path d="M0,0 L1,0 L1,1 L0,1 Z " fill="#A7B3BC" opacity="0.827451" transform="translate(56,50)"/>
<path d="M0,0 L1,0 L1,1 L0,1 Z " fill="#B3BEC4" opacity="0.7921569" transform="translate(50,50)"/>
<path d="M0,0 L1,0 L1,1 L0,1 Z " fill="#A7B3BC" opacity="0.827451" transform="translate(34,50)"/>
<path d="M0,0 L1,0 L1,1 L0,1 Z " fill="#A7B4BC" opacity="0.81960785" transform="translate(7,50)"/>
<path d="M0,0 L1,0 L1,1 L0,1 Z " fill="#A7B4BD" opacity="0.827451" transform="translate(58,48)"/>
<path d="M0,0 L1,0 L1,1 L0,1 Z " fill="#ABB6BF" opacity="0.7921569" transform="translate(50,48)"/>
<path d="M0,0 L1,0 L1,1 L0,1 Z " fill="#CBD2D7" opacity="0.9411765" transform="translate(35,48)"/>
<path d="M0,0 L1,0 L1,1 L0,1 Z " fill="#B3BEC4" opacity="0.7921569" transform="translate(6,48)"/>
<path d="M0,0 L1,0 L1,1 L0,1 Z " fill="#A5B1BA" opacity="0.9411765" transform="translate(12,47)"/>
<path d="M0,0 L1,0 L1,1 L0,1 Z " fill="#A8B3BC" opacity="0.8235294" transform="translate(27,46)"/>
<path d="M0,0 L1,0 L1,1 L0,1 Z " fill="#B3BCC4" opacity="0.7921569" transform="translate(26,44)"/>
<path d="M0,0 L1,0 L1,1 L0,1 Z M-1,1 L0,1 L0,2 L-1,2 Z " fill="#B2BDC5" opacity="0.7882353" transform="translate(13,44)"/>
<path d="M0,0 L1,0 L1,1 L0,1 Z " fill="#B3BDC5" opacity="0.78431374" transform="translate(14,39)"/>
<path d="M0,0 L1,0 L1,1 L0,1 Z " fill="#A7B2BB" opacity="0.83137256" transform="translate(6,39)"/>
<path d="M0,0 L1,0 L1,1 L0,1 Z " fill="#B1BCC5" opacity="0.78431374" transform="translate(4,38)"/>
<path d="M0,0 L1,0 L1,1 L0,1 Z " fill="#CDD5D8" opacity="0.81960785" transform="translate(51,33)"/>
<path d="M0,0 L1,0 L1,1 L0,1 Z " fill="#CDD4D9" opacity="0.827451" transform="translate(32,33)"/>
<path d="M0,0 L1,0 L1,1 L0,1 Z " fill="#C4CAD1" opacity="0.7921569" transform="translate(50,31)"/>
<path d="M0,0 L1,0 L1,1 L0,1 Z " fill="#CED5DA" opacity="0.827451" transform="translate(34,31)"/>
<path d="M0,0 L1,0 L1,1 L0,1 Z " fill="#A8B3BC" opacity="0.8235294" transform="translate(15,30)"/>
<path d="M0,0 L1,0 L1,1 L0,1 Z " fill="#A7B3BC" opacity="0.827451" transform="translate(4,30)"/>
<path d="M0,0 L1,0 L1,1 L0,1 Z " fill="#B3BCC4" opacity="0.7921569" transform="translate(14,28)"/>
<path d="M0,0 L1,0 L1,1 L0,1 Z " fill="#A7B4BD" opacity="0.827451" transform="translate(6,28)"/>
<path d="M0,0 L1,0 L1,1 L0,1 Z " fill="#434353" opacity="0.80784315" transform="translate(18,27)"/>
<path d="M0,0 L1,0 L1,1 L0,1 Z " fill="#3D3D4E" opacity="0.84313726" transform="translate(50,23)"/>
<path d="M0,0 L1,0 L1,1 L0,1 Z " fill="#373749" opacity="0.80784315" transform="translate(46,23)"/>
<path d="M0,0 L1,0 L1,1 L0,1 Z " fill="#414152" opacity="0.80784315" transform="translate(18,23)"/>
<path d="M0,0 L1,0 L1,1 L0,1 Z " fill="#404052" opacity="0.81960785" transform="translate(16,21)"/>
<path d="M0,0 L1,0 L1,1 L0,1 Z " fill="#454556" opacity="0.9529412" transform="translate(16,20)"/>
<path d="M0,0 L1,0 L1,1 L0,1 Z " fill="#5A5A6B" opacity="0.94509804" transform="translate(51,19)"/>
<path d="M0,0 L1,0 L1,1 L0,1 Z " fill="#5D5D6D" opacity="0.94509804" transform="translate(59,15)"/>
<path d="M0,0 L1,0 L1,1 L0,1 Z " fill="#5E5E6C" opacity="0.9490196" transform="translate(4,15)"/>
<path d="M0,0 L1,0 L1,1 L0,1 Z " fill="#60606F" opacity="0.77254903" transform="translate(59,13)"/>
<path d="M0,0 L1,0 L1,1 L0,1 Z " fill="#60606F" opacity="0.7764706" transform="translate(4,13)"/>
<path d="M0,0 L1,0 L1,1 L0,1 Z " fill="#6C6C7B" opacity="0.8156863" transform="translate(59,9)"/>
<path d="M0,0 L1,0 L1,1 L0,1 Z " fill="#6A6A79" opacity="0.8" transform="translate(4,9)"/>
<path d="M0,0 L1,0 L1,1 L0,1 Z " fill="#34343F" opacity="0.38039216" transform="translate(63,7)"/>
<path d="M0,0 L1,0 L1,1 L0,1 Z " fill="#707080" opacity="0.9529412" transform="translate(58,7)"/>
<path d="M0,0 L1,0 L1,1 L0,1 Z " fill="#343441" opacity="0.4" transform="translate(0,7)"/>
<path d="M0,0 L1,0 L1,1 L0,1 Z " fill="#6A6A79" opacity="0.80784315" transform="translate(9,4)"/>
<path d="M0,0 L1,0 L1,1 L0,1 Z " fill="#343440" opacity="0.9490196" transform="translate(2,4)"/>
<path d="M0,0 L1,0 L1,1 L0,1 Z " fill="#353540" opacity="0.6431373" transform="translate(5,1)"/>
<path d="M0,0 L1,0 L1,1 L0,1 Z " fill="#353540" opacity="0.09411765" transform="translate(57,0)"/>
<path d="M0,0 L1,0 L1,1 L0,1 Z " fill="#343440" opacity="0.67058825" transform="translate(55,0)"/>
<path d="M0,0 L1,0 L1,1 L0,1 Z " fill="#343440" opacity="0.99215686" transform="translate(11,0)"/>
<path d="M0,0 L1,0 L1,1 L0,1 Z " fill="#333340" opacity="0.3882353" transform="translate(7,0)"/>
<path d="M0,0 L1,0 L1,1 L0,1 Z " fill="#CFD5DA" opacity="0.9529412" transform="translate(59,63)"/>
<path d="M0,0 L1,0 L1,1 L0,1 Z " fill="#C1CAD1" opacity="0.7921569" transform="translate(57,63)"/>
<path d="M0,0 L1,0 L1,1 L0,1 Z " fill="#CDD4D9" opacity="0.827451" transform="translate(5,63)"/>
<path d="M0,0 L1,0 L1,1 L0,1 Z " fill="#CFD5DA" opacity="0.9529412" transform="translate(4,63)"/>
<path d="M0,0 L1,0 L1,1 L0,1 Z " fill="#C4CBD0" opacity="0.7882353" transform="translate(56,62)"/>
<path d="M0,0 L1,0 L1,1 L0,1 Z " fill="#C4CBD0" opacity="0.7882353" transform="translate(7,62)"/>
<path d="M0,0 L1,0 L1,1 L0,1 Z " fill="#A8B4BE" opacity="0.827451" transform="translate(58,61)"/>
<path d="M0,0 L1,0 L1,1 L0,1 Z " fill="#BDC6CE" opacity="0.78431374" transform="translate(57,61)"/>
<path d="M0,0 L1,0 L1,1 L0,1 Z " fill="#BFC7CE" opacity="0.7882353" transform="translate(6,61)"/>
<path d="M0,0 L1,0 L1,1 L0,1 Z " fill="#A8B4BE" opacity="0.827451" transform="translate(5,61)"/>
<path d="M0,0 L1,0 L1,1 L0,1 Z " fill="#A5B2BA" opacity="0.95686275" transform="translate(4,61)"/>
<path d="M0,0 L1,0 L1,1 L0,1 Z " fill="#BEC6CD" opacity="0.7529412" transform="translate(56,60)"/>
<path d="M0,0 L1,0 L1,1 L0,1 Z " fill="#BDC8CE" opacity="0.7529412" transform="translate(7,60)"/>
<path d="M0,0 L1,0 L1,1 L0,1 Z " fill="#A7B4BC" opacity="0.8352941" transform="translate(56,59)"/>
<path d="M0,0 L1,0 L1,1 L0,1 Z " fill="#A7B3BC" opacity="0.827451" transform="translate(25,59)"/>
<path d="M0,0 L1,0 L1,1 L0,1 Z " fill="#A6B2BB" opacity="0.9529412" transform="translate(24,59)"/>
<path d="M0,0 L1,0 L1,1 L0,1 Z " fill="#A6B2BB" opacity="0.9529412" transform="translate(15,59)"/>
<path d="M0,0 L1,0 L1,1 L0,1 Z " fill="#B1BCC4" opacity="0.7921569" transform="translate(13,59)"/>
<path d="M0,0 L1,0 L1,1 L0,1 Z " fill="#A8B4BE" opacity="0.827451" transform="translate(7,59)"/>
<path d="M0,0 L1,0 L1,1 L0,1 Z " fill="#A5B2BA" opacity="0.95686275" transform="translate(56,58)"/>
<path d="M0,0 L1,0 L1,1 L0,1 Z " fill="#A5B2BA" opacity="0.95686275" transform="translate(7,58)"/>
<path d="M0,0 L1,0 L1,1 L0,1 Z " fill="#A7B3BC" opacity="0.827451" transform="translate(27,57)"/>
<path d="M0,0 L1,0 L1,1 L0,1 Z " fill="#A7B4BD" opacity="0.827451" transform="translate(12,57)"/>
<path d="M0,0 L1,0 L1,1 L0,1 Z " fill="#A4B1BB" opacity="0.9372549" transform="translate(27,56)"/>
<path d="M0,0 L1,0 L1,1 L0,1 Z " fill="#A5B1BA" opacity="0.9411765" transform="translate(12,56)"/>
<path d="M0,0 L1,0 L1,1 L0,1 Z " fill="#A5B2BA" opacity="0.95686275" transform="translate(56,51)"/>
<path d="M0,0 L1,0 L1,1 L0,1 Z " fill="#A6B2BB" opacity="0.9529412" transform="translate(7,51)"/>
<path d="M0,0 L1,0 L1,1 L0,1 Z " fill="#A7B3BC" opacity="0.827451" transform="translate(49,50)"/>
<path d="M0,0 L1,0 L1,1 L0,1 Z " fill="#A4B1BB" opacity="0.9372549" transform="translate(48,50)"/>
<path d="M0,0 L1,0 L1,1 L0,1 Z " fill="#A5B1BA" opacity="0.9411765" transform="translate(35,50)"/>
<path d="M0,0 L1,0 L1,1 L0,1 Z " fill="#B1BCC4" opacity="0.7921569" transform="translate(33,50)"/>
<path d="M0,0 L1,0 L1,1 L0,1 Z " fill="#A6B2BB" transform="translate(57,49)"/>
<path d="M0,0 L1,0 L1,1 L0,1 Z " fill="#B1BCC4" opacity="0.7921569" transform="translate(56,49)"/>
<path d="M0,0 L1,0 L1,1 L0,1 Z " fill="#B3BDC5" opacity="0.8" transform="translate(51,49)"/>
<path d="M0,0 L1,0 L1,1 L0,1 Z " fill="#B3BCC4" opacity="0.7921569" transform="translate(32,49)"/>
<path d="M0,0 L1,0 L1,1 L0,1 Z " fill="#B3BDC5" opacity="0.8" transform="translate(7,49)"/>
<path d="M0,0 L1,0 L1,1 L0,1 Z " fill="#A5B1BA" opacity="0.9411765" transform="translate(59,48)"/>
<path d="M0,0 L1,0 L1,1 L0,1 Z " fill="#B3BDC5" opacity="0.7882353" transform="translate(57,48)"/>
<path d="M0,0 L1,0 L1,1 L0,1 Z " fill="#C3CAD1" opacity="0.827451" transform="translate(49,48)"/>
<path d="M0,0 L1,0 L1,1 L0,1 Z " fill="#CCD3D7" opacity="0.9372549" transform="translate(48,48)"/>
<path d="M0,0 L1,0 L1,1 L0,1 Z " fill="#C3CAD1" opacity="0.827451" transform="translate(34,48)"/>
<path d="M0,0 L1,0 L1,1 L0,1 Z " fill="#ABB6BE" opacity="0.7921569" transform="translate(33,48)"/>
<path d="M0,0 L1,0 L1,1 L0,1 Z " fill="#A7B3BC" opacity="0.827451" transform="translate(5,48)"/>
<path d="M0,0 L1,0 L1,1 L0,1 Z " fill="#A5B1BA" opacity="0.9411765" transform="translate(4,48)"/>
<path d="M0,0 L1,0 L1,1 L0,1 Z " fill="#ABB7BF" opacity="0.77254903" transform="translate(51,47)"/>
<path d="M0,0 L1,0 L1,1 L0,1 Z " fill="#ACB6C0" opacity="0.76862746" transform="translate(32,47)"/>
<path d="M0,0 L1,0 L1,1 L0,1 Z " fill="#A6B2BB" opacity="0.9372549" transform="translate(27,47)"/>
<path d="M0,0 L1,0 L1,1 L0,1 Z " fill="#C2CBD1" opacity="0.81960785" transform="translate(51,46)"/>
<path d="M0,0 L1,0 L1,1 L0,1 Z " fill="#C3CAD1" opacity="0.827451" transform="translate(32,46)"/>
<path d="M0,0 L1,0 L1,1 L0,1 Z " fill="#A7B2BB" opacity="0.83137256" transform="translate(12,46)"/>
<path d="M0,0 L1,0 L1,1 L0,1 Z " fill="#CDD3D7" opacity="0.9529412" transform="translate(51,45)"/>
<path d="M0,0 L1,0 L1,1 L0,1 Z " fill="#CDD2D9" opacity="0.95686275" transform="translate(32,45)"/>
<path d="M0,0 L1,0 L1,1 L0,1 Z " fill="#B3BEC4" opacity="0.7921569" transform="translate(27,45)"/>
<path d="M0,0 L1,0 L1,1 L0,1 Z " fill="#A6B2BB" transform="translate(13,45)"/>
<path d="M0,0 L1,0 L1,1 L0,1 Z " fill="#A7B3BC" opacity="0.827451" transform="translate(25,44)"/>
<path d="M0,0 L1,0 L1,1 L0,1 Z " fill="#A4B1BB" opacity="0.9372549" transform="translate(24,44)"/>
<path d="M0,0 L1,0 L1,1 L0,1 Z " fill="#A7B2BB" opacity="0.83137256" transform="translate(14,44)"/>
<path d="M0,0 L1,0 L1,1 L0,1 Z " fill="#A7B4BD" opacity="0.827451" transform="translate(13,39)"/>
<path d="M0,0 L1,0 L1,1 L0,1 Z " fill="#A5B2BA" opacity="0.95686275" transform="translate(12,39)"/>
<path d="M0,0 L1,0 L1,1 L0,1 Z " fill="#A5B2BA" opacity="0.95686275" transform="translate(7,39)"/>
<path d="M0,0 L1,0 L1,1 L0,1 Z " fill="#B3BDC5" opacity="0.78431374" transform="translate(5,39)"/>
<path d="M0,0 L1,0 L1,1 L0,1 Z " fill="#BBC4CB" transform="translate(4,39)"/>
<path d="M0,0 L1,0 L1,1 L0,1 Z " fill="#B2BBC4" opacity="0.78039217" transform="translate(15,38)"/>
<path d="M0,0 L1,0 L1,1 L0,1 Z " fill="#A5B3BB" opacity="0.8352941" transform="translate(15,37)"/>
<path d="M0,0 L1,0 L1,1 L0,1 Z " fill="#A7B2BB" opacity="0.81960785" transform="translate(4,37)"/>
<path d="M0,0 L1,0 L1,1 L0,1 Z " fill="#A5B2BB" opacity="0.99215686" transform="translate(15,36)"/>
<path d="M0,0 L1,0 L1,1 L0,1 Z " fill="#A5B2BB" opacity="0.98039216" transform="translate(4,36)"/>
<path d="M0,0 L1,0 L1,1 L0,1 Z " fill="#CFD5DA" opacity="0.9529412" transform="translate(51,34)"/>
<path d="M0,0 L1,0 L1,1 L0,1 Z " fill="#CFD4DA" opacity="0.95686275" transform="translate(32,34)"/>
<path d="M0,0 L1,0 L1,1 L0,1 Z " fill="#C2CAD0" opacity="0.8" transform="translate(51,32)"/>
<path d="M0,0 L1,0 L1,1 L0,1 Z " fill="#CFD5DA" transform="translate(33,32)"/>
<path d="M0,0 L1,0 L1,1 L0,1 Z " fill="#C1CAD1" opacity="0.7921569" transform="translate(32,32)"/>
<path d="M0,0 L1,0 L1,1 L0,1 Z " fill="#CDD4D9" opacity="0.827451" transform="translate(49,31)"/>
<path d="M0,0 L1,0 L1,1 L0,1 Z " fill="#CED4D9" opacity="0.9411765" transform="translate(48,31)"/>
<path d="M0,0 L1,0 L1,1 L0,1 Z " fill="#CED4D9" opacity="0.9411765" transform="translate(35,31)"/>
<path d="M0,0 L1,0 L1,1 L0,1 Z " fill="#C4CBD0" opacity="0.7882353" transform="translate(33,31)"/>
<path d="M0,0 L1,0 L1,1 L0,1 Z " fill="#A6B2BB" opacity="0.9372549" transform="translate(15,31)"/>
<path d="M0,0 L1,0 L1,1 L0,1 Z " fill="#A5B2BA" opacity="0.95686275" transform="translate(4,31)"/>
<path d="M0,0 L1,0 L1,1 L0,1 Z " fill="#B3BEC4" opacity="0.7921569" transform="translate(15,29)"/>
<path d="M0,0 L1,0 L1,1 L0,1 Z " fill="#A6B2BB" transform="translate(5,29)"/>
<path d="M0,0 L1,0 L1,1 L0,1 Z " fill="#B1BCC4" opacity="0.7921569" transform="translate(4,29)"/>
<path d="M0,0 L1,0 L1,1 L0,1 Z " fill="#A7B3BC" opacity="0.827451" transform="translate(13,28)"/>
<path d="M0,0 L1,0 L1,1 L0,1 Z " fill="#A4B1BB" opacity="0.9372549" transform="translate(12,28)"/>
<path d="M0,0 L1,0 L1,1 L0,1 Z " fill="#A5B1BA" opacity="0.9411765" transform="translate(7,28)"/>
<path d="M0,0 L1,0 L1,1 L0,1 Z " fill="#B3BDC5" opacity="0.7882353" transform="translate(5,28)"/>
<path d="M0,0 L1,0 L1,1 L0,1 Z " fill="#838893" opacity="0.78039217" transform="translate(46,27)"/>
<path d="M0,0 L1,0 L1,1 L0,1 Z " fill="#424353" opacity="0.8039216" transform="translate(45,27)"/>
<path d="M0,0 L1,0 L1,1 L0,1 Z " fill="#383847" opacity="0.92156863" transform="translate(44,27)"/>
<path d="M0,0 L1,0 L1,1 L0,1 Z " fill="#373848" opacity="0.9372549" transform="translate(19,27)"/>
<path d="M0,0 L1,0 L1,1 L0,1 Z " fill="#838893" opacity="0.78039217" transform="translate(17,27)"/>
<path d="M0,0 L1,0 L1,1 L0,1 Z " fill="#818690" opacity="0.7764706" transform="translate(47,26)"/>
<path d="M0,0 L1,0 L1,1 L0,1 Z " fill="#838792" opacity="0.78039217" transform="translate(16,26)"/>
<path d="M0,0 L1,0 L1,1 L0,1 Z " fill="#3D3E4D" opacity="0.8392157" transform="translate(47,25)"/>
<path d="M0,0 L1,0 L1,1 L0,1 Z " fill="#3E3E4D" opacity="0.8392157" transform="translate(16,25)"/>
<path d="M0,0 L1,0 L1,1 L0,1 Z " fill="#373747" opacity="0.96862745" transform="translate(47,24)"/>
<path d="M0,0 L1,0 L1,1 L0,1 Z " fill="#373747" opacity="0.96862745" transform="translate(16,24)"/>
<path d="M0,0 L1,0 L1,1 L0,1 Z " fill="#373748" opacity="0.94509804" transform="translate(51,23)"/>
<path d="M0,0 L1,0 L1,1 L0,1 Z " fill="#7B808C" opacity="0.77254903" transform="translate(49,23)"/>
<path d="M0,0 L1,0 L1,1 L0,1 Z " fill="#414152" opacity="0.80784315" transform="translate(45,23)"/>
<path d="M0,0 L1,0 L1,1 L0,1 Z " fill="#454555" opacity="0.9372549" transform="translate(44,23)"/>
<path d="M0,0 L1,0 L1,1 L0,1 Z " fill="#454555" opacity="0.9372549" transform="translate(19,23)"/>
<path d="M0,0 L1,0 L1,1 L0,1 Z " fill="#383849" opacity="0.7882353" transform="translate(17,23)"/>
<path d="M0,0 L1,0 L1,1 L0,1 Z " fill="#A5ACB3" opacity="0.70980394" transform="translate(14,23)"/>
<path d="M0,0 L1,0 L1,1 L0,1 Z " fill="#3F4050" opacity="0.827451" transform="translate(13,23)"/>
<path d="M0,0 L1,0 L1,1 L0,1 Z " fill="#373747" opacity="0.9529412" transform="translate(12,23)"/>
<path d="M0,0 L1,0 L1,1 L0,1 Z " fill="#808590" opacity="0.7764706" transform="translate(48,22)"/>
<path d="M0,0 L1,0 L1,1 L0,1 Z " fill="#393949" opacity="0.7921569" transform="translate(47,22)"/>
<path d="M0,0 L1,0 L1,1 L0,1 Z " fill="#454557" opacity="0.99215686" transform="translate(46,22)"/>
<path d="M0,0 L1,0 L1,1 L0,1 Z " fill="#464657" transform="translate(17,22)"/>
<path d="M0,0 L1,0 L1,1 L0,1 Z " fill="#393948" opacity="0.78431374" transform="translate(16,22)"/>
<path d="M0,0 L1,0 L1,1 L0,1 Z " fill="#BCC1C8" opacity="0.7921569" transform="translate(15,22)"/>
<path d="M0,0 L1,0 L1,1 L0,1 Z " fill="#404051" opacity="0.8" transform="translate(47,21)"/>
<path d="M0,0 L1,0 L1,1 L0,1 Z " fill="#5B5F6C" opacity="0.8117647" transform="translate(15,21)"/>
<path d="M0,0 L1,0 L1,1 L0,1 Z " fill="#373747" opacity="0.96862745" transform="translate(48,20)"/>
<path d="M0,0 L1,0 L1,1 L0,1 Z " fill="#454556" opacity="0.94509804" transform="translate(47,20)"/>
<path d="M0,0 L1,0 L1,1 L0,1 Z " fill="#3E3E4F" opacity="0.94509804" transform="translate(15,20)"/>
<path d="M0,0 L1,0 L1,1 L0,1 Z " fill="#545464" opacity="0.84313726" transform="translate(50,19)"/>
<path d="M0,0 L1,0 L1,1 L0,1 Z " fill="#3D3D4D" opacity="0.77254903" transform="translate(49,19)"/>
<path d="M0,0 L1,0 L1,1 L0,1 Z " fill="#444456" opacity="0.9607843" transform="translate(47,19)"/>
<path d="M0,0 L1,0 L1,1 L0,1 Z " fill="#515161" opacity="0.8156863" transform="translate(13,19)"/>
<path d="M0,0 L1,0 L1,1 L0,1 Z " fill="#5B5B6B" opacity="0.972549" transform="translate(12,19)"/>
<path d="M0,0 L1,0 L1,1 L0,1 Z " fill="#5D5D6C" transform="translate(49,18)"/>
<path d="M0,0 L1,0 L1,1 L0,1 Z " fill="#3C3C4C" opacity="0.7764706" transform="translate(48,18)"/>
<path d="M0,0 L1,0 L1,1 L0,1 Z " fill="#5D5D6C" transform="translate(14,18)"/>
<path d="M0,0 L1,0 L1,1 L0,1 Z " fill="#535362" opacity="0.8392157" transform="translate(48,17)"/>
<path d="M0,0 L1,0 L1,1 L0,1 Z " fill="#454556" opacity="0.9843137" transform="translate(47,17)"/>
<path d="M0,0 L1,0 L1,1 L0,1 Z " fill="#505060" opacity="0.81960785" transform="translate(15,17)"/>
<path d="M0,0 L1,0 L1,1 L0,1 Z " fill="#5C5C6A" opacity="0.96862745" transform="translate(48,16)"/>
<path d="M0,0 L1,0 L1,1 L0,1 Z " fill="#464657" transform="translate(47,16)"/>
<path d="M0,0 L1,0 L1,1 L0,1 Z " fill="#5B5B69" opacity="0.95686275" transform="translate(15,16)"/>
<path d="M0,0 L1,0 L1,1 L0,1 Z " fill="#5D5D6D" opacity="0.85490197" transform="translate(59,14)"/>
<path d="M0,0 L1,0 L1,1 L0,1 Z " fill="#5D5D6C" opacity="0.8666667" transform="translate(4,14)"/>
<path d="M0,0 L1,0 L1,1 L0,1 Z " fill="#686877" opacity="0.78039217" transform="translate(59,12)"/>
<path d="M0,0 L1,0 L1,1 L0,1 Z " fill="#676777" opacity="0.77254903" transform="translate(4,12)"/>
<path d="M0,0 L1,0 L1,1 L0,1 Z " fill="#6F6F7F" opacity="0.9529412" transform="translate(59,11)"/>
<path d="M0,0 L1,0 L1,1 L0,1 Z " fill="#5D5D6D" opacity="0.87058824" transform="translate(58,11)"/>
<path d="M0,0 L1,0 L1,1 L0,1 Z " fill="#5D5D6C" opacity="0.8784314" transform="translate(5,11)"/>
<path d="M0,0 L1,0 L1,1 L0,1 Z " fill="#343440" opacity="0.9529412" transform="translate(63,10)"/>
<path d="M0,0 L1,0 L1,1 L0,1 Z " fill="#6A6A7A" opacity="0.827451" transform="translate(58,10)"/>
<path d="M0,0 L1,0 L1,1 L0,1 Z " fill="#5D5D6D" opacity="0.9647059" transform="translate(57,10)"/>
<path d="M0,0 L1,0 L1,1 L0,1 Z " fill="#5E5E6C" opacity="0.96862745" transform="translate(6,10)"/>
<path d="M0,0 L1,0 L1,1 L0,1 Z " fill="#6B6B7A" opacity="0.81960785" transform="translate(5,10)"/>
<path d="M0,0 L1,0 L1,1 L0,1 Z " fill="#6F6F7E" opacity="0.87058824" transform="translate(4,10)"/>
<path d="M0,0 L1,0 L1,1 L0,1 Z " fill="#343440" opacity="0.9529412" transform="translate(0,10)"/>
<path d="M0,0 L1,0 L1,1 L0,1 Z " fill="#6C6C7B" opacity="0.84313726" transform="translate(57,9)"/>
<path d="M0,0 L1,0 L1,1 L0,1 Z " fill="#5E5E6D" opacity="0.88235295" transform="translate(56,9)"/>
<path d="M0,0 L1,0 L1,1 L0,1 Z " fill="#5C5C6C" opacity="0.8862745" transform="translate(7,9)"/>
<path d="M0,0 L1,0 L1,1 L0,1 Z " fill="#6C6C7B" opacity="0.8392157" transform="translate(6,9)"/>
<path d="M0,0 L1,0 L1,1 L0,1 Z " fill="#333340" opacity="0.65882355" transform="translate(63,8)"/>
<path d="M0,0 L1,0 L1,1 L0,1 Z " fill="#60606D" opacity="0.7529412" transform="translate(59,8)"/>
<path d="M0,0 L1,0 L1,1 L0,1 Z " fill="#6F6F7E" opacity="0.99607843" transform="translate(56,8)"/>
<path d="M0,0 L1,0 L1,1 L0,1 Z " fill="#696978" opacity="0.7921569" transform="translate(55,8)"/>
<path d="M0,0 L1,0 L1,1 L0,1 Z " fill="#5E5E6D" opacity="0.84313726" transform="translate(53,8)"/>
<path d="M0,0 L1,0 L1,1 L0,1 Z " fill="#5D5D6C" opacity="0.9411765" transform="translate(52,8)"/>
<path d="M0,0 L1,0 L1,1 L0,1 Z " fill="#5D5D6C" opacity="0.94509804" transform="translate(11,8)"/>
<path d="M0,0 L1,0 L1,1 L0,1 Z " fill="#5F5F6D" opacity="0.84313726" transform="translate(10,8)"/>
<path d="M0,0 L1,0 L1,1 L0,1 Z " fill="#696978" opacity="0.7921569" transform="translate(8,8)"/>
<path d="M0,0 L1,0 L1,1 L0,1 Z " fill="#6F6F7E" opacity="0.99607843" transform="translate(7,8)"/>
<path d="M0,0 L1,0 L1,1 L0,1 Z " fill="#5D5D6C" opacity="0.7529412" transform="translate(4,8)"/>
<path d="M0,0 L1,0 L1,1 L0,1 Z " fill="#333340" opacity="0.65882355" transform="translate(0,8)"/>
<path d="M0,0 L1,0 L1,1 L0,1 Z " fill="#3B3B47" opacity="0.9137255" transform="translate(59,7)"/>
<path d="M0,0 L1,0 L1,1 L0,1 Z " fill="#70707F" opacity="0.9372549" transform="translate(5,7)"/>
<path d="M0,0 L1,0 L1,1 L0,1 Z " fill="#3B3B47" opacity="0.9137255" transform="translate(4,7)"/>
<path d="M0,0 L1,0 L1,1 L0,1 Z " fill="#343440" opacity="0.07058824" transform="translate(63,6)"/>
<path d="M0,0 L1,0 L1,1 L0,1 Z " fill="#343440" opacity="0.98039216" transform="translate(62,6)"/>
<path d="M0,0 L1,0 L1,1 L0,1 Z " fill="#545461" opacity="0.7647059" transform="translate(58,6)"/>
<path d="M0,0 L1,0 L1,1 L0,1 Z " fill="#717180" transform="translate(6,6)"/>
<path d="M0,0 L1,0 L1,1 L0,1 Z " fill="#4F4F5E" opacity="0.77254903" transform="translate(5,6)"/>
<path d="M0,0 L1,0 L1,1 L0,1 Z " fill="#343440" opacity="0.9764706" transform="translate(1,6)"/>
<path d="M0,0 L1,0 L1,1 L0,1 Z " fill="#30303C" opacity="0.08235294" transform="translate(0,6)"/>
<path d="M0,0 L1,0 L1,1 L0,1 Z " fill="#343441" opacity="0.6313726" transform="translate(62,5)"/>
<path d="M0,0 L1,0 L1,1 L0,1 Z " fill="#525261" opacity="0.7647059" transform="translate(57,5)"/>
<path d="M0,0 L1,0 L1,1 L0,1 Z " fill="#70707F" opacity="0.92941177" transform="translate(56,5)"/>
<path d="M0,0 L1,0 L1,1 L0,1 Z " fill="#70707F" opacity="0.9137255" transform="translate(7,5)"/>
<path d="M0,0 L1,0 L1,1 L0,1 Z " fill="#4E4E5A" opacity="0.78431374" transform="translate(6,5)"/>
<path d="M0,0 L1,0 L1,1 L0,1 Z " fill="#2F2F42" opacity="0.105882354" transform="translate(62,4)"/>
<path d="M0,0 L1,0 L1,1 L0,1 Z " fill="#373743" opacity="0.9647059" transform="translate(56,4)"/>
<path d="M0,0 L1,0 L1,1 L0,1 Z " fill="#565664" opacity="0.75686276" transform="translate(55,4)"/>
<path d="M0,0 L1,0 L1,1 L0,1 Z " fill="#6E6E7D" opacity="0.8666667" transform="translate(53,4)"/>
<path d="M0,0 L1,0 L1,1 L0,1 Z " fill="#717180" opacity="0.9764706" transform="translate(52,4)"/>
<path d="M0,0 L1,0 L1,1 L0,1 Z " fill="#6F6F7E" opacity="0.8980392" transform="translate(10,4)"/>
<path d="M0,0 L1,0 L1,1 L0,1 Z " fill="#565664" opacity="0.75686276" transform="translate(8,4)"/>
<path d="M0,0 L1,0 L1,1 L0,1 Z " fill="#373745" opacity="0.94509804" transform="translate(7,4)"/>
<path d="M0,0 L1,0 L1,1 L0,1 Z " fill="#333340" opacity="0.078431375" transform="translate(1,4)"/>
<path d="M0,0 L1,0 L1,1 L0,1 Z " fill="#333341" opacity="0.2901961" transform="translate(61,3)"/>
<path d="M0,0 L1,0 L1,1 L0,1 Z " fill="#343440" opacity="0.98039216" transform="translate(60,3)"/>
<path d="M0,0 L1,0 L1,1 L0,1 Z " fill="#343440" opacity="0.98039216" transform="translate(3,3)"/>
<path d="M0,0 L1,0 L1,1 L0,1 Z " fill="#35353F" opacity="0.3019608" transform="translate(2,3)"/>
<path d="M0,0 L1,0 L1,1 L0,1 Z " fill="#333340" opacity="0.3137255" transform="translate(60,2)"/>
<path d="M0,0 L1,0 L1,1 L0,1 Z " fill="#333340" opacity="0.3137255" transform="translate(3,2)"/>
<path d="M0,0 L1,0 L1,1 L0,1 Z " fill="#2F2F42" opacity="0.105882354" transform="translate(59,1)"/>
<path d="M0,0 L1,0 L1,1 L0,1 Z " fill="#353540" opacity="0.6431373" transform="translate(58,1)"/>
<path d="M0,0 L1,0 L1,1 L0,1 Z " fill="#363640" opacity="0.10980392" transform="translate(4,1)"/>
<path d="M0,0 L1,0 L1,1 L0,1 Z " fill="#333340" opacity="0.3882353" transform="translate(56,0)"/>
<path d="M0,0 L1,0 L1,1 L0,1 Z " fill="#343440" opacity="0.8039216" transform="translate(54,0)"/>
<path d="M0,0 L1,0 L1,1 L0,1 Z " fill="#343440" opacity="0.9019608" transform="translate(53,0)"/>
<path d="M0,0 L1,0 L1,1 L0,1 Z " fill="#343440" opacity="0.99215686" transform="translate(52,0)"/>
<path d="M0,0 L1,0 L1,1 L0,1 Z " fill="#343440" opacity="0.9019608" transform="translate(10,0)"/>
<path d="M0,0 L1,0 L1,1 L0,1 Z " fill="#343440" opacity="0.67058825" transform="translate(8,0)"/>
<path d="M0,0 L1,0 L1,1 L0,1 Z " fill="#33333D" opacity="0.09803922" transform="translate(6,0)"/>
</svg>
