<?xml version="1.0" encoding="UTF-8"?>
<!-- Generator: visioncortex VTracer 0.6.4 -->
<svg version="1.1" xmlns="http://www.w3.org/2000/svg" width="64" height="64">
<path d="M0,0 L64,0 L64,52 L63,52 L63,57 L62,57 L62,59 L61,59 L61,60 L60,60 L60,61 L59,61 L59,62 L57,62 L57,63 L52,63 L52,64 L0,64 L0,47 L9,47 L9,46 L0,46 L0,34 L9,34 L9,33 L0,33 L0,30 L9,30 L9,29 L0,29 L0,23 L9,23 L9,22 L0,22 L0,19 L9,19 L9,18 L0,18 L0,7 L9,7 L9,6 L0,6 Z M55,6 L55,7 L60,7 L60,6 Z M9,7 L9,8 L12,8 L12,7 Z M52,7 L52,8 L55,8 L55,7 Z M12,8 L12,9 L14,9 L14,10 L16,10 L16,11 L18,11 L18,12 L21,12 L21,13 L24,13 L24,14 L39,14 L39,13 L25,13 L25,12 L22,12 L22,11 L19,11 L19,10 L17,10 L17,9 L15,9 L15,8 Z M49,8 L49,9 L47,9 L47,10 L45,10 L45,11 L48,11 L48,10 L50,10 L50,9 L52,9 L52,8 Z M42,11 L42,12 L39,12 L39,13 L43,13 L43,12 L45,12 L45,11 Z M44,14 L44,15 L43,15 L43,19 L44,19 L44,20 L47,20 L47,19 L48,19 L48,15 L47,15 L47,14 Z M55,18 L55,19 L60,19 L60,18 Z M9,19 L9,20 L12,20 L12,19 Z M52,19 L52,20 L55,20 L55,19 Z M12,20 L12,21 L14,21 L14,22 L16,22 L16,23 L18,23 L18,24 L21,24 L21,25 L24,25 L24,26 L39,26 L39,25 L25,25 L25,24 L22,24 L22,23 L19,23 L19,22 L17,22 L17,21 L15,21 L15,20 Z M49,20 L49,21 L47,21 L47,22 L45,22 L45,23 L48,23 L48,22 L50,22 L50,21 L52,21 L52,20 Z M55,22 L55,23 L60,23 L60,22 Z M9,23 L9,24 L12,24 L12,23 Z M42,23 L42,24 L39,24 L39,25 L43,25 L43,24 L45,24 L45,23 Z M52,23 L52,24 L55,24 L55,23 Z M12,24 L12,25 L14,25 L14,26 L16,26 L16,27 L18,27 L18,28 L21,28 L21,29 L24,29 L24,30 L39,30 L39,29 L25,29 L25,28 L22,28 L22,27 L19,27 L19,26 L17,26 L17,25 L15,25 L15,24 Z M49,24 L49,25 L47,25 L47,26 L45,26 L45,27 L48,27 L48,26 L50,26 L50,25 L52,25 L52,24 Z M42,27 L42,28 L39,28 L39,29 L43,29 L43,28 L45,28 L45,27 Z M55,29 L55,30 L60,30 L60,29 Z M9,30 L9,31 L12,31 L12,30 Z M52,30 L52,31 L55,31 L55,30 Z M12,31 L12,32 L14,32 L14,33 L16,33 L16,34 L18,34 L18,35 L21,35 L21,36 L24,36 L24,37 L39,37 L39,36 L25,36 L25,35 L22,35 L22,34 L19,34 L19,33 L17,33 L17,32 L15,32 L15,31 Z M49,31 L49,32 L47,32 L47,33 L45,33 L45,34 L48,34 L48,33 L50,33 L50,32 L52,32 L52,31 Z M55,33 L55,34 L60,34 L60,33 Z M9,34 L9,35 L12,35 L12,34 Z M42,34 L42,35 L39,35 L39,36 L43,36 L43,35 L45,35 L45,34 Z M52,34 L52,35 L55,35 L55,34 Z M12,35 L12,36 L14,36 L14,37 L16,37 L16,38 L18,38 L18,39 L21,39 L21,40 L24,40 L24,41 L39,41 L39,40 L25,40 L25,39 L22,39 L22,38 L19,38 L19,37 L17,37 L17,36 L15,36 L15,35 Z M49,35 L49,36 L47,36 L47,37 L45,37 L45,38 L48,38 L48,37 L50,37 L50,36 L52,36 L52,35 Z M42,38 L42,39 L39,39 L39,40 L43,40 L43,39 L45,39 L45,38 Z M52,39 L52,40 L51,40 L51,43 L52,43 L52,44 L56,44 L56,43 L57,43 L57,40 L56,40 L56,39 Z M55,46 L55,47 L60,47 L60,46 Z M9,47 L9,48 L12,48 L12,47 Z M52,47 L52,48 L55,48 L55,47 Z M12,48 L12,49 L14,49 L14,50 L16,50 L16,51 L18,51 L18,52 L21,52 L21,53 L24,53 L24,54 L39,54 L39,53 L25,53 L25,52 L22,52 L22,51 L19,51 L19,50 L17,50 L17,49 L15,49 L15,48 Z M49,48 L49,49 L47,49 L47,50 L45,50 L45,51 L48,51 L48,50 L50,50 L50,49 L52,49 L52,48 Z M42,51 L42,52 L39,52 L39,53 L43,53 L43,52 L45,52 L45,51 Z M59,52 L59,56 L58,56 L58,57 L57,57 L57,58 L56,58 L56,59 L58,59 L58,58 L59,58 L59,57 L60,57 L60,52 Z M52,59 L52,60 L56,60 L56,59 Z M45,15 L46,15 L46,16 L47,16 L47,19 L44,19 L44,16 L45,16 Z M53,40 L55,40 L55,41 L56,41 L56,42 L55,42 L55,43 L53,43 L53,42 L52,42 L52,41 L53,41 Z " fill="#EE9366" transform="translate(0,0)"/>
<path d="M0,0 L64,0 L64,52 L63,52 L63,57 L62,57 L62,59 L61,59 L61,60 L60,60 L60,61 L59,61 L59,62 L57,62 L57,63 L52,63 L52,64 L0,64 L0,60 L56,60 L56,59 L58,59 L58,58 L59,58 L59,57 L60,57 L60,18 L55,18 L55,19 L52,19 L52,20 L49,20 L49,21 L47,21 L47,22 L45,22 L45,23 L42,23 L42,24 L39,24 L39,25 L25,25 L25,24 L22,24 L22,23 L19,23 L19,22 L17,22 L17,21 L15,21 L15,20 L12,20 L12,19 L9,19 L9,18 L0,18 L0,7 L9,7 L9,6 L0,6 Z M55,6 L55,7 L60,7 L60,6 Z M9,7 L9,8 L12,8 L12,7 Z M52,7 L52,8 L55,8 L55,7 Z M12,8 L12,9 L14,9 L14,10 L16,10 L16,11 L18,11 L18,12 L21,12 L21,13 L24,13 L24,14 L39,14 L39,13 L25,13 L25,12 L22,12 L22,11 L19,11 L19,10 L17,10 L17,9 L15,9 L15,8 Z M49,8 L49,9 L47,9 L47,10 L45,10 L45,11 L48,11 L48,10 L50,10 L50,9 L52,9 L52,8 Z M42,11 L42,12 L39,12 L39,13 L43,13 L43,12 L45,12 L45,11 Z M44,14 L44,15 L43,15 L43,19 L44,19 L44,20 L47,20 L47,19 L48,19 L48,15 L47,15 L47,14 Z M45,15 L46,15 L46,16 L47,16 L47,19 L44,19 L44,16 L45,16 Z " fill="#C66A3E" transform="translate(0,0)"/>
<path d="M0,0 L8,0 L8,1 L11,1 L11,2 L14,2 L14,3 L16,3 L16,4 L18,4 L18,5 L21,5 L21,6 L24,6 L24,7 L39,7 L39,6 L43,6 L43,5 L46,5 L46,4 L48,4 L48,3 L50,3 L50,2 L53,2 L53,1 L56,1 L56,0 L60,0 L60,6 L55,6 L55,7 L52,7 L52,8 L49,8 L49,9 L47,9 L47,10 L45,10 L45,11 L42,11 L42,12 L39,12 L39,13 L25,13 L25,12 L22,12 L22,11 L19,11 L19,10 L17,10 L17,9 L15,9 L15,8 L12,8 L12,7 L9,7 L9,6 L0,6 Z " fill="#DE7E4F" transform="translate(0,23)"/>
<path d="M0,0 L1,0 L1,1 L0,1 Z M47,0 L48,0 L48,1 L47,1 Z M3,1 L4,1 L4,2 L3,2 Z M44,1 L45,1 L45,2 L44,2 Z M37,4 L38,4 L38,5 L37,5 Z " fill="#DE7E4E" transform="translate(8,23)"/>
<path d="M0,0 L60,0 L60,6 L55,6 L55,7 L52,7 L52,8 L49,8 L49,9 L47,9 L47,10 L45,10 L45,11 L42,11 L42,12 L39,12 L39,13 L25,13 L25,12 L22,12 L22,11 L19,11 L19,10 L17,10 L17,9 L15,9 L15,8 L12,8 L12,7 L9,7 L9,6 L0,6 Z " fill="#DE7E4F" transform="translate(0,0)"/>
<path d="M0,0 L8,0 L8,1 L11,1 L11,2 L14,2 L14,3 L16,3 L16,4 L18,4 L18,5 L21,5 L21,6 L24,6 L24,7 L39,7 L39,6 L43,6 L43,5 L46,5 L46,4 L48,4 L48,3 L50,3 L50,2 L53,2 L53,1 L56,1 L56,0 L60,0 L60,5 L59,5 L59,9 L58,9 L58,10 L57,10 L57,11 L56,11 L56,12 L52,12 L52,13 L0,13 Z " fill="#DE7E4F" transform="translate(0,47)"/>
<path d="M0,0 L1,0 L1,1 L0,1 Z M47,0 L48,0 L48,1 L47,1 Z M3,1 L4,1 L4,2 L3,2 Z M44,1 L45,1 L45,2 L44,2 Z M37,4 L38,4 L38,5 L37,5 Z " fill="#DE7E4E" transform="translate(8,47)"/>
<path d="M0,0 L4,0 L4,52 L3,52 L3,57 L2,57 L2,59 L1,59 L1,60 L0,60 L0,61 L-1,61 L-1,62 L-3,62 L-3,63 L-8,63 L-8,64 L-60,64 L-60,60 L-4,60 L-4,59 L-2,59 L-2,58 L-1,58 L-1,57 L0,57 Z " fill="#353541" transform="translate(60,0)"/>
<path d="M0,0 L9,0 L9,1 L12,1 L12,2 L14,2 L14,3 L16,3 L16,4 L18,4 L18,5 L21,5 L21,6 L24,6 L24,7 L39,7 L39,6 L43,6 L43,5 L45,5 L45,4 L48,4 L48,3 L50,3 L50,2 L52,2 L52,1 L55,1 L55,0 L60,0 L60,3 L55,3 L55,4 L52,4 L52,5 L49,5 L49,6 L47,6 L47,7 L45,7 L45,8 L42,8 L42,9 L39,9 L39,10 L25,10 L25,9 L22,9 L22,8 L19,8 L19,7 L17,7 L17,6 L15,6 L15,5 L12,5 L12,4 L9,4 L9,3 L0,3 Z " fill="#EE9366" transform="translate(0,19)"/>
<path d="M0,0 L9,0 L9,1 L12,1 L12,2 L14,2 L14,3 L16,3 L16,4 L18,4 L18,5 L21,5 L21,6 L24,6 L24,7 L39,7 L39,6 L43,6 L43,5 L45,5 L45,4 L48,4 L48,3 L50,3 L50,2 L52,2 L52,1 L55,1 L55,0 L60,0 L60,3 L55,3 L55,4 L52,4 L52,5 L49,5 L49,6 L47,6 L47,7 L45,7 L45,8 L42,8 L42,9 L39,9 L39,10 L25,10 L25,9 L22,9 L22,8 L19,8 L19,7 L17,7 L17,6 L15,6 L15,5 L12,5 L12,4 L9,4 L9,3 L0,3 Z " fill="#C66A3E" transform="translate(0,30)"/>
<path d="M0,0 L1,0 L1,1 L2,1 L2,4 L-1,4 L-1,1 L0,1 Z " fill="#DE7E4F" transform="translate(45,15)"/>
<path d="M0,0 L2,0 L2,1 L3,1 L3,2 L2,2 L2,3 L0,3 L0,2 L-1,2 L-1,1 L0,1 Z " fill="#DE7E4F" transform="translate(53,40)"/>
<path d="M0,0 L1,0 L1,1 L0,1 Z " fill="#EE9366" opacity="0.9607843" transform="translate(32,53)"/>
<path d="M0,0 L1,0 L1,1 L0,1 Z " fill="#C96B3F" opacity="0.9607843" transform="translate(32,40)"/>
<path d="M0,0 L1,0 L1,1 L0,1 Z " fill="#DE7D4D" opacity="0.9607843" transform="translate(32,36)"/>
<path d="M0,0 L1,0 L1,1 L0,1 Z " fill="#DE7D4D" opacity="0.9607843" transform="translate(32,13)"/>
<path d="M0,0 L1,0 L1,1 L0,1 Z " fill="#C76A3D" opacity="0.8352941" transform="translate(4,29)"/>
<path d="M0,0 L1,0 L1,1 L0,1 Z " fill="#C76A3D" opacity="0.8352941" transform="translate(4,6)"/>
<path d="M0,0 L1,0 L1,1 L0,1 Z " fill="#DE7E4F" transform="translate(0,47)"/>
<path d="M0,0 L1,0 L1,1 L0,1 Z M-1,1 L0,1 L0,2 L-1,2 Z " fill="#DE7E4F" transform="translate(53,40)"/>
<path d="M0,0 L1,0 L1,1 L0,1 Z " fill="#DE7E4F" transform="translate(0,23)"/>
<path d="M0,0 L1,0 L1,1 L0,1 Z M-1,1 L0,1 L0,2 L-1,2 Z " fill="#DE7E4F" transform="translate(45,15)"/>
<path d="M0,0 L1,0 L1,1 L0,1 Z " fill="#ED9164" opacity="0.81960785" transform="translate(28,53)"/>
<path d="M0,0 L1,0 L1,1 L0,1 Z " fill="#EC8D60" opacity="0.75686276" transform="translate(57,46)"/>
<path d="M0,0 L1,0 L1,1 L0,1 Z " fill="#D27649" opacity="0.81960785" transform="translate(28,40)"/>
<path d="M0,0 L1,0 L1,1 L0,1 Z " fill="#D77849" opacity="0.81960785" transform="translate(28,36)"/>
<path d="M0,0 L1,0 L1,1 L0,1 Z " fill="#EC9063" opacity="0.827451" transform="translate(59,33)"/>
<path d="M0,0 L1,0 L1,1 L0,1 Z " fill="#C66A3F" opacity="0.827451" transform="translate(59,29)"/>
<path d="M0,0 L1,0 L1,1 L0,1 Z " fill="#ED9164" opacity="0.81960785" transform="translate(28,29)"/>
<path d="M0,0 L1,0 L1,1 L0,1 Z " fill="#CC6E42" opacity="0.9098039" transform="translate(30,25)"/>
<path d="M0,0 L1,0 L1,1 L0,1 Z " fill="#EC8D60" opacity="0.75686276" transform="translate(57,22)"/>
<path d="M0,0 L1,0 L1,1 L0,1 Z " fill="#EC9063" opacity="0.827451" transform="translate(59,18)"/>
<path d="M0,0 L1,0 L1,1 L0,1 Z " fill="#D77849" opacity="0.81960785" transform="translate(28,13)"/>
<path d="M0,0 L1,0 L1,1 L0,1 Z " fill="#C66A3F" opacity="0.827451" transform="translate(59,6)"/>
<path d="M0,0 L1,0 L1,1 L0,1 Z " fill="#333340" opacity="0.3137255" transform="translate(56,63)"/>
<path d="M0,0 L1,0 L1,1 L0,1 Z " fill="#32323F" opacity="0.31764707" transform="translate(63,56)"/>
<path d="M0,0 L1,0 L1,1 L0,1 Z " fill="#EA8F61" opacity="0.7647059" transform="translate(36,53)"/>
<path d="M0,0 L1,0 L1,1 L0,1 Z " fill="#EA8D5F" opacity="0.75686276" transform="translate(6,46)"/>
<path d="M0,0 L1,0 L1,1 L0,1 Z " fill="#DB7F52" opacity="0.7647059" transform="translate(36,40)"/>
<path d="M0,0 L1,0 L1,1 L0,1 Z " fill="#D27345" opacity="0.7647059" transform="translate(36,36)"/>
<path d="M0,0 L1,0 L1,1 L0,1 Z " fill="#DE8053" opacity="0.75686276" transform="translate(6,33)"/>
<path d="M0,0 L1,0 L1,1 L0,1 Z " fill="#EA8F61" opacity="0.7647059" transform="translate(36,29)"/>
<path d="M0,0 L1,0 L1,1 L0,1 Z " fill="#D07244" opacity="0.75686276" transform="translate(6,29)"/>
<path d="M0,0 L1,0 L1,1 L0,1 Z " fill="#DB7F52" opacity="0.7647059" transform="translate(36,25)"/>
<path d="M0,0 L1,0 L1,1 L0,1 Z " fill="#EA8D5F" opacity="0.75686276" transform="translate(6,22)"/>
<path d="M0,0 L1,0 L1,1 L0,1 Z " fill="#D67548" opacity="0.7921569" transform="translate(45,19)"/>
<path d="M0,0 L1,0 L1,1 L0,1 Z " fill="#DE8053" opacity="0.75686276" transform="translate(6,18)"/>
<path d="M0,0 L1,0 L1,1 L0,1 Z " fill="#DB7C4D" opacity="0.94509804" transform="translate(47,17)"/>
<path d="M0,0 L1,0 L1,1 L0,1 Z " fill="#D27345" opacity="0.7647059" transform="translate(36,13)"/>
<path d="M0,0 L1,0 L1,1 L0,1 Z " fill="#D07244" opacity="0.75686276" transform="translate(6,6)"/>
<path d="M0,0 L1,0 L1,1 L0,1 Z " fill="#343441" opacity="0.76862746" transform="translate(54,63)"/>
<path d="M0,0 L1,0 L1,1 L0,1 Z " fill="#343441" opacity="0.03529412" transform="translate(59,62)"/>
<path d="M0,0 L1,0 L1,1 L0,1 Z " fill="#343440" opacity="0.03529412" transform="translate(62,59)"/>
<path d="M0,0 L1,0 L1,1 L0,1 Z " fill="#875646" opacity="0.7647059" transform="translate(54,59)"/>
<path d="M0,0 L1,0 L1,1 L0,1 Z " fill="#433A40" opacity="0.8039216" transform="translate(59,55)"/>
<path d="M0,0 L1,0 L1,1 L0,1 Z " fill="#343440" opacity="0.78039217" transform="translate(63,54)"/>
<path d="M0,0 L1,0 L1,1 L0,1 Z " fill="#EC9264" opacity="0.83137256" transform="translate(34,53)"/>
<path d="M0,0 L1,0 L1,1 L0,1 Z " fill="#EE9265" opacity="0.9098039" transform="translate(30,53)"/>
<path d="M0,0 L1,0 L1,1 L0,1 Z " fill="#E6895B" opacity="0.7607843" transform="translate(26,53)"/>
<path d="M0,0 L1,0 L1,1 L0,1 Z " fill="#E8895B" opacity="0.7607843" transform="translate(41,52)"/>
<path d="M0,0 L1,0 L1,1 L0,1 Z " fill="#ED9064" opacity="0.8" transform="translate(23,52)"/>
<path d="M0,0 L1,0 L1,1 L0,1 Z " fill="#E28354" opacity="0.8235294" transform="translate(44,51)"/>
<path d="M0,0 L1,0 L1,1 L0,1 Z " fill="#ED9163" opacity="0.80784315" transform="translate(20,51)"/>
<path d="M0,0 L1,0 L1,1 L0,1 Z " fill="#DF7F4F" opacity="0.96862745" transform="translate(47,50)"/>
<path d="M0,0 L1,0 L1,1 L0,1 Z " fill="#ED9265" opacity="0.8901961" transform="translate(18,50)"/>
<path d="M0,0 L1,0 L1,1 L0,1 Z " fill="#E17E50" opacity="0.91764706" transform="translate(49,49)"/>
<path d="M0,0 L1,0 L1,1 L0,1 Z " fill="#EE9265" opacity="0.9411765" transform="translate(16,49)"/>
<path d="M0,0 L1,0 L1,1 L0,1 Z " fill="#E18254" opacity="0.85490197" transform="translate(51,48)"/>
<path d="M0,0 L1,0 L1,1 L0,1 Z " fill="#EE9366" opacity="0.98039216" transform="translate(14,48)"/>
<path d="M0,0 L1,0 L1,1 L0,1 Z " fill="#E28152" opacity="0.8509804" transform="translate(54,47)"/>
<path d="M0,0 L1,0 L1,1 L0,1 Z " fill="#E98C5E" opacity="0.7529412" transform="translate(10,47)"/>
<path d="M0,0 L1,0 L1,1 L0,1 Z " fill="#E18354" opacity="0.8352941" transform="translate(4,46)"/>
<path d="M0,0 L1,0 L1,1 L0,1 Z " fill="#DF8050" opacity="0.90588236" transform="translate(2,46)"/>
<path d="M0,0 L1,0 L1,1 L0,1 Z " fill="#E28151" opacity="0.88235295" transform="translate(54,43)"/>
<path d="M0,0 L1,0 L1,1 L0,1 Z " fill="#ED9263" opacity="0.8745098" transform="translate(56,42)"/>
<path d="M0,0 L1,0 L1,1 L0,1 Z " fill="#ED9165" opacity="0.88235295" transform="translate(51,42)"/>
<path d="M0,0 L1,0 L1,1 L0,1 Z " fill="#D07347" opacity="0.83137256" transform="translate(34,40)"/>
<path d="M0,0 L1,0 L1,1 L0,1 Z " fill="#CC6E42" opacity="0.9098039" transform="translate(30,40)"/>
<path d="M0,0 L1,0 L1,1 L0,1 Z " fill="#E5895C" opacity="0.7607843" transform="translate(26,40)"/>
<path d="M0,0 L1,0 L1,1 L0,1 Z " fill="#E08151" opacity="0.89411765" transform="translate(54,39)"/>
<path d="M0,0 L1,0 L1,1 L0,1 Z " fill="#E5895B" opacity="0.7607843" transform="translate(41,39)"/>
<path d="M0,0 L1,0 L1,1 L0,1 Z " fill="#D4784B" opacity="0.8" transform="translate(23,39)"/>
<path d="M0,0 L1,0 L1,1 L0,1 Z " fill="#EC8F62" opacity="0.8235294" transform="translate(44,38)"/>
<path d="M0,0 L1,0 L1,1 L0,1 Z " fill="#D4774A" opacity="0.80784315" transform="translate(20,38)"/>
<path d="M0,0 L1,0 L1,1 L0,1 Z " fill="#EE9365" opacity="0.96862745" transform="translate(47,37)"/>
<path d="M0,0 L1,0 L1,1 L0,1 Z " fill="#ED9164" opacity="0.91764706" transform="translate(49,36)"/>
<path d="M0,0 L1,0 L1,1 L0,1 Z " fill="#D87749" opacity="0.83137256" transform="translate(34,36)"/>
<path d="M0,0 L1,0 L1,1 L0,1 Z " fill="#DB7B4C" opacity="0.9098039" transform="translate(30,36)"/>
<path d="M0,0 L1,0 L1,1 L0,1 Z " fill="#CB6E41" opacity="0.7607843" transform="translate(26,36)"/>
<path d="M0,0 L1,0 L1,1 L0,1 Z " fill="#ED9163" opacity="0.85490197" transform="translate(51,35)"/>
<path d="M0,0 L1,0 L1,1 L0,1 Z " fill="#CC6E40" opacity="0.7607843" transform="translate(41,35)"/>
<path d="M0,0 L1,0 L1,1 L0,1 Z " fill="#D67548" opacity="0.8" transform="translate(23,35)"/>
<path d="M0,0 L1,0 L1,1 L0,1 Z " fill="#C76A3E" opacity="0.98039216" transform="translate(14,35)"/>
<path d="M0,0 L1,0 L1,1 L0,1 Z " fill="#ED9164" opacity="0.8509804" transform="translate(54,34)"/>
<path d="M0,0 L1,0 L1,1 L0,1 Z " fill="#C76B3E" opacity="0.8235294" transform="translate(44,34)"/>
<path d="M0,0 L1,0 L1,1 L0,1 Z " fill="#D67748" opacity="0.80784315" transform="translate(20,34)"/>
<path d="M0,0 L1,0 L1,1 L0,1 Z " fill="#CE7043" opacity="0.8745098" transform="translate(11,34)"/>
<path d="M0,0 L1,0 L1,1 L0,1 Z " fill="#EE9366" transform="translate(0,34)"/>
<path d="M0,0 L1,0 L1,1 L0,1 Z " fill="#DC8053" opacity="0.75686276" transform="translate(57,33)"/>
<path d="M0,0 L1,0 L1,1 L0,1 Z " fill="#C5693E" opacity="0.96862745" transform="translate(47,33)"/>
<path d="M0,0 L1,0 L1,1 L0,1 Z " fill="#DB7A4B" opacity="0.8901961" transform="translate(18,33)"/>
<path d="M0,0 L1,0 L1,1 L0,1 Z " fill="#EB8F62" opacity="0.8352941" transform="translate(4,33)"/>
<path d="M0,0 L1,0 L1,1 L0,1 Z " fill="#ED9264" opacity="0.90588236" transform="translate(2,33)"/>
<path d="M0,0 L1,0 L1,1 L0,1 Z " fill="#C76A3D" opacity="0.91764706" transform="translate(49,32)"/>
<path d="M0,0 L1,0 L1,1 L0,1 Z " fill="#DC7B4C" opacity="0.9411765" transform="translate(16,32)"/>
<path d="M0,0 L1,0 L1,1 L0,1 Z " fill="#C76A3E" opacity="0.85490197" transform="translate(51,31)"/>
<path d="M0,0 L1,0 L1,1 L0,1 Z " fill="#DE7C4C" opacity="0.98039216" transform="translate(14,31)"/>
<path d="M0,0 L1,0 L1,1 L0,1 Z " fill="#C76A3D" opacity="0.8509804" transform="translate(54,30)"/>
<path d="M0,0 L1,0 L1,1 L0,1 Z " fill="#DA794A" opacity="0.8745098" transform="translate(11,30)"/>
<path d="M0,0 L1,0 L1,1 L0,1 Z " fill="#C66A3E" transform="translate(0,30)"/>
<path d="M0,0 L1,0 L1,1 L0,1 Z " fill="#D17343" opacity="0.75686276" transform="translate(57,29)"/>
<path d="M0,0 L1,0 L1,1 L0,1 Z " fill="#EC9264" opacity="0.83137256" transform="translate(34,29)"/>
<path d="M0,0 L1,0 L1,1 L0,1 Z " fill="#EE9366" opacity="0.9607843" transform="translate(32,29)"/>
<path d="M0,0 L1,0 L1,1 L0,1 Z " fill="#EE9265" opacity="0.9098039" transform="translate(30,29)"/>
<path d="M0,0 L1,0 L1,1 L0,1 Z " fill="#E6895B" opacity="0.7607843" transform="translate(26,29)"/>
<path d="M0,0 L1,0 L1,1 L0,1 Z " fill="#C6693C" opacity="0.90588236" transform="translate(2,29)"/>
<path d="M0,0 L1,0 L1,1 L0,1 Z " fill="#E8895B" opacity="0.7607843" transform="translate(41,28)"/>
<path d="M0,0 L1,0 L1,1 L0,1 Z " fill="#ED9064" opacity="0.8" transform="translate(23,28)"/>
<path d="M0,0 L1,0 L1,1 L0,1 Z " fill="#E28354" opacity="0.8235294" transform="translate(44,27)"/>
<path d="M0,0 L1,0 L1,1 L0,1 Z " fill="#ED9163" opacity="0.80784315" transform="translate(20,27)"/>
<path d="M0,0 L1,0 L1,1 L0,1 Z " fill="#DF7F4F" opacity="0.96862745" transform="translate(47,26)"/>
<path d="M0,0 L1,0 L1,1 L0,1 Z " fill="#ED9265" opacity="0.8901961" transform="translate(18,26)"/>
<path d="M0,0 L1,0 L1,1 L0,1 Z " fill="#D07347" opacity="0.83137256" transform="translate(34,25)"/>
<path d="M0,0 L1,0 L1,1 L0,1 Z " fill="#C96B3F" opacity="0.9607843" transform="translate(32,25)"/>
<path d="M0,0 L1,0 L1,1 L0,1 Z " fill="#D27649" opacity="0.81960785" transform="translate(28,25)"/>
<path d="M0,0 L1,0 L1,1 L0,1 Z " fill="#E5895C" opacity="0.7607843" transform="translate(26,25)"/>
<path d="M0,0 L1,0 L1,1 L0,1 Z " fill="#EE9265" opacity="0.9411765" transform="translate(16,25)"/>
<path d="M0,0 L1,0 L1,1 L0,1 Z " fill="#E18254" opacity="0.85490197" transform="translate(51,24)"/>
<path d="M0,0 L1,0 L1,1 L0,1 Z " fill="#E5895B" opacity="0.7607843" transform="translate(41,24)"/>
<path d="M0,0 L1,0 L1,1 L0,1 Z " fill="#D4784B" opacity="0.8" transform="translate(23,24)"/>
<path d="M0,0 L1,0 L1,1 L0,1 Z " fill="#E28152" opacity="0.8509804" transform="translate(54,23)"/>
<path d="M0,0 L1,0 L1,1 L0,1 Z " fill="#EC8F62" opacity="0.8235294" transform="translate(44,23)"/>
<path d="M0,0 L1,0 L1,1 L0,1 Z " fill="#E98C5E" opacity="0.7529412" transform="translate(10,23)"/>
<path d="M0,0 L1,0 L1,1 L0,1 Z " fill="#EE9365" opacity="0.96862745" transform="translate(47,22)"/>
<path d="M0,0 L1,0 L1,1 L0,1 Z " fill="#E18354" opacity="0.8352941" transform="translate(4,22)"/>
<path d="M0,0 L1,0 L1,1 L0,1 Z " fill="#DF8050" opacity="0.90588236" transform="translate(2,22)"/>
<path d="M0,0 L1,0 L1,1 L0,1 Z " fill="#ED9164" opacity="0.91764706" transform="translate(49,21)"/>
<path d="M0,0 L1,0 L1,1 L0,1 Z " fill="#ED9163" opacity="0.85490197" transform="translate(51,20)"/>
<path d="M0,0 L1,0 L1,1 L0,1 Z " fill="#C76A3E" opacity="0.98039216" transform="translate(14,20)"/>
<path d="M0,0 L1,0 L1,1 L0,1 Z " fill="#ED9164" opacity="0.8509804" transform="translate(54,19)"/>
<path d="M0,0 L1,0 L1,1 L0,1 Z " fill="#CE7043" opacity="0.8745098" transform="translate(11,19)"/>
<path d="M0,0 L1,0 L1,1 L0,1 Z " fill="#EE9366" transform="translate(0,19)"/>
<path d="M0,0 L1,0 L1,1 L0,1 Z " fill="#DC8053" opacity="0.75686276" transform="translate(57,18)"/>
<path d="M0,0 L1,0 L1,1 L0,1 Z " fill="#EB8F62" opacity="0.8352941" transform="translate(4,18)"/>
<path d="M0,0 L1,0 L1,1 L0,1 Z " fill="#ED9264" opacity="0.90588236" transform="translate(2,18)"/>
<path d="M0,0 L1,0 L1,1 L0,1 Z " fill="#C66A3D" opacity="0.972549" transform="translate(46,14)"/>
<path d="M0,0 L1,0 L1,1 L0,1 Z " fill="#D87749" opacity="0.83137256" transform="translate(34,13)"/>
<path d="M0,0 L1,0 L1,1 L0,1 Z " fill="#DB7B4C" opacity="0.9098039" transform="translate(30,13)"/>
<path d="M0,0 L1,0 L1,1 L0,1 Z " fill="#CB6E41" opacity="0.7607843" transform="translate(26,13)"/>
<path d="M0,0 L1,0 L1,1 L0,1 Z " fill="#CC6E40" opacity="0.7607843" transform="translate(41,12)"/>
<path d="M0,0 L1,0 L1,1 L0,1 Z " fill="#D67548" opacity="0.8" transform="translate(23,12)"/>
<path d="M0,0 L1,0 L1,1 L0,1 Z " fill="#C76B3E" opacity="0.8235294" transform="translate(44,11)"/>
<path d="M0,0 L1,0 L1,1 L0,1 Z " fill="#D67748" opacity="0.80784315" transform="translate(20,11)"/>
<path d="M0,0 L1,0 L1,1 L0,1 Z " fill="#C5693E" opacity="0.96862745" transform="translate(47,10)"/>
<path d="M0,0 L1,0 L1,1 L0,1 Z " fill="#DB7A4B" opacity="0.8901961" transform="translate(18,10)"/>
<path d="M0,0 L1,0 L1,1 L0,1 Z " fill="#C76A3D" opacity="0.91764706" transform="translate(49,9)"/>
<path d="M0,0 L1,0 L1,1 L0,1 Z " fill="#DC7B4C" opacity="0.9411765" transform="translate(16,9)"/>
<path d="M0,0 L1,0 L1,1 L0,1 Z " fill="#C76A3E" opacity="0.85490197" transform="translate(51,8)"/>
<path d="M0,0 L1,0 L1,1 L0,1 Z " fill="#DE7C4C" opacity="0.98039216" transform="translate(14,8)"/>
<path d="M0,0 L1,0 L1,1 L0,1 Z " fill="#C76A3D" opacity="0.8509804" transform="translate(54,7)"/>
<path d="M0,0 L1,0 L1,1 L0,1 Z " fill="#DA794A" opacity="0.8745098" transform="translate(11,7)"/>
<path d="M0,0 L1,0 L1,1 L0,1 Z " fill="#C66A3E" transform="translate(0,7)"/>
<path d="M0,0 L1,0 L1,1 L0,1 Z " fill="#D17343" opacity="0.75686276" transform="translate(57,6)"/>
<path d="M0,0 L1,0 L1,1 L0,1 Z " fill="#C6693C" opacity="0.90588236" transform="translate(2,6)"/>
<path d="M0,0 L1,0 L1,1 L0,1 Z " fill="#343440" opacity="0.02745098" transform="translate(57,63)"/>
<path d="M0,0 L1,0 L1,1 L0,1 Z " fill="#343441" opacity="0.5529412" transform="translate(55,63)"/>
<path d="M0,0 L1,0 L1,1 L0,1 Z " fill="#343440" opacity="0.8745098" transform="translate(53,63)"/>
<path d="M0,0 L1,0 L1,1 L0,1 Z " fill="#343440" opacity="0.96862745" transform="translate(52,63)"/>
<path d="M0,0 L1,0 L1,1 L0,1 Z " fill="#343440" opacity="0.49803922" transform="translate(58,62)"/>
<path d="M0,0 L1,0 L1,1 L0,1 Z " fill="#343440" opacity="0.91764706" transform="translate(57,62)"/>
<path d="M0,0 L1,0 L1,1 L0,1 Z " fill="#33333E" opacity="0.1764706" transform="translate(60,61)"/>
<path d="M0,0 L1,0 L1,1 L0,1 Z " fill="#343441" opacity="0.84705883" transform="translate(59,61)"/>
<path d="M0,0 L1,0 L1,1 L0,1 Z " fill="#343440" opacity="0.17254902" transform="translate(61,60)"/>
<path d="M0,0 L1,0 L1,1 L0,1 Z " fill="#343440" opacity="0.92156863" transform="translate(60,60)"/>
<path d="M0,0 L1,0 L1,1 L0,1 Z " fill="#353541" transform="translate(0,60)"/>
<path d="M0,0 L1,0 L1,1 L0,1 Z " fill="#343441" opacity="0.84705883" transform="translate(61,59)"/>
<path d="M0,0 L1,0 L1,1 L0,1 Z " fill="#453B41" opacity="0.79607844" transform="translate(55,59)"/>
<path d="M0,0 L1,0 L1,1 L0,1 Z " fill="#AD6749" opacity="0.8235294" transform="translate(53,59)"/>
<path d="M0,0 L1,0 L1,1 L0,1 Z " fill="#CF764D" opacity="0.92941177" transform="translate(52,59)"/>
<path d="M0,0 L1,0 L1,1 L0,1 Z " fill="#343440" opacity="0.5019608" transform="translate(62,58)"/>
<path d="M0,0 L1,0 L1,1 L0,1 Z " fill="#3E3840" opacity="0.8352941" transform="translate(57,58)"/>
<path d="M0,0 L1,0 L1,1 L0,1 Z " fill="#B16A4A" opacity="0.83137256" transform="translate(56,58)"/>
<path d="M0,0 L1,0 L1,1 L0,1 Z " fill="#32323F" opacity="0.02745098" transform="translate(63,57)"/>
<path d="M0,0 L1,0 L1,1 L0,1 Z " fill="#343440" opacity="0.91764706" transform="translate(62,57)"/>
<path d="M0,0 L1,0 L1,1 L0,1 Z " fill="#3D3841" opacity="0.83137256" transform="translate(58,57)"/>
<path d="M0,0 L1,0 L1,1 L0,1 Z " fill="#D6794E" opacity="0.9647059" transform="translate(57,57)"/>
<path d="M0,0 L1,0 L1,1 L0,1 Z " fill="#343440" opacity="0.99215686" transform="translate(59,56)"/>
<path d="M0,0 L1,0 L1,1 L0,1 Z " fill="#C3714C" opacity="0.88235295" transform="translate(58,56)"/>
<path d="M0,0 L1,0 L1,1 L0,1 Z " fill="#333340" opacity="0.56078434" transform="translate(63,55)"/>
<path d="M0,0 L1,0 L1,1 L0,1 Z " fill="#865847" opacity="0.7607843" transform="translate(59,54)"/>
<path d="M0,0 L1,0 L1,1 L0,1 Z " fill="#343440" opacity="0.8862745" transform="translate(63,53)"/>
<path d="M0,0 L1,0 L1,1 L0,1 Z " fill="#C3714C" opacity="0.88235295" transform="translate(59,53)"/>
<path d="M0,0 L1,0 L1,1 L0,1 Z " fill="#E18253" opacity="0.85490197" transform="translate(38,53)"/>
<path d="M0,0 L1,0 L1,1 L0,1 Z " fill="#E9895B" opacity="0.75686276" transform="translate(37,53)"/>
<path d="M0,0 L1,0 L1,1 L0,1 Z " fill="#EC8F63" opacity="0.7882353" transform="translate(35,53)"/>
<path d="M0,0 L1,0 L1,1 L0,1 Z " fill="#ED9364" opacity="0.8862745" transform="translate(33,53)"/>
<path d="M0,0 L1,0 L1,1 L0,1 Z " fill="#EE9266" opacity="0.972549" transform="translate(31,53)"/>
<path d="M0,0 L1,0 L1,1 L0,1 Z " fill="#EE9264" opacity="0.85882354" transform="translate(29,53)"/>
<path d="M0,0 L1,0 L1,1 L0,1 Z " fill="#E98F61" opacity="0.7647059" transform="translate(27,53)"/>
<path d="M0,0 L1,0 L1,1 L0,1 Z " fill="#E28252" opacity="0.8392157" transform="translate(25,53)"/>
<path d="M0,0 L1,0 L1,1 L0,1 Z " fill="#DF7F4F" opacity="0.9764706" transform="translate(24,53)"/>
<path d="M0,0 L1,0 L1,1 L0,1 Z " fill="#343441" opacity="0.972549" transform="translate(63,52)"/>
<path d="M0,0 L1,0 L1,1 L0,1 Z " fill="#D67A4D" opacity="0.9607843" transform="translate(59,52)"/>
<path d="M0,0 L1,0 L1,1 L0,1 Z " fill="#E18151" opacity="0.9098039" transform="translate(42,52)"/>
<path d="M0,0 L1,0 L1,1 L0,1 Z " fill="#EB9061" opacity="0.78039217" transform="translate(40,52)"/>
<path d="M0,0 L1,0 L1,1 L0,1 Z " fill="#EE9265" opacity="0.92941177" transform="translate(39,52)"/>
<path d="M0,0 L1,0 L1,1 L0,1 Z " fill="#EE9265" opacity="0.9843137" transform="translate(24,52)"/>
<path d="M0,0 L1,0 L1,1 L0,1 Z " fill="#E6895B" opacity="0.7607843" transform="translate(22,52)"/>
<path d="M0,0 L1,0 L1,1 L0,1 Z " fill="#E07F51" opacity="0.92941177" transform="translate(21,52)"/>
<path d="M0,0 L1,0 L1,1 L0,1 Z " fill="#DE7E4E" transform="translate(45,51)"/>
<path d="M0,0 L1,0 L1,1 L0,1 Z " fill="#ED8F62" opacity="0.7764706" transform="translate(43,51)"/>
<path d="M0,0 L1,0 L1,1 L0,1 Z " fill="#EE9365" opacity="0.9882353" transform="translate(42,51)"/>
<path d="M0,0 L1,0 L1,1 L0,1 Z " fill="#EE9266" opacity="0.99215686" transform="translate(21,51)"/>
<path d="M0,0 L1,0 L1,1 L0,1 Z " fill="#E68758" opacity="0.78039217" transform="translate(19,51)"/>
<path d="M0,0 L1,0 L1,1 L0,1 Z " fill="#DE7E4D" opacity="0.99215686" transform="translate(18,51)"/>
<path d="M0,0 L1,0 L1,1 L0,1 Z " fill="#E7885A" opacity="0.7647059" transform="translate(46,50)"/>
<path d="M0,0 L1,0 L1,1 L0,1 Z " fill="#EE9264" opacity="0.8509804" transform="translate(45,50)"/>
<path d="M0,0 L1,0 L1,1 L0,1 Z " fill="#E9895B" opacity="0.75686276" transform="translate(17,50)"/>
<path d="M0,0 L1,0 L1,1 L0,1 Z " fill="#E07F4F" opacity="0.9607843" transform="translate(16,50)"/>
<path d="M0,0 L1,0 L1,1 L0,1 Z " fill="#E98C5E" opacity="0.7529412" transform="translate(48,49)"/>
<path d="M0,0 L1,0 L1,1 L0,1 Z " fill="#EE9265" opacity="0.9372549" transform="translate(47,49)"/>
<path d="M0,0 L1,0 L1,1 L0,1 Z " fill="#EA8D5E" opacity="0.7529412" transform="translate(15,49)"/>
<path d="M0,0 L1,0 L1,1 L0,1 Z " fill="#E18050" opacity="0.9137255" transform="translate(14,49)"/>
<path d="M0,0 L1,0 L1,1 L0,1 Z " fill="#DE7E4E" transform="translate(52,48)"/>
<path d="M0,0 L1,0 L1,1 L0,1 Z " fill="#E98F61" opacity="0.7647059" transform="translate(50,48)"/>
<path d="M0,0 L1,0 L1,1 L0,1 Z " fill="#EE9365" opacity="0.9764706" transform="translate(49,48)"/>
<path d="M0,0 L1,0 L1,1 L0,1 Z " fill="#EA8F61" opacity="0.7647059" transform="translate(13,48)"/>
<path d="M0,0 L1,0 L1,1 L0,1 Z " fill="#E28253" opacity="0.8509804" transform="translate(12,48)"/>
<path d="M0,0 L1,0 L1,1 L0,1 Z " fill="#E98C5D" opacity="0.7529412" transform="translate(53,47)"/>
<path d="M0,0 L1,0 L1,1 L0,1 Z " fill="#ED9264" opacity="0.87058824" transform="translate(52,47)"/>
<path d="M0,0 L1,0 L1,1 L0,1 Z " fill="#EE9165" opacity="0.8745098" transform="translate(11,47)"/>
<path d="M0,0 L1,0 L1,1 L0,1 Z " fill="#E28354" opacity="0.84705883" transform="translate(9,47)"/>
<path d="M0,0 L1,0 L1,1 L0,1 Z " fill="#DE7E4E" transform="translate(8,47)"/>
<path d="M0,0 L1,0 L1,1 L0,1 Z " fill="#E28354" opacity="0.827451" transform="translate(59,46)"/>
<path d="M0,0 L1,0 L1,1 L0,1 Z " fill="#E68959" opacity="0.7607843" transform="translate(58,46)"/>
<path d="M0,0 L1,0 L1,1 L0,1 Z " fill="#ED9263" opacity="0.8235294" transform="translate(56,46)"/>
<path d="M0,0 L1,0 L1,1 L0,1 Z " fill="#EE9365" opacity="0.9490196" transform="translate(55,46)"/>
<path d="M0,0 L1,0 L1,1 L0,1 Z " fill="#ED9265" opacity="0.94509804" transform="translate(8,46)"/>
<path d="M0,0 L1,0 L1,1 L0,1 Z " fill="#ED9163" opacity="0.8156863" transform="translate(7,46)"/>
<path d="M0,0 L1,0 L1,1 L0,1 Z " fill="#E7885A" opacity="0.7647059" transform="translate(5,46)"/>
<path d="M0,0 L1,0 L1,1 L0,1 Z " fill="#E28151" opacity="0.87058824" transform="translate(3,46)"/>
<path d="M0,0 L1,0 L1,1 L0,1 Z " fill="#E08051" opacity="0.9411765" transform="translate(1,46)"/>
<path d="M0,0 L1,0 L1,1 L0,1 Z " fill="#DE7F4E" opacity="0.9843137" transform="translate(0,46)"/>
<path d="M0,0 L1,0 L1,1 L0,1 Z " fill="#EC9164" opacity="0.8392157" transform="translate(55,43)"/>
<path d="M0,0 L1,0 L1,1 L0,1 Z " fill="#E08051" opacity="0.89411765" transform="translate(53,43)"/>
<path d="M0,0 L1,0 L1,1 L0,1 Z " fill="#ED9163" opacity="0.8235294" transform="translate(52,43)"/>
<path d="M0,0 L1,0 L1,1 L0,1 Z " fill="#DF7F4F" opacity="0.9529412" transform="translate(55,42)"/>
<path d="M0,0 L1,0 L1,1 L0,1 Z " fill="#DF7F4F" opacity="0.94509804" transform="translate(52,42)"/>
<path d="M0,0 L1,0 L1,1 L0,1 Z " fill="#EA8D5E" opacity="0.7529412" transform="translate(56,41)"/>
<path d="M0,0 L1,0 L1,1 L0,1 Z " fill="#EA8C5F" opacity="0.75686276" transform="translate(51,41)"/>
<path d="M0,0 L1,0 L1,1 L0,1 Z " fill="#ED9365" opacity="0.8666667" transform="translate(56,40)"/>
<path d="M0,0 L1,0 L1,1 L0,1 Z " fill="#E07F4F" opacity="0.9607843" transform="translate(55,40)"/>
<path d="M0,0 L1,0 L1,1 L0,1 Z " fill="#DF804F" opacity="0.9490196" transform="translate(52,40)"/>
<path d="M0,0 L1,0 L1,1 L0,1 Z " fill="#ED9264" opacity="0.87058824" transform="translate(51,40)"/>
<path d="M0,0 L1,0 L1,1 L0,1 Z " fill="#EE9163" opacity="0.85490197" transform="translate(38,40)"/>
<path d="M0,0 L1,0 L1,1 L0,1 Z " fill="#E5885B" opacity="0.75686276" transform="translate(37,40)"/>
<path d="M0,0 L1,0 L1,1 L0,1 Z " fill="#D57A4C" opacity="0.7882353" transform="translate(35,40)"/>
<path d="M0,0 L1,0 L1,1 L0,1 Z " fill="#CD7042" opacity="0.8862745" transform="translate(33,40)"/>
<path d="M0,0 L1,0 L1,1 L0,1 Z " fill="#C86B3E" opacity="0.972549" transform="translate(31,40)"/>
<path d="M0,0 L1,0 L1,1 L0,1 Z " fill="#CD7144" opacity="0.85882354" transform="translate(29,40)"/>
<path d="M0,0 L1,0 L1,1 L0,1 Z " fill="#D97E52" opacity="0.7647059" transform="translate(27,40)"/>
<path d="M0,0 L1,0 L1,1 L0,1 Z " fill="#EB9063" opacity="0.8392157" transform="translate(25,40)"/>
<path d="M0,0 L1,0 L1,1 L0,1 Z " fill="#EE9365" opacity="0.9764706" transform="translate(24,40)"/>
<path d="M0,0 L1,0 L1,1 L0,1 Z " fill="#ED9063" opacity="0.81960785" transform="translate(55,39)"/>
<path d="M0,0 L1,0 L1,1 L0,1 Z " fill="#DF8051" opacity="0.9019608" transform="translate(53,39)"/>
<path d="M0,0 L1,0 L1,1 L0,1 Z " fill="#ED9263" opacity="0.8235294" transform="translate(52,39)"/>
<path d="M0,0 L1,0 L1,1 L0,1 Z " fill="#EE9265" opacity="0.9098039" transform="translate(42,39)"/>
<path d="M0,0 L1,0 L1,1 L0,1 Z " fill="#D87A4D" opacity="0.78039217" transform="translate(40,39)"/>
<path d="M0,0 L1,0 L1,1 L0,1 Z " fill="#C96D40" opacity="0.92941177" transform="translate(39,39)"/>
<path d="M0,0 L1,0 L1,1 L0,1 Z " fill="#C66B3E" opacity="0.9843137" transform="translate(24,39)"/>
<path d="M0,0 L1,0 L1,1 L0,1 Z " fill="#E68A5D" opacity="0.7607843" transform="translate(22,39)"/>
<path d="M0,0 L1,0 L1,1 L0,1 Z " fill="#EE9265" opacity="0.92941177" transform="translate(21,39)"/>
<path d="M0,0 L1,0 L1,1 L0,1 Z " fill="#D77C4E" opacity="0.7764706" transform="translate(43,38)"/>
<path d="M0,0 L1,0 L1,1 L0,1 Z " fill="#C7693D" opacity="0.9882353" transform="translate(42,38)"/>
<path d="M0,0 L1,0 L1,1 L0,1 Z " fill="#C66A3D" opacity="0.99215686" transform="translate(21,38)"/>
<path d="M0,0 L1,0 L1,1 L0,1 Z " fill="#E88D5F" opacity="0.78039217" transform="translate(19,38)"/>
<path d="M0,0 L1,0 L1,1 L0,1 Z " fill="#EE9266" opacity="0.99215686" transform="translate(18,38)"/>
<path d="M0,0 L1,0 L1,1 L0,1 Z " fill="#E78B5E" opacity="0.7647059" transform="translate(46,37)"/>
<path d="M0,0 L1,0 L1,1 L0,1 Z " fill="#CF7245" opacity="0.8509804" transform="translate(45,37)"/>
<path d="M0,0 L1,0 L1,1 L0,1 Z " fill="#CD6F42" opacity="0.8901961" transform="translate(18,37)"/>
<path d="M0,0 L1,0 L1,1 L0,1 Z " fill="#E5885B" opacity="0.75686276" transform="translate(17,37)"/>
<path d="M0,0 L1,0 L1,1 L0,1 Z " fill="#EE9366" opacity="0.9607843" transform="translate(16,37)"/>
<path d="M0,0 L1,0 L1,1 L0,1 Z " fill="#E08456" opacity="0.7529412" transform="translate(48,36)"/>
<path d="M0,0 L1,0 L1,1 L0,1 Z " fill="#C96C3F" opacity="0.9372549" transform="translate(47,36)"/>
<path d="M0,0 L1,0 L1,1 L0,1 Z " fill="#C6693E" opacity="0.85490197" transform="translate(38,36)"/>
<path d="M0,0 L1,0 L1,1 L0,1 Z " fill="#CC6E40" opacity="0.75686276" transform="translate(37,36)"/>
<path d="M0,0 L1,0 L1,1 L0,1 Z " fill="#D57648" opacity="0.7882353" transform="translate(35,36)"/>
<path d="M0,0 L1,0 L1,1 L0,1 Z " fill="#DB7A4A" opacity="0.8862745" transform="translate(33,36)"/>
<path d="M0,0 L1,0 L1,1 L0,1 Z " fill="#DC7C4D" opacity="0.972549" transform="translate(31,36)"/>
<path d="M0,0 L1,0 L1,1 L0,1 Z " fill="#D97949" opacity="0.85882354" transform="translate(29,36)"/>
<path d="M0,0 L1,0 L1,1 L0,1 Z " fill="#D27245" opacity="0.7647059" transform="translate(27,36)"/>
<path d="M0,0 L1,0 L1,1 L0,1 Z " fill="#C66A3E" opacity="0.8392157" transform="translate(25,36)"/>
<path d="M0,0 L1,0 L1,1 L0,1 Z " fill="#C6693D" opacity="0.9764706" transform="translate(24,36)"/>
<path d="M0,0 L1,0 L1,1 L0,1 Z " fill="#C86C40" opacity="0.9411765" transform="translate(16,36)"/>
<path d="M0,0 L1,0 L1,1 L0,1 Z " fill="#E08456" opacity="0.7529412" transform="translate(15,36)"/>
<path d="M0,0 L1,0 L1,1 L0,1 Z " fill="#ED9365" opacity="0.9137255" transform="translate(14,36)"/>
<path d="M0,0 L1,0 L1,1 L0,1 Z " fill="#D97E52" opacity="0.7647059" transform="translate(50,35)"/>
<path d="M0,0 L1,0 L1,1 L0,1 Z " fill="#C76A3E" opacity="0.9764706" transform="translate(49,35)"/>
<path d="M0,0 L1,0 L1,1 L0,1 Z " fill="#C6693C" opacity="0.9098039" transform="translate(42,35)"/>
<path d="M0,0 L1,0 L1,1 L0,1 Z " fill="#D47646" opacity="0.78039217" transform="translate(40,35)"/>
<path d="M0,0 L1,0 L1,1 L0,1 Z " fill="#DD7C4D" opacity="0.92941177" transform="translate(39,35)"/>
<path d="M0,0 L1,0 L1,1 L0,1 Z " fill="#DD7D4D" opacity="0.9843137" transform="translate(24,35)"/>
<path d="M0,0 L1,0 L1,1 L0,1 Z " fill="#CB6D40" opacity="0.7607843" transform="translate(22,35)"/>
<path d="M0,0 L1,0 L1,1 L0,1 Z " fill="#C6693D" opacity="0.92941177" transform="translate(21,35)"/>
<path d="M0,0 L1,0 L1,1 L0,1 Z " fill="#DB7E51" opacity="0.7647059" transform="translate(13,35)"/>
<path d="M0,0 L1,0 L1,1 L0,1 Z " fill="#ED9164" opacity="0.8509804" transform="translate(12,35)"/>
<path d="M0,0 L1,0 L1,1 L0,1 Z " fill="#E08456" opacity="0.7529412" transform="translate(53,34)"/>
<path d="M0,0 L1,0 L1,1 L0,1 Z " fill="#CE7144" opacity="0.87058824" transform="translate(52,34)"/>
<path d="M0,0 L1,0 L1,1 L0,1 Z " fill="#D47447" opacity="0.7764706" transform="translate(43,34)"/>
<path d="M0,0 L1,0 L1,1 L0,1 Z " fill="#DD7C4E" opacity="0.9882353" transform="translate(42,34)"/>
<path d="M0,0 L1,0 L1,1 L0,1 Z " fill="#DD7E4D" opacity="0.99215686" transform="translate(21,34)"/>
<path d="M0,0 L1,0 L1,1 L0,1 Z " fill="#C96C3F" opacity="0.78039217" transform="translate(19,34)"/>
<path d="M0,0 L1,0 L1,1 L0,1 Z " fill="#C66A3D" opacity="0.99215686" transform="translate(18,34)"/>
<path d="M0,0 L1,0 L1,1 L0,1 Z " fill="#E08456" opacity="0.7529412" transform="translate(10,34)"/>
<path d="M0,0 L1,0 L1,1 L0,1 Z " fill="#ED9163" opacity="0.84705883" transform="translate(9,34)"/>
<path d="M0,0 L1,0 L1,1 L0,1 Z " fill="#E5895C" opacity="0.7607843" transform="translate(58,33)"/>
<path d="M0,0 L1,0 L1,1 L0,1 Z " fill="#D17647" opacity="0.8235294" transform="translate(56,33)"/>
<path d="M0,0 L1,0 L1,1 L0,1 Z " fill="#C86C3F" opacity="0.9490196" transform="translate(55,33)"/>
<path d="M0,0 L1,0 L1,1 L0,1 Z " fill="#CA6C40" opacity="0.7647059" transform="translate(46,33)"/>
<path d="M0,0 L1,0 L1,1 L0,1 Z " fill="#D9784A" opacity="0.8509804" transform="translate(45,33)"/>
<path d="M0,0 L1,0 L1,1 L0,1 Z " fill="#CC6E40" opacity="0.75686276" transform="translate(17,33)"/>
<path d="M0,0 L1,0 L1,1 L0,1 Z " fill="#C6693D" opacity="0.9607843" transform="translate(16,33)"/>
<path d="M0,0 L1,0 L1,1 L0,1 Z " fill="#C96C3F" opacity="0.94509804" transform="translate(8,33)"/>
<path d="M0,0 L1,0 L1,1 L0,1 Z " fill="#D37648" opacity="0.8156863" transform="translate(7,33)"/>
<path d="M0,0 L1,0 L1,1 L0,1 Z " fill="#E78B5D" opacity="0.7647059" transform="translate(5,33)"/>
<path d="M0,0 L1,0 L1,1 L0,1 Z " fill="#EC9164" opacity="0.87058824" transform="translate(3,33)"/>
<path d="M0,0 L1,0 L1,1 L0,1 Z " fill="#ED9265" opacity="0.9411765" transform="translate(1,33)"/>
<path d="M0,0 L1,0 L1,1 L0,1 Z " fill="#EE9265" opacity="0.9843137" transform="translate(0,33)"/>
<path d="M0,0 L1,0 L1,1 L0,1 Z " fill="#CE7044" opacity="0.7529412" transform="translate(48,32)"/>
<path d="M0,0 L1,0 L1,1 L0,1 Z " fill="#DC7C4C" opacity="0.9372549" transform="translate(47,32)"/>
<path d="M0,0 L1,0 L1,1 L0,1 Z " fill="#D07042" opacity="0.7529412" transform="translate(15,32)"/>
<path d="M0,0 L1,0 L1,1 L0,1 Z " fill="#C66A3D" opacity="0.9137255" transform="translate(14,32)"/>
<path d="M0,0 L1,0 L1,1 L0,1 Z " fill="#D27245" opacity="0.7647059" transform="translate(50,31)"/>
<path d="M0,0 L1,0 L1,1 L0,1 Z " fill="#DD7D4E" opacity="0.9764706" transform="translate(49,31)"/>
<path d="M0,0 L1,0 L1,1 L0,1 Z " fill="#D27345" opacity="0.7647059" transform="translate(13,31)"/>
<path d="M0,0 L1,0 L1,1 L0,1 Z " fill="#C76A3D" opacity="0.8509804" transform="translate(12,31)"/>
<path d="M0,0 L1,0 L1,1 L0,1 Z " fill="#CE7044" opacity="0.7529412" transform="translate(53,30)"/>
<path d="M0,0 L1,0 L1,1 L0,1 Z " fill="#D97A4A" opacity="0.87058824" transform="translate(52,30)"/>
<path d="M0,0 L1,0 L1,1 L0,1 Z " fill="#CE7044" opacity="0.7529412" transform="translate(10,30)"/>
<path d="M0,0 L1,0 L1,1 L0,1 Z " fill="#C76A3D" opacity="0.84705883" transform="translate(9,30)"/>
<path d="M0,0 L1,0 L1,1 L0,1 Z " fill="#CB6D41" opacity="0.7607843" transform="translate(58,29)"/>
<path d="M0,0 L1,0 L1,1 L0,1 Z " fill="#D77747" opacity="0.8235294" transform="translate(56,29)"/>
<path d="M0,0 L1,0 L1,1 L0,1 Z " fill="#DD7C4C" opacity="0.9490196" transform="translate(55,29)"/>
<path d="M0,0 L1,0 L1,1 L0,1 Z " fill="#E18253" opacity="0.85490197" transform="translate(38,29)"/>
<path d="M0,0 L1,0 L1,1 L0,1 Z " fill="#E9895B" opacity="0.75686276" transform="translate(37,29)"/>
<path d="M0,0 L1,0 L1,1 L0,1 Z " fill="#EC8F63" opacity="0.7882353" transform="translate(35,29)"/>
<path d="M0,0 L1,0 L1,1 L0,1 Z " fill="#ED9364" opacity="0.8862745" transform="translate(33,29)"/>
<path d="M0,0 L1,0 L1,1 L0,1 Z " fill="#EE9266" opacity="0.972549" transform="translate(31,29)"/>
<path d="M0,0 L1,0 L1,1 L0,1 Z " fill="#EE9264" opacity="0.85882354" transform="translate(29,29)"/>
<path d="M0,0 L1,0 L1,1 L0,1 Z " fill="#E98F61" opacity="0.7647059" transform="translate(27,29)"/>
<path d="M0,0 L1,0 L1,1 L0,1 Z " fill="#E28252" opacity="0.8392157" transform="translate(25,29)"/>
<path d="M0,0 L1,0 L1,1 L0,1 Z " fill="#DF7F4F" opacity="0.9764706" transform="translate(24,29)"/>
<path d="M0,0 L1,0 L1,1 L0,1 Z " fill="#DC7D4D" opacity="0.94509804" transform="translate(8,29)"/>
<path d="M0,0 L1,0 L1,1 L0,1 Z " fill="#D77748" opacity="0.8156863" transform="translate(7,29)"/>
<path d="M0,0 L1,0 L1,1 L0,1 Z " fill="#CA6C40" opacity="0.7647059" transform="translate(5,29)"/>
<path d="M0,0 L1,0 L1,1 L0,1 Z " fill="#C66A3D" opacity="0.87058824" transform="translate(3,29)"/>
<path d="M0,0 L1,0 L1,1 L0,1 Z " fill="#C5693D" opacity="0.9411765" transform="translate(1,29)"/>
<path d="M0,0 L1,0 L1,1 L0,1 Z " fill="#C56A3E" opacity="0.9843137" transform="translate(0,29)"/>
<path d="M0,0 L1,0 L1,1 L0,1 Z " fill="#E18151" opacity="0.9098039" transform="translate(42,28)"/>
<path d="M0,0 L1,0 L1,1 L0,1 Z " fill="#EB9061" opacity="0.78039217" transform="translate(40,28)"/>
<path d="M0,0 L1,0 L1,1 L0,1 Z " fill="#EE9265" opacity="0.92941177" transform="translate(39,28)"/>
<path d="M0,0 L1,0 L1,1 L0,1 Z " fill="#EE9265" opacity="0.9843137" transform="translate(24,28)"/>
<path d="M0,0 L1,0 L1,1 L0,1 Z " fill="#E6895B" opacity="0.7607843" transform="translate(22,28)"/>
<path d="M0,0 L1,0 L1,1 L0,1 Z " fill="#E07F51" opacity="0.92941177" transform="translate(21,28)"/>
<path d="M0,0 L1,0 L1,1 L0,1 Z " fill="#DE7E4E" transform="translate(45,27)"/>
<path d="M0,0 L1,0 L1,1 L0,1 Z " fill="#ED8F62" opacity="0.7764706" transform="translate(43,27)"/>
<path d="M0,0 L1,0 L1,1 L0,1 Z " fill="#EE9365" opacity="0.9882353" transform="translate(42,27)"/>
<path d="M0,0 L1,0 L1,1 L0,1 Z " fill="#EE9266" opacity="0.99215686" transform="translate(21,27)"/>
<path d="M0,0 L1,0 L1,1 L0,1 Z " fill="#E68758" opacity="0.78039217" transform="translate(19,27)"/>
<path d="M0,0 L1,0 L1,1 L0,1 Z " fill="#DE7E4D" opacity="0.99215686" transform="translate(18,27)"/>
<path d="M0,0 L1,0 L1,1 L0,1 Z " fill="#E7885A" opacity="0.7647059" transform="translate(46,26)"/>
<path d="M0,0 L1,0 L1,1 L0,1 Z " fill="#EE9264" opacity="0.8509804" transform="translate(45,26)"/>
<path d="M0,0 L1,0 L1,1 L0,1 Z " fill="#E9895B" opacity="0.75686276" transform="translate(17,26)"/>
<path d="M0,0 L1,0 L1,1 L0,1 Z " fill="#E07F4F" opacity="0.9607843" transform="translate(16,26)"/>
<path d="M0,0 L1,0 L1,1 L0,1 Z " fill="#E17E50" opacity="0.91764706" transform="translate(49,25)"/>
<path d="M0,0 L1,0 L1,1 L0,1 Z " fill="#E98C5E" opacity="0.7529412" transform="translate(48,25)"/>
<path d="M0,0 L1,0 L1,1 L0,1 Z " fill="#EE9265" opacity="0.9372549" transform="translate(47,25)"/>
<path d="M0,0 L1,0 L1,1 L0,1 Z " fill="#EE9163" opacity="0.85490197" transform="translate(38,25)"/>
<path d="M0,0 L1,0 L1,1 L0,1 Z " fill="#E5885B" opacity="0.75686276" transform="translate(37,25)"/>
<path d="M0,0 L1,0 L1,1 L0,1 Z " fill="#D57A4C" opacity="0.7882353" transform="translate(35,25)"/>
<path d="M0,0 L1,0 L1,1 L0,1 Z " fill="#CD7042" opacity="0.8862745" transform="translate(33,25)"/>
<path d="M0,0 L1,0 L1,1 L0,1 Z " fill="#C86B3E" opacity="0.972549" transform="translate(31,25)"/>
<path d="M0,0 L1,0 L1,1 L0,1 Z " fill="#CD7144" opacity="0.85882354" transform="translate(29,25)"/>
<path d="M0,0 L1,0 L1,1 L0,1 Z " fill="#D97E52" opacity="0.7647059" transform="translate(27,25)"/>
<path d="M0,0 L1,0 L1,1 L0,1 Z " fill="#EB9063" opacity="0.8392157" transform="translate(25,25)"/>
<path d="M0,0 L1,0 L1,1 L0,1 Z " fill="#EE9365" opacity="0.9764706" transform="translate(24,25)"/>
<path d="M0,0 L1,0 L1,1 L0,1 Z " fill="#EA8D5E" opacity="0.7529412" transform="translate(15,25)"/>
<path d="M0,0 L1,0 L1,1 L0,1 Z " fill="#E18050" opacity="0.9137255" transform="translate(14,25)"/>
<path d="M0,0 L1,0 L1,1 L0,1 Z " fill="#DE7E4E" transform="translate(52,24)"/>
<path d="M0,0 L1,0 L1,1 L0,1 Z " fill="#E98F61" opacity="0.7647059" transform="translate(50,24)"/>
<path d="M0,0 L1,0 L1,1 L0,1 Z " fill="#EE9365" opacity="0.9764706" transform="translate(49,24)"/>
<path d="M0,0 L1,0 L1,1 L0,1 Z " fill="#EE9265" opacity="0.9098039" transform="translate(42,24)"/>
<path d="M0,0 L1,0 L1,1 L0,1 Z " fill="#D87A4D" opacity="0.78039217" transform="translate(40,24)"/>
<path d="M0,0 L1,0 L1,1 L0,1 Z " fill="#C96D40" opacity="0.92941177" transform="translate(39,24)"/>
<path d="M0,0 L1,0 L1,1 L0,1 Z " fill="#C66B3E" opacity="0.9843137" transform="translate(24,24)"/>
<path d="M0,0 L1,0 L1,1 L0,1 Z " fill="#E68A5D" opacity="0.7607843" transform="translate(22,24)"/>
<path d="M0,0 L1,0 L1,1 L0,1 Z " fill="#EE9265" opacity="0.92941177" transform="translate(21,24)"/>
<path d="M0,0 L1,0 L1,1 L0,1 Z " fill="#EE9366" opacity="0.98039216" transform="translate(14,24)"/>
<path d="M0,0 L1,0 L1,1 L0,1 Z " fill="#EA8F61" opacity="0.7647059" transform="translate(13,24)"/>
<path d="M0,0 L1,0 L1,1 L0,1 Z " fill="#E28253" opacity="0.8509804" transform="translate(12,24)"/>
<path d="M0,0 L1,0 L1,1 L0,1 Z " fill="#E98C5D" opacity="0.7529412" transform="translate(53,23)"/>
<path d="M0,0 L1,0 L1,1 L0,1 Z " fill="#ED9264" opacity="0.87058824" transform="translate(52,23)"/>
<path d="M0,0 L1,0 L1,1 L0,1 Z " fill="#D77C4E" opacity="0.7764706" transform="translate(43,23)"/>
<path d="M0,0 L1,0 L1,1 L0,1 Z " fill="#C7693D" opacity="0.9882353" transform="translate(42,23)"/>
<path d="M0,0 L1,0 L1,1 L0,1 Z " fill="#C66A3D" opacity="0.99215686" transform="translate(21,23)"/>
<path d="M0,0 L1,0 L1,1 L0,1 Z " fill="#D4774A" opacity="0.80784315" transform="translate(20,23)"/>
<path d="M0,0 L1,0 L1,1 L0,1 Z " fill="#E88D5F" opacity="0.78039217" transform="translate(19,23)"/>
<path d="M0,0 L1,0 L1,1 L0,1 Z " fill="#EE9266" opacity="0.99215686" transform="translate(18,23)"/>
<path d="M0,0 L1,0 L1,1 L0,1 Z " fill="#EE9165" opacity="0.8745098" transform="translate(11,23)"/>
<path d="M0,0 L1,0 L1,1 L0,1 Z " fill="#E28354" opacity="0.84705883" transform="translate(9,23)"/>
<path d="M0,0 L1,0 L1,1 L0,1 Z " fill="#DE7E4E" transform="translate(8,23)"/>
<path d="M0,0 L1,0 L1,1 L0,1 Z " fill="#E28354" opacity="0.827451" transform="translate(59,22)"/>
<path d="M0,0 L1,0 L1,1 L0,1 Z " fill="#E68959" opacity="0.7607843" transform="translate(58,22)"/>
<path d="M0,0 L1,0 L1,1 L0,1 Z " fill="#ED9263" opacity="0.8235294" transform="translate(56,22)"/>
<path d="M0,0 L1,0 L1,1 L0,1 Z " fill="#EE9365" opacity="0.9490196" transform="translate(55,22)"/>
<path d="M0,0 L1,0 L1,1 L0,1 Z " fill="#E78B5E" opacity="0.7647059" transform="translate(46,22)"/>
<path d="M0,0 L1,0 L1,1 L0,1 Z " fill="#CF7245" opacity="0.8509804" transform="translate(45,22)"/>
<path d="M0,0 L1,0 L1,1 L0,1 Z " fill="#CD6F42" opacity="0.8901961" transform="translate(18,22)"/>
<path d="M0,0 L1,0 L1,1 L0,1 Z " fill="#E5885B" opacity="0.75686276" transform="translate(17,22)"/>
<path d="M0,0 L1,0 L1,1 L0,1 Z " fill="#EE9366" opacity="0.9607843" transform="translate(16,22)"/>
<path d="M0,0 L1,0 L1,1 L0,1 Z " fill="#ED9265" opacity="0.94509804" transform="translate(8,22)"/>
<path d="M0,0 L1,0 L1,1 L0,1 Z " fill="#ED9163" opacity="0.8156863" transform="translate(7,22)"/>
<path d="M0,0 L1,0 L1,1 L0,1 Z " fill="#E7885A" opacity="0.7647059" transform="translate(5,22)"/>
<path d="M0,0 L1,0 L1,1 L0,1 Z " fill="#E28151" opacity="0.87058824" transform="translate(3,22)"/>
<path d="M0,0 L1,0 L1,1 L0,1 Z " fill="#E08051" opacity="0.9411765" transform="translate(1,22)"/>
<path d="M0,0 L1,0 L1,1 L0,1 Z " fill="#DE7F4E" opacity="0.9843137" transform="translate(0,22)"/>
<path d="M0,0 L1,0 L1,1 L0,1 Z " fill="#E08456" opacity="0.7529412" transform="translate(48,21)"/>
<path d="M0,0 L1,0 L1,1 L0,1 Z " fill="#C96C3F" opacity="0.9372549" transform="translate(47,21)"/>
<path d="M0,0 L1,0 L1,1 L0,1 Z " fill="#C86C40" opacity="0.9411765" transform="translate(16,21)"/>
<path d="M0,0 L1,0 L1,1 L0,1 Z " fill="#E08456" opacity="0.7529412" transform="translate(15,21)"/>
<path d="M0,0 L1,0 L1,1 L0,1 Z " fill="#ED9365" opacity="0.9137255" transform="translate(14,21)"/>
<path d="M0,0 L1,0 L1,1 L0,1 Z " fill="#D97E52" opacity="0.7647059" transform="translate(50,20)"/>
<path d="M0,0 L1,0 L1,1 L0,1 Z " fill="#C76A3E" opacity="0.9764706" transform="translate(49,20)"/>
<path d="M0,0 L1,0 L1,1 L0,1 Z " fill="#DB7E51" opacity="0.7647059" transform="translate(13,20)"/>
<path d="M0,0 L1,0 L1,1 L0,1 Z " fill="#ED9164" opacity="0.8509804" transform="translate(12,20)"/>
<path d="M0,0 L1,0 L1,1 L0,1 Z " fill="#E08456" opacity="0.7529412" transform="translate(53,19)"/>
<path d="M0,0 L1,0 L1,1 L0,1 Z " fill="#CE7144" opacity="0.87058824" transform="translate(52,19)"/>
<path d="M0,0 L1,0 L1,1 L0,1 Z " fill="#C96C40" opacity="0.78039217" transform="translate(46,19)"/>
<path d="M0,0 L1,0 L1,1 L0,1 Z " fill="#C96B3F" opacity="0.77254903" transform="translate(44,19)"/>
<path d="M0,0 L1,0 L1,1 L0,1 Z " fill="#E08456" opacity="0.7529412" transform="translate(10,19)"/>
<path d="M0,0 L1,0 L1,1 L0,1 Z " fill="#ED9163" opacity="0.84705883" transform="translate(9,19)"/>
<path d="M0,0 L1,0 L1,1 L0,1 Z " fill="#E5895C" opacity="0.7607843" transform="translate(58,18)"/>
<path d="M0,0 L1,0 L1,1 L0,1 Z " fill="#D17647" opacity="0.8235294" transform="translate(56,18)"/>
<path d="M0,0 L1,0 L1,1 L0,1 Z " fill="#C86C3F" opacity="0.9490196" transform="translate(55,18)"/>
<path d="M0,0 L1,0 L1,1 L0,1 Z " fill="#CA6E40" opacity="0.7647059" transform="translate(47,18)"/>
<path d="M0,0 L1,0 L1,1 L0,1 Z " fill="#DE7E4E" transform="translate(46,18)"/>
<path d="M0,0 L1,0 L1,1 L0,1 Z " fill="#DE7D4E" transform="translate(44,18)"/>
<path d="M0,0 L1,0 L1,1 L0,1 Z " fill="#CA6C40" opacity="0.7647059" transform="translate(43,18)"/>
<path d="M0,0 L1,0 L1,1 L0,1 Z " fill="#C96C3F" opacity="0.94509804" transform="translate(8,18)"/>
<path d="M0,0 L1,0 L1,1 L0,1 Z " fill="#D37648" opacity="0.8156863" transform="translate(7,18)"/>
<path d="M0,0 L1,0 L1,1 L0,1 Z " fill="#E78B5D" opacity="0.7647059" transform="translate(5,18)"/>
<path d="M0,0 L1,0 L1,1 L0,1 Z " fill="#EC9164" opacity="0.87058824" transform="translate(3,18)"/>
<path d="M0,0 L1,0 L1,1 L0,1 Z " fill="#ED9265" opacity="0.9411765" transform="translate(1,18)"/>
<path d="M0,0 L1,0 L1,1 L0,1 Z " fill="#EE9265" opacity="0.9843137" transform="translate(0,18)"/>
<path d="M0,0 L1,0 L1,1 L0,1 Z " fill="#DC7B4C" opacity="0.9411765" transform="translate(43,17)"/>
<path d="M0,0 L1,0 L1,1 L0,1 Z " fill="#D77849" opacity="0.8235294" transform="translate(47,16)"/>
<path d="M0,0 L1,0 L1,1 L0,1 Z " fill="#D67749" opacity="0.8235294" transform="translate(43,16)"/>
<path d="M0,0 L1,0 L1,1 L0,1 Z " fill="#C6693C" opacity="0.9098039" transform="translate(47,15)"/>
<path d="M0,0 L1,0 L1,1 L0,1 Z " fill="#D97A4A" opacity="0.87058824" transform="translate(46,15)"/>
<path d="M0,0 L1,0 L1,1 L0,1 Z " fill="#D9794A" opacity="0.8666667" transform="translate(44,15)"/>
<path d="M0,0 L1,0 L1,1 L0,1 Z " fill="#C5693D" opacity="0.92156863" transform="translate(43,15)"/>
<path d="M0,0 L1,0 L1,1 L0,1 Z " fill="#C76A3E" opacity="0.8352941" transform="translate(45,14)"/>
<path d="M0,0 L1,0 L1,1 L0,1 Z " fill="#C5693E" opacity="0.96862745" transform="translate(44,14)"/>
<path d="M0,0 L1,0 L1,1 L0,1 Z " fill="#C6693E" opacity="0.85490197" transform="translate(38,13)"/>
<path d="M0,0 L1,0 L1,1 L0,1 Z " fill="#CC6E40" opacity="0.75686276" transform="translate(37,13)"/>
<path d="M0,0 L1,0 L1,1 L0,1 Z " fill="#D57648" opacity="0.7882353" transform="translate(35,13)"/>
<path d="M0,0 L1,0 L1,1 L0,1 Z " fill="#DB7A4A" opacity="0.8862745" transform="translate(33,13)"/>
<path d="M0,0 L1,0 L1,1 L0,1 Z " fill="#DC7C4D" opacity="0.972549" transform="translate(31,13)"/>
<path d="M0,0 L1,0 L1,1 L0,1 Z " fill="#D97949" opacity="0.85882354" transform="translate(29,13)"/>
<path d="M0,0 L1,0 L1,1 L0,1 Z " fill="#D27245" opacity="0.7647059" transform="translate(27,13)"/>
<path d="M0,0 L1,0 L1,1 L0,1 Z " fill="#C66A3E" opacity="0.8392157" transform="translate(25,13)"/>
<path d="M0,0 L1,0 L1,1 L0,1 Z " fill="#C6693D" opacity="0.9764706" transform="translate(24,13)"/>
<path d="M0,0 L1,0 L1,1 L0,1 Z " fill="#C6693C" opacity="0.9098039" transform="translate(42,12)"/>
<path d="M0,0 L1,0 L1,1 L0,1 Z " fill="#D47646" opacity="0.78039217" transform="translate(40,12)"/>
<path d="M0,0 L1,0 L1,1 L0,1 Z " fill="#DD7C4D" opacity="0.92941177" transform="translate(39,12)"/>
<path d="M0,0 L1,0 L1,1 L0,1 Z " fill="#DD7D4D" opacity="0.9843137" transform="translate(24,12)"/>
<path d="M0,0 L1,0 L1,1 L0,1 Z " fill="#CB6D40" opacity="0.7607843" transform="translate(22,12)"/>
<path d="M0,0 L1,0 L1,1 L0,1 Z " fill="#C6693D" opacity="0.92941177" transform="translate(21,12)"/>
<path d="M0,0 L1,0 L1,1 L0,1 Z " fill="#D47447" opacity="0.7764706" transform="translate(43,11)"/>
<path d="M0,0 L1,0 L1,1 L0,1 Z " fill="#DD7C4E" opacity="0.9882353" transform="translate(42,11)"/>
<path d="M0,0 L1,0 L1,1 L0,1 Z " fill="#DD7E4D" opacity="0.99215686" transform="translate(21,11)"/>
<path d="M0,0 L1,0 L1,1 L0,1 Z " fill="#C96C3F" opacity="0.78039217" transform="translate(19,11)"/>
<path d="M0,0 L1,0 L1,1 L0,1 Z " fill="#C66A3D" opacity="0.99215686" transform="translate(18,11)"/>
<path d="M0,0 L1,0 L1,1 L0,1 Z " fill="#CA6C40" opacity="0.7647059" transform="translate(46,10)"/>
<path d="M0,0 L1,0 L1,1 L0,1 Z " fill="#D9784A" opacity="0.8509804" transform="translate(45,10)"/>
<path d="M0,0 L1,0 L1,1 L0,1 Z " fill="#CC6E40" opacity="0.75686276" transform="translate(17,10)"/>
<path d="M0,0 L1,0 L1,1 L0,1 Z " fill="#C6693D" opacity="0.9607843" transform="translate(16,10)"/>
<path d="M0,0 L1,0 L1,1 L0,1 Z " fill="#CE7044" opacity="0.7529412" transform="translate(48,9)"/>
<path d="M0,0 L1,0 L1,1 L0,1 Z " fill="#DC7C4C" opacity="0.9372549" transform="translate(47,9)"/>
<path d="M0,0 L1,0 L1,1 L0,1 Z " fill="#D07042" opacity="0.7529412" transform="translate(15,9)"/>
<path d="M0,0 L1,0 L1,1 L0,1 Z " fill="#C66A3D" opacity="0.9137255" transform="translate(14,9)"/>
<path d="M0,0 L1,0 L1,1 L0,1 Z " fill="#D27245" opacity="0.7647059" transform="translate(50,8)"/>
<path d="M0,0 L1,0 L1,1 L0,1 Z " fill="#DD7D4E" opacity="0.9764706" transform="translate(49,8)"/>
<path d="M0,0 L1,0 L1,1 L0,1 Z " fill="#D27345" opacity="0.7647059" transform="translate(13,8)"/>
<path d="M0,0 L1,0 L1,1 L0,1 Z " fill="#C76A3D" opacity="0.8509804" transform="translate(12,8)"/>
<path d="M0,0 L1,0 L1,1 L0,1 Z " fill="#CE7044" opacity="0.7529412" transform="translate(53,7)"/>
<path d="M0,0 L1,0 L1,1 L0,1 Z " fill="#D97A4A" opacity="0.87058824" transform="translate(52,7)"/>
<path d="M0,0 L1,0 L1,1 L0,1 Z " fill="#CE7044" opacity="0.7529412" transform="translate(10,7)"/>
<path d="M0,0 L1,0 L1,1 L0,1 Z " fill="#C76A3D" opacity="0.84705883" transform="translate(9,7)"/>
<path d="M0,0 L1,0 L1,1 L0,1 Z " fill="#CB6D41" opacity="0.7607843" transform="translate(58,6)"/>
<path d="M0,0 L1,0 L1,1 L0,1 Z " fill="#D77747" opacity="0.8235294" transform="translate(56,6)"/>
<path d="M0,0 L1,0 L1,1 L0,1 Z " fill="#DD7C4C" opacity="0.9490196" transform="translate(55,6)"/>
<path d="M0,0 L1,0 L1,1 L0,1 Z " fill="#DC7D4D" opacity="0.94509804" transform="translate(8,6)"/>
<path d="M0,0 L1,0 L1,1 L0,1 Z " fill="#D77748" opacity="0.8156863" transform="translate(7,6)"/>
<path d="M0,0 L1,0 L1,1 L0,1 Z " fill="#CA6C40" opacity="0.7647059" transform="translate(5,6)"/>
<path d="M0,0 L1,0 L1,1 L0,1 Z " fill="#C66A3D" opacity="0.87058824" transform="translate(3,6)"/>
<path d="M0,0 L1,0 L1,1 L0,1 Z " fill="#C5693D" opacity="0.9411765" transform="translate(1,6)"/>
<path d="M0,0 L1,0 L1,1 L0,1 Z " fill="#C56A3E" opacity="0.9843137" transform="translate(0,6)"/>
</svg>
