<?xml version="1.0" encoding="UTF-8"?>
<!-- Generator: visioncortex VTracer 0.6.4 -->
<svg version="1.1" xmlns="http://www.w3.org/2000/svg" width="64" height="64">
<path d="M0,0 L20,0 L20,1 L22,1 L22,2 L24,2 L24,3 L26,3 L26,4 L28,4 L28,5 L30,5 L30,6 L32,6 L32,7 L34,7 L34,8 L36,8 L36,9 L38,9 L38,10 L40,10 L40,11 L42,11 L42,12 L39,12 L39,13 L25,13 L25,12 L22,12 L22,11 L19,11 L19,10 L17,10 L17,9 L15,9 L15,8 L12,8 L12,7 L9,7 L9,6 L0,6 Z M22,0 L28,0 L28,1 L30,1 L30,2 L32,2 L32,3 L34,3 L34,4 L36,4 L36,5 L38,5 L38,6 L40,6 L40,7 L42,7 L42,8 L44,8 L44,9 L46,9 L46,10 L48,10 L48,11 L50,11 L50,12 L52,12 L52,13 L54,13 L54,14 L56,14 L56,15 L58,15 L58,16 L60,16 L60,17 L62,17 L62,18 L64,18 L64,21 L62,21 L62,20 L60,20 L60,19 L58,19 L58,18 L56,18 L56,17 L54,17 L54,16 L52,16 L52,15 L50,15 L50,14 L48,14 L48,13 L46,13 L46,12 L44,12 L44,11 L42,11 L42,10 L40,10 L40,9 L38,9 L38,8 L36,8 L36,7 L34,7 L34,6 L32,6 L32,5 L30,5 L30,4 L28,4 L28,3 L26,3 L26,2 L24,2 L24,1 L22,1 Z M30,0 L48,0 L48,1 L50,1 L50,2 L52,2 L52,3 L54,3 L54,4 L56,4 L56,5 L58,5 L58,6 L60,6 L60,7 L62,7 L62,8 L64,8 L64,17 L62,17 L62,16 L60,16 L60,15 L58,15 L58,14 L56,14 L56,13 L54,13 L54,12 L52,12 L52,11 L50,11 L50,10 L48,10 L48,9 L46,9 L46,8 L44,8 L44,7 L42,7 L42,6 L40,6 L40,5 L38,5 L38,4 L36,4 L36,3 L34,3 L34,2 L32,2 L32,1 L30,1 Z M50,0 L56,0 L56,1 L58,1 L58,2 L60,2 L60,3 L62,3 L62,4 L64,4 L64,7 L62,7 L62,6 L60,6 L60,5 L58,5 L58,4 L56,4 L56,3 L54,3 L54,2 L52,2 L52,1 L50,1 Z M58,0 L64,0 L64,3 L62,3 L62,2 L60,2 L60,1 L58,1 Z M0,7 L9,7 L9,8 L12,8 L12,9 L14,9 L14,10 L16,10 L16,11 L18,11 L18,12 L21,12 L21,13 L24,13 L24,14 L39,14 L39,13 L43,13 L43,12 L44,12 L44,13 L46,13 L46,14 L48,14 L48,15 L50,15 L50,16 L52,16 L52,17 L54,17 L54,18 L55,18 L55,19 L52,19 L52,20 L49,20 L49,21 L47,21 L47,22 L45,22 L45,23 L42,23 L42,24 L39,24 L39,25 L25,25 L25,24 L22,24 L22,23 L19,23 L19,22 L17,22 L17,21 L15,21 L15,20 L12,20 L12,19 L9,19 L9,18 L0,18 Z M0,19 L9,19 L9,20 L12,20 L12,21 L14,21 L14,22 L16,22 L16,23 L18,23 L18,24 L21,24 L21,25 L24,25 L24,26 L39,26 L39,25 L43,25 L43,24 L45,24 L45,23 L48,23 L48,22 L50,22 L50,21 L52,21 L52,20 L55,20 L55,19 L58,19 L58,20 L60,20 L60,21 L62,21 L62,22 L55,22 L55,23 L52,23 L52,24 L49,24 L49,25 L47,25 L47,26 L45,26 L45,27 L42,27 L42,28 L39,28 L39,29 L25,29 L25,28 L22,28 L22,27 L19,27 L19,26 L17,26 L17,25 L15,25 L15,24 L12,24 L12,23 L9,23 L9,22 L0,22 Z M0,23 L9,23 L9,24 L12,24 L12,25 L14,25 L14,26 L16,26 L16,27 L18,27 L18,28 L21,28 L21,29 L24,29 L24,30 L39,30 L39,29 L43,29 L43,28 L45,28 L45,27 L48,27 L48,26 L50,26 L50,25 L52,25 L52,24 L55,24 L55,23 L64,23 L64,29 L55,29 L55,30 L52,30 L52,31 L49,31 L49,32 L47,32 L47,33 L45,33 L45,34 L42,34 L42,35 L39,35 L39,36 L25,36 L25,35 L22,35 L22,34 L19,34 L19,33 L17,33 L17,32 L15,32 L15,31 L12,31 L12,30 L9,30 L9,29 L0,29 Z M0,30 L9,30 L9,31 L12,31 L12,32 L14,32 L14,33 L16,33 L16,34 L18,34 L18,35 L21,35 L21,36 L24,36 L24,37 L39,37 L39,36 L43,36 L43,35 L45,35 L45,34 L48,34 L48,33 L50,33 L50,32 L52,32 L52,31 L55,31 L55,30 L64,30 L64,33 L55,33 L55,34 L52,34 L52,35 L49,35 L49,36 L47,36 L47,37 L45,37 L45,38 L42,38 L42,39 L39,39 L39,40 L25,40 L25,39 L22,39 L22,38 L19,38 L19,37 L17,37 L17,36 L15,36 L15,35 L12,35 L12,34 L9,34 L9,33 L0,33 Z M0,34 L9,34 L9,35 L12,35 L12,36 L14,36 L14,37 L16,37 L16,38 L18,38 L18,39 L21,39 L21,40 L24,40 L24,41 L39,41 L39,40 L43,40 L43,39 L45,39 L45,38 L48,38 L48,37 L50,37 L50,36 L52,36 L52,35 L55,35 L55,34 L64,34 L64,51 L55,51 L55,52 L52,52 L52,53 L49,53 L49,54 L47,54 L47,55 L45,55 L45,56 L42,56 L42,57 L39,57 L39,58 L25,58 L25,57 L22,57 L22,56 L19,56 L19,55 L17,55 L17,54 L15,54 L15,53 L12,53 L12,52 L9,52 L9,51 L0,51 Z M49,40 L49,41 L47,41 L47,42 L46,42 L46,47 L47,47 L47,48 L48,48 L48,49 L52,49 L52,48 L53,48 L53,47 L54,47 L54,46 L55,46 L55,44 L54,44 L54,42 L53,42 L53,41 L52,41 L52,40 Z M42,48 L42,49 L40,49 L40,53 L41,53 L41,54 L44,54 L44,53 L45,53 L45,52 L46,52 L46,50 L45,50 L45,49 L44,49 L44,48 Z M49,41 L51,41 L51,42 L52,42 L52,43 L53,43 L53,44 L54,44 L54,45 L53,45 L53,47 L52,47 L52,48 L49,48 L49,47 L48,47 L48,46 L47,46 L47,43 L48,43 L48,42 L49,42 Z M42,49 L43,49 L43,50 L44,50 L44,51 L45,51 L45,52 L44,52 L44,53 L42,53 L42,52 L41,52 L41,50 L42,50 Z M0,52 L9,52 L9,53 L12,53 L12,54 L14,54 L14,55 L16,55 L16,56 L18,56 L18,57 L21,57 L21,58 L24,58 L24,59 L39,59 L39,58 L43,58 L43,57 L45,57 L45,56 L48,56 L48,55 L50,55 L50,54 L52,54 L52,53 L55,53 L55,52 L64,52 L64,64 L0,64 Z M56,55 L56,56 L54,56 L54,60 L55,60 L55,61 L59,61 L59,59 L60,59 L60,57 L59,57 L59,56 L58,56 L58,55 Z M55,57 L58,57 L58,58 L59,58 L59,59 L58,59 L58,60 L55,60 Z " fill="#DE7E4F" transform="translate(0,0)"/>
<path d="M0,0 L9,0 L9,1 L12,1 L12,2 L14,2 L14,3 L16,3 L16,4 L18,4 L18,5 L21,5 L21,6 L24,6 L24,7 L39,7 L39,6 L43,6 L43,5 L45,5 L45,4 L48,4 L48,3 L50,3 L50,2 L52,2 L52,1 L55,1 L55,0 L64,0 L64,17 L55,17 L55,18 L52,18 L52,19 L49,19 L49,20 L47,20 L47,21 L45,21 L45,22 L42,22 L42,23 L39,23 L39,24 L25,24 L25,23 L22,23 L22,22 L19,22 L19,21 L17,21 L17,20 L15,20 L15,19 L12,19 L12,18 L9,18 L9,17 L0,17 Z M49,6 L49,7 L47,7 L47,8 L46,8 L46,13 L47,13 L47,14 L48,14 L48,15 L52,15 L52,14 L53,14 L53,13 L54,13 L54,12 L55,12 L55,10 L54,10 L54,8 L53,8 L53,7 L52,7 L52,6 Z M42,14 L42,15 L40,15 L40,19 L41,19 L41,20 L44,20 L44,19 L45,19 L45,18 L46,18 L46,16 L45,16 L45,15 L44,15 L44,14 Z M49,7 L51,7 L51,8 L52,8 L52,9 L53,9 L53,10 L54,10 L54,11 L53,11 L53,13 L52,13 L52,14 L49,14 L49,13 L48,13 L48,12 L47,12 L47,9 L48,9 L48,8 L49,8 Z M42,15 L43,15 L43,16 L44,16 L44,17 L45,17 L45,18 L44,18 L44,19 L42,19 L42,18 L41,18 L41,16 L42,16 Z M0,18 L9,18 L9,19 L12,19 L12,20 L14,20 L14,21 L16,21 L16,22 L18,22 L18,23 L21,23 L21,24 L24,24 L24,25 L39,25 L39,24 L43,24 L43,23 L45,23 L45,22 L48,22 L48,21 L50,21 L50,20 L52,20 L52,19 L55,19 L55,18 L64,18 L64,30 L0,30 Z M56,21 L56,22 L54,22 L54,26 L55,26 L55,27 L59,27 L59,25 L60,25 L60,23 L59,23 L59,22 L58,22 L58,21 Z M55,23 L58,23 L58,24 L59,24 L59,25 L58,25 L58,26 L55,26 Z " fill="#EE9366" transform="translate(0,34)"/>
<path d="M0,0 L8,0 L8,1 L11,1 L11,2 L14,2 L14,3 L16,3 L16,4 L18,4 L18,5 L21,5 L21,6 L24,6 L24,7 L40,7 L40,6 L43,6 L43,5 L44,5 L44,6 L46,6 L46,7 L48,7 L48,8 L50,8 L50,9 L52,9 L52,10 L54,10 L54,11 L55,11 L55,12 L52,12 L52,13 L49,13 L49,14 L47,14 L47,15 L45,15 L45,16 L42,16 L42,17 L39,17 L39,18 L25,18 L25,17 L22,17 L22,16 L19,16 L19,15 L17,15 L17,14 L15,14 L15,13 L12,13 L12,12 L9,12 L9,11 L0,11 Z " fill="#C66A3E" transform="translate(0,7)"/>
<path d="M0,0 L1,0 L1,1 L0,1 Z M3,1 L4,1 L4,2 L3,2 Z " fill="#C6693D" transform="translate(8,7)"/>
<path d="M0,0 L9,0 L9,1 L12,1 L12,2 L14,2 L14,3 L16,3 L16,4 L18,4 L18,5 L21,5 L21,6 L24,6 L24,7 L39,7 L39,6 L43,6 L43,5 L45,5 L45,4 L48,4 L48,3 L50,3 L50,2 L52,2 L52,1 L55,1 L55,0 L64,0 L64,12 L0,12 Z M56,3 L56,4 L54,4 L54,8 L55,8 L55,9 L59,9 L59,7 L60,7 L60,5 L59,5 L59,4 L58,4 L58,3 Z M55,5 L58,5 L58,6 L59,6 L59,7 L58,7 L58,8 L55,8 Z " fill="#DE7E4F" transform="translate(0,52)"/>
<path d="M0,0 L6,0 L6,1 L8,1 L8,2 L10,2 L10,3 L12,3 L12,4 L14,4 L14,5 L16,5 L16,6 L18,6 L18,7 L20,7 L20,8 L22,8 L22,9 L24,9 L24,10 L26,10 L26,11 L28,11 L28,12 L30,12 L30,13 L32,13 L32,14 L34,14 L34,15 L36,15 L36,16 L38,16 L38,17 L40,17 L40,18 L42,18 L42,21 L40,21 L40,20 L38,20 L38,19 L36,19 L36,18 L34,18 L34,17 L32,17 L32,16 L30,16 L30,15 L28,15 L28,14 L26,14 L26,13 L24,13 L24,12 L22,12 L22,11 L20,11 L20,10 L18,10 L18,9 L16,9 L16,8 L14,8 L14,7 L12,7 L12,6 L10,6 L10,5 L8,5 L8,4 L6,4 L6,3 L4,3 L4,2 L2,2 L2,1 L0,1 Z M8,0 L26,0 L26,1 L28,1 L28,2 L30,2 L30,3 L32,3 L32,4 L34,4 L34,5 L36,5 L36,6 L38,6 L38,7 L40,7 L40,8 L42,8 L42,17 L40,17 L40,16 L38,16 L38,15 L36,15 L36,14 L34,14 L34,13 L32,13 L32,12 L30,12 L30,11 L28,11 L28,10 L26,10 L26,9 L24,9 L24,8 L22,8 L22,7 L20,7 L20,6 L18,6 L18,5 L16,5 L16,4 L14,4 L14,3 L12,3 L12,2 L10,2 L10,1 L8,1 Z M28,0 L34,0 L34,1 L36,1 L36,2 L38,2 L38,3 L40,3 L40,4 L42,4 L42,7 L40,7 L40,6 L38,6 L38,5 L36,5 L36,4 L34,4 L34,3 L32,3 L32,2 L30,2 L30,1 L28,1 Z M36,0 L42,0 L42,3 L40,3 L40,2 L38,2 L38,1 L36,1 Z " fill="#F3C7A5" transform="translate(22,0)"/>
<path d="M0,0 L20,0 L20,1 L22,1 L22,2 L24,2 L24,3 L26,3 L26,4 L28,4 L28,5 L30,5 L30,6 L32,6 L32,7 L34,7 L34,8 L36,8 L36,9 L38,9 L38,10 L40,10 L40,11 L42,11 L42,12 L39,12 L39,13 L25,13 L25,12 L22,12 L22,11 L19,11 L19,10 L17,10 L17,9 L15,9 L15,8 L12,8 L12,7 L9,7 L9,6 L0,6 Z " fill="#DE7E4F" transform="translate(0,0)"/>
<path d="M0,0 L9,0 L9,1 L12,1 L12,2 L14,2 L14,3 L16,3 L16,4 L18,4 L18,5 L21,5 L21,6 L24,6 L24,7 L39,7 L39,6 L43,6 L43,5 L45,5 L45,4 L48,4 L48,3 L50,3 L50,2 L52,2 L52,1 L55,1 L55,0 L64,0 L64,3 L55,3 L55,4 L52,4 L52,5 L49,5 L49,6 L47,6 L47,7 L45,7 L45,8 L42,8 L42,9 L39,9 L39,10 L25,10 L25,9 L22,9 L22,8 L19,8 L19,7 L17,7 L17,6 L15,6 L15,5 L12,5 L12,4 L9,4 L9,3 L0,3 Z " fill="#C66A3E" transform="translate(0,30)"/>
<path d="M0,0 L9,0 L9,1 L12,1 L12,2 L14,2 L14,3 L16,3 L16,4 L18,4 L18,5 L21,5 L21,6 L24,6 L24,7 L39,7 L39,6 L43,6 L43,5 L45,5 L45,4 L48,4 L48,3 L50,3 L50,2 L52,2 L52,1 L55,1 L55,0 L58,0 L58,1 L60,1 L60,2 L62,2 L62,3 L55,3 L55,4 L52,4 L52,5 L49,5 L49,6 L47,6 L47,7 L45,7 L45,8 L42,8 L42,9 L39,9 L39,10 L25,10 L25,9 L22,9 L22,8 L19,8 L19,7 L17,7 L17,6 L15,6 L15,5 L12,5 L12,4 L9,4 L9,3 L0,3 Z " fill="#EE9366" transform="translate(0,19)"/>
<path d="M0,0 L6,0 L6,1 L8,1 L8,2 L10,2 L10,3 L12,3 L12,4 L14,4 L14,5 L16,5 L16,6 L18,6 L18,7 L20,7 L20,8 L22,8 L22,9 L24,9 L24,10 L26,10 L26,11 L28,11 L28,12 L30,12 L30,13 L32,13 L32,14 L34,14 L34,15 L36,15 L36,16 L38,16 L38,17 L40,17 L40,18 L42,18 L42,21 L40,21 L40,20 L38,20 L38,19 L36,19 L36,18 L34,18 L34,17 L32,17 L32,16 L30,16 L30,15 L28,15 L28,14 L26,14 L26,13 L24,13 L24,12 L22,12 L22,11 L20,11 L20,10 L18,10 L18,9 L16,9 L16,8 L14,8 L14,7 L12,7 L12,6 L10,6 L10,5 L8,5 L8,4 L6,4 L6,3 L4,3 L4,2 L2,2 L2,1 L0,1 Z " fill="#E7B187" transform="translate(22,0)"/>
<path d="M0,0 L6,0 L6,1 L8,1 L8,2 L10,2 L10,3 L12,3 L12,4 L14,4 L14,7 L12,7 L12,6 L10,6 L10,5 L8,5 L8,4 L6,4 L6,3 L4,3 L4,2 L2,2 L2,1 L0,1 Z M8,0 L14,0 L14,3 L12,3 L12,2 L10,2 L10,1 L8,1 Z " fill="#FFE0C2" transform="translate(50,0)"/>
<path d="M0,0 L2,0 L2,1 L3,1 L3,2 L4,2 L4,3 L5,3 L5,4 L4,4 L4,6 L3,6 L3,7 L0,7 L0,6 L-1,6 L-1,5 L-2,5 L-2,2 L-1,2 L-1,1 L0,1 Z " fill="#DE7E4F" transform="translate(49,41)"/>
<path d="M0,0 L3,0 L3,1 L4,1 L4,2 L3,2 L3,3 L0,3 Z " fill="#C66A3E" transform="translate(55,57)"/>
<path d="M0,0 L1,0 L1,1 L2,1 L2,2 L3,2 L3,3 L2,3 L2,4 L0,4 L0,3 L-1,3 L-1,1 L0,1 Z " fill="#DE7E4F" transform="translate(42,49)"/>
<path d="M0,0 L6,0 L6,3 L4,3 L4,2 L2,2 L2,1 L0,1 Z " fill="#353541" transform="translate(58,0)"/>
<path d="M0,0 L1,0 L1,1 L0,1 Z " fill="#EE9265" opacity="0.9607843" transform="translate(32,58)"/>
<path d="M0,0 L1,0 L1,1 L0,1 Z " fill="#C96B3F" opacity="0.9607843" transform="translate(32,40)"/>
<path d="M0,0 L1,0 L1,1 L0,1 Z " fill="#DE7E4E" opacity="0.9607843" transform="translate(32,36)"/>
<path d="M0,0 L1,0 L1,1 L0,1 Z " fill="#DE7E4E" opacity="0.9607843" transform="translate(32,13)"/>
<path d="M0,0 L1,0 L1,1 L0,1 Z " fill="#EE9366" transform="translate(0,34)"/>
<path d="M0,0 L1,0 L1,1 L0,1 Z " fill="#DE7E4E" opacity="0.9843137" transform="translate(63,51)"/>
<path d="M0,0 L1,0 L1,1 L0,1 Z M-1,1 L0,1 L0,2 L-1,2 Z M-2,2 L-1,2 L-1,3 L-2,3 Z " fill="#DE7E4F" transform="translate(49,41)"/>
<path d="M0,0 L1,0 L1,1 L0,1 Z " fill="#EE9265" opacity="0.9843137" transform="translate(63,33)"/>
<path d="M0,0 L1,0 L1,1 L0,1 Z " fill="#DE7E4E" opacity="0.9843137" transform="translate(63,22)"/>
<path d="M0,0 L1,0 L1,1 L0,1 Z " fill="#DF7E4F" opacity="0.8352941" transform="translate(4,51)"/>
<path d="M0,0 L1,0 L1,1 L0,1 Z M-1,1 L0,1 L0,2 L-1,2 Z " fill="#DE7E4F" transform="translate(42,49)"/>
<path d="M0,0 L1,0 L1,1 L0,1 Z " fill="#C76A3E" opacity="0.9411765" transform="translate(62,29)"/>
<path d="M0,0 L1,0 L1,1 L0,1 Z " fill="#DF7E4F" opacity="0.8352941" transform="translate(4,22)"/>
<path d="M0,0 L1,0 L1,1 L0,1 Z " fill="#C66A3E" transform="translate(0,30)"/>
<path d="M0,0 L1,0 L1,1 L0,1 Z " fill="#C66A3E" transform="translate(0,7)"/>
<path d="M0,0 L2,0 L2,1 L0,1 Z " fill="#F3C7A5" transform="translate(30,0)"/>
<path d="M0,0 L2,0 L2,1 L0,1 Z " fill="#E7B187" transform="translate(22,0)"/>
<path d="M0,0 L1,0 L1,1 L0,1 Z " fill="#E98C5F" opacity="0.81960785" transform="translate(28,58)"/>
<path d="M0,0 L1,0 L1,1 L0,1 Z " fill="#DF7E4F" opacity="0.8352941" transform="translate(59,51)"/>
<path d="M0,0 L1,0 L1,1 L0,1 Z " fill="#D27649" opacity="0.81960785" transform="translate(28,40)"/>
<path d="M0,0 L1,0 L1,1 L0,1 Z " fill="#DC7C4D" opacity="0.81960785" transform="translate(28,36)"/>
<path d="M0,0 L1,0 L1,1 L0,1 Z " fill="#EB8F62" opacity="0.8352941" transform="translate(59,33)"/>
<path d="M0,0 L1,0 L1,1 L0,1 Z " fill="#E98C5F" opacity="0.81960785" transform="translate(28,29)"/>
<path d="M0,0 L1,0 L1,1 L0,1 Z " fill="#CC6E42" opacity="0.9098039" transform="translate(30,25)"/>
<path d="M0,0 L1,0 L1,1 L0,1 Z " fill="#DF7E4F" opacity="0.8352941" transform="translate(59,22)"/>
<path d="M0,0 L1,0 L1,1 L0,1 Z " fill="#DC7C4D" opacity="0.81960785" transform="translate(28,13)"/>
<path d="M0,0 L1,0 L1,1 L0,1 Z " fill="#CE6F42" opacity="0.827451" transform="translate(56,60)"/>
<path d="M0,0 L1,0 L1,1 L0,1 Z " fill="#CD6E42" opacity="0.84313726" transform="translate(54,58)"/>
<path d="M0,0 L1,0 L1,1 L0,1 Z " fill="#E58859" opacity="0.7647059" transform="translate(36,58)"/>
<path d="M0,0 L1,0 L1,1 L0,1 Z " fill="#E08051" opacity="0.77254903" transform="translate(42,53)"/>
<path d="M0,0 L1,0 L1,1 L0,1 Z " fill="#DF7E50" opacity="0.83137256" transform="translate(40,51)"/>
<path d="M0,0 L1,0 L1,1 L0,1 Z " fill="#E68757" opacity="0.75686276" transform="translate(6,51)"/>
<path d="M0,0 L1,0 L1,1 L0,1 Z " fill="#E18152" opacity="0.76862746" transform="translate(50,48)"/>
<path d="M0,0 L1,0 L1,1 L0,1 Z " fill="#DF7E50" opacity="0.8392157" transform="translate(46,44)"/>
<path d="M0,0 L1,0 L1,1 L0,1 Z " fill="#DB7F52" opacity="0.7647059" transform="translate(36,40)"/>
<path d="M0,0 L1,0 L1,1 L0,1 Z " fill="#D97A4A" opacity="0.7647059" transform="translate(36,36)"/>
<path d="M0,0 L1,0 L1,1 L0,1 Z " fill="#DE8053" opacity="0.75686276" transform="translate(6,33)"/>
<path d="M0,0 L1,0 L1,1 L0,1 Z " fill="#D8774A" opacity="0.75686276" transform="translate(57,29)"/>
<path d="M0,0 L1,0 L1,1 L0,1 Z " fill="#E58859" opacity="0.7647059" transform="translate(36,29)"/>
<path d="M0,0 L1,0 L1,1 L0,1 Z " fill="#D8784A" opacity="0.75686276" transform="translate(6,29)"/>
<path d="M0,0 L1,0 L1,1 L0,1 Z " fill="#DB7F52" opacity="0.7647059" transform="translate(36,25)"/>
<path d="M0,0 L1,0 L1,1 L0,1 Z " fill="#E68757" opacity="0.75686276" transform="translate(6,22)"/>
<path d="M0,0 L1,0 L1,1 L0,1 Z " fill="#DE8053" opacity="0.75686276" transform="translate(6,18)"/>
<path d="M0,0 L1,0 L1,1 L0,1 Z " fill="#D97A4A" opacity="0.7647059" transform="translate(36,13)"/>
<path d="M0,0 L1,0 L1,1 L0,1 Z " fill="#D8784A" opacity="0.75686276" transform="translate(6,6)"/>
<path d="M0,0 L1,0 L1,1 L0,1 Z " fill="#EA8D5F" opacity="0.83137256" transform="translate(34,58)"/>
<path d="M0,0 L1,0 L1,1 L0,1 Z " fill="#ED9063" opacity="0.9098039" transform="translate(30,58)"/>
<path d="M0,0 L1,0 L1,1 L0,1 Z " fill="#E18254" opacity="0.7607843" transform="translate(26,58)"/>
<path d="M0,0 L1,0 L1,1 L0,1 Z " fill="#C66A3E" transform="translate(55,57)"/>
<path d="M0,0 L1,0 L1,1 L0,1 Z " fill="#E28153" opacity="0.7607843" transform="translate(41,57)"/>
<path d="M0,0 L1,0 L1,1 L0,1 Z " fill="#E98B5E" opacity="0.8" transform="translate(23,57)"/>
<path d="M0,0 L1,0 L1,1 L0,1 Z " fill="#DF7E4F" opacity="0.8235294" transform="translate(44,56)"/>
<path d="M0,0 L1,0 L1,1 L0,1 Z " fill="#E98C5E" opacity="0.80784315" transform="translate(20,56)"/>
<path d="M0,0 L1,0 L1,1 L0,1 Z " fill="#DE7D4F" opacity="0.9882353" transform="translate(57,55)"/>
<path d="M0,0 L1,0 L1,1 L0,1 Z " fill="#DE7E4E" opacity="0.96862745" transform="translate(47,55)"/>
<path d="M0,0 L1,0 L1,1 L0,1 Z " fill="#DF7D4D" opacity="0.91764706" transform="translate(49,54)"/>
<path d="M0,0 L1,0 L1,1 L0,1 Z " fill="#ED9163" opacity="0.9411765" transform="translate(16,54)"/>
<path d="M0,0 L1,0 L1,1 L0,1 Z " fill="#DD7D4F" opacity="0.85490197" transform="translate(51,53)"/>
<path d="M0,0 L1,0 L1,1 L0,1 Z " fill="#ED9265" opacity="0.98039216" transform="translate(14,53)"/>
<path d="M0,0 L1,0 L1,1 L0,1 Z " fill="#DE7E4F" opacity="0.8509804" transform="translate(54,52)"/>
<path d="M0,0 L1,0 L1,1 L0,1 Z " fill="#EC8E61" opacity="0.8745098" transform="translate(11,52)"/>
<path d="M0,0 L1,0 L1,1 L0,1 Z " fill="#DE7E4F" transform="translate(0,52)"/>
<path d="M0,0 L1,0 L1,1 L0,1 Z " fill="#DD7D4E" opacity="0.90588236" transform="translate(61,51)"/>
<path d="M0,0 L1,0 L1,1 L0,1 Z " fill="#E58757" opacity="0.75686276" transform="translate(57,51)"/>
<path d="M0,0 L1,0 L1,1 L0,1 Z " fill="#DD7D4E" opacity="0.90588236" transform="translate(2,51)"/>
<path d="M0,0 L1,0 L1,1 L0,1 Z " fill="#EC9063" opacity="0.92156863" transform="translate(43,48)"/>
<path d="M0,0 L1,0 L1,1 L0,1 Z " fill="#EE9164" opacity="0.9843137" transform="translate(54,45)"/>
<path d="M0,0 L1,0 L1,1 L0,1 Z M1,1 L2,1 L2,2 L1,2 Z " fill="#EC8F62" opacity="0.89411765" transform="translate(52,41)"/>
<path d="M0,0 L1,0 L1,1 L0,1 Z M-1,1 L0,1 L0,2 L-1,2 Z " fill="#EE9165" opacity="0.99215686" transform="translate(47,41)"/>
<path d="M0,0 L1,0 L1,1 L0,1 Z " fill="#EB8D5F" opacity="0.827451" transform="translate(50,40)"/>
<path d="M0,0 L1,0 L1,1 L0,1 Z " fill="#D07347" opacity="0.83137256" transform="translate(34,40)"/>
<path d="M0,0 L1,0 L1,1 L0,1 Z " fill="#CC6E42" opacity="0.9098039" transform="translate(30,40)"/>
<path d="M0,0 L1,0 L1,1 L0,1 Z " fill="#E5895C" opacity="0.7607843" transform="translate(26,40)"/>
<path d="M0,0 L1,0 L1,1 L0,1 Z " fill="#E5895B" opacity="0.7607843" transform="translate(41,39)"/>
<path d="M0,0 L1,0 L1,1 L0,1 Z " fill="#D4784B" opacity="0.8" transform="translate(23,39)"/>
<path d="M0,0 L1,0 L1,1 L0,1 Z " fill="#EC8F62" opacity="0.8235294" transform="translate(44,38)"/>
<path d="M0,0 L1,0 L1,1 L0,1 Z " fill="#D4774A" opacity="0.80784315" transform="translate(20,38)"/>
<path d="M0,0 L1,0 L1,1 L0,1 Z " fill="#EE9365" opacity="0.96862745" transform="translate(47,37)"/>
<path d="M0,0 L1,0 L1,1 L0,1 Z " fill="#ED9164" opacity="0.91764706" transform="translate(49,36)"/>
<path d="M0,0 L1,0 L1,1 L0,1 Z " fill="#DC7C4D" opacity="0.83137256" transform="translate(34,36)"/>
<path d="M0,0 L1,0 L1,1 L0,1 Z " fill="#DE7D4E" opacity="0.9098039" transform="translate(30,36)"/>
<path d="M0,0 L1,0 L1,1 L0,1 Z " fill="#D37545" opacity="0.7607843" transform="translate(26,36)"/>
<path d="M0,0 L1,0 L1,1 L0,1 Z " fill="#ED9163" opacity="0.85490197" transform="translate(51,35)"/>
<path d="M0,0 L1,0 L1,1 L0,1 Z " fill="#D47445" opacity="0.7607843" transform="translate(41,35)"/>
<path d="M0,0 L1,0 L1,1 L0,1 Z " fill="#DC7C4C" opacity="0.8" transform="translate(23,35)"/>
<path d="M0,0 L1,0 L1,1 L0,1 Z " fill="#C76A3E" opacity="0.98039216" transform="translate(14,35)"/>
<path d="M0,0 L1,0 L1,1 L0,1 Z " fill="#ED9164" opacity="0.8509804" transform="translate(54,34)"/>
<path d="M0,0 L1,0 L1,1 L0,1 Z " fill="#CC7040" opacity="0.8235294" transform="translate(44,34)"/>
<path d="M0,0 L1,0 L1,1 L0,1 Z " fill="#DB7C4D" opacity="0.80784315" transform="translate(20,34)"/>
<path d="M0,0 L1,0 L1,1 L0,1 Z " fill="#CE7043" opacity="0.8745098" transform="translate(11,34)"/>
<path d="M0,0 L1,0 L1,1 L0,1 Z " fill="#ED9264" opacity="0.90588236" transform="translate(61,33)"/>
<path d="M0,0 L1,0 L1,1 L0,1 Z " fill="#DD8053" opacity="0.75686276" transform="translate(57,33)"/>
<path d="M0,0 L1,0 L1,1 L0,1 Z " fill="#C66A3E" opacity="0.96862745" transform="translate(47,33)"/>
<path d="M0,0 L1,0 L1,1 L0,1 Z " fill="#DE7D4E" opacity="0.8901961" transform="translate(18,33)"/>
<path d="M0,0 L1,0 L1,1 L0,1 Z " fill="#EB8F62" opacity="0.8352941" transform="translate(4,33)"/>
<path d="M0,0 L1,0 L1,1 L0,1 Z " fill="#ED9264" opacity="0.90588236" transform="translate(2,33)"/>
<path d="M0,0 L1,0 L1,1 L0,1 Z " fill="#C96B3F" opacity="0.91764706" transform="translate(49,32)"/>
<path d="M0,0 L1,0 L1,1 L0,1 Z " fill="#DD7D4E" opacity="0.9411765" transform="translate(16,32)"/>
<path d="M0,0 L1,0 L1,1 L0,1 Z " fill="#CC6E40" opacity="0.85490197" transform="translate(51,31)"/>
<path d="M0,0 L1,0 L1,1 L0,1 Z " fill="#DE7D4E" opacity="0.98039216" transform="translate(14,31)"/>
<path d="M0,0 L1,0 L1,1 L0,1 Z " fill="#CC6D40" opacity="0.8509804" transform="translate(54,30)"/>
<path d="M0,0 L1,0 L1,1 L0,1 Z " fill="#D67649" opacity="0.7529412" transform="translate(10,30)"/>
<path d="M0,0 L1,0 L1,1 L0,1 Z " fill="#C96D3F" opacity="0.87058824" transform="translate(60,29)"/>
<path d="M0,0 L1,0 L1,1 L0,1 Z " fill="#EA8D5F" opacity="0.83137256" transform="translate(34,29)"/>
<path d="M0,0 L1,0 L1,1 L0,1 Z " fill="#ED9063" opacity="0.9098039" transform="translate(30,29)"/>
<path d="M0,0 L1,0 L1,1 L0,1 Z " fill="#E18254" opacity="0.7607843" transform="translate(26,29)"/>
<path d="M0,0 L1,0 L1,1 L0,1 Z " fill="#CC6E40" opacity="0.8352941" transform="translate(4,29)"/>
<path d="M0,0 L1,0 L1,1 L0,1 Z " fill="#C96B3F" opacity="0.90588236" transform="translate(2,29)"/>
<path d="M0,0 L1,0 L1,1 L0,1 Z " fill="#E28153" opacity="0.7607843" transform="translate(41,28)"/>
<path d="M0,0 L1,0 L1,1 L0,1 Z " fill="#E98B5E" opacity="0.8" transform="translate(23,28)"/>
<path d="M0,0 L1,0 L1,1 L0,1 Z " fill="#DF7E4F" opacity="0.8235294" transform="translate(44,27)"/>
<path d="M0,0 L1,0 L1,1 L0,1 Z " fill="#E98C5E" opacity="0.80784315" transform="translate(20,27)"/>
<path d="M0,0 L1,0 L1,1 L0,1 Z " fill="#DE7E4E" opacity="0.96862745" transform="translate(47,26)"/>
<path d="M0,0 L1,0 L1,1 L0,1 Z " fill="#DF7D4D" opacity="0.91764706" transform="translate(49,25)"/>
<path d="M0,0 L1,0 L1,1 L0,1 Z " fill="#D07347" opacity="0.83137256" transform="translate(34,25)"/>
<path d="M0,0 L1,0 L1,1 L0,1 Z " fill="#C96B3F" opacity="0.9607843" transform="translate(32,25)"/>
<path d="M0,0 L1,0 L1,1 L0,1 Z " fill="#D27649" opacity="0.81960785" transform="translate(28,25)"/>
<path d="M0,0 L1,0 L1,1 L0,1 Z " fill="#E5895C" opacity="0.7607843" transform="translate(26,25)"/>
<path d="M0,0 L1,0 L1,1 L0,1 Z " fill="#ED9163" opacity="0.9411765" transform="translate(16,25)"/>
<path d="M0,0 L1,0 L1,1 L0,1 Z " fill="#DD7D4F" opacity="0.85490197" transform="translate(51,24)"/>
<path d="M0,0 L1,0 L1,1 L0,1 Z " fill="#E5895B" opacity="0.7607843" transform="translate(41,24)"/>
<path d="M0,0 L1,0 L1,1 L0,1 Z " fill="#D4784B" opacity="0.8" transform="translate(23,24)"/>
<path d="M0,0 L1,0 L1,1 L0,1 Z " fill="#ED9265" opacity="0.98039216" transform="translate(14,24)"/>
<path d="M0,0 L1,0 L1,1 L0,1 Z " fill="#DE7E4F" opacity="0.8509804" transform="translate(54,23)"/>
<path d="M0,0 L1,0 L1,1 L0,1 Z " fill="#EC8F62" opacity="0.8235294" transform="translate(44,23)"/>
<path d="M0,0 L1,0 L1,1 L0,1 Z " fill="#EC8E61" opacity="0.8745098" transform="translate(11,23)"/>
<path d="M0,0 L1,0 L1,1 L0,1 Z " fill="#DE7E4F" transform="translate(0,23)"/>
<path d="M0,0 L1,0 L1,1 L0,1 Z " fill="#DD7D4E" opacity="0.90588236" transform="translate(61,22)"/>
<path d="M0,0 L1,0 L1,1 L0,1 Z " fill="#E58757" opacity="0.75686276" transform="translate(57,22)"/>
<path d="M0,0 L1,0 L1,1 L0,1 Z " fill="#EE9365" opacity="0.96862745" transform="translate(47,22)"/>
<path d="M0,0 L1,0 L1,1 L0,1 Z " fill="#DD7D4E" opacity="0.90588236" transform="translate(2,22)"/>
<path d="M0,0 L1,0 L1,1 L0,1 Z " fill="#E9B084" opacity="0.8156863" transform="translate(63,21)"/>
<path d="M0,0 L1,0 L1,1 L0,1 Z " fill="#ED9164" opacity="0.91764706" transform="translate(49,21)"/>
<path d="M0,0 L1,0 L1,1 L0,1 Z " fill="#E7AD84" opacity="0.81960785" transform="translate(61,20)"/>
<path d="M0,0 L1,0 L1,1 L0,1 Z " fill="#ED9163" opacity="0.85490197" transform="translate(51,20)"/>
<path d="M0,0 L1,0 L1,1 L0,1 Z " fill="#C76A3E" opacity="0.98039216" transform="translate(14,20)"/>
<path d="M0,0 L1,0 L1,1 L0,1 Z " fill="#E7AF83" opacity="0.8235294" transform="translate(59,19)"/>
<path d="M0,0 L1,0 L1,1 L0,1 Z " fill="#ED9164" opacity="0.8509804" transform="translate(54,19)"/>
<path d="M0,0 L1,0 L1,1 L0,1 Z " fill="#CE7043" opacity="0.8745098" transform="translate(11,19)"/>
<path d="M0,0 L1,0 L1,1 L0,1 Z " fill="#EE9366" transform="translate(0,19)"/>
<path d="M0,0 L1,0 L1,1 L0,1 Z " fill="#EB8F62" opacity="0.8352941" transform="translate(4,18)"/>
<path d="M0,0 L1,0 L1,1 L0,1 Z " fill="#ED9264" opacity="0.90588236" transform="translate(2,18)"/>
<path d="M0,0 L1,0 L1,1 L0,1 Z " fill="#F3C4A3" opacity="0.8156863" transform="translate(63,17)"/>
<path d="M0,0 L1,0 L1,1 L0,1 Z " fill="#F3C6A2" opacity="0.81960785" transform="translate(61,16)"/>
<path d="M0,0 L1,0 L1,1 L0,1 Z " fill="#F2C5A3" opacity="0.8235294" transform="translate(59,15)"/>
<path d="M0,0 L1,0 L1,1 L0,1 Z " fill="#F2C5A2" opacity="0.827451" transform="translate(57,14)"/>
<path d="M0,0 L1,0 L1,1 L0,1 Z " fill="#F1C6A3" opacity="0.8352941" transform="translate(55,13)"/>
<path d="M0,0 L1,0 L1,1 L0,1 Z " fill="#DC7C4D" opacity="0.83137256" transform="translate(34,13)"/>
<path d="M0,0 L1,0 L1,1 L0,1 Z " fill="#DE7D4E" opacity="0.9098039" transform="translate(30,13)"/>
<path d="M0,0 L1,0 L1,1 L0,1 Z " fill="#D37545" opacity="0.7607843" transform="translate(26,13)"/>
<path d="M0,0 L1,0 L1,1 L0,1 Z " fill="#F2C5A3" opacity="0.8392157" transform="translate(53,12)"/>
<path d="M0,0 L1,0 L1,1 L0,1 Z " fill="#D47445" opacity="0.7607843" transform="translate(41,12)"/>
<path d="M0,0 L1,0 L1,1 L0,1 Z " fill="#DC7C4C" opacity="0.8" transform="translate(23,12)"/>
<path d="M0,0 L1,0 L1,1 L0,1 Z " fill="#F2C5A3" opacity="0.827451" transform="translate(51,11)"/>
<path d="M0,0 L1,0 L1,1 L0,1 Z " fill="#E6AD82" opacity="0.8235294" transform="translate(43,11)"/>
<path d="M0,0 L1,0 L1,1 L0,1 Z " fill="#DB7C4D" opacity="0.80784315" transform="translate(20,11)"/>
<path d="M0,0 L1,0 L1,1 L0,1 Z " fill="#F2C5A3" opacity="0.827451" transform="translate(49,10)"/>
<path d="M0,0 L1,0 L1,1 L0,1 Z " fill="#E6AD83" opacity="0.827451" transform="translate(41,10)"/>
<path d="M0,0 L1,0 L1,1 L0,1 Z " fill="#DE7D4E" opacity="0.8901961" transform="translate(18,10)"/>
<path d="M0,0 L1,0 L1,1 L0,1 Z " fill="#F2C5A3" opacity="0.8235294" transform="translate(47,9)"/>
<path d="M0,0 L1,0 L1,1 L0,1 Z " fill="#E6AD83" opacity="0.8235294" transform="translate(39,9)"/>
<path d="M0,0 L1,0 L1,1 L0,1 Z " fill="#DD7D4E" opacity="0.9411765" transform="translate(16,9)"/>
<path d="M0,0 L1,0 L1,1 L0,1 Z " fill="#F2C5A3" opacity="0.8235294" transform="translate(45,8)"/>
<path d="M0,0 L1,0 L1,1 L0,1 Z " fill="#E6AD83" opacity="0.8235294" transform="translate(37,8)"/>
<path d="M0,0 L1,0 L1,1 L0,1 Z " fill="#DE7D4E" opacity="0.98039216" transform="translate(14,8)"/>
<path d="M0,0 L1,0 L1,1 L0,1 Z " fill="#FCD8B8" opacity="0.8156863" transform="translate(63,7)"/>
<path d="M0,0 L1,0 L1,1 L0,1 Z " fill="#F1C5A2" opacity="0.8235294" transform="translate(43,7)"/>
<path d="M0,0 L1,0 L1,1 L0,1 Z " fill="#E6AE82" opacity="0.8235294" transform="translate(35,7)"/>
<path d="M0,0 L1,0 L1,1 L0,1 Z " fill="#D67649" opacity="0.7529412" transform="translate(10,7)"/>
<path d="M0,0 L1,0 L1,1 L0,1 Z " fill="#FCD8B8" opacity="0.8156863" transform="translate(61,6)"/>
<path d="M0,0 L1,0 L1,1 L0,1 Z " fill="#F1C5A2" opacity="0.8235294" transform="translate(41,6)"/>
<path d="M0,0 L1,0 L1,1 L0,1 Z " fill="#E6AE82" opacity="0.8235294" transform="translate(33,6)"/>
<path d="M0,0 L1,0 L1,1 L0,1 Z " fill="#CC6E40" opacity="0.8352941" transform="translate(4,6)"/>
<path d="M0,0 L1,0 L1,1 L0,1 Z " fill="#C96B3F" opacity="0.90588236" transform="translate(2,6)"/>
<path d="M0,0 L1,0 L1,1 L0,1 Z " fill="#FCD8B8" opacity="0.8156863" transform="translate(59,5)"/>
<path d="M0,0 L1,0 L1,1 L0,1 Z " fill="#F3C6A2" opacity="0.81960785" transform="translate(39,5)"/>
<path d="M0,0 L1,0 L1,1 L0,1 Z " fill="#E6AD83" opacity="0.81960785" transform="translate(31,5)"/>
<path d="M0,0 L1,0 L1,1 L0,1 Z " fill="#FCD8B8" opacity="0.8156863" transform="translate(57,4)"/>
<path d="M0,0 L1,0 L1,1 L0,1 Z " fill="#F3C6A2" opacity="0.81960785" transform="translate(37,4)"/>
<path d="M0,0 L1,0 L1,1 L0,1 Z " fill="#E6AD83" opacity="0.81960785" transform="translate(29,4)"/>
<path d="M0,0 L1,0 L1,1 L0,1 Z " fill="#FCD8B8" opacity="0.8156863" transform="translate(55,3)"/>
<path d="M0,0 L1,0 L1,1 L0,1 Z " fill="#F2C5A1" opacity="0.81960785" transform="translate(35,3)"/>
<path d="M0,0 L1,0 L1,1 L0,1 Z " fill="#E6AC81" opacity="0.81960785" transform="translate(27,3)"/>
<path d="M0,0 L1,0 L1,1 L0,1 Z " fill="#FCD8B8" opacity="0.8156863" transform="translate(53,2)"/>
<path d="M0,0 L1,0 L1,1 L0,1 Z " fill="#F2C5A1" opacity="0.81960785" transform="translate(33,2)"/>
<path d="M0,0 L1,0 L1,1 L0,1 Z " fill="#E6AC81" opacity="0.81960785" transform="translate(25,2)"/>
<path d="M0,0 L1,0 L1,1 L0,1 Z " fill="#FCD8B8" opacity="0.8156863" transform="translate(51,1)"/>
<path d="M0,0 L1,0 L1,1 L0,1 Z " fill="#F3C4A3" opacity="0.8156863" transform="translate(31,1)"/>
<path d="M0,0 L1,0 L1,1 L0,1 Z " fill="#E7AD82" opacity="0.8156863" transform="translate(23,1)"/>
<path d="M0,0 L1,0 L1,1 L0,1 Z " fill="#353541" transform="translate(58,0)"/>
<path d="M0,0 L2,0 L2,1 L0,1 Z " fill="#FFE0C2" transform="translate(50,0)"/>
<path d="M0,0 L1,0 L1,1 L0,1 Z " fill="#FCD8B8" opacity="0.8156863" transform="translate(49,0)"/>
<path d="M0,0 L1,0 L1,1 L0,1 Z " fill="#F3C4A3" opacity="0.8156863" transform="translate(29,0)"/>
<path d="M0,0 L1,0 L1,1 L0,1 Z " fill="#E7AD82" opacity="0.8156863" transform="translate(21,0)"/>
<path d="M0,0 L1,0 L1,1 L0,1 Z " fill="#DE7E4E" opacity="0.99215686" transform="translate(58,60)"/>
<path d="M0,0 L1,0 L1,1 L0,1 Z " fill="#D97849" opacity="0.7529412" transform="translate(57,60)"/>
<path d="M0,0 L1,0 L1,1 L0,1 Z " fill="#DA7A4B" opacity="0.77254903" transform="translate(55,60)"/>
<path d="M0,0 L1,0 L1,1 L0,1 Z " fill="#D37445" opacity="0.76862746" transform="translate(58,59)"/>
<path d="M0,0 L1,0 L1,1 L0,1 Z " fill="#C66A3D" transform="translate(55,59)"/>
<path d="M0,0 L1,0 L1,1 L0,1 Z " fill="#DA7B4B" opacity="0.78039217" transform="translate(54,59)"/>
<path d="M0,0 L1,0 L1,1 L0,1 Z " fill="#DE7D4E" opacity="0.9254902" transform="translate(59,58)"/>
<path d="M0,0 L1,0 L1,1 L0,1 Z " fill="#DF7E4F" opacity="0.85490197" transform="translate(38,58)"/>
<path d="M0,0 L1,0 L1,1 L0,1 Z " fill="#E28153" opacity="0.75686276" transform="translate(37,58)"/>
<path d="M0,0 L1,0 L1,1 L0,1 Z " fill="#E9895C" opacity="0.7882353" transform="translate(35,58)"/>
<path d="M0,0 L1,0 L1,1 L0,1 Z " fill="#EC9061" opacity="0.8862745" transform="translate(33,58)"/>
<path d="M0,0 L1,0 L1,1 L0,1 Z " fill="#ED9165" opacity="0.972549" transform="translate(31,58)"/>
<path d="M0,0 L1,0 L1,1 L0,1 Z " fill="#EC8F5F" opacity="0.85882354" transform="translate(29,58)"/>
<path d="M0,0 L1,0 L1,1 L0,1 Z " fill="#E58759" opacity="0.7647059" transform="translate(27,58)"/>
<path d="M0,0 L1,0 L1,1 L0,1 Z " fill="#DE7E4E" opacity="0.8392157" transform="translate(25,58)"/>
<path d="M0,0 L1,0 L1,1 L0,1 Z " fill="#DE7E4F" opacity="0.9764706" transform="translate(24,58)"/>
<path d="M0,0 L1,0 L1,1 L0,1 Z " fill="#DE7E4E" opacity="0.99215686" transform="translate(59,57)"/>
<path d="M0,0 L1,0 L1,1 L0,1 Z " fill="#CA6D3F" opacity="0.8745098" transform="translate(58,57)"/>
<path d="M0,0 L1,0 L1,1 L0,1 Z " fill="#D47647" opacity="0.75686276" transform="translate(54,57)"/>
<path d="M0,0 L1,0 L1,1 L0,1 Z " fill="#DE7D4F" opacity="0.9098039" transform="translate(42,57)"/>
<path d="M0,0 L1,0 L1,1 L0,1 Z " fill="#E7895B" opacity="0.78039217" transform="translate(40,57)"/>
<path d="M0,0 L1,0 L1,1 L0,1 Z " fill="#ED9063" opacity="0.92941177" transform="translate(39,57)"/>
<path d="M0,0 L1,0 L1,1 L0,1 Z " fill="#EE9164" opacity="0.9843137" transform="translate(24,57)"/>
<path d="M0,0 L1,0 L1,1 L0,1 Z " fill="#E28153" opacity="0.7607843" transform="translate(22,57)"/>
<path d="M0,0 L1,0 L1,1 L0,1 Z " fill="#DE7D4E" opacity="0.92941177" transform="translate(21,57)"/>
<path d="M0,0 L1,0 L1,1 L0,1 Z " fill="#DE7D4D" opacity="0.89411765" transform="translate(58,56)"/>
<path d="M0,0 L1,0 L1,1 L0,1 Z " fill="#CB6D40" opacity="0.8745098" transform="translate(57,56)"/>
<path d="M0,0 L1,0 L1,1 L0,1 Z " fill="#C6683D" opacity="0.99607843" transform="translate(56,56)"/>
<path d="M0,0 L1,0 L1,1 L0,1 Z " fill="#D27245" opacity="0.76862746" transform="translate(55,56)"/>
<path d="M0,0 L1,0 L1,1 L0,1 Z " fill="#DE7D4F" opacity="0.9882353" transform="translate(54,56)"/>
<path d="M0,0 L1,0 L1,1 L0,1 Z " fill="#E8895A" opacity="0.7764706" transform="translate(43,56)"/>
<path d="M0,0 L1,0 L1,1 L0,1 Z " fill="#EE9264" opacity="0.9882353" transform="translate(42,56)"/>
<path d="M0,0 L1,0 L1,1 L0,1 Z " fill="#EE9165" opacity="0.99215686" transform="translate(21,56)"/>
<path d="M0,0 L1,0 L1,1 L0,1 Z " fill="#E18152" opacity="0.78039217" transform="translate(19,56)"/>
<path d="M0,0 L1,0 L1,1 L0,1 Z " fill="#DE7E4E" opacity="0.99215686" transform="translate(18,56)"/>
<path d="M0,0 L1,0 L1,1 L0,1 Z " fill="#DE7D4E" opacity="0.92941177" transform="translate(56,55)"/>
<path d="M0,0 L1,0 L1,1 L0,1 Z " fill="#E18152" opacity="0.7647059" transform="translate(46,55)"/>
<path d="M0,0 L1,0 L1,1 L0,1 Z " fill="#EA8E60" opacity="0.8509804" transform="translate(45,55)"/>
<path d="M0,0 L1,0 L1,1 L0,1 Z " fill="#EC9062" opacity="0.8901961" transform="translate(18,55)"/>
<path d="M0,0 L1,0 L1,1 L0,1 Z " fill="#E28153" opacity="0.75686276" transform="translate(17,55)"/>
<path d="M0,0 L1,0 L1,1 L0,1 Z " fill="#DE7E4E" opacity="0.9607843" transform="translate(16,55)"/>
<path d="M0,0 L1,0 L1,1 L0,1 Z " fill="#E48556" opacity="0.7529412" transform="translate(48,54)"/>
<path d="M0,0 L1,0 L1,1 L0,1 Z " fill="#ED9063" opacity="0.9372549" transform="translate(47,54)"/>
<path d="M0,0 L1,0 L1,1 L0,1 Z " fill="#E48556" opacity="0.7529412" transform="translate(15,54)"/>
<path d="M0,0 L1,0 L1,1 L0,1 Z " fill="#DF7E4E" opacity="0.9137255" transform="translate(14,54)"/>
<path d="M0,0 L1,0 L1,1 L0,1 Z " fill="#E58759" opacity="0.7647059" transform="translate(50,53)"/>
<path d="M0,0 L1,0 L1,1 L0,1 Z " fill="#ED9163" opacity="0.9764706" transform="translate(49,53)"/>
<path d="M0,0 L1,0 L1,1 L0,1 Z " fill="#E58758" opacity="0.76862746" transform="translate(43,53)"/>
<path d="M0,0 L1,0 L1,1 L0,1 Z " fill="#EB8C5E" opacity="0.827451" transform="translate(41,53)"/>
<path d="M0,0 L1,0 L1,1 L0,1 Z " fill="#E58859" opacity="0.7647059" transform="translate(13,53)"/>
<path d="M0,0 L1,0 L1,1 L0,1 Z " fill="#E07F4F" opacity="0.8509804" transform="translate(12,53)"/>
<path d="M0,0 L1,0 L1,1 L0,1 Z " fill="#E48555" opacity="0.7529412" transform="translate(53,52)"/>
<path d="M0,0 L1,0 L1,1 L0,1 Z " fill="#EB8E60" opacity="0.87058824" transform="translate(52,52)"/>
<path d="M0,0 L1,0 L1,1 L0,1 Z " fill="#E48556" opacity="0.7529412" transform="translate(44,52)"/>
<path d="M0,0 L1,0 L1,1 L0,1 Z " fill="#DE7E4E" opacity="0.96862745" transform="translate(41,52)"/>
<path d="M0,0 L1,0 L1,1 L0,1 Z " fill="#EA8D5D" opacity="0.8235294" transform="translate(40,52)"/>
<path d="M0,0 L1,0 L1,1 L0,1 Z " fill="#E48556" opacity="0.7529412" transform="translate(10,52)"/>
<path d="M0,0 L1,0 L1,1 L0,1 Z " fill="#DE7E4F" opacity="0.84705883" transform="translate(9,52)"/>
<path d="M0,0 L1,0 L1,1 L0,1 Z " fill="#DE7D4E" opacity="0.9411765" transform="translate(62,51)"/>
<path d="M0,0 L1,0 L1,1 L0,1 Z " fill="#DE7D4E" opacity="0.87058824" transform="translate(60,51)"/>
<path d="M0,0 L1,0 L1,1 L0,1 Z " fill="#E18152" opacity="0.7647059" transform="translate(58,51)"/>
<path d="M0,0 L1,0 L1,1 L0,1 Z " fill="#E98C5E" opacity="0.8156863" transform="translate(56,51)"/>
<path d="M0,0 L1,0 L1,1 L0,1 Z " fill="#ED9164" opacity="0.94509804" transform="translate(55,51)"/>
<path d="M0,0 L1,0 L1,1 L0,1 Z " fill="#ED9063" opacity="0.9372549" transform="translate(45,51)"/>
<path d="M0,0 L1,0 L1,1 L0,1 Z " fill="#ED9164" opacity="0.94509804" transform="translate(8,51)"/>
<path d="M0,0 L1,0 L1,1 L0,1 Z " fill="#E98C5E" opacity="0.8156863" transform="translate(7,51)"/>
<path d="M0,0 L1,0 L1,1 L0,1 Z " fill="#E18152" opacity="0.7647059" transform="translate(5,51)"/>
<path d="M0,0 L1,0 L1,1 L0,1 Z " fill="#DE7D4E" opacity="0.87058824" transform="translate(3,51)"/>
<path d="M0,0 L1,0 L1,1 L0,1 Z " fill="#DE7D4E" opacity="0.9411765" transform="translate(1,51)"/>
<path d="M0,0 L1,0 L1,1 L0,1 Z " fill="#DE7E4E" opacity="0.9843137" transform="translate(0,51)"/>
<path d="M0,0 L1,0 L1,1 L0,1 Z " fill="#ED9265" opacity="0.98039216" transform="translate(45,50)"/>
<path d="M0,0 L1,0 L1,1 L0,1 Z " fill="#DE7E4E" opacity="0.92156863" transform="translate(44,50)"/>
<path d="M0,0 L1,0 L1,1 L0,1 Z " fill="#E08151" opacity="0.77254903" transform="translate(40,50)"/>
<path d="M0,0 L1,0 L1,1 L0,1 Z " fill="#EA8E5E" opacity="0.8392157" transform="translate(44,49)"/>
<path d="M0,0 L1,0 L1,1 L0,1 Z " fill="#DE7D4E" opacity="0.94509804" transform="translate(43,49)"/>
<path d="M0,0 L1,0 L1,1 L0,1 Z " fill="#E07F50" opacity="0.827451" transform="translate(41,49)"/>
<path d="M0,0 L1,0 L1,1 L0,1 Z " fill="#EE9264" opacity="0.9529412" transform="translate(40,49)"/>
<path d="M0,0 L1,0 L1,1 L0,1 Z " fill="#E78A5C" opacity="0.7921569" transform="translate(51,48)"/>
<path d="M0,0 L1,0 L1,1 L0,1 Z " fill="#E28354" opacity="0.75686276" transform="translate(49,48)"/>
<path d="M0,0 L1,0 L1,1 L0,1 Z " fill="#ED9063" opacity="0.9098039" transform="translate(48,48)"/>
<path d="M0,0 L1,0 L1,1 L0,1 Z " fill="#EB8D5F" opacity="0.827451" transform="translate(42,48)"/>
<path d="M0,0 L1,0 L1,1 L0,1 Z " fill="#EE9265" transform="translate(41,48)"/>
<path d="M0,0 L1,0 L1,1 L0,1 Z " fill="#E48556" opacity="0.7529412" transform="translate(52,47)"/>
<path d="M0,0 L1,0 L1,1 L0,1 Z " fill="#DE7E4E" opacity="0.9254902" transform="translate(48,47)"/>
<path d="M0,0 L1,0 L1,1 L0,1 Z " fill="#EC8E60" opacity="0.85490197" transform="translate(47,47)"/>
<path d="M0,0 L1,0 L1,1 L0,1 Z " fill="#E58658" opacity="0.7607843" transform="translate(53,46)"/>
<path d="M0,0 L1,0 L1,1 L0,1 Z " fill="#DE7D4E" opacity="0.93333334" transform="translate(47,46)"/>
<path d="M0,0 L1,0 L1,1 L0,1 Z " fill="#EB8E61" opacity="0.88235295" transform="translate(46,46)"/>
<path d="M0,0 L1,0 L1,1 L0,1 Z " fill="#DE7D4F" opacity="0.9647059" transform="translate(53,45)"/>
<path d="M0,0 L1,0 L1,1 L0,1 Z " fill="#E18052" opacity="0.78039217" transform="translate(46,45)"/>
<path d="M0,0 L1,0 L1,1 L0,1 Z " fill="#ED9063" opacity="0.92941177" transform="translate(54,44)"/>
<path d="M0,0 L1,0 L1,1 L0,1 Z " fill="#DF7E50" opacity="0.827451" transform="translate(53,43)"/>
<path d="M0,0 L1,0 L1,1 L0,1 Z " fill="#E58556" opacity="0.7529412" transform="translate(46,43)"/>
<path d="M0,0 L1,0 L1,1 L0,1 Z " fill="#DE7E4E" opacity="0.89411765" transform="translate(52,42)"/>
<path d="M0,0 L1,0 L1,1 L0,1 Z " fill="#E08152" opacity="0.7764706" transform="translate(47,42)"/>
<path d="M0,0 L1,0 L1,1 L0,1 Z " fill="#DE7E4F" opacity="0.85882354" transform="translate(51,41)"/>
<path d="M0,0 L1,0 L1,1 L0,1 Z " fill="#E18254" opacity="0.7607843" transform="translate(48,41)"/>
<path d="M0,0 L1,0 L1,1 L0,1 Z " fill="#EE9164" opacity="0.9843137" transform="translate(51,40)"/>
<path d="M0,0 L1,0 L1,1 L0,1 Z " fill="#EB8E60" opacity="0.87058824" transform="translate(49,40)"/>
<path d="M0,0 L1,0 L1,1 L0,1 Z " fill="#EE9163" opacity="0.85490197" transform="translate(38,40)"/>
<path d="M0,0 L1,0 L1,1 L0,1 Z " fill="#E5885B" opacity="0.75686276" transform="translate(37,40)"/>
<path d="M0,0 L1,0 L1,1 L0,1 Z " fill="#D57A4C" opacity="0.7882353" transform="translate(35,40)"/>
<path d="M0,0 L1,0 L1,1 L0,1 Z " fill="#CD7042" opacity="0.8862745" transform="translate(33,40)"/>
<path d="M0,0 L1,0 L1,1 L0,1 Z " fill="#C86B3E" opacity="0.972549" transform="translate(31,40)"/>
<path d="M0,0 L1,0 L1,1 L0,1 Z " fill="#CD7144" opacity="0.85882354" transform="translate(29,40)"/>
<path d="M0,0 L1,0 L1,1 L0,1 Z " fill="#D97E52" opacity="0.7647059" transform="translate(27,40)"/>
<path d="M0,0 L1,0 L1,1 L0,1 Z " fill="#EB9063" opacity="0.8392157" transform="translate(25,40)"/>
<path d="M0,0 L1,0 L1,1 L0,1 Z " fill="#EE9365" opacity="0.9764706" transform="translate(24,40)"/>
<path d="M0,0 L1,0 L1,1 L0,1 Z " fill="#EE9265" opacity="0.9098039" transform="translate(42,39)"/>
<path d="M0,0 L1,0 L1,1 L0,1 Z " fill="#D87A4D" opacity="0.78039217" transform="translate(40,39)"/>
<path d="M0,0 L1,0 L1,1 L0,1 Z " fill="#C96D40" opacity="0.92941177" transform="translate(39,39)"/>
<path d="M0,0 L1,0 L1,1 L0,1 Z " fill="#C66B3E" opacity="0.9843137" transform="translate(24,39)"/>
<path d="M0,0 L1,0 L1,1 L0,1 Z " fill="#E68A5D" opacity="0.7607843" transform="translate(22,39)"/>
<path d="M0,0 L1,0 L1,1 L0,1 Z " fill="#EE9265" opacity="0.92941177" transform="translate(21,39)"/>
<path d="M0,0 L1,0 L1,1 L0,1 Z " fill="#D77C4E" opacity="0.7764706" transform="translate(43,38)"/>
<path d="M0,0 L1,0 L1,1 L0,1 Z " fill="#C7693D" opacity="0.9882353" transform="translate(42,38)"/>
<path d="M0,0 L1,0 L1,1 L0,1 Z " fill="#C66A3D" opacity="0.99215686" transform="translate(21,38)"/>
<path d="M0,0 L1,0 L1,1 L0,1 Z " fill="#E88D5F" opacity="0.78039217" transform="translate(19,38)"/>
<path d="M0,0 L1,0 L1,1 L0,1 Z " fill="#EE9266" opacity="0.99215686" transform="translate(18,38)"/>
<path d="M0,0 L1,0 L1,1 L0,1 Z " fill="#E78B5E" opacity="0.7647059" transform="translate(46,37)"/>
<path d="M0,0 L1,0 L1,1 L0,1 Z " fill="#CF7245" opacity="0.8509804" transform="translate(45,37)"/>
<path d="M0,0 L1,0 L1,1 L0,1 Z " fill="#CD6F42" opacity="0.8901961" transform="translate(18,37)"/>
<path d="M0,0 L1,0 L1,1 L0,1 Z " fill="#E5885B" opacity="0.75686276" transform="translate(17,37)"/>
<path d="M0,0 L1,0 L1,1 L0,1 Z " fill="#EE9366" opacity="0.9607843" transform="translate(16,37)"/>
<path d="M0,0 L1,0 L1,1 L0,1 Z " fill="#E08456" opacity="0.7529412" transform="translate(48,36)"/>
<path d="M0,0 L1,0 L1,1 L0,1 Z " fill="#C96C3F" opacity="0.9372549" transform="translate(47,36)"/>
<path d="M0,0 L1,0 L1,1 L0,1 Z " fill="#C66A3D" transform="translate(39,36)"/>
<path d="M0,0 L1,0 L1,1 L0,1 Z " fill="#CB6D41" opacity="0.85490197" transform="translate(38,36)"/>
<path d="M0,0 L1,0 L1,1 L0,1 Z " fill="#D57446" opacity="0.75686276" transform="translate(37,36)"/>
<path d="M0,0 L1,0 L1,1 L0,1 Z " fill="#DC7B4C" opacity="0.7882353" transform="translate(35,36)"/>
<path d="M0,0 L1,0 L1,1 L0,1 Z " fill="#DE7C4E" opacity="0.8862745" transform="translate(33,36)"/>
<path d="M0,0 L1,0 L1,1 L0,1 Z " fill="#DD7D4E" opacity="0.972549" transform="translate(31,36)"/>
<path d="M0,0 L1,0 L1,1 L0,1 Z " fill="#DC7D4D" opacity="0.85882354" transform="translate(29,36)"/>
<path d="M0,0 L1,0 L1,1 L0,1 Z " fill="#D97A4A" opacity="0.7647059" transform="translate(27,36)"/>
<path d="M0,0 L1,0 L1,1 L0,1 Z " fill="#CB6F40" opacity="0.8392157" transform="translate(25,36)"/>
<path d="M0,0 L1,0 L1,1 L0,1 Z " fill="#C6693D" opacity="0.9764706" transform="translate(24,36)"/>
<path d="M0,0 L1,0 L1,1 L0,1 Z " fill="#C86C40" opacity="0.9411765" transform="translate(16,36)"/>
<path d="M0,0 L1,0 L1,1 L0,1 Z " fill="#E08456" opacity="0.7529412" transform="translate(15,36)"/>
<path d="M0,0 L1,0 L1,1 L0,1 Z " fill="#ED9365" opacity="0.9137255" transform="translate(14,36)"/>
<path d="M0,0 L1,0 L1,1 L0,1 Z " fill="#D97E52" opacity="0.7647059" transform="translate(50,35)"/>
<path d="M0,0 L1,0 L1,1 L0,1 Z " fill="#C76A3E" opacity="0.9764706" transform="translate(49,35)"/>
<path d="M0,0 L1,0 L1,1 L0,1 Z " fill="#C96B3E" opacity="0.9098039" transform="translate(42,35)"/>
<path d="M0,0 L1,0 L1,1 L0,1 Z " fill="#DB7B4B" opacity="0.78039217" transform="translate(40,35)"/>
<path d="M0,0 L1,0 L1,1 L0,1 Z " fill="#DE7D4E" opacity="0.92941177" transform="translate(39,35)"/>
<path d="M0,0 L1,0 L1,1 L0,1 Z " fill="#DE7E4E" opacity="0.9843137" transform="translate(24,35)"/>
<path d="M0,0 L1,0 L1,1 L0,1 Z " fill="#D37445" opacity="0.7607843" transform="translate(22,35)"/>
<path d="M0,0 L1,0 L1,1 L0,1 Z " fill="#C86A3E" opacity="0.92941177" transform="translate(21,35)"/>
<path d="M0,0 L1,0 L1,1 L0,1 Z " fill="#DB7E51" opacity="0.7647059" transform="translate(13,35)"/>
<path d="M0,0 L1,0 L1,1 L0,1 Z " fill="#ED9164" opacity="0.8509804" transform="translate(12,35)"/>
<path d="M0,0 L1,0 L1,1 L0,1 Z " fill="#E08456" opacity="0.7529412" transform="translate(53,34)"/>
<path d="M0,0 L1,0 L1,1 L0,1 Z " fill="#CE7144" opacity="0.87058824" transform="translate(52,34)"/>
<path d="M0,0 L1,0 L1,1 L0,1 Z " fill="#C6693D" transform="translate(45,34)"/>
<path d="M0,0 L1,0 L1,1 L0,1 Z " fill="#DB7A4C" opacity="0.7764706" transform="translate(43,34)"/>
<path d="M0,0 L1,0 L1,1 L0,1 Z " fill="#DE7D4F" opacity="0.9882353" transform="translate(42,34)"/>
<path d="M0,0 L1,0 L1,1 L0,1 Z " fill="#DE7E4E" opacity="0.99215686" transform="translate(21,34)"/>
<path d="M0,0 L1,0 L1,1 L0,1 Z " fill="#D07244" opacity="0.78039217" transform="translate(19,34)"/>
<path d="M0,0 L1,0 L1,1 L0,1 Z " fill="#C66A3D" opacity="0.99215686" transform="translate(18,34)"/>
<path d="M0,0 L1,0 L1,1 L0,1 Z " fill="#E08456" opacity="0.7529412" transform="translate(10,34)"/>
<path d="M0,0 L1,0 L1,1 L0,1 Z " fill="#ED9163" opacity="0.84705883" transform="translate(9,34)"/>
<path d="M0,0 L1,0 L1,1 L0,1 Z " fill="#ED9265" opacity="0.9411765" transform="translate(62,33)"/>
<path d="M0,0 L1,0 L1,1 L0,1 Z " fill="#EC9164" opacity="0.87058824" transform="translate(60,33)"/>
<path d="M0,0 L1,0 L1,1 L0,1 Z " fill="#E78B5D" opacity="0.7647059" transform="translate(58,33)"/>
<path d="M0,0 L1,0 L1,1 L0,1 Z " fill="#D37648" opacity="0.8156863" transform="translate(56,33)"/>
<path d="M0,0 L1,0 L1,1 L0,1 Z " fill="#C96C3F" opacity="0.94509804" transform="translate(55,33)"/>
<path d="M0,0 L1,0 L1,1 L0,1 Z " fill="#D27345" opacity="0.7647059" transform="translate(46,33)"/>
<path d="M0,0 L1,0 L1,1 L0,1 Z " fill="#DD7B4D" opacity="0.8509804" transform="translate(45,33)"/>
<path d="M0,0 L1,0 L1,1 L0,1 Z " fill="#D57446" opacity="0.75686276" transform="translate(17,33)"/>
<path d="M0,0 L1,0 L1,1 L0,1 Z " fill="#C86A3E" opacity="0.9607843" transform="translate(16,33)"/>
<path d="M0,0 L1,0 L1,1 L0,1 Z " fill="#C96C3F" opacity="0.94509804" transform="translate(8,33)"/>
<path d="M0,0 L1,0 L1,1 L0,1 Z " fill="#D37648" opacity="0.8156863" transform="translate(7,33)"/>
<path d="M0,0 L1,0 L1,1 L0,1 Z " fill="#E78B5D" opacity="0.7647059" transform="translate(5,33)"/>
<path d="M0,0 L1,0 L1,1 L0,1 Z " fill="#EC9164" opacity="0.87058824" transform="translate(3,33)"/>
<path d="M0,0 L1,0 L1,1 L0,1 Z " fill="#ED9265" opacity="0.9411765" transform="translate(1,33)"/>
<path d="M0,0 L1,0 L1,1 L0,1 Z " fill="#EE9265" opacity="0.9843137" transform="translate(0,33)"/>
<path d="M0,0 L1,0 L1,1 L0,1 Z " fill="#D67649" opacity="0.7529412" transform="translate(48,32)"/>
<path d="M0,0 L1,0 L1,1 L0,1 Z " fill="#DE7D4E" opacity="0.9372549" transform="translate(47,32)"/>
<path d="M0,0 L1,0 L1,1 L0,1 Z " fill="#D67648" opacity="0.7529412" transform="translate(15,32)"/>
<path d="M0,0 L1,0 L1,1 L0,1 Z " fill="#C96C3F" opacity="0.9137255" transform="translate(14,32)"/>
<path d="M0,0 L1,0 L1,1 L0,1 Z " fill="#C6693D" transform="translate(52,31)"/>
<path d="M0,0 L1,0 L1,1 L0,1 Z " fill="#D97A4A" opacity="0.7647059" transform="translate(50,31)"/>
<path d="M0,0 L1,0 L1,1 L0,1 Z " fill="#DE7E4F" opacity="0.9764706" transform="translate(49,31)"/>
<path d="M0,0 L1,0 L1,1 L0,1 Z " fill="#D97A4A" opacity="0.7647059" transform="translate(13,31)"/>
<path d="M0,0 L1,0 L1,1 L0,1 Z " fill="#CC6D40" opacity="0.8509804" transform="translate(12,31)"/>
<path d="M0,0 L1,0 L1,1 L0,1 Z " fill="#C6693D" transform="translate(11,31)"/>
<path d="M0,0 L1,0 L1,1 L0,1 Z " fill="#C6693D" transform="translate(55,30)"/>
<path d="M0,0 L1,0 L1,1 L0,1 Z " fill="#D67649" opacity="0.7529412" transform="translate(53,30)"/>
<path d="M0,0 L1,0 L1,1 L0,1 Z " fill="#DE7C4D" opacity="0.87058824" transform="translate(52,30)"/>
<path d="M0,0 L1,0 L1,1 L0,1 Z " fill="#DD7D4E" opacity="0.8745098" transform="translate(11,30)"/>
<path d="M0,0 L1,0 L1,1 L0,1 Z " fill="#CB6F41" opacity="0.84705883" transform="translate(9,30)"/>
<path d="M0,0 L1,0 L1,1 L0,1 Z " fill="#C6693D" transform="translate(8,30)"/>
<path d="M0,0 L1,0 L1,1 L0,1 Z " fill="#C66A3E" opacity="0.9843137" transform="translate(63,29)"/>
<path d="M0,0 L1,0 L1,1 L0,1 Z " fill="#C96B3F" opacity="0.90588236" transform="translate(61,29)"/>
<path d="M0,0 L1,0 L1,1 L0,1 Z " fill="#CC6E40" opacity="0.8352941" transform="translate(59,29)"/>
<path d="M0,0 L1,0 L1,1 L0,1 Z " fill="#D27345" opacity="0.7647059" transform="translate(58,29)"/>
<path d="M0,0 L1,0 L1,1 L0,1 Z " fill="#DD7C4C" opacity="0.8156863" transform="translate(56,29)"/>
<path d="M0,0 L1,0 L1,1 L0,1 Z " fill="#DE7E4E" opacity="0.94509804" transform="translate(55,29)"/>
<path d="M0,0 L1,0 L1,1 L0,1 Z " fill="#DF7E4F" opacity="0.85490197" transform="translate(38,29)"/>
<path d="M0,0 L1,0 L1,1 L0,1 Z " fill="#E28153" opacity="0.75686276" transform="translate(37,29)"/>
<path d="M0,0 L1,0 L1,1 L0,1 Z " fill="#E9895C" opacity="0.7882353" transform="translate(35,29)"/>
<path d="M0,0 L1,0 L1,1 L0,1 Z " fill="#EC9061" opacity="0.8862745" transform="translate(33,29)"/>
<path d="M0,0 L1,0 L1,1 L0,1 Z " fill="#EE9265" opacity="0.9607843" transform="translate(32,29)"/>
<path d="M0,0 L1,0 L1,1 L0,1 Z " fill="#ED9165" opacity="0.972549" transform="translate(31,29)"/>
<path d="M0,0 L1,0 L1,1 L0,1 Z " fill="#EC8F5F" opacity="0.85882354" transform="translate(29,29)"/>
<path d="M0,0 L1,0 L1,1 L0,1 Z " fill="#E58759" opacity="0.7647059" transform="translate(27,29)"/>
<path d="M0,0 L1,0 L1,1 L0,1 Z " fill="#DE7E4E" opacity="0.8392157" transform="translate(25,29)"/>
<path d="M0,0 L1,0 L1,1 L0,1 Z " fill="#DE7E4F" opacity="0.9764706" transform="translate(24,29)"/>
<path d="M0,0 L1,0 L1,1 L0,1 Z " fill="#DE7E4E" opacity="0.94509804" transform="translate(8,29)"/>
<path d="M0,0 L1,0 L1,1 L0,1 Z " fill="#DD7C4C" opacity="0.8156863" transform="translate(7,29)"/>
<path d="M0,0 L1,0 L1,1 L0,1 Z " fill="#D27345" opacity="0.7647059" transform="translate(5,29)"/>
<path d="M0,0 L1,0 L1,1 L0,1 Z " fill="#C96D3F" opacity="0.87058824" transform="translate(3,29)"/>
<path d="M0,0 L1,0 L1,1 L0,1 Z " fill="#C76A3E" opacity="0.9411765" transform="translate(1,29)"/>
<path d="M0,0 L1,0 L1,1 L0,1 Z " fill="#C66A3E" opacity="0.9843137" transform="translate(0,29)"/>
<path d="M0,0 L1,0 L1,1 L0,1 Z " fill="#DE7D4F" opacity="0.9098039" transform="translate(42,28)"/>
<path d="M0,0 L1,0 L1,1 L0,1 Z " fill="#E7895B" opacity="0.78039217" transform="translate(40,28)"/>
<path d="M0,0 L1,0 L1,1 L0,1 Z " fill="#ED9063" opacity="0.92941177" transform="translate(39,28)"/>
<path d="M0,0 L1,0 L1,1 L0,1 Z " fill="#EE9164" opacity="0.9843137" transform="translate(24,28)"/>
<path d="M0,0 L1,0 L1,1 L0,1 Z " fill="#E28153" opacity="0.7607843" transform="translate(22,28)"/>
<path d="M0,0 L1,0 L1,1 L0,1 Z " fill="#DE7D4E" opacity="0.92941177" transform="translate(21,28)"/>
<path d="M0,0 L1,0 L1,1 L0,1 Z " fill="#E8895A" opacity="0.7764706" transform="translate(43,27)"/>
<path d="M0,0 L1,0 L1,1 L0,1 Z " fill="#EE9264" opacity="0.9882353" transform="translate(42,27)"/>
<path d="M0,0 L1,0 L1,1 L0,1 Z " fill="#EE9165" opacity="0.99215686" transform="translate(21,27)"/>
<path d="M0,0 L1,0 L1,1 L0,1 Z " fill="#E18152" opacity="0.78039217" transform="translate(19,27)"/>
<path d="M0,0 L1,0 L1,1 L0,1 Z " fill="#DE7E4E" opacity="0.99215686" transform="translate(18,27)"/>
<path d="M0,0 L1,0 L1,1 L0,1 Z " fill="#E18152" opacity="0.7647059" transform="translate(46,26)"/>
<path d="M0,0 L1,0 L1,1 L0,1 Z " fill="#EA8E60" opacity="0.8509804" transform="translate(45,26)"/>
<path d="M0,0 L1,0 L1,1 L0,1 Z " fill="#EC9062" opacity="0.8901961" transform="translate(18,26)"/>
<path d="M0,0 L1,0 L1,1 L0,1 Z " fill="#E28153" opacity="0.75686276" transform="translate(17,26)"/>
<path d="M0,0 L1,0 L1,1 L0,1 Z " fill="#DE7E4E" opacity="0.9607843" transform="translate(16,26)"/>
<path d="M0,0 L1,0 L1,1 L0,1 Z " fill="#E48556" opacity="0.7529412" transform="translate(48,25)"/>
<path d="M0,0 L1,0 L1,1 L0,1 Z " fill="#ED9063" opacity="0.9372549" transform="translate(47,25)"/>
<path d="M0,0 L1,0 L1,1 L0,1 Z " fill="#EE9163" opacity="0.85490197" transform="translate(38,25)"/>
<path d="M0,0 L1,0 L1,1 L0,1 Z " fill="#E5885B" opacity="0.75686276" transform="translate(37,25)"/>
<path d="M0,0 L1,0 L1,1 L0,1 Z " fill="#D57A4C" opacity="0.7882353" transform="translate(35,25)"/>
<path d="M0,0 L1,0 L1,1 L0,1 Z " fill="#CD7042" opacity="0.8862745" transform="translate(33,25)"/>
<path d="M0,0 L1,0 L1,1 L0,1 Z " fill="#C86B3E" opacity="0.972549" transform="translate(31,25)"/>
<path d="M0,0 L1,0 L1,1 L0,1 Z " fill="#CD7144" opacity="0.85882354" transform="translate(29,25)"/>
<path d="M0,0 L1,0 L1,1 L0,1 Z " fill="#D97E52" opacity="0.7647059" transform="translate(27,25)"/>
<path d="M0,0 L1,0 L1,1 L0,1 Z " fill="#EB9063" opacity="0.8392157" transform="translate(25,25)"/>
<path d="M0,0 L1,0 L1,1 L0,1 Z " fill="#EE9365" opacity="0.9764706" transform="translate(24,25)"/>
<path d="M0,0 L1,0 L1,1 L0,1 Z " fill="#E48556" opacity="0.7529412" transform="translate(15,25)"/>
<path d="M0,0 L1,0 L1,1 L0,1 Z " fill="#DF7E4E" opacity="0.9137255" transform="translate(14,25)"/>
<path d="M0,0 L1,0 L1,1 L0,1 Z " fill="#E58759" opacity="0.7647059" transform="translate(50,24)"/>
<path d="M0,0 L1,0 L1,1 L0,1 Z " fill="#ED9163" opacity="0.9764706" transform="translate(49,24)"/>
<path d="M0,0 L1,0 L1,1 L0,1 Z " fill="#EE9265" opacity="0.9098039" transform="translate(42,24)"/>
<path d="M0,0 L1,0 L1,1 L0,1 Z " fill="#D87A4D" opacity="0.78039217" transform="translate(40,24)"/>
<path d="M0,0 L1,0 L1,1 L0,1 Z " fill="#C96D40" opacity="0.92941177" transform="translate(39,24)"/>
<path d="M0,0 L1,0 L1,1 L0,1 Z " fill="#C66B3E" opacity="0.9843137" transform="translate(24,24)"/>
<path d="M0,0 L1,0 L1,1 L0,1 Z " fill="#E68A5D" opacity="0.7607843" transform="translate(22,24)"/>
<path d="M0,0 L1,0 L1,1 L0,1 Z " fill="#EE9265" opacity="0.92941177" transform="translate(21,24)"/>
<path d="M0,0 L1,0 L1,1 L0,1 Z " fill="#E58859" opacity="0.7647059" transform="translate(13,24)"/>
<path d="M0,0 L1,0 L1,1 L0,1 Z " fill="#E07F4F" opacity="0.8509804" transform="translate(12,24)"/>
<path d="M0,0 L1,0 L1,1 L0,1 Z " fill="#E48555" opacity="0.7529412" transform="translate(53,23)"/>
<path d="M0,0 L1,0 L1,1 L0,1 Z " fill="#EB8E60" opacity="0.87058824" transform="translate(52,23)"/>
<path d="M0,0 L1,0 L1,1 L0,1 Z " fill="#D77C4E" opacity="0.7764706" transform="translate(43,23)"/>
<path d="M0,0 L1,0 L1,1 L0,1 Z " fill="#C7693D" opacity="0.9882353" transform="translate(42,23)"/>
<path d="M0,0 L1,0 L1,1 L0,1 Z " fill="#C66A3D" opacity="0.99215686" transform="translate(21,23)"/>
<path d="M0,0 L1,0 L1,1 L0,1 Z " fill="#D4774A" opacity="0.80784315" transform="translate(20,23)"/>
<path d="M0,0 L1,0 L1,1 L0,1 Z " fill="#E88D5F" opacity="0.78039217" transform="translate(19,23)"/>
<path d="M0,0 L1,0 L1,1 L0,1 Z " fill="#EE9266" opacity="0.99215686" transform="translate(18,23)"/>
<path d="M0,0 L1,0 L1,1 L0,1 Z " fill="#E48556" opacity="0.7529412" transform="translate(10,23)"/>
<path d="M0,0 L1,0 L1,1 L0,1 Z " fill="#DE7E4F" opacity="0.84705883" transform="translate(9,23)"/>
<path d="M0,0 L1,0 L1,1 L0,1 Z " fill="#DE7D4E" opacity="0.9411765" transform="translate(62,22)"/>
<path d="M0,0 L1,0 L1,1 L0,1 Z " fill="#DE7D4E" opacity="0.87058824" transform="translate(60,22)"/>
<path d="M0,0 L1,0 L1,1 L0,1 Z " fill="#E18152" opacity="0.7647059" transform="translate(58,22)"/>
<path d="M0,0 L1,0 L1,1 L0,1 Z " fill="#E98C5E" opacity="0.8156863" transform="translate(56,22)"/>
<path d="M0,0 L1,0 L1,1 L0,1 Z " fill="#ED9164" opacity="0.94509804" transform="translate(55,22)"/>
<path d="M0,0 L1,0 L1,1 L0,1 Z " fill="#E78B5E" opacity="0.7647059" transform="translate(46,22)"/>
<path d="M0,0 L1,0 L1,1 L0,1 Z " fill="#CF7245" opacity="0.8509804" transform="translate(45,22)"/>
<path d="M0,0 L1,0 L1,1 L0,1 Z " fill="#CD6F42" opacity="0.8901961" transform="translate(18,22)"/>
<path d="M0,0 L1,0 L1,1 L0,1 Z " fill="#E5885B" opacity="0.75686276" transform="translate(17,22)"/>
<path d="M0,0 L1,0 L1,1 L0,1 Z " fill="#EE9366" opacity="0.9607843" transform="translate(16,22)"/>
<path d="M0,0 L1,0 L1,1 L0,1 Z " fill="#ED9164" opacity="0.94509804" transform="translate(8,22)"/>
<path d="M0,0 L1,0 L1,1 L0,1 Z " fill="#E98C5E" opacity="0.8156863" transform="translate(7,22)"/>
<path d="M0,0 L1,0 L1,1 L0,1 Z " fill="#E18152" opacity="0.7647059" transform="translate(5,22)"/>
<path d="M0,0 L1,0 L1,1 L0,1 Z " fill="#DE7D4E" opacity="0.87058824" transform="translate(3,22)"/>
<path d="M0,0 L1,0 L1,1 L0,1 Z " fill="#DE7D4E" opacity="0.9411765" transform="translate(1,22)"/>
<path d="M0,0 L1,0 L1,1 L0,1 Z " fill="#DE7E4E" opacity="0.9843137" transform="translate(0,22)"/>
<path d="M0,0 L1,0 L1,1 L0,1 Z " fill="#EC9C6E" opacity="0.8156863" transform="translate(62,21)"/>
<path d="M0,0 L1,0 L1,1 L0,1 Z " fill="#EE9366" transform="translate(61,21)"/>
<path d="M0,0 L1,0 L1,1 L0,1 Z " fill="#E08456" opacity="0.7529412" transform="translate(48,21)"/>
<path d="M0,0 L1,0 L1,1 L0,1 Z " fill="#C96C3F" opacity="0.9372549" transform="translate(47,21)"/>
<path d="M0,0 L1,0 L1,1 L0,1 Z " fill="#C86C40" opacity="0.9411765" transform="translate(16,21)"/>
<path d="M0,0 L1,0 L1,1 L0,1 Z " fill="#E08456" opacity="0.7529412" transform="translate(15,21)"/>
<path d="M0,0 L1,0 L1,1 L0,1 Z " fill="#ED9365" opacity="0.9137255" transform="translate(14,21)"/>
<path d="M0,0 L1,0 L1,1 L0,1 Z " fill="#EC9D70" opacity="0.8117647" transform="translate(60,20)"/>
<path d="M0,0 L1,0 L1,1 L0,1 Z " fill="#D97E52" opacity="0.7647059" transform="translate(50,20)"/>
<path d="M0,0 L1,0 L1,1 L0,1 Z " fill="#C76A3E" opacity="0.9764706" transform="translate(49,20)"/>
<path d="M0,0 L1,0 L1,1 L0,1 Z " fill="#DB7E51" opacity="0.7647059" transform="translate(13,20)"/>
<path d="M0,0 L1,0 L1,1 L0,1 Z " fill="#ED9164" opacity="0.8509804" transform="translate(12,20)"/>
<path d="M0,0 L1,0 L1,1 L0,1 Z " fill="#EC9C6F" opacity="0.80784315" transform="translate(58,19)"/>
<path d="M0,0 L1,0 L1,1 L0,1 Z " fill="#E08456" opacity="0.7529412" transform="translate(53,19)"/>
<path d="M0,0 L1,0 L1,1 L0,1 Z " fill="#CE7144" opacity="0.87058824" transform="translate(52,19)"/>
<path d="M0,0 L1,0 L1,1 L0,1 Z " fill="#E08456" opacity="0.7529412" transform="translate(10,19)"/>
<path d="M0,0 L1,0 L1,1 L0,1 Z " fill="#ED9163" opacity="0.84705883" transform="translate(9,19)"/>
<path d="M0,0 L1,0 L1,1 L0,1 Z " fill="#E7AE84" opacity="0.827451" transform="translate(57,18)"/>
<path d="M0,0 L1,0 L1,1 L0,1 Z " fill="#DE8F63" opacity="0.7137255" transform="translate(56,18)"/>
<path d="M0,0 L1,0 L1,1 L0,1 Z " fill="#C96C3F" opacity="0.9372549" transform="translate(55,18)"/>
<path d="M0,0 L1,0 L1,1 L0,1 Z " fill="#C96C3F" opacity="0.94509804" transform="translate(8,18)"/>
<path d="M0,0 L1,0 L1,1 L0,1 Z " fill="#D37648" opacity="0.8156863" transform="translate(7,18)"/>
<path d="M0,0 L1,0 L1,1 L0,1 Z " fill="#E78B5D" opacity="0.7647059" transform="translate(5,18)"/>
<path d="M0,0 L1,0 L1,1 L0,1 Z " fill="#EC9164" opacity="0.87058824" transform="translate(3,18)"/>
<path d="M0,0 L1,0 L1,1 L0,1 Z " fill="#ED9265" opacity="0.9411765" transform="translate(1,18)"/>
<path d="M0,0 L1,0 L1,1 L0,1 Z " fill="#EE9265" opacity="0.9843137" transform="translate(0,18)"/>
<path d="M0,0 L1,0 L1,1 L0,1 Z " fill="#ECB890" opacity="0.8117647" transform="translate(62,17)"/>
<path d="M0,0 L1,0 L1,1 L0,1 Z " fill="#E5AC81" opacity="0.827451" transform="translate(55,17)"/>
<path d="M0,0 L1,0 L1,1 L0,1 Z " fill="#D18154" opacity="0.8039216" transform="translate(54,17)"/>
<path d="M0,0 L1,0 L1,1 L0,1 Z " fill="#ECB991" opacity="0.80784315" transform="translate(60,16)"/>
<path d="M0,0 L1,0 L1,1 L0,1 Z " fill="#E5AC81" opacity="0.827451" transform="translate(53,16)"/>
<path d="M0,0 L1,0 L1,1 L0,1 Z " fill="#D18154" opacity="0.8039216" transform="translate(52,16)"/>
<path d="M0,0 L1,0 L1,1 L0,1 Z " fill="#ECB890" opacity="0.8039216" transform="translate(58,15)"/>
<path d="M0,0 L1,0 L1,1 L0,1 Z " fill="#E5AC81" opacity="0.827451" transform="translate(51,15)"/>
<path d="M0,0 L1,0 L1,1 L0,1 Z " fill="#D18154" opacity="0.8039216" transform="translate(50,15)"/>
<path d="M0,0 L1,0 L1,1 L0,1 Z " fill="#EDB992" opacity="0.8" transform="translate(56,14)"/>
<path d="M0,0 L1,0 L1,1 L0,1 Z " fill="#E5AC81" opacity="0.827451" transform="translate(49,14)"/>
<path d="M0,0 L1,0 L1,1 L0,1 Z " fill="#D18154" opacity="0.8039216" transform="translate(48,14)"/>
<path d="M0,0 L1,0 L1,1 L0,1 Z " fill="#EDB991" opacity="0.8" transform="translate(54,13)"/>
<path d="M0,0 L1,0 L1,1 L0,1 Z " fill="#E5AC81" opacity="0.827451" transform="translate(47,13)"/>
<path d="M0,0 L1,0 L1,1 L0,1 Z " fill="#D18154" opacity="0.8039216" transform="translate(46,13)"/>
<path d="M0,0 L1,0 L1,1 L0,1 Z " fill="#C66A3D" transform="translate(39,13)"/>
<path d="M0,0 L1,0 L1,1 L0,1 Z " fill="#CB6D41" opacity="0.85490197" transform="translate(38,13)"/>
<path d="M0,0 L1,0 L1,1 L0,1 Z " fill="#D57446" opacity="0.75686276" transform="translate(37,13)"/>
<path d="M0,0 L1,0 L1,1 L0,1 Z " fill="#DC7B4C" opacity="0.7882353" transform="translate(35,13)"/>
<path d="M0,0 L1,0 L1,1 L0,1 Z " fill="#DE7C4E" opacity="0.8862745" transform="translate(33,13)"/>
<path d="M0,0 L1,0 L1,1 L0,1 Z " fill="#DD7D4E" opacity="0.972549" transform="translate(31,13)"/>
<path d="M0,0 L1,0 L1,1 L0,1 Z " fill="#DC7D4D" opacity="0.85882354" transform="translate(29,13)"/>
<path d="M0,0 L1,0 L1,1 L0,1 Z " fill="#D97A4A" opacity="0.7647059" transform="translate(27,13)"/>
<path d="M0,0 L1,0 L1,1 L0,1 Z " fill="#CB6F40" opacity="0.8392157" transform="translate(25,13)"/>
<path d="M0,0 L1,0 L1,1 L0,1 Z " fill="#C6693D" opacity="0.9764706" transform="translate(24,13)"/>
<path d="M0,0 L1,0 L1,1 L0,1 Z " fill="#EDB991" opacity="0.8" transform="translate(52,12)"/>
<path d="M0,0 L1,0 L1,1 L0,1 Z " fill="#E5AC81" opacity="0.827451" transform="translate(45,12)"/>
<path d="M0,0 L1,0 L1,1 L0,1 Z " fill="#D18154" opacity="0.8039216" transform="translate(44,12)"/>
<path d="M0,0 L1,0 L1,1 L0,1 Z " fill="#CA6C40" opacity="0.8862745" transform="translate(42,12)"/>
<path d="M0,0 L1,0 L1,1 L0,1 Z " fill="#DB7B4B" opacity="0.78039217" transform="translate(40,12)"/>
<path d="M0,0 L1,0 L1,1 L0,1 Z " fill="#DE7D4E" opacity="0.92941177" transform="translate(39,12)"/>
<path d="M0,0 L1,0 L1,1 L0,1 Z " fill="#DE7E4E" opacity="0.9843137" transform="translate(24,12)"/>
<path d="M0,0 L1,0 L1,1 L0,1 Z " fill="#D37445" opacity="0.7607843" transform="translate(22,12)"/>
<path d="M0,0 L1,0 L1,1 L0,1 Z " fill="#C86A3E" opacity="0.92941177" transform="translate(21,12)"/>
<path d="M0,0 L1,0 L1,1 L0,1 Z " fill="#ECB892" opacity="0.8039216" transform="translate(50,11)"/>
<path d="M0,0 L1,0 L1,1 L0,1 Z " fill="#E38F61" opacity="0.8039216" transform="translate(42,11)"/>
<path d="M0,0 L1,0 L1,1 L0,1 Z " fill="#DE7E4F" transform="translate(41,11)"/>
<path d="M0,0 L1,0 L1,1 L0,1 Z " fill="#DE7E4E" opacity="0.99215686" transform="translate(21,11)"/>
<path d="M0,0 L1,0 L1,1 L0,1 Z " fill="#D07244" opacity="0.78039217" transform="translate(19,11)"/>
<path d="M0,0 L1,0 L1,1 L0,1 Z " fill="#C66A3D" opacity="0.99215686" transform="translate(18,11)"/>
<path d="M0,0 L1,0 L1,1 L0,1 Z " fill="#ECB791" opacity="0.80784315" transform="translate(48,10)"/>
<path d="M0,0 L1,0 L1,1 L0,1 Z " fill="#E38F61" opacity="0.8039216" transform="translate(40,10)"/>
<path d="M0,0 L1,0 L1,1 L0,1 Z " fill="#D57446" opacity="0.75686276" transform="translate(17,10)"/>
<path d="M0,0 L1,0 L1,1 L0,1 Z " fill="#C86A3E" opacity="0.9607843" transform="translate(16,10)"/>
<path d="M0,0 L1,0 L1,1 L0,1 Z " fill="#EAB790" opacity="0.80784315" transform="translate(46,9)"/>
<path d="M0,0 L1,0 L1,1 L0,1 Z " fill="#E08E60" opacity="0.80784315" transform="translate(38,9)"/>
<path d="M0,0 L1,0 L1,1 L0,1 Z " fill="#D67648" opacity="0.7529412" transform="translate(15,9)"/>
<path d="M0,0 L1,0 L1,1 L0,1 Z " fill="#C96C3F" opacity="0.9137255" transform="translate(14,9)"/>
<path d="M0,0 L1,0 L1,1 L0,1 Z " fill="#ECB991" opacity="0.80784315" transform="translate(44,8)"/>
<path d="M0,0 L1,0 L1,1 L0,1 Z " fill="#E08E60" opacity="0.80784315" transform="translate(36,8)"/>
<path d="M0,0 L1,0 L1,1 L0,1 Z " fill="#D97A4A" opacity="0.7647059" transform="translate(13,8)"/>
<path d="M0,0 L1,0 L1,1 L0,1 Z " fill="#CC6D40" opacity="0.8509804" transform="translate(12,8)"/>
<path d="M0,0 L1,0 L1,1 L0,1 Z " fill="#F4C8A8" opacity="0.8156863" transform="translate(62,7)"/>
<path d="M0,0 L1,0 L1,1 L0,1 Z " fill="#ECB790" opacity="0.80784315" transform="translate(42,7)"/>
<path d="M0,0 L1,0 L1,1 L0,1 Z " fill="#E28E5F" opacity="0.80784315" transform="translate(34,7)"/>
<path d="M0,0 L1,0 L1,1 L0,1 Z " fill="#DD7D4E" opacity="0.8745098" transform="translate(11,7)"/>
<path d="M0,0 L1,0 L1,1 L0,1 Z " fill="#CB6F41" opacity="0.84705883" transform="translate(9,7)"/>
<path d="M0,0 L1,0 L1,1 L0,1 Z " fill="#C6693D" transform="translate(8,7)"/>
<path d="M0,0 L1,0 L1,1 L0,1 Z " fill="#F4C8A8" opacity="0.8156863" transform="translate(60,6)"/>
<path d="M0,0 L1,0 L1,1 L0,1 Z " fill="#EAB88F" opacity="0.8117647" transform="translate(40,6)"/>
<path d="M0,0 L1,0 L1,1 L0,1 Z " fill="#E28E5F" opacity="0.80784315" transform="translate(32,6)"/>
<path d="M0,0 L1,0 L1,1 L0,1 Z " fill="#DE7E4E" opacity="0.94509804" transform="translate(8,6)"/>
<path d="M0,0 L1,0 L1,1 L0,1 Z " fill="#DD7C4C" opacity="0.8156863" transform="translate(7,6)"/>
<path d="M0,0 L1,0 L1,1 L0,1 Z " fill="#D27345" opacity="0.7647059" transform="translate(5,6)"/>
<path d="M0,0 L1,0 L1,1 L0,1 Z " fill="#C96D3F" opacity="0.87058824" transform="translate(3,6)"/>
<path d="M0,0 L1,0 L1,1 L0,1 Z " fill="#C76A3E" opacity="0.9411765" transform="translate(1,6)"/>
<path d="M0,0 L1,0 L1,1 L0,1 Z " fill="#C66A3E" opacity="0.9843137" transform="translate(0,6)"/>
<path d="M0,0 L1,0 L1,1 L0,1 Z " fill="#F4C8A8" opacity="0.8156863" transform="translate(58,5)"/>
<path d="M0,0 L1,0 L1,1 L0,1 Z " fill="#EAB890" opacity="0.8117647" transform="translate(38,5)"/>
<path d="M0,0 L1,0 L1,1 L0,1 Z " fill="#E18E60" opacity="0.8117647" transform="translate(30,5)"/>
<path d="M0,0 L1,0 L1,1 L0,1 Z " fill="#F4C8A8" opacity="0.8156863" transform="translate(56,4)"/>
<path d="M0,0 L1,0 L1,1 L0,1 Z " fill="#ECB890" opacity="0.8117647" transform="translate(36,4)"/>
<path d="M0,0 L1,0 L1,1 L0,1 Z " fill="#E18E60" opacity="0.8117647" transform="translate(28,4)"/>
<path d="M0,0 L1,0 L1,1 L0,1 Z " fill="#43414B" opacity="0.8156863" transform="translate(63,3)"/>
<path d="M0,0 L1,0 L1,1 L0,1 Z " fill="#C1AB9B" opacity="0.8156863" transform="translate(62,3)"/>
<path d="M0,0 L1,0 L1,1 L0,1 Z " fill="#F4C8A8" opacity="0.8156863" transform="translate(54,3)"/>
<path d="M0,0 L1,0 L1,1 L0,1 Z " fill="#ECB890" opacity="0.8117647" transform="translate(34,3)"/>
<path d="M0,0 L1,0 L1,1 L0,1 Z " fill="#E18E60" opacity="0.8117647" transform="translate(26,3)"/>
<path d="M0,0 L1,0 L1,1 L0,1 Z " fill="#43414B" opacity="0.8156863" transform="translate(61,2)"/>
<path d="M0,0 L1,0 L1,1 L0,1 Z " fill="#C1AB9B" opacity="0.8156863" transform="translate(60,2)"/>
<path d="M0,0 L1,0 L1,1 L0,1 Z " fill="#F4C8A8" opacity="0.8156863" transform="translate(52,2)"/>
<path d="M0,0 L1,0 L1,1 L0,1 Z " fill="#EBB890" opacity="0.8156863" transform="translate(32,2)"/>
<path d="M0,0 L1,0 L1,1 L0,1 Z " fill="#E18E60" opacity="0.8117647" transform="translate(24,2)"/>
<path d="M0,0 L1,0 L1,1 L0,1 Z " fill="#43414B" opacity="0.8156863" transform="translate(59,1)"/>
<path d="M0,0 L1,0 L1,1 L0,1 Z " fill="#C1AB9B" opacity="0.8156863" transform="translate(58,1)"/>
<path d="M0,0 L1,0 L1,1 L0,1 Z " fill="#F4C8A8" opacity="0.8156863" transform="translate(50,1)"/>
<path d="M0,0 L1,0 L1,1 L0,1 Z " fill="#EBB78E" opacity="0.8156863" transform="translate(30,1)"/>
<path d="M0,0 L1,0 L1,1 L0,1 Z " fill="#E18C60" opacity="0.8156863" transform="translate(22,1)"/>
<path d="M0,0 L1,0 L1,1 L0,1 Z " fill="#43414B" opacity="0.8156863" transform="translate(57,0)"/>
<path d="M0,0 L1,0 L1,1 L0,1 Z " fill="#C1AB9B" opacity="0.8156863" transform="translate(56,0)"/>
<path d="M0,0 L1,0 L1,1 L0,1 Z " fill="#F4C8A8" opacity="0.8156863" transform="translate(48,0)"/>
<path d="M0,0 L1,0 L1,1 L0,1 Z " fill="#EBB78E" opacity="0.8156863" transform="translate(28,0)"/>
<path d="M0,0 L1,0 L1,1 L0,1 Z " fill="#E18C60" opacity="0.8156863" transform="translate(20,0)"/>
</svg>
