<?xml version="1.0" encoding="UTF-8"?>
<!-- Generator: visioncortex VTracer 0.6.4 -->
<svg version="1.1" xmlns="http://www.w3.org/2000/svg" width="64" height="64">
<path d="M0,0 L9,0 L9,1 L12,1 L12,2 L14,2 L14,3 L16,3 L16,4 L18,4 L18,5 L21,5 L21,6 L24,6 L24,7 L39,7 L39,6 L43,6 L43,5 L45,5 L45,4 L48,4 L48,3 L50,3 L50,2 L52,2 L52,1 L55,1 L55,0 L58,0 L58,1 L60,1 L60,2 L62,2 L62,3 L55,3 L55,4 L52,4 L52,5 L49,5 L49,6 L47,6 L47,7 L45,7 L45,8 L42,8 L42,9 L39,9 L39,10 L25,10 L25,9 L22,9 L22,8 L19,8 L19,7 L17,7 L17,6 L15,6 L15,5 L12,5 L12,4 L9,4 L9,3 L0,3 Z M0,15 L9,15 L9,16 L12,16 L12,17 L14,17 L14,18 L16,18 L16,19 L18,19 L18,20 L21,20 L21,21 L24,21 L24,22 L39,22 L39,21 L43,21 L43,20 L45,20 L45,19 L48,19 L48,18 L50,18 L50,17 L52,17 L52,16 L55,16 L55,15 L64,15 L64,32 L55,32 L55,33 L52,33 L52,34 L49,34 L49,35 L47,35 L47,36 L45,36 L45,37 L42,37 L42,38 L39,38 L39,39 L25,39 L25,38 L22,38 L22,37 L19,37 L19,36 L17,36 L17,35 L15,35 L15,34 L12,34 L12,33 L9,33 L9,32 L0,32 Z M49,21 L49,22 L47,22 L47,23 L46,23 L46,28 L47,28 L47,29 L48,29 L48,30 L52,30 L52,29 L53,29 L53,28 L54,28 L54,27 L55,27 L55,25 L54,25 L54,23 L53,23 L53,22 L52,22 L52,21 Z M42,29 L42,30 L40,30 L40,34 L41,34 L41,35 L44,35 L44,34 L45,34 L45,33 L46,33 L46,31 L45,31 L45,30 L44,30 L44,29 Z " fill="#CFD5DA" transform="translate(0,19)"/>
<path d="M0,0 L1,0 L1,1 L0,1 Z M-1,1 L0,1 L0,2 L-1,2 Z " fill="#CED4D9" opacity="0.99215686" transform="translate(47,41)"/>
<path d="M0,0 L20,0 L20,1 L22,1 L22,2 L24,2 L24,3 L26,3 L26,4 L28,4 L28,5 L30,5 L30,6 L32,6 L32,7 L34,7 L34,8 L36,8 L36,9 L38,9 L38,10 L40,10 L40,11 L42,11 L42,12 L39,12 L39,13 L25,13 L25,12 L22,12 L22,11 L19,11 L19,10 L17,10 L17,9 L15,9 L15,8 L12,8 L12,7 L9,7 L9,6 L0,6 Z M0,7 L9,7 L9,8 L12,8 L12,9 L14,9 L14,10 L16,10 L16,11 L18,11 L18,12 L21,12 L21,13 L24,13 L24,14 L39,14 L39,13 L43,13 L43,12 L44,12 L44,13 L46,13 L46,14 L48,14 L48,15 L50,15 L50,16 L52,16 L52,17 L54,17 L54,18 L55,18 L55,19 L52,19 L52,20 L49,20 L49,21 L47,21 L47,22 L45,22 L45,23 L42,23 L42,24 L39,24 L39,25 L25,25 L25,24 L22,24 L22,23 L19,23 L19,22 L17,22 L17,21 L15,21 L15,20 L12,20 L12,19 L9,19 L9,18 L0,18 Z " fill="#A6B2BB" transform="translate(0,0)"/>
<path d="M0,0 L6,0 L6,1 L8,1 L8,2 L10,2 L10,3 L12,3 L12,4 L14,4 L14,5 L16,5 L16,6 L18,6 L18,7 L20,7 L20,8 L22,8 L22,9 L24,9 L24,10 L26,10 L26,11 L28,11 L28,12 L30,12 L30,13 L32,13 L32,14 L34,14 L34,15 L36,15 L36,16 L38,16 L38,17 L40,17 L40,18 L42,18 L42,21 L40,21 L40,20 L38,20 L38,19 L36,19 L36,18 L34,18 L34,17 L32,17 L32,16 L30,16 L30,15 L28,15 L28,14 L26,14 L26,13 L24,13 L24,12 L22,12 L22,11 L20,11 L20,10 L18,10 L18,9 L16,9 L16,8 L14,8 L14,7 L12,7 L12,6 L10,6 L10,5 L8,5 L8,4 L6,4 L6,3 L4,3 L4,2 L2,2 L2,1 L0,1 Z M8,0 L26,0 L26,1 L28,1 L28,2 L30,2 L30,3 L32,3 L32,4 L34,4 L34,5 L36,5 L36,6 L38,6 L38,7 L40,7 L40,8 L42,8 L42,17 L40,17 L40,16 L38,16 L38,15 L36,15 L36,14 L34,14 L34,13 L32,13 L32,12 L30,12 L30,11 L28,11 L28,10 L26,10 L26,9 L24,9 L24,8 L22,8 L22,7 L20,7 L20,6 L18,6 L18,5 L16,5 L16,4 L14,4 L14,3 L12,3 L12,2 L10,2 L10,1 L8,1 Z M28,0 L34,0 L34,1 L36,1 L36,2 L38,2 L38,3 L40,3 L40,4 L42,4 L42,7 L40,7 L40,6 L38,6 L38,5 L36,5 L36,4 L34,4 L34,3 L32,3 L32,2 L30,2 L30,1 L28,1 Z M36,0 L42,0 L42,3 L40,3 L40,2 L38,2 L38,1 L36,1 Z M-22,19 L-13,19 L-13,20 L-10,20 L-10,21 L-8,21 L-8,22 L-6,22 L-6,23 L-4,23 L-4,24 L-1,24 L-1,25 L2,25 L2,26 L17,26 L17,25 L21,25 L21,24 L23,24 L23,23 L26,23 L26,22 L28,22 L28,21 L30,21 L30,20 L33,20 L33,19 L36,19 L36,20 L38,20 L38,21 L40,21 L40,22 L33,22 L33,23 L30,23 L30,24 L27,24 L27,25 L25,25 L25,26 L23,26 L23,27 L20,27 L20,28 L17,28 L17,29 L3,29 L3,28 L0,28 L0,27 L-3,27 L-3,26 L-5,26 L-5,25 L-7,25 L-7,24 L-10,24 L-10,23 L-13,23 L-13,22 L-22,22 Z " fill="#CFD5DA" transform="translate(22,0)"/>
<path d="M0,0 L9,0 L9,1 L12,1 L12,2 L14,2 L14,3 L16,3 L16,4 L18,4 L18,5 L21,5 L21,6 L24,6 L24,7 L39,7 L39,6 L43,6 L43,5 L45,5 L45,4 L48,4 L48,3 L50,3 L50,2 L52,2 L52,1 L55,1 L55,0 L64,0 L64,6 L55,6 L55,7 L52,7 L52,8 L49,8 L49,9 L47,9 L47,10 L45,10 L45,11 L42,11 L42,12 L39,12 L39,13 L25,13 L25,12 L22,12 L22,11 L19,11 L19,10 L17,10 L17,9 L15,9 L15,8 L12,8 L12,7 L9,7 L9,6 L0,6 Z M0,7 L9,7 L9,8 L12,8 L12,9 L14,9 L14,10 L16,10 L16,11 L18,11 L18,12 L21,12 L21,13 L24,13 L24,14 L39,14 L39,13 L43,13 L43,12 L45,12 L45,11 L48,11 L48,10 L50,10 L50,9 L52,9 L52,8 L55,8 L55,7 L64,7 L64,10 L55,10 L55,11 L52,11 L52,12 L49,12 L49,13 L47,13 L47,14 L45,14 L45,15 L42,15 L42,16 L39,16 L39,17 L25,17 L25,16 L22,16 L22,15 L19,15 L19,14 L17,14 L17,13 L15,13 L15,12 L12,12 L12,11 L9,11 L9,10 L0,10 Z " fill="#BBC4CB" transform="translate(0,23)"/>
<path d="M0,0 L9,0 L9,1 L12,1 L12,2 L14,2 L14,3 L16,3 L16,4 L18,4 L18,5 L21,5 L21,6 L24,6 L24,7 L39,7 L39,6 L43,6 L43,5 L45,5 L45,4 L48,4 L48,3 L50,3 L50,2 L52,2 L52,1 L55,1 L55,0 L64,0 L64,12 L0,12 Z M56,3 L56,4 L54,4 L54,8 L55,8 L55,9 L59,9 L59,7 L60,7 L60,5 L59,5 L59,4 L58,4 L58,3 Z M55,5 L58,5 L58,6 L59,6 L59,7 L58,7 L58,8 L55,8 Z " fill="#BBC4CB" transform="translate(0,52)"/>
<path d="M0,0 L18,0 L18,1 L20,1 L20,2 L22,2 L22,3 L24,3 L24,4 L26,4 L26,5 L28,5 L28,6 L30,6 L30,7 L32,7 L32,8 L34,8 L34,17 L32,17 L32,16 L30,16 L30,15 L28,15 L28,14 L26,14 L26,13 L24,13 L24,12 L22,12 L22,11 L20,11 L20,10 L18,10 L18,9 L16,9 L16,8 L14,8 L14,7 L12,7 L12,6 L10,6 L10,5 L8,5 L8,4 L6,4 L6,3 L4,3 L4,2 L2,2 L2,1 L0,1 Z M20,0 L26,0 L26,1 L28,1 L28,2 L30,2 L30,3 L32,3 L32,4 L34,4 L34,7 L32,7 L32,6 L30,6 L30,5 L28,5 L28,4 L26,4 L26,3 L24,3 L24,2 L22,2 L22,1 L20,1 Z M28,0 L34,0 L34,3 L32,3 L32,2 L30,2 L30,1 L28,1 Z " fill="#E5F0FF" transform="translate(30,0)"/>
<path d="M0,0 L20,0 L20,1 L22,1 L22,2 L24,2 L24,3 L26,3 L26,4 L28,4 L28,5 L30,5 L30,6 L32,6 L32,7 L34,7 L34,8 L36,8 L36,9 L38,9 L38,10 L40,10 L40,11 L42,11 L42,12 L39,12 L39,13 L25,13 L25,12 L22,12 L22,11 L19,11 L19,10 L17,10 L17,9 L15,9 L15,8 L12,8 L12,7 L9,7 L9,6 L0,6 Z " fill="#BBC4CB" transform="translate(0,0)"/>
<path d="M0,0 L9,0 L9,1 L12,1 L12,2 L14,2 L14,3 L16,3 L16,4 L18,4 L18,5 L21,5 L21,6 L24,6 L24,7 L39,7 L39,6 L43,6 L43,5 L45,5 L45,4 L48,4 L48,3 L50,3 L50,2 L52,2 L52,1 L55,1 L55,0 L64,0 L64,3 L55,3 L55,4 L52,4 L52,5 L49,5 L49,6 L47,6 L47,7 L45,7 L45,8 L42,8 L42,9 L39,9 L39,10 L25,10 L25,9 L22,9 L22,8 L19,8 L19,7 L17,7 L17,6 L15,6 L15,5 L12,5 L12,4 L9,4 L9,3 L0,3 Z " fill="#A6B2BB" transform="translate(0,30)"/>
<path d="M0,0 L6,0 L6,1 L8,1 L8,2 L10,2 L10,3 L12,3 L12,4 L14,4 L14,5 L16,5 L16,6 L18,6 L18,7 L20,7 L20,8 L22,8 L22,9 L24,9 L24,10 L26,10 L26,11 L28,11 L28,12 L30,12 L30,13 L32,13 L32,14 L34,14 L34,15 L36,15 L36,16 L38,16 L38,17 L40,17 L40,18 L42,18 L42,21 L40,21 L40,20 L38,20 L38,19 L36,19 L36,18 L34,18 L34,17 L32,17 L32,16 L30,16 L30,15 L28,15 L28,14 L26,14 L26,13 L24,13 L24,12 L22,12 L22,11 L20,11 L20,10 L18,10 L18,9 L16,9 L16,8 L14,8 L14,7 L12,7 L12,6 L10,6 L10,5 L8,5 L8,4 L6,4 L6,3 L4,3 L4,2 L2,2 L2,1 L0,1 Z " fill="#C8DBF5" transform="translate(22,0)"/>
<path d="M0,0 L6,0 L6,1 L8,1 L8,2 L10,2 L10,3 L12,3 L12,4 L14,4 L14,7 L12,7 L12,6 L10,6 L10,5 L8,5 L8,4 L6,4 L6,3 L4,3 L4,2 L2,2 L2,1 L0,1 Z M8,0 L14,0 L14,3 L12,3 L12,2 L10,2 L10,1 L8,1 Z " fill="#FFFFFF" transform="translate(50,0)"/>
<path d="M0,0 L2,0 L2,1 L3,1 L3,2 L4,2 L4,3 L5,3 L5,4 L4,4 L4,6 L3,6 L3,7 L0,7 L0,6 L-1,6 L-1,5 L-2,5 L-2,2 L-1,2 L-1,1 L0,1 Z " fill="#BBC4CB" transform="translate(49,41)"/>
<path d="M0,0 L3,0 L3,1 L4,1 L4,2 L3,2 L3,3 L0,3 Z " fill="#A6B2BB" transform="translate(55,57)"/>
<path d="M0,0 L1,0 L1,1 L2,1 L2,2 L3,2 L3,3 L2,3 L2,4 L0,4 L0,3 L-1,3 L-1,1 L0,1 Z " fill="#BBC4CB" transform="translate(42,49)"/>
<path d="M0,0 L6,0 L6,3 L4,3 L4,2 L2,2 L2,1 L0,1 Z " fill="#353541" transform="translate(58,0)"/>
<path d="M0,0 L1,0 L1,1 L0,1 Z " fill="#CFD4D9" opacity="0.972549" transform="translate(31,58)"/>
<path d="M0,0 L1,0 L1,1 L0,1 Z " fill="#A8B3BD" opacity="0.9607843" transform="translate(32,40)"/>
<path d="M0,0 L1,0 L1,1 L0,1 Z " fill="#BBC4CB" opacity="0.9607843" transform="translate(32,36)"/>
<path d="M0,0 L1,0 L1,1 L0,1 Z " fill="#CFD4D9" opacity="0.972549" transform="translate(31,29)"/>
<path d="M0,0 L1,0 L1,1 L0,1 Z " fill="#A8B3BD" opacity="0.9607843" transform="translate(32,25)"/>
<path d="M0,0 L1,0 L1,1 L0,1 Z " fill="#BBC4CB" opacity="0.9607843" transform="translate(32,13)"/>
<path d="M0,0 L1,0 L1,1 L0,1 Z " fill="#BBC4CB" transform="translate(0,52)"/>
<path d="M0,0 L1,0 L1,1 L0,1 Z M-1,1 L0,1 L0,2 L-1,2 Z M-2,2 L-1,2 L-1,3 L-2,3 Z " fill="#BBC4CB" transform="translate(49,41)"/>
<path d="M0,0 L1,0 L1,1 L0,1 Z " fill="#BAC3CA" opacity="0.9411765" transform="translate(62,51)"/>
<path d="M0,0 L1,0 L1,1 L0,1 Z M-1,1 L0,1 L0,2 L-1,2 Z " fill="#BBC4CB" transform="translate(42,49)"/>
<path d="M0,0 L1,0 L1,1 L0,1 Z " fill="#A7B2BC" opacity="0.9411765" transform="translate(62,29)"/>
<path d="M0,0 L1,0 L1,1 L0,1 Z " fill="#BAC3CA" opacity="0.9411765" transform="translate(62,22)"/>
<path d="M0,0 L1,0 L1,1 L0,1 Z " fill="#A6B2BB" transform="translate(0,30)"/>
<path d="M0,0 L1,0 L1,1 L0,1 Z " fill="#A6B2BB" transform="translate(0,7)"/>
<path d="M0,0 L2,0 L2,1 L0,1 Z " fill="#E5F0FF" transform="translate(30,0)"/>
<path d="M0,0 L2,0 L2,1 L0,1 Z " fill="#C8DBF5" transform="translate(22,0)"/>
<path d="M0,0 L1,0 L1,1 L0,1 Z " fill="#ACB8BF" opacity="0.827451" transform="translate(56,60)"/>
<path d="M0,0 L1,0 L1,1 L0,1 Z " fill="#C2CCD1" opacity="0.75686276" transform="translate(6,22)"/>
<path d="M0,0 L1,0 L1,1 L0,1 Z " fill="#C0C9D0" opacity="0.75686276" transform="translate(37,58)"/>
<path d="M0,0 L1,0 L1,1 L0,1 Z " fill="#B2BDC5" opacity="0.81960785" transform="translate(28,40)"/>
<path d="M0,0 L1,0 L1,1 L0,1 Z " fill="#BAC3CA" opacity="0.81960785" transform="translate(28,36)"/>
<path d="M0,0 L1,0 L1,1 L0,1 Z " fill="#CCD3D8" opacity="0.8352941" transform="translate(59,33)"/>
<path d="M0,0 L1,0 L1,1 L0,1 Z " fill="#C0C9D0" opacity="0.75686276" transform="translate(37,29)"/>
<path d="M0,0 L1,0 L1,1 L0,1 Z " fill="#B2BDC5" opacity="0.81960785" transform="translate(28,25)"/>
<path d="M0,0 L1,0 L1,1 L0,1 Z " fill="#BAC3CA" opacity="0.81960785" transform="translate(28,13)"/>
<path d="M0,0 L1,0 L1,1 L0,1 Z " fill="#ABB6BF" opacity="0.84313726" transform="translate(54,58)"/>
<path d="M0,0 L1,0 L1,1 L0,1 Z " fill="#BFC8CF" opacity="0.7607843" transform="translate(26,58)"/>
<path d="M0,0 L1,0 L1,1 L0,1 Z " fill="#A6B2BB" opacity="0.99607843" transform="translate(56,56)"/>
<path d="M0,0 L1,0 L1,1 L0,1 Z " fill="#BDC6CE" opacity="0.77254903" transform="translate(42,53)"/>
<path d="M0,0 L1,0 L1,1 L0,1 Z " fill="#C2CAD1" opacity="0.75686276" transform="translate(57,51)"/>
<path d="M0,0 L1,0 L1,1 L0,1 Z " fill="#BCC4CC" opacity="0.83137256" transform="translate(40,51)"/>
<path d="M0,0 L1,0 L1,1 L0,1 Z " fill="#C2CCD1" opacity="0.75686276" transform="translate(6,51)"/>
<path d="M0,0 L1,0 L1,1 L0,1 Z " fill="#BEC7CE" opacity="0.76862746" transform="translate(50,48)"/>
<path d="M0,0 L1,0 L1,1 L0,1 Z " fill="#BBC4CC" opacity="0.8392157" transform="translate(46,44)"/>
<path d="M0,0 L1,0 L1,1 L0,1 Z " fill="#BBC3CB" opacity="0.7647059" transform="translate(36,40)"/>
<path d="M0,0 L1,0 L1,1 L0,1 Z " fill="#B6C0C7" opacity="0.7647059" transform="translate(36,36)"/>
<path d="M0,0 L1,0 L1,1 L0,1 Z " fill="#CFD4DA" opacity="0.90588236" transform="translate(61,33)"/>
<path d="M0,0 L1,0 L1,1 L0,1 Z " fill="#BDC6CD" opacity="0.75686276" transform="translate(6,33)"/>
<path d="M0,0 L1,0 L1,1 L0,1 Z " fill="#B5BFC6" opacity="0.75686276" transform="translate(57,29)"/>
<path d="M0,0 L1,0 L1,1 L0,1 Z " fill="#BFC8CF" opacity="0.7607843" transform="translate(26,29)"/>
<path d="M0,0 L1,0 L1,1 L0,1 Z " fill="#B5C0C6" opacity="0.75686276" transform="translate(6,29)"/>
<path d="M0,0 L1,0 L1,1 L0,1 Z " fill="#BBC3CB" opacity="0.7647059" transform="translate(36,25)"/>
<path d="M0,0 L1,0 L1,1 L0,1 Z " fill="#C2CAD1" opacity="0.75686276" transform="translate(57,22)"/>
<path d="M0,0 L1,0 L1,1 L0,1 Z " fill="#BDC6CD" opacity="0.75686276" transform="translate(6,18)"/>
<path d="M0,0 L1,0 L1,1 L0,1 Z " fill="#B6C0C7" opacity="0.7647059" transform="translate(36,13)"/>
<path d="M0,0 L1,0 L1,1 L0,1 Z " fill="#B5C0C6" opacity="0.75686276" transform="translate(6,6)"/>
<path d="M0,0 L1,0 L1,1 L0,1 Z " fill="#BBC4CB" opacity="0.99215686" transform="translate(58,60)"/>
<path d="M0,0 L1,0 L1,1 L0,1 Z " fill="#C7CED4" opacity="0.7882353" transform="translate(35,58)"/>
<path d="M0,0 L1,0 L1,1 L0,1 Z " fill="#CBD2D7" opacity="0.85882354" transform="translate(29,58)"/>
<path d="M0,0 L1,0 L1,1 L0,1 Z " fill="#BFC7CD" opacity="0.7607843" transform="translate(41,57)"/>
<path d="M0,0 L1,0 L1,1 L0,1 Z " fill="#C8D0D6" opacity="0.8" transform="translate(23,57)"/>
<path d="M0,0 L1,0 L1,1 L0,1 Z " fill="#BBC4CB" opacity="0.8235294" transform="translate(44,56)"/>
<path d="M0,0 L1,0 L1,1 L0,1 Z " fill="#C9D0D5" opacity="0.80784315" transform="translate(20,56)"/>
<path d="M0,0 L1,0 L1,1 L0,1 Z " fill="#BAC4CB" opacity="0.9882353" transform="translate(57,55)"/>
<path d="M0,0 L1,0 L1,1 L0,1 Z " fill="#BFC7CF" opacity="0.7647059" transform="translate(46,55)"/>
<path d="M0,0 L1,0 L1,1 L0,1 Z " fill="#CCD2D7" opacity="0.8901961" transform="translate(18,55)"/>
<path d="M0,0 L1,0 L1,1 L0,1 Z " fill="#BBC3CB" opacity="0.91764706" transform="translate(49,54)"/>
<path d="M0,0 L1,0 L1,1 L0,1 Z " fill="#CDD4D9" opacity="0.9411765" transform="translate(16,54)"/>
<path d="M0,0 L1,0 L1,1 L0,1 Z " fill="#BBC5CC" opacity="0.85490197" transform="translate(51,53)"/>
<path d="M0,0 L1,0 L1,1 L0,1 Z " fill="#CDD4DA" opacity="0.98039216" transform="translate(14,53)"/>
<path d="M0,0 L1,0 L1,1 L0,1 Z " fill="#BBC5CA" opacity="0.8509804" transform="translate(54,52)"/>
<path d="M0,0 L1,0 L1,1 L0,1 Z " fill="#CDD3D7" opacity="0.8745098" transform="translate(11,52)"/>
<path d="M0,0 L1,0 L1,1 L0,1 Z " fill="#BBC5CC" opacity="0.87058824" transform="translate(60,51)"/>
<path d="M0,0 L1,0 L1,1 L0,1 Z " fill="#BBC5CC" opacity="0.8352941" transform="translate(4,51)"/>
<path d="M0,0 L1,0 L1,1 L0,1 Z " fill="#BBC4CA" opacity="0.90588236" transform="translate(2,51)"/>
<path d="M0,0 L1,0 L1,1 L0,1 Z " fill="#CDD3D8" opacity="0.92156863" transform="translate(43,48)"/>
<path d="M0,0 L1,0 L1,1 L0,1 Z " fill="#CFD5D9" opacity="0.9843137" transform="translate(54,45)"/>
<path d="M0,0 L1,0 L1,1 L0,1 Z M1,1 L2,1 L2,2 L1,2 Z " fill="#CDD4D9" opacity="0.89411765" transform="translate(52,41)"/>
<path d="M0,0 L1,0 L1,1 L0,1 Z " fill="#CAD1D6" opacity="0.827451" transform="translate(50,40)"/>
<path d="M0,0 L1,0 L1,1 L0,1 Z " fill="#B1BBC3" opacity="0.83137256" transform="translate(34,40)"/>
<path d="M0,0 L1,0 L1,1 L0,1 Z " fill="#ABB7BE" opacity="0.9098039" transform="translate(30,40)"/>
<path d="M0,0 L1,0 L1,1 L0,1 Z " fill="#C5CDD4" opacity="0.7607843" transform="translate(26,40)"/>
<path d="M0,0 L1,0 L1,1 L0,1 Z " fill="#C5CCD3" opacity="0.7607843" transform="translate(41,39)"/>
<path d="M0,0 L1,0 L1,1 L0,1 Z " fill="#B4BEC6" opacity="0.8" transform="translate(23,39)"/>
<path d="M0,0 L1,0 L1,1 L0,1 Z " fill="#CCD1D7" opacity="0.8235294" transform="translate(44,38)"/>
<path d="M0,0 L1,0 L1,1 L0,1 Z " fill="#B4BEC5" opacity="0.80784315" transform="translate(20,38)"/>
<path d="M0,0 L1,0 L1,1 L0,1 Z " fill="#CFD5DA" opacity="0.96862745" transform="translate(47,37)"/>
<path d="M0,0 L1,0 L1,1 L0,1 Z " fill="#CED4D9" opacity="0.91764706" transform="translate(49,36)"/>
<path d="M0,0 L1,0 L1,1 L0,1 Z " fill="#B8C2C9" opacity="0.83137256" transform="translate(34,36)"/>
<path d="M0,0 L1,0 L1,1 L0,1 Z " fill="#BAC3CC" opacity="0.9098039" transform="translate(30,36)"/>
<path d="M0,0 L1,0 L1,1 L0,1 Z " fill="#B2BCC4" opacity="0.7607843" transform="translate(26,36)"/>
<path d="M0,0 L1,0 L1,1 L0,1 Z " fill="#CDD3D9" opacity="0.85490197" transform="translate(51,35)"/>
<path d="M0,0 L1,0 L1,1 L0,1 Z " fill="#B2BCC4" opacity="0.7607843" transform="translate(41,35)"/>
<path d="M0,0 L1,0 L1,1 L0,1 Z " fill="#B8C2CA" opacity="0.8" transform="translate(23,35)"/>
<path d="M0,0 L1,0 L1,1 L0,1 Z " fill="#A6B3BB" opacity="0.98039216" transform="translate(14,35)"/>
<path d="M0,0 L1,0 L1,1 L0,1 Z " fill="#CDD3D7" opacity="0.8509804" transform="translate(54,34)"/>
<path d="M0,0 L1,0 L1,1 L0,1 Z " fill="#ABB6BF" opacity="0.8235294" transform="translate(44,34)"/>
<path d="M0,0 L1,0 L1,1 L0,1 Z " fill="#B9C3CA" opacity="0.80784315" transform="translate(20,34)"/>
<path d="M0,0 L1,0 L1,1 L0,1 Z " fill="#AEB8C0" opacity="0.8745098" transform="translate(11,34)"/>
<path d="M0,0 L1,0 L1,1 L0,1 Z " fill="#CFD5DA" transform="translate(0,34)"/>
<path d="M0,0 L1,0 L1,1 L0,1 Z " fill="#BDC6CD" opacity="0.75686276" transform="translate(57,33)"/>
<path d="M0,0 L1,0 L1,1 L0,1 Z " fill="#BAC4CA" opacity="0.8901961" transform="translate(18,33)"/>
<path d="M0,0 L1,0 L1,1 L0,1 Z " fill="#CCD3D8" opacity="0.8352941" transform="translate(4,33)"/>
<path d="M0,0 L1,0 L1,1 L0,1 Z " fill="#CFD4DA" opacity="0.90588236" transform="translate(2,33)"/>
<path d="M0,0 L1,0 L1,1 L0,1 Z " fill="#A8B4BD" opacity="0.91764706" transform="translate(49,32)"/>
<path d="M0,0 L1,0 L1,1 L0,1 Z " fill="#BAC3CA" opacity="0.9411765" transform="translate(16,32)"/>
<path d="M0,0 L1,0 L1,1 L0,1 Z " fill="#ABB6BF" opacity="0.85490197" transform="translate(51,31)"/>
<path d="M0,0 L1,0 L1,1 L0,1 Z " fill="#BBC4CB" opacity="0.98039216" transform="translate(14,31)"/>
<path d="M0,0 L1,0 L1,1 L0,1 Z " fill="#ABB6BD" opacity="0.8509804" transform="translate(54,30)"/>
<path d="M0,0 L1,0 L1,1 L0,1 Z " fill="#B9C4CB" opacity="0.8745098" transform="translate(11,30)"/>
<path d="M0,0 L1,0 L1,1 L0,1 Z " fill="#A9B5BE" opacity="0.87058824" transform="translate(60,29)"/>
<path d="M0,0 L1,0 L1,1 L0,1 Z " fill="#C7CED4" opacity="0.7882353" transform="translate(35,29)"/>
<path d="M0,0 L1,0 L1,1 L0,1 Z " fill="#CBD2D7" opacity="0.85882354" transform="translate(29,29)"/>
<path d="M0,0 L1,0 L1,1 L0,1 Z " fill="#AAB6BF" opacity="0.8352941" transform="translate(4,29)"/>
<path d="M0,0 L1,0 L1,1 L0,1 Z " fill="#A8B3BD" opacity="0.90588236" transform="translate(2,29)"/>
<path d="M0,0 L1,0 L1,1 L0,1 Z " fill="#BFC7CD" opacity="0.7607843" transform="translate(41,28)"/>
<path d="M0,0 L1,0 L1,1 L0,1 Z " fill="#C8D0D6" opacity="0.8" transform="translate(23,28)"/>
<path d="M0,0 L1,0 L1,1 L0,1 Z " fill="#BBC4CB" opacity="0.8235294" transform="translate(44,27)"/>
<path d="M0,0 L1,0 L1,1 L0,1 Z " fill="#C9D0D5" opacity="0.80784315" transform="translate(20,27)"/>
<path d="M0,0 L1,0 L1,1 L0,1 Z " fill="#BBC3CB" opacity="0.96862745" transform="translate(47,26)"/>
<path d="M0,0 L1,0 L1,1 L0,1 Z " fill="#CCD2D7" opacity="0.8901961" transform="translate(18,26)"/>
<path d="M0,0 L1,0 L1,1 L0,1 Z " fill="#BBC3CB" opacity="0.91764706" transform="translate(49,25)"/>
<path d="M0,0 L1,0 L1,1 L0,1 Z " fill="#B1BBC3" opacity="0.83137256" transform="translate(34,25)"/>
<path d="M0,0 L1,0 L1,1 L0,1 Z " fill="#ABB7BE" opacity="0.9098039" transform="translate(30,25)"/>
<path d="M0,0 L1,0 L1,1 L0,1 Z " fill="#C5CDD4" opacity="0.7607843" transform="translate(26,25)"/>
<path d="M0,0 L1,0 L1,1 L0,1 Z " fill="#CDD4D9" opacity="0.9411765" transform="translate(16,25)"/>
<path d="M0,0 L1,0 L1,1 L0,1 Z " fill="#BBC5CC" opacity="0.85490197" transform="translate(51,24)"/>
<path d="M0,0 L1,0 L1,1 L0,1 Z " fill="#C5CCD3" opacity="0.7607843" transform="translate(41,24)"/>
<path d="M0,0 L1,0 L1,1 L0,1 Z " fill="#B4BEC6" opacity="0.8" transform="translate(23,24)"/>
<path d="M0,0 L1,0 L1,1 L0,1 Z " fill="#CDD4DA" opacity="0.98039216" transform="translate(14,24)"/>
<path d="M0,0 L1,0 L1,1 L0,1 Z " fill="#BBC5CA" opacity="0.8509804" transform="translate(54,23)"/>
<path d="M0,0 L1,0 L1,1 L0,1 Z " fill="#CCD1D7" opacity="0.8235294" transform="translate(44,23)"/>
<path d="M0,0 L1,0 L1,1 L0,1 Z " fill="#B4BEC5" opacity="0.80784315" transform="translate(20,23)"/>
<path d="M0,0 L1,0 L1,1 L0,1 Z " fill="#CDD3D7" opacity="0.8745098" transform="translate(11,23)"/>
<path d="M0,0 L1,0 L1,1 L0,1 Z " fill="#BBC4CB" transform="translate(0,23)"/>
<path d="M0,0 L1,0 L1,1 L0,1 Z " fill="#BBC5CC" opacity="0.87058824" transform="translate(60,22)"/>
<path d="M0,0 L1,0 L1,1 L0,1 Z " fill="#CFD5DA" opacity="0.96862745" transform="translate(47,22)"/>
<path d="M0,0 L1,0 L1,1 L0,1 Z " fill="#BBC5CC" opacity="0.8352941" transform="translate(4,22)"/>
<path d="M0,0 L1,0 L1,1 L0,1 Z " fill="#BBC4CA" opacity="0.90588236" transform="translate(2,22)"/>
<path d="M0,0 L1,0 L1,1 L0,1 Z " fill="#C9DBF3" opacity="0.8156863" transform="translate(63,21)"/>
<path d="M0,0 L1,0 L1,1 L0,1 Z " fill="#CED4D9" opacity="0.91764706" transform="translate(49,21)"/>
<path d="M0,0 L1,0 L1,1 L0,1 Z " fill="#C8DAF3" opacity="0.81960785" transform="translate(61,20)"/>
<path d="M0,0 L1,0 L1,1 L0,1 Z " fill="#CDD3D9" opacity="0.85490197" transform="translate(51,20)"/>
<path d="M0,0 L1,0 L1,1 L0,1 Z " fill="#A6B3BB" opacity="0.98039216" transform="translate(14,20)"/>
<path d="M0,0 L1,0 L1,1 L0,1 Z " fill="#C7DAF3" opacity="0.8235294" transform="translate(59,19)"/>
<path d="M0,0 L1,0 L1,1 L0,1 Z " fill="#CDD3D7" opacity="0.8509804" transform="translate(54,19)"/>
<path d="M0,0 L1,0 L1,1 L0,1 Z " fill="#AEB8C0" opacity="0.8745098" transform="translate(11,19)"/>
<path d="M0,0 L1,0 L1,1 L0,1 Z " fill="#CFD5DA" transform="translate(0,19)"/>
<path d="M0,0 L1,0 L1,1 L0,1 Z " fill="#C8DBF3" opacity="0.827451" transform="translate(57,18)"/>
<path d="M0,0 L1,0 L1,1 L0,1 Z " fill="#CCD3D8" opacity="0.8352941" transform="translate(4,18)"/>
<path d="M0,0 L1,0 L1,1 L0,1 Z " fill="#CFD4DA" opacity="0.90588236" transform="translate(2,18)"/>
<path d="M0,0 L1,0 L1,1 L0,1 Z " fill="#E3EEFF" opacity="0.8156863" transform="translate(63,17)"/>
<path d="M0,0 L1,0 L1,1 L0,1 Z " fill="#C5D9F1" opacity="0.827451" transform="translate(55,17)"/>
<path d="M0,0 L1,0 L1,1 L0,1 Z " fill="#E3EEFF" opacity="0.81960785" transform="translate(61,16)"/>
<path d="M0,0 L1,0 L1,1 L0,1 Z " fill="#C5D9F1" opacity="0.827451" transform="translate(53,16)"/>
<path d="M0,0 L1,0 L1,1 L0,1 Z " fill="#E3EEFF" opacity="0.8235294" transform="translate(59,15)"/>
<path d="M0,0 L1,0 L1,1 L0,1 Z " fill="#C5D9F1" opacity="0.827451" transform="translate(51,15)"/>
<path d="M0,0 L1,0 L1,1 L0,1 Z " fill="#E4F0FF" opacity="0.827451" transform="translate(57,14)"/>
<path d="M0,0 L1,0 L1,1 L0,1 Z " fill="#C5D9F1" opacity="0.827451" transform="translate(49,14)"/>
<path d="M0,0 L1,0 L1,1 L0,1 Z " fill="#E3EFFE" opacity="0.8352941" transform="translate(55,13)"/>
<path d="M0,0 L1,0 L1,1 L0,1 Z " fill="#C5D9F1" opacity="0.827451" transform="translate(47,13)"/>
<path d="M0,0 L1,0 L1,1 L0,1 Z " fill="#B8C2C9" opacity="0.83137256" transform="translate(34,13)"/>
<path d="M0,0 L1,0 L1,1 L0,1 Z " fill="#BAC3CC" opacity="0.9098039" transform="translate(30,13)"/>
<path d="M0,0 L1,0 L1,1 L0,1 Z " fill="#B2BCC4" opacity="0.7607843" transform="translate(26,13)"/>
<path d="M0,0 L1,0 L1,1 L0,1 Z " fill="#E3EFFE" opacity="0.8392157" transform="translate(53,12)"/>
<path d="M0,0 L1,0 L1,1 L0,1 Z " fill="#C5D9F1" opacity="0.827451" transform="translate(45,12)"/>
<path d="M0,0 L1,0 L1,1 L0,1 Z " fill="#B2BCC4" opacity="0.7607843" transform="translate(41,12)"/>
<path d="M0,0 L1,0 L1,1 L0,1 Z " fill="#B8C2CA" opacity="0.8" transform="translate(23,12)"/>
<path d="M0,0 L1,0 L1,1 L0,1 Z " fill="#E4EFFE" opacity="0.827451" transform="translate(51,11)"/>
<path d="M0,0 L1,0 L1,1 L0,1 Z " fill="#C6DAF2" opacity="0.8235294" transform="translate(43,11)"/>
<path d="M0,0 L1,0 L1,1 L0,1 Z " fill="#B9C3CA" opacity="0.80784315" transform="translate(20,11)"/>
<path d="M0,0 L1,0 L1,1 L0,1 Z " fill="#E4EFFE" opacity="0.827451" transform="translate(49,10)"/>
<path d="M0,0 L1,0 L1,1 L0,1 Z " fill="#C6DAF2" opacity="0.827451" transform="translate(41,10)"/>
<path d="M0,0 L1,0 L1,1 L0,1 Z " fill="#BAC4CA" opacity="0.8901961" transform="translate(18,10)"/>
<path d="M0,0 L1,0 L1,1 L0,1 Z " fill="#E3EEFF" opacity="0.8235294" transform="translate(47,9)"/>
<path d="M0,0 L1,0 L1,1 L0,1 Z " fill="#C7DAF3" opacity="0.8235294" transform="translate(39,9)"/>
<path d="M0,0 L1,0 L1,1 L0,1 Z " fill="#BAC3CA" opacity="0.9411765" transform="translate(16,9)"/>
<path d="M0,0 L1,0 L1,1 L0,1 Z " fill="#E3EEFF" opacity="0.8235294" transform="translate(45,8)"/>
<path d="M0,0 L1,0 L1,1 L0,1 Z " fill="#C7DAF3" opacity="0.8235294" transform="translate(37,8)"/>
<path d="M0,0 L1,0 L1,1 L0,1 Z " fill="#BBC4CB" opacity="0.98039216" transform="translate(14,8)"/>
<path d="M0,0 L1,0 L1,1 L0,1 Z " fill="#F8FBFF" opacity="0.8156863" transform="translate(63,7)"/>
<path d="M0,0 L1,0 L1,1 L0,1 Z " fill="#E3EEFE" opacity="0.8235294" transform="translate(43,7)"/>
<path d="M0,0 L1,0 L1,1 L0,1 Z " fill="#C6DAF2" opacity="0.8235294" transform="translate(35,7)"/>
<path d="M0,0 L1,0 L1,1 L0,1 Z " fill="#B9C4CB" opacity="0.8745098" transform="translate(11,7)"/>
<path d="M0,0 L1,0 L1,1 L0,1 Z " fill="#F8FBFF" opacity="0.8156863" transform="translate(61,6)"/>
<path d="M0,0 L1,0 L1,1 L0,1 Z " fill="#E3EEFE" opacity="0.8235294" transform="translate(41,6)"/>
<path d="M0,0 L1,0 L1,1 L0,1 Z " fill="#C6DAF2" opacity="0.8235294" transform="translate(33,6)"/>
<path d="M0,0 L1,0 L1,1 L0,1 Z " fill="#AAB6BF" opacity="0.8352941" transform="translate(4,6)"/>
<path d="M0,0 L1,0 L1,1 L0,1 Z " fill="#A8B3BD" opacity="0.90588236" transform="translate(2,6)"/>
<path d="M0,0 L1,0 L1,1 L0,1 Z " fill="#F8FBFF" opacity="0.8156863" transform="translate(59,5)"/>
<path d="M0,0 L1,0 L1,1 L0,1 Z " fill="#E3EEFF" opacity="0.81960785" transform="translate(39,5)"/>
<path d="M0,0 L1,0 L1,1 L0,1 Z " fill="#C7DAF2" opacity="0.81960785" transform="translate(31,5)"/>
<path d="M0,0 L1,0 L1,1 L0,1 Z " fill="#F8FBFF" opacity="0.8156863" transform="translate(57,4)"/>
<path d="M0,0 L1,0 L1,1 L0,1 Z " fill="#E3EEFF" opacity="0.81960785" transform="translate(37,4)"/>
<path d="M0,0 L1,0 L1,1 L0,1 Z " fill="#C7DAF2" opacity="0.81960785" transform="translate(29,4)"/>
<path d="M0,0 L1,0 L1,1 L0,1 Z " fill="#F8FBFF" opacity="0.8156863" transform="translate(55,3)"/>
<path d="M0,0 L1,0 L1,1 L0,1 Z " fill="#E3EEFE" opacity="0.81960785" transform="translate(35,3)"/>
<path d="M0,0 L1,0 L1,1 L0,1 Z " fill="#C7D8F2" opacity="0.81960785" transform="translate(27,3)"/>
<path d="M0,0 L1,0 L1,1 L0,1 Z " fill="#F8FBFF" opacity="0.8156863" transform="translate(53,2)"/>
<path d="M0,0 L1,0 L1,1 L0,1 Z " fill="#E3EEFE" opacity="0.81960785" transform="translate(33,2)"/>
<path d="M0,0 L1,0 L1,1 L0,1 Z " fill="#C7D8F2" opacity="0.81960785" transform="translate(25,2)"/>
<path d="M0,0 L1,0 L1,1 L0,1 Z " fill="#F8FBFF" opacity="0.8156863" transform="translate(51,1)"/>
<path d="M0,0 L1,0 L1,1 L0,1 Z " fill="#E3EEFF" opacity="0.8156863" transform="translate(31,1)"/>
<path d="M0,0 L1,0 L1,1 L0,1 Z " fill="#C7D9F2" opacity="0.8156863" transform="translate(23,1)"/>
<path d="M0,0 L1,0 L1,1 L0,1 Z " fill="#353541" transform="translate(58,0)"/>
<path d="M0,0 L2,0 L2,1 L0,1 Z " fill="#FFFFFF" transform="translate(50,0)"/>
<path d="M0,0 L1,0 L1,1 L0,1 Z " fill="#F8FBFF" opacity="0.8156863" transform="translate(49,0)"/>
<path d="M0,0 L1,0 L1,1 L0,1 Z " fill="#E3EEFF" opacity="0.8156863" transform="translate(29,0)"/>
<path d="M0,0 L1,0 L1,1 L0,1 Z " fill="#C7D9F2" opacity="0.8156863" transform="translate(21,0)"/>
<path d="M0,0 L1,0 L1,1 L0,1 Z " fill="#B6C0C8" opacity="0.7529412" transform="translate(57,60)"/>
<path d="M0,0 L1,0 L1,1 L0,1 Z " fill="#B8C1C8" opacity="0.77254903" transform="translate(55,60)"/>
<path d="M0,0 L1,0 L1,1 L0,1 Z " fill="#B1BCC3" opacity="0.76862746" transform="translate(58,59)"/>
<path d="M0,0 L1,0 L1,1 L0,1 Z " fill="#B7C0C8" opacity="0.78039217" transform="translate(54,59)"/>
<path d="M0,0 L1,0 L1,1 L0,1 Z " fill="#BBC4CB" opacity="0.9254902" transform="translate(59,58)"/>
<path d="M0,0 L1,0 L1,1 L0,1 Z " fill="#BBC5CC" opacity="0.85490197" transform="translate(38,58)"/>
<path d="M0,0 L1,0 L1,1 L0,1 Z " fill="#C4CCD2" opacity="0.7647059" transform="translate(36,58)"/>
<path d="M0,0 L1,0 L1,1 L0,1 Z " fill="#C9D0D6" opacity="0.83137256" transform="translate(34,58)"/>
<path d="M0,0 L1,0 L1,1 L0,1 Z " fill="#CDD2D7" opacity="0.8862745" transform="translate(33,58)"/>
<path d="M0,0 L1,0 L1,1 L0,1 Z " fill="#CDD4DA" opacity="0.9607843" transform="translate(32,58)"/>
<path d="M0,0 L1,0 L1,1 L0,1 Z " fill="#CDD3D9" opacity="0.9098039" transform="translate(30,58)"/>
<path d="M0,0 L1,0 L1,1 L0,1 Z " fill="#CAD1D5" opacity="0.81960785" transform="translate(28,58)"/>
<path d="M0,0 L1,0 L1,1 L0,1 Z " fill="#C3CCD3" opacity="0.7647059" transform="translate(27,58)"/>
<path d="M0,0 L1,0 L1,1 L0,1 Z " fill="#BDC5CB" opacity="0.8392157" transform="translate(25,58)"/>
<path d="M0,0 L1,0 L1,1 L0,1 Z " fill="#BBC4CB" opacity="0.9764706" transform="translate(24,58)"/>
<path d="M0,0 L1,0 L1,1 L0,1 Z " fill="#BBC4CB" opacity="0.99215686" transform="translate(59,57)"/>
<path d="M0,0 L1,0 L1,1 L0,1 Z " fill="#A8B5BE" opacity="0.8745098" transform="translate(58,57)"/>
<path d="M0,0 L1,0 L1,1 L0,1 Z " fill="#B3BCC4" opacity="0.75686276" transform="translate(54,57)"/>
<path d="M0,0 L1,0 L1,1 L0,1 Z " fill="#BBC4CC" opacity="0.9098039" transform="translate(42,57)"/>
<path d="M0,0 L1,0 L1,1 L0,1 Z " fill="#C7CFD4" opacity="0.78039217" transform="translate(40,57)"/>
<path d="M0,0 L1,0 L1,1 L0,1 Z " fill="#CED3D9" opacity="0.92941177" transform="translate(39,57)"/>
<path d="M0,0 L1,0 L1,1 L0,1 Z " fill="#CFD5D9" opacity="0.9843137" transform="translate(24,57)"/>
<path d="M0,0 L1,0 L1,1 L0,1 Z " fill="#BFC8CD" opacity="0.7607843" transform="translate(22,57)"/>
<path d="M0,0 L1,0 L1,1 L0,1 Z " fill="#BBC4CB" opacity="0.92941177" transform="translate(21,57)"/>
<path d="M0,0 L1,0 L1,1 L0,1 Z " fill="#BBC4CB" opacity="0.89411765" transform="translate(58,56)"/>
<path d="M0,0 L1,0 L1,1 L0,1 Z " fill="#ABB5BD" opacity="0.8745098" transform="translate(57,56)"/>
<path d="M0,0 L1,0 L1,1 L0,1 Z " fill="#B0BAC2" opacity="0.76862746" transform="translate(55,56)"/>
<path d="M0,0 L1,0 L1,1 L0,1 Z " fill="#BAC4CB" opacity="0.9882353" transform="translate(54,56)"/>
<path d="M0,0 L1,0 L1,1 L0,1 Z " fill="#C7CED4" opacity="0.7764706" transform="translate(43,56)"/>
<path d="M0,0 L1,0 L1,1 L0,1 Z " fill="#CFD4D9" opacity="0.9882353" transform="translate(42,56)"/>
<path d="M0,0 L1,0 L1,1 L0,1 Z " fill="#CED4D9" opacity="0.99215686" transform="translate(21,56)"/>
<path d="M0,0 L1,0 L1,1 L0,1 Z " fill="#BEC7CD" opacity="0.78039217" transform="translate(19,56)"/>
<path d="M0,0 L1,0 L1,1 L0,1 Z " fill="#BBC4CB" opacity="0.99215686" transform="translate(18,56)"/>
<path d="M0,0 L1,0 L1,1 L0,1 Z " fill="#BBC4CB" opacity="0.92941177" transform="translate(56,55)"/>
<path d="M0,0 L1,0 L1,1 L0,1 Z " fill="#BBC3CB" opacity="0.96862745" transform="translate(47,55)"/>
<path d="M0,0 L1,0 L1,1 L0,1 Z " fill="#C9D0D6" opacity="0.8509804" transform="translate(45,55)"/>
<path d="M0,0 L1,0 L1,1 L0,1 Z " fill="#C0C9D0" opacity="0.75686276" transform="translate(17,55)"/>
<path d="M0,0 L1,0 L1,1 L0,1 Z " fill="#BBC4CB" opacity="0.9607843" transform="translate(16,55)"/>
<path d="M0,0 L1,0 L1,1 L0,1 Z " fill="#C2C9D1" opacity="0.7529412" transform="translate(48,54)"/>
<path d="M0,0 L1,0 L1,1 L0,1 Z " fill="#CDD4D8" opacity="0.9372549" transform="translate(47,54)"/>
<path d="M0,0 L1,0 L1,1 L0,1 Z " fill="#C2CCD1" opacity="0.7529412" transform="translate(15,54)"/>
<path d="M0,0 L1,0 L1,1 L0,1 Z " fill="#BBC4CB" opacity="0.9137255" transform="translate(14,54)"/>
<path d="M0,0 L1,0 L1,1 L0,1 Z " fill="#C3CCD3" opacity="0.7647059" transform="translate(50,53)"/>
<path d="M0,0 L1,0 L1,1 L0,1 Z " fill="#CED4D9" opacity="0.9764706" transform="translate(49,53)"/>
<path d="M0,0 L1,0 L1,1 L0,1 Z " fill="#C5CDD2" opacity="0.76862746" transform="translate(43,53)"/>
<path d="M0,0 L1,0 L1,1 L0,1 Z " fill="#C9CFD6" opacity="0.827451" transform="translate(41,53)"/>
<path d="M0,0 L1,0 L1,1 L0,1 Z " fill="#C6CCD3" opacity="0.7647059" transform="translate(13,53)"/>
<path d="M0,0 L1,0 L1,1 L0,1 Z " fill="#BCC5CC" opacity="0.8509804" transform="translate(12,53)"/>
<path d="M0,0 L1,0 L1,1 L0,1 Z " fill="#C2C9D1" opacity="0.7529412" transform="translate(53,52)"/>
<path d="M0,0 L1,0 L1,1 L0,1 Z " fill="#CAD3D7" opacity="0.87058824" transform="translate(52,52)"/>
<path d="M0,0 L1,0 L1,1 L0,1 Z " fill="#C1CAD0" opacity="0.7529412" transform="translate(44,52)"/>
<path d="M0,0 L1,0 L1,1 L0,1 Z " fill="#BBC3CB" opacity="0.96862745" transform="translate(41,52)"/>
<path d="M0,0 L1,0 L1,1 L0,1 Z " fill="#CAD0D6" opacity="0.8235294" transform="translate(40,52)"/>
<path d="M0,0 L1,0 L1,1 L0,1 Z " fill="#C2C9D1" opacity="0.7529412" transform="translate(10,52)"/>
<path d="M0,0 L1,0 L1,1 L0,1 Z " fill="#BBC5CB" opacity="0.84705883" transform="translate(9,52)"/>
<path d="M0,0 L1,0 L1,1 L0,1 Z " fill="#BBC3CA" opacity="0.9843137" transform="translate(63,51)"/>
<path d="M0,0 L1,0 L1,1 L0,1 Z " fill="#BBC4CA" opacity="0.90588236" transform="translate(61,51)"/>
<path d="M0,0 L1,0 L1,1 L0,1 Z " fill="#BBC5CC" opacity="0.8352941" transform="translate(59,51)"/>
<path d="M0,0 L1,0 L1,1 L0,1 Z " fill="#BEC7CE" opacity="0.7647059" transform="translate(58,51)"/>
<path d="M0,0 L1,0 L1,1 L0,1 Z " fill="#C8D1D6" opacity="0.8156863" transform="translate(56,51)"/>
<path d="M0,0 L1,0 L1,1 L0,1 Z " fill="#CED5DA" opacity="0.94509804" transform="translate(55,51)"/>
<path d="M0,0 L1,0 L1,1 L0,1 Z " fill="#CDD4D8" opacity="0.9372549" transform="translate(45,51)"/>
<path d="M0,0 L1,0 L1,1 L0,1 Z " fill="#CED5DA" opacity="0.94509804" transform="translate(8,51)"/>
<path d="M0,0 L1,0 L1,1 L0,1 Z " fill="#C8D1D6" opacity="0.8156863" transform="translate(7,51)"/>
<path d="M0,0 L1,0 L1,1 L0,1 Z " fill="#BFC7CF" opacity="0.7647059" transform="translate(5,51)"/>
<path d="M0,0 L1,0 L1,1 L0,1 Z " fill="#BBC5CC" opacity="0.87058824" transform="translate(3,51)"/>
<path d="M0,0 L1,0 L1,1 L0,1 Z " fill="#BAC3CA" opacity="0.9411765" transform="translate(1,51)"/>
<path d="M0,0 L1,0 L1,1 L0,1 Z " fill="#BBC3CA" opacity="0.9843137" transform="translate(0,51)"/>
<path d="M0,0 L1,0 L1,1 L0,1 Z " fill="#CDD4DA" opacity="0.98039216" transform="translate(45,50)"/>
<path d="M0,0 L1,0 L1,1 L0,1 Z " fill="#BAC4CA" opacity="0.92156863" transform="translate(44,50)"/>
<path d="M0,0 L1,0 L1,1 L0,1 Z " fill="#BFC6CE" opacity="0.77254903" transform="translate(40,50)"/>
<path d="M0,0 L1,0 L1,1 L0,1 Z " fill="#CAD1D6" opacity="0.8392157" transform="translate(44,49)"/>
<path d="M0,0 L1,0 L1,1 L0,1 Z " fill="#BAC3CA" opacity="0.94509804" transform="translate(43,49)"/>
<path d="M0,0 L1,0 L1,1 L0,1 Z " fill="#BDC5CD" opacity="0.827451" transform="translate(41,49)"/>
<path d="M0,0 L1,0 L1,1 L0,1 Z " fill="#CED4D9" opacity="0.9529412" transform="translate(40,49)"/>
<path d="M0,0 L1,0 L1,1 L0,1 Z " fill="#C6CED4" opacity="0.7921569" transform="translate(51,48)"/>
<path d="M0,0 L1,0 L1,1 L0,1 Z " fill="#C0C8CE" opacity="0.75686276" transform="translate(49,48)"/>
<path d="M0,0 L1,0 L1,1 L0,1 Z " fill="#CDD3D9" opacity="0.9098039" transform="translate(48,48)"/>
<path d="M0,0 L1,0 L1,1 L0,1 Z " fill="#CAD1D6" opacity="0.827451" transform="translate(42,48)"/>
<path d="M0,0 L1,0 L1,1 L0,1 Z " fill="#C1CAD0" opacity="0.7529412" transform="translate(52,47)"/>
<path d="M0,0 L1,0 L1,1 L0,1 Z " fill="#BBC4CB" opacity="0.9254902" transform="translate(48,47)"/>
<path d="M0,0 L1,0 L1,1 L0,1 Z " fill="#CBD1D8" opacity="0.85490197" transform="translate(47,47)"/>
<path d="M0,0 L1,0 L1,1 L0,1 Z " fill="#C3CBD1" opacity="0.7607843" transform="translate(53,46)"/>
<path d="M0,0 L1,0 L1,1 L0,1 Z " fill="#BBC4CB" opacity="0.93333334" transform="translate(47,46)"/>
<path d="M0,0 L1,0 L1,1 L0,1 Z " fill="#CBD2D8" opacity="0.88235295" transform="translate(46,46)"/>
<path d="M0,0 L1,0 L1,1 L0,1 Z " fill="#BBC4CA" opacity="0.9647059" transform="translate(53,45)"/>
<path d="M0,0 L1,0 L1,1 L0,1 Z " fill="#BEC6CD" opacity="0.78039217" transform="translate(46,45)"/>
<path d="M0,0 L1,0 L1,1 L0,1 Z " fill="#CED3D9" opacity="0.92941177" transform="translate(54,44)"/>
<path d="M0,0 L1,0 L1,1 L0,1 Z " fill="#BCC5CB" opacity="0.827451" transform="translate(53,43)"/>
<path d="M0,0 L1,0 L1,1 L0,1 Z " fill="#C2CAD1" opacity="0.7529412" transform="translate(46,43)"/>
<path d="M0,0 L1,0 L1,1 L0,1 Z " fill="#BCC5CC" opacity="0.89411765" transform="translate(52,42)"/>
<path d="M0,0 L1,0 L1,1 L0,1 Z " fill="#BEC7CE" opacity="0.7764706" transform="translate(47,42)"/>
<path d="M0,0 L1,0 L1,1 L0,1 Z " fill="#BBC4CC" opacity="0.85882354" transform="translate(51,41)"/>
<path d="M0,0 L1,0 L1,1 L0,1 Z " fill="#BFC8CF" opacity="0.7607843" transform="translate(48,41)"/>
<path d="M0,0 L1,0 L1,1 L0,1 Z " fill="#CFD5D9" opacity="0.9843137" transform="translate(51,40)"/>
<path d="M0,0 L1,0 L1,1 L0,1 Z " fill="#CAD3D7" opacity="0.87058824" transform="translate(49,40)"/>
<path d="M0,0 L1,0 L1,1 L0,1 Z " fill="#CED4D9" opacity="0.85490197" transform="translate(38,40)"/>
<path d="M0,0 L1,0 L1,1 L0,1 Z " fill="#C5CDD4" opacity="0.75686276" transform="translate(37,40)"/>
<path d="M0,0 L1,0 L1,1 L0,1 Z " fill="#B6C0C7" opacity="0.7882353" transform="translate(35,40)"/>
<path d="M0,0 L1,0 L1,1 L0,1 Z " fill="#ACB8BF" opacity="0.8862745" transform="translate(33,40)"/>
<path d="M0,0 L1,0 L1,1 L0,1 Z " fill="#A7B4BB" opacity="0.972549" transform="translate(31,40)"/>
<path d="M0,0 L1,0 L1,1 L0,1 Z " fill="#AFB9C2" opacity="0.85882354" transform="translate(29,40)"/>
<path d="M0,0 L1,0 L1,1 L0,1 Z " fill="#BAC4CB" opacity="0.7647059" transform="translate(27,40)"/>
<path d="M0,0 L1,0 L1,1 L0,1 Z " fill="#CCD2D8" opacity="0.8392157" transform="translate(25,40)"/>
<path d="M0,0 L1,0 L1,1 L0,1 Z " fill="#CFD5D9" opacity="0.9764706" transform="translate(24,40)"/>
<path d="M0,0 L1,0 L1,1 L0,1 Z " fill="#CED4DA" opacity="0.9098039" transform="translate(42,39)"/>
<path d="M0,0 L1,0 L1,1 L0,1 Z " fill="#B7C0C8" opacity="0.78039217" transform="translate(40,39)"/>
<path d="M0,0 L1,0 L1,1 L0,1 Z " fill="#A9B5BE" opacity="0.92941177" transform="translate(39,39)"/>
<path d="M0,0 L1,0 L1,1 L0,1 Z " fill="#A7B2BB" opacity="0.9843137" transform="translate(24,39)"/>
<path d="M0,0 L1,0 L1,1 L0,1 Z " fill="#C8CDD4" opacity="0.7607843" transform="translate(22,39)"/>
<path d="M0,0 L1,0 L1,1 L0,1 Z " fill="#CFD5DA" opacity="0.92941177" transform="translate(21,39)"/>
<path d="M0,0 L1,0 L1,1 L0,1 Z " fill="#B8C3C9" opacity="0.7764706" transform="translate(43,38)"/>
<path d="M0,0 L1,0 L1,1 L0,1 Z " fill="#A6B1BB" opacity="0.9882353" transform="translate(42,38)"/>
<path d="M0,0 L1,0 L1,1 L0,1 Z " fill="#A6B3BC" opacity="0.99215686" transform="translate(21,38)"/>
<path d="M0,0 L1,0 L1,1 L0,1 Z " fill="#C9D0D6" opacity="0.78039217" transform="translate(19,38)"/>
<path d="M0,0 L1,0 L1,1 L0,1 Z " fill="#CFD5DA" opacity="0.99215686" transform="translate(18,38)"/>
<path d="M0,0 L1,0 L1,1 L0,1 Z " fill="#C7CFD4" opacity="0.7647059" transform="translate(46,37)"/>
<path d="M0,0 L1,0 L1,1 L0,1 Z " fill="#AFBAC1" opacity="0.8509804" transform="translate(45,37)"/>
<path d="M0,0 L1,0 L1,1 L0,1 Z " fill="#ACB7BF" opacity="0.8901961" transform="translate(18,37)"/>
<path d="M0,0 L1,0 L1,1 L0,1 Z " fill="#C5CDD4" opacity="0.75686276" transform="translate(17,37)"/>
<path d="M0,0 L1,0 L1,1 L0,1 Z " fill="#CED5DA" opacity="0.9607843" transform="translate(16,37)"/>
<path d="M0,0 L1,0 L1,1 L0,1 Z " fill="#C0C9CE" opacity="0.7529412" transform="translate(48,36)"/>
<path d="M0,0 L1,0 L1,1 L0,1 Z " fill="#A9B5BE" opacity="0.9372549" transform="translate(47,36)"/>
<path d="M0,0 L1,0 L1,1 L0,1 Z " fill="#AAB7BE" opacity="0.85490197" transform="translate(38,36)"/>
<path d="M0,0 L1,0 L1,1 L0,1 Z " fill="#B3BCC5" opacity="0.75686276" transform="translate(37,36)"/>
<path d="M0,0 L1,0 L1,1 L0,1 Z " fill="#B8C2C9" opacity="0.7882353" transform="translate(35,36)"/>
<path d="M0,0 L1,0 L1,1 L0,1 Z " fill="#B9C3CA" opacity="0.8862745" transform="translate(33,36)"/>
<path d="M0,0 L1,0 L1,1 L0,1 Z " fill="#BAC4CB" opacity="0.972549" transform="translate(31,36)"/>
<path d="M0,0 L1,0 L1,1 L0,1 Z " fill="#B9C4CA" opacity="0.85882354" transform="translate(29,36)"/>
<path d="M0,0 L1,0 L1,1 L0,1 Z " fill="#B6C0C7" opacity="0.7647059" transform="translate(27,36)"/>
<path d="M0,0 L1,0 L1,1 L0,1 Z " fill="#ACB7BF" opacity="0.8392157" transform="translate(25,36)"/>
<path d="M0,0 L1,0 L1,1 L0,1 Z " fill="#A6B1BC" opacity="0.9764706" transform="translate(24,36)"/>
<path d="M0,0 L1,0 L1,1 L0,1 Z " fill="#A9B4BD" opacity="0.9411765" transform="translate(16,36)"/>
<path d="M0,0 L1,0 L1,1 L0,1 Z " fill="#C1C9CE" opacity="0.7529412" transform="translate(15,36)"/>
<path d="M0,0 L1,0 L1,1 L0,1 Z " fill="#CED5D9" opacity="0.9137255" transform="translate(14,36)"/>
<path d="M0,0 L1,0 L1,1 L0,1 Z " fill="#BAC4CB" opacity="0.7647059" transform="translate(50,35)"/>
<path d="M0,0 L1,0 L1,1 L0,1 Z " fill="#A7B2BC" opacity="0.9764706" transform="translate(49,35)"/>
<path d="M0,0 L1,0 L1,1 L0,1 Z " fill="#A8B4BD" opacity="0.9098039" transform="translate(42,35)"/>
<path d="M0,0 L1,0 L1,1 L0,1 Z " fill="#B9C2C9" opacity="0.78039217" transform="translate(40,35)"/>
<path d="M0,0 L1,0 L1,1 L0,1 Z " fill="#BBC4CB" opacity="0.92941177" transform="translate(39,35)"/>
<path d="M0,0 L1,0 L1,1 L0,1 Z " fill="#BBC3CA" opacity="0.9843137" transform="translate(24,35)"/>
<path d="M0,0 L1,0 L1,1 L0,1 Z " fill="#B2BCC3" opacity="0.7607843" transform="translate(22,35)"/>
<path d="M0,0 L1,0 L1,1 L0,1 Z " fill="#A8B3BD" opacity="0.92941177" transform="translate(21,35)"/>
<path d="M0,0 L1,0 L1,1 L0,1 Z " fill="#BBC3CB" opacity="0.7647059" transform="translate(13,35)"/>
<path d="M0,0 L1,0 L1,1 L0,1 Z " fill="#CDD4D9" opacity="0.8509804" transform="translate(12,35)"/>
<path d="M0,0 L1,0 L1,1 L0,1 Z " fill="#C1C9D0" opacity="0.7529412" transform="translate(53,34)"/>
<path d="M0,0 L1,0 L1,1 L0,1 Z " fill="#ACB7C0" opacity="0.87058824" transform="translate(52,34)"/>
<path d="M0,0 L1,0 L1,1 L0,1 Z " fill="#B8C1C9" opacity="0.7764706" transform="translate(43,34)"/>
<path d="M0,0 L1,0 L1,1 L0,1 Z " fill="#BAC4CB" opacity="0.9882353" transform="translate(42,34)"/>
<path d="M0,0 L1,0 L1,1 L0,1 Z " fill="#BBC4CB" opacity="0.99215686" transform="translate(21,34)"/>
<path d="M0,0 L1,0 L1,1 L0,1 Z " fill="#AEBAC3" opacity="0.78039217" transform="translate(19,34)"/>
<path d="M0,0 L1,0 L1,1 L0,1 Z " fill="#A5B2BB" opacity="0.99215686" transform="translate(18,34)"/>
<path d="M0,0 L1,0 L1,1 L0,1 Z " fill="#C0C9CE" opacity="0.7529412" transform="translate(10,34)"/>
<path d="M0,0 L1,0 L1,1 L0,1 Z " fill="#CED4DA" opacity="0.84705883" transform="translate(9,34)"/>
<path d="M0,0 L1,0 L1,1 L0,1 Z " fill="#CFD5DA" opacity="0.9843137" transform="translate(63,33)"/>
<path d="M0,0 L1,0 L1,1 L0,1 Z " fill="#CED4D9" opacity="0.9411765" transform="translate(62,33)"/>
<path d="M0,0 L1,0 L1,1 L0,1 Z " fill="#CED4D8" opacity="0.87058824" transform="translate(60,33)"/>
<path d="M0,0 L1,0 L1,1 L0,1 Z " fill="#C7CFD4" opacity="0.7647059" transform="translate(58,33)"/>
<path d="M0,0 L1,0 L1,1 L0,1 Z " fill="#B2BDC4" opacity="0.8156863" transform="translate(56,33)"/>
<path d="M0,0 L1,0 L1,1 L0,1 Z " fill="#A8B5BE" opacity="0.94509804" transform="translate(55,33)"/>
<path d="M0,0 L1,0 L1,1 L0,1 Z " fill="#A6B3BB" opacity="0.96862745" transform="translate(47,33)"/>
<path d="M0,0 L1,0 L1,1 L0,1 Z " fill="#B2BBC4" opacity="0.7647059" transform="translate(46,33)"/>
<path d="M0,0 L1,0 L1,1 L0,1 Z " fill="#BAC3C9" opacity="0.8509804" transform="translate(45,33)"/>
<path d="M0,0 L1,0 L1,1 L0,1 Z " fill="#B3BCC5" opacity="0.75686276" transform="translate(17,33)"/>
<path d="M0,0 L1,0 L1,1 L0,1 Z " fill="#A7B2BC" opacity="0.9607843" transform="translate(16,33)"/>
<path d="M0,0 L1,0 L1,1 L0,1 Z " fill="#A8B5BE" opacity="0.94509804" transform="translate(8,33)"/>
<path d="M0,0 L1,0 L1,1 L0,1 Z " fill="#B2BDC4" opacity="0.8156863" transform="translate(7,33)"/>
<path d="M0,0 L1,0 L1,1 L0,1 Z " fill="#C7CFD4" opacity="0.7647059" transform="translate(5,33)"/>
<path d="M0,0 L1,0 L1,1 L0,1 Z " fill="#CED4D8" opacity="0.87058824" transform="translate(3,33)"/>
<path d="M0,0 L1,0 L1,1 L0,1 Z " fill="#CED4D9" opacity="0.9411765" transform="translate(1,33)"/>
<path d="M0,0 L1,0 L1,1 L0,1 Z " fill="#CFD5DA" opacity="0.9843137" transform="translate(0,33)"/>
<path d="M0,0 L1,0 L1,1 L0,1 Z " fill="#B4BEC6" opacity="0.7529412" transform="translate(48,32)"/>
<path d="M0,0 L1,0 L1,1 L0,1 Z " fill="#BAC2CA" opacity="0.9372549" transform="translate(47,32)"/>
<path d="M0,0 L1,0 L1,1 L0,1 Z " fill="#B5C0C6" opacity="0.7529412" transform="translate(15,32)"/>
<path d="M0,0 L1,0 L1,1 L0,1 Z " fill="#A8B4BC" opacity="0.9137255" transform="translate(14,32)"/>
<path d="M0,0 L1,0 L1,1 L0,1 Z " fill="#B6C0C7" opacity="0.7647059" transform="translate(50,31)"/>
<path d="M0,0 L1,0 L1,1 L0,1 Z " fill="#BBC4CB" opacity="0.9764706" transform="translate(49,31)"/>
<path d="M0,0 L1,0 L1,1 L0,1 Z " fill="#B7C0C8" opacity="0.7647059" transform="translate(13,31)"/>
<path d="M0,0 L1,0 L1,1 L0,1 Z " fill="#ABB6BF" opacity="0.8509804" transform="translate(12,31)"/>
<path d="M0,0 L1,0 L1,1 L0,1 Z " fill="#B5BDC6" opacity="0.7529412" transform="translate(53,30)"/>
<path d="M0,0 L1,0 L1,1 L0,1 Z " fill="#BAC4CA" opacity="0.87058824" transform="translate(52,30)"/>
<path d="M0,0 L1,0 L1,1 L0,1 Z " fill="#B4BEC6" opacity="0.7529412" transform="translate(10,30)"/>
<path d="M0,0 L1,0 L1,1 L0,1 Z " fill="#AAB6BE" opacity="0.84705883" transform="translate(9,30)"/>
<path d="M0,0 L1,0 L1,1 L0,1 Z " fill="#A7B2BB" opacity="0.9843137" transform="translate(63,29)"/>
<path d="M0,0 L1,0 L1,1 L0,1 Z " fill="#A8B3BD" opacity="0.90588236" transform="translate(61,29)"/>
<path d="M0,0 L1,0 L1,1 L0,1 Z " fill="#AAB6BF" opacity="0.8352941" transform="translate(59,29)"/>
<path d="M0,0 L1,0 L1,1 L0,1 Z " fill="#AFBBC3" opacity="0.7647059" transform="translate(58,29)"/>
<path d="M0,0 L1,0 L1,1 L0,1 Z " fill="#B9C2C9" opacity="0.8156863" transform="translate(56,29)"/>
<path d="M0,0 L1,0 L1,1 L0,1 Z " fill="#BAC4CA" opacity="0.94509804" transform="translate(55,29)"/>
<path d="M0,0 L1,0 L1,1 L0,1 Z " fill="#BBC5CC" opacity="0.85490197" transform="translate(38,29)"/>
<path d="M0,0 L1,0 L1,1 L0,1 Z " fill="#C4CCD2" opacity="0.7647059" transform="translate(36,29)"/>
<path d="M0,0 L1,0 L1,1 L0,1 Z " fill="#C9D0D6" opacity="0.83137256" transform="translate(34,29)"/>
<path d="M0,0 L1,0 L1,1 L0,1 Z " fill="#CDD2D7" opacity="0.8862745" transform="translate(33,29)"/>
<path d="M0,0 L1,0 L1,1 L0,1 Z " fill="#CDD4DA" opacity="0.9607843" transform="translate(32,29)"/>
<path d="M0,0 L1,0 L1,1 L0,1 Z " fill="#CDD3D9" opacity="0.9098039" transform="translate(30,29)"/>
<path d="M0,0 L1,0 L1,1 L0,1 Z " fill="#CAD1D5" opacity="0.81960785" transform="translate(28,29)"/>
<path d="M0,0 L1,0 L1,1 L0,1 Z " fill="#C3CCD3" opacity="0.7647059" transform="translate(27,29)"/>
<path d="M0,0 L1,0 L1,1 L0,1 Z " fill="#BDC5CB" opacity="0.8392157" transform="translate(25,29)"/>
<path d="M0,0 L1,0 L1,1 L0,1 Z " fill="#BBC4CB" opacity="0.9764706" transform="translate(24,29)"/>
<path d="M0,0 L1,0 L1,1 L0,1 Z " fill="#BAC4CA" opacity="0.94509804" transform="translate(8,29)"/>
<path d="M0,0 L1,0 L1,1 L0,1 Z " fill="#B9C2C9" opacity="0.8156863" transform="translate(7,29)"/>
<path d="M0,0 L1,0 L1,1 L0,1 Z " fill="#B1BAC3" opacity="0.7647059" transform="translate(5,29)"/>
<path d="M0,0 L1,0 L1,1 L0,1 Z " fill="#A9B5BE" opacity="0.87058824" transform="translate(3,29)"/>
<path d="M0,0 L1,0 L1,1 L0,1 Z " fill="#A7B2BC" opacity="0.9411765" transform="translate(1,29)"/>
<path d="M0,0 L1,0 L1,1 L0,1 Z " fill="#A7B2BB" opacity="0.9843137" transform="translate(0,29)"/>
<path d="M0,0 L1,0 L1,1 L0,1 Z " fill="#BBC4CC" opacity="0.9098039" transform="translate(42,28)"/>
<path d="M0,0 L1,0 L1,1 L0,1 Z " fill="#C7CFD4" opacity="0.78039217" transform="translate(40,28)"/>
<path d="M0,0 L1,0 L1,1 L0,1 Z " fill="#CED3D9" opacity="0.92941177" transform="translate(39,28)"/>
<path d="M0,0 L1,0 L1,1 L0,1 Z " fill="#CFD5D9" opacity="0.9843137" transform="translate(24,28)"/>
<path d="M0,0 L1,0 L1,1 L0,1 Z " fill="#BFC8CD" opacity="0.7607843" transform="translate(22,28)"/>
<path d="M0,0 L1,0 L1,1 L0,1 Z " fill="#BBC4CB" opacity="0.92941177" transform="translate(21,28)"/>
<path d="M0,0 L1,0 L1,1 L0,1 Z " fill="#C7CED4" opacity="0.7764706" transform="translate(43,27)"/>
<path d="M0,0 L1,0 L1,1 L0,1 Z " fill="#CFD4D9" opacity="0.9882353" transform="translate(42,27)"/>
<path d="M0,0 L1,0 L1,1 L0,1 Z " fill="#CED4D9" opacity="0.99215686" transform="translate(21,27)"/>
<path d="M0,0 L1,0 L1,1 L0,1 Z " fill="#BEC7CD" opacity="0.78039217" transform="translate(19,27)"/>
<path d="M0,0 L1,0 L1,1 L0,1 Z " fill="#BBC4CB" opacity="0.99215686" transform="translate(18,27)"/>
<path d="M0,0 L1,0 L1,1 L0,1 Z " fill="#BFC7CF" opacity="0.7647059" transform="translate(46,26)"/>
<path d="M0,0 L1,0 L1,1 L0,1 Z " fill="#C9D0D6" opacity="0.8509804" transform="translate(45,26)"/>
<path d="M0,0 L1,0 L1,1 L0,1 Z " fill="#C0C9D0" opacity="0.75686276" transform="translate(17,26)"/>
<path d="M0,0 L1,0 L1,1 L0,1 Z " fill="#BBC4CB" opacity="0.9607843" transform="translate(16,26)"/>
<path d="M0,0 L1,0 L1,1 L0,1 Z " fill="#C2C9D1" opacity="0.7529412" transform="translate(48,25)"/>
<path d="M0,0 L1,0 L1,1 L0,1 Z " fill="#CDD4D8" opacity="0.9372549" transform="translate(47,25)"/>
<path d="M0,0 L1,0 L1,1 L0,1 Z " fill="#CED4D9" opacity="0.85490197" transform="translate(38,25)"/>
<path d="M0,0 L1,0 L1,1 L0,1 Z " fill="#C5CDD4" opacity="0.75686276" transform="translate(37,25)"/>
<path d="M0,0 L1,0 L1,1 L0,1 Z " fill="#B6C0C7" opacity="0.7882353" transform="translate(35,25)"/>
<path d="M0,0 L1,0 L1,1 L0,1 Z " fill="#ACB8BF" opacity="0.8862745" transform="translate(33,25)"/>
<path d="M0,0 L1,0 L1,1 L0,1 Z " fill="#A7B4BB" opacity="0.972549" transform="translate(31,25)"/>
<path d="M0,0 L1,0 L1,1 L0,1 Z " fill="#AFB9C2" opacity="0.85882354" transform="translate(29,25)"/>
<path d="M0,0 L1,0 L1,1 L0,1 Z " fill="#BAC4CB" opacity="0.7647059" transform="translate(27,25)"/>
<path d="M0,0 L1,0 L1,1 L0,1 Z " fill="#CCD2D8" opacity="0.8392157" transform="translate(25,25)"/>
<path d="M0,0 L1,0 L1,1 L0,1 Z " fill="#CFD5D9" opacity="0.9764706" transform="translate(24,25)"/>
<path d="M0,0 L1,0 L1,1 L0,1 Z " fill="#C2CCD1" opacity="0.7529412" transform="translate(15,25)"/>
<path d="M0,0 L1,0 L1,1 L0,1 Z " fill="#BBC4CB" opacity="0.9137255" transform="translate(14,25)"/>
<path d="M0,0 L1,0 L1,1 L0,1 Z " fill="#C3CCD3" opacity="0.7647059" transform="translate(50,24)"/>
<path d="M0,0 L1,0 L1,1 L0,1 Z " fill="#CED4D9" opacity="0.9764706" transform="translate(49,24)"/>
<path d="M0,0 L1,0 L1,1 L0,1 Z " fill="#CED4DA" opacity="0.9098039" transform="translate(42,24)"/>
<path d="M0,0 L1,0 L1,1 L0,1 Z " fill="#B7C0C8" opacity="0.78039217" transform="translate(40,24)"/>
<path d="M0,0 L1,0 L1,1 L0,1 Z " fill="#A9B5BE" opacity="0.92941177" transform="translate(39,24)"/>
<path d="M0,0 L1,0 L1,1 L0,1 Z " fill="#A7B2BB" opacity="0.9843137" transform="translate(24,24)"/>
<path d="M0,0 L1,0 L1,1 L0,1 Z " fill="#C8CDD4" opacity="0.7607843" transform="translate(22,24)"/>
<path d="M0,0 L1,0 L1,1 L0,1 Z " fill="#CFD5DA" opacity="0.92941177" transform="translate(21,24)"/>
<path d="M0,0 L1,0 L1,1 L0,1 Z " fill="#C6CCD3" opacity="0.7647059" transform="translate(13,24)"/>
<path d="M0,0 L1,0 L1,1 L0,1 Z " fill="#BCC5CC" opacity="0.8509804" transform="translate(12,24)"/>
<path d="M0,0 L1,0 L1,1 L0,1 Z " fill="#C2C9D1" opacity="0.7529412" transform="translate(53,23)"/>
<path d="M0,0 L1,0 L1,1 L0,1 Z " fill="#CAD3D7" opacity="0.87058824" transform="translate(52,23)"/>
<path d="M0,0 L1,0 L1,1 L0,1 Z " fill="#B8C3C9" opacity="0.7764706" transform="translate(43,23)"/>
<path d="M0,0 L1,0 L1,1 L0,1 Z " fill="#A6B1BB" opacity="0.9882353" transform="translate(42,23)"/>
<path d="M0,0 L1,0 L1,1 L0,1 Z " fill="#A6B3BC" opacity="0.99215686" transform="translate(21,23)"/>
<path d="M0,0 L1,0 L1,1 L0,1 Z " fill="#C9D0D6" opacity="0.78039217" transform="translate(19,23)"/>
<path d="M0,0 L1,0 L1,1 L0,1 Z " fill="#CFD5DA" opacity="0.99215686" transform="translate(18,23)"/>
<path d="M0,0 L1,0 L1,1 L0,1 Z " fill="#C2C9D1" opacity="0.7529412" transform="translate(10,23)"/>
<path d="M0,0 L1,0 L1,1 L0,1 Z " fill="#BBC5CB" opacity="0.84705883" transform="translate(9,23)"/>
<path d="M0,0 L1,0 L1,1 L0,1 Z " fill="#BBC3CA" opacity="0.9843137" transform="translate(63,22)"/>
<path d="M0,0 L1,0 L1,1 L0,1 Z " fill="#BBC4CA" opacity="0.90588236" transform="translate(61,22)"/>
<path d="M0,0 L1,0 L1,1 L0,1 Z " fill="#BBC5CC" opacity="0.8352941" transform="translate(59,22)"/>
<path d="M0,0 L1,0 L1,1 L0,1 Z " fill="#BEC7CE" opacity="0.7647059" transform="translate(58,22)"/>
<path d="M0,0 L1,0 L1,1 L0,1 Z " fill="#C8D1D6" opacity="0.8156863" transform="translate(56,22)"/>
<path d="M0,0 L1,0 L1,1 L0,1 Z " fill="#CED5DA" opacity="0.94509804" transform="translate(55,22)"/>
<path d="M0,0 L1,0 L1,1 L0,1 Z " fill="#C7CFD4" opacity="0.7647059" transform="translate(46,22)"/>
<path d="M0,0 L1,0 L1,1 L0,1 Z " fill="#AFBAC1" opacity="0.8509804" transform="translate(45,22)"/>
<path d="M0,0 L1,0 L1,1 L0,1 Z " fill="#ACB7BF" opacity="0.8901961" transform="translate(18,22)"/>
<path d="M0,0 L1,0 L1,1 L0,1 Z " fill="#C5CDD4" opacity="0.75686276" transform="translate(17,22)"/>
<path d="M0,0 L1,0 L1,1 L0,1 Z " fill="#CED5DA" opacity="0.9607843" transform="translate(16,22)"/>
<path d="M0,0 L1,0 L1,1 L0,1 Z " fill="#CED5DA" opacity="0.94509804" transform="translate(8,22)"/>
<path d="M0,0 L1,0 L1,1 L0,1 Z " fill="#C8D1D6" opacity="0.8156863" transform="translate(7,22)"/>
<path d="M0,0 L1,0 L1,1 L0,1 Z " fill="#BFC7CF" opacity="0.7647059" transform="translate(5,22)"/>
<path d="M0,0 L1,0 L1,1 L0,1 Z " fill="#BBC5CC" opacity="0.87058824" transform="translate(3,22)"/>
<path d="M0,0 L1,0 L1,1 L0,1 Z " fill="#BAC3CA" opacity="0.9411765" transform="translate(1,22)"/>
<path d="M0,0 L1,0 L1,1 L0,1 Z " fill="#BBC3CA" opacity="0.9843137" transform="translate(0,22)"/>
<path d="M0,0 L1,0 L1,1 L0,1 Z " fill="#CDD7E3" opacity="0.8156863" transform="translate(62,21)"/>
<path d="M0,0 L1,0 L1,1 L0,1 Z " fill="#CFD5DA" transform="translate(61,21)"/>
<path d="M0,0 L1,0 L1,1 L0,1 Z " fill="#C0C9CE" opacity="0.7529412" transform="translate(48,21)"/>
<path d="M0,0 L1,0 L1,1 L0,1 Z " fill="#A9B5BE" opacity="0.9372549" transform="translate(47,21)"/>
<path d="M0,0 L1,0 L1,1 L0,1 Z " fill="#A9B4BD" opacity="0.9411765" transform="translate(16,21)"/>
<path d="M0,0 L1,0 L1,1 L0,1 Z " fill="#C1C9CE" opacity="0.7529412" transform="translate(15,21)"/>
<path d="M0,0 L1,0 L1,1 L0,1 Z " fill="#CED5D9" opacity="0.9137255" transform="translate(14,21)"/>
<path d="M0,0 L1,0 L1,1 L0,1 Z " fill="#CDD7E3" opacity="0.8117647" transform="translate(60,20)"/>
<path d="M0,0 L1,0 L1,1 L0,1 Z " fill="#BAC4CB" opacity="0.7647059" transform="translate(50,20)"/>
<path d="M0,0 L1,0 L1,1 L0,1 Z " fill="#A7B2BC" opacity="0.9764706" transform="translate(49,20)"/>
<path d="M0,0 L1,0 L1,1 L0,1 Z " fill="#BBC3CB" opacity="0.7647059" transform="translate(13,20)"/>
<path d="M0,0 L1,0 L1,1 L0,1 Z " fill="#CDD4D9" opacity="0.8509804" transform="translate(12,20)"/>
<path d="M0,0 L1,0 L1,1 L0,1 Z " fill="#CDD6E2" opacity="0.80784315" transform="translate(58,19)"/>
<path d="M0,0 L1,0 L1,1 L0,1 Z " fill="#C1C9D0" opacity="0.7529412" transform="translate(53,19)"/>
<path d="M0,0 L1,0 L1,1 L0,1 Z " fill="#ACB7C0" opacity="0.87058824" transform="translate(52,19)"/>
<path d="M0,0 L1,0 L1,1 L0,1 Z " fill="#C0C9CE" opacity="0.7529412" transform="translate(10,19)"/>
<path d="M0,0 L1,0 L1,1 L0,1 Z " fill="#CED4DA" opacity="0.84705883" transform="translate(9,19)"/>
<path d="M0,0 L1,0 L1,1 L0,1 Z " fill="#BDCBDA" opacity="0.7137255" transform="translate(56,18)"/>
<path d="M0,0 L1,0 L1,1 L0,1 Z " fill="#A9B5BE" opacity="0.9372549" transform="translate(55,18)"/>
<path d="M0,0 L1,0 L1,1 L0,1 Z " fill="#A8B5BE" opacity="0.94509804" transform="translate(8,18)"/>
<path d="M0,0 L1,0 L1,1 L0,1 Z " fill="#B2BDC4" opacity="0.8156863" transform="translate(7,18)"/>
<path d="M0,0 L1,0 L1,1 L0,1 Z " fill="#C7CFD4" opacity="0.7647059" transform="translate(5,18)"/>
<path d="M0,0 L1,0 L1,1 L0,1 Z " fill="#CED4D8" opacity="0.87058824" transform="translate(3,18)"/>
<path d="M0,0 L1,0 L1,1 L0,1 Z " fill="#CED4D9" opacity="0.9411765" transform="translate(1,18)"/>
<path d="M0,0 L1,0 L1,1 L0,1 Z " fill="#CFD5DA" opacity="0.9843137" transform="translate(0,18)"/>
<path d="M0,0 L1,0 L1,1 L0,1 Z " fill="#D2E2F8" opacity="0.8117647" transform="translate(62,17)"/>
<path d="M0,0 L1,0 L1,1 L0,1 Z " fill="#B1BFCF" opacity="0.8039216" transform="translate(54,17)"/>
<path d="M0,0 L1,0 L1,1 L0,1 Z " fill="#D2E2F8" opacity="0.80784315" transform="translate(60,16)"/>
<path d="M0,0 L1,0 L1,1 L0,1 Z " fill="#B1BFCF" opacity="0.8039216" transform="translate(52,16)"/>
<path d="M0,0 L1,0 L1,1 L0,1 Z " fill="#D3E3F9" opacity="0.8039216" transform="translate(58,15)"/>
<path d="M0,0 L1,0 L1,1 L0,1 Z " fill="#B1BFCF" opacity="0.8039216" transform="translate(50,15)"/>
<path d="M0,0 L1,0 L1,1 L0,1 Z " fill="#D4E4F9" opacity="0.8" transform="translate(56,14)"/>
<path d="M0,0 L1,0 L1,1 L0,1 Z " fill="#B1BFCF" opacity="0.8039216" transform="translate(48,14)"/>
<path d="M0,0 L1,0 L1,1 L0,1 Z " fill="#D2E3F9" opacity="0.8" transform="translate(54,13)"/>
<path d="M0,0 L1,0 L1,1 L0,1 Z " fill="#B1BFCF" opacity="0.8039216" transform="translate(46,13)"/>
<path d="M0,0 L1,0 L1,1 L0,1 Z " fill="#AAB7BE" opacity="0.85490197" transform="translate(38,13)"/>
<path d="M0,0 L1,0 L1,1 L0,1 Z " fill="#B3BCC5" opacity="0.75686276" transform="translate(37,13)"/>
<path d="M0,0 L1,0 L1,1 L0,1 Z " fill="#B8C2C9" opacity="0.7882353" transform="translate(35,13)"/>
<path d="M0,0 L1,0 L1,1 L0,1 Z " fill="#B9C3CA" opacity="0.8862745" transform="translate(33,13)"/>
<path d="M0,0 L1,0 L1,1 L0,1 Z " fill="#BAC4CB" opacity="0.972549" transform="translate(31,13)"/>
<path d="M0,0 L1,0 L1,1 L0,1 Z " fill="#B9C4CA" opacity="0.85882354" transform="translate(29,13)"/>
<path d="M0,0 L1,0 L1,1 L0,1 Z " fill="#B6C0C7" opacity="0.7647059" transform="translate(27,13)"/>
<path d="M0,0 L1,0 L1,1 L0,1 Z " fill="#ACB7BF" opacity="0.8392157" transform="translate(25,13)"/>
<path d="M0,0 L1,0 L1,1 L0,1 Z " fill="#A6B1BC" opacity="0.9764706" transform="translate(24,13)"/>
<path d="M0,0 L1,0 L1,1 L0,1 Z " fill="#D2E3F9" opacity="0.8" transform="translate(52,12)"/>
<path d="M0,0 L1,0 L1,1 L0,1 Z " fill="#B1BFCF" opacity="0.8039216" transform="translate(44,12)"/>
<path d="M0,0 L1,0 L1,1 L0,1 Z " fill="#A9B5BD" opacity="0.8862745" transform="translate(42,12)"/>
<path d="M0,0 L1,0 L1,1 L0,1 Z " fill="#B9C2C9" opacity="0.78039217" transform="translate(40,12)"/>
<path d="M0,0 L1,0 L1,1 L0,1 Z " fill="#BBC4CB" opacity="0.92941177" transform="translate(39,12)"/>
<path d="M0,0 L1,0 L1,1 L0,1 Z " fill="#BBC3CA" opacity="0.9843137" transform="translate(24,12)"/>
<path d="M0,0 L1,0 L1,1 L0,1 Z " fill="#B2BCC3" opacity="0.7607843" transform="translate(22,12)"/>
<path d="M0,0 L1,0 L1,1 L0,1 Z " fill="#A8B3BD" opacity="0.92941177" transform="translate(21,12)"/>
<path d="M0,0 L1,0 L1,1 L0,1 Z " fill="#D1E2F8" opacity="0.8039216" transform="translate(50,11)"/>
<path d="M0,0 L1,0 L1,1 L0,1 Z " fill="#C0CBD9" opacity="0.8039216" transform="translate(42,11)"/>
<path d="M0,0 L1,0 L1,1 L0,1 Z " fill="#BBC4CB" transform="translate(41,11)"/>
<path d="M0,0 L1,0 L1,1 L0,1 Z " fill="#BBC4CB" opacity="0.99215686" transform="translate(21,11)"/>
<path d="M0,0 L1,0 L1,1 L0,1 Z " fill="#AEBAC3" opacity="0.78039217" transform="translate(19,11)"/>
<path d="M0,0 L1,0 L1,1 L0,1 Z " fill="#A5B2BB" opacity="0.99215686" transform="translate(18,11)"/>
<path d="M0,0 L1,0 L1,1 L0,1 Z " fill="#D2E2F8" opacity="0.80784315" transform="translate(48,10)"/>
<path d="M0,0 L1,0 L1,1 L0,1 Z " fill="#C0CBD9" opacity="0.8039216" transform="translate(40,10)"/>
<path d="M0,0 L1,0 L1,1 L0,1 Z " fill="#B3BCC5" opacity="0.75686276" transform="translate(17,10)"/>
<path d="M0,0 L1,0 L1,1 L0,1 Z " fill="#A7B2BC" opacity="0.9607843" transform="translate(16,10)"/>
<path d="M0,0 L1,0 L1,1 L0,1 Z " fill="#D0E2F8" opacity="0.80784315" transform="translate(46,9)"/>
<path d="M0,0 L1,0 L1,1 L0,1 Z " fill="#BFCBD9" opacity="0.80784315" transform="translate(38,9)"/>
<path d="M0,0 L1,0 L1,1 L0,1 Z " fill="#B5C0C6" opacity="0.7529412" transform="translate(15,9)"/>
<path d="M0,0 L1,0 L1,1 L0,1 Z " fill="#A8B4BC" opacity="0.9137255" transform="translate(14,9)"/>
<path d="M0,0 L1,0 L1,1 L0,1 Z " fill="#D2E2F8" opacity="0.80784315" transform="translate(44,8)"/>
<path d="M0,0 L1,0 L1,1 L0,1 Z " fill="#BFCBD9" opacity="0.80784315" transform="translate(36,8)"/>
<path d="M0,0 L1,0 L1,1 L0,1 Z " fill="#B7C0C8" opacity="0.7647059" transform="translate(13,8)"/>
<path d="M0,0 L1,0 L1,1 L0,1 Z " fill="#ABB6BF" opacity="0.8509804" transform="translate(12,8)"/>
<path d="M0,0 L1,0 L1,1 L0,1 Z " fill="#E7F1FF" opacity="0.8156863" transform="translate(62,7)"/>
<path d="M0,0 L1,0 L1,1 L0,1 Z " fill="#D2E2F8" opacity="0.80784315" transform="translate(42,7)"/>
<path d="M0,0 L1,0 L1,1 L0,1 Z " fill="#BFCDD9" opacity="0.80784315" transform="translate(34,7)"/>
<path d="M0,0 L1,0 L1,1 L0,1 Z " fill="#B4BEC6" opacity="0.7529412" transform="translate(10,7)"/>
<path d="M0,0 L1,0 L1,1 L0,1 Z " fill="#AAB6BE" opacity="0.84705883" transform="translate(9,7)"/>
<path d="M0,0 L1,0 L1,1 L0,1 Z " fill="#E7F1FF" opacity="0.8156863" transform="translate(60,6)"/>
<path d="M0,0 L1,0 L1,1 L0,1 Z " fill="#D2E2F8" opacity="0.8117647" transform="translate(40,6)"/>
<path d="M0,0 L1,0 L1,1 L0,1 Z " fill="#BFCDD9" opacity="0.80784315" transform="translate(32,6)"/>
<path d="M0,0 L1,0 L1,1 L0,1 Z " fill="#BAC4CA" opacity="0.94509804" transform="translate(8,6)"/>
<path d="M0,0 L1,0 L1,1 L0,1 Z " fill="#B9C2C9" opacity="0.8156863" transform="translate(7,6)"/>
<path d="M0,0 L1,0 L1,1 L0,1 Z " fill="#B1BAC3" opacity="0.7647059" transform="translate(5,6)"/>
<path d="M0,0 L1,0 L1,1 L0,1 Z " fill="#A9B5BE" opacity="0.87058824" transform="translate(3,6)"/>
<path d="M0,0 L1,0 L1,1 L0,1 Z " fill="#A7B2BC" opacity="0.9411765" transform="translate(1,6)"/>
<path d="M0,0 L1,0 L1,1 L0,1 Z " fill="#A7B2BB" opacity="0.9843137" transform="translate(0,6)"/>
<path d="M0,0 L1,0 L1,1 L0,1 Z " fill="#E7F1FF" opacity="0.8156863" transform="translate(58,5)"/>
<path d="M0,0 L1,0 L1,1 L0,1 Z " fill="#D1E1F8" opacity="0.8117647" transform="translate(38,5)"/>
<path d="M0,0 L1,0 L1,1 L0,1 Z " fill="#BFCCD9" opacity="0.8117647" transform="translate(30,5)"/>
<path d="M0,0 L1,0 L1,1 L0,1 Z " fill="#E7F1FF" opacity="0.8156863" transform="translate(56,4)"/>
<path d="M0,0 L1,0 L1,1 L0,1 Z " fill="#D2E2F8" opacity="0.8117647" transform="translate(36,4)"/>
<path d="M0,0 L1,0 L1,1 L0,1 Z " fill="#BFCCD9" opacity="0.8117647" transform="translate(28,4)"/>
<path d="M0,0 L1,0 L1,1 L0,1 Z " fill="#434350" opacity="0.8156863" transform="translate(63,3)"/>
<path d="M0,0 L1,0 L1,1 L0,1 Z " fill="#C1C1C4" opacity="0.8156863" transform="translate(62,3)"/>
<path d="M0,0 L1,0 L1,1 L0,1 Z " fill="#E7F1FF" opacity="0.8156863" transform="translate(54,3)"/>
<path d="M0,0 L1,0 L1,1 L0,1 Z " fill="#D2E2F8" opacity="0.8117647" transform="translate(34,3)"/>
<path d="M0,0 L1,0 L1,1 L0,1 Z " fill="#BFCCD9" opacity="0.8117647" transform="translate(26,3)"/>
<path d="M0,0 L1,0 L1,1 L0,1 Z " fill="#434350" opacity="0.8156863" transform="translate(61,2)"/>
<path d="M0,0 L1,0 L1,1 L0,1 Z " fill="#C1C1C4" opacity="0.8156863" transform="translate(60,2)"/>
<path d="M0,0 L1,0 L1,1 L0,1 Z " fill="#E7F1FF" opacity="0.8156863" transform="translate(52,2)"/>
<path d="M0,0 L1,0 L1,1 L0,1 Z " fill="#D1E2F8" opacity="0.8156863" transform="translate(32,2)"/>
<path d="M0,0 L1,0 L1,1 L0,1 Z " fill="#BFCCD9" opacity="0.8117647" transform="translate(24,2)"/>
<path d="M0,0 L1,0 L1,1 L0,1 Z " fill="#434350" opacity="0.8156863" transform="translate(59,1)"/>
<path d="M0,0 L1,0 L1,1 L0,1 Z " fill="#C1C1C4" opacity="0.8156863" transform="translate(58,1)"/>
<path d="M0,0 L1,0 L1,1 L0,1 Z " fill="#E7F1FF" opacity="0.8156863" transform="translate(50,1)"/>
<path d="M0,0 L1,0 L1,1 L0,1 Z " fill="#D1E1F8" opacity="0.8156863" transform="translate(30,1)"/>
<path d="M0,0 L1,0 L1,1 L0,1 Z " fill="#BECBD8" opacity="0.8156863" transform="translate(22,1)"/>
<path d="M0,0 L1,0 L1,1 L0,1 Z " fill="#434350" opacity="0.8156863" transform="translate(57,0)"/>
<path d="M0,0 L1,0 L1,1 L0,1 Z " fill="#C1C1C4" opacity="0.8156863" transform="translate(56,0)"/>
<path d="M0,0 L1,0 L1,1 L0,1 Z " fill="#E7F1FF" opacity="0.8156863" transform="translate(48,0)"/>
<path d="M0,0 L1,0 L1,1 L0,1 Z " fill="#D1E1F8" opacity="0.8156863" transform="translate(28,0)"/>
<path d="M0,0 L1,0 L1,1 L0,1 Z " fill="#BECBD8" opacity="0.8156863" transform="translate(20,0)"/>
</svg>
