<?xml version="1.0" encoding="UTF-8"?>
<!-- Generator: visioncortex VTracer 0.6.4 -->
<svg version="1.1" xmlns="http://www.w3.org/2000/svg" width="64" height="64">
<path d="M0,0 L1,0 L1,1 L2,1 L2,2 L3,2 L3,3 L4,3 L4,4 L5,4 L5,5 L6,5 L6,6 L7,6 L7,7 L8,7 L8,8 L9,8 L9,9 L10,9 L10,10 L11,10 L11,11 L12,11 L12,12 L13,12 L13,13 L14,13 L14,14 L15,14 L15,15 L16,15 L16,16 L17,16 L17,17 L18,17 L18,18 L19,18 L19,19 L20,19 L20,20 L21,20 L21,21 L22,21 L22,22 L23,22 L23,23 L24,23 L24,24 L25,24 L25,25 L26,25 L26,26 L27,26 L27,27 L28,27 L28,28 L29,28 L29,29 L30,29 L30,30 L31,30 L31,31 L32,31 L32,32 L33,32 L33,33 L34,33 L34,34 L35,34 L35,35 L36,35 L36,36 L37,36 L37,37 L38,37 L38,38 L39,38 L39,39 L40,39 L40,40 L41,40 L41,41 L42,41 L42,42 L43,42 L43,43 L44,43 L44,44 L45,44 L45,45 L46,45 L46,46 L47,46 L47,47 L48,47 L48,48 L49,48 L49,49 L50,49 L50,50 L51,50 L51,51 L52,51 L52,52 L53,52 L53,53 L54,53 L54,54 L55,54 L55,55 L56,55 L56,56 L57,56 L57,57 L58,57 L58,58 L59,58 L59,59 L60,59 L60,60 L61,60 L61,61 L62,61 L62,62 L63,62 L63,63 L60,63 L60,62 L59,62 L59,61 L58,61 L58,60 L57,60 L57,59 L56,59 L56,58 L55,58 L55,57 L54,57 L54,56 L53,56 L53,55 L52,55 L52,54 L51,54 L51,53 L50,53 L50,52 L49,52 L49,51 L48,51 L48,50 L47,50 L47,49 L46,49 L46,48 L45,48 L45,47 L44,47 L44,46 L43,46 L43,45 L42,45 L42,44 L41,44 L41,43 L40,43 L40,42 L39,42 L39,41 L38,41 L38,40 L37,40 L37,39 L36,39 L36,38 L35,38 L35,37 L34,37 L34,36 L33,36 L33,35 L32,35 L32,34 L31,34 L31,33 L30,33 L30,32 L29,32 L29,31 L28,31 L28,30 L27,30 L27,29 L26,29 L26,28 L25,28 L25,27 L24,27 L24,26 L23,26 L23,25 L22,25 L22,24 L21,24 L21,23 L20,23 L20,22 L19,22 L19,21 L18,21 L18,20 L17,20 L17,19 L16,19 L16,18 L15,18 L15,17 L14,17 L14,16 L13,16 L13,15 L12,15 L12,14 L11,14 L11,13 L10,13 L10,12 L9,12 L9,11 L8,11 L8,10 L7,10 L7,9 L6,9 L6,8 L5,8 L5,7 L4,7 L4,6 L3,6 L3,5 L2,5 L2,4 L1,4 L1,3 L0,3 Z M0,4 L1,4 L1,5 L2,5 L2,6 L3,6 L3,7 L4,7 L4,8 L5,8 L5,9 L6,9 L6,10 L7,10 L7,11 L8,11 L8,12 L9,12 L9,13 L10,13 L10,14 L11,14 L11,15 L12,15 L12,16 L13,16 L13,17 L14,17 L14,18 L15,18 L15,19 L16,19 L16,20 L17,20 L17,21 L18,21 L18,22 L19,22 L19,23 L20,23 L20,24 L21,24 L21,25 L22,25 L22,26 L23,26 L23,27 L24,27 L24,28 L25,28 L25,29 L26,29 L26,30 L27,30 L27,31 L28,31 L28,32 L29,32 L29,33 L30,33 L30,34 L31,34 L31,35 L32,35 L32,36 L33,36 L33,37 L34,37 L34,38 L35,38 L35,39 L36,39 L36,40 L37,40 L37,41 L38,41 L38,42 L39,42 L39,43 L40,43 L40,44 L41,44 L41,45 L42,45 L42,46 L43,46 L43,47 L44,47 L44,48 L45,48 L45,49 L46,49 L46,50 L47,50 L47,51 L48,51 L48,52 L49,52 L49,53 L50,53 L50,54 L51,54 L51,55 L52,55 L52,56 L53,56 L53,57 L54,57 L54,58 L55,58 L55,59 L56,59 L56,60 L57,60 L57,61 L58,61 L58,62 L59,62 L59,63 L56,63 L56,62 L55,62 L55,61 L54,61 L54,60 L53,60 L53,59 L52,59 L52,58 L51,58 L51,57 L50,57 L50,56 L49,56 L49,55 L48,55 L48,54 L47,54 L47,53 L46,53 L46,52 L45,52 L45,51 L44,51 L44,50 L43,50 L43,49 L42,49 L42,48 L41,48 L41,47 L40,47 L40,46 L39,46 L39,45 L38,45 L38,44 L37,44 L37,43 L36,43 L36,42 L35,42 L35,41 L34,41 L34,40 L33,40 L33,39 L32,39 L32,38 L31,38 L31,37 L30,37 L30,36 L29,36 L29,35 L28,35 L28,34 L27,34 L27,33 L26,33 L26,32 L25,32 L25,31 L24,31 L24,30 L23,30 L23,29 L22,29 L22,28 L21,28 L21,27 L20,27 L20,26 L19,26 L19,25 L18,25 L18,24 L17,24 L17,23 L16,23 L16,22 L15,22 L15,21 L14,21 L14,20 L13,20 L13,19 L12,19 L12,18 L11,18 L11,17 L10,17 L10,16 L9,16 L9,15 L8,15 L8,14 L7,14 L7,13 L6,13 L6,12 L5,12 L5,11 L4,11 L4,10 L3,10 L3,9 L2,9 L2,8 L1,8 L1,7 L0,7 Z M0,8 L1,8 L1,9 L2,9 L2,10 L3,10 L3,11 L4,11 L4,12 L5,12 L5,13 L6,13 L6,14 L7,14 L7,15 L8,15 L8,16 L9,16 L9,17 L10,17 L10,18 L11,18 L11,19 L12,19 L12,20 L13,20 L13,21 L14,21 L14,22 L15,22 L15,23 L16,23 L16,24 L17,24 L17,25 L18,25 L18,26 L19,26 L19,27 L20,27 L20,28 L21,28 L21,29 L22,29 L22,30 L23,30 L23,31 L24,31 L24,32 L25,32 L25,33 L26,33 L26,34 L27,34 L27,35 L28,35 L28,36 L29,36 L29,37 L30,37 L30,38 L31,38 L31,39 L32,39 L32,40 L33,40 L33,41 L34,41 L34,42 L35,42 L35,43 L36,43 L36,44 L37,44 L37,45 L38,45 L38,46 L39,46 L39,47 L40,47 L40,48 L41,48 L41,49 L42,49 L42,50 L43,50 L43,51 L44,51 L44,52 L45,52 L45,53 L46,53 L46,54 L47,54 L47,55 L48,55 L48,56 L49,56 L49,57 L50,57 L50,58 L51,58 L51,59 L52,59 L52,60 L53,60 L53,61 L54,61 L54,62 L55,62 L55,63 L40,63 L40,62 L39,62 L39,61 L38,61 L38,60 L37,60 L37,59 L36,59 L36,58 L35,58 L35,57 L34,57 L34,56 L33,56 L33,55 L32,55 L32,54 L31,54 L31,53 L30,53 L30,52 L29,52 L29,51 L28,51 L28,50 L27,50 L27,49 L26,49 L26,48 L25,48 L25,47 L24,47 L24,46 L23,46 L23,45 L22,45 L22,44 L21,44 L21,43 L20,43 L20,42 L19,42 L19,41 L18,41 L18,40 L17,40 L17,39 L16,39 L16,38 L15,38 L15,37 L14,37 L14,36 L13,36 L13,35 L12,35 L12,34 L11,34 L11,33 L10,33 L10,32 L9,32 L9,31 L8,31 L8,30 L7,30 L7,29 L6,29 L6,28 L5,28 L5,27 L4,27 L4,26 L3,26 L3,25 L2,25 L2,24 L1,24 L1,23 L0,23 Z M0,24 L1,24 L1,25 L2,25 L2,26 L3,26 L3,27 L4,27 L4,28 L5,28 L5,29 L6,29 L6,30 L7,30 L7,31 L8,31 L8,32 L9,32 L9,33 L10,33 L10,34 L11,34 L11,35 L12,35 L12,36 L13,36 L13,37 L14,37 L14,38 L15,38 L15,39 L16,39 L16,40 L17,40 L17,41 L18,41 L18,42 L19,42 L19,43 L20,43 L20,44 L21,44 L21,45 L22,45 L22,46 L23,46 L23,47 L24,47 L24,48 L25,48 L25,49 L26,49 L26,50 L27,50 L27,51 L28,51 L28,52 L29,52 L29,53 L30,53 L30,54 L31,54 L31,55 L32,55 L32,56 L33,56 L33,57 L34,57 L34,58 L35,58 L35,59 L36,59 L36,60 L37,60 L37,61 L38,61 L38,62 L39,62 L39,63 L36,63 L36,62 L35,62 L35,61 L34,61 L34,60 L33,60 L33,59 L32,59 L32,58 L31,58 L31,57 L30,57 L30,56 L29,56 L29,55 L28,55 L28,54 L27,54 L27,53 L26,53 L26,52 L25,52 L25,51 L24,51 L24,50 L23,50 L23,49 L22,49 L22,48 L21,48 L21,47 L20,47 L20,46 L19,46 L19,45 L18,45 L18,44 L17,44 L17,43 L16,43 L16,42 L15,42 L15,41 L14,41 L14,40 L13,40 L13,39 L12,39 L12,38 L11,38 L11,37 L10,37 L10,36 L9,36 L9,35 L8,35 L8,34 L7,34 L7,33 L6,33 L6,32 L5,32 L5,31 L4,31 L4,30 L3,30 L3,29 L2,29 L2,28 L1,28 L1,27 L0,27 Z M0,28 L1,28 L1,29 L2,29 L2,30 L3,30 L3,31 L4,31 L4,33 L2,33 L2,34 L0,34 Z M4,33 L6,33 L6,34 L7,34 L7,35 L6,35 L6,36 L4,36 L4,37 L2,37 L2,38 L0,38 L0,35 L2,35 L2,34 L4,34 Z M6,36 L9,36 L9,37 L10,37 L10,38 L11,38 L11,39 L12,39 L12,40 L13,40 L13,41 L14,41 L14,42 L15,42 L15,43 L16,43 L16,44 L17,44 L17,45 L18,45 L18,46 L19,46 L19,47 L20,47 L20,48 L21,48 L21,49 L22,49 L22,50 L23,50 L23,51 L24,51 L24,52 L25,52 L25,53 L26,53 L26,54 L27,54 L27,55 L28,55 L28,56 L29,56 L29,57 L27,57 L27,56 L25,56 L25,55 L23,55 L23,54 L21,54 L21,53 L19,53 L19,52 L17,52 L17,51 L15,51 L15,52 L13,52 L13,53 L11,53 L11,54 L9,54 L9,55 L7,55 L7,56 L5,56 L5,57 L3,57 L3,58 L0,58 L0,39 L2,39 L2,38 L4,38 L4,37 L6,37 Z M14,53 L18,53 L18,54 L20,54 L20,55 L22,55 L22,56 L24,56 L24,57 L26,57 L26,58 L28,58 L28,59 L32,59 L32,60 L33,60 L33,61 L34,61 L34,62 L35,62 L35,63 L0,63 L0,59 L4,59 L4,58 L6,58 L6,57 L8,57 L8,56 L10,56 L10,55 L12,55 L12,54 L14,54 Z M29,57 L30,57 L30,58 L29,58 Z " fill="#DE7E4F" transform="translate(0,1)"/>
<path d="M0,0 L3,0 L3,1 L4,1 L4,2 L5,2 L5,3 L6,3 L6,4 L7,4 L7,5 L8,5 L8,6 L9,6 L9,7 L10,7 L10,8 L11,8 L11,9 L12,9 L12,10 L13,10 L13,11 L14,11 L14,12 L15,12 L15,13 L16,13 L16,14 L17,14 L17,15 L18,15 L18,16 L19,16 L19,17 L20,17 L20,18 L21,18 L21,19 L22,19 L22,20 L23,20 L23,21 L21,21 L21,20 L19,20 L19,19 L17,19 L17,18 L15,18 L15,17 L13,17 L13,16 L11,16 L11,15 L9,15 L9,16 L7,16 L7,17 L5,17 L5,18 L3,18 L3,19 L1,19 L1,20 L-1,20 L-1,21 L-3,21 L-3,22 L-6,22 L-6,3 L-4,3 L-4,2 L-2,2 L-2,1 L0,1 Z M-2,12 L-2,13 L-3,13 L-3,17 L-2,17 L-2,18 L1,18 L1,17 L2,17 L2,13 L1,13 L1,12 Z M23,21 L24,21 L24,22 L23,22 Z " fill="#CFD5DA" transform="translate(6,37)"/>
<path d="M0,0 L2,0 L2,1 L0,1 Z " fill="#CED4D9" opacity="0.99215686" transform="translate(15,52)"/>
<path d="M0,0 L1,0 L1,1 L2,1 L2,2 L3,2 L3,3 L4,3 L4,4 L5,4 L5,5 L6,5 L6,6 L7,6 L7,7 L8,7 L8,8 L9,8 L9,9 L10,9 L10,10 L11,10 L11,11 L12,11 L12,12 L13,12 L13,13 L14,13 L14,14 L15,14 L15,15 L16,15 L16,16 L17,16 L17,17 L18,17 L18,18 L19,18 L19,19 L20,19 L20,20 L21,20 L21,21 L22,21 L22,22 L23,22 L23,23 L24,23 L24,24 L25,24 L25,25 L26,25 L26,26 L27,26 L27,27 L28,27 L28,28 L29,28 L29,29 L30,29 L30,30 L31,30 L31,31 L32,31 L32,32 L33,32 L33,33 L34,33 L34,34 L35,34 L35,35 L36,35 L36,36 L37,36 L37,37 L38,37 L38,38 L39,38 L39,39 L40,39 L40,40 L41,40 L41,41 L42,41 L42,42 L43,42 L43,43 L44,43 L44,44 L45,44 L45,45 L46,45 L46,46 L47,46 L47,47 L48,47 L48,48 L49,48 L49,49 L50,49 L50,50 L51,50 L51,51 L52,51 L52,52 L53,52 L53,53 L54,53 L54,54 L55,54 L55,55 L56,55 L56,56 L57,56 L57,57 L58,57 L58,58 L59,58 L59,59 L60,59 L60,60 L61,60 L61,61 L62,61 L62,62 L63,62 L63,63 L60,63 L60,62 L59,62 L59,61 L58,61 L58,60 L57,60 L57,59 L56,59 L56,58 L55,58 L55,57 L54,57 L54,56 L53,56 L53,55 L52,55 L52,54 L51,54 L51,53 L50,53 L50,52 L49,52 L49,51 L48,51 L48,50 L47,50 L47,49 L46,49 L46,48 L45,48 L45,47 L44,47 L44,46 L43,46 L43,45 L42,45 L42,44 L41,44 L41,43 L40,43 L40,42 L39,42 L39,41 L38,41 L38,40 L37,40 L37,39 L36,39 L36,38 L35,38 L35,37 L34,37 L34,36 L33,36 L33,35 L32,35 L32,34 L31,34 L31,33 L30,33 L30,32 L29,32 L29,31 L28,31 L28,30 L27,30 L27,29 L26,29 L26,28 L25,28 L25,27 L24,27 L24,26 L23,26 L23,25 L22,25 L22,24 L21,24 L21,23 L20,23 L20,22 L19,22 L19,21 L18,21 L18,20 L17,20 L17,19 L16,19 L16,18 L15,18 L15,17 L14,17 L14,16 L13,16 L13,15 L12,15 L12,14 L11,14 L11,13 L10,13 L10,12 L9,12 L9,11 L8,11 L8,10 L7,10 L7,9 L6,9 L6,8 L5,8 L5,7 L4,7 L4,6 L3,6 L3,5 L2,5 L2,4 L1,4 L1,3 L0,3 Z M0,4 L1,4 L1,5 L2,5 L2,6 L3,6 L3,7 L4,7 L4,8 L5,8 L5,9 L6,9 L6,10 L7,10 L7,11 L8,11 L8,12 L9,12 L9,13 L10,13 L10,14 L11,14 L11,15 L12,15 L12,16 L13,16 L13,17 L14,17 L14,18 L15,18 L15,19 L16,19 L16,20 L17,20 L17,21 L18,21 L18,22 L19,22 L19,23 L20,23 L20,24 L21,24 L21,25 L22,25 L22,26 L23,26 L23,27 L24,27 L24,28 L25,28 L25,29 L26,29 L26,30 L27,30 L27,31 L28,31 L28,32 L29,32 L29,33 L30,33 L30,34 L31,34 L31,35 L32,35 L32,36 L33,36 L33,37 L34,37 L34,38 L35,38 L35,39 L36,39 L36,40 L37,40 L37,41 L38,41 L38,42 L39,42 L39,43 L40,43 L40,44 L41,44 L41,45 L42,45 L42,46 L43,46 L43,47 L44,47 L44,48 L45,48 L45,49 L46,49 L46,50 L47,50 L47,51 L48,51 L48,52 L49,52 L49,53 L50,53 L50,54 L51,54 L51,55 L52,55 L52,56 L53,56 L53,57 L54,57 L54,58 L55,58 L55,59 L56,59 L56,60 L57,60 L57,61 L58,61 L58,62 L59,62 L59,63 L56,63 L56,62 L55,62 L55,61 L54,61 L54,60 L53,60 L53,59 L52,59 L52,58 L51,58 L51,57 L50,57 L50,56 L49,56 L49,55 L48,55 L48,54 L47,54 L47,53 L46,53 L46,52 L45,52 L45,51 L44,51 L44,50 L43,50 L43,49 L42,49 L42,48 L41,48 L41,47 L40,47 L40,46 L39,46 L39,45 L38,45 L38,44 L37,44 L37,43 L36,43 L36,42 L35,42 L35,41 L34,41 L34,40 L33,40 L33,39 L32,39 L32,38 L31,38 L31,37 L30,37 L30,36 L29,36 L29,35 L28,35 L28,34 L27,34 L27,33 L26,33 L26,32 L25,32 L25,31 L24,31 L24,30 L23,30 L23,29 L22,29 L22,28 L21,28 L21,27 L20,27 L20,26 L19,26 L19,25 L18,25 L18,24 L17,24 L17,23 L16,23 L16,22 L15,22 L15,21 L14,21 L14,20 L13,20 L13,19 L12,19 L12,18 L11,18 L11,17 L10,17 L10,16 L9,16 L9,15 L8,15 L8,14 L7,14 L7,13 L6,13 L6,12 L5,12 L5,11 L4,11 L4,10 L3,10 L3,9 L2,9 L2,8 L1,8 L1,7 L0,7 Z " fill="#EE9366" transform="translate(0,1)"/>
<path d="M0,0 L4,0 L4,1 L6,1 L6,2 L8,2 L8,3 L10,3 L10,4 L12,4 L12,5 L14,5 L14,6 L18,6 L18,7 L19,7 L19,8 L20,8 L20,9 L21,9 L21,10 L-14,10 L-14,6 L-10,6 L-10,5 L-8,5 L-8,4 L-6,4 L-6,3 L-4,3 L-4,2 L-2,2 L-2,1 L0,1 Z " fill="#BBC4CB" transform="translate(14,54)"/>
<path d="M0,0 L1,0 L1,1 L2,1 L2,2 L3,2 L3,3 L4,3 L4,4 L5,4 L5,5 L6,5 L6,6 L7,6 L7,7 L8,7 L8,8 L9,8 L9,9 L10,9 L10,10 L11,10 L11,11 L12,11 L12,12 L13,12 L13,13 L14,13 L14,14 L15,14 L15,15 L16,15 L16,16 L17,16 L17,17 L18,17 L18,18 L19,18 L19,19 L20,19 L20,20 L21,20 L21,21 L22,21 L22,22 L23,22 L23,23 L24,23 L24,24 L25,24 L25,25 L26,25 L26,26 L27,26 L27,27 L28,27 L28,28 L29,28 L29,29 L30,29 L30,30 L31,30 L31,31 L32,31 L32,32 L33,32 L33,33 L34,33 L34,34 L35,34 L35,35 L36,35 L36,36 L37,36 L37,37 L38,37 L38,38 L39,38 L39,39 L40,39 L40,40 L41,40 L41,41 L42,41 L42,42 L43,42 L43,43 L44,43 L44,44 L45,44 L45,45 L46,45 L46,46 L47,46 L47,47 L48,47 L48,48 L49,48 L49,49 L50,49 L50,50 L51,50 L51,51 L52,51 L52,52 L53,52 L53,53 L54,53 L54,54 L55,54 L55,55 L56,55 L56,56 L57,56 L57,57 L58,57 L58,58 L59,58 L59,59 L60,59 L60,60 L61,60 L61,61 L62,61 L62,62 L63,62 L63,63 L60,63 L60,62 L59,62 L59,61 L58,61 L58,60 L57,60 L57,59 L56,59 L56,58 L55,58 L55,57 L54,57 L54,56 L53,56 L53,55 L52,55 L52,54 L51,54 L51,53 L50,53 L50,52 L49,52 L49,51 L48,51 L48,50 L47,50 L47,49 L46,49 L46,48 L45,48 L45,47 L44,47 L44,46 L43,46 L43,45 L42,45 L42,44 L41,44 L41,43 L40,43 L40,42 L39,42 L39,41 L38,41 L38,40 L37,40 L37,39 L36,39 L36,38 L35,38 L35,37 L34,37 L34,36 L33,36 L33,35 L32,35 L32,34 L31,34 L31,33 L30,33 L30,32 L29,32 L29,31 L28,31 L28,30 L27,30 L27,29 L26,29 L26,28 L25,28 L25,27 L24,27 L24,26 L23,26 L23,25 L22,25 L22,24 L21,24 L21,23 L20,23 L20,22 L19,22 L19,21 L18,21 L18,20 L17,20 L17,19 L16,19 L16,18 L15,18 L15,17 L14,17 L14,16 L13,16 L13,15 L12,15 L12,14 L11,14 L11,13 L10,13 L10,12 L9,12 L9,11 L8,11 L8,10 L7,10 L7,9 L6,9 L6,8 L5,8 L5,7 L4,7 L4,6 L3,6 L3,5 L2,5 L2,4 L1,4 L1,3 L0,3 Z " fill="#353541" transform="translate(0,1)"/>
<path d="M0,0 L1,0 L1,1 L2,1 L2,2 L3,2 L3,3 L4,3 L4,4 L5,4 L5,5 L6,5 L6,6 L7,6 L7,7 L8,7 L8,8 L9,8 L9,9 L10,9 L10,10 L11,10 L11,11 L12,11 L12,12 L13,12 L13,13 L14,13 L14,14 L15,14 L15,15 L16,15 L16,16 L17,16 L17,17 L18,17 L18,18 L19,18 L19,19 L20,19 L20,20 L21,20 L21,21 L22,21 L22,22 L23,22 L23,23 L24,23 L24,24 L25,24 L25,25 L26,25 L26,26 L27,26 L27,27 L28,27 L28,28 L29,28 L29,29 L30,29 L30,30 L31,30 L31,31 L32,31 L32,32 L33,32 L33,33 L34,33 L34,34 L35,34 L35,35 L36,35 L36,36 L37,36 L37,37 L38,37 L38,38 L39,38 L39,39 L36,39 L36,38 L35,38 L35,37 L34,37 L34,36 L33,36 L33,35 L32,35 L32,34 L31,34 L31,33 L30,33 L30,32 L29,32 L29,31 L28,31 L28,30 L27,30 L27,29 L26,29 L26,28 L25,28 L25,27 L24,27 L24,26 L23,26 L23,25 L22,25 L22,24 L21,24 L21,23 L20,23 L20,22 L19,22 L19,21 L18,21 L18,20 L17,20 L17,19 L16,19 L16,18 L15,18 L15,17 L14,17 L14,16 L13,16 L13,15 L12,15 L12,14 L11,14 L11,13 L10,13 L10,12 L9,12 L9,11 L8,11 L8,10 L7,10 L7,9 L6,9 L6,8 L5,8 L5,7 L4,7 L4,6 L3,6 L3,5 L2,5 L2,4 L1,4 L1,3 L0,3 Z " fill="#C66A3E" transform="translate(0,25)"/>
<path d="M0,0 L1,0 L1,1 L0,1 Z M1,1 L2,1 L2,2 L1,2 Z M2,2 L3,2 L3,3 L2,3 Z M3,3 L4,3 L4,4 L3,4 Z M4,4 L5,4 L5,5 L4,5 Z M5,5 L6,5 L6,6 L5,6 Z M6,6 L7,6 L7,7 L6,7 Z M7,7 L8,7 L8,8 L7,8 Z M8,8 L9,8 L9,9 L8,9 Z M9,9 L10,9 L10,10 L9,10 Z M10,10 L11,10 L11,11 L10,11 Z M11,11 L12,11 L12,12 L11,12 Z M12,12 L13,12 L13,13 L12,13 Z M13,13 L14,13 L14,14 L13,14 Z M14,14 L15,14 L15,15 L14,15 Z M15,15 L16,15 L16,16 L15,16 Z M16,16 L17,16 L17,17 L16,17 Z M17,17 L18,17 L18,18 L17,18 Z M18,18 L19,18 L19,19 L18,19 Z M19,19 L20,19 L20,20 L19,20 Z M20,20 L21,20 L21,21 L20,21 Z M21,21 L22,21 L22,22 L21,22 Z M22,22 L23,22 L23,23 L22,23 Z M23,23 L24,23 L24,24 L23,24 Z M24,24 L25,24 L25,25 L24,25 Z M25,25 L26,25 L26,26 L25,26 Z M26,26 L27,26 L27,27 L26,27 Z M27,27 L28,27 L28,28 L27,28 Z M28,28 L29,28 L29,29 L28,29 Z M29,29 L30,29 L30,30 L29,30 Z M30,30 L31,30 L31,31 L30,31 Z M31,31 L32,31 L32,32 L31,32 Z M32,32 L33,32 L33,33 L32,33 Z M33,33 L34,33 L34,34 L33,34 Z M34,34 L35,34 L35,35 L34,35 Z M35,35 L36,35 L36,36 L35,36 Z M36,36 L37,36 L37,37 L36,37 Z M37,37 L38,37 L38,38 L37,38 Z M38,38 L39,38 L39,39 L38,39 Z M39,39 L40,39 L40,40 L39,40 Z M40,40 L41,40 L41,41 L40,41 Z M41,41 L42,41 L42,42 L41,42 Z M42,42 L43,42 L43,43 L42,43 Z M43,43 L44,43 L44,44 L43,44 Z M44,44 L45,44 L45,45 L44,45 Z M45,45 L46,45 L46,46 L45,46 Z M46,46 L47,46 L47,47 L46,47 Z M47,47 L48,47 L48,48 L47,48 Z M48,48 L49,48 L49,49 L48,49 Z M49,49 L50,49 L50,50 L49,50 Z M50,50 L51,50 L51,51 L50,51 Z M51,51 L52,51 L52,52 L51,52 Z M52,52 L53,52 L53,53 L52,53 Z M53,53 L54,53 L54,54 L53,54 Z M54,54 L55,54 L55,55 L54,55 Z M55,55 L56,55 L56,56 L55,56 Z M56,56 L57,56 L57,57 L56,57 Z M57,57 L58,57 L58,58 L57,58 Z M58,58 L59,58 L59,59 L58,59 Z M59,59 L60,59 L60,60 L59,60 Z M60,60 L61,60 L61,61 L60,61 Z M61,61 L62,61 L62,62 L61,62 Z M62,62 L63,62 L63,63 L62,63 Z M63,63 L64,63 L64,64 L63,64 Z " fill="#333341" opacity="0.5058824" transform="translate(0,0)"/>
<path d="M0,0 L1,0 L1,1 L0,1 Z M1,1 L2,1 L2,2 L1,2 Z M2,2 L3,2 L3,3 L2,3 Z M3,3 L4,3 L4,4 L3,4 Z M4,4 L5,4 L5,5 L4,5 Z M5,5 L6,5 L6,6 L5,6 Z M6,6 L7,6 L7,7 L6,7 Z M7,7 L8,7 L8,8 L7,8 Z M8,8 L9,8 L9,9 L8,9 Z M9,9 L10,9 L10,10 L9,10 Z M10,10 L11,10 L11,11 L10,11 Z M11,11 L12,11 L12,12 L11,12 Z M12,12 L13,12 L13,13 L12,13 Z M13,13 L14,13 L14,14 L13,14 Z M14,14 L15,14 L15,15 L14,15 Z M15,15 L16,15 L16,16 L15,16 Z M16,16 L17,16 L17,17 L16,17 Z M17,17 L18,17 L18,18 L17,18 Z M18,18 L19,18 L19,19 L18,19 Z M19,19 L20,19 L20,20 L19,20 Z M20,20 L21,20 L21,21 L20,21 Z M21,21 L22,21 L22,22 L21,22 Z M22,22 L23,22 L23,23 L22,23 Z M23,23 L24,23 L24,24 L23,24 Z M24,24 L25,24 L25,25 L24,25 Z M25,25 L26,25 L26,26 L25,26 Z M26,26 L27,26 L27,27 L26,27 Z M27,27 L28,27 L28,28 L27,28 Z M28,28 L29,28 L29,29 L28,29 Z M29,29 L30,29 L30,30 L29,30 Z M30,30 L31,30 L31,31 L30,31 Z M31,31 L32,31 L32,32 L31,32 Z M32,32 L33,32 L33,33 L32,33 Z M33,33 L34,33 L34,34 L33,34 Z M34,34 L35,34 L35,35 L34,35 Z M35,35 L36,35 L36,36 L35,36 Z M36,36 L37,36 L37,37 L36,37 Z M37,37 L38,37 L38,38 L37,38 Z M38,38 L39,38 L39,39 L38,39 Z M39,39 L40,39 L40,40 L39,40 Z M40,40 L41,40 L41,41 L40,41 Z M41,41 L42,41 L42,42 L41,42 Z M42,42 L43,42 L43,43 L42,43 Z M43,43 L44,43 L44,44 L43,44 Z M44,44 L45,44 L45,45 L44,45 Z M45,45 L46,45 L46,46 L45,46 Z M46,46 L47,46 L47,47 L46,47 Z M47,47 L48,47 L48,48 L47,48 Z M48,48 L49,48 L49,49 L48,49 Z M49,49 L50,49 L50,50 L49,50 Z M50,50 L51,50 L51,51 L50,51 Z M51,51 L52,51 L52,52 L51,52 Z M52,52 L53,52 L53,53 L52,53 Z M53,53 L54,53 L54,54 L53,54 Z M54,54 L55,54 L55,55 L54,55 Z M55,55 L56,55 L56,56 L55,56 Z M56,56 L57,56 L57,57 L56,57 Z M57,57 L58,57 L58,58 L57,58 Z M58,58 L59,58 L59,59 L58,59 Z M59,59 L60,59 L60,60 L59,60 Z " fill="#B07259" opacity="0.7529412" transform="translate(0,4)"/>
<path d="M0,0 L1,0 L1,1 L0,1 Z M1,1 L2,1 L2,2 L1,2 Z M2,2 L3,2 L3,3 L2,3 Z M3,3 L4,3 L4,4 L3,4 Z M4,4 L5,4 L5,5 L4,5 Z M5,5 L6,5 L6,6 L5,6 Z M6,6 L7,6 L7,7 L6,7 Z M7,7 L8,7 L8,8 L7,8 Z M8,8 L9,8 L9,9 L8,9 Z M9,9 L10,9 L10,10 L9,10 Z M10,10 L11,10 L11,11 L10,11 Z M11,11 L12,11 L12,12 L11,12 Z M12,12 L13,12 L13,13 L12,13 Z M13,13 L14,13 L14,14 L13,14 Z M14,14 L15,14 L15,15 L14,15 Z M15,15 L16,15 L16,16 L15,16 Z M16,16 L17,16 L17,17 L16,17 Z M17,17 L18,17 L18,18 L17,18 Z M18,18 L19,18 L19,19 L18,19 Z M19,19 L20,19 L20,20 L19,20 Z M20,20 L21,20 L21,21 L20,21 Z M21,21 L22,21 L22,22 L21,22 Z M22,22 L23,22 L23,23 L22,23 Z M23,23 L24,23 L24,24 L23,24 Z M24,24 L25,24 L25,25 L24,25 Z M25,25 L26,25 L26,26 L25,26 Z M26,26 L27,26 L27,27 L26,27 Z M27,27 L28,27 L28,28 L27,28 Z M28,28 L29,28 L29,29 L28,29 Z M29,29 L30,29 L30,30 L29,30 Z M30,30 L31,30 L31,31 L30,31 Z M31,31 L32,31 L32,32 L31,32 Z M32,32 L33,32 L33,33 L32,33 Z M33,33 L34,33 L34,34 L33,34 Z M34,34 L35,34 L35,35 L34,35 Z M35,35 L36,35 L36,36 L35,36 Z M36,36 L37,36 L37,37 L36,37 Z M37,37 L38,37 L38,38 L37,38 Z M38,38 L39,38 L39,39 L38,39 Z M39,39 L40,39 L40,40 L39,40 Z M40,40 L41,40 L41,41 L40,41 Z M41,41 L42,41 L42,42 L41,42 Z M42,42 L43,42 L43,43 L42,43 Z M43,43 L44,43 L44,44 L43,44 Z M44,44 L45,44 L45,45 L44,45 Z M45,45 L46,45 L46,46 L45,46 Z M46,46 L47,46 L47,47 L46,47 Z M47,47 L48,47 L48,48 L47,48 Z M48,48 L49,48 L49,49 L48,49 Z M49,49 L50,49 L50,50 L49,50 Z M50,50 L51,50 L51,51 L50,51 Z M51,51 L52,51 L52,52 L51,52 Z M52,52 L53,52 L53,53 L52,53 Z M53,53 L54,53 L54,54 L53,54 Z M54,54 L55,54 L55,55 L54,55 Z M55,55 L56,55 L56,56 L55,56 Z " fill="#E98C5D" opacity="0.7529412" transform="translate(0,8)"/>
<path d="M0,0 L1,0 L1,1 L2,1 L2,2 L3,2 L3,3 L4,3 L4,5 L2,5 L2,6 L0,6 Z M4,5 L6,5 L6,6 L7,6 L7,7 L6,7 L6,8 L4,8 L4,9 L2,9 L2,10 L0,10 L0,7 L2,7 L2,6 L4,6 Z " fill="#BBC4CB" transform="translate(0,29)"/>
<path d="M0,0 L1,0 L1,1 L0,1 Z M1,1 L2,1 L2,2 L1,2 Z M2,2 L3,2 L3,3 L2,3 Z M3,3 L4,3 L4,4 L3,4 Z M4,4 L5,4 L5,5 L4,5 Z M5,5 L6,5 L6,6 L5,6 Z M6,6 L7,6 L7,7 L6,7 Z M7,7 L8,7 L8,8 L7,8 Z M8,8 L9,8 L9,9 L8,9 Z M9,9 L10,9 L10,10 L9,10 Z M10,10 L11,10 L11,11 L10,11 Z M11,11 L12,11 L12,12 L11,12 Z M12,12 L13,12 L13,13 L12,13 Z M13,13 L14,13 L14,14 L13,14 Z M14,14 L15,14 L15,15 L14,15 Z M15,15 L16,15 L16,16 L15,16 Z M16,16 L17,16 L17,17 L16,17 Z M17,17 L18,17 L18,18 L17,18 Z M18,18 L19,18 L19,19 L18,19 Z M19,19 L20,19 L20,20 L19,20 Z M20,20 L21,20 L21,21 L20,21 Z M21,21 L22,21 L22,22 L21,22 Z M22,22 L23,22 L23,23 L22,23 Z M23,23 L24,23 L24,24 L23,24 Z M24,24 L25,24 L25,25 L24,25 Z M25,25 L26,25 L26,26 L25,26 Z M26,26 L27,26 L27,27 L26,27 Z M27,27 L28,27 L28,28 L27,28 Z M28,28 L29,28 L29,29 L28,29 Z M29,29 L30,29 L30,30 L29,30 Z M30,30 L31,30 L31,31 L30,31 Z M31,31 L32,31 L32,32 L31,32 Z M32,32 L33,32 L33,33 L32,33 Z M33,33 L34,33 L34,34 L33,34 Z M34,34 L35,34 L35,35 L34,35 Z M35,35 L36,35 L36,36 L35,36 Z M36,36 L37,36 L37,37 L36,37 Z M37,37 L38,37 L38,38 L37,38 Z M38,38 L39,38 L39,39 L38,39 Z M39,39 L40,39 L40,40 L39,40 Z " fill="#D67649" opacity="0.7529412" transform="translate(0,24)"/>
<path d="M0,0 L1,0 L1,1 L0,1 Z M1,1 L2,1 L2,2 L1,2 Z M2,2 L3,2 L3,3 L2,3 Z M3,3 L4,3 L4,4 L3,4 Z M4,4 L5,4 L5,5 L4,5 Z M5,5 L6,5 L6,6 L5,6 Z M6,6 L7,6 L7,7 L6,7 Z M7,7 L8,7 L8,8 L7,8 Z M8,8 L9,8 L9,9 L8,9 Z M9,9 L10,9 L10,10 L9,10 Z M10,10 L11,10 L11,11 L10,11 Z M11,11 L12,11 L12,12 L11,12 Z M12,12 L13,12 L13,13 L12,13 Z M13,13 L14,13 L14,14 L13,14 Z M14,14 L15,14 L15,15 L14,15 Z M15,15 L16,15 L16,16 L15,16 Z M16,16 L17,16 L17,17 L16,17 Z M17,17 L18,17 L18,18 L17,18 Z M18,18 L19,18 L19,19 L18,19 Z M19,19 L20,19 L20,20 L19,20 Z M20,20 L21,20 L21,21 L20,21 Z M21,21 L22,21 L22,22 L21,22 Z M22,22 L23,22 L23,23 L22,23 Z " fill="#CDB2A6" opacity="0.7529412" transform="translate(8,36)"/>
<path d="M0,0 L2,0 L2,1 L3,1 L3,2 L2,2 L2,3 L0,3 L0,4 L-2,4 L-2,5 L-4,5 L-4,2 L-2,2 L-2,1 L0,1 Z " fill="#A6B2BB" transform="translate(4,34)"/>
<path d="M0,0 L3,0 L3,2 L4,2 L4,4 L3,4 L3,5 L0,5 L0,4 L-1,4 L-1,2 L0,2 Z " fill="#BBC4CB" transform="translate(4,49)"/>
<path d="M0,0 L3,0 L3,1 L4,1 L4,3 L3,3 L3,4 L0,4 L0,3 L-1,3 L-1,1 L0,1 Z " fill="#A6B2BB" transform="translate(14,57)"/>
<path d="M0,0 L3,0 L3,1 L1,1 L1,2 L0,2 L0,3 L-1,3 L-1,1 L0,1 Z " fill="#A6B2BB" transform="translate(14,57)"/>
<path d="M0,0 L1,0 L1,1 L0,1 Z M1,1 L2,1 L2,2 L1,2 Z M2,2 L3,2 L3,3 L2,3 Z M3,3 L4,3 L4,4 L3,4 Z M4,4 L5,4 L5,5 L4,5 Z " fill="#BEA69D" opacity="0.7529412" transform="translate(0,28)"/>
<path d="M0,0 L1,0 L1,1 L0,1 Z M1,1 L2,1 L2,2 L1,2 Z M2,2 L3,2 L3,3 L2,3 Z M3,3 L4,3 L4,4 L3,4 Z " fill="#BEA69D" opacity="0.7529412" transform="translate(32,60)"/>
<path d="M0,0 L1,0 L1,1 L0,1 Z " fill="#BBC4CC" opacity="0.8745098" transform="translate(15,53)"/>
<path d="M0,0 L1,0 L1,1 L0,1 Z " fill="#CAD0D6" opacity="0.8235294" transform="translate(30,59)"/>
<path d="M0,0 L3,0 L3,1 L0,1 Z " fill="#C0C9CF" transform="translate(4,49)"/>
<path d="M0,0 L2,0 L2,1 L0,1 Z " fill="#B7C1C8" transform="translate(15,61)"/>
<path d="M0,0 L1,0 L1,2 L0,2 Z " fill="#A9B4BD" transform="translate(17,58)"/>
<path d="M0,0 L1,0 L1,2 L0,2 Z " fill="#A8B4BD" transform="translate(13,58)"/>
<path d="M0,0 L1,0 L1,1 L0,1 Z " fill="#C1C9D0" opacity="0.7529412" transform="translate(2,59)"/>
<path d="M0,0 L1,0 L1,1 L0,1 Z " fill="#CED4D9" opacity="0.99215686" transform="translate(28,58)"/>
<path d="M0,0 L1,0 L1,1 L0,1 Z " fill="#BBC4CC" opacity="0.8745098" transform="translate(5,58)"/>
<path d="M0,0 L1,0 L1,1 L0,1 Z " fill="#CED4D9" opacity="0.99215686" transform="translate(26,57)"/>
<path d="M0,0 L1,0 L1,1 L0,1 Z " fill="#BBC4CC" opacity="0.8745098" transform="translate(7,57)"/>
<path d="M0,0 L1,0 L1,1 L0,1 Z " fill="#CED4D9" opacity="0.99215686" transform="translate(24,56)"/>
<path d="M0,0 L2,0 L2,1 L0,1 Z " fill="#B7C1C8" transform="translate(15,56)"/>
<path d="M0,0 L1,0 L1,1 L0,1 Z " fill="#BBC4CC" opacity="0.8745098" transform="translate(9,56)"/>
<path d="M0,0 L1,0 L1,1 L0,1 Z " fill="#CED4D9" opacity="0.99215686" transform="translate(22,55)"/>
<path d="M0,0 L1,0 L1,1 L0,1 Z " fill="#BBC4CC" opacity="0.8745098" transform="translate(11,55)"/>
<path d="M0,0 L1,0 L1,1 L0,1 Z " fill="#CED4D9" opacity="0.99215686" transform="translate(20,54)"/>
<path d="M0,0 L1,0 L1,1 L0,1 Z " fill="#BBC4CC" opacity="0.8745098" transform="translate(13,54)"/>
<path d="M0,0 L2,0 L2,1 L0,1 Z " fill="#CED4D9" transform="translate(5,54)"/>
<path d="M0,0 L1,0 L1,1 L0,1 Z M-1,1 L0,1 L0,2 L-1,2 Z " fill="#C0C8CE" transform="translate(7,52)"/>
<path d="M0,0 L1,0 L1,1 L0,1 Z " fill="#CCD3D8" opacity="0.8156863" transform="translate(1,39)"/>
<path d="M0,0 L1,0 L1,1 L0,1 Z " fill="#CCD3D8" opacity="0.8156863" transform="translate(3,38)"/>
<path d="M0,0 L1,0 L1,1 L0,1 Z " fill="#CCD3D8" opacity="0.8156863" transform="translate(5,37)"/>
<path d="M0,0 L1,0 L1,1 L0,1 Z " fill="#CCD3D8" opacity="0.8156863" transform="translate(7,36)"/>
<path d="M0,0 L1,0 L1,1 L0,1 Z " fill="#ADB7C0" opacity="0.8156863" transform="translate(1,35)"/>
<path d="M0,0 L1,0 L1,1 L0,1 Z M1,1 L2,1 L2,2 L1,2 Z " fill="#B19A91" opacity="0.7529412" transform="translate(6,34)"/>
<path d="M0,0 L1,0 L1,1 L0,1 Z " fill="#ABB7C0" opacity="0.8117647" transform="translate(3,34)"/>
<path d="M0,0 L1,0 L1,1 L0,1 Z " fill="#B1BBC3" transform="translate(15,61)"/>
<path d="M0,0 L1,0 L1,1 L0,1 Z " fill="#B7C0C8" transform="translate(14,61)"/>
<path d="M0,0 L1,0 L1,1 L0,1 Z " fill="#B6C0C8" transform="translate(17,60)"/>
<path d="M0,0 L1,0 L1,1 L0,1 Z " fill="#A6B3BB" transform="translate(16,60)"/>
<path d="M0,0 L1,0 L1,1 L0,1 Z " fill="#A6B3BB" transform="translate(14,60)"/>
<path d="M0,0 L1,0 L1,1 L0,1 Z " fill="#B6BFC7" transform="translate(13,60)"/>
<path d="M0,0 L1,0 L1,1 L0,1 Z " fill="#BBC4CB" transform="translate(0,60)"/>
<path d="M0,0 L1,0 L1,1 L0,1 Z " fill="#C7A99D" opacity="0.73333335" transform="translate(31,59)"/>
<path d="M0,0 L1,0 L1,1 L0,1 Z " fill="#C1C9D0" opacity="0.7529412" transform="translate(29,59)"/>
<path d="M0,0 L1,0 L1,1 L0,1 Z " fill="#BAC4CC" opacity="0.8980392" transform="translate(28,59)"/>
<path d="M0,0 L1,0 L1,1 L0,1 Z " fill="#BBC4CB" opacity="0.89411765" transform="translate(3,59)"/>
<path d="M0,0 L1,0 L1,1 L0,1 Z " fill="#C9D0D5" opacity="0.83137256" transform="translate(1,59)"/>
<path d="M0,0 L1,0 L1,1 L0,1 Z " fill="#CDD4D8" opacity="0.9372549" transform="translate(0,59)"/>
<path d="M0,0 L1,0 L1,1 L0,1 Z " fill="#C5CDD2" opacity="0.76862746" transform="translate(27,58)"/>
<path d="M0,0 L1,0 L1,1 L0,1 Z " fill="#BBC4CB" opacity="0.88235295" transform="translate(26,58)"/>
<path d="M0,0 L1,0 L1,1 L0,1 Z " fill="#A8B4BD" transform="translate(17,58)"/>
<path d="M0,0 L1,0 L1,1 L0,1 Z " fill="#C6CDD3" opacity="0.76862746" transform="translate(4,58)"/>
<path d="M0,0 L1,0 L1,1 L0,1 Z " fill="#CED4D9" opacity="0.99215686" transform="translate(3,58)"/>
<path d="M0,0 L1,0 L1,1 L0,1 Z " fill="#C5CDD2" opacity="0.76862746" transform="translate(25,57)"/>
<path d="M0,0 L1,0 L1,1 L0,1 Z " fill="#BBC4CB" opacity="0.88235295" transform="translate(24,57)"/>
<path d="M0,0 L1,0 L1,1 L0,1 Z " fill="#B5BFC7" transform="translate(17,57)"/>
<path d="M0,0 L1,0 L1,1 L0,1 Z " fill="#A7B3BB" transform="translate(16,57)"/>
<path d="M0,0 L1,0 L1,1 L0,1 Z " fill="#A7B3BB" transform="translate(14,57)"/>
<path d="M0,0 L1,0 L1,1 L0,1 Z " fill="#B6C0C7" transform="translate(13,57)"/>
<path d="M0,0 L1,0 L1,1 L0,1 Z " fill="#C6CDD3" opacity="0.76862746" transform="translate(6,57)"/>
<path d="M0,0 L1,0 L1,1 L0,1 Z " fill="#CED4D9" opacity="0.99215686" transform="translate(5,57)"/>
<path d="M0,0 L1,0 L1,1 L0,1 Z " fill="#C5CDD3" opacity="0.76862746" transform="translate(23,56)"/>
<path d="M0,0 L1,0 L1,1 L0,1 Z " fill="#BBC4CB" opacity="0.8784314" transform="translate(22,56)"/>
<path d="M0,0 L1,0 L1,1 L0,1 Z " fill="#B1BCC4" transform="translate(15,56)"/>
<path d="M0,0 L1,0 L1,1 L0,1 Z " fill="#B7C1C8" transform="translate(14,56)"/>
<path d="M0,0 L1,0 L1,1 L0,1 Z " fill="#C6CDD3" opacity="0.76862746" transform="translate(8,56)"/>
<path d="M0,0 L1,0 L1,1 L0,1 Z " fill="#CED4D9" opacity="0.99215686" transform="translate(7,56)"/>
<path d="M0,0 L1,0 L1,1 L0,1 Z " fill="#C5CDD3" opacity="0.76862746" transform="translate(21,55)"/>
<path d="M0,0 L1,0 L1,1 L0,1 Z " fill="#BBC4CB" opacity="0.8784314" transform="translate(20,55)"/>
<path d="M0,0 L1,0 L1,1 L0,1 Z " fill="#C6CDD3" opacity="0.76862746" transform="translate(10,55)"/>
<path d="M0,0 L1,0 L1,1 L0,1 Z " fill="#CED4D9" opacity="0.99215686" transform="translate(9,55)"/>
<path d="M0,0 L1,0 L1,1 L0,1 Z " fill="#C5CDD2" opacity="0.77254903" transform="translate(19,54)"/>
<path d="M0,0 L1,0 L1,1 L0,1 Z " fill="#BBC4CC" opacity="0.8745098" transform="translate(18,54)"/>
<path d="M0,0 L1,0 L1,1 L0,1 Z " fill="#C6CDD3" opacity="0.76862746" transform="translate(12,54)"/>
<path d="M0,0 L1,0 L1,1 L0,1 Z " fill="#CED4D9" opacity="0.99215686" transform="translate(11,54)"/>
<path d="M0,0 L1,0 L1,1 L0,1 Z " fill="#CCD3D8" transform="translate(5,54)"/>
<path d="M0,0 L1,0 L1,1 L0,1 Z " fill="#CED4D9" transform="translate(4,54)"/>
<path d="M0,0 L1,0 L1,1 L0,1 Z " fill="#CED4D9" opacity="0.99215686" transform="translate(18,53)"/>
<path d="M0,0 L1,0 L1,1 L0,1 Z " fill="#C6CDD3" opacity="0.76862746" transform="translate(17,53)"/>
<path d="M0,0 L1,0 L1,1 L0,1 Z " fill="#BBC4CC" opacity="0.8745098" transform="translate(16,53)"/>
<path d="M0,0 L1,0 L1,1 L0,1 Z " fill="#C6CDD3" opacity="0.76862746" transform="translate(14,53)"/>
<path d="M0,0 L1,0 L1,1 L0,1 Z " fill="#CED4D9" opacity="0.99215686" transform="translate(13,53)"/>
<path d="M0,0 L1,0 L1,1 L0,1 Z " fill="#CDD4D9" transform="translate(7,53)"/>
<path d="M0,0 L1,0 L1,1 L0,1 Z " fill="#BFC8CE" transform="translate(4,53)"/>
<path d="M0,0 L1,0 L1,1 L0,1 Z " fill="#CED3D9" transform="translate(3,53)"/>
<path d="M0,0 L1,0 L1,1 L0,1 Z " fill="#C1C8CF" transform="translate(3,52)"/>
<path d="M0,0 L1,0 L1,1 L0,1 Z " fill="#BCC5CB" transform="translate(7,51)"/>
<path d="M0,0 L1,0 L1,1 L0,1 Z " fill="#BCC4CC" transform="translate(3,51)"/>
<path d="M0,0 L1,0 L1,1 L0,1 Z " fill="#C5CDD3" transform="translate(7,50)"/>
<path d="M0,0 L1,0 L1,1 L0,1 Z " fill="#C6CED3" transform="translate(3,50)"/>
<path d="M0,0 L1,0 L1,1 L0,1 Z " fill="#C6CED4" transform="translate(6,49)"/>
<path d="M0,0 L1,0 L1,1 L0,1 Z " fill="#C7CFD4" transform="translate(4,49)"/>
<path d="M0,0 L1,0 L1,1 L0,1 Z " fill="#B3BCC4" opacity="0.8156863" transform="translate(0,39)"/>
<path d="M0,0 L1,0 L1,1 L0,1 Z " fill="#B3BCC4" opacity="0.8156863" transform="translate(2,38)"/>
<path d="M0,0 L1,0 L1,1 L0,1 Z " fill="#B3BCC4" opacity="0.8156863" transform="translate(4,37)"/>
<path d="M0,0 L1,0 L1,1 L0,1 Z " fill="#B3BCC4" opacity="0.8156863" transform="translate(6,36)"/>
<path d="M0,0 L1,0 L1,1 L0,1 Z " fill="#A6B2BB" transform="translate(0,36)"/>
<path d="M0,0 L1,0 L1,1 L0,1 Z " fill="#B8C2C9" opacity="0.8156863" transform="translate(0,35)"/>
<path d="M0,0 L1,0 L1,1 L0,1 Z " fill="#B8C2CA" opacity="0.81960785" transform="translate(2,34)"/>
<path d="M0,0 L1,0 L1,1 L0,1 Z " fill="#B49A91" opacity="0.73333335" transform="translate(5,33)"/>
<path d="M0,0 L1,0 L1,1 L0,1 Z " fill="#BAC3CA" opacity="0.81960785" transform="translate(4,33)"/>
</svg>
