<?xml version="1.0" encoding="UTF-8"?>
<!-- Generator: visioncortex VTracer 0.6.4 -->
<svg version="1.1" xmlns="http://www.w3.org/2000/svg" width="64" height="64">
<path d="M0,0 L1,0 L1,1 L2,1 L2,2 L3,2 L3,3 L4,3 L4,4 L5,4 L5,5 L6,5 L6,6 L7,6 L7,7 L8,7 L8,8 L9,8 L9,9 L10,9 L10,10 L11,10 L11,11 L12,11 L12,12 L13,12 L13,13 L14,13 L14,14 L15,14 L15,15 L16,15 L16,16 L17,16 L17,17 L18,17 L18,18 L19,18 L19,19 L20,19 L20,20 L21,20 L21,21 L22,21 L22,22 L23,22 L23,23 L24,23 L24,24 L25,24 L25,25 L26,25 L26,26 L27,26 L27,27 L28,27 L28,28 L29,28 L29,29 L30,29 L30,30 L31,30 L31,31 L32,31 L32,32 L33,32 L33,33 L34,33 L34,34 L35,34 L35,35 L36,35 L36,36 L37,36 L37,37 L38,37 L38,38 L39,38 L39,39 L40,39 L40,40 L41,40 L41,41 L42,41 L42,42 L43,42 L43,43 L44,43 L44,44 L45,44 L45,45 L46,45 L46,46 L47,46 L47,47 L48,47 L48,48 L49,48 L49,49 L50,49 L50,50 L51,50 L51,51 L52,51 L52,52 L53,52 L53,53 L54,53 L54,54 L55,54 L55,55 L56,55 L56,56 L57,56 L57,57 L58,57 L58,58 L59,58 L59,59 L60,59 L60,60 L61,60 L61,61 L62,61 L62,62 L63,62 L63,63 L60,63 L60,62 L59,62 L59,61 L58,61 L58,60 L57,60 L57,59 L56,59 L56,58 L55,58 L55,57 L54,57 L54,56 L53,56 L53,55 L52,55 L52,54 L51,54 L51,53 L50,53 L50,52 L49,52 L49,51 L48,51 L48,50 L47,50 L47,49 L46,49 L46,48 L45,48 L45,47 L44,47 L44,46 L43,46 L43,45 L42,45 L42,44 L41,44 L41,43 L40,43 L40,42 L39,42 L39,41 L38,41 L38,40 L37,40 L37,39 L36,39 L36,38 L35,38 L35,37 L34,37 L34,36 L33,36 L33,35 L32,35 L32,34 L31,34 L31,33 L30,33 L30,32 L29,32 L29,31 L28,31 L28,30 L27,30 L27,29 L26,29 L26,28 L25,28 L25,27 L24,27 L24,26 L23,26 L23,25 L22,25 L22,24 L21,24 L21,23 L20,23 L20,22 L19,22 L19,21 L18,21 L18,20 L17,20 L17,19 L16,19 L16,18 L15,18 L15,17 L14,17 L14,16 L13,16 L13,15 L12,15 L12,14 L11,14 L11,13 L10,13 L10,12 L9,12 L9,11 L8,11 L8,10 L7,10 L7,9 L6,9 L6,8 L5,8 L5,7 L4,7 L4,6 L3,6 L3,5 L2,5 L2,4 L1,4 L1,3 L0,3 Z M0,4 L1,4 L1,5 L2,5 L2,6 L3,6 L3,7 L4,7 L4,8 L5,8 L5,9 L6,9 L6,10 L7,10 L7,11 L8,11 L8,12 L9,12 L9,13 L10,13 L10,14 L11,14 L11,15 L12,15 L12,16 L13,16 L13,17 L14,17 L14,18 L15,18 L15,19 L16,19 L16,20 L17,20 L17,21 L18,21 L18,22 L19,22 L19,23 L20,23 L20,24 L21,24 L21,25 L22,25 L22,26 L23,26 L23,27 L24,27 L24,28 L25,28 L25,29 L26,29 L26,30 L27,30 L27,31 L28,31 L28,32 L29,32 L29,33 L30,33 L30,34 L31,34 L31,35 L32,35 L32,36 L33,36 L33,37 L34,37 L34,38 L35,38 L35,39 L36,39 L36,40 L37,40 L37,41 L38,41 L38,42 L39,42 L39,43 L40,43 L40,44 L41,44 L41,45 L42,45 L42,46 L43,46 L43,47 L44,47 L44,48 L45,48 L45,49 L46,49 L46,50 L47,50 L47,51 L48,51 L48,52 L49,52 L49,53 L50,53 L50,54 L51,54 L51,55 L52,55 L52,56 L53,56 L53,57 L54,57 L54,58 L55,58 L55,59 L56,59 L56,60 L57,60 L57,61 L58,61 L58,62 L59,62 L59,63 L56,63 L56,62 L55,62 L55,61 L54,61 L54,60 L53,60 L53,59 L52,59 L52,58 L51,58 L51,57 L50,57 L50,56 L49,56 L49,55 L48,55 L48,54 L47,54 L47,53 L46,53 L46,52 L45,52 L45,51 L44,51 L44,50 L43,50 L43,49 L42,49 L42,48 L41,48 L41,47 L40,47 L40,46 L39,46 L39,45 L38,45 L38,44 L37,44 L37,43 L36,43 L36,42 L35,42 L35,41 L34,41 L34,40 L33,40 L33,39 L32,39 L32,38 L31,38 L31,37 L30,37 L30,36 L29,36 L29,35 L28,35 L28,34 L27,34 L27,33 L26,33 L26,32 L25,32 L25,31 L24,31 L24,30 L23,30 L23,29 L22,29 L22,28 L21,28 L21,27 L20,27 L20,26 L19,26 L19,25 L18,25 L18,24 L17,24 L17,23 L16,23 L16,22 L15,22 L15,21 L14,21 L14,20 L13,20 L13,19 L12,19 L12,18 L11,18 L11,17 L10,17 L10,16 L9,16 L9,15 L8,15 L8,14 L7,14 L7,13 L6,13 L6,12 L5,12 L5,11 L4,11 L4,10 L3,10 L3,9 L2,9 L2,8 L1,8 L1,7 L0,7 Z M0,8 L1,8 L1,9 L2,9 L2,10 L3,10 L3,11 L4,11 L4,12 L5,12 L5,13 L6,13 L6,14 L7,14 L7,15 L8,15 L8,16 L9,16 L9,17 L10,17 L10,18 L11,18 L11,19 L12,19 L12,20 L13,20 L13,21 L14,21 L14,22 L15,22 L15,23 L16,23 L16,24 L17,24 L17,25 L18,25 L18,26 L19,26 L19,27 L20,27 L20,28 L21,28 L21,29 L22,29 L22,30 L23,30 L23,31 L24,31 L24,32 L25,32 L25,33 L26,33 L26,34 L27,34 L27,35 L28,35 L28,36 L29,36 L29,37 L30,37 L30,38 L31,38 L31,39 L32,39 L32,40 L33,40 L33,41 L34,41 L34,42 L35,42 L35,43 L36,43 L36,44 L37,44 L37,45 L38,45 L38,46 L39,46 L39,47 L40,47 L40,48 L41,48 L41,49 L42,49 L42,50 L43,50 L43,51 L44,51 L44,52 L45,52 L45,53 L46,53 L46,54 L47,54 L47,55 L48,55 L48,56 L49,56 L49,57 L50,57 L50,58 L51,58 L51,59 L52,59 L52,60 L53,60 L53,61 L54,61 L54,62 L55,62 L55,63 L44,63 L44,62 L43,62 L43,61 L42,61 L42,60 L41,60 L41,59 L40,59 L40,58 L39,58 L39,57 L38,57 L38,56 L37,56 L37,55 L36,55 L36,54 L35,54 L35,53 L34,53 L34,52 L33,52 L33,51 L32,51 L32,50 L31,50 L31,49 L30,49 L30,48 L29,48 L29,47 L28,47 L28,46 L27,46 L27,45 L26,45 L26,44 L25,44 L25,43 L24,43 L24,42 L23,42 L23,41 L22,41 L22,40 L21,40 L21,39 L20,39 L20,38 L19,38 L19,37 L18,37 L18,36 L17,36 L17,35 L16,35 L16,34 L15,34 L15,33 L14,33 L14,32 L13,32 L13,31 L12,31 L12,30 L11,30 L11,29 L10,29 L10,28 L9,28 L9,27 L8,27 L8,26 L7,26 L7,25 L6,25 L6,24 L5,24 L5,23 L4,23 L4,22 L3,22 L3,21 L2,21 L2,20 L1,20 L1,19 L0,19 Z M0,20 L1,20 L1,21 L2,21 L2,22 L3,22 L3,23 L4,23 L4,24 L5,24 L5,25 L6,25 L6,26 L7,26 L7,27 L8,27 L8,28 L9,28 L9,29 L10,29 L10,30 L11,30 L11,31 L12,31 L12,32 L13,32 L13,33 L14,33 L14,34 L15,34 L15,35 L16,35 L16,36 L17,36 L17,37 L18,37 L18,38 L19,38 L19,39 L20,39 L20,40 L21,40 L21,41 L22,41 L22,42 L23,42 L23,43 L24,43 L24,44 L25,44 L25,45 L26,45 L26,46 L27,46 L27,47 L28,47 L28,48 L29,48 L29,49 L30,49 L30,50 L31,50 L31,51 L32,51 L32,52 L33,52 L33,53 L34,53 L34,54 L35,54 L35,55 L36,55 L36,56 L37,56 L37,57 L38,57 L38,58 L39,58 L39,59 L40,59 L40,60 L41,60 L41,61 L42,61 L42,62 L43,62 L43,63 L40,63 L40,62 L39,62 L39,61 L38,61 L38,60 L37,60 L37,59 L36,59 L36,58 L35,58 L35,57 L34,57 L34,56 L33,56 L33,55 L32,55 L32,54 L31,54 L31,53 L30,53 L30,52 L29,52 L29,51 L28,51 L28,50 L27,50 L27,49 L26,49 L26,48 L25,48 L25,47 L24,47 L24,46 L23,46 L23,45 L22,45 L22,44 L21,44 L21,43 L20,43 L20,42 L19,42 L19,41 L18,41 L18,40 L17,40 L17,39 L16,39 L16,38 L15,38 L15,37 L14,37 L14,36 L13,36 L13,35 L12,35 L12,34 L11,34 L11,33 L10,33 L10,32 L9,32 L9,31 L8,31 L8,30 L7,30 L7,29 L6,29 L6,28 L5,28 L5,27 L4,27 L4,26 L3,26 L3,25 L2,25 L2,24 L1,24 L1,23 L0,23 Z M0,24 L1,24 L1,25 L2,25 L2,26 L3,26 L3,27 L4,27 L4,31 L5,31 L5,29 L6,29 L6,30 L7,30 L7,31 L8,31 L8,32 L9,32 L9,33 L10,33 L10,34 L11,34 L11,35 L12,35 L12,36 L13,36 L13,37 L14,37 L14,38 L12,38 L12,39 L16,39 L16,40 L17,40 L17,41 L18,41 L18,42 L19,42 L19,43 L20,43 L20,44 L21,44 L21,45 L22,45 L22,46 L23,46 L23,47 L24,47 L24,48 L25,48 L25,49 L26,49 L26,50 L27,50 L27,51 L28,51 L28,52 L29,52 L29,53 L30,53 L30,54 L31,54 L31,55 L32,55 L32,56 L33,56 L33,57 L34,57 L34,58 L35,58 L35,59 L36,59 L36,60 L37,60 L37,61 L38,61 L38,62 L39,62 L39,63 L7,63 L7,62 L4,62 L4,63 L0,63 Z M4,35 L4,38 L5,38 L5,35 Z M5,38 L5,39 L8,39 L8,38 Z M13,43 L13,44 L16,44 L16,43 Z M12,44 L12,47 L13,47 L13,44 Z M4,47 L4,48 L7,48 L7,47 Z M7,48 L7,51 L8,51 L8,48 Z M12,55 L12,58 L13,58 L13,55 Z M27,55 L27,58 L28,58 L28,55 Z M7,57 L7,60 L4,60 L4,61 L7,61 L7,62 L8,62 L8,57 Z M13,58 L13,59 L16,59 L16,58 Z M24,58 L24,59 L27,59 L27,58 Z " fill="#5E5E6D" transform="translate(0,1)"/>
<path d="M0,0 L1,0 L1,1 L2,1 L2,2 L3,2 L3,3 L4,3 L4,7 L5,7 L5,5 L6,5 L6,6 L7,6 L7,7 L8,7 L8,8 L9,8 L9,9 L10,9 L10,10 L11,10 L11,11 L12,11 L12,12 L13,12 L13,13 L14,13 L14,14 L12,14 L12,15 L16,15 L16,16 L17,16 L17,17 L18,17 L18,18 L19,18 L19,19 L20,19 L20,20 L21,20 L21,21 L22,21 L22,22 L23,22 L23,23 L24,23 L24,24 L25,24 L25,25 L26,25 L26,26 L27,26 L27,27 L28,27 L28,28 L29,28 L29,29 L30,29 L30,30 L31,30 L31,31 L32,31 L32,32 L33,32 L33,33 L34,33 L34,34 L35,34 L35,35 L36,35 L36,36 L37,36 L37,37 L38,37 L38,38 L39,38 L39,39 L7,39 L7,38 L4,38 L4,39 L0,39 Z M4,11 L4,14 L5,14 L5,11 Z M5,14 L5,15 L8,15 L8,14 Z M13,19 L13,20 L16,20 L16,19 Z M12,20 L12,23 L13,23 L13,20 Z M4,23 L4,24 L7,24 L7,23 Z M7,24 L7,27 L8,27 L8,24 Z M12,31 L12,34 L13,34 L13,31 Z M27,31 L27,34 L28,34 L28,31 Z M7,33 L7,36 L4,36 L4,37 L7,37 L7,38 L8,38 L8,33 Z M13,34 L13,35 L16,35 L16,34 Z M24,34 L24,35 L27,35 L27,34 Z " fill="#BBC4CB" transform="translate(0,25)"/>
<path d="M0,0 L1,0 L1,1 L2,1 L2,2 L3,2 L3,3 L4,3 L4,4 L5,4 L5,5 L6,5 L6,6 L7,6 L7,7 L8,7 L8,8 L9,8 L9,9 L7,9 L7,10 L3,10 L3,9 L0,9 L0,6 L-1,6 L-1,2 L0,2 Z M11,14 L15,14 L15,15 L16,15 L16,16 L17,16 L17,17 L18,17 L18,18 L19,18 L19,19 L20,19 L20,20 L21,20 L21,21 L22,21 L22,22 L23,22 L23,26 L22,26 L22,29 L19,29 L19,30 L11,30 L11,29 L8,29 L8,26 L7,26 L7,18 L8,18 L8,15 L11,15 Z " fill="#A6B2BB" transform="translate(5,30)"/>
<path d="M0,0 L1,0 L1,1 L2,1 L2,2 L3,2 L3,3 L4,3 L4,4 L5,4 L5,5 L6,5 L6,6 L7,6 L7,7 L8,7 L8,8 L9,8 L9,9 L10,9 L10,10 L11,10 L11,11 L12,11 L12,12 L13,12 L13,13 L14,13 L14,14 L15,14 L15,15 L16,15 L16,16 L17,16 L17,17 L18,17 L18,18 L19,18 L19,19 L20,19 L20,20 L21,20 L21,21 L22,21 L22,22 L23,22 L23,23 L24,23 L24,24 L25,24 L25,25 L26,25 L26,26 L27,26 L27,27 L28,27 L28,28 L29,28 L29,29 L30,29 L30,30 L31,30 L31,31 L32,31 L32,32 L33,32 L33,33 L34,33 L34,34 L35,34 L35,35 L36,35 L36,36 L37,36 L37,37 L38,37 L38,38 L39,38 L39,39 L40,39 L40,40 L41,40 L41,41 L42,41 L42,42 L43,42 L43,43 L44,43 L44,44 L45,44 L45,45 L46,45 L46,46 L47,46 L47,47 L48,47 L48,48 L49,48 L49,49 L50,49 L50,50 L51,50 L51,51 L52,51 L52,52 L53,52 L53,53 L54,53 L54,54 L55,54 L55,55 L56,55 L56,56 L57,56 L57,57 L58,57 L58,58 L59,58 L59,59 L60,59 L60,60 L61,60 L61,61 L62,61 L62,62 L63,62 L63,63 L60,63 L60,62 L59,62 L59,61 L58,61 L58,60 L57,60 L57,59 L56,59 L56,58 L55,58 L55,57 L54,57 L54,56 L53,56 L53,55 L52,55 L52,54 L51,54 L51,53 L50,53 L50,52 L49,52 L49,51 L48,51 L48,50 L47,50 L47,49 L46,49 L46,48 L45,48 L45,47 L44,47 L44,46 L43,46 L43,45 L42,45 L42,44 L41,44 L41,43 L40,43 L40,42 L39,42 L39,41 L38,41 L38,40 L37,40 L37,39 L36,39 L36,38 L35,38 L35,37 L34,37 L34,36 L33,36 L33,35 L32,35 L32,34 L31,34 L31,33 L30,33 L30,32 L29,32 L29,31 L28,31 L28,30 L27,30 L27,29 L26,29 L26,28 L25,28 L25,27 L24,27 L24,26 L23,26 L23,25 L22,25 L22,24 L21,24 L21,23 L20,23 L20,22 L19,22 L19,21 L18,21 L18,20 L17,20 L17,19 L16,19 L16,18 L15,18 L15,17 L14,17 L14,16 L13,16 L13,15 L12,15 L12,14 L11,14 L11,13 L10,13 L10,12 L9,12 L9,11 L8,11 L8,10 L7,10 L7,9 L6,9 L6,8 L5,8 L5,7 L4,7 L4,6 L3,6 L3,5 L2,5 L2,4 L1,4 L1,3 L0,3 Z " fill="#353541" transform="translate(0,1)"/>
<path d="M0,0 L1,0 L1,1 L2,1 L2,2 L3,2 L3,3 L4,3 L4,4 L5,4 L5,5 L6,5 L6,6 L7,6 L7,7 L8,7 L8,8 L9,8 L9,9 L10,9 L10,10 L11,10 L11,11 L12,11 L12,12 L13,12 L13,13 L14,13 L14,14 L15,14 L15,15 L16,15 L16,16 L17,16 L17,17 L18,17 L18,18 L19,18 L19,19 L20,19 L20,20 L21,20 L21,21 L22,21 L22,22 L23,22 L23,23 L24,23 L24,24 L25,24 L25,25 L26,25 L26,26 L27,26 L27,27 L28,27 L28,28 L29,28 L29,29 L30,29 L30,30 L31,30 L31,31 L32,31 L32,32 L33,32 L33,33 L34,33 L34,34 L35,34 L35,35 L36,35 L36,36 L37,36 L37,37 L38,37 L38,38 L39,38 L39,39 L40,39 L40,40 L41,40 L41,41 L42,41 L42,42 L43,42 L43,43 L44,43 L44,44 L45,44 L45,45 L46,45 L46,46 L47,46 L47,47 L48,47 L48,48 L49,48 L49,49 L50,49 L50,50 L51,50 L51,51 L52,51 L52,52 L53,52 L53,53 L54,53 L54,54 L55,54 L55,55 L56,55 L56,56 L57,56 L57,57 L58,57 L58,58 L59,58 L59,59 L56,59 L56,58 L55,58 L55,57 L54,57 L54,56 L53,56 L53,55 L52,55 L52,54 L51,54 L51,53 L50,53 L50,52 L49,52 L49,51 L48,51 L48,50 L47,50 L47,49 L46,49 L46,48 L45,48 L45,47 L44,47 L44,46 L43,46 L43,45 L42,45 L42,44 L41,44 L41,43 L40,43 L40,42 L39,42 L39,41 L38,41 L38,40 L37,40 L37,39 L36,39 L36,38 L35,38 L35,37 L34,37 L34,36 L33,36 L33,35 L32,35 L32,34 L31,34 L31,33 L30,33 L30,32 L29,32 L29,31 L28,31 L28,30 L27,30 L27,29 L26,29 L26,28 L25,28 L25,27 L24,27 L24,26 L23,26 L23,25 L22,25 L22,24 L21,24 L21,23 L20,23 L20,22 L19,22 L19,21 L18,21 L18,20 L17,20 L17,19 L16,19 L16,18 L15,18 L15,17 L14,17 L14,16 L13,16 L13,15 L12,15 L12,14 L11,14 L11,13 L10,13 L10,12 L9,12 L9,11 L8,11 L8,10 L7,10 L7,9 L6,9 L6,8 L5,8 L5,7 L4,7 L4,6 L3,6 L3,5 L2,5 L2,4 L1,4 L1,3 L0,3 Z " fill="#717180" transform="translate(0,5)"/>
<path d="M0,0 L1,0 L1,1 L2,1 L2,2 L3,2 L3,3 L4,3 L4,4 L5,4 L5,5 L6,5 L6,6 L7,6 L7,7 L8,7 L8,8 L9,8 L9,9 L10,9 L10,10 L11,10 L11,11 L12,11 L12,12 L13,12 L13,13 L14,13 L14,14 L15,14 L15,15 L16,15 L16,16 L17,16 L17,17 L18,17 L18,18 L19,18 L19,19 L20,19 L20,20 L21,20 L21,21 L22,21 L22,22 L23,22 L23,23 L24,23 L24,24 L25,24 L25,25 L26,25 L26,26 L27,26 L27,27 L28,27 L28,28 L29,28 L29,29 L30,29 L30,30 L31,30 L31,31 L32,31 L32,32 L33,32 L33,33 L34,33 L34,34 L35,34 L35,35 L36,35 L36,36 L37,36 L37,37 L38,37 L38,38 L39,38 L39,39 L40,39 L40,40 L41,40 L41,41 L42,41 L42,42 L43,42 L43,43 L40,43 L40,42 L39,42 L39,41 L38,41 L38,40 L37,40 L37,39 L36,39 L36,38 L35,38 L35,37 L34,37 L34,36 L33,36 L33,35 L32,35 L32,34 L31,34 L31,33 L30,33 L30,32 L29,32 L29,31 L28,31 L28,30 L27,30 L27,29 L26,29 L26,28 L25,28 L25,27 L24,27 L24,26 L23,26 L23,25 L22,25 L22,24 L21,24 L21,23 L20,23 L20,22 L19,22 L19,21 L18,21 L18,20 L17,20 L17,19 L16,19 L16,18 L15,18 L15,17 L14,17 L14,16 L13,16 L13,15 L12,15 L12,14 L11,14 L11,13 L10,13 L10,12 L9,12 L9,11 L8,11 L8,10 L7,10 L7,9 L6,9 L6,8 L5,8 L5,7 L4,7 L4,6 L3,6 L3,5 L2,5 L2,4 L1,4 L1,3 L0,3 Z " fill="#424251" transform="translate(0,21)"/>
<path d="M0,0 L4,0 L4,1 L7,1 L7,4 L8,4 L8,10 L7,10 L7,13 L4,13 L4,14 L0,14 Z " fill="#A6B2BB" transform="translate(0,48)"/>
<path d="M0,0 L1,0 L1,1 L2,1 L2,2 L3,2 L3,3 L4,3 L4,4 L5,4 L5,5 L6,5 L6,6 L7,6 L7,7 L8,7 L8,8 L9,8 L9,9 L7,9 L7,10 L3,10 L3,9 L0,9 L0,6 L-1,6 L-1,2 L0,2 Z " fill="#A6B2BB" transform="translate(5,30)"/>
<path d="M0,0 L1,0 L1,1 L0,1 Z M1,1 L2,1 L2,2 L1,2 Z M2,2 L3,2 L3,3 L2,3 Z M3,3 L4,3 L4,4 L3,4 Z M4,4 L5,4 L5,5 L4,5 Z M5,5 L6,5 L6,6 L5,6 Z M6,6 L7,6 L7,7 L6,7 Z M7,7 L8,7 L8,8 L7,8 Z M8,8 L9,8 L9,9 L8,9 Z M9,9 L10,9 L10,10 L9,10 Z M10,10 L11,10 L11,11 L10,11 Z M11,11 L12,11 L12,12 L11,12 Z M12,12 L13,12 L13,13 L12,13 Z M13,13 L14,13 L14,14 L13,14 Z M14,14 L15,14 L15,15 L14,15 Z M15,15 L16,15 L16,16 L15,16 Z M16,16 L17,16 L17,17 L16,17 Z M17,17 L18,17 L18,18 L17,18 Z M18,18 L19,18 L19,19 L18,19 Z M19,19 L20,19 L20,20 L19,20 Z M20,20 L21,20 L21,21 L20,21 Z M21,21 L22,21 L22,22 L21,22 Z M22,22 L23,22 L23,23 L22,23 Z M23,23 L24,23 L24,24 L23,24 Z M24,24 L25,24 L25,25 L24,25 Z M25,25 L26,25 L26,26 L25,26 Z M26,26 L27,26 L27,27 L26,27 Z M27,27 L28,27 L28,28 L27,28 Z M28,28 L29,28 L29,29 L28,29 Z M29,29 L30,29 L30,30 L29,30 Z M30,30 L31,30 L31,31 L30,31 Z M31,31 L32,31 L32,32 L31,32 Z M32,32 L33,32 L33,33 L32,33 Z M33,33 L34,33 L34,34 L33,34 Z M34,34 L35,34 L35,35 L34,35 Z M35,35 L36,35 L36,36 L35,36 Z M36,36 L37,36 L37,37 L36,37 Z M37,37 L38,37 L38,38 L37,38 Z M38,38 L39,38 L39,39 L38,39 Z M39,39 L40,39 L40,40 L39,40 Z M40,40 L41,40 L41,41 L40,41 Z M41,41 L42,41 L42,42 L41,42 Z M42,42 L43,42 L43,43 L42,43 Z M43,43 L44,43 L44,44 L43,44 Z M44,44 L45,44 L45,45 L44,45 Z M45,45 L46,45 L46,46 L45,46 Z M46,46 L47,46 L47,47 L46,47 Z M47,47 L48,47 L48,48 L47,48 Z M48,48 L49,48 L49,49 L48,49 Z M49,49 L50,49 L50,50 L49,50 Z M50,50 L51,50 L51,51 L50,51 Z M51,51 L52,51 L52,52 L51,52 Z M52,52 L53,52 L53,53 L52,53 Z M53,53 L54,53 L54,54 L53,54 Z M54,54 L55,54 L55,55 L54,55 Z M55,55 L56,55 L56,56 L55,56 Z M56,56 L57,56 L57,57 L56,57 Z M57,57 L58,57 L58,58 L57,58 Z M58,58 L59,58 L59,59 L58,59 Z M59,59 L60,59 L60,60 L59,60 Z M60,60 L61,60 L61,61 L60,61 Z M61,61 L62,61 L62,62 L61,62 Z M62,62 L63,62 L63,63 L62,63 Z M63,63 L64,63 L64,64 L63,64 Z " fill="#333341" opacity="0.5058824" transform="translate(0,0)"/>
<path d="M0,0 L1,0 L1,1 L0,1 Z M1,1 L2,1 L2,2 L1,2 Z M2,2 L3,2 L3,3 L2,3 Z M3,3 L4,3 L4,4 L3,4 Z M4,4 L5,4 L5,5 L4,5 Z M5,5 L6,5 L6,6 L5,6 Z M6,6 L7,6 L7,7 L6,7 Z M7,7 L8,7 L8,8 L7,8 Z M8,8 L9,8 L9,9 L8,9 Z M9,9 L10,9 L10,10 L9,10 Z M10,10 L11,10 L11,11 L10,11 Z M11,11 L12,11 L12,12 L11,12 Z M12,12 L13,12 L13,13 L12,13 Z M13,13 L14,13 L14,14 L13,14 Z M14,14 L15,14 L15,15 L14,15 Z M15,15 L16,15 L16,16 L15,16 Z M16,16 L17,16 L17,17 L16,17 Z M17,17 L18,17 L18,18 L17,18 Z M18,18 L19,18 L19,19 L18,19 Z M19,19 L20,19 L20,20 L19,20 Z M20,20 L21,20 L21,21 L20,21 Z M21,21 L22,21 L22,22 L21,22 Z M22,22 L23,22 L23,23 L22,23 Z M23,23 L24,23 L24,24 L23,24 Z M24,24 L25,24 L25,25 L24,25 Z M25,25 L26,25 L26,26 L25,26 Z M26,26 L27,26 L27,27 L26,27 Z M27,27 L28,27 L28,28 L27,28 Z M28,28 L29,28 L29,29 L28,29 Z M29,29 L30,29 L30,30 L29,30 Z M30,30 L31,30 L31,31 L30,31 Z M31,31 L32,31 L32,32 L31,32 Z M32,32 L33,32 L33,33 L32,33 Z M33,33 L34,33 L34,34 L33,34 Z M34,34 L35,34 L35,35 L34,35 Z M35,35 L36,35 L36,36 L35,36 Z M36,36 L37,36 L37,37 L36,37 Z M37,37 L38,37 L38,38 L37,38 Z M38,38 L39,38 L39,39 L38,39 Z M39,39 L40,39 L40,40 L39,40 Z M40,40 L41,40 L41,41 L40,41 Z M41,41 L42,41 L42,42 L41,42 Z M42,42 L43,42 L43,43 L42,43 Z M43,43 L44,43 L44,44 L43,44 Z M44,44 L45,44 L45,45 L44,45 Z M45,45 L46,45 L46,46 L45,46 Z M46,46 L47,46 L47,47 L46,47 Z M47,47 L48,47 L48,48 L47,48 Z M48,48 L49,48 L49,49 L48,49 Z M49,49 L50,49 L50,50 L49,50 Z M50,50 L51,50 L51,51 L50,51 Z M51,51 L52,51 L52,52 L51,52 Z M52,52 L53,52 L53,53 L52,53 Z M53,53 L54,53 L54,54 L53,54 Z M54,54 L55,54 L55,55 L54,55 Z M55,55 L56,55 L56,56 L55,56 Z M56,56 L57,56 L57,57 L56,57 Z M57,57 L58,57 L58,58 L57,58 Z M58,58 L59,58 L59,59 L58,59 Z M59,59 L60,59 L60,60 L59,60 Z " fill="#484856" opacity="0.7529412" transform="translate(0,4)"/>
<path d="M0,0 L1,0 L1,1 L0,1 Z M1,1 L2,1 L2,2 L1,2 Z M2,2 L3,2 L3,3 L2,3 Z M3,3 L4,3 L4,4 L3,4 Z M4,4 L5,4 L5,5 L4,5 Z M5,5 L6,5 L6,6 L5,6 Z M6,6 L7,6 L7,7 L6,7 Z M7,7 L8,7 L8,8 L7,8 Z M8,8 L9,8 L9,9 L8,9 Z M9,9 L10,9 L10,10 L9,10 Z M10,10 L11,10 L11,11 L10,11 Z M11,11 L12,11 L12,12 L11,12 Z M12,12 L13,12 L13,13 L12,13 Z M13,13 L14,13 L14,14 L13,14 Z M14,14 L15,14 L15,15 L14,15 Z M15,15 L16,15 L16,16 L15,16 Z M16,16 L17,16 L17,17 L16,17 Z M17,17 L18,17 L18,18 L17,18 Z M18,18 L19,18 L19,19 L18,19 Z M19,19 L20,19 L20,20 L19,20 Z M20,20 L21,20 L21,21 L20,21 Z M21,21 L22,21 L22,22 L21,22 Z M22,22 L23,22 L23,23 L22,23 Z M23,23 L24,23 L24,24 L23,24 Z M24,24 L25,24 L25,25 L24,25 Z M25,25 L26,25 L26,26 L25,26 Z M26,26 L27,26 L27,27 L26,27 Z M27,27 L28,27 L28,28 L27,28 Z M28,28 L29,28 L29,29 L28,29 Z M29,29 L30,29 L30,30 L29,30 Z M30,30 L31,30 L31,31 L30,31 Z M31,31 L32,31 L32,32 L31,32 Z M32,32 L33,32 L33,33 L32,33 Z M33,33 L34,33 L34,34 L33,34 Z M34,34 L35,34 L35,35 L34,35 Z M35,35 L36,35 L36,36 L35,36 Z M36,36 L37,36 L37,37 L36,37 Z M37,37 L38,37 L38,38 L37,38 Z M38,38 L39,38 L39,39 L38,39 Z M39,39 L40,39 L40,40 L39,40 Z M40,40 L41,40 L41,41 L40,41 Z M41,41 L42,41 L42,42 L41,42 Z M42,42 L43,42 L43,43 L42,43 Z M43,43 L44,43 L44,44 L43,44 Z M44,44 L45,44 L45,45 L44,45 Z M45,45 L46,45 L46,46 L45,46 Z M46,46 L47,46 L47,47 L46,47 Z M47,47 L48,47 L48,48 L47,48 Z M48,48 L49,48 L49,49 L48,49 Z M49,49 L50,49 L50,50 L49,50 Z M50,50 L51,50 L51,51 L50,51 Z M51,51 L52,51 L52,52 L51,52 Z M52,52 L53,52 L53,53 L52,53 Z M53,53 L54,53 L54,54 L53,54 Z M54,54 L55,54 L55,55 L54,55 Z M55,55 L56,55 L56,56 L55,56 Z " fill="#6A6A7A" opacity="0.7529412" transform="translate(0,8)"/>
<path d="M0,0 L1,0 L1,1 L0,1 Z M1,1 L2,1 L2,2 L1,2 Z M2,2 L3,2 L3,3 L2,3 Z M3,3 L4,3 L4,4 L3,4 Z M4,4 L5,4 L5,5 L4,5 Z M5,5 L6,5 L6,6 L5,6 Z M6,6 L7,6 L7,7 L6,7 Z M7,7 L8,7 L8,8 L7,8 Z M8,8 L9,8 L9,9 L8,9 Z M9,9 L10,9 L10,10 L9,10 Z M10,10 L11,10 L11,11 L10,11 Z M11,11 L12,11 L12,12 L11,12 Z M12,12 L13,12 L13,13 L12,13 Z M13,13 L14,13 L14,14 L13,14 Z M14,14 L15,14 L15,15 L14,15 Z M15,15 L16,15 L16,16 L15,16 Z M16,16 L17,16 L17,17 L16,17 Z M17,17 L18,17 L18,18 L17,18 Z M18,18 L19,18 L19,19 L18,19 Z M19,19 L20,19 L20,20 L19,20 Z M20,20 L21,20 L21,21 L20,21 Z M21,21 L22,21 L22,22 L21,22 Z M22,22 L23,22 L23,23 L22,23 Z M23,23 L24,23 L24,24 L23,24 Z M24,24 L25,24 L25,25 L24,25 Z M25,25 L26,25 L26,26 L25,26 Z M26,26 L27,26 L27,27 L26,27 Z M27,27 L28,27 L28,28 L27,28 Z M28,28 L29,28 L29,29 L28,29 Z M29,29 L30,29 L30,30 L29,30 Z M30,30 L31,30 L31,31 L30,31 Z M31,31 L32,31 L32,32 L31,32 Z M32,32 L33,32 L33,33 L32,33 Z M33,33 L34,33 L34,34 L33,34 Z M34,34 L35,34 L35,35 L34,35 Z M35,35 L36,35 L36,36 L35,36 Z M36,36 L37,36 L37,37 L36,37 Z M37,37 L38,37 L38,38 L37,38 Z M38,38 L39,38 L39,39 L38,39 Z M39,39 L40,39 L40,40 L39,40 Z M40,40 L41,40 L41,41 L40,41 Z M41,41 L42,41 L42,42 L41,42 Z M42,42 L43,42 L43,43 L42,43 Z M43,43 L44,43 L44,44 L43,44 Z " fill="#545464" opacity="0.7529412" transform="translate(0,20)"/>
<path d="M0,0 L7,0 L7,1 L4,1 L4,2 L0,2 Z " fill="#CFD5DA" transform="translate(0,62)"/>
<path d="M0,0 L1,0 L1,1 L0,1 Z M1,1 L2,1 L2,2 L1,2 Z M2,2 L3,2 L3,3 L2,3 Z M3,3 L4,3 L4,4 L3,4 Z M4,4 L5,4 L5,5 L4,5 Z M5,5 L6,5 L6,6 L5,6 Z M6,6 L7,6 L7,7 L6,7 Z M7,7 L8,7 L8,8 L7,8 Z M8,8 L9,8 L9,9 L8,9 Z M9,9 L10,9 L10,10 L9,10 Z M10,10 L11,10 L11,11 L10,11 Z M11,11 L12,11 L12,12 L11,12 Z " fill="#9299A4" opacity="0.7529412" transform="translate(28,52)"/>
<path d="M0,0 L1,0 L1,1 L0,1 Z M1,1 L2,1 L2,2 L1,2 Z M2,2 L3,2 L3,3 L2,3 Z M3,3 L4,3 L4,4 L3,4 Z M4,4 L5,4 L5,5 L4,5 Z M5,5 L6,5 L6,6 L5,6 Z M6,6 L7,6 L7,7 L6,7 Z M7,7 L8,7 L8,8 L7,8 Z M8,8 L9,8 L9,9 L8,9 Z M9,9 L10,9 L10,10 L9,10 Z " fill="#858D98" opacity="0.7529412" transform="translate(5,29)"/>
<path d="M0,0 L1,0 L1,1 L0,1 Z M1,1 L2,1 L2,2 L1,2 Z M2,2 L3,2 L3,3 L2,3 Z M3,3 L4,3 L4,4 L3,4 Z M4,4 L5,4 L5,5 L4,5 Z M5,5 L6,5 L6,6 L5,6 Z M6,6 L7,6 L7,7 L6,7 Z M7,7 L8,7 L8,8 L7,8 Z " fill="#858D98" opacity="0.7529412" transform="translate(20,44)"/>
<path d="M0,0 L1,0 L1,1 L0,1 Z " fill="#CDD4D9" opacity="0.827451" transform="translate(7,61)"/>
<path d="M0,0 L1,0 L1,1 L0,1 Z M1,1 L2,1 L2,2 L1,2 Z M2,2 L3,2 L3,3 L2,3 Z M3,3 L4,3 L4,4 L3,4 Z M4,4 L5,4 L5,5 L4,5 Z " fill="#9299A4" opacity="0.7529412" transform="translate(15,39)"/>
<path d="M0,0 L1,0 L1,1 L0,1 Z M1,1 L2,1 L2,2 L1,2 Z M2,2 L3,2 L3,3 L2,3 Z M3,3 L4,3 L4,4 L3,4 Z M4,4 L5,4 L5,5 L4,5 Z " fill="#9299A4" opacity="0.7529412" transform="translate(0,24)"/>
<path d="M0,0 L1,0 L1,1 L0,1 Z " fill="#A5B1BA" opacity="0.9411765" transform="translate(15,44)"/>
<path d="M0,0 L1,0 L1,1 L0,1 Z " fill="#C3CAD1" opacity="0.7921569" transform="translate(6,63)"/>
<path d="M0,0 L1,0 L1,1 L0,1 Z " fill="#CAD0D5" opacity="0.7882353" transform="translate(6,61)"/>
<path d="M0,0 L1,0 L1,1 L0,1 Z " fill="#B3BCC4" opacity="0.7921569" transform="translate(26,59)"/>
<path d="M0,0 L1,0 L1,1 L0,1 Z " fill="#A7B3BC" opacity="0.827451" transform="translate(14,59)"/>
<path d="M0,0 L1,0 L1,1 L0,1 Z " fill="#B3BDC5" opacity="0.7882353" transform="translate(27,58)"/>
<path d="M0,0 L1,0 L1,1 L0,1 Z " fill="#B3BDC5" opacity="0.7882353" transform="translate(12,58)"/>
<path d="M0,0 L1,0 L1,1 L0,1 Z " fill="#A7B4BC" opacity="0.81960785" transform="translate(7,50)"/>
<path d="M0,0 L1,0 L1,1 L0,1 Z " fill="#B3BEC4" opacity="0.7921569" transform="translate(6,48)"/>
<path d="M0,0 L1,0 L1,1 L0,1 Z " fill="#A5B1BA" opacity="0.9411765" transform="translate(12,47)"/>
<path d="M0,0 L1,0 L1,1 L0,1 Z M-1,1 L0,1 L0,2 L-1,2 Z " fill="#B2BDC5" opacity="0.7882353" transform="translate(13,44)"/>
<path d="M0,0 L1,0 L1,1 L0,1 Z " fill="#B3BDC5" opacity="0.7882353" transform="translate(14,39)"/>
<path d="M0,0 L1,0 L1,1 L0,1 Z " fill="#A7B2BB" opacity="0.83137256" transform="translate(6,39)"/>
<path d="M0,0 L1,0 L1,1 L0,1 Z " fill="#B1BCC5" opacity="0.78431374" transform="translate(4,38)"/>
<path d="M0,0 L1,0 L1,1 L0,1 Z " fill="#A7B2BB" opacity="0.83137256" transform="translate(4,30)"/>
<path d="M0,0 L1,0 L1,1 L0,1 Z " fill="#CDD4D9" opacity="0.827451" transform="translate(5,63)"/>
<path d="M0,0 L1,0 L1,1 L0,1 Z " fill="#CFD5DA" opacity="0.9529412" transform="translate(4,63)"/>
<path d="M0,0 L1,0 L1,1 L0,1 Z " fill="#C4CBD0" opacity="0.7882353" transform="translate(7,62)"/>
<path d="M0,0 L1,0 L1,1 L0,1 Z " fill="#B1BDC4" opacity="0.827451" transform="translate(5,61)"/>
<path d="M0,0 L1,0 L1,1 L0,1 Z " fill="#A7B4BB" opacity="0.95686275" transform="translate(4,61)"/>
<path d="M0,0 L1,0 L1,1 L0,1 Z " fill="#C6CED5" opacity="0.75686276" transform="translate(7,60)"/>
<path d="M0,0 L1,0 L1,1 L0,1 Z " fill="#A7B3BC" opacity="0.827451" transform="translate(25,59)"/>
<path d="M0,0 L1,0 L1,1 L0,1 Z " fill="#A6B2BB" opacity="0.9529412" transform="translate(24,59)"/>
<path d="M0,0 L1,0 L1,1 L0,1 Z " fill="#A6B2BB" opacity="0.9529412" transform="translate(15,59)"/>
<path d="M0,0 L1,0 L1,1 L0,1 Z " fill="#B1BCC4" opacity="0.7921569" transform="translate(13,59)"/>
<path d="M0,0 L1,0 L1,1 L0,1 Z " fill="#B1BDC4" opacity="0.827451" transform="translate(7,59)"/>
<path d="M0,0 L1,0 L1,1 L0,1 Z " fill="#A7B4BB" opacity="0.95686275" transform="translate(7,58)"/>
<path d="M0,0 L1,0 L1,1 L0,1 Z " fill="#A7B3BC" opacity="0.827451" transform="translate(27,57)"/>
<path d="M0,0 L1,0 L1,1 L0,1 Z " fill="#A7B4BD" opacity="0.827451" transform="translate(12,57)"/>
<path d="M0,0 L1,0 L1,1 L0,1 Z " fill="#A4B1BB" opacity="0.9372549" transform="translate(27,56)"/>
<path d="M0,0 L1,0 L1,1 L0,1 Z " fill="#A5B1BA" opacity="0.9411765" transform="translate(12,56)"/>
<path d="M0,0 L1,0 L1,1 L0,1 Z " fill="#A6B2BB" opacity="0.9529412" transform="translate(7,51)"/>
<path d="M0,0 L1,0 L1,1 L0,1 Z " fill="#B3BDC5" opacity="0.8" transform="translate(7,49)"/>
<path d="M0,0 L1,0 L1,1 L0,1 Z " fill="#A7B3BC" opacity="0.827451" transform="translate(5,48)"/>
<path d="M0,0 L1,0 L1,1 L0,1 Z " fill="#A5B1BA" opacity="0.9411765" transform="translate(4,48)"/>
<path d="M0,0 L1,0 L1,1 L0,1 Z " fill="#A7B2BB" opacity="0.83137256" transform="translate(12,46)"/>
<path d="M0,0 L1,0 L1,1 L0,1 Z " fill="#A7B2BB" opacity="0.83137256" transform="translate(14,44)"/>
<path d="M0,0 L1,0 L1,1 L0,1 Z " fill="#A8B3BC" opacity="0.8235294" transform="translate(13,39)"/>
<path d="M0,0 L1,0 L1,1 L0,1 Z " fill="#A6B2BB" opacity="0.9529412" transform="translate(12,39)"/>
<path d="M0,0 L1,0 L1,1 L0,1 Z " fill="#A5B2BA" opacity="0.95686275" transform="translate(7,39)"/>
<path d="M0,0 L1,0 L1,1 L0,1 Z " fill="#B3BDC5" opacity="0.78431374" transform="translate(5,39)"/>
<path d="M0,0 L1,0 L1,1 L0,1 Z " fill="#A7B2BB" opacity="0.81960785" transform="translate(4,37)"/>
<path d="M0,0 L1,0 L1,1 L0,1 Z " fill="#A5B2BB" opacity="0.98039216" transform="translate(4,36)"/>
<path d="M0,0 L1,0 L1,1 L0,1 Z " fill="#A5B1BA" opacity="0.9411765" transform="translate(4,31)"/>
<path d="M0,0 L1,0 L1,1 L0,1 Z " fill="#B3BDC5" opacity="0.7882353" transform="translate(4,29)"/>
</svg>
