<?xml version="1.0" encoding="UTF-8"?>
<!-- Generator: visioncortex VTracer 0.6.4 -->
<svg version="1.1" xmlns="http://www.w3.org/2000/svg" width="64" height="64">
<path d="M0,0 L64,0 L64,52 L0,52 Z M15,16 L15,19 L16,19 L16,16 Z M48,16 L48,17 L47,17 L47,22 L46,22 L46,23 L44,23 L44,24 L47,24 L47,27 L48,27 L48,25 L51,25 L51,24 L52,24 L52,23 L49,23 L49,20 L52,20 L52,19 L49,19 L49,16 Z M12,19 L12,20 L15,20 L15,19 Z M15,20 L15,23 L17,23 L17,20 Z M12,23 L12,24 L15,24 L15,23 Z M17,23 L17,24 L20,24 L20,23 Z M16,24 L16,27 L17,27 L17,24 Z M51,25 L51,28 L52,28 L52,25 Z M4,26 L4,27 L7,27 L7,26 Z M57,26 L57,27 L60,27 L60,26 Z M7,27 L7,30 L8,30 L8,27 Z M17,27 L17,28 L20,28 L20,27 Z M44,27 L44,28 L47,28 L47,27 Z M56,27 L56,30 L57,30 L57,27 Z M12,32 L12,35 L13,35 L13,32 Z M27,32 L27,35 L28,35 L28,32 Z M13,35 L13,36 L16,36 L16,35 Z M24,35 L24,36 L27,36 L27,35 Z M7,36 L7,39 L4,39 L4,40 L7,40 L7,41 L8,41 L8,36 Z M56,36 L56,41 L57,41 L57,40 L60,40 L60,39 L57,39 L57,36 Z M32,38 L32,43 L33,43 L33,42 L36,42 L36,41 L33,41 L33,38 Z M51,38 L51,41 L48,41 L48,42 L51,42 L51,43 L52,43 L52,38 Z M4,41 L4,42 L7,42 L7,41 Z M57,41 L57,42 L60,42 L60,41 Z M33,43 L33,44 L36,44 L36,43 Z M48,43 L48,44 L51,44 L51,43 Z M48,19 L49,19 L49,20 L48,20 Z M47,23 L49,23 L49,24 L47,24 Z " fill="#BBC4CB" transform="translate(0,0)"/>
<path d="M0,0 L64,0 L64,24 L52,24 L52,23 L49,23 L49,20 L52,20 L52,19 L49,19 L49,16 L48,16 L48,17 L47,17 L47,22 L46,22 L46,23 L44,23 L44,24 L47,24 L47,27 L44,27 L44,28 L20,28 L20,27 L17,27 L17,24 L20,24 L20,23 L17,23 L17,20 L15,20 L15,23 L12,23 L12,24 L0,24 Z M15,16 L15,19 L16,19 L16,16 Z M12,19 L12,20 L15,20 L15,19 Z M48,19 L49,19 L49,20 L48,20 Z M16,23 L17,23 L17,24 L16,24 Z M47,23 L48,23 L48,24 L47,24 Z " fill="#5E5E6D" transform="translate(0,0)"/>
<path d="M0,0 L4,0 L4,15 L1,15 L1,12 L-1,12 L-1,11 L0,11 Z M28,0 L32,0 L32,9 L31,9 L31,14 L30,14 L30,15 L28,15 Z M32,11 L33,11 L33,12 L32,12 Z M-16,12 L-1,12 L-1,15 L-4,15 L-4,16 L-16,16 Z M33,12 L48,12 L48,16 L36,16 L36,15 L33,15 Z M0,15 L1,15 L1,16 L0,16 Z M31,15 L32,15 L32,16 L31,16 Z M1,16 L31,16 L31,19 L28,19 L28,20 L4,20 L4,19 L1,19 Z " fill="#424251" transform="translate(16,8)"/>
<path d="M0,0 L44,0 L44,4 L21,4 L21,5 L20,5 L20,4 L16,4 L16,12 L15,12 L15,15 L12,15 L12,16 L0,16 Z " fill="#5E5E6D" transform="translate(0,4)"/>
<path d="M0,0 L3,0 L3,3 L4,3 L4,13 L3,13 L3,16 L0,16 L0,17 L-12,17 L-12,16 L-15,16 L-15,13 L-16,13 L-16,3 L-1,3 L-1,2 L0,2 Z " fill="#CFD5DA" transform="translate(48,25)"/>
<path d="M0,0 L64,0 L64,4 L0,4 Z " fill="#353541" transform="translate(0,48)"/>
<path d="M0,0 L64,0 L64,4 L0,4 Z " fill="#353541" transform="translate(0,0)"/>
<path d="M0,0 L15,0 L15,12 L3,12 L3,11 L0,11 L0,8 L-1,8 L-1,1 L0,1 Z " fill="#5E5E6D" transform="translate(49,8)"/>
<path d="M0,0 L1,0 L1,4 L2,4 L2,5 L13,5 L13,9 L12,9 L12,12 L9,12 L9,13 L1,13 L1,12 L-2,12 L-2,9 L-3,9 L-3,1 L0,1 Z " fill="#A6B2BB" transform="translate(15,23)"/>
<path d="M0,0 L4,0 L4,15 L1,15 L1,12 L-1,12 L-1,11 L0,11 Z M-16,12 L-1,12 L-1,15 L-4,15 L-4,16 L-16,16 Z " fill="#4F4F5D" transform="translate(16,8)"/>
<path d="M0,0 L4,0 L4,9 L3,9 L3,14 L2,14 L2,15 L0,15 Z M4,11 L5,11 L5,12 L4,12 Z M5,12 L20,12 L20,16 L8,16 L8,15 L5,15 Z " fill="#4F4F5D" transform="translate(44,8)"/>
<path d="M0,0 L4,0 L4,14 L0,14 L0,13 L-3,13 L-3,10 L-4,10 L-4,4 L-3,4 L-3,1 L0,1 Z " fill="#A6B2BB" transform="translate(60,26)"/>
<path d="M0,0 L4,0 L4,1 L7,1 L7,4 L8,4 L8,10 L7,10 L7,13 L4,13 L4,14 L0,14 Z " fill="#A6B2BB" transform="translate(0,26)"/>
<path d="M0,0 L24,0 L24,4 L0,4 Z " fill="#717180" transform="translate(20,4)"/>
<path d="M0,0 L16,0 L16,4 L0,4 Z " fill="#717180" transform="translate(48,4)"/>
<path d="M0,0 L16,0 L16,4 L0,4 Z " fill="#717180" transform="translate(0,4)"/>
<path d="M0,0 L1,0 L1,1 L0,1 Z M1,1 L16,1 L16,5 L4,5 L4,4 L1,4 Z " fill="#424251" transform="translate(48,19)"/>
<path d="M0,0 L1,0 L1,1 L0,1 Z M-15,1 L0,1 L0,4 L-3,4 L-3,5 L-15,5 Z " fill="#424251" transform="translate(15,19)"/>
<path d="M0,0 L18,0 L18,1 L15,1 L15,2 L3,2 L3,1 L0,1 Z " fill="#A6B2BB" transform="translate(33,42)"/>
<path d="M0,0 L7,0 L7,2 L3,2 L3,1 L0,1 Z " fill="#CFD5DA" transform="translate(57,40)"/>
<path d="M0,0 L7,0 L7,1 L4,1 L4,2 L0,2 Z " fill="#CFD5DA" transform="translate(0,40)"/>
<path d="M0,0 L3,0 L3,1 L0,1 Z " fill="#A6B2BB" transform="translate(33,42)"/>
<path d="M0,0 L1,0 L1,1 L0,1 Z " fill="#4D4D5B" opacity="0.972549" transform="translate(47,18)"/>
<path d="M0,0 L1,0 L1,1 L0,1 Z " fill="#A7B4BC" opacity="0.81960785" transform="translate(51,41)"/>
<path d="M0,0 L1,0 L1,1 L0,1 Z M1,1 L2,1 L2,2 L1,2 Z " fill="#424252" opacity="0.78039217" transform="translate(16,22)"/>
<path d="M0,0 L1,0 L1,1 L0,1 Z " fill="#A7B3BC" opacity="0.827451" transform="translate(32,41)"/>
<path d="M0,0 L3,0 L3,1 L0,1 Z " fill="#CFD5DA" transform="translate(57,40)"/>
<path d="M0,0 L1,0 L1,1 L0,1 Z " fill="#CAD1D6" opacity="0.827451" transform="translate(56,39)"/>
<path d="M0,0 L1,0 L1,1 L0,1 Z " fill="#C9CFD6" opacity="0.827451" transform="translate(7,39)"/>
<path d="M0,0 L1,0 L1,1 L0,1 Z M1,1 L2,1 L2,2 L1,2 Z " fill="#424251" transform="translate(16,23)"/>
<path d="M0,0 L1,0 L1,1 L0,1 Z M1,1 L2,1 L2,2 L1,2 Z " fill="#424251" transform="translate(48,19)"/>
<path d="M0,0 L1,0 L1,1 L0,1 Z M-1,1 L0,1 L0,2 L-1,2 Z " fill="#444453" opacity="0.79607844" transform="translate(15,18)"/>
<path d="M0,0 L1,0 L1,1 L0,1 Z " fill="#BBC4CB" transform="translate(48,23)"/>
<path d="M0,0 L1,0 L1,1 L0,1 Z " fill="#434351" opacity="0.7921569" transform="translate(47,22)"/>
<path d="M0,0 L1,0 L1,1 L0,1 Z " fill="#B3BEC4" opacity="0.7921569" transform="translate(50,43)"/>
<path d="M0,0 L1,0 L1,1 L0,1 Z " fill="#A7B3BC" opacity="0.827451" transform="translate(34,43)"/>
<path d="M0,0 L1,0 L1,1 L0,1 Z " fill="#C9CFD6" opacity="0.827451" transform="translate(58,41)"/>
<path d="M0,0 L1,0 L1,1 L0,1 Z " fill="#ABB6BF" opacity="0.7921569" transform="translate(50,41)"/>
<path d="M0,0 L1,0 L1,1 L0,1 Z " fill="#CBD2D7" opacity="0.9411765" transform="translate(35,41)"/>
<path d="M0,0 L1,0 L1,1 L0,1 Z " fill="#BCC5CD" opacity="0.7921569" transform="translate(6,41)"/>
<path d="M0,0 L1,0 L1,1 L0,1 Z " fill="#A5B2BA" opacity="0.95686275" transform="translate(59,39)"/>
<path d="M0,0 L1,0 L1,1 L0,1 Z " fill="#A6B2BC" opacity="0.84313726" transform="translate(14,35)"/>
<path d="M0,0 L1,0 L1,1 L0,1 Z " fill="#B2BDC4" opacity="0.78039217" transform="translate(27,34)"/>
<path d="M0,0 L1,0 L1,1 L0,1 Z " fill="#B2BCC4" opacity="0.7764706" transform="translate(12,34)"/>
<path d="M0,0 L1,0 L1,1 L0,1 Z " fill="#A7B3BC" opacity="0.827451" transform="translate(56,28)"/>
<path d="M0,0 L1,0 L1,1 L0,1 Z " fill="#A7B4BC" opacity="0.81960785" transform="translate(7,28)"/>
<path d="M0,0 L1,0 L1,1 L0,1 Z " fill="#4C4D5C" opacity="0.92156863" transform="translate(19,27)"/>
<path d="M0,0 L1,0 L1,1 L0,1 Z " fill="#A7B4BD" opacity="0.827451" transform="translate(58,26)"/>
<path d="M0,0 L1,0 L1,1 L0,1 Z " fill="#CAD1D5" opacity="0.81960785" transform="translate(51,26)"/>
<path d="M0,0 L1,0 L1,1 L0,1 Z " fill="#B3BEC4" opacity="0.7921569" transform="translate(6,26)"/>
<path d="M0,0 L1,0 L1,1 L0,1 Z " fill="#CFD5DA" transform="translate(48,25)"/>
<path d="M0,0 L1,0 L1,1 L0,1 Z " fill="#BEC6CD" opacity="0.7921569" transform="translate(50,24)"/>
<path d="M0,0 L1,0 L1,1 L0,1 Z " fill="#4A4A59" opacity="0.94509804" transform="translate(51,23)"/>
<path d="M0,0 L1,0 L1,1 L0,1 Z " fill="#414152" opacity="0.80784315" transform="translate(46,23)"/>
<path d="M0,0 L1,0 L1,1 L0,1 Z " fill="#4A4A59" opacity="0.8392157" transform="translate(16,21)"/>
<path d="M0,0 L1,0 L1,1 L0,1 Z " fill="#4D4D5C" opacity="0.96862745" transform="translate(16,20)"/>
<path d="M0,0 L1,0 L1,1 L0,1 Z " fill="#5B5B6B" opacity="0.94509804" transform="translate(51,19)"/>
<path d="M0,0 L1,0 L1,1 L0,1 Z " fill="#444454" opacity="0.7882353" transform="translate(48,18)"/>
<path d="M0,0 L1,0 L1,1 L0,1 Z " fill="#A7B3BC" opacity="0.827451" transform="translate(49,43)"/>
<path d="M0,0 L1,0 L1,1 L0,1 Z " fill="#A4B1BB" opacity="0.9372549" transform="translate(48,43)"/>
<path d="M0,0 L1,0 L1,1 L0,1 Z " fill="#A5B1BA" opacity="0.9411765" transform="translate(35,43)"/>
<path d="M0,0 L1,0 L1,1 L0,1 Z " fill="#B1BCC4" opacity="0.7921569" transform="translate(33,43)"/>
<path d="M0,0 L1,0 L1,1 L0,1 Z " fill="#B3BDC5" opacity="0.8" transform="translate(51,42)"/>
<path d="M0,0 L1,0 L1,1 L0,1 Z " fill="#B3BCC4" opacity="0.7921569" transform="translate(32,42)"/>
<path d="M0,0 L1,0 L1,1 L0,1 Z " fill="#BBC4CB" transform="translate(0,42)"/>
<path d="M0,0 L1,0 L1,1 L0,1 Z " fill="#CED4D9" opacity="0.9529412" transform="translate(59,41)"/>
<path d="M0,0 L1,0 L1,1 L0,1 Z " fill="#BCC6CC" opacity="0.7921569" transform="translate(57,41)"/>
<path d="M0,0 L1,0 L1,1 L0,1 Z " fill="#C3CAD1" opacity="0.827451" transform="translate(49,41)"/>
<path d="M0,0 L1,0 L1,1 L0,1 Z " fill="#CCD3D7" opacity="0.9372549" transform="translate(48,41)"/>
<path d="M0,0 L1,0 L1,1 L0,1 Z " fill="#C3CAD1" opacity="0.827451" transform="translate(34,41)"/>
<path d="M0,0 L1,0 L1,1 L0,1 Z " fill="#ABB6BE" opacity="0.7921569" transform="translate(33,41)"/>
<path d="M0,0 L1,0 L1,1 L0,1 Z " fill="#C9CFD6" opacity="0.827451" transform="translate(5,41)"/>
<path d="M0,0 L1,0 L1,1 L0,1 Z " fill="#CED4D9" opacity="0.9529412" transform="translate(4,41)"/>
<path d="M0,0 L1,0 L1,1 L0,1 Z " fill="#BFC6CD" opacity="0.7882353" transform="translate(56,40)"/>
<path d="M0,0 L1,0 L1,1 L0,1 Z " fill="#ABB7BF" opacity="0.77254903" transform="translate(51,40)"/>
<path d="M0,0 L1,0 L1,1 L0,1 Z " fill="#ACB6C0" opacity="0.76862746" transform="translate(32,40)"/>
<path d="M0,0 L1,0 L1,1 L0,1 Z " fill="#BFC6CD" opacity="0.7882353" transform="translate(7,40)"/>
<path d="M0,0 L1,0 L1,1 L0,1 Z " fill="#A8B4BE" opacity="0.827451" transform="translate(58,39)"/>
<path d="M0,0 L1,0 L1,1 L0,1 Z " fill="#BDC6CE" opacity="0.78431374" transform="translate(57,39)"/>
<path d="M0,0 L1,0 L1,1 L0,1 Z " fill="#C2CBD1" opacity="0.81960785" transform="translate(51,39)"/>
<path d="M0,0 L1,0 L1,1 L0,1 Z " fill="#C3CAD1" opacity="0.827451" transform="translate(32,39)"/>
<path d="M0,0 L1,0 L1,1 L0,1 Z " fill="#BFC7CE" opacity="0.7882353" transform="translate(6,39)"/>
<path d="M0,0 L1,0 L1,1 L0,1 Z " fill="#A8B4BE" opacity="0.827451" transform="translate(5,39)"/>
<path d="M0,0 L1,0 L1,1 L0,1 Z " fill="#A5B2BA" opacity="0.95686275" transform="translate(4,39)"/>
<path d="M0,0 L1,0 L1,1 L0,1 Z " fill="#BDC5CD" opacity="0.7529412" transform="translate(56,38)"/>
<path d="M0,0 L1,0 L1,1 L0,1 Z " fill="#CDD3D7" opacity="0.9529412" transform="translate(51,38)"/>
<path d="M0,0 L1,0 L1,1 L0,1 Z " fill="#CDD2D9" opacity="0.95686275" transform="translate(32,38)"/>
<path d="M0,0 L1,0 L1,1 L0,1 Z " fill="#BDC6CE" opacity="0.7529412" transform="translate(7,38)"/>
<path d="M0,0 L1,0 L1,1 L0,1 Z " fill="#A7B4BC" opacity="0.8352941" transform="translate(56,37)"/>
<path d="M0,0 L1,0 L1,1 L0,1 Z " fill="#A8B4BE" opacity="0.827451" transform="translate(7,37)"/>
<path d="M0,0 L1,0 L1,1 L0,1 Z " fill="#A5B2BA" opacity="0.95686275" transform="translate(56,36)"/>
<path d="M0,0 L1,0 L1,1 L0,1 Z " fill="#A5B2BA" opacity="0.95686275" transform="translate(7,36)"/>
<path d="M0,0 L1,0 L1,1 L0,1 Z " fill="#B2BCC4" opacity="0.7764706" transform="translate(26,35)"/>
<path d="M0,0 L1,0 L1,1 L0,1 Z " fill="#A6B3BB" opacity="0.8392157" transform="translate(25,35)"/>
<path d="M0,0 L1,0 L1,1 L0,1 Z " fill="#A5B2BB" opacity="0.96862745" transform="translate(24,35)"/>
<path d="M0,0 L1,0 L1,1 L0,1 Z " fill="#A5B2BB" opacity="0.96862745" transform="translate(15,35)"/>
<path d="M0,0 L1,0 L1,1 L0,1 Z " fill="#B0BBC5" opacity="0.77254903" transform="translate(13,35)"/>
<path d="M0,0 L1,0 L1,1 L0,1 Z " fill="#A7B3BC" opacity="0.8039216" transform="translate(27,33)"/>
<path d="M0,0 L1,0 L1,1 L0,1 Z " fill="#A8B3BD" opacity="0.8117647" transform="translate(12,33)"/>
<path d="M0,0 L1,0 L1,1 L0,1 Z " fill="#A5B1BA" opacity="0.92156863" transform="translate(27,32)"/>
<path d="M0,0 L1,0 L1,1 L0,1 Z " fill="#A7B2BB" opacity="0.9254902" transform="translate(12,32)"/>
<path d="M0,0 L1,0 L1,1 L0,1 Z " fill="#A5B2BA" opacity="0.95686275" transform="translate(56,29)"/>
<path d="M0,0 L1,0 L1,1 L0,1 Z " fill="#A6B2BB" opacity="0.9529412" transform="translate(7,29)"/>
<path d="M0,0 L1,0 L1,1 L0,1 Z " fill="#CFD5DA" transform="translate(32,28)"/>
<path d="M0,0 L1,0 L1,1 L0,1 Z " fill="#A6B2BB" transform="translate(57,27)"/>
<path d="M0,0 L1,0 L1,1 L0,1 Z " fill="#B1BCC4" opacity="0.7921569" transform="translate(56,27)"/>
<path d="M0,0 L1,0 L1,1 L0,1 Z " fill="#CED4D9" opacity="0.9529412" transform="translate(51,27)"/>
<path d="M0,0 L1,0 L1,1 L0,1 Z " fill="#BBC0C7" opacity="0.78039217" transform="translate(46,27)"/>
<path d="M0,0 L1,0 L1,1 L0,1 Z " fill="#71747F" opacity="0.8039216" transform="translate(45,27)"/>
<path d="M0,0 L1,0 L1,1 L0,1 Z " fill="#50505F" opacity="0.92156863" transform="translate(44,27)"/>
<path d="M0,0 L1,0 L1,1 L0,1 Z " fill="#636774" opacity="0.8039216" transform="translate(18,27)"/>
<path d="M0,0 L1,0 L1,1 L0,1 Z " fill="#99A3AC" opacity="0.78039217" transform="translate(17,27)"/>
<path d="M0,0 L1,0 L1,1 L0,1 Z " fill="#B3BDC5" opacity="0.8" transform="translate(7,27)"/>
<path d="M0,0 L1,0 L1,1 L0,1 Z " fill="#A5B1BA" opacity="0.9411765" transform="translate(59,26)"/>
<path d="M0,0 L1,0 L1,1 L0,1 Z " fill="#B3BDC5" opacity="0.7882353" transform="translate(57,26)"/>
<path d="M0,0 L1,0 L1,1 L0,1 Z " fill="#BABFC5" opacity="0.7764706" transform="translate(47,26)"/>
<path d="M0,0 L1,0 L1,1 L0,1 Z " fill="#97A2AB" opacity="0.78039217" transform="translate(16,26)"/>
<path d="M0,0 L1,0 L1,1 L0,1 Z " fill="#A7B3BC" opacity="0.827451" transform="translate(5,26)"/>
<path d="M0,0 L1,0 L1,1 L0,1 Z " fill="#A5B1BA" opacity="0.9411765" transform="translate(4,26)"/>
<path d="M0,0 L1,0 L1,1 L0,1 Z " fill="#BDC5CB" opacity="0.8" transform="translate(51,25)"/>
<path d="M0,0 L1,0 L1,1 L0,1 Z " fill="#646571" opacity="0.8392157" transform="translate(47,25)"/>
<path d="M0,0 L1,0 L1,1 L0,1 Z " fill="#5A5E6B" opacity="0.8392157" transform="translate(16,25)"/>
<path d="M0,0 L1,0 L1,1 L0,1 Z " fill="#C9CFD6" opacity="0.827451" transform="translate(49,24)"/>
<path d="M0,0 L1,0 L1,1 L0,1 Z " fill="#CDD4D9" opacity="0.9411765" transform="translate(48,24)"/>
<path d="M0,0 L1,0 L1,1 L0,1 Z " fill="#464756" opacity="0.96862745" transform="translate(47,24)"/>
<path d="M0,0 L1,0 L1,1 L0,1 Z " fill="#454554" opacity="0.96862745" transform="translate(16,24)"/>
<path d="M0,0 L1,0 L1,1 L0,1 Z " fill="#A6B2BB" transform="translate(12,24)"/>
<path d="M0,0 L1,0 L1,1 L0,1 Z " fill="#60626E" opacity="0.8352941" transform="translate(50,23)"/>
<path d="M0,0 L1,0 L1,1 L0,1 Z " fill="#A6AEB7" opacity="0.7764706" transform="translate(49,23)"/>
<path d="M0,0 L1,0 L1,1 L0,1 Z " fill="#494956" opacity="0.80784315" transform="translate(45,23)"/>
<path d="M0,0 L1,0 L1,1 L0,1 Z " fill="#4D4D5B" opacity="0.9372549" transform="translate(44,23)"/>
<path d="M0,0 L1,0 L1,1 L0,1 Z " fill="#4D4D5B" opacity="0.92156863" transform="translate(19,23)"/>
<path d="M0,0 L1,0 L1,1 L0,1 Z " fill="#4A4A58" opacity="0.8039216" transform="translate(18,23)"/>
<path d="M0,0 L1,0 L1,1 L0,1 Z " fill="#9BA6AF" opacity="0.79607844" transform="translate(14,23)"/>
<path d="M0,0 L1,0 L1,1 L0,1 Z " fill="#606372" opacity="0.8156863" transform="translate(13,23)"/>
<path d="M0,0 L1,0 L1,1 L0,1 Z " fill="#464657" opacity="0.9529412" transform="translate(12,23)"/>
<path d="M0,0 L1,0 L1,1 L0,1 Z " fill="#A9B1B8" opacity="0.7764706" transform="translate(48,22)"/>
<path d="M0,0 L1,0 L1,1 L0,1 Z " fill="#4D4D5C" opacity="0.99215686" transform="translate(46,22)"/>
<path d="M0,0 L1,0 L1,1 L0,1 Z " fill="#4E4E5C" transform="translate(17,22)"/>
<path d="M0,0 L1,0 L1,1 L0,1 Z " fill="#9BA5AF" opacity="0.79607844" transform="translate(15,22)"/>
<path d="M0,0 L1,0 L1,1 L0,1 Z " fill="#424352" transform="translate(14,22)"/>
<path d="M0,0 L1,0 L1,1 L0,1 Z " fill="#60636F" opacity="0.8392157" transform="translate(48,21)"/>
<path d="M0,0 L1,0 L1,1 L0,1 Z " fill="#484859" opacity="0.8" transform="translate(47,21)"/>
<path d="M0,0 L1,0 L1,1 L0,1 Z " fill="#5E6170" opacity="0.81960785" transform="translate(15,21)"/>
<path d="M0,0 L1,0 L1,1 L0,1 Z " fill="#464654" opacity="0.96862745" transform="translate(48,20)"/>
<path d="M0,0 L1,0 L1,1 L0,1 Z " fill="#4D4D5B" opacity="0.94509804" transform="translate(47,20)"/>
<path d="M0,0 L1,0 L1,1 L0,1 Z " fill="#474757" opacity="0.95686275" transform="translate(15,20)"/>
<path d="M0,0 L1,0 L1,1 L0,1 Z " fill="#565664" opacity="0.8392157" transform="translate(50,19)"/>
<path d="M0,0 L1,0 L1,1 L0,1 Z " fill="#454554" opacity="0.78431374" transform="translate(49,19)"/>
<path d="M0,0 L1,0 L1,1 L0,1 Z " fill="#4D4D5B" opacity="0.9607843" transform="translate(47,19)"/>
<path d="M0,0 L1,0 L1,1 L0,1 Z " fill="#545463" opacity="0.8156863" transform="translate(13,19)"/>
<path d="M0,0 L1,0 L1,1 L0,1 Z " fill="#5B5B6A" opacity="0.9529412" transform="translate(12,19)"/>
<path d="M0,0 L1,0 L1,1 L0,1 Z " fill="#5D5D6C" transform="translate(49,18)"/>
<path d="M0,0 L1,0 L1,1 L0,1 Z " fill="#5D5D6C" transform="translate(14,18)"/>
<path d="M0,0 L1,0 L1,1 L0,1 Z " fill="#545463" opacity="0.81960785" transform="translate(48,17)"/>
<path d="M0,0 L1,0 L1,1 L0,1 Z " fill="#4D4D5B" opacity="0.9843137" transform="translate(47,17)"/>
<path d="M0,0 L1,0 L1,1 L0,1 Z " fill="#545463" opacity="0.81960785" transform="translate(15,17)"/>
<path d="M0,0 L1,0 L1,1 L0,1 Z " fill="#5B5B6A" opacity="0.9529412" transform="translate(48,16)"/>
<path d="M0,0 L1,0 L1,1 L0,1 Z " fill="#4E4E5C" transform="translate(47,16)"/>
<path d="M0,0 L1,0 L1,1 L0,1 Z " fill="#5B5B6B" opacity="0.95686275" transform="translate(15,16)"/>
</svg>
