<?xml version="1.0" encoding="UTF-8"?>
<!-- Generator: visioncortex VTracer 0.6.4 -->
<svg version="1.1" xmlns="http://www.w3.org/2000/svg" width="64" height="64">
<path d="M0,0 L64,0 L64,10 L63,10 L63,9 L61,9 L61,8 L59,8 L59,7 L57,7 L57,6 L55,6 L55,5 L53,5 L53,4 L50,4 L50,3 L46,3 L46,4 L43,4 L43,5 L41,5 L41,6 L39,6 L39,7 L37,7 L37,8 L35,8 L35,9 L33,9 L33,10 L31,10 L31,9 L29,9 L29,8 L27,8 L27,7 L25,7 L25,6 L23,6 L23,5 L21,5 L21,4 L18,4 L18,3 L14,3 L14,4 L11,4 L11,5 L9,5 L9,6 L7,6 L7,7 L5,7 L5,8 L3,8 L3,9 L1,9 L1,10 L0,10 Z M14,4 L18,4 L18,5 L20,5 L20,6 L22,6 L22,7 L24,7 L24,8 L26,8 L26,9 L28,9 L28,10 L30,10 L30,11 L34,11 L34,10 L36,10 L36,9 L38,9 L38,8 L40,8 L40,7 L42,7 L42,6 L44,6 L44,5 L46,5 L46,4 L50,4 L50,5 L52,5 L52,6 L54,6 L54,7 L56,7 L56,8 L58,8 L58,9 L60,9 L60,10 L62,10 L62,11 L64,11 L64,20 L61,20 L61,19 L59,19 L59,18 L57,18 L57,17 L55,17 L55,16 L53,16 L53,15 L51,15 L51,14 L49,14 L49,13 L47,13 L47,14 L45,14 L45,15 L43,15 L43,16 L41,16 L41,17 L39,17 L39,18 L37,18 L37,19 L35,19 L35,20 L29,20 L29,19 L27,19 L27,18 L25,18 L25,17 L23,17 L23,16 L21,16 L21,15 L19,15 L19,14 L17,14 L17,13 L15,13 L15,14 L13,14 L13,15 L11,15 L11,16 L9,16 L9,17 L7,17 L7,18 L5,18 L5,19 L3,19 L3,20 L0,20 L0,11 L2,11 L2,10 L4,10 L4,9 L6,9 L6,8 L8,8 L8,7 L10,7 L10,6 L12,6 L12,5 L14,5 Z M14,15 L18,15 L18,16 L20,16 L20,17 L22,17 L22,18 L24,18 L24,19 L26,19 L26,20 L28,20 L28,21 L36,21 L36,20 L38,20 L38,19 L40,19 L40,18 L42,18 L42,17 L44,17 L44,16 L46,16 L46,15 L50,15 L50,16 L52,16 L52,17 L54,17 L54,18 L56,18 L56,19 L58,19 L58,20 L60,20 L60,21 L64,21 L64,24 L61,24 L61,23 L59,23 L59,22 L57,22 L57,21 L55,21 L55,20 L53,20 L53,19 L51,19 L51,18 L49,18 L49,17 L47,17 L47,18 L45,18 L45,19 L43,19 L43,20 L41,20 L41,21 L39,21 L39,22 L37,22 L37,23 L35,23 L35,24 L29,24 L29,23 L27,23 L27,22 L25,22 L25,21 L23,21 L23,20 L21,20 L21,19 L19,19 L19,18 L17,18 L17,17 L15,17 L15,18 L13,18 L13,19 L11,19 L11,20 L9,20 L9,21 L7,21 L7,22 L5,22 L5,23 L3,23 L3,24 L0,24 L0,21 L4,21 L4,20 L6,20 L6,19 L8,19 L8,18 L10,18 L10,17 L12,17 L12,16 L14,16 Z M14,19 L18,19 L18,20 L20,20 L20,21 L22,21 L22,22 L24,22 L24,23 L26,23 L26,24 L28,24 L28,25 L36,25 L36,24 L38,24 L38,23 L40,23 L40,22 L42,22 L42,21 L44,21 L44,20 L46,20 L46,19 L50,19 L50,20 L52,20 L52,21 L54,21 L54,22 L56,22 L56,23 L58,23 L58,24 L60,24 L60,25 L64,25 L64,35 L62,35 L62,34 L60,34 L60,33 L58,33 L58,32 L56,32 L56,31 L54,31 L54,30 L52,30 L52,29 L49,29 L49,28 L47,28 L47,29 L44,29 L44,30 L42,30 L42,31 L40,31 L40,32 L38,32 L38,33 L36,33 L36,34 L34,34 L34,35 L30,35 L30,34 L28,34 L28,33 L26,33 L26,32 L24,32 L24,31 L22,31 L22,30 L20,30 L20,29 L17,29 L17,28 L15,28 L15,29 L12,29 L12,30 L10,30 L10,31 L8,31 L8,32 L6,32 L6,33 L4,33 L4,34 L2,34 L2,35 L0,35 L0,25 L4,25 L4,24 L6,24 L6,23 L8,23 L8,22 L10,22 L10,21 L12,21 L12,20 L14,20 Z M15,29 L17,29 L17,30 L20,30 L20,31 L22,31 L22,32 L24,32 L24,33 L26,33 L26,34 L28,34 L28,35 L30,35 L30,36 L34,36 L34,35 L36,35 L36,34 L38,34 L38,33 L40,33 L40,32 L42,32 L42,31 L44,31 L44,30 L47,30 L47,29 L49,29 L49,30 L52,30 L52,31 L54,31 L54,32 L56,32 L56,33 L58,33 L58,34 L60,34 L60,35 L62,35 L62,36 L64,36 L64,39 L62,39 L62,38 L60,38 L60,37 L58,37 L58,36 L56,36 L56,35 L54,35 L54,34 L52,34 L52,33 L49,33 L49,32 L47,32 L47,33 L44,33 L44,34 L42,34 L42,35 L40,35 L40,36 L38,36 L38,37 L36,37 L36,38 L34,38 L34,39 L30,39 L30,38 L28,38 L28,37 L26,37 L26,36 L24,36 L24,35 L22,35 L22,34 L20,34 L20,33 L17,33 L17,32 L15,32 L15,33 L12,33 L12,34 L10,34 L10,35 L8,35 L8,36 L6,36 L6,37 L4,37 L4,38 L2,38 L2,39 L0,39 L0,36 L2,36 L2,35 L4,35 L4,34 L6,34 L6,33 L8,33 L8,32 L10,32 L10,31 L12,31 L12,30 L15,30 Z M15,33 L17,33 L17,34 L20,34 L20,35 L22,35 L22,36 L24,36 L24,37 L26,37 L26,38 L28,38 L28,39 L30,39 L30,40 L34,40 L34,39 L36,39 L36,38 L38,38 L38,37 L40,37 L40,36 L42,36 L42,35 L44,35 L44,34 L47,34 L47,33 L49,33 L49,34 L52,34 L52,35 L54,35 L54,36 L56,36 L56,37 L58,37 L58,38 L60,38 L60,39 L62,39 L62,40 L64,40 L64,54 L61,54 L61,53 L59,53 L59,52 L57,52 L57,51 L55,51 L55,50 L53,50 L53,49 L51,49 L51,48 L49,48 L49,47 L47,47 L47,48 L45,48 L45,49 L43,49 L43,50 L41,50 L41,51 L39,51 L39,52 L37,52 L37,53 L35,53 L35,54 L29,54 L29,53 L27,53 L27,52 L25,52 L25,51 L23,51 L23,50 L21,50 L21,49 L19,49 L19,48 L17,48 L17,47 L15,47 L15,48 L13,48 L13,49 L11,49 L11,50 L9,50 L9,51 L7,51 L7,52 L5,52 L5,53 L3,53 L3,54 L0,54 L0,40 L2,40 L2,39 L4,39 L4,38 L6,38 L6,37 L8,37 L8,36 L10,36 L10,35 L12,35 L12,34 L15,34 Z M14,49 L18,49 L18,50 L20,50 L20,51 L22,51 L22,52 L24,52 L24,53 L26,53 L26,54 L28,54 L28,55 L36,55 L36,54 L38,54 L38,53 L40,53 L40,52 L42,52 L42,51 L44,51 L44,50 L46,50 L46,49 L50,49 L50,50 L52,50 L52,51 L54,51 L54,52 L56,52 L56,53 L58,53 L58,54 L60,54 L60,55 L64,55 L64,64 L0,64 L0,55 L4,55 L4,54 L6,54 L6,53 L8,53 L8,52 L10,52 L10,51 L12,51 L12,50 L14,50 Z " fill="#BBC4CB" transform="translate(0,0)"/>
<path d="M0,0 L2,0 L2,1 L5,1 L5,2 L7,2 L7,3 L9,3 L9,4 L11,4 L11,5 L13,5 L13,6 L15,6 L15,7 L19,7 L19,6 L21,6 L21,5 L23,5 L23,4 L25,4 L25,3 L27,3 L27,2 L29,2 L29,1 L32,1 L32,0 L34,0 L34,1 L37,1 L37,2 L39,2 L39,3 L41,3 L41,4 L43,4 L43,5 L45,5 L45,6 L47,6 L47,7 L49,7 L49,21 L46,21 L46,20 L44,20 L44,19 L42,19 L42,18 L40,18 L40,17 L38,17 L38,16 L36,16 L36,15 L34,15 L34,14 L32,14 L32,15 L30,15 L30,16 L28,16 L28,17 L26,17 L26,18 L24,18 L24,19 L22,19 L22,20 L20,20 L20,21 L14,21 L14,20 L12,20 L12,19 L10,19 L10,18 L8,18 L8,17 L6,17 L6,16 L4,16 L4,15 L2,15 L2,14 L0,14 L0,15 L-2,15 L-2,16 L-4,16 L-4,17 L-6,17 L-6,18 L-8,18 L-8,19 L-10,19 L-10,20 L-12,20 L-12,21 L-15,21 L-15,7 L-13,7 L-13,6 L-11,6 L-11,5 L-9,5 L-9,4 L-7,4 L-7,3 L-5,3 L-5,2 L-3,2 L-3,1 L0,1 Z M-1,16 L3,16 L3,17 L5,17 L5,18 L7,18 L7,19 L9,19 L9,20 L11,20 L11,21 L13,21 L13,22 L21,22 L21,21 L23,21 L23,20 L25,20 L25,19 L27,19 L27,18 L29,18 L29,17 L31,17 L31,16 L35,16 L35,17 L37,17 L37,18 L39,18 L39,19 L41,19 L41,20 L43,20 L43,21 L45,21 L45,22 L49,22 L49,31 L-15,31 L-15,22 L-11,22 L-11,21 L-9,21 L-9,20 L-7,20 L-7,19 L-5,19 L-5,18 L-3,18 L-3,17 L-1,17 Z " fill="#CFD5DA" transform="translate(15,33)"/>
<path d="M0,0 L64,0 L64,10 L63,10 L63,9 L61,9 L61,8 L59,8 L59,7 L57,7 L57,6 L55,6 L55,5 L53,5 L53,4 L50,4 L50,3 L46,3 L46,4 L43,4 L43,5 L41,5 L41,6 L39,6 L39,7 L37,7 L37,8 L35,8 L35,9 L33,9 L33,10 L31,10 L31,9 L29,9 L29,8 L27,8 L27,7 L25,7 L25,6 L23,6 L23,5 L21,5 L21,4 L18,4 L18,3 L14,3 L14,4 L11,4 L11,5 L9,5 L9,6 L7,6 L7,7 L5,7 L5,8 L3,8 L3,9 L1,9 L1,10 L0,10 Z M14,4 L18,4 L18,5 L20,5 L20,6 L22,6 L22,7 L24,7 L24,8 L26,8 L26,9 L28,9 L28,10 L30,10 L30,11 L34,11 L34,10 L36,10 L36,9 L38,9 L38,8 L40,8 L40,7 L42,7 L42,6 L44,6 L44,5 L46,5 L46,4 L50,4 L50,5 L52,5 L52,6 L54,6 L54,7 L56,7 L56,8 L58,8 L58,9 L60,9 L60,10 L62,10 L62,11 L64,11 L64,20 L61,20 L61,19 L59,19 L59,18 L57,18 L57,17 L55,17 L55,16 L53,16 L53,15 L51,15 L51,14 L49,14 L49,13 L47,13 L47,14 L45,14 L45,15 L43,15 L43,16 L41,16 L41,17 L39,17 L39,18 L37,18 L37,19 L35,19 L35,20 L29,20 L29,19 L27,19 L27,18 L25,18 L25,17 L23,17 L23,16 L21,16 L21,15 L19,15 L19,14 L17,14 L17,13 L15,13 L15,14 L13,14 L13,15 L11,15 L11,16 L9,16 L9,17 L7,17 L7,18 L5,18 L5,19 L3,19 L3,20 L0,20 L0,11 L2,11 L2,10 L4,10 L4,9 L6,9 L6,8 L8,8 L8,7 L10,7 L10,6 L12,6 L12,5 L14,5 Z " fill="#A6B2BB" transform="translate(0,0)"/>
<path d="M0,0 L4,0 L4,1 L6,1 L6,2 L8,2 L8,3 L10,3 L10,4 L12,4 L12,5 L14,5 L14,6 L22,6 L22,5 L24,5 L24,4 L26,4 L26,3 L28,3 L28,2 L30,2 L30,1 L32,1 L32,0 L36,0 L36,1 L38,1 L38,2 L40,2 L40,3 L42,3 L42,4 L44,4 L44,5 L46,5 L46,6 L50,6 L50,15 L-14,15 L-14,6 L-10,6 L-10,5 L-8,5 L-8,4 L-6,4 L-6,3 L-4,3 L-4,2 L-2,2 L-2,1 L0,1 Z " fill="#BBC4CB" transform="translate(14,49)"/>
<path d="M0,0 L64,0 L64,10 L63,10 L63,9 L61,9 L61,8 L59,8 L59,7 L57,7 L57,6 L55,6 L55,5 L53,5 L53,4 L50,4 L50,3 L46,3 L46,4 L43,4 L43,5 L41,5 L41,6 L39,6 L39,7 L37,7 L37,8 L35,8 L35,9 L33,9 L33,10 L31,10 L31,9 L29,9 L29,8 L27,8 L27,7 L25,7 L25,6 L23,6 L23,5 L21,5 L21,4 L18,4 L18,3 L14,3 L14,4 L11,4 L11,5 L9,5 L9,6 L7,6 L7,7 L5,7 L5,8 L3,8 L3,9 L1,9 L1,10 L0,10 Z " fill="#BBC4CB" transform="translate(0,0)"/>
<path d="M0,0 L4,0 L4,1 L6,1 L6,2 L8,2 L8,3 L10,3 L10,4 L12,4 L12,5 L14,5 L14,6 L22,6 L22,5 L24,5 L24,4 L26,4 L26,3 L28,3 L28,2 L30,2 L30,1 L32,1 L32,0 L36,0 L36,1 L38,1 L38,2 L40,2 L40,3 L42,3 L42,4 L44,4 L44,5 L46,5 L46,6 L50,6 L50,9 L47,9 L47,8 L45,8 L45,7 L43,7 L43,6 L41,6 L41,5 L39,5 L39,4 L37,4 L37,3 L35,3 L35,2 L33,2 L33,3 L31,3 L31,4 L29,4 L29,5 L27,5 L27,6 L25,6 L25,7 L23,7 L23,8 L21,8 L21,9 L15,9 L15,8 L13,8 L13,7 L11,7 L11,6 L9,6 L9,5 L7,5 L7,4 L5,4 L5,3 L3,3 L3,2 L1,2 L1,3 L-1,3 L-1,4 L-3,4 L-3,5 L-5,5 L-5,6 L-7,6 L-7,7 L-9,7 L-9,8 L-11,8 L-11,9 L-14,9 L-14,6 L-10,6 L-10,5 L-8,5 L-8,4 L-6,4 L-6,3 L-4,3 L-4,2 L-2,2 L-2,1 L0,1 Z " fill="#CFD5DA" transform="translate(14,15)"/>
<path d="M0,0 L64,0 L64,4 L0,4 Z " fill="#353541" transform="translate(0,60)"/>
<path d="M0,0 L2,0 L2,1 L5,1 L5,2 L7,2 L7,3 L9,3 L9,4 L11,4 L11,5 L13,5 L13,6 L15,6 L15,7 L19,7 L19,6 L21,6 L21,5 L23,5 L23,4 L25,4 L25,3 L27,3 L27,2 L29,2 L29,1 L32,1 L32,0 L34,0 L34,1 L37,1 L37,2 L39,2 L39,3 L41,3 L41,4 L43,4 L43,5 L45,5 L45,6 L47,6 L47,7 L49,7 L49,10 L47,10 L47,9 L45,9 L45,8 L43,8 L43,7 L41,7 L41,6 L39,6 L39,5 L37,5 L37,4 L34,4 L34,3 L32,3 L32,4 L29,4 L29,5 L27,5 L27,6 L25,6 L25,7 L23,7 L23,8 L21,8 L21,9 L19,9 L19,10 L15,10 L15,9 L13,9 L13,8 L11,8 L11,7 L9,7 L9,6 L7,6 L7,5 L5,5 L5,4 L2,4 L2,3 L0,3 L0,4 L-3,4 L-3,5 L-5,5 L-5,6 L-7,6 L-7,7 L-9,7 L-9,8 L-11,8 L-11,9 L-13,9 L-13,10 L-15,10 L-15,7 L-13,7 L-13,6 L-11,6 L-11,5 L-9,5 L-9,4 L-7,4 L-7,3 L-5,3 L-5,2 L-3,2 L-3,1 L0,1 Z " fill="#A6B2BB" transform="translate(15,29)"/>
<path d="M0,0 L4,0 L4,1 L5,1 L5,2 L6,2 L6,5 L5,5 L5,6 L4,6 L4,7 L0,7 L0,6 L-1,6 L-1,5 L-2,5 L-2,2 L-1,2 L-1,1 L0,1 Z " fill="#BBC4CB" transform="translate(18,39)"/>
<path d="M0,0 L2,0 L2,1 L3,1 L3,4 L2,4 L2,5 L-1,5 L-1,4 L-2,4 L-2,2 L-1,2 L-1,1 L0,1 Z " fill="#BBC4CB" transform="translate(29,45)"/>
<path d="M0,0 L4,0 L4,4 L0,4 Z " fill="#BBC4CB" transform="translate(6,42)"/>
<path d="M0,0 L4,0 L4,4 L0,4 Z " fill="#BBC4CB" transform="translate(38,10)"/>
<path d="M0,0 L2,0 L2,1 L1,1 L1,2 L0,2 L0,3 L-1,3 L-1,5 L-2,5 L-2,2 L-1,2 L-1,1 L0,1 Z " fill="#BBC4CB" transform="translate(18,39)"/>
<path d="M0,0 L1,0 L1,1 L0,1 Z " fill="#CED5DA" opacity="0.89411765" transform="translate(32,54)"/>
<path d="M0,0 L3,0 L3,1 L0,1 Z M3,1 L4,1 L4,4 L3,4 Z " fill="#CED4D9" transform="translate(7,41)"/>
<path d="M0,0 L1,0 L1,1 L0,1 Z " fill="#CED5DA" opacity="0.83137256" transform="translate(32,24)"/>
<path d="M0,0 L1,0 L1,1 L0,1 Z " fill="#B1BBC3" opacity="0.83137256" transform="translate(32,20)"/>
<path d="M0,0 L1,0 L1,1 L0,1 Z M1,1 L2,1 L2,2 L1,2 Z M2,2 L5,2 L5,3 L2,3 Z " fill="#CED4D9" transform="translate(16,44)"/>
<path d="M0,0 L3,0 L3,1 L0,1 Z M-1,1 L0,1 L0,2 L-1,2 Z M-2,2 L-1,2 L-1,3 L-2,3 Z " fill="#CED4D9" transform="translate(18,38)"/>
<path d="M0,0 L1,0 L1,1 L0,1 Z " fill="#BEC7CE" opacity="0.8745098" transform="translate(47,48)"/>
<path d="M0,0 L1,0 L1,1 L0,1 Z " fill="#BEC7CE" opacity="0.8745098" transform="translate(15,48)"/>
<path d="M0,0 L1,0 L1,1 L0,1 Z " fill="#B8C2CB" opacity="0.8156863" transform="translate(31,35)"/>
<path d="M0,0 L2,0 L2,1 L1,1 L1,2 L0,2 Z " fill="#BBC4CB" transform="translate(28,46)"/>
<path d="M0,0 L1,0 L1,3 L0,3 Z " fill="#C0C8CE" transform="translate(16,41)"/>
<path d="M0,0 L2,0 L2,1 L1,1 L1,2 L0,2 Z " fill="#BBC4CB" transform="translate(6,42)"/>
<path d="M0,0 L1,0 L1,1 L0,1 Z " fill="#CCD3D8" opacity="0.78431374" transform="translate(1,24)"/>
<path d="M0,0 L1,0 L1,1 L0,1 Z " fill="#B8C1C8" opacity="0.78431374" transform="translate(1,20)"/>
<path d="M0,0 L2,0 L2,1 L1,1 L1,2 L0,2 Z " fill="#BBC4CB" transform="translate(38,10)"/>
<path d="M0,0 L1,0 L1,1 L0,1 Z " fill="#CED4D9" opacity="0.83137256" transform="translate(62,54)"/>
<path d="M0,0 L1,0 L1,1 L0,1 Z " fill="#CED4D8" opacity="0.8235294" transform="translate(30,54)"/>
<path d="M0,0 L1,0 L1,1 L0,1 Z " fill="#C8CED5" opacity="0.7529412" transform="translate(2,54)"/>
<path d="M0,0 L1,0 L1,1 L0,1 Z " fill="#BEC7CE" opacity="0.8745098" transform="translate(37,53)"/>
<path d="M0,0 L1,0 L1,1 L0,1 Z " fill="#BEC7CE" opacity="0.8745098" transform="translate(5,53)"/>
<path d="M0,0 L1,0 L1,1 L0,1 Z " fill="#BEC7CE" opacity="0.8745098" transform="translate(39,52)"/>
<path d="M0,0 L1,0 L1,1 L0,1 Z " fill="#BEC7CE" opacity="0.8745098" transform="translate(7,52)"/>
<path d="M0,0 L1,0 L1,1 L0,1 Z " fill="#BEC7CE" opacity="0.8745098" transform="translate(41,51)"/>
<path d="M0,0 L1,0 L1,1 L0,1 Z " fill="#BEC7CE" opacity="0.8745098" transform="translate(9,51)"/>
<path d="M0,0 L1,0 L1,1 L0,1 Z " fill="#BEC7CE" opacity="0.8745098" transform="translate(43,50)"/>
<path d="M0,0 L2,0 L2,1 L0,1 Z " fill="#CED4D9" transform="translate(29,50)"/>
<path d="M0,0 L1,0 L1,1 L0,1 Z " fill="#BEC7CE" opacity="0.8745098" transform="translate(11,50)"/>
<path d="M0,0 L1,0 L1,1 L0,1 Z " fill="#BEC7CE" opacity="0.8745098" transform="translate(45,49)"/>
<path d="M0,0 L1,0 L1,1 L0,1 Z " fill="#BEC7CE" opacity="0.8745098" transform="translate(13,49)"/>
<path d="M0,0 L1,0 L1,2 L0,2 Z " fill="#CDD4D9" transform="translate(32,47)"/>
<path d="M0,0 L1,0 L1,2 L0,2 Z " fill="#C6CDD3" transform="translate(27,47)"/>
<path d="M0,0 L2,0 L2,1 L0,1 Z " fill="#CFD5DA" opacity="0.99215686" transform="translate(47,47)"/>
<path d="M0,0 L2,0 L2,1 L0,1 Z " fill="#CFD5DA" opacity="0.99215686" transform="translate(15,47)"/>
<path d="M0,0 L2,0 L2,1 L0,1 Z " fill="#C6CED3" transform="translate(19,46)"/>
<path d="M0,0 L2,0 L2,1 L0,1 Z " fill="#C7CED4" transform="translate(7,46)"/>
<path d="M0,0 L1,0 L1,1 L0,1 Z M1,1 L2,1 L2,2 L1,2 Z " fill="#CED4D9" transform="translate(31,45)"/>
<path d="M0,0 L2,0 L2,1 L0,1 Z " fill="#C2CAD0" transform="translate(29,45)"/>
<path d="M0,0 L1,0 L1,2 L0,2 Z " fill="#C8CED5" transform="translate(10,43)"/>
<path d="M0,0 L1,0 L1,2 L0,2 Z " fill="#C7CED4" transform="translate(5,43)"/>
<path d="M0,0 L2,0 L2,1 L0,1 Z " fill="#C7CFD4" transform="translate(7,41)"/>
<path d="M0,0 L2,0 L2,1 L0,1 Z " fill="#B3BCC4" opacity="0.8156863" transform="translate(31,39)"/>
<path d="M0,0 L1,0 L1,1 L0,1 Z " fill="#CBD2D8" opacity="0.81960785" transform="translate(1,39)"/>
<path d="M0,0 L1,0 L1,1 L0,1 Z " fill="#CCD3D7" opacity="0.81960785" transform="translate(35,38)"/>
<path d="M0,0 L2,0 L2,1 L0,1 Z " fill="#C6CED4" transform="translate(19,38)"/>
<path d="M0,0 L1,0 L1,1 L0,1 Z " fill="#CCD3D7" opacity="0.81960785" transform="translate(3,38)"/>
<path d="M0,0 L1,0 L1,1 L0,1 Z " fill="#CCD2D7" opacity="0.8235294" transform="translate(37,37)"/>
<path d="M0,0 L1,0 L1,1 L0,1 Z " fill="#CCD2D7" opacity="0.8235294" transform="translate(5,37)"/>
<path d="M0,0 L1,0 L1,1 L0,1 Z " fill="#CBD3D7" opacity="0.827451" transform="translate(39,36)"/>
<path d="M0,0 L1,0 L1,1 L0,1 Z " fill="#CBD3D7" opacity="0.827451" transform="translate(7,36)"/>
<path d="M0,0 L1,0 L1,1 L0,1 Z " fill="#B8C2CB" opacity="0.8156863" transform="translate(63,35)"/>
<path d="M0,0 L1,0 L1,1 L0,1 Z " fill="#CDD4D9" opacity="0.827451" transform="translate(41,35)"/>
<path d="M0,0 L1,0 L1,1 L0,1 Z " fill="#CDD4D9" opacity="0.827451" transform="translate(9,35)"/>
<path d="M0,0 L1,0 L1,1 L0,1 Z " fill="#ABB7C0" opacity="0.81960785" transform="translate(1,35)"/>
<path d="M0,0 L1,0 L1,1 L0,1 Z " fill="#B9C3C9" opacity="0.8117647" transform="translate(61,34)"/>
<path d="M0,0 L1,0 L1,1 L0,1 Z " fill="#CDD3D9" opacity="0.83137256" transform="translate(43,34)"/>
<path d="M0,0 L1,0 L1,1 L0,1 Z " fill="#ADB8C0" opacity="0.81960785" transform="translate(35,34)"/>
<path d="M0,0 L1,0 L1,1 L0,1 Z " fill="#B9C3C9" opacity="0.8117647" transform="translate(29,34)"/>
<path d="M0,0 L1,0 L1,1 L0,1 Z " fill="#CDD3D9" opacity="0.83137256" transform="translate(11,34)"/>
<path d="M0,0 L1,0 L1,1 L0,1 Z " fill="#ADB8C0" opacity="0.81960785" transform="translate(3,34)"/>
<path d="M0,0 L1,0 L1,1 L0,1 Z " fill="#B9C1C9" opacity="0.80784315" transform="translate(59,33)"/>
<path d="M0,0 L1,0 L1,1 L0,1 Z " fill="#B5BDC6" opacity="0.8039216" transform="translate(51,33)"/>
<path d="M0,0 L1,0 L1,1 L0,1 Z " fill="#C8D0D5" opacity="0.7764706" transform="translate(45,33)"/>
<path d="M0,0 L1,0 L1,1 L0,1 Z " fill="#ABB6BF" opacity="0.8235294" transform="translate(37,33)"/>
<path d="M0,0 L1,0 L1,1 L0,1 Z " fill="#B9C1C9" opacity="0.80784315" transform="translate(27,33)"/>
<path d="M0,0 L1,0 L1,1 L0,1 Z " fill="#B5BDC6" opacity="0.8039216" transform="translate(19,33)"/>
<path d="M0,0 L1,0 L1,1 L0,1 Z " fill="#C8D0D5" opacity="0.7764706" transform="translate(13,33)"/>
<path d="M0,0 L1,0 L1,1 L0,1 Z " fill="#ABB6BF" opacity="0.8235294" transform="translate(5,33)"/>
<path d="M0,0 L1,0 L1,1 L0,1 Z " fill="#B8C2CA" opacity="0.8039216" transform="translate(57,32)"/>
<path d="M0,0 L2,0 L2,1 L0,1 Z " fill="#A9B4BD" opacity="0.9529412" transform="translate(47,32)"/>
<path d="M0,0 L1,0 L1,1 L0,1 Z " fill="#ACB7BF" opacity="0.827451" transform="translate(39,32)"/>
<path d="M0,0 L1,0 L1,1 L0,1 Z " fill="#B8C2CA" opacity="0.8039216" transform="translate(25,32)"/>
<path d="M0,0 L2,0 L2,1 L0,1 Z " fill="#A9B4BD" opacity="0.9529412" transform="translate(15,32)"/>
<path d="M0,0 L1,0 L1,1 L0,1 Z " fill="#ACB7BF" opacity="0.827451" transform="translate(7,32)"/>
<path d="M0,0 L1,0 L1,1 L0,1 Z " fill="#B9C2CA" opacity="0.8" transform="translate(55,31)"/>
<path d="M0,0 L1,0 L1,1 L0,1 Z " fill="#ACB8BF" opacity="0.827451" transform="translate(41,31)"/>
<path d="M0,0 L1,0 L1,1 L0,1 Z " fill="#B9C2CA" opacity="0.8" transform="translate(23,31)"/>
<path d="M0,0 L1,0 L1,1 L0,1 Z " fill="#ACB8BF" opacity="0.827451" transform="translate(9,31)"/>
<path d="M0,0 L1,0 L1,1 L0,1 Z " fill="#B9C3C9" opacity="0.79607844" transform="translate(53,30)"/>
<path d="M0,0 L1,0 L1,1 L0,1 Z " fill="#ACB7BE" opacity="0.83137256" transform="translate(43,30)"/>
<path d="M0,0 L1,0 L1,1 L0,1 Z " fill="#B9C3C9" opacity="0.79607844" transform="translate(21,30)"/>
<path d="M0,0 L1,0 L1,1 L0,1 Z " fill="#ACB7BE" opacity="0.83137256" transform="translate(11,30)"/>
<path d="M0,0 L1,0 L1,1 L0,1 Z " fill="#B8C2CA" opacity="0.8039216" transform="translate(51,29)"/>
<path d="M0,0 L1,0 L1,1 L0,1 Z " fill="#AFBAC3" opacity="0.7764706" transform="translate(45,29)"/>
<path d="M0,0 L1,0 L1,1 L0,1 Z " fill="#B8C2CA" opacity="0.8039216" transform="translate(19,29)"/>
<path d="M0,0 L1,0 L1,1 L0,1 Z " fill="#AFBAC3" opacity="0.7764706" transform="translate(13,29)"/>
<path d="M0,0 L2,0 L2,1 L0,1 Z " fill="#BBC3CB" opacity="0.9529412" transform="translate(47,28)"/>
<path d="M0,0 L2,0 L2,1 L0,1 Z " fill="#BBC3CB" opacity="0.9529412" transform="translate(15,28)"/>
<path d="M0,0 L1,0 L1,1 L0,1 Z " fill="#CCD3D8" opacity="0.78431374" transform="translate(62,24)"/>
<path d="M0,0 L1,0 L1,1 L0,1 Z " fill="#CCD2D9" opacity="0.78039217" transform="translate(30,24)"/>
<path d="M0,0 L1,0 L1,1 L0,1 Z " fill="#B8C1C8" opacity="0.78431374" transform="translate(62,20)"/>
<path d="M0,0 L1,0 L1,1 L0,1 Z " fill="#B7C2C9" opacity="0.78039217" transform="translate(30,20)"/>
<path d="M0,0 L1,0 L1,1 L0,1 Z " fill="#CED5DA" opacity="0.9607843" transform="translate(52,19)"/>
<path d="M0,0 L1,0 L1,1 L0,1 Z " fill="#D0D5DA" opacity="0.92156863" transform="translate(37,19)"/>
<path d="M0,0 L1,0 L1,1 L0,1 Z " fill="#CED5DA" opacity="0.9607843" transform="translate(20,19)"/>
<path d="M0,0 L1,0 L1,1 L0,1 Z " fill="#D0D5DA" opacity="0.92156863" transform="translate(5,19)"/>
<path d="M0,0 L1,0 L1,1 L0,1 Z " fill="#CFD5DA" opacity="0.9647059" transform="translate(50,18)"/>
<path d="M0,0 L2,0 L2,1 L0,1 Z " fill="#BDC5CD" opacity="0.92156863" transform="translate(47,18)"/>
<path d="M0,0 L1,0 L1,1 L0,1 Z " fill="#D0D5DA" opacity="0.92156863" transform="translate(39,18)"/>
<path d="M0,0 L1,0 L1,1 L0,1 Z " fill="#CFD5DA" opacity="0.9647059" transform="translate(18,18)"/>
<path d="M0,0 L2,0 L2,1 L0,1 Z " fill="#BDC5CD" opacity="0.92156863" transform="translate(15,18)"/>
<path d="M0,0 L1,0 L1,1 L0,1 Z " fill="#D0D5DA" opacity="0.92156863" transform="translate(7,18)"/>
<path d="M0,0 L2,0 L2,1 L0,1 Z " fill="#CFD5DA" opacity="0.9647059" transform="translate(47,17)"/>
<path d="M0,0 L1,0 L1,1 L0,1 Z " fill="#D0D5DA" opacity="0.92156863" transform="translate(41,17)"/>
<path d="M0,0 L2,0 L2,1 L0,1 Z " fill="#CFD5DA" opacity="0.9647059" transform="translate(15,17)"/>
<path d="M0,0 L1,0 L1,1 L0,1 Z " fill="#D0D5DA" opacity="0.92156863" transform="translate(9,17)"/>
<path d="M0,0 L1,0 L1,1 L0,1 Z " fill="#D0D5DA" opacity="0.92156863" transform="translate(43,16)"/>
<path d="M0,0 L1,0 L1,1 L0,1 Z " fill="#D0D5DA" opacity="0.92156863" transform="translate(11,16)"/>
<path d="M0,0 L1,0 L1,1 L0,1 Z " fill="#D0D5DA" opacity="0.92156863" transform="translate(45,15)"/>
<path d="M0,0 L1,0 L1,1 L0,1 Z " fill="#D0D5DA" opacity="0.92156863" transform="translate(13,15)"/>
<path d="M0,0 L1,0 L1,1 L0,1 Z " fill="#D0D5DA" opacity="0.92156863" transform="translate(47,14)"/>
<path d="M0,0 L2,0 L2,1 L0,1 Z " fill="#AEB9C2" transform="translate(39,14)"/>
<path d="M0,0 L1,0 L1,1 L0,1 Z " fill="#D0D5DA" opacity="0.92156863" transform="translate(15,14)"/>
<path d="M0,0 L2,0 L2,1 L0,1 Z " fill="#A8B2BD" opacity="0.9647059" transform="translate(47,13)"/>
<path d="M0,0 L2,0 L2,1 L0,1 Z " fill="#A8B2BD" opacity="0.9647059" transform="translate(15,13)"/>
<path d="M0,0 L1,0 L1,2 L0,2 Z " fill="#AEB9C1" transform="translate(42,11)"/>
<path d="M0,0 L1,0 L1,2 L0,2 Z " fill="#AEB8C1" transform="translate(37,11)"/>
<path d="M0,0 L1,0 L1,1 L0,1 Z " fill="#B7C1C8" opacity="0.77254903" transform="translate(32,10)"/>
<path d="M0,0 L1,0 L1,1 L0,1 Z " fill="#ABB5BD" opacity="0.8745098" transform="translate(1,10)"/>
<path d="M0,0 L2,0 L2,1 L0,1 Z " fill="#ADB8C0" transform="translate(39,9)"/>
<path d="M0,0 L1,0 L1,1 L0,1 Z " fill="#A9B6BF" opacity="0.88235295" transform="translate(39,7)"/>
<path d="M0,0 L1,0 L1,1 L0,1 Z " fill="#A9B6BF" opacity="0.88235295" transform="translate(7,7)"/>
<path d="M0,0 L1,0 L1,1 L0,1 Z " fill="#BBC3CA" opacity="0.9843137" transform="translate(54,5)"/>
<path d="M0,0 L1,0 L1,1 L0,1 Z " fill="#BBC3CA" opacity="0.9843137" transform="translate(22,5)"/>
<path d="M0,0 L1,0 L1,1 L0,1 Z " fill="#B6C0C7" opacity="0.76862746" transform="translate(51,4)"/>
<path d="M0,0 L1,0 L1,1 L0,1 Z " fill="#ACB8C0" opacity="0.8156863" transform="translate(45,4)"/>
<path d="M0,0 L1,0 L1,1 L0,1 Z " fill="#B6C0C7" opacity="0.76862746" transform="translate(19,4)"/>
<path d="M0,0 L1,0 L1,1 L0,1 Z " fill="#ACB8C0" opacity="0.8156863" transform="translate(13,4)"/>
<path d="M0,0 L1,0 L1,1 L0,1 Z " fill="#BAC3CB" opacity="0.8784314" transform="translate(48,3)"/>
<path d="M0,0 L1,0 L1,1 L0,1 Z " fill="#BAC3CB" opacity="0.8784314" transform="translate(16,3)"/>
<path d="M0,0 L1,0 L1,1 L0,1 Z " fill="#BBC4CB" transform="translate(0,55)"/>
<path d="M0,0 L1,0 L1,1 L0,1 Z " fill="#CED5DA" opacity="0.9372549" transform="translate(63,54)"/>
<path d="M0,0 L1,0 L1,1 L0,1 Z " fill="#C9D0D5" opacity="0.7529412" transform="translate(61,54)"/>
<path d="M0,0 L1,0 L1,1 L0,1 Z " fill="#BEC6CE" opacity="0.8980392" transform="translate(60,54)"/>
<path d="M0,0 L1,0 L1,1 L0,1 Z " fill="#BDC6CD" opacity="0.89411765" transform="translate(35,54)"/>
<path d="M0,0 L1,0 L1,1 L0,1 Z " fill="#C8CED5" opacity="0.7529412" transform="translate(34,54)"/>
<path d="M0,0 L1,0 L1,1 L0,1 Z " fill="#CDD5D8" opacity="0.81960785" transform="translate(33,54)"/>
<path d="M0,0 L1,0 L1,1 L0,1 Z " fill="#CED6DA" opacity="0.89411765" transform="translate(31,54)"/>
<path d="M0,0 L1,0 L1,1 L0,1 Z " fill="#C9D0D5" opacity="0.7529412" transform="translate(29,54)"/>
<path d="M0,0 L1,0 L1,1 L0,1 Z " fill="#BEC6CE" opacity="0.8980392" transform="translate(28,54)"/>
<path d="M0,0 L1,0 L1,1 L0,1 Z " fill="#BDC6CD" opacity="0.89411765" transform="translate(3,54)"/>
<path d="M0,0 L1,0 L1,1 L0,1 Z " fill="#CED4D9" opacity="0.83137256" transform="translate(1,54)"/>
<path d="M0,0 L1,0 L1,1 L0,1 Z " fill="#CED5DA" opacity="0.9372549" transform="translate(0,54)"/>
<path d="M0,0 L1,0 L1,1 L0,1 Z " fill="#CFD5DA" opacity="0.99215686" transform="translate(60,53)"/>
<path d="M0,0 L1,0 L1,1 L0,1 Z " fill="#CBD0D7" opacity="0.76862746" transform="translate(59,53)"/>
<path d="M0,0 L1,0 L1,1 L0,1 Z " fill="#BEC7CD" opacity="0.88235295" transform="translate(58,53)"/>
<path d="M0,0 L1,0 L1,1 L0,1 Z " fill="#CBD2D7" opacity="0.76862746" transform="translate(36,53)"/>
<path d="M0,0 L1,0 L1,1 L0,1 Z " fill="#CFD5DA" opacity="0.99215686" transform="translate(35,53)"/>
<path d="M0,0 L1,0 L1,1 L0,1 Z " fill="#CFD5DA" opacity="0.99215686" transform="translate(28,53)"/>
<path d="M0,0 L1,0 L1,1 L0,1 Z " fill="#CBD0D7" opacity="0.76862746" transform="translate(27,53)"/>
<path d="M0,0 L1,0 L1,1 L0,1 Z " fill="#BEC7CD" opacity="0.88235295" transform="translate(26,53)"/>
<path d="M0,0 L1,0 L1,1 L0,1 Z " fill="#CBD2D7" opacity="0.76862746" transform="translate(4,53)"/>
<path d="M0,0 L1,0 L1,1 L0,1 Z " fill="#CFD5DA" opacity="0.99215686" transform="translate(3,53)"/>
<path d="M0,0 L1,0 L1,1 L0,1 Z " fill="#CFD5DA" opacity="0.99215686" transform="translate(58,52)"/>
<path d="M0,0 L1,0 L1,1 L0,1 Z " fill="#CAD2D7" opacity="0.76862746" transform="translate(57,52)"/>
<path d="M0,0 L1,0 L1,1 L0,1 Z " fill="#BEC7CD" opacity="0.88235295" transform="translate(56,52)"/>
<path d="M0,0 L1,0 L1,1 L0,1 Z " fill="#CBD2D7" opacity="0.76862746" transform="translate(38,52)"/>
<path d="M0,0 L1,0 L1,1 L0,1 Z " fill="#CFD5DA" opacity="0.99215686" transform="translate(37,52)"/>
<path d="M0,0 L1,0 L1,1 L0,1 Z " fill="#CFD5DA" opacity="0.99215686" transform="translate(26,52)"/>
<path d="M0,0 L1,0 L1,1 L0,1 Z " fill="#CAD2D7" opacity="0.76862746" transform="translate(25,52)"/>
<path d="M0,0 L1,0 L1,1 L0,1 Z " fill="#BEC7CD" opacity="0.88235295" transform="translate(24,52)"/>
<path d="M0,0 L1,0 L1,1 L0,1 Z " fill="#CBD2D7" opacity="0.76862746" transform="translate(6,52)"/>
<path d="M0,0 L1,0 L1,1 L0,1 Z " fill="#CFD5DA" opacity="0.99215686" transform="translate(5,52)"/>
<path d="M0,0 L1,0 L1,1 L0,1 Z " fill="#CFD5DA" opacity="0.99215686" transform="translate(56,51)"/>
<path d="M0,0 L1,0 L1,1 L0,1 Z " fill="#CAD2D7" opacity="0.76862746" transform="translate(55,51)"/>
<path d="M0,0 L1,0 L1,1 L0,1 Z " fill="#BEC8CE" opacity="0.8784314" transform="translate(54,51)"/>
<path d="M0,0 L1,0 L1,1 L0,1 Z " fill="#CBD2D7" opacity="0.76862746" transform="translate(40,51)"/>
<path d="M0,0 L1,0 L1,1 L0,1 Z " fill="#CFD5DA" opacity="0.99215686" transform="translate(39,51)"/>
<path d="M0,0 L1,0 L1,1 L0,1 Z " fill="#CFD5DA" opacity="0.99215686" transform="translate(24,51)"/>
<path d="M0,0 L1,0 L1,1 L0,1 Z " fill="#CAD2D7" opacity="0.76862746" transform="translate(23,51)"/>
<path d="M0,0 L1,0 L1,1 L0,1 Z " fill="#BEC8CE" opacity="0.8784314" transform="translate(22,51)"/>
<path d="M0,0 L1,0 L1,1 L0,1 Z " fill="#CBD2D7" opacity="0.76862746" transform="translate(8,51)"/>
<path d="M0,0 L1,0 L1,1 L0,1 Z " fill="#CFD5DA" opacity="0.99215686" transform="translate(7,51)"/>
<path d="M0,0 L1,0 L1,1 L0,1 Z " fill="#CFD5DA" opacity="0.99215686" transform="translate(54,50)"/>
<path d="M0,0 L1,0 L1,1 L0,1 Z " fill="#CBD2D7" opacity="0.76862746" transform="translate(53,50)"/>
<path d="M0,0 L1,0 L1,1 L0,1 Z " fill="#BEC8CE" opacity="0.8784314" transform="translate(52,50)"/>
<path d="M0,0 L1,0 L1,1 L0,1 Z " fill="#CBD2D7" opacity="0.76862746" transform="translate(42,50)"/>
<path d="M0,0 L1,0 L1,1 L0,1 Z " fill="#CFD5DA" opacity="0.99215686" transform="translate(41,50)"/>
<path d="M0,0 L1,0 L1,1 L0,1 Z " fill="#CED3D9" transform="translate(29,50)"/>
<path d="M0,0 L1,0 L1,1 L0,1 Z " fill="#CFD5DA" opacity="0.99215686" transform="translate(22,50)"/>
<path d="M0,0 L1,0 L1,1 L0,1 Z " fill="#CBD2D7" opacity="0.76862746" transform="translate(21,50)"/>
<path d="M0,0 L1,0 L1,1 L0,1 Z " fill="#BEC8CE" opacity="0.8784314" transform="translate(20,50)"/>
<path d="M0,0 L1,0 L1,1 L0,1 Z " fill="#CBD2D7" opacity="0.76862746" transform="translate(10,50)"/>
<path d="M0,0 L1,0 L1,1 L0,1 Z " fill="#CFD5DA" opacity="0.99215686" transform="translate(9,50)"/>
<path d="M0,0 L1,0 L1,1 L0,1 Z " fill="#CFD5DA" opacity="0.99215686" transform="translate(52,49)"/>
<path d="M0,0 L1,0 L1,1 L0,1 Z " fill="#CCD2D7" opacity="0.77254903" transform="translate(51,49)"/>
<path d="M0,0 L1,0 L1,1 L0,1 Z " fill="#BEC7CE" opacity="0.8745098" transform="translate(50,49)"/>
<path d="M0,0 L1,0 L1,1 L0,1 Z " fill="#CBD2D7" opacity="0.76862746" transform="translate(44,49)"/>
<path d="M0,0 L1,0 L1,1 L0,1 Z " fill="#CFD5DA" opacity="0.99215686" transform="translate(43,49)"/>
<path d="M0,0 L1,0 L1,1 L0,1 Z " fill="#CBD2D7" transform="translate(31,49)"/>
<path d="M0,0 L1,0 L1,1 L0,1 Z " fill="#BDC6CC" transform="translate(30,49)"/>
<path d="M0,0 L1,0 L1,1 L0,1 Z " fill="#C3CBD1" transform="translate(28,49)"/>
<path d="M0,0 L1,0 L1,1 L0,1 Z " fill="#CFD5DA" opacity="0.99215686" transform="translate(20,49)"/>
<path d="M0,0 L1,0 L1,1 L0,1 Z " fill="#CCD2D7" opacity="0.77254903" transform="translate(19,49)"/>
<path d="M0,0 L1,0 L1,1 L0,1 Z " fill="#BEC7CE" opacity="0.8745098" transform="translate(18,49)"/>
<path d="M0,0 L1,0 L1,1 L0,1 Z " fill="#CBD2D7" opacity="0.76862746" transform="translate(12,49)"/>
<path d="M0,0 L1,0 L1,1 L0,1 Z " fill="#CFD5DA" opacity="0.99215686" transform="translate(11,49)"/>
<path d="M0,0 L1,0 L1,1 L0,1 Z " fill="#CFD5DA" opacity="0.99215686" transform="translate(50,48)"/>
<path d="M0,0 L1,0 L1,1 L0,1 Z " fill="#CBD2D7" opacity="0.76862746" transform="translate(49,48)"/>
<path d="M0,0 L1,0 L1,1 L0,1 Z " fill="#BEC7CE" opacity="0.8745098" transform="translate(48,48)"/>
<path d="M0,0 L1,0 L1,1 L0,1 Z " fill="#CBD2D7" opacity="0.76862746" transform="translate(46,48)"/>
<path d="M0,0 L1,0 L1,1 L0,1 Z " fill="#CFD5DA" opacity="0.99215686" transform="translate(45,48)"/>
<path d="M0,0 L1,0 L1,1 L0,1 Z " fill="#BDC5CC" transform="translate(31,48)"/>
<path d="M0,0 L1,0 L1,1 L0,1 Z " fill="#CFD5DA" opacity="0.99215686" transform="translate(18,48)"/>
<path d="M0,0 L1,0 L1,1 L0,1 Z " fill="#CBD2D7" opacity="0.76862746" transform="translate(17,48)"/>
<path d="M0,0 L1,0 L1,1 L0,1 Z " fill="#BEC7CE" opacity="0.8745098" transform="translate(16,48)"/>
<path d="M0,0 L1,0 L1,1 L0,1 Z " fill="#CBD2D7" opacity="0.76862746" transform="translate(14,48)"/>
<path d="M0,0 L1,0 L1,1 L0,1 Z " fill="#CFD5DA" opacity="0.99215686" transform="translate(13,48)"/>
<path d="M0,0 L1,0 L1,1 L0,1 Z " fill="#CAD1D7" transform="translate(32,47)"/>
<path d="M0,0 L1,0 L1,1 L0,1 Z " fill="#C1C9CF" transform="translate(27,47)"/>
<path d="M0,0 L1,0 L1,1 L0,1 Z " fill="#C0C9CF" transform="translate(31,46)"/>
<path d="M0,0 L1,0 L1,1 L0,1 Z " fill="#BBC4CC" transform="translate(28,46)"/>
<path d="M0,0 L1,0 L1,1 L0,1 Z " fill="#C9D1D6" transform="translate(27,46)"/>
<path d="M0,0 L1,0 L1,1 L0,1 Z " fill="#CCD2D8" transform="translate(21,46)"/>
<path d="M0,0 L1,0 L1,1 L0,1 Z " fill="#C8CFD4" transform="translate(19,46)"/>
<path d="M0,0 L1,0 L1,1 L0,1 Z " fill="#C7CFD4" transform="translate(7,46)"/>
<path d="M0,0 L1,0 L1,1 L0,1 Z " fill="#CED4D9" transform="translate(6,46)"/>
<path d="M0,0 L1,0 L1,1 L0,1 Z " fill="#BFC8CF" transform="translate(29,45)"/>
<path d="M0,0 L1,0 L1,1 L0,1 Z " fill="#CAD0D6" transform="translate(28,45)"/>
<path d="M0,0 L1,0 L1,1 L0,1 Z " fill="#C8CFD5" transform="translate(22,45)"/>
<path d="M0,0 L1,0 L1,1 L0,1 Z " fill="#BCC4CB" transform="translate(21,45)"/>
<path d="M0,0 L1,0 L1,1 L0,1 Z " fill="#BFC7CF" transform="translate(18,45)"/>
<path d="M0,0 L1,0 L1,1 L0,1 Z " fill="#CED5DA" transform="translate(10,45)"/>
<path d="M0,0 L1,0 L1,1 L0,1 Z " fill="#C1C9D0" transform="translate(9,45)"/>
<path d="M0,0 L1,0 L1,1 L0,1 Z " fill="#C2CAD0" transform="translate(6,45)"/>
<path d="M0,0 L1,0 L1,1 L0,1 Z " fill="#C8CFD6" transform="translate(23,44)"/>
<path d="M0,0 L1,0 L1,1 L0,1 Z " fill="#BFC7CD" transform="translate(17,44)"/>
<path d="M0,0 L1,0 L1,1 L0,1 Z " fill="#CED5DA" transform="translate(24,43)"/>
<path d="M0,0 L1,0 L1,1 L0,1 Z " fill="#BCC4CC" transform="translate(23,43)"/>
<path d="M0,0 L1,0 L1,1 L0,1 Z " fill="#C4CCD2" transform="translate(16,43)"/>
<path d="M0,0 L1,0 L1,1 L0,1 Z " fill="#C7CFD4" transform="translate(10,43)"/>
<path d="M0,0 L1,0 L1,1 L0,1 Z " fill="#C7CFD4" transform="translate(5,43)"/>
<path d="M0,0 L1,0 L1,1 L0,1 Z " fill="#CCD3D8" transform="translate(24,42)"/>
<path d="M0,0 L1,0 L1,1 L0,1 Z " fill="#C1C9CF" transform="translate(9,42)"/>
<path d="M0,0 L1,0 L1,1 L0,1 Z " fill="#C1C9D0" transform="translate(6,42)"/>
<path d="M0,0 L1,0 L1,1 L0,1 Z " fill="#CED5DA" transform="translate(5,42)"/>
<path d="M0,0 L1,0 L1,1 L0,1 Z " fill="#CED4D9" transform="translate(24,41)"/>
<path d="M0,0 L1,0 L1,1 L0,1 Z " fill="#BDC5CC" transform="translate(23,41)"/>
<path d="M0,0 L1,0 L1,1 L0,1 Z " fill="#C4CCD2" transform="translate(16,41)"/>
<path d="M0,0 L1,0 L1,1 L0,1 Z " fill="#C7CED4" transform="translate(7,41)"/>
<path d="M0,0 L1,0 L1,1 L0,1 Z " fill="#CED4D9" transform="translate(6,41)"/>
<path d="M0,0 L1,0 L1,1 L0,1 Z " fill="#C9D1D5" transform="translate(23,40)"/>
<path d="M0,0 L1,0 L1,1 L0,1 Z " fill="#BFC7CF" transform="translate(17,40)"/>
<path d="M0,0 L1,0 L1,1 L0,1 Z " fill="#CFD5DA" transform="translate(0,40)"/>
<path d="M0,0 L1,0 L1,1 L0,1 Z " fill="#B3BCC4" opacity="0.8156863" transform="translate(63,39)"/>
<path d="M0,0 L1,0 L1,1 L0,1 Z " fill="#CBD2D8" opacity="0.81960785" transform="translate(62,39)"/>
<path d="M0,0 L1,0 L1,1 L0,1 Z " fill="#CBD2D8" opacity="0.81960785" transform="translate(33,39)"/>
<path d="M0,0 L1,0 L1,1 L0,1 Z " fill="#CBD2D8" opacity="0.81960785" transform="translate(30,39)"/>
<path d="M0,0 L1,0 L1,1 L0,1 Z " fill="#C9D0D5" transform="translate(22,39)"/>
<path d="M0,0 L1,0 L1,1 L0,1 Z " fill="#BBC4CC" transform="translate(21,39)"/>
<path d="M0,0 L1,0 L1,1 L0,1 Z " fill="#C0C8CF" transform="translate(18,39)"/>
<path d="M0,0 L1,0 L1,1 L0,1 Z " fill="#B3BCC4" opacity="0.8156863" transform="translate(0,39)"/>
<path d="M0,0 L1,0 L1,1 L0,1 Z " fill="#B2BDC4" opacity="0.8117647" transform="translate(61,38)"/>
<path d="M0,0 L1,0 L1,1 L0,1 Z " fill="#CCD2D7" opacity="0.8235294" transform="translate(60,38)"/>
<path d="M0,0 L1,0 L1,1 L0,1 Z " fill="#B3BBC5" opacity="0.8117647" transform="translate(34,38)"/>
<path d="M0,0 L1,0 L1,1 L0,1 Z " fill="#B2BDC4" opacity="0.8117647" transform="translate(29,38)"/>
<path d="M0,0 L1,0 L1,1 L0,1 Z " fill="#CCD2D7" opacity="0.8235294" transform="translate(28,38)"/>
<path d="M0,0 L1,0 L1,1 L0,1 Z " fill="#CCD3D8" transform="translate(21,38)"/>
<path d="M0,0 L1,0 L1,1 L0,1 Z " fill="#C8CFD4" transform="translate(19,38)"/>
<path d="M0,0 L1,0 L1,1 L0,1 Z " fill="#B3BBC5" opacity="0.8117647" transform="translate(2,38)"/>
<path d="M0,0 L1,0 L1,1 L0,1 Z " fill="#B4BEC5" opacity="0.80784315" transform="translate(59,37)"/>
<path d="M0,0 L1,0 L1,1 L0,1 Z " fill="#CBD3D7" opacity="0.827451" transform="translate(58,37)"/>
<path d="M0,0 L1,0 L1,1 L0,1 Z " fill="#B4BEC5" opacity="0.80784315" transform="translate(36,37)"/>
<path d="M0,0 L1,0 L1,1 L0,1 Z " fill="#B4BEC5" opacity="0.80784315" transform="translate(27,37)"/>
<path d="M0,0 L1,0 L1,1 L0,1 Z " fill="#CBD3D7" opacity="0.827451" transform="translate(26,37)"/>
<path d="M0,0 L1,0 L1,1 L0,1 Z " fill="#B4BEC5" opacity="0.80784315" transform="translate(4,37)"/>
<path d="M0,0 L1,0 L1,1 L0,1 Z " fill="#B5BDC6" opacity="0.8039216" transform="translate(57,36)"/>
<path d="M0,0 L1,0 L1,1 L0,1 Z " fill="#CDD3D9" opacity="0.83137256" transform="translate(56,36)"/>
<path d="M0,0 L1,0 L1,1 L0,1 Z " fill="#B4BEC5" opacity="0.80784315" transform="translate(38,36)"/>
<path d="M0,0 L1,0 L1,1 L0,1 Z " fill="#B5BDC6" opacity="0.8039216" transform="translate(25,36)"/>
<path d="M0,0 L1,0 L1,1 L0,1 Z " fill="#CDD3D9" opacity="0.83137256" transform="translate(24,36)"/>
<path d="M0,0 L1,0 L1,1 L0,1 Z " fill="#B4BEC5" opacity="0.80784315" transform="translate(6,36)"/>
<path d="M0,0 L1,0 L1,1 L0,1 Z " fill="#A6B2BB" transform="translate(0,36)"/>
<path d="M0,0 L1,0 L1,1 L0,1 Z " fill="#ABB7C0" opacity="0.81960785" transform="translate(62,35)"/>
<path d="M0,0 L1,0 L1,1 L0,1 Z " fill="#B4BEC7" opacity="0.8" transform="translate(55,35)"/>
<path d="M0,0 L1,0 L1,1 L0,1 Z " fill="#CCD3D8" opacity="0.8352941" transform="translate(54,35)"/>
<path d="M0,0 L1,0 L1,1 L0,1 Z " fill="#B3BFC5" opacity="0.8039216" transform="translate(40,35)"/>
<path d="M0,0 L1,0 L1,1 L0,1 Z " fill="#ABB7C0" opacity="0.81960785" transform="translate(33,35)"/>
<path d="M0,0 L1,0 L1,1 L0,1 Z " fill="#B8C2CB" opacity="0.8156863" transform="translate(32,35)"/>
<path d="M0,0 L1,0 L1,1 L0,1 Z " fill="#ABB7C0" opacity="0.81960785" transform="translate(30,35)"/>
<path d="M0,0 L1,0 L1,1 L0,1 Z " fill="#B4BEC7" opacity="0.8" transform="translate(23,35)"/>
<path d="M0,0 L1,0 L1,1 L0,1 Z " fill="#CCD3D8" opacity="0.8352941" transform="translate(22,35)"/>
<path d="M0,0 L1,0 L1,1 L0,1 Z " fill="#B3BFC5" opacity="0.8039216" transform="translate(8,35)"/>
<path d="M0,0 L1,0 L1,1 L0,1 Z " fill="#B8C2CB" opacity="0.8156863" transform="translate(0,35)"/>
<path d="M0,0 L1,0 L1,1 L0,1 Z " fill="#ABB6BF" opacity="0.8235294" transform="translate(60,34)"/>
<path d="M0,0 L1,0 L1,1 L0,1 Z " fill="#B5BFC7" opacity="0.79607844" transform="translate(53,34)"/>
<path d="M0,0 L1,0 L1,1 L0,1 Z " fill="#CCD2D8" opacity="0.8392157" transform="translate(52,34)"/>
<path d="M0,0 L1,0 L1,1 L0,1 Z " fill="#B5BEC7" opacity="0.8" transform="translate(42,34)"/>
<path d="M0,0 L1,0 L1,1 L0,1 Z " fill="#B9C2C9" opacity="0.8117647" transform="translate(34,34)"/>
<path d="M0,0 L1,0 L1,1 L0,1 Z " fill="#ABB6BF" opacity="0.8235294" transform="translate(28,34)"/>
<path d="M0,0 L1,0 L1,1 L0,1 Z " fill="#B5BFC7" opacity="0.79607844" transform="translate(21,34)"/>
<path d="M0,0 L1,0 L1,1 L0,1 Z " fill="#CCD2D8" opacity="0.8392157" transform="translate(20,34)"/>
<path d="M0,0 L1,0 L1,1 L0,1 Z " fill="#B5BEC7" opacity="0.8" transform="translate(10,34)"/>
<path d="M0,0 L1,0 L1,1 L0,1 Z " fill="#B9C2C9" opacity="0.8117647" transform="translate(2,34)"/>
<path d="M0,0 L1,0 L1,1 L0,1 Z " fill="#ACB7BF" opacity="0.827451" transform="translate(58,33)"/>
<path d="M0,0 L1,0 L1,1 L0,1 Z " fill="#C9D0D6" opacity="0.7764706" transform="translate(50,33)"/>
<path d="M0,0 L1,0 L1,1 L0,1 Z " fill="#CED4D9" opacity="0.94509804" transform="translate(49,33)"/>
<path d="M0,0 L1,0 L1,1 L0,1 Z " fill="#CED4D9" opacity="0.94509804" transform="translate(46,33)"/>
<path d="M0,0 L1,0 L1,1 L0,1 Z " fill="#B4BEC5" opacity="0.80784315" transform="translate(44,33)"/>
<path d="M0,0 L1,0 L1,1 L0,1 Z " fill="#B9C3CA" opacity="0.80784315" transform="translate(36,33)"/>
<path d="M0,0 L1,0 L1,1 L0,1 Z " fill="#ACB7BF" opacity="0.827451" transform="translate(26,33)"/>
<path d="M0,0 L1,0 L1,1 L0,1 Z " fill="#C9D0D6" opacity="0.7764706" transform="translate(18,33)"/>
<path d="M0,0 L1,0 L1,1 L0,1 Z " fill="#CED4D9" opacity="0.94509804" transform="translate(17,33)"/>
<path d="M0,0 L1,0 L1,1 L0,1 Z " fill="#CED4D9" opacity="0.94509804" transform="translate(14,33)"/>
<path d="M0,0 L1,0 L1,1 L0,1 Z " fill="#B4BEC5" opacity="0.80784315" transform="translate(12,33)"/>
<path d="M0,0 L1,0 L1,1 L0,1 Z " fill="#B9C3CA" opacity="0.80784315" transform="translate(4,33)"/>
<path d="M0,0 L1,0 L1,1 L0,1 Z " fill="#ACB7BE" opacity="0.83137256" transform="translate(56,32)"/>
<path d="M0,0 L1,0 L1,1 L0,1 Z " fill="#B9C1C9" opacity="0.80784315" transform="translate(38,32)"/>
<path d="M0,0 L1,0 L1,1 L0,1 Z " fill="#ACB7BE" opacity="0.83137256" transform="translate(24,32)"/>
<path d="M0,0 L1,0 L1,1 L0,1 Z " fill="#B9C1C9" opacity="0.80784315" transform="translate(6,32)"/>
<path d="M0,0 L1,0 L1,1 L0,1 Z " fill="#AAB6BF" opacity="0.8352941" transform="translate(54,31)"/>
<path d="M0,0 L1,0 L1,1 L0,1 Z " fill="#B8C2C9" opacity="0.8039216" transform="translate(40,31)"/>
<path d="M0,0 L1,0 L1,1 L0,1 Z " fill="#AAB6BF" opacity="0.8352941" transform="translate(22,31)"/>
<path d="M0,0 L1,0 L1,1 L0,1 Z " fill="#B8C2C9" opacity="0.8039216" transform="translate(8,31)"/>
<path d="M0,0 L1,0 L1,1 L0,1 Z " fill="#ACB7BF" opacity="0.8392157" transform="translate(52,30)"/>
<path d="M0,0 L1,0 L1,1 L0,1 Z " fill="#B9C2CA" opacity="0.8" transform="translate(42,30)"/>
<path d="M0,0 L1,0 L1,1 L0,1 Z " fill="#ACB7BF" opacity="0.8392157" transform="translate(20,30)"/>
<path d="M0,0 L1,0 L1,1 L0,1 Z " fill="#B9C2CA" opacity="0.8" transform="translate(10,30)"/>
<path d="M0,0 L1,0 L1,1 L0,1 Z " fill="#B1BBC3" opacity="0.7764706" transform="translate(50,29)"/>
<path d="M0,0 L1,0 L1,1 L0,1 Z " fill="#A7B2BD" opacity="0.94509804" transform="translate(49,29)"/>
<path d="M0,0 L1,0 L1,1 L0,1 Z " fill="#A7B2BD" opacity="0.94509804" transform="translate(46,29)"/>
<path d="M0,0 L1,0 L1,1 L0,1 Z " fill="#B9C3CA" opacity="0.80784315" transform="translate(44,29)"/>
<path d="M0,0 L1,0 L1,1 L0,1 Z " fill="#B1BBC3" opacity="0.7764706" transform="translate(18,29)"/>
<path d="M0,0 L1,0 L1,1 L0,1 Z " fill="#A7B2BD" opacity="0.94509804" transform="translate(17,29)"/>
<path d="M0,0 L1,0 L1,1 L0,1 Z " fill="#A7B2BD" opacity="0.94509804" transform="translate(14,29)"/>
<path d="M0,0 L1,0 L1,1 L0,1 Z " fill="#B9C3CA" opacity="0.80784315" transform="translate(12,29)"/>
<path d="M0,0 L1,0 L1,1 L0,1 Z " fill="#BBC4CB" transform="translate(0,25)"/>
<path d="M0,0 L1,0 L1,1 L0,1 Z " fill="#CED4D9" opacity="0.85490197" transform="translate(63,24)"/>
<path d="M0,0 L1,0 L1,1 L0,1 Z " fill="#C4CED3" opacity="0.7647059" transform="translate(61,24)"/>
<path d="M0,0 L1,0 L1,1 L0,1 Z " fill="#BCC6CC" opacity="0.9490196" transform="translate(60,24)"/>
<path d="M0,0 L1,0 L1,1 L0,1 Z " fill="#BDC4CD" opacity="0.94509804" transform="translate(35,24)"/>
<path d="M0,0 L1,0 L1,1 L0,1 Z " fill="#C6CCD3" opacity="0.7647059" transform="translate(34,24)"/>
<path d="M0,0 L1,0 L1,1 L0,1 Z " fill="#CCD2D8" opacity="0.78039217" transform="translate(33,24)"/>
<path d="M0,0 L1,0 L1,1 L0,1 Z " fill="#CDD4D9" opacity="0.8352941" transform="translate(31,24)"/>
<path d="M0,0 L1,0 L1,1 L0,1 Z " fill="#C4CED3" opacity="0.7647059" transform="translate(29,24)"/>
<path d="M0,0 L1,0 L1,1 L0,1 Z " fill="#BCC6CC" opacity="0.9490196" transform="translate(28,24)"/>
<path d="M0,0 L1,0 L1,1 L0,1 Z " fill="#BDC4CD" opacity="0.94509804" transform="translate(3,24)"/>
<path d="M0,0 L1,0 L1,1 L0,1 Z " fill="#C6CCD3" opacity="0.7647059" transform="translate(2,24)"/>
<path d="M0,0 L1,0 L1,1 L0,1 Z " fill="#CDD4D9" opacity="0.85882354" transform="translate(0,24)"/>
<path d="M0,0 L1,0 L1,1 L0,1 Z " fill="#CFD4DA" opacity="0.95686275" transform="translate(60,23)"/>
<path d="M0,0 L1,0 L1,1 L0,1 Z " fill="#C9D0D5" opacity="0.7529412" transform="translate(59,23)"/>
<path d="M0,0 L1,0 L1,1 L0,1 Z " fill="#BDC6CC" opacity="0.92941177" transform="translate(58,23)"/>
<path d="M0,0 L1,0 L1,1 L0,1 Z " fill="#BDC5CD" opacity="0.92156863" transform="translate(37,23)"/>
<path d="M0,0 L1,0 L1,1 L0,1 Z " fill="#CAD1D6" opacity="0.7529412" transform="translate(36,23)"/>
<path d="M0,0 L1,0 L1,1 L0,1 Z " fill="#CFD5DA" opacity="0.9647059" transform="translate(35,23)"/>
<path d="M0,0 L1,0 L1,1 L0,1 Z " fill="#CFD4DA" opacity="0.95686275" transform="translate(28,23)"/>
<path d="M0,0 L1,0 L1,1 L0,1 Z " fill="#C9D0D5" opacity="0.7529412" transform="translate(27,23)"/>
<path d="M0,0 L1,0 L1,1 L0,1 Z " fill="#BDC6CC" opacity="0.92941177" transform="translate(26,23)"/>
<path d="M0,0 L1,0 L1,1 L0,1 Z " fill="#BDC5CD" opacity="0.92156863" transform="translate(5,23)"/>
<path d="M0,0 L1,0 L1,1 L0,1 Z " fill="#CAD1D6" opacity="0.7529412" transform="translate(4,23)"/>
<path d="M0,0 L1,0 L1,1 L0,1 Z " fill="#CFD5DA" opacity="0.9647059" transform="translate(3,23)"/>
<path d="M0,0 L1,0 L1,1 L0,1 Z " fill="#CFD4DA" opacity="0.95686275" transform="translate(58,22)"/>
<path d="M0,0 L1,0 L1,1 L0,1 Z " fill="#C9D0D6" opacity="0.7529412" transform="translate(57,22)"/>
<path d="M0,0 L1,0 L1,1 L0,1 Z " fill="#BDC6CC" opacity="0.92941177" transform="translate(56,22)"/>
<path d="M0,0 L1,0 L1,1 L0,1 Z " fill="#BDC5CD" opacity="0.92156863" transform="translate(39,22)"/>
<path d="M0,0 L1,0 L1,1 L0,1 Z " fill="#CAD1D6" opacity="0.7529412" transform="translate(38,22)"/>
<path d="M0,0 L1,0 L1,1 L0,1 Z " fill="#CFD5DA" opacity="0.9647059" transform="translate(37,22)"/>
<path d="M0,0 L1,0 L1,1 L0,1 Z " fill="#CFD4DA" opacity="0.95686275" transform="translate(26,22)"/>
<path d="M0,0 L1,0 L1,1 L0,1 Z " fill="#C9D0D6" opacity="0.7529412" transform="translate(25,22)"/>
<path d="M0,0 L1,0 L1,1 L0,1 Z " fill="#BDC6CC" opacity="0.92941177" transform="translate(24,22)"/>
<path d="M0,0 L1,0 L1,1 L0,1 Z " fill="#BDC5CD" opacity="0.92156863" transform="translate(7,22)"/>
<path d="M0,0 L1,0 L1,1 L0,1 Z " fill="#CAD1D6" opacity="0.7529412" transform="translate(6,22)"/>
<path d="M0,0 L1,0 L1,1 L0,1 Z " fill="#CFD5DA" opacity="0.9647059" transform="translate(5,22)"/>
<path d="M0,0 L1,0 L1,1 L0,1 Z " fill="#CED5DA" opacity="0.9607843" transform="translate(56,21)"/>
<path d="M0,0 L1,0 L1,1 L0,1 Z " fill="#C9D0D6" opacity="0.7529412" transform="translate(55,21)"/>
<path d="M0,0 L1,0 L1,1 L0,1 Z " fill="#BDC6CD" opacity="0.9254902" transform="translate(54,21)"/>
<path d="M0,0 L1,0 L1,1 L0,1 Z " fill="#BDC5CD" opacity="0.92156863" transform="translate(41,21)"/>
<path d="M0,0 L1,0 L1,1 L0,1 Z " fill="#CAD1D6" opacity="0.7529412" transform="translate(40,21)"/>
<path d="M0,0 L1,0 L1,1 L0,1 Z " fill="#CFD5DA" opacity="0.9647059" transform="translate(39,21)"/>
<path d="M0,0 L1,0 L1,1 L0,1 Z " fill="#CED5DA" opacity="0.9607843" transform="translate(24,21)"/>
<path d="M0,0 L1,0 L1,1 L0,1 Z " fill="#C9D0D6" opacity="0.7529412" transform="translate(23,21)"/>
<path d="M0,0 L1,0 L1,1 L0,1 Z " fill="#BDC6CD" opacity="0.9254902" transform="translate(22,21)"/>
<path d="M0,0 L1,0 L1,1 L0,1 Z " fill="#BDC5CD" opacity="0.92156863" transform="translate(9,21)"/>
<path d="M0,0 L1,0 L1,1 L0,1 Z " fill="#CAD1D6" opacity="0.7529412" transform="translate(8,21)"/>
<path d="M0,0 L1,0 L1,1 L0,1 Z " fill="#CFD5DA" opacity="0.9647059" transform="translate(7,21)"/>
<path d="M0,0 L1,0 L1,1 L0,1 Z " fill="#CFD5DA" transform="translate(0,21)"/>
<path d="M0,0 L1,0 L1,1 L0,1 Z " fill="#AEB9C2" opacity="0.85490197" transform="translate(63,20)"/>
<path d="M0,0 L1,0 L1,1 L0,1 Z " fill="#C6CED3" opacity="0.7647059" transform="translate(61,20)"/>
<path d="M0,0 L1,0 L1,1 L0,1 Z " fill="#CFD5D9" opacity="0.9490196" transform="translate(60,20)"/>
<path d="M0,0 L1,0 L1,1 L0,1 Z " fill="#CED5DA" opacity="0.9607843" transform="translate(54,20)"/>
<path d="M0,0 L1,0 L1,1 L0,1 Z " fill="#C9D0D6" opacity="0.7529412" transform="translate(53,20)"/>
<path d="M0,0 L1,0 L1,1 L0,1 Z " fill="#BDC6CD" opacity="0.9254902" transform="translate(52,20)"/>
<path d="M0,0 L1,0 L1,1 L0,1 Z " fill="#BDC5CD" opacity="0.92156863" transform="translate(43,20)"/>
<path d="M0,0 L1,0 L1,1 L0,1 Z " fill="#CAD1D6" opacity="0.7529412" transform="translate(42,20)"/>
<path d="M0,0 L1,0 L1,1 L0,1 Z " fill="#CFD5DA" opacity="0.9647059" transform="translate(41,20)"/>
<path d="M0,0 L1,0 L1,1 L0,1 Z " fill="#CED4D9" opacity="0.94509804" transform="translate(35,20)"/>
<path d="M0,0 L1,0 L1,1 L0,1 Z " fill="#C6CED3" opacity="0.7647059" transform="translate(34,20)"/>
<path d="M0,0 L1,0 L1,1 L0,1 Z " fill="#B7C2C9" opacity="0.78039217" transform="translate(33,20)"/>
<path d="M0,0 L1,0 L1,1 L0,1 Z " fill="#B0BBC2" opacity="0.8352941" transform="translate(31,20)"/>
<path d="M0,0 L1,0 L1,1 L0,1 Z " fill="#C6CED3" opacity="0.7647059" transform="translate(29,20)"/>
<path d="M0,0 L1,0 L1,1 L0,1 Z " fill="#CFD5D9" opacity="0.9490196" transform="translate(28,20)"/>
<path d="M0,0 L1,0 L1,1 L0,1 Z " fill="#CED5DA" opacity="0.9607843" transform="translate(22,20)"/>
<path d="M0,0 L1,0 L1,1 L0,1 Z " fill="#C9D0D6" opacity="0.7529412" transform="translate(21,20)"/>
<path d="M0,0 L1,0 L1,1 L0,1 Z " fill="#BDC6CD" opacity="0.9254902" transform="translate(20,20)"/>
<path d="M0,0 L1,0 L1,1 L0,1 Z " fill="#BDC5CD" opacity="0.92156863" transform="translate(11,20)"/>
<path d="M0,0 L1,0 L1,1 L0,1 Z " fill="#CAD1D6" opacity="0.7529412" transform="translate(10,20)"/>
<path d="M0,0 L1,0 L1,1 L0,1 Z " fill="#CFD5DA" opacity="0.9647059" transform="translate(9,20)"/>
<path d="M0,0 L1,0 L1,1 L0,1 Z " fill="#CED4D9" opacity="0.94509804" transform="translate(3,20)"/>
<path d="M0,0 L1,0 L1,1 L0,1 Z " fill="#C6CED3" opacity="0.7647059" transform="translate(2,20)"/>
<path d="M0,0 L1,0 L1,1 L0,1 Z " fill="#AFB9C2" opacity="0.85882354" transform="translate(0,20)"/>
<path d="M0,0 L1,0 L1,1 L0,1 Z " fill="#A7B4BB" opacity="0.95686275" transform="translate(60,19)"/>
<path d="M0,0 L1,0 L1,1 L0,1 Z " fill="#BEC8D0" opacity="0.7529412" transform="translate(59,19)"/>
<path d="M0,0 L1,0 L1,1 L0,1 Z " fill="#CFD5DA" opacity="0.92941177" transform="translate(58,19)"/>
<path d="M0,0 L1,0 L1,1 L0,1 Z " fill="#CAD1D6" opacity="0.7529412" transform="translate(51,19)"/>
<path d="M0,0 L1,0 L1,1 L0,1 Z " fill="#BDC5CD" opacity="0.92156863" transform="translate(50,19)"/>
<path d="M0,0 L1,0 L1,1 L0,1 Z " fill="#BDC5CD" opacity="0.92156863" transform="translate(45,19)"/>
<path d="M0,0 L1,0 L1,1 L0,1 Z " fill="#CAD1D6" opacity="0.7529412" transform="translate(44,19)"/>
<path d="M0,0 L1,0 L1,1 L0,1 Z " fill="#CFD5DA" opacity="0.9647059" transform="translate(43,19)"/>
<path d="M0,0 L1,0 L1,1 L0,1 Z " fill="#BEC8CE" opacity="0.7529412" transform="translate(36,19)"/>
<path d="M0,0 L1,0 L1,1 L0,1 Z " fill="#A8B2BD" opacity="0.9647059" transform="translate(35,19)"/>
<path d="M0,0 L1,0 L1,1 L0,1 Z " fill="#A7B4BB" opacity="0.95686275" transform="translate(28,19)"/>
<path d="M0,0 L1,0 L1,1 L0,1 Z " fill="#BEC8D0" opacity="0.7529412" transform="translate(27,19)"/>
<path d="M0,0 L1,0 L1,1 L0,1 Z " fill="#CFD5DA" opacity="0.92941177" transform="translate(26,19)"/>
<path d="M0,0 L1,0 L1,1 L0,1 Z " fill="#CAD1D6" opacity="0.7529412" transform="translate(19,19)"/>
<path d="M0,0 L1,0 L1,1 L0,1 Z " fill="#BDC5CD" opacity="0.92156863" transform="translate(18,19)"/>
<path d="M0,0 L1,0 L1,1 L0,1 Z " fill="#BDC5CD" opacity="0.92156863" transform="translate(13,19)"/>
<path d="M0,0 L1,0 L1,1 L0,1 Z " fill="#CAD1D6" opacity="0.7529412" transform="translate(12,19)"/>
<path d="M0,0 L1,0 L1,1 L0,1 Z " fill="#CFD5DA" opacity="0.9647059" transform="translate(11,19)"/>
<path d="M0,0 L1,0 L1,1 L0,1 Z " fill="#BEC8CE" opacity="0.7529412" transform="translate(4,19)"/>
<path d="M0,0 L1,0 L1,1 L0,1 Z " fill="#A8B2BD" opacity="0.9647059" transform="translate(3,19)"/>
<path d="M0,0 L1,0 L1,1 L0,1 Z " fill="#A7B4BB" opacity="0.95686275" transform="translate(58,18)"/>
<path d="M0,0 L1,0 L1,1 L0,1 Z " fill="#C0C8D0" opacity="0.7529412" transform="translate(57,18)"/>
<path d="M0,0 L1,0 L1,1 L0,1 Z " fill="#CFD5DA" opacity="0.92941177" transform="translate(56,18)"/>
<path d="M0,0 L1,0 L1,1 L0,1 Z " fill="#CAD1D6" opacity="0.7529412" transform="translate(49,18)"/>
<path d="M0,0 L1,0 L1,1 L0,1 Z " fill="#CAD1D6" opacity="0.7529412" transform="translate(46,18)"/>
<path d="M0,0 L1,0 L1,1 L0,1 Z " fill="#CFD5DA" opacity="0.9647059" transform="translate(45,18)"/>
<path d="M0,0 L1,0 L1,1 L0,1 Z " fill="#BEC8CE" opacity="0.7529412" transform="translate(38,18)"/>
<path d="M0,0 L1,0 L1,1 L0,1 Z " fill="#A8B2BD" opacity="0.9647059" transform="translate(37,18)"/>
<path d="M0,0 L1,0 L1,1 L0,1 Z " fill="#A7B4BB" opacity="0.95686275" transform="translate(26,18)"/>
<path d="M0,0 L1,0 L1,1 L0,1 Z " fill="#C0C8D0" opacity="0.7529412" transform="translate(25,18)"/>
<path d="M0,0 L1,0 L1,1 L0,1 Z " fill="#CFD5DA" opacity="0.92941177" transform="translate(24,18)"/>
<path d="M0,0 L1,0 L1,1 L0,1 Z " fill="#CAD1D6" opacity="0.7529412" transform="translate(17,18)"/>
<path d="M0,0 L1,0 L1,1 L0,1 Z " fill="#CAD1D6" opacity="0.7529412" transform="translate(14,18)"/>
<path d="M0,0 L1,0 L1,1 L0,1 Z " fill="#CFD5DA" opacity="0.9647059" transform="translate(13,18)"/>
<path d="M0,0 L1,0 L1,1 L0,1 Z " fill="#BEC8CE" opacity="0.7529412" transform="translate(6,18)"/>
<path d="M0,0 L1,0 L1,1 L0,1 Z " fill="#A8B2BD" opacity="0.9647059" transform="translate(5,18)"/>
<path d="M0,0 L1,0 L1,1 L0,1 Z " fill="#A8B3BD" opacity="0.9607843" transform="translate(56,17)"/>
<path d="M0,0 L1,0 L1,1 L0,1 Z " fill="#C0C6CE" opacity="0.7529412" transform="translate(55,17)"/>
<path d="M0,0 L1,0 L1,1 L0,1 Z " fill="#CFD5DA" opacity="0.9254902" transform="translate(54,17)"/>
<path d="M0,0 L1,0 L1,1 L0,1 Z " fill="#BEC8CE" opacity="0.7529412" transform="translate(40,17)"/>
<path d="M0,0 L1,0 L1,1 L0,1 Z " fill="#A8B2BD" opacity="0.9647059" transform="translate(39,17)"/>
<path d="M0,0 L1,0 L1,1 L0,1 Z " fill="#A8B3BD" opacity="0.9607843" transform="translate(24,17)"/>
<path d="M0,0 L1,0 L1,1 L0,1 Z " fill="#C0C6CE" opacity="0.7529412" transform="translate(23,17)"/>
<path d="M0,0 L1,0 L1,1 L0,1 Z " fill="#CFD5DA" opacity="0.9254902" transform="translate(22,17)"/>
<path d="M0,0 L1,0 L1,1 L0,1 Z " fill="#BEC8CE" opacity="0.7529412" transform="translate(8,17)"/>
<path d="M0,0 L1,0 L1,1 L0,1 Z " fill="#A8B2BD" opacity="0.9647059" transform="translate(7,17)"/>
<path d="M0,0 L1,0 L1,1 L0,1 Z " fill="#A8B3BD" opacity="0.9607843" transform="translate(54,16)"/>
<path d="M0,0 L1,0 L1,1 L0,1 Z " fill="#C0C8CE" opacity="0.7529412" transform="translate(53,16)"/>
<path d="M0,0 L1,0 L1,1 L0,1 Z " fill="#CFD5DA" opacity="0.9254902" transform="translate(52,16)"/>
<path d="M0,0 L1,0 L1,1 L0,1 Z " fill="#BEC8CE" opacity="0.7529412" transform="translate(42,16)"/>
<path d="M0,0 L1,0 L1,1 L0,1 Z " fill="#A8B2BD" opacity="0.9647059" transform="translate(41,16)"/>
<path d="M0,0 L1,0 L1,1 L0,1 Z " fill="#A8B3BD" opacity="0.9607843" transform="translate(22,16)"/>
<path d="M0,0 L1,0 L1,1 L0,1 Z " fill="#C0C8CE" opacity="0.7529412" transform="translate(21,16)"/>
<path d="M0,0 L1,0 L1,1 L0,1 Z " fill="#CFD5DA" opacity="0.9254902" transform="translate(20,16)"/>
<path d="M0,0 L1,0 L1,1 L0,1 Z " fill="#BEC8CE" opacity="0.7529412" transform="translate(10,16)"/>
<path d="M0,0 L1,0 L1,1 L0,1 Z " fill="#A8B2BD" opacity="0.9647059" transform="translate(9,16)"/>
<path d="M0,0 L1,0 L1,1 L0,1 Z " fill="#A8B3BD" opacity="0.9607843" transform="translate(52,15)"/>
<path d="M0,0 L1,0 L1,1 L0,1 Z " fill="#C0C9CE" opacity="0.7529412" transform="translate(51,15)"/>
<path d="M0,0 L1,0 L1,1 L0,1 Z " fill="#D0D5DA" opacity="0.92156863" transform="translate(50,15)"/>
<path d="M0,0 L1,0 L1,1 L0,1 Z " fill="#BEC8CE" opacity="0.7529412" transform="translate(44,15)"/>
<path d="M0,0 L1,0 L1,1 L0,1 Z " fill="#A8B2BD" opacity="0.9647059" transform="translate(43,15)"/>
<path d="M0,0 L1,0 L1,1 L0,1 Z " fill="#A8B3BD" opacity="0.9607843" transform="translate(20,15)"/>
<path d="M0,0 L1,0 L1,1 L0,1 Z " fill="#C0C9CE" opacity="0.7529412" transform="translate(19,15)"/>
<path d="M0,0 L1,0 L1,1 L0,1 Z " fill="#D0D5DA" opacity="0.92156863" transform="translate(18,15)"/>
<path d="M0,0 L1,0 L1,1 L0,1 Z " fill="#BEC8CE" opacity="0.7529412" transform="translate(12,15)"/>
<path d="M0,0 L1,0 L1,1 L0,1 Z " fill="#A8B2BD" opacity="0.9647059" transform="translate(11,15)"/>
<path d="M0,0 L1,0 L1,1 L0,1 Z " fill="#A8B2BD" opacity="0.9647059" transform="translate(50,14)"/>
<path d="M0,0 L1,0 L1,1 L0,1 Z " fill="#BEC8CE" opacity="0.7529412" transform="translate(49,14)"/>
<path d="M0,0 L1,0 L1,1 L0,1 Z " fill="#D0D5DA" opacity="0.92156863" transform="translate(48,14)"/>
<path d="M0,0 L1,0 L1,1 L0,1 Z " fill="#BEC8CE" opacity="0.7529412" transform="translate(46,14)"/>
<path d="M0,0 L1,0 L1,1 L0,1 Z " fill="#A8B2BD" opacity="0.9647059" transform="translate(45,14)"/>
<path d="M0,0 L1,0 L1,1 L0,1 Z " fill="#A6B3BB" transform="translate(38,14)"/>
<path d="M0,0 L1,0 L1,1 L0,1 Z " fill="#A8B2BD" opacity="0.9647059" transform="translate(18,14)"/>
<path d="M0,0 L1,0 L1,1 L0,1 Z " fill="#BEC8CE" opacity="0.7529412" transform="translate(17,14)"/>
<path d="M0,0 L1,0 L1,1 L0,1 Z " fill="#D0D5DA" opacity="0.92156863" transform="translate(16,14)"/>
<path d="M0,0 L1,0 L1,1 L0,1 Z " fill="#BEC8CE" opacity="0.7529412" transform="translate(14,14)"/>
<path d="M0,0 L1,0 L1,1 L0,1 Z " fill="#A8B2BD" opacity="0.9647059" transform="translate(13,14)"/>
<path d="M0,0 L1,0 L1,1 L0,1 Z " fill="#A7B2BB" transform="translate(42,13)"/>
<path d="M0,0 L1,0 L1,1 L0,1 Z " fill="#B4BFC5" transform="translate(41,13)"/>
<path d="M0,0 L1,0 L1,1 L0,1 Z " fill="#B4BFC5" transform="translate(38,13)"/>
<path d="M0,0 L1,0 L1,1 L0,1 Z " fill="#ADB8C0" transform="translate(42,11)"/>
<path d="M0,0 L1,0 L1,1 L0,1 Z " fill="#ADB8C1" transform="translate(37,11)"/>
<path d="M0,0 L1,0 L1,1 L0,1 Z " fill="#A6B2BB" transform="translate(0,11)"/>
<path d="M0,0 L1,0 L1,1 L0,1 Z " fill="#B6C1C9" opacity="0.76862746" transform="translate(63,10)"/>
<path d="M0,0 L1,0 L1,1 L0,1 Z " fill="#ABB5BD" opacity="0.8745098" transform="translate(62,10)"/>
<path d="M0,0 L1,0 L1,1 L0,1 Z " fill="#B3BDC5" transform="translate(41,10)"/>
<path d="M0,0 L1,0 L1,1 L0,1 Z " fill="#B3BDC5" transform="translate(38,10)"/>
<path d="M0,0 L1,0 L1,1 L0,1 Z " fill="#ABB5BD" opacity="0.8745098" transform="translate(33,10)"/>
<path d="M0,0 L1,0 L1,1 L0,1 Z " fill="#B6C1C9" opacity="0.76862746" transform="translate(31,10)"/>
<path d="M0,0 L1,0 L1,1 L0,1 Z " fill="#ABB5BD" opacity="0.8745098" transform="translate(30,10)"/>
<path d="M0,0 L1,0 L1,1 L0,1 Z " fill="#B7C1C8" opacity="0.77254903" transform="translate(0,10)"/>
<path d="M0,0 L1,0 L1,1 L0,1 Z " fill="#BBC4CB" opacity="0.99215686" transform="translate(62,9)"/>
<path d="M0,0 L1,0 L1,1 L0,1 Z " fill="#B8C1C9" opacity="0.76862746" transform="translate(61,9)"/>
<path d="M0,0 L1,0 L1,1 L0,1 Z " fill="#A9B4BE" opacity="0.88235295" transform="translate(60,9)"/>
<path d="M0,0 L1,0 L1,1 L0,1 Z " fill="#A9B4BD" opacity="0.8784314" transform="translate(35,9)"/>
<path d="M0,0 L1,0 L1,1 L0,1 Z " fill="#B8C1C9" opacity="0.76862746" transform="translate(34,9)"/>
<path d="M0,0 L1,0 L1,1 L0,1 Z " fill="#BBC4CB" opacity="0.99215686" transform="translate(33,9)"/>
<path d="M0,0 L1,0 L1,1 L0,1 Z " fill="#BBC4CB" opacity="0.99215686" transform="translate(30,9)"/>
<path d="M0,0 L1,0 L1,1 L0,1 Z " fill="#B8C1C9" opacity="0.76862746" transform="translate(29,9)"/>
<path d="M0,0 L1,0 L1,1 L0,1 Z " fill="#A9B4BE" opacity="0.88235295" transform="translate(28,9)"/>
<path d="M0,0 L1,0 L1,1 L0,1 Z " fill="#A9B4BD" opacity="0.8784314" transform="translate(3,9)"/>
<path d="M0,0 L1,0 L1,1 L0,1 Z " fill="#B8C1C9" opacity="0.76862746" transform="translate(2,9)"/>
<path d="M0,0 L1,0 L1,1 L0,1 Z " fill="#BBC4CB" opacity="0.99215686" transform="translate(1,9)"/>
<path d="M0,0 L1,0 L1,1 L0,1 Z " fill="#BBC4CB" opacity="0.99215686" transform="translate(60,8)"/>
<path d="M0,0 L1,0 L1,1 L0,1 Z " fill="#B6C1C7" opacity="0.76862746" transform="translate(59,8)"/>
<path d="M0,0 L1,0 L1,1 L0,1 Z " fill="#A9B6BF" opacity="0.88235295" transform="translate(58,8)"/>
<path d="M0,0 L1,0 L1,1 L0,1 Z " fill="#A9B4BE" opacity="0.88235295" transform="translate(37,8)"/>
<path d="M0,0 L1,0 L1,1 L0,1 Z " fill="#B8C1C7" opacity="0.76862746" transform="translate(36,8)"/>
<path d="M0,0 L1,0 L1,1 L0,1 Z " fill="#BBC4CB" opacity="0.99215686" transform="translate(35,8)"/>
<path d="M0,0 L1,0 L1,1 L0,1 Z " fill="#BBC4CB" opacity="0.99215686" transform="translate(28,8)"/>
<path d="M0,0 L1,0 L1,1 L0,1 Z " fill="#B6C1C7" opacity="0.76862746" transform="translate(27,8)"/>
<path d="M0,0 L1,0 L1,1 L0,1 Z " fill="#A9B6BF" opacity="0.88235295" transform="translate(26,8)"/>
<path d="M0,0 L1,0 L1,1 L0,1 Z " fill="#A9B4BE" opacity="0.88235295" transform="translate(5,8)"/>
<path d="M0,0 L1,0 L1,1 L0,1 Z " fill="#B8C1C7" opacity="0.76862746" transform="translate(4,8)"/>
<path d="M0,0 L1,0 L1,1 L0,1 Z " fill="#BBC4CB" opacity="0.99215686" transform="translate(3,8)"/>
<path d="M0,0 L1,0 L1,1 L0,1 Z " fill="#BAC4CB" opacity="0.9882353" transform="translate(58,7)"/>
<path d="M0,0 L1,0 L1,1 L0,1 Z " fill="#B7C0C8" opacity="0.7647059" transform="translate(57,7)"/>
<path d="M0,0 L1,0 L1,1 L0,1 Z " fill="#A9B4BD" opacity="0.8901961" transform="translate(56,7)"/>
<path d="M0,0 L1,0 L1,1 L0,1 Z " fill="#B6C1C7" opacity="0.76862746" transform="translate(38,7)"/>
<path d="M0,0 L1,0 L1,1 L0,1 Z " fill="#BAC4CB" opacity="0.9882353" transform="translate(37,7)"/>
<path d="M0,0 L1,0 L1,1 L0,1 Z " fill="#BAC4CB" opacity="0.9882353" transform="translate(26,7)"/>
<path d="M0,0 L1,0 L1,1 L0,1 Z " fill="#B7C0C8" opacity="0.7647059" transform="translate(25,7)"/>
<path d="M0,0 L1,0 L1,1 L0,1 Z " fill="#A9B4BD" opacity="0.8901961" transform="translate(24,7)"/>
<path d="M0,0 L1,0 L1,1 L0,1 Z " fill="#B6C1C7" opacity="0.76862746" transform="translate(6,7)"/>
<path d="M0,0 L1,0 L1,1 L0,1 Z " fill="#BAC4CB" opacity="0.9882353" transform="translate(5,7)"/>
<path d="M0,0 L1,0 L1,1 L0,1 Z " fill="#BAC4CB" opacity="0.9882353" transform="translate(56,6)"/>
<path d="M0,0 L1,0 L1,1 L0,1 Z " fill="#B6C0C7" opacity="0.7647059" transform="translate(55,6)"/>
<path d="M0,0 L1,0 L1,1 L0,1 Z " fill="#A8B4BC" opacity="0.89411765" transform="translate(54,6)"/>
<path d="M0,0 L1,0 L1,1 L0,1 Z " fill="#A9B5BD" opacity="0.8862745" transform="translate(41,6)"/>
<path d="M0,0 L1,0 L1,1 L0,1 Z " fill="#B7C0C8" opacity="0.7647059" transform="translate(40,6)"/>
<path d="M0,0 L1,0 L1,1 L0,1 Z " fill="#BAC4CB" opacity="0.9882353" transform="translate(39,6)"/>
<path d="M0,0 L1,0 L1,1 L0,1 Z " fill="#BAC4CB" opacity="0.9882353" transform="translate(24,6)"/>
<path d="M0,0 L1,0 L1,1 L0,1 Z " fill="#B6C0C7" opacity="0.7647059" transform="translate(23,6)"/>
<path d="M0,0 L1,0 L1,1 L0,1 Z " fill="#A8B4BC" opacity="0.89411765" transform="translate(22,6)"/>
<path d="M0,0 L1,0 L1,1 L0,1 Z " fill="#A9B5BD" opacity="0.8862745" transform="translate(9,6)"/>
<path d="M0,0 L1,0 L1,1 L0,1 Z " fill="#B7C0C8" opacity="0.7647059" transform="translate(8,6)"/>
<path d="M0,0 L1,0 L1,1 L0,1 Z " fill="#BAC4CB" opacity="0.9882353" transform="translate(7,6)"/>
<path d="M0,0 L1,0 L1,1 L0,1 Z " fill="#B6BFC6" opacity="0.7647059" transform="translate(53,5)"/>
<path d="M0,0 L1,0 L1,1 L0,1 Z " fill="#A9B3BE" opacity="0.8980392" transform="translate(52,5)"/>
<path d="M0,0 L1,0 L1,1 L0,1 Z " fill="#A9B4BD" opacity="0.8901961" transform="translate(43,5)"/>
<path d="M0,0 L1,0 L1,1 L0,1 Z " fill="#B7C0C8" opacity="0.7647059" transform="translate(42,5)"/>
<path d="M0,0 L1,0 L1,1 L0,1 Z " fill="#BAC4CB" opacity="0.9882353" transform="translate(41,5)"/>
<path d="M0,0 L1,0 L1,1 L0,1 Z " fill="#B6BFC6" opacity="0.7647059" transform="translate(21,5)"/>
<path d="M0,0 L1,0 L1,1 L0,1 Z " fill="#A9B3BE" opacity="0.8980392" transform="translate(20,5)"/>
<path d="M0,0 L1,0 L1,1 L0,1 Z " fill="#A9B4BD" opacity="0.8901961" transform="translate(11,5)"/>
<path d="M0,0 L1,0 L1,1 L0,1 Z " fill="#B7C0C8" opacity="0.7647059" transform="translate(10,5)"/>
<path d="M0,0 L1,0 L1,1 L0,1 Z " fill="#BAC4CB" opacity="0.9882353" transform="translate(9,5)"/>
<path d="M0,0 L1,0 L1,1 L0,1 Z " fill="#BBC4CB" opacity="0.98039216" transform="translate(52,4)"/>
<path d="M0,0 L1,0 L1,1 L0,1 Z " fill="#ABB7C0" opacity="0.81960785" transform="translate(50,4)"/>
<path d="M0,0 L1,0 L1,1 L0,1 Z " fill="#B8C1C9" opacity="0.76862746" transform="translate(44,4)"/>
<path d="M0,0 L1,0 L1,1 L0,1 Z " fill="#BBC3CA" opacity="0.9843137" transform="translate(43,4)"/>
<path d="M0,0 L1,0 L1,1 L0,1 Z " fill="#BBC4CB" opacity="0.98039216" transform="translate(20,4)"/>
<path d="M0,0 L1,0 L1,1 L0,1 Z " fill="#ABB7C0" opacity="0.81960785" transform="translate(18,4)"/>
<path d="M0,0 L1,0 L1,1 L0,1 Z " fill="#B8C1C9" opacity="0.76862746" transform="translate(12,4)"/>
<path d="M0,0 L1,0 L1,1 L0,1 Z " fill="#BBC3CA" opacity="0.9843137" transform="translate(11,4)"/>
<path d="M0,0 L1,0 L1,1 L0,1 Z " fill="#BAC4CB" opacity="0.972549" transform="translate(49,3)"/>
<path d="M0,0 L1,0 L1,1 L0,1 Z " fill="#B9C4CB" opacity="0.8745098" transform="translate(47,3)"/>
<path d="M0,0 L1,0 L1,1 L0,1 Z " fill="#BAC4CB" opacity="0.972549" transform="translate(46,3)"/>
<path d="M0,0 L1,0 L1,1 L0,1 Z " fill="#BAC4CB" opacity="0.972549" transform="translate(17,3)"/>
<path d="M0,0 L1,0 L1,1 L0,1 Z " fill="#B9C4CB" opacity="0.8745098" transform="translate(15,3)"/>
<path d="M0,0 L1,0 L1,1 L0,1 Z " fill="#BAC4CB" opacity="0.972549" transform="translate(14,3)"/>
</svg>
