<?xml version="1.0" encoding="UTF-8"?>
<!-- Generator: visioncortex VTracer 0.6.4 -->
<svg version="1.1" xmlns="http://www.w3.org/2000/svg" width="64" height="64">
<path d="M0,0 L52,0 L52,18 L47,18 L47,19 L46,19 L46,20 L48,20 L48,19 L52,19 L52,22 L47,22 L47,23 L46,23 L46,24 L48,24 L48,23 L52,23 L52,26 L47,26 L47,27 L46,27 L46,28 L48,28 L48,27 L52,27 L52,30 L47,30 L47,31 L46,31 L46,32 L48,32 L48,31 L52,31 L52,40 L47,40 L47,41 L46,41 L46,42 L48,42 L48,41 L52,41 L52,44 L48,44 L48,45 L47,45 L47,46 L46,46 L46,47 L45,47 L45,48 L44,48 L44,49 L42,49 L42,50 L40,50 L40,51 L32,51 L32,50 L30,50 L30,49 L28,49 L28,48 L27,48 L27,47 L26,47 L26,46 L25,46 L25,45 L24,45 L24,44 L16,44 L16,45 L15,45 L15,46 L14,46 L14,47 L13,47 L13,48 L12,48 L12,49 L10,49 L10,50 L8,50 L8,51 L0,51 L0,50 L-2,50 L-2,49 L-4,49 L-4,48 L-5,48 L-5,47 L-6,47 L-6,46 L-7,46 L-7,45 L-8,45 L-8,44 L-9,44 L-9,42 L-10,42 L-10,40 L-11,40 L-11,36 L-12,36 L-12,12 L-11,12 L-11,7 L-10,7 L-10,5 L-9,5 L-9,4 L-8,4 L-8,3 L-7,3 L-7,2 L-5,2 L-5,1 L0,1 Z M-5,4 L-5,5 L-6,5 L-6,6 L-7,6 L-7,7 L-8,7 L-8,16 L-7,16 L-7,12 L-6,12 L-6,11 L-5,11 L-5,10 L-4,10 L-4,9 L0,9 L0,8 L-5,8 L-5,9 L-6,9 L-6,10 L-7,10 L-7,8 L-6,8 L-6,7 L-5,7 L-5,6 L-4,6 L-4,5 L0,5 L0,4 Z M-8,18 L-8,20 L-6,20 L-6,19 L-7,19 L-7,18 Z M15,18 L15,19 L14,19 L14,20 L16,20 L16,19 L24,19 L24,20 L26,20 L26,19 L25,19 L25,18 Z M-6,20 L-6,21 L-5,21 L-5,22 L-4,22 L-4,23 L-3,23 L-3,24 L-2,24 L-2,25 L0,25 L0,26 L8,26 L8,25 L10,25 L10,24 L11,24 L11,23 L12,23 L12,22 L13,22 L13,21 L14,21 L14,20 L12,20 L12,21 L11,21 L11,22 L10,22 L10,23 L9,23 L9,24 L7,24 L7,25 L1,25 L1,24 L-1,24 L-1,23 L-2,23 L-2,22 L-3,22 L-3,21 L-4,21 L-4,20 Z M26,20 L26,21 L27,21 L27,22 L28,22 L28,23 L29,23 L29,24 L30,24 L30,25 L32,25 L32,26 L40,26 L40,25 L42,25 L42,24 L43,24 L43,23 L44,23 L44,22 L45,22 L45,21 L46,21 L46,20 L44,20 L44,21 L43,21 L43,22 L42,22 L42,23 L41,23 L41,24 L39,24 L39,25 L33,25 L33,24 L31,24 L31,23 L30,23 L30,22 L29,22 L29,21 L28,21 L28,20 Z M-8,22 L-8,24 L-6,24 L-6,23 L-7,23 L-7,22 Z M15,22 L15,23 L14,23 L14,24 L16,24 L16,23 L24,23 L24,24 L26,24 L26,23 L25,23 L25,22 Z M-6,24 L-6,25 L-5,25 L-5,26 L-4,26 L-4,27 L-3,27 L-3,28 L-2,28 L-2,29 L0,29 L0,30 L8,30 L8,29 L10,29 L10,28 L11,28 L11,27 L12,27 L12,26 L13,26 L13,25 L14,25 L14,24 L12,24 L12,25 L11,25 L11,26 L10,26 L10,27 L9,27 L9,28 L7,28 L7,29 L1,29 L1,28 L-1,28 L-1,27 L-2,27 L-2,26 L-3,26 L-3,25 L-4,25 L-4,24 Z M26,24 L26,25 L27,25 L27,26 L28,26 L28,27 L29,27 L29,28 L30,28 L30,29 L32,29 L32,30 L40,30 L40,29 L42,29 L42,28 L43,28 L43,27 L44,27 L44,26 L45,26 L45,25 L46,25 L46,24 L44,24 L44,25 L43,25 L43,26 L42,26 L42,27 L41,27 L41,28 L39,28 L39,29 L33,29 L33,28 L31,28 L31,27 L30,27 L30,26 L29,26 L29,25 L28,25 L28,24 Z M-8,26 L-8,28 L-6,28 L-6,27 L-7,27 L-7,26 Z M15,26 L15,27 L14,27 L14,28 L16,28 L16,27 L24,27 L24,28 L26,28 L26,27 L25,27 L25,26 Z M-6,28 L-6,29 L-5,29 L-5,30 L-4,30 L-4,31 L-3,31 L-3,32 L-2,32 L-2,33 L0,33 L0,34 L8,34 L8,33 L10,33 L10,32 L11,32 L11,31 L12,31 L12,30 L13,30 L13,29 L14,29 L14,28 L12,28 L12,29 L11,29 L11,30 L10,30 L10,31 L9,31 L9,32 L7,32 L7,33 L1,33 L1,32 L-1,32 L-1,31 L-2,31 L-2,30 L-3,30 L-3,29 L-4,29 L-4,28 Z M26,28 L26,29 L27,29 L27,30 L28,30 L28,31 L29,31 L29,32 L30,32 L30,33 L32,33 L32,34 L40,34 L40,33 L42,33 L42,32 L43,32 L43,31 L44,31 L44,30 L45,30 L45,29 L46,29 L46,28 L44,28 L44,29 L43,29 L43,30 L42,30 L42,31 L41,31 L41,32 L39,32 L39,33 L33,33 L33,32 L31,32 L31,31 L30,31 L30,30 L29,30 L29,29 L28,29 L28,28 Z M-8,30 L-8,32 L-6,32 L-6,31 L-7,31 L-7,30 Z M15,30 L15,31 L14,31 L14,32 L16,32 L16,31 L24,31 L24,32 L26,32 L26,31 L25,31 L25,30 Z M-6,32 L-6,33 L-5,33 L-5,34 L-4,34 L-4,35 L-3,35 L-3,36 L-2,36 L-2,37 L0,37 L0,38 L8,38 L8,37 L10,37 L10,36 L11,36 L11,35 L12,35 L12,34 L13,34 L13,33 L14,33 L14,32 L12,32 L12,33 L11,33 L11,34 L10,34 L10,35 L9,35 L9,36 L7,36 L7,37 L1,37 L1,36 L-1,36 L-1,35 L-2,35 L-2,34 L-3,34 L-3,33 L-4,33 L-4,32 Z M26,32 L26,33 L27,33 L27,34 L28,34 L28,35 L29,35 L29,36 L30,36 L30,37 L32,37 L32,38 L40,38 L40,37 L42,37 L42,36 L43,36 L43,35 L44,35 L44,34 L45,34 L45,33 L46,33 L46,32 L44,32 L44,33 L43,33 L43,34 L42,34 L42,35 L41,35 L41,36 L39,36 L39,37 L33,37 L33,36 L31,36 L31,35 L30,35 L30,34 L29,34 L29,33 L28,33 L28,32 Z M-8,36 L-8,40 L-7,40 L-7,42 L-6,42 L-6,43 L-5,43 L-5,44 L-4,44 L-4,45 L-3,45 L-3,46 L-2,46 L-2,47 L0,47 L0,48 L8,48 L8,47 L10,47 L10,46 L11,46 L11,45 L12,45 L12,44 L13,44 L13,43 L14,43 L14,42 L12,42 L12,43 L11,43 L11,44 L10,44 L10,45 L9,45 L9,46 L7,46 L7,47 L1,47 L1,46 L-1,46 L-1,45 L-2,45 L-2,44 L-3,44 L-3,43 L-4,43 L-4,42 L-5,42 L-5,41 L-6,41 L-6,39 L-7,39 L-7,36 Z M15,40 L15,41 L14,41 L14,42 L16,42 L16,41 L24,41 L24,42 L26,42 L26,41 L25,41 L25,40 Z M26,42 L26,43 L27,43 L27,44 L28,44 L28,45 L29,45 L29,46 L30,46 L30,47 L32,47 L32,48 L40,48 L40,47 L42,47 L42,46 L43,46 L43,45 L44,45 L44,44 L45,44 L45,43 L46,43 L46,42 L44,42 L44,43 L43,43 L43,44 L42,44 L42,45 L41,45 L41,46 L39,46 L39,47 L33,47 L33,46 L31,46 L31,45 L30,45 L30,44 L29,44 L29,43 L28,43 L28,42 Z " fill="#BA6BE9" transform="translate(12,0)"/>
<path d="M0,0 L8,0 L8,1 L10,1 L10,2 L11,2 L11,3 L12,3 L12,4 L13,4 L13,5 L14,5 L14,6 L16,6 L16,7 L24,7 L24,6 L26,6 L26,5 L27,5 L27,4 L28,4 L28,3 L29,3 L29,2 L30,2 L30,1 L32,1 L32,0 L36,0 L36,3 L31,3 L31,4 L30,4 L30,5 L28,5 L28,6 L27,6 L27,7 L26,7 L26,8 L25,8 L25,9 L23,9 L23,10 L17,10 L17,9 L15,9 L15,8 L14,8 L14,7 L13,7 L13,6 L12,6 L12,5 L10,5 L10,4 L9,4 L9,3 L-1,3 L-1,4 L-2,4 L-2,5 L-4,5 L-4,6 L-5,6 L-5,7 L-6,7 L-6,8 L-7,8 L-7,9 L-9,9 L-9,10 L-15,10 L-15,9 L-17,9 L-17,8 L-18,8 L-18,7 L-19,7 L-19,6 L-20,6 L-20,5 L-22,5 L-22,4 L-23,4 L-23,3 L-24,3 L-24,1 L-22,1 L-22,2 L-21,2 L-21,3 L-20,3 L-20,4 L-19,4 L-19,5 L-18,5 L-18,6 L-16,6 L-16,7 L-8,7 L-8,6 L-6,6 L-6,5 L-5,5 L-5,4 L-4,4 L-4,3 L-3,3 L-3,2 L-2,2 L-2,1 L0,1 Z M0,4 L8,4 L8,5 L10,5 L10,6 L11,6 L11,7 L12,7 L12,8 L13,8 L13,9 L14,9 L14,10 L16,10 L16,11 L24,11 L24,10 L26,10 L26,9 L27,9 L27,8 L28,8 L28,7 L29,7 L29,6 L30,6 L30,5 L32,5 L32,4 L36,4 L36,7 L31,7 L31,8 L30,8 L30,9 L28,9 L28,10 L27,10 L27,11 L26,11 L26,12 L25,12 L25,13 L23,13 L23,14 L17,14 L17,13 L15,13 L15,12 L14,12 L14,11 L13,11 L13,10 L12,10 L12,9 L10,9 L10,8 L9,8 L9,7 L-1,7 L-1,8 L-2,8 L-2,9 L-4,9 L-4,10 L-5,10 L-5,11 L-6,11 L-6,12 L-7,12 L-7,13 L-9,13 L-9,14 L-15,14 L-15,13 L-17,13 L-17,12 L-18,12 L-18,11 L-19,11 L-19,10 L-20,10 L-20,9 L-22,9 L-22,8 L-23,8 L-23,7 L-24,7 L-24,5 L-22,5 L-22,6 L-21,6 L-21,7 L-20,7 L-20,8 L-19,8 L-19,9 L-18,9 L-18,10 L-16,10 L-16,11 L-8,11 L-8,10 L-6,10 L-6,9 L-5,9 L-5,8 L-4,8 L-4,7 L-3,7 L-3,6 L-2,6 L-2,5 L0,5 Z M0,8 L8,8 L8,9 L10,9 L10,10 L11,10 L11,11 L12,11 L12,12 L13,12 L13,13 L14,13 L14,14 L16,14 L16,15 L24,15 L24,14 L26,14 L26,13 L27,13 L27,12 L28,12 L28,11 L29,11 L29,10 L30,10 L30,9 L32,9 L32,8 L36,8 L36,17 L31,17 L31,18 L30,18 L30,19 L28,19 L28,20 L27,20 L27,21 L26,21 L26,22 L25,22 L25,23 L23,23 L23,24 L17,24 L17,23 L15,23 L15,22 L14,22 L14,21 L13,21 L13,20 L12,20 L12,19 L10,19 L10,18 L9,18 L9,17 L-1,17 L-1,18 L-2,18 L-2,19 L-4,19 L-4,20 L-5,20 L-5,21 L-6,21 L-6,22 L-7,22 L-7,23 L-9,23 L-9,24 L-15,24 L-15,23 L-17,23 L-17,22 L-18,22 L-18,21 L-19,21 L-19,20 L-20,20 L-20,19 L-21,19 L-21,18 L-22,18 L-22,16 L-23,16 L-23,13 L-24,13 L-24,9 L-22,9 L-22,10 L-21,10 L-21,11 L-20,11 L-20,12 L-19,12 L-19,13 L-18,13 L-18,14 L-16,14 L-16,15 L-8,15 L-8,14 L-6,14 L-6,13 L-5,13 L-5,12 L-4,12 L-4,11 L-3,11 L-3,10 L-2,10 L-2,9 L0,9 Z " fill="#CFD5DA" transform="translate(28,23)"/>
<path d="M0,0 L52,0 L52,4 L-5,4 L-5,5 L-6,5 L-6,6 L-7,6 L-7,7 L-8,7 L-8,40 L-7,40 L-7,42 L-6,42 L-6,43 L-5,43 L-5,44 L-4,44 L-4,45 L-3,45 L-3,46 L-2,46 L-2,47 L0,47 L0,48 L8,48 L8,47 L10,47 L10,46 L11,46 L11,45 L12,45 L12,44 L13,44 L13,43 L14,43 L14,42 L16,42 L16,41 L24,41 L24,42 L26,42 L26,43 L27,43 L27,44 L28,44 L28,45 L29,45 L29,46 L30,46 L30,47 L32,47 L32,48 L40,48 L40,47 L42,47 L42,46 L43,46 L43,45 L44,45 L44,44 L45,44 L45,43 L46,43 L46,42 L48,42 L48,41 L52,41 L52,44 L48,44 L48,45 L47,45 L47,46 L46,46 L46,47 L45,47 L45,48 L44,48 L44,49 L42,49 L42,50 L40,50 L40,51 L32,51 L32,50 L30,50 L30,49 L28,49 L28,48 L27,48 L27,47 L26,47 L26,46 L25,46 L25,45 L24,45 L24,44 L16,44 L16,45 L15,45 L15,46 L14,46 L14,47 L13,47 L13,48 L12,48 L12,49 L10,49 L10,50 L8,50 L8,51 L0,51 L0,50 L-2,50 L-2,49 L-4,49 L-4,48 L-5,48 L-5,47 L-6,47 L-6,46 L-7,46 L-7,45 L-8,45 L-8,44 L-9,44 L-9,42 L-10,42 L-10,40 L-11,40 L-11,36 L-12,36 L-12,12 L-11,12 L-11,7 L-10,7 L-10,5 L-9,5 L-9,4 L-8,4 L-8,3 L-7,3 L-7,2 L-5,2 L-5,1 L0,1 Z " fill="#353541" transform="translate(12,0)"/>
<path d="M0,0 L8,0 L8,1 L10,1 L10,2 L11,2 L11,3 L12,3 L12,4 L13,4 L13,5 L14,5 L14,6 L16,6 L16,7 L24,7 L24,6 L26,6 L26,5 L27,5 L27,4 L28,4 L28,3 L29,3 L29,2 L30,2 L30,1 L32,1 L32,0 L36,0 L36,3 L31,3 L31,4 L30,4 L30,5 L28,5 L28,6 L27,6 L27,7 L26,7 L26,8 L25,8 L25,9 L23,9 L23,10 L17,10 L17,9 L15,9 L15,8 L14,8 L14,7 L13,7 L13,6 L12,6 L12,5 L10,5 L10,4 L9,4 L9,3 L-1,3 L-1,4 L-2,4 L-2,5 L-4,5 L-4,6 L-5,6 L-5,7 L-6,7 L-6,8 L-7,8 L-7,9 L-9,9 L-9,10 L-15,10 L-15,9 L-17,9 L-17,8 L-18,8 L-18,7 L-19,7 L-19,6 L-20,6 L-20,5 L-22,5 L-22,4 L-23,4 L-23,3 L-24,3 L-24,1 L-22,1 L-22,2 L-21,2 L-21,3 L-20,3 L-20,4 L-19,4 L-19,5 L-18,5 L-18,6 L-16,6 L-16,7 L-8,7 L-8,6 L-6,6 L-6,5 L-5,5 L-5,4 L-4,4 L-4,3 L-3,3 L-3,2 L-2,2 L-2,1 L0,1 Z M0,4 L8,4 L8,5 L10,5 L10,6 L11,6 L11,7 L12,7 L12,8 L13,8 L13,9 L14,9 L14,10 L16,10 L16,11 L24,11 L24,10 L26,10 L26,9 L27,9 L27,8 L28,8 L28,7 L29,7 L29,6 L30,6 L30,5 L32,5 L32,4 L36,4 L36,7 L31,7 L31,8 L30,8 L30,9 L28,9 L28,10 L27,10 L27,11 L26,11 L26,12 L25,12 L25,13 L23,13 L23,14 L17,14 L17,13 L15,13 L15,12 L14,12 L14,11 L13,11 L13,10 L12,10 L12,9 L10,9 L10,8 L9,8 L9,7 L-1,7 L-1,8 L-2,8 L-2,9 L-4,9 L-4,10 L-5,10 L-5,11 L-6,11 L-6,12 L-7,12 L-7,13 L-9,13 L-9,14 L-15,14 L-15,13 L-17,13 L-17,12 L-18,12 L-18,11 L-19,11 L-19,10 L-20,10 L-20,9 L-22,9 L-22,8 L-23,8 L-23,7 L-24,7 L-24,5 L-22,5 L-22,6 L-21,6 L-21,7 L-20,7 L-20,8 L-19,8 L-19,9 L-18,9 L-18,10 L-16,10 L-16,11 L-8,11 L-8,10 L-6,10 L-6,9 L-5,9 L-5,8 L-4,8 L-4,7 L-3,7 L-3,6 L-2,6 L-2,5 L0,5 Z " fill="#A6B2BB" transform="translate(28,23)"/>
<path d="M0,0 L8,0 L8,1 L10,1 L10,2 L11,2 L11,3 L12,3 L12,4 L13,4 L13,5 L14,5 L14,6 L16,6 L16,7 L24,7 L24,6 L26,6 L26,5 L27,5 L27,4 L28,4 L28,3 L29,3 L29,2 L30,2 L30,1 L32,1 L32,0 L36,0 L36,3 L31,3 L31,4 L30,4 L30,5 L28,5 L28,6 L27,6 L27,7 L26,7 L26,8 L25,8 L25,9 L23,9 L23,10 L17,10 L17,9 L15,9 L15,8 L14,8 L14,7 L13,7 L13,6 L12,6 L12,5 L10,5 L10,4 L9,4 L9,3 L-1,3 L-1,4 L-2,4 L-2,5 L-4,5 L-4,6 L-5,6 L-5,7 L-6,7 L-6,8 L-7,8 L-7,9 L-9,9 L-9,10 L-15,10 L-15,9 L-17,9 L-17,8 L-18,8 L-18,7 L-19,7 L-19,6 L-20,6 L-20,5 L-22,5 L-22,4 L-23,4 L-23,3 L-24,3 L-24,1 L-22,1 L-22,2 L-21,2 L-21,3 L-20,3 L-20,4 L-19,4 L-19,5 L-18,5 L-18,6 L-16,6 L-16,7 L-8,7 L-8,6 L-6,6 L-6,5 L-5,5 L-5,4 L-4,4 L-4,3 L-3,3 L-3,2 L-2,2 L-2,1 L0,1 Z " fill="#A452D4" transform="translate(28,19)"/>
<path d="M0,0 L8,0 L8,1 L10,1 L10,2 L11,2 L11,3 L12,3 L12,4 L13,4 L13,5 L14,5 L14,6 L16,6 L16,7 L24,7 L24,6 L26,6 L26,5 L27,5 L27,4 L28,4 L28,3 L29,3 L29,2 L30,2 L30,1 L32,1 L32,0 L36,0 L36,3 L31,3 L31,4 L30,4 L30,5 L28,5 L28,6 L27,6 L27,7 L26,7 L26,8 L25,8 L25,9 L23,9 L23,10 L17,10 L17,9 L15,9 L15,8 L14,8 L14,7 L13,7 L13,6 L12,6 L12,5 L10,5 L10,4 L9,4 L9,3 L-1,3 L-1,4 L-2,4 L-2,5 L-4,5 L-4,6 L-5,6 L-5,7 L-6,7 L-6,8 L-7,8 L-7,9 L-9,9 L-9,10 L-15,10 L-15,9 L-17,9 L-17,8 L-18,8 L-18,7 L-19,7 L-19,6 L-20,6 L-20,5 L-22,5 L-22,4 L-23,4 L-23,3 L-24,3 L-24,1 L-22,1 L-22,2 L-21,2 L-21,3 L-20,3 L-20,4 L-19,4 L-19,5 L-18,5 L-18,6 L-16,6 L-16,7 L-8,7 L-8,6 L-6,6 L-6,5 L-5,5 L-5,4 L-4,4 L-4,3 L-3,3 L-3,2 L-2,2 L-2,1 L0,1 Z " fill="#BBC4CB" transform="translate(28,23)"/>
<path d="M0,0 L52,0 L52,4 L-5,4 L-5,3 L-4,3 L-4,2 L-3,2 L-3,1 L0,1 Z M-6,4 L-5,4 L-5,5 L-6,5 Z M-7,5 L-6,5 L-6,6 L-7,6 Z " fill="#D699FA" transform="translate(12,4)"/>
<path d="M0,0 L1,0 L1,1 L0,1 Z M-1,1 L0,1 L0,2 L-1,2 Z M-2,2 L-1,2 L-1,3 L-2,3 Z M-3,3 L-2,3 L-2,4 L-3,4 Z M0,4 L1,4 L1,5 L0,5 Z M-1,5 L0,5 L0,6 L-1,6 Z M-2,6 L-1,6 L-1,7 L-2,7 Z M-3,7 L-2,7 L-2,8 L-3,8 Z " fill="#BA6BE9" transform="translate(8,5)"/>
<path d="M0,0 L1,0 L1,1 L0,1 Z M-1,1 L0,1 L0,2 L-1,2 Z M-2,2 L-1,2 L-1,3 L-2,3 Z M-3,3 L-2,3 L-2,4 L-3,4 Z " fill="#D699FA" transform="translate(8,5)"/>
<path d="M0,0 L1,0 L1,1 L0,1 Z " fill="#353540" opacity="0.9647059" transform="translate(48,51)"/>
<path d="M0,0 L1,0 L1,1 L0,1 Z " fill="#353540" opacity="0.9647059" transform="translate(16,51)"/>
<path d="M0,0 L1,0 L1,1 L0,1 Z " fill="#D597FA" opacity="0.84313726" transform="translate(5,10)"/>
<path d="M0,0 L1,0 L1,1 L0,1 Z " fill="#CED4D9" opacity="0.92156863" transform="translate(48,47)"/>
<path d="M0,0 L1,0 L1,1 L0,1 Z " fill="#CED4D9" opacity="0.92156863" transform="translate(16,47)"/>
<path d="M0,0 L1,0 L1,1 L0,1 Z " fill="#343441" opacity="0.9098039" transform="translate(2,42)"/>
<path d="M0,0 L1,0 L1,1 L0,1 Z " fill="#363644" opacity="0.9882353" transform="translate(32,40)"/>
<path d="M0,0 L1,0 L1,1 L0,1 Z " fill="#ABB5BE" opacity="0.92156863" transform="translate(48,37)"/>
<path d="M0,0 L1,0 L1,1 L0,1 Z " fill="#ABB5BE" opacity="0.92156863" transform="translate(16,37)"/>
<path d="M0,0 L1,0 L1,1 L0,1 Z " fill="#B9C1CA" opacity="0.92156863" transform="translate(48,33)"/>
<path d="M0,0 L1,0 L1,1 L0,1 Z " fill="#B9C1CA" opacity="0.92156863" transform="translate(16,33)"/>
<path d="M0,0 L1,0 L1,1 L0,1 Z " fill="#A65DD4" opacity="0.92156863" transform="translate(48,29)"/>
<path d="M0,0 L1,0 L1,1 L0,1 Z " fill="#A65DD4" opacity="0.92156863" transform="translate(16,29)"/>
<path d="M0,0 L1,0 L1,1 L0,1 Z " fill="#B868E6" opacity="0.92156863" transform="translate(48,25)"/>
<path d="M0,0 L1,0 L1,1 L0,1 Z " fill="#B868E6" opacity="0.92156863" transform="translate(16,25)"/>
<path d="M0,0 L2,0 L2,1 L0,1 Z " fill="#353541" opacity="0.03529412" transform="translate(31,44)"/>
<path d="M0,0 L1,0 L1,1 L0,1 Z M-1,1 L0,1 L0,2 L-1,2 Z M-2,2 L-1,2 L-1,3 L-2,3 Z M-3,3 L-2,3 L-2,4 L-3,4 Z " fill="#353541" transform="translate(5,2)"/>
<path d="M0,0 L1,0 L1,1 L0,1 Z " fill="#343440" opacity="0.85882354" transform="translate(46,51)"/>
<path d="M0,0 L1,0 L1,1 L0,1 Z " fill="#353540" opacity="0.87058824" transform="translate(14,51)"/>
<path d="M0,0 L1,0 L1,1 L0,1 Z " fill="#343440" opacity="0.6666667" transform="translate(39,48)"/>
<path d="M0,0 L1,0 L1,1 L0,1 Z " fill="#343440" opacity="0.6509804" transform="translate(7,48)"/>
<path d="M0,0 L1,0 L1,1 L0,1 Z " fill="#CED5DA" opacity="0.9607843" transform="translate(63,30)"/>
<path d="M0,0 L1,0 L1,1 L0,1 Z " fill="#CED5DA" opacity="0.9607843" transform="translate(31,30)"/>
<path d="M0,0 L1,0 L1,1 L0,1 Z " fill="#A6B2BB" opacity="0.9607843" transform="translate(63,26)"/>
<path d="M0,0 L1,0 L1,1 L0,1 Z " fill="#A6B2BB" opacity="0.9607843" transform="translate(31,26)"/>
<path d="M0,0 L1,0 L1,1 L0,1 Z " fill="#BBC4CB" opacity="0.9607843" transform="translate(63,22)"/>
<path d="M0,0 L1,0 L1,1 L0,1 Z " fill="#BBC4CB" opacity="0.9607843" transform="translate(31,22)"/>
<path d="M0,0 L1,0 L1,1 L0,1 Z " fill="#A451D4" opacity="0.9607843" transform="translate(63,18)"/>
<path d="M0,0 L1,0 L1,1 L0,1 Z " fill="#A451D4" opacity="0.9607843" transform="translate(31,18)"/>
<path d="M0,0 L1,0 L1,1 L0,1 Z " fill="#353540" opacity="0.7372549" transform="translate(0,9)"/>
<path d="M0,0 L1,0 L1,1 L0,1 Z " fill="#BC6EEB" opacity="0.94509804" transform="translate(11,8)"/>
<path d="M0,0 L1,0 L1,1 L0,1 Z " fill="#333340" opacity="0.3137255" transform="translate(1,5)"/>
<path d="M0,0 L1,0 L1,1 L0,1 Z " fill="#D698FA" opacity="0.94509804" transform="translate(11,4)"/>
<path d="M0,0 L1,0 L1,1 L0,1 Z " fill="#343440" opacity="0.8352941" transform="translate(4,2)"/>
<path d="M0,0 L1,0 L1,1 L0,1 Z " fill="#353540" opacity="0.69803923" transform="translate(9,0)"/>
<path d="M0,0 L1,0 L1,1 L0,1 Z " fill="#343440" opacity="0.8235294" transform="translate(37,46)"/>
<path d="M0,0 L1,0 L1,1 L0,1 Z " fill="#343440" opacity="0.8352941" transform="translate(5,46)"/>
<path d="M0,0 L1,0 L1,1 L0,1 Z " fill="#353541" opacity="0.16862746" transform="translate(62,44)"/>
<path d="M0,0 L1,0 L1,1 L0,1 Z " fill="#343440" opacity="0.99607843" transform="translate(35,44)"/>
<path d="M0,0 L1,0 L1,1 L0,1 Z " fill="#A8B5BC" opacity="0.7921569" transform="translate(34,26)"/>
<path d="M0,0 L1,0 L1,1 L0,1 Z " fill="#A753D7" opacity="0.7921569" transform="translate(34,18)"/>
<path d="M0,0 L1,0 L1,1 L0,1 Z " fill="#2E2E3A" opacity="0.08627451" transform="translate(52,51)"/>
<path d="M0,0 L1,0 L1,1 L0,1 Z " fill="#34343F" opacity="0.44313726" transform="translate(44,51)"/>
<path d="M0,0 L1,0 L1,1 L0,1 Z " fill="#2E2E3A" opacity="0.08627451" transform="translate(20,51)"/>
<path d="M0,0 L1,0 L1,1 L0,1 Z " fill="#353540" opacity="0.4509804" transform="translate(12,51)"/>
<path d="M0,0 L1,0 L1,1 L0,1 Z " fill="#353541" opacity="0.6627451" transform="translate(42,50)"/>
<path d="M0,0 L1,0 L1,1 L0,1 Z " fill="#353541" opacity="0.6627451" transform="translate(10,50)"/>
<path d="M0,0 L1,0 L1,1 L0,1 Z " fill="#343440" opacity="0.003921569" transform="translate(24,49)"/>
<path d="M0,0 L1,0 L1,1 L0,1 Z " fill="#C7CDD2" opacity="0.8392157" transform="translate(46,47)"/>
<path d="M0,0 L1,0 L1,1 L0,1 Z " fill="#C7CDD2" opacity="0.8392157" transform="translate(14,47)"/>
<path d="M0,0 L1,0 L1,1 L0,1 Z " fill="#353541" opacity="0.16862746" transform="translate(30,44)"/>
<path d="M0,0 L1,0 L1,1 L0,1 Z " fill="#4D4D58" opacity="0.8862745" transform="translate(62,40)"/>
<path d="M0,0 L1,0 L1,1 L0,1 Z " fill="#CFD5DA" opacity="0.972549" transform="translate(36,40)"/>
<path d="M0,0 L1,0 L1,1 L0,1 Z " fill="#4D4D58" opacity="0.8862745" transform="translate(30,40)"/>
<path d="M0,0 L1,0 L1,1 L0,1 Z " fill="#353541" opacity="0.02745098" transform="translate(0,40)"/>
<path d="M0,0 L1,0 L1,1 L0,1 Z " fill="#353540" opacity="0.6039216" transform="translate(0,38)"/>
<path d="M0,0 L1,0 L1,1 L0,1 Z " fill="#C1C9D0" opacity="0.7529412" transform="translate(50,37)"/>
<path d="M0,0 L1,0 L1,1 L0,1 Z " fill="#AFBAC2" opacity="0.8392157" transform="translate(46,37)"/>
<path d="M0,0 L1,0 L1,1 L0,1 Z " fill="#C1C9D0" opacity="0.7529412" transform="translate(18,37)"/>
<path d="M0,0 L1,0 L1,1 L0,1 Z " fill="#AFBAC2" opacity="0.8392157" transform="translate(14,37)"/>
<path d="M0,0 L1,0 L1,1 L0,1 Z " fill="#CFD5DA" opacity="0.9529412" transform="translate(53,36)"/>
<path d="M0,0 L1,0 L1,1 L0,1 Z " fill="#CFD5DA" opacity="0.9529412" transform="translate(21,36)"/>
<path d="M0,0 L1,0 L1,1 L0,1 Z " fill="#AEB8C1" opacity="0.7529412" transform="translate(50,33)"/>
<path d="M0,0 L1,0 L1,1 L0,1 Z " fill="#B7BFC7" opacity="0.8392157" transform="translate(46,33)"/>
<path d="M0,0 L1,0 L1,1 L0,1 Z " fill="#AEB8C1" opacity="0.7529412" transform="translate(18,33)"/>
<path d="M0,0 L1,0 L1,1 L0,1 Z " fill="#B7BFC7" opacity="0.8392157" transform="translate(14,33)"/>
<path d="M0,0 L1,0 L1,1 L0,1 Z " fill="#A6B2BB" opacity="0.9529412" transform="translate(53,32)"/>
<path d="M0,0 L1,0 L1,1 L0,1 Z " fill="#A6B2BB" opacity="0.9529412" transform="translate(21,32)"/>
<path d="M0,0 L1,0 L1,1 L0,1 Z " fill="#CFD5DA" transform="translate(4,32)"/>
<path d="M0,0 L1,0 L1,1 L0,1 Z " fill="#CAD2D7" opacity="0.7921569" transform="translate(61,30)"/>
<path d="M0,0 L1,0 L1,1 L0,1 Z " fill="#B9C2C9" opacity="0.77254903" transform="translate(35,30)"/>
<path d="M0,0 L1,0 L1,1 L0,1 Z " fill="#CAD2D7" opacity="0.7921569" transform="translate(29,30)"/>
<path d="M0,0 L1,0 L1,1 L0,1 Z " fill="#B29ACE" opacity="0.7529412" transform="translate(50,29)"/>
<path d="M0,0 L1,0 L1,1 L0,1 Z " fill="#A96ED2" opacity="0.8392157" transform="translate(46,29)"/>
<path d="M0,0 L1,0 L1,1 L0,1 Z " fill="#B29ACE" opacity="0.7529412" transform="translate(18,29)"/>
<path d="M0,0 L1,0 L1,1 L0,1 Z " fill="#A96ED2" opacity="0.8392157" transform="translate(14,29)"/>
<path d="M0,0 L1,0 L1,1 L0,1 Z " fill="#BBC3CB" opacity="0.9529412" transform="translate(53,28)"/>
<path d="M0,0 L1,0 L1,1 L0,1 Z " fill="#BBC3CB" opacity="0.9529412" transform="translate(21,28)"/>
<path d="M0,0 L1,0 L1,1 L0,1 Z " fill="#A6B2BB" transform="translate(4,28)"/>
<path d="M0,0 L1,0 L1,1 L0,1 Z " fill="#A7B2BC" opacity="0.90588236" transform="translate(59,27)"/>
<path d="M0,0 L1,0 L1,1 L0,1 Z " fill="#A7B2BC" opacity="0.90588236" transform="translate(27,27)"/>
<path d="M0,0 L1,0 L1,1 L0,1 Z " fill="#A8B3BE" opacity="0.7921569" transform="translate(61,26)"/>
<path d="M0,0 L1,0 L1,1 L0,1 Z " fill="#A8B3BE" opacity="0.7921569" transform="translate(29,26)"/>
<path d="M0,0 L1,0 L1,1 L0,1 Z " fill="#AD5ADC" opacity="0.7529412" transform="translate(50,25)"/>
<path d="M0,0 L1,0 L1,1 L0,1 Z " fill="#B464E4" opacity="0.8392157" transform="translate(46,25)"/>
<path d="M0,0 L1,0 L1,1 L0,1 Z " fill="#AD5ADC" opacity="0.7529412" transform="translate(18,25)"/>
<path d="M0,0 L1,0 L1,1 L0,1 Z " fill="#B464E4" opacity="0.8392157" transform="translate(14,25)"/>
<path d="M0,0 L1,0 L1,1 L0,1 Z " fill="#A452D4" opacity="0.9529412" transform="translate(53,24)"/>
<path d="M0,0 L1,0 L1,1 L0,1 Z " fill="#A452D4" opacity="0.9529412" transform="translate(21,24)"/>
<path d="M0,0 L1,0 L1,1 L0,1 Z " fill="#BBC4CB" transform="translate(4,24)"/>
<path d="M0,0 L1,0 L1,1 L0,1 Z " fill="#B9B7CD" opacity="0.7921569" transform="translate(61,22)"/>
<path d="M0,0 L1,0 L1,1 L0,1 Z " fill="#AF87CF" opacity="0.77254903" transform="translate(35,22)"/>
<path d="M0,0 L1,0 L1,1 L0,1 Z " fill="#B9B7CD" opacity="0.7921569" transform="translate(29,22)"/>
<path d="M0,0 L1,0 L1,1 L0,1 Z " fill="#A452D4" transform="translate(4,20)"/>
<path d="M0,0 L1,0 L1,1 L0,1 Z " fill="#A552D4" opacity="0.90588236" transform="translate(59,19)"/>
<path d="M0,0 L1,0 L1,1 L0,1 Z " fill="#A552D4" opacity="0.90588236" transform="translate(27,19)"/>
<path d="M0,0 L1,0 L1,1 L0,1 Z " fill="#A653D6" opacity="0.7921569" transform="translate(61,18)"/>
<path d="M0,0 L1,0 L1,1 L0,1 Z " fill="#A653D6" opacity="0.7921569" transform="translate(29,18)"/>
<path d="M0,0 L1,0 L1,1 L0,1 Z " fill="#C074ED" opacity="0.85490197" transform="translate(4,14)"/>
<path d="M0,0 L1,0 L1,1 L0,1 Z " fill="#343440" opacity="0.9607843" transform="translate(0,11)"/>
<path d="M0,0 L1,0 L1,1 L0,1 Z " fill="#B987DB" opacity="0.77254903" transform="translate(4,9)"/>
<path d="M0,0 L1,0 L1,1 L0,1 Z " fill="#C67EF0" opacity="0.78039217" transform="translate(9,8)"/>
<path d="M0,0 L1,0 L1,1 L0,1 Z " fill="#313140" opacity="0.20392157" transform="translate(0,7)"/>
<path d="M0,0 L1,0 L1,1 L0,1 Z " fill="#BE89DF" opacity="0.78039217" transform="translate(9,4)"/>
<path d="M0,0 L1,0 L1,1 L0,1 Z " fill="#353540" opacity="0.7176471" transform="translate(2,4)"/>
<path d="M0,0 L1,0 L1,1 L0,1 Z " fill="#353540" opacity="0.4509804" transform="translate(5,1)"/>
<path d="M0,0 L1,0 L1,1 L0,1 Z " fill="#343441" opacity="0.95686275" transform="translate(11,0)"/>
<path d="M0,0 L1,0 L1,1 L0,1 Z " fill="#323241" opacity="0.25882354" transform="translate(7,0)"/>
<path d="M0,0 L1,0 L1,1 L0,1 Z " fill="#343440" opacity="0.4392157" transform="translate(51,51)"/>
<path d="M0,0 L1,0 L1,1 L0,1 Z " fill="#343441" opacity="0.69411767" transform="translate(50,51)"/>
<path d="M0,0 L1,0 L1,1 L0,1 Z " fill="#343440" opacity="0.8862745" transform="translate(49,51)"/>
<path d="M0,0 L1,0 L1,1 L0,1 Z " fill="#343441" opacity="0.95686275" transform="translate(47,51)"/>
<path d="M0,0 L1,0 L1,1 L0,1 Z " fill="#343441" opacity="0.7529412" transform="translate(45,51)"/>
<path d="M0,0 L1,0 L1,1 L0,1 Z " fill="#353540" opacity="0.09411765" transform="translate(43,51)"/>
<path d="M0,0 L1,0 L1,1 L0,1 Z " fill="#343440" opacity="0.4392157" transform="translate(19,51)"/>
<path d="M0,0 L1,0 L1,1 L0,1 Z " fill="#343441" opacity="0.69411767" transform="translate(18,51)"/>
<path d="M0,0 L1,0 L1,1 L0,1 Z " fill="#343440" opacity="0.8862745" transform="translate(17,51)"/>
<path d="M0,0 L1,0 L1,1 L0,1 Z " fill="#343440" opacity="0.9607843" transform="translate(15,51)"/>
<path d="M0,0 L1,0 L1,1 L0,1 Z " fill="#343440" opacity="0.7607843" transform="translate(13,51)"/>
<path d="M0,0 L1,0 L1,1 L0,1 Z " fill="#2F2F42" opacity="0.105882354" transform="translate(11,51)"/>
<path d="M0,0 L1,0 L1,1 L0,1 Z " fill="#363640" opacity="0.10980392" transform="translate(54,50)"/>
<path d="M0,0 L1,0 L1,1 L0,1 Z " fill="#353540" opacity="0.62352943" transform="translate(53,50)"/>
<path d="M0,0 L1,0 L1,1 L0,1 Z " fill="#343440" opacity="0.98039216" transform="translate(52,50)"/>
<path d="M0,0 L1,0 L1,1 L0,1 Z " fill="#343440" opacity="0.99215686" transform="translate(43,50)"/>
<path d="M0,0 L1,0 L1,1 L0,1 Z " fill="#2F2F42" opacity="0.105882354" transform="translate(41,50)"/>
<path d="M0,0 L1,0 L1,1 L0,1 Z " fill="#363640" opacity="0.10980392" transform="translate(22,50)"/>
<path d="M0,0 L1,0 L1,1 L0,1 Z " fill="#353540" opacity="0.62352943" transform="translate(21,50)"/>
<path d="M0,0 L1,0 L1,1 L0,1 Z " fill="#343440" opacity="0.98039216" transform="translate(20,50)"/>
<path d="M0,0 L1,0 L1,1 L0,1 Z " fill="#343440" opacity="0.99607843" transform="translate(11,50)"/>
<path d="M0,0 L1,0 L1,1 L0,1 Z " fill="#2F2F42" opacity="0.105882354" transform="translate(9,50)"/>
<path d="M0,0 L1,0 L1,1 L0,1 Z " fill="#333340" opacity="0.3882353" transform="translate(55,49)"/>
<path d="M0,0 L1,0 L1,1 L0,1 Z " fill="#353540" opacity="0.9647059" transform="translate(54,49)"/>
<path d="M0,0 L1,0 L1,1 L0,1 Z " fill="#343440" opacity="0.9490196" transform="translate(41,49)"/>
<path d="M0,0 L1,0 L1,1 L0,1 Z " fill="#33333F" opacity="0.4117647" transform="translate(40,49)"/>
<path d="M0,0 L1,0 L1,1 L0,1 Z " fill="#343440" opacity="0.007843138" transform="translate(39,49)"/>
<path d="M0,0 L1,0 L1,1 L0,1 Z " fill="#343440" opacity="0.41960785" transform="translate(23,49)"/>
<path d="M0,0 L1,0 L1,1 L0,1 Z " fill="#353540" opacity="0.9647059" transform="translate(22,49)"/>
<path d="M0,0 L1,0 L1,1 L0,1 Z " fill="#343440" opacity="0.9490196" transform="translate(9,49)"/>
<path d="M0,0 L1,0 L1,1 L0,1 Z " fill="#333341" opacity="0.43137255" transform="translate(8,49)"/>
<path d="M0,0 L1,0 L1,1 L0,1 Z " fill="#343440" opacity="0.007843138" transform="translate(7,49)"/>
<path d="M0,0 L1,0 L1,1 L0,1 Z " fill="#343440" opacity="0.011764706" transform="translate(57,48)"/>
<path d="M0,0 L1,0 L1,1 L0,1 Z " fill="#353540" opacity="0.54901963" transform="translate(56,48)"/>
<path d="M0,0 L1,0 L1,1 L0,1 Z " fill="#343440" opacity="0.02745098" transform="translate(38,48)"/>
<path d="M0,0 L1,0 L1,1 L0,1 Z " fill="#343440" opacity="0.050980393" transform="translate(25,48)"/>
<path d="M0,0 L1,0 L1,1 L0,1 Z " fill="#343440" opacity="0.6745098" transform="translate(24,48)"/>
<path d="M0,0 L1,0 L1,1 L0,1 Z " fill="#343441" opacity="0.02745098" transform="translate(6,48)"/>
<path d="M0,0 L1,0 L1,1 L0,1 Z " fill="#353541" opacity="0.05490196" transform="translate(58,47)"/>
<path d="M0,0 L1,0 L1,1 L0,1 Z " fill="#343440" opacity="0.7058824" transform="translate(57,47)"/>
<path d="M0,0 L1,0 L1,1 L0,1 Z " fill="#444450" opacity="0.92156863" transform="translate(51,47)"/>
<path d="M0,0 L1,0 L1,1 L0,1 Z " fill="#A0A4AA" opacity="0.7529412" transform="translate(50,47)"/>
<path d="M0,0 L1,0 L1,1 L0,1 Z " fill="#C1C8CD" opacity="0.80784315" transform="translate(49,47)"/>
<path d="M0,0 L1,0 L1,1 L0,1 Z " fill="#CED4D9" opacity="0.9411765" transform="translate(47,47)"/>
<path d="M0,0 L1,0 L1,1 L0,1 Z " fill="#9DA1A9" opacity="0.7529412" transform="translate(45,47)"/>
<path d="M0,0 L1,0 L1,1 L0,1 Z " fill="#4A4B56" opacity="0.89411765" transform="translate(44,47)"/>
<path d="M0,0 L1,0 L1,1 L0,1 Z " fill="#343440" opacity="0.7490196" transform="translate(38,47)"/>
<path d="M0,0 L1,0 L1,1 L0,1 Z " fill="#343440" opacity="0.05882353" transform="translate(37,47)"/>
<path d="M0,0 L1,0 L1,1 L0,1 Z " fill="#333340" opacity="0.078431375" transform="translate(26,47)"/>
<path d="M0,0 L1,0 L1,1 L0,1 Z " fill="#343440" opacity="0.79607844" transform="translate(25,47)"/>
<path d="M0,0 L1,0 L1,1 L0,1 Z " fill="#444450" opacity="0.92156863" transform="translate(19,47)"/>
<path d="M0,0 L1,0 L1,1 L0,1 Z " fill="#A0A4AA" opacity="0.7529412" transform="translate(18,47)"/>
<path d="M0,0 L1,0 L1,1 L0,1 Z " fill="#C1C8CD" opacity="0.80784315" transform="translate(17,47)"/>
<path d="M0,0 L1,0 L1,1 L0,1 Z " fill="#CED4D9" opacity="0.9411765" transform="translate(15,47)"/>
<path d="M0,0 L1,0 L1,1 L0,1 Z " fill="#9CA0A8" opacity="0.7529412" transform="translate(13,47)"/>
<path d="M0,0 L1,0 L1,1 L0,1 Z " fill="#4B4C56" opacity="0.89411765" transform="translate(12,47)"/>
<path d="M0,0 L1,0 L1,1 L0,1 Z " fill="#343441" opacity="0.7529412" transform="translate(6,47)"/>
<path d="M0,0 L1,0 L1,1 L0,1 Z " fill="#343440" opacity="0.06666667" transform="translate(5,47)"/>
<path d="M0,0 L1,0 L1,1 L0,1 Z " fill="#34343D" opacity="0.11372549" transform="translate(59,46)"/>
<path d="M0,0 L1,0 L1,1 L0,1 Z " fill="#353541" opacity="0.83137256" transform="translate(58,46)"/>
<path d="M0,0 L1,0 L1,1 L0,1 Z " fill="#3E3E48" opacity="0.9529412" transform="translate(53,46)"/>
<path d="M0,0 L1,0 L1,1 L0,1 Z " fill="#A4A8B0" opacity="0.75686276" transform="translate(52,46)"/>
<path d="M0,0 L1,0 L1,1 L0,1 Z " fill="#CFD5DA" opacity="0.9647059" transform="translate(51,46)"/>
<path d="M0,0 L1,0 L1,1 L0,1 Z " fill="#CFD5DA" opacity="0.99607843" transform="translate(44,46)"/>
<path d="M0,0 L1,0 L1,1 L0,1 Z " fill="#A8ACB3" opacity="0.75686276" transform="translate(43,46)"/>
<path d="M0,0 L1,0 L1,1 L0,1 Z " fill="#3B3B47" opacity="0.9647059" transform="translate(42,46)"/>
<path d="M0,0 L1,0 L1,1 L0,1 Z " fill="#36363E" opacity="0.12941177" transform="translate(36,46)"/>
<path d="M0,0 L1,0 L1,1 L0,1 Z " fill="#34343D" opacity="0.11372549" transform="translate(27,46)"/>
<path d="M0,0 L1,0 L1,1 L0,1 Z " fill="#343440" opacity="0.84313726" transform="translate(26,46)"/>
<path d="M0,0 L1,0 L1,1 L0,1 Z " fill="#3E3E48" opacity="0.9529412" transform="translate(21,46)"/>
<path d="M0,0 L1,0 L1,1 L0,1 Z " fill="#A4A8B0" opacity="0.75686276" transform="translate(20,46)"/>
<path d="M0,0 L1,0 L1,1 L0,1 Z " fill="#CFD5DA" opacity="0.9647059" transform="translate(19,46)"/>
<path d="M0,0 L1,0 L1,1 L0,1 Z " fill="#CFD5DA" opacity="0.99215686" transform="translate(12,46)"/>
<path d="M0,0 L1,0 L1,1 L0,1 Z " fill="#A6AAB1" opacity="0.7529412" transform="translate(11,46)"/>
<path d="M0,0 L1,0 L1,1 L0,1 Z " fill="#3B3B49" opacity="0.9607843" transform="translate(10,46)"/>
<path d="M0,0 L1,0 L1,1 L0,1 Z " fill="#343440" opacity="0.07058824" transform="translate(4,46)"/>
<path d="M0,0 L1,0 L1,1 L0,1 Z " fill="#323241" opacity="0.2" transform="translate(60,45)"/>
<path d="M0,0 L1,0 L1,1 L0,1 Z " fill="#343440" opacity="0.8862745" transform="translate(59,45)"/>
<path d="M0,0 L1,0 L1,1 L0,1 Z " fill="#494954" opacity="0.9019608" transform="translate(54,45)"/>
<path d="M0,0 L1,0 L1,1 L0,1 Z " fill="#C8CED4" opacity="0.85490197" transform="translate(53,45)"/>
<path d="M0,0 L1,0 L1,1 L0,1 Z " fill="#CBD1D7" opacity="0.8862745" transform="translate(42,45)"/>
<path d="M0,0 L1,0 L1,1 L0,1 Z " fill="#555661" opacity="0.85882354" transform="translate(41,45)"/>
<path d="M0,0 L1,0 L1,1 L0,1 Z " fill="#343440" opacity="0.93333334" transform="translate(36,45)"/>
<path d="M0,0 L1,0 L1,1 L0,1 Z " fill="#353540" opacity="0.28235295" transform="translate(35,45)"/>
<path d="M0,0 L1,0 L1,1 L0,1 Z " fill="#323241" opacity="0.2" transform="translate(28,45)"/>
<path d="M0,0 L1,0 L1,1 L0,1 Z " fill="#343440" opacity="0.8862745" transform="translate(27,45)"/>
<path d="M0,0 L1,0 L1,1 L0,1 Z " fill="#494954" opacity="0.9019608" transform="translate(22,45)"/>
<path d="M0,0 L1,0 L1,1 L0,1 Z " fill="#C8CED4" opacity="0.85490197" transform="translate(21,45)"/>
<path d="M0,0 L1,0 L1,1 L0,1 Z " fill="#CBD1D7" opacity="0.8862745" transform="translate(10,45)"/>
<path d="M0,0 L1,0 L1,1 L0,1 Z " fill="#52535D" opacity="0.8666667" transform="translate(9,45)"/>
<path d="M0,0 L1,0 L1,1 L0,1 Z " fill="#343440" opacity="0.7647059" transform="translate(4,45)"/>
<path d="M0,0 L1,0 L1,1 L0,1 Z " fill="#333340" opacity="0.03137255" transform="translate(3,45)"/>
<path d="M0,0 L1,0 L1,1 L0,1 Z " fill="#353541" opacity="0.03529412" transform="translate(63,44)"/>
<path d="M0,0 L1,0 L1,1 L0,1 Z " fill="#333340" opacity="0.56078434" transform="translate(61,44)"/>
<path d="M0,0 L1,0 L1,1 L0,1 Z " fill="#343441" opacity="0.9882353" transform="translate(60,44)"/>
<path d="M0,0 L1,0 L1,1 L0,1 Z " fill="#5A5C66" opacity="0.8392157" transform="translate(55,44)"/>
<path d="M0,0 L1,0 L1,1 L0,1 Z " fill="#CDD3D8" opacity="0.91764706" transform="translate(54,44)"/>
<path d="M0,0 L1,0 L1,1 L0,1 Z " fill="#CED4D9" opacity="0.94509804" transform="translate(41,44)"/>
<path d="M0,0 L1,0 L1,1 L0,1 Z " fill="#61646E" opacity="0.81960785" transform="translate(40,44)"/>
<path d="M0,0 L1,0 L1,1 L0,1 Z " fill="#343440" opacity="0.57254905" transform="translate(34,44)"/>
<path d="M0,0 L1,0 L1,1 L0,1 Z " fill="#353540" opacity="0.2627451" transform="translate(33,44)"/>
<path d="M0,0 L1,0 L1,1 L0,1 Z " fill="#333340" opacity="0.56078434" transform="translate(29,44)"/>
<path d="M0,0 L1,0 L1,1 L0,1 Z " fill="#343441" opacity="0.9882353" transform="translate(28,44)"/>
<path d="M0,0 L1,0 L1,1 L0,1 Z " fill="#5A5C66" opacity="0.8392157" transform="translate(23,44)"/>
<path d="M0,0 L1,0 L1,1 L0,1 Z " fill="#CDD3D8" opacity="0.91764706" transform="translate(22,44)"/>
<path d="M0,0 L1,0 L1,1 L0,1 Z " fill="#CED4D9" opacity="0.94509804" transform="translate(9,44)"/>
<path d="M0,0 L1,0 L1,1 L0,1 Z " fill="#646770" opacity="0.8156863" transform="translate(8,44)"/>
<path d="M0,0 L1,0 L1,1 L0,1 Z " fill="#333340" opacity="0.65882355" transform="translate(3,44)"/>
<path d="M0,0 L1,0 L1,1 L0,1 Z " fill="#343440" opacity="0.003921569" transform="translate(2,44)"/>
<path d="M0,0 L1,0 L1,1 L0,1 Z " fill="#6F727C" opacity="0.7921569" transform="translate(56,43)"/>
<path d="M0,0 L1,0 L1,1 L0,1 Z " fill="#CFD5DA" opacity="0.9647059" transform="translate(55,43)"/>
<path d="M0,0 L1,0 L1,1 L0,1 Z " fill="#CFD5DA" opacity="0.972549" transform="translate(40,43)"/>
<path d="M0,0 L1,0 L1,1 L0,1 Z " fill="#72757E" opacity="0.7882353" transform="translate(39,43)"/>
<path d="M0,0 L1,0 L1,1 L0,1 Z " fill="#6F727C" opacity="0.7921569" transform="translate(24,43)"/>
<path d="M0,0 L1,0 L1,1 L0,1 Z " fill="#CFD5DA" opacity="0.9647059" transform="translate(23,43)"/>
<path d="M0,0 L1,0 L1,1 L0,1 Z " fill="#CFD5DA" opacity="0.972549" transform="translate(8,43)"/>
<path d="M0,0 L1,0 L1,1 L0,1 Z " fill="#60616C" opacity="0.8235294" transform="translate(7,43)"/>
<path d="M0,0 L1,0 L1,1 L0,1 Z " fill="#343440" opacity="0.34117648" transform="translate(2,43)"/>
<path d="M0,0 L1,0 L1,1 L0,1 Z " fill="#878991" opacity="0.7647059" transform="translate(57,42)"/>
<path d="M0,0 L1,0 L1,1 L0,1 Z " fill="#CFD5DA" opacity="0.99215686" transform="translate(56,42)"/>
<path d="M0,0 L1,0 L1,1 L0,1 Z " fill="#CFD5DA" opacity="0.99215686" transform="translate(39,42)"/>
<path d="M0,0 L1,0 L1,1 L0,1 Z " fill="#868A93" opacity="0.7607843" transform="translate(38,42)"/>
<path d="M0,0 L1,0 L1,1 L0,1 Z " fill="#878991" opacity="0.7647059" transform="translate(25,42)"/>
<path d="M0,0 L1,0 L1,1 L0,1 Z " fill="#CFD5DA" opacity="0.99215686" transform="translate(24,42)"/>
<path d="M0,0 L1,0 L1,1 L0,1 Z " fill="#CED4D9" opacity="0.9411765" transform="translate(7,42)"/>
<path d="M0,0 L1,0 L1,1 L0,1 Z " fill="#52535D" opacity="0.8666667" transform="translate(6,42)"/>
<path d="M0,0 L1,0 L1,1 L0,1 Z " fill="#333340" opacity="0.06666667" transform="translate(1,42)"/>
<path d="M0,0 L1,0 L1,1 L0,1 Z " fill="#464853" opacity="0.90588236" transform="translate(59,41)"/>
<path d="M0,0 L1,0 L1,1 L0,1 Z " fill="#BBC1C7" opacity="0.7882353" transform="translate(58,41)"/>
<path d="M0,0 L1,0 L1,1 L0,1 Z " fill="#BAC0C6" opacity="0.78431374" transform="translate(37,41)"/>
<path d="M0,0 L1,0 L1,1 L0,1 Z " fill="#444450" opacity="0.92156863" transform="translate(36,41)"/>
<path d="M0,0 L1,0 L1,1 L0,1 Z " fill="#464853" opacity="0.90588236" transform="translate(27,41)"/>
<path d="M0,0 L1,0 L1,1 L0,1 Z " fill="#BBC1C7" opacity="0.7882353" transform="translate(26,41)"/>
<path d="M0,0 L1,0 L1,1 L0,1 Z " fill="#CAD0D4" opacity="0.8627451" transform="translate(6,41)"/>
<path d="M0,0 L1,0 L1,1 L0,1 Z " fill="#383844" opacity="0.98039216" transform="translate(5,41)"/>
<path d="M0,0 L1,0 L1,1 L0,1 Z " fill="#333340" opacity="0.5411765" transform="translate(1,41)"/>
<path d="M0,0 L1,0 L1,1 L0,1 Z " fill="#3B3B49" opacity="0.9607843" transform="translate(63,40)"/>
<path d="M0,0 L1,0 L1,1 L0,1 Z " fill="#6F707A" opacity="0.7921569" transform="translate(61,40)"/>
<path d="M0,0 L1,0 L1,1 L0,1 Z " fill="#B9BEC4" opacity="0.78039217" transform="translate(60,40)"/>
<path d="M0,0 L1,0 L1,1 L0,1 Z " fill="#CFD5D9" opacity="0.9764706" transform="translate(59,40)"/>
<path d="M0,0 L1,0 L1,1 L0,1 Z " fill="#B7BBC2" opacity="0.77254903" transform="translate(35,40)"/>
<path d="M0,0 L1,0 L1,1 L0,1 Z " fill="#6F727C" opacity="0.7921569" transform="translate(34,40)"/>
<path d="M0,0 L1,0 L1,1 L0,1 Z " fill="#4C4C58" opacity="0.88235295" transform="translate(33,40)"/>
<path d="M0,0 L1,0 L1,1 L0,1 Z " fill="#3B3B49" opacity="0.9607843" transform="translate(31,40)"/>
<path d="M0,0 L1,0 L1,1 L0,1 Z " fill="#6F707A" opacity="0.7921569" transform="translate(29,40)"/>
<path d="M0,0 L1,0 L1,1 L0,1 Z " fill="#B9BEC4" opacity="0.78039217" transform="translate(28,40)"/>
<path d="M0,0 L1,0 L1,1 L0,1 Z " fill="#CFD5D9" opacity="0.9764706" transform="translate(27,40)"/>
<path d="M0,0 L1,0 L1,1 L0,1 Z " fill="#9DA1A9" opacity="0.7529412" transform="translate(5,40)"/>
<path d="M0,0 L1,0 L1,1 L0,1 Z " fill="#343440" opacity="0.92156863" transform="translate(1,40)"/>
<path d="M0,0 L1,0 L1,1 L0,1 Z " fill="#CFD5DA" opacity="0.9647059" transform="translate(5,39)"/>
<path d="M0,0 L1,0 L1,1 L0,1 Z " fill="#3E3F4B" opacity="0.94509804" transform="translate(4,39)"/>
<path d="M0,0 L1,0 L1,1 L0,1 Z " fill="#353541" opacity="0.3372549" transform="translate(0,39)"/>
<path d="M0,0 L1,0 L1,1 L0,1 Z " fill="#8C9098" opacity="0.75686276" transform="translate(4,38)"/>
<path d="M0,0 L1,0 L1,1 L0,1 Z " fill="#CED4D9" opacity="0.92156863" transform="translate(51,37)"/>
<path d="M0,0 L1,0 L1,1 L0,1 Z " fill="#B4BEC5" opacity="0.80784315" transform="translate(49,37)"/>
<path d="M0,0 L1,0 L1,1 L0,1 Z " fill="#A9B4BD" opacity="0.9411765" transform="translate(47,37)"/>
<path d="M0,0 L1,0 L1,1 L0,1 Z " fill="#C0C8D0" opacity="0.7529412" transform="translate(45,37)"/>
<path d="M0,0 L1,0 L1,1 L0,1 Z " fill="#CED5D9" opacity="0.89411765" transform="translate(44,37)"/>
<path d="M0,0 L1,0 L1,1 L0,1 Z " fill="#CED4D9" opacity="0.92156863" transform="translate(19,37)"/>
<path d="M0,0 L1,0 L1,1 L0,1 Z " fill="#B4BEC5" opacity="0.80784315" transform="translate(17,37)"/>
<path d="M0,0 L1,0 L1,1 L0,1 Z " fill="#A9B4BD" opacity="0.9411765" transform="translate(15,37)"/>
<path d="M0,0 L1,0 L1,1 L0,1 Z " fill="#C0C8D0" opacity="0.7529412" transform="translate(13,37)"/>
<path d="M0,0 L1,0 L1,1 L0,1 Z " fill="#CED5D9" opacity="0.89411765" transform="translate(12,37)"/>
<path d="M0,0 L1,0 L1,1 L0,1 Z " fill="#C0C5CB" opacity="0.8" transform="translate(4,37)"/>
<path d="M0,0 L1,0 L1,1 L0,1 Z " fill="#343441" opacity="0.76862746" transform="translate(0,37)"/>
<path d="M0,0 L1,0 L1,1 L0,1 Z " fill="#BFC8CD" opacity="0.75686276" transform="translate(52,36)"/>
<path d="M0,0 L1,0 L1,1 L0,1 Z " fill="#A8B2BD" opacity="0.9647059" transform="translate(51,36)"/>
<path d="M0,0 L1,0 L1,1 L0,1 Z " fill="#A7B2BB" opacity="0.99607843" transform="translate(44,36)"/>
<path d="M0,0 L1,0 L1,1 L0,1 Z " fill="#BDC6CD" opacity="0.75686276" transform="translate(43,36)"/>
<path d="M0,0 L1,0 L1,1 L0,1 Z " fill="#CFD5DA" opacity="0.9647059" transform="translate(42,36)"/>
<path d="M0,0 L1,0 L1,1 L0,1 Z " fill="#BFC8CD" opacity="0.75686276" transform="translate(20,36)"/>
<path d="M0,0 L1,0 L1,1 L0,1 Z " fill="#A8B2BD" opacity="0.9647059" transform="translate(19,36)"/>
<path d="M0,0 L1,0 L1,1 L0,1 Z " fill="#A7B2BB" opacity="0.99607843" transform="translate(12,36)"/>
<path d="M0,0 L1,0 L1,1 L0,1 Z " fill="#BDC6CD" opacity="0.75686276" transform="translate(11,36)"/>
<path d="M0,0 L1,0 L1,1 L0,1 Z " fill="#CFD5DA" opacity="0.9647059" transform="translate(10,36)"/>
<path d="M0,0 L1,0 L1,1 L0,1 Z " fill="#CDD3D8" opacity="0.92156863" transform="translate(4,36)"/>
<path d="M0,0 L1,0 L1,1 L0,1 Z " fill="#343440" opacity="0.93333334" transform="translate(0,36)"/>
<path d="M0,0 L1,0 L1,1 L0,1 Z " fill="#CFD4DA" opacity="0.9019608" transform="translate(54,35)"/>
<path d="M0,0 L1,0 L1,1 L0,1 Z " fill="#AEB9C1" opacity="0.85490197" transform="translate(53,35)"/>
<path d="M0,0 L1,0 L1,1 L0,1 Z " fill="#ADB7BF" opacity="0.8862745" transform="translate(42,35)"/>
<path d="M0,0 L1,0 L1,1 L0,1 Z " fill="#CDD4D9" opacity="0.85882354" transform="translate(41,35)"/>
<path d="M0,0 L1,0 L1,1 L0,1 Z " fill="#CFD4DA" opacity="0.9019608" transform="translate(22,35)"/>
<path d="M0,0 L1,0 L1,1 L0,1 Z " fill="#AEB9C1" opacity="0.85490197" transform="translate(21,35)"/>
<path d="M0,0 L1,0 L1,1 L0,1 Z " fill="#ADB7BF" opacity="0.8862745" transform="translate(10,35)"/>
<path d="M0,0 L1,0 L1,1 L0,1 Z " fill="#CDD4D9" opacity="0.85882354" transform="translate(9,35)"/>
<path d="M0,0 L1,0 L1,1 L0,1 Z " fill="#CDD3D8" opacity="0.8392157" transform="translate(55,34)"/>
<path d="M0,0 L1,0 L1,1 L0,1 Z " fill="#ABB6BF" opacity="0.91764706" transform="translate(54,34)"/>
<path d="M0,0 L1,0 L1,1 L0,1 Z " fill="#A8B3BE" opacity="0.94509804" transform="translate(41,34)"/>
<path d="M0,0 L1,0 L1,1 L0,1 Z " fill="#CCD3D7" opacity="0.81960785" transform="translate(40,34)"/>
<path d="M0,0 L1,0 L1,1 L0,1 Z " fill="#CDD3D8" opacity="0.8392157" transform="translate(23,34)"/>
<path d="M0,0 L1,0 L1,1 L0,1 Z " fill="#ABB6BF" opacity="0.91764706" transform="translate(22,34)"/>
<path d="M0,0 L1,0 L1,1 L0,1 Z " fill="#A8B3BE" opacity="0.94509804" transform="translate(9,34)"/>
<path d="M0,0 L1,0 L1,1 L0,1 Z " fill="#CCD3D7" opacity="0.81960785" transform="translate(8,34)"/>
<path d="M0,0 L1,0 L1,1 L0,1 Z " fill="#CAD1D7" opacity="0.7921569" transform="translate(56,33)"/>
<path d="M0,0 L1,0 L1,1 L0,1 Z " fill="#A8B2BD" opacity="0.9647059" transform="translate(55,33)"/>
<path d="M0,0 L1,0 L1,1 L0,1 Z " fill="#A5B1BA" opacity="0.92156863" transform="translate(51,33)"/>
<path d="M0,0 L1,0 L1,1 L0,1 Z " fill="#B4BEC6" opacity="0.80784315" transform="translate(49,33)"/>
<path d="M0,0 L1,0 L1,1 L0,1 Z " fill="#B9C3C9" opacity="0.9411765" transform="translate(47,33)"/>
<path d="M0,0 L1,0 L1,1 L0,1 Z " fill="#ADB8C1" opacity="0.7529412" transform="translate(45,33)"/>
<path d="M0,0 L1,0 L1,1 L0,1 Z " fill="#A6B3BC" opacity="0.89411765" transform="translate(44,33)"/>
<path d="M0,0 L1,0 L1,1 L0,1 Z " fill="#A8B3BB" opacity="0.972549" transform="translate(40,33)"/>
<path d="M0,0 L1,0 L1,1 L0,1 Z " fill="#CAD0D5" opacity="0.7882353" transform="translate(39,33)"/>
<path d="M0,0 L1,0 L1,1 L0,1 Z " fill="#CAD1D7" opacity="0.7921569" transform="translate(24,33)"/>
<path d="M0,0 L1,0 L1,1 L0,1 Z " fill="#A8B2BD" opacity="0.9647059" transform="translate(23,33)"/>
<path d="M0,0 L1,0 L1,1 L0,1 Z " fill="#A5B1BA" opacity="0.92156863" transform="translate(19,33)"/>
<path d="M0,0 L1,0 L1,1 L0,1 Z " fill="#B4BEC6" opacity="0.80784315" transform="translate(17,33)"/>
<path d="M0,0 L1,0 L1,1 L0,1 Z " fill="#B9C3C9" opacity="0.9411765" transform="translate(15,33)"/>
<path d="M0,0 L1,0 L1,1 L0,1 Z " fill="#ADB8C1" opacity="0.7529412" transform="translate(13,33)"/>
<path d="M0,0 L1,0 L1,1 L0,1 Z " fill="#A6B3BC" opacity="0.89411765" transform="translate(12,33)"/>
<path d="M0,0 L1,0 L1,1 L0,1 Z " fill="#A8B3BB" opacity="0.972549" transform="translate(8,33)"/>
<path d="M0,0 L1,0 L1,1 L0,1 Z " fill="#CAD0D5" opacity="0.7882353" transform="translate(7,33)"/>
<path d="M0,0 L1,0 L1,1 L0,1 Z " fill="#C6CCD2" opacity="0.7647059" transform="translate(57,32)"/>
<path d="M0,0 L1,0 L1,1 L0,1 Z " fill="#A6B3BC" opacity="0.99215686" transform="translate(56,32)"/>
<path d="M0,0 L1,0 L1,1 L0,1 Z " fill="#ADB9C1" opacity="0.75686276" transform="translate(52,32)"/>
<path d="M0,0 L1,0 L1,1 L0,1 Z " fill="#BAC3C9" opacity="0.9647059" transform="translate(51,32)"/>
<path d="M0,0 L1,0 L1,1 L0,1 Z " fill="#BAC3CA" opacity="0.99607843" transform="translate(44,32)"/>
<path d="M0,0 L1,0 L1,1 L0,1 Z " fill="#AFB9C1" opacity="0.75686276" transform="translate(43,32)"/>
<path d="M0,0 L1,0 L1,1 L0,1 Z " fill="#A6B1BB" opacity="0.9647059" transform="translate(42,32)"/>
<path d="M0,0 L1,0 L1,1 L0,1 Z " fill="#A6B3BC" opacity="0.99215686" transform="translate(39,32)"/>
<path d="M0,0 L1,0 L1,1 L0,1 Z " fill="#C7CFD4" opacity="0.7607843" transform="translate(38,32)"/>
<path d="M0,0 L1,0 L1,1 L0,1 Z " fill="#C6CCD2" opacity="0.7647059" transform="translate(25,32)"/>
<path d="M0,0 L1,0 L1,1 L0,1 Z " fill="#A6B3BC" opacity="0.99215686" transform="translate(24,32)"/>
<path d="M0,0 L1,0 L1,1 L0,1 Z " fill="#ADB9C1" opacity="0.75686276" transform="translate(20,32)"/>
<path d="M0,0 L1,0 L1,1 L0,1 Z " fill="#BAC3C9" opacity="0.9647059" transform="translate(19,32)"/>
<path d="M0,0 L1,0 L1,1 L0,1 Z " fill="#BAC3CA" opacity="0.99607843" transform="translate(12,32)"/>
<path d="M0,0 L1,0 L1,1 L0,1 Z " fill="#AFB9C1" opacity="0.75686276" transform="translate(11,32)"/>
<path d="M0,0 L1,0 L1,1 L0,1 Z " fill="#A6B1BB" opacity="0.9647059" transform="translate(10,32)"/>
<path d="M0,0 L1,0 L1,1 L0,1 Z " fill="#A6B3BC" opacity="0.99215686" transform="translate(7,32)"/>
<path d="M0,0 L1,0 L1,1 L0,1 Z " fill="#C7CFD4" opacity="0.7607843" transform="translate(6,32)"/>
<path d="M0,0 L1,0 L1,1 L0,1 Z " fill="#CED5DA" opacity="0.90588236" transform="translate(59,31)"/>
<path d="M0,0 L1,0 L1,1 L0,1 Z " fill="#B7C0C7" opacity="0.7882353" transform="translate(58,31)"/>
<path d="M0,0 L1,0 L1,1 L0,1 Z " fill="#A5B2BA" opacity="0.9019608" transform="translate(54,31)"/>
<path d="M0,0 L1,0 L1,1 L0,1 Z " fill="#B7C0C8" opacity="0.85490197" transform="translate(53,31)"/>
<path d="M0,0 L1,0 L1,1 L0,1 Z " fill="#B7C1C8" opacity="0.8862745" transform="translate(42,31)"/>
<path d="M0,0 L1,0 L1,1 L0,1 Z " fill="#A7B4BC" opacity="0.85882354" transform="translate(41,31)"/>
<path d="M0,0 L1,0 L1,1 L0,1 Z " fill="#B7C0C7" opacity="0.78431374" transform="translate(37,31)"/>
<path d="M0,0 L1,0 L1,1 L0,1 Z " fill="#CED4D9" opacity="0.92156863" transform="translate(36,31)"/>
<path d="M0,0 L1,0 L1,1 L0,1 Z " fill="#CED5DA" opacity="0.90588236" transform="translate(27,31)"/>
<path d="M0,0 L1,0 L1,1 L0,1 Z " fill="#B7C0C7" opacity="0.7882353" transform="translate(26,31)"/>
<path d="M0,0 L1,0 L1,1 L0,1 Z " fill="#A5B2BA" opacity="0.9019608" transform="translate(22,31)"/>
<path d="M0,0 L1,0 L1,1 L0,1 Z " fill="#B7C0C8" opacity="0.85490197" transform="translate(21,31)"/>
<path d="M0,0 L1,0 L1,1 L0,1 Z " fill="#B7C1C8" opacity="0.8862745" transform="translate(10,31)"/>
<path d="M0,0 L1,0 L1,1 L0,1 Z " fill="#A7B4BC" opacity="0.85882354" transform="translate(9,31)"/>
<path d="M0,0 L1,0 L1,1 L0,1 Z " fill="#B7C0C7" opacity="0.78431374" transform="translate(5,31)"/>
<path d="M0,0 L1,0 L1,1 L0,1 Z " fill="#CED4D9" opacity="0.92156863" transform="translate(4,31)"/>
<path d="M0,0 L1,0 L1,1 L0,1 Z " fill="#CFD4D9" opacity="0.8862745" transform="translate(62,30)"/>
<path d="M0,0 L1,0 L1,1 L0,1 Z " fill="#B7C2C9" opacity="0.78039217" transform="translate(60,30)"/>
<path d="M0,0 L1,0 L1,1 L0,1 Z " fill="#A7B2BC" opacity="0.9764706" transform="translate(59,30)"/>
<path d="M0,0 L1,0 L1,1 L0,1 Z " fill="#A6B3BB" opacity="0.8392157" transform="translate(55,30)"/>
<path d="M0,0 L1,0 L1,1 L0,1 Z " fill="#B8C2C9" opacity="0.91764706" transform="translate(54,30)"/>
<path d="M0,0 L1,0 L1,1 L0,1 Z " fill="#B9C2CA" opacity="0.94509804" transform="translate(41,30)"/>
<path d="M0,0 L1,0 L1,1 L0,1 Z " fill="#A7B4BC" opacity="0.81960785" transform="translate(40,30)"/>
<path d="M0,0 L1,0 L1,1 L0,1 Z " fill="#A8B3BB" opacity="0.972549" transform="translate(36,30)"/>
<path d="M0,0 L1,0 L1,1 L0,1 Z " fill="#CAD1D7" opacity="0.7921569" transform="translate(34,30)"/>
<path d="M0,0 L1,0 L1,1 L0,1 Z " fill="#CFD4DA" opacity="0.88235295" transform="translate(33,30)"/>
<path d="M0,0 L1,0 L1,1 L0,1 Z " fill="#CFD5DA" opacity="0.9882353" transform="translate(32,30)"/>
<path d="M0,0 L1,0 L1,1 L0,1 Z " fill="#CFD4D9" opacity="0.8862745" transform="translate(30,30)"/>
<path d="M0,0 L1,0 L1,1 L0,1 Z " fill="#B7C2C9" opacity="0.78039217" transform="translate(28,30)"/>
<path d="M0,0 L1,0 L1,1 L0,1 Z " fill="#A7B2BC" opacity="0.9764706" transform="translate(27,30)"/>
<path d="M0,0 L1,0 L1,1 L0,1 Z " fill="#A6B3BB" opacity="0.8392157" transform="translate(23,30)"/>
<path d="M0,0 L1,0 L1,1 L0,1 Z " fill="#B8C2C9" opacity="0.91764706" transform="translate(22,30)"/>
<path d="M0,0 L1,0 L1,1 L0,1 Z " fill="#B9C2CA" opacity="0.94509804" transform="translate(9,30)"/>
<path d="M0,0 L1,0 L1,1 L0,1 Z " fill="#A7B4BC" opacity="0.81960785" transform="translate(8,30)"/>
<path d="M0,0 L1,0 L1,1 L0,1 Z " fill="#A8B3BD" opacity="0.9607843" transform="translate(4,30)"/>
<path d="M0,0 L1,0 L1,1 L0,1 Z " fill="#A8B5BC" opacity="0.7921569" transform="translate(56,29)"/>
<path d="M0,0 L1,0 L1,1 L0,1 Z " fill="#BAC3C9" opacity="0.9647059" transform="translate(55,29)"/>
<path d="M0,0 L1,0 L1,1 L0,1 Z " fill="#BAC2CA" opacity="0.92156863" transform="translate(51,29)"/>
<path d="M0,0 L1,0 L1,1 L0,1 Z " fill="#AB77D2" opacity="0.80784315" transform="translate(49,29)"/>
<path d="M0,0 L1,0 L1,1 L0,1 Z " fill="#A559D4" opacity="0.9411765" transform="translate(47,29)"/>
<path d="M0,0 L1,0 L1,1 L0,1 Z " fill="#B29CCD" opacity="0.7529412" transform="translate(45,29)"/>
<path d="M0,0 L1,0 L1,1 L0,1 Z " fill="#BBC3CC" opacity="0.89411765" transform="translate(44,29)"/>
<path d="M0,0 L1,0 L1,1 L0,1 Z " fill="#B9C3CB" opacity="0.972549" transform="translate(40,29)"/>
<path d="M0,0 L1,0 L1,1 L0,1 Z " fill="#A8B4BD" opacity="0.7882353" transform="translate(39,29)"/>
<path d="M0,0 L1,0 L1,1 L0,1 Z " fill="#A8B5BC" opacity="0.7921569" transform="translate(24,29)"/>
<path d="M0,0 L1,0 L1,1 L0,1 Z " fill="#BAC3C9" opacity="0.9647059" transform="translate(23,29)"/>
<path d="M0,0 L1,0 L1,1 L0,1 Z " fill="#BAC2CA" opacity="0.92156863" transform="translate(19,29)"/>
<path d="M0,0 L1,0 L1,1 L0,1 Z " fill="#AB77D2" opacity="0.80784315" transform="translate(17,29)"/>
<path d="M0,0 L1,0 L1,1 L0,1 Z " fill="#A559D4" opacity="0.9411765" transform="translate(15,29)"/>
<path d="M0,0 L1,0 L1,1 L0,1 Z " fill="#B29CCD" opacity="0.7529412" transform="translate(13,29)"/>
<path d="M0,0 L1,0 L1,1 L0,1 Z " fill="#BBC3CC" opacity="0.89411765" transform="translate(12,29)"/>
<path d="M0,0 L1,0 L1,1 L0,1 Z " fill="#B9C3CB" opacity="0.972549" transform="translate(8,29)"/>
<path d="M0,0 L1,0 L1,1 L0,1 Z " fill="#A8B4BD" opacity="0.7882353" transform="translate(7,29)"/>
<path d="M0,0 L1,0 L1,1 L0,1 Z " fill="#A9B5BE" opacity="0.7647059" transform="translate(57,28)"/>
<path d="M0,0 L1,0 L1,1 L0,1 Z " fill="#BBC3CA" opacity="0.99215686" transform="translate(56,28)"/>
<path d="M0,0 L1,0 L1,1 L0,1 Z " fill="#B197CD" opacity="0.75686276" transform="translate(52,28)"/>
<path d="M0,0 L1,0 L1,1 L0,1 Z " fill="#A557D4" opacity="0.9647059" transform="translate(51,28)"/>
<path d="M0,0 L1,0 L1,1 L0,1 Z " fill="#A453D4" opacity="0.99607843" transform="translate(44,28)"/>
<path d="M0,0 L1,0 L1,1 L0,1 Z " fill="#B093CE" opacity="0.75686276" transform="translate(43,28)"/>
<path d="M0,0 L1,0 L1,1 L0,1 Z " fill="#BBC4CA" opacity="0.9647059" transform="translate(42,28)"/>
<path d="M0,0 L1,0 L1,1 L0,1 Z " fill="#BBC3CA" opacity="0.99215686" transform="translate(39,28)"/>
<path d="M0,0 L1,0 L1,1 L0,1 Z " fill="#AAB7BF" opacity="0.7607843" transform="translate(38,28)"/>
<path d="M0,0 L1,0 L1,1 L0,1 Z " fill="#A9B5BE" opacity="0.7647059" transform="translate(25,28)"/>
<path d="M0,0 L1,0 L1,1 L0,1 Z " fill="#BBC3CA" opacity="0.99215686" transform="translate(24,28)"/>
<path d="M0,0 L1,0 L1,1 L0,1 Z " fill="#B197CD" opacity="0.75686276" transform="translate(20,28)"/>
<path d="M0,0 L1,0 L1,1 L0,1 Z " fill="#A557D4" opacity="0.9647059" transform="translate(19,28)"/>
<path d="M0,0 L1,0 L1,1 L0,1 Z " fill="#A453D4" opacity="0.99607843" transform="translate(12,28)"/>
<path d="M0,0 L1,0 L1,1 L0,1 Z " fill="#B093CE" opacity="0.75686276" transform="translate(11,28)"/>
<path d="M0,0 L1,0 L1,1 L0,1 Z " fill="#BBC4CA" opacity="0.9647059" transform="translate(10,28)"/>
<path d="M0,0 L1,0 L1,1 L0,1 Z " fill="#BBC3CA" opacity="0.99215686" transform="translate(7,28)"/>
<path d="M0,0 L1,0 L1,1 L0,1 Z " fill="#AAB7BF" opacity="0.7607843" transform="translate(6,28)"/>
<path d="M0,0 L1,0 L1,1 L0,1 Z " fill="#B3BDC5" opacity="0.7882353" transform="translate(58,27)"/>
<path d="M0,0 L1,0 L1,1 L0,1 Z " fill="#BAC2CA" opacity="0.9019608" transform="translate(54,27)"/>
<path d="M0,0 L1,0 L1,1 L0,1 Z " fill="#AA69D3" opacity="0.85490197" transform="translate(53,27)"/>
<path d="M0,0 L1,0 L1,1 L0,1 Z " fill="#A763D2" opacity="0.8862745" transform="translate(42,27)"/>
<path d="M0,0 L1,0 L1,1 L0,1 Z " fill="#B9C0CB" opacity="0.85882354" transform="translate(41,27)"/>
<path d="M0,0 L1,0 L1,1 L0,1 Z " fill="#B1BCC5" opacity="0.78431374" transform="translate(37,27)"/>
<path d="M0,0 L1,0 L1,1 L0,1 Z " fill="#A5B1BA" opacity="0.92156863" transform="translate(36,27)"/>
<path d="M0,0 L1,0 L1,1 L0,1 Z " fill="#B3BDC5" opacity="0.7882353" transform="translate(26,27)"/>
<path d="M0,0 L1,0 L1,1 L0,1 Z " fill="#BAC2CA" opacity="0.9019608" transform="translate(22,27)"/>
<path d="M0,0 L1,0 L1,1 L0,1 Z " fill="#AA69D3" opacity="0.85490197" transform="translate(21,27)"/>
<path d="M0,0 L1,0 L1,1 L0,1 Z " fill="#A763D2" opacity="0.8862745" transform="translate(10,27)"/>
<path d="M0,0 L1,0 L1,1 L0,1 Z " fill="#B9C0CB" opacity="0.85882354" transform="translate(9,27)"/>
<path d="M0,0 L1,0 L1,1 L0,1 Z " fill="#B1BCC5" opacity="0.78431374" transform="translate(5,27)"/>
<path d="M0,0 L1,0 L1,1 L0,1 Z " fill="#A5B1BA" opacity="0.92156863" transform="translate(4,27)"/>
<path d="M0,0 L1,0 L1,1 L0,1 Z " fill="#A6B2BA" opacity="0.8862745" transform="translate(62,26)"/>
<path d="M0,0 L1,0 L1,1 L0,1 Z " fill="#B2BBC4" opacity="0.78039217" transform="translate(60,26)"/>
<path d="M0,0 L1,0 L1,1 L0,1 Z " fill="#BAC4CA" opacity="0.9764706" transform="translate(59,26)"/>
<path d="M0,0 L1,0 L1,1 L0,1 Z " fill="#B9BECB" opacity="0.8392157" transform="translate(55,26)"/>
<path d="M0,0 L1,0 L1,1 L0,1 Z " fill="#A65CD3" opacity="0.91764706" transform="translate(54,26)"/>
<path d="M0,0 L1,0 L1,1 L0,1 Z " fill="#A559D3" opacity="0.94509804" transform="translate(41,26)"/>
<path d="M0,0 L1,0 L1,1 L0,1 Z " fill="#BABCCC" opacity="0.81960785" transform="translate(40,26)"/>
<path d="M0,0 L1,0 L1,1 L0,1 Z " fill="#B9C3CB" opacity="0.972549" transform="translate(36,26)"/>
<path d="M0,0 L1,0 L1,1 L0,1 Z " fill="#B0BBC5" opacity="0.77254903" transform="translate(35,26)"/>
<path d="M0,0 L1,0 L1,1 L0,1 Z " fill="#A6B2BB" opacity="0.88235295" transform="translate(33,26)"/>
<path d="M0,0 L1,0 L1,1 L0,1 Z " fill="#A6B1BA" opacity="0.9882353" transform="translate(32,26)"/>
<path d="M0,0 L1,0 L1,1 L0,1 Z " fill="#A6B2BA" opacity="0.8862745" transform="translate(30,26)"/>
<path d="M0,0 L1,0 L1,1 L0,1 Z " fill="#B2BBC4" opacity="0.78039217" transform="translate(28,26)"/>
<path d="M0,0 L1,0 L1,1 L0,1 Z " fill="#BAC4CA" opacity="0.9764706" transform="translate(27,26)"/>
<path d="M0,0 L1,0 L1,1 L0,1 Z " fill="#B9BECB" opacity="0.8392157" transform="translate(23,26)"/>
<path d="M0,0 L1,0 L1,1 L0,1 Z " fill="#A65CD3" opacity="0.91764706" transform="translate(22,26)"/>
<path d="M0,0 L1,0 L1,1 L0,1 Z " fill="#A559D3" opacity="0.94509804" transform="translate(9,26)"/>
<path d="M0,0 L1,0 L1,1 L0,1 Z " fill="#BABCCC" opacity="0.81960785" transform="translate(8,26)"/>
<path d="M0,0 L1,0 L1,1 L0,1 Z " fill="#B9C4CA" opacity="0.9607843" transform="translate(4,26)"/>
<path d="M0,0 L1,0 L1,1 L0,1 Z " fill="#B9B6CC" opacity="0.7921569" transform="translate(56,25)"/>
<path d="M0,0 L1,0 L1,1 L0,1 Z " fill="#A557D4" opacity="0.9647059" transform="translate(55,25)"/>
<path d="M0,0 L1,0 L1,1 L0,1 Z " fill="#A350D3" opacity="0.92156863" transform="translate(51,25)"/>
<path d="M0,0 L1,0 L1,1 L0,1 Z " fill="#B463E3" opacity="0.80784315" transform="translate(49,25)"/>
<path d="M0,0 L1,0 L1,1 L0,1 Z " fill="#B868E7" opacity="0.9411765" transform="translate(47,25)"/>
<path d="M0,0 L1,0 L1,1 L0,1 Z " fill="#AA5ADC" opacity="0.7529412" transform="translate(45,25)"/>
<path d="M0,0 L1,0 L1,1 L0,1 Z " fill="#A351D5" opacity="0.89411765" transform="translate(44,25)"/>
<path d="M0,0 L1,0 L1,1 L0,1 Z " fill="#A555D3" opacity="0.972549" transform="translate(40,25)"/>
<path d="M0,0 L1,0 L1,1 L0,1 Z " fill="#B8B6CB" opacity="0.7882353" transform="translate(39,25)"/>
<path d="M0,0 L1,0 L1,1 L0,1 Z " fill="#B9B6CC" opacity="0.7921569" transform="translate(24,25)"/>
<path d="M0,0 L1,0 L1,1 L0,1 Z " fill="#A557D4" opacity="0.9647059" transform="translate(23,25)"/>
<path d="M0,0 L1,0 L1,1 L0,1 Z " fill="#A350D3" opacity="0.92156863" transform="translate(19,25)"/>
<path d="M0,0 L1,0 L1,1 L0,1 Z " fill="#B463E3" opacity="0.80784315" transform="translate(17,25)"/>
<path d="M0,0 L1,0 L1,1 L0,1 Z " fill="#B868E7" opacity="0.9411765" transform="translate(15,25)"/>
<path d="M0,0 L1,0 L1,1 L0,1 Z " fill="#AA5ADC" opacity="0.7529412" transform="translate(13,25)"/>
<path d="M0,0 L1,0 L1,1 L0,1 Z " fill="#A351D5" opacity="0.89411765" transform="translate(12,25)"/>
<path d="M0,0 L1,0 L1,1 L0,1 Z " fill="#A555D3" opacity="0.972549" transform="translate(8,25)"/>
<path d="M0,0 L1,0 L1,1 L0,1 Z " fill="#B8B6CB" opacity="0.7882353" transform="translate(7,25)"/>
<path d="M0,0 L1,0 L1,1 L0,1 Z " fill="#B6ABCC" opacity="0.7647059" transform="translate(57,24)"/>
<path d="M0,0 L1,0 L1,1 L0,1 Z " fill="#A352D3" opacity="0.99215686" transform="translate(56,24)"/>
<path d="M0,0 L1,0 L1,1 L0,1 Z " fill="#AC5ADC" opacity="0.75686276" transform="translate(52,24)"/>
<path d="M0,0 L1,0 L1,1 L0,1 Z " fill="#B969E8" opacity="0.9647059" transform="translate(51,24)"/>
<path d="M0,0 L1,0 L1,1 L0,1 Z " fill="#B969E9" opacity="0.99607843" transform="translate(44,24)"/>
<path d="M0,0 L1,0 L1,1 L0,1 Z " fill="#AD5BDC" opacity="0.75686276" transform="translate(43,24)"/>
<path d="M0,0 L1,0 L1,1 L0,1 Z " fill="#A452D4" opacity="0.9647059" transform="translate(42,24)"/>
<path d="M0,0 L1,0 L1,1 L0,1 Z " fill="#A352D3" opacity="0.99215686" transform="translate(39,24)"/>
<path d="M0,0 L1,0 L1,1 L0,1 Z " fill="#B6ABCD" opacity="0.7607843" transform="translate(38,24)"/>
<path d="M0,0 L1,0 L1,1 L0,1 Z " fill="#B6ABCC" opacity="0.7647059" transform="translate(25,24)"/>
<path d="M0,0 L1,0 L1,1 L0,1 Z " fill="#A352D3" opacity="0.99215686" transform="translate(24,24)"/>
<path d="M0,0 L1,0 L1,1 L0,1 Z " fill="#AC5ADC" opacity="0.75686276" transform="translate(20,24)"/>
<path d="M0,0 L1,0 L1,1 L0,1 Z " fill="#B969E8" opacity="0.9647059" transform="translate(19,24)"/>
<path d="M0,0 L1,0 L1,1 L0,1 Z " fill="#B969E9" opacity="0.99607843" transform="translate(12,24)"/>
<path d="M0,0 L1,0 L1,1 L0,1 Z " fill="#AD5BDC" opacity="0.75686276" transform="translate(11,24)"/>
<path d="M0,0 L1,0 L1,1 L0,1 Z " fill="#A452D4" opacity="0.9647059" transform="translate(10,24)"/>
<path d="M0,0 L1,0 L1,1 L0,1 Z " fill="#A352D3" opacity="0.99215686" transform="translate(7,24)"/>
<path d="M0,0 L1,0 L1,1 L0,1 Z " fill="#B6ABCD" opacity="0.7607843" transform="translate(6,24)"/>
<path d="M0,0 L1,0 L1,1 L0,1 Z " fill="#BBC3CB" opacity="0.90588236" transform="translate(59,23)"/>
<path d="M0,0 L1,0 L1,1 L0,1 Z " fill="#AE80D2" opacity="0.7882353" transform="translate(58,23)"/>
<path d="M0,0 L1,0 L1,1 L0,1 Z " fill="#A452D4" opacity="0.9019608" transform="translate(54,23)"/>
<path d="M0,0 L1,0 L1,1 L0,1 Z " fill="#B464E4" opacity="0.85490197" transform="translate(53,23)"/>
<path d="M0,0 L1,0 L1,1 L0,1 Z " fill="#B767E5" opacity="0.8862745" transform="translate(42,23)"/>
<path d="M0,0 L1,0 L1,1 L0,1 Z " fill="#A452D5" opacity="0.85882354" transform="translate(41,23)"/>
<path d="M0,0 L1,0 L1,1 L0,1 Z " fill="#AE81D0" opacity="0.78431374" transform="translate(37,23)"/>
<path d="M0,0 L1,0 L1,1 L0,1 Z " fill="#BAC2CA" opacity="0.92156863" transform="translate(36,23)"/>
<path d="M0,0 L1,0 L1,1 L0,1 Z " fill="#BBC3CB" opacity="0.90588236" transform="translate(27,23)"/>
<path d="M0,0 L1,0 L1,1 L0,1 Z " fill="#AE80D2" opacity="0.7882353" transform="translate(26,23)"/>
<path d="M0,0 L1,0 L1,1 L0,1 Z " fill="#A452D4" opacity="0.9019608" transform="translate(22,23)"/>
<path d="M0,0 L1,0 L1,1 L0,1 Z " fill="#B464E4" opacity="0.85490197" transform="translate(21,23)"/>
<path d="M0,0 L1,0 L1,1 L0,1 Z " fill="#B767E5" opacity="0.8862745" transform="translate(10,23)"/>
<path d="M0,0 L1,0 L1,1 L0,1 Z " fill="#A452D5" opacity="0.85882354" transform="translate(9,23)"/>
<path d="M0,0 L1,0 L1,1 L0,1 Z " fill="#AE81D0" opacity="0.78431374" transform="translate(5,23)"/>
<path d="M0,0 L1,0 L1,1 L0,1 Z " fill="#BAC2CA" opacity="0.92156863" transform="translate(4,23)"/>
<path d="M0,0 L1,0 L1,1 L0,1 Z " fill="#BAC1CA" opacity="0.8862745" transform="translate(62,22)"/>
<path d="M0,0 L1,0 L1,1 L0,1 Z " fill="#AE83D0" opacity="0.78039217" transform="translate(60,22)"/>
<path d="M0,0 L1,0 L1,1 L0,1 Z " fill="#A555D4" opacity="0.9764706" transform="translate(59,22)"/>
<path d="M0,0 L1,0 L1,1 L0,1 Z " fill="#A552D4" opacity="0.8392157" transform="translate(55,22)"/>
<path d="M0,0 L1,0 L1,1 L0,1 Z " fill="#B767E7" opacity="0.91764706" transform="translate(54,22)"/>
<path d="M0,0 L1,0 L1,1 L0,1 Z " fill="#B868E7" opacity="0.94509804" transform="translate(41,22)"/>
<path d="M0,0 L1,0 L1,1 L0,1 Z " fill="#A553D6" opacity="0.81960785" transform="translate(40,22)"/>
<path d="M0,0 L1,0 L1,1 L0,1 Z " fill="#A555D3" opacity="0.972549" transform="translate(36,22)"/>
<path d="M0,0 L1,0 L1,1 L0,1 Z " fill="#B9B6CC" opacity="0.7921569" transform="translate(34,22)"/>
<path d="M0,0 L1,0 L1,1 L0,1 Z " fill="#BBC1CB" opacity="0.88235295" transform="translate(33,22)"/>
<path d="M0,0 L1,0 L1,1 L0,1 Z " fill="#BAC4CB" opacity="0.9882353" transform="translate(32,22)"/>
<path d="M0,0 L1,0 L1,1 L0,1 Z " fill="#BAC1CA" opacity="0.8862745" transform="translate(30,22)"/>
<path d="M0,0 L1,0 L1,1 L0,1 Z " fill="#AE83D0" opacity="0.78039217" transform="translate(28,22)"/>
<path d="M0,0 L1,0 L1,1 L0,1 Z " fill="#A555D4" opacity="0.9764706" transform="translate(27,22)"/>
<path d="M0,0 L1,0 L1,1 L0,1 Z " fill="#A552D4" opacity="0.8392157" transform="translate(23,22)"/>
<path d="M0,0 L1,0 L1,1 L0,1 Z " fill="#B767E7" opacity="0.91764706" transform="translate(22,22)"/>
<path d="M0,0 L1,0 L1,1 L0,1 Z " fill="#B868E7" opacity="0.94509804" transform="translate(9,22)"/>
<path d="M0,0 L1,0 L1,1 L0,1 Z " fill="#A553D6" opacity="0.81960785" transform="translate(8,22)"/>
<path d="M0,0 L1,0 L1,1 L0,1 Z " fill="#A556D4" opacity="0.9607843" transform="translate(4,22)"/>
<path d="M0,0 L1,0 L1,1 L0,1 Z " fill="#A753D7" opacity="0.7921569" transform="translate(56,21)"/>
<path d="M0,0 L1,0 L1,1 L0,1 Z " fill="#B969E8" opacity="0.9647059" transform="translate(55,21)"/>
<path d="M0,0 L1,0 L1,1 L0,1 Z " fill="#B86AE9" opacity="0.972549" transform="translate(40,21)"/>
<path d="M0,0 L1,0 L1,1 L0,1 Z " fill="#A654D7" opacity="0.7882353" transform="translate(39,21)"/>
<path d="M0,0 L1,0 L1,1 L0,1 Z " fill="#A753D7" opacity="0.7921569" transform="translate(24,21)"/>
<path d="M0,0 L1,0 L1,1 L0,1 Z " fill="#B969E8" opacity="0.9647059" transform="translate(23,21)"/>
<path d="M0,0 L1,0 L1,1 L0,1 Z " fill="#B86AE9" opacity="0.972549" transform="translate(8,21)"/>
<path d="M0,0 L1,0 L1,1 L0,1 Z " fill="#A654D7" opacity="0.7882353" transform="translate(7,21)"/>
<path d="M0,0 L1,0 L1,1 L0,1 Z " fill="#A856D8" opacity="0.7647059" transform="translate(57,20)"/>
<path d="M0,0 L1,0 L1,1 L0,1 Z " fill="#BA6AE9" opacity="0.99215686" transform="translate(56,20)"/>
<path d="M0,0 L1,0 L1,1 L0,1 Z " fill="#BA6AE9" opacity="0.99215686" transform="translate(39,20)"/>
<path d="M0,0 L1,0 L1,1 L0,1 Z " fill="#A857D9" opacity="0.7607843" transform="translate(38,20)"/>
<path d="M0,0 L1,0 L1,1 L0,1 Z " fill="#A856D8" opacity="0.7647059" transform="translate(25,20)"/>
<path d="M0,0 L1,0 L1,1 L0,1 Z " fill="#BA6AE9" opacity="0.99215686" transform="translate(24,20)"/>
<path d="M0,0 L1,0 L1,1 L0,1 Z " fill="#BA6AE9" opacity="0.99215686" transform="translate(7,20)"/>
<path d="M0,0 L1,0 L1,1 L0,1 Z " fill="#A857D9" opacity="0.7607843" transform="translate(6,20)"/>
<path d="M0,0 L1,0 L1,1 L0,1 Z " fill="#B15FE2" opacity="0.7882353" transform="translate(58,19)"/>
<path d="M0,0 L1,0 L1,1 L0,1 Z " fill="#B060E1" opacity="0.78431374" transform="translate(37,19)"/>
<path d="M0,0 L1,0 L1,1 L0,1 Z " fill="#A350D3" opacity="0.92156863" transform="translate(36,19)"/>
<path d="M0,0 L1,0 L1,1 L0,1 Z " fill="#B15FE2" opacity="0.7882353" transform="translate(26,19)"/>
<path d="M0,0 L1,0 L1,1 L0,1 Z " fill="#B060E1" opacity="0.78431374" transform="translate(5,19)"/>
<path d="M0,0 L1,0 L1,1 L0,1 Z " fill="#A350D3" opacity="0.92156863" transform="translate(4,19)"/>
<path d="M0,0 L1,0 L1,1 L0,1 Z " fill="#A451D4" opacity="0.8862745" transform="translate(62,18)"/>
<path d="M0,0 L1,0 L1,1 L0,1 Z " fill="#B05FE1" opacity="0.78039217" transform="translate(60,18)"/>
<path d="M0,0 L1,0 L1,1 L0,1 Z " fill="#B968E8" opacity="0.9764706" transform="translate(59,18)"/>
<path d="M0,0 L1,0 L1,1 L0,1 Z " fill="#B86AE9" opacity="0.972549" transform="translate(36,18)"/>
<path d="M0,0 L1,0 L1,1 L0,1 Z " fill="#AF5EE0" opacity="0.77254903" transform="translate(35,18)"/>
<path d="M0,0 L1,0 L1,1 L0,1 Z " fill="#A453D4" opacity="0.88235295" transform="translate(33,18)"/>
<path d="M0,0 L1,0 L1,1 L0,1 Z " fill="#A452D4" opacity="0.9882353" transform="translate(32,18)"/>
<path d="M0,0 L1,0 L1,1 L0,1 Z " fill="#A451D4" opacity="0.8862745" transform="translate(30,18)"/>
<path d="M0,0 L1,0 L1,1 L0,1 Z " fill="#B05FE1" opacity="0.78039217" transform="translate(28,18)"/>
<path d="M0,0 L1,0 L1,1 L0,1 Z " fill="#B968E8" opacity="0.9764706" transform="translate(27,18)"/>
<path d="M0,0 L1,0 L1,1 L0,1 Z " fill="#B869E7" opacity="0.9607843" transform="translate(4,18)"/>
<path d="M0,0 L1,0 L1,1 L0,1 Z " fill="#BC6EEB" opacity="0.94509804" transform="translate(4,15)"/>
<path d="M0,0 L1,0 L1,1 L0,1 Z " fill="#C680F1" opacity="0.77254903" transform="translate(4,13)"/>
<path d="M0,0 L1,0 L1,1 L0,1 Z " fill="#D393F8" opacity="0.78431374" transform="translate(4,12)"/>
<path d="M0,0 L1,0 L1,1 L0,1 Z " fill="#C074EE" opacity="0.8509804" transform="translate(5,11)"/>
<path d="M0,0 L1,0 L1,1 L0,1 Z " fill="#D498F9" opacity="0.93333334" transform="translate(4,11)"/>
<path d="M0,0 L1,0 L1,1 L0,1 Z " fill="#BC6DEA" opacity="0.9647059" transform="translate(6,10)"/>
<path d="M0,0 L1,0 L1,1 L0,1 Z " fill="#D195F4" opacity="0.85490197" transform="translate(4,10)"/>
<path d="M0,0 L1,0 L1,1 L0,1 Z " fill="#353540" opacity="0.8509804" transform="translate(0,10)"/>
<path d="M0,0 L1,0 L1,1 L0,1 Z " fill="#BF72ED" opacity="0.88235295" transform="translate(7,9)"/>
<path d="M0,0 L1,0 L1,1 L0,1 Z " fill="#D597FA" opacity="0.85490197" transform="translate(6,9)"/>
<path d="M0,0 L1,0 L1,1 L0,1 Z " fill="#C074EC" opacity="0.85882354" transform="translate(10,8)"/>
<path d="M0,0 L1,0 L1,1 L0,1 Z " fill="#D393F8" opacity="0.78431374" transform="translate(8,8)"/>
<path d="M0,0 L1,0 L1,1 L0,1 Z " fill="#D698FA" opacity="0.9843137" transform="translate(7,8)"/>
<path d="M0,0 L1,0 L1,1 L0,1 Z " fill="#775D8C" opacity="0.78431374" transform="translate(4,8)"/>
<path d="M0,0 L1,0 L1,1 L0,1 Z " fill="#343441" opacity="0.5372549" transform="translate(0,8)"/>
<path d="M0,0 L1,0 L1,1 L0,1 Z " fill="#CF94F4" opacity="0.8509804" transform="translate(5,7)"/>
<path d="M0,0 L1,0 L1,1 L0,1 Z " fill="#373544" opacity="0.9882353" transform="translate(4,7)"/>
<path d="M0,0 L1,0 L1,1 L0,1 Z " fill="#D698FA" opacity="0.9647059" transform="translate(6,6)"/>
<path d="M0,0 L1,0 L1,1 L0,1 Z " fill="#5B4C6D" opacity="0.84313726" transform="translate(5,6)"/>
<path d="M0,0 L1,0 L1,1 L0,1 Z " fill="#343440" opacity="0.85490197" transform="translate(1,6)"/>
<path d="M0,0 L1,0 L1,1 L0,1 Z " fill="#343440" opacity="0.003921569" transform="translate(0,6)"/>
<path d="M0,0 L1,0 L1,1 L0,1 Z " fill="#D296F6" opacity="0.88235295" transform="translate(7,5)"/>
<path d="M0,0 L1,0 L1,1 L0,1 Z " fill="#584968" opacity="0.85490197" transform="translate(6,5)"/>
<path d="M0,0 L1,0 L1,1 L0,1 Z " fill="#D094F3" opacity="0.85882354" transform="translate(10,4)"/>
<path d="M0,0 L1,0 L1,1 L0,1 Z " fill="#755D8C" opacity="0.78431374" transform="translate(8,4)"/>
<path d="M0,0 L1,0 L1,1 L0,1 Z " fill="#383744" opacity="0.9843137" transform="translate(7,4)"/>
<path d="M0,0 L1,0 L1,1 L0,1 Z " fill="#353540" opacity="0.003921569" transform="translate(1,4)"/>
<path d="M0,0 L1,0 L1,1 L0,1 Z " fill="#353540" opacity="0.90588236" transform="translate(3,3)"/>
<path d="M0,0 L1,0 L1,1 L0,1 Z " fill="#36363E" opacity="0.12941177" transform="translate(2,3)"/>
<path d="M0,0 L1,0 L1,1 L0,1 Z " fill="#343441" opacity="0.15294118" transform="translate(3,2)"/>
<path d="M0,0 L1,0 L1,1 L0,1 Z " fill="#343440" opacity="0.85490197" transform="translate(6,1)"/>
<path d="M0,0 L1,0 L1,1 L0,1 Z " fill="#353540" opacity="0.03529412" transform="translate(4,1)"/>
<path d="M0,0 L1,0 L1,1 L0,1 Z " fill="#343440" opacity="0.827451" transform="translate(10,0)"/>
<path d="M0,0 L1,0 L1,1 L0,1 Z " fill="#353540" opacity="0.5647059" transform="translate(8,0)"/>
<path d="M0,0 L1,0 L1,1 L0,1 Z " fill="#323241" opacity="0.003921569" transform="translate(6,0)"/>
</svg>
