<?xml version="1.0" encoding="UTF-8"?>
<!-- Generator: visioncortex VTracer 0.6.4 -->
<svg version="1.1" xmlns="http://www.w3.org/2000/svg" width="64" height="64">
<path d="M0,0 L64,0 L64,64 L0,64 Z M15,16 L15,19 L16,19 L16,16 Z M48,16 L48,17 L47,17 L47,22 L46,22 L46,23 L44,23 L44,24 L47,24 L47,23 L49,23 L49,20 L52,20 L52,19 L49,19 L49,16 Z M12,19 L12,20 L15,20 L15,19 Z M15,20 L15,23 L12,23 L12,24 L16,24 L16,27 L17,27 L17,24 L20,24 L20,23 L17,23 L17,20 Z M49,23 L49,24 L52,24 L52,23 Z M47,24 L47,27 L48,27 L48,24 Z M51,26 L51,29 L52,29 L52,26 Z M17,27 L17,28 L20,28 L20,27 Z M44,27 L44,28 L47,28 L47,27 Z M36,28 L36,29 L37,29 L37,28 Z M37,29 L37,30 L40,30 L40,29 Z M48,29 L48,30 L51,30 L51,29 Z M13,32 L13,33 L16,33 L16,32 Z M24,32 L24,33 L27,33 L27,32 Z M12,33 L12,36 L13,36 L13,33 Z M27,33 L27,36 L28,36 L28,33 Z M33,36 L33,37 L36,37 L36,36 Z M48,36 L48,37 L51,37 L51,36 Z M32,37 L32,40 L33,40 L33,37 Z M51,37 L51,40 L52,40 L52,37 Z M4,38 L4,39 L7,39 L7,38 Z M57,38 L57,39 L60,39 L60,38 Z M7,39 L7,42 L8,42 L8,39 Z M56,39 L56,42 L57,42 L57,39 Z M12,44 L12,47 L13,47 L13,44 Z M27,44 L27,47 L28,47 L28,44 Z M13,47 L13,48 L16,48 L16,47 Z M24,47 L24,48 L27,48 L27,47 Z M7,48 L7,51 L4,51 L4,52 L7,52 L7,53 L8,53 L8,48 Z M56,48 L56,53 L57,53 L57,52 L60,52 L60,51 L57,51 L57,48 Z M32,50 L32,55 L33,55 L33,54 L36,54 L36,53 L33,53 L33,50 Z M51,50 L51,53 L48,53 L48,54 L51,54 L51,55 L52,55 L52,50 Z M4,53 L4,54 L7,54 L7,53 Z M57,53 L57,54 L60,54 L60,53 Z M33,55 L33,56 L36,56 L36,55 Z M48,55 L48,56 L51,56 L51,55 Z M48,19 L49,19 L49,20 L48,20 Z M16,23 L17,23 L17,24 L16,24 Z " fill="#BBC4CB" transform="translate(0,0)"/>
<path d="M0,0 L64,0 L64,24 L52,24 L52,23 L49,23 L49,20 L52,20 L52,19 L49,19 L49,16 L48,16 L48,17 L47,17 L47,22 L46,22 L46,23 L44,23 L44,24 L47,24 L47,27 L44,27 L44,28 L20,28 L20,27 L17,27 L17,24 L20,24 L20,23 L17,23 L17,20 L15,20 L15,23 L12,23 L12,24 L0,24 Z M15,16 L15,19 L16,19 L16,16 Z M12,19 L12,20 L15,20 L15,19 Z M48,19 L49,19 L49,20 L48,20 Z M16,23 L17,23 L17,24 L16,24 Z M47,23 L48,23 L48,24 L47,24 Z " fill="#5E5E6D" transform="translate(0,0)"/>
<path d="M0,0 L4,0 L4,15 L1,15 L1,12 L-1,12 L-1,11 L0,11 Z M28,0 L32,0 L32,9 L31,9 L31,14 L30,14 L30,15 L28,15 Z M32,11 L33,11 L33,12 L32,12 Z M-16,12 L-1,12 L-1,15 L-4,15 L-4,16 L-16,16 Z M33,12 L48,12 L48,16 L36,16 L36,15 L33,15 Z M0,15 L1,15 L1,16 L0,16 Z M31,15 L32,15 L32,16 L31,16 Z M1,16 L31,16 L31,19 L28,19 L28,20 L4,20 L4,19 L1,19 Z " fill="#424251" transform="translate(16,8)"/>
<path d="M0,0 L44,0 L44,4 L21,4 L21,5 L20,5 L20,4 L16,4 L16,12 L15,12 L15,15 L12,15 L12,16 L0,16 Z " fill="#5E5E6D" transform="translate(0,4)"/>
<path d="M0,0 L12,0 L12,1 L15,1 L15,4 L16,4 L16,14 L15,14 L15,17 L12,17 L12,18 L0,18 L0,17 L-3,17 L-3,14 L-4,14 L-4,4 L-3,4 L-3,1 L0,1 Z " fill="#CFD5DA" transform="translate(36,36)"/>
<path d="M0,0 L64,0 L64,4 L0,4 Z " fill="#353541" transform="translate(0,60)"/>
<path d="M0,0 L64,0 L64,4 L0,4 Z " fill="#353541" transform="translate(0,0)"/>
<path d="M0,0 L8,0 L8,1 L11,1 L11,4 L12,4 L12,12 L11,12 L11,15 L8,15 L8,16 L0,16 L0,15 L-3,15 L-3,12 L-4,12 L-4,4 L-3,4 L-3,1 L0,1 Z " fill="#A6B2BB" transform="translate(16,32)"/>
<path d="M0,0 L15,0 L15,12 L3,12 L3,11 L0,11 L0,8 L-1,8 L-1,1 L0,1 Z " fill="#5E5E6D" transform="translate(49,8)"/>
<path d="M0,0 L4,0 L4,14 L0,14 L0,13 L-3,13 L-3,10 L-4,10 L-4,4 L-3,4 L-3,1 L0,1 Z " fill="#A6B2BB" transform="translate(60,38)"/>
<path d="M0,0 L4,0 L4,1 L7,1 L7,4 L8,4 L8,10 L7,10 L7,13 L4,13 L4,14 L0,14 Z " fill="#A6B2BB" transform="translate(0,38)"/>
<path d="M0,0 L24,0 L24,4 L0,4 Z " fill="#717180" transform="translate(20,4)"/>
<path d="M0,0 L1,0 L1,1 L0,1 Z M1,1 L16,1 L16,5 L4,5 L4,4 L1,4 Z " fill="#424251" transform="translate(48,19)"/>
<path d="M0,0 L16,0 L16,4 L0,4 Z " fill="#717180" transform="translate(48,4)"/>
<path d="M0,0 L16,0 L16,4 L0,4 Z " fill="#717180" transform="translate(0,4)"/>
<path d="M0,0 L4,0 L4,9 L3,9 L3,14 L2,14 L2,15 L0,15 Z " fill="#4F4F5D" transform="translate(44,8)"/>
<path d="M0,0 L4,0 L4,15 L1,15 L1,12 L0,12 Z " fill="#4F4F5D" transform="translate(16,8)"/>
<path d="M0,0 L1,0 L1,1 L0,1 Z M-15,1 L0,1 L0,4 L-3,4 L-3,5 L-15,5 Z " fill="#424251" transform="translate(15,19)"/>
<path d="M0,0 L1,0 L1,1 L4,1 L4,3 L3,3 L3,6 L0,6 L0,7 L-8,7 L-8,6 L-11,6 L-11,5 L-1,5 L-1,4 L0,4 Z " fill="#A6B2BB" transform="translate(48,23)"/>
<path d="M0,0 L18,0 L18,1 L15,1 L15,2 L3,2 L3,1 L0,1 Z " fill="#A6B2BB" transform="translate(33,54)"/>
<path d="M0,0 L7,0 L7,1 L4,1 L4,2 L0,2 Z " fill="#CFD5DA" transform="translate(0,52)"/>
<path d="M0,0 L7,0 L7,2 L3,2 L3,1 L0,1 Z " fill="#CFD5DA" transform="translate(57,52)"/>
<path d="M0,0 L3,0 L3,1 L0,1 Z " fill="#A6B2BB" transform="translate(33,54)"/>
<path d="M0,0 L1,0 L1,1 L0,1 Z M1,1 L2,1 L2,2 L1,2 Z " fill="#424251" transform="translate(16,23)"/>
<path d="M0,0 L4,0 L4,2 L0,2 Z " fill="#CFD5DA" transform="translate(60,52)"/>
<path d="M0,0 L3,0 L3,1 L0,1 Z " fill="#A6B2BB" transform="translate(37,28)"/>
<path d="M0,0 L1,0 L1,1 L0,1 Z " fill="#CDD4D9" opacity="0.827451" transform="translate(7,51)"/>
<path d="M0,0 L1,0 L1,1 L0,1 Z M1,1 L2,1 L2,2 L1,2 Z " fill="#424251" transform="translate(48,19)"/>
<path d="M0,0 L1,0 L1,1 L0,1 Z " fill="#A7B4BC" opacity="0.81960785" transform="translate(51,53)"/>
<path d="M0,0 L1,0 L1,1 L0,1 Z " fill="#A7B3BC" opacity="0.827451" transform="translate(32,53)"/>
<path d="M0,0 L1,0 L1,1 L0,1 Z " fill="#CED5DA" opacity="0.827451" transform="translate(56,51)"/>
<path d="M0,0 L1,0 L1,1 L0,1 Z " fill="#A5B1BA" opacity="0.9411765" transform="translate(15,32)"/>
<path d="M0,0 L1,0 L1,1 L0,1 Z " fill="#464656" opacity="0.8392157" transform="translate(48,21)"/>
<path d="M0,0 L1,0 L1,1 L0,1 Z " fill="#4D4D5B" opacity="0.972549" transform="translate(47,18)"/>
<path d="M0,0 L1,0 L1,1 L0,1 Z M-1,1 L0,1 L0,2 L-1,2 Z " fill="#454554" opacity="0.78431374" transform="translate(15,18)"/>
<path d="M0,0 L1,0 L1,1 L0,1 Z " fill="#CED4D9" opacity="0.92156863" transform="translate(15,23)"/>
<path d="M0,0 L1,0 L1,1 L0,1 Z " fill="#4A4A58" opacity="0.81960785" transform="translate(16,21)"/>
<path d="M0,0 L1,0 L1,1 L0,1 Z " fill="#B3BEC4" opacity="0.7921569" transform="translate(50,55)"/>
<path d="M0,0 L1,0 L1,1 L0,1 Z " fill="#A7B3BC" opacity="0.827451" transform="translate(34,55)"/>
<path d="M0,0 L1,0 L1,1 L0,1 Z " fill="#CDD4D9" opacity="0.827451" transform="translate(58,53)"/>
<path d="M0,0 L1,0 L1,1 L0,1 Z " fill="#CED4D9" opacity="0.9411765" transform="translate(35,53)"/>
<path d="M0,0 L1,0 L1,1 L0,1 Z " fill="#C3CAD1" opacity="0.7921569" transform="translate(6,53)"/>
<path d="M0,0 L1,0 L1,1 L0,1 Z " fill="#A7B4BB" opacity="0.95686275" transform="translate(59,51)"/>
<path d="M0,0 L1,0 L1,1 L0,1 Z " fill="#CAD0D5" opacity="0.7882353" transform="translate(6,51)"/>
<path d="M0,0 L1,0 L1,1 L0,1 Z " fill="#A6B2BC" opacity="0.84313726" transform="translate(14,47)"/>
<path d="M0,0 L1,0 L1,1 L0,1 Z " fill="#B2BDC4" opacity="0.78039217" transform="translate(27,46)"/>
<path d="M0,0 L1,0 L1,1 L0,1 Z " fill="#B2BCC4" opacity="0.7764706" transform="translate(12,46)"/>
<path d="M0,0 L1,0 L1,1 L0,1 Z " fill="#A7B3BC" opacity="0.827451" transform="translate(56,40)"/>
<path d="M0,0 L1,0 L1,1 L0,1 Z " fill="#A7B4BC" opacity="0.81960785" transform="translate(7,40)"/>
<path d="M0,0 L1,0 L1,1 L0,1 Z " fill="#A7B4BD" opacity="0.827451" transform="translate(58,38)"/>
<path d="M0,0 L1,0 L1,1 L0,1 Z " fill="#CDD5D8" opacity="0.81960785" transform="translate(51,38)"/>
<path d="M0,0 L1,0 L1,1 L0,1 Z " fill="#CDD4D9" opacity="0.827451" transform="translate(32,38)"/>
<path d="M0,0 L1,0 L1,1 L0,1 Z " fill="#B3BEC4" opacity="0.7921569" transform="translate(6,38)"/>
<path d="M0,0 L1,0 L1,1 L0,1 Z " fill="#C4CAD1" opacity="0.7921569" transform="translate(50,36)"/>
<path d="M0,0 L1,0 L1,1 L0,1 Z " fill="#CED5DA" opacity="0.827451" transform="translate(34,36)"/>
<path d="M0,0 L1,0 L1,1 L0,1 Z " fill="#A5B1BA" opacity="0.9411765" transform="translate(12,35)"/>
<path d="M0,0 L1,0 L1,1 L0,1 Z " fill="#A8B3BC" opacity="0.8235294" transform="translate(27,34)"/>
<path d="M0,0 L1,0 L1,1 L0,1 Z " fill="#B3BCC4" opacity="0.7921569" transform="translate(26,32)"/>
<path d="M0,0 L1,0 L1,1 L0,1 Z M-1,1 L0,1 L0,2 L-1,2 Z " fill="#B2BDC5" opacity="0.7882353" transform="translate(13,32)"/>
<path d="M0,0 L1,0 L1,1 L0,1 Z " fill="#B4BDC5" opacity="0.79607844" transform="translate(50,29)"/>
<path d="M0,0 L1,0 L1,1 L0,1 Z " fill="#A7B3BC" opacity="0.827451" transform="translate(38,29)"/>
<path d="M0,0 L1,0 L1,1 L0,1 Z " fill="#B3BEC4" opacity="0.7921569" transform="translate(51,28)"/>
<path d="M0,0 L1,0 L1,1 L0,1 Z " fill="#4C4D5C" opacity="0.8039216" transform="translate(18,27)"/>
<path d="M0,0 L1,0 L1,1 L0,1 Z " fill="#464656" opacity="0.8352941" transform="translate(50,23)"/>
<path d="M0,0 L1,0 L1,1 L0,1 Z " fill="#414152" opacity="0.80784315" transform="translate(46,23)"/>
<path d="M0,0 L1,0 L1,1 L0,1 Z " fill="#494958" opacity="0.80784315" transform="translate(18,23)"/>
<path d="M0,0 L1,0 L1,1 L0,1 Z " fill="#5B5B6B" opacity="0.94509804" transform="translate(51,19)"/>
<path d="M0,0 L1,0 L1,1 L0,1 Z " fill="#A7B3BC" opacity="0.827451" transform="translate(49,55)"/>
<path d="M0,0 L1,0 L1,1 L0,1 Z " fill="#A4B1BB" opacity="0.9372549" transform="translate(48,55)"/>
<path d="M0,0 L1,0 L1,1 L0,1 Z " fill="#A5B1BA" opacity="0.9411765" transform="translate(35,55)"/>
<path d="M0,0 L1,0 L1,1 L0,1 Z " fill="#B1BCC4" opacity="0.7921569" transform="translate(33,55)"/>
<path d="M0,0 L1,0 L1,1 L0,1 Z " fill="#B3BDC5" opacity="0.8" transform="translate(51,54)"/>
<path d="M0,0 L1,0 L1,1 L0,1 Z " fill="#B3BCC4" opacity="0.7921569" transform="translate(32,54)"/>
<path d="M0,0 L1,0 L1,1 L0,1 Z " fill="#BBC4CB" transform="translate(0,54)"/>
<path d="M0,0 L1,0 L1,1 L0,1 Z " fill="#CFD5DA" opacity="0.9529412" transform="translate(59,53)"/>
<path d="M0,0 L1,0 L1,1 L0,1 Z " fill="#C1CAD1" opacity="0.7921569" transform="translate(57,53)"/>
<path d="M0,0 L1,0 L1,1 L0,1 Z " fill="#B6BFC8" opacity="0.7921569" transform="translate(50,53)"/>
<path d="M0,0 L1,0 L1,1 L0,1 Z " fill="#CBD3D7" opacity="0.827451" transform="translate(49,53)"/>
<path d="M0,0 L1,0 L1,1 L0,1 Z " fill="#CED4D9" opacity="0.9372549" transform="translate(48,53)"/>
<path d="M0,0 L1,0 L1,1 L0,1 Z " fill="#CBD3D7" opacity="0.827451" transform="translate(34,53)"/>
<path d="M0,0 L1,0 L1,1 L0,1 Z " fill="#B6BFC6" opacity="0.7921569" transform="translate(33,53)"/>
<path d="M0,0 L1,0 L1,1 L0,1 Z " fill="#CDD4D9" opacity="0.827451" transform="translate(5,53)"/>
<path d="M0,0 L1,0 L1,1 L0,1 Z " fill="#CFD5DA" opacity="0.9529412" transform="translate(4,53)"/>
<path d="M0,0 L1,0 L1,1 L0,1 Z " fill="#C4CBD0" opacity="0.7882353" transform="translate(56,52)"/>
<path d="M0,0 L1,0 L1,1 L0,1 Z " fill="#B6C1C7" opacity="0.76862746" transform="translate(51,52)"/>
<path d="M0,0 L1,0 L1,1 L0,1 Z " fill="#B6C0C7" opacity="0.76862746" transform="translate(32,52)"/>
<path d="M0,0 L1,0 L1,1 L0,1 Z " fill="#C4CBD0" opacity="0.7882353" transform="translate(7,52)"/>
<path d="M0,0 L1,0 L1,1 L0,1 Z " fill="#B1BDC4" opacity="0.827451" transform="translate(58,51)"/>
<path d="M0,0 L1,0 L1,1 L0,1 Z " fill="#C8D0D7" opacity="0.78431374" transform="translate(57,51)"/>
<path d="M0,0 L1,0 L1,1 L0,1 Z " fill="#CCD3D7" opacity="0.81960785" transform="translate(51,51)"/>
<path d="M0,0 L1,0 L1,1 L0,1 Z " fill="#CBD3D7" opacity="0.827451" transform="translate(32,51)"/>
<path d="M0,0 L1,0 L1,1 L0,1 Z " fill="#B1BDC4" opacity="0.827451" transform="translate(5,51)"/>
<path d="M0,0 L1,0 L1,1 L0,1 Z " fill="#A7B4BB" opacity="0.95686275" transform="translate(4,51)"/>
<path d="M0,0 L1,0 L1,1 L0,1 Z " fill="#C8CED5" opacity="0.7529412" transform="translate(56,50)"/>
<path d="M0,0 L1,0 L1,1 L0,1 Z " fill="#CFD5DA" opacity="0.9529412" transform="translate(51,50)"/>
<path d="M0,0 L1,0 L1,1 L0,1 Z " fill="#CFD4DA" opacity="0.95686275" transform="translate(32,50)"/>
<path d="M0,0 L1,0 L1,1 L0,1 Z " fill="#C6CED5" opacity="0.75686276" transform="translate(7,50)"/>
<path d="M0,0 L1,0 L1,1 L0,1 Z " fill="#B0BBC2" opacity="0.8352941" transform="translate(56,49)"/>
<path d="M0,0 L1,0 L1,1 L0,1 Z " fill="#B1BDC4" opacity="0.827451" transform="translate(7,49)"/>
<path d="M0,0 L1,0 L1,1 L0,1 Z " fill="#A7B4BC" opacity="0.95686275" transform="translate(56,48)"/>
<path d="M0,0 L1,0 L1,1 L0,1 Z " fill="#A7B4BB" opacity="0.95686275" transform="translate(7,48)"/>
<path d="M0,0 L1,0 L1,1 L0,1 Z " fill="#B2BCC4" opacity="0.7764706" transform="translate(26,47)"/>
<path d="M0,0 L1,0 L1,1 L0,1 Z " fill="#A6B3BB" opacity="0.8392157" transform="translate(25,47)"/>
<path d="M0,0 L1,0 L1,1 L0,1 Z " fill="#A5B2BB" opacity="0.96862745" transform="translate(24,47)"/>
<path d="M0,0 L1,0 L1,1 L0,1 Z " fill="#A5B2BB" opacity="0.96862745" transform="translate(15,47)"/>
<path d="M0,0 L1,0 L1,1 L0,1 Z " fill="#B0BBC5" opacity="0.77254903" transform="translate(13,47)"/>
<path d="M0,0 L1,0 L1,1 L0,1 Z " fill="#A7B3BC" opacity="0.8039216" transform="translate(27,45)"/>
<path d="M0,0 L1,0 L1,1 L0,1 Z " fill="#A8B3BD" opacity="0.8117647" transform="translate(12,45)"/>
<path d="M0,0 L1,0 L1,1 L0,1 Z " fill="#A5B1BA" opacity="0.92156863" transform="translate(27,44)"/>
<path d="M0,0 L1,0 L1,1 L0,1 Z " fill="#A7B2BB" opacity="0.9254902" transform="translate(12,44)"/>
<path d="M0,0 L1,0 L1,1 L0,1 Z " fill="#A5B2BA" opacity="0.95686275" transform="translate(56,41)"/>
<path d="M0,0 L1,0 L1,1 L0,1 Z " fill="#A6B2BB" opacity="0.9529412" transform="translate(7,41)"/>
<path d="M0,0 L1,0 L1,1 L0,1 Z " fill="#A6B2BB" transform="translate(57,39)"/>
<path d="M0,0 L1,0 L1,1 L0,1 Z " fill="#B1BCC4" opacity="0.7921569" transform="translate(56,39)"/>
<path d="M0,0 L1,0 L1,1 L0,1 Z " fill="#CFD5DA" opacity="0.9529412" transform="translate(51,39)"/>
<path d="M0,0 L1,0 L1,1 L0,1 Z " fill="#CFD4DA" opacity="0.95686275" transform="translate(32,39)"/>
<path d="M0,0 L1,0 L1,1 L0,1 Z " fill="#B3BDC5" opacity="0.8" transform="translate(7,39)"/>
<path d="M0,0 L1,0 L1,1 L0,1 Z " fill="#A5B1BA" opacity="0.9411765" transform="translate(59,38)"/>
<path d="M0,0 L1,0 L1,1 L0,1 Z " fill="#B3BDC5" opacity="0.7882353" transform="translate(57,38)"/>
<path d="M0,0 L1,0 L1,1 L0,1 Z " fill="#A7B3BC" opacity="0.827451" transform="translate(5,38)"/>
<path d="M0,0 L1,0 L1,1 L0,1 Z " fill="#A5B1BA" opacity="0.9411765" transform="translate(4,38)"/>
<path d="M0,0 L1,0 L1,1 L0,1 Z " fill="#C2CAD0" opacity="0.8" transform="translate(51,37)"/>
<path d="M0,0 L1,0 L1,1 L0,1 Z " fill="#CFD5DA" transform="translate(33,37)"/>
<path d="M0,0 L1,0 L1,1 L0,1 Z " fill="#C1CAD1" opacity="0.7921569" transform="translate(32,37)"/>
<path d="M0,0 L1,0 L1,1 L0,1 Z " fill="#CDD4D9" opacity="0.827451" transform="translate(49,36)"/>
<path d="M0,0 L1,0 L1,1 L0,1 Z " fill="#CED4D9" opacity="0.9411765" transform="translate(48,36)"/>
<path d="M0,0 L1,0 L1,1 L0,1 Z " fill="#CED4D9" opacity="0.9411765" transform="translate(35,36)"/>
<path d="M0,0 L1,0 L1,1 L0,1 Z " fill="#C4CBD0" opacity="0.7882353" transform="translate(33,36)"/>
<path d="M0,0 L1,0 L1,1 L0,1 Z " fill="#A6B2BB" opacity="0.9372549" transform="translate(27,35)"/>
<path d="M0,0 L1,0 L1,1 L0,1 Z " fill="#A7B2BB" opacity="0.83137256" transform="translate(12,34)"/>
<path d="M0,0 L1,0 L1,1 L0,1 Z " fill="#B3BEC4" opacity="0.7921569" transform="translate(27,33)"/>
<path d="M0,0 L1,0 L1,1 L0,1 Z " fill="#A6B2BB" transform="translate(13,33)"/>
<path d="M0,0 L1,0 L1,1 L0,1 Z " fill="#A7B3BC" opacity="0.827451" transform="translate(25,32)"/>
<path d="M0,0 L1,0 L1,1 L0,1 Z " fill="#A4B1BB" opacity="0.9372549" transform="translate(24,32)"/>
<path d="M0,0 L1,0 L1,1 L0,1 Z " fill="#A7B2BB" opacity="0.83137256" transform="translate(14,32)"/>
<path d="M0,0 L1,0 L1,1 L0,1 Z " fill="#A7B2BC" opacity="0.81960785" transform="translate(49,29)"/>
<path d="M0,0 L1,0 L1,1 L0,1 Z " fill="#A6B2BB" opacity="0.9529412" transform="translate(48,29)"/>
<path d="M0,0 L1,0 L1,1 L0,1 Z " fill="#A5B2BA" opacity="0.95686275" transform="translate(39,29)"/>
<path d="M0,0 L1,0 L1,1 L0,1 Z " fill="#B1BCC5" opacity="0.78431374" transform="translate(37,29)"/>
<path d="M0,0 L1,0 L1,1 L0,1 Z " fill="#B2BBC4" opacity="0.78039217" transform="translate(36,28)"/>
<path d="M0,0 L1,0 L1,1 L0,1 Z " fill="#A8B3BC" opacity="0.8235294" transform="translate(51,27)"/>
<path d="M0,0 L1,0 L1,1 L0,1 Z " fill="#7B838E" opacity="0.78039217" transform="translate(46,27)"/>
<path d="M0,0 L1,0 L1,1 L0,1 Z " fill="#4A4C59" opacity="0.8039216" transform="translate(45,27)"/>
<path d="M0,0 L1,0 L1,1 L0,1 Z " fill="#424251" opacity="0.92156863" transform="translate(44,27)"/>
<path d="M0,0 L1,0 L1,1 L0,1 Z " fill="#424251" opacity="0.92156863" transform="translate(19,27)"/>
<path d="M0,0 L1,0 L1,1 L0,1 Z " fill="#888D97" opacity="0.78039217" transform="translate(17,27)"/>
<path d="M0,0 L1,0 L1,1 L0,1 Z " fill="#A6B2BB" opacity="0.9529412" transform="translate(51,26)"/>
<path d="M0,0 L1,0 L1,1 L0,1 Z " fill="#79808C" opacity="0.7764706" transform="translate(47,26)"/>
<path d="M0,0 L1,0 L1,1 L0,1 Z " fill="#878A96" opacity="0.78039217" transform="translate(16,26)"/>
<path d="M0,0 L1,0 L1,1 L0,1 Z " fill="#464654" opacity="0.8392157" transform="translate(47,25)"/>
<path d="M0,0 L1,0 L1,1 L0,1 Z " fill="#474756" opacity="0.8392157" transform="translate(16,25)"/>
<path d="M0,0 L1,0 L1,1 L0,1 Z " fill="#414150" opacity="0.96862745" transform="translate(47,24)"/>
<path d="M0,0 L1,0 L1,1 L0,1 Z " fill="#414150" opacity="0.96862745" transform="translate(16,24)"/>
<path d="M0,0 L1,0 L1,1 L0,1 Z " fill="#414150" opacity="0.94509804" transform="translate(51,23)"/>
<path d="M0,0 L1,0 L1,1 L0,1 Z " fill="#787E8A" opacity="0.7764706" transform="translate(49,23)"/>
<path d="M0,0 L1,0 L1,1 L0,1 Z " fill="#494957" opacity="0.8039216" transform="translate(45,23)"/>
<path d="M0,0 L1,0 L1,1 L0,1 Z " fill="#4D4D5B" opacity="0.92156863" transform="translate(44,23)"/>
<path d="M0,0 L1,0 L1,1 L0,1 Z " fill="#4D4D5B" opacity="0.9372549" transform="translate(19,23)"/>
<path d="M0,0 L1,0 L1,1 L0,1 Z " fill="#424251" opacity="0.7882353" transform="translate(17,23)"/>
<path d="M0,0 L1,0 L1,1 L0,1 Z " fill="#A8ADB6" opacity="0.70980394" transform="translate(14,23)"/>
<path d="M0,0 L1,0 L1,1 L0,1 Z " fill="#484A58" opacity="0.827451" transform="translate(13,23)"/>
<path d="M0,0 L1,0 L1,1 L0,1 Z " fill="#414151" opacity="0.9529412" transform="translate(12,23)"/>
<path d="M0,0 L1,0 L1,1 L0,1 Z " fill="#79808C" opacity="0.7764706" transform="translate(48,22)"/>
<path d="M0,0 L1,0 L1,1 L0,1 Z " fill="#434351" opacity="0.7921569" transform="translate(47,22)"/>
<path d="M0,0 L1,0 L1,1 L0,1 Z " fill="#4D4D5C" opacity="0.99215686" transform="translate(46,22)"/>
<path d="M0,0 L1,0 L1,1 L0,1 Z " fill="#4E4E5C" transform="translate(17,22)"/>
<path d="M0,0 L1,0 L1,1 L0,1 Z " fill="#434351" opacity="0.78431374" transform="translate(16,22)"/>
<path d="M0,0 L1,0 L1,1 L0,1 Z " fill="#BEC3C9" opacity="0.7921569" transform="translate(15,22)"/>
<path d="M0,0 L1,0 L1,1 L0,1 Z " fill="#484859" opacity="0.8" transform="translate(47,21)"/>
<path d="M0,0 L1,0 L1,1 L0,1 Z " fill="#4A4B59" opacity="0.8117647" transform="translate(15,21)"/>
<path d="M0,0 L1,0 L1,1 L0,1 Z " fill="#414150" opacity="0.96862745" transform="translate(48,20)"/>
<path d="M0,0 L1,0 L1,1 L0,1 Z " fill="#4D4D5B" opacity="0.94509804" transform="translate(47,20)"/>
<path d="M0,0 L1,0 L1,1 L0,1 Z " fill="#4C4C5B" opacity="0.9529412" transform="translate(16,20)"/>
<path d="M0,0 L1,0 L1,1 L0,1 Z " fill="#414150" opacity="0.94509804" transform="translate(15,20)"/>
<path d="M0,0 L1,0 L1,1 L0,1 Z " fill="#555566" opacity="0.8352941" transform="translate(50,19)"/>
<path d="M0,0 L1,0 L1,1 L0,1 Z " fill="#454555" opacity="0.7764706" transform="translate(49,19)"/>
<path d="M0,0 L1,0 L1,1 L0,1 Z " fill="#4D4D5B" opacity="0.9607843" transform="translate(47,19)"/>
<path d="M0,0 L1,0 L1,1 L0,1 Z " fill="#565664" opacity="0.827451" transform="translate(13,19)"/>
<path d="M0,0 L1,0 L1,1 L0,1 Z " fill="#5B5B6C" opacity="0.972549" transform="translate(12,19)"/>
<path d="M0,0 L1,0 L1,1 L0,1 Z " fill="#5D5D6C" transform="translate(49,18)"/>
<path d="M0,0 L1,0 L1,1 L0,1 Z " fill="#444454" opacity="0.7764706" transform="translate(48,18)"/>
<path d="M0,0 L1,0 L1,1 L0,1 Z " fill="#5D5D6C" transform="translate(14,18)"/>
<path d="M0,0 L1,0 L1,1 L0,1 Z " fill="#565664" opacity="0.8392157" transform="translate(48,17)"/>
<path d="M0,0 L1,0 L1,1 L0,1 Z " fill="#4D4D5B" opacity="0.9843137" transform="translate(47,17)"/>
<path d="M0,0 L1,0 L1,1 L0,1 Z " fill="#565664" opacity="0.827451" transform="translate(15,17)"/>
<path d="M0,0 L1,0 L1,1 L0,1 Z " fill="#5C5C6A" opacity="0.96862745" transform="translate(48,16)"/>
<path d="M0,0 L1,0 L1,1 L0,1 Z " fill="#4E4E5C" transform="translate(47,16)"/>
<path d="M0,0 L1,0 L1,1 L0,1 Z " fill="#5C5C6B" opacity="0.9647059" transform="translate(15,16)"/>
</svg>
