<?xml version="1.0" encoding="UTF-8"?>
<!-- Generator: visioncortex VTracer 0.6.4 -->
<svg version="1.1" xmlns="http://www.w3.org/2000/svg" width="64" height="64">
<path d="M0,0 L64,0 L64,18 L59,18 L59,19 L58,19 L58,20 L56,20 L56,21 L55,21 L55,22 L54,22 L54,23 L53,23 L53,24 L51,24 L51,25 L45,25 L45,24 L43,24 L43,23 L42,23 L42,22 L41,22 L41,21 L40,21 L40,20 L38,20 L38,19 L37,19 L37,18 L27,18 L27,19 L26,19 L26,20 L24,20 L24,21 L23,21 L23,22 L22,22 L22,23 L21,23 L21,24 L19,24 L19,25 L13,25 L13,24 L11,24 L11,23 L10,23 L10,22 L9,22 L9,21 L8,21 L8,20 L6,20 L6,19 L5,19 L5,18 L0,18 Z M0,19 L4,19 L4,20 L6,20 L6,21 L7,21 L7,22 L8,22 L8,23 L9,23 L9,24 L10,24 L10,25 L12,25 L12,26 L20,26 L20,25 L22,25 L22,24 L23,24 L23,23 L24,23 L24,22 L25,22 L25,21 L26,21 L26,20 L28,20 L28,19 L36,19 L36,20 L38,20 L38,21 L39,21 L39,22 L40,22 L40,23 L41,23 L41,24 L42,24 L42,25 L44,25 L44,26 L52,26 L52,25 L54,25 L54,24 L55,24 L55,23 L56,23 L56,22 L57,22 L57,21 L58,21 L58,20 L60,20 L60,19 L64,19 L64,22 L59,22 L59,23 L58,23 L58,24 L56,24 L56,25 L55,25 L55,26 L54,26 L54,27 L53,27 L53,28 L51,28 L51,29 L45,29 L45,28 L43,28 L43,27 L42,27 L42,26 L41,26 L41,25 L40,25 L40,24 L38,24 L38,23 L37,23 L37,22 L27,22 L27,23 L26,23 L26,24 L24,24 L24,25 L23,25 L23,26 L22,26 L22,27 L21,27 L21,28 L19,28 L19,29 L13,29 L13,28 L11,28 L11,27 L10,27 L10,26 L9,26 L9,25 L8,25 L8,24 L6,24 L6,23 L5,23 L5,22 L0,22 Z M0,23 L4,23 L4,24 L6,24 L6,25 L7,25 L7,26 L8,26 L8,27 L9,27 L9,28 L10,28 L10,29 L12,29 L12,30 L20,30 L20,29 L22,29 L22,28 L23,28 L23,27 L24,27 L24,26 L25,26 L25,25 L26,25 L26,24 L28,24 L28,23 L36,23 L36,24 L38,24 L38,25 L39,25 L39,26 L40,26 L40,27 L41,27 L41,28 L42,28 L42,29 L44,29 L44,30 L52,30 L52,29 L54,29 L54,28 L55,28 L55,27 L56,27 L56,26 L57,26 L57,25 L58,25 L58,24 L60,24 L60,23 L64,23 L64,31 L59,31 L59,32 L58,32 L58,33 L56,33 L56,34 L55,34 L55,35 L54,35 L54,36 L53,36 L53,37 L51,37 L51,38 L45,38 L45,37 L43,37 L43,36 L42,36 L42,35 L41,35 L41,34 L40,34 L40,33 L38,33 L38,32 L37,32 L37,31 L27,31 L27,32 L26,32 L26,33 L24,33 L24,34 L23,34 L23,35 L22,35 L22,36 L21,36 L21,37 L19,37 L19,38 L13,38 L13,37 L11,37 L11,36 L10,36 L10,35 L9,35 L9,34 L8,34 L8,33 L6,33 L6,32 L5,32 L5,31 L0,31 Z M0,32 L4,32 L4,33 L6,33 L6,34 L7,34 L7,35 L8,35 L8,36 L9,36 L9,37 L10,37 L10,38 L12,38 L12,39 L20,39 L20,38 L22,38 L22,37 L23,37 L23,36 L24,36 L24,35 L25,35 L25,34 L26,34 L26,33 L28,33 L28,32 L36,32 L36,33 L38,33 L38,34 L39,34 L39,35 L40,35 L40,36 L41,36 L41,37 L42,37 L42,38 L44,38 L44,39 L52,39 L52,38 L54,38 L54,37 L55,37 L55,36 L56,36 L56,35 L57,35 L57,34 L58,34 L58,33 L60,33 L60,32 L64,32 L64,35 L59,35 L59,36 L58,36 L58,37 L56,37 L56,38 L55,38 L55,39 L54,39 L54,40 L53,40 L53,41 L51,41 L51,42 L45,42 L45,41 L43,41 L43,40 L42,40 L42,39 L41,39 L41,38 L40,38 L40,37 L38,37 L38,36 L37,36 L37,35 L27,35 L27,36 L26,36 L26,37 L24,37 L24,38 L23,38 L23,39 L22,39 L22,40 L21,40 L21,41 L19,41 L19,42 L13,42 L13,41 L11,41 L11,40 L10,40 L10,39 L9,39 L9,38 L8,38 L8,37 L6,37 L6,36 L5,36 L5,35 L0,35 Z M0,36 L4,36 L4,37 L6,37 L6,38 L7,38 L7,39 L8,39 L8,40 L9,40 L9,41 L10,41 L10,42 L12,42 L12,43 L20,43 L20,42 L22,42 L22,41 L23,41 L23,40 L24,40 L24,39 L25,39 L25,38 L26,38 L26,37 L28,37 L28,36 L36,36 L36,37 L38,37 L38,38 L39,38 L39,39 L40,39 L40,40 L41,40 L41,41 L42,41 L42,42 L44,42 L44,43 L52,43 L52,42 L54,42 L54,41 L55,41 L55,40 L56,40 L56,39 L57,39 L57,38 L58,38 L58,37 L60,37 L60,36 L64,36 L64,46 L59,46 L59,47 L58,47 L58,48 L56,48 L56,49 L55,49 L55,50 L54,50 L54,51 L53,51 L53,52 L51,52 L51,53 L45,53 L45,52 L43,52 L43,51 L42,51 L42,50 L41,50 L41,49 L40,49 L40,48 L38,48 L38,47 L37,47 L37,46 L27,46 L27,47 L26,47 L26,48 L24,48 L24,49 L23,49 L23,50 L22,50 L22,51 L21,51 L21,52 L19,52 L19,53 L13,53 L13,52 L11,52 L11,51 L10,51 L10,50 L9,50 L9,49 L8,49 L8,48 L6,48 L6,47 L5,47 L5,46 L0,46 Z M0,47 L4,47 L4,48 L6,48 L6,49 L7,49 L7,50 L8,50 L8,51 L9,51 L9,52 L10,52 L10,53 L12,53 L12,54 L20,54 L20,53 L22,53 L22,52 L23,52 L23,51 L24,51 L24,50 L25,50 L25,49 L26,49 L26,48 L28,48 L28,47 L36,47 L36,48 L38,48 L38,49 L39,49 L39,50 L40,50 L40,51 L41,51 L41,52 L42,52 L42,53 L44,53 L44,54 L52,54 L52,53 L54,53 L54,52 L55,52 L55,51 L56,51 L56,50 L57,50 L57,49 L58,49 L58,48 L60,48 L60,47 L64,47 L64,64 L0,64 Z " fill="#BBC4CB" transform="translate(0,0)"/>
<path d="M0,0 L64,0 L64,18 L59,18 L59,19 L58,19 L58,20 L56,20 L56,21 L55,21 L55,22 L54,22 L54,23 L53,23 L53,24 L51,24 L51,25 L45,25 L45,24 L43,24 L43,23 L42,23 L42,22 L41,22 L41,21 L40,21 L40,20 L38,20 L38,19 L37,19 L37,18 L27,18 L27,19 L26,19 L26,20 L24,20 L24,21 L23,21 L23,22 L22,22 L22,23 L21,23 L21,24 L19,24 L19,25 L13,25 L13,24 L11,24 L11,23 L10,23 L10,22 L9,22 L9,21 L8,21 L8,20 L6,20 L6,19 L5,19 L5,18 L0,18 Z M0,19 L4,19 L4,20 L6,20 L6,21 L7,21 L7,22 L8,22 L8,23 L9,23 L9,24 L10,24 L10,25 L12,25 L12,26 L20,26 L20,25 L22,25 L22,24 L23,24 L23,23 L24,23 L24,22 L25,22 L25,21 L26,21 L26,20 L28,20 L28,19 L36,19 L36,20 L38,20 L38,21 L39,21 L39,22 L40,22 L40,23 L41,23 L41,24 L42,24 L42,25 L44,25 L44,26 L52,26 L52,25 L54,25 L54,24 L55,24 L55,23 L56,23 L56,22 L57,22 L57,21 L58,21 L58,20 L60,20 L60,19 L64,19 L64,22 L59,22 L59,23 L58,23 L58,24 L56,24 L56,25 L55,25 L55,26 L54,26 L54,27 L53,27 L53,28 L51,28 L51,29 L45,29 L45,28 L43,28 L43,27 L42,27 L42,26 L41,26 L41,25 L40,25 L40,24 L38,24 L38,23 L37,23 L37,22 L27,22 L27,23 L26,23 L26,24 L24,24 L24,25 L23,25 L23,26 L22,26 L22,27 L21,27 L21,28 L19,28 L19,29 L13,29 L13,28 L11,28 L11,27 L10,27 L10,26 L9,26 L9,25 L8,25 L8,24 L6,24 L6,23 L5,23 L5,22 L0,22 Z " fill="#BA6BE9" transform="translate(0,0)"/>
<path d="M0,0 L4,0 L4,1 L6,1 L6,2 L7,2 L7,3 L8,3 L8,4 L9,4 L9,5 L10,5 L10,6 L12,6 L12,7 L20,7 L20,6 L22,6 L22,5 L23,5 L23,4 L24,4 L24,3 L25,3 L25,2 L26,2 L26,1 L28,1 L28,0 L36,0 L36,1 L38,1 L38,2 L39,2 L39,3 L40,3 L40,4 L41,4 L41,5 L42,5 L42,6 L44,6 L44,7 L52,7 L52,6 L54,6 L54,5 L55,5 L55,4 L56,4 L56,3 L57,3 L57,2 L58,2 L58,1 L60,1 L60,0 L64,0 L64,17 L0,17 Z " fill="#BBC4CB" transform="translate(0,47)"/>
<path d="M0,0 L4,0 L4,1 L6,1 L6,2 L7,2 L7,3 L8,3 L8,4 L9,4 L9,5 L10,5 L10,6 L12,6 L12,7 L20,7 L20,6 L22,6 L22,5 L23,5 L23,4 L24,4 L24,3 L25,3 L25,2 L26,2 L26,1 L28,1 L28,0 L36,0 L36,1 L38,1 L38,2 L39,2 L39,3 L40,3 L40,4 L41,4 L41,5 L42,5 L42,6 L44,6 L44,7 L52,7 L52,6 L54,6 L54,5 L55,5 L55,4 L56,4 L56,3 L57,3 L57,2 L58,2 L58,1 L60,1 L60,0 L64,0 L64,10 L59,10 L59,11 L58,11 L58,12 L56,12 L56,13 L55,13 L55,14 L54,14 L54,15 L53,15 L53,16 L51,16 L51,17 L45,17 L45,16 L43,16 L43,15 L42,15 L42,14 L41,14 L41,13 L40,13 L40,12 L38,12 L38,11 L37,11 L37,10 L27,10 L27,11 L26,11 L26,12 L24,12 L24,13 L23,13 L23,14 L22,14 L22,15 L21,15 L21,16 L19,16 L19,17 L13,17 L13,16 L11,16 L11,15 L10,15 L10,14 L9,14 L9,13 L8,13 L8,12 L6,12 L6,11 L5,11 L5,10 L0,10 Z " fill="#CFD5DA" transform="translate(0,36)"/>
<path d="M0,0 L1,0 L1,1 L0,1 Z M17,0 L18,0 L18,1 L17,1 Z M32,0 L33,0 L33,1 L32,1 Z M49,0 L50,0 L50,1 L49,1 Z " fill="#CED4D9" opacity="0.99215686" transform="translate(7,48)"/>
<path d="M0,0 L64,0 L64,8 L0,8 Z " fill="#D699FA" transform="translate(0,0)"/>
<path d="M0,0 L4,0 L4,1 L6,1 L6,2 L7,2 L7,3 L8,3 L8,4 L9,4 L9,5 L10,5 L10,6 L12,6 L12,7 L20,7 L20,6 L22,6 L22,5 L23,5 L23,4 L24,4 L24,3 L25,3 L25,2 L26,2 L26,1 L28,1 L28,0 L36,0 L36,1 L38,1 L38,2 L39,2 L39,3 L40,3 L40,4 L41,4 L41,5 L42,5 L42,6 L44,6 L44,7 L52,7 L52,6 L54,6 L54,5 L55,5 L55,4 L56,4 L56,3 L57,3 L57,2 L58,2 L58,1 L60,1 L60,0 L64,0 L64,3 L59,3 L59,4 L58,4 L58,5 L56,5 L56,6 L55,6 L55,7 L54,7 L54,8 L53,8 L53,9 L51,9 L51,10 L45,10 L45,9 L43,9 L43,8 L42,8 L42,7 L41,7 L41,6 L40,6 L40,5 L38,5 L38,4 L37,4 L37,3 L27,3 L27,4 L26,4 L26,5 L24,5 L24,6 L23,6 L23,7 L22,7 L22,8 L21,8 L21,9 L19,9 L19,10 L13,10 L13,9 L11,9 L11,8 L10,8 L10,7 L9,7 L9,6 L8,6 L8,5 L6,5 L6,4 L5,4 L5,3 L0,3 Z " fill="#A452D4" transform="translate(0,19)"/>
<path d="M0,0 L64,0 L64,4 L0,4 Z " fill="#353541" transform="translate(0,60)"/>
<path d="M0,0 L64,0 L64,4 L0,4 Z " fill="#353541" transform="translate(0,0)"/>
<path d="M0,0 L4,0 L4,1 L6,1 L6,2 L7,2 L7,3 L8,3 L8,4 L9,4 L9,5 L10,5 L10,6 L12,6 L12,7 L20,7 L20,6 L22,6 L22,5 L23,5 L23,4 L24,4 L24,3 L25,3 L25,2 L26,2 L26,1 L28,1 L28,0 L36,0 L36,1 L38,1 L38,2 L39,2 L39,3 L40,3 L40,4 L41,4 L41,5 L42,5 L42,6 L44,6 L44,7 L52,7 L52,6 L54,6 L54,5 L55,5 L55,4 L56,4 L56,3 L57,3 L57,2 L58,2 L58,1 L60,1 L60,0 L64,0 L64,3 L59,3 L59,4 L58,4 L58,5 L56,5 L56,6 L55,6 L55,7 L54,7 L54,8 L53,8 L53,9 L51,9 L51,10 L45,10 L45,9 L43,9 L43,8 L42,8 L42,7 L41,7 L41,6 L40,6 L40,5 L38,5 L38,4 L37,4 L37,3 L27,3 L27,4 L26,4 L26,5 L24,5 L24,6 L23,6 L23,7 L22,7 L22,8 L21,8 L21,9 L19,9 L19,10 L13,10 L13,9 L11,9 L11,8 L10,8 L10,7 L9,7 L9,6 L8,6 L8,5 L6,5 L6,4 L5,4 L5,3 L0,3 Z " fill="#A6B2BB" transform="translate(0,32)"/>
<path d="M0,0 L1,0 L1,1 L0,1 Z " fill="#A7B2BC" opacity="0.9607843" transform="translate(31,31)"/>
<path d="M0,0 L1,0 L1,1 L0,1 Z " fill="#A451D4" opacity="0.9607843" transform="translate(31,18)"/>
<path d="M0,0 L1,0 L1,1 L0,1 Z " fill="#CDD4DA" opacity="0.92156863" transform="translate(48,53)"/>
<path d="M0,0 L1,0 L1,1 L0,1 Z " fill="#CDD4DA" opacity="0.92156863" transform="translate(16,53)"/>
<path d="M0,0 L1,0 L1,1 L0,1 Z " fill="#ABB5BE" opacity="0.92156863" transform="translate(48,42)"/>
<path d="M0,0 L1,0 L1,1 L0,1 Z " fill="#ABB5BE" opacity="0.92156863" transform="translate(16,42)"/>
<path d="M0,0 L1,0 L1,1 L0,1 Z " fill="#BBC4CB" opacity="0.92156863" transform="translate(48,38)"/>
<path d="M0,0 L1,0 L1,1 L0,1 Z " fill="#BBC4CB" opacity="0.92156863" transform="translate(16,38)"/>
<path d="M0,0 L1,0 L1,1 L0,1 Z " fill="#A65DD4" opacity="0.92156863" transform="translate(48,29)"/>
<path d="M0,0 L1,0 L1,1 L0,1 Z " fill="#A65DD4" opacity="0.92156863" transform="translate(16,29)"/>
<path d="M0,0 L1,0 L1,1 L0,1 Z " fill="#B868E6" opacity="0.92156863" transform="translate(48,25)"/>
<path d="M0,0 L1,0 L1,1 L0,1 Z " fill="#B868E6" opacity="0.92156863" transform="translate(16,25)"/>
<path d="M0,0 L1,0 L1,1 L0,1 Z " fill="#BBC4CB" transform="translate(0,47)"/>
<path d="M0,0 L1,0 L1,1 L0,1 Z " fill="#CFD5DA" transform="translate(0,36)"/>
<path d="M0,0 L1,0 L1,1 L0,1 Z " fill="#A6B2BB" transform="translate(0,32)"/>
<path d="M0,0 L1,0 L1,1 L0,1 Z " fill="#A452D4" transform="translate(0,19)"/>
<path d="M0,0 L1,0 L1,1 L0,1 Z " fill="#BBC4CB" opacity="0.9607843" transform="translate(63,46)"/>
<path d="M0,0 L1,0 L1,1 L0,1 Z " fill="#BBC4CB" opacity="0.9607843" transform="translate(31,46)"/>
<path d="M0,0 L1,0 L1,1 L0,1 Z " fill="#CED5DA" opacity="0.9607843" transform="translate(63,35)"/>
<path d="M0,0 L1,0 L1,1 L0,1 Z " fill="#CED5DA" opacity="0.9607843" transform="translate(31,35)"/>
<path d="M0,0 L1,0 L1,1 L0,1 Z " fill="#A7B2BC" opacity="0.9607843" transform="translate(63,31)"/>
<path d="M0,0 L1,0 L1,1 L0,1 Z " fill="#BBC4CB" transform="translate(0,23)"/>
<path d="M0,0 L1,0 L1,1 L0,1 Z " fill="#BBC4CB" opacity="0.9607843" transform="translate(63,22)"/>
<path d="M0,0 L1,0 L1,1 L0,1 Z " fill="#BBC4CB" opacity="0.9607843" transform="translate(31,22)"/>
<path d="M0,0 L1,0 L1,1 L0,1 Z " fill="#A451D4" opacity="0.9607843" transform="translate(63,18)"/>
<path d="M0,0 L1,0 L1,1 L0,1 Z " fill="#BDC5CD" opacity="0.79607844" transform="translate(34,46)"/>
<path d="M0,0 L1,0 L1,1 L0,1 Z " fill="#C2CAD1" opacity="0.7529412" transform="translate(50,53)"/>
<path d="M0,0 L1,0 L1,1 L0,1 Z " fill="#CAD1D6" opacity="0.8392157" transform="translate(46,53)"/>
<path d="M0,0 L1,0 L1,1 L0,1 Z " fill="#C2CAD1" opacity="0.7529412" transform="translate(18,53)"/>
<path d="M0,0 L1,0 L1,1 L0,1 Z " fill="#CAD1D6" opacity="0.8392157" transform="translate(14,53)"/>
<path d="M0,0 L1,0 L1,1 L0,1 Z " fill="#BBC3CB" opacity="0.9529412" transform="translate(53,52)"/>
<path d="M0,0 L1,0 L1,1 L0,1 Z " fill="#BBC3CB" opacity="0.9529412" transform="translate(21,52)"/>
<path d="M0,0 L1,0 L1,1 L0,1 Z " fill="#BCC5CB" opacity="0.90588236" transform="translate(59,47)"/>
<path d="M0,0 L1,0 L1,1 L0,1 Z " fill="#BCC5CB" opacity="0.90588236" transform="translate(27,47)"/>
<path d="M0,0 L1,0 L1,1 L0,1 Z " fill="#BEC6CD" opacity="0.7921569" transform="translate(61,46)"/>
<path d="M0,0 L1,0 L1,1 L0,1 Z " fill="#BEC6CD" opacity="0.7921569" transform="translate(29,46)"/>
<path d="M0,0 L1,0 L1,1 L0,1 Z " fill="#C7CDD2" opacity="0.7764706" transform="translate(3,46)"/>
<path d="M0,0 L1,0 L1,1 L0,1 Z " fill="#C1C9D0" opacity="0.7529412" transform="translate(50,42)"/>
<path d="M0,0 L1,0 L1,1 L0,1 Z " fill="#AFBAC2" opacity="0.8392157" transform="translate(46,42)"/>
<path d="M0,0 L1,0 L1,1 L0,1 Z " fill="#C1C9D0" opacity="0.7529412" transform="translate(18,42)"/>
<path d="M0,0 L1,0 L1,1 L0,1 Z " fill="#AFBAC2" opacity="0.8392157" transform="translate(14,42)"/>
<path d="M0,0 L1,0 L1,1 L0,1 Z " fill="#CFD5DA" opacity="0.9529412" transform="translate(53,41)"/>
<path d="M0,0 L1,0 L1,1 L0,1 Z " fill="#CFD5DA" opacity="0.9529412" transform="translate(21,41)"/>
<path d="M0,0 L1,0 L1,1 L0,1 Z " fill="#B4BEC6" opacity="0.7529412" transform="translate(50,38)"/>
<path d="M0,0 L1,0 L1,1 L0,1 Z " fill="#BAC2CA" opacity="0.8392157" transform="translate(46,38)"/>
<path d="M0,0 L1,0 L1,1 L0,1 Z " fill="#B4BEC6" opacity="0.7529412" transform="translate(18,38)"/>
<path d="M0,0 L1,0 L1,1 L0,1 Z " fill="#BAC2CA" opacity="0.8392157" transform="translate(14,38)"/>
<path d="M0,0 L1,0 L1,1 L0,1 Z " fill="#CAD2D7" opacity="0.7921569" transform="translate(61,35)"/>
<path d="M0,0 L1,0 L1,1 L0,1 Z " fill="#B7C1C8" opacity="0.7764706" transform="translate(35,35)"/>
<path d="M0,0 L1,0 L1,1 L0,1 Z " fill="#CAD2D7" opacity="0.7921569" transform="translate(29,35)"/>
<path d="M0,0 L1,0 L1,1 L0,1 Z " fill="#ADB9C1" opacity="0.7921569" transform="translate(61,31)"/>
<path d="M0,0 L1,0 L1,1 L0,1 Z " fill="#B7C0C9" opacity="0.7764706" transform="translate(35,31)"/>
<path d="M0,0 L1,0 L1,1 L0,1 Z " fill="#ADB9C1" opacity="0.7921569" transform="translate(29,31)"/>
<path d="M0,0 L1,0 L1,1 L0,1 Z " fill="#B7C0C9" opacity="0.7764706" transform="translate(3,31)"/>
<path d="M0,0 L1,0 L1,1 L0,1 Z " fill="#B29ACE" opacity="0.7529412" transform="translate(50,29)"/>
<path d="M0,0 L1,0 L1,1 L0,1 Z " fill="#A96ED2" opacity="0.8392157" transform="translate(46,29)"/>
<path d="M0,0 L1,0 L1,1 L0,1 Z " fill="#B29ACE" opacity="0.7529412" transform="translate(18,29)"/>
<path d="M0,0 L1,0 L1,1 L0,1 Z " fill="#A96ED2" opacity="0.8392157" transform="translate(14,29)"/>
<path d="M0,0 L1,0 L1,1 L0,1 Z " fill="#BBC3CB" opacity="0.9529412" transform="translate(53,28)"/>
<path d="M0,0 L1,0 L1,1 L0,1 Z " fill="#BBC3CB" opacity="0.9529412" transform="translate(21,28)"/>
<path d="M0,0 L1,0 L1,1 L0,1 Z " fill="#AD5ADC" opacity="0.7529412" transform="translate(50,25)"/>
<path d="M0,0 L1,0 L1,1 L0,1 Z " fill="#B464E4" opacity="0.8392157" transform="translate(46,25)"/>
<path d="M0,0 L1,0 L1,1 L0,1 Z " fill="#AD5ADC" opacity="0.7529412" transform="translate(18,25)"/>
<path d="M0,0 L1,0 L1,1 L0,1 Z " fill="#B464E4" opacity="0.8392157" transform="translate(14,25)"/>
<path d="M0,0 L1,0 L1,1 L0,1 Z " fill="#A452D4" opacity="0.9529412" transform="translate(53,24)"/>
<path d="M0,0 L1,0 L1,1 L0,1 Z " fill="#A452D4" opacity="0.9529412" transform="translate(21,24)"/>
<path d="M0,0 L1,0 L1,1 L0,1 Z " fill="#B9B7CD" opacity="0.7921569" transform="translate(61,22)"/>
<path d="M0,0 L1,0 L1,1 L0,1 Z " fill="#A555D3" opacity="0.972549" transform="translate(36,22)"/>
<path d="M0,0 L1,0 L1,1 L0,1 Z " fill="#B9B7CD" opacity="0.7921569" transform="translate(29,22)"/>
<path d="M0,0 L1,0 L1,1 L0,1 Z " fill="#A555D3" opacity="0.972549" transform="translate(4,22)"/>
<path d="M0,0 L1,0 L1,1 L0,1 Z " fill="#A552D4" opacity="0.90588236" transform="translate(59,19)"/>
<path d="M0,0 L1,0 L1,1 L0,1 Z " fill="#A552D4" opacity="0.90588236" transform="translate(27,19)"/>
<path d="M0,0 L1,0 L1,1 L0,1 Z " fill="#A653D6" opacity="0.7921569" transform="translate(61,18)"/>
<path d="M0,0 L1,0 L1,1 L0,1 Z " fill="#B15EDF" opacity="0.7764706" transform="translate(35,18)"/>
<path d="M0,0 L1,0 L1,1 L0,1 Z " fill="#A653D6" opacity="0.7921569" transform="translate(29,18)"/>
<path d="M0,0 L1,0 L1,1 L0,1 Z " fill="#B15EDF" opacity="0.7764706" transform="translate(3,18)"/>
<path d="M0,0 L1,0 L1,1 L0,1 Z " fill="#BAC4CA" opacity="0.92156863" transform="translate(51,53)"/>
<path d="M0,0 L1,0 L1,1 L0,1 Z " fill="#C9D0D5" opacity="0.80784315" transform="translate(49,53)"/>
<path d="M0,0 L1,0 L1,1 L0,1 Z " fill="#CDD4D9" opacity="0.9411765" transform="translate(47,53)"/>
<path d="M0,0 L1,0 L1,1 L0,1 Z " fill="#C2C9D0" opacity="0.7529412" transform="translate(45,53)"/>
<path d="M0,0 L1,0 L1,1 L0,1 Z " fill="#BCC5CC" opacity="0.89411765" transform="translate(44,53)"/>
<path d="M0,0 L1,0 L1,1 L0,1 Z " fill="#BAC4CA" opacity="0.92156863" transform="translate(19,53)"/>
<path d="M0,0 L1,0 L1,1 L0,1 Z " fill="#C9D0D5" opacity="0.80784315" transform="translate(17,53)"/>
<path d="M0,0 L1,0 L1,1 L0,1 Z " fill="#CDD4D9" opacity="0.9411765" transform="translate(15,53)"/>
<path d="M0,0 L1,0 L1,1 L0,1 Z " fill="#C2C9D0" opacity="0.7529412" transform="translate(13,53)"/>
<path d="M0,0 L1,0 L1,1 L0,1 Z " fill="#BCC5CC" opacity="0.89411765" transform="translate(12,53)"/>
<path d="M0,0 L1,0 L1,1 L0,1 Z " fill="#C2CAD1" opacity="0.75686276" transform="translate(52,52)"/>
<path d="M0,0 L1,0 L1,1 L0,1 Z " fill="#CED5D9" opacity="0.9647059" transform="translate(51,52)"/>
<path d="M0,0 L1,0 L1,1 L0,1 Z " fill="#CED5DA" opacity="0.99607843" transform="translate(44,52)"/>
<path d="M0,0 L1,0 L1,1 L0,1 Z " fill="#C2CAD1" opacity="0.75686276" transform="translate(43,52)"/>
<path d="M0,0 L1,0 L1,1 L0,1 Z " fill="#BBC4CA" opacity="0.9647059" transform="translate(42,52)"/>
<path d="M0,0 L1,0 L1,1 L0,1 Z " fill="#C2CAD1" opacity="0.75686276" transform="translate(20,52)"/>
<path d="M0,0 L1,0 L1,1 L0,1 Z " fill="#CED5D9" opacity="0.9647059" transform="translate(19,52)"/>
<path d="M0,0 L1,0 L1,1 L0,1 Z " fill="#CED5DA" opacity="0.99607843" transform="translate(12,52)"/>
<path d="M0,0 L1,0 L1,1 L0,1 Z " fill="#C2CAD1" opacity="0.75686276" transform="translate(11,52)"/>
<path d="M0,0 L1,0 L1,1 L0,1 Z " fill="#BBC4CA" opacity="0.9647059" transform="translate(10,52)"/>
<path d="M0,0 L1,0 L1,1 L0,1 Z " fill="#BAC3CA" opacity="0.9019608" transform="translate(54,51)"/>
<path d="M0,0 L1,0 L1,1 L0,1 Z " fill="#CBD1D8" opacity="0.85490197" transform="translate(53,51)"/>
<path d="M0,0 L1,0 L1,1 L0,1 Z " fill="#CDD2D8" opacity="0.8862745" transform="translate(42,51)"/>
<path d="M0,0 L1,0 L1,1 L0,1 Z " fill="#BCC5CB" opacity="0.85882354" transform="translate(41,51)"/>
<path d="M0,0 L1,0 L1,1 L0,1 Z " fill="#BAC3CA" opacity="0.9019608" transform="translate(22,51)"/>
<path d="M0,0 L1,0 L1,1 L0,1 Z " fill="#CBD1D8" opacity="0.85490197" transform="translate(21,51)"/>
<path d="M0,0 L1,0 L1,1 L0,1 Z " fill="#CDD2D8" opacity="0.8862745" transform="translate(10,51)"/>
<path d="M0,0 L1,0 L1,1 L0,1 Z " fill="#BCC5CB" opacity="0.85882354" transform="translate(9,51)"/>
<path d="M0,0 L1,0 L1,1 L0,1 Z " fill="#BBC4CC" opacity="0.8392157" transform="translate(55,50)"/>
<path d="M0,0 L1,0 L1,1 L0,1 Z " fill="#CCD3D8" opacity="0.91764706" transform="translate(54,50)"/>
<path d="M0,0 L1,0 L1,1 L0,1 Z " fill="#CED3D9" opacity="0.94509804" transform="translate(41,50)"/>
<path d="M0,0 L1,0 L1,1 L0,1 Z " fill="#BCC6CC" opacity="0.81960785" transform="translate(40,50)"/>
<path d="M0,0 L1,0 L1,1 L0,1 Z " fill="#BBC4CC" opacity="0.8392157" transform="translate(23,50)"/>
<path d="M0,0 L1,0 L1,1 L0,1 Z " fill="#CCD3D8" opacity="0.91764706" transform="translate(22,50)"/>
<path d="M0,0 L1,0 L1,1 L0,1 Z " fill="#CED3D9" opacity="0.94509804" transform="translate(9,50)"/>
<path d="M0,0 L1,0 L1,1 L0,1 Z " fill="#BCC6CC" opacity="0.81960785" transform="translate(8,50)"/>
<path d="M0,0 L1,0 L1,1 L0,1 Z " fill="#BCC5CD" opacity="0.7921569" transform="translate(56,49)"/>
<path d="M0,0 L1,0 L1,1 L0,1 Z " fill="#CED5D9" opacity="0.9647059" transform="translate(55,49)"/>
<path d="M0,0 L1,0 L1,1 L0,1 Z " fill="#CED4D9" opacity="0.972549" transform="translate(40,49)"/>
<path d="M0,0 L1,0 L1,1 L0,1 Z " fill="#BDC6CD" opacity="0.7882353" transform="translate(39,49)"/>
<path d="M0,0 L1,0 L1,1 L0,1 Z " fill="#BCC5CD" opacity="0.7921569" transform="translate(24,49)"/>
<path d="M0,0 L1,0 L1,1 L0,1 Z " fill="#CED5D9" opacity="0.9647059" transform="translate(23,49)"/>
<path d="M0,0 L1,0 L1,1 L0,1 Z " fill="#CED4D9" opacity="0.972549" transform="translate(8,49)"/>
<path d="M0,0 L1,0 L1,1 L0,1 Z " fill="#BDC6CD" opacity="0.7882353" transform="translate(7,49)"/>
<path d="M0,0 L1,0 L1,1 L0,1 Z " fill="#BFC7CE" opacity="0.7647059" transform="translate(57,48)"/>
<path d="M0,0 L1,0 L1,1 L0,1 Z " fill="#BFC8CF" opacity="0.7607843" transform="translate(38,48)"/>
<path d="M0,0 L1,0 L1,1 L0,1 Z " fill="#BFC7CE" opacity="0.7647059" transform="translate(25,48)"/>
<path d="M0,0 L1,0 L1,1 L0,1 Z " fill="#BFC8CF" opacity="0.7607843" transform="translate(6,48)"/>
<path d="M0,0 L1,0 L1,1 L0,1 Z " fill="#C7CFD4" opacity="0.7882353" transform="translate(58,47)"/>
<path d="M0,0 L1,0 L1,1 L0,1 Z " fill="#C7CED4" opacity="0.78431374" transform="translate(37,47)"/>
<path d="M0,0 L1,0 L1,1 L0,1 Z " fill="#BAC4CA" opacity="0.92156863" transform="translate(36,47)"/>
<path d="M0,0 L1,0 L1,1 L0,1 Z " fill="#C7CFD4" opacity="0.7882353" transform="translate(26,47)"/>
<path d="M0,0 L1,0 L1,1 L0,1 Z " fill="#C7CED4" opacity="0.78431374" transform="translate(5,47)"/>
<path d="M0,0 L1,0 L1,1 L0,1 Z " fill="#BAC4CA" opacity="0.92156863" transform="translate(4,47)"/>
<path d="M0,0 L1,0 L1,1 L0,1 Z " fill="#BAC3CA" opacity="0.8862745" transform="translate(62,46)"/>
<path d="M0,0 L1,0 L1,1 L0,1 Z " fill="#C7CDD2" opacity="0.78039217" transform="translate(60,46)"/>
<path d="M0,0 L1,0 L1,1 L0,1 Z " fill="#CED4D9" opacity="0.9764706" transform="translate(59,46)"/>
<path d="M0,0 L1,0 L1,1 L0,1 Z " fill="#CED4D9" opacity="0.972549" transform="translate(36,46)"/>
<path d="M0,0 L1,0 L1,1 L0,1 Z " fill="#C7CDD2" opacity="0.7764706" transform="translate(35,46)"/>
<path d="M0,0 L1,0 L1,1 L0,1 Z " fill="#BAC3CA" opacity="0.8862745" transform="translate(33,46)"/>
<path d="M0,0 L1,0 L1,1 L0,1 Z " fill="#BBC4CB" opacity="0.9607843" transform="translate(32,46)"/>
<path d="M0,0 L1,0 L1,1 L0,1 Z " fill="#BAC3CA" opacity="0.8862745" transform="translate(30,46)"/>
<path d="M0,0 L1,0 L1,1 L0,1 Z " fill="#C7CDD2" opacity="0.78039217" transform="translate(28,46)"/>
<path d="M0,0 L1,0 L1,1 L0,1 Z " fill="#CED4D9" opacity="0.9764706" transform="translate(27,46)"/>
<path d="M0,0 L1,0 L1,1 L0,1 Z " fill="#CED4D9" opacity="0.972549" transform="translate(4,46)"/>
<path d="M0,0 L1,0 L1,1 L0,1 Z " fill="#BDC5CD" opacity="0.79607844" transform="translate(2,46)"/>
<path d="M0,0 L1,0 L1,1 L0,1 Z " fill="#BAC3CA" opacity="0.8862745" transform="translate(1,46)"/>
<path d="M0,0 L1,0 L1,1 L0,1 Z " fill="#BBC4CB" opacity="0.9607843" transform="translate(0,46)"/>
<path d="M0,0 L1,0 L1,1 L0,1 Z " fill="#CED4D9" opacity="0.92156863" transform="translate(51,42)"/>
<path d="M0,0 L1,0 L1,1 L0,1 Z " fill="#B4BEC5" opacity="0.80784315" transform="translate(49,42)"/>
<path d="M0,0 L1,0 L1,1 L0,1 Z " fill="#A9B4BD" opacity="0.9411765" transform="translate(47,42)"/>
<path d="M0,0 L1,0 L1,1 L0,1 Z " fill="#C0C8D0" opacity="0.7529412" transform="translate(45,42)"/>
<path d="M0,0 L1,0 L1,1 L0,1 Z " fill="#CED5D9" opacity="0.89411765" transform="translate(44,42)"/>
<path d="M0,0 L1,0 L1,1 L0,1 Z " fill="#CED4D9" opacity="0.92156863" transform="translate(19,42)"/>
<path d="M0,0 L1,0 L1,1 L0,1 Z " fill="#B4BEC5" opacity="0.80784315" transform="translate(17,42)"/>
<path d="M0,0 L1,0 L1,1 L0,1 Z " fill="#A9B4BD" opacity="0.9411765" transform="translate(15,42)"/>
<path d="M0,0 L1,0 L1,1 L0,1 Z " fill="#C0C8D0" opacity="0.7529412" transform="translate(13,42)"/>
<path d="M0,0 L1,0 L1,1 L0,1 Z " fill="#CED5D9" opacity="0.89411765" transform="translate(12,42)"/>
<path d="M0,0 L1,0 L1,1 L0,1 Z " fill="#BFC8CD" opacity="0.75686276" transform="translate(52,41)"/>
<path d="M0,0 L1,0 L1,1 L0,1 Z " fill="#A8B2BD" opacity="0.9647059" transform="translate(51,41)"/>
<path d="M0,0 L1,0 L1,1 L0,1 Z " fill="#A7B2BB" opacity="0.99607843" transform="translate(44,41)"/>
<path d="M0,0 L1,0 L1,1 L0,1 Z " fill="#BDC6CD" opacity="0.75686276" transform="translate(43,41)"/>
<path d="M0,0 L1,0 L1,1 L0,1 Z " fill="#CFD5DA" opacity="0.9647059" transform="translate(42,41)"/>
<path d="M0,0 L1,0 L1,1 L0,1 Z " fill="#BFC8CD" opacity="0.75686276" transform="translate(20,41)"/>
<path d="M0,0 L1,0 L1,1 L0,1 Z " fill="#A8B2BD" opacity="0.9647059" transform="translate(19,41)"/>
<path d="M0,0 L1,0 L1,1 L0,1 Z " fill="#A7B2BB" opacity="0.99607843" transform="translate(12,41)"/>
<path d="M0,0 L1,0 L1,1 L0,1 Z " fill="#BDC6CD" opacity="0.75686276" transform="translate(11,41)"/>
<path d="M0,0 L1,0 L1,1 L0,1 Z " fill="#CFD5DA" opacity="0.9647059" transform="translate(10,41)"/>
<path d="M0,0 L1,0 L1,1 L0,1 Z " fill="#CFD4DA" opacity="0.9019608" transform="translate(54,40)"/>
<path d="M0,0 L1,0 L1,1 L0,1 Z " fill="#AEB9C1" opacity="0.85490197" transform="translate(53,40)"/>
<path d="M0,0 L1,0 L1,1 L0,1 Z " fill="#ADB7BF" opacity="0.8862745" transform="translate(42,40)"/>
<path d="M0,0 L1,0 L1,1 L0,1 Z " fill="#CDD4D9" opacity="0.85882354" transform="translate(41,40)"/>
<path d="M0,0 L1,0 L1,1 L0,1 Z " fill="#CFD4DA" opacity="0.9019608" transform="translate(22,40)"/>
<path d="M0,0 L1,0 L1,1 L0,1 Z " fill="#AEB9C1" opacity="0.85490197" transform="translate(21,40)"/>
<path d="M0,0 L1,0 L1,1 L0,1 Z " fill="#ADB7BF" opacity="0.8862745" transform="translate(10,40)"/>
<path d="M0,0 L1,0 L1,1 L0,1 Z " fill="#CDD4D9" opacity="0.85882354" transform="translate(9,40)"/>
<path d="M0,0 L1,0 L1,1 L0,1 Z " fill="#CDD3D8" opacity="0.8392157" transform="translate(55,39)"/>
<path d="M0,0 L1,0 L1,1 L0,1 Z " fill="#ABB6BF" opacity="0.91764706" transform="translate(54,39)"/>
<path d="M0,0 L1,0 L1,1 L0,1 Z " fill="#A8B3BE" opacity="0.94509804" transform="translate(41,39)"/>
<path d="M0,0 L1,0 L1,1 L0,1 Z " fill="#CCD3D7" opacity="0.81960785" transform="translate(40,39)"/>
<path d="M0,0 L1,0 L1,1 L0,1 Z " fill="#CDD3D8" opacity="0.8392157" transform="translate(23,39)"/>
<path d="M0,0 L1,0 L1,1 L0,1 Z " fill="#ABB6BF" opacity="0.91764706" transform="translate(22,39)"/>
<path d="M0,0 L1,0 L1,1 L0,1 Z " fill="#A8B3BE" opacity="0.94509804" transform="translate(9,39)"/>
<path d="M0,0 L1,0 L1,1 L0,1 Z " fill="#CCD3D7" opacity="0.81960785" transform="translate(8,39)"/>
<path d="M0,0 L1,0 L1,1 L0,1 Z " fill="#CAD1D7" opacity="0.7921569" transform="translate(56,38)"/>
<path d="M0,0 L1,0 L1,1 L0,1 Z " fill="#A8B2BD" opacity="0.9647059" transform="translate(55,38)"/>
<path d="M0,0 L1,0 L1,1 L0,1 Z " fill="#A7B3BC" opacity="0.92156863" transform="translate(51,38)"/>
<path d="M0,0 L1,0 L1,1 L0,1 Z " fill="#B9C3CA" opacity="0.80784315" transform="translate(49,38)"/>
<path d="M0,0 L1,0 L1,1 L0,1 Z " fill="#BAC3CA" opacity="0.9411765" transform="translate(47,38)"/>
<path d="M0,0 L1,0 L1,1 L0,1 Z " fill="#B4BEC5" opacity="0.7529412" transform="translate(45,38)"/>
<path d="M0,0 L1,0 L1,1 L0,1 Z " fill="#A9B5BE" opacity="0.89411765" transform="translate(44,38)"/>
<path d="M0,0 L1,0 L1,1 L0,1 Z " fill="#A8B3BB" opacity="0.972549" transform="translate(40,38)"/>
<path d="M0,0 L1,0 L1,1 L0,1 Z " fill="#CAD0D5" opacity="0.7882353" transform="translate(39,38)"/>
<path d="M0,0 L1,0 L1,1 L0,1 Z " fill="#CAD1D7" opacity="0.7921569" transform="translate(24,38)"/>
<path d="M0,0 L1,0 L1,1 L0,1 Z " fill="#A8B2BD" opacity="0.9647059" transform="translate(23,38)"/>
<path d="M0,0 L1,0 L1,1 L0,1 Z " fill="#A7B3BC" opacity="0.92156863" transform="translate(19,38)"/>
<path d="M0,0 L1,0 L1,1 L0,1 Z " fill="#B9C3CA" opacity="0.80784315" transform="translate(17,38)"/>
<path d="M0,0 L1,0 L1,1 L0,1 Z " fill="#BAC3CA" opacity="0.9411765" transform="translate(15,38)"/>
<path d="M0,0 L1,0 L1,1 L0,1 Z " fill="#B4BEC5" opacity="0.7529412" transform="translate(13,38)"/>
<path d="M0,0 L1,0 L1,1 L0,1 Z " fill="#A9B5BE" opacity="0.89411765" transform="translate(12,38)"/>
<path d="M0,0 L1,0 L1,1 L0,1 Z " fill="#A8B3BB" opacity="0.972549" transform="translate(8,38)"/>
<path d="M0,0 L1,0 L1,1 L0,1 Z " fill="#CAD0D5" opacity="0.7882353" transform="translate(7,38)"/>
<path d="M0,0 L1,0 L1,1 L0,1 Z " fill="#C6CCD2" opacity="0.7647059" transform="translate(57,37)"/>
<path d="M0,0 L1,0 L1,1 L0,1 Z " fill="#A6B3BC" opacity="0.99215686" transform="translate(56,37)"/>
<path d="M0,0 L1,0 L1,1 L0,1 Z " fill="#A7B3BC" opacity="0.9529412" transform="translate(53,37)"/>
<path d="M0,0 L1,0 L1,1 L0,1 Z " fill="#B4BFC5" opacity="0.75686276" transform="translate(52,37)"/>
<path d="M0,0 L1,0 L1,1 L0,1 Z " fill="#BBC4CA" opacity="0.9647059" transform="translate(51,37)"/>
<path d="M0,0 L1,0 L1,1 L0,1 Z " fill="#BBC4CB" opacity="0.99607843" transform="translate(44,37)"/>
<path d="M0,0 L1,0 L1,1 L0,1 Z " fill="#B4C0C5" opacity="0.75686276" transform="translate(43,37)"/>
<path d="M0,0 L1,0 L1,1 L0,1 Z " fill="#A7B2BC" opacity="0.9647059" transform="translate(42,37)"/>
<path d="M0,0 L1,0 L1,1 L0,1 Z " fill="#A6B3BC" opacity="0.99215686" transform="translate(39,37)"/>
<path d="M0,0 L1,0 L1,1 L0,1 Z " fill="#C7CFD4" opacity="0.7607843" transform="translate(38,37)"/>
<path d="M0,0 L1,0 L1,1 L0,1 Z " fill="#C6CCD2" opacity="0.7647059" transform="translate(25,37)"/>
<path d="M0,0 L1,0 L1,1 L0,1 Z " fill="#A6B3BC" opacity="0.99215686" transform="translate(24,37)"/>
<path d="M0,0 L1,0 L1,1 L0,1 Z " fill="#A7B3BC" opacity="0.9529412" transform="translate(21,37)"/>
<path d="M0,0 L1,0 L1,1 L0,1 Z " fill="#B4BFC5" opacity="0.75686276" transform="translate(20,37)"/>
<path d="M0,0 L1,0 L1,1 L0,1 Z " fill="#BBC4CA" opacity="0.9647059" transform="translate(19,37)"/>
<path d="M0,0 L1,0 L1,1 L0,1 Z " fill="#BBC4CB" opacity="0.99607843" transform="translate(12,37)"/>
<path d="M0,0 L1,0 L1,1 L0,1 Z " fill="#B4C0C5" opacity="0.75686276" transform="translate(11,37)"/>
<path d="M0,0 L1,0 L1,1 L0,1 Z " fill="#A7B2BC" opacity="0.9647059" transform="translate(10,37)"/>
<path d="M0,0 L1,0 L1,1 L0,1 Z " fill="#A6B3BC" opacity="0.99215686" transform="translate(7,37)"/>
<path d="M0,0 L1,0 L1,1 L0,1 Z " fill="#C7CFD4" opacity="0.7607843" transform="translate(6,37)"/>
<path d="M0,0 L1,0 L1,1 L0,1 Z " fill="#CED5DA" opacity="0.90588236" transform="translate(59,36)"/>
<path d="M0,0 L1,0 L1,1 L0,1 Z " fill="#B7C0C7" opacity="0.7882353" transform="translate(58,36)"/>
<path d="M0,0 L1,0 L1,1 L0,1 Z " fill="#A8B4BD" opacity="0.9019608" transform="translate(54,36)"/>
<path d="M0,0 L1,0 L1,1 L0,1 Z " fill="#BAC2CB" opacity="0.85490197" transform="translate(53,36)"/>
<path d="M0,0 L1,0 L1,1 L0,1 Z " fill="#BAC3CA" opacity="0.8862745" transform="translate(42,36)"/>
<path d="M0,0 L1,0 L1,1 L0,1 Z " fill="#AAB6BE" opacity="0.85882354" transform="translate(41,36)"/>
<path d="M0,0 L1,0 L1,1 L0,1 Z " fill="#B7C0C7" opacity="0.78431374" transform="translate(37,36)"/>
<path d="M0,0 L1,0 L1,1 L0,1 Z " fill="#CED4D9" opacity="0.92156863" transform="translate(36,36)"/>
<path d="M0,0 L1,0 L1,1 L0,1 Z " fill="#CED5DA" opacity="0.90588236" transform="translate(27,36)"/>
<path d="M0,0 L1,0 L1,1 L0,1 Z " fill="#B7C0C7" opacity="0.7882353" transform="translate(26,36)"/>
<path d="M0,0 L1,0 L1,1 L0,1 Z " fill="#A8B4BD" opacity="0.9019608" transform="translate(22,36)"/>
<path d="M0,0 L1,0 L1,1 L0,1 Z " fill="#BAC2CB" opacity="0.85490197" transform="translate(21,36)"/>
<path d="M0,0 L1,0 L1,1 L0,1 Z " fill="#BAC3CA" opacity="0.8862745" transform="translate(10,36)"/>
<path d="M0,0 L1,0 L1,1 L0,1 Z " fill="#AAB6BE" opacity="0.85882354" transform="translate(9,36)"/>
<path d="M0,0 L1,0 L1,1 L0,1 Z " fill="#B7C0C7" opacity="0.78431374" transform="translate(5,36)"/>
<path d="M0,0 L1,0 L1,1 L0,1 Z " fill="#CED4D9" opacity="0.92156863" transform="translate(4,36)"/>
<path d="M0,0 L1,0 L1,1 L0,1 Z " fill="#CFD4D9" opacity="0.8862745" transform="translate(62,35)"/>
<path d="M0,0 L1,0 L1,1 L0,1 Z " fill="#B7C2C9" opacity="0.78039217" transform="translate(60,35)"/>
<path d="M0,0 L1,0 L1,1 L0,1 Z " fill="#A7B2BC" opacity="0.9764706" transform="translate(59,35)"/>
<path d="M0,0 L1,0 L1,1 L0,1 Z " fill="#ABB7BF" opacity="0.8392157" transform="translate(55,35)"/>
<path d="M0,0 L1,0 L1,1 L0,1 Z " fill="#BBC3CA" opacity="0.91764706" transform="translate(54,35)"/>
<path d="M0,0 L1,0 L1,1 L0,1 Z " fill="#BAC3CA" opacity="0.94509804" transform="translate(41,35)"/>
<path d="M0,0 L1,0 L1,1 L0,1 Z " fill="#ADB8C0" opacity="0.81960785" transform="translate(40,35)"/>
<path d="M0,0 L1,0 L1,1 L0,1 Z " fill="#A8B3BB" opacity="0.972549" transform="translate(36,35)"/>
<path d="M0,0 L1,0 L1,1 L0,1 Z " fill="#CBD1D6" opacity="0.79607844" transform="translate(34,35)"/>
<path d="M0,0 L1,0 L1,1 L0,1 Z " fill="#CFD4D9" opacity="0.8862745" transform="translate(33,35)"/>
<path d="M0,0 L1,0 L1,1 L0,1 Z " fill="#CED5DA" opacity="0.9607843" transform="translate(32,35)"/>
<path d="M0,0 L1,0 L1,1 L0,1 Z " fill="#CFD4D9" opacity="0.8862745" transform="translate(30,35)"/>
<path d="M0,0 L1,0 L1,1 L0,1 Z " fill="#B7C2C9" opacity="0.78039217" transform="translate(28,35)"/>
<path d="M0,0 L1,0 L1,1 L0,1 Z " fill="#A7B2BC" opacity="0.9764706" transform="translate(27,35)"/>
<path d="M0,0 L1,0 L1,1 L0,1 Z " fill="#ABB7BF" opacity="0.8392157" transform="translate(23,35)"/>
<path d="M0,0 L1,0 L1,1 L0,1 Z " fill="#BBC3CA" opacity="0.91764706" transform="translate(22,35)"/>
<path d="M0,0 L1,0 L1,1 L0,1 Z " fill="#BAC3CA" opacity="0.94509804" transform="translate(9,35)"/>
<path d="M0,0 L1,0 L1,1 L0,1 Z " fill="#ADB8C0" opacity="0.81960785" transform="translate(8,35)"/>
<path d="M0,0 L1,0 L1,1 L0,1 Z " fill="#A8B3BB" opacity="0.972549" transform="translate(4,35)"/>
<path d="M0,0 L1,0 L1,1 L0,1 Z " fill="#B7C1C8" opacity="0.7764706" transform="translate(3,35)"/>
<path d="M0,0 L1,0 L1,1 L0,1 Z " fill="#CBD1D6" opacity="0.79607844" transform="translate(2,35)"/>
<path d="M0,0 L1,0 L1,1 L0,1 Z " fill="#CFD4D9" opacity="0.8862745" transform="translate(1,35)"/>
<path d="M0,0 L1,0 L1,1 L0,1 Z " fill="#CED5DA" opacity="0.9607843" transform="translate(0,35)"/>
<path d="M0,0 L1,0 L1,1 L0,1 Z " fill="#ADB9C1" opacity="0.7921569" transform="translate(56,34)"/>
<path d="M0,0 L1,0 L1,1 L0,1 Z " fill="#BBC4CA" opacity="0.9647059" transform="translate(55,34)"/>
<path d="M0,0 L1,0 L1,1 L0,1 Z " fill="#BAC4CB" opacity="0.972549" transform="translate(40,34)"/>
<path d="M0,0 L1,0 L1,1 L0,1 Z " fill="#ADB9C2" opacity="0.7882353" transform="translate(39,34)"/>
<path d="M0,0 L1,0 L1,1 L0,1 Z " fill="#ADB9C1" opacity="0.7921569" transform="translate(24,34)"/>
<path d="M0,0 L1,0 L1,1 L0,1 Z " fill="#BBC4CA" opacity="0.9647059" transform="translate(23,34)"/>
<path d="M0,0 L1,0 L1,1 L0,1 Z " fill="#BAC4CB" opacity="0.972549" transform="translate(8,34)"/>
<path d="M0,0 L1,0 L1,1 L0,1 Z " fill="#ADB9C2" opacity="0.7882353" transform="translate(7,34)"/>
<path d="M0,0 L1,0 L1,1 L0,1 Z " fill="#AFBAC3" opacity="0.7647059" transform="translate(57,33)"/>
<path d="M0,0 L1,0 L1,1 L0,1 Z " fill="#BBC4CB" opacity="0.99215686" transform="translate(56,33)"/>
<path d="M0,0 L1,0 L1,1 L0,1 Z " fill="#BBC4CB" opacity="0.99215686" transform="translate(39,33)"/>
<path d="M0,0 L1,0 L1,1 L0,1 Z " fill="#B0BCC4" opacity="0.7607843" transform="translate(38,33)"/>
<path d="M0,0 L1,0 L1,1 L0,1 Z " fill="#AFBAC3" opacity="0.7647059" transform="translate(25,33)"/>
<path d="M0,0 L1,0 L1,1 L0,1 Z " fill="#BBC4CB" opacity="0.99215686" transform="translate(24,33)"/>
<path d="M0,0 L1,0 L1,1 L0,1 Z " fill="#BBC4CB" opacity="0.99215686" transform="translate(7,33)"/>
<path d="M0,0 L1,0 L1,1 L0,1 Z " fill="#B0BCC4" opacity="0.7607843" transform="translate(6,33)"/>
<path d="M0,0 L1,0 L1,1 L0,1 Z " fill="#A9B4BD" opacity="0.90588236" transform="translate(59,32)"/>
<path d="M0,0 L1,0 L1,1 L0,1 Z " fill="#B9C2CA" opacity="0.7882353" transform="translate(58,32)"/>
<path d="M0,0 L1,0 L1,1 L0,1 Z " fill="#B8C1C8" opacity="0.78431374" transform="translate(37,32)"/>
<path d="M0,0 L1,0 L1,1 L0,1 Z " fill="#A7B3BC" opacity="0.92156863" transform="translate(36,32)"/>
<path d="M0,0 L1,0 L1,1 L0,1 Z " fill="#A9B4BD" opacity="0.90588236" transform="translate(27,32)"/>
<path d="M0,0 L1,0 L1,1 L0,1 Z " fill="#B9C2CA" opacity="0.7882353" transform="translate(26,32)"/>
<path d="M0,0 L1,0 L1,1 L0,1 Z " fill="#B8C1C8" opacity="0.78431374" transform="translate(5,32)"/>
<path d="M0,0 L1,0 L1,1 L0,1 Z " fill="#A7B3BC" opacity="0.92156863" transform="translate(4,32)"/>
<path d="M0,0 L1,0 L1,1 L0,1 Z " fill="#A9B5BD" opacity="0.8862745" transform="translate(62,31)"/>
<path d="M0,0 L1,0 L1,1 L0,1 Z " fill="#B7C0C8" opacity="0.78039217" transform="translate(60,31)"/>
<path d="M0,0 L1,0 L1,1 L0,1 Z " fill="#BBC4CB" opacity="0.9764706" transform="translate(59,31)"/>
<path d="M0,0 L1,0 L1,1 L0,1 Z " fill="#BAC4CB" opacity="0.972549" transform="translate(36,31)"/>
<path d="M0,0 L1,0 L1,1 L0,1 Z " fill="#AEB8C0" opacity="0.79607844" transform="translate(34,31)"/>
<path d="M0,0 L1,0 L1,1 L0,1 Z " fill="#A9B5BD" opacity="0.8862745" transform="translate(33,31)"/>
<path d="M0,0 L1,0 L1,1 L0,1 Z " fill="#A7B2BC" opacity="0.9607843" transform="translate(32,31)"/>
<path d="M0,0 L1,0 L1,1 L0,1 Z " fill="#A9B5BD" opacity="0.8862745" transform="translate(30,31)"/>
<path d="M0,0 L1,0 L1,1 L0,1 Z " fill="#B7C0C8" opacity="0.78039217" transform="translate(28,31)"/>
<path d="M0,0 L1,0 L1,1 L0,1 Z " fill="#BBC4CB" opacity="0.9764706" transform="translate(27,31)"/>
<path d="M0,0 L1,0 L1,1 L0,1 Z " fill="#BAC4CB" opacity="0.972549" transform="translate(4,31)"/>
<path d="M0,0 L1,0 L1,1 L0,1 Z " fill="#AEB8C0" opacity="0.79607844" transform="translate(2,31)"/>
<path d="M0,0 L1,0 L1,1 L0,1 Z " fill="#A9B5BD" opacity="0.8862745" transform="translate(1,31)"/>
<path d="M0,0 L1,0 L1,1 L0,1 Z " fill="#A7B2BC" opacity="0.9607843" transform="translate(0,31)"/>
<path d="M0,0 L1,0 L1,1 L0,1 Z " fill="#BAC2CA" opacity="0.92156863" transform="translate(51,29)"/>
<path d="M0,0 L1,0 L1,1 L0,1 Z " fill="#AB77D2" opacity="0.80784315" transform="translate(49,29)"/>
<path d="M0,0 L1,0 L1,1 L0,1 Z " fill="#A559D4" opacity="0.9411765" transform="translate(47,29)"/>
<path d="M0,0 L1,0 L1,1 L0,1 Z " fill="#B29CCD" opacity="0.7529412" transform="translate(45,29)"/>
<path d="M0,0 L1,0 L1,1 L0,1 Z " fill="#BBC3CC" opacity="0.89411765" transform="translate(44,29)"/>
<path d="M0,0 L1,0 L1,1 L0,1 Z " fill="#BAC2CA" opacity="0.92156863" transform="translate(19,29)"/>
<path d="M0,0 L1,0 L1,1 L0,1 Z " fill="#AB77D2" opacity="0.80784315" transform="translate(17,29)"/>
<path d="M0,0 L1,0 L1,1 L0,1 Z " fill="#A559D4" opacity="0.9411765" transform="translate(15,29)"/>
<path d="M0,0 L1,0 L1,1 L0,1 Z " fill="#B29CCD" opacity="0.7529412" transform="translate(13,29)"/>
<path d="M0,0 L1,0 L1,1 L0,1 Z " fill="#BBC3CC" opacity="0.89411765" transform="translate(12,29)"/>
<path d="M0,0 L1,0 L1,1 L0,1 Z " fill="#B197CD" opacity="0.75686276" transform="translate(52,28)"/>
<path d="M0,0 L1,0 L1,1 L0,1 Z " fill="#A557D4" opacity="0.9647059" transform="translate(51,28)"/>
<path d="M0,0 L1,0 L1,1 L0,1 Z " fill="#A453D4" opacity="0.99607843" transform="translate(44,28)"/>
<path d="M0,0 L1,0 L1,1 L0,1 Z " fill="#B093CE" opacity="0.75686276" transform="translate(43,28)"/>
<path d="M0,0 L1,0 L1,1 L0,1 Z " fill="#BBC4CA" opacity="0.9647059" transform="translate(42,28)"/>
<path d="M0,0 L1,0 L1,1 L0,1 Z " fill="#B197CD" opacity="0.75686276" transform="translate(20,28)"/>
<path d="M0,0 L1,0 L1,1 L0,1 Z " fill="#A557D4" opacity="0.9647059" transform="translate(19,28)"/>
<path d="M0,0 L1,0 L1,1 L0,1 Z " fill="#A453D4" opacity="0.99607843" transform="translate(12,28)"/>
<path d="M0,0 L1,0 L1,1 L0,1 Z " fill="#B093CE" opacity="0.75686276" transform="translate(11,28)"/>
<path d="M0,0 L1,0 L1,1 L0,1 Z " fill="#BBC4CA" opacity="0.9647059" transform="translate(10,28)"/>
<path d="M0,0 L1,0 L1,1 L0,1 Z " fill="#BAC2CA" opacity="0.9019608" transform="translate(54,27)"/>
<path d="M0,0 L1,0 L1,1 L0,1 Z " fill="#AA69D3" opacity="0.85490197" transform="translate(53,27)"/>
<path d="M0,0 L1,0 L1,1 L0,1 Z " fill="#A763D2" opacity="0.8862745" transform="translate(42,27)"/>
<path d="M0,0 L1,0 L1,1 L0,1 Z " fill="#B9C0CB" opacity="0.85882354" transform="translate(41,27)"/>
<path d="M0,0 L1,0 L1,1 L0,1 Z " fill="#BAC2CA" opacity="0.9019608" transform="translate(22,27)"/>
<path d="M0,0 L1,0 L1,1 L0,1 Z " fill="#AA69D3" opacity="0.85490197" transform="translate(21,27)"/>
<path d="M0,0 L1,0 L1,1 L0,1 Z " fill="#A763D2" opacity="0.8862745" transform="translate(10,27)"/>
<path d="M0,0 L1,0 L1,1 L0,1 Z " fill="#B9C0CB" opacity="0.85882354" transform="translate(9,27)"/>
<path d="M0,0 L1,0 L1,1 L0,1 Z " fill="#B9BECB" opacity="0.8392157" transform="translate(55,26)"/>
<path d="M0,0 L1,0 L1,1 L0,1 Z " fill="#A65CD3" opacity="0.91764706" transform="translate(54,26)"/>
<path d="M0,0 L1,0 L1,1 L0,1 Z " fill="#A559D3" opacity="0.94509804" transform="translate(41,26)"/>
<path d="M0,0 L1,0 L1,1 L0,1 Z " fill="#BABCCC" opacity="0.81960785" transform="translate(40,26)"/>
<path d="M0,0 L1,0 L1,1 L0,1 Z " fill="#B9BECB" opacity="0.8392157" transform="translate(23,26)"/>
<path d="M0,0 L1,0 L1,1 L0,1 Z " fill="#A65CD3" opacity="0.91764706" transform="translate(22,26)"/>
<path d="M0,0 L1,0 L1,1 L0,1 Z " fill="#A559D3" opacity="0.94509804" transform="translate(9,26)"/>
<path d="M0,0 L1,0 L1,1 L0,1 Z " fill="#BABCCC" opacity="0.81960785" transform="translate(8,26)"/>
<path d="M0,0 L1,0 L1,1 L0,1 Z " fill="#B9B6CC" opacity="0.7921569" transform="translate(56,25)"/>
<path d="M0,0 L1,0 L1,1 L0,1 Z " fill="#A557D4" opacity="0.9647059" transform="translate(55,25)"/>
<path d="M0,0 L1,0 L1,1 L0,1 Z " fill="#A350D3" opacity="0.92156863" transform="translate(51,25)"/>
<path d="M0,0 L1,0 L1,1 L0,1 Z " fill="#B463E3" opacity="0.80784315" transform="translate(49,25)"/>
<path d="M0,0 L1,0 L1,1 L0,1 Z " fill="#B868E7" opacity="0.9411765" transform="translate(47,25)"/>
<path d="M0,0 L1,0 L1,1 L0,1 Z " fill="#AA5ADC" opacity="0.7529412" transform="translate(45,25)"/>
<path d="M0,0 L1,0 L1,1 L0,1 Z " fill="#A351D5" opacity="0.89411765" transform="translate(44,25)"/>
<path d="M0,0 L1,0 L1,1 L0,1 Z " fill="#A555D3" opacity="0.972549" transform="translate(40,25)"/>
<path d="M0,0 L1,0 L1,1 L0,1 Z " fill="#B8B6CB" opacity="0.7882353" transform="translate(39,25)"/>
<path d="M0,0 L1,0 L1,1 L0,1 Z " fill="#B9B6CC" opacity="0.7921569" transform="translate(24,25)"/>
<path d="M0,0 L1,0 L1,1 L0,1 Z " fill="#A557D4" opacity="0.9647059" transform="translate(23,25)"/>
<path d="M0,0 L1,0 L1,1 L0,1 Z " fill="#A350D3" opacity="0.92156863" transform="translate(19,25)"/>
<path d="M0,0 L1,0 L1,1 L0,1 Z " fill="#B463E3" opacity="0.80784315" transform="translate(17,25)"/>
<path d="M0,0 L1,0 L1,1 L0,1 Z " fill="#B868E7" opacity="0.9411765" transform="translate(15,25)"/>
<path d="M0,0 L1,0 L1,1 L0,1 Z " fill="#AA5ADC" opacity="0.7529412" transform="translate(13,25)"/>
<path d="M0,0 L1,0 L1,1 L0,1 Z " fill="#A351D5" opacity="0.89411765" transform="translate(12,25)"/>
<path d="M0,0 L1,0 L1,1 L0,1 Z " fill="#A555D3" opacity="0.972549" transform="translate(8,25)"/>
<path d="M0,0 L1,0 L1,1 L0,1 Z " fill="#B8B6CB" opacity="0.7882353" transform="translate(7,25)"/>
<path d="M0,0 L1,0 L1,1 L0,1 Z " fill="#B6ABCC" opacity="0.7647059" transform="translate(57,24)"/>
<path d="M0,0 L1,0 L1,1 L0,1 Z " fill="#A352D3" opacity="0.99215686" transform="translate(56,24)"/>
<path d="M0,0 L1,0 L1,1 L0,1 Z " fill="#AC5ADC" opacity="0.75686276" transform="translate(52,24)"/>
<path d="M0,0 L1,0 L1,1 L0,1 Z " fill="#B969E8" opacity="0.9647059" transform="translate(51,24)"/>
<path d="M0,0 L1,0 L1,1 L0,1 Z " fill="#B969E9" opacity="0.99607843" transform="translate(44,24)"/>
<path d="M0,0 L1,0 L1,1 L0,1 Z " fill="#AD5BDC" opacity="0.75686276" transform="translate(43,24)"/>
<path d="M0,0 L1,0 L1,1 L0,1 Z " fill="#A452D4" opacity="0.9647059" transform="translate(42,24)"/>
<path d="M0,0 L1,0 L1,1 L0,1 Z " fill="#A352D3" opacity="0.99215686" transform="translate(39,24)"/>
<path d="M0,0 L1,0 L1,1 L0,1 Z " fill="#B6ABCD" opacity="0.7607843" transform="translate(38,24)"/>
<path d="M0,0 L1,0 L1,1 L0,1 Z " fill="#B6ABCC" opacity="0.7647059" transform="translate(25,24)"/>
<path d="M0,0 L1,0 L1,1 L0,1 Z " fill="#A352D3" opacity="0.99215686" transform="translate(24,24)"/>
<path d="M0,0 L1,0 L1,1 L0,1 Z " fill="#AC5ADC" opacity="0.75686276" transform="translate(20,24)"/>
<path d="M0,0 L1,0 L1,1 L0,1 Z " fill="#B969E8" opacity="0.9647059" transform="translate(19,24)"/>
<path d="M0,0 L1,0 L1,1 L0,1 Z " fill="#B969E9" opacity="0.99607843" transform="translate(12,24)"/>
<path d="M0,0 L1,0 L1,1 L0,1 Z " fill="#AD5BDC" opacity="0.75686276" transform="translate(11,24)"/>
<path d="M0,0 L1,0 L1,1 L0,1 Z " fill="#A452D4" opacity="0.9647059" transform="translate(10,24)"/>
<path d="M0,0 L1,0 L1,1 L0,1 Z " fill="#A352D3" opacity="0.99215686" transform="translate(7,24)"/>
<path d="M0,0 L1,0 L1,1 L0,1 Z " fill="#B6ABCD" opacity="0.7607843" transform="translate(6,24)"/>
<path d="M0,0 L1,0 L1,1 L0,1 Z " fill="#BBC3CB" opacity="0.90588236" transform="translate(59,23)"/>
<path d="M0,0 L1,0 L1,1 L0,1 Z " fill="#AE80D2" opacity="0.7882353" transform="translate(58,23)"/>
<path d="M0,0 L1,0 L1,1 L0,1 Z " fill="#A452D4" opacity="0.9019608" transform="translate(54,23)"/>
<path d="M0,0 L1,0 L1,1 L0,1 Z " fill="#B464E4" opacity="0.85490197" transform="translate(53,23)"/>
<path d="M0,0 L1,0 L1,1 L0,1 Z " fill="#B767E5" opacity="0.8862745" transform="translate(42,23)"/>
<path d="M0,0 L1,0 L1,1 L0,1 Z " fill="#A452D5" opacity="0.85882354" transform="translate(41,23)"/>
<path d="M0,0 L1,0 L1,1 L0,1 Z " fill="#AE81D0" opacity="0.78431374" transform="translate(37,23)"/>
<path d="M0,0 L1,0 L1,1 L0,1 Z " fill="#BAC2CA" opacity="0.92156863" transform="translate(36,23)"/>
<path d="M0,0 L1,0 L1,1 L0,1 Z " fill="#BBC3CB" opacity="0.90588236" transform="translate(27,23)"/>
<path d="M0,0 L1,0 L1,1 L0,1 Z " fill="#AE80D2" opacity="0.7882353" transform="translate(26,23)"/>
<path d="M0,0 L1,0 L1,1 L0,1 Z " fill="#A452D4" opacity="0.9019608" transform="translate(22,23)"/>
<path d="M0,0 L1,0 L1,1 L0,1 Z " fill="#B464E4" opacity="0.85490197" transform="translate(21,23)"/>
<path d="M0,0 L1,0 L1,1 L0,1 Z " fill="#B767E5" opacity="0.8862745" transform="translate(10,23)"/>
<path d="M0,0 L1,0 L1,1 L0,1 Z " fill="#A452D5" opacity="0.85882354" transform="translate(9,23)"/>
<path d="M0,0 L1,0 L1,1 L0,1 Z " fill="#AE81D0" opacity="0.78431374" transform="translate(5,23)"/>
<path d="M0,0 L1,0 L1,1 L0,1 Z " fill="#BAC2CA" opacity="0.92156863" transform="translate(4,23)"/>
<path d="M0,0 L1,0 L1,1 L0,1 Z " fill="#BAC1CA" opacity="0.8862745" transform="translate(62,22)"/>
<path d="M0,0 L1,0 L1,1 L0,1 Z " fill="#AE83D0" opacity="0.78039217" transform="translate(60,22)"/>
<path d="M0,0 L1,0 L1,1 L0,1 Z " fill="#A555D4" opacity="0.9764706" transform="translate(59,22)"/>
<path d="M0,0 L1,0 L1,1 L0,1 Z " fill="#A552D4" opacity="0.8392157" transform="translate(55,22)"/>
<path d="M0,0 L1,0 L1,1 L0,1 Z " fill="#B767E7" opacity="0.91764706" transform="translate(54,22)"/>
<path d="M0,0 L1,0 L1,1 L0,1 Z " fill="#B868E7" opacity="0.94509804" transform="translate(41,22)"/>
<path d="M0,0 L1,0 L1,1 L0,1 Z " fill="#A553D6" opacity="0.81960785" transform="translate(40,22)"/>
<path d="M0,0 L1,0 L1,1 L0,1 Z " fill="#AE85D0" opacity="0.7764706" transform="translate(35,22)"/>
<path d="M0,0 L1,0 L1,1 L0,1 Z " fill="#B8B8CC" opacity="0.79607844" transform="translate(34,22)"/>
<path d="M0,0 L1,0 L1,1 L0,1 Z " fill="#BAC1CA" opacity="0.8862745" transform="translate(33,22)"/>
<path d="M0,0 L1,0 L1,1 L0,1 Z " fill="#BBC4CB" opacity="0.9607843" transform="translate(32,22)"/>
<path d="M0,0 L1,0 L1,1 L0,1 Z " fill="#BAC1CA" opacity="0.8862745" transform="translate(30,22)"/>
<path d="M0,0 L1,0 L1,1 L0,1 Z " fill="#AE83D0" opacity="0.78039217" transform="translate(28,22)"/>
<path d="M0,0 L1,0 L1,1 L0,1 Z " fill="#A555D4" opacity="0.9764706" transform="translate(27,22)"/>
<path d="M0,0 L1,0 L1,1 L0,1 Z " fill="#A552D4" opacity="0.8392157" transform="translate(23,22)"/>
<path d="M0,0 L1,0 L1,1 L0,1 Z " fill="#B767E7" opacity="0.91764706" transform="translate(22,22)"/>
<path d="M0,0 L1,0 L1,1 L0,1 Z " fill="#B868E7" opacity="0.94509804" transform="translate(9,22)"/>
<path d="M0,0 L1,0 L1,1 L0,1 Z " fill="#A553D6" opacity="0.81960785" transform="translate(8,22)"/>
<path d="M0,0 L1,0 L1,1 L0,1 Z " fill="#AE85D0" opacity="0.7764706" transform="translate(3,22)"/>
<path d="M0,0 L1,0 L1,1 L0,1 Z " fill="#B8B8CC" opacity="0.79607844" transform="translate(2,22)"/>
<path d="M0,0 L1,0 L1,1 L0,1 Z " fill="#BAC1CA" opacity="0.8862745" transform="translate(1,22)"/>
<path d="M0,0 L1,0 L1,1 L0,1 Z " fill="#BBC4CB" opacity="0.9607843" transform="translate(0,22)"/>
<path d="M0,0 L1,0 L1,1 L0,1 Z " fill="#A753D7" opacity="0.7921569" transform="translate(56,21)"/>
<path d="M0,0 L1,0 L1,1 L0,1 Z " fill="#B969E8" opacity="0.9647059" transform="translate(55,21)"/>
<path d="M0,0 L1,0 L1,1 L0,1 Z " fill="#B86AE9" opacity="0.972549" transform="translate(40,21)"/>
<path d="M0,0 L1,0 L1,1 L0,1 Z " fill="#A654D7" opacity="0.7882353" transform="translate(39,21)"/>
<path d="M0,0 L1,0 L1,1 L0,1 Z " fill="#A753D7" opacity="0.7921569" transform="translate(24,21)"/>
<path d="M0,0 L1,0 L1,1 L0,1 Z " fill="#B969E8" opacity="0.9647059" transform="translate(23,21)"/>
<path d="M0,0 L1,0 L1,1 L0,1 Z " fill="#B86AE9" opacity="0.972549" transform="translate(8,21)"/>
<path d="M0,0 L1,0 L1,1 L0,1 Z " fill="#A654D7" opacity="0.7882353" transform="translate(7,21)"/>
<path d="M0,0 L1,0 L1,1 L0,1 Z " fill="#A856D8" opacity="0.7647059" transform="translate(57,20)"/>
<path d="M0,0 L1,0 L1,1 L0,1 Z " fill="#BA6AE9" opacity="0.99215686" transform="translate(56,20)"/>
<path d="M0,0 L1,0 L1,1 L0,1 Z " fill="#BA6AE9" opacity="0.99215686" transform="translate(39,20)"/>
<path d="M0,0 L1,0 L1,1 L0,1 Z " fill="#A857D9" opacity="0.7607843" transform="translate(38,20)"/>
<path d="M0,0 L1,0 L1,1 L0,1 Z " fill="#A856D8" opacity="0.7647059" transform="translate(25,20)"/>
<path d="M0,0 L1,0 L1,1 L0,1 Z " fill="#BA6AE9" opacity="0.99215686" transform="translate(24,20)"/>
<path d="M0,0 L1,0 L1,1 L0,1 Z " fill="#BA6AE9" opacity="0.99215686" transform="translate(7,20)"/>
<path d="M0,0 L1,0 L1,1 L0,1 Z " fill="#A857D9" opacity="0.7607843" transform="translate(6,20)"/>
<path d="M0,0 L1,0 L1,1 L0,1 Z " fill="#B15FE2" opacity="0.7882353" transform="translate(58,19)"/>
<path d="M0,0 L1,0 L1,1 L0,1 Z " fill="#B060E1" opacity="0.78431374" transform="translate(37,19)"/>
<path d="M0,0 L1,0 L1,1 L0,1 Z " fill="#A350D3" opacity="0.92156863" transform="translate(36,19)"/>
<path d="M0,0 L1,0 L1,1 L0,1 Z " fill="#B15FE2" opacity="0.7882353" transform="translate(26,19)"/>
<path d="M0,0 L1,0 L1,1 L0,1 Z " fill="#B060E1" opacity="0.78431374" transform="translate(5,19)"/>
<path d="M0,0 L1,0 L1,1 L0,1 Z " fill="#A350D3" opacity="0.92156863" transform="translate(4,19)"/>
<path d="M0,0 L1,0 L1,1 L0,1 Z " fill="#A451D4" opacity="0.8862745" transform="translate(62,18)"/>
<path d="M0,0 L1,0 L1,1 L0,1 Z " fill="#B05FE1" opacity="0.78039217" transform="translate(60,18)"/>
<path d="M0,0 L1,0 L1,1 L0,1 Z " fill="#B968E8" opacity="0.9764706" transform="translate(59,18)"/>
<path d="M0,0 L1,0 L1,1 L0,1 Z " fill="#B86AE9" opacity="0.972549" transform="translate(36,18)"/>
<path d="M0,0 L1,0 L1,1 L0,1 Z " fill="#A654D6" opacity="0.79607844" transform="translate(34,18)"/>
<path d="M0,0 L1,0 L1,1 L0,1 Z " fill="#A451D4" opacity="0.8862745" transform="translate(33,18)"/>
<path d="M0,0 L1,0 L1,1 L0,1 Z " fill="#A451D4" opacity="0.9607843" transform="translate(32,18)"/>
<path d="M0,0 L1,0 L1,1 L0,1 Z " fill="#A451D4" opacity="0.8862745" transform="translate(30,18)"/>
<path d="M0,0 L1,0 L1,1 L0,1 Z " fill="#B05FE1" opacity="0.78039217" transform="translate(28,18)"/>
<path d="M0,0 L1,0 L1,1 L0,1 Z " fill="#B968E8" opacity="0.9764706" transform="translate(27,18)"/>
<path d="M0,0 L1,0 L1,1 L0,1 Z " fill="#B86AE9" opacity="0.972549" transform="translate(4,18)"/>
<path d="M0,0 L1,0 L1,1 L0,1 Z " fill="#A654D6" opacity="0.79607844" transform="translate(2,18)"/>
<path d="M0,0 L1,0 L1,1 L0,1 Z " fill="#A451D4" opacity="0.8862745" transform="translate(1,18)"/>
<path d="M0,0 L1,0 L1,1 L0,1 Z " fill="#A451D4" opacity="0.9607843" transform="translate(0,18)"/>
</svg>
