<?xml version="1.0" encoding="UTF-8"?>
<!-- Generator: visioncortex VTracer 0.6.4 -->
<svg version="1.1" xmlns="http://www.w3.org/2000/svg" width="64" height="64">
<path d="M0,0 L52,0 L52,1 L57,1 L57,2 L59,2 L59,3 L60,3 L60,4 L61,4 L61,5 L62,5 L62,7 L63,7 L63,12 L64,12 L64,36 L63,36 L63,40 L62,40 L62,41 L61,41 L61,42 L60,42 L60,43 L58,43 L58,44 L55,44 L55,45 L52,45 L52,46 L50,46 L50,47 L48,47 L48,48 L46,48 L46,49 L43,49 L43,50 L40,50 L40,51 L25,51 L25,50 L21,50 L21,49 L18,49 L18,48 L16,48 L16,47 L14,47 L14,46 L12,46 L12,45 L8,45 L8,44 L0,44 L0,41 L9,41 L9,40 L0,40 L0,31 L9,31 L9,30 L0,30 L0,27 L9,27 L9,26 L0,26 L0,23 L9,23 L9,22 L0,22 L0,19 L9,19 L9,18 L0,18 Z M52,4 L52,5 L56,5 L56,6 L57,6 L57,7 L58,7 L58,8 L59,8 L59,10 L58,10 L58,9 L57,9 L57,8 L52,8 L52,9 L56,9 L56,10 L57,10 L57,11 L58,11 L58,12 L59,12 L59,16 L60,16 L60,7 L59,7 L59,6 L58,6 L58,5 L57,5 L57,4 Z M29,12 L29,17 L34,17 L34,12 Z M39,14 L39,15 L38,15 L38,19 L40,19 L40,20 L42,20 L42,19 L43,19 L43,18 L44,18 L44,16 L43,16 L43,14 Z M55,18 L55,19 L60,19 L60,18 Z M9,19 L9,20 L12,20 L12,19 Z M52,19 L52,20 L55,20 L55,19 Z M12,20 L12,21 L14,21 L14,22 L16,22 L16,23 L19,23 L19,22 L17,22 L17,21 L15,21 L15,20 Z M49,20 L49,21 L47,21 L47,22 L45,22 L45,23 L42,23 L42,24 L39,24 L39,25 L25,25 L25,26 L40,26 L40,25 L43,25 L43,24 L46,24 L46,23 L48,23 L48,22 L50,22 L50,21 L52,21 L52,20 Z M55,22 L55,23 L60,23 L60,22 Z M9,23 L9,24 L12,24 L12,23 Z M19,23 L19,24 L21,24 L21,25 L25,25 L25,24 L22,24 L22,23 Z M52,23 L52,24 L55,24 L55,23 Z M12,24 L12,25 L14,25 L14,26 L16,26 L16,27 L19,27 L19,26 L17,26 L17,25 L15,25 L15,24 Z M49,24 L49,25 L47,25 L47,26 L45,26 L45,27 L42,27 L42,28 L39,28 L39,29 L25,29 L25,30 L40,30 L40,29 L43,29 L43,28 L46,28 L46,27 L48,27 L48,26 L50,26 L50,25 L52,25 L52,24 Z M55,26 L55,27 L60,27 L60,26 Z M9,27 L9,28 L12,28 L12,27 Z M19,27 L19,28 L21,28 L21,29 L25,29 L25,28 L22,28 L22,27 Z M52,27 L52,28 L55,28 L55,27 Z M12,28 L12,29 L14,29 L14,30 L16,30 L16,31 L19,31 L19,30 L17,30 L17,29 L15,29 L15,28 Z M49,28 L49,29 L47,29 L47,30 L45,30 L45,31 L42,31 L42,32 L39,32 L39,33 L25,33 L25,34 L40,34 L40,33 L43,33 L43,32 L46,32 L46,31 L48,31 L48,30 L50,30 L50,29 L52,29 L52,28 Z M55,30 L55,31 L60,31 L60,30 Z M9,31 L9,32 L12,32 L12,31 Z M19,31 L19,32 L21,32 L21,33 L25,33 L25,32 L22,32 L22,31 Z M52,31 L52,32 L55,32 L55,31 Z M12,32 L12,33 L14,33 L14,34 L16,34 L16,35 L19,35 L19,34 L17,34 L17,33 L15,33 L15,32 Z M49,32 L49,33 L47,33 L47,34 L45,34 L45,35 L42,35 L42,36 L39,36 L39,37 L25,37 L25,38 L40,38 L40,37 L43,37 L43,36 L46,36 L46,35 L48,35 L48,34 L50,34 L50,33 L52,33 L52,32 Z M19,35 L19,36 L21,36 L21,37 L25,37 L25,36 L22,36 L22,35 Z M59,36 L59,39 L60,39 L60,36 Z M57,39 L57,40 L55,40 L55,41 L58,41 L58,40 L59,40 L59,39 Z M9,41 L9,42 L12,42 L12,41 Z M52,41 L52,42 L55,42 L55,41 Z M12,42 L12,43 L14,43 L14,44 L16,44 L16,45 L19,45 L19,44 L17,44 L17,43 L15,43 L15,42 Z M49,42 L49,43 L47,43 L47,44 L45,44 L45,45 L42,45 L42,46 L39,46 L39,47 L25,47 L25,48 L40,48 L40,47 L43,47 L43,46 L46,46 L46,45 L48,45 L48,44 L50,44 L50,43 L52,43 L52,42 Z M19,45 L19,46 L21,46 L21,47 L25,47 L25,46 L22,46 L22,45 Z M30,13 L33,13 L33,16 L30,16 Z M40,15 L42,15 L42,16 L43,16 L43,17 L42,17 L42,18 L41,18 L41,19 L40,19 L40,18 L39,18 L39,16 L40,16 Z " fill="#EE9366" transform="translate(0,0)"/>
<path d="M0,0 L52,0 L52,1 L56,1 L56,2 L57,2 L57,3 L58,3 L58,4 L59,4 L59,6 L58,6 L58,5 L57,5 L57,4 L52,4 L52,5 L56,5 L56,6 L57,6 L57,7 L58,7 L58,8 L59,8 L59,12 L60,12 L60,14 L55,14 L55,15 L52,15 L52,16 L49,16 L49,17 L47,17 L47,18 L45,18 L45,19 L42,19 L42,20 L39,20 L39,21 L25,21 L25,20 L22,20 L22,19 L19,19 L19,18 L17,18 L17,17 L15,17 L15,16 L12,16 L12,15 L9,15 L9,14 L0,14 Z M29,8 L29,13 L34,13 L34,8 Z M39,10 L39,11 L38,11 L38,15 L40,15 L40,16 L42,16 L42,15 L43,15 L43,14 L44,14 L44,12 L43,12 L43,10 Z M30,9 L33,9 L33,12 L30,12 Z M40,11 L42,11 L42,12 L43,12 L43,13 L42,13 L42,14 L41,14 L41,15 L40,15 L40,14 L39,14 L39,12 L40,12 Z M0,15 L9,15 L9,16 L12,16 L12,17 L14,17 L14,18 L16,18 L16,19 L19,19 L19,20 L21,20 L21,21 L25,21 L25,22 L40,22 L40,21 L43,21 L43,20 L46,20 L46,19 L48,19 L48,18 L50,18 L50,17 L52,17 L52,16 L55,16 L55,15 L60,15 L60,18 L55,18 L55,19 L52,19 L52,20 L49,20 L49,21 L47,21 L47,22 L45,22 L45,23 L42,23 L42,24 L39,24 L39,25 L25,25 L25,24 L22,24 L22,23 L19,23 L19,22 L17,22 L17,21 L15,21 L15,20 L12,20 L12,19 L9,19 L9,18 L0,18 Z " fill="#F3C7A5" transform="translate(0,4)"/>
<path d="M0,0 L52,0 L52,1 L57,1 L57,2 L59,2 L59,3 L60,3 L60,4 L61,4 L61,5 L62,5 L62,7 L63,7 L63,12 L64,12 L64,36 L63,36 L63,40 L62,40 L62,41 L61,41 L61,42 L60,42 L60,43 L58,43 L58,44 L55,44 L55,45 L52,45 L52,46 L50,46 L50,47 L48,47 L48,48 L46,48 L46,49 L43,49 L43,50 L40,50 L40,51 L25,51 L25,50 L21,50 L21,49 L18,49 L18,48 L16,48 L16,47 L14,47 L14,46 L12,46 L12,45 L8,45 L8,44 L0,44 L0,41 L9,41 L9,42 L12,42 L12,43 L14,43 L14,44 L16,44 L16,45 L19,45 L19,46 L21,46 L21,47 L25,47 L25,48 L40,48 L40,47 L43,47 L43,46 L46,46 L46,45 L48,45 L48,44 L50,44 L50,43 L52,43 L52,42 L55,42 L55,41 L58,41 L58,40 L59,40 L59,39 L60,39 L60,7 L59,7 L59,6 L58,6 L58,5 L57,5 L57,4 L0,4 Z " fill="#353541" transform="translate(0,0)"/>
<path d="M0,0 L9,0 L9,1 L12,1 L12,2 L14,2 L14,3 L16,3 L16,4 L19,4 L19,5 L21,5 L21,6 L25,6 L25,7 L40,7 L40,6 L43,6 L43,5 L46,5 L46,4 L48,4 L48,3 L50,3 L50,2 L52,2 L52,1 L55,1 L55,0 L60,0 L60,3 L55,3 L55,4 L52,4 L52,5 L49,5 L49,6 L47,6 L47,7 L45,7 L45,8 L42,8 L42,9 L39,9 L39,10 L25,10 L25,9 L22,9 L22,8 L19,8 L19,7 L17,7 L17,6 L15,6 L15,5 L12,5 L12,4 L9,4 L9,3 L0,3 Z M0,4 L9,4 L9,5 L12,5 L12,6 L14,6 L14,7 L16,7 L16,8 L19,8 L19,9 L21,9 L21,10 L25,10 L25,11 L40,11 L40,10 L43,10 L43,9 L46,9 L46,8 L48,8 L48,7 L50,7 L50,6 L52,6 L52,5 L55,5 L55,4 L60,4 L60,7 L55,7 L55,8 L52,8 L52,9 L49,9 L49,10 L47,10 L47,11 L45,11 L45,12 L42,12 L42,13 L39,13 L39,14 L25,14 L25,13 L22,13 L22,12 L19,12 L19,11 L17,11 L17,10 L15,10 L15,9 L12,9 L12,8 L9,8 L9,7 L0,7 Z " fill="#C66A3E" transform="translate(0,23)"/>
<path d="M0,0 L9,0 L9,1 L12,1 L12,2 L14,2 L14,3 L16,3 L16,4 L19,4 L19,5 L21,5 L21,6 L25,6 L25,7 L40,7 L40,6 L43,6 L43,5 L46,5 L46,4 L48,4 L48,3 L50,3 L50,2 L52,2 L52,1 L55,1 L55,0 L60,0 L60,3 L55,3 L55,4 L52,4 L52,5 L49,5 L49,6 L47,6 L47,7 L45,7 L45,8 L42,8 L42,9 L39,9 L39,10 L25,10 L25,9 L22,9 L22,8 L19,8 L19,7 L17,7 L17,6 L15,6 L15,5 L12,5 L12,4 L9,4 L9,3 L0,3 Z " fill="#E7B187" transform="translate(0,19)"/>
<path d="M0,0 L9,0 L9,1 L12,1 L12,2 L14,2 L14,3 L16,3 L16,4 L19,4 L19,5 L21,5 L21,6 L25,6 L25,7 L40,7 L40,6 L43,6 L43,5 L46,5 L46,4 L48,4 L48,3 L50,3 L50,2 L52,2 L52,1 L55,1 L55,0 L60,0 L60,3 L55,3 L55,4 L52,4 L52,5 L49,5 L49,6 L47,6 L47,7 L45,7 L45,8 L42,8 L42,9 L39,9 L39,10 L25,10 L25,9 L22,9 L22,8 L19,8 L19,7 L17,7 L17,6 L15,6 L15,5 L12,5 L12,4 L9,4 L9,3 L0,3 Z " fill="#DE7E4F" transform="translate(0,23)"/>
<path d="M0,0 L52,0 L52,1 L56,1 L56,2 L57,2 L57,3 L58,3 L58,4 L59,4 L59,6 L58,6 L58,5 L57,5 L57,4 L0,4 Z " fill="#FFE0C2" transform="translate(0,4)"/>
<path d="M0,0 L3,0 L3,3 L0,3 Z " fill="#E7B187" transform="translate(30,13)"/>
<path d="M0,0 L2,0 L2,1 L3,1 L3,2 L2,2 L2,3 L1,3 L1,4 L0,4 L0,3 L-1,3 L-1,1 L0,1 Z " fill="#E7B187" transform="translate(40,15)"/>
<path d="M0,0 L1,0 L1,1 L0,1 Z " fill="#353540" opacity="0.9647059" transform="translate(31,51)"/>
<path d="M0,0 L1,0 L1,1 L0,1 Z " fill="#F6D8BC" opacity="0.84705883" transform="translate(59,10)"/>
<path d="M0,0 L1,0 L1,1 L0,1 Z " fill="#C76A3D" opacity="0.8352941" transform="translate(4,26)"/>
<path d="M0,0 L1,0 L1,1 L0,1 Z " fill="#343441" opacity="0.95686275" transform="translate(20,49)"/>
<path d="M0,0 L1,0 L1,1 L0,1 Z " fill="#343441" opacity="0.15294118" transform="translate(3,44)"/>
<path d="M0,0 L1,0 L1,1 L0,1 Z " fill="#343441" opacity="0.69411767" transform="translate(54,0)"/>
<path d="M0,0 L1,0 L1,1 L0,1 Z " fill="#343441" opacity="0.6156863" transform="translate(27,51)"/>
<path d="M0,0 L1,0 L1,1 L0,1 Z " fill="#E88F63" opacity="0.85882354" transform="translate(34,47)"/>
<path d="M0,0 L1,0 L1,1 L0,1 Z " fill="#E38D64" opacity="0.83137256" transform="translate(29,47)"/>
<path d="M0,0 L1,0 L1,1 L0,1 Z " fill="#ED9265" opacity="0.94509804" transform="translate(8,40)"/>
<path d="M0,0 L1,0 L1,1 L0,1 Z " fill="#EE9365" opacity="0.9764706" transform="translate(39,37)"/>
<path d="M0,0 L1,0 L1,1 L0,1 Z " fill="#D07347" opacity="0.83137256" transform="translate(29,37)"/>
<path d="M0,0 L1,0 L1,1 L0,1 Z " fill="#D87749" opacity="0.83137256" transform="translate(29,33)"/>
<path d="M0,0 L1,0 L1,1 L0,1 Z " fill="#EC9063" opacity="0.827451" transform="translate(59,30)"/>
<path d="M0,0 L1,0 L1,1 L0,1 Z " fill="#DE7E4F" opacity="0.9764706" transform="translate(39,29)"/>
<path d="M0,0 L1,0 L1,1 L0,1 Z " fill="#E5A377" opacity="0.83137256" transform="translate(29,29)"/>
<path d="M0,0 L1,0 L1,1 L0,1 Z " fill="#C66A3F" opacity="0.827451" transform="translate(59,26)"/>
<path d="M0,0 L1,0 L1,1 L0,1 Z " fill="#F0C19C" opacity="0.83137256" transform="translate(29,25)"/>
<path d="M0,0 L1,0 L1,1 L0,1 Z " fill="#DF8052" opacity="0.827451" transform="translate(59,22)"/>
<path d="M0,0 L1,0 L1,1 L0,1 Z " fill="#E7B287" opacity="0.827451" transform="translate(59,18)"/>
<path d="M0,0 L1,0 L1,1 L0,1 Z " fill="#343440" opacity="0.7058824" transform="translate(63,9)"/>
<path d="M0,0 L1,0 L1,1 L0,1 Z " fill="#333340" opacity="0.29411766" transform="translate(38,51)"/>
<path d="M0,0 L1,0 L1,1 L0,1 Z " fill="#343440" opacity="0.26666668" transform="translate(42,50)"/>
<path d="M0,0 L1,0 L1,1 L0,1 Z " fill="#CE7246" opacity="0.85882354" transform="translate(34,37)"/>
<path d="M0,0 L1,0 L1,1 L0,1 Z " fill="#CB6D41" opacity="0.7607843" transform="translate(37,33)"/>
<path d="M0,0 L1,0 L1,1 L0,1 Z " fill="#D9794A" opacity="0.85882354" transform="translate(34,33)"/>
<path d="M0,0 L1,0 L1,1 L0,1 Z " fill="#DE8053" opacity="0.75686276" transform="translate(6,30)"/>
<path d="M0,0 L1,0 L1,1 L0,1 Z " fill="#E6A77B" opacity="0.85882354" transform="translate(34,29)"/>
<path d="M0,0 L1,0 L1,1 L0,1 Z " fill="#D07244" opacity="0.75686276" transform="translate(6,26)"/>
<path d="M0,0 L1,0 L1,1 L0,1 Z " fill="#EAB48D" opacity="0.7607843" transform="translate(37,25)"/>
<path d="M0,0 L1,0 L1,1 L0,1 Z " fill="#F1C29E" opacity="0.85882354" transform="translate(34,25)"/>
<path d="M0,0 L1,0 L1,1 L0,1 Z " fill="#E29466" opacity="0.75686276" transform="translate(6,22)"/>
<path d="M0,0 L1,0 L1,1 L0,1 Z " fill="#EDBB94" opacity="0.75686276" transform="translate(6,18)"/>
<path d="M0,0 L1,0 L1,1 L0,1 Z " fill="#E7B086" opacity="0.9529412" transform="translate(31,16)"/>
<path d="M0,0 L1,0 L1,1 L0,1 Z M-1,1 L0,1 L0,2 L-1,2 Z " fill="#E7B187" transform="translate(40,15)"/>
<path d="M0,0 L1,0 L1,1 L0,1 Z " fill="#E7B28A" opacity="0.7921569" transform="translate(40,14)"/>
<path d="M0,0 L1,0 L1,1 L0,1 Z " fill="#E7B086" opacity="0.9529412" transform="translate(33,14)"/>
<path d="M0,0 L1,0 L1,1 L0,1 Z " fill="#E6B186" opacity="0.9607843" transform="translate(29,14)"/>
<path d="M0,0 L1,0 L1,1 L0,1 Z " fill="#E6B186" opacity="0.9607843" transform="translate(31,12)"/>
<path d="M0,0 L1,0 L1,1 L0,1 Z " fill="#F5C9A9" opacity="0.78039217" transform="translate(54,8)"/>
<path d="M0,0 L1,0 L1,1 L0,1 Z " fill="#343441" opacity="0.89411765" transform="translate(60,3)"/>
<path d="M0,0 L1,0 L1,1 L0,1 Z " fill="#343440" opacity="0.68235296" transform="translate(36,51)"/>
<path d="M0,0 L1,0 L1,1 L0,1 Z " fill="#343440" opacity="0.84313726" transform="translate(34,51)"/>
<path d="M0,0 L1,0 L1,1 L0,1 Z " fill="#343440" opacity="0.7882353" transform="translate(29,51)"/>
<path d="M0,0 L1,0 L1,1 L0,1 Z " fill="#333340" opacity="0.29411766" transform="translate(25,51)"/>
<path d="M0,0 L1,0 L1,1 L0,1 Z " fill="#343440" opacity="0.79607844" transform="translate(23,50)"/>
<path d="M0,0 L1,0 L1,1 L0,1 Z " fill="#333340" opacity="0.29411766" transform="translate(21,50)"/>
<path d="M0,0 L1,0 L1,1 L0,1 Z " fill="#353540" opacity="0.003921569" transform="translate(46,49)"/>
<path d="M0,0 L1,0 L1,1 L0,1 Z " fill="#343441" opacity="0.24705882" transform="translate(18,49)"/>
<path d="M0,0 L1,0 L1,1 L0,1 Z " fill="#343440" opacity="0.015686275" transform="translate(48,48)"/>
<path d="M0,0 L1,0 L1,1 L0,1 Z " fill="#343441" opacity="0.4" transform="translate(16,48)"/>
<path d="M0,0 L1,0 L1,1 L0,1 Z " fill="#343440" opacity="0.047058824" transform="translate(50,47)"/>
<path d="M0,0 L1,0 L1,1 L0,1 Z " fill="#634C4A" opacity="0.8392157" transform="translate(38,47)"/>
<path d="M0,0 L1,0 L1,1 L0,1 Z " fill="#EE9366" opacity="0.9607843" transform="translate(31,47)"/>
<path d="M0,0 L1,0 L1,1 L0,1 Z " fill="#C87F5D" opacity="0.7647059" transform="translate(27,47)"/>
<path d="M0,0 L1,0 L1,1 L0,1 Z " fill="#333340" opacity="0.46666667" transform="translate(14,47)"/>
<path d="M0,0 L1,0 L1,1 L0,1 Z " fill="#443D43" opacity="0.93333334" transform="translate(42,46)"/>
<path d="M0,0 L1,0 L1,1 L0,1 Z " fill="#D48560" opacity="0.78431374" transform="translate(23,46)"/>
<path d="M0,0 L1,0 L1,1 L0,1 Z " fill="#333340" opacity="0.56078434" transform="translate(12,46)"/>
<path d="M0,0 L1,0 L1,1 L0,1 Z " fill="#2C2C42" opacity="0.09019608" transform="translate(55,45)"/>
<path d="M0,0 L1,0 L1,1 L0,1 Z " fill="#343440" opacity="0.41960785" transform="translate(9,45)"/>
<path d="M0,0 L1,0 L1,1 L0,1 Z " fill="#353540" opacity="0.05490196" transform="translate(58,44)"/>
<path d="M0,0 L1,0 L1,1 L0,1 Z " fill="#E78E64" opacity="0.8509804" transform="translate(18,44)"/>
<path d="M0,0 L1,0 L1,1 L0,1 Z " fill="#353540" opacity="0.6431373" transform="translate(6,44)"/>
<path d="M0,0 L1,0 L1,1 L0,1 Z " fill="#353541" opacity="0.0627451" transform="translate(1,44)"/>
<path d="M0,0 L1,0 L1,1 L0,1 Z " fill="#333340" opacity="0.078431375" transform="translate(60,43)"/>
<path d="M0,0 L1,0 L1,1 L0,1 Z " fill="#ED9265" opacity="0.9411765" transform="translate(16,43)"/>
<path d="M0,0 L1,0 L1,1 L0,1 Z " fill="#EA9065" opacity="0.8745098" transform="translate(11,41)"/>
<path d="M0,0 L1,0 L1,1 L0,1 Z " fill="#353541" transform="translate(0,41)"/>
<path d="M0,0 L1,0 L1,1 L0,1 Z " fill="#333340" opacity="0.003921569" transform="translate(63,40)"/>
<path d="M0,0 L1,0 L1,1 L0,1 Z " fill="#C07B5C" opacity="0.75686276" transform="translate(6,40)"/>
<path d="M0,0 L1,0 L1,1 L0,1 Z " fill="#644C49" opacity="0.8352941" transform="translate(4,40)"/>
<path d="M0,0 L1,0 L1,1 L0,1 Z " fill="#4B4044" opacity="0.90588236" transform="translate(2,40)"/>
<path d="M0,0 L1,0 L1,1 L0,1 Z " fill="#343441" opacity="0.64705884" transform="translate(63,38)"/>
<path d="M0,0 L1,0 L1,1 L0,1 Z " fill="#E5895C" opacity="0.7607843" transform="translate(37,37)"/>
<path d="M0,0 L1,0 L1,1 L0,1 Z " fill="#C96B3F" opacity="0.9607843" transform="translate(31,37)"/>
<path d="M0,0 L1,0 L1,1 L0,1 Z " fill="#DB7E52" opacity="0.7647059" transform="translate(27,37)"/>
<path d="M0,0 L1,0 L1,1 L0,1 Z " fill="#E58B5D" opacity="0.7647059" transform="translate(41,36)"/>
<path d="M0,0 L1,0 L1,1 L0,1 Z " fill="#D87A4E" opacity="0.78431374" transform="translate(23,36)"/>
<path d="M0,0 L1,0 L1,1 L0,1 Z " fill="#EA8E61" opacity="0.78431374" transform="translate(44,35)"/>
<path d="M0,0 L1,0 L1,1 L0,1 Z " fill="#EE9265" opacity="0.9647059" transform="translate(47,34)"/>
<path d="M0,0 L1,0 L1,1 L0,1 Z " fill="#ED9164" opacity="0.91764706" transform="translate(49,33)"/>
<path d="M0,0 L1,0 L1,1 L0,1 Z " fill="#DE7D4D" opacity="0.9607843" transform="translate(31,33)"/>
<path d="M0,0 L1,0 L1,1 L0,1 Z " fill="#D37245" opacity="0.7647059" transform="translate(27,33)"/>
<path d="M0,0 L1,0 L1,1 L0,1 Z " fill="#ED9163" opacity="0.85490197" transform="translate(51,32)"/>
<path d="M0,0 L1,0 L1,1 L0,1 Z " fill="#CA6E41" opacity="0.7647059" transform="translate(41,32)"/>
<path d="M0,0 L1,0 L1,1 L0,1 Z " fill="#D37546" opacity="0.78431374" transform="translate(23,32)"/>
<path d="M0,0 L1,0 L1,1 L0,1 Z " fill="#C76A3E" opacity="0.98039216" transform="translate(14,32)"/>
<path d="M0,0 L1,0 L1,1 L0,1 Z " fill="#ED9164" opacity="0.8509804" transform="translate(54,31)"/>
<path d="M0,0 L1,0 L1,1 L0,1 Z " fill="#CA6B3E" opacity="0.78431374" transform="translate(44,31)"/>
<path d="M0,0 L1,0 L1,1 L0,1 Z " fill="#D57447" opacity="0.7764706" transform="translate(20,31)"/>
<path d="M0,0 L1,0 L1,1 L0,1 Z " fill="#CE7043" opacity="0.8745098" transform="translate(11,31)"/>
<path d="M0,0 L1,0 L1,1 L0,1 Z " fill="#EE9366" transform="translate(0,31)"/>
<path d="M0,0 L1,0 L1,1 L0,1 Z " fill="#DC8053" opacity="0.75686276" transform="translate(57,30)"/>
<path d="M0,0 L1,0 L1,1 L0,1 Z " fill="#C66A3D" opacity="0.9647059" transform="translate(47,30)"/>
<path d="M0,0 L1,0 L1,1 L0,1 Z " fill="#D9794A" opacity="0.8509804" transform="translate(18,30)"/>
<path d="M0,0 L1,0 L1,1 L0,1 Z " fill="#EB8F62" opacity="0.8352941" transform="translate(4,30)"/>
<path d="M0,0 L1,0 L1,1 L0,1 Z " fill="#ED9264" opacity="0.90588236" transform="translate(2,30)"/>
<path d="M0,0 L1,0 L1,1 L0,1 Z " fill="#C76A3D" opacity="0.91764706" transform="translate(49,29)"/>
<path d="M0,0 L1,0 L1,1 L0,1 Z " fill="#E0895B" opacity="0.7607843" transform="translate(37,29)"/>
<path d="M0,0 L1,0 L1,1 L0,1 Z " fill="#E6AF83" opacity="0.9607843" transform="translate(31,29)"/>
<path d="M0,0 L1,0 L1,1 L0,1 Z " fill="#E3966A" opacity="0.7647059" transform="translate(27,29)"/>
<path d="M0,0 L1,0 L1,1 L0,1 Z " fill="#DC7B4C" opacity="0.9411765" transform="translate(16,29)"/>
<path d="M0,0 L1,0 L1,1 L0,1 Z " fill="#C76A3E" opacity="0.85490197" transform="translate(51,28)"/>
<path d="M0,0 L1,0 L1,1 L0,1 Z " fill="#E08759" opacity="0.7647059" transform="translate(41,28)"/>
<path d="M0,0 L1,0 L1,1 L0,1 Z " fill="#E39A6F" opacity="0.78431374" transform="translate(23,28)"/>
<path d="M0,0 L1,0 L1,1 L0,1 Z " fill="#DE7C4C" opacity="0.98039216" transform="translate(14,28)"/>
<path d="M0,0 L1,0 L1,1 L0,1 Z " fill="#C76A3D" opacity="0.8509804" transform="translate(54,27)"/>
<path d="M0,0 L1,0 L1,1 L0,1 Z " fill="#E08555" opacity="0.78431374" transform="translate(44,27)"/>
<path d="M0,0 L1,0 L1,1 L0,1 Z " fill="#E7AE85" opacity="0.9882353" transform="translate(21,27)"/>
<path d="M0,0 L1,0 L1,1 L0,1 Z " fill="#DA794A" opacity="0.8745098" transform="translate(11,27)"/>
<path d="M0,0 L1,0 L1,1 L0,1 Z " fill="#C66A3E" transform="translate(0,27)"/>
<path d="M0,0 L1,0 L1,1 L0,1 Z " fill="#D17343" opacity="0.75686276" transform="translate(57,26)"/>
<path d="M0,0 L1,0 L1,1 L0,1 Z " fill="#DE7D4F" opacity="0.9647059" transform="translate(47,26)"/>
<path d="M0,0 L1,0 L1,1 L0,1 Z " fill="#C6693C" opacity="0.90588236" transform="translate(2,26)"/>
<path d="M0,0 L1,0 L1,1 L0,1 Z " fill="#DF7D4E" opacity="0.91764706" transform="translate(49,25)"/>
<path d="M0,0 L1,0 L1,1 L0,1 Z " fill="#F3C6A3" opacity="0.9607843" transform="translate(31,25)"/>
<path d="M0,0 L1,0 L1,1 L0,1 Z " fill="#EDBB95" opacity="0.7647059" transform="translate(27,25)"/>
<path d="M0,0 L1,0 L1,1 L0,1 Z " fill="#DD7E51" opacity="0.85490197" transform="translate(51,24)"/>
<path d="M0,0 L1,0 L1,1 L0,1 Z " fill="#E9B58C" opacity="0.7647059" transform="translate(41,24)"/>
<path d="M0,0 L1,0 L1,1 L0,1 Z " fill="#EEBD98" opacity="0.78431374" transform="translate(23,24)"/>
<path d="M0,0 L1,0 L1,1 L0,1 Z " fill="#E6AF85" opacity="0.98039216" transform="translate(14,24)"/>
<path d="M0,0 L1,0 L1,1 L0,1 Z " fill="#DE7F50" opacity="0.8509804" transform="translate(54,23)"/>
<path d="M0,0 L1,0 L1,1 L0,1 Z " fill="#E8B48A" opacity="0.78431374" transform="translate(44,23)"/>
<path d="M0,0 L1,0 L1,1 L0,1 Z " fill="#E5A77D" opacity="0.8745098" transform="translate(11,23)"/>
<path d="M0,0 L1,0 L1,1 L0,1 Z " fill="#DE7E4F" transform="translate(0,23)"/>
<path d="M0,0 L1,0 L1,1 L0,1 Z " fill="#E29468" opacity="0.75686276" transform="translate(57,22)"/>
<path d="M0,0 L1,0 L1,1 L0,1 Z " fill="#E7B087" opacity="0.9647059" transform="translate(47,22)"/>
<path d="M0,0 L1,0 L1,1 L0,1 Z " fill="#F1C29E" opacity="0.8509804" transform="translate(18,22)"/>
<path d="M0,0 L1,0 L1,1 L0,1 Z " fill="#DE8051" opacity="0.8352941" transform="translate(4,22)"/>
<path d="M0,0 L1,0 L1,1 L0,1 Z " fill="#DD7E4E" opacity="0.90588236" transform="translate(2,22)"/>
<path d="M0,0 L1,0 L1,1 L0,1 Z " fill="#E7B186" opacity="0.91764706" transform="translate(49,21)"/>
<path d="M0,0 L1,0 L1,1 L0,1 Z " fill="#E8B188" opacity="0.85490197" transform="translate(51,20)"/>
<path d="M0,0 L1,0 L1,1 L0,1 Z " fill="#F3C6A3" opacity="0.98039216" transform="translate(14,20)"/>
<path d="M0,0 L1,0 L1,1 L0,1 Z " fill="#E7B288" opacity="0.8509804" transform="translate(54,19)"/>
<path d="M0,0 L1,0 L1,1 L0,1 Z " fill="#F3C5A3" opacity="0.9411765" transform="translate(41,19)"/>
<path d="M0,0 L1,0 L1,1 L0,1 Z " fill="#F2C4A0" opacity="0.8745098" transform="translate(11,19)"/>
<path d="M0,0 L1,0 L1,1 L0,1 Z " fill="#E7B187" transform="translate(0,19)"/>
<path d="M0,0 L1,0 L1,1 L0,1 Z " fill="#EDBB94" opacity="0.75686276" transform="translate(57,18)"/>
<path d="M0,0 L1,0 L1,1 L0,1 Z " fill="#E7B187" opacity="0.8352941" transform="translate(4,18)"/>
<path d="M0,0 L1,0 L1,1 L0,1 Z " fill="#E7B187" opacity="0.90588236" transform="translate(2,18)"/>
<path d="M0,0 L1,0 L1,1 L0,1 Z " fill="#F3C5A2" opacity="0.9372549" transform="translate(43,17)"/>
<path d="M0,0 L1,0 L1,1 L0,1 Z " fill="#ECB891" opacity="0.7529412" transform="translate(38,17)"/>
<path d="M0,0 L1,0 L1,1 L0,1 Z " fill="#F4C8A7" opacity="0.84705883" transform="translate(59,14)"/>
<path d="M0,0 L1,0 L1,1 L0,1 Z " fill="#343440" opacity="0.9607843" transform="translate(63,11)"/>
<path d="M0,0 L1,0 L1,1 L0,1 Z " fill="#D8C0A9" opacity="0.76862746" transform="translate(59,9)"/>
<path d="M0,0 L1,0 L1,1 L0,1 Z " fill="#32323D" opacity="0.18039216" transform="translate(63,7)"/>
<path d="M0,0 L1,0 L1,1 L0,1 Z " fill="#343440" opacity="0.8392157" transform="translate(62,6)"/>
<path d="M0,0 L1,0 L1,1 L0,1 Z " fill="#373743" opacity="0.9882353" transform="translate(56,4)"/>
<path d="M0,0 L1,0 L1,1 L0,1 Z " fill="#34343F" opacity="0.03137255" transform="translate(59,1)"/>
<path d="M0,0 L1,0 L1,1 L0,1 Z " fill="#343440" opacity="0.003921569" transform="translate(57,0)"/>
<path d="M0,0 L1,0 L1,1 L0,1 Z " fill="#33333D" opacity="0.09803922" transform="translate(39,51)"/>
<path d="M0,0 L1,0 L1,1 L0,1 Z " fill="#35353F" opacity="0.49019608" transform="translate(37,51)"/>
<path d="M0,0 L1,0 L1,1 L0,1 Z " fill="#353540" opacity="0.7764706" transform="translate(35,51)"/>
<path d="M0,0 L1,0 L1,1 L0,1 Z " fill="#353540" opacity="0.90588236" transform="translate(33,51)"/>
<path d="M0,0 L1,0 L1,1 L0,1 Z " fill="#343441" opacity="0.972549" transform="translate(32,51)"/>
<path d="M0,0 L1,0 L1,1 L0,1 Z " fill="#343440" opacity="0.8745098" transform="translate(30,51)"/>
<path d="M0,0 L1,0 L1,1 L0,1 Z " fill="#343440" opacity="0.7019608" transform="translate(28,51)"/>
<path d="M0,0 L1,0 L1,1 L0,1 Z " fill="#343440" opacity="0.5176471" transform="translate(26,51)"/>
<path d="M0,0 L1,0 L1,1 L0,1 Z " fill="#343440" opacity="0.05882353" transform="translate(24,51)"/>
<path d="M0,0 L1,0 L1,1 L0,1 Z " fill="#343440" opacity="0.019607844" transform="translate(43,50)"/>
<path d="M0,0 L1,0 L1,1 L0,1 Z " fill="#343440" opacity="0.59607846" transform="translate(41,50)"/>
<path d="M0,0 L1,0 L1,1 L0,1 Z " fill="#343440" opacity="0.8980392" transform="translate(40,50)"/>
<path d="M0,0 L1,0 L1,1 L0,1 Z " fill="#343440" opacity="0.99215686" transform="translate(24,50)"/>
<path d="M0,0 L1,0 L1,1 L0,1 Z " fill="#333340" opacity="0.54509807" transform="translate(22,50)"/>
<path d="M0,0 L1,0 L1,1 L0,1 Z " fill="#343441" opacity="0.047058824" transform="translate(20,50)"/>
<path d="M0,0 L1,0 L1,1 L0,1 Z " fill="#32323E" opacity="0.23921569" transform="translate(45,49)"/>
<path d="M0,0 L1,0 L1,1 L0,1 Z " fill="#343440" opacity="0.6117647" transform="translate(44,49)"/>
<path d="M0,0 L1,0 L1,1 L0,1 Z " fill="#343440" opacity="0.92941177" transform="translate(43,49)"/>
<path d="M0,0 L1,0 L1,1 L0,1 Z " fill="#353540" opacity="0.62352943" transform="translate(19,49)"/>
<path d="M0,0 L1,0 L1,1 L0,1 Z " fill="#343440" opacity="0.007843138" transform="translate(17,49)"/>
<path d="M0,0 L1,0 L1,1 L0,1 Z " fill="#33333F" opacity="0.33333334" transform="translate(47,48)"/>
<path d="M0,0 L1,0 L1,1 L0,1 Z " fill="#353540" opacity="0.7921569" transform="translate(46,48)"/>
<path d="M0,0 L1,0 L1,1 L0,1 Z " fill="#343440" opacity="0.85882354" transform="translate(17,48)"/>
<path d="M0,0 L1,0 L1,1 L0,1 Z " fill="#353540" opacity="0.03137255" transform="translate(15,48)"/>
<path d="M0,0 L1,0 L1,1 L0,1 Z " fill="#333341" opacity="0.43137255" transform="translate(49,47)"/>
<path d="M0,0 L1,0 L1,1 L0,1 Z " fill="#343440" opacity="0.8745098" transform="translate(48,47)"/>
<path d="M0,0 L1,0 L1,1 L0,1 Z " fill="#3A3741" opacity="0.9764706" transform="translate(39,47)"/>
<path d="M0,0 L1,0 L1,1 L0,1 Z " fill="#976653" opacity="0.7607843" transform="translate(37,47)"/>
<path d="M0,0 L1,0 L1,1 L0,1 Z " fill="#C8805D" opacity="0.7647059" transform="translate(36,47)"/>
<path d="M0,0 L1,0 L1,1 L0,1 Z " fill="#E28C63" opacity="0.81960785" transform="translate(35,47)"/>
<path d="M0,0 L1,0 L1,1 L0,1 Z " fill="#EC9264" opacity="0.90588236" transform="translate(33,47)"/>
<path d="M0,0 L1,0 L1,1 L0,1 Z " fill="#EE9365" opacity="0.96862745" transform="translate(32,47)"/>
<path d="M0,0 L1,0 L1,1 L0,1 Z " fill="#EA9064" opacity="0.8862745" transform="translate(30,47)"/>
<path d="M0,0 L1,0 L1,1 L0,1 Z " fill="#D88762" opacity="0.7882353" transform="translate(28,47)"/>
<path d="M0,0 L1,0 L1,1 L0,1 Z " fill="#9F6A54" opacity="0.75686276" transform="translate(26,47)"/>
<path d="M0,0 L1,0 L1,1 L0,1 Z " fill="#5B4747" opacity="0.85490197" transform="translate(25,47)"/>
<path d="M0,0 L1,0 L1,1 L0,1 Z " fill="#363541" transform="translate(24,47)"/>
<path d="M0,0 L1,0 L1,1 L0,1 Z " fill="#353540" opacity="0.90588236" transform="translate(15,47)"/>
<path d="M0,0 L1,0 L1,1 L0,1 Z " fill="#343440" opacity="0.0627451" transform="translate(13,47)"/>
<path d="M0,0 L1,0 L1,1 L0,1 Z " fill="#31313B" opacity="0.101960786" transform="translate(52,46)"/>
<path d="M0,0 L1,0 L1,1 L0,1 Z " fill="#353540" opacity="0.5294118" transform="translate(51,46)"/>
<path d="M0,0 L1,0 L1,1 L0,1 Z " fill="#343440" opacity="0.9372549" transform="translate(50,46)"/>
<path d="M0,0 L1,0 L1,1 L0,1 Z " fill="#936352" opacity="0.7647059" transform="translate(41,46)"/>
<path d="M0,0 L1,0 L1,1 L0,1 Z " fill="#DB8A61" opacity="0.8" transform="translate(40,46)"/>
<path d="M0,0 L1,0 L1,1 L0,1 Z " fill="#EE9265" opacity="0.9843137" transform="translate(39,46)"/>
<path d="M0,0 L1,0 L1,1 L0,1 Z " fill="#ED9265" opacity="0.93333334" transform="translate(24,46)"/>
<path d="M0,0 L1,0 L1,1 L0,1 Z " fill="#9C6854" opacity="0.75686276" transform="translate(22,46)"/>
<path d="M0,0 L1,0 L1,1 L0,1 Z " fill="#4B4044" opacity="0.9098039" transform="translate(21,46)"/>
<path d="M0,0 L1,0 L1,1 L0,1 Z " fill="#343440" opacity="0.9529412" transform="translate(13,46)"/>
<path d="M0,0 L1,0 L1,1 L0,1 Z " fill="#303040" opacity="0.1254902" transform="translate(11,46)"/>
<path d="M0,0 L1,0 L1,1 L0,1 Z " fill="#35353F" opacity="0.39607844" transform="translate(54,45)"/>
<path d="M0,0 L1,0 L1,1 L0,1 Z " fill="#353540" opacity="0.7176471" transform="translate(53,45)"/>
<path d="M0,0 L1,0 L1,1 L0,1 Z " fill="#353540" opacity="0.9843137" transform="translate(52,45)"/>
<path d="M0,0 L1,0 L1,1 L0,1 Z " fill="#363540" opacity="0.99607843" transform="translate(45,45)"/>
<path d="M0,0 L1,0 L1,1 L0,1 Z " fill="#815A4F" opacity="0.78431374" transform="translate(44,45)"/>
<path d="M0,0 L1,0 L1,1 L0,1 Z " fill="#DD8961" opacity="0.8039216" transform="translate(43,45)"/>
<path d="M0,0 L1,0 L1,1 L0,1 Z " fill="#EE9365" opacity="0.9882353" transform="translate(42,45)"/>
<path d="M0,0 L1,0 L1,1 L0,1 Z " fill="#EE9365" opacity="0.9882353" transform="translate(21,45)"/>
<path d="M0,0 L1,0 L1,1 L0,1 Z " fill="#D4855F" opacity="0.7764706" transform="translate(20,45)"/>
<path d="M0,0 L1,0 L1,1 L0,1 Z " fill="#6A4F4B" opacity="0.8235294" transform="translate(19,45)"/>
<path d="M0,0 L1,0 L1,1 L0,1 Z " fill="#353540" transform="translate(18,45)"/>
<path d="M0,0 L1,0 L1,1 L0,1 Z " fill="#343440" opacity="0.99215686" transform="translate(11,45)"/>
<path d="M0,0 L1,0 L1,1 L0,1 Z " fill="#343441" opacity="0.7411765" transform="translate(10,45)"/>
<path d="M0,0 L1,0 L1,1 L0,1 Z " fill="#2F2F42" opacity="0.105882354" transform="translate(8,45)"/>
<path d="M0,0 L1,0 L1,1 L0,1 Z " fill="#353540" opacity="0.4509804" transform="translate(57,44)"/>
<path d="M0,0 L1,0 L1,1 L0,1 Z " fill="#343440" opacity="0.7882353" transform="translate(56,44)"/>
<path d="M0,0 L1,0 L1,1 L0,1 Z " fill="#343440" opacity="0.99607843" transform="translate(55,44)"/>
<path d="M0,0 L1,0 L1,1 L0,1 Z " fill="#3D3841" opacity="0.9647059" transform="translate(47,44)"/>
<path d="M0,0 L1,0 L1,1 L0,1 Z " fill="#9B6854" opacity="0.7607843" transform="translate(46,44)"/>
<path d="M0,0 L1,0 L1,1 L0,1 Z " fill="#EA9065" opacity="0.88235295" transform="translate(45,44)"/>
<path d="M0,0 L1,0 L1,1 L0,1 Z " fill="#936352" opacity="0.7647059" transform="translate(17,44)"/>
<path d="M0,0 L1,0 L1,1 L0,1 Z " fill="#3D3941" opacity="0.96862745" transform="translate(16,44)"/>
<path d="M0,0 L1,0 L1,1 L0,1 Z " fill="#343440" opacity="0.8352941" transform="translate(7,44)"/>
<path d="M0,0 L1,0 L1,1 L0,1 Z " fill="#353540" opacity="0.4509804" transform="translate(5,44)"/>
<path d="M0,0 L1,0 L1,1 L0,1 Z " fill="#323241" opacity="0.25882354" transform="translate(4,44)"/>
<path d="M0,0 L1,0 L1,1 L0,1 Z " fill="#363640" opacity="0.10980392" transform="translate(2,44)"/>
<path d="M0,0 L1,0 L1,1 L0,1 Z " fill="#353541" opacity="0.019607844" transform="translate(0,44)"/>
<path d="M0,0 L1,0 L1,1 L0,1 Z " fill="#333340" opacity="0.5411765" transform="translate(59,43)"/>
<path d="M0,0 L1,0 L1,1 L0,1 Z " fill="#353540" opacity="0.94509804" transform="translate(58,43)"/>
<path d="M0,0 L1,0 L1,1 L0,1 Z " fill="#493E44" opacity="0.91764706" transform="translate(49,43)"/>
<path d="M0,0 L1,0 L1,1 L0,1 Z " fill="#B57559" opacity="0.7529412" transform="translate(48,43)"/>
<path d="M0,0 L1,0 L1,1 L0,1 Z " fill="#ED9265" opacity="0.9372549" transform="translate(47,43)"/>
<path d="M0,0 L1,0 L1,1 L0,1 Z " fill="#B6765A" opacity="0.7529412" transform="translate(15,43)"/>
<path d="M0,0 L1,0 L1,1 L0,1 Z " fill="#4A3F44" opacity="0.9137255" transform="translate(14,43)"/>
<path d="M0,0 L1,0 L1,1 L0,1 Z " fill="#35353C" opacity="0.14901961" transform="translate(61,42)"/>
<path d="M0,0 L1,0 L1,1 L0,1 Z " fill="#343441" opacity="0.8627451" transform="translate(60,42)"/>
<path d="M0,0 L1,0 L1,1 L0,1 Z " fill="#353540" transform="translate(52,42)"/>
<path d="M0,0 L1,0 L1,1 L0,1 Z " fill="#5C4848" opacity="0.85490197" transform="translate(51,42)"/>
<path d="M0,0 L1,0 L1,1 L0,1 Z " fill="#C77F5D" opacity="0.7647059" transform="translate(50,42)"/>
<path d="M0,0 L1,0 L1,1 L0,1 Z " fill="#EE9365" opacity="0.9764706" transform="translate(49,42)"/>
<path d="M0,0 L1,0 L1,1 L0,1 Z " fill="#EE9366" opacity="0.98039216" transform="translate(14,42)"/>
<path d="M0,0 L1,0 L1,1 L0,1 Z " fill="#CA805E" opacity="0.7647059" transform="translate(13,42)"/>
<path d="M0,0 L1,0 L1,1 L0,1 Z " fill="#5D4949" opacity="0.8509804" transform="translate(12,42)"/>
<path d="M0,0 L1,0 L1,1 L0,1 Z " fill="#353540" transform="translate(11,42)"/>
<path d="M0,0 L1,0 L1,1 L0,1 Z " fill="#353540" opacity="0.1882353" transform="translate(62,41)"/>
<path d="M0,0 L1,0 L1,1 L0,1 Z " fill="#343440" opacity="0.92941177" transform="translate(61,41)"/>
<path d="M0,0 L1,0 L1,1 L0,1 Z " fill="#353540" transform="translate(55,41)"/>
<path d="M0,0 L1,0 L1,1 L0,1 Z " fill="#5E4947" opacity="0.8509804" transform="translate(54,41)"/>
<path d="M0,0 L1,0 L1,1 L0,1 Z " fill="#B47559" opacity="0.7529412" transform="translate(53,41)"/>
<path d="M0,0 L1,0 L1,1 L0,1 Z " fill="#E89064" opacity="0.87058824" transform="translate(52,41)"/>
<path d="M0,0 L1,0 L1,1 L0,1 Z " fill="#B57559" opacity="0.7529412" transform="translate(10,41)"/>
<path d="M0,0 L1,0 L1,1 L0,1 Z " fill="#604A48" opacity="0.84705883" transform="translate(9,41)"/>
<path d="M0,0 L1,0 L1,1 L0,1 Z " fill="#353540" transform="translate(8,41)"/>
<path d="M0,0 L1,0 L1,1 L0,1 Z " fill="#343441" opacity="0.76862746" transform="translate(62,40)"/>
<path d="M0,0 L1,0 L1,1 L0,1 Z " fill="#4F4245" opacity="0.89411765" transform="translate(57,40)"/>
<path d="M0,0 L1,0 L1,1 L0,1 Z " fill="#C07B5C" opacity="0.75686276" transform="translate(56,40)"/>
<path d="M0,0 L1,0 L1,1 L0,1 Z " fill="#ED9165" opacity="0.92156863" transform="translate(55,40)"/>
<path d="M0,0 L1,0 L1,1 L0,1 Z " fill="#E18C62" opacity="0.8156863" transform="translate(7,40)"/>
<path d="M0,0 L1,0 L1,1 L0,1 Z " fill="#916252" opacity="0.7647059" transform="translate(5,40)"/>
<path d="M0,0 L1,0 L1,1 L0,1 Z " fill="#564547" opacity="0.87058824" transform="translate(3,40)"/>
<path d="M0,0 L1,0 L1,1 L0,1 Z " fill="#413A43" opacity="0.9411765" transform="translate(1,40)"/>
<path d="M0,0 L1,0 L1,1 L0,1 Z " fill="#393740" opacity="0.9843137" transform="translate(0,40)"/>
<path d="M0,0 L1,0 L1,1 L0,1 Z " fill="#333340" opacity="0.30980393" transform="translate(63,39)"/>
<path d="M0,0 L1,0 L1,1 L0,1 Z " fill="#875E50" opacity="0.7764706" transform="translate(58,39)"/>
<path d="M0,0 L1,0 L1,1 L0,1 Z " fill="#EE9266" opacity="0.972549" transform="translate(57,39)"/>
<path d="M0,0 L1,0 L1,1 L0,1 Z " fill="#644C48" opacity="0.8392157" transform="translate(59,38)"/>
<path d="M0,0 L1,0 L1,1 L0,1 Z " fill="#343441" opacity="0.8" transform="translate(63,37)"/>
<path d="M0,0 L1,0 L1,1 L0,1 Z " fill="#D88761" opacity="0.7921569" transform="translate(59,37)"/>
<path d="M0,0 L1,0 L1,1 L0,1 Z " fill="#EC9063" opacity="0.8392157" transform="translate(38,37)"/>
<path d="M0,0 L1,0 L1,1 L0,1 Z " fill="#DB7F52" opacity="0.7647059" transform="translate(36,37)"/>
<path d="M0,0 L1,0 L1,1 L0,1 Z " fill="#D27649" opacity="0.81960785" transform="translate(35,37)"/>
<path d="M0,0 L1,0 L1,1 L0,1 Z " fill="#CB6E42" opacity="0.90588236" transform="translate(33,37)"/>
<path d="M0,0 L1,0 L1,1 L0,1 Z " fill="#C86A3E" opacity="0.96862745" transform="translate(32,37)"/>
<path d="M0,0 L1,0 L1,1 L0,1 Z " fill="#CD7042" opacity="0.8862745" transform="translate(30,37)"/>
<path d="M0,0 L1,0 L1,1 L0,1 Z " fill="#D57A4C" opacity="0.7882353" transform="translate(28,37)"/>
<path d="M0,0 L1,0 L1,1 L0,1 Z " fill="#E4885B" opacity="0.75686276" transform="translate(26,37)"/>
<path d="M0,0 L1,0 L1,1 L0,1 Z " fill="#ED9163" opacity="0.85490197" transform="translate(25,37)"/>
<path d="M0,0 L1,0 L1,1 L0,1 Z " fill="#343440" opacity="0.9490196" transform="translate(63,36)"/>
<path d="M0,0 L1,0 L1,1 L0,1 Z " fill="#EC9165" opacity="0.92156863" transform="translate(59,36)"/>
<path d="M0,0 L1,0 L1,1 L0,1 Z " fill="#EE9265" opacity="0.93333334" transform="translate(42,36)"/>
<path d="M0,0 L1,0 L1,1 L0,1 Z " fill="#D4774B" opacity="0.8" transform="translate(40,36)"/>
<path d="M0,0 L1,0 L1,1 L0,1 Z " fill="#C66B3E" opacity="0.9843137" transform="translate(39,36)"/>
<path d="M0,0 L1,0 L1,1 L0,1 Z " fill="#CA6D40" opacity="0.93333334" transform="translate(24,36)"/>
<path d="M0,0 L1,0 L1,1 L0,1 Z " fill="#E5885B" opacity="0.75686276" transform="translate(22,36)"/>
<path d="M0,0 L1,0 L1,1 L0,1 Z " fill="#EE9265" opacity="0.9098039" transform="translate(21,36)"/>
<path d="M0,0 L1,0 L1,1 L0,1 Z " fill="#EE9365" opacity="0.99607843" transform="translate(45,35)"/>
<path d="M0,0 L1,0 L1,1 L0,1 Z " fill="#D5764A" opacity="0.8039216" transform="translate(43,35)"/>
<path d="M0,0 L1,0 L1,1 L0,1 Z " fill="#C7693D" opacity="0.9882353" transform="translate(42,35)"/>
<path d="M0,0 L1,0 L1,1 L0,1 Z " fill="#C7693D" opacity="0.9882353" transform="translate(21,35)"/>
<path d="M0,0 L1,0 L1,1 L0,1 Z " fill="#D77C50" opacity="0.7764706" transform="translate(20,35)"/>
<path d="M0,0 L1,0 L1,1 L0,1 Z " fill="#EC8F62" opacity="0.8235294" transform="translate(19,35)"/>
<path d="M0,0 L1,0 L1,1 L0,1 Z " fill="#E5895B" opacity="0.7607843" transform="translate(46,34)"/>
<path d="M0,0 L1,0 L1,1 L0,1 Z " fill="#CC7043" opacity="0.88235295" transform="translate(45,34)"/>
<path d="M0,0 L1,0 L1,1 L0,1 Z " fill="#CF7245" opacity="0.8509804" transform="translate(18,34)"/>
<path d="M0,0 L1,0 L1,1 L0,1 Z " fill="#E58B5D" opacity="0.7647059" transform="translate(17,34)"/>
<path d="M0,0 L1,0 L1,1 L0,1 Z " fill="#EE9365" opacity="0.96862745" transform="translate(16,34)"/>
<path d="M0,0 L1,0 L1,1 L0,1 Z " fill="#E08456" opacity="0.7529412" transform="translate(48,33)"/>
<path d="M0,0 L1,0 L1,1 L0,1 Z " fill="#C96C3F" opacity="0.9372549" transform="translate(47,33)"/>
<path d="M0,0 L1,0 L1,1 L0,1 Z " fill="#C6693D" opacity="0.9764706" transform="translate(39,33)"/>
<path d="M0,0 L1,0 L1,1 L0,1 Z " fill="#C76A3E" opacity="0.8392157" transform="translate(38,33)"/>
<path d="M0,0 L1,0 L1,1 L0,1 Z " fill="#D27345" opacity="0.7647059" transform="translate(36,33)"/>
<path d="M0,0 L1,0 L1,1 L0,1 Z " fill="#D77849" opacity="0.81960785" transform="translate(35,33)"/>
<path d="M0,0 L1,0 L1,1 L0,1 Z " fill="#DC7C4B" opacity="0.90588236" transform="translate(33,33)"/>
<path d="M0,0 L1,0 L1,1 L0,1 Z " fill="#DD7D4D" opacity="0.96862745" transform="translate(32,33)"/>
<path d="M0,0 L1,0 L1,1 L0,1 Z " fill="#DB7A4A" opacity="0.8862745" transform="translate(30,33)"/>
<path d="M0,0 L1,0 L1,1 L0,1 Z " fill="#D57648" opacity="0.7882353" transform="translate(28,33)"/>
<path d="M0,0 L1,0 L1,1 L0,1 Z " fill="#CC6E40" opacity="0.75686276" transform="translate(26,33)"/>
<path d="M0,0 L1,0 L1,1 L0,1 Z " fill="#C76A3E" opacity="0.85490197" transform="translate(25,33)"/>
<path d="M0,0 L1,0 L1,1 L0,1 Z " fill="#C86C40" opacity="0.9411765" transform="translate(16,33)"/>
<path d="M0,0 L1,0 L1,1 L0,1 Z " fill="#E08456" opacity="0.7529412" transform="translate(15,33)"/>
<path d="M0,0 L1,0 L1,1 L0,1 Z " fill="#ED9365" opacity="0.9137255" transform="translate(14,33)"/>
<path d="M0,0 L1,0 L1,1 L0,1 Z " fill="#D97E52" opacity="0.7647059" transform="translate(50,32)"/>
<path d="M0,0 L1,0 L1,1 L0,1 Z " fill="#C76A3E" opacity="0.9764706" transform="translate(49,32)"/>
<path d="M0,0 L1,0 L1,1 L0,1 Z " fill="#C6693D" opacity="0.93333334" transform="translate(42,32)"/>
<path d="M0,0 L1,0 L1,1 L0,1 Z " fill="#D67747" opacity="0.8" transform="translate(40,32)"/>
<path d="M0,0 L1,0 L1,1 L0,1 Z " fill="#DD7D4D" opacity="0.9843137" transform="translate(39,32)"/>
<path d="M0,0 L1,0 L1,1 L0,1 Z " fill="#DC7B4D" opacity="0.93333334" transform="translate(24,32)"/>
<path d="M0,0 L1,0 L1,1 L0,1 Z " fill="#CC6E40" opacity="0.75686276" transform="translate(22,32)"/>
<path d="M0,0 L1,0 L1,1 L0,1 Z " fill="#C6693C" opacity="0.9098039" transform="translate(21,32)"/>
<path d="M0,0 L1,0 L1,1 L0,1 Z " fill="#DB7E51" opacity="0.7647059" transform="translate(13,32)"/>
<path d="M0,0 L1,0 L1,1 L0,1 Z " fill="#ED9164" opacity="0.8509804" transform="translate(12,32)"/>
<path d="M0,0 L1,0 L1,1 L0,1 Z " fill="#E08456" opacity="0.7529412" transform="translate(53,31)"/>
<path d="M0,0 L1,0 L1,1 L0,1 Z " fill="#CE7144" opacity="0.87058824" transform="translate(52,31)"/>
<path d="M0,0 L1,0 L1,1 L0,1 Z " fill="#C6693D" opacity="0.99607843" transform="translate(45,31)"/>
<path d="M0,0 L1,0 L1,1 L0,1 Z " fill="#D67649" opacity="0.8039216" transform="translate(43,31)"/>
<path d="M0,0 L1,0 L1,1 L0,1 Z " fill="#DD7C4E" opacity="0.9882353" transform="translate(42,31)"/>
<path d="M0,0 L1,0 L1,1 L0,1 Z " fill="#DD7C4E" opacity="0.9882353" transform="translate(21,31)"/>
<path d="M0,0 L1,0 L1,1 L0,1 Z " fill="#C76B3E" opacity="0.8235294" transform="translate(19,31)"/>
<path d="M0,0 L1,0 L1,1 L0,1 Z " fill="#E08456" opacity="0.7529412" transform="translate(10,31)"/>
<path d="M0,0 L1,0 L1,1 L0,1 Z " fill="#ED9163" opacity="0.84705883" transform="translate(9,31)"/>
<path d="M0,0 L1,0 L1,1 L0,1 Z " fill="#E5895C" opacity="0.7607843" transform="translate(58,30)"/>
<path d="M0,0 L1,0 L1,1 L0,1 Z " fill="#D17647" opacity="0.8235294" transform="translate(56,30)"/>
<path d="M0,0 L1,0 L1,1 L0,1 Z " fill="#C86C3F" opacity="0.9490196" transform="translate(55,30)"/>
<path d="M0,0 L1,0 L1,1 L0,1 Z " fill="#CC6E40" opacity="0.7607843" transform="translate(46,30)"/>
<path d="M0,0 L1,0 L1,1 L0,1 Z " fill="#DB7A4B" opacity="0.88235295" transform="translate(45,30)"/>
<path d="M0,0 L1,0 L1,1 L0,1 Z " fill="#CA6E41" opacity="0.7647059" transform="translate(17,30)"/>
<path d="M0,0 L1,0 L1,1 L0,1 Z " fill="#C5693E" opacity="0.96862745" transform="translate(16,30)"/>
<path d="M0,0 L1,0 L1,1 L0,1 Z " fill="#C96C3F" opacity="0.94509804" transform="translate(8,30)"/>
<path d="M0,0 L1,0 L1,1 L0,1 Z " fill="#D37648" opacity="0.8156863" transform="translate(7,30)"/>
<path d="M0,0 L1,0 L1,1 L0,1 Z " fill="#E78B5D" opacity="0.7647059" transform="translate(5,30)"/>
<path d="M0,0 L1,0 L1,1 L0,1 Z " fill="#EC9164" opacity="0.87058824" transform="translate(3,30)"/>
<path d="M0,0 L1,0 L1,1 L0,1 Z " fill="#ED9265" opacity="0.9411765" transform="translate(1,30)"/>
<path d="M0,0 L1,0 L1,1 L0,1 Z " fill="#EE9265" opacity="0.9843137" transform="translate(0,30)"/>
<path d="M0,0 L1,0 L1,1 L0,1 Z " fill="#CE7044" opacity="0.7529412" transform="translate(48,29)"/>
<path d="M0,0 L1,0 L1,1 L0,1 Z " fill="#DC7C4C" opacity="0.9372549" transform="translate(47,29)"/>
<path d="M0,0 L1,0 L1,1 L0,1 Z " fill="#DE8051" opacity="0.8392157" transform="translate(38,29)"/>
<path d="M0,0 L1,0 L1,1 L0,1 Z " fill="#E39669" opacity="0.7647059" transform="translate(36,29)"/>
<path d="M0,0 L1,0 L1,1 L0,1 Z " fill="#E5A276" opacity="0.81960785" transform="translate(35,29)"/>
<path d="M0,0 L1,0 L1,1 L0,1 Z " fill="#E7AB80" opacity="0.90588236" transform="translate(33,29)"/>
<path d="M0,0 L1,0 L1,1 L0,1 Z " fill="#E7AE84" opacity="0.96862745" transform="translate(32,29)"/>
<path d="M0,0 L1,0 L1,1 L0,1 Z " fill="#E7A97D" opacity="0.8862745" transform="translate(30,29)"/>
<path d="M0,0 L1,0 L1,1 L0,1 Z " fill="#E39C71" opacity="0.7882353" transform="translate(28,29)"/>
<path d="M0,0 L1,0 L1,1 L0,1 Z " fill="#E18B5C" opacity="0.75686276" transform="translate(26,29)"/>
<path d="M0,0 L1,0 L1,1 L0,1 Z " fill="#DD7E51" opacity="0.85490197" transform="translate(25,29)"/>
<path d="M0,0 L1,0 L1,1 L0,1 Z " fill="#D07042" opacity="0.7529412" transform="translate(15,29)"/>
<path d="M0,0 L1,0 L1,1 L0,1 Z " fill="#C66A3D" opacity="0.9137255" transform="translate(14,29)"/>
<path d="M0,0 L1,0 L1,1 L0,1 Z " fill="#D27245" opacity="0.7647059" transform="translate(50,28)"/>
<path d="M0,0 L1,0 L1,1 L0,1 Z " fill="#DD7D4E" opacity="0.9764706" transform="translate(49,28)"/>
<path d="M0,0 L1,0 L1,1 L0,1 Z " fill="#DE7E4E" opacity="0.93333334" transform="translate(42,28)"/>
<path d="M0,0 L1,0 L1,1 L0,1 Z " fill="#E49E72" opacity="0.8" transform="translate(40,28)"/>
<path d="M0,0 L1,0 L1,1 L0,1 Z " fill="#E7AF84" opacity="0.9843137" transform="translate(39,28)"/>
<path d="M0,0 L1,0 L1,1 L0,1 Z " fill="#E7AD82" opacity="0.93333334" transform="translate(24,28)"/>
<path d="M0,0 L1,0 L1,1 L0,1 Z " fill="#E1895B" opacity="0.75686276" transform="translate(22,28)"/>
<path d="M0,0 L1,0 L1,1 L0,1 Z " fill="#DE7D4F" opacity="0.9098039" transform="translate(21,28)"/>
<path d="M0,0 L1,0 L1,1 L0,1 Z " fill="#D27345" opacity="0.7647059" transform="translate(13,28)"/>
<path d="M0,0 L1,0 L1,1 L0,1 Z " fill="#C76A3D" opacity="0.8509804" transform="translate(12,28)"/>
<path d="M0,0 L1,0 L1,1 L0,1 Z " fill="#CE7044" opacity="0.7529412" transform="translate(53,27)"/>
<path d="M0,0 L1,0 L1,1 L0,1 Z " fill="#D97A4A" opacity="0.87058824" transform="translate(52,27)"/>
<path d="M0,0 L1,0 L1,1 L0,1 Z " fill="#DE7D4E" opacity="0.99607843" transform="translate(45,27)"/>
<path d="M0,0 L1,0 L1,1 L0,1 Z " fill="#E49E72" opacity="0.8039216" transform="translate(43,27)"/>
<path d="M0,0 L1,0 L1,1 L0,1 Z " fill="#E7AE85" opacity="0.9882353" transform="translate(42,27)"/>
<path d="M0,0 L1,0 L1,1 L0,1 Z " fill="#E49B6D" opacity="0.7764706" transform="translate(20,27)"/>
<path d="M0,0 L1,0 L1,1 L0,1 Z " fill="#DD8051" opacity="0.8235294" transform="translate(19,27)"/>
<path d="M0,0 L1,0 L1,1 L0,1 Z " fill="#CE7044" opacity="0.7529412" transform="translate(10,27)"/>
<path d="M0,0 L1,0 L1,1 L0,1 Z " fill="#C76A3D" opacity="0.84705883" transform="translate(9,27)"/>
<path d="M0,0 L1,0 L1,1 L0,1 Z " fill="#CB6D41" opacity="0.7607843" transform="translate(58,26)"/>
<path d="M0,0 L1,0 L1,1 L0,1 Z " fill="#D77747" opacity="0.8235294" transform="translate(56,26)"/>
<path d="M0,0 L1,0 L1,1 L0,1 Z " fill="#DD7C4C" opacity="0.9490196" transform="translate(55,26)"/>
<path d="M0,0 L1,0 L1,1 L0,1 Z " fill="#E0895B" opacity="0.7607843" transform="translate(46,26)"/>
<path d="M0,0 L1,0 L1,1 L0,1 Z " fill="#E6A97E" opacity="0.88235295" transform="translate(45,26)"/>
<path d="M0,0 L1,0 L1,1 L0,1 Z " fill="#E6A67A" opacity="0.8509804" transform="translate(18,26)"/>
<path d="M0,0 L1,0 L1,1 L0,1 Z " fill="#E08759" opacity="0.7647059" transform="translate(17,26)"/>
<path d="M0,0 L1,0 L1,1 L0,1 Z " fill="#DE7E4E" opacity="0.96862745" transform="translate(16,26)"/>
<path d="M0,0 L1,0 L1,1 L0,1 Z " fill="#DC7D4D" opacity="0.94509804" transform="translate(8,26)"/>
<path d="M0,0 L1,0 L1,1 L0,1 Z " fill="#D77748" opacity="0.8156863" transform="translate(7,26)"/>
<path d="M0,0 L1,0 L1,1 L0,1 Z " fill="#CA6C40" opacity="0.7647059" transform="translate(5,26)"/>
<path d="M0,0 L1,0 L1,1 L0,1 Z " fill="#C66A3D" opacity="0.87058824" transform="translate(3,26)"/>
<path d="M0,0 L1,0 L1,1 L0,1 Z " fill="#C5693D" opacity="0.9411765" transform="translate(1,26)"/>
<path d="M0,0 L1,0 L1,1 L0,1 Z " fill="#C56A3E" opacity="0.9843137" transform="translate(0,26)"/>
<path d="M0,0 L1,0 L1,1 L0,1 Z " fill="#E19062" opacity="0.7529412" transform="translate(48,25)"/>
<path d="M0,0 L1,0 L1,1 L0,1 Z " fill="#E7AC82" opacity="0.9372549" transform="translate(47,25)"/>
<path d="M0,0 L1,0 L1,1 L0,1 Z " fill="#E7B086" opacity="0.9764706" transform="translate(39,25)"/>
<path d="M0,0 L1,0 L1,1 L0,1 Z " fill="#E8B288" opacity="0.8392157" transform="translate(38,25)"/>
<path d="M0,0 L1,0 L1,1 L0,1 Z " fill="#EEBB95" opacity="0.7647059" transform="translate(36,25)"/>
<path d="M0,0 L1,0 L1,1 L0,1 Z " fill="#F0C19C" opacity="0.81960785" transform="translate(35,25)"/>
<path d="M0,0 L1,0 L1,1 L0,1 Z " fill="#F3C5A1" opacity="0.90588236" transform="translate(33,25)"/>
<path d="M0,0 L1,0 L1,1 L0,1 Z " fill="#F3C5A3" opacity="0.96862745" transform="translate(32,25)"/>
<path d="M0,0 L1,0 L1,1 L0,1 Z " fill="#F1C5A0" opacity="0.8862745" transform="translate(30,25)"/>
<path d="M0,0 L1,0 L1,1 L0,1 Z " fill="#EFBF98" opacity="0.7882353" transform="translate(28,25)"/>
<path d="M0,0 L1,0 L1,1 L0,1 Z " fill="#EAB78D" opacity="0.75686276" transform="translate(26,25)"/>
<path d="M0,0 L1,0 L1,1 L0,1 Z " fill="#E7B188" opacity="0.85490197" transform="translate(25,25)"/>
<path d="M0,0 L1,0 L1,1 L0,1 Z " fill="#E6AC82" opacity="0.9411765" transform="translate(16,25)"/>
<path d="M0,0 L1,0 L1,1 L0,1 Z " fill="#E19162" opacity="0.7529412" transform="translate(15,25)"/>
<path d="M0,0 L1,0 L1,1 L0,1 Z " fill="#DF7E4F" opacity="0.9137255" transform="translate(14,25)"/>
<path d="M0,0 L1,0 L1,1 L0,1 Z " fill="#E19569" opacity="0.7647059" transform="translate(50,24)"/>
<path d="M0,0 L1,0 L1,1 L0,1 Z " fill="#E6AE83" opacity="0.9764706" transform="translate(49,24)"/>
<path d="M0,0 L1,0 L1,1 L0,1 Z " fill="#E7B186" opacity="0.93333334" transform="translate(42,24)"/>
<path d="M0,0 L1,0 L1,1 L0,1 Z " fill="#EEBE9A" opacity="0.8" transform="translate(40,24)"/>
<path d="M0,0 L1,0 L1,1 L0,1 Z " fill="#F3C5A4" opacity="0.9843137" transform="translate(39,24)"/>
<path d="M0,0 L1,0 L1,1 L0,1 Z " fill="#F2C5A3" opacity="0.93333334" transform="translate(24,24)"/>
<path d="M0,0 L1,0 L1,1 L0,1 Z " fill="#EAB78D" opacity="0.75686276" transform="translate(22,24)"/>
<path d="M0,0 L1,0 L1,1 L0,1 Z " fill="#E7B186" opacity="0.9098039" transform="translate(21,24)"/>
<path d="M0,0 L1,0 L1,1 L0,1 Z " fill="#E3966A" opacity="0.7647059" transform="translate(13,24)"/>
<path d="M0,0 L1,0 L1,1 L0,1 Z " fill="#E08050" opacity="0.8509804" transform="translate(12,24)"/>
<path d="M0,0 L1,0 L1,1 L0,1 Z " fill="#E18E62" opacity="0.7529412" transform="translate(53,23)"/>
<path d="M0,0 L1,0 L1,1 L0,1 Z " fill="#E5A77B" opacity="0.87058824" transform="translate(52,23)"/>
<path d="M0,0 L1,0 L1,1 L0,1 Z " fill="#E7B187" opacity="0.99607843" transform="translate(45,23)"/>
<path d="M0,0 L1,0 L1,1 L0,1 Z " fill="#F1C19A" opacity="0.8039216" transform="translate(43,23)"/>
<path d="M0,0 L1,0 L1,1 L0,1 Z " fill="#F3C7A4" opacity="0.9882353" transform="translate(42,23)"/>
<path d="M0,0 L1,0 L1,1 L0,1 Z " fill="#F3C7A4" opacity="0.9882353" transform="translate(21,23)"/>
<path d="M0,0 L1,0 L1,1 L0,1 Z " fill="#EFBE97" opacity="0.7764706" transform="translate(20,23)"/>
<path d="M0,0 L1,0 L1,1 L0,1 Z " fill="#E7B388" opacity="0.8235294" transform="translate(19,23)"/>
<path d="M0,0 L1,0 L1,1 L0,1 Z " fill="#E19062" opacity="0.7529412" transform="translate(10,23)"/>
<path d="M0,0 L1,0 L1,1 L0,1 Z " fill="#DE8050" opacity="0.84705883" transform="translate(9,23)"/>
<path d="M0,0 L1,0 L1,1 L0,1 Z " fill="#E0895B" opacity="0.7607843" transform="translate(58,22)"/>
<path d="M0,0 L1,0 L1,1 L0,1 Z " fill="#E3A375" opacity="0.8235294" transform="translate(56,22)"/>
<path d="M0,0 L1,0 L1,1 L0,1 Z " fill="#E7AE83" opacity="0.9490196" transform="translate(55,22)"/>
<path d="M0,0 L1,0 L1,1 L0,1 Z " fill="#EAB68E" opacity="0.7607843" transform="translate(46,22)"/>
<path d="M0,0 L1,0 L1,1 L0,1 Z " fill="#F2C3A0" opacity="0.88235295" transform="translate(45,22)"/>
<path d="M0,0 L1,0 L1,1 L0,1 Z " fill="#E9B58C" opacity="0.7647059" transform="translate(17,22)"/>
<path d="M0,0 L1,0 L1,1 L0,1 Z " fill="#E7B186" opacity="0.96862745" transform="translate(16,22)"/>
<path d="M0,0 L1,0 L1,1 L0,1 Z " fill="#E7AE83" opacity="0.94509804" transform="translate(8,22)"/>
<path d="M0,0 L1,0 L1,1 L0,1 Z " fill="#E4A274" opacity="0.8156863" transform="translate(7,22)"/>
<path d="M0,0 L1,0 L1,1 L0,1 Z " fill="#E08859" opacity="0.7647059" transform="translate(5,22)"/>
<path d="M0,0 L1,0 L1,1 L0,1 Z " fill="#DE7E4F" opacity="0.87058824" transform="translate(3,22)"/>
<path d="M0,0 L1,0 L1,1 L0,1 Z " fill="#DE7D4E" opacity="0.9411765" transform="translate(1,22)"/>
<path d="M0,0 L1,0 L1,1 L0,1 Z " fill="#DE7E4E" opacity="0.9843137" transform="translate(0,22)"/>
<path d="M0,0 L1,0 L1,1 L0,1 Z " fill="#EAB991" opacity="0.7529412" transform="translate(48,21)"/>
<path d="M0,0 L1,0 L1,1 L0,1 Z " fill="#F3C5A2" opacity="0.9372549" transform="translate(47,21)"/>
<path d="M0,0 L1,0 L1,1 L0,1 Z " fill="#F3C5A3" opacity="0.9411765" transform="translate(16,21)"/>
<path d="M0,0 L1,0 L1,1 L0,1 Z " fill="#ECB991" opacity="0.7529412" transform="translate(15,21)"/>
<path d="M0,0 L1,0 L1,1 L0,1 Z " fill="#E7B087" opacity="0.9137255" transform="translate(14,21)"/>
<path d="M0,0 L1,0 L1,1 L0,1 Z " fill="#EDBB95" opacity="0.7647059" transform="translate(50,20)"/>
<path d="M0,0 L1,0 L1,1 L0,1 Z " fill="#F3C6A3" opacity="0.9764706" transform="translate(49,20)"/>
<path d="M0,0 L1,0 L1,1 L0,1 Z " fill="#EDBB95" opacity="0.7647059" transform="translate(13,20)"/>
<path d="M0,0 L1,0 L1,1 L0,1 Z " fill="#E8B287" opacity="0.8509804" transform="translate(12,20)"/>
<path d="M0,0 L1,0 L1,1 L0,1 Z " fill="#EAB990" opacity="0.7529412" transform="translate(53,19)"/>
<path d="M0,0 L1,0 L1,1 L0,1 Z " fill="#F1C49F" opacity="0.87058824" transform="translate(52,19)"/>
<path d="M0,0 L1,0 L1,1 L0,1 Z " fill="#F1C29E" opacity="0.8509804" transform="translate(40,19)"/>
<path d="M0,0 L1,0 L1,1 L0,1 Z " fill="#EAB991" opacity="0.7529412" transform="translate(10,19)"/>
<path d="M0,0 L1,0 L1,1 L0,1 Z " fill="#E8B188" opacity="0.84705883" transform="translate(9,19)"/>
<path d="M0,0 L1,0 L1,1 L0,1 Z " fill="#EAB48D" opacity="0.7607843" transform="translate(58,18)"/>
<path d="M0,0 L1,0 L1,1 L0,1 Z " fill="#F0C19C" opacity="0.8235294" transform="translate(56,18)"/>
<path d="M0,0 L1,0 L1,1 L0,1 Z " fill="#F3C5A2" opacity="0.9490196" transform="translate(55,18)"/>
<path d="M0,0 L1,0 L1,1 L0,1 Z " fill="#F0C29C" opacity="0.83137256" transform="translate(42,18)"/>
<path d="M0,0 L1,0 L1,1 L0,1 Z " fill="#E7B186" opacity="0.93333334" transform="translate(41,18)"/>
<path d="M0,0 L1,0 L1,1 L0,1 Z " fill="#EAB38B" opacity="0.7764706" transform="translate(39,18)"/>
<path d="M0,0 L1,0 L1,1 L0,1 Z " fill="#F3C6A3" opacity="0.99215686" transform="translate(38,18)"/>
<path d="M0,0 L1,0 L1,1 L0,1 Z " fill="#F3C6A2" opacity="0.94509804" transform="translate(8,18)"/>
<path d="M0,0 L1,0 L1,1 L0,1 Z " fill="#F0C19C" opacity="0.8156863" transform="translate(7,18)"/>
<path d="M0,0 L1,0 L1,1 L0,1 Z " fill="#E9B58C" opacity="0.7647059" transform="translate(5,18)"/>
<path d="M0,0 L1,0 L1,1 L0,1 Z " fill="#E6B188" opacity="0.87058824" transform="translate(3,18)"/>
<path d="M0,0 L1,0 L1,1 L0,1 Z " fill="#E7B086" opacity="0.9411765" transform="translate(1,18)"/>
<path d="M0,0 L1,0 L1,1 L0,1 Z " fill="#E7B186" opacity="0.9843137" transform="translate(0,18)"/>
<path d="M0,0 L1,0 L1,1 L0,1 Z " fill="#E7B086" opacity="0.94509804" transform="translate(42,17)"/>
<path d="M0,0 L1,0 L1,1 L0,1 Z " fill="#F1C29E" opacity="0.8509804" transform="translate(43,16)"/>
<path d="M0,0 L1,0 L1,1 L0,1 Z " fill="#E9B48A" opacity="0.7882353" transform="translate(38,16)"/>
<path d="M0,0 L1,0 L1,1 L0,1 Z " fill="#F3C6A3" opacity="0.99215686" transform="translate(33,16)"/>
<path d="M0,0 L1,0 L1,1 L0,1 Z " fill="#EAB68D" opacity="0.7607843" transform="translate(32,16)"/>
<path d="M0,0 L1,0 L1,1 L0,1 Z " fill="#E9B58C" opacity="0.7647059" transform="translate(30,16)"/>
<path d="M0,0 L1,0 L1,1 L0,1 Z " fill="#F3C6A3" opacity="0.99215686" transform="translate(29,16)"/>
<path d="M0,0 L1,0 L1,1 L0,1 Z " fill="#F3C6A4" opacity="0.94509804" transform="translate(59,15)"/>
<path d="M0,0 L1,0 L1,1 L0,1 Z " fill="#EAB48A" opacity="0.78039217" transform="translate(42,15)"/>
<path d="M0,0 L1,0 L1,1 L0,1 Z " fill="#E7B187" opacity="0.95686275" transform="translate(39,15)"/>
<path d="M0,0 L1,0 L1,1 L0,1 Z " fill="#F0C29E" opacity="0.84313726" transform="translate(38,15)"/>
<path d="M0,0 L1,0 L1,1 L0,1 Z " fill="#E9B58D" opacity="0.7647059" transform="translate(33,15)"/>
<path d="M0,0 L1,0 L1,1 L0,1 Z " fill="#EAB68D" opacity="0.7607843" transform="translate(29,15)"/>
<path d="M0,0 L1,0 L1,1 L0,1 Z " fill="#F3C5A4" opacity="0.9843137" transform="translate(42,14)"/>
<path d="M0,0 L1,0 L1,1 L0,1 Z " fill="#EAB890" opacity="0.7529412" transform="translate(41,14)"/>
<path d="M0,0 L1,0 L1,1 L0,1 Z " fill="#F0C19D" opacity="0.8352941" transform="translate(39,14)"/>
<path d="M0,0 L1,0 L1,1 L0,1 Z " fill="#F5CBAB" opacity="0.76862746" transform="translate(59,13)"/>
<path d="M0,0 L1,0 L1,1 L0,1 Z " fill="#E9B58C" opacity="0.7647059" transform="translate(33,13)"/>
<path d="M0,0 L1,0 L1,1 L0,1 Z " fill="#E9B58C" opacity="0.7647059" transform="translate(29,13)"/>
<path d="M0,0 L1,0 L1,1 L0,1 Z " fill="#FCD6B7" opacity="0.7921569" transform="translate(59,12)"/>
<path d="M0,0 L1,0 L1,1 L0,1 Z " fill="#F3C5A4" opacity="0.9843137" transform="translate(33,12)"/>
<path d="M0,0 L1,0 L1,1 L0,1 Z " fill="#E9B58B" opacity="0.76862746" transform="translate(32,12)"/>
<path d="M0,0 L1,0 L1,1 L0,1 Z " fill="#E9B58B" opacity="0.76862746" transform="translate(30,12)"/>
<path d="M0,0 L1,0 L1,1 L0,1 Z " fill="#F3C7A4" opacity="0.9882353" transform="translate(29,12)"/>
<path d="M0,0 L1,0 L1,1 L0,1 Z " fill="#FEDEC1" opacity="0.92941177" transform="translate(59,11)"/>
<path d="M0,0 L1,0 L1,1 L0,1 Z " fill="#F4C9A5" opacity="0.84313726" transform="translate(58,11)"/>
<path d="M0,0 L1,0 L1,1 L0,1 Z " fill="#353541" opacity="0.83137256" transform="translate(63,10)"/>
<path d="M0,0 L1,0 L1,1 L0,1 Z " fill="#FDDBBA" opacity="0.85490197" transform="translate(58,10)"/>
<path d="M0,0 L1,0 L1,1 L0,1 Z " fill="#F3C7A5" opacity="0.9607843" transform="translate(57,10)"/>
<path d="M0,0 L1,0 L1,1 L0,1 Z " fill="#FDDABD" opacity="0.8627451" transform="translate(57,9)"/>
<path d="M0,0 L1,0 L1,1 L0,1 Z " fill="#F3C8A6" opacity="0.8745098" transform="translate(56,9)"/>
<path d="M0,0 L1,0 L1,1 L0,1 Z " fill="#353540" opacity="0.50980395" transform="translate(63,8)"/>
<path d="M0,0 L1,0 L1,1 L0,1 Z " fill="#817572" opacity="0.7921569" transform="translate(59,8)"/>
<path d="M0,0 L1,0 L1,1 L0,1 Z " fill="#FFDFC1" opacity="0.9882353" transform="translate(56,8)"/>
<path d="M0,0 L1,0 L1,1 L0,1 Z " fill="#FAD7B6" opacity="0.7882353" transform="translate(55,8)"/>
<path d="M0,0 L1,0 L1,1 L0,1 Z " fill="#F4C7A5" opacity="0.85882354" transform="translate(53,8)"/>
<path d="M0,0 L1,0 L1,1 L0,1 Z " fill="#F3C7A4" opacity="0.94509804" transform="translate(52,8)"/>
<path d="M0,0 L1,0 L1,1 L0,1 Z " fill="#373742" opacity="0.99215686" transform="translate(59,7)"/>
<path d="M0,0 L1,0 L1,1 L0,1 Z " fill="#F5D7BC" opacity="0.84313726" transform="translate(58,7)"/>
<path d="M0,0 L1,0 L1,1 L0,1 Z " fill="#343440" opacity="0.003921569" transform="translate(63,6)"/>
<path d="M0,0 L1,0 L1,1 L0,1 Z " fill="#605A5C" opacity="0.85490197" transform="translate(58,6)"/>
<path d="M0,0 L1,0 L1,1 L0,1 Z " fill="#FFE0C2" opacity="0.9607843" transform="translate(57,6)"/>
<path d="M0,0 L1,0 L1,1 L0,1 Z " fill="#333340" opacity="0.29411766" transform="translate(62,5)"/>
<path d="M0,0 L1,0 L1,1 L0,1 Z " fill="#5D575A" opacity="0.8627451" transform="translate(57,5)"/>
<path d="M0,0 L1,0 L1,1 L0,1 Z " fill="#FBDCBE" opacity="0.8745098" transform="translate(56,5)"/>
<path d="M0,0 L1,0 L1,1 L0,1 Z " fill="#343440" opacity="0.6901961" transform="translate(61,4)"/>
<path d="M0,0 L1,0 L1,1 L0,1 Z " fill="#837773" opacity="0.7882353" transform="translate(55,4)"/>
<path d="M0,0 L1,0 L1,1 L0,1 Z " fill="#E2C7AE" opacity="0.78039217" transform="translate(54,4)"/>
<path d="M0,0 L1,0 L1,1 L0,1 Z " fill="#F7D9BC" opacity="0.85882354" transform="translate(53,4)"/>
<path d="M0,0 L1,0 L1,1 L0,1 Z " fill="#FFE0C2" opacity="0.94509804" transform="translate(52,4)"/>
<path d="M0,0 L1,0 L1,1 L0,1 Z " fill="#33333B" opacity="0.11764706" transform="translate(61,3)"/>
<path d="M0,0 L1,0 L1,1 L0,1 Z " fill="#333341" opacity="0.13725491" transform="translate(60,2)"/>
<path d="M0,0 L1,0 L1,1 L0,1 Z " fill="#343440" opacity="0.8235294" transform="translate(59,2)"/>
<path d="M0,0 L1,0 L1,1 L0,1 Z " fill="#34343F" opacity="0.44313726" transform="translate(58,1)"/>
<path d="M0,0 L1,0 L1,1 L0,1 Z " fill="#343441" opacity="0.84705883" transform="translate(57,1)"/>
<path d="M0,0 L1,0 L1,1 L0,1 Z " fill="#343440" opacity="0.2509804" transform="translate(56,0)"/>
<path d="M0,0 L1,0 L1,1 L0,1 Z " fill="#333340" opacity="0.56078434" transform="translate(55,0)"/>
<path d="M0,0 L1,0 L1,1 L0,1 Z " fill="#343440" opacity="0.8235294" transform="translate(53,0)"/>
<path d="M0,0 L1,0 L1,1 L0,1 Z " fill="#343440" opacity="0.9529412" transform="translate(52,0)"/>
</svg>
