<?xml version="1.0" encoding="UTF-8"?>
<!-- Generator: visioncortex VTracer 0.6.4 -->
<svg version="1.1" xmlns="http://www.w3.org/2000/svg" width="64" height="64">
<path d="M0,0 L1,0 L1,1 L2,1 L2,2 L3,2 L3,3 L4,3 L4,4 L5,4 L5,5 L6,5 L6,6 L7,6 L7,7 L8,7 L8,8 L9,8 L9,9 L10,9 L10,10 L11,10 L11,11 L12,11 L12,12 L13,12 L13,13 L14,13 L14,14 L15,14 L15,15 L16,15 L16,16 L17,16 L17,17 L18,17 L18,18 L19,18 L19,19 L20,19 L20,20 L21,20 L21,21 L22,21 L22,22 L23,22 L23,23 L24,23 L24,24 L25,24 L25,25 L26,25 L26,26 L27,26 L27,27 L28,27 L28,28 L29,28 L29,29 L30,29 L30,30 L31,30 L31,31 L32,31 L32,32 L33,32 L33,33 L34,33 L34,34 L35,34 L35,35 L36,35 L36,36 L37,36 L37,37 L38,37 L38,38 L39,38 L39,39 L40,39 L40,40 L41,40 L41,41 L42,41 L42,42 L43,42 L43,43 L44,43 L44,44 L45,44 L45,45 L46,45 L46,46 L47,46 L47,47 L48,47 L48,48 L49,48 L49,49 L50,49 L50,50 L51,50 L51,51 L52,51 L52,52 L53,52 L53,53 L54,53 L54,54 L55,54 L55,55 L56,55 L56,56 L57,56 L57,57 L58,57 L58,58 L59,58 L59,59 L60,59 L60,60 L61,60 L61,61 L62,61 L62,62 L63,62 L63,63 L60,63 L60,62 L59,62 L59,61 L58,61 L58,60 L57,60 L57,59 L56,59 L56,58 L55,58 L55,57 L54,57 L54,56 L53,56 L53,55 L52,55 L52,54 L51,54 L51,53 L50,53 L50,52 L49,52 L49,51 L48,51 L48,50 L47,50 L47,49 L46,49 L46,48 L45,48 L45,47 L44,47 L44,46 L43,46 L43,45 L42,45 L42,44 L41,44 L41,43 L40,43 L40,42 L39,42 L39,41 L38,41 L38,40 L37,40 L37,39 L36,39 L36,38 L35,38 L35,37 L34,37 L34,36 L33,36 L33,35 L32,35 L32,34 L31,34 L31,33 L30,33 L30,32 L29,32 L29,31 L28,31 L28,30 L27,30 L27,29 L26,29 L26,28 L25,28 L25,27 L24,27 L24,26 L23,26 L23,25 L22,25 L22,24 L21,24 L21,23 L20,23 L20,22 L19,22 L19,21 L18,21 L18,20 L17,20 L17,19 L16,19 L16,18 L15,18 L15,17 L14,17 L14,16 L13,16 L13,15 L12,15 L12,14 L11,14 L11,13 L10,13 L10,12 L9,12 L9,11 L8,11 L8,10 L7,10 L7,9 L6,9 L6,8 L5,8 L5,7 L4,7 L4,6 L3,6 L3,5 L2,5 L2,4 L1,4 L1,3 L0,3 Z M0,4 L1,4 L1,5 L2,5 L2,6 L3,6 L3,7 L4,7 L4,8 L5,8 L5,9 L6,9 L6,10 L7,10 L7,11 L8,11 L8,12 L9,12 L9,13 L10,13 L10,14 L11,14 L11,15 L12,15 L12,16 L13,16 L13,17 L14,17 L14,18 L15,18 L15,19 L16,19 L16,20 L17,20 L17,21 L18,21 L18,22 L19,22 L19,23 L20,23 L20,24 L21,24 L21,25 L22,25 L22,26 L23,26 L23,27 L24,27 L24,28 L25,28 L25,29 L26,29 L26,30 L27,30 L27,31 L28,31 L28,32 L29,32 L29,33 L30,33 L30,34 L31,34 L31,35 L32,35 L32,36 L33,36 L33,37 L34,37 L34,38 L35,38 L35,39 L36,39 L36,40 L37,40 L37,41 L38,41 L38,42 L39,42 L39,43 L40,43 L40,44 L41,44 L41,45 L42,45 L42,46 L43,46 L43,47 L44,47 L44,48 L45,48 L45,49 L46,49 L46,50 L47,50 L47,51 L48,51 L48,52 L49,52 L49,53 L50,53 L50,54 L51,54 L51,55 L52,55 L52,56 L53,56 L53,57 L54,57 L54,58 L55,58 L55,59 L56,59 L56,60 L57,60 L57,61 L58,61 L58,62 L59,62 L59,63 L56,63 L56,62 L55,62 L55,61 L54,61 L54,60 L53,60 L53,59 L52,59 L52,58 L51,58 L51,57 L50,57 L50,56 L49,56 L49,55 L48,55 L48,54 L47,54 L47,53 L46,53 L46,52 L45,52 L45,51 L44,51 L44,50 L43,50 L43,49 L42,49 L42,48 L41,48 L41,47 L40,47 L40,46 L39,46 L39,45 L38,45 L38,44 L37,44 L37,43 L36,43 L36,42 L35,42 L35,41 L34,41 L34,40 L33,40 L33,39 L32,39 L32,38 L31,38 L31,37 L30,37 L30,36 L29,36 L29,35 L28,35 L28,34 L27,34 L27,33 L26,33 L26,32 L25,32 L25,31 L24,31 L24,30 L23,30 L23,29 L22,29 L22,28 L21,28 L21,27 L20,27 L20,26 L19,26 L19,25 L18,25 L18,24 L17,24 L17,23 L16,23 L16,22 L15,22 L15,21 L14,21 L14,20 L13,20 L13,19 L12,19 L12,18 L11,18 L11,17 L10,17 L10,16 L9,16 L9,15 L8,15 L8,14 L7,14 L7,13 L6,13 L6,12 L5,12 L5,11 L4,11 L4,10 L3,10 L3,9 L2,9 L2,8 L1,8 L1,7 L0,7 Z M0,8 L1,8 L1,9 L2,9 L2,10 L3,10 L3,11 L4,11 L4,12 L5,12 L5,13 L6,13 L6,14 L7,14 L7,15 L8,15 L8,16 L9,16 L9,17 L10,17 L10,18 L11,18 L11,19 L12,19 L12,20 L13,20 L13,21 L14,21 L14,22 L15,22 L15,23 L16,23 L16,24 L17,24 L17,25 L18,25 L18,26 L19,26 L19,27 L20,27 L20,28 L21,28 L21,29 L22,29 L22,30 L23,30 L23,31 L24,31 L24,32 L25,32 L25,33 L26,33 L26,34 L27,34 L27,35 L28,35 L28,36 L29,36 L29,37 L30,37 L30,38 L31,38 L31,39 L32,39 L32,40 L33,40 L33,41 L34,41 L34,42 L35,42 L35,43 L36,43 L36,44 L37,44 L37,45 L38,45 L38,46 L39,46 L39,47 L40,47 L40,48 L41,48 L41,49 L42,49 L42,50 L43,50 L43,51 L44,51 L44,52 L45,52 L45,53 L46,53 L46,54 L47,54 L47,55 L48,55 L48,56 L49,56 L49,57 L50,57 L50,58 L51,58 L51,59 L52,59 L52,60 L53,60 L53,61 L54,61 L54,62 L55,62 L55,63 L46,63 L46,62 L45,62 L45,61 L44,61 L44,60 L43,60 L43,59 L42,59 L42,58 L41,58 L41,57 L40,57 L40,56 L39,56 L39,55 L38,55 L38,54 L37,54 L37,53 L36,53 L36,52 L35,52 L35,51 L34,51 L34,50 L33,50 L33,49 L32,49 L32,48 L31,48 L31,47 L30,47 L30,46 L29,46 L29,45 L28,45 L28,44 L27,44 L27,43 L26,43 L26,42 L25,42 L25,41 L24,41 L24,40 L23,40 L23,39 L22,39 L22,38 L21,38 L21,37 L20,37 L20,36 L19,36 L19,35 L18,35 L18,34 L17,34 L17,33 L16,33 L16,32 L15,32 L15,31 L14,31 L14,30 L13,30 L13,29 L12,29 L12,28 L11,28 L11,27 L10,27 L10,26 L9,26 L9,25 L8,25 L8,24 L7,24 L7,23 L6,23 L6,22 L5,22 L5,21 L4,21 L4,20 L3,20 L3,19 L2,19 L2,18 L1,18 L1,17 L0,17 Z M0,18 L1,18 L1,19 L2,19 L2,20 L3,20 L3,21 L4,21 L4,22 L5,22 L5,23 L6,23 L6,24 L7,24 L7,25 L8,25 L8,26 L9,26 L9,27 L10,27 L10,28 L11,28 L11,29 L12,29 L12,30 L13,30 L13,31 L14,31 L14,32 L15,32 L15,33 L16,33 L16,34 L17,34 L17,35 L18,35 L18,36 L19,36 L19,37 L20,37 L20,38 L21,38 L21,39 L22,39 L22,40 L23,40 L23,41 L24,41 L24,42 L25,42 L25,43 L26,43 L26,44 L27,44 L27,45 L28,45 L28,46 L29,46 L29,47 L30,47 L30,48 L31,48 L31,49 L32,49 L32,50 L33,50 L33,51 L34,51 L34,52 L35,52 L35,53 L36,53 L36,54 L37,54 L37,55 L38,55 L38,56 L39,56 L39,57 L40,57 L40,58 L41,58 L41,59 L42,59 L42,60 L43,60 L43,61 L44,61 L44,62 L45,62 L45,63 L42,63 L42,62 L41,62 L41,61 L40,61 L40,60 L39,60 L39,59 L38,59 L38,58 L37,58 L37,57 L36,57 L36,56 L35,56 L35,55 L34,55 L34,54 L33,54 L33,53 L32,53 L32,52 L31,52 L31,51 L30,51 L30,50 L29,50 L29,49 L28,49 L28,48 L27,48 L27,47 L26,47 L26,46 L25,46 L25,45 L24,45 L24,44 L23,44 L23,43 L22,43 L22,42 L21,42 L21,41 L20,41 L20,40 L19,40 L19,39 L18,39 L18,38 L17,38 L17,37 L16,37 L16,36 L15,36 L15,35 L14,35 L14,34 L13,34 L13,33 L12,33 L12,32 L11,32 L11,31 L10,31 L10,30 L9,30 L9,29 L8,29 L8,28 L7,28 L7,27 L6,27 L6,26 L5,26 L5,25 L4,25 L4,24 L3,24 L3,23 L2,23 L2,22 L1,22 L1,21 L0,21 Z M0,22 L1,22 L1,23 L2,23 L2,24 L3,24 L3,25 L4,25 L4,26 L5,26 L5,27 L6,27 L6,28 L0,28 Z M0,29 L8,29 L8,30 L9,30 L9,31 L10,31 L10,32 L11,32 L11,33 L9,33 L9,32 L0,32 Z M0,33 L9,33 L9,34 L12,34 L12,35 L14,35 L14,36 L15,36 L15,37 L16,37 L16,38 L17,38 L17,39 L18,39 L18,40 L19,40 L19,41 L20,41 L20,42 L21,42 L21,43 L22,43 L22,44 L23,44 L23,45 L24,45 L24,46 L25,46 L25,47 L26,47 L26,48 L27,48 L27,49 L28,49 L28,50 L29,50 L29,51 L30,51 L30,52 L31,52 L31,53 L32,53 L32,54 L33,54 L33,55 L34,55 L34,56 L35,56 L35,57 L25,57 L25,56 L22,56 L22,55 L19,55 L19,54 L17,54 L17,53 L15,53 L15,52 L12,52 L12,51 L9,51 L9,50 L0,50 Z M0,51 L9,51 L9,52 L12,52 L12,53 L14,53 L14,54 L16,54 L16,55 L18,55 L18,56 L21,56 L21,57 L24,57 L24,58 L37,58 L37,59 L38,59 L38,60 L39,60 L39,61 L40,61 L40,62 L41,62 L41,63 L0,63 Z " fill="#F3C7A5" transform="translate(0,1)"/>
<path d="M0,0 L1,0 L1,1 L2,1 L2,2 L3,2 L3,3 L4,3 L4,4 L5,4 L5,5 L6,5 L6,6 L0,6 Z M0,7 L8,7 L8,8 L9,8 L9,9 L10,9 L10,10 L11,10 L11,11 L9,11 L9,10 L0,10 Z M0,11 L9,11 L9,12 L12,12 L12,13 L14,13 L14,14 L15,14 L15,15 L16,15 L16,16 L17,16 L17,17 L18,17 L18,18 L19,18 L19,19 L20,19 L20,20 L21,20 L21,21 L22,21 L22,22 L23,22 L23,23 L24,23 L24,24 L25,24 L25,25 L26,25 L26,26 L27,26 L27,27 L28,27 L28,28 L29,28 L29,29 L30,29 L30,30 L31,30 L31,31 L32,31 L32,32 L33,32 L33,33 L34,33 L34,34 L35,34 L35,35 L25,35 L25,34 L22,34 L22,33 L19,33 L19,32 L17,32 L17,31 L15,31 L15,30 L12,30 L12,29 L9,29 L9,28 L0,28 Z M0,29 L9,29 L9,30 L12,30 L12,31 L14,31 L14,32 L16,32 L16,33 L18,33 L18,34 L21,34 L21,35 L24,35 L24,36 L37,36 L37,37 L38,37 L38,38 L39,38 L39,39 L40,39 L40,40 L41,40 L41,41 L0,41 Z " fill="#EE9366" transform="translate(0,23)"/>
<path d="M0,0 L1,0 L1,1 L2,1 L2,2 L3,2 L3,3 L4,3 L4,4 L5,4 L5,5 L6,5 L6,6 L7,6 L7,7 L8,7 L8,8 L9,8 L9,9 L10,9 L10,10 L11,10 L11,11 L12,11 L12,12 L13,12 L13,13 L14,13 L14,14 L15,14 L15,15 L16,15 L16,16 L17,16 L17,17 L18,17 L18,18 L19,18 L19,19 L20,19 L20,20 L21,20 L21,21 L22,21 L22,22 L23,22 L23,23 L24,23 L24,24 L25,24 L25,25 L26,25 L26,26 L27,26 L27,27 L28,27 L28,28 L29,28 L29,29 L30,29 L30,30 L31,30 L31,31 L32,31 L32,32 L33,32 L33,33 L34,33 L34,34 L35,34 L35,35 L36,35 L36,36 L37,36 L37,37 L38,37 L38,38 L39,38 L39,39 L40,39 L40,40 L41,40 L41,41 L42,41 L42,42 L43,42 L43,43 L44,43 L44,44 L45,44 L45,45 L46,45 L46,46 L47,46 L47,47 L48,47 L48,48 L49,48 L49,49 L50,49 L50,50 L51,50 L51,51 L52,51 L52,52 L53,52 L53,53 L54,53 L54,54 L55,54 L55,55 L56,55 L56,56 L57,56 L57,57 L58,57 L58,58 L59,58 L59,59 L60,59 L60,60 L61,60 L61,61 L62,61 L62,62 L63,62 L63,63 L60,63 L60,62 L59,62 L59,61 L58,61 L58,60 L57,60 L57,59 L56,59 L56,58 L55,58 L55,57 L54,57 L54,56 L53,56 L53,55 L52,55 L52,54 L51,54 L51,53 L50,53 L50,52 L49,52 L49,51 L48,51 L48,50 L47,50 L47,49 L46,49 L46,48 L45,48 L45,47 L44,47 L44,46 L43,46 L43,45 L42,45 L42,44 L41,44 L41,43 L40,43 L40,42 L39,42 L39,41 L38,41 L38,40 L37,40 L37,39 L36,39 L36,38 L35,38 L35,37 L34,37 L34,36 L33,36 L33,35 L32,35 L32,34 L31,34 L31,33 L30,33 L30,32 L29,32 L29,31 L28,31 L28,30 L27,30 L27,29 L26,29 L26,28 L25,28 L25,27 L24,27 L24,26 L23,26 L23,25 L22,25 L22,24 L21,24 L21,23 L20,23 L20,22 L19,22 L19,21 L18,21 L18,20 L17,20 L17,19 L16,19 L16,18 L15,18 L15,17 L14,17 L14,16 L13,16 L13,15 L12,15 L12,14 L11,14 L11,13 L10,13 L10,12 L9,12 L9,11 L8,11 L8,10 L7,10 L7,9 L6,9 L6,8 L5,8 L5,7 L4,7 L4,6 L3,6 L3,5 L2,5 L2,4 L1,4 L1,3 L0,3 Z M0,4 L1,4 L1,5 L2,5 L2,6 L3,6 L3,7 L4,7 L4,8 L5,8 L5,9 L6,9 L6,10 L7,10 L7,11 L8,11 L8,12 L9,12 L9,13 L10,13 L10,14 L11,14 L11,15 L12,15 L12,16 L13,16 L13,17 L14,17 L14,18 L15,18 L15,19 L16,19 L16,20 L17,20 L17,21 L18,21 L18,22 L19,22 L19,23 L20,23 L20,24 L21,24 L21,25 L22,25 L22,26 L23,26 L23,27 L24,27 L24,28 L25,28 L25,29 L26,29 L26,30 L27,30 L27,31 L28,31 L28,32 L29,32 L29,33 L30,33 L30,34 L31,34 L31,35 L32,35 L32,36 L33,36 L33,37 L34,37 L34,38 L35,38 L35,39 L36,39 L36,40 L37,40 L37,41 L38,41 L38,42 L39,42 L39,43 L40,43 L40,44 L41,44 L41,45 L42,45 L42,46 L43,46 L43,47 L44,47 L44,48 L45,48 L45,49 L46,49 L46,50 L47,50 L47,51 L48,51 L48,52 L49,52 L49,53 L50,53 L50,54 L51,54 L51,55 L52,55 L52,56 L53,56 L53,57 L54,57 L54,58 L55,58 L55,59 L56,59 L56,60 L57,60 L57,61 L58,61 L58,62 L59,62 L59,63 L56,63 L56,62 L55,62 L55,61 L54,61 L54,60 L53,60 L53,59 L52,59 L52,58 L51,58 L51,57 L50,57 L50,56 L49,56 L49,55 L48,55 L48,54 L47,54 L47,53 L46,53 L46,52 L45,52 L45,51 L44,51 L44,50 L43,50 L43,49 L42,49 L42,48 L41,48 L41,47 L40,47 L40,46 L39,46 L39,45 L38,45 L38,44 L37,44 L37,43 L36,43 L36,42 L35,42 L35,41 L34,41 L34,40 L33,40 L33,39 L32,39 L32,38 L31,38 L31,37 L30,37 L30,36 L29,36 L29,35 L28,35 L28,34 L27,34 L27,33 L26,33 L26,32 L25,32 L25,31 L24,31 L24,30 L23,30 L23,29 L22,29 L22,28 L21,28 L21,27 L20,27 L20,26 L19,26 L19,25 L18,25 L18,24 L17,24 L17,23 L16,23 L16,22 L15,22 L15,21 L14,21 L14,20 L13,20 L13,19 L12,19 L12,18 L11,18 L11,17 L10,17 L10,16 L9,16 L9,15 L8,15 L8,14 L7,14 L7,13 L6,13 L6,12 L5,12 L5,11 L4,11 L4,10 L3,10 L3,9 L2,9 L2,8 L1,8 L1,7 L0,7 Z " fill="#FFE0C2" transform="translate(0,1)"/>
<path d="M0,0 L8,0 L8,1 L11,1 L11,2 L14,2 L14,3 L16,3 L16,4 L18,4 L18,5 L21,5 L21,6 L24,6 L24,7 L37,7 L37,8 L38,8 L38,9 L39,9 L39,10 L40,10 L40,11 L41,11 L41,12 L0,12 Z " fill="#DE7E4F" transform="translate(0,52)"/>
<path d="M0,0 L1,0 L1,1 L0,1 Z M3,1 L4,1 L4,2 L3,2 Z " fill="#DE7E4E" transform="translate(8,52)"/>
<path d="M0,0 L1,0 L1,1 L2,1 L2,2 L3,2 L3,3 L4,3 L4,4 L5,4 L5,5 L6,5 L6,6 L7,6 L7,7 L8,7 L8,8 L9,8 L9,9 L10,9 L10,10 L11,10 L11,11 L12,11 L12,12 L13,12 L13,13 L14,13 L14,14 L15,14 L15,15 L16,15 L16,16 L17,16 L17,17 L18,17 L18,18 L19,18 L19,19 L20,19 L20,20 L21,20 L21,21 L22,21 L22,22 L23,22 L23,23 L24,23 L24,24 L25,24 L25,25 L26,25 L26,26 L27,26 L27,27 L28,27 L28,28 L29,28 L29,29 L30,29 L30,30 L31,30 L31,31 L32,31 L32,32 L33,32 L33,33 L34,33 L34,34 L35,34 L35,35 L36,35 L36,36 L37,36 L37,37 L38,37 L38,38 L39,38 L39,39 L40,39 L40,40 L41,40 L41,41 L42,41 L42,42 L43,42 L43,43 L44,43 L44,44 L45,44 L45,45 L46,45 L46,46 L47,46 L47,47 L48,47 L48,48 L49,48 L49,49 L50,49 L50,50 L51,50 L51,51 L52,51 L52,52 L53,52 L53,53 L54,53 L54,54 L55,54 L55,55 L56,55 L56,56 L57,56 L57,57 L58,57 L58,58 L59,58 L59,59 L60,59 L60,60 L61,60 L61,61 L62,61 L62,62 L63,62 L63,63 L60,63 L60,62 L59,62 L59,61 L58,61 L58,60 L57,60 L57,59 L56,59 L56,58 L55,58 L55,57 L54,57 L54,56 L53,56 L53,55 L52,55 L52,54 L51,54 L51,53 L50,53 L50,52 L49,52 L49,51 L48,51 L48,50 L47,50 L47,49 L46,49 L46,48 L45,48 L45,47 L44,47 L44,46 L43,46 L43,45 L42,45 L42,44 L41,44 L41,43 L40,43 L40,42 L39,42 L39,41 L38,41 L38,40 L37,40 L37,39 L36,39 L36,38 L35,38 L35,37 L34,37 L34,36 L33,36 L33,35 L32,35 L32,34 L31,34 L31,33 L30,33 L30,32 L29,32 L29,31 L28,31 L28,30 L27,30 L27,29 L26,29 L26,28 L25,28 L25,27 L24,27 L24,26 L23,26 L23,25 L22,25 L22,24 L21,24 L21,23 L20,23 L20,22 L19,22 L19,21 L18,21 L18,20 L17,20 L17,19 L16,19 L16,18 L15,18 L15,17 L14,17 L14,16 L13,16 L13,15 L12,15 L12,14 L11,14 L11,13 L10,13 L10,12 L9,12 L9,11 L8,11 L8,10 L7,10 L7,9 L6,9 L6,8 L5,8 L5,7 L4,7 L4,6 L3,6 L3,5 L2,5 L2,4 L1,4 L1,3 L0,3 Z " fill="#353541" transform="translate(0,1)"/>
<path d="M0,0 L1,0 L1,1 L2,1 L2,2 L3,2 L3,3 L4,3 L4,4 L5,4 L5,5 L6,5 L6,6 L7,6 L7,7 L8,7 L8,8 L9,8 L9,9 L10,9 L10,10 L11,10 L11,11 L12,11 L12,12 L13,12 L13,13 L14,13 L14,14 L15,14 L15,15 L16,15 L16,16 L17,16 L17,17 L18,17 L18,18 L19,18 L19,19 L20,19 L20,20 L21,20 L21,21 L22,21 L22,22 L23,22 L23,23 L24,23 L24,24 L25,24 L25,25 L26,25 L26,26 L27,26 L27,27 L28,27 L28,28 L29,28 L29,29 L30,29 L30,30 L31,30 L31,31 L32,31 L32,32 L33,32 L33,33 L34,33 L34,34 L35,34 L35,35 L36,35 L36,36 L37,36 L37,37 L38,37 L38,38 L39,38 L39,39 L40,39 L40,40 L41,40 L41,41 L42,41 L42,42 L43,42 L43,43 L44,43 L44,44 L45,44 L45,45 L42,45 L42,44 L41,44 L41,43 L40,43 L40,42 L39,42 L39,41 L38,41 L38,40 L37,40 L37,39 L36,39 L36,38 L35,38 L35,37 L34,37 L34,36 L33,36 L33,35 L32,35 L32,34 L31,34 L31,33 L30,33 L30,32 L29,32 L29,31 L28,31 L28,30 L27,30 L27,29 L26,29 L26,28 L25,28 L25,27 L24,27 L24,26 L23,26 L23,25 L22,25 L22,24 L21,24 L21,23 L20,23 L20,22 L19,22 L19,21 L18,21 L18,20 L17,20 L17,19 L16,19 L16,18 L15,18 L15,17 L14,17 L14,16 L13,16 L13,15 L12,15 L12,14 L11,14 L11,13 L10,13 L10,12 L9,12 L9,11 L8,11 L8,10 L7,10 L7,9 L6,9 L6,8 L5,8 L5,7 L4,7 L4,6 L3,6 L3,5 L2,5 L2,4 L1,4 L1,3 L0,3 Z " fill="#E7B187" transform="translate(0,19)"/>
<path d="M0,0 L1,0 L1,1 L2,1 L2,2 L3,2 L3,3 L4,3 L4,4 L5,4 L5,5 L6,5 L6,6 L0,6 Z M0,7 L8,7 L8,8 L9,8 L9,9 L10,9 L10,10 L11,10 L11,11 L9,11 L9,10 L0,10 Z " fill="#C66A3E" transform="translate(0,23)"/>
<path d="M0,0 L1,0 L1,1 L0,1 Z M1,1 L2,1 L2,2 L1,2 Z M2,2 L3,2 L3,3 L2,3 Z M3,3 L4,3 L4,4 L3,4 Z M4,4 L5,4 L5,5 L4,5 Z M5,5 L6,5 L6,6 L5,6 Z M6,6 L7,6 L7,7 L6,7 Z M7,7 L8,7 L8,8 L7,8 Z M8,8 L9,8 L9,9 L8,9 Z M9,9 L10,9 L10,10 L9,10 Z M10,10 L11,10 L11,11 L10,11 Z M11,11 L12,11 L12,12 L11,12 Z M12,12 L13,12 L13,13 L12,13 Z M13,13 L14,13 L14,14 L13,14 Z M14,14 L15,14 L15,15 L14,15 Z M15,15 L16,15 L16,16 L15,16 Z M16,16 L17,16 L17,17 L16,17 Z M17,17 L18,17 L18,18 L17,18 Z M18,18 L19,18 L19,19 L18,19 Z M19,19 L20,19 L20,20 L19,20 Z M20,20 L21,20 L21,21 L20,21 Z M21,21 L22,21 L22,22 L21,22 Z M22,22 L23,22 L23,23 L22,23 Z M23,23 L24,23 L24,24 L23,24 Z M24,24 L25,24 L25,25 L24,25 Z M25,25 L26,25 L26,26 L25,26 Z M26,26 L27,26 L27,27 L26,27 Z M27,27 L28,27 L28,28 L27,28 Z M28,28 L29,28 L29,29 L28,29 Z M29,29 L30,29 L30,30 L29,30 Z M30,30 L31,30 L31,31 L30,31 Z M31,31 L32,31 L32,32 L31,32 Z M32,32 L33,32 L33,33 L32,33 Z M33,33 L34,33 L34,34 L33,34 Z M34,34 L35,34 L35,35 L34,35 Z M35,35 L36,35 L36,36 L35,36 Z M36,36 L37,36 L37,37 L36,37 Z M37,37 L38,37 L38,38 L37,38 Z M38,38 L39,38 L39,39 L38,39 Z M39,39 L40,39 L40,40 L39,40 Z M40,40 L41,40 L41,41 L40,41 Z M41,41 L42,41 L42,42 L41,42 Z M42,42 L43,42 L43,43 L42,43 Z M43,43 L44,43 L44,44 L43,44 Z M44,44 L45,44 L45,45 L44,45 Z M45,45 L46,45 L46,46 L45,46 Z M46,46 L47,46 L47,47 L46,47 Z M47,47 L48,47 L48,48 L47,48 Z M48,48 L49,48 L49,49 L48,49 Z M49,49 L50,49 L50,50 L49,50 Z M50,50 L51,50 L51,51 L50,51 Z M51,51 L52,51 L52,52 L51,52 Z M52,52 L53,52 L53,53 L52,53 Z M53,53 L54,53 L54,54 L53,54 Z M54,54 L55,54 L55,55 L54,55 Z M55,55 L56,55 L56,56 L55,56 Z M56,56 L57,56 L57,57 L56,57 Z M57,57 L58,57 L58,58 L57,58 Z M58,58 L59,58 L59,59 L58,59 Z M59,59 L60,59 L60,60 L59,60 Z M60,60 L61,60 L61,61 L60,61 Z M61,61 L62,61 L62,62 L61,62 Z M62,62 L63,62 L63,63 L62,63 Z M63,63 L64,63 L64,64 L63,64 Z " fill="#333341" opacity="0.5058824" transform="translate(0,0)"/>
<path d="M0,0 L1,0 L1,1 L0,1 Z M1,1 L2,1 L2,2 L1,2 Z M2,2 L3,2 L3,3 L2,3 Z M3,3 L4,3 L4,4 L3,4 Z M4,4 L5,4 L5,5 L4,5 Z M5,5 L6,5 L6,6 L5,6 Z M6,6 L7,6 L7,7 L6,7 Z M7,7 L8,7 L8,8 L7,8 Z M8,8 L9,8 L9,9 L8,9 Z M9,9 L10,9 L10,10 L9,10 Z M10,10 L11,10 L11,11 L10,11 Z M11,11 L12,11 L12,12 L11,12 Z M12,12 L13,12 L13,13 L12,13 Z M13,13 L14,13 L14,14 L13,14 Z M14,14 L15,14 L15,15 L14,15 Z M15,15 L16,15 L16,16 L15,16 Z M16,16 L17,16 L17,17 L16,17 Z M17,17 L18,17 L18,18 L17,18 Z M18,18 L19,18 L19,19 L18,19 Z M19,19 L20,19 L20,20 L19,20 Z M20,20 L21,20 L21,21 L20,21 Z M21,21 L22,21 L22,22 L21,22 Z M22,22 L23,22 L23,23 L22,23 Z M23,23 L24,23 L24,24 L23,24 Z M24,24 L25,24 L25,25 L24,25 Z M25,25 L26,25 L26,26 L25,26 Z M26,26 L27,26 L27,27 L26,27 Z M27,27 L28,27 L28,28 L27,28 Z M28,28 L29,28 L29,29 L28,29 Z M29,29 L30,29 L30,30 L29,30 Z M30,30 L31,30 L31,31 L30,31 Z M31,31 L32,31 L32,32 L31,32 Z M32,32 L33,32 L33,33 L32,33 Z M33,33 L34,33 L34,34 L33,34 Z M34,34 L35,34 L35,35 L34,35 Z M35,35 L36,35 L36,36 L35,36 Z M36,36 L37,36 L37,37 L36,37 Z M37,37 L38,37 L38,38 L37,38 Z M38,38 L39,38 L39,39 L38,39 Z M39,39 L40,39 L40,40 L39,40 Z M40,40 L41,40 L41,41 L40,41 Z M41,41 L42,41 L42,42 L41,42 Z M42,42 L43,42 L43,43 L42,43 Z M43,43 L44,43 L44,44 L43,44 Z M44,44 L45,44 L45,45 L44,45 Z M45,45 L46,45 L46,46 L45,46 Z M46,46 L47,46 L47,47 L46,47 Z M47,47 L48,47 L48,48 L47,48 Z M48,48 L49,48 L49,49 L48,49 Z M49,49 L50,49 L50,50 L49,50 Z M50,50 L51,50 L51,51 L50,51 Z M51,51 L52,51 L52,52 L51,52 Z M52,52 L53,52 L53,53 L52,53 Z M53,53 L54,53 L54,54 L53,54 Z M54,54 L55,54 L55,55 L54,55 Z M55,55 L56,55 L56,56 L55,56 Z M56,56 L57,56 L57,57 L56,57 Z M57,57 L58,57 L58,58 L57,58 Z M58,58 L59,58 L59,59 L58,59 Z M59,59 L60,59 L60,60 L59,60 Z " fill="#BCA698" opacity="0.7529412" transform="translate(0,4)"/>
<path d="M0,0 L1,0 L1,1 L0,1 Z M1,1 L2,1 L2,2 L1,2 Z M2,2 L3,2 L3,3 L2,3 Z M3,3 L4,3 L4,4 L3,4 Z M4,4 L5,4 L5,5 L4,5 Z M5,5 L6,5 L6,6 L5,6 Z M6,6 L7,6 L7,7 L6,7 Z M7,7 L8,7 L8,8 L7,8 Z M8,8 L9,8 L9,9 L8,9 Z M9,9 L10,9 L10,10 L9,10 Z M10,10 L11,10 L11,11 L10,11 Z M11,11 L12,11 L12,12 L11,12 Z M12,12 L13,12 L13,13 L12,13 Z M13,13 L14,13 L14,14 L13,14 Z M14,14 L15,14 L15,15 L14,15 Z M15,15 L16,15 L16,16 L15,16 Z M16,16 L17,16 L17,17 L16,17 Z M17,17 L18,17 L18,18 L17,18 Z M18,18 L19,18 L19,19 L18,19 Z M19,19 L20,19 L20,20 L19,20 Z M20,20 L21,20 L21,21 L20,21 Z M21,21 L22,21 L22,22 L21,22 Z M22,22 L23,22 L23,23 L22,23 Z M23,23 L24,23 L24,24 L23,24 Z M24,24 L25,24 L25,25 L24,25 Z M25,25 L26,25 L26,26 L25,26 Z M26,26 L27,26 L27,27 L26,27 Z M27,27 L28,27 L28,28 L27,28 Z M28,28 L29,28 L29,29 L28,29 Z M29,29 L30,29 L30,30 L29,30 Z M30,30 L31,30 L31,31 L30,31 Z M31,31 L32,31 L32,32 L31,32 Z M32,32 L33,32 L33,33 L32,33 Z M33,33 L34,33 L34,34 L33,34 Z M34,34 L35,34 L35,35 L34,35 Z M35,35 L36,35 L36,36 L35,36 Z M36,36 L37,36 L37,37 L36,37 Z M37,37 L38,37 L38,38 L37,38 Z M38,38 L39,38 L39,39 L38,39 Z M39,39 L40,39 L40,40 L39,40 Z M40,40 L41,40 L41,41 L40,41 Z M41,41 L42,41 L42,42 L41,42 Z M42,42 L43,42 L43,43 L42,43 Z M43,43 L44,43 L44,44 L43,44 Z M44,44 L45,44 L45,45 L44,45 Z M45,45 L46,45 L46,46 L45,46 Z M46,46 L47,46 L47,47 L46,47 Z M47,47 L48,47 L48,48 L47,48 Z M48,48 L49,48 L49,49 L48,49 Z M49,49 L50,49 L50,50 L49,50 Z M50,50 L51,50 L51,51 L50,51 Z M51,51 L52,51 L52,52 L51,52 Z M52,52 L53,52 L53,53 L52,53 Z M53,53 L54,53 L54,54 L53,54 Z M54,54 L55,54 L55,55 L54,55 Z M55,55 L56,55 L56,56 L55,56 Z " fill="#FDD9B9" opacity="0.7529412" transform="translate(0,8)"/>
<path d="M0,0 L1,0 L1,1 L0,1 Z M1,1 L2,1 L2,2 L1,2 Z M2,2 L3,2 L3,3 L2,3 Z M3,3 L4,3 L4,4 L3,4 Z M4,4 L5,4 L5,5 L4,5 Z M5,5 L6,5 L6,6 L5,6 Z M6,6 L7,6 L7,7 L6,7 Z M7,7 L8,7 L8,8 L7,8 Z M8,8 L9,8 L9,9 L8,9 Z M9,9 L10,9 L10,10 L9,10 Z M10,10 L11,10 L11,11 L10,11 Z M11,11 L12,11 L12,12 L11,12 Z M12,12 L13,12 L13,13 L12,13 Z M13,13 L14,13 L14,14 L13,14 Z M14,14 L15,14 L15,15 L14,15 Z M15,15 L16,15 L16,16 L15,16 Z M16,16 L17,16 L17,17 L16,17 Z M17,17 L18,17 L18,18 L17,18 Z M18,18 L19,18 L19,19 L18,19 Z M19,19 L20,19 L20,20 L19,20 Z M20,20 L21,20 L21,21 L20,21 Z M21,21 L22,21 L22,22 L21,22 Z M22,22 L23,22 L23,23 L22,23 Z M23,23 L24,23 L24,24 L23,24 Z M24,24 L25,24 L25,25 L24,25 Z M25,25 L26,25 L26,26 L25,26 Z M26,26 L27,26 L27,27 L26,27 Z M27,27 L28,27 L28,28 L27,28 Z M28,28 L29,28 L29,29 L28,29 Z M29,29 L30,29 L30,30 L29,30 Z M30,30 L31,30 L31,31 L30,31 Z M31,31 L32,31 L32,32 L31,32 Z M32,32 L33,32 L33,33 L32,33 Z M33,33 L34,33 L34,34 L33,34 Z M34,34 L35,34 L35,35 L34,35 Z M35,35 L36,35 L36,36 L35,36 Z M36,36 L37,36 L37,37 L36,37 Z M37,37 L38,37 L38,38 L37,38 Z M38,38 L39,38 L39,39 L38,39 Z M39,39 L40,39 L40,40 L39,40 Z M40,40 L41,40 L41,41 L40,41 Z M41,41 L42,41 L42,42 L41,42 Z M42,42 L43,42 L43,43 L42,43 Z M43,43 L44,43 L44,44 L43,44 Z M44,44 L45,44 L45,45 L44,45 Z M45,45 L46,45 L46,46 L45,46 Z " fill="#EDB991" opacity="0.7529412" transform="translate(0,18)"/>
<path d="M0,0 L1,0 L1,1 L2,1 L2,2 L3,2 L3,3 L4,3 L4,4 L5,4 L5,5 L6,5 L6,6 L0,6 Z " fill="#DE7E4F" transform="translate(0,23)"/>
<path d="M0,0 L1,0 L1,1 L0,1 Z M1,1 L2,1 L2,2 L1,2 Z M2,2 L3,2 L3,3 L2,3 Z M3,3 L4,3 L4,4 L3,4 Z M4,4 L5,4 L5,5 L4,5 Z M5,5 L6,5 L6,6 L5,6 Z M6,6 L7,6 L7,7 L6,7 Z M7,7 L8,7 L8,8 L7,8 Z M8,8 L9,8 L9,9 L8,9 Z M9,9 L10,9 L10,10 L9,10 Z M10,10 L11,10 L11,11 L10,11 Z M11,11 L12,11 L12,12 L11,12 Z M12,12 L13,12 L13,13 L12,13 Z M13,13 L14,13 L14,14 L13,14 Z M14,14 L15,14 L15,15 L14,15 Z M15,15 L16,15 L16,16 L15,16 Z M16,16 L17,16 L17,17 L16,17 Z M17,17 L18,17 L18,18 L17,18 Z M18,18 L19,18 L19,19 L18,19 Z M19,19 L20,19 L20,20 L19,20 Z M20,20 L21,20 L21,21 L20,21 Z M21,21 L22,21 L22,22 L21,22 Z " fill="#ED9D70" opacity="0.7529412" transform="translate(14,36)"/>
<path d="M0,0 L1,0 L1,1 L0,1 Z " fill="#EE9265" opacity="0.9647059" transform="translate(32,58)"/>
<path d="M0,0 L1,0 L1,1 L0,1 Z M1,1 L2,1 L2,2 L1,2 Z M2,2 L3,2 L3,3 L2,3 Z M3,3 L4,3 L4,4 L3,4 Z M4,4 L5,4 L5,5 L4,5 Z M5,5 L6,5 L6,6 L5,6 Z M6,6 L7,6 L7,7 L6,7 Z " fill="#E28E61" opacity="0.7529412" transform="translate(0,22)"/>
<path d="M0,0 L1,0 L1,1 L0,1 Z " fill="#EE9366" transform="translate(0,34)"/>
<path d="M0,0 L1,0 L1,1 L0,1 Z M1,1 L2,1 L2,2 L1,2 Z M2,2 L3,2 L3,3 L2,3 Z M3,3 L4,3 L4,4 L3,4 Z M4,4 L5,4 L5,5 L4,5 Z " fill="#D28155" opacity="0.7529412" transform="translate(8,30)"/>
<path d="M0,0 L1,0 L1,1 L0,1 Z " fill="#DE7E4F" transform="translate(0,52)"/>
<path d="M0,0 L1,0 L1,1 L0,1 Z M1,1 L2,1 L2,2 L1,2 Z M2,2 L3,2 L3,3 L2,3 Z M3,3 L4,3 L4,4 L3,4 Z M4,4 L5,4 L5,5 L4,5 Z " fill="#E28E61" opacity="0.7529412" transform="translate(37,59)"/>
<path d="M0,0 L1,0 L1,1 L0,1 Z " fill="#EE9164" opacity="0.84313726" transform="translate(34,58)"/>
<path d="M0,0 L1,0 L1,1 L0,1 Z " fill="#ED9164" opacity="0.81960785" transform="translate(28,58)"/>
<path d="M0,0 L1,0 L1,1 L0,1 Z " fill="#CC6E40" opacity="0.75686276" transform="translate(4,29)"/>
<path d="M0,0 L1,0 L1,1 L0,1 Z " fill="#EA8D5F" opacity="0.75686276" transform="translate(6,51)"/>
<path d="M0,0 L1,0 L1,1 L0,1 Z " fill="#DE8053" opacity="0.75686276" transform="translate(6,33)"/>
<path d="M0,0 L1,0 L1,1 L0,1 Z " fill="#D37445" opacity="0.76862746" transform="translate(6,29)"/>
<path d="M0,0 L1,0 L1,1 L0,1 Z " fill="#EE9265" opacity="0.9098039" transform="translate(30,58)"/>
<path d="M0,0 L1,0 L1,1 L0,1 Z " fill="#E6895B" opacity="0.7607843" transform="translate(26,58)"/>
<path d="M0,0 L1,0 L1,1 L0,1 Z " fill="#ED9064" opacity="0.8" transform="translate(23,57)"/>
<path d="M0,0 L1,0 L1,1 L0,1 Z " fill="#ED9163" opacity="0.80784315" transform="translate(20,56)"/>
<path d="M0,0 L1,0 L1,1 L0,1 Z " fill="#ED9265" opacity="0.8901961" transform="translate(18,55)"/>
<path d="M0,0 L1,0 L1,1 L0,1 Z " fill="#EE9265" opacity="0.9411765" transform="translate(16,54)"/>
<path d="M0,0 L1,0 L1,1 L0,1 Z " fill="#EE9366" opacity="0.98039216" transform="translate(14,53)"/>
<path d="M0,0 L1,0 L1,1 L0,1 Z " fill="#E98C5E" opacity="0.7529412" transform="translate(10,52)"/>
<path d="M0,0 L1,0 L1,1 L0,1 Z " fill="#E18354" opacity="0.8352941" transform="translate(4,51)"/>
<path d="M0,0 L1,0 L1,1 L0,1 Z " fill="#DF8050" opacity="0.90588236" transform="translate(2,51)"/>
<path d="M0,0 L1,0 L1,1 L0,1 Z " fill="#E8976B" opacity="0.7294118" transform="translate(13,35)"/>
<path d="M0,0 L1,0 L1,1 L0,1 Z " fill="#CA6E41" opacity="0.90588236" transform="translate(11,34)"/>
<path d="M0,0 L1,0 L1,1 L0,1 Z " fill="#EB8F62" opacity="0.8352941" transform="translate(4,33)"/>
<path d="M0,0 L1,0 L1,1 L0,1 Z " fill="#ED9264" opacity="0.90588236" transform="translate(2,33)"/>
<path d="M0,0 L1,0 L1,1 L0,1 Z " fill="#C66A3E" transform="translate(0,30)"/>
<path d="M0,0 L1,0 L1,1 L0,1 Z " fill="#C76B3E" opacity="0.81960785" transform="translate(2,29)"/>
<path d="M0,0 L1,0 L1,1 L0,1 Z " fill="#E8976B" opacity="0.72156864" transform="translate(36,58)"/>
<path d="M0,0 L1,0 L1,1 L0,1 Z " fill="#EC9062" opacity="0.8039216" transform="translate(35,58)"/>
<path d="M0,0 L1,0 L1,1 L0,1 Z " fill="#EF9265" opacity="0.8980392" transform="translate(33,58)"/>
<path d="M0,0 L1,0 L1,1 L0,1 Z " fill="#EE9266" opacity="0.972549" transform="translate(31,58)"/>
<path d="M0,0 L1,0 L1,1 L0,1 Z " fill="#EE9264" opacity="0.85882354" transform="translate(29,58)"/>
<path d="M0,0 L1,0 L1,1 L0,1 Z " fill="#E98F61" opacity="0.7647059" transform="translate(27,58)"/>
<path d="M0,0 L1,0 L1,1 L0,1 Z " fill="#E28252" opacity="0.8392157" transform="translate(25,58)"/>
<path d="M0,0 L1,0 L1,1 L0,1 Z " fill="#DF7F4F" opacity="0.9764706" transform="translate(24,58)"/>
<path d="M0,0 L1,0 L1,1 L0,1 Z " fill="#EE9265" opacity="0.9843137" transform="translate(24,57)"/>
<path d="M0,0 L1,0 L1,1 L0,1 Z " fill="#E6895B" opacity="0.7607843" transform="translate(22,57)"/>
<path d="M0,0 L1,0 L1,1 L0,1 Z " fill="#E07F51" opacity="0.92941177" transform="translate(21,57)"/>
<path d="M0,0 L1,0 L1,1 L0,1 Z " fill="#EE9266" opacity="0.99215686" transform="translate(21,56)"/>
<path d="M0,0 L1,0 L1,1 L0,1 Z " fill="#E68758" opacity="0.78039217" transform="translate(19,56)"/>
<path d="M0,0 L1,0 L1,1 L0,1 Z " fill="#DE7E4D" opacity="0.99215686" transform="translate(18,56)"/>
<path d="M0,0 L1,0 L1,1 L0,1 Z " fill="#E9895B" opacity="0.75686276" transform="translate(17,55)"/>
<path d="M0,0 L1,0 L1,1 L0,1 Z " fill="#E07F4F" opacity="0.9607843" transform="translate(16,55)"/>
<path d="M0,0 L1,0 L1,1 L0,1 Z " fill="#EA8D5E" opacity="0.7529412" transform="translate(15,54)"/>
<path d="M0,0 L1,0 L1,1 L0,1 Z " fill="#E18050" opacity="0.9137255" transform="translate(14,54)"/>
<path d="M0,0 L1,0 L1,1 L0,1 Z " fill="#EA8F61" opacity="0.7647059" transform="translate(13,53)"/>
<path d="M0,0 L1,0 L1,1 L0,1 Z " fill="#E28253" opacity="0.8509804" transform="translate(12,53)"/>
<path d="M0,0 L1,0 L1,1 L0,1 Z " fill="#EE9165" opacity="0.8745098" transform="translate(11,52)"/>
<path d="M0,0 L1,0 L1,1 L0,1 Z " fill="#E28354" opacity="0.84705883" transform="translate(9,52)"/>
<path d="M0,0 L1,0 L1,1 L0,1 Z " fill="#DE7E4E" transform="translate(8,52)"/>
<path d="M0,0 L1,0 L1,1 L0,1 Z " fill="#ED9265" opacity="0.94509804" transform="translate(8,51)"/>
<path d="M0,0 L1,0 L1,1 L0,1 Z " fill="#ED9163" opacity="0.8156863" transform="translate(7,51)"/>
<path d="M0,0 L1,0 L1,1 L0,1 Z " fill="#E7885A" opacity="0.7647059" transform="translate(5,51)"/>
<path d="M0,0 L1,0 L1,1 L0,1 Z " fill="#E28151" opacity="0.87058824" transform="translate(3,51)"/>
<path d="M0,0 L1,0 L1,1 L0,1 Z " fill="#E08051" opacity="0.9411765" transform="translate(1,51)"/>
<path d="M0,0 L1,0 L1,1 L0,1 Z " fill="#DE7F4E" opacity="0.9843137" transform="translate(0,51)"/>
<path d="M0,0 L1,0 L1,1 L0,1 Z " fill="#EB8F61" opacity="0.81960785" transform="translate(12,35)"/>
<path d="M0,0 L1,0 L1,1 L0,1 Z " fill="#DD8154" opacity="0.75686276" transform="translate(10,34)"/>
<path d="M0,0 L1,0 L1,1 L0,1 Z " fill="#EB9164" opacity="0.84313726" transform="translate(9,34)"/>
<path d="M0,0 L1,0 L1,1 L0,1 Z " fill="#C96C3F" opacity="0.94509804" transform="translate(8,33)"/>
<path d="M0,0 L1,0 L1,1 L0,1 Z " fill="#D37648" opacity="0.8156863" transform="translate(7,33)"/>
<path d="M0,0 L1,0 L1,1 L0,1 Z " fill="#E78B5D" opacity="0.7647059" transform="translate(5,33)"/>
<path d="M0,0 L1,0 L1,1 L0,1 Z " fill="#EC9164" opacity="0.87058824" transform="translate(3,33)"/>
<path d="M0,0 L1,0 L1,1 L0,1 Z " fill="#ED9265" opacity="0.9411765" transform="translate(1,33)"/>
<path d="M0,0 L1,0 L1,1 L0,1 Z " fill="#EE9265" opacity="0.9843137" transform="translate(0,33)"/>
<path d="M0,0 L1,0 L1,1 L0,1 Z " fill="#DB895D" opacity="0.72156864" transform="translate(7,29)"/>
<path d="M0,0 L1,0 L1,1 L0,1 Z " fill="#D07144" opacity="0.7529412" transform="translate(5,29)"/>
<path d="M0,0 L1,0 L1,1 L0,1 Z " fill="#C96C40" opacity="0.78039217" transform="translate(3,29)"/>
<path d="M0,0 L1,0 L1,1 L0,1 Z " fill="#C5693D" opacity="0.88235295" transform="translate(1,29)"/>
<path d="M0,0 L1,0 L1,1 L0,1 Z " fill="#C6693D" opacity="0.95686275" transform="translate(0,29)"/>
</svg>
