<?xml version="1.0" encoding="UTF-8"?>
<!-- Generator: visioncortex VTracer 0.6.4 -->
<svg version="1.1" xmlns="http://www.w3.org/2000/svg" width="64" height="64">
<path d="M0,0 L52,0 L52,64 L48,64 L48,63 L45,63 L45,64 L39,64 L39,63 L36,63 L36,64 L28,64 L28,63 L25,63 L25,64 L-5,64 L-5,63 L-8,63 L-8,64 L-12,64 L-12,11 L-11,11 L-11,7 L-10,7 L-10,5 L-9,5 L-9,4 L-8,4 L-8,3 L-7,3 L-7,2 L-6,2 L-6,1 L0,1 Z M-5,4 L-5,5 L-6,5 L-6,6 L-4,6 L-4,5 L0,5 L0,4 Z M-7,6 L-7,7 L-8,7 L-8,16 L-7,16 L-7,12 L-6,12 L-6,11 L-5,11 L-5,10 L-4,10 L-4,9 L0,9 L0,8 L-5,8 L-5,9 L-6,9 L-6,10 L-7,10 L-7,8 L-6,8 L-6,6 Z M3,16 L3,19 L4,19 L4,16 Z M36,16 L36,17 L35,17 L35,23 L32,23 L32,24 L35,24 L35,27 L36,27 L36,24 L40,24 L40,23 L37,23 L37,20 L40,20 L40,19 L37,19 L37,16 Z M0,19 L0,20 L3,20 L3,19 Z M3,20 L3,23 L0,23 L0,24 L4,24 L4,27 L5,27 L5,24 L8,24 L8,23 L5,23 L5,20 Z M5,27 L5,28 L8,28 L8,27 Z M32,27 L32,28 L35,28 L35,27 Z M36,29 L36,30 L39,30 L39,29 Z M43,29 L43,30 L46,30 L46,29 Z M35,30 L35,33 L36,33 L36,30 Z M46,30 L46,33 L47,33 L47,30 Z M1,32 L1,33 L4,33 L4,32 Z M16,32 L16,33 L19,33 L19,32 Z M0,33 L0,36 L1,36 L1,33 Z M19,33 L19,36 L20,36 L20,33 Z M35,37 L35,40 L36,40 L36,37 Z M46,37 L46,40 L47,40 L47,37 Z M36,40 L36,41 L39,41 L39,40 Z M43,40 L43,41 L46,41 L46,40 Z M0,46 L0,51 L1,51 L1,50 L4,50 L4,49 L1,49 L1,46 Z M19,46 L19,49 L16,49 L16,50 L19,50 L19,51 L20,51 L20,46 Z M-8,48 L-8,49 L-5,49 L-5,48 Z M25,48 L25,49 L28,49 L28,48 Z M36,48 L36,49 L39,49 L39,48 Z M45,48 L45,49 L48,49 L48,48 Z M-5,49 L-5,52 L-4,52 L-4,49 Z M24,49 L24,52 L25,52 L25,49 Z M39,49 L39,52 L40,52 L40,49 Z M44,49 L44,52 L45,52 L45,49 Z M1,51 L1,52 L4,52 L4,51 Z M16,51 L16,52 L19,52 L19,51 Z M-5,58 L-5,61 L-8,61 L-8,62 L-5,62 L-5,63 L-4,63 L-4,58 Z M44,58 L44,63 L45,63 L45,62 L48,62 L48,61 L45,61 L45,58 Z M24,60 L24,63 L25,63 L25,60 Z M39,60 L39,63 L40,63 L40,60 Z M36,19 L37,19 L37,20 L36,20 Z M4,23 L5,23 L5,24 L4,24 Z M35,23 L36,23 L36,24 L35,24 Z " fill="#BBC4CB" transform="translate(12,0)"/>
<path d="M0,0 L52,0 L52,24 L40,24 L40,23 L37,23 L37,20 L40,20 L40,19 L37,19 L37,16 L36,16 L36,17 L35,17 L35,23 L32,23 L32,24 L35,24 L35,27 L32,27 L32,28 L8,28 L8,27 L5,27 L5,24 L8,24 L8,23 L5,23 L5,20 L3,20 L3,23 L0,23 L0,24 L-8,24 L-8,64 L-12,64 L-12,11 L-11,11 L-11,7 L-10,7 L-10,5 L-9,5 L-9,4 L-8,4 L-8,3 L-7,3 L-7,2 L-6,2 L-6,1 L0,1 Z M-5,4 L-5,5 L-6,5 L-6,6 L-4,6 L-4,5 L0,5 L0,4 Z M-7,6 L-7,7 L-8,7 L-8,16 L-7,16 L-7,12 L-6,12 L-6,11 L-5,11 L-5,10 L-4,10 L-4,9 L0,9 L0,8 L-5,8 L-5,9 L-6,9 L-6,10 L-7,10 L-7,8 L-6,8 L-6,6 Z M3,16 L3,19 L4,19 L4,16 Z M0,19 L0,20 L3,20 L3,19 Z M36,19 L37,19 L37,20 L36,20 Z M4,23 L5,23 L5,24 L4,24 Z M35,23 L36,23 L36,24 L35,24 Z " fill="#5E5E6D" transform="translate(12,0)"/>
<path d="M0,0 L52,0 L52,4 L-5,4 L-5,5 L-6,5 L-6,6 L-7,6 L-7,7 L-8,7 L-8,20 L3,20 L3,23 L0,23 L0,24 L-8,24 L-8,64 L-12,64 L-12,11 L-11,11 L-11,7 L-10,7 L-10,5 L-9,5 L-9,4 L-8,4 L-8,3 L-7,3 L-7,2 L-6,2 L-6,1 L0,1 Z M4,8 L8,8 L8,23 L5,23 L5,20 L3,20 L3,19 L4,19 Z M32,8 L36,8 L36,17 L35,17 L35,23 L32,23 Z M36,19 L37,19 L37,20 L36,20 Z M37,20 L52,20 L52,24 L40,24 L40,23 L37,23 Z M4,23 L5,23 L5,24 L4,24 Z M35,23 L36,23 L36,24 L35,24 Z M5,24 L35,24 L35,27 L32,27 L32,28 L8,28 L8,27 L5,27 Z " fill="#353541" transform="translate(12,0)"/>
<path d="M0,0 L4,0 L4,15 L1,15 L1,12 L-1,12 L-1,11 L0,11 Z M28,0 L32,0 L32,9 L31,9 L31,15 L28,15 Z M32,11 L33,11 L33,12 L32,12 Z M-12,12 L-1,12 L-1,15 L-4,15 L-4,16 L-12,16 Z M33,12 L48,12 L48,16 L36,16 L36,15 L33,15 Z M0,15 L1,15 L1,16 L0,16 Z M31,15 L32,15 L32,16 L31,16 Z M1,16 L31,16 L31,19 L28,19 L28,20 L4,20 L4,19 L1,19 Z " fill="#424251" transform="translate(16,8)"/>
<path d="M0,0 L12,0 L12,1 L15,1 L15,4 L16,4 L16,14 L15,14 L15,17 L12,17 L12,18 L0,18 L0,17 L-3,17 L-3,14 L-4,14 L-4,4 L-3,4 L-3,1 L0,1 Z " fill="#CFD5DA" transform="translate(16,32)"/>
<path d="M0,0 L32,0 L32,4 L9,4 L9,5 L8,5 L8,4 L4,4 L4,12 L3,12 L3,15 L0,15 L0,16 L-8,16 L-8,12 L-7,12 L-7,8 L-6,8 L-6,7 L-5,7 L-5,6 L-4,6 L-4,5 L0,5 L0,4 L-5,4 L-5,5 L-6,5 L-6,6 L-7,6 L-7,4 L-6,4 L-6,2 L-4,2 L-4,1 L0,1 Z " fill="#5E5E6D" transform="translate(12,4)"/>
<path d="M0,0 L8,0 L8,1 L11,1 L11,4 L12,4 L12,12 L11,12 L11,15 L8,15 L8,16 L0,16 L0,15 L-3,15 L-3,12 L-4,12 L-4,4 L-3,4 L-3,1 L0,1 Z " fill="#A6B2BB" transform="translate(40,48)"/>
<path d="M0,0 L15,0 L15,12 L3,12 L3,11 L0,11 L0,8 L-1,8 L-1,1 L0,1 Z " fill="#5E5E6D" transform="translate(49,8)"/>
<path d="M0,0 L4,0 L4,1 L7,1 L7,4 L8,4 L8,8 L7,8 L7,11 L4,11 L4,12 L0,12 L0,11 L-3,11 L-3,8 L-4,8 L-4,4 L-3,4 L-3,1 L0,1 Z " fill="#A6B2BB" transform="translate(51,29)"/>
<path d="M0,0 L4,0 L4,15 L1,15 L1,12 L-1,12 L-1,11 L0,11 Z M-12,12 L-1,12 L-1,15 L-4,15 L-4,16 L-12,16 Z " fill="#4F4F5D" transform="translate(16,8)"/>
<path d="M0,0 L4,0 L4,14 L0,14 L0,13 L-3,13 L-3,10 L-4,10 L-4,4 L-3,4 L-3,1 L0,1 Z " fill="#A6B2BB" transform="translate(60,48)"/>
<path d="M0,0 L24,0 L24,4 L0,4 Z " fill="#717180" transform="translate(20,4)"/>
<path d="M0,0 L16,0 L16,4 L0,4 Z " fill="#717180" transform="translate(48,4)"/>
<path d="M0,0 L1,0 L1,1 L0,1 Z M1,1 L16,1 L16,5 L4,5 L4,4 L1,4 Z " fill="#424251" transform="translate(48,19)"/>
<path d="M0,0 L4,0 L4,8 L3,8 L3,14 L2,14 L2,15 L0,15 Z " fill="#4F4F5D" transform="translate(44,8)"/>
<path d="M0,0 L1,0 L1,1 L0,1 Z M-1,6 L0,6 L0,7 L-1,7 Z " fill="#4E4E5C" transform="translate(47,16)"/>
<path d="M0,0 L3,0 L3,3 L4,3 L4,9 L3,9 L3,12 L0,12 Z " fill="#A6B2BB" transform="translate(4,49)"/>
<path d="M0,0 L1,0 L1,1 L0,1 Z M-11,1 L0,1 L0,4 L-3,4 L-3,5 L-11,5 Z " fill="#424251" transform="translate(15,19)"/>
<path d="M0,0 L4,0 L4,4 L-5,4 L-5,5 L-6,5 L-6,6 L-7,6 L-7,4 L-6,4 L-6,2 L-4,2 L-4,1 L0,1 Z " fill="#717180" transform="translate(12,4)"/>
<path d="M0,0 L18,0 L18,1 L15,1 L15,2 L3,2 L3,1 L0,1 Z " fill="#A6B2BB" transform="translate(13,50)"/>
<path d="M0,0 L1,0 L1,1 L0,1 Z M-1,1 L0,1 L0,2 L-1,2 Z M-2,2 L-1,2 L-1,3 L-2,3 Z M-3,3 L-2,3 L-2,4 L-3,4 Z " fill="#5E5E6D" transform="translate(8,9)"/>
<path d="M0,0 L1,0 L1,1 L0,1 Z M-1,1 L0,1 L0,2 L-1,2 Z M-2,2 L-1,2 L-1,3 L-2,3 Z M-3,3 L-2,3 L-2,4 L-3,4 Z M-4,4 L-3,4 L-3,5 L-4,5 Z " fill="#353541" transform="translate(6,1)"/>
<path d="M0,0 L7,0 L7,2 L3,2 L3,1 L0,1 Z " fill="#CFD5DA" transform="translate(57,62)"/>
<path d="M0,0 L3,0 L3,1 L0,1 Z " fill="#A6B2BB" transform="translate(13,50)"/>
<path d="M0,0 L1,0 L1,1 L0,1 Z " fill="#4D4D5B" opacity="0.972549" transform="translate(47,18)"/>
<path d="M0,0 L1,0 L1,1 L0,1 Z " fill="#6F6F7F" opacity="0.827451" transform="translate(5,10)"/>
<path d="M0,0 L1,0 L1,1 L0,1 Z " fill="#ADB8C0" opacity="0.81960785" transform="translate(31,49)"/>
<path d="M0,0 L1,0 L1,1 L0,1 Z M1,1 L2,1 L2,2 L1,2 Z " fill="#424252" opacity="0.78039217" transform="translate(16,22)"/>
<path d="M0,0 L3,0 L3,1 L0,1 Z " fill="#CFD5DA" transform="translate(57,62)"/>
<path d="M0,0 L3,0 L3,1 L0,1 Z " fill="#CFD5DA" transform="translate(4,62)"/>
<path d="M0,0 L1,0 L1,1 L0,1 Z " fill="#CAD1D6" opacity="0.827451" transform="translate(56,61)"/>
<path d="M0,0 L1,0 L1,1 L0,1 Z " fill="#C9CFD6" opacity="0.827451" transform="translate(7,61)"/>
<path d="M0,0 L1,0 L1,1 L0,1 Z " fill="#ACB7BF" opacity="0.827451" transform="translate(12,49)"/>
<path d="M0,0 L1,0 L1,1 L0,1 Z M1,1 L2,1 L2,2 L1,2 Z " fill="#424251" transform="translate(16,23)"/>
<path d="M0,0 L1,0 L1,1 L0,1 Z M1,1 L2,1 L2,2 L1,2 Z " fill="#424251" transform="translate(48,19)"/>
<path d="M0,0 L1,0 L1,1 L0,1 Z M-1,1 L0,1 L0,2 L-1,2 Z " fill="#444453" opacity="0.79607844" transform="translate(15,18)"/>
<path d="M0,0 L1,0 L1,1 L0,1 Z " fill="#343440" opacity="0.79607844" transform="translate(0,9)"/>
<path d="M0,0 L1,0 L1,1 L0,1 Z " fill="#5E5E6E" opacity="0.9411765" transform="translate(11,8)"/>
<path d="M0,0 L1,0 L1,1 L0,1 Z " fill="#333340" opacity="0.56078434" transform="translate(1,5)"/>
<path d="M0,0 L1,0 L1,1 L0,1 Z " fill="#707080" opacity="0.98039216" transform="translate(11,4)"/>
<path d="M0,0 L1,0 L1,1 L0,1 Z " fill="#343440" opacity="0.9607843" transform="translate(4,2)"/>
<path d="M0,0 L1,0 L1,1 L0,1 Z " fill="#343440" opacity="0.8039216" transform="translate(9,0)"/>
<path d="M0,0 L1,0 L1,1 L0,1 Z " fill="#CED3D8" opacity="0.9254902" transform="translate(48,23)"/>
<path d="M0,0 L1,0 L1,1 L0,1 Z " fill="#A7B3BC" opacity="0.9490196" transform="translate(15,23)"/>
<path d="M0,0 L1,0 L1,1 L0,1 Z " fill="#C9CFD6" opacity="0.827451" transform="translate(58,63)"/>
<path d="M0,0 L1,0 L1,1 L0,1 Z " fill="#B9C1C9" opacity="0.7921569" transform="translate(50,63)"/>
<path d="M0,0 L1,0 L1,1 L0,1 Z " fill="#ACB7BF" opacity="0.827451" transform="translate(38,63)"/>
<path d="M0,0 L1,0 L1,1 L0,1 Z " fill="#BCC5CD" opacity="0.7921569" transform="translate(6,63)"/>
<path d="M0,0 L1,0 L1,1 L0,1 Z " fill="#B9C2CA" opacity="0.7882353" transform="translate(51,62)"/>
<path d="M0,0 L1,0 L1,1 L0,1 Z " fill="#B9C2CA" opacity="0.7882353" transform="translate(36,62)"/>
<path d="M0,0 L1,0 L1,1 L0,1 Z " fill="#A5B2BA" opacity="0.95686275" transform="translate(59,61)"/>
<path d="M0,0 L1,0 L1,1 L0,1 Z " fill="#A7B3BC" opacity="0.9411765" transform="translate(36,51)"/>
<path d="M0,0 L1,0 L1,1 L0,1 Z " fill="#B9C3C9" opacity="0.7921569" transform="translate(30,51)"/>
<path d="M0,0 L1,0 L1,1 L0,1 Z " fill="#ACB7BF" opacity="0.827451" transform="translate(14,51)"/>
<path d="M0,0 L1,0 L1,1 L0,1 Z " fill="#ACB7BF" opacity="0.827451" transform="translate(56,50)"/>
<path d="M0,0 L1,0 L1,1 L0,1 Z " fill="#ADB6C0" opacity="0.8235294" transform="translate(51,50)"/>
<path d="M0,0 L1,0 L1,1 L0,1 Z " fill="#ADB8C0" opacity="0.81960785" transform="translate(7,50)"/>
<path d="M0,0 L1,0 L1,1 L0,1 Z " fill="#ABB6BF" opacity="0.7921569" transform="translate(30,49)"/>
<path d="M0,0 L1,0 L1,1 L0,1 Z " fill="#CBD2D7" opacity="0.9411765" transform="translate(15,49)"/>
<path d="M0,0 L1,0 L1,1 L0,1 Z " fill="#A6B2BB" transform="translate(4,49)"/>
<path d="M0,0 L1,0 L1,1 L0,1 Z " fill="#ACB8BF" opacity="0.827451" transform="translate(58,48)"/>
<path d="M0,0 L1,0 L1,1 L0,1 Z " fill="#B9C1C9" opacity="0.7921569" transform="translate(50,48)"/>
<path d="M0,0 L1,0 L1,1 L0,1 Z " fill="#A7B3BC" opacity="0.9411765" transform="translate(39,48)"/>
<path d="M0,0 L1,0 L1,1 L0,1 Z M-1,1 L0,1 L0,2 L-1,2 Z " fill="#B8C1C9" opacity="0.7882353" transform="translate(37,48)"/>
<path d="M0,0 L1,0 L1,1 L0,1 Z " fill="#B9C3C9" opacity="0.7921569" transform="translate(6,48)"/>
<path d="M0,0 L1,0 L1,1 L0,1 Z " fill="#B8C2C8" opacity="0.78431374" transform="translate(57,40)"/>
<path d="M0,0 L1,0 L1,1 L0,1 Z " fill="#ACB7BE" opacity="0.83137256" transform="translate(49,40)"/>
<path d="M0,0 L1,0 L1,1 L0,1 Z " fill="#B7C0C8" opacity="0.78039217" transform="translate(58,39)"/>
<path d="M0,0 L1,0 L1,1 L0,1 Z " fill="#B8C1C8" opacity="0.78431374" transform="translate(47,39)"/>
<path d="M0,0 L1,0 L1,1 L0,1 Z " fill="#CAD1D5" opacity="0.81960785" transform="translate(31,34)"/>
<path d="M0,0 L1,0 L1,1 L0,1 Z " fill="#C9CFD6" opacity="0.827451" transform="translate(12,34)"/>
<path d="M0,0 L1,0 L1,1 L0,1 Z " fill="#A7B3BC" opacity="0.9411765" transform="translate(47,32)"/>
<path d="M0,0 L1,0 L1,1 L0,1 Z " fill="#BEC6CD" opacity="0.7921569" transform="translate(30,32)"/>
<path d="M0,0 L1,0 L1,1 L0,1 Z " fill="#CAD1D6" opacity="0.827451" transform="translate(14,32)"/>
<path d="M0,0 L1,0 L1,1 L0,1 Z " fill="#ADB6C0" opacity="0.8235294" transform="translate(58,31)"/>
<path d="M0,0 L1,0 L1,1 L0,1 Z " fill="#B9C1C9" opacity="0.7921569" transform="translate(57,29)"/>
<path d="M0,0 L1,0 L1,1 L0,1 Z " fill="#A7B3BC" opacity="0.9411765" transform="translate(50,29)"/>
<path d="M0,0 L1,0 L1,1 L0,1 Z M-1,1 L0,1 L0,2 L-1,2 Z " fill="#B8C1C9" opacity="0.7882353" transform="translate(48,29)"/>
<path d="M0,0 L1,0 L1,1 L0,1 Z " fill="#484A57" opacity="0.9490196" transform="translate(19,27)"/>
<path d="M0,0 L1,0 L1,1 L0,1 Z " fill="#4A4A59" opacity="0.94509804" transform="translate(51,23)"/>
<path d="M0,0 L1,0 L1,1 L0,1 Z " fill="#424251" opacity="0.78431374" transform="translate(46,23)"/>
<path d="M0,0 L1,0 L1,1 L0,1 Z " fill="#4A4A59" opacity="0.8392157" transform="translate(16,21)"/>
<path d="M0,0 L1,0 L1,1 L0,1 Z " fill="#5B5B6C" opacity="0.972549" transform="translate(51,19)"/>
<path d="M0,0 L1,0 L1,1 L0,1 Z " fill="#5F5F6E" opacity="0.9490196" transform="translate(4,15)"/>
<path d="M0,0 L1,0 L1,1 L0,1 Z " fill="#666675" opacity="0.7764706" transform="translate(4,13)"/>
<path d="M0,0 L1,0 L1,1 L0,1 Z " fill="#6A6A79" opacity="0.8" transform="translate(4,9)"/>
<path d="M0,0 L1,0 L1,1 L0,1 Z " fill="#666675" opacity="0.7764706" transform="translate(9,8)"/>
<path d="M0,0 L1,0 L1,1 L0,1 Z " fill="#717180" opacity="0.9490196" transform="translate(5,7)"/>
<path d="M0,0 L1,0 L1,1 L0,1 Z " fill="#343441" opacity="0.4" transform="translate(0,7)"/>
<path d="M0,0 L1,0 L1,1 L0,1 Z " fill="#6A6A7B" opacity="0.80784315" transform="translate(9,4)"/>
<path d="M0,0 L1,0 L1,1 L0,1 Z " fill="#343440" opacity="0.9490196" transform="translate(2,4)"/>
<path d="M0,0 L1,0 L1,1 L0,1 Z " fill="#343441" opacity="0.64705884" transform="translate(5,1)"/>
<path d="M0,0 L1,0 L1,1 L0,1 Z " fill="#343440" opacity="0.99215686" transform="translate(11,0)"/>
<path d="M0,0 L1,0 L1,1 L0,1 Z " fill="#333340" opacity="0.39215687" transform="translate(7,0)"/>
<path d="M0,0 L1,0 L1,1 L0,1 Z " fill="#CED4D9" opacity="0.9529412" transform="translate(59,63)"/>
<path d="M0,0 L1,0 L1,1 L0,1 Z " fill="#BCC6CC" opacity="0.7921569" transform="translate(57,63)"/>
<path d="M0,0 L1,0 L1,1 L0,1 Z " fill="#ACB7BF" opacity="0.827451" transform="translate(49,63)"/>
<path d="M0,0 L1,0 L1,1 L0,1 Z " fill="#A7B3BC" opacity="0.9529412" transform="translate(48,63)"/>
<path d="M0,0 L1,0 L1,1 L0,1 Z " fill="#A7B3BC" opacity="0.9529412" transform="translate(39,63)"/>
<path d="M0,0 L1,0 L1,1 L0,1 Z " fill="#B7C1C8" opacity="0.7921569" transform="translate(37,63)"/>
<path d="M0,0 L1,0 L1,1 L0,1 Z " fill="#C9CFD6" opacity="0.827451" transform="translate(5,63)"/>
<path d="M0,0 L1,0 L1,1 L0,1 Z " fill="#CED4D9" opacity="0.9529412" transform="translate(4,63)"/>
<path d="M0,0 L1,0 L1,1 L0,1 Z " fill="#BFC6CD" opacity="0.7882353" transform="translate(56,62)"/>
<path d="M0,0 L1,0 L1,1 L0,1 Z " fill="#BFC6CD" opacity="0.7882353" transform="translate(7,62)"/>
<path d="M0,0 L1,0 L1,1 L0,1 Z " fill="#A8B4BE" opacity="0.827451" transform="translate(58,61)"/>
<path d="M0,0 L1,0 L1,1 L0,1 Z " fill="#BDC6CE" opacity="0.78431374" transform="translate(57,61)"/>
<path d="M0,0 L1,0 L1,1 L0,1 Z " fill="#ACB7BF" opacity="0.827451" transform="translate(51,61)"/>
<path d="M0,0 L1,0 L1,1 L0,1 Z " fill="#ACB8BF" opacity="0.827451" transform="translate(36,61)"/>
<path d="M0,0 L1,0 L1,1 L0,1 Z " fill="#BFC7CE" opacity="0.7882353" transform="translate(6,61)"/>
<path d="M0,0 L1,0 L1,1 L0,1 Z " fill="#A8B4BE" opacity="0.827451" transform="translate(5,61)"/>
<path d="M0,0 L1,0 L1,1 L0,1 Z " fill="#A5B2BA" opacity="0.95686275" transform="translate(4,61)"/>
<path d="M0,0 L1,0 L1,1 L0,1 Z " fill="#BDC5CD" opacity="0.7529412" transform="translate(56,60)"/>
<path d="M0,0 L1,0 L1,1 L0,1 Z " fill="#A7B3BC" opacity="0.9372549" transform="translate(51,60)"/>
<path d="M0,0 L1,0 L1,1 L0,1 Z " fill="#A7B3BC" opacity="0.9411765" transform="translate(36,60)"/>
<path d="M0,0 L1,0 L1,1 L0,1 Z " fill="#BEC6CE" opacity="0.7529412" transform="translate(7,60)"/>
<path d="M0,0 L1,0 L1,1 L0,1 Z " fill="#A7B4BC" opacity="0.8352941" transform="translate(56,59)"/>
<path d="M0,0 L1,0 L1,1 L0,1 Z " fill="#A8B4BE" opacity="0.827451" transform="translate(7,59)"/>
<path d="M0,0 L1,0 L1,1 L0,1 Z " fill="#A5B2BA" opacity="0.95686275" transform="translate(56,58)"/>
<path d="M0,0 L1,0 L1,1 L0,1 Z " fill="#A5B2BA" opacity="0.95686275" transform="translate(7,58)"/>
<path d="M0,0 L1,0 L1,1 L0,1 Z " fill="#A6B3BB" opacity="0.95686275" transform="translate(56,51)"/>
<path d="M0,0 L1,0 L1,1 L0,1 Z " fill="#A7B5BC" opacity="0.9372549" transform="translate(51,51)"/>
<path d="M0,0 L1,0 L1,1 L0,1 Z " fill="#ACB7BF" opacity="0.827451" transform="translate(29,51)"/>
<path d="M0,0 L1,0 L1,1 L0,1 Z " fill="#A7B3BC" opacity="0.9372549" transform="translate(28,51)"/>
<path d="M0,0 L1,0 L1,1 L0,1 Z " fill="#A7B3BC" opacity="0.9411765" transform="translate(15,51)"/>
<path d="M0,0 L1,0 L1,1 L0,1 Z " fill="#B7C1C8" opacity="0.7921569" transform="translate(13,51)"/>
<path d="M0,0 L1,0 L1,1 L0,1 Z " fill="#A7B3BC" opacity="0.9529412" transform="translate(7,51)"/>
<path d="M0,0 L1,0 L1,1 L0,1 Z " fill="#ACB7BE" opacity="0.83137256" transform="translate(36,50)"/>
<path d="M0,0 L1,0 L1,1 L0,1 Z " fill="#B8C1C8" opacity="0.8" transform="translate(31,50)"/>
<path d="M0,0 L1,0 L1,1 L0,1 Z " fill="#B9C1C9" opacity="0.7921569" transform="translate(12,50)"/>
<path d="M0,0 L1,0 L1,1 L0,1 Z " fill="#A6B2BB" transform="translate(57,49)"/>
<path d="M0,0 L1,0 L1,1 L0,1 Z " fill="#B7C1C8" opacity="0.7921569" transform="translate(56,49)"/>
<path d="M0,0 L1,0 L1,1 L0,1 Z " fill="#B9C3C9" opacity="0.7921569" transform="translate(51,49)"/>
<path d="M0,0 L1,0 L1,1 L0,1 Z " fill="#A6B2BB" transform="translate(37,49)"/>
<path d="M0,0 L1,0 L1,1 L0,1 Z " fill="#C3CAD1" opacity="0.827451" transform="translate(29,49)"/>
<path d="M0,0 L1,0 L1,1 L0,1 Z " fill="#CCD3D7" opacity="0.9372549" transform="translate(28,49)"/>
<path d="M0,0 L1,0 L1,1 L0,1 Z " fill="#C3CAD1" opacity="0.827451" transform="translate(14,49)"/>
<path d="M0,0 L1,0 L1,1 L0,1 Z " fill="#ABB6BE" opacity="0.7921569" transform="translate(13,49)"/>
<path d="M0,0 L1,0 L1,1 L0,1 Z " fill="#B8C1C8" opacity="0.8" transform="translate(7,49)"/>
<path d="M0,0 L1,0 L1,1 L0,1 Z " fill="#A7B3BC" opacity="0.9411765" transform="translate(59,48)"/>
<path d="M0,0 L1,0 L1,1 L0,1 Z " fill="#B9C2CA" opacity="0.7882353" transform="translate(57,48)"/>
<path d="M0,0 L1,0 L1,1 L0,1 Z " fill="#ACB7BF" opacity="0.827451" transform="translate(49,48)"/>
<path d="M0,0 L1,0 L1,1 L0,1 Z " fill="#A7B3BC" opacity="0.9372549" transform="translate(48,48)"/>
<path d="M0,0 L1,0 L1,1 L0,1 Z " fill="#ACB7BE" opacity="0.83137256" transform="translate(38,48)"/>
<path d="M0,0 L1,0 L1,1 L0,1 Z " fill="#ABB8C0" opacity="0.77254903" transform="translate(31,48)"/>
<path d="M0,0 L1,0 L1,1 L0,1 Z " fill="#ADB6C0" opacity="0.76862746" transform="translate(12,48)"/>
<path d="M0,0 L1,0 L1,1 L0,1 Z " fill="#ACB7BF" opacity="0.827451" transform="translate(5,48)"/>
<path d="M0,0 L1,0 L1,1 L0,1 Z " fill="#A7B3BC" opacity="0.9411765" transform="translate(4,48)"/>
<path d="M0,0 L1,0 L1,1 L0,1 Z " fill="#C2CBD1" opacity="0.81960785" transform="translate(31,47)"/>
<path d="M0,0 L1,0 L1,1 L0,1 Z " fill="#C3CAD1" opacity="0.827451" transform="translate(12,47)"/>
<path d="M0,0 L1,0 L1,1 L0,1 Z " fill="#CDD3D7" opacity="0.9529412" transform="translate(31,46)"/>
<path d="M0,0 L1,0 L1,1 L0,1 Z " fill="#CDD2D9" opacity="0.95686275" transform="translate(12,46)"/>
<path d="M0,0 L1,0 L1,1 L0,1 Z " fill="#ACB8BF" opacity="0.827451" transform="translate(56,40)"/>
<path d="M0,0 L1,0 L1,1 L0,1 Z " fill="#A6B3BB" opacity="0.95686275" transform="translate(55,40)"/>
<path d="M0,0 L1,0 L1,1 L0,1 Z " fill="#A6B3BB" opacity="0.95686275" transform="translate(50,40)"/>
<path d="M0,0 L1,0 L1,1 L0,1 Z " fill="#B8C2C8" opacity="0.78431374" transform="translate(48,40)"/>
<path d="M0,0 L1,0 L1,1 L0,1 Z " fill="#AAB6BF" opacity="0.8352941" transform="translate(58,38)"/>
<path d="M0,0 L1,0 L1,1 L0,1 Z " fill="#ACB7BF" opacity="0.81960785" transform="translate(47,38)"/>
<path d="M0,0 L1,0 L1,1 L0,1 Z " fill="#A5B2BB" opacity="0.99215686" transform="translate(58,37)"/>
<path d="M0,0 L1,0 L1,1 L0,1 Z " fill="#A5B3BB" opacity="0.98039216" transform="translate(47,37)"/>
<path d="M0,0 L1,0 L1,1 L0,1 Z " fill="#CED4D9" opacity="0.9529412" transform="translate(31,35)"/>
<path d="M0,0 L1,0 L1,1 L0,1 Z " fill="#CED3DA" opacity="0.95686275" transform="translate(12,35)"/>
<path d="M0,0 L1,0 L1,1 L0,1 Z " fill="#BDC5CB" opacity="0.8" transform="translate(31,33)"/>
<path d="M0,0 L1,0 L1,1 L0,1 Z " fill="#CFD5DA" transform="translate(13,33)"/>
<path d="M0,0 L1,0 L1,1 L0,1 Z " fill="#BCC6CC" opacity="0.7921569" transform="translate(12,33)"/>
<path d="M0,0 L1,0 L1,1 L0,1 Z " fill="#A7B5BC" opacity="0.9372549" transform="translate(58,32)"/>
<path d="M0,0 L1,0 L1,1 L0,1 Z " fill="#C9CFD6" opacity="0.827451" transform="translate(29,32)"/>
<path d="M0,0 L1,0 L1,1 L0,1 Z " fill="#CDD4D9" opacity="0.9411765" transform="translate(28,32)"/>
<path d="M0,0 L1,0 L1,1 L0,1 Z " fill="#CDD4D9" opacity="0.9411765" transform="translate(15,32)"/>
<path d="M0,0 L1,0 L1,1 L0,1 Z " fill="#BFC6CD" opacity="0.7882353" transform="translate(13,32)"/>
<path d="M0,0 L1,0 L1,1 L0,1 Z " fill="#ACB7BE" opacity="0.83137256" transform="translate(47,31)"/>
<path d="M0,0 L1,0 L1,1 L0,1 Z " fill="#B9C3C9" opacity="0.7921569" transform="translate(58,30)"/>
<path d="M0,0 L1,0 L1,1 L0,1 Z " fill="#A6B2BB" transform="translate(48,30)"/>
<path d="M0,0 L1,0 L1,1 L0,1 Z " fill="#ACB7BF" opacity="0.827451" transform="translate(56,29)"/>
<path d="M0,0 L1,0 L1,1 L0,1 Z " fill="#A7B3BC" opacity="0.9372549" transform="translate(55,29)"/>
<path d="M0,0 L1,0 L1,1 L0,1 Z " fill="#ACB7BE" opacity="0.83137256" transform="translate(49,29)"/>
<path d="M0,0 L1,0 L1,1 L0,1 Z " fill="#ABB2BA" opacity="0.78039217" transform="translate(46,27)"/>
<path d="M0,0 L1,0 L1,1 L0,1 Z " fill="#6A6D7A" opacity="0.8039216" transform="translate(45,27)"/>
<path d="M0,0 L1,0 L1,1 L0,1 Z " fill="#4E4F5D" opacity="0.92156863" transform="translate(44,27)"/>
<path d="M0,0 L1,0 L1,1 L0,1 Z " fill="#676B77" opacity="0.8117647" transform="translate(18,27)"/>
<path d="M0,0 L1,0 L1,1 L0,1 Z " fill="#ABB2BA" opacity="0.78039217" transform="translate(17,27)"/>
<path d="M0,0 L1,0 L1,1 L0,1 Z " fill="#A9B1B8" opacity="0.7764706" transform="translate(47,26)"/>
<path d="M0,0 L1,0 L1,1 L0,1 Z " fill="#A9B1B9" opacity="0.78039217" transform="translate(16,26)"/>
<path d="M0,0 L1,0 L1,1 L0,1 Z " fill="#5F626E" opacity="0.8392157" transform="translate(47,25)"/>
<path d="M0,0 L1,0 L1,1 L0,1 Z " fill="#60636F" opacity="0.8392157" transform="translate(16,25)"/>
<path d="M0,0 L1,0 L1,1 L0,1 Z " fill="#464654" opacity="0.96862745" transform="translate(47,24)"/>
<path d="M0,0 L1,0 L1,1 L0,1 Z " fill="#464654" opacity="0.96862745" transform="translate(16,24)"/>
<path d="M0,0 L1,0 L1,1 L0,1 Z " fill="#5E606E" opacity="0.84313726" transform="translate(50,23)"/>
<path d="M0,0 L1,0 L1,1 L0,1 Z " fill="#A5ACB2" opacity="0.70980394" transform="translate(49,23)"/>
<path d="M0,0 L1,0 L1,1 L0,1 Z " fill="#4A4A59" opacity="0.8117647" transform="translate(45,23)"/>
<path d="M0,0 L1,0 L1,1 L0,1 Z " fill="#4C4C5B" opacity="0.9529412" transform="translate(44,23)"/>
<path d="M0,0 L1,0 L1,1 L0,1 Z " fill="#4D4D5B" opacity="0.9372549" transform="translate(19,23)"/>
<path d="M0,0 L1,0 L1,1 L0,1 Z " fill="#494958" opacity="0.80784315" transform="translate(18,23)"/>
<path d="M0,0 L1,0 L1,1 L0,1 Z " fill="#98A2AC" opacity="0.70980394" transform="translate(14,23)"/>
<path d="M0,0 L1,0 L1,1 L0,1 Z " fill="#636572" opacity="0.827451" transform="translate(13,23)"/>
<path d="M0,0 L1,0 L1,1 L0,1 Z " fill="#474758" opacity="0.9529412" transform="translate(12,23)"/>
<path d="M0,0 L1,0 L1,1 L0,1 Z " fill="#B8BEC4" opacity="0.7764706" transform="translate(48,22)"/>
<path d="M0,0 L1,0 L1,1 L0,1 Z " fill="#434352" opacity="0.7764706" transform="translate(47,22)"/>
<path d="M0,0 L1,0 L1,1 L0,1 Z " fill="#4E4E5C" transform="translate(17,22)"/>
<path d="M0,0 L1,0 L1,1 L0,1 Z " fill="#98A2AC" opacity="0.78431374" transform="translate(15,22)"/>
<path d="M0,0 L1,0 L1,1 L0,1 Z " fill="#5E6170" opacity="0.81960785" transform="translate(48,21)"/>
<path d="M0,0 L1,0 L1,1 L0,1 Z " fill="#4B4B58" opacity="0.8392157" transform="translate(47,21)"/>
<path d="M0,0 L1,0 L1,1 L0,1 Z " fill="#5D616E" opacity="0.827451" transform="translate(15,21)"/>
<path d="M0,0 L1,0 L1,1 L0,1 Z " fill="#464756" opacity="0.9529412" transform="translate(48,20)"/>
<path d="M0,0 L1,0 L1,1 L0,1 Z " fill="#4D4D5B" opacity="0.94509804" transform="translate(47,20)"/>
<path d="M0,0 L1,0 L1,1 L0,1 Z " fill="#4D4D5C" opacity="0.96862745" transform="translate(16,20)"/>
<path d="M0,0 L1,0 L1,1 L0,1 Z " fill="#454655" opacity="0.9647059" transform="translate(15,20)"/>
<path d="M0,0 L1,0 L1,1 L0,1 Z " fill="#565665" opacity="0.8509804" transform="translate(50,19)"/>
<path d="M0,0 L1,0 L1,1 L0,1 Z " fill="#464654" opacity="0.77254903" transform="translate(49,19)"/>
<path d="M0,0 L1,0 L1,1 L0,1 Z " fill="#4D4D5B" opacity="0.9607843" transform="translate(47,19)"/>
<path d="M0,0 L1,0 L1,1 L0,1 Z " fill="#545463" opacity="0.8156863" transform="translate(13,19)"/>
<path d="M0,0 L1,0 L1,1 L0,1 Z " fill="#5B5B6A" opacity="0.9529412" transform="translate(12,19)"/>
<path d="M0,0 L1,0 L1,1 L0,1 Z " fill="#5D5D6C" transform="translate(49,18)"/>
<path d="M0,0 L1,0 L1,1 L0,1 Z " fill="#454554" opacity="0.7764706" transform="translate(48,18)"/>
<path d="M0,0 L1,0 L1,1 L0,1 Z " fill="#5D5D6C" transform="translate(14,18)"/>
<path d="M0,0 L1,0 L1,1 L0,1 Z " fill="#565664" opacity="0.8392157" transform="translate(48,17)"/>
<path d="M0,0 L1,0 L1,1 L0,1 Z " fill="#4D4D5B" opacity="0.9843137" transform="translate(47,17)"/>
<path d="M0,0 L1,0 L1,1 L0,1 Z " fill="#545463" opacity="0.81960785" transform="translate(15,17)"/>
<path d="M0,0 L1,0 L1,1 L0,1 Z " fill="#5C5C6A" opacity="0.96862745" transform="translate(48,16)"/>
<path d="M0,0 L1,0 L1,1 L0,1 Z " fill="#4E4E5C" transform="translate(47,16)"/>
<path d="M0,0 L1,0 L1,1 L0,1 Z " fill="#5B5B6B" opacity="0.95686275" transform="translate(15,16)"/>
<path d="M0,0 L1,0 L1,1 L0,1 Z " fill="#606070" opacity="0.8666667" transform="translate(4,14)"/>
<path d="M0,0 L1,0 L1,1 L0,1 Z " fill="#6D6D7C" opacity="0.77254903" transform="translate(4,12)"/>
<path d="M0,0 L1,0 L1,1 L0,1 Z " fill="#606070" opacity="0.8745098" transform="translate(5,11)"/>
<path d="M0,0 L1,0 L1,1 L0,1 Z " fill="#707080" opacity="0.94509804" transform="translate(4,11)"/>
<path d="M0,0 L1,0 L1,1 L0,1 Z " fill="#5E5E6E" opacity="0.9647059" transform="translate(6,10)"/>
<path d="M0,0 L1,0 L1,1 L0,1 Z " fill="#6F6F7E" opacity="0.8745098" transform="translate(4,10)"/>
<path d="M0,0 L1,0 L1,1 L0,1 Z " fill="#353540" opacity="0.94509804" transform="translate(0,10)"/>
<path d="M0,0 L1,0 L1,1 L0,1 Z " fill="#5F5F70" opacity="0.8862745" transform="translate(7,9)"/>
<path d="M0,0 L1,0 L1,1 L0,1 Z " fill="#6E6E7F" opacity="0.84313726" transform="translate(6,9)"/>
<path d="M0,0 L1,0 L1,1 L0,1 Z " fill="#616171" opacity="0.84313726" transform="translate(10,8)"/>
<path d="M0,0 L1,0 L1,1 L0,1 Z " fill="#6E6E7D" opacity="0.7921569" transform="translate(8,8)"/>
<path d="M0,0 L1,0 L1,1 L0,1 Z " fill="#707080" opacity="0.99607843" transform="translate(7,8)"/>
<path d="M0,0 L1,0 L1,1 L0,1 Z " fill="#5E5E6D" opacity="0.7529412" transform="translate(4,8)"/>
<path d="M0,0 L1,0 L1,1 L0,1 Z " fill="#353540" opacity="0.6431373" transform="translate(0,8)"/>
<path d="M0,0 L1,0 L1,1 L0,1 Z " fill="#3A3A48" opacity="0.90588236" transform="translate(4,7)"/>
<path d="M0,0 L1,0 L1,1 L0,1 Z " fill="#717180" transform="translate(6,6)"/>
<path d="M0,0 L1,0 L1,1 L0,1 Z " fill="#545462" opacity="0.7647059" transform="translate(5,6)"/>
<path d="M0,0 L1,0 L1,1 L0,1 Z " fill="#343440" opacity="0.9764706" transform="translate(1,6)"/>
<path d="M0,0 L1,0 L1,1 L0,1 Z " fill="#30303C" opacity="0.08235294" transform="translate(0,6)"/>
<path d="M0,0 L1,0 L1,1 L0,1 Z " fill="#717180" opacity="0.9647059" transform="translate(7,5)"/>
<path d="M0,0 L1,0 L1,1 L0,1 Z " fill="#4F4F5E" opacity="0.77254903" transform="translate(6,5)"/>
<path d="M0,0 L1,0 L1,1 L0,1 Z " fill="#6F6F7E" opacity="0.8862745" transform="translate(10,4)"/>
<path d="M0,0 L1,0 L1,1 L0,1 Z " fill="#565664" opacity="0.75686276" transform="translate(8,4)"/>
<path d="M0,0 L1,0 L1,1 L0,1 Z " fill="#383845" opacity="0.9372549" transform="translate(7,4)"/>
<path d="M0,0 L1,0 L1,1 L0,1 Z " fill="#333340" opacity="0.078431375" transform="translate(1,4)"/>
<path d="M0,0 L1,0 L1,1 L0,1 Z " fill="#343440" opacity="0.98039216" transform="translate(3,3)"/>
<path d="M0,0 L1,0 L1,1 L0,1 Z " fill="#323240" opacity="0.29803923" transform="translate(2,3)"/>
<path d="M0,0 L1,0 L1,1 L0,1 Z " fill="#32323F" opacity="0.31764707" transform="translate(3,2)"/>
<path d="M0,0 L1,0 L1,1 L0,1 Z " fill="#363640" opacity="0.10980392" transform="translate(4,1)"/>
<path d="M0,0 L1,0 L1,1 L0,1 Z " fill="#343440" opacity="0.9019608" transform="translate(10,0)"/>
<path d="M0,0 L1,0 L1,1 L0,1 Z " fill="#343440" opacity="0.6745098" transform="translate(8,0)"/>
<path d="M0,0 L1,0 L1,1 L0,1 Z " fill="#353540" opacity="0.09411765" transform="translate(6,0)"/>
</svg>
