<?xml version="1.0" encoding="UTF-8"?>
<!-- Generator: visioncortex VTracer 0.6.4 -->
<svg version="1.1" xmlns="http://www.w3.org/2000/svg" width="64" height="64">
<path d="M0,0 L16,0 L16,1 L20,1 L20,2 L22,2 L22,4 L23,4 L23,7 L24,7 L24,8 L25,8 L25,9 L26,9 L26,10 L27,10 L27,16 L28,16 L28,24 L27,24 L27,29 L26,29 L26,31 L25,31 L25,33 L23,33 L23,34 L21,34 L21,35 L16,35 L16,36 L15,36 L15,37 L14,37 L14,38 L13,38 L13,39 L10,39 L10,40 L6,40 L6,39 L3,39 L3,38 L2,38 L2,37 L1,37 L1,36 L0,36 L0,35 L-5,35 L-5,34 L-7,34 L-7,33 L-9,33 L-9,31 L-10,31 L-10,29 L-11,29 L-11,24 L-12,24 L-12,16 L-11,16 L-11,10 L-10,10 L-10,9 L-9,9 L-9,8 L-8,8 L-8,7 L-7,7 L-7,4 L-6,4 L-6,2 L-4,2 L-4,1 L0,1 Z " fill="#BBC4CB" transform="translate(24,24)"/>
<path d="M0,0 L16,0 L16,1 L20,1 L20,2 L22,2 L22,4 L23,4 L23,7 L24,7 L24,8 L25,8 L25,9 L26,9 L26,10 L27,10 L27,16 L28,16 L28,24 L27,24 L27,29 L26,29 L26,31 L25,31 L25,33 L23,33 L23,34 L21,34 L21,35 L16,35 L16,36 L15,36 L15,37 L14,37 L14,38 L13,38 L13,39 L10,39 L10,40 L6,40 L6,39 L3,39 L3,38 L2,38 L2,37 L1,37 L1,36 L0,36 L0,35 L-5,35 L-5,34 L-7,34 L-7,33 L-9,33 L-9,31 L-10,31 L-10,29 L-11,29 L-11,24 L-12,24 L-12,16 L-11,16 L-11,10 L-10,10 L-10,9 L-9,9 L-9,8 L-8,8 L-8,7 L-7,7 L-7,4 L-6,4 L-6,2 L-4,2 L-4,1 L0,1 Z M-2,4 L-2,5 L-3,5 L-3,6 L-4,6 L-4,9 L-5,9 L-5,10 L-6,10 L-6,11 L-7,11 L-7,12 L-8,12 L-8,28 L-7,28 L-7,29 L-6,29 L-6,30 L-5,30 L-5,31 L-4,31 L-4,32 L4,32 L4,36 L11,36 L11,35 L12,35 L12,34 L13,34 L13,32 L20,32 L20,31 L21,31 L21,30 L22,30 L22,29 L23,29 L23,28 L24,28 L24,12 L23,12 L23,11 L22,11 L22,10 L21,10 L21,9 L20,9 L20,6 L19,6 L19,5 L18,5 L18,4 Z " fill="#353541" transform="translate(24,24)"/>
<path d="M0,0 L20,0 L20,1 L21,1 L21,2 L22,2 L22,10 L21,10 L21,11 L20,11 L20,12 L0,12 L0,11 L-1,11 L-1,10 L-2,10 L-2,2 L-1,2 L-1,1 L0,1 Z " fill="#BBC4CB" transform="translate(22,28)"/>
<path d="M0,0 L1,0 L1,1 L2,1 L2,2 L3,2 L3,3 L4,3 L4,19 L3,19 L3,20 L2,20 L2,21 L1,21 L1,22 L0,22 L0,23 L-7,23 L-7,19 L-2,19 L-2,18 L-1,18 L-1,17 L0,17 L0,13 L-1,13 L-1,12 L-2,12 L-2,11 L-5,11 L-5,7 L-2,7 L-2,6 L-1,6 L-1,5 L0,5 Z " fill="#DE7E4F" transform="translate(44,33)"/>
<path d="M0,0 L1,0 L1,5 L2,5 L2,6 L3,6 L3,7 L6,7 L6,11 L3,11 L3,12 L2,12 L2,13 L1,13 L1,17 L2,17 L2,18 L3,18 L3,19 L8,19 L8,23 L1,23 L1,22 L0,22 L0,21 L-1,21 L-1,20 L-2,20 L-2,19 L-3,19 L-3,3 L-2,3 L-2,2 L-1,2 L-1,1 L0,1 Z " fill="#DE7E4F" transform="translate(19,33)"/>
<path d="M0,0 L20,0 L20,1 L21,1 L21,2 L22,2 L22,5 L21,5 L21,4 L-1,4 L-1,5 L-2,5 L-2,2 L-1,2 L-1,1 L0,1 Z " fill="#E8EBEE" transform="translate(22,28)"/>
<path d="M0,0 L10,0 L10,6 L9,6 L9,7 L8,7 L8,8 L1,8 L1,4 L0,4 Z " fill="#92A1AD" transform="translate(27,52)"/>
<path d="M0,0 L14,0 L14,4 L0,4 Z " fill="#92A1AD" transform="translate(25,40)"/>
<path d="M0,0 L2,0 L2,1 L1,1 L1,2 L0,2 L0,3 L-1,3 L-1,4 L-2,4 L-2,2 L-1,2 L-1,1 L0,1 Z " fill="#BBC4CB" transform="translate(22,44)"/>
<path d="M0,0 L1,0 L1,1 L0,1 Z " fill="#343440" opacity="0.8352941" transform="translate(42,59)"/>
<path d="M0,0 L1,0 L1,1 L0,1 Z " fill="#343440" opacity="0.8352941" transform="translate(51,50)"/>
<path d="M0,0 L1,0 L1,1 L0,1 Z " fill="#343440" opacity="0.8352941" transform="translate(12,50)"/>
<path d="M0,0 L1,0 L1,1 L0,1 Z " fill="#343441" opacity="0.972549" transform="translate(47,30)"/>
<path d="M0,0 L1,0 L1,1 L0,1 Z " fill="#353540" opacity="0.9647059" transform="translate(16,30)"/>
<path d="M0,0 L1,0 L1,1 L0,1 Z " fill="#353540" opacity="0.9647059" transform="translate(29,63)"/>
<path d="M0,0 L1,0 L1,1 L0,1 Z " fill="#343440" opacity="0.8352941" transform="translate(21,59)"/>
<path d="M0,0 L1,0 L1,1 L0,1 Z " fill="#343441" opacity="0.972549" transform="translate(16,57)"/>
<path d="M0,0 L4,0 L4,1 L0,1 Z " fill="#D87B4E" transform="translate(20,55)"/>
<path d="M0,0 L1,0 L1,4 L0,4 Z " fill="#D87B4E" transform="translate(47,36)"/>
<path d="M0,0 L1,0 L1,4 L0,4 Z " fill="#D87B4E" transform="translate(16,36)"/>
<path d="M0,0 L1,0 L1,1 L0,1 Z " fill="#343441" opacity="0.8" transform="translate(51,37)"/>
<path d="M0,0 L1,0 L1,1 L0,1 Z " fill="#343440" opacity="0.8039216" transform="translate(12,37)"/>
<path d="M0,0 L1,0 L1,1 L0,1 Z " fill="#343440" opacity="0.627451" transform="translate(13,33)"/>
<path d="M0,0 L1,0 L1,1 L0,1 Z " fill="#343440" opacity="0.9529412" transform="translate(49,32)"/>
<path d="M0,0 L1,0 L1,1 L0,1 Z " fill="#343440" opacity="0.9137255" transform="translate(19,25)"/>
<path d="M0,0 L1,0 L1,1 L0,1 Z " fill="#353540" opacity="0.69803923" transform="translate(42,24)"/>
<path d="M0,0 L1,0 L1,1 L0,1 Z " fill="#353540" opacity="0.9647059" transform="translate(25,61)"/>
<path d="M0,0 L1,0 L1,1 L0,1 Z " fill="#343441" opacity="0.972549" transform="translate(14,55)"/>
<path d="M0,0 L1,0 L1,2 L-1,2 L-1,1 L0,1 Z " fill="#BBC4CB" transform="translate(21,32)"/>
<path d="M0,0 L1,0 L1,1 L0,1 Z " fill="#343440" opacity="0.5568628" transform="translate(27,63)"/>
<path d="M0,0 L1,0 L1,1 L0,1 Z " fill="#313140" opacity="0.14117648" transform="translate(45,59)"/>
<path d="M0,0 L2,0 L2,1 L0,1 Z " fill="#8A98A4" transform="translate(28,59)"/>
<path d="M0,0 L1,0 L1,1 L0,1 Z " fill="#343441" opacity="0.972549" transform="translate(23,59)"/>
<path d="M0,0 L1,0 L1,1 L0,1 Z " fill="#343440" opacity="0.42352942" transform="translate(19,59)"/>
<path d="M0,0 L1,0 L1,2 L0,2 Z " fill="#5D646F" transform="translate(36,56)"/>
<path d="M0,0 L1,0 L1,2 L0,2 Z " fill="#5A606B" transform="translate(27,56)"/>
<path d="M0,0 L1,0 L1,1 L0,1 Z M-1,1 L0,1 L0,2 L-1,2 Z " fill="#333340" opacity="0.39215687" transform="translate(49,56)"/>
<path d="M0,0 L2,0 L2,1 L0,1 Z " fill="#845747" transform="translate(42,55)"/>
<path d="M0,0 L2,0 L2,1 L0,1 Z " fill="#B06A4A" transform="translate(20,55)"/>
<path d="M0,0 L1,0 L1,1 L0,1 Z " fill="#313140" opacity="0.14117648" transform="translate(51,53)"/>
<path d="M0,0 L1,0 L1,1 L0,1 Z M-1,1 L0,1 L0,2 L-1,2 Z " fill="#745046" transform="translate(46,53)"/>
<path d="M0,0 L1,0 L1,2 L0,2 Z " fill="#D78157" transform="translate(37,52)"/>
<path d="M0,0 L1,0 L1,2 L0,2 Z " fill="#D98055" transform="translate(26,52)"/>
<path d="M0,0 L1,0 L1,1 L0,1 Z " fill="#313140" opacity="0.14117648" transform="translate(12,53)"/>
<path d="M0,0 L1,0 L1,2 L0,2 Z " fill="#845747" transform="translate(47,50)"/>
<path d="M0,0 L2,0 L2,1 L0,1 Z " fill="#BEBDBE" transform="translate(22,51)"/>
<path d="M0,0 L1,0 L1,2 L0,2 Z " fill="#855747" transform="translate(16,50)"/>
<path d="M0,0 L1,0 L1,1 L0,1 Z M-1,1 L0,1 L0,2 L-1,2 Z " fill="#DB855A" transform="translate(43,50)"/>
<path d="M0,0 L1,0 L1,2 L0,2 Z " fill="#BEBDBE" transform="translate(43,46)"/>
<path d="M0,0 L1,0 L1,2 L0,2 Z " fill="#BDBEC0" transform="translate(20,46)"/>
<path d="M0,0 L2,0 L2,1 L0,1 Z " fill="#BDBEC0" transform="translate(22,44)"/>
<path d="M0,0 L1,0 L1,1 L0,1 Z M-1,1 L0,1 L0,2 L-1,2 Z " fill="#D98860" transform="translate(21,44)"/>
<path d="M0,0 L1,0 L1,2 L0,2 Z " fill="#D88056" transform="translate(39,40)"/>
<path d="M0,0 L1,0 L1,2 L0,2 Z " fill="#D78056" transform="translate(24,40)"/>
<path d="M0,0 L1,0 L1,1 L0,1 Z " fill="#353540" opacity="0.9647059" transform="translate(51,39)"/>
<path d="M0,0 L2,0 L2,1 L0,1 Z " fill="#BDBFC3" transform="translate(22,39)"/>
<path d="M0,0 L1,0 L1,1 L0,1 Z " fill="#353540" opacity="0.9647059" transform="translate(12,39)"/>
<path d="M0,0 L1,0 L1,2 L0,2 Z " fill="#B06A4A" transform="translate(47,36)"/>
<path d="M0,0 L1,0 L1,2 L0,2 Z " fill="#B26B4A" transform="translate(16,36)"/>
<path d="M0,0 L1,0 L1,1 L0,1 Z " fill="#333340" opacity="0.37254903" transform="translate(51,35)"/>
<path d="M0,0 L1,0 L1,2 L0,2 Z " fill="#BDC0C5" transform="translate(43,34)"/>
<path d="M0,0 L1,0 L1,2 L0,2 Z " fill="#BCC1C6" transform="translate(20,34)"/>
<path d="M0,0 L1,0 L1,1 L0,1 Z " fill="#353540" opacity="0.3764706" transform="translate(12,35)"/>
<path d="M0,0 L1,0 L1,2 L0,2 Z " fill="#DE7E4F" transform="translate(44,33)"/>
<path d="M0,0 L1,0 L1,1 L0,1 Z M-1,1 L0,1 L0,2 L-1,2 Z " fill="#795246" transform="translate(18,33)"/>
<path d="M0,0 L2,0 L2,1 L0,1 Z " fill="#BDBFC3" transform="translate(22,32)"/>
<path d="M0,0 L1,0 L1,1 L0,1 Z " fill="#343440" opacity="0.9490196" transform="translate(14,32)"/>
<path d="M0,0 L1,0 L1,2 L0,2 Z " fill="#DBDEE2" transform="translate(43,30)"/>
<path d="M0,0 L1,0 L1,2 L0,2 Z " fill="#DCDFE3" transform="translate(20,30)"/>
<path d="M0,0 L1,0 L1,1 L0,1 Z " fill="#343441" opacity="0.38431373" transform="translate(47,28)"/>
<path d="M0,0 L2,0 L2,1 L0,1 Z " fill="#DCDFE3" transform="translate(22,28)"/>
<path d="M0,0 L1,0 L1,1 L0,1 Z M-1,1 L0,1 L0,2 L-1,2 Z " fill="#6C6D76" transform="translate(21,28)"/>
<path d="M0,0 L1,0 L1,1 L0,1 Z " fill="#333340" opacity="0.37254903" transform="translate(16,28)"/>
<path d="M0,0 L1,0 L1,1 L0,1 Z " fill="#343440" opacity="0.9607843" transform="translate(46,27)"/>
<path d="M0,0 L1,0 L1,1 L0,1 Z " fill="#343440" opacity="0.9607843" transform="translate(17,27)"/>
<path d="M0,0 L1,0 L1,1 L0,1 Z " fill="#343440" opacity="0.81960785" transform="translate(22,24)"/>
<path d="M0,0 L1,0 L1,1 L0,1 Z " fill="#353540" opacity="0.43529412" transform="translate(20,24)"/>
<path d="M0,0 L1,0 L1,1 L0,1 Z " fill="#333340" opacity="0.078431375" transform="translate(37,63)"/>
<path d="M0,0 L1,0 L1,1 L0,1 Z " fill="#343440" opacity="0.5568628" transform="translate(36,63)"/>
<path d="M0,0 L1,0 L1,1 L0,1 Z " fill="#343440" opacity="0.8039216" transform="translate(35,63)"/>
<path d="M0,0 L1,0 L1,1 L0,1 Z " fill="#353540" opacity="0.9647059" transform="translate(34,63)"/>
<path d="M0,0 L1,0 L1,1 L0,1 Z " fill="#343440" opacity="0.8039216" transform="translate(28,63)"/>
<path d="M0,0 L1,0 L1,1 L0,1 Z " fill="#343440" opacity="0.07450981" transform="translate(26,63)"/>
<path d="M0,0 L1,0 L1,1 L0,1 Z " fill="#333340" opacity="0.29411766" transform="translate(38,62)"/>
<path d="M0,0 L1,0 L1,1 L0,1 Z " fill="#343440" opacity="0.9372549" transform="translate(37,62)"/>
<path d="M0,0 L1,0 L1,1 L0,1 Z " fill="#343440" opacity="0.92941177" transform="translate(26,62)"/>
<path d="M0,0 L1,0 L1,1 L0,1 Z " fill="#323240" opacity="0.29803923" transform="translate(25,62)"/>
<path d="M0,0 L1,0 L1,1 L0,1 Z " fill="#353540" opacity="0.1882353" transform="translate(39,61)"/>
<path d="M0,0 L1,0 L1,1 L0,1 Z " fill="#343440" opacity="0.9607843" transform="translate(38,61)"/>
<path d="M0,0 L1,0 L1,1 L0,1 Z " fill="#353540" opacity="0.1882353" transform="translate(24,61)"/>
<path d="M0,0 L1,0 L1,1 L0,1 Z " fill="#343440" opacity="0.74509805" transform="translate(39,60)"/>
<path d="M0,0 L1,0 L1,1 L0,1 Z " fill="#353540" opacity="0.7176471" transform="translate(24,60)"/>
<path d="M0,0 L1,0 L1,1 L0,1 Z " fill="#343440" opacity="0.42352942" transform="translate(44,59)"/>
<path d="M0,0 L1,0 L1,1 L0,1 Z " fill="#343440" opacity="0.654902" transform="translate(43,59)"/>
<path d="M0,0 L1,0 L1,1 L0,1 Z " fill="#343440" opacity="0.9019608" transform="translate(41,59)"/>
<path d="M0,0 L1,0 L1,1 L0,1 Z " fill="#343440" opacity="0.96862745" transform="translate(40,59)"/>
<path d="M0,0 L1,0 L1,1 L0,1 Z " fill="#616875" transform="translate(35,59)"/>
<path d="M0,0 L1,0 L1,1 L0,1 Z " fill="#8A97A3" transform="translate(34,59)"/>
<path d="M0,0 L1,0 L1,1 L0,1 Z " fill="#616874" transform="translate(28,59)"/>
<path d="M0,0 L1,0 L1,1 L0,1 Z " fill="#343440" opacity="0.9019608" transform="translate(22,59)"/>
<path d="M0,0 L1,0 L1,1 L0,1 Z " fill="#343440" opacity="0.654902" transform="translate(20,59)"/>
<path d="M0,0 L1,0 L1,1 L0,1 Z " fill="#313140" opacity="0.14117648" transform="translate(18,59)"/>
<path d="M0,0 L1,0 L1,1 L0,1 Z " fill="#313141" opacity="0.18431373" transform="translate(47,58)"/>
<path d="M0,0 L1,0 L1,1 L0,1 Z " fill="#343440" opacity="0.68235296" transform="translate(46,58)"/>
<path d="M0,0 L1,0 L1,1 L0,1 Z " fill="#343440" opacity="0.99607843" transform="translate(45,58)"/>
<path d="M0,0 L1,0 L1,1 L0,1 Z " fill="#464955" transform="translate(36,58)"/>
<path d="M0,0 L1,0 L1,1 L0,1 Z " fill="#91A0AC" transform="translate(28,58)"/>
<path d="M0,0 L1,0 L1,1 L0,1 Z " fill="#434551" transform="translate(27,58)"/>
<path d="M0,0 L1,0 L1,1 L0,1 Z " fill="#343440" opacity="0.99607843" transform="translate(18,58)"/>
<path d="M0,0 L1,0 L1,1 L0,1 Z " fill="#343440" opacity="0.68235296" transform="translate(17,58)"/>
<path d="M0,0 L1,0 L1,1 L0,1 Z " fill="#313141" opacity="0.18431373" transform="translate(16,58)"/>
<path d="M0,0 L1,0 L1,1 L0,1 Z " fill="#343441" opacity="0.972549" transform="translate(47,57)"/>
<path d="M0,0 L1,0 L1,1 L0,1 Z " fill="#333340" opacity="0.39215687" transform="translate(15,57)"/>
<path d="M0,0 L1,0 L1,1 L0,1 Z " fill="#353541" transform="translate(37,56)"/>
<path d="M0,0 L1,0 L1,1 L0,1 Z " fill="#6C7582" transform="translate(36,56)"/>
<path d="M0,0 L1,0 L1,1 L0,1 Z " fill="#69727D" transform="translate(27,56)"/>
<path d="M0,0 L1,0 L1,1 L0,1 Z " fill="#35353F" opacity="0.39607844" transform="translate(14,56)"/>
<path d="M0,0 L1,0 L1,1 L0,1 Z " fill="#313141" opacity="0.18431373" transform="translate(50,55)"/>
<path d="M0,0 L1,0 L1,1 L0,1 Z " fill="#343441" opacity="0.972549" transform="translate(49,55)"/>
<path d="M0,0 L1,0 L1,1 L0,1 Z " fill="#423A41" transform="translate(44,55)"/>
<path d="M0,0 L1,0 L1,1 L0,1 Z " fill="#B06A4A" transform="translate(42,55)"/>
<path d="M0,0 L1,0 L1,1 L0,1 Z " fill="#CD764D" transform="translate(41,55)"/>
<path d="M0,0 L1,0 L1,1 L0,1 Z " fill="#D87B4E" transform="translate(40,55)"/>
<path d="M0,0 L1,0 L1,1 L0,1 Z " fill="#A49897" transform="translate(36,55)"/>
<path d="M0,0 L1,0 L1,1 L0,1 Z " fill="#A69794" transform="translate(27,55)"/>
<path d="M0,0 L1,0 L1,1 L0,1 Z " fill="#CD764D" transform="translate(22,55)"/>
<path d="M0,0 L1,0 L1,1 L0,1 Z " fill="#845747" transform="translate(20,55)"/>
<path d="M0,0 L1,0 L1,1 L0,1 Z " fill="#433A41" transform="translate(19,55)"/>
<path d="M0,0 L1,0 L1,1 L0,1 Z " fill="#313141" opacity="0.18431373" transform="translate(13,55)"/>
<path d="M0,0 L1,0 L1,1 L0,1 Z " fill="#343440" opacity="0.68235296" transform="translate(50,54)"/>
<path d="M0,0 L1,0 L1,1 L0,1 Z " fill="#D87B4E" transform="translate(44,54)"/>
<path d="M0,0 L1,0 L1,1 L0,1 Z " fill="#969EA7" transform="translate(36,54)"/>
<path d="M0,0 L1,0 L1,1 L0,1 Z " fill="#999DA4" transform="translate(27,54)"/>
<path d="M0,0 L1,0 L1,1 L0,1 Z " fill="#D87B4E" transform="translate(19,54)"/>
<path d="M0,0 L1,0 L1,1 L0,1 Z " fill="#775146" transform="translate(18,54)"/>
<path d="M0,0 L1,0 L1,1 L0,1 Z " fill="#343440" opacity="0.6862745" transform="translate(13,54)"/>
<path d="M0,0 L1,0 L1,1 L0,1 Z " fill="#343440" opacity="0.99607843" transform="translate(50,53)"/>
<path d="M0,0 L1,0 L1,1 L0,1 Z " fill="#785246" transform="translate(17,53)"/>
<path d="M0,0 L1,0 L1,1 L0,1 Z " fill="#343440" opacity="0.99607843" transform="translate(13,53)"/>
<path d="M0,0 L1,0 L1,1 L0,1 Z " fill="#343440" opacity="0.42352942" transform="translate(51,52)"/>
<path d="M0,0 L1,0 L1,1 L0,1 Z " fill="#423A41" transform="translate(47,52)"/>
<path d="M0,0 L1,0 L1,1 L0,1 Z " fill="#D87B4E" transform="translate(46,52)"/>
<path d="M0,0 L1,0 L1,1 L0,1 Z " fill="#DE7E4F" transform="translate(38,52)"/>
<path d="M0,0 L1,0 L1,1 L0,1 Z " fill="#CA8767" transform="translate(37,52)"/>
<path d="M0,0 L1,0 L1,1 L0,1 Z " fill="#CB8665" transform="translate(26,52)"/>
<path d="M0,0 L1,0 L1,1 L0,1 Z " fill="#D87B4E" transform="translate(17,52)"/>
<path d="M0,0 L1,0 L1,1 L0,1 Z " fill="#433B42" transform="translate(16,52)"/>
<path d="M0,0 L1,0 L1,1 L0,1 Z " fill="#33333F" opacity="0.42745098" transform="translate(12,52)"/>
<path d="M0,0 L1,0 L1,1 L0,1 Z " fill="#343440" opacity="0.654902" transform="translate(51,51)"/>
<path d="M0,0 L1,0 L1,1 L0,1 Z " fill="#C7AB9E" transform="translate(41,51)"/>
<path d="M0,0 L1,0 L1,1 L0,1 Z " fill="#BEBCBF" transform="translate(40,51)"/>
<path d="M0,0 L1,0 L1,1 L0,1 Z " fill="#C7ACA1" transform="translate(22,51)"/>
<path d="M0,0 L1,0 L1,1 L0,1 Z " fill="#DA865C" transform="translate(21,51)"/>
<path d="M0,0 L1,0 L1,1 L0,1 Z " fill="#333340" opacity="0.65882355" transform="translate(12,51)"/>
<path d="M0,0 L1,0 L1,1 L0,1 Z " fill="#B06A4A" transform="translate(47,50)"/>
<path d="M0,0 L1,0 L1,1 L0,1 Z " fill="#BEBDBE" transform="translate(42,50)"/>
<path d="M0,0 L1,0 L1,1 L0,1 Z " fill="#BDBEC2" transform="translate(21,50)"/>
<path d="M0,0 L1,0 L1,1 L0,1 Z " fill="#D9865D" transform="translate(20,50)"/>
<path d="M0,0 L1,0 L1,1 L0,1 Z " fill="#B16A4B" transform="translate(16,50)"/>
<path d="M0,0 L1,0 L1,1 L0,1 Z " fill="#343440" opacity="0.9019608" transform="translate(51,49)"/>
<path d="M0,0 L1,0 L1,1 L0,1 Z " fill="#CD764D" transform="translate(47,49)"/>
<path d="M0,0 L1,0 L1,1 L0,1 Z " fill="#C7AB9E" transform="translate(43,49)"/>
<path d="M0,0 L1,0 L1,1 L0,1 Z " fill="#C6ACA2" transform="translate(20,49)"/>
<path d="M0,0 L1,0 L1,1 L0,1 Z " fill="#CE764D" transform="translate(16,49)"/>
<path d="M0,0 L1,0 L1,1 L0,1 Z " fill="#353540" opacity="0.90588236" transform="translate(12,49)"/>
<path d="M0,0 L1,0 L1,1 L0,1 Z " fill="#343440" opacity="0.96862745" transform="translate(51,48)"/>
<path d="M0,0 L1,0 L1,1 L0,1 Z " fill="#D87B4E" transform="translate(47,48)"/>
<path d="M0,0 L1,0 L1,1 L0,1 Z " fill="#BEBCBF" transform="translate(43,48)"/>
<path d="M0,0 L1,0 L1,1 L0,1 Z " fill="#BDBEC0" transform="translate(20,48)"/>
<path d="M0,0 L1,0 L1,1 L0,1 Z " fill="#D87B4E" transform="translate(16,48)"/>
<path d="M0,0 L1,0 L1,1 L0,1 Z " fill="#343441" opacity="0.972549" transform="translate(12,48)"/>
<path d="M0,0 L1,0 L1,1 L0,1 Z " fill="#C7ACA1" transform="translate(43,46)"/>
<path d="M0,0 L1,0 L1,1 L0,1 Z " fill="#C6ADA3" transform="translate(20,46)"/>
<path d="M0,0 L1,0 L1,1 L0,1 Z " fill="#DA865C" transform="translate(43,45)"/>
<path d="M0,0 L1,0 L1,1 L0,1 Z " fill="#BDBEC2" transform="translate(42,45)"/>
<path d="M0,0 L1,0 L1,1 L0,1 Z " fill="#BCC0C5" transform="translate(21,45)"/>
<path d="M0,0 L1,0 L1,1 L0,1 Z " fill="#D9865D" transform="translate(42,44)"/>
<path d="M0,0 L1,0 L1,1 L0,1 Z " fill="#C6ACA2" transform="translate(41,44)"/>
<path d="M0,0 L1,0 L1,1 L0,1 Z " fill="#BDBEC0" transform="translate(40,44)"/>
<path d="M0,0 L1,0 L1,1 L0,1 Z " fill="#C6ADA3" transform="translate(22,44)"/>
<path d="M0,0 L1,0 L1,1 L0,1 Z " fill="#A59895" transform="translate(38,43)"/>
<path d="M0,0 L1,0 L1,1 L0,1 Z " fill="#A59795" transform="translate(25,43)"/>
<path d="M0,0 L1,0 L1,1 L0,1 Z " fill="#989DA4" transform="translate(38,42)"/>
<path d="M0,0 L1,0 L1,1 L0,1 Z " fill="#999DA4" transform="translate(25,42)"/>
<path d="M0,0 L1,0 L1,1 L0,1 Z " fill="#DE7E4F" transform="translate(40,40)"/>
<path d="M0,0 L1,0 L1,1 L0,1 Z " fill="#CC8565" transform="translate(39,40)"/>
<path d="M0,0 L1,0 L1,1 L0,1 Z " fill="#CB8666" transform="translate(24,40)"/>
<path d="M0,0 L1,0 L1,1 L0,1 Z " fill="#D39374" transform="translate(42,39)"/>
<path d="M0,0 L1,0 L1,1 L0,1 Z " fill="#C3B4AE" transform="translate(41,39)"/>
<path d="M0,0 L1,0 L1,1 L0,1 Z " fill="#BDBEC2" transform="translate(40,39)"/>
<path d="M0,0 L1,0 L1,1 L0,1 Z " fill="#C3B4AE" transform="translate(22,39)"/>
<path d="M0,0 L1,0 L1,1 L0,1 Z " fill="#D39475" transform="translate(21,39)"/>
<path d="M0,0 L1,0 L1,1 L0,1 Z " fill="#343440" opacity="0.88235295" transform="translate(51,38)"/>
<path d="M0,0 L1,0 L1,1 L0,1 Z " fill="#CD764D" transform="translate(47,38)"/>
<path d="M0,0 L1,0 L1,1 L0,1 Z " fill="#D39273" transform="translate(43,38)"/>
<path d="M0,0 L1,0 L1,1 L0,1 Z " fill="#D39374" transform="translate(20,38)"/>
<path d="M0,0 L1,0 L1,1 L0,1 Z " fill="#CE764D" transform="translate(16,38)"/>
<path d="M0,0 L1,0 L1,1 L0,1 Z " fill="#343440" opacity="0.8862745" transform="translate(12,38)"/>
<path d="M0,0 L1,0 L1,1 L0,1 Z " fill="#C3B4AD" transform="translate(43,37)"/>
<path d="M0,0 L1,0 L1,1 L0,1 Z " fill="#C3B4AE" transform="translate(20,37)"/>
<path d="M0,0 L1,0 L1,1 L0,1 Z " fill="#333340" opacity="0.65882355" transform="translate(51,36)"/>
<path d="M0,0 L1,0 L1,1 L0,1 Z " fill="#845747" transform="translate(47,36)"/>
<path d="M0,0 L1,0 L1,1 L0,1 Z " fill="#BDC0C5" transform="translate(43,36)"/>
<path d="M0,0 L1,0 L1,1 L0,1 Z " fill="#BCC0C5" transform="translate(20,36)"/>
<path d="M0,0 L1,0 L1,1 L0,1 Z " fill="#875847" transform="translate(16,36)"/>
<path d="M0,0 L1,0 L1,1 L0,1 Z " fill="#333340" opacity="0.65882355" transform="translate(12,36)"/>
<path d="M0,0 L1,0 L1,1 L0,1 Z " fill="#433A41" transform="translate(47,35)"/>
<path d="M0,0 L1,0 L1,1 L0,1 Z " fill="#D87B4E" transform="translate(46,35)"/>
<path d="M0,0 L1,0 L1,1 L0,1 Z " fill="#D87B4E" transform="translate(17,35)"/>
<path d="M0,0 L1,0 L1,1 L0,1 Z " fill="#443B42" transform="translate(16,35)"/>
<path d="M0,0 L1,0 L1,1 L0,1 Z " fill="#353540" opacity="0.09411765" transform="translate(51,34)"/>
<path d="M0,0 L1,0 L1,1 L0,1 Z " fill="#775146" transform="translate(46,34)"/>
<path d="M0,0 L1,0 L1,1 L0,1 Z " fill="#C4BAB6" transform="translate(43,34)"/>
<path d="M0,0 L1,0 L1,1 L0,1 Z " fill="#C3BAB7" transform="translate(20,34)"/>
<path d="M0,0 L1,0 L1,1 L0,1 Z " fill="#DE7E4F" transform="translate(18,34)"/>
<path d="M0,0 L1,0 L1,1 L0,1 Z " fill="#353540" opacity="0.09411765" transform="translate(12,34)"/>
<path d="M0,0 L1,0 L1,1 L0,1 Z " fill="#343440" opacity="0.627451" transform="translate(50,33)"/>
<path d="M0,0 L1,0 L1,1 L0,1 Z " fill="#785246" transform="translate(45,33)"/>
<path d="M0,0 L1,0 L1,1 L0,1 Z " fill="#D87B4E" transform="translate(44,33)"/>
<path d="M0,0 L1,0 L1,1 L0,1 Z " fill="#D8C9C4" transform="translate(43,33)"/>
<path d="M0,0 L1,0 L1,1 L0,1 Z " fill="#D8C8C2" transform="translate(20,33)"/>
<path d="M0,0 L1,0 L1,1 L0,1 Z " fill="#D87B4E" transform="translate(19,33)"/>
<path d="M0,0 L1,0 L1,1 L0,1 Z " fill="#353440" transform="translate(17,33)"/>
<path d="M0,0 L1,0 L1,1 L0,1 Z " fill="#33333D" opacity="0.09803922" transform="translate(50,32)"/>
<path d="M0,0 L1,0 L1,1 L0,1 Z " fill="#433B42" transform="translate(44,32)"/>
<path d="M0,0 L1,0 L1,1 L0,1 Z " fill="#CFC4C1" transform="translate(42,32)"/>
<path d="M0,0 L1,0 L1,1 L0,1 Z " fill="#C1B8B6" transform="translate(41,32)"/>
<path d="M0,0 L1,0 L1,1 L0,1 Z " fill="#BDBFC3" transform="translate(40,32)"/>
<path d="M0,0 L1,0 L1,1 L0,1 Z " fill="#C1B9B7" transform="translate(22,32)"/>
<path d="M0,0 L1,0 L1,1 L0,1 Z " fill="#CEC4C0" transform="translate(21,32)"/>
<path d="M0,0 L1,0 L1,1 L0,1 Z " fill="#443B42" transform="translate(19,32)"/>
<path d="M0,0 L1,0 L1,1 L0,1 Z " fill="#353540" opacity="0.09411765" transform="translate(13,32)"/>
<path d="M0,0 L1,0 L1,1 L0,1 Z " fill="#343441" opacity="0.30588236" transform="translate(49,31)"/>
<path d="M0,0 L1,0 L1,1 L0,1 Z " fill="#343440" opacity="0.9764706" transform="translate(48,31)"/>
<path d="M0,0 L1,0 L1,1 L0,1 Z " fill="#343441" opacity="0.972549" transform="translate(15,31)"/>
<path d="M0,0 L1,0 L1,1 L0,1 Z " fill="#323240" opacity="0.29803923" transform="translate(14,31)"/>
<path d="M0,0 L1,0 L1,1 L0,1 Z " fill="#343440" opacity="0.26666668" transform="translate(48,30)"/>
<path d="M0,0 L1,0 L1,1 L0,1 Z " fill="#BFC1C6" transform="translate(43,30)"/>
<path d="M0,0 L1,0 L1,1 L0,1 Z " fill="#C1C3C8" transform="translate(20,30)"/>
<path d="M0,0 L1,0 L1,1 L0,1 Z " fill="#343440" opacity="0.2509804" transform="translate(15,30)"/>
<path d="M0,0 L1,0 L1,1 L0,1 Z " fill="#343440" opacity="0.6862745" transform="translate(47,29)"/>
<path d="M0,0 L1,0 L1,1 L0,1 Z " fill="#6B6C75" transform="translate(43,29)"/>
<path d="M0,0 L1,0 L1,1 L0,1 Z " fill="#E8EBEE" transform="translate(21,29)"/>
<path d="M0,0 L1,0 L1,1 L0,1 Z " fill="#343440" opacity="0.6666667" transform="translate(16,29)"/>
<path d="M0,0 L1,0 L1,1 L0,1 Z " fill="#6B6C76" transform="translate(42,28)"/>
<path d="M0,0 L1,0 L1,1 L0,1 Z " fill="#C0C2C7" transform="translate(41,28)"/>
<path d="M0,0 L1,0 L1,1 L0,1 Z " fill="#DBDEE2" transform="translate(40,28)"/>
<path d="M0,0 L1,0 L1,1 L0,1 Z " fill="#C1C3C8" transform="translate(22,28)"/>
<path d="M0,0 L1,0 L1,1 L0,1 Z " fill="#2E2E3A" opacity="0.08627451" transform="translate(47,27)"/>
<path d="M0,0 L1,0 L1,1 L0,1 Z " fill="#30303C" opacity="0.08235294" transform="translate(16,27)"/>
<path d="M0,0 L1,0 L1,1 L0,1 Z " fill="#343440" opacity="0.40392157" transform="translate(46,26)"/>
<path d="M0,0 L1,0 L1,1 L0,1 Z " fill="#353541" transform="translate(18,26)"/>
<path d="M0,0 L1,0 L1,1 L0,1 Z " fill="#33333F" opacity="0.4117647" transform="translate(17,26)"/>
<path d="M0,0 L1,0 L1,1 L0,1 Z " fill="#333340" opacity="0.39215687" transform="translate(45,25)"/>
<path d="M0,0 L1,0 L1,1 L0,1 Z " fill="#343441" opacity="0.9098039" transform="translate(44,25)"/>
<path d="M0,0 L1,0 L1,1 L0,1 Z " fill="#35353F" opacity="0.39607844" transform="translate(18,25)"/>
<path d="M0,0 L1,0 L1,1 L0,1 Z " fill="#333341" opacity="0.03529412" transform="translate(44,24)"/>
<path d="M0,0 L1,0 L1,1 L0,1 Z " fill="#333341" opacity="0.43137255" transform="translate(43,24)"/>
<path d="M0,0 L1,0 L1,1 L0,1 Z " fill="#343440" opacity="0.81960785" transform="translate(41,24)"/>
<path d="M0,0 L1,0 L1,1 L0,1 Z " fill="#353540" opacity="0.94509804" transform="translate(40,24)"/>
<path d="M0,0 L1,0 L1,1 L0,1 Z " fill="#353540" opacity="0.94509804" transform="translate(23,24)"/>
<path d="M0,0 L1,0 L1,1 L0,1 Z " fill="#353540" opacity="0.69803923" transform="translate(21,24)"/>
<path d="M0,0 L1,0 L1,1 L0,1 Z " fill="#353540" opacity="0.039215688" transform="translate(19,24)"/>
</svg>
