<?xml version="1.0" encoding="UTF-8"?>
<!-- Generator: visioncortex VTracer 0.6.4 -->
<svg version="1.1" xmlns="http://www.w3.org/2000/svg" width="64" height="64">
<path d="M0,0 L64,0 L64,6 L62,6 L62,5 L59,5 L59,4 L55,4 L55,3 L39,3 L39,4 L35,4 L35,5 L33,5 L33,6 L31,6 L31,7 L28,7 L28,8 L26,8 L26,9 L23,9 L23,10 L8,10 L8,9 L5,9 L5,8 L2,8 L2,7 L0,7 Z M39,4 L55,4 L55,5 L58,5 L58,6 L61,6 L61,7 L63,7 L63,8 L64,8 L64,19 L62,19 L62,18 L59,18 L59,17 L55,17 L55,16 L39,16 L39,17 L35,17 L35,18 L33,18 L33,19 L31,19 L31,20 L28,20 L28,21 L26,21 L26,22 L23,22 L23,23 L8,23 L8,22 L5,22 L5,21 L2,21 L2,20 L0,20 L0,8 L2,8 L2,9 L4,9 L4,10 L7,10 L7,11 L23,11 L23,10 L26,10 L26,9 L29,9 L29,8 L31,8 L31,7 L34,7 L34,6 L36,6 L36,5 L39,5 Z M39,17 L55,17 L55,18 L58,18 L58,19 L61,19 L61,20 L63,20 L63,21 L64,21 L64,28 L62,28 L62,27 L59,27 L59,26 L55,26 L55,25 L39,25 L39,26 L35,26 L35,27 L33,27 L33,28 L31,28 L31,29 L28,29 L28,30 L26,30 L26,31 L23,31 L23,32 L8,32 L8,31 L5,31 L5,30 L2,30 L2,29 L0,29 L0,21 L2,21 L2,22 L4,22 L4,23 L7,23 L7,24 L23,24 L23,23 L26,23 L26,22 L29,22 L29,21 L31,21 L31,20 L34,20 L34,19 L36,19 L36,18 L39,18 Z M39,26 L55,26 L55,27 L58,27 L58,28 L61,28 L61,29 L63,29 L63,30 L64,30 L64,36 L62,36 L62,35 L59,35 L59,34 L55,34 L55,33 L39,33 L39,34 L35,34 L35,35 L33,35 L33,36 L31,36 L31,37 L28,37 L28,38 L26,38 L26,39 L23,39 L23,40 L8,40 L8,39 L5,39 L5,38 L2,38 L2,37 L0,37 L0,30 L2,30 L2,31 L4,31 L4,32 L7,32 L7,33 L23,33 L23,32 L26,32 L26,31 L29,31 L29,30 L31,30 L31,29 L34,29 L34,28 L36,28 L36,27 L39,27 Z M39,34 L55,34 L55,35 L58,35 L58,36 L61,36 L61,37 L63,37 L63,38 L64,38 L64,40 L62,40 L62,39 L59,39 L59,38 L55,38 L55,37 L39,37 L39,38 L35,38 L35,39 L33,39 L33,40 L31,40 L31,41 L28,41 L28,42 L26,42 L26,43 L23,43 L23,44 L8,44 L8,43 L5,43 L5,42 L2,42 L2,41 L0,41 L0,38 L2,38 L2,39 L4,39 L4,40 L7,40 L7,41 L23,41 L23,40 L26,40 L26,39 L29,39 L29,38 L31,38 L31,37 L34,37 L34,36 L36,36 L36,35 L39,35 Z M39,38 L55,38 L55,39 L58,39 L58,40 L61,40 L61,41 L63,41 L63,42 L64,42 L64,56 L62,56 L62,55 L59,55 L59,54 L55,54 L55,53 L39,53 L39,54 L35,54 L35,55 L33,55 L33,56 L31,56 L31,57 L28,57 L28,58 L26,58 L26,59 L23,59 L23,60 L8,60 L8,59 L5,59 L5,58 L2,58 L2,57 L0,57 L0,42 L2,42 L2,43 L4,43 L4,44 L7,44 L7,45 L23,45 L23,44 L26,44 L26,43 L29,43 L29,42 L31,42 L31,41 L34,41 L34,40 L36,40 L36,39 L39,39 Z M39,54 L55,54 L55,55 L58,55 L58,56 L61,56 L61,57 L63,57 L63,58 L64,58 L64,64 L0,64 L0,58 L2,58 L2,59 L4,59 L4,60 L7,60 L7,61 L23,61 L23,60 L26,60 L26,59 L29,59 L29,58 L31,58 L31,57 L34,57 L34,56 L36,56 L36,55 L39,55 Z " fill="#B4DFFF" transform="translate(0,0)"/>
<path d="M0,0 L16,0 L16,1 L19,1 L19,2 L22,2 L22,3 L24,3 L24,4 L25,4 L25,18 L23,18 L23,17 L20,17 L20,16 L16,16 L16,15 L0,15 L0,16 L-4,16 L-4,17 L-6,17 L-6,18 L-8,18 L-8,19 L-11,19 L-11,20 L-13,20 L-13,21 L-16,21 L-16,22 L-31,22 L-31,21 L-34,21 L-34,20 L-37,20 L-37,19 L-39,19 L-39,4 L-37,4 L-37,5 L-35,5 L-35,6 L-32,6 L-32,7 L-16,7 L-16,6 L-13,6 L-13,5 L-10,5 L-10,4 L-8,4 L-8,3 L-5,3 L-5,2 L-3,2 L-3,1 L0,1 Z M0,16 L16,16 L16,17 L19,17 L19,18 L22,18 L22,19 L24,19 L24,20 L25,20 L25,26 L-39,26 L-39,20 L-37,20 L-37,21 L-35,21 L-35,22 L-32,22 L-32,23 L-16,23 L-16,22 L-13,22 L-13,21 L-10,21 L-10,20 L-8,20 L-8,19 L-5,19 L-5,18 L-3,18 L-3,17 L0,17 Z " fill="#5BAEE7" transform="translate(39,38)"/>
<path d="M0,0 L64,0 L64,6 L62,6 L62,5 L59,5 L59,4 L55,4 L55,3 L39,3 L39,4 L35,4 L35,5 L33,5 L33,6 L31,6 L31,7 L28,7 L28,8 L26,8 L26,9 L23,9 L23,10 L8,10 L8,9 L5,9 L5,8 L2,8 L2,7 L0,7 Z M39,4 L55,4 L55,5 L58,5 L58,6 L61,6 L61,7 L63,7 L63,8 L64,8 L64,19 L62,19 L62,18 L59,18 L59,17 L55,17 L55,16 L39,16 L39,17 L35,17 L35,18 L33,18 L33,19 L31,19 L31,20 L28,20 L28,21 L26,21 L26,22 L23,22 L23,23 L8,23 L8,22 L5,22 L5,21 L2,21 L2,20 L0,20 L0,8 L2,8 L2,9 L4,9 L4,10 L7,10 L7,11 L23,11 L23,10 L26,10 L26,9 L29,9 L29,8 L31,8 L31,7 L34,7 L34,6 L36,6 L36,5 L39,5 Z " fill="#5BAEE7" transform="translate(0,0)"/>
<path d="M0,0 L16,0 L16,1 L19,1 L19,2 L22,2 L22,3 L24,3 L24,4 L25,4 L25,11 L23,11 L23,10 L20,10 L20,9 L16,9 L16,8 L0,8 L0,9 L-4,9 L-4,10 L-6,10 L-6,11 L-8,11 L-8,12 L-11,12 L-11,13 L-13,13 L-13,14 L-16,14 L-16,15 L-31,15 L-31,14 L-34,14 L-34,13 L-37,13 L-37,12 L-39,12 L-39,4 L-37,4 L-37,5 L-35,5 L-35,6 L-32,6 L-32,7 L-16,7 L-16,6 L-13,6 L-13,5 L-10,5 L-10,4 L-8,4 L-8,3 L-5,3 L-5,2 L-3,2 L-3,1 L0,1 Z " fill="#82CEFF" transform="translate(39,17)"/>
<path d="M0,0 L16,0 L16,1 L19,1 L19,2 L22,2 L22,3 L24,3 L24,4 L25,4 L25,10 L-39,10 L-39,4 L-37,4 L-37,5 L-35,5 L-35,6 L-32,6 L-32,7 L-16,7 L-16,6 L-13,6 L-13,5 L-10,5 L-10,4 L-8,4 L-8,3 L-5,3 L-5,2 L-3,2 L-3,1 L0,1 Z " fill="#82CEFF" transform="translate(39,54)"/>
<path d="M0,0 L64,0 L64,6 L62,6 L62,5 L59,5 L59,4 L55,4 L55,3 L39,3 L39,4 L35,4 L35,5 L33,5 L33,6 L31,6 L31,7 L28,7 L28,8 L26,8 L26,9 L23,9 L23,10 L8,10 L8,9 L5,9 L5,8 L2,8 L2,7 L0,7 Z " fill="#82CEFF" transform="translate(0,0)"/>
<path d="M0,0 L16,0 L16,1 L19,1 L19,2 L22,2 L22,3 L24,3 L24,4 L25,4 L25,6 L23,6 L23,5 L20,5 L20,4 L16,4 L16,3 L0,3 L0,4 L-4,4 L-4,5 L-6,5 L-6,6 L-8,6 L-8,7 L-11,7 L-11,8 L-13,8 L-13,9 L-16,9 L-16,10 L-31,10 L-31,9 L-34,9 L-34,8 L-37,8 L-37,7 L-39,7 L-39,4 L-37,4 L-37,5 L-35,5 L-35,6 L-32,6 L-32,7 L-16,7 L-16,6 L-13,6 L-13,5 L-10,5 L-10,4 L-8,4 L-8,3 L-5,3 L-5,2 L-3,2 L-3,1 L0,1 Z " fill="#82CEFF" transform="translate(39,34)"/>
<path d="M0,0 L1,0 L1,1 L0,1 Z " fill="#82CEFF" opacity="0.9882353" transform="translate(47,53)"/>
<path d="M0,0 L1,0 L1,1 L0,1 Z " fill="#81CEFF" opacity="0.99215686" transform="translate(15,44)"/>
<path d="M0,0 L1,0 L1,1 L0,1 Z " fill="#B4DFFF" opacity="0.99215686" transform="translate(15,40)"/>
<path d="M0,0 L1,0 L1,1 L0,1 Z " fill="#B3DFFF" opacity="0.9882353" transform="translate(47,25)"/>
<path d="M0,0 L1,0 L1,1 L0,1 Z " fill="#82CEFF" opacity="0.9882353" transform="translate(47,16)"/>
<path d="M0,0 L1,0 L1,1 L0,1 Z " fill="#81CEFF" opacity="0.99215686" transform="translate(15,10)"/>
<path d="M0,0 L1,0 L1,1 L0,1 Z " fill="#83CEFF" opacity="0.9607843" transform="translate(46,33)"/>
<path d="M0,0 L1,0 L1,1 L0,1 Z " fill="#65B7ED" opacity="0.81960785" transform="translate(18,60)"/>
<path d="M0,0 L1,0 L1,1 L0,1 Z " fill="#7FCDFE" opacity="0.827451" transform="translate(50,53)"/>
<path d="M0,0 L1,0 L1,1 L0,1 Z " fill="#7FCBFD" opacity="0.81960785" transform="translate(18,44)"/>
<path d="M0,0 L1,0 L1,1 L0,1 Z " fill="#AFDEFF" opacity="0.827451" transform="translate(50,25)"/>
<path d="M0,0 L1,0 L1,1 L0,1 Z " fill="#65B7ED" opacity="0.81960785" transform="translate(18,23)"/>
<path d="M0,0 L1,0 L1,1 L0,1 Z " fill="#7FCDFE" opacity="0.827451" transform="translate(50,16)"/>
<path d="M0,0 L1,0 L1,1 L0,1 Z " fill="#7FCBFD" opacity="0.81960785" transform="translate(18,10)"/>
<path d="M0,0 L1,0 L1,1 L0,1 Z " fill="#5CB0E8" opacity="0.95686275" transform="translate(14,60)"/>
<path d="M0,0 L1,0 L1,1 L0,1 Z " fill="#80CDFE" opacity="0.84705883" transform="translate(43,53)"/>
<path d="M0,0 L1,0 L1,1 L0,1 Z " fill="#80CCFE" opacity="0.83137256" transform="translate(11,44)"/>
<path d="M0,0 L1,0 L1,1 L0,1 Z " fill="#B1DFFF" opacity="0.83137256" transform="translate(11,40)"/>
<path d="M0,0 L1,0 L1,1 L0,1 Z " fill="#7CCAFC" opacity="0.7882353" transform="translate(53,37)"/>
<path d="M0,0 L1,0 L1,1 L0,1 Z " fill="#5CAFE7" opacity="0.9607843" transform="translate(46,37)"/>
<path d="M0,0 L1,0 L1,1 L0,1 Z " fill="#ADDDFF" opacity="0.7882353" transform="translate(53,33)"/>
<path d="M0,0 L1,0 L1,1 L0,1 Z " fill="#AFDDFF" opacity="0.80784315" transform="translate(21,32)"/>
<path d="M0,0 L1,0 L1,1 L0,1 Z " fill="#85CFFF" opacity="0.95686275" transform="translate(14,32)"/>
<path d="M0,0 L1,0 L1,1 L0,1 Z " fill="#B1DEFF" opacity="0.84705883" transform="translate(43,25)"/>
<path d="M0,0 L1,0 L1,1 L0,1 Z " fill="#5CB0E8" opacity="0.95686275" transform="translate(14,23)"/>
<path d="M0,0 L1,0 L1,1 L0,1 Z " fill="#80CDFE" opacity="0.84705883" transform="translate(43,16)"/>
<path d="M0,0 L1,0 L1,1 L0,1 Z " fill="#80CCFE" opacity="0.83137256" transform="translate(11,10)"/>
<path d="M0,0 L1,0 L1,1 L0,1 Z " fill="#7CCAFC" opacity="0.7882353" transform="translate(53,3)"/>
<path d="M0,0 L1,0 L1,1 L0,1 Z " fill="#5CAFE7" opacity="0.9607843" transform="translate(46,3)"/>
<path d="M0,0 L1,0 L1,1 L0,1 Z " fill="#77C6FA" opacity="0.75686276" transform="translate(9,60)"/>
<path d="M0,0 L1,0 L1,1 L0,1 Z " fill="#A1D9FF" opacity="0.7529412" transform="translate(20,40)"/>
<path d="M0,0 L1,0 L1,1 L0,1 Z " fill="#75C4F8" opacity="0.7529412" transform="translate(41,37)"/>
<path d="M0,0 L1,0 L1,1 L0,1 Z " fill="#A2D9FF" opacity="0.7529412" transform="translate(41,33)"/>
<path d="M0,0 L1,0 L1,1 L0,1 Z " fill="#A8DCFF" opacity="0.75686276" transform="translate(9,32)"/>
<path d="M0,0 L1,0 L1,1 L0,1 Z " fill="#77C6FA" opacity="0.75686276" transform="translate(9,23)"/>
<path d="M0,0 L1,0 L1,1 L0,1 Z " fill="#75C4F8" opacity="0.7529412" transform="translate(41,3)"/>
<path d="M0,0 L1,0 L1,1 L0,1 Z " fill="#7DCBFD" opacity="0.80784315" transform="translate(21,60)"/>
<path d="M0,0 L1,0 L1,1 L0,1 Z " fill="#62B5EC" opacity="0.87058824" transform="translate(12,60)"/>
<path d="M0,0 L1,0 L1,1 L0,1 Z " fill="#7ECCFE" opacity="0.8392157" transform="translate(25,59)"/>
<path d="M0,0 L1,0 L1,1 L0,1 Z " fill="#67BAEF" opacity="0.8039216" transform="translate(6,59)"/>
<path d="M0,0 L1,0 L1,1 L0,1 Z " fill="#80CCFE" opacity="0.88235295" transform="translate(28,58)"/>
<path d="M0,0 L1,0 L1,1 L0,1 Z " fill="#82CEFF" transform="translate(0,58)"/>
<path d="M0,0 L1,0 L1,1 L0,1 Z " fill="#7ECCFD" opacity="0.8156863" transform="translate(30,57)"/>
<path d="M0,0 L1,0 L1,1 L0,1 Z " fill="#81CEFF" opacity="0.9764706" transform="translate(33,56)"/>
<path d="M0,0 L1,0 L1,1 L0,1 Z " fill="#6CBCF1" opacity="0.7764706" transform="translate(60,55)"/>
<path d="M0,0 L1,0 L1,1 L0,1 Z " fill="#80CDFF" opacity="0.9137255" transform="translate(35,55)"/>
<path d="M0,0 L1,0 L1,1 L0,1 Z " fill="#6ABBF1" opacity="0.78039217" transform="translate(57,54)"/>
<path d="M0,0 L1,0 L1,1 L0,1 Z " fill="#76C5F9" opacity="0.75686276" transform="translate(37,54)"/>
<path d="M0,0 L1,0 L1,1 L0,1 Z " fill="#69BBF0" opacity="0.7882353" transform="translate(53,53)"/>
<path d="M0,0 L1,0 L1,1 L0,1 Z " fill="#81CEFF" opacity="0.92156863" transform="translate(45,53)"/>
<path d="M0,0 L1,0 L1,1 L0,1 Z " fill="#72C2F6" opacity="0.7529412" transform="translate(41,53)"/>
<path d="M0,0 L1,0 L1,1 L0,1 Z " fill="#68B9EE" opacity="0.80784315" transform="translate(21,44)"/>
<path d="M0,0 L1,0 L1,1 L0,1 Z " fill="#80CDFF" opacity="0.9137255" transform="translate(13,44)"/>
<path d="M0,0 L1,0 L1,1 L0,1 Z " fill="#70C1F5" opacity="0.75686276" transform="translate(9,44)"/>
<path d="M0,0 L1,0 L1,1 L0,1 Z " fill="#63B5EE" opacity="0.8392157" transform="translate(25,43)"/>
<path d="M0,0 L1,0 L1,1 L0,1 Z " fill="#7ECBFE" opacity="0.8039216" transform="translate(6,43)"/>
<path d="M0,0 L1,0 L1,1 L0,1 Z " fill="#7DCBFD" opacity="0.8" transform="translate(3,42)"/>
<path d="M0,0 L1,0 L1,1 L0,1 Z " fill="#66B8EE" opacity="0.8156863" transform="translate(30,41)"/>
<path d="M0,0 L1,0 L1,1 L0,1 Z " fill="#7ECCFE" opacity="0.8392157" transform="translate(1,41)"/>
<path d="M0,0 L1,0 L1,1 L0,1 Z " fill="#81CDFF" opacity="0.89411765" transform="translate(63,40)"/>
<path d="M0,0 L1,0 L1,1 L0,1 Z " fill="#5BAEE7" opacity="0.9764706" transform="translate(33,40)"/>
<path d="M0,0 L1,0 L1,1 L0,1 Z " fill="#B0DDFF" opacity="0.81960785" transform="translate(18,40)"/>
<path d="M0,0 L1,0 L1,1 L0,1 Z " fill="#B4E0FF" opacity="0.9137255" transform="translate(13,40)"/>
<path d="M0,0 L1,0 L1,1 L0,1 Z " fill="#9DD8FF" opacity="0.75686276" transform="translate(9,40)"/>
<path d="M0,0 L1,0 L1,1 L0,1 Z " fill="#7CC9FC" opacity="0.7764706" transform="translate(60,39)"/>
<path d="M0,0 L1,0 L1,1 L0,1 Z " fill="#8ED2FF" opacity="0.8392157" transform="translate(25,39)"/>
<path d="M0,0 L1,0 L1,1 L0,1 Z " fill="#B0DEFF" opacity="0.8039216" transform="translate(6,39)"/>
<path d="M0,0 L1,0 L1,1 L0,1 Z " fill="#7BC8FC" opacity="0.78039217" transform="translate(57,38)"/>
<path d="M0,0 L1,0 L1,1 L0,1 Z " fill="#72C0F5" opacity="0.75686276" transform="translate(37,38)"/>
<path d="M0,0 L1,0 L1,1 L0,1 Z " fill="#89D1FF" opacity="0.88235295" transform="translate(28,38)"/>
<path d="M0,0 L1,0 L1,1 L0,1 Z " fill="#AFDEFF" opacity="0.8" transform="translate(3,38)"/>
<path d="M0,0 L1,0 L1,1 L0,1 Z " fill="#6BBAF1" opacity="0.78431374" transform="translate(51,37)"/>
<path d="M0,0 L1,0 L1,1 L0,1 Z " fill="#60B3EB" opacity="0.8745098" transform="translate(49,37)"/>
<path d="M0,0 L1,0 L1,1 L0,1 Z " fill="#60B2EB" opacity="0.8862745" transform="translate(44,37)"/>
<path d="M0,0 L1,0 L1,1 L0,1 Z " fill="#92D3FF" opacity="0.8156863" transform="translate(30,37)"/>
<path d="M0,0 L1,0 L1,1 L0,1 Z " fill="#B1DEFF" opacity="0.8392157" transform="translate(1,37)"/>
<path d="M0,0 L1,0 L1,1 L0,1 Z " fill="#B2DFFF" opacity="0.89411765" transform="translate(63,36)"/>
<path d="M0,0 L1,0 L1,1 L0,1 Z " fill="#83CEFF" opacity="0.9764706" transform="translate(33,36)"/>
<path d="M0,0 L1,0 L1,1 L0,1 Z " fill="#ABDDFF" opacity="0.7764706" transform="translate(60,35)"/>
<path d="M0,0 L1,0 L1,1 L0,1 Z " fill="#87D0FF" opacity="0.9137255" transform="translate(35,35)"/>
<path d="M0,0 L1,0 L1,1 L0,1 Z " fill="#ACDBFF" opacity="0.78039217" transform="translate(57,34)"/>
<path d="M0,0 L1,0 L1,1 L0,1 Z " fill="#9FD8FF" opacity="0.75686276" transform="translate(37,34)"/>
<path d="M0,0 L1,0 L1,1 L0,1 Z " fill="#97D5FF" opacity="0.78431374" transform="translate(51,33)"/>
<path d="M0,0 L1,0 L1,1 L0,1 Z " fill="#89D0FF" opacity="0.8745098" transform="translate(49,33)"/>
<path d="M0,0 L1,0 L1,1 L0,1 Z " fill="#89D1FF" opacity="0.8862745" transform="translate(44,33)"/>
<path d="M0,0 L1,0 L1,1 L0,1 Z " fill="#96D5FF" opacity="0.78039217" transform="translate(19,32)"/>
<path d="M0,0 L1,0 L1,1 L0,1 Z " fill="#8CD1FF" opacity="0.8666667" transform="translate(17,32)"/>
<path d="M0,0 L1,0 L1,1 L0,1 Z " fill="#8BD1FF" opacity="0.87058824" transform="translate(12,32)"/>
<path d="M0,0 L1,0 L1,1 L0,1 Z " fill="#B1DEFF" opacity="0.8392157" transform="translate(25,31)"/>
<path d="M0,0 L1,0 L1,1 L0,1 Z " fill="#93D4FF" opacity="0.8039216" transform="translate(6,31)"/>
<path d="M0,0 L1,0 L1,1 L0,1 Z " fill="#B2DFFF" opacity="0.88235295" transform="translate(28,30)"/>
<path d="M0,0 L1,0 L1,1 L0,1 Z " fill="#94D4FF" opacity="0.8" transform="translate(3,30)"/>
<path d="M0,0 L1,0 L1,1 L0,1 Z " fill="#B0DEFF" opacity="0.8156863" transform="translate(30,29)"/>
<path d="M0,0 L1,0 L1,1 L0,1 Z " fill="#8ED2FF" opacity="0.8392157" transform="translate(1,29)"/>
<path d="M0,0 L1,0 L1,1 L0,1 Z " fill="#88D0FF" opacity="0.89411765" transform="translate(63,28)"/>
<path d="M0,0 L1,0 L1,1 L0,1 Z " fill="#B3DFFF" opacity="0.9764706" transform="translate(33,28)"/>
<path d="M0,0 L1,0 L1,1 L0,1 Z " fill="#98D6FF" opacity="0.7764706" transform="translate(60,27)"/>
<path d="M0,0 L1,0 L1,1 L0,1 Z " fill="#B4E0FF" opacity="0.9137255" transform="translate(35,27)"/>
<path d="M0,0 L1,0 L1,1 L0,1 Z " fill="#96D5FF" opacity="0.78039217" transform="translate(57,26)"/>
<path d="M0,0 L1,0 L1,1 L0,1 Z " fill="#A5D9FF" opacity="0.75686276" transform="translate(37,26)"/>
<path d="M0,0 L1,0 L1,1 L0,1 Z " fill="#95D5FF" opacity="0.7882353" transform="translate(53,25)"/>
<path d="M0,0 L1,0 L1,1 L0,1 Z " fill="#B4DFFF" opacity="0.92156863" transform="translate(45,25)"/>
<path d="M0,0 L1,0 L1,1 L0,1 Z " fill="#A2D9FF" opacity="0.7529412" transform="translate(41,25)"/>
<path d="M0,0 L1,0 L1,1 L0,1 Z " fill="#7DCBFD" opacity="0.80784315" transform="translate(21,23)"/>
<path d="M0,0 L1,0 L1,1 L0,1 Z " fill="#62B5EC" opacity="0.87058824" transform="translate(12,23)"/>
<path d="M0,0 L1,0 L1,1 L0,1 Z " fill="#7ECCFE" opacity="0.8392157" transform="translate(25,22)"/>
<path d="M0,0 L1,0 L1,1 L0,1 Z " fill="#67BAEF" opacity="0.8039216" transform="translate(6,22)"/>
<path d="M0,0 L1,0 L1,1 L0,1 Z " fill="#80CCFE" opacity="0.88235295" transform="translate(28,21)"/>
<path d="M0,0 L1,0 L1,1 L0,1 Z " fill="#82CEFF" transform="translate(0,21)"/>
<path d="M0,0 L1,0 L1,1 L0,1 Z " fill="#7ECCFD" opacity="0.8156863" transform="translate(30,20)"/>
<path d="M0,0 L1,0 L1,1 L0,1 Z " fill="#81CEFF" opacity="0.9764706" transform="translate(33,19)"/>
<path d="M0,0 L1,0 L1,1 L0,1 Z " fill="#6CBCF1" opacity="0.7764706" transform="translate(60,18)"/>
<path d="M0,0 L1,0 L1,1 L0,1 Z " fill="#80CDFF" opacity="0.9137255" transform="translate(35,18)"/>
<path d="M0,0 L1,0 L1,1 L0,1 Z " fill="#6ABBF1" opacity="0.78039217" transform="translate(57,17)"/>
<path d="M0,0 L1,0 L1,1 L0,1 Z " fill="#76C5F9" opacity="0.75686276" transform="translate(37,17)"/>
<path d="M0,0 L1,0 L1,1 L0,1 Z " fill="#69BBF0" opacity="0.7882353" transform="translate(53,16)"/>
<path d="M0,0 L1,0 L1,1 L0,1 Z " fill="#81CEFF" opacity="0.92156863" transform="translate(45,16)"/>
<path d="M0,0 L1,0 L1,1 L0,1 Z " fill="#72C2F6" opacity="0.7529412" transform="translate(41,16)"/>
<path d="M0,0 L1,0 L1,1 L0,1 Z " fill="#68B9EE" opacity="0.80784315" transform="translate(21,10)"/>
<path d="M0,0 L1,0 L1,1 L0,1 Z " fill="#80CDFF" opacity="0.9137255" transform="translate(13,10)"/>
<path d="M0,0 L1,0 L1,1 L0,1 Z " fill="#70C1F5" opacity="0.75686276" transform="translate(9,10)"/>
<path d="M0,0 L1,0 L1,1 L0,1 Z " fill="#63B5EE" opacity="0.8392157" transform="translate(25,9)"/>
<path d="M0,0 L1,0 L1,1 L0,1 Z " fill="#7ECBFE" opacity="0.8039216" transform="translate(6,9)"/>
<path d="M0,0 L1,0 L1,1 L0,1 Z " fill="#7DCBFD" opacity="0.8" transform="translate(3,8)"/>
<path d="M0,0 L1,0 L1,1 L0,1 Z " fill="#66B8EE" opacity="0.8156863" transform="translate(30,7)"/>
<path d="M0,0 L1,0 L1,1 L0,1 Z " fill="#7ECCFE" opacity="0.8392157" transform="translate(1,7)"/>
<path d="M0,0 L1,0 L1,1 L0,1 Z " fill="#81CDFF" opacity="0.89411765" transform="translate(63,6)"/>
<path d="M0,0 L1,0 L1,1 L0,1 Z " fill="#5BAEE7" opacity="0.9764706" transform="translate(33,6)"/>
<path d="M0,0 L1,0 L1,1 L0,1 Z " fill="#7CC9FC" opacity="0.7764706" transform="translate(60,5)"/>
<path d="M0,0 L1,0 L1,1 L0,1 Z " fill="#7BC8FC" opacity="0.78039217" transform="translate(57,4)"/>
<path d="M0,0 L1,0 L1,1 L0,1 Z " fill="#72C0F5" opacity="0.75686276" transform="translate(37,4)"/>
<path d="M0,0 L1,0 L1,1 L0,1 Z " fill="#6BBAF1" opacity="0.78431374" transform="translate(51,3)"/>
<path d="M0,0 L1,0 L1,1 L0,1 Z " fill="#60B3EB" opacity="0.8745098" transform="translate(49,3)"/>
<path d="M0,0 L1,0 L1,1 L0,1 Z " fill="#60B2EB" opacity="0.8862745" transform="translate(44,3)"/>
<path d="M0,0 L1,0 L1,1 L0,1 Z " fill="#81CDFF" opacity="0.9411765" transform="translate(22,60)"/>
<path d="M0,0 L1,0 L1,1 L0,1 Z " fill="#76C5F9" opacity="0.7529412" transform="translate(20,60)"/>
<path d="M0,0 L1,0 L1,1 L0,1 Z " fill="#6ABBF1" opacity="0.78039217" transform="translate(19,60)"/>
<path d="M0,0 L1,0 L1,1 L0,1 Z " fill="#61B4EC" opacity="0.8666667" transform="translate(17,60)"/>
<path d="M0,0 L1,0 L1,1 L0,1 Z " fill="#5EB0E9" opacity="0.9254902" transform="translate(16,60)"/>
<path d="M0,0 L1,0 L1,1 L0,1 Z " fill="#5BAFE7" opacity="0.99215686" transform="translate(15,60)"/>
<path d="M0,0 L1,0 L1,1 L0,1 Z " fill="#5EB1EA" opacity="0.9137255" transform="translate(13,60)"/>
<path d="M0,0 L1,0 L1,1 L0,1 Z " fill="#65B6ED" opacity="0.83137256" transform="translate(11,60)"/>
<path d="M0,0 L1,0 L1,1 L0,1 Z " fill="#6EBFF4" opacity="0.7647059" transform="translate(10,60)"/>
<path d="M0,0 L1,0 L1,1 L0,1 Z " fill="#7ECCFE" opacity="0.8156863" transform="translate(8,60)"/>
<path d="M0,0 L1,0 L1,1 L0,1 Z " fill="#81CEFF" opacity="0.94509804" transform="translate(7,60)"/>
<path d="M0,0 L1,0 L1,1 L0,1 Z " fill="#72C1F6" opacity="0.7529412" transform="translate(24,59)"/>
<path d="M0,0 L1,0 L1,1 L0,1 Z " fill="#60B3EB" opacity="0.8745098" transform="translate(23,59)"/>
<path d="M0,0 L1,0 L1,1 L0,1 Z " fill="#5BADE7" opacity="0.9882353" transform="translate(7,59)"/>
<path d="M0,0 L1,0 L1,1 L0,1 Z " fill="#79C7FA" opacity="0.7607843" transform="translate(5,59)"/>
<path d="M0,0 L1,0 L1,1 L0,1 Z " fill="#80CDFE" opacity="0.92156863" transform="translate(4,59)"/>
<path d="M0,0 L1,0 L1,1 L0,1 Z " fill="#70C1F6" opacity="0.75686276" transform="translate(27,58)"/>
<path d="M0,0 L1,0 L1,1 L0,1 Z " fill="#60B2EA" opacity="0.8980392" transform="translate(26,58)"/>
<path d="M0,0 L1,0 L1,1 L0,1 Z " fill="#5AAEE7" opacity="0.99607843" transform="translate(4,58)"/>
<path d="M0,0 L1,0 L1,1 L0,1 Z " fill="#68B9EF" opacity="0.8" transform="translate(3,58)"/>
<path d="M0,0 L1,0 L1,1 L0,1 Z " fill="#7ECCFE" opacity="0.8117647" transform="translate(2,58)"/>
<path d="M0,0 L1,0 L1,1 L0,1 Z " fill="#82CEFF" opacity="0.99607843" transform="translate(63,57)"/>
<path d="M0,0 L1,0 L1,1 L0,1 Z " fill="#69BAF0" opacity="0.7921569" transform="translate(29,57)"/>
<path d="M0,0 L1,0 L1,1 L0,1 Z " fill="#5AAEE7" opacity="0.99607843" transform="translate(28,57)"/>
<path d="M0,0 L1,0 L1,1 L0,1 Z " fill="#63B5EE" opacity="0.8392157" transform="translate(1,57)"/>
<path d="M0,0 L1,0 L1,1 L0,1 Z " fill="#7CCAFC" opacity="0.78431374" transform="translate(0,57)"/>
<path d="M0,0 L1,0 L1,1 L0,1 Z " fill="#60B2EA" opacity="0.89411765" transform="translate(63,56)"/>
<path d="M0,0 L1,0 L1,1 L0,1 Z " fill="#76C5F8" opacity="0.7529412" transform="translate(62,56)"/>
<path d="M0,0 L1,0 L1,1 L0,1 Z " fill="#81CEFF" opacity="0.92156863" transform="translate(61,56)"/>
<path d="M0,0 L1,0 L1,1 L0,1 Z " fill="#7AC9FC" opacity="0.76862746" transform="translate(32,56)"/>
<path d="M0,0 L1,0 L1,1 L0,1 Z " fill="#63B5ED" opacity="0.8509804" transform="translate(31,56)"/>
<path d="M0,0 L1,0 L1,1 L0,1 Z " fill="#5CAFE7" opacity="0.98039216" transform="translate(61,55)"/>
<path d="M0,0 L1,0 L1,1 L0,1 Z " fill="#7ECBFE" opacity="0.8039216" transform="translate(59,55)"/>
<path d="M0,0 L1,0 L1,1 L0,1 Z " fill="#81CEFF" opacity="0.9843137" transform="translate(58,55)"/>
<path d="M0,0 L1,0 L1,1 L0,1 Z " fill="#74C4F8" opacity="0.7529412" transform="translate(34,55)"/>
<path d="M0,0 L1,0 L1,1 L0,1 Z " fill="#5EB1EA" opacity="0.92156863" transform="translate(33,55)"/>
<path d="M0,0 L1,0 L1,1 L0,1 Z " fill="#5DB0E9" opacity="0.9490196" transform="translate(58,54)"/>
<path d="M0,0 L1,0 L1,1 L0,1 Z " fill="#7AC8FA" opacity="0.77254903" transform="translate(56,54)"/>
<path d="M0,0 L1,0 L1,1 L0,1 Z " fill="#81CEFF" opacity="0.92941177" transform="translate(55,54)"/>
<path d="M0,0 L1,0 L1,1 L0,1 Z " fill="#81CDFE" opacity="0.87058824" transform="translate(38,54)"/>
<path d="M0,0 L1,0 L1,1 L0,1 Z " fill="#66B7EE" opacity="0.8156863" transform="translate(36,54)"/>
<path d="M0,0 L1,0 L1,1 L0,1 Z " fill="#5BADE7" opacity="0.9882353" transform="translate(35,54)"/>
<path d="M0,0 L1,0 L1,1 L0,1 Z " fill="#60B2EA" opacity="0.89411765" transform="translate(54,53)"/>
<path d="M0,0 L1,0 L1,1 L0,1 Z " fill="#75C4F8" opacity="0.7529412" transform="translate(52,53)"/>
<path d="M0,0 L1,0 L1,1 L0,1 Z " fill="#7DCAFD" opacity="0.78431374" transform="translate(51,53)"/>
<path d="M0,0 L1,0 L1,1 L0,1 Z " fill="#80CDFE" opacity="0.8745098" transform="translate(49,53)"/>
<path d="M0,0 L1,0 L1,1 L0,1 Z " fill="#81CEFF" opacity="0.92941177" transform="translate(48,53)"/>
<path d="M0,0 L1,0 L1,1 L0,1 Z " fill="#81CDFF" opacity="0.9607843" transform="translate(46,53)"/>
<path d="M0,0 L1,0 L1,1 L0,1 Z " fill="#81CEFF" opacity="0.8862745" transform="translate(44,53)"/>
<path d="M0,0 L1,0 L1,1 L0,1 Z " fill="#7CC9FD" opacity="0.7764706" transform="translate(42,53)"/>
<path d="M0,0 L1,0 L1,1 L0,1 Z " fill="#6ABAF1" opacity="0.78431374" transform="translate(40,53)"/>
<path d="M0,0 L1,0 L1,1 L0,1 Z " fill="#5FB2EA" opacity="0.89411765" transform="translate(39,53)"/>
<path d="M0,0 L1,0 L1,1 L0,1 Z " fill="#5DB1E8" opacity="0.9411765" transform="translate(22,44)"/>
<path d="M0,0 L1,0 L1,1 L0,1 Z " fill="#72C2F6" opacity="0.7529412" transform="translate(20,44)"/>
<path d="M0,0 L1,0 L1,1 L0,1 Z " fill="#7BC8FC" opacity="0.78039217" transform="translate(19,44)"/>
<path d="M0,0 L1,0 L1,1 L0,1 Z " fill="#80CDFF" opacity="0.8666667" transform="translate(17,44)"/>
<path d="M0,0 L1,0 L1,1 L0,1 Z " fill="#81CEFF" opacity="0.9254902" transform="translate(16,44)"/>
<path d="M0,0 L1,0 L1,1 L0,1 Z " fill="#82CEFF" opacity="0.95686275" transform="translate(14,44)"/>
<path d="M0,0 L1,0 L1,1 L0,1 Z " fill="#81CEFF" opacity="0.87058824" transform="translate(12,44)"/>
<path d="M0,0 L1,0 L1,1 L0,1 Z " fill="#7AC7FC" opacity="0.7647059" transform="translate(10,44)"/>
<path d="M0,0 L1,0 L1,1 L0,1 Z " fill="#67B8F0" opacity="0.8156863" transform="translate(8,44)"/>
<path d="M0,0 L1,0 L1,1 L0,1 Z " fill="#5DB0E9" opacity="0.94509804" transform="translate(7,44)"/>
<path d="M0,0 L1,0 L1,1 L0,1 Z " fill="#76C5F9" opacity="0.7529412" transform="translate(24,43)"/>
<path d="M0,0 L1,0 L1,1 L0,1 Z " fill="#80CDFE" opacity="0.8745098" transform="translate(23,43)"/>
<path d="M0,0 L1,0 L1,1 L0,1 Z " fill="#82CEFF" opacity="0.9882353" transform="translate(7,43)"/>
<path d="M0,0 L1,0 L1,1 L0,1 Z " fill="#70BFF4" opacity="0.7607843" transform="translate(5,43)"/>
<path d="M0,0 L1,0 L1,1 L0,1 Z " fill="#5EB2EA" opacity="0.92156863" transform="translate(4,43)"/>
<path d="M0,0 L1,0 L1,1 L0,1 Z " fill="#60B3EB" opacity="0.88235295" transform="translate(28,42)"/>
<path d="M0,0 L1,0 L1,1 L0,1 Z " fill="#77C5F9" opacity="0.75686276" transform="translate(27,42)"/>
<path d="M0,0 L1,0 L1,1 L0,1 Z " fill="#81CDFF" opacity="0.8980392" transform="translate(26,42)"/>
<path d="M0,0 L1,0 L1,1 L0,1 Z " fill="#82CEFF" opacity="0.99607843" transform="translate(4,42)"/>
<path d="M0,0 L1,0 L1,1 L0,1 Z " fill="#67B8EF" opacity="0.8117647" transform="translate(2,42)"/>
<path d="M0,0 L1,0 L1,1 L0,1 Z " fill="#5BAEE7" transform="translate(0,42)"/>
<path d="M0,0 L1,0 L1,1 L0,1 Z " fill="#5AAEE7" opacity="0.99607843" transform="translate(63,41)"/>
<path d="M0,0 L1,0 L1,1 L0,1 Z " fill="#7CCAFC" opacity="0.7921569" transform="translate(29,41)"/>
<path d="M0,0 L1,0 L1,1 L0,1 Z " fill="#82CEFF" opacity="0.99607843" transform="translate(28,41)"/>
<path d="M0,0 L1,0 L1,1 L0,1 Z " fill="#6ABCF1" opacity="0.78431374" transform="translate(0,41)"/>
<path d="M0,0 L1,0 L1,1 L0,1 Z " fill="#74C2F6" opacity="0.7529412" transform="translate(62,40)"/>
<path d="M0,0 L1,0 L1,1 L0,1 Z " fill="#5EB1EA" opacity="0.92156863" transform="translate(61,40)"/>
<path d="M0,0 L1,0 L1,1 L0,1 Z " fill="#6DBEF4" opacity="0.76862746" transform="translate(32,40)"/>
<path d="M0,0 L1,0 L1,1 L0,1 Z " fill="#80CDFE" opacity="0.8509804" transform="translate(31,40)"/>
<path d="M0,0 L1,0 L1,1 L0,1 Z " fill="#85D0FF" opacity="0.9411765" transform="translate(22,40)"/>
<path d="M0,0 L1,0 L1,1 L0,1 Z " fill="#91D4FF" opacity="0.80784315" transform="translate(21,40)"/>
<path d="M0,0 L1,0 L1,1 L0,1 Z " fill="#ACDBFF" opacity="0.78039217" transform="translate(19,40)"/>
<path d="M0,0 L1,0 L1,1 L0,1 Z " fill="#B2DFFF" opacity="0.8666667" transform="translate(17,40)"/>
<path d="M0,0 L1,0 L1,1 L0,1 Z " fill="#B2DFFF" opacity="0.9254902" transform="translate(16,40)"/>
<path d="M0,0 L1,0 L1,1 L0,1 Z " fill="#B4DFFF" opacity="0.95686275" transform="translate(14,40)"/>
<path d="M0,0 L1,0 L1,1 L0,1 Z " fill="#B3DEFF" opacity="0.87058824" transform="translate(12,40)"/>
<path d="M0,0 L1,0 L1,1 L0,1 Z " fill="#AADCFF" opacity="0.7647059" transform="translate(10,40)"/>
<path d="M0,0 L1,0 L1,1 L0,1 Z " fill="#91D4FF" opacity="0.8156863" transform="translate(8,40)"/>
<path d="M0,0 L1,0 L1,1 L0,1 Z " fill="#84CFFF" opacity="0.94509804" transform="translate(7,40)"/>
<path d="M0,0 L1,0 L1,1 L0,1 Z " fill="#82CDFF" opacity="0.98039216" transform="translate(61,39)"/>
<path d="M0,0 L1,0 L1,1 L0,1 Z " fill="#67BAEF" opacity="0.8039216" transform="translate(59,39)"/>
<path d="M0,0 L1,0 L1,1 L0,1 Z " fill="#5AAEE7" opacity="0.9843137" transform="translate(58,39)"/>
<path d="M0,0 L1,0 L1,1 L0,1 Z " fill="#5EB1EA" opacity="0.9137255" transform="translate(35,39)"/>
<path d="M0,0 L1,0 L1,1 L0,1 Z " fill="#75C4F8" opacity="0.7529412" transform="translate(34,39)"/>
<path d="M0,0 L1,0 L1,1 L0,1 Z " fill="#81CEFF" opacity="0.92156863" transform="translate(33,39)"/>
<path d="M0,0 L1,0 L1,1 L0,1 Z " fill="#A5DAFF" opacity="0.7529412" transform="translate(24,39)"/>
<path d="M0,0 L1,0 L1,1 L0,1 Z " fill="#B3DDFF" opacity="0.8745098" transform="translate(23,39)"/>
<path d="M0,0 L1,0 L1,1 L0,1 Z " fill="#B3DFFF" opacity="0.9882353" transform="translate(7,39)"/>
<path d="M0,0 L1,0 L1,1 L0,1 Z " fill="#9DD8FF" opacity="0.7607843" transform="translate(5,39)"/>
<path d="M0,0 L1,0 L1,1 L0,1 Z " fill="#85D0FF" opacity="0.92156863" transform="translate(4,39)"/>
<path d="M0,0 L1,0 L1,1 L0,1 Z " fill="#82CEFF" opacity="0.9490196" transform="translate(58,38)"/>
<path d="M0,0 L1,0 L1,1 L0,1 Z " fill="#6DBCF1" opacity="0.77254903" transform="translate(56,38)"/>
<path d="M0,0 L1,0 L1,1 L0,1 Z " fill="#5FB1E9" opacity="0.92941177" transform="translate(55,38)"/>
<path d="M0,0 L1,0 L1,1 L0,1 Z " fill="#60B3EB" opacity="0.87058824" transform="translate(38,38)"/>
<path d="M0,0 L1,0 L1,1 L0,1 Z " fill="#7ECCFE" opacity="0.8156863" transform="translate(36,38)"/>
<path d="M0,0 L1,0 L1,1 L0,1 Z " fill="#82CEFF" opacity="0.9882353" transform="translate(35,38)"/>
<path d="M0,0 L1,0 L1,1 L0,1 Z " fill="#A5DAFF" opacity="0.75686276" transform="translate(27,38)"/>
<path d="M0,0 L1,0 L1,1 L0,1 Z " fill="#B2DEFF" opacity="0.8980392" transform="translate(26,38)"/>
<path d="M0,0 L1,0 L1,1 L0,1 Z " fill="#B4DFFF" opacity="0.99607843" transform="translate(4,38)"/>
<path d="M0,0 L1,0 L1,1 L0,1 Z " fill="#91D4FF" opacity="0.8117647" transform="translate(2,38)"/>
<path d="M0,0 L1,0 L1,1 L0,1 Z " fill="#82CEFF" transform="translate(0,38)"/>
<path d="M0,0 L1,0 L1,1 L0,1 Z " fill="#82CEFF" opacity="0.99607843" transform="translate(63,37)"/>
<path d="M0,0 L1,0 L1,1 L0,1 Z " fill="#81CDFF" opacity="0.89411765" transform="translate(54,37)"/>
<path d="M0,0 L1,0 L1,1 L0,1 Z " fill="#75C4F6" opacity="0.7529412" transform="translate(52,37)"/>
<path d="M0,0 L1,0 L1,1 L0,1 Z " fill="#64B7ED" opacity="0.827451" transform="translate(50,37)"/>
<path d="M0,0 L1,0 L1,1 L0,1 Z " fill="#5FB1E9" opacity="0.92941177" transform="translate(48,37)"/>
<path d="M0,0 L1,0 L1,1 L0,1 Z " fill="#5BADE7" opacity="0.9882353" transform="translate(47,37)"/>
<path d="M0,0 L1,0 L1,1 L0,1 Z " fill="#5EB1EA" opacity="0.92156863" transform="translate(45,37)"/>
<path d="M0,0 L1,0 L1,1 L0,1 Z " fill="#62B6ED" opacity="0.84705883" transform="translate(43,37)"/>
<path d="M0,0 L1,0 L1,1 L0,1 Z " fill="#6CBCF3" opacity="0.7764706" transform="translate(42,37)"/>
<path d="M0,0 L1,0 L1,1 L0,1 Z " fill="#7DCAFD" opacity="0.78431374" transform="translate(40,37)"/>
<path d="M0,0 L1,0 L1,1 L0,1 Z " fill="#81CDFE" opacity="0.89411765" transform="translate(39,37)"/>
<path d="M0,0 L1,0 L1,1 L0,1 Z " fill="#ADDCFF" opacity="0.7921569" transform="translate(29,37)"/>
<path d="M0,0 L1,0 L1,1 L0,1 Z " fill="#B4DFFF" opacity="0.99607843" transform="translate(28,37)"/>
<path d="M0,0 L1,0 L1,1 L0,1 Z " fill="#97D7FF" opacity="0.78431374" transform="translate(0,37)"/>
<path d="M0,0 L1,0 L1,1 L0,1 Z " fill="#A2DAFF" opacity="0.7529412" transform="translate(62,36)"/>
<path d="M0,0 L1,0 L1,1 L0,1 Z " fill="#87D1FF" opacity="0.92156863" transform="translate(61,36)"/>
<path d="M0,0 L1,0 L1,1 L0,1 Z " fill="#9BD7FF" opacity="0.76862746" transform="translate(32,36)"/>
<path d="M0,0 L1,0 L1,1 L0,1 Z " fill="#B0DEFF" opacity="0.8509804" transform="translate(31,36)"/>
<path d="M0,0 L1,0 L1,1 L0,1 Z " fill="#B4DFFF" opacity="0.98039216" transform="translate(61,35)"/>
<path d="M0,0 L1,0 L1,1 L0,1 Z " fill="#93D4FF" opacity="0.8039216" transform="translate(59,35)"/>
<path d="M0,0 L1,0 L1,1 L0,1 Z " fill="#82CFFF" opacity="0.9843137" transform="translate(58,35)"/>
<path d="M0,0 L1,0 L1,1 L0,1 Z " fill="#A4D9FF" opacity="0.7529412" transform="translate(34,35)"/>
<path d="M0,0 L1,0 L1,1 L0,1 Z " fill="#B4DFFF" opacity="0.92156863" transform="translate(33,35)"/>
<path d="M0,0 L1,0 L1,1 L0,1 Z " fill="#B3DFFF" opacity="0.9490196" transform="translate(58,34)"/>
<path d="M0,0 L1,0 L1,1 L0,1 Z " fill="#99D6FF" opacity="0.77254903" transform="translate(56,34)"/>
<path d="M0,0 L1,0 L1,1 L0,1 Z " fill="#87D0FF" opacity="0.92941177" transform="translate(55,34)"/>
<path d="M0,0 L1,0 L1,1 L0,1 Z " fill="#8AD0FF" opacity="0.87058824" transform="translate(38,34)"/>
<path d="M0,0 L1,0 L1,1 L0,1 Z " fill="#B0DDFF" opacity="0.8156863" transform="translate(36,34)"/>
<path d="M0,0 L1,0 L1,1 L0,1 Z " fill="#B3DFFF" opacity="0.9882353" transform="translate(35,34)"/>
<path d="M0,0 L1,0 L1,1 L0,1 Z " fill="#B2DFFF" opacity="0.89411765" transform="translate(54,33)"/>
<path d="M0,0 L1,0 L1,1 L0,1 Z " fill="#A4D9FF" opacity="0.7529412" transform="translate(52,33)"/>
<path d="M0,0 L1,0 L1,1 L0,1 Z " fill="#90D4FF" opacity="0.827451" transform="translate(50,33)"/>
<path d="M0,0 L1,0 L1,1 L0,1 Z " fill="#87D0FF" opacity="0.92941177" transform="translate(48,33)"/>
<path d="M0,0 L1,0 L1,1 L0,1 Z " fill="#83CFFF" opacity="0.9882353" transform="translate(47,33)"/>
<path d="M0,0 L1,0 L1,1 L0,1 Z " fill="#87D1FF" opacity="0.92156863" transform="translate(45,33)"/>
<path d="M0,0 L1,0 L1,1 L0,1 Z " fill="#8DD2FF" opacity="0.84705883" transform="translate(43,33)"/>
<path d="M0,0 L1,0 L1,1 L0,1 Z " fill="#98D6FF" opacity="0.7764706" transform="translate(42,33)"/>
<path d="M0,0 L1,0 L1,1 L0,1 Z " fill="#ACDDFF" opacity="0.78431374" transform="translate(40,33)"/>
<path d="M0,0 L1,0 L1,1 L0,1 Z " fill="#B3DEFF" opacity="0.89411765" transform="translate(39,33)"/>
<path d="M0,0 L1,0 L1,1 L0,1 Z " fill="#B3DEFF" opacity="0.9411765" transform="translate(22,32)"/>
<path d="M0,0 L1,0 L1,1 L0,1 Z " fill="#A5DAFF" opacity="0.7529412" transform="translate(20,32)"/>
<path d="M0,0 L1,0 L1,1 L0,1 Z " fill="#91D2FF" opacity="0.81960785" transform="translate(18,32)"/>
<path d="M0,0 L1,0 L1,1 L0,1 Z " fill="#86D0FF" opacity="0.9254902" transform="translate(16,32)"/>
<path d="M0,0 L1,0 L1,1 L0,1 Z " fill="#82CEFF" opacity="0.99215686" transform="translate(15,32)"/>
<path d="M0,0 L1,0 L1,1 L0,1 Z " fill="#87D0FF" opacity="0.9137255" transform="translate(13,32)"/>
<path d="M0,0 L1,0 L1,1 L0,1 Z " fill="#8FD3FF" opacity="0.83137256" transform="translate(11,32)"/>
<path d="M0,0 L1,0 L1,1 L0,1 Z " fill="#9CD7FF" opacity="0.7647059" transform="translate(10,32)"/>
<path d="M0,0 L1,0 L1,1 L0,1 Z " fill="#B1DDFF" opacity="0.8156863" transform="translate(8,32)"/>
<path d="M0,0 L1,0 L1,1 L0,1 Z " fill="#B4DFFF" opacity="0.94509804" transform="translate(7,32)"/>
<path d="M0,0 L1,0 L1,1 L0,1 Z " fill="#A1D9FF" opacity="0.7529412" transform="translate(24,31)"/>
<path d="M0,0 L1,0 L1,1 L0,1 Z " fill="#89D0FF" opacity="0.8745098" transform="translate(23,31)"/>
<path d="M0,0 L1,0 L1,1 L0,1 Z " fill="#83CFFF" opacity="0.9882353" transform="translate(7,31)"/>
<path d="M0,0 L1,0 L1,1 L0,1 Z " fill="#AADCFF" opacity="0.7607843" transform="translate(5,31)"/>
<path d="M0,0 L1,0 L1,1 L0,1 Z " fill="#B3DEFF" opacity="0.92156863" transform="translate(4,31)"/>
<path d="M0,0 L1,0 L1,1 L0,1 Z " fill="#9FD9FF" opacity="0.75686276" transform="translate(27,30)"/>
<path d="M0,0 L1,0 L1,1 L0,1 Z " fill="#89CFFF" opacity="0.8980392" transform="translate(26,30)"/>
<path d="M0,0 L1,0 L1,1 L0,1 Z " fill="#82CEFF" opacity="0.99607843" transform="translate(4,30)"/>
<path d="M0,0 L1,0 L1,1 L0,1 Z " fill="#B0DEFF" opacity="0.8117647" transform="translate(2,30)"/>
<path d="M0,0 L1,0 L1,1 L0,1 Z " fill="#B4DFFF" transform="translate(0,30)"/>
<path d="M0,0 L1,0 L1,1 L0,1 Z " fill="#B4DFFF" opacity="0.99607843" transform="translate(63,29)"/>
<path d="M0,0 L1,0 L1,1 L0,1 Z " fill="#95D4FF" opacity="0.7921569" transform="translate(29,29)"/>
<path d="M0,0 L1,0 L1,1 L0,1 Z " fill="#82CEFF" opacity="0.99607843" transform="translate(28,29)"/>
<path d="M0,0 L1,0 L1,1 L0,1 Z " fill="#ACDDFF" opacity="0.78431374" transform="translate(0,29)"/>
<path d="M0,0 L1,0 L1,1 L0,1 Z " fill="#A5DAFF" opacity="0.7529412" transform="translate(62,28)"/>
<path d="M0,0 L1,0 L1,1 L0,1 Z " fill="#B4DFFF" opacity="0.92156863" transform="translate(61,28)"/>
<path d="M0,0 L1,0 L1,1 L0,1 Z " fill="#ABDCFF" opacity="0.76862746" transform="translate(32,28)"/>
<path d="M0,0 L1,0 L1,1 L0,1 Z " fill="#8DD1FF" opacity="0.8509804" transform="translate(31,28)"/>
<path d="M0,0 L1,0 L1,1 L0,1 Z " fill="#83CDFF" opacity="0.98039216" transform="translate(61,27)"/>
<path d="M0,0 L1,0 L1,1 L0,1 Z " fill="#B0DEFF" opacity="0.8039216" transform="translate(59,27)"/>
<path d="M0,0 L1,0 L1,1 L0,1 Z " fill="#B4DFFF" opacity="0.9843137" transform="translate(58,27)"/>
<path d="M0,0 L1,0 L1,1 L0,1 Z " fill="#A4D9FF" opacity="0.7529412" transform="translate(34,27)"/>
<path d="M0,0 L1,0 L1,1 L0,1 Z " fill="#87D1FF" opacity="0.92156863" transform="translate(33,27)"/>
<path d="M0,0 L1,0 L1,1 L0,1 Z " fill="#85CFFF" opacity="0.9490196" transform="translate(58,26)"/>
<path d="M0,0 L1,0 L1,1 L0,1 Z " fill="#ABDBFF" opacity="0.77254903" transform="translate(56,26)"/>
<path d="M0,0 L1,0 L1,1 L0,1 Z " fill="#B3DFFF" opacity="0.92941177" transform="translate(55,26)"/>
<path d="M0,0 L1,0 L1,1 L0,1 Z " fill="#B2DFFF" opacity="0.87058824" transform="translate(38,26)"/>
<path d="M0,0 L1,0 L1,1 L0,1 Z " fill="#91D3FF" opacity="0.8156863" transform="translate(36,26)"/>
<path d="M0,0 L1,0 L1,1 L0,1 Z " fill="#83CFFF" opacity="0.9882353" transform="translate(35,26)"/>
<path d="M0,0 L1,0 L1,1 L0,1 Z " fill="#88D0FF" opacity="0.89411765" transform="translate(54,25)"/>
<path d="M0,0 L1,0 L1,1 L0,1 Z " fill="#A4DAFF" opacity="0.7529412" transform="translate(52,25)"/>
<path d="M0,0 L1,0 L1,1 L0,1 Z " fill="#AEDDFF" opacity="0.78431374" transform="translate(51,25)"/>
<path d="M0,0 L1,0 L1,1 L0,1 Z " fill="#B3DDFF" opacity="0.8745098" transform="translate(49,25)"/>
<path d="M0,0 L1,0 L1,1 L0,1 Z " fill="#B3DFFF" opacity="0.92941177" transform="translate(48,25)"/>
<path d="M0,0 L1,0 L1,1 L0,1 Z " fill="#B3DFFF" opacity="0.9607843" transform="translate(46,25)"/>
<path d="M0,0 L1,0 L1,1 L0,1 Z " fill="#B2DFFF" opacity="0.8862745" transform="translate(44,25)"/>
<path d="M0,0 L1,0 L1,1 L0,1 Z " fill="#ADDEFF" opacity="0.7764706" transform="translate(42,25)"/>
<path d="M0,0 L1,0 L1,1 L0,1 Z " fill="#95D5FF" opacity="0.78431374" transform="translate(40,25)"/>
<path d="M0,0 L1,0 L1,1 L0,1 Z " fill="#88D0FF" opacity="0.89411765" transform="translate(39,25)"/>
<path d="M0,0 L1,0 L1,1 L0,1 Z " fill="#81CDFF" opacity="0.9411765" transform="translate(22,23)"/>
<path d="M0,0 L1,0 L1,1 L0,1 Z " fill="#76C5F9" opacity="0.7529412" transform="translate(20,23)"/>
<path d="M0,0 L1,0 L1,1 L0,1 Z " fill="#6ABBF1" opacity="0.78039217" transform="translate(19,23)"/>
<path d="M0,0 L1,0 L1,1 L0,1 Z " fill="#61B4EC" opacity="0.8666667" transform="translate(17,23)"/>
<path d="M0,0 L1,0 L1,1 L0,1 Z " fill="#5EB0E9" opacity="0.9254902" transform="translate(16,23)"/>
<path d="M0,0 L1,0 L1,1 L0,1 Z " fill="#5BAFE7" opacity="0.99215686" transform="translate(15,23)"/>
<path d="M0,0 L1,0 L1,1 L0,1 Z " fill="#5EB1EA" opacity="0.9137255" transform="translate(13,23)"/>
<path d="M0,0 L1,0 L1,1 L0,1 Z " fill="#65B6ED" opacity="0.83137256" transform="translate(11,23)"/>
<path d="M0,0 L1,0 L1,1 L0,1 Z " fill="#6EBFF4" opacity="0.7647059" transform="translate(10,23)"/>
<path d="M0,0 L1,0 L1,1 L0,1 Z " fill="#7ECCFE" opacity="0.8156863" transform="translate(8,23)"/>
<path d="M0,0 L1,0 L1,1 L0,1 Z " fill="#81CEFF" opacity="0.94509804" transform="translate(7,23)"/>
<path d="M0,0 L1,0 L1,1 L0,1 Z " fill="#72C1F6" opacity="0.7529412" transform="translate(24,22)"/>
<path d="M0,0 L1,0 L1,1 L0,1 Z " fill="#60B3EB" opacity="0.8745098" transform="translate(23,22)"/>
<path d="M0,0 L1,0 L1,1 L0,1 Z " fill="#5BADE7" opacity="0.9882353" transform="translate(7,22)"/>
<path d="M0,0 L1,0 L1,1 L0,1 Z " fill="#79C7FA" opacity="0.7607843" transform="translate(5,22)"/>
<path d="M0,0 L1,0 L1,1 L0,1 Z " fill="#80CDFE" opacity="0.92156863" transform="translate(4,22)"/>
<path d="M0,0 L1,0 L1,1 L0,1 Z " fill="#70C1F6" opacity="0.75686276" transform="translate(27,21)"/>
<path d="M0,0 L1,0 L1,1 L0,1 Z " fill="#60B2EA" opacity="0.8980392" transform="translate(26,21)"/>
<path d="M0,0 L1,0 L1,1 L0,1 Z " fill="#5AAEE7" opacity="0.99607843" transform="translate(4,21)"/>
<path d="M0,0 L1,0 L1,1 L0,1 Z " fill="#68B9EF" opacity="0.8" transform="translate(3,21)"/>
<path d="M0,0 L1,0 L1,1 L0,1 Z " fill="#7ECCFE" opacity="0.8117647" transform="translate(2,21)"/>
<path d="M0,0 L1,0 L1,1 L0,1 Z " fill="#82CEFF" opacity="0.99607843" transform="translate(63,20)"/>
<path d="M0,0 L1,0 L1,1 L0,1 Z " fill="#69BAF0" opacity="0.7921569" transform="translate(29,20)"/>
<path d="M0,0 L1,0 L1,1 L0,1 Z " fill="#5AAEE7" opacity="0.99607843" transform="translate(28,20)"/>
<path d="M0,0 L1,0 L1,1 L0,1 Z " fill="#63B5EE" opacity="0.8392157" transform="translate(1,20)"/>
<path d="M0,0 L1,0 L1,1 L0,1 Z " fill="#7CCAFC" opacity="0.78431374" transform="translate(0,20)"/>
<path d="M0,0 L1,0 L1,1 L0,1 Z " fill="#60B2EA" opacity="0.89411765" transform="translate(63,19)"/>
<path d="M0,0 L1,0 L1,1 L0,1 Z " fill="#76C5F8" opacity="0.7529412" transform="translate(62,19)"/>
<path d="M0,0 L1,0 L1,1 L0,1 Z " fill="#81CEFF" opacity="0.92156863" transform="translate(61,19)"/>
<path d="M0,0 L1,0 L1,1 L0,1 Z " fill="#7AC9FC" opacity="0.76862746" transform="translate(32,19)"/>
<path d="M0,0 L1,0 L1,1 L0,1 Z " fill="#63B5ED" opacity="0.8509804" transform="translate(31,19)"/>
<path d="M0,0 L1,0 L1,1 L0,1 Z " fill="#5CAFE7" opacity="0.98039216" transform="translate(61,18)"/>
<path d="M0,0 L1,0 L1,1 L0,1 Z " fill="#7ECBFE" opacity="0.8039216" transform="translate(59,18)"/>
<path d="M0,0 L1,0 L1,1 L0,1 Z " fill="#81CEFF" opacity="0.9843137" transform="translate(58,18)"/>
<path d="M0,0 L1,0 L1,1 L0,1 Z " fill="#74C4F8" opacity="0.7529412" transform="translate(34,18)"/>
<path d="M0,0 L1,0 L1,1 L0,1 Z " fill="#5EB1EA" opacity="0.92156863" transform="translate(33,18)"/>
<path d="M0,0 L1,0 L1,1 L0,1 Z " fill="#5DB0E9" opacity="0.9490196" transform="translate(58,17)"/>
<path d="M0,0 L1,0 L1,1 L0,1 Z " fill="#7AC8FA" opacity="0.77254903" transform="translate(56,17)"/>
<path d="M0,0 L1,0 L1,1 L0,1 Z " fill="#81CEFF" opacity="0.92941177" transform="translate(55,17)"/>
<path d="M0,0 L1,0 L1,1 L0,1 Z " fill="#81CDFE" opacity="0.87058824" transform="translate(38,17)"/>
<path d="M0,0 L1,0 L1,1 L0,1 Z " fill="#66B7EE" opacity="0.8156863" transform="translate(36,17)"/>
<path d="M0,0 L1,0 L1,1 L0,1 Z " fill="#5BADE7" opacity="0.9882353" transform="translate(35,17)"/>
<path d="M0,0 L1,0 L1,1 L0,1 Z " fill="#60B2EA" opacity="0.89411765" transform="translate(54,16)"/>
<path d="M0,0 L1,0 L1,1 L0,1 Z " fill="#75C4F8" opacity="0.7529412" transform="translate(52,16)"/>
<path d="M0,0 L1,0 L1,1 L0,1 Z " fill="#7DCAFD" opacity="0.78431374" transform="translate(51,16)"/>
<path d="M0,0 L1,0 L1,1 L0,1 Z " fill="#80CDFE" opacity="0.8745098" transform="translate(49,16)"/>
<path d="M0,0 L1,0 L1,1 L0,1 Z " fill="#81CEFF" opacity="0.92941177" transform="translate(48,16)"/>
<path d="M0,0 L1,0 L1,1 L0,1 Z " fill="#81CDFF" opacity="0.9607843" transform="translate(46,16)"/>
<path d="M0,0 L1,0 L1,1 L0,1 Z " fill="#81CEFF" opacity="0.8862745" transform="translate(44,16)"/>
<path d="M0,0 L1,0 L1,1 L0,1 Z " fill="#7CC9FD" opacity="0.7764706" transform="translate(42,16)"/>
<path d="M0,0 L1,0 L1,1 L0,1 Z " fill="#6ABAF1" opacity="0.78431374" transform="translate(40,16)"/>
<path d="M0,0 L1,0 L1,1 L0,1 Z " fill="#5FB2EA" opacity="0.89411765" transform="translate(39,16)"/>
<path d="M0,0 L1,0 L1,1 L0,1 Z " fill="#5DB1E8" opacity="0.9411765" transform="translate(22,10)"/>
<path d="M0,0 L1,0 L1,1 L0,1 Z " fill="#72C2F6" opacity="0.7529412" transform="translate(20,10)"/>
<path d="M0,0 L1,0 L1,1 L0,1 Z " fill="#7BC8FC" opacity="0.78039217" transform="translate(19,10)"/>
<path d="M0,0 L1,0 L1,1 L0,1 Z " fill="#80CDFF" opacity="0.8666667" transform="translate(17,10)"/>
<path d="M0,0 L1,0 L1,1 L0,1 Z " fill="#81CEFF" opacity="0.9254902" transform="translate(16,10)"/>
<path d="M0,0 L1,0 L1,1 L0,1 Z " fill="#82CEFF" opacity="0.95686275" transform="translate(14,10)"/>
<path d="M0,0 L1,0 L1,1 L0,1 Z " fill="#81CEFF" opacity="0.87058824" transform="translate(12,10)"/>
<path d="M0,0 L1,0 L1,1 L0,1 Z " fill="#7AC7FC" opacity="0.7647059" transform="translate(10,10)"/>
<path d="M0,0 L1,0 L1,1 L0,1 Z " fill="#67B8F0" opacity="0.8156863" transform="translate(8,10)"/>
<path d="M0,0 L1,0 L1,1 L0,1 Z " fill="#5DB0E9" opacity="0.94509804" transform="translate(7,10)"/>
<path d="M0,0 L1,0 L1,1 L0,1 Z " fill="#76C5F9" opacity="0.7529412" transform="translate(24,9)"/>
<path d="M0,0 L1,0 L1,1 L0,1 Z " fill="#80CDFE" opacity="0.8745098" transform="translate(23,9)"/>
<path d="M0,0 L1,0 L1,1 L0,1 Z " fill="#82CEFF" opacity="0.9882353" transform="translate(7,9)"/>
<path d="M0,0 L1,0 L1,1 L0,1 Z " fill="#70BFF4" opacity="0.7607843" transform="translate(5,9)"/>
<path d="M0,0 L1,0 L1,1 L0,1 Z " fill="#5EB2EA" opacity="0.92156863" transform="translate(4,9)"/>
<path d="M0,0 L1,0 L1,1 L0,1 Z " fill="#60B3EB" opacity="0.88235295" transform="translate(28,8)"/>
<path d="M0,0 L1,0 L1,1 L0,1 Z " fill="#77C5F9" opacity="0.75686276" transform="translate(27,8)"/>
<path d="M0,0 L1,0 L1,1 L0,1 Z " fill="#81CDFF" opacity="0.8980392" transform="translate(26,8)"/>
<path d="M0,0 L1,0 L1,1 L0,1 Z " fill="#82CEFF" opacity="0.99607843" transform="translate(4,8)"/>
<path d="M0,0 L1,0 L1,1 L0,1 Z " fill="#67B8EF" opacity="0.8117647" transform="translate(2,8)"/>
<path d="M0,0 L1,0 L1,1 L0,1 Z " fill="#5BAEE7" transform="translate(0,8)"/>
<path d="M0,0 L1,0 L1,1 L0,1 Z " fill="#5AAEE7" opacity="0.99607843" transform="translate(63,7)"/>
<path d="M0,0 L1,0 L1,1 L0,1 Z " fill="#7CCAFC" opacity="0.7921569" transform="translate(29,7)"/>
<path d="M0,0 L1,0 L1,1 L0,1 Z " fill="#82CEFF" opacity="0.99607843" transform="translate(28,7)"/>
<path d="M0,0 L1,0 L1,1 L0,1 Z " fill="#6ABCF1" opacity="0.78431374" transform="translate(0,7)"/>
<path d="M0,0 L1,0 L1,1 L0,1 Z " fill="#74C2F6" opacity="0.7529412" transform="translate(62,6)"/>
<path d="M0,0 L1,0 L1,1 L0,1 Z " fill="#5EB1EA" opacity="0.92156863" transform="translate(61,6)"/>
<path d="M0,0 L1,0 L1,1 L0,1 Z " fill="#6DBEF4" opacity="0.76862746" transform="translate(32,6)"/>
<path d="M0,0 L1,0 L1,1 L0,1 Z " fill="#80CDFE" opacity="0.8509804" transform="translate(31,6)"/>
<path d="M0,0 L1,0 L1,1 L0,1 Z " fill="#82CDFF" opacity="0.98039216" transform="translate(61,5)"/>
<path d="M0,0 L1,0 L1,1 L0,1 Z " fill="#67BAEF" opacity="0.8039216" transform="translate(59,5)"/>
<path d="M0,0 L1,0 L1,1 L0,1 Z " fill="#5AAEE7" opacity="0.9843137" transform="translate(58,5)"/>
<path d="M0,0 L1,0 L1,1 L0,1 Z " fill="#5EB1EA" opacity="0.9137255" transform="translate(35,5)"/>
<path d="M0,0 L1,0 L1,1 L0,1 Z " fill="#75C4F8" opacity="0.7529412" transform="translate(34,5)"/>
<path d="M0,0 L1,0 L1,1 L0,1 Z " fill="#81CEFF" opacity="0.92156863" transform="translate(33,5)"/>
<path d="M0,0 L1,0 L1,1 L0,1 Z " fill="#82CEFF" opacity="0.9490196" transform="translate(58,4)"/>
<path d="M0,0 L1,0 L1,1 L0,1 Z " fill="#6DBCF1" opacity="0.77254903" transform="translate(56,4)"/>
<path d="M0,0 L1,0 L1,1 L0,1 Z " fill="#5FB1E9" opacity="0.92941177" transform="translate(55,4)"/>
<path d="M0,0 L1,0 L1,1 L0,1 Z " fill="#60B3EB" opacity="0.87058824" transform="translate(38,4)"/>
<path d="M0,0 L1,0 L1,1 L0,1 Z " fill="#7ECCFE" opacity="0.8156863" transform="translate(36,4)"/>
<path d="M0,0 L1,0 L1,1 L0,1 Z " fill="#82CEFF" opacity="0.9882353" transform="translate(35,4)"/>
<path d="M0,0 L1,0 L1,1 L0,1 Z " fill="#81CDFF" opacity="0.89411765" transform="translate(54,3)"/>
<path d="M0,0 L1,0 L1,1 L0,1 Z " fill="#75C4F6" opacity="0.7529412" transform="translate(52,3)"/>
<path d="M0,0 L1,0 L1,1 L0,1 Z " fill="#64B7ED" opacity="0.827451" transform="translate(50,3)"/>
<path d="M0,0 L1,0 L1,1 L0,1 Z " fill="#5FB1E9" opacity="0.92941177" transform="translate(48,3)"/>
<path d="M0,0 L1,0 L1,1 L0,1 Z " fill="#5BADE7" opacity="0.9882353" transform="translate(47,3)"/>
<path d="M0,0 L1,0 L1,1 L0,1 Z " fill="#5EB1EA" opacity="0.92156863" transform="translate(45,3)"/>
<path d="M0,0 L1,0 L1,1 L0,1 Z " fill="#62B6ED" opacity="0.84705883" transform="translate(43,3)"/>
<path d="M0,0 L1,0 L1,1 L0,1 Z " fill="#6CBCF3" opacity="0.7764706" transform="translate(42,3)"/>
<path d="M0,0 L1,0 L1,1 L0,1 Z " fill="#7DCAFD" opacity="0.78431374" transform="translate(40,3)"/>
<path d="M0,0 L1,0 L1,1 L0,1 Z " fill="#81CDFE" opacity="0.89411765" transform="translate(39,3)"/>
</svg>
