<?xml version="1.0" encoding="UTF-8"?>
<!-- Generator: visioncortex VTracer 0.6.4 -->
<svg version="1.1" xmlns="http://www.w3.org/2000/svg" width="64" height="64">
<path d="M0,0 L1,0 L1,1 L8,1 L8,2 L12,2 L12,3 L14,3 L14,4 L16,4 L16,7 L14,7 L14,8 L16,8 L16,15 L14,15 L14,16 L16,16 L16,19 L14,19 L14,20 L16,20 L16,32 L-48,32 L-48,21 L-46,21 L-46,22 L-43,22 L-43,23 L-39,23 L-39,22 L-42,22 L-42,21 L-45,21 L-45,20 L-47,20 L-47,19 L-48,19 L-48,17 L-46,17 L-46,18 L-43,18 L-43,19 L-39,19 L-39,18 L-42,18 L-42,17 L-45,17 L-45,16 L-47,16 L-47,15 L-48,15 L-48,9 L-46,9 L-46,10 L-43,10 L-43,11 L-39,11 L-39,10 L-42,10 L-42,9 L-45,9 L-45,8 L-47,8 L-47,7 L-48,7 L-48,5 L-46,5 L-46,6 L-43,6 L-43,7 L-39,7 L-39,8 L-23,8 L-23,7 L-20,7 L-20,6 L-17,6 L-17,5 L-15,5 L-15,4 L-13,4 L-13,3 L-10,3 L-10,2 L-7,2 L-7,1 L0,1 Z M-7,4 L-7,5 L0,5 L0,4 Z M1,4 L1,5 L8,5 L8,6 L12,6 L12,5 L9,5 L9,4 Z M-11,5 L-11,6 L-13,6 L-13,7 L-10,7 L-10,6 L-7,6 L-7,5 Z M12,6 L12,7 L14,7 L14,6 Z M-15,7 L-15,8 L-13,8 L-13,7 Z M-18,8 L-18,9 L-20,9 L-20,10 L-17,10 L-17,9 L-15,9 L-15,8 Z M-23,10 L-23,11 L-20,11 L-20,10 Z M-39,11 L-39,12 L-23,12 L-23,11 Z M-7,12 L-7,13 L0,13 L0,12 Z M1,12 L1,13 L8,13 L8,14 L12,14 L12,13 L9,13 L9,12 Z M-11,13 L-11,14 L-13,14 L-13,15 L-10,15 L-10,14 L-7,14 L-7,13 Z M12,14 L12,15 L14,15 L14,14 Z M-15,15 L-15,16 L-13,16 L-13,15 Z M-18,16 L-18,17 L-20,17 L-20,18 L-17,18 L-17,17 L-15,17 L-15,16 Z M-7,16 L-7,17 L0,17 L0,16 Z M1,16 L1,17 L8,17 L8,18 L12,18 L12,17 L9,17 L9,16 Z M-11,17 L-11,18 L-13,18 L-13,19 L-10,19 L-10,18 L-7,18 L-7,17 Z M-23,18 L-23,19 L-20,19 L-20,18 Z M12,18 L12,19 L14,19 L14,18 Z M-39,19 L-39,20 L-23,20 L-23,19 Z M-15,19 L-15,20 L-13,20 L-13,19 Z M-18,20 L-18,21 L-20,21 L-20,22 L-17,22 L-17,21 L-15,21 L-15,20 Z M-23,22 L-23,23 L-20,23 L-20,22 Z M-39,23 L-39,24 L-23,24 L-23,23 Z " fill="#82CEFF" transform="translate(48,32)"/>
<path d="M0,0 L1,0 L1,1 L8,1 L8,2 L12,2 L12,3 L14,3 L14,4 L16,4 L16,7 L14,7 L14,8 L16,8 L16,15 L14,15 L14,14 L12,14 L12,13 L9,13 L9,12 L-7,12 L-7,13 L-11,13 L-11,14 L-13,14 L-13,15 L-15,15 L-15,16 L-18,16 L-18,17 L-20,17 L-20,18 L-23,18 L-23,19 L-39,19 L-39,18 L-42,18 L-42,17 L-45,17 L-45,16 L-47,16 L-47,15 L-48,15 L-48,9 L-46,9 L-46,10 L-43,10 L-43,11 L-39,11 L-39,10 L-42,10 L-42,9 L-45,9 L-45,8 L-47,8 L-47,7 L-48,7 L-48,5 L-46,5 L-46,6 L-43,6 L-43,7 L-39,7 L-39,8 L-23,8 L-23,7 L-20,7 L-20,6 L-17,6 L-17,5 L-15,5 L-15,4 L-13,4 L-13,3 L-10,3 L-10,2 L-7,2 L-7,1 L0,1 Z M-7,4 L-7,5 L0,5 L0,4 Z M1,4 L1,5 L8,5 L8,6 L12,6 L12,5 L9,5 L9,4 Z M-11,5 L-11,6 L-13,6 L-13,7 L-10,7 L-10,6 L-7,6 L-7,5 Z M12,6 L12,7 L14,7 L14,6 Z M-15,7 L-15,8 L-13,8 L-13,7 Z M-18,8 L-18,9 L-20,9 L-20,10 L-17,10 L-17,9 L-15,9 L-15,8 Z M-23,10 L-23,11 L-20,11 L-20,10 Z M-39,11 L-39,12 L-23,12 L-23,11 Z " fill="#E9EDFF" transform="translate(48,32)"/>
<path d="M0,0 L1,0 L1,1 L8,1 L8,2 L12,2 L12,3 L14,3 L14,4 L16,4 L16,7 L14,7 L14,6 L12,6 L12,5 L9,5 L9,4 L1,4 L1,3 L0,3 L0,4 L-7,4 L-7,5 L-11,5 L-11,6 L-13,6 L-13,7 L-16,7 L-16,8 L-18,8 L-18,9 L-20,9 L-20,10 L-23,10 L-23,11 L-39,11 L-39,10 L-42,10 L-42,9 L-45,9 L-45,8 L-47,8 L-47,7 L-48,7 L-48,5 L-46,5 L-46,6 L-43,6 L-43,7 L-39,7 L-39,8 L-23,8 L-23,7 L-20,7 L-20,6 L-17,6 L-17,5 L-15,5 L-15,4 L-13,4 L-13,3 L-10,3 L-10,2 L-7,2 L-7,1 L0,1 Z " fill="#353541" transform="translate(48,32)"/>
<path d="M0,0 L1,0 L1,1 L0,1 Z " fill="#343440" opacity="0.99215686" transform="translate(56,33)"/>
<path d="M0,0 L1,0 L1,1 L8,1 L8,2 L12,2 L12,3 L14,3 L14,4 L16,4 L16,7 L14,7 L14,6 L12,6 L12,5 L9,5 L9,4 L-7,4 L-7,5 L-11,5 L-11,6 L-13,6 L-13,7 L-15,7 L-15,8 L-18,8 L-18,9 L-20,9 L-20,10 L-23,10 L-23,11 L-39,11 L-39,10 L-42,10 L-42,9 L-45,9 L-45,8 L-47,8 L-47,7 L-48,7 L-48,5 L-46,5 L-46,6 L-43,6 L-43,7 L-39,7 L-39,8 L-23,8 L-23,7 L-20,7 L-20,6 L-17,6 L-17,5 L-15,5 L-15,4 L-13,4 L-13,3 L-10,3 L-10,2 L-7,2 L-7,1 L0,1 Z " fill="#5BAEE7" transform="translate(48,44)"/>
<path d="M0,0 L1,0 L1,1 L0,1 Z " fill="#E8ECFF" opacity="0.9372549" transform="translate(17,51)"/>
<path d="M0,0 L1,0 L1,1 L0,1 Z " fill="#33333B" opacity="0.07058824" transform="translate(17,39)"/>
<path d="M0,0 L1,0 L1,1 L0,1 Z " fill="#3C3D48" opacity="0.9647059" transform="translate(16,43)"/>
<path d="M0,0 L1,0 L1,1 L0,1 Z " fill="#343441" opacity="0.8784314" transform="translate(51,32)"/>
<path d="M0,0 L1,0 L1,1 L0,1 Z " fill="#E5E9FC" opacity="0.89411765" transform="translate(51,36)"/>
<path d="M0,0 L1,0 L1,1 L0,1 Z " fill="#30303C" opacity="0.16470589" transform="translate(19,39)"/>
<path d="M0,0 L1,0 L1,1 L0,1 Z " fill="#5DB1E9" opacity="0.8156863" transform="translate(13,55)"/>
<path d="M0,0 L1,0 L1,1 L0,1 Z " fill="#DDE8FD" opacity="0.8156863" transform="translate(13,51)"/>
<path d="M0,0 L1,0 L1,1 L0,1 Z " fill="#76C5F9" opacity="0.8352941" transform="translate(45,48)"/>
<path d="M0,0 L1,0 L1,1 L0,1 Z " fill="#E8ECFF" opacity="0.9372549" transform="translate(56,44)"/>
<path d="M0,0 L1,0 L1,1 L0,1 Z " fill="#63B1E8" opacity="0.94509804" transform="translate(47,44)"/>
<path d="M0,0 L1,0 L1,1 L0,1 Z " fill="#E7EBFD" opacity="0.9137255" transform="translate(24,43)"/>
<path d="M0,0 L1,0 L1,1 L0,1 Z " fill="#5A5B68" opacity="0.85882354" transform="translate(14,43)"/>
<path d="M0,0 L1,0 L1,1 L0,1 Z " fill="#33333F" opacity="0.25490198" transform="translate(13,39)"/>
<path d="M0,0 L1,0 L1,1 L0,1 Z " fill="#353540" opacity="0.7921569" transform="translate(27,38)"/>
<path d="M0,0 L1,0 L1,1 L0,1 Z " fill="#DEE3F5" opacity="0.8352941" transform="translate(45,36)"/>
<path d="M0,0 L1,0 L1,1 L0,1 Z " fill="#343441" opacity="0.89411765" transform="translate(0,36)"/>
<path d="M0,0 L1,0 L1,1 L0,1 Z " fill="#343441" opacity="0.8784314" transform="translate(40,33)"/>
<path d="M0,0 L1,0 L1,1 L0,1 Z " fill="#343440" opacity="0.6901961" transform="translate(44,32)"/>
<path d="M0,0 L1,0 L1,1 L0,1 Z " fill="#68BBF1" opacity="0.75686276" transform="translate(22,55)"/>
<path d="M0,0 L1,0 L1,1 L0,1 Z " fill="#B1D4F5" opacity="0.75686276" transform="translate(22,51)"/>
<path d="M0,0 L1,0 L1,1 L0,1 Z " fill="#E5ECFF" opacity="0.8627451" transform="translate(19,51)"/>
<path d="M0,0 L1,0 L1,1 L0,1 Z " fill="#64B5EE" opacity="0.75686276" transform="translate(54,48)"/>
<path d="M0,0 L1,0 L1,1 L0,1 Z " fill="#7CCAFC" opacity="0.89411765" transform="translate(51,48)"/>
<path d="M0,0 L1,0 L1,1 L0,1 Z " fill="#6EB7EA" opacity="0.89411765" transform="translate(51,44)"/>
<path d="M0,0 L1,0 L1,1 L0,1 Z " fill="#E9EDFF" transform="translate(0,41)"/>
<path d="M0,0 L1,0 L1,1 L0,1 Z " fill="#5CB0E9" opacity="0.83137256" transform="translate(20,55)"/>
<path d="M0,0 L1,0 L1,1 L0,1 Z " fill="#5AAEE7" opacity="0.8980392" transform="translate(18,55)"/>
<path d="M0,0 L1,0 L1,1 L0,1 Z " fill="#5BAFE7" opacity="0.9098039" transform="translate(15,55)"/>
<path d="M0,0 L1,0 L1,1 L0,1 Z " fill="#69B9F0" opacity="0.7529412" transform="translate(11,55)"/>
<path d="M0,0 L1,0 L1,1 L0,1 Z " fill="#76C6F9" opacity="0.8352941" transform="translate(27,54)"/>
<path d="M0,0 L1,0 L1,1 L0,1 Z " fill="#62B5EC" opacity="0.7647059" transform="translate(7,54)"/>
<path d="M0,0 L1,0 L1,1 L0,1 Z " fill="#5EB0EA" opacity="0.79607844" transform="translate(4,53)"/>
<path d="M0,0 L1,0 L1,1 L0,1 Z " fill="#82CEFF" transform="translate(0,53)"/>
<path d="M0,0 L1,0 L1,1 L0,1 Z " fill="#5BAEE7" opacity="0.9137255" transform="translate(2,52)"/>
<path d="M0,0 L1,0 L1,1 L0,1 Z " fill="#E7ECFF" opacity="0.9098039" transform="translate(15,51)"/>
<path d="M0,0 L1,0 L1,1 L0,1 Z " fill="#B5D6F6" opacity="0.7529412" transform="translate(11,51)"/>
<path d="M0,0 L1,0 L1,1 L0,1 Z " fill="#5FB2E9" opacity="0.8" transform="translate(61,50)"/>
<path d="M0,0 L1,0 L1,1 L0,1 Z " fill="#7CCAFD" opacity="0.92156863" transform="translate(37,50)"/>
<path d="M0,0 L1,0 L1,1 L0,1 Z " fill="#7FBDED" opacity="0.8352941" transform="translate(27,50)"/>
<path d="M0,0 L1,0 L1,1 L0,1 Z " fill="#CEE1FC" opacity="0.7647059" transform="translate(7,50)"/>
<path d="M0,0 L1,0 L1,1 L0,1 Z " fill="#63B5ED" opacity="0.75686276" transform="translate(58,49)"/>
<path d="M0,0 L1,0 L1,1 L0,1 Z " fill="#7CCAFC" opacity="0.89411765" transform="translate(40,49)"/>
<path d="M0,0 L1,0 L1,1 L0,1 Z " fill="#D8E6FD" opacity="0.79607844" transform="translate(4,49)"/>
<path d="M0,0 L1,0 L1,1 L0,1 Z " fill="#5BAEE7" transform="translate(0,49)"/>
<path d="M0,0 L1,0 L1,1 L0,1 Z " fill="#7FCAFE" opacity="0.94509804" transform="translate(47,48)"/>
<path d="M0,0 L1,0 L1,1 L0,1 Z " fill="#68B9F0" opacity="0.7529412" transform="translate(43,48)"/>
<path d="M0,0 L1,0 L1,1 L0,1 Z " fill="#E7ECFF" opacity="0.9137255" transform="translate(2,48)"/>
<path d="M0,0 L1,0 L1,1 L0,1 Z " fill="#69B5EA" opacity="0.92156863" transform="translate(37,46)"/>
<path d="M0,0 L1,0 L1,1 L0,1 Z " fill="#E7EDFE" opacity="0.90588236" transform="translate(59,45)"/>
<path d="M0,0 L1,0 L1,1 L0,1 Z " fill="#6EB7EA" opacity="0.89411765" transform="translate(40,45)"/>
<path d="M0,0 L1,0 L1,1 L0,1 Z " fill="#C1DCF9" opacity="0.75686276" transform="translate(54,44)"/>
<path d="M0,0 L1,0 L1,1 L0,1 Z " fill="#7FBFED" opacity="0.8352941" transform="translate(45,44)"/>
<path d="M0,0 L1,0 L1,1 L0,1 Z " fill="#BAD9F8" opacity="0.7529412" transform="translate(43,44)"/>
<path d="M0,0 L1,0 L1,1 L0,1 Z " fill="#B7B9CA" opacity="0.75686276" transform="translate(22,43)"/>
<path d="M0,0 L1,0 L1,1 L0,1 Z " fill="#646573" opacity="0.83137256" transform="translate(20,43)"/>
<path d="M0,0 L1,0 L1,1 L0,1 Z " fill="#858695" opacity="0.7764706" transform="translate(12,43)"/>
<path d="M0,0 L1,0 L1,1 L0,1 Z " fill="#DFE3F5" opacity="0.8352941" transform="translate(27,42)"/>
<path d="M0,0 L1,0 L1,1 L0,1 Z " fill="#494955" opacity="0.9137255" transform="translate(8,42)"/>
<path d="M0,0 L1,0 L1,1 L0,1 Z " fill="#E8ECFE" opacity="0.9411765" transform="translate(30,41)"/>
<path d="M0,0 L1,0 L1,1 L0,1 Z " fill="#3B3B47" opacity="0.972549" transform="translate(5,41)"/>
<path d="M0,0 L1,0 L1,1 L0,1 Z " fill="#E3E7F9" opacity="0.8666667" transform="translate(32,40)"/>
<path d="M0,0 L1,0 L1,1 L0,1 Z " fill="#353540" opacity="0.90588236" transform="translate(24,39)"/>
<path d="M0,0 L1,0 L1,1 L0,1 Z " fill="#353540" opacity="0.54901963" transform="translate(22,39)"/>
<path d="M0,0 L1,0 L1,1 L0,1 Z " fill="#2F2F42" opacity="0.105882354" transform="translate(15,39)"/>
<path d="M0,0 L1,0 L1,1 L0,1 Z " fill="#333341" opacity="0.52156866" transform="translate(11,39)"/>
<path d="M0,0 L1,0 L1,1 L0,1 Z " fill="#E6EBFD" opacity="0.92156863" transform="translate(37,38)"/>
<path d="M0,0 L1,0 L1,1 L0,1 Z " fill="#34343E" opacity="0.19215687" transform="translate(25,38)"/>
<path d="M0,0 L1,0 L1,1 L0,1 Z " fill="#31313B" opacity="0.101960786" transform="translate(8,38)"/>
<path d="M0,0 L1,0 L1,1 L0,1 Z " fill="#4B4B58" opacity="0.90588236" transform="translate(59,37)"/>
<path d="M0,0 L1,0 L1,1 L0,1 Z " fill="#E5E9FC" opacity="0.89411765" transform="translate(40,37)"/>
<path d="M0,0 L1,0 L1,1 L0,1 Z " fill="#333340" opacity="0.54509807" transform="translate(29,37)"/>
<path d="M0,0 L1,0 L1,1 L0,1 Z " fill="#323240" opacity="0.03529412" transform="translate(5,37)"/>
<path d="M0,0 L1,0 L1,1 L0,1 Z " fill="#707180" opacity="0.8039216" transform="translate(55,36)"/>
<path d="M0,0 L1,0 L1,1 L0,1 Z " fill="#E8ECFE" opacity="0.94509804" transform="translate(47,36)"/>
<path d="M0,0 L1,0 L1,1 L0,1 Z " fill="#ACAEBE" opacity="0.7529412" transform="translate(43,36)"/>
<path d="M0,0 L1,0 L1,1 L0,1 Z " fill="#343440" opacity="0.40392157" transform="translate(31,36)"/>
<path d="M0,0 L1,0 L1,1 L0,1 Z " fill="#34343F" opacity="0.28627452" transform="translate(33,35)"/>
<path d="M0,0 L1,0 L1,1 L0,1 Z " fill="#353540" opacity="0.003921569" transform="translate(62,34)"/>
<path d="M0,0 L1,0 L1,1 L0,1 Z " fill="#343440" opacity="0.5882353" transform="translate(36,34)"/>
<path d="M0,0 L1,0 L1,1 L0,1 Z " fill="#34343D" opacity="0.11372549" transform="translate(59,33)"/>
<path d="M0,0 L1,0 L1,1 L0,1 Z " fill="#35353D" opacity="0.24313726" transform="translate(38,33)"/>
<path d="M0,0 L1,0 L1,1 L0,1 Z " fill="#33333F" opacity="0.07450981" transform="translate(56,32)"/>
<path d="M0,0 L1,0 L1,1 L0,1 Z " fill="#34343F" opacity="0.45882353" transform="translate(54,32)"/>
<path d="M0,0 L1,0 L1,1 L0,1 Z " fill="#343441" opacity="0.8627451" transform="translate(46,32)"/>
<path d="M0,0 L1,0 L1,1 L0,1 Z " fill="#333340" opacity="0.29411766" transform="translate(42,32)"/>
<path d="M0,0 L1,0 L1,1 L0,1 Z " fill="#7DCBFD" opacity="0.9137255" transform="translate(24,55)"/>
<path d="M0,0 L1,0 L1,1 L0,1 Z " fill="#74C3F7" opacity="0.79607844" transform="translate(23,55)"/>
<path d="M0,0 L1,0 L1,1 L0,1 Z " fill="#61B4EC" opacity="0.76862746" transform="translate(21,55)"/>
<path d="M0,0 L1,0 L1,1 L0,1 Z " fill="#5BAFE8" opacity="0.8627451" transform="translate(19,55)"/>
<path d="M0,0 L1,0 L1,1 L0,1 Z " fill="#59AEE7" opacity="0.9372549" transform="translate(17,55)"/>
<path d="M0,0 L1,0 L1,1 L0,1 Z " fill="#5AADE7" opacity="0.9647059" transform="translate(16,55)"/>
<path d="M0,0 L1,0 L1,1 L0,1 Z " fill="#5CAFE8" opacity="0.85882354" transform="translate(14,55)"/>
<path d="M0,0 L1,0 L1,1 L0,1 Z " fill="#60B3EB" opacity="0.7764706" transform="translate(12,55)"/>
<path d="M0,0 L1,0 L1,1 L0,1 Z " fill="#74C2F7" opacity="0.79607844" transform="translate(10,55)"/>
<path d="M0,0 L1,0 L1,1 L0,1 Z " fill="#7DCBFD" opacity="0.9137255" transform="translate(9,55)"/>
<path d="M0,0 L1,0 L1,1 L0,1 Z " fill="#81CEFF" transform="translate(8,55)"/>
<path d="M0,0 L1,0 L1,1 L0,1 Z " fill="#81CEFF" transform="translate(28,54)"/>
<path d="M0,0 L1,0 L1,1 L0,1 Z " fill="#65B8F0" opacity="0.7529412" transform="translate(26,54)"/>
<path d="M0,0 L1,0 L1,1 L0,1 Z " fill="#5CAFE8" opacity="0.8509804" transform="translate(25,54)"/>
<path d="M0,0 L1,0 L1,1 L0,1 Z " fill="#5BAEE7" opacity="0.9137255" transform="translate(8,54)"/>
<path d="M0,0 L1,0 L1,1 L0,1 Z " fill="#71C1F5" opacity="0.7882353" transform="translate(6,54)"/>
<path d="M0,0 L1,0 L1,1 L0,1 Z " fill="#7FCBFE" opacity="0.9607843" transform="translate(5,54)"/>
<path d="M0,0 L1,0 L1,1 L0,1 Z " fill="#7DCBFE" opacity="0.9411765" transform="translate(30,53)"/>
<path d="M0,0 L1,0 L1,1 L0,1 Z " fill="#69BAF1" opacity="0.7529412" transform="translate(29,53)"/>
<path d="M0,0 L1,0 L1,1 L0,1 Z " fill="#5AAFE7" opacity="0.89411765" transform="translate(28,53)"/>
<path d="M0,0 L1,0 L1,1 L0,1 Z " fill="#5AAEE7" opacity="0.972549" transform="translate(5,53)"/>
<path d="M0,0 L1,0 L1,1 L0,1 Z " fill="#71C1F5" opacity="0.78431374" transform="translate(3,53)"/>
<path d="M0,0 L1,0 L1,1 L0,1 Z " fill="#81CEFF" opacity="0.9882353" transform="translate(2,53)"/>
<path d="M0,0 L1,0 L1,1 L0,1 Z " fill="#79C7FB" opacity="0.8666667" transform="translate(32,52)"/>
<path d="M0,0 L1,0 L1,1 L0,1 Z " fill="#61B4EC" opacity="0.7607843" transform="translate(31,52)"/>
<path d="M0,0 L1,0 L1,1 L0,1 Z " fill="#5AADE7" opacity="0.9647059" transform="translate(30,52)"/>
<path d="M0,0 L1,0 L1,1 L0,1 Z " fill="#66B9F0" opacity="0.7529412" transform="translate(1,52)"/>
<path d="M0,0 L1,0 L1,1 L0,1 Z " fill="#7CCAFD" opacity="0.90588236" transform="translate(0,52)"/>
<path d="M0,0 L1,0 L1,1 L0,1 Z " fill="#60B2EB" opacity="0.7764706" transform="translate(63,51)"/>
<path d="M0,0 L1,0 L1,1 L0,1 Z " fill="#78C6FB" opacity="0.8509804" transform="translate(62,51)"/>
<path d="M0,0 L1,0 L1,1 L0,1 Z " fill="#81CEFF" transform="translate(35,51)"/>
<path d="M0,0 L1,0 L1,1 L0,1 Z " fill="#74C2F8" opacity="0.8039216" transform="translate(34,51)"/>
<path d="M0,0 L1,0 L1,1 L0,1 Z " fill="#5EB0E9" opacity="0.8" transform="translate(33,51)"/>
<path d="M0,0 L1,0 L1,1 L0,1 Z " fill="#6AB5EA" opacity="0.9137255" transform="translate(24,51)"/>
<path d="M0,0 L1,0 L1,1 L0,1 Z " fill="#8EC5F0" opacity="0.79607844" transform="translate(23,51)"/>
<path d="M0,0 L1,0 L1,1 L0,1 Z " fill="#CEE1FA" opacity="0.76862746" transform="translate(21,51)"/>
<path d="M0,0 L1,0 L1,1 L0,1 Z " fill="#E0EAFE" opacity="0.83137256" transform="translate(20,51)"/>
<path d="M0,0 L1,0 L1,1 L0,1 Z " fill="#E7ECFF" opacity="0.8980392" transform="translate(18,51)"/>
<path d="M0,0 L1,0 L1,1 L0,1 Z " fill="#E9EDFF" opacity="0.9647059" transform="translate(16,51)"/>
<path d="M0,0 L1,0 L1,1 L0,1 Z " fill="#E2EAFE" opacity="0.85882354" transform="translate(14,51)"/>
<path d="M0,0 L1,0 L1,1 L0,1 Z " fill="#D4E4FD" opacity="0.7764706" transform="translate(12,51)"/>
<path d="M0,0 L1,0 L1,1 L0,1 Z " fill="#8FC5F0" opacity="0.79607844" transform="translate(10,51)"/>
<path d="M0,0 L1,0 L1,1 L0,1 Z " fill="#6AB5EA" opacity="0.9137255" transform="translate(9,51)"/>
<path d="M0,0 L1,0 L1,1 L0,1 Z " fill="#5BAEE7" opacity="0.99215686" transform="translate(0,51)"/>
<path d="M0,0 L1,0 L1,1 L0,1 Z " fill="#74C3F8" opacity="0.8117647" transform="translate(60,50)"/>
<path d="M0,0 L1,0 L1,1 L0,1 Z " fill="#81CEFF" transform="translate(59,50)"/>
<path d="M0,0 L1,0 L1,1 L0,1 Z " fill="#6CBCF2" opacity="0.7607843" transform="translate(36,50)"/>
<path d="M0,0 L1,0 L1,1 L0,1 Z " fill="#5BAFE8" opacity="0.85882354" transform="translate(35,50)"/>
<path d="M0,0 L1,0 L1,1 L0,1 Z " fill="#5CAEE7" transform="translate(28,50)"/>
<path d="M0,0 L1,0 L1,1 L0,1 Z " fill="#BCD9F8" opacity="0.7529412" transform="translate(26,50)"/>
<path d="M0,0 L1,0 L1,1 L0,1 Z " fill="#E3EAFE" opacity="0.8509804" transform="translate(25,50)"/>
<path d="M0,0 L1,0 L1,1 L0,1 Z " fill="#E7ECFF" opacity="0.9137255" transform="translate(8,50)"/>
<path d="M0,0 L1,0 L1,1 L0,1 Z " fill="#93C7F0" opacity="0.7882353" transform="translate(6,50)"/>
<path d="M0,0 L1,0 L1,1 L0,1 Z " fill="#61B2E7" opacity="0.9607843" transform="translate(5,50)"/>
<path d="M0,0 L1,0 L1,1 L0,1 Z " fill="#5AADE7" opacity="0.90588236" transform="translate(59,49)"/>
<path d="M0,0 L1,0 L1,1 L0,1 Z " fill="#76C4F8" opacity="0.8156863" transform="translate(57,49)"/>
<path d="M0,0 L1,0 L1,1 L0,1 Z " fill="#80CDFF" opacity="0.99215686" transform="translate(56,49)"/>
<path d="M0,0 L1,0 L1,1 L0,1 Z " fill="#81CEFF" transform="translate(41,49)"/>
<path d="M0,0 L1,0 L1,1 L0,1 Z " fill="#6BBBF1" opacity="0.75686276" transform="translate(39,49)"/>
<path d="M0,0 L1,0 L1,1 L0,1 Z " fill="#5DB0E8" opacity="0.81960785" transform="translate(38,49)"/>
<path d="M0,0 L1,0 L1,1 L0,1 Z " fill="#5AAEE7" opacity="0.99607843" transform="translate(37,49)"/>
<path d="M0,0 L1,0 L1,1 L0,1 Z " fill="#66B3E8" opacity="0.9411765" transform="translate(30,49)"/>
<path d="M0,0 L1,0 L1,1 L0,1 Z " fill="#B1D5F6" opacity="0.7529412" transform="translate(29,49)"/>
<path d="M0,0 L1,0 L1,1 L0,1 Z " fill="#E7ECFF" opacity="0.89411765" transform="translate(28,49)"/>
<path d="M0,0 L1,0 L1,1 L0,1 Z " fill="#E9EDFF" opacity="0.972549" transform="translate(5,49)"/>
<path d="M0,0 L1,0 L1,1 L0,1 Z " fill="#95C8F1" opacity="0.78431374" transform="translate(3,49)"/>
<path d="M0,0 L1,0 L1,1 L0,1 Z " fill="#5DAEE7" opacity="0.9882353" transform="translate(2,49)"/>
<path d="M0,0 L1,0 L1,1 L0,1 Z " fill="#59AEE7" opacity="0.9372549" transform="translate(56,48)"/>
<path d="M0,0 L1,0 L1,1 L0,1 Z " fill="#5DB1E9" opacity="0.8039216" transform="translate(55,48)"/>
<path d="M0,0 L1,0 L1,1 L0,1 Z " fill="#6FBFF4" opacity="0.77254903" transform="translate(53,48)"/>
<path d="M0,0 L1,0 L1,1 L0,1 Z " fill="#78C7FB" opacity="0.84705883" transform="translate(52,48)"/>
<path d="M0,0 L1,0 L1,1 L0,1 Z " fill="#7DCCFD" opacity="0.93333334" transform="translate(50,48)"/>
<path d="M0,0 L1,0 L1,1 L0,1 Z " fill="#80CCFF" opacity="0.98039216" transform="translate(49,48)"/>
<path d="M0,0 L1,0 L1,1 L0,1 Z " fill="#81CEFF" transform="translate(48,48)"/>
<path d="M0,0 L1,0 L1,1 L0,1 Z " fill="#7CC9FC" opacity="0.88235295" transform="translate(46,48)"/>
<path d="M0,0 L1,0 L1,1 L0,1 Z " fill="#71C1F5" opacity="0.7882353" transform="translate(44,48)"/>
<path d="M0,0 L1,0 L1,1 L0,1 Z " fill="#5FB1EA" opacity="0.7921569" transform="translate(42,48)"/>
<path d="M0,0 L1,0 L1,1 L0,1 Z " fill="#5BAEE8" opacity="0.92156863" transform="translate(41,48)"/>
<path d="M0,0 L1,0 L1,1 L0,1 Z " fill="#77BAEC" opacity="0.8666667" transform="translate(32,48)"/>
<path d="M0,0 L1,0 L1,1 L0,1 Z " fill="#CBE0FA" opacity="0.7607843" transform="translate(31,48)"/>
<path d="M0,0 L1,0 L1,1 L0,1 Z " fill="#E9EDFF" opacity="0.9647059" transform="translate(30,48)"/>
<path d="M0,0 L1,0 L1,1 L0,1 Z " fill="#BCD9F8" opacity="0.7529412" transform="translate(1,48)"/>
<path d="M0,0 L1,0 L1,1 L0,1 Z " fill="#6CB5E9" opacity="0.90588236" transform="translate(0,48)"/>
<path d="M0,0 L1,0 L1,1 L0,1 Z " fill="#D2E3FC" opacity="0.7764706" transform="translate(63,47)"/>
<path d="M0,0 L1,0 L1,1 L0,1 Z " fill="#7ABCED" opacity="0.8509804" transform="translate(62,47)"/>
<path d="M0,0 L1,0 L1,1 L0,1 Z " fill="#8AC4EF" opacity="0.8039216" transform="translate(34,47)"/>
<path d="M0,0 L1,0 L1,1 L0,1 Z " fill="#DBE8FD" opacity="0.8" transform="translate(33,47)"/>
<path d="M0,0 L1,0 L1,1 L0,1 Z " fill="#E9EDFF" opacity="0.99215686" transform="translate(0,47)"/>
<path d="M0,0 L1,0 L1,1 L0,1 Z " fill="#DBE8FE" opacity="0.8" transform="translate(61,46)"/>
<path d="M0,0 L1,0 L1,1 L0,1 Z " fill="#88C2EE" opacity="0.8117647" transform="translate(60,46)"/>
<path d="M0,0 L1,0 L1,1 L0,1 Z " fill="#5CAEE7" transform="translate(59,46)"/>
<path d="M0,0 L1,0 L1,1 L0,1 Z " fill="#A8D0F5" opacity="0.7607843" transform="translate(36,46)"/>
<path d="M0,0 L1,0 L1,1 L0,1 Z " fill="#E3ECFF" opacity="0.85882354" transform="translate(35,46)"/>
<path d="M0,0 L1,0 L1,1 L0,1 Z " fill="#C6DEFA" opacity="0.75686276" transform="translate(58,45)"/>
<path d="M0,0 L1,0 L1,1 L0,1 Z " fill="#87C2EE" opacity="0.8156863" transform="translate(57,45)"/>
<path d="M0,0 L1,0 L1,1 L0,1 Z " fill="#5DAFE7" opacity="0.99215686" transform="translate(56,45)"/>
<path d="M0,0 L1,0 L1,1 L0,1 Z " fill="#ACD2F5" opacity="0.75686276" transform="translate(39,45)"/>
<path d="M0,0 L1,0 L1,1 L0,1 Z " fill="#E0E9FE" opacity="0.81960785" transform="translate(38,45)"/>
<path d="M0,0 L1,0 L1,1 L0,1 Z " fill="#E9EDFF" opacity="0.99607843" transform="translate(37,45)"/>
<path d="M0,0 L1,0 L1,1 L0,1 Z " fill="#DDE8FD" opacity="0.8039216" transform="translate(55,44)"/>
<path d="M0,0 L1,0 L1,1 L0,1 Z " fill="#9DCCF1" opacity="0.77254903" transform="translate(53,44)"/>
<path d="M0,0 L1,0 L1,1 L0,1 Z " fill="#7BBDED" opacity="0.84705883" transform="translate(52,44)"/>
<path d="M0,0 L1,0 L1,1 L0,1 Z " fill="#67B3E9" opacity="0.93333334" transform="translate(50,44)"/>
<path d="M0,0 L1,0 L1,1 L0,1 Z " fill="#5FB0E7" opacity="0.98039216" transform="translate(49,44)"/>
<path d="M0,0 L1,0 L1,1 L0,1 Z " fill="#71B8EB" opacity="0.88235295" transform="translate(46,44)"/>
<path d="M0,0 L1,0 L1,1 L0,1 Z " fill="#93C7F0" opacity="0.7882353" transform="translate(44,44)"/>
<path d="M0,0 L1,0 L1,1 L0,1 Z " fill="#D9E6FD" opacity="0.7921569" transform="translate(42,44)"/>
<path d="M0,0 L1,0 L1,1 L0,1 Z " fill="#E8EDFF" opacity="0.92156863" transform="translate(41,44)"/>
<path d="M0,0 L1,0 L1,1 L0,1 Z " fill="#D7DBED" opacity="0.79607844" transform="translate(23,43)"/>
<path d="M0,0 L1,0 L1,1 L0,1 Z " fill="#8D8E9E" opacity="0.76862746" transform="translate(21,43)"/>
<path d="M0,0 L1,0 L1,1 L0,1 Z " fill="#575765" opacity="0.8627451" transform="translate(19,43)"/>
<path d="M0,0 L1,0 L1,1 L0,1 Z " fill="#4C4C59" opacity="0.8980392" transform="translate(18,43)"/>
<path d="M0,0 L1,0 L1,1 L0,1 Z " fill="#42424E" opacity="0.9372549" transform="translate(17,43)"/>
<path d="M0,0 L1,0 L1,1 L0,1 Z " fill="#494956" opacity="0.9098039" transform="translate(15,43)"/>
<path d="M0,0 L1,0 L1,1 L0,1 Z " fill="#6D6E7C" opacity="0.8156863" transform="translate(13,43)"/>
<path d="M0,0 L1,0 L1,1 L0,1 Z " fill="#B1B5C4" opacity="0.7529412" transform="translate(11,43)"/>
<path d="M0,0 L1,0 L1,1 L0,1 Z " fill="#D6DAEB" opacity="0.79607844" transform="translate(10,43)"/>
<path d="M0,0 L1,0 L1,1 L0,1 Z " fill="#E7EBFD" opacity="0.9137255" transform="translate(9,43)"/>
<path d="M0,0 L1,0 L1,1 L0,1 Z " fill="#A9ACBC" opacity="0.7529412" transform="translate(26,42)"/>
<path d="M0,0 L1,0 L1,1 L0,1 Z " fill="#5D5E6B" opacity="0.8509804" transform="translate(25,42)"/>
<path d="M0,0 L1,0 L1,1 L0,1 Z " fill="#8F90A0" opacity="0.7647059" transform="translate(7,42)"/>
<path d="M0,0 L1,0 L1,1 L0,1 Z " fill="#D3D5E7" opacity="0.7882353" transform="translate(6,42)"/>
<path d="M0,0 L1,0 L1,1 L0,1 Z " fill="#E9EDFF" opacity="0.9607843" transform="translate(5,42)"/>
<path d="M0,0 L1,0 L1,1 L0,1 Z " fill="#B6B9CA" opacity="0.7529412" transform="translate(29,41)"/>
<path d="M0,0 L1,0 L1,1 L0,1 Z " fill="#4E4E5A" opacity="0.89411765" transform="translate(28,41)"/>
<path d="M0,0 L1,0 L1,1 L0,1 Z " fill="#797A88" opacity="0.79607844" transform="translate(4,41)"/>
<path d="M0,0 L1,0 L1,1 L0,1 Z " fill="#D0D4E5" opacity="0.78431374" transform="translate(3,41)"/>
<path d="M0,0 L1,0 L1,1 L0,1 Z " fill="#E9EDFF" opacity="0.9882353" transform="translate(2,41)"/>
<path d="M0,0 L1,0 L1,1 L0,1 Z " fill="#9396A6" opacity="0.7607843" transform="translate(31,40)"/>
<path d="M0,0 L1,0 L1,1 L0,1 Z " fill="#3C3D48" opacity="0.9647059" transform="translate(30,40)"/>
<path d="M0,0 L1,0 L1,1 L0,1 Z " fill="#494955" opacity="0.9137255" transform="translate(2,40)"/>
<path d="M0,0 L1,0 L1,1 L0,1 Z " fill="#ACAEBE" opacity="0.7529412" transform="translate(1,40)"/>
<path d="M0,0 L1,0 L1,1 L0,1 Z " fill="#E6EAFC" opacity="0.90588236" transform="translate(0,40)"/>
<path d="M0,0 L1,0 L1,1 L0,1 Z " fill="#858795" opacity="0.7764706" transform="translate(63,39)"/>
<path d="M0,0 L1,0 L1,1 L0,1 Z " fill="#E1E4F7" opacity="0.8509804" transform="translate(62,39)"/>
<path d="M0,0 L1,0 L1,1 L0,1 Z " fill="#D8DBED" opacity="0.8039216" transform="translate(34,39)"/>
<path d="M0,0 L1,0 L1,1 L0,1 Z " fill="#757783" opacity="0.8" transform="translate(33,39)"/>
<path d="M0,0 L1,0 L1,1 L0,1 Z " fill="#363642" transform="translate(32,39)"/>
<path d="M0,0 L1,0 L1,1 L0,1 Z " fill="#353540" opacity="0.7176471" transform="translate(23,39)"/>
<path d="M0,0 L1,0 L1,1 L0,1 Z " fill="#353540" opacity="0.3764706" transform="translate(21,39)"/>
<path d="M0,0 L1,0 L1,1 L0,1 Z " fill="#35353E" opacity="0.22352941" transform="translate(20,39)"/>
<path d="M0,0 L1,0 L1,1 L0,1 Z " fill="#33333B" opacity="0.11764706" transform="translate(18,39)"/>
<path d="M0,0 L1,0 L1,1 L0,1 Z " fill="#2F2F42" opacity="0.043137256" transform="translate(16,39)"/>
<path d="M0,0 L1,0 L1,1 L0,1 Z " fill="#32323D" opacity="0.18039216" transform="translate(14,39)"/>
<path d="M0,0 L1,0 L1,1 L0,1 Z " fill="#343440" opacity="0.34509805" transform="translate(12,39)"/>
<path d="M0,0 L1,0 L1,1 L0,1 Z " fill="#343440" opacity="0.7137255" transform="translate(10,39)"/>
<path d="M0,0 L1,0 L1,1 L0,1 Z " fill="#353540" opacity="0.90588236" transform="translate(9,39)"/>
<path d="M0,0 L1,0 L1,1 L0,1 Z " fill="#373743" opacity="0.99215686" transform="translate(0,39)"/>
<path d="M0,0 L1,0 L1,1 L0,1 Z " fill="#747583" opacity="0.8" transform="translate(61,38)"/>
<path d="M0,0 L1,0 L1,1 L0,1 Z " fill="#D9DDEF" opacity="0.8117647" transform="translate(60,38)"/>
<path d="M0,0 L1,0 L1,1 L0,1 Z " fill="#C0C3D4" opacity="0.7607843" transform="translate(36,38)"/>
<path d="M0,0 L1,0 L1,1 L0,1 Z " fill="#5A5B68" opacity="0.85882354" transform="translate(35,38)"/>
<path d="M0,0 L1,0 L1,1 L0,1 Z " fill="#35353F" opacity="0.49019608" transform="translate(26,38)"/>
<path d="M0,0 L1,0 L1,1 L0,1 Z " fill="#34343E" opacity="0.003921569" transform="translate(24,38)"/>
<path d="M0,0 L1,0 L1,1 L0,1 Z " fill="#343441" opacity="0.38431373" transform="translate(7,38)"/>
<path d="M0,0 L1,0 L1,1 L0,1 Z " fill="#343440" opacity="0.6901961" transform="translate(6,38)"/>
<path d="M0,0 L1,0 L1,1 L0,1 Z " fill="#343440" opacity="0.9607843" transform="translate(5,38)"/>
<path d="M0,0 L1,0 L1,1 L0,1 Z " fill="#9C9DAD" opacity="0.75686276" transform="translate(58,37)"/>
<path d="M0,0 L1,0 L1,1 L0,1 Z " fill="#DBDEF1" opacity="0.8156863" transform="translate(57,37)"/>
<path d="M0,0 L1,0 L1,1 L0,1 Z " fill="#E9EDFF" opacity="0.99215686" transform="translate(56,37)"/>
<path d="M0,0 L1,0 L1,1 L0,1 Z " fill="#BBBFD0" opacity="0.75686276" transform="translate(39,37)"/>
<path d="M0,0 L1,0 L1,1 L0,1 Z " fill="#6A6B79" opacity="0.81960785" transform="translate(38,37)"/>
<path d="M0,0 L1,0 L1,1 L0,1 Z " fill="#363642" opacity="0.99607843" transform="translate(37,37)"/>
<path d="M0,0 L1,0 L1,1 L0,1 Z " fill="#343440" opacity="0.9372549" transform="translate(30,37)"/>
<path d="M0,0 L1,0 L1,1 L0,1 Z " fill="#303040" opacity="0.1254902" transform="translate(28,37)"/>
<path d="M0,0 L1,0 L1,1 L0,1 Z " fill="#323240" opacity="0.29803923" transform="translate(4,37)"/>
<path d="M0,0 L1,0 L1,1 L0,1 Z " fill="#353541" opacity="0.6784314" transform="translate(3,37)"/>
<path d="M0,0 L1,0 L1,1 L0,1 Z " fill="#343441" opacity="0.9882353" transform="translate(2,37)"/>
<path d="M0,0 L1,0 L1,1 L0,1 Z " fill="#353541" transform="translate(0,37)"/>
<path d="M0,0 L1,0 L1,1 L0,1 Z " fill="#43434F" opacity="0.9372549" transform="translate(56,36)"/>
<path d="M0,0 L1,0 L1,1 L0,1 Z " fill="#A1A4B4" opacity="0.75686276" transform="translate(54,36)"/>
<path d="M0,0 L1,0 L1,1 L0,1 Z " fill="#CACDDF" opacity="0.77254903" transform="translate(53,36)"/>
<path d="M0,0 L1,0 L1,1 L0,1 Z " fill="#E1E4F7" opacity="0.84705883" transform="translate(52,36)"/>
<path d="M0,0 L1,0 L1,1 L0,1 Z " fill="#E8ECFE" opacity="0.93333334" transform="translate(50,36)"/>
<path d="M0,0 L1,0 L1,1 L0,1 Z " fill="#E9EDFF" opacity="0.98039216" transform="translate(49,36)"/>
<path d="M0,0 L1,0 L1,1 L0,1 Z " fill="#E4E8FB" opacity="0.88235295" transform="translate(46,36)"/>
<path d="M0,0 L1,0 L1,1 L0,1 Z " fill="#D3D5E7" opacity="0.7882353" transform="translate(44,36)"/>
<path d="M0,0 L1,0 L1,1 L0,1 Z " fill="#787987" opacity="0.7921569" transform="translate(42,36)"/>
<path d="M0,0 L1,0 L1,1 L0,1 Z " fill="#454652" opacity="0.92156863" transform="translate(41,36)"/>
<path d="M0,0 L1,0 L1,1 L0,1 Z " fill="#343440" opacity="0.8392157" transform="translate(32,36)"/>
<path d="M0,0 L1,0 L1,1 L0,1 Z " fill="#343440" opacity="0.043137256" transform="translate(30,36)"/>
<path d="M0,0 L1,0 L1,1 L0,1 Z " fill="#31313B" opacity="0.101960786" transform="translate(2,36)"/>
<path d="M0,0 L1,0 L1,1 L0,1 Z " fill="#343440" opacity="0.49803922" transform="translate(1,36)"/>
<path d="M0,0 L1,0 L1,1 L0,1 Z " fill="#33333F" opacity="0.34901962" transform="translate(63,35)"/>
<path d="M0,0 L1,0 L1,1 L0,1 Z " fill="#343441" opacity="0.8156863" transform="translate(62,35)"/>
<path d="M0,0 L1,0 L1,1 L0,1 Z " fill="#363642" transform="translate(48,35)"/>
<path d="M0,0 L1,0 L1,1 L0,1 Z " fill="#343440" opacity="0.7294118" transform="translate(34,35)"/>
<path d="M0,0 L1,0 L1,1 L0,1 Z " fill="#34343F" opacity="0.007843138" transform="translate(32,35)"/>
<path d="M0,0 L1,0 L1,1 L0,1 Z " fill="#343441" opacity="0.015686275" transform="translate(0,35)"/>
<path d="M0,0 L1,0 L1,1 L0,1 Z " fill="#353540" opacity="0.28235295" transform="translate(61,34)"/>
<path d="M0,0 L1,0 L1,1 L0,1 Z " fill="#343440" opacity="0.74509805" transform="translate(60,34)"/>
<path d="M0,0 L1,0 L1,1 L0,1 Z " fill="#343440" opacity="0.9137255" transform="translate(37,34)"/>
<path d="M0,0 L1,0 L1,1 L0,1 Z " fill="#33333E" opacity="0.1764706" transform="translate(35,34)"/>
<path d="M0,0 L1,0 L1,1 L0,1 Z " fill="#333341" opacity="0.43137255" transform="translate(58,33)"/>
<path d="M0,0 L1,0 L1,1 L0,1 Z " fill="#343441" opacity="0.7529412" transform="translate(57,33)"/>
<path d="M0,0 L1,0 L1,1 L0,1 Z " fill="#343441" opacity="0.5686275" transform="translate(39,33)"/>
<path d="M0,0 L1,0 L1,1 L0,1 Z " fill="#35353D" opacity="0.011764706" transform="translate(37,33)"/>
<path d="M0,0 L1,0 L1,1 L0,1 Z " fill="#33333F" opacity="0.27058825" transform="translate(55,32)"/>
<path d="M0,0 L1,0 L1,1 L0,1 Z " fill="#353540" opacity="0.6431373" transform="translate(53,32)"/>
<path d="M0,0 L1,0 L1,1 L0,1 Z " fill="#353540" opacity="0.8117647" transform="translate(52,32)"/>
<path d="M0,0 L1,0 L1,1 L0,1 Z " fill="#343440" opacity="0.92941177" transform="translate(50,32)"/>
<path d="M0,0 L1,0 L1,1 L0,1 Z " fill="#343440" opacity="0.98039216" transform="translate(49,32)"/>
<path d="M0,0 L1,0 L1,1 L0,1 Z " fill="#343441" opacity="0.9411765" transform="translate(47,32)"/>
<path d="M0,0 L1,0 L1,1 L0,1 Z " fill="#343440" opacity="0.7882353" transform="translate(45,32)"/>
<path d="M0,0 L1,0 L1,1 L0,1 Z " fill="#343440" opacity="0.49803922" transform="translate(43,32)"/>
<path d="M0,0 L1,0 L1,1 L0,1 Z " fill="#2C2C42" opacity="0.09019608" transform="translate(41,32)"/>
<path d="M0,0 L1,0 L1,1 L0,1 Z " fill="#353541" opacity="0.007843138" transform="translate(48,31)"/>
</svg>
