<?xml version="1.0" encoding="UTF-8"?>
<!-- Generator: visioncortex VTracer 0.6.4 -->
<svg version="1.1" xmlns="http://www.w3.org/2000/svg" width="64" height="64">
<path d="M0,0 L32,0 L32,1 L34,1 L34,2 L35,2 L35,3 L36,3 L36,6 L37,6 L37,11 L38,11 L38,17 L39,17 L39,22 L40,22 L40,28 L41,28 L41,33 L42,33 L42,38 L41,38 L41,39 L38,39 L38,40 L-6,40 L-6,39 L-9,39 L-9,38 L-10,38 L-10,33 L-9,33 L-9,28 L-8,28 L-8,22 L-7,22 L-7,17 L-6,17 L-6,11 L-5,11 L-5,6 L-4,6 L-4,3 L-3,3 L-3,2 L-2,2 L-2,1 L0,1 Z M26,4 L26,5 L25,5 L25,6 L24,6 L24,10 L25,10 L25,11 L26,11 L26,12 L30,12 L30,11 L31,11 L31,10 L32,10 L32,6 L31,6 L31,5 L30,5 L30,4 Z M32,12 L32,13 L31,13 L31,17 L32,17 L32,18 L35,18 L35,17 L36,17 L36,13 L35,13 L35,12 Z M4,25 L4,26 L3,26 L3,30 L4,30 L4,31 L7,31 L7,30 L8,30 L8,29 L9,29 L9,27 L8,27 L8,26 L7,26 L7,25 Z M-3,28 L-3,29 L-5,29 L-5,30 L-6,30 L-6,35 L-5,35 L-5,36 L-4,36 L-4,37 L0,37 L0,36 L1,36 L1,35 L2,35 L2,34 L3,34 L3,32 L2,32 L2,30 L1,30 L1,29 L0,29 L0,28 Z M11,31 L11,32 L10,32 L10,33 L9,33 L9,36 L10,36 L10,37 L14,37 L14,36 L15,36 L15,33 L14,33 L14,32 L13,32 L13,31 Z " fill="#B9C2CA" transform="translate(16,20)"/>
<path d="M0,0 L1,0 L1,1 L0,1 Z " fill="#B8C1C9" transform="translate(15,48)"/>
<path d="M0,0 L8,0 L8,1 L10,1 L10,2 L11,2 L11,3 L12,3 L12,4 L13,4 L13,5 L14,5 L14,7 L15,7 L15,11 L20,11 L20,12 L24,12 L24,13 L25,13 L25,14 L26,14 L26,15 L27,15 L27,17 L28,17 L28,20 L29,20 L29,26 L30,26 L30,31 L31,31 L31,37 L32,37 L32,42 L33,42 L33,48 L34,48 L34,58 L33,58 L33,59 L32,59 L32,60 L31,60 L31,61 L30,61 L30,62 L26,62 L26,63 L-18,63 L-18,62 L-22,62 L-22,61 L-23,61 L-23,60 L-24,60 L-24,59 L-25,59 L-25,58 L-26,58 L-26,48 L-25,48 L-25,43 L-24,43 L-24,37 L-23,37 L-23,32 L-22,32 L-22,26 L-21,26 L-21,20 L-20,20 L-20,17 L-19,17 L-19,15 L-18,15 L-18,14 L-17,14 L-17,13 L-16,13 L-16,12 L-12,12 L-12,11 L-7,11 L-7,7 L-6,7 L-6,5 L-5,5 L-5,4 L-4,4 L-4,3 L-3,3 L-3,2 L-2,2 L-2,1 L0,1 Z M0,3 L0,4 L-2,4 L-2,5 L-3,5 L-3,7 L-4,7 L-4,15 L-15,15 L-15,16 L-16,16 L-16,17 L-17,17 L-17,20 L-18,20 L-18,26 L-19,26 L-19,31 L-20,31 L-20,37 L-21,37 L-21,42 L-22,42 L-22,48 L-23,48 L-23,57 L-22,57 L-22,58 L-21,58 L-21,59 L29,59 L29,58 L30,58 L30,57 L31,57 L31,48 L30,48 L30,42 L29,42 L29,37 L28,37 L28,31 L27,31 L27,26 L26,26 L26,20 L25,20 L25,17 L24,17 L24,16 L23,16 L23,15 L12,15 L12,7 L11,7 L11,5 L10,5 L10,4 L8,4 L8,3 Z " fill="#353541" transform="translate(28,1)"/>
<path d="M0,0 L1,0 L1,1 L0,1 Z " fill="#343440" opacity="0.99607843" transform="translate(36,1)"/>
<path d="M0,0 L6,0 L6,1 L8,1 L8,2 L9,2 L9,3 L10,3 L10,5 L11,5 L11,11 L10,11 L10,12 L-4,12 L-4,11 L-5,11 L-5,5 L-4,5 L-4,3 L-3,3 L-3,2 L-2,2 L-2,1 L0,1 Z " fill="#C2C9D0" transform="translate(29,4)"/>
<path d="M0,0 L34,0 L34,1 L35,1 L35,2 L36,2 L36,5 L35,5 L35,4 L-3,4 L-3,3 L-2,3 L-2,2 L-1,2 L-1,1 L0,1 Z M-4,4 L-3,4 L-3,5 L-4,5 Z " fill="#CDD3D9" transform="translate(16,16)"/>
<path d="M0,0 L1,0 L1,5 L5,5 L5,1 L6,1 L6,0 L10,0 L10,1 L11,1 L11,5 L15,5 L15,0 L16,0 L16,6 L15,6 L15,7 L1,7 L1,6 L0,6 Z " fill="#ABB4BE" transform="translate(24,9)"/>
<path d="M0,0 L3,0 L3,1 L4,1 L4,3 L5,3 L5,6 L4,6 L4,7 L3,7 L3,8 L0,8 L0,7 L-2,7 L-2,6 L-3,6 L-3,2 L-2,2 L-2,1 L0,1 Z " fill="#CDD3D9" transform="translate(43,24)"/>
<path d="M0,0 L4,0 L4,1 L5,1 L5,2 L6,2 L6,5 L5,5 L5,7 L4,7 L4,8 L1,8 L1,7 L0,7 L0,6 L-1,6 L-1,5 L-2,5 L-2,2 L-1,2 L-1,1 L0,1 Z " fill="#9EA9B4" transform="translate(12,49)"/>
<path d="M0,0 L1,0 L1,2 L0,2 L0,7 L-1,7 L-1,13 L-2,13 L-2,18 L-3,18 L-3,24 L-4,24 L-4,29 L-5,29 L-5,34 L-6,34 L-6,27 L-5,27 L-5,22 L-4,22 L-4,16 L-3,16 L-3,12 L-2,12 L-2,5 L-1,5 L-1,1 L0,1 Z " fill="#9FA4AD" transform="translate(11,23)"/>
<path d="M0,0 L1,0 L1,4 L2,4 L2,11 L3,11 L3,15 L4,15 L4,22 L5,22 L5,26 L6,26 L6,33 L5,33 L5,28 L4,28 L4,23 L3,23 L3,17 L2,17 L2,12 L1,12 L1,6 L0,6 Z " fill="#9DA3AC" transform="translate(53,24)"/>
<path d="M0,0 L13,0 L13,6 L9,6 L9,2 L8,2 L8,1 L0,1 Z " fill="#B9C1C9" transform="translate(26,8)"/>
<path d="M0,0 L4,0 L4,1 L5,1 L5,5 L4,5 L4,6 L0,6 L0,5 L-1,5 L-1,1 L0,1 Z " fill="#353541" transform="translate(30,9)"/>
<path d="M0,0 L1,0 L1,2 L0,2 L0,7 L-1,7 L-1,13 L-2,13 L-2,18 L-3,18 L-3,12 L-2,12 L-2,5 L-1,5 L-1,1 L0,1 Z " fill="#9EA4AD" transform="translate(11,23)"/>
<path d="M0,0 L1,0 L1,4 L2,4 L2,11 L3,11 L3,17 L2,17 L2,12 L1,12 L1,6 L0,6 Z " fill="#9DA4AB" transform="translate(53,24)"/>
<path d="M0,0 L6,0 L6,3 L-1,3 L-1,1 L0,1 Z " fill="#C8CED5" transform="translate(29,4)"/>
<path d="M0,0 L2,0 L2,1 L1,1 L1,2 L0,2 L0,3 L-1,3 L-1,4 L2,4 L2,5 L0,5 L0,6 L-1,6 L-1,7 L-3,7 L-3,3 L-2,3 L-2,2 L-1,2 L-1,1 L0,1 Z M-2,4 L-2,5 L-1,5 L-1,4 Z " fill="#CDD3D9" transform="translate(14,16)"/>
<path d="M0,0 L1,0 L1,1 L0,1 Z M-4,1 L0,1 L0,5 L-4,5 Z " fill="#B9C1C9" transform="translate(29,9)"/>
<path d="M0,0 L2,0 L2,1 L3,1 L3,4 L2,4 L2,5 L0,5 L0,4 L-1,4 L-1,1 L0,1 Z " fill="#CDD3D9" transform="translate(27,52)"/>
<path d="M0,0 L2,0 L2,3 L1,3 L1,4 L0,4 L0,3 L-1,3 L-1,1 L0,1 Z " fill="#CDD3D9" transform="translate(21,46)"/>
<path d="M0,0 L1,0 L1,1 L0,1 Z M-1,1 L0,1 L0,2 L-1,2 Z " fill="#CCD2D8" transform="translate(23,48)"/>
<path d="M0,0 L3,0 L3,1 L4,1 L4,3 L3,3 L3,4 L0,4 L0,3 L-1,3 L-1,1 L0,1 Z " fill="#9EA9B4" transform="translate(48,33)"/>
<path d="M0,0 L1,0 L1,5 L6,5 L6,7 L1,7 L1,6 L0,6 Z " fill="#ABB4BE" transform="translate(24,9)"/>
<path d="M0,0 L13,0 L13,2 L10,2 L10,1 L0,1 Z " fill="#BFC7CE" transform="translate(26,8)"/>
<path d="M0,0 L1,0 L1,1 L0,1 Z " fill="#343440" opacity="0.9607843" transform="translate(62,55)"/>
<path d="M0,0 L1,0 L1,1 L0,1 Z " fill="#343440" opacity="0.9529412" transform="translate(1,55)"/>
<path d="M0,0 L1,0 L1,4 L2,4 L2,8 L1,8 L1,6 L0,6 Z " fill="#A2A8B0" transform="translate(53,24)"/>
<path d="M0,0 L2,0 L2,1 L0,1 Z " fill="#343440" opacity="0.9607843" transform="translate(31,0)"/>
<path d="M0,0 L2,0 L2,1 L1,1 L1,2 L0,2 L0,3 L-1,3 L-1,5 L-2,5 L-2,2 L-1,2 L-1,1 L0,1 Z " fill="#9EA9B4" transform="translate(12,49)"/>
<path d="M0,0 L1,0 L1,2 L0,2 L0,7 L-1,7 L-1,1 L0,1 Z " fill="#A0A7B0" transform="translate(11,23)"/>
<path d="M0,0 L1,0 L1,6 L0,6 L0,4 L-1,4 L-1,2 L0,2 Z " fill="#B9BFC6" transform="translate(52,19)"/>
<path d="M0,0 L4,0 L4,2 L0,2 Z " fill="#B1BAC3" transform="translate(35,12)"/>
<path d="M0,0 L4,0 L4,2 L0,2 Z " fill="#B1BAC3" transform="translate(25,12)"/>
<path d="M0,0 L1,0 L1,1 L0,1 Z M-1,1 L0,1 L0,2 L-1,2 Z " fill="#343440" opacity="0.99215686" transform="translate(24,3)"/>
<path d="M0,0 L1,0 L1,1 L0,1 Z M-1,1 L0,1 L0,2 L-1,2 Z M-2,2 L-1,2 L-1,3 L-2,3 Z M-3,3 L-2,3 L-2,4 L-3,4 Z M-4,4 L-3,4 L-3,5 L-4,5 Z " fill="#353541" transform="translate(26,2)"/>
<path d="M0,0 L1,0 L1,7 L0,7 Z " fill="#A4AAB2" transform="translate(58,50)"/>
<path d="M0,0 L1,0 L1,7 L0,7 Z " fill="#A7AAB4" transform="translate(5,50)"/>
<path d="M0,0 L2,0 L2,1 L1,1 L1,2 L0,2 L0,5 L-1,5 L-1,1 L0,1 Z " fill="#CDD3D9" transform="translate(41,25)"/>
<path d="M0,0 L1,0 L1,1 L0,1 Z M-1,1 L0,1 L0,2 L-1,2 Z " fill="#343441" opacity="0.8627451" transform="translate(10,14)"/>
<path d="M0,0 L7,0 L7,1 L0,1 Z " fill="#C5CCD3" transform="translate(28,6)"/>
<path d="M0,0 L1,0 L1,1 L0,1 Z M1,1 L2,1 L2,2 L1,2 Z " fill="#343440" opacity="0.99607843" transform="translate(39,3)"/>
<path d="M0,0 L3,0 L3,1 L1,1 L1,2 L0,2 L0,3 L-1,3 L-1,1 L0,1 Z " fill="#9EA9B4" transform="translate(48,33)"/>
<path d="M0,0 L3,0 L3,1 L1,1 L1,2 L0,2 L0,3 L-1,3 L-1,1 L0,1 Z " fill="#B5BEC6" transform="translate(13,20)"/>
<path d="M0,0 L1,0 L1,1 L0,1 Z M1,1 L2,1 L2,2 L1,2 Z " fill="#343440" opacity="0.8666667" transform="translate(53,14)"/>
<path d="M0,0 L1,0 L1,6 L0,6 Z " fill="#AEB5BE" transform="translate(39,9)"/>
<path d="M0,0 L1,0 L1,6 L0,6 Z " fill="#AEB6BF" transform="translate(24,9)"/>
<path d="M0,0 L1,0 L1,2 L4,2 L4,3 L0,3 Z " fill="#BCC4CC" transform="translate(25,7)"/>
<path d="M0,0 L6,0 L6,1 L0,1 Z " fill="#C4CAD0" transform="translate(29,4)"/>
<path d="M0,0 L1,0 L1,5 L0,5 Z " fill="#A8ACB5" transform="translate(6,47)"/>
<path d="M0,0 L2,0 L2,1 L1,1 L1,2 L0,2 L0,3 L-1,3 L-1,1 L0,1 Z " fill="#CDD3D9" transform="translate(20,46)"/>
<path d="M0,0 L1,0 L1,1 L0,1 Z " fill="#343440" opacity="0.9372549" transform="translate(9,63)"/>
<path d="M0,0 L1,0 L1,3 L0,3 Z M-1,3 L0,3 L0,4 L-1,4 Z " fill="#BAC3CB" transform="translate(30,53)"/>
<path d="M0,0 L1,0 L1,1 L0,1 Z " fill="#353540" opacity="0.54901963" transform="translate(62,51)"/>
<path d="M0,0 L1,0 L1,4 L0,4 Z " fill="#A1A8B0" transform="translate(57,48)"/>
<path d="M0,0 L1,0 L1,1 L0,1 Z " fill="#34343F" opacity="0.4745098" transform="translate(1,51)"/>
<path d="M0,0 L1,0 L1,1 L0,1 Z " fill="#343440" opacity="0.63529414" transform="translate(61,46)"/>
<path d="M0,0 L1,0 L1,1 L0,1 Z " fill="#343441" opacity="0.5686275" transform="translate(2,46)"/>
<path d="M0,0 L1,0 L1,4 L0,4 Z " fill="#A5AAB2" transform="translate(56,39)"/>
<path d="M0,0 L1,0 L1,4 L0,4 Z " fill="#A7AAB3" transform="translate(7,39)"/>
<path d="M0,0 L1,0 L1,1 L0,1 Z " fill="#333340" opacity="0.5411765" transform="translate(60,40)"/>
<path d="M0,0 L1,0 L1,4 L0,4 Z " fill="#A1A7B0" transform="translate(55,37)"/>
<path d="M0,0 L1,0 L1,4 L0,4 Z " fill="#9FA6AF" transform="translate(8,37)"/>
<path d="M0,0 L1,0 L1,1 L0,1 Z " fill="#343440" opacity="0.48235294" transform="translate(3,40)"/>
<path d="M0,0 L1,0 L1,1 L0,1 Z " fill="#343440" opacity="0.627451" transform="translate(59,35)"/>
<path d="M0,0 L1,0 L1,1 L0,1 Z " fill="#343440" opacity="0.5764706" transform="translate(4,35)"/>
<path d="M0,0 L1,0 L1,4 L0,4 Z " fill="#A5AAB1" transform="translate(54,28)"/>
<path d="M0,0 L1,0 L1,4 L0,4 Z " fill="#A6AAB2" transform="translate(9,28)"/>
<path d="M0,0 L1,0 L1,1 L0,1 Z " fill="#343440" opacity="0.53333336" transform="translate(58,29)"/>
<path d="M0,0 L1,0 L1,1 L0,1 Z " fill="#35353F" opacity="0.49019608" transform="translate(5,29)"/>
<path d="M0,0 L1,0 L1,2 L0,2 L0,3 L-1,3 L-1,1 L0,1 Z " fill="#A0A6AE" transform="translate(11,23)"/>
<path d="M0,0 L1,0 L1,1 L0,1 Z " fill="#333340" opacity="0.61960787" transform="translate(57,24)"/>
<path d="M0,0 L1,0 L1,1 L0,1 Z " fill="#343440" opacity="0.5882353" transform="translate(6,24)"/>
<path d="M0,0 L1,0 L1,1 L0,1 Z " fill="#343441" opacity="0.89411765" transform="translate(56,20)"/>
<path d="M0,0 L1,0 L1,1 L0,1 Z " fill="#343441" opacity="0.8627451" transform="translate(7,20)"/>
<path d="M0,0 L4,0 L4,1 L0,1 Z " fill="#AEB7C0" transform="translate(35,14)"/>
<path d="M0,0 L4,0 L4,1 L0,1 Z " fill="#AEB7C0" transform="translate(25,14)"/>
<path d="M0,0 L1,0 L1,1 L0,1 Z M-1,1 L0,1 L0,2 L-1,2 Z M-2,2 L-1,2 L-1,3 L-2,3 Z M-3,3 L-2,3 L-2,4 L-3,4 Z " fill="#353541" transform="translate(12,13)"/>
<path d="M0,0 L4,0 L4,1 L0,1 Z " fill="#B4BCC5" transform="translate(35,12)"/>
<path d="M0,0 L4,0 L4,1 L0,1 Z " fill="#B4BCC5" transform="translate(25,12)"/>
<path d="M0,0 L1,0 L1,1 L0,1 Z " fill="#343440" opacity="0.9529412" transform="translate(15,12)"/>
<path d="M0,0 L4,0 L4,1 L0,1 Z " fill="#B6BFC7" transform="translate(35,11)"/>
<path d="M0,0 L4,0 L4,1 L0,1 Z " fill="#B6BFC7" transform="translate(25,11)"/>
<path d="M0,0 L1,0 L1,1 L0,1 Z " fill="#343441" opacity="0.8627451" transform="translate(43,10)"/>
<path d="M0,0 L1,0 L1,1 L0,1 Z " fill="#343440" opacity="0.8745098" transform="translate(20,10)"/>
<path d="M0,0 L1,0 L1,2 L-2,2 L-2,1 L0,1 Z " fill="#BCC4CC" transform="translate(38,8)"/>
<path d="M0,0 L1,0 L1,1 L0,1 Z " fill="#343440" opacity="0.9490196" transform="translate(25,2)"/>
<path d="M0,0 L1,0 L1,1 L0,1 Z " fill="#343440" opacity="0.8745098" transform="translate(30,0)"/>
<path d="M0,0 L1,0 L1,1 L0,1 Z " fill="#343440" opacity="0.627451" transform="translate(56,63)"/>
<path d="M0,0 L1,0 L1,1 L0,1 Z " fill="#343440" opacity="0.9490196" transform="translate(3,60)"/>
<path d="M0,0 L1,0 L1,1 L0,1 Z " fill="#333341" opacity="0.27450982" transform="translate(62,58)"/>
<path d="M0,0 L3,0 L3,1 L0,1 Z " fill="#A6B0BB" transform="translate(13,56)"/>
<path d="M0,0 L1,0 L1,3 L0,3 Z " fill="#A3AEB8" transform="translate(10,51)"/>
<path d="M0,0 L3,0 L3,1 L0,1 Z " fill="#CBD1D8" transform="translate(43,31)"/>
<path d="M0,0 L1,0 L1,3 L0,3 Z " fill="#CBD1D8" transform="translate(47,27)"/>
<path d="M0,0 L1,0 L1,3 L0,3 Z " fill="#CBD1D7" transform="translate(40,27)"/>
<path d="M0,0 L3,0 L3,1 L0,1 Z " fill="#CAD0D7" transform="translate(43,24)"/>
<path d="M0,0 L1,0 L1,1 L0,1 Z M-1,1 L0,1 L0,2 L-1,2 Z M-2,2 L-1,2 L-1,3 L-2,3 Z " fill="#B9C2CA" transform="translate(14,21)"/>
<path d="M0,0 L1,0 L1,1 L2,1 L2,2 L0,2 Z " fill="#C2C9D0" transform="translate(37,6)"/>
<path d="M0,0 L2,0 L2,1 L1,1 L1,2 L0,2 Z " fill="#C5CCD3" transform="translate(35,5)"/>
<path d="M0,0 L1,0 L1,2 L-1,2 L-1,1 L0,1 Z " fill="#C5CCD3" transform="translate(27,5)"/>
<path d="M0,0 L1,0 L1,1 L0,1 Z " fill="#343440" opacity="0.9529412" transform="translate(38,2)"/>
<path d="M0,0 L1,0 L1,1 L0,1 Z " fill="#343441" opacity="0.6313726" transform="translate(7,63)"/>
<path d="M0,0 L1,0 L1,1 L0,1 Z " fill="#343440" opacity="0.78039217" transform="translate(5,62)"/>
<path d="M0,0 L2,0 L2,1 L0,1 Z " fill="#AFB8C0" transform="translate(8,59)"/>
<path d="M0,0 L1,0 L1,1 L0,1 Z " fill="#343441" opacity="0.23137255" transform="translate(1,58)"/>
<path d="M0,0 L2,0 L2,1 L0,1 Z " fill="#C5CDD3" transform="translate(27,56)"/>
<path d="M0,0 L1,0 L1,2 L0,2 Z " fill="#C2CAD0" transform="translate(30,53)"/>
<path d="M0,0 L1,0 L1,2 L0,2 Z " fill="#C1C9D0" transform="translate(25,53)"/>
<path d="M0,0 L1,0 L1,1 L0,1 Z " fill="#343440" opacity="0.8862745" transform="translate(62,53)"/>
<path d="M0,0 L1,0 L1,2 L0,2 Z " fill="#B7C1C9" transform="translate(18,52)"/>
<path d="M0,0 L1,0 L1,1 L0,1 Z " fill="#343440" opacity="0.81960785" transform="translate(1,53)"/>
<path d="M0,0 L1,0 L1,1 L0,1 Z M-1,1 L0,1 L0,2 L-1,2 Z " fill="#CDD3D9" transform="translate(27,52)"/>
<path d="M0,0 L1,0 L1,2 L0,2 Z " fill="#7C7E87" transform="translate(58,50)"/>
<path d="M0,0 L2,0 L2,1 L0,1 Z " fill="#BBC4CC" transform="translate(27,51)"/>
<path d="M0,0 L1,0 L1,2 L0,2 Z " fill="#9FA6AE" transform="translate(6,50)"/>
<path d="M0,0 L1,0 L1,2 L0,2 Z " fill="#777A83" transform="translate(5,50)"/>
<path d="M0,0 L2,0 L2,1 L0,1 Z " fill="#BDC6CD" transform="translate(21,50)"/>
<path d="M0,0 L1,0 L1,1 L0,1 Z " fill="#32323D" opacity="0.18039216" transform="translate(62,49)"/>
<path d="M0,0 L1,0 L1,2 L0,2 Z " fill="#A1A7B0" transform="translate(57,48)"/>
<path d="M0,0 L1,0 L1,1 L0,1 Z M1,1 L2,1 L2,2 L1,2 Z " fill="#B6BFC7" transform="translate(16,49)"/>
<path d="M0,0 L1,0 L1,1 L0,1 Z M-1,1 L0,1 L0,2 L-1,2 Z " fill="#B8C1CA" transform="translate(11,49)"/>
<path d="M0,0 L1,0 L1,1 L0,1 Z " fill="#363640" opacity="0.10980392" transform="translate(1,49)"/>
<path d="M0,0 L1,0 L1,1 L0,1 Z " fill="#343440" opacity="0.98039216" transform="translate(61,48)"/>
<path d="M0,0 L1,0 L1,2 L0,2 Z " fill="#BAC3CA" transform="translate(24,47)"/>
<path d="M0,0 L1,0 L1,2 L0,2 Z " fill="#C8CED4" transform="translate(19,47)"/>
<path d="M0,0 L2,0 L2,1 L0,1 Z " fill="#B4BEC6" transform="translate(13,48)"/>
<path d="M0,0 L1,0 L1,1 L0,1 Z " fill="#343440" opacity="0.93333334" transform="translate(2,48)"/>
<path d="M0,0 L1,0 L1,2 L0,2 Z " fill="#A1A5AE" transform="translate(57,46)"/>
<path d="M0,0 L1,0 L1,2 L0,2 Z " fill="#868992" transform="translate(6,45)"/>
<path d="M0,0 L1,0 L1,2 L0,2 Z " fill="#6D7079" transform="translate(57,44)"/>
<path d="M0,0 L2,0 L2,1 L0,1 Z " fill="#BDC6CD" transform="translate(21,45)"/>
<path d="M0,0 L1,0 L1,1 L0,1 Z " fill="#33333F" opacity="0.27058825" transform="translate(61,44)"/>
<path d="M0,0 L1,0 L1,1 L0,1 Z " fill="#35353E" opacity="0.20784314" transform="translate(2,44)"/>
<path d="M0,0 L1,0 L1,1 L0,1 Z " fill="#353540" opacity="0.90588236" transform="translate(60,42)"/>
<path d="M0,0 L1,0 L1,1 L0,1 Z " fill="#343441" opacity="0.84705883" transform="translate(3,42)"/>
<path d="M0,0 L1,0 L1,2 L0,2 Z " fill="#7B7E87" transform="translate(56,39)"/>
<path d="M0,0 L1,0 L1,2 L0,2 Z " fill="#797C85" transform="translate(7,39)"/>
<path d="M0,0 L1,0 L1,1 L0,1 Z " fill="#343440" opacity="0.17254902" transform="translate(60,38)"/>
<path d="M0,0 L1,0 L1,2 L0,2 Z " fill="#A2A8B0" transform="translate(55,37)"/>
<path d="M0,0 L1,0 L1,2 L0,2 Z " fill="#A2A8B1" transform="translate(8,37)"/>
<path d="M0,0 L1,0 L1,1 L0,1 Z " fill="#313142" opacity="0.12156863" transform="translate(3,38)"/>
<path d="M0,0 L1,0 L1,1 L0,1 Z " fill="#343440" opacity="0.9764706" transform="translate(59,37)"/>
<path d="M0,0 L2,0 L2,1 L0,1 Z " fill="#B5BEC6" transform="translate(49,37)"/>
<path d="M0,0 L1,0 L1,1 L0,1 Z " fill="#343441" opacity="0.9411765" transform="translate(4,37)"/>
<path d="M0,0 L1,0 L1,2 L0,2 Z " fill="#A0A6AE" transform="translate(55,35)"/>
<path d="M0,0 L1,0 L1,2 L0,2 Z " fill="#A0A5AD" transform="translate(8,35)"/>
<path d="M0,0 L1,0 L1,2 L0,2 Z " fill="#A1ACB7" transform="translate(51,34)"/>
<path d="M0,0 L1,0 L1,2 L0,2 Z " fill="#A2ACB7" transform="translate(47,34)"/>
<path d="M0,0 L1,0 L1,2 L0,2 Z " fill="#6D7079" transform="translate(55,33)"/>
<path d="M0,0 L1,0 L1,2 L0,2 Z " fill="#6B6D77" transform="translate(8,33)"/>
<path d="M0,0 L1,0 L1,1 L0,1 Z " fill="#353540" opacity="0.2627451" transform="translate(59,33)"/>
<path d="M0,0 L1,0 L1,1 L0,1 Z " fill="#333341" opacity="0.21568628" transform="translate(4,33)"/>
<path d="M0,0 L2,0 L2,1 L0,1 Z " fill="#B4BDC6" transform="translate(49,32)"/>
<path d="M0,0 L1,0 L1,1 L0,1 Z " fill="#343440" opacity="0.8980392" transform="translate(58,31)"/>
<path d="M0,0 L1,0 L1,1 L0,1 Z " fill="#343440" opacity="0.85490197" transform="translate(5,31)"/>
<path d="M0,0 L1,0 L1,2 L0,2 Z " fill="#7B7E87" transform="translate(54,28)"/>
<path d="M0,0 L1,0 L1,2 L0,2 Z " fill="#A0A8B1" transform="translate(53,28)"/>
<path d="M0,0 L1,0 L1,2 L0,2 Z " fill="#7A7D87" transform="translate(9,28)"/>
<path d="M0,0 L1,0 L1,1 L0,1 Z " fill="#353541" opacity="0.16862746" transform="translate(58,27)"/>
<path d="M0,0 L1,0 L1,2 L0,2 Z " fill="#A2A7AF" transform="translate(10,26)"/>
<path d="M0,0 L1,0 L1,1 L0,1 Z " fill="#36363E" opacity="0.12941177" transform="translate(5,27)"/>
<path d="M0,0 L1,0 L1,1 L0,1 Z " fill="#343441" opacity="0.972549" transform="translate(57,26)"/>
<path d="M0,0 L1,0 L1,1 L0,1 Z " fill="#343440" opacity="0.9490196" transform="translate(6,26)"/>
<path d="M0,0 L1,0 L1,2 L0,2 Z " fill="#A1A6AE" transform="translate(53,24)"/>
<path d="M0,0 L1,0 L1,2 L0,2 Z " fill="#A7AEB7" transform="translate(52,23)"/>
<path d="M0,0 L1,0 L1,2 L0,2 Z " fill="#A7AEB7" transform="translate(11,23)"/>
<path d="M0,0 L1,0 L1,2 L0,2 Z " fill="#6D6F79" transform="translate(53,22)"/>
<path d="M0,0 L1,0 L1,2 L0,2 Z " fill="#6D7079" transform="translate(10,22)"/>
<path d="M0,0 L1,0 L1,1 L0,1 Z " fill="#33333F" opacity="0.25490198" transform="translate(57,22)"/>
<path d="M0,0 L1,0 L1,2 L0,2 Z " fill="#B4BDC4" transform="translate(51,21)"/>
<path d="M0,0 L1,0 L1,2 L0,2 Z " fill="#B3BCC5" transform="translate(12,21)"/>
<path d="M0,0 L1,0 L1,2 L0,2 Z " fill="#B9BFC6" transform="translate(11,21)"/>
<path d="M0,0 L1,0 L1,1 L0,1 Z " fill="#35353E" opacity="0.22352941" transform="translate(6,22)"/>
<path d="M0,0 L1,0 L1,2 L0,2 Z " fill="#B2B7BE" transform="translate(52,19)"/>
<path d="M0,0 L2,0 L2,1 L0,1 Z " fill="#B6BBC3" transform="translate(49,20)"/>
<path d="M0,0 L2,0 L2,1 L0,1 Z " fill="#ABB4BC" transform="translate(14,20)"/>
<path d="M0,0 L1,0 L1,2 L0,2 Z " fill="#B3B8BF" transform="translate(11,19)"/>
<path d="M0,0 L1,0 L1,1 L0,1 Z " fill="#333341" opacity="0.36862746" transform="translate(56,18)"/>
<path d="M0,0 L1,0 L1,1 L0,1 Z " fill="#33333F" opacity="0.42745098" transform="translate(7,18)"/>
<path d="M0,0 L2,0 L2,1 L0,1 Z " fill="#BCC1C8" transform="translate(14,16)"/>
<path d="M0,0 L1,0 L1,1 L0,1 Z " fill="#343440" opacity="0.59607846" transform="translate(8,16)"/>
<path d="M0,0 L1,0 L1,2 L0,2 Z " fill="#ABB4BE" transform="translate(29,14)"/>
<path d="M0,0 L2,0 L2,1 L0,1 Z " fill="#ABB4BE" transform="translate(25,15)"/>
<path d="M0,0 L2,0 L2,1 L0,1 Z " fill="#40414D" transform="translate(30,14)"/>
<path d="M0,0 L1,0 L1,1 L0,1 Z " fill="#343440" opacity="0.67058825" transform="translate(11,13)"/>
<path d="M0,0 L1,0 L1,1 L0,1 Z " fill="#32323D" opacity="0.18039216" transform="translate(51,12)"/>
<path d="M0,0 L1,0 L1,1 L0,1 Z " fill="#343440" opacity="0.5921569" transform="translate(13,12)"/>
<path d="M0,0 L1,0 L1,2 L0,2 Z " fill="#41424E" transform="translate(34,10)"/>
<path d="M0,0 L1,0 L1,2 L0,2 Z " fill="#41424E" transform="translate(29,10)"/>
<path d="M0,0 L1,0 L1,2 L0,2 Z " fill="#A3AAB3" transform="translate(39,9)"/>
<path d="M0,0 L1,0 L1,2 L0,2 Z " fill="#A4ABB4" transform="translate(24,9)"/>
<path d="M0,0 L2,0 L2,1 L0,1 Z " fill="#BCC4CC" transform="translate(34,9)"/>
<path d="M0,0 L2,0 L2,1 L0,1 Z " fill="#42424E" transform="translate(30,9)"/>
<path d="M0,0 L1,0 L1,1 L0,1 Z " fill="#333341" opacity="0.44705883" transform="translate(43,8)"/>
<path d="M0,0 L1,0 L1,2 L0,2 Z " fill="#BFC7CE" transform="translate(25,7)"/>
<path d="M0,0 L1,0 L1,1 L0,1 Z " fill="#343440" opacity="0.45490196" transform="translate(20,8)"/>
<path d="M0,0 L1,0 L1,2 L0,2 Z " fill="#C2C9D0" transform="translate(36,6)"/>
<path d="M0,0 L1,0 L1,1 L0,1 Z " fill="#343440" opacity="0.63529414" transform="translate(42,6)"/>
<path d="M0,0 L1,0 L1,1 L0,1 Z " fill="#343440" opacity="0.627451" transform="translate(21,6)"/>
<path d="M0,0 L1,0 L1,1 L0,1 Z M1,1 L2,1 L2,2 L1,2 Z " fill="#383844" transform="translate(37,5)"/>
<path d="M0,0 L2,0 L2,1 L0,1 Z " fill="#B4B9C0" transform="translate(29,4)"/>
<path d="M0,0 L1,0 L1,1 L0,1 Z " fill="#343440" opacity="0.627451" transform="translate(26,1)"/>
<path d="M0,0 L1,0 L1,1 L0,1 Z " fill="#333341" opacity="0.13725491" transform="translate(36,0)"/>
<path d="M0,0 L1,0 L1,1 L0,1 Z " fill="#343440" opacity="0.45490196" transform="translate(28,0)"/>
<path d="M0,0 L1,0 L1,1 L0,1 Z " fill="#323240" opacity="0.21960784" transform="translate(57,63)"/>
<path d="M0,0 L1,0 L1,1 L0,1 Z " fill="#343440" opacity="0.79607844" transform="translate(55,63)"/>
<path d="M0,0 L1,0 L1,1 L0,1 Z " fill="#343440" opacity="0.93333334" transform="translate(54,63)"/>
<path d="M0,0 L1,0 L1,1 L0,1 Z " fill="#343440" opacity="0.79607844" transform="translate(8,63)"/>
<path d="M0,0 L1,0 L1,1 L0,1 Z " fill="#34343D" opacity="0.22745098" transform="translate(6,63)"/>
<path d="M0,0 L1,0 L1,1 L0,1 Z " fill="#333341" opacity="0.13725491" transform="translate(59,62)"/>
<path d="M0,0 L1,0 L1,1 L0,1 Z " fill="#333340" opacity="0.77254903" transform="translate(58,62)"/>
<path d="M0,0 L1,0 L1,1 L0,1 Z " fill="#333341" opacity="0.13725491" transform="translate(4,62)"/>
<path d="M0,0 L1,0 L1,1 L0,1 Z " fill="#34343E" opacity="0.19215687" transform="translate(60,61)"/>
<path d="M0,0 L1,0 L1,1 L0,1 Z " fill="#343440" opacity="0.9137255" transform="translate(59,61)"/>
<path d="M0,0 L1,0 L1,1 L0,1 Z " fill="#343440" opacity="0.9137255" transform="translate(4,61)"/>
<path d="M0,0 L1,0 L1,1 L0,1 Z " fill="#33333D" opacity="0.19607843" transform="translate(3,61)"/>
<path d="M0,0 L1,0 L1,1 L0,1 Z " fill="#313142" opacity="0.12156863" transform="translate(61,60)"/>
<path d="M0,0 L1,0 L1,1 L0,1 Z " fill="#343440" opacity="0.9490196" transform="translate(60,60)"/>
<path d="M0,0 L1,0 L1,1 L0,1 Z " fill="#33333B" opacity="0.11764706" transform="translate(2,60)"/>
<path d="M0,0 L1,0 L1,1 L0,1 Z " fill="#333341" opacity="0.003921569" transform="translate(62,59)"/>
<path d="M0,0 L1,0 L1,1 L0,1 Z " fill="#343440" opacity="0.7058824" transform="translate(61,59)"/>
<path d="M0,0 L1,0 L1,1 L0,1 Z " fill="#5B5D69" transform="translate(56,59)"/>
<path d="M0,0 L1,0 L1,1 L0,1 Z " fill="#969DA6" transform="translate(55,59)"/>
<path d="M0,0 L1,0 L1,1 L0,1 Z " fill="#AFB8C0" transform="translate(54,59)"/>
<path d="M0,0 L1,0 L1,1 L0,1 Z " fill="#969DA6" transform="translate(8,59)"/>
<path d="M0,0 L1,0 L1,1 L0,1 Z " fill="#5B5E68" transform="translate(7,59)"/>
<path d="M0,0 L1,0 L1,1 L0,1 Z " fill="#343440" opacity="0.68235296" transform="translate(2,59)"/>
<path d="M0,0 L1,0 L1,1 L0,1 Z " fill="#767B85" transform="translate(57,58)"/>
<path d="M0,0 L1,0 L1,1 L0,1 Z " fill="#777C86" transform="translate(6,58)"/>
<path d="M0,0 L1,0 L1,1 L0,1 Z " fill="#343440" opacity="0.57254905" transform="translate(62,57)"/>
<path d="M0,0 L1,0 L1,1 L0,1 Z " fill="#575964" transform="translate(58,57)"/>
<path d="M0,0 L1,0 L1,1 L0,1 Z " fill="#595B67" transform="translate(5,57)"/>
<path d="M0,0 L1,0 L1,1 L0,1 Z " fill="#333340" opacity="0.54509807" transform="translate(1,57)"/>
<path d="M0,0 L1,0 L1,1 L0,1 Z " fill="#343440" opacity="0.8392157" transform="translate(62,56)"/>
<path d="M0,0 L1,0 L1,1 L0,1 Z " fill="#8D949D" transform="translate(58,56)"/>
<path d="M0,0 L1,0 L1,1 L0,1 Z " fill="#C5CCD3" transform="translate(27,56)"/>
<path d="M0,0 L1,0 L1,1 L0,1 Z " fill="#BAC4CC" transform="translate(26,56)"/>
<path d="M0,0 L1,0 L1,1 L0,1 Z " fill="#AFB9C2" transform="translate(15,56)"/>
<path d="M0,0 L1,0 L1,1 L0,1 Z " fill="#A8B2BC" transform="translate(13,56)"/>
<path d="M0,0 L1,0 L1,1 L0,1 Z " fill="#B5BFC7" transform="translate(12,56)"/>
<path d="M0,0 L1,0 L1,1 L0,1 Z " fill="#8C919A" transform="translate(5,56)"/>
<path d="M0,0 L1,0 L1,1 L0,1 Z " fill="#343440" opacity="0.8235294" transform="translate(1,56)"/>
<path d="M0,0 L1,0 L1,1 L0,1 Z " fill="#9AA0A8" transform="translate(58,55)"/>
<path d="M0,0 L1,0 L1,1 L0,1 Z " fill="#CAD0D6" transform="translate(29,55)"/>
<path d="M0,0 L1,0 L1,1 L0,1 Z " fill="#CAD0D6" transform="translate(26,55)"/>
<path d="M0,0 L1,0 L1,1 L0,1 Z " fill="#BAC3CA" transform="translate(25,55)"/>
<path d="M0,0 L1,0 L1,1 L0,1 Z " fill="#AAB4BE" transform="translate(16,55)"/>
<path d="M0,0 L1,0 L1,1 L0,1 Z " fill="#9FABB5" transform="translate(12,55)"/>
<path d="M0,0 L1,0 L1,1 L0,1 Z " fill="#B2BDC5" transform="translate(11,55)"/>
<path d="M0,0 L1,0 L1,1 L0,1 Z " fill="#9BA1A9" transform="translate(5,55)"/>
<path d="M0,0 L1,0 L1,1 L0,1 Z " fill="#353541" opacity="0.9254902" transform="translate(62,54)"/>
<path d="M0,0 L1,0 L1,1 L0,1 Z " fill="#A4A9B1" transform="translate(58,54)"/>
<path d="M0,0 L1,0 L1,1 L0,1 Z " fill="#ACB6BF" transform="translate(17,54)"/>
<path d="M0,0 L1,0 L1,1 L0,1 Z " fill="#9FAAB5" transform="translate(11,54)"/>
<path d="M0,0 L1,0 L1,1 L0,1 Z " fill="#B4BEC6" transform="translate(10,54)"/>
<path d="M0,0 L1,0 L1,1 L0,1 Z " fill="#A5AAB2" transform="translate(5,54)"/>
<path d="M0,0 L1,0 L1,1 L0,1 Z " fill="#353540" opacity="0.8901961" transform="translate(1,54)"/>
<path d="M0,0 L1,0 L1,1 L0,1 Z " fill="#BFC6CE" transform="translate(30,53)"/>
<path d="M0,0 L1,0 L1,1 L0,1 Z " fill="#BFC6CE" transform="translate(25,53)"/>
<path d="M0,0 L1,0 L1,1 L0,1 Z " fill="#9EAAB5" transform="translate(17,53)"/>
<path d="M0,0 L1,0 L1,1 L0,1 Z " fill="#A6B0BB" transform="translate(10,53)"/>
<path d="M0,0 L1,0 L1,1 L0,1 Z " fill="#343440" opacity="0.7294118" transform="translate(62,52)"/>
<path d="M0,0 L1,0 L1,1 L0,1 Z " fill="#969AA3" transform="translate(58,52)"/>
<path d="M0,0 L1,0 L1,1 L0,1 Z " fill="#AFB8C0" transform="translate(57,52)"/>
<path d="M0,0 L1,0 L1,1 L0,1 Z " fill="#C1C9D1" transform="translate(29,52)"/>
<path d="M0,0 L1,0 L1,1 L0,1 Z " fill="#C2CAD0" transform="translate(26,52)"/>
<path d="M0,0 L1,0 L1,1 L0,1 Z " fill="#B6BFC8" transform="translate(18,52)"/>
<path d="M0,0 L1,0 L1,1 L0,1 Z " fill="#ACB4BC" transform="translate(6,52)"/>
<path d="M0,0 L1,0 L1,1 L0,1 Z " fill="#94979F" transform="translate(5,52)"/>
<path d="M0,0 L1,0 L1,1 L0,1 Z " fill="#343440" opacity="0.654902" transform="translate(1,52)"/>
<path d="M0,0 L1,0 L1,1 L0,1 Z " fill="#BCC4CC" transform="translate(27,51)"/>
<path d="M0,0 L1,0 L1,1 L0,1 Z " fill="#A4AFBA" transform="translate(17,51)"/>
<path d="M0,0 L1,0 L1,1 L0,1 Z " fill="#ADB7C0" transform="translate(10,51)"/>
<path d="M0,0 L1,0 L1,1 L0,1 Z " fill="#34343F" opacity="0.3647059" transform="translate(62,50)"/>
<path d="M0,0 L1,0 L1,1 L0,1 Z " fill="#60626B" transform="translate(58,50)"/>
<path d="M0,0 L1,0 L1,1 L0,1 Z " fill="#9CA2AB" transform="translate(57,50)"/>
<path d="M0,0 L1,0 L1,1 L0,1 Z " fill="#C1C9D1" transform="translate(21,50)"/>
<path d="M0,0 L1,0 L1,1 L0,1 Z " fill="#BBC3CB" transform="translate(20,50)"/>
<path d="M0,0 L1,0 L1,1 L0,1 Z " fill="#A2ACB6" transform="translate(16,50)"/>
<path d="M0,0 L1,0 L1,1 L0,1 Z " fill="#A8B2BC" transform="translate(11,50)"/>
<path d="M0,0 L1,0 L1,1 L0,1 Z " fill="#9DA3AB" transform="translate(6,50)"/>
<path d="M0,0 L1,0 L1,1 L0,1 Z " fill="#5C5E68" transform="translate(5,50)"/>
<path d="M0,0 L1,0 L1,1 L0,1 Z " fill="#333340" opacity="0.29411766" transform="translate(1,50)"/>
<path d="M0,0 L1,0 L1,1 L0,1 Z " fill="#444550" transform="translate(58,49)"/>
<path d="M0,0 L1,0 L1,1 L0,1 Z " fill="#BFC7CE" transform="translate(23,49)"/>
<path d="M0,0 L1,0 L1,1 L0,1 Z " fill="#CAD1D7" transform="translate(20,49)"/>
<path d="M0,0 L1,0 L1,1 L0,1 Z " fill="#BCC4CB" transform="translate(19,49)"/>
<path d="M0,0 L1,0 L1,1 L0,1 Z " fill="#A3AEB9" transform="translate(15,49)"/>
<path d="M0,0 L1,0 L1,1 L0,1 Z " fill="#AAB4BE" transform="translate(12,49)"/>
<path d="M0,0 L1,0 L1,1 L0,1 Z " fill="#A4AAB2" transform="translate(6,49)"/>
<path d="M0,0 L1,0 L1,1 L0,1 Z " fill="#40414C" transform="translate(5,49)"/>
<path d="M0,0 L1,0 L1,1 L0,1 Z " fill="#343440" opacity="0.023529412" transform="translate(62,48)"/>
<path d="M0,0 L1,0 L1,1 L0,1 Z " fill="#A7ADB4" transform="translate(57,48)"/>
<path d="M0,0 L1,0 L1,1 L0,1 Z " fill="#B5BFC7" transform="translate(13,48)"/>
<path d="M0,0 L1,0 L1,1 L0,1 Z " fill="#343440" opacity="0.003921569" transform="translate(1,48)"/>
<path d="M0,0 L1,0 L1,1 L0,1 Z " fill="#343440" opacity="0.81960785" transform="translate(61,47)"/>
<path d="M0,0 L1,0 L1,1 L0,1 Z " fill="#B6BFC8" transform="translate(56,47)"/>
<path d="M0,0 L1,0 L1,1 L0,1 Z " fill="#CCD2D9" transform="translate(23,47)"/>
<path d="M0,0 L1,0 L1,1 L0,1 Z " fill="#C8CED5" transform="translate(19,47)"/>
<path d="M0,0 L1,0 L1,1 L0,1 Z " fill="#B4BDC6" transform="translate(7,47)"/>
<path d="M0,0 L1,0 L1,1 L0,1 Z " fill="#9FA4AC" transform="translate(6,47)"/>
<path d="M0,0 L1,0 L1,1 L0,1 Z " fill="#343441" opacity="0.7529412" transform="translate(2,47)"/>
<path d="M0,0 L1,0 L1,1 L0,1 Z " fill="#898C95" transform="translate(57,46)"/>
<path d="M0,0 L1,0 L1,1 L0,1 Z " fill="#A7AFB7" transform="translate(56,46)"/>
<path d="M0,0 L1,0 L1,1 L0,1 Z " fill="#C0C8CF" transform="translate(23,46)"/>
<path d="M0,0 L1,0 L1,1 L0,1 Z " fill="#CBD1D7" transform="translate(20,46)"/>
<path d="M0,0 L1,0 L1,1 L0,1 Z " fill="#BBC4CC" transform="translate(19,46)"/>
<path d="M0,0 L1,0 L1,1 L0,1 Z " fill="#A4ACB4" transform="translate(7,46)"/>
<path d="M0,0 L1,0 L1,1 L0,1 Z " fill="#353540" opacity="0.4509804" transform="translate(61,45)"/>
<path d="M0,0 L1,0 L1,1 L0,1 Z " fill="#9DA4AC" transform="translate(56,45)"/>
<path d="M0,0 L1,0 L1,1 L0,1 Z " fill="#C2CAD1" transform="translate(21,45)"/>
<path d="M0,0 L1,0 L1,1 L0,1 Z " fill="#BCC4CC" transform="translate(20,45)"/>
<path d="M0,0 L1,0 L1,1 L0,1 Z " fill="#9CA3AC" transform="translate(7,45)"/>
<path d="M0,0 L1,0 L1,1 L0,1 Z " fill="#6A6D77" transform="translate(6,45)"/>
<path d="M0,0 L1,0 L1,1 L0,1 Z " fill="#333340" opacity="0.3882353" transform="translate(2,45)"/>
<path d="M0,0 L1,0 L1,1 L0,1 Z " fill="#52535E" transform="translate(57,44)"/>
<path d="M0,0 L1,0 L1,1 L0,1 Z " fill="#4F505B" transform="translate(6,44)"/>
<path d="M0,0 L1,0 L1,1 L0,1 Z " fill="#2E2E3A" opacity="0.08627451" transform="translate(61,43)"/>
<path d="M0,0 L1,0 L1,1 L0,1 Z " fill="#393945" transform="translate(57,43)"/>
<path d="M0,0 L1,0 L1,1 L0,1 Z " fill="#A6ACB4" transform="translate(56,43)"/>
<path d="M0,0 L1,0 L1,1 L0,1 Z " fill="#A8ADB4" transform="translate(7,43)"/>
<path d="M0,0 L1,0 L1,1 L0,1 Z " fill="#373744" transform="translate(6,43)"/>
<path d="M0,0 L1,0 L1,1 L0,1 Z " fill="#343440" opacity="0.99215686" transform="translate(3,43)"/>
<path d="M0,0 L1,0 L1,1 L0,1 Z " fill="#343440" opacity="0.039215688" transform="translate(2,43)"/>
<path d="M0,0 L1,0 L1,1 L0,1 Z " fill="#343440" opacity="0.72156864" transform="translate(60,41)"/>
<path d="M0,0 L1,0 L1,1 L0,1 Z " fill="#969AA3" transform="translate(56,41)"/>
<path d="M0,0 L1,0 L1,1 L0,1 Z " fill="#B0B8C1" transform="translate(55,41)"/>
<path d="M0,0 L1,0 L1,1 L0,1 Z " fill="#ADB5BD" transform="translate(8,41)"/>
<path d="M0,0 L1,0 L1,1 L0,1 Z " fill="#9498A1" transform="translate(7,41)"/>
<path d="M0,0 L1,0 L1,1 L0,1 Z " fill="#343440" opacity="0.6666667" transform="translate(3,41)"/>
<path d="M0,0 L1,0 L1,1 L0,1 Z " fill="#353540" opacity="0.35686275" transform="translate(60,39)"/>
<path d="M0,0 L1,0 L1,1 L0,1 Z " fill="#60626B" transform="translate(56,39)"/>
<path d="M0,0 L1,0 L1,1 L0,1 Z " fill="#9CA2AB" transform="translate(55,39)"/>
<path d="M0,0 L1,0 L1,1 L0,1 Z " fill="#9CA2AA" transform="translate(8,39)"/>
<path d="M0,0 L1,0 L1,1 L0,1 Z " fill="#5D5E69" transform="translate(7,39)"/>
<path d="M0,0 L1,0 L1,1 L0,1 Z " fill="#35353F" opacity="0.3019608" transform="translate(3,39)"/>
<path d="M0,0 L1,0 L1,1 L0,1 Z " fill="#434450" transform="translate(56,38)"/>
<path d="M0,0 L1,0 L1,1 L0,1 Z " fill="#42424E" transform="translate(7,38)"/>
<path d="M0,0 L1,0 L1,1 L0,1 Z " fill="#343440" opacity="0.019607844" transform="translate(60,37)"/>
<path d="M0,0 L1,0 L1,1 L0,1 Z " fill="#A8ACB5" transform="translate(55,37)"/>
<path d="M0,0 L1,0 L1,1 L0,1 Z " fill="#ACB6C0" transform="translate(49,37)"/>
<path d="M0,0 L1,0 L1,1 L0,1 Z " fill="#B4BEC6" transform="translate(48,37)"/>
<path d="M0,0 L1,0 L1,1 L0,1 Z " fill="#A8ACB5" transform="translate(8,37)"/>
<path d="M0,0 L1,0 L1,1 L0,1 Z " fill="#343441" opacity="0.003921569" transform="translate(3,37)"/>
<path d="M0,0 L1,0 L1,1 L0,1 Z " fill="#353540" opacity="0.8117647" transform="translate(59,36)"/>
<path d="M0,0 L1,0 L1,1 L0,1 Z " fill="#B6BFC8" transform="translate(54,36)"/>
<path d="M0,0 L1,0 L1,1 L0,1 Z " fill="#B3BCC5" transform="translate(51,36)"/>
<path d="M0,0 L1,0 L1,1 L0,1 Z " fill="#9FAAB5" transform="translate(50,36)"/>
<path d="M0,0 L1,0 L1,1 L0,1 Z " fill="#9FAAB5" transform="translate(48,36)"/>
<path d="M0,0 L1,0 L1,1 L0,1 Z " fill="#B3BCC5" transform="translate(47,36)"/>
<path d="M0,0 L1,0 L1,1 L0,1 Z " fill="#B6BFC7" transform="translate(9,36)"/>
<path d="M0,0 L1,0 L1,1 L0,1 Z " fill="#343440" opacity="0.7607843" transform="translate(4,36)"/>
<path d="M0,0 L1,0 L1,1 L0,1 Z " fill="#888C95" transform="translate(55,35)"/>
<path d="M0,0 L1,0 L1,1 L0,1 Z " fill="#A6AEB7" transform="translate(54,35)"/>
<path d="M0,0 L1,0 L1,1 L0,1 Z " fill="#A6ADB5" transform="translate(9,35)"/>
<path d="M0,0 L1,0 L1,1 L0,1 Z " fill="#888B93" transform="translate(8,35)"/>
<path d="M0,0 L1,0 L1,1 L0,1 Z " fill="#333341" opacity="0.44705883" transform="translate(59,34)"/>
<path d="M0,0 L1,0 L1,1 L0,1 Z " fill="#9DA3AC" transform="translate(54,34)"/>
<path d="M0,0 L1,0 L1,1 L0,1 Z " fill="#A1ACB6" transform="translate(47,34)"/>
<path d="M0,0 L1,0 L1,1 L0,1 Z " fill="#9DA3AC" transform="translate(9,34)"/>
<path d="M0,0 L1,0 L1,1 L0,1 Z " fill="#35353F" opacity="0.39607844" transform="translate(4,34)"/>
<path d="M0,0 L1,0 L1,1 L0,1 Z " fill="#52535D" transform="translate(55,33)"/>
<path d="M0,0 L1,0 L1,1 L0,1 Z " fill="#B2BCC5" transform="translate(51,33)"/>
<path d="M0,0 L1,0 L1,1 L0,1 Z " fill="#9EAAB4" transform="translate(50,33)"/>
<path d="M0,0 L1,0 L1,1 L0,1 Z " fill="#9EAAB4" transform="translate(48,33)"/>
<path d="M0,0 L1,0 L1,1 L0,1 Z " fill="#B2BCC5" transform="translate(47,33)"/>
<path d="M0,0 L1,0 L1,1 L0,1 Z " fill="#50515C" transform="translate(8,33)"/>
<path d="M0,0 L1,0 L1,1 L0,1 Z " fill="#30303C" opacity="0.08235294" transform="translate(59,32)"/>
<path d="M0,0 L1,0 L1,1 L0,1 Z " fill="#393945" transform="translate(55,32)"/>
<path d="M0,0 L1,0 L1,1 L0,1 Z " fill="#A6ACB4" transform="translate(54,32)"/>
<path d="M0,0 L1,0 L1,1 L0,1 Z " fill="#ACB6BF" transform="translate(49,32)"/>
<path d="M0,0 L1,0 L1,1 L0,1 Z " fill="#B4BDC6" transform="translate(48,32)"/>
<path d="M0,0 L1,0 L1,1 L0,1 Z " fill="#A6ADB5" transform="translate(9,32)"/>
<path d="M0,0 L1,0 L1,1 L0,1 Z " fill="#383844" transform="translate(8,32)"/>
<path d="M0,0 L1,0 L1,1 L0,1 Z " fill="#343440" opacity="0.99607843" transform="translate(5,32)"/>
<path d="M0,0 L1,0 L1,1 L0,1 Z " fill="#343440" opacity="0.043137256" transform="translate(4,32)"/>
<path d="M0,0 L1,0 L1,1 L0,1 Z " fill="#C3CBD2" transform="translate(45,31)"/>
<path d="M0,0 L1,0 L1,1 L0,1 Z " fill="#C1C9D0" transform="translate(42,31)"/>
<path d="M0,0 L1,0 L1,1 L0,1 Z " fill="#353540" opacity="0.7176471" transform="translate(58,30)"/>
<path d="M0,0 L1,0 L1,1 L0,1 Z " fill="#969AA3" transform="translate(54,30)"/>
<path d="M0,0 L1,0 L1,1 L0,1 Z " fill="#AFB7C0" transform="translate(53,30)"/>
<path d="M0,0 L1,0 L1,1 L0,1 Z " fill="#C5CCD3" transform="translate(46,30)"/>
<path d="M0,0 L1,0 L1,1 L0,1 Z " fill="#C3CBD2" transform="translate(41,30)"/>
<path d="M0,0 L1,0 L1,1 L0,1 Z " fill="#AFB7BF" transform="translate(10,30)"/>
<path d="M0,0 L1,0 L1,1 L0,1 Z " fill="#969AA2" transform="translate(9,30)"/>
<path d="M0,0 L1,0 L1,1 L0,1 Z " fill="#343440" opacity="0.6745098" transform="translate(5,30)"/>
<path d="M0,0 L1,0 L1,1 L0,1 Z " fill="#C2CAD1" transform="translate(47,29)"/>
<path d="M0,0 L1,0 L1,1 L0,1 Z " fill="#C2C9D1" transform="translate(40,29)"/>
<path d="M0,0 L1,0 L1,1 L0,1 Z " fill="#33333F" opacity="0.34901962" transform="translate(58,28)"/>
<path d="M0,0 L1,0 L1,1 L0,1 Z " fill="#5F616B" transform="translate(54,28)"/>
<path d="M0,0 L1,0 L1,1 L0,1 Z " fill="#9CA2AB" transform="translate(53,28)"/>
<path d="M0,0 L1,0 L1,1 L0,1 Z " fill="#9BA2AB" transform="translate(10,28)"/>
<path d="M0,0 L1,0 L1,1 L0,1 Z " fill="#5E606B" transform="translate(9,28)"/>
<path d="M0,0 L1,0 L1,1 L0,1 Z " fill="#333340" opacity="0.30980393" transform="translate(5,28)"/>
<path d="M0,0 L1,0 L1,1 L0,1 Z " fill="#434450" transform="translate(54,27)"/>
<path d="M0,0 L1,0 L1,1 L0,1 Z " fill="#CBD1D8" transform="translate(40,27)"/>
<path d="M0,0 L1,0 L1,1 L0,1 Z " fill="#44444F" transform="translate(9,27)"/>
<path d="M0,0 L1,0 L1,1 L0,1 Z " fill="#343441" opacity="0.015686275" transform="translate(58,26)"/>
<path d="M0,0 L1,0 L1,1 L0,1 Z " fill="#A8ADB5" transform="translate(53,26)"/>
<path d="M0,0 L1,0 L1,1 L0,1 Z " fill="#C1C9D0" transform="translate(47,26)"/>
<path d="M0,0 L1,0 L1,1 L0,1 Z " fill="#C1C9D0" transform="translate(40,26)"/>
<path d="M0,0 L1,0 L1,1 L0,1 Z " fill="#A7ADB4" transform="translate(10,26)"/>
<path d="M0,0 L1,0 L1,1 L0,1 Z " fill="#343440" opacity="0.003921569" transform="translate(5,26)"/>
<path d="M0,0 L1,0 L1,1 L0,1 Z " fill="#343440" opacity="0.8039216" transform="translate(57,25)"/>
<path d="M0,0 L1,0 L1,1 L0,1 Z " fill="#B7BFC7" transform="translate(52,25)"/>
<path d="M0,0 L1,0 L1,1 L0,1 Z " fill="#C3CBD2" transform="translate(46,25)"/>
<path d="M0,0 L1,0 L1,1 L0,1 Z " fill="#C3CBD2" transform="translate(41,25)"/>
<path d="M0,0 L1,0 L1,1 L0,1 Z " fill="#B7BFC7" transform="translate(11,25)"/>
<path d="M0,0 L1,0 L1,1 L0,1 Z " fill="#343441" opacity="0.76862746" transform="translate(6,25)"/>
<path d="M0,0 L1,0 L1,1 L0,1 Z " fill="#888C95" transform="translate(53,24)"/>
<path d="M0,0 L1,0 L1,1 L0,1 Z " fill="#C2C9D0" transform="translate(45,24)"/>
<path d="M0,0 L1,0 L1,1 L0,1 Z " fill="#CBD1D7" transform="translate(43,24)"/>
<path d="M0,0 L1,0 L1,1 L0,1 Z " fill="#C1C9D0" transform="translate(42,24)"/>
<path d="M0,0 L1,0 L1,1 L0,1 Z " fill="#888C95" transform="translate(10,24)"/>
<path d="M0,0 L1,0 L1,1 L0,1 Z " fill="#343440" opacity="0.4392157" transform="translate(57,23)"/>
<path d="M0,0 L1,0 L1,1 L0,1 Z " fill="#9CA3AB" transform="translate(52,23)"/>
<path d="M0,0 L1,0 L1,1 L0,1 Z " fill="#9CA3AB" transform="translate(11,23)"/>
<path d="M0,0 L1,0 L1,1 L0,1 Z " fill="#343440" opacity="0.40392157" transform="translate(6,23)"/>
<path d="M0,0 L1,0 L1,1 L0,1 Z " fill="#52535D" transform="translate(53,22)"/>
<path d="M0,0 L1,0 L1,1 L0,1 Z " fill="#52535D" transform="translate(10,22)"/>
<path d="M0,0 L1,0 L1,1 L0,1 Z " fill="#353541" opacity="0.07450981" transform="translate(57,21)"/>
<path d="M0,0 L1,0 L1,1 L0,1 Z " fill="#393945" transform="translate(53,21)"/>
<path d="M0,0 L1,0 L1,1 L0,1 Z " fill="#CAD0D6" transform="translate(52,21)"/>
<path d="M0,0 L1,0 L1,1 L0,1 Z " fill="#A5ABB3" transform="translate(51,21)"/>
<path d="M0,0 L1,0 L1,1 L0,1 Z " fill="#B7BFC7" transform="translate(50,21)"/>
<path d="M0,0 L1,0 L1,1 L0,1 Z " fill="#A7AEB5" transform="translate(12,21)"/>
<path d="M0,0 L1,0 L1,1 L0,1 Z " fill="#CAD0D7" transform="translate(11,21)"/>
<path d="M0,0 L1,0 L1,1 L0,1 Z " fill="#393945" transform="translate(10,21)"/>
<path d="M0,0 L1,0 L1,1 L0,1 Z " fill="#353541" opacity="0.050980393" transform="translate(6,21)"/>
<path d="M0,0 L1,0 L1,1 L0,1 Z " fill="#9EA5AD" transform="translate(49,20)"/>
<path d="M0,0 L1,0 L1,1 L0,1 Z " fill="#ACB4BC" transform="translate(48,20)"/>
<path d="M0,0 L1,0 L1,1 L0,1 Z " fill="#9EA5AD" transform="translate(14,20)"/>
<path d="M0,0 L1,0 L1,1 L0,1 Z " fill="#B7BDC4" transform="translate(13,20)"/>
<path d="M0,0 L1,0 L1,1 L0,1 Z " fill="#343440" opacity="0.7019608" transform="translate(56,19)"/>
<path d="M0,0 L1,0 L1,1 L0,1 Z " fill="#858890" transform="translate(52,19)"/>
<path d="M0,0 L1,0 L1,1 L0,1 Z " fill="#858991" transform="translate(11,19)"/>
<path d="M0,0 L1,0 L1,1 L0,1 Z " fill="#353541" opacity="0.6784314" transform="translate(7,19)"/>
<path d="M0,0 L1,0 L1,1 L0,1 Z " fill="#494A56" transform="translate(52,18)"/>
<path d="M0,0 L1,0 L1,1 L0,1 Z " fill="#C7CDD3" transform="translate(51,18)"/>
<path d="M0,0 L1,0 L1,1 L0,1 Z " fill="#C6CCD2" transform="translate(12,18)"/>
<path d="M0,0 L1,0 L1,1 L0,1 Z " fill="#494A56" transform="translate(11,18)"/>
<path d="M0,0 L1,0 L1,1 L0,1 Z " fill="#343441" opacity="0.047058824" transform="translate(56,17)"/>
<path d="M0,0 L1,0 L1,1 L0,1 Z " fill="#343441" opacity="0.95686275" transform="translate(55,17)"/>
<path d="M0,0 L1,0 L1,1 L0,1 Z " fill="#666872" transform="translate(51,17)"/>
<path d="M0,0 L1,0 L1,1 L0,1 Z " fill="#CAD0D6" transform="translate(50,17)"/>
<path d="M0,0 L1,0 L1,1 L0,1 Z " fill="#C9CFD4" transform="translate(13,17)"/>
<path d="M0,0 L1,0 L1,1 L0,1 Z " fill="#62646E" transform="translate(12,17)"/>
<path d="M0,0 L1,0 L1,1 L0,1 Z " fill="#353540" opacity="0.9843137" transform="translate(8,17)"/>
<path d="M0,0 L1,0 L1,1 L0,1 Z " fill="#363640" opacity="0.10980392" transform="translate(7,17)"/>
<path d="M0,0 L1,0 L1,1 L0,1 Z " fill="#353541" opacity="0.58431375" transform="translate(55,16)"/>
<path d="M0,0 L1,0 L1,1 L0,1 Z " fill="#4D4E59" transform="translate(50,16)"/>
<path d="M0,0 L1,0 L1,1 L0,1 Z " fill="#9B9FA7" transform="translate(49,16)"/>
<path d="M0,0 L1,0 L1,1 L0,1 Z " fill="#BCC1C9" transform="translate(48,16)"/>
<path d="M0,0 L1,0 L1,1 L0,1 Z " fill="#9A9EA6" transform="translate(14,16)"/>
<path d="M0,0 L1,0 L1,1 L0,1 Z " fill="#4C4D58" transform="translate(13,16)"/>
<path d="M0,0 L1,0 L1,1 L0,1 Z " fill="#343440" opacity="0.05490196" transform="translate(55,15)"/>
<path d="M0,0 L1,0 L1,1 L0,1 Z " fill="#494A56" transform="translate(39,15)"/>
<path d="M0,0 L1,0 L1,1 L0,1 Z " fill="#A9B2BC" transform="translate(38,15)"/>
<path d="M0,0 L1,0 L1,1 L0,1 Z " fill="#AAB3BD" transform="translate(25,15)"/>
<path d="M0,0 L1,0 L1,1 L0,1 Z " fill="#4A4C57" transform="translate(24,15)"/>
<path d="M0,0 L1,0 L1,1 L0,1 Z " fill="#343441" opacity="0.05490196" transform="translate(8,15)"/>
<path d="M0,0 L1,0 L1,1 L0,1 Z " fill="#303040" opacity="0.1254902" transform="translate(54,14)"/>
<path d="M0,0 L1,0 L1,1 L0,1 Z " fill="#7A7F89" transform="translate(39,14)"/>
<path d="M0,0 L1,0 L1,1 L0,1 Z " fill="#AAB2BC" transform="translate(34,14)"/>
<path d="M0,0 L1,0 L1,1 L0,1 Z " fill="#6B6F7A" transform="translate(33,14)"/>
<path d="M0,0 L1,0 L1,1 L0,1 Z " fill="#40414D" transform="translate(32,14)"/>
<path d="M0,0 L1,0 L1,1 L0,1 Z " fill="#6C707B" transform="translate(30,14)"/>
<path d="M0,0 L1,0 L1,1 L0,1 Z " fill="#ABB3BD" transform="translate(29,14)"/>
<path d="M0,0 L1,0 L1,1 L0,1 Z " fill="#7B808A" transform="translate(24,14)"/>
<path d="M0,0 L1,0 L1,1 L0,1 Z " fill="#313142" opacity="0.12156863" transform="translate(9,14)"/>
<path d="M0,0 L1,0 L1,1 L0,1 Z " fill="#333340" opacity="0.05490196" transform="translate(53,13)"/>
<path d="M0,0 L1,0 L1,1 L0,1 Z " fill="#333340" opacity="0.6392157" transform="translate(52,13)"/>
<path d="M0,0 L1,0 L1,1 L0,1 Z " fill="#9DA4AE" transform="translate(39,13)"/>
<path d="M0,0 L1,0 L1,1 L0,1 Z " fill="#6C707B" transform="translate(34,13)"/>
<path d="M0,0 L1,0 L1,1 L0,1 Z " fill="#6E727C" transform="translate(29,13)"/>
<path d="M0,0 L1,0 L1,1 L0,1 Z " fill="#9EA5AF" transform="translate(24,13)"/>
<path d="M0,0 L1,0 L1,1 L0,1 Z " fill="#343440" opacity="0.06666667" transform="translate(10,13)"/>
<path d="M0,0 L1,0 L1,1 L0,1 Z " fill="#343440" opacity="0.5764706" transform="translate(50,12)"/>
<path d="M0,0 L1,0 L1,1 L0,1 Z " fill="#343440" opacity="0.8352941" transform="translate(49,12)"/>
<path d="M0,0 L1,0 L1,1 L0,1 Z " fill="#343440" opacity="0.9529412" transform="translate(48,12)"/>
<path d="M0,0 L1,0 L1,1 L0,1 Z " fill="#41424D" transform="translate(34,12)"/>
<path d="M0,0 L1,0 L1,1 L0,1 Z " fill="#41424D" transform="translate(29,12)"/>
<path d="M0,0 L1,0 L1,1 L0,1 Z " fill="#343440" opacity="0.84313726" transform="translate(14,12)"/>
<path d="M0,0 L1,0 L1,1 L0,1 Z " fill="#34343D" opacity="0.21176471" transform="translate(12,12)"/>
<path d="M0,0 L1,0 L1,1 L0,1 Z " fill="#343440" opacity="0.9607843" transform="translate(43,11)"/>
<path d="M0,0 L1,0 L1,1 L0,1 Z " fill="#AFB8C0" transform="translate(39,11)"/>
<path d="M0,0 L1,0 L1,1 L0,1 Z " fill="#B0B9C1" transform="translate(24,11)"/>
<path d="M0,0 L1,0 L1,1 L0,1 Z " fill="#343440" opacity="0.9607843" transform="translate(20,11)"/>
<path d="M0,0 L1,0 L1,1 L0,1 Z " fill="#71747F" transform="translate(34,10)"/>
<path d="M0,0 L1,0 L1,1 L0,1 Z " fill="#353541" transform="translate(30,10)"/>
<path d="M0,0 L1,0 L1,1 L0,1 Z " fill="#727680" transform="translate(29,10)"/>
<path d="M0,0 L1,0 L1,1 L0,1 Z " fill="#343440" opacity="0.73333335" transform="translate(43,9)"/>
<path d="M0,0 L1,0 L1,1 L0,1 Z " fill="#828790" transform="translate(39,9)"/>
<path d="M0,0 L1,0 L1,1 L0,1 Z " fill="#B8C0C8" transform="translate(34,9)"/>
<path d="M0,0 L1,0 L1,1 L0,1 Z " fill="#737681" transform="translate(33,9)"/>
<path d="M0,0 L1,0 L1,1 L0,1 Z " fill="#42424E" transform="translate(32,9)"/>
<path d="M0,0 L1,0 L1,1 L0,1 Z " fill="#747882" transform="translate(30,9)"/>
<path d="M0,0 L1,0 L1,1 L0,1 Z " fill="#848892" transform="translate(24,9)"/>
<path d="M0,0 L1,0 L1,1 L0,1 Z " fill="#343440" opacity="0.74509805" transform="translate(20,9)"/>
<path d="M0,0 L1,0 L1,1 L0,1 Z " fill="#4E4F5A" transform="translate(39,8)"/>
<path d="M0,0 L1,0 L1,1 L0,1 Z " fill="#BDC5CC" transform="translate(38,8)"/>
<path d="M0,0 L1,0 L1,1 L0,1 Z " fill="#4F505B" transform="translate(24,8)"/>
<path d="M0,0 L1,0 L1,1 L0,1 Z " fill="#313140" opacity="0.14117648" transform="translate(43,7)"/>
<path d="M0,0 L1,0 L1,1 L0,1 Z " fill="#343440" opacity="0.99607843" transform="translate(42,7)"/>
<path d="M0,0 L1,0 L1,1 L0,1 Z " fill="#868A93" transform="translate(38,7)"/>
<path d="M0,0 L1,0 L1,1 L0,1 Z " fill="#898D96" transform="translate(25,7)"/>
<path d="M0,0 L1,0 L1,1 L0,1 Z " fill="#343440" opacity="0.99607843" transform="translate(21,7)"/>
<path d="M0,0 L1,0 L1,1 L0,1 Z " fill="#313140" opacity="0.14117648" transform="translate(20,7)"/>
<path d="M0,0 L1,0 L1,1 L0,1 Z " fill="#9EA3AB" transform="translate(37,6)"/>
<path d="M0,0 L1,0 L1,1 L0,1 Z " fill="#C5CCD3" transform="translate(36,6)"/>
<path d="M0,0 L1,0 L1,1 L0,1 Z " fill="#9FA5AD" transform="translate(26,6)"/>
<path d="M0,0 L1,0 L1,1 L0,1 Z " fill="#383944" transform="translate(25,6)"/>
<path d="M0,0 L1,0 L1,1 L0,1 Z " fill="#313142" opacity="0.12156863" transform="translate(42,5)"/>
<path d="M0,0 L1,0 L1,1 L0,1 Z " fill="#343441" opacity="0.95686275" transform="translate(41,5)"/>
<path d="M0,0 L1,0 L1,1 L0,1 Z " fill="#8A8E97" transform="translate(36,5)"/>
<path d="M0,0 L1,0 L1,1 L0,1 Z " fill="#C6CCD3" transform="translate(35,5)"/>
<path d="M0,0 L1,0 L1,1 L0,1 Z " fill="#8C9099" transform="translate(27,5)"/>
<path d="M0,0 L1,0 L1,1 L0,1 Z " fill="#393945" transform="translate(26,5)"/>
<path d="M0,0 L1,0 L1,1 L0,1 Z " fill="#343440" opacity="0.9490196" transform="translate(22,5)"/>
<path d="M0,0 L1,0 L1,1 L0,1 Z " fill="#34343D" opacity="0.11372549" transform="translate(21,5)"/>
<path d="M0,0 L1,0 L1,1 L0,1 Z " fill="#343441" opacity="0.30588236" transform="translate(41,4)"/>
<path d="M0,0 L1,0 L1,1 L0,1 Z " fill="#50515C" transform="translate(35,4)"/>
<path d="M0,0 L1,0 L1,1 L0,1 Z " fill="#8C8F98" transform="translate(34,4)"/>
<path d="M0,0 L1,0 L1,1 L0,1 Z " fill="#B4B9C0" transform="translate(33,4)"/>
<path d="M0,0 L1,0 L1,1 L0,1 Z " fill="#8C9098" transform="translate(29,4)"/>
<path d="M0,0 L1,0 L1,1 L0,1 Z " fill="#51525D" transform="translate(28,4)"/>
<path d="M0,0 L1,0 L1,1 L0,1 Z " fill="#353540" opacity="0.28235295" transform="translate(22,4)"/>
<path d="M0,0 L1,0 L1,1 L0,1 Z " fill="#343440" opacity="0.41960785" transform="translate(40,3)"/>
<path d="M0,0 L1,0 L1,1 L0,1 Z " fill="#343441" opacity="0.38431373" transform="translate(23,3)"/>
<path d="M0,0 L1,0 L1,1 L0,1 Z " fill="#323240" opacity="0.29803923" transform="translate(39,2)"/>
<path d="M0,0 L1,0 L1,1 L0,1 Z " fill="#353540" opacity="0.28235295" transform="translate(24,2)"/>
<path d="M0,0 L1,0 L1,1 L0,1 Z " fill="#33333B" opacity="0.11764706" transform="translate(38,1)"/>
<path d="M0,0 L1,0 L1,1 L0,1 Z " fill="#343441" opacity="0.6313726" transform="translate(37,1)"/>
<path d="M0,0 L1,0 L1,1 L0,1 Z " fill="#343440" opacity="0.99607843" transform="translate(27,1)"/>
<path d="M0,0 L1,0 L1,1 L0,1 Z " fill="#34343D" opacity="0.11372549" transform="translate(25,1)"/>
<path d="M0,0 L1,0 L1,1 L0,1 Z " fill="#353540" opacity="0.4509804" transform="translate(35,0)"/>
<path d="M0,0 L1,0 L1,1 L0,1 Z " fill="#343441" opacity="0.7411765" transform="translate(34,0)"/>
<path d="M0,0 L1,0 L1,1 L0,1 Z " fill="#353540" opacity="0.87058824" transform="translate(33,0)"/>
<path d="M0,0 L1,0 L1,1 L0,1 Z " fill="#343440" opacity="0.74509805" transform="translate(29,0)"/>
<path d="M0,0 L1,0 L1,1 L0,1 Z " fill="#313140" opacity="0.14117648" transform="translate(27,0)"/>
</svg>
