<?xml version="1.0" encoding="UTF-8"?>
<!-- Generator: visioncortex VTracer 0.6.4 -->
<svg version="1.1" xmlns="http://www.w3.org/2000/svg" width="64" height="64">
<path d="M0,0 L9,0 L9,1 L11,1 L11,2 L18,2 L18,1 L20,1 L20,0 L29,0 L29,1 L31,1 L31,2 L33,2 L33,3 L34,3 L34,4 L35,4 L35,6 L36,6 L36,9 L37,9 L37,12 L38,12 L38,14 L39,14 L39,15 L40,15 L40,17 L41,17 L41,19 L44,19 L44,20 L46,20 L46,21 L47,21 L47,22 L48,22 L48,24 L49,24 L49,25 L50,25 L50,34 L49,34 L49,36 L48,36 L48,38 L47,38 L47,40 L46,40 L46,42 L47,42 L47,43 L48,43 L48,44 L49,44 L49,46 L50,46 L50,51 L49,51 L49,52 L48,52 L48,53 L46,53 L46,54 L39,54 L39,55 L-4,55 L-4,54 L-9,54 L-9,53 L-10,53 L-10,52 L-11,52 L-11,51 L-12,51 L-12,46 L-11,46 L-11,44 L-10,44 L-10,43 L-9,43 L-9,42 L-8,42 L-8,40 L-9,40 L-9,38 L-10,38 L-10,36 L-11,36 L-11,34 L-12,34 L-12,25 L-11,25 L-11,24 L-10,24 L-10,22 L-9,22 L-9,21 L-8,21 L-8,20 L-6,20 L-6,18 L-7,18 L-7,15 L-8,15 L-8,9 L-7,9 L-7,7 L-6,7 L-6,5 L-5,5 L-5,4 L-4,4 L-4,3 L-3,3 L-3,2 L-2,2 L-2,1 L0,1 Z " fill="#2CC987" transform="translate(13,9)"/>
<path d="M0,0 L9,0 L9,1 L11,1 L11,2 L18,2 L18,1 L20,1 L20,0 L29,0 L29,1 L31,1 L31,2 L33,2 L33,3 L34,3 L34,4 L35,4 L35,6 L36,6 L36,9 L37,9 L37,12 L38,12 L38,14 L39,14 L39,15 L40,15 L40,17 L41,17 L41,19 L44,19 L44,20 L46,20 L46,21 L47,21 L47,22 L48,22 L48,24 L49,24 L49,25 L50,25 L50,34 L49,34 L49,36 L48,36 L48,38 L47,38 L47,40 L46,40 L46,42 L47,42 L47,43 L48,43 L48,44 L49,44 L49,46 L50,46 L50,51 L49,51 L49,52 L48,52 L48,53 L46,53 L46,54 L39,54 L39,55 L-4,55 L-4,54 L-9,54 L-9,53 L-10,53 L-10,52 L-11,52 L-11,51 L-12,51 L-12,46 L-11,46 L-11,44 L-10,44 L-10,43 L-9,43 L-9,42 L-8,42 L-8,40 L-9,40 L-9,38 L-10,38 L-10,36 L-11,36 L-11,34 L-12,34 L-12,25 L-11,25 L-11,24 L-10,24 L-10,22 L-9,22 L-9,21 L-8,21 L-8,20 L-6,20 L-6,18 L-7,18 L-7,15 L-8,15 L-8,9 L-7,9 L-7,7 L-6,7 L-6,5 L-5,5 L-5,4 L-4,4 L-4,3 L-3,3 L-3,2 L-2,2 L-2,1 L0,1 Z M1,3 L1,4 L0,4 L0,5 L-1,5 L-1,6 L-2,6 L-2,7 L-3,7 L-3,8 L-4,8 L-4,16 L-3,16 L-3,22 L-4,22 L-4,23 L-6,23 L-6,24 L-7,24 L-7,25 L-8,25 L-8,26 L-9,26 L-9,32 L-8,32 L-8,34 L-7,34 L-7,36 L-6,36 L-6,38 L-5,38 L-5,41 L-4,41 L-4,44 L-6,44 L-6,45 L-7,45 L-7,46 L-8,46 L-8,47 L-9,47 L-9,49 L-8,49 L-8,50 L-7,50 L-7,51 L45,51 L45,50 L46,50 L46,49 L47,49 L47,47 L46,47 L46,46 L45,46 L45,45 L44,45 L44,44 L42,44 L42,41 L43,41 L43,38 L44,38 L44,36 L45,36 L45,34 L46,34 L46,32 L47,32 L47,27 L46,27 L46,25 L45,25 L45,24 L44,24 L44,23 L42,23 L42,22 L38,22 L38,19 L37,19 L37,17 L36,17 L36,15 L35,15 L35,14 L34,14 L34,9 L33,9 L33,7 L32,7 L32,6 L31,6 L31,5 L30,5 L30,4 L28,4 L28,3 L21,3 L21,4 L20,4 L20,5 L13,5 L13,6 L11,6 L11,5 L10,5 L10,4 L8,4 L8,3 Z " fill="#353541" transform="translate(13,9)"/>
<path d="M0,0 L12,0 L12,1 L15,1 L15,2 L17,2 L17,3 L18,3 L18,4 L19,4 L19,5 L21,5 L21,6 L22,6 L22,7 L23,7 L23,8 L24,8 L24,10 L25,10 L25,12 L26,12 L26,14 L27,14 L27,19 L26,19 L26,20 L25,20 L25,21 L24,21 L24,22 L23,22 L23,23 L21,23 L21,21 L20,21 L20,20 L19,20 L19,19 L14,19 L14,20 L13,20 L13,21 L12,21 L12,26 L4,26 L4,22 L3,22 L3,20 L1,20 L1,19 L-3,19 L-3,20 L-5,20 L-5,19 L-6,19 L-6,18 L-7,18 L-7,17 L-8,17 L-8,15 L-9,15 L-9,13 L-10,13 L-10,9 L-11,9 L-11,7 L-10,7 L-10,6 L-9,6 L-9,5 L-8,5 L-8,4 L-7,4 L-7,3 L-5,3 L-5,2 L-3,2 L-3,1 L0,1 Z " fill="#FFFFFF" transform="translate(20,31)"/>
<path d="M0,0 L4,0 L4,1 L6,1 L6,3 L7,3 L7,7 L15,7 L15,2 L16,2 L16,1 L17,1 L17,0 L22,0 L22,1 L23,1 L23,2 L24,2 L24,4 L25,4 L25,5 L24,5 L24,8 L23,8 L23,9 L22,9 L22,10 L0,10 L0,9 L-1,9 L-1,8 L-2,8 L-2,7 L-3,7 L-3,3 L-2,3 L-2,1 L0,1 Z " fill="#2CC987" transform="translate(17,50)"/>
<path d="M0,0 L1,0 L1,1 L0,1 Z M1,2 L2,2 L2,3 L1,3 Z M2,3 L3,3 L3,4 L2,4 Z M3,5 L4,5 L4,6 L3,6 Z M4,7 L5,7 L5,8 L4,8 Z M5,9 L6,9 L6,10 L5,10 Z M6,10 L7,10 L7,11 L6,11 Z " fill="#24B77E" transform="translate(50,47)"/>
<path d="M0,0 L1,0 L1,1 L0,1 Z M1,2 L2,2 L2,3 L1,3 Z M2,4 L3,4 L3,5 L2,5 Z M3,5 L4,5 L4,6 L3,6 Z M4,7 L5,7 L5,8 L4,8 Z M5,9 L6,9 L6,10 L5,10 Z " fill="#23B67E" transform="translate(50,48)"/>
<path d="M0,0 L2,0 L2,8 L3,8 L3,12 L4,12 L4,14 L5,14 L5,16 L6,16 L6,17 L7,17 L7,18 L8,18 L8,21 L7,21 L7,25 L8,25 L8,26 L9,26 L9,27 L10,27 L10,28 L-1,28 L-1,27 L-2,27 L-2,26 L-3,26 L-3,24 L-2,24 L-2,23 L-1,23 L-1,22 L0,22 L0,21 L2,21 L2,18 L1,18 L1,15 L0,15 L0,13 L-1,13 L-1,11 L-2,11 L-2,9 L-3,9 L-3,3 L-2,3 L-2,2 L-1,2 L-1,1 L0,1 Z " fill="#1AA074" transform="translate(7,32)"/>
<path d="M0,0 L4,0 L4,1 L6,1 L6,2 L7,2 L7,3 L8,3 L8,5 L9,5 L9,10 L8,10 L8,12 L7,12 L7,14 L6,14 L6,16 L5,16 L5,17 L4,17 L4,16 L3,16 L3,15 L1,15 L1,14 L-1,14 L-1,13 L0,13 Z " fill="#2AC585" transform="translate(51,31)"/>
<path d="M0,0 L1,0 L1,1 L0,1 Z M1,2 L2,2 L2,3 L1,3 Z M2,3 L3,3 L3,5 L2,5 Z M3,5 L4,5 L4,6 L3,6 Z " fill="#21B07B" transform="translate(48,52)"/>
<path d="M0,0 L1,0 L1,2 L0,2 Z M1,2 L2,2 L2,3 L1,3 Z M2,4 L3,4 L3,5 L2,5 Z M3,6 L4,6 L4,7 L3,7 Z M4,7 L5,7 L5,8 L4,8 Z " fill="#20AF7B" transform="translate(47,51)"/>
<path d="M0,0 L5,0 L5,1 L6,1 L6,2 L7,2 L7,4 L8,4 L8,5 L7,5 L7,8 L6,8 L6,9 L5,9 L5,10 L0,10 L0,9 L-1,9 L-1,8 L-7,8 L-7,7 L-2,7 L-2,2 L-1,2 L-1,1 L0,1 Z " fill="#2CC987" transform="translate(34,50)"/>
<path d="M0,0 L4,0 L4,1 L5,1 L5,2 L6,2 L6,3 L7,3 L7,6 L6,6 L6,8 L5,8 L5,9 L-1,9 L-1,8 L-2,8 L-2,2 L-1,2 L-1,1 L0,1 Z " fill="#353541" transform="translate(34,16)"/>
<path d="M0,0 L4,0 L4,1 L2,1 L2,2 L1,2 L1,4 L2,4 L2,5 L5,5 L5,7 L3,7 L3,8 L0,8 L0,7 L-1,7 L-1,6 L-2,6 L-2,2 L-1,2 L-1,1 L0,1 Z " fill="#353541" transform="translate(13,17)"/>
<path d="M0,0 L1,0 L1,1 L0,1 Z " fill="#343842" transform="translate(16,24)"/>
<path d="M0,0 L4,0 L4,1 L3,1 L3,2 L4,2 L4,3 L2,3 L2,4 L3,4 L3,5 L2,5 L2,9 L1,9 L1,2 L0,2 Z " fill="#2CC987" transform="translate(26,15)"/>
<path d="M0,0 L1,0 L1,1 L0,1 Z M-3,2 L-2,2 L-2,3 L-3,3 Z M-1,2 L0,2 L0,3 L-1,3 Z M-3,4 L-2,4 L-2,6 L-3,6 Z M-1,5 L0,5 L0,6 L-1,6 Z M-1,7 L0,7 L0,8 L-1,8 Z M-3,8 L-2,8 L-2,9 L-3,9 Z M-4,9 L-3,9 L-3,10 L-4,10 Z M-5,10 L-4,10 L-4,11 L-5,11 Z M-6,11 L-5,11 L-5,12 L-6,12 Z " fill="#2BC987" transform="translate(29,16)"/>
<path d="M0,0 L1,0 L1,2 L2,2 L2,3 L0,3 Z M5,1 L6,1 L6,2 L5,2 Z M3,5 L4,5 L4,6 L3,6 Z M1,7 L2,7 L2,8 L1,8 Z M3,7 L4,7 L4,8 L3,8 Z M-3,13 L-2,13 L-2,14 L-3,14 Z M-4,14 L-3,14 L-3,15 L-4,15 Z " fill="#2BC986" transform="translate(25,15)"/>
<path d="M0,0 L2,0 L2,1 L4,1 L4,2 L5,2 L5,3 L6,3 L6,5 L5,5 L5,8 L7,8 L7,9 L8,9 L8,10 L9,10 L9,11 L10,11 L10,13 L8,13 L8,12 L7,12 L7,11 L6,11 L6,10 L5,10 L5,9 L4,9 L4,8 L3,8 L3,5 L2,5 L2,4 L1,4 L1,3 L0,3 L0,2 L-1,2 L-1,1 L0,1 Z " fill="#25B97F" transform="translate(50,45)"/>
<path d="M0,0 L1,0 L1,2 L2,2 L2,4 L3,4 L3,6 L4,6 L4,7 L6,7 L6,8 L5,8 L5,10 L4,10 L4,11 L3,11 L3,10 L2,10 L2,9 L0,9 L0,8 L-2,8 L-2,7 L-1,7 L-1,3 L0,3 Z " fill="#28C083" transform="translate(52,37)"/>
<path d="M0,0 L2,0 L2,3 L1,3 L1,6 L2,6 L2,7 L3,7 L3,8 L-5,8 L-5,7 L-4,7 L-4,6 L-3,6 L-3,3 L-2,3 L-2,2 L-1,2 L-1,1 L0,1 Z " fill="#139167" transform="translate(44,52)"/>
<path d="M0,0 L4,0 L4,1 L10,1 L10,2 L11,2 L11,3 L-2,3 L-2,2 L-1,2 L-1,1 L0,1 Z " fill="#139167" transform="translate(23,57)"/>
<path d="M0,0 L1,0 L1,1 L0,1 Z M1,1 L2,1 L2,2 L1,2 Z M2,3 L3,3 L3,4 L2,4 Z " fill="#1FAC79" transform="translate(46,54)"/>
<path d="M0,0 L1,0 L1,1 L0,1 Z M1,2 L2,2 L2,3 L1,3 Z " fill="#1EAB79" transform="translate(46,55)"/>
<path d="M0,0 L1,0 L1,1 L2,1 L2,2 L3,2 L3,3 L4,3 L4,5 L5,5 L5,10 L6,10 L6,11 L4,11 L4,9 L3,9 L3,7 L2,7 L2,4 L1,4 L1,3 L0,3 Z " fill="#23B47D" transform="translate(48,48)"/>
<path d="M0,0 L1,0 L1,2 L2,2 L2,4 L3,4 L3,6 L4,6 L4,8 L5,8 L5,9 L6,9 L6,11 L7,11 L7,12 L5,12 L5,11 L4,11 L4,9 L3,9 L3,7 L2,7 L2,5 L1,5 L1,8 L0,8 Z " fill="#29C384" transform="translate(51,32)"/>
<path d="M0,0 L2,0 L2,1 L3,1 L3,2 L4,2 L4,4 L5,4 L5,9 L4,9 L4,7 L3,7 L3,6 L2,6 L2,4 L1,4 L1,2 L0,2 Z " fill="#2CC987" transform="translate(55,32)"/>
<path d="M0,0 L1,0 L1,1 L2,1 L2,3 L3,3 L3,2 L4,2 L4,3 L5,3 L5,2 L7,2 L7,3 L6,3 L6,5 L5,5 L5,6 L4,6 L4,5 L3,5 L3,4 L1,4 L1,3 L-1,3 L-1,2 L0,2 Z " fill="#27BF82" transform="translate(51,42)"/>
<path d="M0,0 L4,0 L4,1 L5,1 L5,4 L4,4 L4,3 L3,3 L3,4 L1,4 L1,3 L0,3 Z " fill="#5D5D67" transform="translate(36,18)"/>
<path d="M0,0 L1,0 L1,2 L3,2 L3,3 L4,3 L4,4 L5,4 L5,5 L6,5 L6,7 L4,7 L4,6 L3,6 L3,5 L2,5 L2,4 L1,4 L1,3 L0,3 Z " fill="#25B97F" transform="translate(54,51)"/>
<path d="M0,0 L1,0 L1,2 L0,2 Z M1,2 L2,2 L2,3 L1,3 Z M2,4 L3,4 L3,5 L2,5 Z M3,6 L4,6 L4,7 L3,7 Z M4,7 L5,7 L5,9 L4,9 Z " fill="#2BC886" transform="translate(54,32)"/>
<path d="M0,0 L1,0 L1,1 L0,1 Z M1,2 L2,2 L2,3 L1,3 Z M2,3 L3,3 L3,5 L2,5 Z M3,5 L4,5 L4,6 L3,6 Z M4,7 L5,7 L5,8 L4,8 Z M5,9 L6,9 L6,10 L5,10 Z " fill="#2BC786" transform="translate(53,32)"/>
<path d="M0,0 L4,0 L4,3 L3,3 L3,4 L0,4 Z " fill="#5D5D67" transform="translate(15,18)"/>
<path d="M0,0 L1,0 L1,2 L2,2 L2,3 L3,3 L3,4 L4,4 L4,5 L7,5 L7,6 L8,6 L8,7 L6,7 L6,6 L3,6 L3,5 L2,5 L2,4 L1,4 L1,3 L0,3 Z " fill="#2BC986" transform="translate(29,24)"/>
<path d="M0,0 L1,0 L1,1 L0,1 Z M1,2 L2,2 L2,3 L1,3 Z M2,3 L3,3 L3,4 L2,4 Z " fill="#24B77E" transform="translate(54,54)"/>
<path d="M0,0 L1,0 L1,1 L0,1 Z M1,2 L2,2 L2,3 L1,3 Z " fill="#23B67E" transform="translate(54,55)"/>
<path d="M0,0 L2,0 L2,1 L1,1 L1,2 L0,2 L0,3 L-1,3 L-1,4 L-2,4 L-2,9 L-3,9 L-3,3 L-2,3 L-2,2 L-1,2 L-1,1 L0,1 Z " fill="#1AA074" transform="translate(7,32)"/>
<path d="M0,0 L4,0 L4,1 L1,1 L1,2 L0,2 L0,3 L-1,3 L-1,4 L-2,4 L-2,7 L-3,7 L-3,3 L-2,3 L-2,2 L-1,2 L-1,1 L0,1 Z " fill="#353541" transform="translate(13,16)"/>
<path d="M0,0 L1,0 L1,1 L0,1 Z " fill="#343440" opacity="0.9137255" transform="translate(63,38)"/>
<path d="M0,0 L1,0 L1,1 L0,1 Z " fill="#343440" opacity="0.9490196" transform="translate(0,38)"/>
<path d="M0,0 L1,0 L1,1 L0,1 Z M1,1 L2,1 L2,3 L1,3 Z M2,3 L3,3 L3,4 L2,4 Z M3,5 L4,5 L4,6 L3,6 Z " fill="#20AE7A" transform="translate(47,53)"/>
<path d="M0,0 L1,0 L1,1 L0,1 Z M1,2 L2,2 L2,3 L1,3 Z M2,4 L3,4 L3,5 L2,5 Z " fill="#1FAD7A" transform="translate(47,54)"/>
<path d="M0,0 L2,0 L2,1 L3,1 L3,3 L2,3 L2,4 L1,4 L1,3 L0,3 L0,2 L-1,2 L-1,1 L0,1 Z M3,3 L4,3 L4,4 L3,4 Z " fill="#24B87F" transform="translate(50,45)"/>
<path d="M0,0 L2,0 L2,1 L1,1 L1,2 L0,2 L0,3 L-1,3 L-1,4 L-2,4 L-2,5 L-3,5 L-3,6 L-4,6 L-4,4 L-3,4 L-3,3 L-2,3 L-2,2 L-1,2 L-1,1 L0,1 Z " fill="#FFFFFF" transform="translate(13,34)"/>
<path d="M0,0 L1,0 L1,1 L0,1 Z " fill="#353540" opacity="0.9843137" transform="translate(37,8)"/>
<path d="M0,0 L1,0 L1,1 L0,1 Z " fill="#343440" opacity="0.98039216" transform="translate(17,8)"/>
<path d="M0,0 L2,0 L2,1 L1,1 L1,2 L0,2 L0,3 L-1,3 L-1,4 L-2,4 L-2,5 L-3,5 L-3,3 L-2,3 L-2,2 L-1,2 L-1,1 L0,1 Z " fill="#1AA074" transform="translate(7,53)"/>
<path d="M0,0 L1,0 L1,1 L0,1 Z M-1,1 L0,1 L0,2 L-1,2 Z M-2,2 L-1,2 L-1,3 L-2,3 Z M-3,3 L-2,3 L-2,4 L-3,4 Z " fill="#2BC987" transform="translate(26,24)"/>
<path d="M0,0 L1,0 L1,1 L0,1 Z M-1,1 L0,1 L0,2 L-1,2 Z " fill="#2BC986" transform="translate(22,28)"/>
<path d="M0,0 L7,0 L7,1 L6,1 L6,2 L4,2 L4,1 L0,1 Z " fill="#2CC987" transform="translate(26,14)"/>
<path d="M0,0 L1,0 L1,1 L0,1 Z " fill="#343441" opacity="0.9411765" transform="translate(53,63)"/>
<path d="M0,0 L2,0 L2,1 L1,1 L1,2 L0,2 L0,3 L-1,3 L-1,4 L-3,4 L-3,3 L-2,3 L-2,2 L-1,2 L-1,1 L0,1 Z " fill="#139167" transform="translate(44,52)"/>
<path d="M0,0 L1,0 L1,1 L2,1 L2,3 L3,3 L3,4 L1,4 L1,3 L-1,3 L-1,2 L0,2 Z " fill="#26BC81" transform="translate(51,42)"/>
<path d="M0,0 L1,0 L1,2 L0,2 Z " fill="#2BC886" transform="translate(51,35)"/>
<path d="M0,0 L1,0 L1,1 L0,1 Z M0,3 L1,3 L1,4 L0,4 Z " fill="#2AC886" transform="translate(51,34)"/>
<path d="M0,0 L1,0 L1,1 L0,1 Z " fill="#2AC786" transform="translate(51,33)"/>
<path d="M0,0 L2,0 L2,1 L3,1 L3,2 L4,2 L4,3 L2,3 L2,2 L-1,2 L-1,1 L0,1 Z " fill="#2CC987" transform="translate(33,30)"/>
<path d="M0,0 L8,0 L8,1 L0,1 Z " fill="#9AC0B3" transform="translate(21,30)"/>
<path d="M0,0 L1,0 L1,1 L0,1 Z " fill="#353540" opacity="0.7176471" transform="translate(0,57)"/>
<path d="M0,0 L2,0 L2,1 L3,1 L3,3 L1,3 L1,2 L0,2 Z " fill="#21B17C" transform="translate(47,51)"/>
<path d="M0,0 L2,0 L2,1 L1,1 L1,2 L0,2 L0,3 L-1,3 L-1,4 L-2,4 L-2,2 L-1,2 L-1,1 L0,1 Z " fill="#2CC987" transform="translate(34,50)"/>
<path d="M0,0 L1,0 L1,1 L2,1 L2,2 L3,2 L3,4 L1,4 L1,2 L0,2 Z " fill="#26BC81" transform="translate(53,46)"/>
<path d="M0,0 L1,0 L1,2 L2,2 L2,4 L3,4 L3,5 L1,5 L1,3 L0,3 Z " fill="#29C384" transform="translate(52,34)"/>
<path d="M0,0 L1,0 L1,1 L0,1 Z " fill="#353541" opacity="0.32156864" transform="translate(4,21)"/>
<path d="M0,0 L7,0 L7,1 L0,1 Z " fill="#2CC685" transform="translate(34,12)"/>
<path d="M0,0 L7,0 L7,1 L0,1 Z " fill="#2BC584" transform="translate(14,12)"/>
<path d="M0,0 L2,0 L2,1 L0,1 Z " fill="#343440" opacity="0.6509804" transform="translate(25,10)"/>
<path d="M0,0 L6,0 L6,1 L0,1 Z " fill="#22A978" transform="translate(52,59)"/>
<path d="M0,0 L1,0 L1,1 L0,1 Z " fill="#343441" opacity="0.64705884" transform="translate(63,57)"/>
<path d="M0,0 L1,0 L1,1 L2,1 L2,4 L1,4 L1,3 L0,3 Z " fill="#1EA978" transform="translate(45,55)"/>
<path d="M0,0 L2,0 L2,1 L1,1 L1,2 L0,2 L0,3 L-2,3 L-2,2 L-1,2 L-1,1 L0,1 Z " fill="#139167" transform="translate(23,57)"/>
<path d="M0,0 L1,0 L1,1 L0,1 Z M1,1 L2,1 L2,2 L1,2 Z M2,3 L3,3 L3,4 L2,4 Z " fill="#22B27C" transform="translate(51,55)"/>
<path d="M0,0 L1,0 L1,1 L0,1 Z M1,2 L2,2 L2,3 L1,3 Z " fill="#21B17C" transform="translate(51,56)"/>
<path d="M0,0 L1,0 L1,2 L3,2 L3,3 L2,3 L2,4 L1,4 L1,3 L0,3 Z " fill="#24B87F" transform="translate(54,51)"/>
<path d="M0,0 L1,0 L1,3 L0,3 L0,4 L-2,4 L-2,3 L-1,3 L-1,2 L0,2 Z " fill="#21B07B" transform="translate(47,48)"/>
<path d="M0,0 L1,0 L1,1 L2,1 L2,4 L1,4 L1,3 L0,3 Z " fill="#22B47D" transform="translate(48,48)"/>
<path d="M0,0 L1,0 L1,6 L0,6 Z " fill="#1A9C72" transform="translate(4,35)"/>
<path d="M0,0 L1,0 L1,1 L2,1 L2,2 L1,2 L1,3 L0,3 L0,4 L-1,4 L-1,2 L0,2 Z " fill="#2CC987" transform="translate(11,27)"/>
<path d="M0,0 L1,0 L1,1 L0,1 Z M-1,1 L0,1 L0,2 L-1,2 Z M-2,2 L-1,2 L-1,3 L-2,3 Z M-3,3 L-2,3 L-2,4 L-3,4 Z M-4,4 L-3,4 L-3,5 L-4,5 Z " fill="#353541" transform="translate(11,10)"/>
<path d="M0,0 L1,0 L1,1 L0,1 Z " fill="#343441" opacity="0.76862746" transform="translate(10,10)"/>
<path d="M0,0 L5,0 L5,1 L0,1 Z " fill="#1FAB78" transform="translate(47,59)"/>
<path d="M0,0 L5,0 L5,1 L0,1 Z " fill="#85C6B1" transform="translate(27,57)"/>
<path d="M0,0 L1,0 L1,1 L2,1 L2,2 L3,2 L3,3 L1,3 L1,2 L0,2 Z " fill="#20AE7A" transform="translate(46,52)"/>
<path d="M0,0 L1,0 L1,1 L0,1 Z " fill="#333341" opacity="0.050980393" transform="translate(3,49)"/>
<path d="M0,0 L1,0 L1,1 L2,1 L2,3 L1,3 L1,2 L0,2 Z M2,3 L3,3 L3,4 L2,4 Z " fill="#25BA80" transform="translate(51,45)"/>
<path d="M0,0 L1,0 L1,1 L0,1 Z M1,2 L2,2 L2,3 L1,3 Z " fill="#27BE82" transform="translate(52,41)"/>
<path d="M0,0 L1,0 L1,1 L0,1 Z " fill="#27BE81" transform="translate(52,42)"/>
<path d="M0,0 L1,0 L1,2 L2,2 L2,4 L1,4 L1,3 L0,3 Z " fill="#28C083" transform="translate(54,41)"/>
<path d="M0,0 L2,0 L2,2 L3,2 L3,3 L1,3 L1,1 L0,1 Z " fill="#2AC585" transform="translate(56,40)"/>
<path d="M0,0 L1,0 L1,1 L0,1 Z M1,1 L2,1 L2,3 L1,3 Z " fill="#2BC886" transform="translate(57,38)"/>
<path d="M0,0 L1,0 L1,1 L0,1 Z M1,2 L2,2 L2,3 L1,3 Z " fill="#2BC786" transform="translate(57,39)"/>
<path d="M0,0 L2,0 L2,1 L1,1 L1,2 L-2,2 L-2,1 L0,1 Z " fill="#2BC986" transform="translate(40,29)"/>
<path d="M0,0 L1,0 L1,2 L0,2 L0,3 L-2,3 L-2,2 L-1,2 L-1,1 L0,1 Z " fill="#2CC986" transform="translate(20,29)"/>
<path d="M0,0 L1,0 L1,1 L0,1 Z " fill="#343440" opacity="0.57254905" transform="translate(4,29)"/>
<path d="M0,0 L1,0 L1,1 L0,1 Z " fill="#343441" opacity="0.9411765" transform="translate(54,27)"/>
<path d="M0,0 L2,0 L2,1 L3,1 L3,2 L0,2 Z " fill="#2CC987" transform="translate(9,23)"/>
<path d="M0,0 L2,0 L2,1 L1,1 L1,2 L0,2 L0,3 L-1,3 L-1,1 L0,1 Z " fill="#353541" transform="translate(33,17)"/>
<path d="M0,0 L1,0 L1,1 L0,1 Z " fill="#353540" opacity="0.8509804" transform="translate(7,63)"/>
<path d="M0,0 L4,0 L4,1 L0,1 Z " fill="#28C081" transform="translate(17,59)"/>
<path d="M0,0 L1,0 L1,1 L2,1 L2,3 L1,3 L1,2 L0,2 Z " fill="#22B47D" transform="translate(53,56)"/>
<path d="M0,0 L1,0 L1,1 L0,1 Z M1,1 L2,1 L2,2 L3,2 L3,3 L1,3 Z " fill="#24B87F" transform="translate(56,56)"/>
<path d="M0,0 L1,0 L1,4 L0,4 Z " fill="#A4E8CC" transform="translate(31,53)"/>
<path d="M0,0 L1,0 L1,1 L0,1 Z " fill="#343440" opacity="0.5019608" transform="translate(62,53)"/>
<path d="M0,0 L1,0 L1,1 L2,1 L2,3 L1,3 L1,2 L0,2 Z " fill="#23B57E" transform="translate(49,47)"/>
<path d="M0,0 L2,0 L2,1 L1,1 L1,3 L0,3 Z " fill="#28C183" transform="translate(56,44)"/>
<path d="M0,0 L1,0 L1,1 L0,1 Z M-1,1 L0,1 L0,2 L-1,2 Z " fill="#26BB80" transform="translate(51,43)"/>
<path d="M0,0 L1,0 L1,1 L0,1 Z " fill="#25BB80" transform="translate(51,44)"/>
<path d="M0,0 L2,0 L2,3 L1,3 L1,1 L0,1 Z " fill="#2BC786" transform="translate(55,36)"/>
<path d="M0,0 L1,0 L1,1 L0,1 Z " fill="#353540" opacity="0.1882353" transform="translate(63,34)"/>
<path d="M0,0 L1,0 L1,4 L0,4 Z " fill="#29C485" transform="translate(9,31)"/>
<path d="M0,0 L1,0 L1,1 L0,1 Z " fill="#333340" opacity="0.23529412" transform="translate(0,34)"/>
<path d="M0,0 L4,0 L4,1 L0,1 Z " fill="#2BBB7F" transform="translate(51,31)"/>
<path d="M0,0 L1,0 L1,1 L0,1 Z " fill="#343441" opacity="0.64705884" transform="translate(60,30)"/>
<path d="M0,0 L4,0 L4,1 L0,1 Z " fill="#B0C7C1" transform="translate(21,30)"/>
<path d="M0,0 L2,0 L2,1 L3,1 L3,2 L1,2 L1,1 L0,1 Z " fill="#2BC986" transform="translate(34,29)"/>
<path d="M0,0 L2,0 L2,1 L1,1 L1,2 L-1,2 L-1,1 L0,1 Z " fill="#2BC987" transform="translate(43,27)"/>
<path d="M0,0 L1,0 L1,2 L2,2 L2,3 L0,3 Z " fill="#2BC986" transform="translate(29,24)"/>
<path d="M0,0 L1,0 L1,1 L0,1 Z " fill="#333341" opacity="0.27450982" transform="translate(53,24)"/>
<path d="M0,0 L1,0 L1,4 L0,4 Z " fill="#2CB57D" transform="translate(46,18)"/>
<path d="M0,0 L1,0 L1,4 L0,4 Z " fill="#307860" transform="translate(31,19)"/>
<path d="M0,0 L1,0 L1,4 L0,4 Z " fill="#326557" transform="translate(10,19)"/>
<path d="M0,0 L1,0 L1,4 L0,4 Z " fill="#2CC987" transform="translate(9,19)"/>
<path d="M0,0 L1,0 L1,4 L0,4 Z " fill="#316859" transform="translate(8,19)"/>
<path d="M0,0 L4,0 L4,1 L0,1 Z " fill="#315C53" transform="translate(34,16)"/>
<path d="M0,0 L4,0 L4,1 L0,1 Z " fill="#316A59" transform="translate(13,16)"/>
<path d="M0,0 L1,0 L1,1 L0,1 Z " fill="#343441" opacity="0.23137255" transform="translate(49,15)"/>
<path d="M0,0 L4,0 L4,1 L0,1 Z " fill="#2DA074" transform="translate(26,14)"/>
<path d="M0,0 L1,0 L1,1 L0,1 Z " fill="#343441" opacity="0.8156863" transform="translate(7,13)"/>
<path d="M0,0 L1,0 L1,1 L0,1 Z " fill="#343440" opacity="0.81960785" transform="translate(35,8)"/>
<path d="M0,0 L1,0 L1,1 L0,1 Z " fill="#343441" opacity="0.8" transform="translate(15,8)"/>
<path d="M0,0 L1,0 L1,1 L0,1 Z " fill="#353541" opacity="0.41568628" transform="translate(58,63)"/>
<path d="M0,0 L1,0 L1,1 L0,1 Z " fill="#343440" opacity="0.85490197" transform="translate(2,61)"/>
<path d="M0,0 L1,0 L1,1 L0,1 Z " fill="#199F71" transform="translate(45,56)"/>
<path d="M0,0 L1,0 L1,1 L0,1 Z " fill="#189E70" transform="translate(45,57)"/>
<path d="M0,0 L1,0 L1,3 L0,3 Z " fill="#23B47D" transform="translate(52,53)"/>
<path d="M0,0 L1,0 L1,3 L0,3 Z " fill="#49D098" transform="translate(23,53)"/>
<path d="M0,0 L1,0 L1,3 L0,3 Z " fill="#22B27C" transform="translate(50,52)"/>
<path d="M0,0 L1,0 L1,2 L0,2 Z M1,2 L2,2 L2,3 L1,3 Z " fill="#20AF7B" transform="translate(47,51)"/>
<path d="M0,0 L2,0 L2,1 L1,1 L1,2 L0,2 Z " fill="#2CC987" transform="translate(15,51)"/>
<path d="M0,0 L1,0 L1,1 L0,1 Z " fill="#333340" opacity="0.03529412" transform="translate(60,49)"/>
<path d="M0,0 L2,0 L2,1 L1,1 L1,2 L0,2 Z " fill="#27BF82" transform="translate(51,40)"/>
<path d="M0,0 L1,0 L1,1 L2,1 L2,2 L0,2 Z " fill="#29C384" transform="translate(54,39)"/>
<path d="M0,0 L1,0 L1,1 L2,1 L2,2 L0,2 Z " fill="#2AC585" transform="translate(55,38)"/>
<path d="M0,0 L1,0 L1,2 L0,2 Z M1,2 L2,2 L2,3 L1,3 Z " fill="#28C183" transform="translate(52,37)"/>
<path d="M0,0 L1,0 L1,3 L0,3 Z " fill="#2BC886" transform="translate(9,35)"/>
<path d="M0,0 L2,0 L2,2 L1,2 L1,1 L0,1 Z " fill="#2DC887" transform="translate(38,34)"/>
<path d="M0,0 L3,0 L3,1 L0,1 Z " fill="#2BC987" transform="translate(13,29)"/>
<path d="M0,0 L1,0 L1,1 L0,1 Z M-1,1 L0,1 L0,2 L-1,2 Z M-2,2 L-1,2 L-1,3 L-2,3 Z " fill="#353541" transform="translate(5,29)"/>
<path d="M0,0 L1,0 L1,1 L2,1 L2,2 L0,2 Z " fill="#2BC887" transform="translate(11,27)"/>
<path d="M0,0 L1,0 L1,1 L0,1 Z " fill="#343440" opacity="0.8980392" transform="translate(6,28)"/>
<path d="M0,0 L1,0 L1,3 L0,3 Z " fill="#30705C" transform="translate(10,26)"/>
<path d="M0,0 L3,0 L3,1 L0,1 Z " fill="#2F916C" transform="translate(13,25)"/>
<path d="M0,0 L1,0 L1,1 L0,1 Z M-1,1 L0,1 L0,3 L-1,3 Z " fill="#2BC986" transform="translate(46,24)"/>
<path d="M0,0 L1,0 L1,2 L-1,2 L-1,1 L0,1 Z " fill="#2BC785" transform="translate(18,23)"/>
<path d="M0,0 L3,0 L3,1 L0,1 Z " fill="#506E69" transform="translate(15,21)"/>
<path d="M0,0 L1,0 L1,3 L0,3 Z " fill="#2F8165" transform="translate(40,19)"/>
<path d="M0,0 L1,0 L1,3 L0,3 Z " fill="#2BC987" transform="translate(26,19)"/>
<path d="M0,0 L1,0 L1,3 L0,3 Z " fill="#456C64" transform="translate(39,18)"/>
<path d="M0,0 L2,0 L2,1 L1,1 L1,2 L0,2 Z " fill="#5D5D67" transform="translate(36,19)"/>
<path d="M0,0 L1,0 L1,3 L0,3 Z " fill="#3E5F5A" transform="translate(18,18)"/>
<path d="M0,0 L1,0 L1,1 L0,1 Z " fill="#34343C" opacity="0.13333334" transform="translate(50,18)"/>
<path d="M0,0 L3,0 L3,1 L0,1 Z " fill="#586669" transform="translate(36,18)"/>
<path d="M0,0 L3,0 L3,1 L0,1 Z " fill="#566969" transform="translate(15,18)"/>
<path d="M0,0 L1,0 L1,1 L0,1 Z " fill="#353540" opacity="0.9647059" transform="translate(44,10)"/>
<path d="M0,0 L1,0 L1,1 L0,1 Z " fill="#34343F" opacity="0.4745098" transform="translate(5,63)"/>
<path d="M0,0 L1,0 L1,1 L0,1 Z " fill="#353541" opacity="0.007843138" transform="translate(0,60)"/>
<path d="M0,0 L2,0 L2,1 L0,1 Z " fill="#1CA777" transform="translate(47,59)"/>
<path d="M0,0 L2,0 L2,1 L0,1 Z " fill="#1DAA75" transform="translate(37,59)"/>
<path d="M0,0 L2,0 L2,1 L0,1 Z " fill="#25BA7F" transform="translate(34,59)"/>
<path d="M0,0 L2,0 L2,1 L0,1 Z " fill="#1F8C6A" transform="translate(6,59)"/>
<path d="M0,0 L1,0 L1,2 L0,2 Z " fill="#1FAB79" transform="translate(48,57)"/>
<path d="M0,0 L1,0 L1,1 L0,1 Z M1,1 L2,1 L2,2 L1,2 Z " fill="#14956A" transform="translate(45,58)"/>
<path d="M0,0 L1,0 L1,2 L0,2 Z " fill="#2C7D62" transform="translate(59,56)"/>
<path d="M0,0 L1,0 L1,2 L0,2 Z " fill="#25BA80" transform="translate(58,56)"/>
<path d="M0,0 L1,0 L1,2 L0,2 Z " fill="#22B37D" transform="translate(53,56)"/>
<path d="M0,0 L2,0 L2,1 L0,1 Z " fill="#68B89D" transform="translate(27,57)"/>
<path d="M0,0 L1,0 L1,1 L0,1 Z M-1,1 L0,1 L0,2 L-1,2 Z " fill="#2AC786" transform="translate(22,57)"/>
<path d="M0,0 L1,0 L1,2 L0,2 Z " fill="#247660" transform="translate(4,56)"/>
<path d="M0,0 L1,0 L1,1 L0,1 Z M1,1 L2,1 L2,2 L1,2 Z " fill="#21B07B" transform="translate(50,56)"/>
<path d="M0,0 L2,0 L2,1 L0,1 Z " fill="#E9F5F1" transform="translate(24,56)"/>
<path d="M0,0 L1,0 L1,1 L0,1 Z " fill="#343441" opacity="0.4627451" transform="translate(63,55)"/>
<path d="M0,0 L1,0 L1,2 L0,2 Z " fill="#19A074" transform="translate(13,54)"/>
<path d="M0,0 L1,0 L1,1 L0,1 Z " fill="#353540" opacity="0.5294118" transform="translate(0,55)"/>
<path d="M0,0 L1,0 L1,2 L0,2 Z " fill="#22B37C" transform="translate(51,53)"/>
<path d="M0,0 L1,0 L1,2 L0,2 Z " fill="#16996D" transform="translate(45,53)"/>
<path d="M0,0 L1,0 L1,2 L0,2 Z " fill="#2AC886" transform="translate(14,53)"/>
<path d="M0,0 L1,0 L1,2 L0,2 Z " fill="#1FAC7A" transform="translate(46,52)"/>
<path d="M0,0 L2,0 L2,1 L0,1 Z " fill="#CBE7DD" transform="translate(41,53)"/>
<path d="M0,0 L1,0 L1,1 L0,1 Z " fill="#343440" opacity="0.57254905" transform="translate(1,53)"/>
<path d="M0,0 L1,0 L1,1 L0,1 Z " fill="#343441" opacity="0.8784314" transform="translate(61,52)"/>
<path d="M0,0 L2,0 L2,1 L0,1 Z " fill="#343942" transform="translate(55,52)"/>
<path d="M0,0 L1,0 L1,2 L0,2 Z " fill="#279B71" transform="translate(54,51)"/>
<path d="M0,0 L1,0 L1,2 L0,2 Z " fill="#1F8567" transform="translate(9,51)"/>
<path d="M0,0 L1,0 L1,2 L0,2 Z " fill="#22B47D" transform="translate(50,50)"/>
<path d="M0,0 L2,0 L2,1 L0,1 Z " fill="#1DA876" transform="translate(45,51)"/>
<path d="M0,0 L1,0 L1,1 L0,1 Z " fill="#353540" opacity="0.8509804" transform="translate(3,51)"/>
<path d="M0,0 L1,0 L1,1 L0,1 Z " fill="#343440" opacity="0.84313726" transform="translate(59,50)"/>
<path d="M0,0 L1,0 L1,2 L0,2 Z " fill="#21B27C" transform="translate(48,49)"/>
<path d="M0,0 L2,0 L2,1 L0,1 Z " fill="#3ACC8F" transform="translate(34,50)"/>
<path d="M0,0 L2,0 L2,1 L0,1 Z " fill="#2EC988" transform="translate(17,50)"/>
<path d="M0,0 L1,0 L1,2 L0,2 Z " fill="#49C093" transform="translate(47,48)"/>
<path d="M0,0 L2,0 L2,1 L0,1 Z " fill="#F8FEFB" transform="translate(18,49)"/>
<path d="M0,0 L1,0 L1,2 L0,2 Z " fill="#343E45" transform="translate(56,47)"/>
<path d="M0,0 L1,0 L1,2 L0,2 Z " fill="#23B57D" transform="translate(49,47)"/>
<path d="M0,0 L1,0 L1,2 L0,2 Z " fill="#323F45" transform="translate(7,47)"/>
<path d="M0,0 L1,0 L1,1 L0,1 Z " fill="#33333F" opacity="0.011764706" transform="translate(61,47)"/>
<path d="M0,0 L1,0 L1,2 L0,2 Z " fill="#27BE82" transform="translate(55,46)"/>
<path d="M0,0 L1,0 L1,1 L0,1 Z M1,1 L2,1 L2,2 L1,2 Z " fill="#25BA80" transform="translate(52,47)"/>
<path d="M0,0 L1,0 L1,1 L0,1 Z " fill="#353540" opacity="0.023529412" transform="translate(2,47)"/>
<path d="M0,0 L1,0 L1,2 L0,2 Z " fill="#343943" transform="translate(57,45)"/>
<path d="M0,0 L1,0 L1,2 L0,2 Z " fill="#D1F0E4" transform="translate(46,45)"/>
<path d="M0,0 L1,0 L1,2 L0,2 Z " fill="#333A43" transform="translate(6,45)"/>
<path d="M0,0 L1,0 L1,1 L0,1 Z " fill="#323241" opacity="0.003921569" transform="translate(62,45)"/>
<path d="M0,0 L1,0 L1,1 L0,1 Z " fill="#35353F" opacity="0.007843138" transform="translate(1,45)"/>
<path d="M0,0 L1,0 L1,2 L0,2 Z " fill="#343641" transform="translate(58,43)"/>
<path d="M0,0 L1,0 L1,2 L0,2 Z " fill="#28C083" transform="translate(55,43)"/>
<path d="M0,0 L1,0 L1,2 L0,2 Z " fill="#333742" transform="translate(5,43)"/>
<path d="M0,0 L1,0 L1,1 L0,1 Z " fill="#313141" opacity="0.18431373" transform="translate(63,42)"/>
<path d="M0,0 L1,0 L1,2 L0,2 Z " fill="#343541" transform="translate(59,41)"/>
<path d="M0,0 L1,0 L1,2 L0,2 Z " fill="#343541" transform="translate(4,41)"/>
<path d="M0,0 L1,0 L1,1 L0,1 Z " fill="#323240" opacity="0.21960784" transform="translate(0,42)"/>
<path d="M0,0 L1,0 L1,2 L0,2 Z " fill="#63BEA0" transform="translate(9,40)"/>
<path d="M0,0 L1,0 L1,2 L0,2 Z " fill="#BEE4D8" transform="translate(9,38)"/>
<path d="M0,0 L1,0 L1,2 L0,2 Z " fill="#2DB57D" transform="translate(59,36)"/>
<path d="M0,0 L1,0 L1,1 L0,1 Z " fill="#343440" opacity="0.7882353" transform="translate(63,36)"/>
<path d="M0,0 L1,0 L1,2 L0,2 Z " fill="#217F64" transform="translate(4,35)"/>
<path d="M0,0 L1,0 L1,1 L0,1 Z " fill="#353541" opacity="0.83137256" transform="translate(0,36)"/>
<path d="M0,0 L1,0 L1,1 L0,1 Z " fill="#343440" opacity="0.7647059" transform="translate(62,33)"/>
<path d="M0,0 L1,0 L1,1 L0,1 Z " fill="#343440" opacity="0.79607844" transform="translate(1,33)"/>
<path d="M0,0 L2,0 L2,1 L0,1 Z " fill="#2BC886" transform="translate(53,32)"/>
<path d="M0,0 L2,0 L2,1 L0,1 Z " fill="#2FC788" transform="translate(35,32)"/>
<path d="M0,0 L1,0 L1,2 L0,2 Z " fill="#25BD80" transform="translate(9,31)"/>
<path d="M0,0 L2,0 L2,1 L0,1 Z " fill="#343842" transform="translate(55,31)"/>
<path d="M0,0 L2,0 L2,1 L0,1 Z " fill="#78BAA1" transform="translate(32,31)"/>
<path d="M0,0 L2,0 L2,1 L0,1 Z " fill="#C3D1CD" transform="translate(18,31)"/>
<path d="M0,0 L1,0 L1,1 L0,1 Z " fill="#343440" opacity="0.5137255" transform="translate(2,31)"/>
<path d="M0,0 L2,0 L2,1 L0,1 Z " fill="#2BC887" transform="translate(38,30)"/>
<path d="M0,0 L2,0 L2,1 L0,1 Z " fill="#64BA98" transform="translate(29,30)"/>
<path d="M0,0 L2,0 L2,1 L0,1 Z " fill="#C2D0CC" transform="translate(25,30)"/>
<path d="M0,0 L2,0 L2,1 L0,1 Z " fill="#89BCA9" transform="translate(21,30)"/>
<path d="M0,0 L1,0 L1,2 L0,2 Z " fill="#2BBD81" transform="translate(50,28)"/>
<path d="M0,0 L2,0 L2,1 L0,1 Z " fill="#2BC887" transform="translate(30,27)"/>
<path d="M0,0 L1,0 L1,2 L0,2 Z " fill="#343541" transform="translate(9,25)"/>
<path d="M0,0 L2,0 L2,1 L0,1 Z " fill="#2E9F73" transform="translate(35,25)"/>
<path d="M0,0 L1,0 L1,1 L0,1 Z " fill="#2E2E3A" opacity="0.003921569" transform="translate(4,24)"/>
<path d="M0,0 L1,0 L1,1 L0,1 Z " fill="#343441" opacity="0.8" transform="translate(52,23)"/>
<path d="M0,0 L1,0 L1,2 L0,2 Z " fill="#2CC986" transform="translate(26,22)"/>
<path d="M0,0 L1,0 L1,2 L0,2 Z " fill="#343541" transform="translate(39,21)"/>
<path d="M0,0 L1,0 L1,2 L0,2 Z " fill="#343943" transform="translate(18,21)"/>
<path d="M0,0 L1,0 L1,1 L0,1 Z " fill="#343440" opacity="0.48235294" transform="translate(51,21)"/>
<path d="M0,0 L2,0 L2,1 L0,1 Z " fill="#446B63" transform="translate(37,21)"/>
<path d="M0,0 L1,0 L1,2 L0,2 Z " fill="#2EA174" transform="translate(19,20)"/>
<path d="M0,0 L1,0 L1,2 L0,2 Z " fill="#37444A" transform="translate(14,19)"/>
<path d="M0,0 L1,0 L1,2 L0,2 Z " fill="#2E926D" transform="translate(46,18)"/>
<path d="M0,0 L1,0 L1,1 L0,1 Z " fill="#34343D" opacity="0.21176471" transform="translate(4,19)"/>
<path d="M0,0 L1,0 L1,2 L0,2 Z " fill="#2CC284" transform="translate(9,17)"/>
<path d="M0,0 L1,0 L1,1 L0,1 Z " fill="#343440" opacity="0.8980392" transform="translate(49,17)"/>
<path d="M0,0 L1,0 L1,2 L0,2 Z " fill="#2CC284" transform="translate(45,16)"/>
<path d="M0,0 L1,0 L1,1 L0,1 Z " fill="#353540" opacity="0.50980395" transform="translate(5,16)"/>
<path d="M0,0 L1,0 L1,1 L0,1 Z " fill="#343440" opacity="0.8039216" transform="translate(48,14)"/>
<path d="M0,0 L2,0 L2,1 L0,1 Z " fill="#2BB57E" transform="translate(30,14)"/>
<path d="M0,0 L2,0 L2,1 L0,1 Z " fill="#2F8466" transform="translate(26,14)"/>
<path d="M0,0 L1,0 L1,1 L0,1 Z M-1,1 L0,1 L0,2 L-1,2 Z " fill="#2CC987" transform="translate(12,14)"/>
<path d="M0,0 L1,0 L1,1 L0,1 Z " fill="#353540" opacity="0.54901963" transform="translate(47,12)"/>
<path d="M0,0 L2,0 L2,1 L0,1 Z " fill="#2EA174" transform="translate(34,12)"/>
<path d="M0,0 L2,0 L2,1 L0,1 Z " fill="#2E9F73" transform="translate(14,12)"/>
<path d="M0,0 L1,0 L1,1 L0,1 Z " fill="#343441" opacity="0.8784314" transform="translate(9,11)"/>
<path d="M0,0 L1,0 L1,1 L0,1 Z " fill="#343440" opacity="0.73333335" transform="translate(29,10)"/>
<path d="M0,0 L1,0 L1,1 L0,1 Z " fill="#343440" opacity="0.96862745" transform="translate(24,10)"/>
<path d="M0,0 L1,0 L1,1 L0,1 Z " fill="#34343F" opacity="0.44313726" transform="translate(31,9)"/>
<path d="M0,0 L1,0 L1,1 L0,1 Z " fill="#353540" opacity="0.35686275" transform="translate(11,9)"/>
<path d="M0,0 L1,0 L1,1 L0,1 Z " fill="#31313B" opacity="0.101960786" transform="translate(42,8)"/>
<path d="M0,0 L1,0 L1,1 L0,1 Z " fill="#333340" opacity="0.32941177" transform="translate(33,8)"/>
<path d="M0,0 L1,0 L1,1 L0,1 Z " fill="#33333B" opacity="0.11764706" transform="translate(22,8)"/>
<path d="M0,0 L1,0 L1,1 L0,1 Z " fill="#343440" opacity="0.26666668" transform="translate(13,8)"/>
<path d="M0,0 L1,0 L1,1 L0,1 Z " fill="#34343C" opacity="0.13333334" transform="translate(59,63)"/>
<path d="M0,0 L1,0 L1,1 L0,1 Z " fill="#353540" opacity="0.6039216" transform="translate(57,63)"/>
<path d="M0,0 L1,0 L1,1 L0,1 Z " fill="#343440" opacity="0.7882353" transform="translate(56,63)"/>
<path d="M0,0 L1,0 L1,1 L0,1 Z " fill="#343440" opacity="0.93333334" transform="translate(55,63)"/>
<path d="M0,0 L1,0 L1,1 L0,1 Z " fill="#343441" opacity="0.9411765" transform="translate(54,63)"/>
<path d="M0,0 L1,0 L1,1 L0,1 Z " fill="#343440" opacity="0.9607843" transform="translate(52,63)"/>
<path d="M0,0 L1,0 L1,1 L0,1 Z " fill="#343440" opacity="0.99607843" transform="translate(8,63)"/>
<path d="M0,0 L1,0 L1,1 L0,1 Z " fill="#353541" opacity="0.6627451" transform="translate(6,63)"/>
<path d="M0,0 L1,0 L1,1 L0,1 Z " fill="#33333D" opacity="0.19607843" transform="translate(4,63)"/>
<path d="M0,0 L1,0 L1,1 L0,1 Z " fill="#343440" opacity="0.043137256" transform="translate(61,62)"/>
<path d="M0,0 L1,0 L1,1 L0,1 Z " fill="#343440" opacity="0.60784316" transform="translate(60,62)"/>
<path d="M0,0 L1,0 L1,1 L0,1 Z " fill="#343440" opacity="0.99215686" transform="translate(59,62)"/>
<path d="M0,0 L1,0 L1,1 L0,1 Z " fill="#353540" opacity="0.69803923" transform="translate(3,62)"/>
<path d="M0,0 L1,0 L1,1 L0,1 Z " fill="#30303C" opacity="0.08235294" transform="translate(2,62)"/>
<path d="M0,0 L1,0 L1,1 L0,1 Z " fill="#343441" opacity="0.0627451" transform="translate(62,61)"/>
<path d="M0,0 L1,0 L1,1 L0,1 Z " fill="#343440" opacity="0.7882353" transform="translate(61,61)"/>
<path d="M0,0 L1,0 L1,1 L0,1 Z " fill="#2F2F42" opacity="0.105882354" transform="translate(1,61)"/>
<path d="M0,0 L1,0 L1,1 L0,1 Z " fill="#343441" opacity="0.70980394" transform="translate(62,60)"/>
<path d="M0,0 L1,0 L1,1 L0,1 Z " fill="#343441" opacity="0.8" transform="translate(1,60)"/>
<path d="M0,0 L1,0 L1,1 L0,1 Z " fill="#32323E" opacity="0.23921569" transform="translate(63,59)"/>
<path d="M0,0 L1,0 L1,1 L0,1 Z " fill="#334146" transform="translate(58,59)"/>
<path d="M0,0 L1,0 L1,1 L0,1 Z " fill="#2C7960" transform="translate(57,59)"/>
<path d="M0,0 L1,0 L1,1 L0,1 Z " fill="#27956E" transform="translate(56,59)"/>
<path d="M0,0 L1,0 L1,1 L0,1 Z " fill="#24A877" transform="translate(55,59)"/>
<path d="M0,0 L1,0 L1,1 L0,1 Z " fill="#23AB78" transform="translate(54,59)"/>
<path d="M0,0 L1,0 L1,1 L0,1 Z " fill="#22A877" transform="translate(52,59)"/>
<path d="M0,0 L1,0 L1,1 L0,1 Z " fill="#1FAB78" transform="translate(51,59)"/>
<path d="M0,0 L1,0 L1,1 L0,1 Z " fill="#1EAA77" transform="translate(49,59)"/>
<path d="M0,0 L1,0 L1,1 L0,1 Z " fill="#1AA072" transform="translate(47,59)"/>
<path d="M0,0 L1,0 L1,1 L0,1 Z " fill="#129167" transform="translate(39,59)"/>
<path d="M0,0 L1,0 L1,1 L0,1 Z " fill="#24BA7E" transform="translate(37,59)"/>
<path d="M0,0 L1,0 L1,1 L0,1 Z " fill="#29C283" transform="translate(36,59)"/>
<path d="M0,0 L1,0 L1,1 L0,1 Z " fill="#1EAC76" transform="translate(34,59)"/>
<path d="M0,0 L1,0 L1,1 L0,1 Z " fill="#139368" transform="translate(33,59)"/>
<path d="M0,0 L1,0 L1,1 L0,1 Z " fill="#169B6C" transform="translate(21,59)"/>
<path d="M0,0 L1,0 L1,1 L0,1 Z " fill="#22B57C" transform="translate(20,59)"/>
<path d="M0,0 L1,0 L1,1 L0,1 Z " fill="#28C081" transform="translate(19,59)"/>
<path d="M0,0 L1,0 L1,1 L0,1 Z " fill="#22B77C" transform="translate(17,59)"/>
<path d="M0,0 L1,0 L1,1 L0,1 Z " fill="#1BA473" transform="translate(16,59)"/>
<path d="M0,0 L1,0 L1,1 L0,1 Z " fill="#199E73" transform="translate(15,59)"/>
<path d="M0,0 L1,0 L1,1 L0,1 Z " fill="#1A9D72" transform="translate(8,59)"/>
<path d="M0,0 L1,0 L1,1 L0,1 Z " fill="#24745F" transform="translate(6,59)"/>
<path d="M0,0 L1,0 L1,1 L0,1 Z " fill="#304447" transform="translate(5,59)"/>
<path d="M0,0 L1,0 L1,1 L0,1 Z " fill="#353541" opacity="0.32156864" transform="translate(0,59)"/>
<path d="M0,0 L1,0 L1,1 L0,1 Z " fill="#353540" opacity="0.50980395" transform="translate(63,58)"/>
<path d="M0,0 L1,0 L1,1 L0,1 Z " fill="#324649" transform="translate(59,58)"/>
<path d="M0,0 L1,0 L1,1 L0,1 Z " fill="#25B17B" transform="translate(58,58)"/>
<path d="M0,0 L1,0 L1,1 L0,1 Z " fill="#24B67E" transform="translate(56,58)"/>
<path d="M0,0 L1,0 L1,1 L0,1 Z " fill="#23B57D" transform="translate(55,58)"/>
<path d="M0,0 L1,0 L1,1 L0,1 Z " fill="#22B27C" transform="translate(53,58)"/>
<path d="M0,0 L1,0 L1,1 L0,1 Z " fill="#20AE7A" transform="translate(50,58)"/>
<path d="M0,0 L1,0 L1,1 L0,1 Z " fill="#1EAA78" transform="translate(47,58)"/>
<path d="M0,0 L1,0 L1,1 L0,1 Z " fill="#1CA777" transform="translate(46,58)"/>
<path d="M0,0 L1,0 L1,1 L0,1 Z " fill="#149569" transform="translate(40,58)"/>
<path d="M0,0 L1,0 L1,1 L0,1 Z " fill="#26BC7F" transform="translate(39,58)"/>
<path d="M0,0 L1,0 L1,1 L0,1 Z " fill="#27BF81" transform="translate(33,58)"/>
<path d="M0,0 L1,0 L1,1 L0,1 Z " fill="#15986A" transform="translate(32,58)"/>
<path d="M0,0 L1,0 L1,1 L0,1 Z " fill="#1BA672" transform="translate(22,58)"/>
<path d="M0,0 L1,0 L1,1 L0,1 Z " fill="#2BC886" transform="translate(16,58)"/>
<path d="M0,0 L1,0 L1,1 L0,1 Z " fill="#22B27C" transform="translate(15,58)"/>
<path d="M0,0 L1,0 L1,1 L0,1 Z " fill="#1A9D72" transform="translate(5,58)"/>
<path d="M0,0 L1,0 L1,1 L0,1 Z " fill="#2F494A" transform="translate(4,58)"/>
<path d="M0,0 L1,0 L1,1 L0,1 Z " fill="#353541" opacity="0.58431375" transform="translate(0,58)"/>
<path d="M0,0 L1,0 L1,1 L0,1 Z " fill="#23B67E" transform="translate(55,57)"/>
<path d="M0,0 L1,0 L1,1 L0,1 Z " fill="#23B47D" transform="translate(54,57)"/>
<path d="M0,0 L1,0 L1,1 L0,1 Z " fill="#21B27C" transform="translate(52,57)"/>
<path d="M0,0 L1,0 L1,1 L0,1 Z " fill="#20AD7A" transform="translate(49,57)"/>
<path d="M0,0 L1,0 L1,1 L0,1 Z " fill="#1FAC79" transform="translate(48,57)"/>
<path d="M0,0 L1,0 L1,1 L0,1 Z " fill="#22B47B" transform="translate(40,57)"/>
<path d="M0,0 L1,0 L1,1 L0,1 Z " fill="#3CC48C" transform="translate(32,57)"/>
<path d="M0,0 L1,0 L1,1 L0,1 Z " fill="#76C0A8" transform="translate(31,57)"/>
<path d="M0,0 L1,0 L1,1 L0,1 Z " fill="#78C0A8" transform="translate(29,57)"/>
<path d="M0,0 L1,0 L1,1 L0,1 Z " fill="#57B193" transform="translate(27,57)"/>
<path d="M0,0 L1,0 L1,1 L0,1 Z " fill="#2E9E78" transform="translate(26,57)"/>
<path d="M0,0 L1,0 L1,1 L0,1 Z " fill="#169A6C" transform="translate(23,57)"/>
<path d="M0,0 L1,0 L1,1 L0,1 Z " fill="#1EAA79" transform="translate(14,57)"/>
<path d="M0,0 L1,0 L1,1 L0,1 Z " fill="#343440" opacity="0.59607846" transform="translate(63,56)"/>
<path d="M0,0 L1,0 L1,1 L0,1 Z " fill="#2C7D63" transform="translate(59,56)"/>
<path d="M0,0 L1,0 L1,1 L0,1 Z " fill="#25BB80" transform="translate(58,56)"/>
<path d="M0,0 L1,0 L1,1 L0,1 Z " fill="#23B57E" transform="translate(54,56)"/>
<path d="M0,0 L1,0 L1,1 L0,1 Z " fill="#22B47D" transform="translate(53,56)"/>
<path d="M0,0 L1,0 L1,1 L0,1 Z " fill="#21B17C" transform="translate(51,56)"/>
<path d="M0,0 L1,0 L1,1 L0,1 Z " fill="#1FAD7A" transform="translate(48,56)"/>
<path d="M0,0 L1,0 L1,1 L0,1 Z " fill="#1FAB79" transform="translate(47,56)"/>
<path d="M0,0 L1,0 L1,1 L0,1 Z " fill="#1EAA78" transform="translate(46,56)"/>
<path d="M0,0 L1,0 L1,1 L0,1 Z " fill="#16996A" transform="translate(41,56)"/>
<path d="M0,0 L1,0 L1,1 L0,1 Z " fill="#D1F3E5" transform="translate(31,56)"/>
<path d="M0,0 L1,0 L1,1 L0,1 Z " fill="#B6DDD0" transform="translate(24,56)"/>
<path d="M0,0 L1,0 L1,1 L0,1 Z " fill="#44C390" transform="translate(23,56)"/>
<path d="M0,0 L1,0 L1,1 L0,1 Z " fill="#27BF82" transform="translate(14,56)"/>
<path d="M0,0 L1,0 L1,1 L0,1 Z " fill="#24755F" transform="translate(4,56)"/>
<path d="M0,0 L1,0 L1,1 L0,1 Z " fill="#353541" opacity="0.6627451" transform="translate(0,56)"/>
<path d="M0,0 L1,0 L1,1 L0,1 Z " fill="#334448" transform="translate(59,55)"/>
<path d="M0,0 L1,0 L1,1 L0,1 Z " fill="#26B77D" transform="translate(58,55)"/>
<path d="M0,0 L1,0 L1,1 L0,1 Z " fill="#25BA80" transform="translate(57,55)"/>
<path d="M0,0 L1,0 L1,1 L0,1 Z " fill="#24B77F" transform="translate(55,55)"/>
<path d="M0,0 L1,0 L1,1 L0,1 Z " fill="#23B57D" transform="translate(53,55)"/>
<path d="M0,0 L1,0 L1,1 L0,1 Z " fill="#22B37D" transform="translate(52,55)"/>
<path d="M0,0 L1,0 L1,1 L0,1 Z " fill="#20AF7B" transform="translate(49,55)"/>
<path d="M0,0 L1,0 L1,1 L0,1 Z " fill="#1EAB79" transform="translate(46,55)"/>
<path d="M0,0 L1,0 L1,1 L0,1 Z " fill="#189D70" transform="translate(45,55)"/>
<path d="M0,0 L1,0 L1,1 L0,1 Z " fill="#1AA371" transform="translate(41,55)"/>
<path d="M0,0 L1,0 L1,1 L0,1 Z " fill="#A9E9CE" transform="translate(31,55)"/>
<path d="M0,0 L1,0 L1,1 L0,1 Z " fill="#4FD29B" transform="translate(23,55)"/>
<path d="M0,0 L1,0 L1,1 L0,1 Z " fill="#2BC786" transform="translate(14,55)"/>
<path d="M0,0 L1,0 L1,1 L0,1 Z " fill="#1A9E73" transform="translate(5,55)"/>
<path d="M0,0 L1,0 L1,1 L0,1 Z " fill="#304548" transform="translate(4,55)"/>
<path d="M0,0 L1,0 L1,1 L0,1 Z " fill="#31313B" opacity="0.101960786" transform="translate(63,54)"/>
<path d="M0,0 L1,0 L1,1 L0,1 Z " fill="#343440" opacity="0.9607843" transform="translate(62,54)"/>
<path d="M0,0 L1,0 L1,1 L0,1 Z " fill="#306055" transform="translate(58,54)"/>
<path d="M0,0 L1,0 L1,1 L0,1 Z " fill="#26B87F" transform="translate(57,54)"/>
<path d="M0,0 L1,0 L1,1 L0,1 Z " fill="#25B980" transform="translate(56,54)"/>
<path d="M0,0 L1,0 L1,1 L0,1 Z " fill="#24B77E" transform="translate(54,54)"/>
<path d="M0,0 L1,0 L1,1 L0,1 Z " fill="#23B57E" transform="translate(53,54)"/>
<path d="M0,0 L1,0 L1,1 L0,1 Z " fill="#21B17C" transform="translate(50,54)"/>
<path d="M0,0 L1,0 L1,1 L0,1 Z " fill="#1FAD7A" transform="translate(47,54)"/>
<path d="M0,0 L1,0 L1,1 L0,1 Z " fill="#169269" transform="translate(42,54)"/>
<path d="M0,0 L1,0 L1,1 L0,1 Z " fill="#62C6A0" transform="translate(41,54)"/>
<path d="M0,0 L1,0 L1,1 L0,1 Z " fill="#199E73" transform="translate(6,54)"/>
<path d="M0,0 L1,0 L1,1 L0,1 Z " fill="#2B5A53" transform="translate(5,54)"/>
<path d="M0,0 L1,0 L1,1 L0,1 Z " fill="#343441" opacity="0.9882353" transform="translate(1,54)"/>
<path d="M0,0 L1,0 L1,1 L0,1 Z " fill="#333340" opacity="0.15686275" transform="translate(0,54)"/>
<path d="M0,0 L1,0 L1,1 L0,1 Z " fill="#315751" transform="translate(57,53)"/>
<path d="M0,0 L1,0 L1,1 L0,1 Z " fill="#27A676" transform="translate(56,53)"/>
<path d="M0,0 L1,0 L1,1 L0,1 Z " fill="#25B97F" transform="translate(55,53)"/>
<path d="M0,0 L1,0 L1,1 L0,1 Z " fill="#23B57D" transform="translate(52,53)"/>
<path d="M0,0 L1,0 L1,1 L0,1 Z " fill="#22B37D" transform="translate(51,53)"/>
<path d="M0,0 L1,0 L1,1 L0,1 Z " fill="#21B17B" transform="translate(49,53)"/>
<path d="M0,0 L1,0 L1,1 L0,1 Z " fill="#15956A" transform="translate(45,53)"/>
<path d="M0,0 L1,0 L1,1 L0,1 Z " fill="#34A07C" transform="translate(43,53)"/>
<path d="M0,0 L1,0 L1,1 L0,1 Z " fill="#DBF6EB" transform="translate(41,53)"/>
<path d="M0,0 L1,0 L1,1 L0,1 Z " fill="#CAF2E1" transform="translate(31,53)"/>
<path d="M0,0 L1,0 L1,1 L0,1 Z " fill="#71DBAE" transform="translate(23,53)"/>
<path d="M0,0 L1,0 L1,1 L0,1 Z " fill="#28C083" transform="translate(14,53)"/>
<path d="M0,0 L1,0 L1,1 L0,1 Z " fill="#1D8F6B" transform="translate(7,53)"/>
<path d="M0,0 L1,0 L1,1 L0,1 Z " fill="#2D4F4D" transform="translate(6,53)"/>
<path d="M0,0 L1,0 L1,1 L0,1 Z " fill="#343441" opacity="0.047058824" transform="translate(62,52)"/>
<path d="M0,0 L1,0 L1,1 L0,1 Z " fill="#2F6357" transform="translate(55,52)"/>
<path d="M0,0 L1,0 L1,1 L0,1 Z " fill="#24B77E" transform="translate(53,52)"/>
<path d="M0,0 L1,0 L1,1 L0,1 Z " fill="#22B37C" transform="translate(50,52)"/>
<path d="M0,0 L1,0 L1,1 L0,1 Z " fill="#21B07B" transform="translate(48,52)"/>
<path d="M0,0 L1,0 L1,1 L0,1 Z " fill="#1FAC79" transform="translate(46,52)"/>
<path d="M0,0 L1,0 L1,1 L0,1 Z " fill="#50AD8E" transform="translate(44,52)"/>
<path d="M0,0 L1,0 L1,1 L0,1 Z " fill="#F2F9F7" transform="translate(43,52)"/>
<path d="M0,0 L1,0 L1,1 L0,1 Z " fill="#FDFFFE" transform="translate(41,52)"/>
<path d="M0,0 L1,0 L1,1 L0,1 Z " fill="#60D6A4" transform="translate(40,52)"/>
<path d="M0,0 L1,0 L1,1 L0,1 Z " fill="#50D29B" transform="translate(32,52)"/>
<path d="M0,0 L1,0 L1,1 L0,1 Z " fill="#FAFEFC" transform="translate(31,52)"/>
<path d="M0,0 L1,0 L1,1 L0,1 Z " fill="#C7F1DF" transform="translate(23,52)"/>
<path d="M0,0 L1,0 L1,1 L0,1 Z " fill="#20AF7B" transform="translate(14,52)"/>
<path d="M0,0 L1,0 L1,1 L0,1 Z " fill="#2C5650" transform="translate(8,52)"/>
<path d="M0,0 L1,0 L1,1 L0,1 Z " fill="#333641" transform="translate(7,52)"/>
<path d="M0,0 L1,0 L1,1 L0,1 Z " fill="#353540" opacity="0.90588236" transform="translate(2,52)"/>
<path d="M0,0 L1,0 L1,1 L0,1 Z " fill="#353540" opacity="0.07450981" transform="translate(1,52)"/>
<path d="M0,0 L1,0 L1,1 L0,1 Z " fill="#33333B" opacity="0.11764706" transform="translate(61,51)"/>
<path d="M0,0 L1,0 L1,1 L0,1 Z " fill="#343441" opacity="0.84705883" transform="translate(60,51)"/>
<path d="M0,0 L1,0 L1,1 L0,1 Z " fill="#2B8667" transform="translate(54,51)"/>
<path d="M0,0 L1,0 L1,1 L0,1 Z " fill="#24B87F" transform="translate(53,51)"/>
<path d="M0,0 L1,0 L1,1 L0,1 Z " fill="#24B67E" transform="translate(52,51)"/>
<path d="M0,0 L1,0 L1,1 L0,1 Z " fill="#23B57D" transform="translate(51,51)"/>
<path d="M0,0 L1,0 L1,1 L0,1 Z " fill="#22B27C" transform="translate(49,51)"/>
<path d="M0,0 L1,0 L1,1 L0,1 Z " fill="#67B89D" transform="translate(45,51)"/>
<path d="M0,0 L1,0 L1,1 L0,1 Z " fill="#FAFDFC" transform="translate(44,51)"/>
<path d="M0,0 L1,0 L1,1 L0,1 Z " fill="#E1F8EE" transform="translate(40,51)"/>
<path d="M0,0 L1,0 L1,1 L0,1 Z " fill="#3DCD90" transform="translate(39,51)"/>
<path d="M0,0 L1,0 L1,1 L0,1 Z " fill="#36CB8D" transform="translate(33,51)"/>
<path d="M0,0 L1,0 L1,1 L0,1 Z " fill="#D1F3E5" transform="translate(32,51)"/>
<path d="M0,0 L1,0 L1,1 L0,1 Z " fill="#89E1BC" transform="translate(22,51)"/>
<path d="M0,0 L1,0 L1,1 L0,1 Z " fill="#45C893" transform="translate(15,51)"/>
<path d="M0,0 L1,0 L1,1 L0,1 Z " fill="#19A074" transform="translate(14,51)"/>
<path d="M0,0 L1,0 L1,1 L0,1 Z " fill="#227B62" transform="translate(9,51)"/>
<path d="M0,0 L1,0 L1,1 L0,1 Z " fill="#36363E" opacity="0.12941177" transform="translate(2,51)"/>
<path d="M0,0 L1,0 L1,1 L0,1 Z " fill="#333340" opacity="0.078431375" transform="translate(60,50)"/>
<path d="M0,0 L1,0 L1,1 L0,1 Z " fill="#334347" transform="translate(55,50)"/>
<path d="M0,0 L1,0 L1,1 L0,1 Z " fill="#25B67E" transform="translate(54,50)"/>
<path d="M0,0 L1,0 L1,1 L0,1 Z " fill="#25B97F" transform="translate(53,50)"/>
<path d="M0,0 L1,0 L1,1 L0,1 Z " fill="#23B67E" transform="translate(51,50)"/>
<path d="M0,0 L1,0 L1,1 L0,1 Z " fill="#23B47D" transform="translate(50,50)"/>
<path d="M0,0 L1,0 L1,1 L0,1 Z " fill="#22B37D" transform="translate(49,50)"/>
<path d="M0,0 L1,0 L1,1 L0,1 Z " fill="#68C2A2" transform="translate(46,50)"/>
<path d="M0,0 L1,0 L1,1 L0,1 Z " fill="#FEFFFE" transform="translate(45,50)"/>
<path d="M0,0 L1,0 L1,1 L0,1 Z " fill="#ECFBF5" transform="translate(39,50)"/>
<path d="M0,0 L1,0 L1,1 L0,1 Z " fill="#77DCB2" transform="translate(38,50)"/>
<path d="M0,0 L1,0 L1,1 L0,1 Z " fill="#3BCD8F" transform="translate(37,50)"/>
<path d="M0,0 L1,0 L1,1 L0,1 Z " fill="#70DAAE" transform="translate(34,50)"/>
<path d="M0,0 L1,0 L1,1 L0,1 Z " fill="#E6F9F1" transform="translate(33,50)"/>
<path d="M0,0 L1,0 L1,1 L0,1 Z " fill="#B7EDD6" transform="translate(21,50)"/>
<path d="M0,0 L1,0 L1,1 L0,1 Z " fill="#51D29C" transform="translate(20,50)"/>
<path d="M0,0 L1,0 L1,1 L0,1 Z " fill="#2EC988" transform="translate(19,50)"/>
<path d="M0,0 L1,0 L1,1 L0,1 Z " fill="#4FD29B" transform="translate(17,50)"/>
<path d="M0,0 L1,0 L1,1 L0,1 Z " fill="#AEEAD1" transform="translate(16,50)"/>
<path d="M0,0 L1,0 L1,1 L0,1 Z " fill="#FEFFFF" transform="translate(15,50)"/>
<path d="M0,0 L1,0 L1,1 L0,1 Z " fill="#72C4A9" transform="translate(14,50)"/>
<path d="M0,0 L1,0 L1,1 L0,1 Z " fill="#199E73" transform="translate(9,50)"/>
<path d="M0,0 L1,0 L1,1 L0,1 Z " fill="#304447" transform="translate(8,50)"/>
<path d="M0,0 L1,0 L1,1 L0,1 Z " fill="#343440" opacity="0.84313726" transform="translate(4,50)"/>
<path d="M0,0 L1,0 L1,1 L0,1 Z " fill="#343440" opacity="0.07450981" transform="translate(3,50)"/>
<path d="M0,0 L1,0 L1,1 L0,1 Z " fill="#343440" opacity="0.9137255" transform="translate(59,49)"/>
<path d="M0,0 L1,0 L1,1 L0,1 Z " fill="#2C7E64" transform="translate(55,49)"/>
<path d="M0,0 L1,0 L1,1 L0,1 Z " fill="#25BB80" transform="translate(54,49)"/>
<path d="M0,0 L1,0 L1,1 L0,1 Z " fill="#24B87F" transform="translate(52,49)"/>
<path d="M0,0 L1,0 L1,1 L0,1 Z " fill="#22B27C" transform="translate(48,49)"/>
<path d="M0,0 L1,0 L1,1 L0,1 Z " fill="#FAFDFC" transform="translate(46,49)"/>
<path d="M0,0 L1,0 L1,1 L0,1 Z " fill="#FEFFFF" transform="translate(37,49)"/>
<path d="M0,0 L1,0 L1,1 L0,1 Z " fill="#F1FCF7" transform="translate(36,49)"/>
<path d="M0,0 L1,0 L1,1 L0,1 Z " fill="#FEFFFF" transform="translate(35,49)"/>
<path d="M0,0 L1,0 L1,1 L0,1 Z " fill="#F7FDFB" transform="translate(18,49)"/>
<path d="M0,0 L1,0 L1,1 L0,1 Z " fill="#FBFEFD" transform="translate(14,49)"/>
<path d="M0,0 L1,0 L1,1 L0,1 Z " fill="#4FB694" transform="translate(13,49)"/>
<path d="M0,0 L1,0 L1,1 L0,1 Z " fill="#24745F" transform="translate(8,49)"/>
<path d="M0,0 L1,0 L1,1 L0,1 Z " fill="#343440" opacity="0.9372549" transform="translate(4,49)"/>
<path d="M0,0 L1,0 L1,1 L0,1 Z " fill="#333340" opacity="0.40784314" transform="translate(60,48)"/>
<path d="M0,0 L1,0 L1,1 L0,1 Z " fill="#26B67D" transform="translate(55,48)"/>
<path d="M0,0 L1,0 L1,1 L0,1 Z " fill="#26BC80" transform="translate(54,48)"/>
<path d="M0,0 L1,0 L1,1 L0,1 Z " fill="#24B77F" transform="translate(51,48)"/>
<path d="M0,0 L1,0 L1,1 L0,1 Z " fill="#23B67E" transform="translate(50,48)"/>
<path d="M0,0 L1,0 L1,1 L0,1 Z " fill="#4ECD99" transform="translate(47,48)"/>
<path d="M0,0 L1,0 L1,1 L0,1 Z " fill="#E5F4EF" transform="translate(13,48)"/>
<path d="M0,0 L1,0 L1,1 L0,1 Z " fill="#27A57C" transform="translate(12,48)"/>
<path d="M0,0 L1,0 L1,1 L0,1 Z " fill="#1A9C72" transform="translate(8,48)"/>
<path d="M0,0 L1,0 L1,1 L0,1 Z " fill="#333341" opacity="0.44705883" transform="translate(3,48)"/>
<path d="M0,0 L1,0 L1,1 L0,1 Z " fill="#343441" opacity="0.8627451" transform="translate(60,47)"/>
<path d="M0,0 L1,0 L1,1 L0,1 Z " fill="#2E765F" transform="translate(56,47)"/>
<path d="M0,0 L1,0 L1,1 L0,1 Z " fill="#26BB80" transform="translate(53,47)"/>
<path d="M0,0 L1,0 L1,1 L0,1 Z " fill="#24B77E" transform="translate(50,47)"/>
<path d="M0,0 L1,0 L1,1 L0,1 Z " fill="#23B57E" transform="translate(49,47)"/>
<path d="M0,0 L1,0 L1,1 L0,1 Z " fill="#27C082" transform="translate(48,47)"/>
<path d="M0,0 L1,0 L1,1 L0,1 Z " fill="#2FC988" transform="translate(47,47)"/>
<path d="M0,0 L1,0 L1,1 L0,1 Z " fill="#F9FDFB" transform="translate(46,47)"/>
<path d="M0,0 L1,0 L1,1 L0,1 Z " fill="#AADCCC" transform="translate(12,47)"/>
<path d="M0,0 L1,0 L1,1 L0,1 Z " fill="#266D5B" transform="translate(7,47)"/>
<path d="M0,0 L1,0 L1,1 L0,1 Z " fill="#353540" opacity="0.8901961" transform="translate(3,47)"/>
<path d="M0,0 L1,0 L1,1 L0,1 Z " fill="#33333F" opacity="0.33333334" transform="translate(61,46)"/>
<path d="M0,0 L1,0 L1,1 L0,1 Z " fill="#29B37D" transform="translate(56,46)"/>
<path d="M0,0 L1,0 L1,1 L0,1 Z " fill="#27BF82" transform="translate(55,46)"/>
<path d="M0,0 L1,0 L1,1 L0,1 Z " fill="#27BD81" transform="translate(54,46)"/>
<path d="M0,0 L1,0 L1,1 L0,1 Z " fill="#25B97F" transform="translate(51,46)"/>
<path d="M0,0 L1,0 L1,1 L0,1 Z " fill="#24BA80" transform="translate(49,46)"/>
<path d="M0,0 L1,0 L1,1 L0,1 Z " fill="#2BC986" transform="translate(48,46)"/>
<path d="M0,0 L1,0 L1,1 L0,1 Z " fill="#59BA9A" transform="translate(11,46)"/>
<path d="M0,0 L1,0 L1,1 L0,1 Z " fill="#1B9971" transform="translate(7,46)"/>
<path d="M0,0 L1,0 L1,1 L0,1 Z " fill="#353540" opacity="0.3764706" transform="translate(2,46)"/>
<path d="M0,0 L1,0 L1,1 L0,1 Z " fill="#343441" opacity="0.8" transform="translate(61,45)"/>
<path d="M0,0 L1,0 L1,1 L0,1 Z " fill="#306E5C" transform="translate(57,45)"/>
<path d="M0,0 L1,0 L1,1 L0,1 Z " fill="#27BE82" transform="translate(54,45)"/>
<path d="M0,0 L1,0 L1,1 L0,1 Z " fill="#26BB80" transform="translate(52,45)"/>
<path d="M0,0 L1,0 L1,1 L0,1 Z " fill="#28C484" transform="translate(49,45)"/>
<path d="M0,0 L1,0 L1,1 L0,1 Z " fill="#9BE1C5" transform="translate(46,45)"/>
<path d="M0,0 L1,0 L1,1 L0,1 Z " fill="#CDEBE1" transform="translate(11,45)"/>
<path d="M0,0 L1,0 L1,1 L0,1 Z " fill="#286557" transform="translate(6,45)"/>
<path d="M0,0 L1,0 L1,1 L0,1 Z " fill="#343440" opacity="0.8352941" transform="translate(2,45)"/>
<path d="M0,0 L1,0 L1,1 L0,1 Z " fill="#323241" opacity="0.25882354" transform="translate(62,44)"/>
<path d="M0,0 L1,0 L1,1 L0,1 Z " fill="#2AAF7A" transform="translate(57,44)"/>
<path d="M0,0 L1,0 L1,1 L0,1 Z " fill="#28C283" transform="translate(56,44)"/>
<path d="M0,0 L1,0 L1,1 L0,1 Z " fill="#27BD81" transform="translate(53,44)"/>
<path d="M0,0 L1,0 L1,1 L0,1 Z " fill="#4CCF98" transform="translate(46,44)"/>
<path d="M0,0 L1,0 L1,1 L0,1 Z " fill="#59BA9A" transform="translate(10,44)"/>
<path d="M0,0 L1,0 L1,1 L0,1 Z " fill="#1C946E" transform="translate(6,44)"/>
<path d="M0,0 L1,0 L1,1 L0,1 Z " fill="#35353F" opacity="0.3019608" transform="translate(1,44)"/>
<path d="M0,0 L1,0 L1,1 L0,1 Z " fill="#343441" opacity="0.7254902" transform="translate(62,43)"/>
<path d="M0,0 L1,0 L1,1 L0,1 Z " fill="#316557" transform="translate(58,43)"/>
<path d="M0,0 L1,0 L1,1 L0,1 Z " fill="#29C484" transform="translate(57,43)"/>
<path d="M0,0 L1,0 L1,1 L0,1 Z " fill="#29C284" transform="translate(56,43)"/>
<path d="M0,0 L1,0 L1,1 L0,1 Z " fill="#28C183" transform="translate(55,43)"/>
<path d="M0,0 L1,0 L1,1 L0,1 Z " fill="#28C082" transform="translate(54,43)"/>
<path d="M0,0 L1,0 L1,1 L0,1 Z " fill="#26BD81" transform="translate(52,43)"/>
<path d="M0,0 L1,0 L1,1 L0,1 Z " fill="#28C284" transform="translate(50,43)"/>
<path d="M0,0 L1,0 L1,1 L0,1 Z " fill="#CDEFE2" transform="translate(45,43)"/>
<path d="M0,0 L1,0 L1,1 L0,1 Z " fill="#B6E1D3" transform="translate(10,43)"/>
<path d="M0,0 L1,0 L1,1 L0,1 Z " fill="#295D54" transform="translate(5,43)"/>
<path d="M0,0 L1,0 L1,1 L0,1 Z " fill="#343441" opacity="0.76862746" transform="translate(1,43)"/>
<path d="M0,0 L1,0 L1,1 L0,1 Z " fill="#2CA977" transform="translate(58,42)"/>
<path d="M0,0 L1,0 L1,1 L0,1 Z " fill="#2AC485" transform="translate(57,42)"/>
<path d="M0,0 L1,0 L1,1 L0,1 Z " fill="#29C283" transform="translate(55,42)"/>
<path d="M0,0 L1,0 L1,1 L0,1 Z " fill="#27BF82" transform="translate(53,42)"/>
<path d="M0,0 L1,0 L1,1 L0,1 Z " fill="#25BC81" transform="translate(51,42)"/>
<path d="M0,0 L1,0 L1,1 L0,1 Z " fill="#2BC886" transform="translate(50,42)"/>
<path d="M0,0 L1,0 L1,1 L0,1 Z " fill="#75D7AF" transform="translate(45,42)"/>
<path d="M0,0 L1,0 L1,1 L0,1 Z " fill="#F7FCFA" transform="translate(10,42)"/>
<path d="M0,0 L1,0 L1,1 L0,1 Z " fill="#23A47A" transform="translate(9,42)"/>
<path d="M0,0 L1,0 L1,1 L0,1 Z " fill="#1D8E6B" transform="translate(5,42)"/>
<path d="M0,0 L1,0 L1,1 L0,1 Z " fill="#333340" opacity="0.4862745" transform="translate(63,41)"/>
<path d="M0,0 L1,0 L1,1 L0,1 Z " fill="#325C53" transform="translate(59,41)"/>
<path d="M0,0 L1,0 L1,1 L0,1 Z " fill="#29C484" transform="translate(56,41)"/>
<path d="M0,0 L1,0 L1,1 L0,1 Z " fill="#28C183" transform="translate(54,41)"/>
<path d="M0,0 L1,0 L1,1 L0,1 Z " fill="#28C082" transform="translate(53,41)"/>
<path d="M0,0 L1,0 L1,1 L0,1 Z " fill="#27BE82" transform="translate(52,41)"/>
<path d="M0,0 L1,0 L1,1 L0,1 Z " fill="#2DC987" transform="translate(45,41)"/>
<path d="M0,0 L1,0 L1,1 L0,1 Z " fill="#CEEFE2" transform="translate(44,41)"/>
<path d="M0,0 L1,0 L1,1 L0,1 Z " fill="#2C5650" transform="translate(4,41)"/>
<path d="M0,0 L1,0 L1,1 L0,1 Z " fill="#333341" opacity="0.52156866" transform="translate(0,41)"/>
<path d="M0,0 L1,0 L1,1 L0,1 Z " fill="#353541" opacity="0.6784314" transform="translate(63,40)"/>
<path d="M0,0 L1,0 L1,1 L0,1 Z " fill="#2F946E" transform="translate(59,40)"/>
<path d="M0,0 L1,0 L1,1 L0,1 Z " fill="#2BC886" transform="translate(58,40)"/>
<path d="M0,0 L1,0 L1,1 L0,1 Z " fill="#2AC685" transform="translate(57,40)"/>
<path d="M0,0 L1,0 L1,1 L0,1 Z " fill="#29C283" transform="translate(54,40)"/>
<path d="M0,0 L1,0 L1,1 L0,1 Z " fill="#28C284" transform="translate(51,40)"/>
<path d="M0,0 L1,0 L1,1 L0,1 Z " fill="#52D09B" transform="translate(44,40)"/>
<path d="M0,0 L1,0 L1,1 L0,1 Z " fill="#FDFFFE" transform="translate(43,40)"/>
<path d="M0,0 L1,0 L1,1 L0,1 Z " fill="#95D3BE" transform="translate(9,40)"/>
<path d="M0,0 L1,0 L1,1 L0,1 Z " fill="#217D63" transform="translate(4,40)"/>
<path d="M0,0 L1,0 L1,1 L0,1 Z " fill="#353540" opacity="0.7176471" transform="translate(0,40)"/>
<path d="M0,0 L1,0 L1,1 L0,1 Z " fill="#353540" opacity="0.87058824" transform="translate(63,39)"/>
<path d="M0,0 L1,0 L1,1 L0,1 Z " fill="#2DB07B" transform="translate(59,39)"/>
<path d="M0,0 L1,0 L1,1 L0,1 Z " fill="#2BC786" transform="translate(57,39)"/>
<path d="M0,0 L1,0 L1,1 L0,1 Z " fill="#2AC484" transform="translate(55,39)"/>
<path d="M0,0 L1,0 L1,1 L0,1 Z " fill="#2AC585" transform="translate(51,39)"/>
<path d="M0,0 L1,0 L1,1 L0,1 Z " fill="#9BE1C5" transform="translate(43,39)"/>
<path d="M0,0 L1,0 L1,1 L0,1 Z " fill="#1D936D" transform="translate(4,39)"/>
<path d="M0,0 L1,0 L1,1 L0,1 Z " fill="#343440" opacity="0.9137255" transform="translate(0,39)"/>
<path d="M0,0 L1,0 L1,1 L0,1 Z " fill="#2CBD81" transform="translate(59,38)"/>
<path d="M0,0 L1,0 L1,1 L0,1 Z " fill="#2BC685" transform="translate(56,38)"/>
<path d="M0,0 L1,0 L1,1 L0,1 Z " fill="#29C484" transform="translate(54,38)"/>
<path d="M0,0 L1,0 L1,1 L0,1 Z " fill="#29C284" transform="translate(53,38)"/>
<path d="M0,0 L1,0 L1,1 L0,1 Z " fill="#2AC686" transform="translate(51,38)"/>
<path d="M0,0 L1,0 L1,1 L0,1 Z " fill="#2EC987" transform="translate(43,38)"/>
<path d="M0,0 L1,0 L1,1 L0,1 Z " fill="#BDEAD9" transform="translate(42,38)"/>
<path d="M0,0 L1,0 L1,1 L0,1 Z " fill="#D3EDE4" transform="translate(9,38)"/>
<path d="M0,0 L1,0 L1,1 L0,1 Z " fill="#343440" opacity="0.85882354" transform="translate(63,37)"/>
<path d="M0,0 L1,0 L1,1 L0,1 Z " fill="#2AC685" transform="translate(55,37)"/>
<path d="M0,0 L1,0 L1,1 L0,1 Z " fill="#2AC485" transform="translate(54,37)"/>
<path d="M0,0 L1,0 L1,1 L0,1 Z " fill="#28C283" transform="translate(52,37)"/>
<path d="M0,0 L1,0 L1,1 L0,1 Z " fill="#34CA8B" transform="translate(42,37)"/>
<path d="M0,0 L1,0 L1,1 L0,1 Z " fill="#D4F0E5" transform="translate(41,37)"/>
<path d="M0,0 L1,0 L1,1 L0,1 Z " fill="#EFF9F6" transform="translate(10,37)"/>
<path d="M0,0 L1,0 L1,1 L0,1 Z " fill="#4BCA97" transform="translate(9,37)"/>
<path d="M0,0 L1,0 L1,1 L0,1 Z " fill="#1B976F" transform="translate(4,37)"/>
<path d="M0,0 L1,0 L1,1 L0,1 Z " fill="#343440" opacity="0.9019608" transform="translate(0,37)"/>
<path d="M0,0 L1,0 L1,1 L0,1 Z " fill="#2F956E" transform="translate(59,36)"/>
<path d="M0,0 L1,0 L1,1 L0,1 Z " fill="#2BC886" transform="translate(56,36)"/>
<path d="M0,0 L1,0 L1,1 L0,1 Z " fill="#29C484" transform="translate(53,36)"/>
<path d="M0,0 L1,0 L1,1 L0,1 Z " fill="#29C284" transform="translate(52,36)"/>
<path d="M0,0 L1,0 L1,1 L0,1 Z " fill="#2BC886" transform="translate(51,36)"/>
<path d="M0,0 L1,0 L1,1 L0,1 Z " fill="#3FC48C" transform="translate(41,36)"/>
<path d="M0,0 L1,0 L1,1 L0,1 Z " fill="#DADFDF" transform="translate(40,36)"/>
<path d="M0,0 L1,0 L1,1 L0,1 Z " fill="#EDF8F4" transform="translate(11,36)"/>
<path d="M0,0 L1,0 L1,1 L0,1 Z " fill="#55CD9D" transform="translate(10,36)"/>
<path d="M0,0 L1,0 L1,1 L0,1 Z " fill="#343440" opacity="0.5137255" transform="translate(63,35)"/>
<path d="M0,0 L1,0 L1,1 L0,1 Z " fill="#326256" transform="translate(59,35)"/>
<path d="M0,0 L1,0 L1,1 L0,1 Z " fill="#2AC685" transform="translate(54,35)"/>
<path d="M0,0 L1,0 L1,1 L0,1 Z " fill="#2AC485" transform="translate(53,35)"/>
<path d="M0,0 L1,0 L1,1 L0,1 Z " fill="#36C58A" transform="translate(40,35)"/>
<path d="M0,0 L1,0 L1,1 L0,1 Z " fill="#C1D0CC" transform="translate(39,35)"/>
<path d="M0,0 L1,0 L1,1 L0,1 Z " fill="#D9F1E8" transform="translate(12,35)"/>
<path d="M0,0 L1,0 L1,1 L0,1 Z " fill="#44CB93" transform="translate(11,35)"/>
<path d="M0,0 L1,0 L1,1 L0,1 Z " fill="#2AC886" transform="translate(9,35)"/>
<path d="M0,0 L1,0 L1,1 L0,1 Z " fill="#2B5A53" transform="translate(4,35)"/>
<path d="M0,0 L1,0 L1,1 L0,1 Z " fill="#343441" opacity="0.5529412" transform="translate(0,35)"/>
<path d="M0,0 L1,0 L1,1 L0,1 Z " fill="#343541" transform="translate(59,34)"/>
<path d="M0,0 L1,0 L1,1 L0,1 Z " fill="#2EA274" transform="translate(58,34)"/>
<path d="M0,0 L1,0 L1,1 L0,1 Z " fill="#29C484" transform="translate(52,34)"/>
<path d="M0,0 L1,0 L1,1 L0,1 Z " fill="#2AC886" transform="translate(51,34)"/>
<path d="M0,0 L1,0 L1,1 L0,1 Z " fill="#A3C2B8" transform="translate(38,34)"/>
<path d="M0,0 L1,0 L1,1 L0,1 Z " fill="#BFE7D9" transform="translate(13,34)"/>
<path d="M0,0 L1,0 L1,1 L0,1 Z " fill="#36C98D" transform="translate(12,34)"/>
<path d="M0,0 L1,0 L1,1 L0,1 Z " fill="#1F8868" transform="translate(5,34)"/>
<path d="M0,0 L1,0 L1,1 L0,1 Z " fill="#343541" transform="translate(4,34)"/>
<path d="M0,0 L1,0 L1,1 L0,1 Z " fill="#343440" opacity="0.003921569" transform="translate(63,33)"/>
<path d="M0,0 L1,0 L1,1 L0,1 Z " fill="#334649" transform="translate(58,33)"/>
<path d="M0,0 L1,0 L1,1 L0,1 Z " fill="#2DB47D" transform="translate(57,33)"/>
<path d="M0,0 L1,0 L1,1 L0,1 Z " fill="#2AC685" transform="translate(53,33)"/>
<path d="M0,0 L1,0 L1,1 L0,1 Z " fill="#6FBA9D" transform="translate(37,33)"/>
<path d="M0,0 L1,0 L1,1 L0,1 Z " fill="#E1E5E5" transform="translate(36,33)"/>
<path d="M0,0 L1,0 L1,1 L0,1 Z " fill="#EDF8F4" transform="translate(15,33)"/>
<path d="M0,0 L1,0 L1,1 L0,1 Z " fill="#81D6B5" transform="translate(14,33)"/>
<path d="M0,0 L1,0 L1,1 L0,1 Z " fill="#2EC887" transform="translate(13,33)"/>
<path d="M0,0 L1,0 L1,1 L0,1 Z " fill="#27C083" transform="translate(9,33)"/>
<path d="M0,0 L1,0 L1,1 L0,1 Z " fill="#1D916C" transform="translate(6,33)"/>
<path d="M0,0 L1,0 L1,1 L0,1 Z " fill="#314347" transform="translate(5,33)"/>
<path d="M0,0 L1,0 L1,1 L0,1 Z " fill="#343440" opacity="0.007843138" transform="translate(0,33)"/>
<path d="M0,0 L1,0 L1,1 L0,1 Z " fill="#30303C" opacity="0.16470589" transform="translate(62,32)"/>
<path d="M0,0 L1,0 L1,1 L0,1 Z " fill="#343440" opacity="0.98039216" transform="translate(61,32)"/>
<path d="M0,0 L1,0 L1,1 L0,1 Z " fill="#344448" transform="translate(57,32)"/>
<path d="M0,0 L1,0 L1,1 L0,1 Z " fill="#2DB07B" transform="translate(56,32)"/>
<path d="M0,0 L1,0 L1,1 L0,1 Z " fill="#2BC786" transform="translate(53,32)"/>
<path d="M0,0 L1,0 L1,1 L0,1 Z " fill="#2AC785" transform="translate(51,32)"/>
<path d="M0,0 L1,0 L1,1 L0,1 Z " fill="#85BBA8" transform="translate(35,32)"/>
<path d="M0,0 L1,0 L1,1 L0,1 Z " fill="#EEEFF0" transform="translate(34,32)"/>
<path d="M0,0 L1,0 L1,1 L0,1 Z " fill="#F8F8F8" transform="translate(17,32)"/>
<path d="M0,0 L1,0 L1,1 L0,1 Z " fill="#9AC2B4" transform="translate(16,32)"/>
<path d="M0,0 L1,0 L1,1 L0,1 Z " fill="#35C78A" transform="translate(15,32)"/>
<path d="M0,0 L1,0 L1,1 L0,1 Z " fill="#1E8C6A" transform="translate(7,32)"/>
<path d="M0,0 L1,0 L1,1 L0,1 Z " fill="#313F46" transform="translate(6,32)"/>
<path d="M0,0 L1,0 L1,1 L0,1 Z " fill="#343441" opacity="0.9882353" transform="translate(2,32)"/>
<path d="M0,0 L1,0 L1,1 L0,1 Z " fill="#353540" opacity="0.1882353" transform="translate(1,32)"/>
<path d="M0,0 L1,0 L1,1 L0,1 Z " fill="#343440" opacity="0.5019608" transform="translate(61,31)"/>
<path d="M0,0 L1,0 L1,1 L0,1 Z " fill="#316B5A" transform="translate(55,31)"/>
<path d="M0,0 L1,0 L1,1 L0,1 Z " fill="#2EA877" transform="translate(54,31)"/>
<path d="M0,0 L1,0 L1,1 L0,1 Z " fill="#2CB77E" transform="translate(53,31)"/>
<path d="M0,0 L1,0 L1,1 L0,1 Z " fill="#2BB57D" transform="translate(51,31)"/>
<path d="M0,0 L1,0 L1,1 L0,1 Z " fill="#36C58A" transform="translate(34,31)"/>
<path d="M0,0 L1,0 L1,1 L0,1 Z " fill="#B9CCC6" transform="translate(32,31)"/>
<path d="M0,0 L1,0 L1,1 L0,1 Z " fill="#F3F4F4" transform="translate(31,31)"/>
<path d="M0,0 L1,0 L1,1 L0,1 Z " fill="#F9F9FA" transform="translate(20,31)"/>
<path d="M0,0 L1,0 L1,1 L0,1 Z " fill="#83BBA7" transform="translate(18,31)"/>
<path d="M0,0 L1,0 L1,1 L0,1 Z " fill="#3FC28B" transform="translate(17,31)"/>
<path d="M0,0 L1,0 L1,1 L0,1 Z " fill="#26AB79" transform="translate(9,31)"/>
<path d="M0,0 L1,0 L1,1 L0,1 Z " fill="#2B5952" transform="translate(8,31)"/>
<path d="M0,0 L1,0 L1,1 L0,1 Z " fill="#343741" transform="translate(7,31)"/>
<path d="M0,0 L1,0 L1,1 L0,1 Z " fill="#343441" opacity="0.007843138" transform="translate(61,30)"/>
<path d="M0,0 L1,0 L1,1 L0,1 Z " fill="#325651" transform="translate(51,30)"/>
<path d="M0,0 L1,0 L1,1 L0,1 Z " fill="#2BC987" transform="translate(40,30)"/>
<path d="M0,0 L1,0 L1,1 L0,1 Z " fill="#2BC987" transform="translate(38,30)"/>
<path d="M0,0 L1,0 L1,1 L0,1 Z " fill="#30C787" transform="translate(31,30)"/>
<path d="M0,0 L1,0 L1,1 L0,1 Z " fill="#86BBA8" transform="translate(29,30)"/>
<path d="M0,0 L1,0 L1,1 L0,1 Z " fill="#AEC7BF" transform="translate(27,30)"/>
<path d="M0,0 L1,0 L1,1 L0,1 Z " fill="#C4D1CE" transform="translate(25,30)"/>
<path d="M0,0 L1,0 L1,1 L0,1 Z " fill="#9DC1B5" transform="translate(23,30)"/>
<path d="M0,0 L1,0 L1,1 L0,1 Z " fill="#6CBA9C" transform="translate(21,30)"/>
<path d="M0,0 L1,0 L1,1 L0,1 Z " fill="#34C589" transform="translate(20,30)"/>
<path d="M0,0 L1,0 L1,1 L0,1 Z " fill="#2CC886" transform="translate(18,30)"/>
<path d="M0,0 L1,0 L1,1 L0,1 Z " fill="#326256" transform="translate(9,30)"/>
<path d="M0,0 L1,0 L1,1 L0,1 Z " fill="#343440" opacity="0.60784316" transform="translate(3,30)"/>
<path d="M0,0 L1,0 L1,1 L0,1 Z " fill="#343440" opacity="0.003921569" transform="translate(2,30)"/>
<path d="M0,0 L1,0 L1,1 L0,1 Z " fill="#353540" opacity="0.019607844" transform="translate(60,29)"/>
<path d="M0,0 L1,0 L1,1 L0,1 Z " fill="#353540" opacity="0.62352943" transform="translate(59,29)"/>
<path d="M0,0 L1,0 L1,1 L0,1 Z " fill="#343742" transform="translate(51,29)"/>
<path d="M0,0 L1,0 L1,1 L0,1 Z " fill="#2BC886" transform="translate(33,29)"/>
<path d="M0,0 L1,0 L1,1 L0,1 Z " fill="#2BC987" transform="translate(32,29)"/>
<path d="M0,0 L1,0 L1,1 L0,1 Z " fill="#2BC887" transform="translate(22,29)"/>
<path d="M0,0 L1,0 L1,1 L0,1 Z " fill="#2BC987" transform="translate(15,29)"/>
<path d="M0,0 L1,0 L1,1 L0,1 Z " fill="#2BC986" transform="translate(13,29)"/>
<path d="M0,0 L1,0 L1,1 L0,1 Z " fill="#2BC485" transform="translate(10,29)"/>
<path d="M0,0 L1,0 L1,1 L0,1 Z " fill="#333A43" transform="translate(9,29)"/>
<path d="M0,0 L1,0 L1,1 L0,1 Z " fill="#343440" opacity="0.011764706" transform="translate(3,29)"/>
<path d="M0,0 L1,0 L1,1 L0,1 Z " fill="#353540" opacity="0.3764706" transform="translate(58,28)"/>
<path d="M0,0 L1,0 L1,1 L0,1 Z " fill="#343440" opacity="0.92156863" transform="translate(57,28)"/>
<path d="M0,0 L1,0 L1,1 L0,1 Z " fill="#2F946E" transform="translate(50,28)"/>
<path d="M0,0 L1,0 L1,1 L0,1 Z " fill="#2BC987" transform="translate(42,28)"/>
<path d="M0,0 L1,0 L1,1 L0,1 Z " fill="#2BC886" transform="translate(23,28)"/>
<path d="M0,0 L1,0 L1,1 L0,1 Z " fill="#2BC987" transform="translate(12,28)"/>
<path d="M0,0 L1,0 L1,1 L0,1 Z " fill="#2E9E72" transform="translate(10,28)"/>
<path d="M0,0 L1,0 L1,1 L0,1 Z " fill="#333341" opacity="0.2901961" transform="translate(5,28)"/>
<path d="M0,0 L1,0 L1,1 L0,1 Z " fill="#343440" opacity="0.043137256" transform="translate(57,27)"/>
<path d="M0,0 L1,0 L1,1 L0,1 Z " fill="#343440" opacity="0.42352942" transform="translate(56,27)"/>
<path d="M0,0 L1,0 L1,1 L0,1 Z " fill="#343441" opacity="0.70980394" transform="translate(55,27)"/>
<path d="M0,0 L1,0 L1,1 L0,1 Z " fill="#316256" transform="translate(50,27)"/>
<path d="M0,0 L1,0 L1,1 L0,1 Z " fill="#2BC986" transform="translate(43,27)"/>
<path d="M0,0 L1,0 L1,1 L0,1 Z " fill="#2CC886" transform="translate(24,27)"/>
<path d="M0,0 L1,0 L1,1 L0,1 Z " fill="#2BC986" transform="translate(11,27)"/>
<path d="M0,0 L1,0 L1,1 L0,1 Z " fill="#343441" opacity="0.76862746" transform="translate(6,27)"/>
<path d="M0,0 L1,0 L1,1 L0,1 Z " fill="#34343E" opacity="0.19215687" transform="translate(54,26)"/>
<path d="M0,0 L1,0 L1,1 L0,1 Z " fill="#343541" transform="translate(50,26)"/>
<path d="M0,0 L1,0 L1,1 L0,1 Z " fill="#2DAA78" transform="translate(49,26)"/>
<path d="M0,0 L1,0 L1,1 L0,1 Z " fill="#2BC987" transform="translate(29,26)"/>
<path d="M0,0 L1,0 L1,1 L0,1 Z " fill="#2BC887" transform="translate(25,26)"/>
<path d="M0,0 L1,0 L1,1 L0,1 Z " fill="#2E966E" transform="translate(10,26)"/>
<path d="M0,0 L1,0 L1,1 L0,1 Z " fill="#313141" opacity="0.18431373" transform="translate(5,26)"/>
<path d="M0,0 L1,0 L1,1 L0,1 Z " fill="#343440" opacity="0.73333335" transform="translate(53,25)"/>
<path d="M0,0 L1,0 L1,1 L0,1 Z " fill="#325C52" transform="translate(49,25)"/>
<path d="M0,0 L1,0 L1,1 L0,1 Z " fill="#2CBA80" transform="translate(37,25)"/>
<path d="M0,0 L1,0 L1,1 L0,1 Z " fill="#2E9A71" transform="translate(35,25)"/>
<path d="M0,0 L1,0 L1,1 L0,1 Z " fill="#2CB77E" transform="translate(34,25)"/>
<path d="M0,0 L1,0 L1,1 L0,1 Z " fill="#2CBA7F" transform="translate(16,25)"/>
<path d="M0,0 L1,0 L1,1 L0,1 Z " fill="#2E9B71" transform="translate(15,25)"/>
<path d="M0,0 L1,0 L1,1 L0,1 Z " fill="#2DAB78" transform="translate(13,25)"/>
<path d="M0,0 L1,0 L1,1 L0,1 Z " fill="#2BC886" transform="translate(12,25)"/>
<path d="M0,0 L1,0 L1,1 L0,1 Z " fill="#315F55" transform="translate(9,25)"/>
<path d="M0,0 L1,0 L1,1 L0,1 Z " fill="#343440" opacity="0.5882353" transform="translate(5,25)"/>
<path d="M0,0 L1,0 L1,1 L0,1 Z " fill="#2EA073" transform="translate(48,24)"/>
<path d="M0,0 L1,0 L1,1 L0,1 Z " fill="#2BC584" transform="translate(39,24)"/>
<path d="M0,0 L1,0 L1,1 L0,1 Z " fill="#307C62" transform="translate(38,24)"/>
<path d="M0,0 L1,0 L1,1 L0,1 Z " fill="#343742" transform="translate(37,24)"/>
<path d="M0,0 L1,0 L1,1 L0,1 Z " fill="#306F5D" transform="translate(33,24)"/>
<path d="M0,0 L1,0 L1,1 L0,1 Z " fill="#2BC083" transform="translate(32,24)"/>
<path d="M0,0 L1,0 L1,1 L0,1 Z " fill="#308365" transform="translate(17,24)"/>
<path d="M0,0 L1,0 L1,1 L0,1 Z " fill="#325D54" transform="translate(12,24)"/>
<path d="M0,0 L1,0 L1,1 L0,1 Z " fill="#2CB97F" transform="translate(11,24)"/>
<path d="M0,0 L1,0 L1,1 L0,1 Z " fill="#2EA876" transform="translate(9,24)"/>
<path d="M0,0 L1,0 L1,1 L0,1 Z " fill="#343441" opacity="0.9411765" transform="translate(5,24)"/>
<path d="M0,0 L1,0 L1,1 L0,1 Z " fill="#343441" opacity="0.003921569" transform="translate(53,23)"/>
<path d="M0,0 L1,0 L1,1 L0,1 Z " fill="#334A4B" transform="translate(48,23)"/>
<path d="M0,0 L1,0 L1,1 L0,1 Z " fill="#2CBF82" transform="translate(47,23)"/>
<path d="M0,0 L1,0 L1,1 L0,1 Z " fill="#2CC986" transform="translate(46,23)"/>
<path d="M0,0 L1,0 L1,1 L0,1 Z " fill="#307760" transform="translate(39,23)"/>
<path d="M0,0 L1,0 L1,1 L0,1 Z " fill="#316859" transform="translate(32,23)"/>
<path d="M0,0 L1,0 L1,1 L0,1 Z " fill="#2BC987" transform="translate(28,23)"/>
<path d="M0,0 L1,0 L1,1 L0,1 Z " fill="#2F8867" transform="translate(18,23)"/>
<path d="M0,0 L1,0 L1,1 L0,1 Z " fill="#33544F" transform="translate(11,23)"/>
<path d="M0,0 L1,0 L1,1 L0,1 Z " fill="#2CC685" transform="translate(10,23)"/>
<path d="M0,0 L1,0 L1,1 L0,1 Z " fill="#344347" transform="translate(8,23)"/>
<path d="M0,0 L1,0 L1,1 L0,1 Z " fill="#2E2E3A" opacity="0.08627451" transform="translate(4,23)"/>
<path d="M0,0 L1,0 L1,1 L0,1 Z " fill="#313141" opacity="0.18431373" transform="translate(52,22)"/>
<path d="M0,0 L1,0 L1,1 L0,1 Z " fill="#343440" opacity="0.98039216" transform="translate(51,22)"/>
<path d="M0,0 L1,0 L1,1 L0,1 Z " fill="#325C53" transform="translate(47,22)"/>
<path d="M0,0 L1,0 L1,1 L0,1 Z " fill="#2BC886" transform="translate(46,22)"/>
<path d="M0,0 L1,0 L1,1 L0,1 Z " fill="#2DAF7A" transform="translate(40,22)"/>
<path d="M0,0 L1,0 L1,1 L0,1 Z " fill="#2DA575" transform="translate(31,22)"/>
<path d="M0,0 L1,0 L1,1 L0,1 Z " fill="#2BC986" transform="translate(26,22)"/>
<path d="M0,0 L1,0 L1,1 L0,1 Z " fill="#2CBE82" transform="translate(19,22)"/>
<path d="M0,0 L1,0 L1,1 L0,1 Z " fill="#2F8D6B" transform="translate(10,22)"/>
<path d="M0,0 L1,0 L1,1 L0,1 Z " fill="#315F55" transform="translate(8,22)"/>
<path d="M0,0 L1,0 L1,1 L0,1 Z " fill="#313140" opacity="0.20392157" transform="translate(4,22)"/>
<path d="M0,0 L1,0 L1,1 L0,1 Z " fill="#2F8C6A" transform="translate(40,21)"/>
<path d="M0,0 L1,0 L1,1 L0,1 Z " fill="#343641" transform="translate(39,21)"/>
<path d="M0,0 L1,0 L1,1 L0,1 Z " fill="#4B7068" transform="translate(37,21)"/>
<path d="M0,0 L1,0 L1,1 L0,1 Z " fill="#3A5252" transform="translate(36,21)"/>
<path d="M0,0 L1,0 L1,1 L0,1 Z " fill="#308265" transform="translate(31,21)"/>
<path d="M0,0 L1,0 L1,1 L0,1 Z " fill="#2BC987" transform="translate(26,21)"/>
<path d="M0,0 L1,0 L1,1 L0,1 Z " fill="#343440" transform="translate(18,21)"/>
<path d="M0,0 L1,0 L1,1 L0,1 Z " fill="#446B62" transform="translate(17,21)"/>
<path d="M0,0 L1,0 L1,1 L0,1 Z " fill="#3F615C" transform="translate(15,21)"/>
<path d="M0,0 L1,0 L1,1 L0,1 Z " fill="#316A5A" transform="translate(10,21)"/>
<path d="M0,0 L1,0 L1,1 L0,1 Z " fill="#316D5B" transform="translate(8,21)"/>
<path d="M0,0 L1,0 L1,1 L0,1 Z " fill="#343440" opacity="0.015686275" transform="translate(51,20)"/>
<path d="M0,0 L1,0 L1,1 L0,1 Z " fill="#343440" opacity="0.79607844" transform="translate(50,20)"/>
<path d="M0,0 L1,0 L1,1 L0,1 Z " fill="#2EA174" transform="translate(46,20)"/>
<path d="M0,0 L1,0 L1,1 L0,1 Z " fill="#416660" transform="translate(39,20)"/>
<path d="M0,0 L1,0 L1,1 L0,1 Z " fill="#586568" transform="translate(36,20)"/>
<path d="M0,0 L1,0 L1,1 L0,1 Z " fill="#2BC986" transform="translate(28,20)"/>
<path d="M0,0 L1,0 L1,1 L0,1 Z " fill="#2E9A70" transform="translate(19,20)"/>
<path d="M0,0 L1,0 L1,1 L0,1 Z " fill="#3C5957" transform="translate(18,20)"/>
<path d="M0,0 L1,0 L1,1 L0,1 Z " fill="#5B5E67" transform="translate(15,20)"/>
<path d="M0,0 L1,0 L1,1 L0,1 Z " fill="#35353F" opacity="0.3019608" transform="translate(4,20)"/>
<path d="M0,0 L1,0 L1,1 L0,1 Z " fill="#333340" opacity="0.37254903" transform="translate(50,19)"/>
<path d="M0,0 L1,0 L1,1 L0,1 Z " fill="#2E9D72" transform="translate(40,19)"/>
<path d="M0,0 L1,0 L1,1 L0,1 Z " fill="#5B5F67" transform="translate(36,19)"/>
<path d="M0,0 L1,0 L1,1 L0,1 Z " fill="#343742" transform="translate(35,19)"/>
<path d="M0,0 L1,0 L1,1 L0,1 Z " fill="#2F926C" transform="translate(31,19)"/>
<path d="M0,0 L1,0 L1,1 L0,1 Z " fill="#2BC887" transform="translate(26,19)"/>
<path d="M0,0 L1,0 L1,1 L0,1 Z " fill="#2DB87E" transform="translate(19,19)"/>
<path d="M0,0 L1,0 L1,1 L0,1 Z " fill="#37484C" transform="translate(14,19)"/>
<path d="M0,0 L1,0 L1,1 L0,1 Z " fill="#2F8165" transform="translate(10,19)"/>
<path d="M0,0 L1,0 L1,1 L0,1 Z " fill="#325952" transform="translate(8,19)"/>
<path d="M0,0 L1,0 L1,1 L0,1 Z " fill="#316C5A" transform="translate(46,18)"/>
<path d="M0,0 L1,0 L1,1 L0,1 Z " fill="#2BC584" transform="translate(40,18)"/>
<path d="M0,0 L1,0 L1,1 L0,1 Z " fill="#355E55" transform="translate(39,18)"/>
<path d="M0,0 L1,0 L1,1 L0,1 Z " fill="#506E6A" transform="translate(38,18)"/>
<path d="M0,0 L1,0 L1,1 L0,1 Z " fill="#436961" transform="translate(36,18)"/>
<path d="M0,0 L1,0 L1,1 L0,1 Z " fill="#33484A" transform="translate(32,18)"/>
<path d="M0,0 L1,0 L1,1 L0,1 Z " fill="#2BC183" transform="translate(31,18)"/>
<path d="M0,0 L1,0 L1,1 L0,1 Z " fill="#2BC886" transform="translate(29,18)"/>
<path d="M0,0 L1,0 L1,1 L0,1 Z " fill="#2BC987" transform="translate(28,18)"/>
<path d="M0,0 L1,0 L1,1 L0,1 Z " fill="#2BC987" transform="translate(26,18)"/>
<path d="M0,0 L1,0 L1,1 L0,1 Z " fill="#316E5B" transform="translate(18,18)"/>
<path d="M0,0 L1,0 L1,1 L0,1 Z " fill="#4A7068" transform="translate(17,18)"/>
<path d="M0,0 L1,0 L1,1 L0,1 Z " fill="#446B63" transform="translate(15,18)"/>
<path d="M0,0 L1,0 L1,1 L0,1 Z " fill="#344247" transform="translate(11,18)"/>
<path d="M0,0 L1,0 L1,1 L0,1 Z " fill="#2CBC80" transform="translate(10,18)"/>
<path d="M0,0 L1,0 L1,1 L0,1 Z " fill="#343A42" transform="translate(8,18)"/>
<path d="M0,0 L1,0 L1,1 L0,1 Z " fill="#2C2C42" opacity="0.09019608" transform="translate(4,18)"/>
<path d="M0,0 L1,0 L1,1 L0,1 Z " fill="#343440" opacity="0.003921569" transform="translate(50,17)"/>
<path d="M0,0 L1,0 L1,1 L0,1 Z " fill="#344046" transform="translate(46,17)"/>
<path d="M0,0 L1,0 L1,1 L0,1 Z " fill="#2CB27C" transform="translate(39,17)"/>
<path d="M0,0 L1,0 L1,1 L0,1 Z " fill="#334A4A" transform="translate(38,17)"/>
<path d="M0,0 L1,0 L1,1 L0,1 Z " fill="#344247" transform="translate(33,17)"/>
<path d="M0,0 L1,0 L1,1 L0,1 Z " fill="#2DAA78" transform="translate(32,17)"/>
<path d="M0,0 L1,0 L1,1 L0,1 Z " fill="#2CC083" transform="translate(18,17)"/>
<path d="M0,0 L1,0 L1,1 L0,1 Z " fill="#325C52" transform="translate(17,17)"/>
<path d="M0,0 L1,0 L1,1 L0,1 Z " fill="#334146" transform="translate(12,17)"/>
<path d="M0,0 L1,0 L1,1 L0,1 Z " fill="#2EA375" transform="translate(11,17)"/>
<path d="M0,0 L1,0 L1,1 L0,1 Z " fill="#2E926D" transform="translate(9,17)"/>
<path d="M0,0 L1,0 L1,1 L0,1 Z " fill="#353540" opacity="0.8117647" transform="translate(5,17)"/>
<path d="M0,0 L1,0 L1,1 L0,1 Z " fill="#333340" opacity="0.5803922" transform="translate(49,16)"/>
<path d="M0,0 L1,0 L1,1 L0,1 Z " fill="#308064" transform="translate(45,16)"/>
<path d="M0,0 L1,0 L1,1 L0,1 Z " fill="#2CC284" transform="translate(38,16)"/>
<path d="M0,0 L1,0 L1,1 L0,1 Z " fill="#2F8165" transform="translate(37,16)"/>
<path d="M0,0 L1,0 L1,1 L0,1 Z " fill="#326055" transform="translate(36,16)"/>
<path d="M0,0 L1,0 L1,1 L0,1 Z " fill="#307B61" transform="translate(34,16)"/>
<path d="M0,0 L1,0 L1,1 L0,1 Z " fill="#2CBC80" transform="translate(33,16)"/>
<path d="M0,0 L1,0 L1,1 L0,1 Z " fill="#2BC986" transform="translate(30,16)"/>
<path d="M0,0 L1,0 L1,1 L0,1 Z " fill="#2BC987" transform="translate(29,16)"/>
<path d="M0,0 L1,0 L1,1 L0,1 Z " fill="#2BC886" transform="translate(17,16)"/>
<path d="M0,0 L1,0 L1,1 L0,1 Z " fill="#2F976F" transform="translate(16,16)"/>
<path d="M0,0 L1,0 L1,1 L0,1 Z " fill="#30735E" transform="translate(15,16)"/>
<path d="M0,0 L1,0 L1,1 L0,1 Z " fill="#2F8466" transform="translate(13,16)"/>
<path d="M0,0 L1,0 L1,1 L0,1 Z " fill="#2CBC80" transform="translate(12,16)"/>
<path d="M0,0 L1,0 L1,1 L0,1 Z " fill="#2BC584" transform="translate(10,16)"/>
<path d="M0,0 L1,0 L1,1 L0,1 Z " fill="#334849" transform="translate(9,16)"/>
<path d="M0,0 L1,0 L1,1 L0,1 Z " fill="#343943" transform="translate(45,15)"/>
<path d="M0,0 L1,0 L1,1 L0,1 Z " fill="#2DA877" transform="translate(44,15)"/>
<path d="M0,0 L1,0 L1,1 L0,1 Z " fill="#2BC887" transform="translate(30,15)"/>
<path d="M0,0 L1,0 L1,1 L0,1 Z " fill="#2BC585" transform="translate(24,15)"/>
<path d="M0,0 L1,0 L1,1 L0,1 Z " fill="#316D5C" transform="translate(10,15)"/>
<path d="M0,0 L1,0 L1,1 L0,1 Z " fill="#353540" opacity="0.9647059" transform="translate(6,15)"/>
<path d="M0,0 L1,0 L1,1 L0,1 Z " fill="#33333D" opacity="0.09803922" transform="translate(5,15)"/>
<path d="M0,0 L1,0 L1,1 L0,1 Z " fill="#343440" opacity="0.003921569" transform="translate(49,14)"/>
<path d="M0,0 L1,0 L1,1 L0,1 Z " fill="#344347" transform="translate(44,14)"/>
<path d="M0,0 L1,0 L1,1 L0,1 Z " fill="#2DAC79" transform="translate(43,14)"/>
<path d="M0,0 L1,0 L1,1 L0,1 Z " fill="#2CAA78" transform="translate(30,14)"/>
<path d="M0,0 L1,0 L1,1 L0,1 Z " fill="#2E926D" transform="translate(28,14)"/>
<path d="M0,0 L1,0 L1,1 L0,1 Z " fill="#307660" transform="translate(26,14)"/>
<path d="M0,0 L1,0 L1,1 L0,1 Z " fill="#33534E" transform="translate(25,14)"/>
<path d="M0,0 L1,0 L1,1 L0,1 Z " fill="#334347" transform="translate(24,14)"/>
<path d="M0,0 L1,0 L1,1 L0,1 Z " fill="#2CAD7A" transform="translate(23,14)"/>
<path d="M0,0 L1,0 L1,1 L0,1 Z " fill="#2F7A62" transform="translate(11,14)"/>
<path d="M0,0 L1,0 L1,1 L0,1 Z " fill="#343440" opacity="0.5176471" transform="translate(6,14)"/>
<path d="M0,0 L1,0 L1,1 L0,1 Z " fill="#323240" opacity="0.2784314" transform="translate(48,13)"/>
<path d="M0,0 L1,0 L1,1 L0,1 Z " fill="#343B44" transform="translate(43,13)"/>
<path d="M0,0 L1,0 L1,1 L0,1 Z " fill="#2E8E6B" transform="translate(42,13)"/>
<path d="M0,0 L1,0 L1,1 L0,1 Z " fill="#2BC785" transform="translate(41,13)"/>
<path d="M0,0 L1,0 L1,1 L0,1 Z " fill="#2CBC80" transform="translate(33,13)"/>
<path d="M0,0 L1,0 L1,1 L0,1 Z " fill="#316A59" transform="translate(32,13)"/>
<path d="M0,0 L1,0 L1,1 L0,1 Z " fill="#343C43" transform="translate(23,13)"/>
<path d="M0,0 L1,0 L1,1 L0,1 Z " fill="#2F916C" transform="translate(22,13)"/>
<path d="M0,0 L1,0 L1,1 L0,1 Z " fill="#2BC886" transform="translate(21,13)"/>
<path d="M0,0 L1,0 L1,1 L0,1 Z " fill="#2CBA7F" transform="translate(13,13)"/>
<path d="M0,0 L1,0 L1,1 L0,1 Z " fill="#316457" transform="translate(12,13)"/>
<path d="M0,0 L1,0 L1,1 L0,1 Z " fill="#343441" opacity="0.043137256" transform="translate(6,13)"/>
<path d="M0,0 L1,0 L1,1 L0,1 Z " fill="#334E4D" transform="translate(41,12)"/>
<path d="M0,0 L1,0 L1,1 L0,1 Z " fill="#2F8566" transform="translate(40,12)"/>
<path d="M0,0 L1,0 L1,1 L0,1 Z " fill="#2CAD7A" transform="translate(39,12)"/>
<path d="M0,0 L1,0 L1,1 L0,1 Z " fill="#2CBE82" transform="translate(38,12)"/>
<path d="M0,0 L1,0 L1,1 L0,1 Z " fill="#2CBA7F" transform="translate(36,12)"/>
<path d="M0,0 L1,0 L1,1 L0,1 Z " fill="#31755F" transform="translate(34,12)"/>
<path d="M0,0 L1,0 L1,1 L0,1 Z " fill="#343C44" transform="translate(33,12)"/>
<path d="M0,0 L1,0 L1,1 L0,1 Z " fill="#33504E" transform="translate(21,12)"/>
<path d="M0,0 L1,0 L1,1 L0,1 Z " fill="#2F8667" transform="translate(20,12)"/>
<path d="M0,0 L1,0 L1,1 L0,1 Z " fill="#2DAF7A" transform="translate(19,12)"/>
<path d="M0,0 L1,0 L1,1 L0,1 Z " fill="#2CBF82" transform="translate(18,12)"/>
<path d="M0,0 L1,0 L1,1 L0,1 Z " fill="#2CB87F" transform="translate(16,12)"/>
<path d="M0,0 L1,0 L1,1 L0,1 Z " fill="#31725D" transform="translate(14,12)"/>
<path d="M0,0 L1,0 L1,1 L0,1 Z " fill="#343B44" transform="translate(13,12)"/>
<path d="M0,0 L1,0 L1,1 L0,1 Z " fill="#353540" opacity="0.90588236" transform="translate(8,12)"/>
<path d="M0,0 L1,0 L1,1 L0,1 Z " fill="#34343D" opacity="0.11372549" transform="translate(7,12)"/>
<path d="M0,0 L1,0 L1,1 L0,1 Z " fill="#343440" opacity="0.011764706" transform="translate(47,11)"/>
<path d="M0,0 L1,0 L1,1 L0,1 Z " fill="#343440" opacity="0.53333336" transform="translate(46,11)"/>
<path d="M0,0 L1,0 L1,1 L0,1 Z " fill="#353541" opacity="0.16862746" transform="translate(8,11)"/>
<path d="M0,0 L1,0 L1,1 L0,1 Z " fill="#34343F" opacity="0.3647059" transform="translate(45,10)"/>
<path d="M0,0 L1,0 L1,1 L0,1 Z " fill="#343440" opacity="0.8666667" transform="translate(30,10)"/>
<path d="M0,0 L1,0 L1,1 L0,1 Z " fill="#343440" opacity="0.7058824" transform="translate(28,10)"/>
<path d="M0,0 L1,0 L1,1 L0,1 Z " fill="#353541" opacity="0.6784314" transform="translate(27,10)"/>
<path d="M0,0 L1,0 L1,1 L0,1 Z " fill="#2C2C42" opacity="0.09019608" transform="translate(9,10)"/>
<path d="M0,0 L1,0 L1,1 L0,1 Z " fill="#31313B" opacity="0.101960786" transform="translate(44,9)"/>
<path d="M0,0 L1,0 L1,1 L0,1 Z " fill="#343440" opacity="0.60784316" transform="translate(43,9)"/>
<path d="M0,0 L1,0 L1,1 L0,1 Z " fill="#343440" opacity="0.99215686" transform="translate(42,9)"/>
<path d="M0,0 L1,0 L1,1 L0,1 Z " fill="#343440" opacity="0.91764706" transform="translate(32,9)"/>
<path d="M0,0 L1,0 L1,1 L0,1 Z " fill="#34343F" opacity="0.019607844" transform="translate(30,9)"/>
<path d="M0,0 L1,0 L1,1 L0,1 Z " fill="#333341" opacity="0.13725491" transform="translate(24,9)"/>
<path d="M0,0 L1,0 L1,1 L0,1 Z " fill="#343440" opacity="0.68235296" transform="translate(23,9)"/>
<path d="M0,0 L1,0 L1,1 L0,1 Z " fill="#343440" opacity="0.99215686" transform="translate(22,9)"/>
<path d="M0,0 L1,0 L1,1 L0,1 Z " fill="#343441" opacity="0.8784314" transform="translate(12,9)"/>
<path d="M0,0 L1,0 L1,1 L0,1 Z " fill="#353540" opacity="0.007843138" transform="translate(10,9)"/>
<path d="M0,0 L1,0 L1,1 L0,1 Z " fill="#343441" opacity="0.4" transform="translate(41,8)"/>
<path d="M0,0 L1,0 L1,1 L0,1 Z " fill="#343441" opacity="0.69411767" transform="translate(40,8)"/>
<path d="M0,0 L1,0 L1,1 L0,1 Z " fill="#343440" opacity="0.8392157" transform="translate(39,8)"/>
<path d="M0,0 L1,0 L1,1 L0,1 Z " fill="#343440" opacity="0.93333334" transform="translate(38,8)"/>
<path d="M0,0 L1,0 L1,1 L0,1 Z " fill="#343440" opacity="0.92156863" transform="translate(36,8)"/>
<path d="M0,0 L1,0 L1,1 L0,1 Z " fill="#353540" opacity="0.6039216" transform="translate(34,8)"/>
<path d="M0,0 L1,0 L1,1 L0,1 Z " fill="#333340" opacity="0.023529412" transform="translate(32,8)"/>
<path d="M0,0 L1,0 L1,1 L0,1 Z " fill="#343441" opacity="0.4627451" transform="translate(21,8)"/>
<path d="M0,0 L1,0 L1,1 L0,1 Z " fill="#343440" opacity="0.7019608" transform="translate(20,8)"/>
<path d="M0,0 L1,0 L1,1 L0,1 Z " fill="#343440" opacity="0.88235295" transform="translate(19,8)"/>
<path d="M0,0 L1,0 L1,1 L0,1 Z " fill="#343440" opacity="0.9529412" transform="translate(18,8)"/>
<path d="M0,0 L1,0 L1,1 L0,1 Z " fill="#343441" opacity="0.89411765" transform="translate(16,8)"/>
<path d="M0,0 L1,0 L1,1 L0,1 Z " fill="#343440" opacity="0.57254905" transform="translate(14,8)"/>
<path d="M0,0 L1,0 L1,1 L0,1 Z " fill="#343440" opacity="0.023529412" transform="translate(12,8)"/>
</svg>
