<?xml version="1.0" encoding="UTF-8"?>
<!-- Generator: visioncortex VTracer 0.6.4 -->
<svg version="1.1" xmlns="http://www.w3.org/2000/svg" width="64" height="64">
<path d="M0,0 L2,0 L2,1 L6,1 L6,2 L7,2 L7,3 L8,3 L8,11 L7,11 L7,12 L6,12 L6,13 L5,13 L5,14 L4,14 L4,15 L2,15 L2,16 L5,16 L5,15 L6,15 L6,14 L8,14 L8,15 L11,15 L11,16 L12,16 L12,17 L14,17 L14,18 L15,18 L15,19 L16,19 L16,20 L18,20 L18,21 L19,21 L19,22 L20,22 L20,24 L21,24 L21,25 L22,25 L22,27 L23,27 L23,30 L24,30 L24,32 L23,32 L23,33 L21,33 L21,34 L-14,34 L-14,33 L-19,33 L-19,32 L-20,32 L-20,31 L-21,31 L-21,29 L-20,29 L-20,28 L-18,28 L-18,27 L-17,27 L-17,26 L-16,26 L-16,23 L-15,23 L-15,21 L-14,21 L-14,20 L-13,20 L-13,18 L-12,18 L-12,17 L-11,17 L-11,16 L-10,16 L-10,15 L-9,15 L-9,14 L-7,14 L-7,13 L-8,13 L-8,11 L-9,11 L-9,9 L-10,9 L-10,7 L-9,7 L-9,5 L-8,5 L-8,4 L-7,4 L-7,3 L-6,3 L-6,2 L-4,2 L-4,1 L0,1 Z M-7,14 L-7,15 L-6,15 L-6,16 L-5,16 L-5,14 Z M-4,15 L-4,17 L1,17 L1,16 L-3,16 L-3,15 Z M-13,21 L-13,25 L-12,25 L-12,26 L-11,26 L-11,27 L-4,27 L-4,26 L-3,26 L-3,25 L-2,25 L-2,21 L-5,21 L-5,22 L-6,22 L-6,23 L-9,23 L-9,22 L-10,22 L-10,21 Z " fill="#BBC4CB" transform="translate(29,26)"/>
<path d="M0,0 L1,0 L1,1 L0,1 Z M6,6 L7,6 L7,7 L6,7 Z " fill="#BAC3CA" transform="translate(31,26)"/>
<path d="M0,0 L2,0 L2,1 L6,1 L6,2 L8,2 L8,3 L10,3 L10,4 L11,4 L11,5 L13,5 L13,6 L14,6 L14,7 L15,7 L15,9 L16,9 L16,12 L17,12 L17,15 L18,15 L18,16 L19,16 L19,17 L20,17 L20,18 L22,18 L22,17 L23,17 L23,16 L24,16 L24,15 L25,15 L25,14 L31,14 L31,15 L32,15 L32,16 L33,16 L33,18 L34,18 L34,21 L35,21 L35,25 L34,25 L34,29 L33,29 L33,31 L32,31 L32,32 L31,32 L31,34 L30,34 L30,35 L29,35 L29,36 L28,36 L28,37 L27,37 L27,39 L26,39 L26,40 L25,40 L25,41 L21,41 L21,42 L-14,42 L-14,41 L-20,41 L-20,40 L-21,40 L-21,39 L-23,39 L-23,37 L-24,37 L-24,36 L-25,36 L-25,34 L-26,34 L-26,33 L-27,33 L-27,31 L-28,31 L-28,24 L-27,24 L-27,23 L-26,23 L-26,22 L-25,22 L-25,21 L-23,21 L-23,20 L-18,20 L-18,18 L-17,18 L-17,17 L-16,17 L-16,16 L-15,16 L-15,14 L-14,14 L-14,11 L-13,11 L-13,8 L-12,8 L-12,7 L-11,7 L-11,5 L-10,5 L-10,4 L-8,4 L-8,3 L-7,3 L-7,2 L-4,2 L-4,1 L0,1 Z M0,3 L0,4 L-4,4 L-4,5 L-6,5 L-6,6 L-8,6 L-8,7 L-9,7 L-9,9 L-10,9 L-10,11 L-11,11 L-11,13 L-10,13 L-10,14 L-11,14 L-11,15 L-12,15 L-12,16 L-13,16 L-13,17 L-14,17 L-14,19 L-15,19 L-15,20 L-16,20 L-16,22 L-17,22 L-17,24 L-19,24 L-19,23 L-23,23 L-23,24 L-24,24 L-24,25 L-25,25 L-25,31 L-24,31 L-24,32 L-23,32 L-23,33 L-22,33 L-22,35 L-21,35 L-21,37 L-19,37 L-19,38 L24,38 L24,37 L25,37 L25,35 L26,35 L26,34 L27,34 L27,33 L28,33 L28,32 L29,32 L29,30 L30,30 L30,28 L31,28 L31,18 L30,18 L30,17 L29,17 L29,16 L27,16 L27,17 L25,17 L25,25 L24,25 L24,26 L23,26 L23,24 L22,24 L22,23 L21,23 L21,22 L20,22 L20,21 L19,21 L19,20 L18,20 L18,19 L17,19 L17,18 L16,18 L16,17 L15,17 L15,16 L14,16 L14,12 L13,12 L13,9 L12,9 L12,8 L11,8 L11,7 L9,7 L9,6 L8,6 L8,5 L6,5 L6,4 L3,4 L3,3 Z " fill="#353541" transform="translate(29,22)"/>
<path d="M0,0 L1,0 L1,1 L0,1 Z " fill="#343440" opacity="0.99607843" transform="translate(31,22)"/>
<path d="M0,0 L3,0 L3,1 L4,1 L4,2 L5,2 L5,10 L4,10 L4,12 L3,12 L3,14 L2,14 L2,15 L1,15 L1,16 L0,16 L0,17 L-1,17 L-1,13 L-2,13 L-2,11 L-3,11 L-3,10 L-1,10 L-1,8 L0,8 Z " fill="#F3B9CB" transform="translate(55,39)"/>
<path d="M0,0 L2,0 L2,1 L4,1 L4,2 L5,2 L5,3 L7,3 L7,4 L8,4 L8,5 L9,5 L9,6 L11,6 L11,7 L12,7 L12,9 L13,9 L13,10 L14,10 L14,12 L15,12 L15,14 L16,14 L16,16 L17,16 L17,20 L16,20 L16,19 L15,19 L15,15 L14,15 L14,13 L13,13 L13,12 L12,12 L12,11 L11,11 L11,10 L10,10 L10,9 L9,9 L9,8 L8,8 L8,7 L6,7 L6,6 L5,6 L5,5 L2,5 L2,4 L0,4 L0,3 L-1,3 L-1,1 L0,1 Z " fill="#D6DCE0" transform="translate(37,36)"/>
<path d="M0,0 L5,0 L5,1 L6,1 L6,6 L5,6 L5,7 L4,7 L4,8 L0,8 L0,7 L-1,7 L-1,6 L-2,6 L-2,2 L-1,2 L-1,1 L0,1 Z " fill="#F3B9CB" transform="translate(6,46)"/>
<path d="M0,0 L1,0 L1,1 L2,1 L2,2 L7,2 L7,1 L8,1 L8,0 L9,0 L9,2 L8,2 L8,3 L7,3 L7,4 L2,4 L2,3 L1,3 L1,2 L0,2 Z " fill="#353541" transform="translate(17,48)"/>
<path d="M0,0 L1,0 L1,1 L0,1 Z M-1,2 L0,2 L0,3 L-1,3 Z " fill="#373743" transform="translate(26,48)"/>
<path d="M0,0 L1,0 L1,1 L3,1 L3,2 L4,2 L4,3 L5,3 L5,9 L4,9 L4,8 L2,8 L2,7 L1,7 L1,2 L0,2 Z " fill="#93A4B4" transform="translate(37,29)"/>
<path d="M0,0 L2,0 L2,1 L1,1 L1,2 L0,2 L0,3 L-1,3 L-1,4 L-2,4 L-2,2 L-1,2 L-1,1 L0,1 Z M-3,4 L-2,4 L-2,5 L-3,5 Z M-4,5 L-3,5 L-3,7 L-4,7 Z M-5,7 L-4,7 L-4,8 L-5,8 Z M-6,9 L-5,9 L-5,10 L-6,10 Z " fill="#D6DCE0" transform="translate(18,38)"/>
<path d="M0,0 L1,0 L1,1 L0,1 Z " fill="#D3D9DE" transform="translate(15,41)"/>
<path d="M0,0 L1,0 L1,1 L0,1 Z M-1,1 L0,1 L0,2 L-1,2 Z M-2,2 L-1,2 L-1,3 L-2,3 Z M-3,3 L-2,3 L-2,4 L-3,4 Z " fill="#353541" transform="translate(4,43)"/>
<path d="M0,0 L2,0 L2,1 L1,1 L1,2 L0,2 L0,3 L-1,3 L-1,4 L-2,4 L-2,5 L-3,5 L-3,6 L-4,6 L-4,7 L-5,7 L-5,8 L-6,8 L-6,6 L-5,6 L-5,5 L-4,5 L-4,4 L-3,4 L-3,2 L-2,2 L-2,1 L0,1 Z " fill="#BBC4CB" transform="translate(20,39)"/>
<path d="M0,0 L2,0 L2,1 L1,1 L1,2 L0,2 L0,3 L-1,3 L-1,6 L-2,6 L-2,2 L-1,2 L-1,1 L0,1 Z " fill="#F3B9CB" transform="translate(6,46)"/>
<path d="M0,0 L1,0 L1,1 L0,1 Z " fill="#343441" opacity="0.972549" transform="translate(0,49)"/>
<path d="M0,0 L1,0 L1,1 L0,1 Z M-1,1 L0,1 L0,2 L-1,2 Z " fill="#353541" transform="translate(19,26)"/>
<path d="M0,0 L1,0 L1,7 L0,7 Z " fill="#423E4A" transform="translate(54,40)"/>
<path d="M0,0 L1,0 L1,1 L0,1 Z " fill="#343441" opacity="0.972549" transform="translate(45,33)"/>
<path d="M0,0 L2,0 L2,1 L1,1 L1,2 L0,2 L0,3 L-1,3 L-1,4 L-2,4 L-2,2 L-1,2 L-1,1 L0,1 Z " fill="#BBC4CB" transform="translate(22,28)"/>
<path d="M0,0 L3,0 L3,1 L2,1 L2,2 L1,2 L1,3 L0,3 Z " fill="#353541" transform="translate(16,47)"/>
<path d="M0,0 L1,0 L1,1 L0,1 Z " fill="#33333F" opacity="0.25490198" transform="translate(7,41)"/>
<path d="M0,0 L2,0 L2,1 L1,1 L1,2 L0,2 L0,3 L-2,3 L-2,2 L-1,2 L-1,1 L0,1 Z " fill="#D6DCE0" transform="translate(17,38)"/>
<path d="M0,0 L1,0 L1,1 L0,1 Z " fill="#343440" opacity="0.99215686" transform="translate(37,24)"/>
<path d="M0,0 L2,0 L2,1 L1,1 L1,2 L0,2 L0,3 L-1,3 L-1,1 L0,1 Z " fill="#B3BCC3" transform="translate(18,40)"/>
<path d="M0,0 L1,0 L1,1 L0,1 Z " fill="#343441" opacity="0.7411765" transform="translate(11,63)"/>
<path d="M0,0 L4,0 L4,1 L0,1 Z " fill="#B4BDC5" transform="translate(11,59)"/>
<path d="M0,0 L1,0 L1,4 L0,4 Z " fill="#E1CCD6" transform="translate(53,52)"/>
<path d="M0,0 L1,0 L1,1 L2,1 L2,3 L1,3 L1,2 L0,2 Z " fill="#B7C0C7" transform="translate(49,48)"/>
<path d="M0,0 L1,0 L1,4 L0,4 Z " fill="#E3ADBF" transform="translate(4,48)"/>
<path d="M0,0 L1,0 L1,4 L0,4 Z " fill="#EAB3C5" transform="translate(59,41)"/>
<path d="M0,0 L1,0 L1,1 L0,1 Z " fill="#343440" opacity="0.74509805" transform="translate(3,43)"/>
<path d="M0,0 L1,0 L1,1 L0,1 Z " fill="#343441" opacity="0.8627451" transform="translate(63,42)"/>
<path d="M0,0 L1,0 L1,1 L0,1 Z " fill="#343441" opacity="0.8627451" transform="translate(51,38)"/>
<path d="M0,0 L1,0 L1,1 L0,1 Z " fill="#343440" opacity="0.8862745" transform="translate(12,38)"/>
<path d="M0,0 L1,0 L1,1 L0,1 Z " fill="#353540" opacity="0.90588236" transform="translate(61,37)"/>
<path d="M0,0 L2,0 L2,1 L1,1 L1,2 L-1,2 L-1,1 L0,1 Z " fill="#D6DCE0" transform="translate(37,36)"/>
<path d="M0,0 L1,0 L1,1 L0,1 Z " fill="#343440" opacity="0.9607843" transform="translate(53,36)"/>
<path d="M0,0 L1,0 L1,4 L0,4 Z " fill="#484C59" transform="translate(42,35)"/>
<path d="M0,0 L1,0 L1,1 L0,1 Z " fill="#343440" opacity="0.8980392" transform="translate(58,35)"/>
<path d="M0,0 L1,0 L1,1 L0,1 Z " fill="#333341" opacity="0.36862746" transform="translate(15,30)"/>
<path d="M0,0 L1,0 L1,1 L0,1 Z " fill="#343440" opacity="0.7647059" transform="translate(43,28)"/>
<path d="M0,0 L1,0 L1,1 L0,1 Z " fill="#353540" opacity="0.9647059" transform="translate(20,25)"/>
<path d="M0,0 L1,0 L1,1 L0,1 Z " fill="#343440" opacity="0.827451" transform="translate(27,22)"/>
<path d="M0,0 L1,0 L1,1 L0,1 Z " fill="#343440" opacity="0.99215686" transform="translate(7,61)"/>
<path d="M0,0 L1,0 L1,1 L0,1 Z " fill="#343440" opacity="0.9529412" transform="translate(5,59)"/>
<path d="M0,0 L1,0 L1,1 L0,1 Z " fill="#353540" opacity="0.69803923" transform="translate(2,55)"/>
<path d="M0,0 L2,0 L2,1 L1,1 L1,2 L0,2 Z " fill="#BDC3CB" transform="translate(7,54)"/>
<path d="M0,0 L3,0 L3,1 L0,1 Z " fill="#B3BCC2" transform="translate(20,49)"/>
<path d="M0,0 L1,0 L1,3 L0,3 Z " fill="#373743" transform="translate(26,47)"/>
<path d="M0,0 L1,0 L1,2 L-1,2 L-1,1 L0,1 Z " fill="#ACB4BC" transform="translate(13,47)"/>
<path d="M0,0 L3,0 L3,1 L0,1 Z " fill="#41424E" transform="translate(16,47)"/>
<path d="M0,0 L2,0 L2,1 L1,1 L1,2 L0,2 Z " fill="#D4DBDF" transform="translate(12,46)"/>
<path d="M0,0 L2,0 L2,1 L1,1 L1,2 L0,2 Z " fill="#B8C1C9" transform="translate(14,45)"/>
<path d="M0,0 L2,0 L2,1 L1,1 L1,2 L0,2 Z " fill="#D6DCE0" transform="translate(13,44)"/>
<path d="M0,0 L3,0 L3,1 L0,1 Z " fill="#BAC3CB" transform="translate(25,42)"/>
<path d="M0,0 L1,0 L1,3 L0,3 Z " fill="#7B6574" transform="translate(54,40)"/>
<path d="M0,0 L2,0 L2,1 L1,1 L1,2 L0,2 Z " fill="#BAC3CB" transform="translate(33,40)"/>
<path d="M0,0 L1,0 L1,1 L0,1 Z " fill="#343441" opacity="0.7529412" transform="translate(47,37)"/>
<path d="M0,0 L1,0 L1,1 L0,1 Z " fill="#31313B" opacity="0.101960786" transform="translate(46,34)"/>
<path d="M0,0 L1,0 L1,1 L0,1 Z " fill="#333340" opacity="0.15686275" transform="translate(14,33)"/>
<path d="M0,0 L1,0 L1,1 L0,1 Z " fill="#333340" opacity="0.40784314" transform="translate(34,22)"/>
<path d="M0,0 L1,0 L1,1 L0,1 Z " fill="#333340" opacity="0.078431375" transform="translate(30,21)"/>
<path d="M0,0 L1,0 L1,1 L0,1 Z " fill="#343440" opacity="0.007843138" transform="translate(54,63)"/>
<path d="M0,0 L1,0 L1,1 L0,1 Z " fill="#353541" opacity="0.6784314" transform="translate(52,63)"/>
<path d="M0,0 L1,0 L1,1 L0,1 Z " fill="#353541" opacity="0.9254902" transform="translate(13,63)"/>
<path d="M0,0 L1,0 L1,1 L0,1 Z " fill="#333341" opacity="0.2901961" transform="translate(9,63)"/>
<path d="M0,0 L1,0 L1,1 L0,1 Z " fill="#35353F" opacity="0.05490196" transform="translate(56,61)"/>
<path d="M0,0 L2,0 L2,1 L0,1 Z " fill="#9BA2AA" transform="translate(11,59)"/>
<path d="M0,0 L1,0 L1,2 L0,2 Z " fill="#3C3D49" transform="translate(53,57)"/>
<path d="M0,0 L1,0 L1,2 L0,2 Z " fill="#C8C4CD" transform="translate(52,53)"/>
<path d="M0,0 L1,0 L1,1 L0,1 Z M-1,1 L0,1 L0,2 L-1,2 Z " fill="#BBC4CB" transform="translate(9,54)"/>
<path d="M0,0 L1,0 L1,2 L0,2 Z " fill="#E7C8D3" transform="translate(53,52)"/>
<path d="M0,0 L1,0 L1,2 L0,2 Z " fill="#D5DADE" transform="translate(52,51)"/>
<path d="M0,0 L1,0 L1,2 L0,2 Z " fill="#C1C3CB" transform="translate(51,51)"/>
<path d="M0,0 L2,0 L2,1 L0,1 Z " fill="#4E505A" transform="translate(19,52)"/>
<path d="M0,0 L1,0 L1,1 L0,1 Z " fill="#313142" opacity="0.12156863" transform="translate(63,50)"/>
<path d="M0,0 L1,0 L1,2 L0,2 Z " fill="#CDC0CA" transform="translate(12,49)"/>
<path d="M0,0 L2,0 L2,1 L0,1 Z " fill="#E0ABBD" transform="translate(52,49)"/>
<path d="M0,0 L1,0 L1,2 L0,2 Z " fill="#886E7C" transform="translate(59,47)"/>
<path d="M0,0 L1,0 L1,1 L0,1 Z " fill="#343440" opacity="0.627451" transform="translate(0,47)"/>
<path d="M0,0 L2,0 L2,1 L0,1 Z " fill="#645563" transform="translate(7,45)"/>
<path d="M0,0 L1,0 L1,1 L0,1 Z " fill="#343440" opacity="0.6745098" transform="translate(1,45)"/>
<path d="M0,0 L2,0 L2,1 L0,1 Z " fill="#B3B9BF" transform="translate(44,44)"/>
<path d="M0,0 L1,0 L1,2 L0,2 Z " fill="#B78F9F" transform="translate(59,41)"/>
<path d="M0,0 L1,0 L1,1 L0,1 Z " fill="#333340" opacity="0.3882353" transform="translate(4,42)"/>
<path d="M0,0 L1,0 L1,1 L0,1 Z " fill="#343440" opacity="0.8392157" transform="translate(10,41)"/>
<path d="M0,0 L1,0 L1,1 L0,1 Z " fill="#353540" opacity="0.3764706" transform="translate(63,40)"/>
<path d="M0,0 L2,0 L2,1 L0,1 Z " fill="#B7C1C9" transform="translate(37,40)"/>
<path d="M0,0 L2,0 L2,1 L0,1 Z " fill="#F2B8CA" transform="translate(55,39)"/>
<path d="M0,0 L2,0 L2,1 L0,1 Z " fill="#B8C1C8" transform="translate(20,39)"/>
<path d="M0,0 L1,0 L1,1 L0,1 Z " fill="#32323D" opacity="0.02745098" transform="translate(50,38)"/>
<path d="M0,0 L2,0 L2,1 L0,1 Z " fill="#D2D9DD" transform="translate(18,37)"/>
<path d="M0,0 L1,0 L1,2 L0,2 Z " fill="#BBC2C8" transform="translate(19,35)"/>
<path d="M0,0 L1,0 L1,1 L0,1 Z " fill="#333340" opacity="0.5254902" transform="translate(13,36)"/>
<path d="M0,0 L1,0 L1,1 L0,1 Z " fill="#343440" opacity="0.85490197" transform="translate(56,35)"/>
<path d="M0,0 L1,0 L1,1 L0,1 Z " fill="#343440" opacity="0.5764706" transform="translate(54,35)"/>
<path d="M0,0 L1,0 L1,2 L0,2 Z " fill="#3E3F4B" transform="translate(18,33)"/>
<path d="M0,0 L1,0 L1,2 L0,2 Z " fill="#8291A0" transform="translate(41,32)"/>
<path d="M0,0 L1,0 L1,1 L0,1 Z " fill="#353540" opacity="0.9843137" transform="translate(15,32)"/>
<path d="M0,0 L1,0 L1,1 L0,1 Z " fill="#353540" opacity="0.35686275" transform="translate(45,31)"/>
<path d="M0,0 L1,0 L1,2 L0,2 Z " fill="#B0BBC5" transform="translate(37,29)"/>
<path d="M0,0 L2,0 L2,1 L0,1 Z " fill="#383844" transform="translate(38,29)"/>
<path d="M0,0 L1,0 L1,1 L0,1 Z " fill="#353540" opacity="0.8509804" transform="translate(16,29)"/>
<path d="M0,0 L1,0 L1,1 L0,1 Z " fill="#353541" opacity="0.007843138" transform="translate(42,26)"/>
<path d="M0,0 L2,0 L2,1 L0,1 Z " fill="#4C4E59" transform="translate(33,26)"/>
<path d="M0,0 L2,0 L2,1 L0,1 Z " fill="#989FA7" transform="translate(26,26)"/>
<path d="M0,0 L2,0 L2,1 L0,1 Z " fill="#3F404B" transform="translate(29,25)"/>
<path d="M0,0 L1,0 L1,1 L0,1 Z " fill="#343440" opacity="0.72156864" transform="translate(21,24)"/>
<path d="M0,0 L1,0 L1,1 L0,1 Z " fill="#343440" opacity="0.6745098" transform="translate(23,23)"/>
<path d="M0,0 L1,0 L1,1 L0,1 Z " fill="#343440" opacity="0.36078432" transform="translate(25,22)"/>
<path d="M0,0 L1,0 L1,1 L0,1 Z " fill="#323240" opacity="0.2784314" transform="translate(53,63)"/>
<path d="M0,0 L1,0 L1,1 L0,1 Z " fill="#353541" opacity="0.83137256" transform="translate(51,63)"/>
<path d="M0,0 L1,0 L1,1 L0,1 Z " fill="#353540" opacity="0.94509804" transform="translate(50,63)"/>
<path d="M0,0 L1,0 L1,1 L0,1 Z " fill="#343440" opacity="0.98039216" transform="translate(14,63)"/>
<path d="M0,0 L1,0 L1,1 L0,1 Z " fill="#343440" opacity="0.8745098" transform="translate(12,63)"/>
<path d="M0,0 L1,0 L1,1 L0,1 Z " fill="#343441" opacity="0.5372549" transform="translate(10,63)"/>
<path d="M0,0 L1,0 L1,1 L0,1 Z " fill="#343440" opacity="0.007843138" transform="translate(8,63)"/>
<path d="M0,0 L1,0 L1,1 L0,1 Z " fill="#343441" opacity="0.07450981" transform="translate(55,62)"/>
<path d="M0,0 L1,0 L1,1 L0,1 Z " fill="#343440" opacity="0.7882353" transform="translate(54,62)"/>
<path d="M0,0 L1,0 L1,1 L0,1 Z " fill="#343440" opacity="0.85490197" transform="translate(8,62)"/>
<path d="M0,0 L1,0 L1,1 L0,1 Z " fill="#35353F" opacity="0.3019608" transform="translate(7,62)"/>
<path d="M0,0 L1,0 L1,1 L0,1 Z " fill="#343441" opacity="0.8156863" transform="translate(55,61)"/>
<path d="M0,0 L1,0 L1,1 L0,1 Z " fill="#343440" opacity="0.40392157" transform="translate(6,61)"/>
<path d="M0,0 L1,0 L1,1 L0,1 Z " fill="#35353F" opacity="0.49019608" transform="translate(56,60)"/>
<path d="M0,0 L1,0 L1,1 L0,1 Z " fill="#333340" opacity="0.30980393" transform="translate(5,60)"/>
<path d="M0,0 L1,0 L1,1 L0,1 Z " fill="#343441" opacity="0.06666667" transform="translate(57,59)"/>
<path d="M0,0 L1,0 L1,1 L0,1 Z " fill="#343440" opacity="0.93333334" transform="translate(56,59)"/>
<path d="M0,0 L1,0 L1,1 L0,1 Z " fill="#4E505B" transform="translate(52,59)"/>
<path d="M0,0 L1,0 L1,1 L0,1 Z " fill="#99A0A8" transform="translate(51,59)"/>
<path d="M0,0 L1,0 L1,1 L0,1 Z " fill="#B4BCC4" transform="translate(50,59)"/>
<path d="M0,0 L1,0 L1,1 L0,1 Z " fill="#A7AFB7" transform="translate(13,59)"/>
<path d="M0,0 L1,0 L1,1 L0,1 Z " fill="#8B9199" transform="translate(11,59)"/>
<path d="M0,0 L1,0 L1,1 L0,1 Z " fill="#5D606B" transform="translate(10,59)"/>
<path d="M0,0 L1,0 L1,1 L0,1 Z " fill="#30303E" opacity="0.14509805" transform="translate(4,59)"/>
<path d="M0,0 L1,0 L1,1 L0,1 Z " fill="#343440" opacity="0.047058824" transform="translate(58,58)"/>
<path d="M0,0 L1,0 L1,1 L0,1 Z " fill="#343441" opacity="0.8" transform="translate(57,58)"/>
<path d="M0,0 L1,0 L1,1 L0,1 Z " fill="#B0B8C0" transform="translate(52,58)"/>
<path d="M0,0 L1,0 L1,1 L0,1 Z " fill="#8F959E" transform="translate(9,58)"/>
<path d="M0,0 L1,0 L1,1 L0,1 Z " fill="#373742" transform="translate(8,58)"/>
<path d="M0,0 L1,0 L1,1 L0,1 Z " fill="#343440" opacity="0.6862745" transform="translate(4,58)"/>
<path d="M0,0 L1,0 L1,1 L0,1 Z " fill="#353540" opacity="0.019607844" transform="translate(59,57)"/>
<path d="M0,0 L1,0 L1,1 L0,1 Z " fill="#343440" opacity="0.7137255" transform="translate(58,57)"/>
<path d="M0,0 L1,0 L1,1 L0,1 Z " fill="#676B75" transform="translate(53,57)"/>
<path d="M0,0 L1,0 L1,1 L0,1 Z " fill="#81868F" transform="translate(8,57)"/>
<path d="M0,0 L1,0 L1,1 L0,1 Z " fill="#34343D" opacity="0.21176471" transform="translate(3,57)"/>
<path d="M0,0 L1,0 L1,1 L0,1 Z " fill="#353540" opacity="0.6039216" transform="translate(59,56)"/>
<path d="M0,0 L1,0 L1,1 L0,1 Z " fill="#534A57" transform="translate(54,56)"/>
<path d="M0,0 L1,0 L1,1 L0,1 Z " fill="#C1ADB9" transform="translate(53,56)"/>
<path d="M0,0 L1,0 L1,1 L0,1 Z " fill="#53555F" transform="translate(7,56)"/>
<path d="M0,0 L1,0 L1,1 L0,1 Z " fill="#353540" opacity="0.7176471" transform="translate(3,56)"/>
<path d="M0,0 L1,0 L1,1 L0,1 Z " fill="#353540" opacity="0.023529412" transform="translate(2,56)"/>
<path d="M0,0 L1,0 L1,1 L0,1 Z " fill="#343440" opacity="0.34509805" transform="translate(60,55)"/>
<path d="M0,0 L1,0 L1,1 L0,1 Z " fill="#574C5A" transform="translate(55,55)"/>
<path d="M0,0 L1,0 L1,1 L0,1 Z " fill="#E8B1C3" transform="translate(54,55)"/>
<path d="M0,0 L1,0 L1,1 L0,1 Z " fill="#BDC3CB" transform="translate(52,55)"/>
<path d="M0,0 L1,0 L1,1 L0,1 Z " fill="#8E949D" transform="translate(7,55)"/>
<path d="M0,0 L1,0 L1,1 L0,1 Z " fill="#343440" opacity="0.011764706" transform="translate(1,55)"/>
<path d="M0,0 L1,0 L1,1 L0,1 Z " fill="#363640" opacity="0.10980392" transform="translate(61,54)"/>
<path d="M0,0 L1,0 L1,1 L0,1 Z " fill="#343440" opacity="0.9372549" transform="translate(60,54)"/>
<path d="M0,0 L1,0 L1,1 L0,1 Z " fill="#4A4350" transform="translate(56,54)"/>
<path d="M0,0 L1,0 L1,1 L0,1 Z " fill="#DEAABC" transform="translate(55,54)"/>
<path d="M0,0 L1,0 L1,1 L0,1 Z " fill="#E3CBD6" transform="translate(53,54)"/>
<path d="M0,0 L1,0 L1,1 L0,1 Z " fill="#B1B8C1" transform="translate(7,54)"/>
<path d="M0,0 L1,0 L1,1 L0,1 Z " fill="#363743" transform="translate(6,54)"/>
<path d="M0,0 L1,0 L1,1 L0,1 Z " fill="#343440" opacity="0.53333336" transform="translate(1,54)"/>
<path d="M0,0 L1,0 L1,1 L0,1 Z " fill="#343441" opacity="0.69411767" transform="translate(61,53)"/>
<path d="M0,0 L1,0 L1,1 L0,1 Z " fill="#383742" transform="translate(57,53)"/>
<path d="M0,0 L1,0 L1,1 L0,1 Z " fill="#C89BAC" transform="translate(56,53)"/>
<path d="M0,0 L1,0 L1,1 L0,1 Z " fill="#D3CBD3" transform="translate(52,53)"/>
<path d="M0,0 L1,0 L1,1 L0,1 Z " fill="#CDC0CB" transform="translate(10,53)"/>
<path d="M0,0 L1,0 L1,1 L0,1 Z " fill="#EABBCB" transform="translate(9,53)"/>
<path d="M0,0 L1,0 L1,1 L0,1 Z " fill="#F0BACB" transform="translate(7,53)"/>
<path d="M0,0 L1,0 L1,1 L0,1 Z " fill="#B78F9F" transform="translate(6,53)"/>
<path d="M0,0 L1,0 L1,1 L0,1 Z " fill="#48424F" transform="translate(5,53)"/>
<path d="M0,0 L1,0 L1,1 L0,1 Z " fill="#343441" opacity="0.9882353" transform="translate(1,53)"/>
<path d="M0,0 L1,0 L1,1 L0,1 Z " fill="#333340" opacity="0.15686275" transform="translate(0,53)"/>
<path d="M0,0 L1,0 L1,1 L0,1 Z " fill="#333341" opacity="0.21568628" transform="translate(62,52)"/>
<path d="M0,0 L1,0 L1,1 L0,1 Z " fill="#947786" transform="translate(57,52)"/>
<path d="M0,0 L1,0 L1,1 L0,1 Z " fill="#EBC2D1" transform="translate(53,52)"/>
<path d="M0,0 L1,0 L1,1 L0,1 Z " fill="#ACB4BB" transform="translate(24,52)"/>
<path d="M0,0 L1,0 L1,1 L0,1 Z " fill="#6A6E77" transform="translate(23,52)"/>
<path d="M0,0 L1,0 L1,1 L0,1 Z " fill="#4E505A" transform="translate(22,52)"/>
<path d="M0,0 L1,0 L1,1 L0,1 Z " fill="#3A3B47" transform="translate(21,52)"/>
<path d="M0,0 L1,0 L1,1 L0,1 Z " fill="#6A6E78" transform="translate(19,52)"/>
<path d="M0,0 L1,0 L1,1 L0,1 Z " fill="#ADB5BC" transform="translate(18,52)"/>
<path d="M0,0 L1,0 L1,1 L0,1 Z " fill="#D2BFCA" transform="translate(11,52)"/>
<path d="M0,0 L1,0 L1,1 L0,1 Z " fill="#E0ABBD" transform="translate(5,52)"/>
<path d="M0,0 L1,0 L1,1 L0,1 Z " fill="#443F4C" transform="translate(4,52)"/>
<path d="M0,0 L1,0 L1,1 L0,1 Z " fill="#343441" opacity="0.5686275" transform="translate(0,52)"/>
<path d="M0,0 L1,0 L1,1 L0,1 Z " fill="#343441" opacity="0.7254902" transform="translate(62,51)"/>
<path d="M0,0 L1,0 L1,1 L0,1 Z " fill="#4F4754" transform="translate(58,51)"/>
<path d="M0,0 L1,0 L1,1 L0,1 Z " fill="#F0B7C8" transform="translate(57,51)"/>
<path d="M0,0 L1,0 L1,1 L0,1 Z " fill="#F2BACB" transform="translate(53,51)"/>
<path d="M0,0 L1,0 L1,1 L0,1 Z " fill="#D7DBE0" transform="translate(52,51)"/>
<path d="M0,0 L1,0 L1,1 L0,1 Z " fill="#C4C0C8" transform="translate(51,51)"/>
<path d="M0,0 L1,0 L1,1 L0,1 Z " fill="#8E949C" transform="translate(25,51)"/>
<path d="M0,0 L1,0 L1,1 L0,1 Z " fill="#3C3D49" transform="translate(24,51)"/>
<path d="M0,0 L1,0 L1,1 L0,1 Z " fill="#3E3E4A" transform="translate(18,51)"/>
<path d="M0,0 L1,0 L1,1 L0,1 Z " fill="#9298A1" transform="translate(17,51)"/>
<path d="M0,0 L1,0 L1,1 L0,1 Z " fill="#C0C2CB" transform="translate(12,51)"/>
<path d="M0,0 L1,0 L1,1 L0,1 Z " fill="#F1B9CB" transform="translate(11,51)"/>
<path d="M0,0 L1,0 L1,1 L0,1 Z " fill="#AB8797" transform="translate(4,51)"/>
<path d="M0,0 L1,0 L1,1 L0,1 Z " fill="#343441" opacity="0.84705883" transform="translate(0,51)"/>
<path d="M0,0 L1,0 L1,1 L0,1 Z " fill="#AF8A99" transform="translate(58,50)"/>
<path d="M0,0 L1,0 L1,1 L0,1 Z " fill="#D4CAD2" transform="translate(52,50)"/>
<path d="M0,0 L1,0 L1,1 L0,1 Z " fill="#D3D8DC" transform="translate(51,50)"/>
<path d="M0,0 L1,0 L1,1 L0,1 Z " fill="#A7AFB6" transform="translate(50,50)"/>
<path d="M0,0 L1,0 L1,1 L0,1 Z " fill="#9FA6AE" transform="translate(26,50)"/>
<path d="M0,0 L1,0 L1,1 L0,1 Z " fill="#383945" transform="translate(17,50)"/>
<path d="M0,0 L1,0 L1,1 L0,1 Z " fill="#A1A8B0" transform="translate(16,50)"/>
<path d="M0,0 L1,0 L1,1 L0,1 Z " fill="#DEAABB" transform="translate(4,50)"/>
<path d="M0,0 L1,0 L1,1 L0,1 Z " fill="#343440" opacity="0.9607843" transform="translate(0,50)"/>
<path d="M0,0 L1,0 L1,1 L0,1 Z " fill="#353540" opacity="0.4509804" transform="translate(63,49)"/>
<path d="M0,0 L1,0 L1,1 L0,1 Z " fill="#47424D" transform="translate(59,49)"/>
<path d="M0,0 L1,0 L1,1 L0,1 Z " fill="#F1B7C9" transform="translate(58,49)"/>
<path d="M0,0 L1,0 L1,1 L0,1 Z " fill="#7D7C86" transform="translate(52,49)"/>
<path d="M0,0 L1,0 L1,1 L0,1 Z " fill="#BBC1C6" transform="translate(50,49)"/>
<path d="M0,0 L1,0 L1,1 L0,1 Z " fill="#585B64" transform="translate(26,49)"/>
<path d="M0,0 L1,0 L1,1 L0,1 Z " fill="#494A55" transform="translate(23,49)"/>
<path d="M0,0 L1,0 L1,1 L0,1 Z " fill="#979EA7" transform="translate(22,49)"/>
<path d="M0,0 L1,0 L1,1 L0,1 Z " fill="#959CA5" transform="translate(20,49)"/>
<path d="M0,0 L1,0 L1,1 L0,1 Z " fill="#444551" transform="translate(19,49)"/>
<path d="M0,0 L1,0 L1,1 L0,1 Z " fill="#5C5F69" transform="translate(16,49)"/>
<path d="M0,0 L1,0 L1,1 L0,1 Z " fill="#CFC0CB" transform="translate(12,49)"/>
<path d="M0,0 L1,0 L1,1 L0,1 Z " fill="#353540" opacity="0.75686276" transform="translate(63,48)"/>
<path d="M0,0 L1,0 L1,1 L0,1 Z " fill="#7E6876" transform="translate(53,48)"/>
<path d="M0,0 L1,0 L1,1 L0,1 Z " fill="#383945" transform="translate(52,48)"/>
<path d="M0,0 L1,0 L1,1 L0,1 Z " fill="#C4C9CE" transform="translate(51,48)"/>
<path d="M0,0 L1,0 L1,1 L0,1 Z " fill="#A4A9B1" transform="translate(49,48)"/>
<path d="M0,0 L1,0 L1,1 L0,1 Z " fill="#373742" transform="translate(24,48)"/>
<path d="M0,0 L1,0 L1,1 L0,1 Z " fill="#A4ABB3" transform="translate(23,48)"/>
<path d="M0,0 L1,0 L1,1 L0,1 Z " fill="#9DA4AD" transform="translate(19,48)"/>
<path d="M0,0 L1,0 L1,1 L0,1 Z " fill="#363642" transform="translate(18,48)"/>
<path d="M0,0 L1,0 L1,1 L0,1 Z " fill="#3A3B47" transform="translate(16,48)"/>
<path d="M0,0 L1,0 L1,1 L0,1 Z " fill="#AEABB5" transform="translate(12,48)"/>
<path d="M0,0 L1,0 L1,1 L0,1 Z " fill="#B991A0" transform="translate(4,48)"/>
<path d="M0,0 L1,0 L1,1 L0,1 Z " fill="#343441" opacity="0.8784314" transform="translate(0,48)"/>
<path d="M0,0 L1,0 L1,1 L0,1 Z " fill="#343440" opacity="0.92156863" transform="translate(63,47)"/>
<path d="M0,0 L1,0 L1,1 L0,1 Z " fill="#B991A1" transform="translate(59,47)"/>
<path d="M0,0 L1,0 L1,1 L0,1 Z " fill="#D7A5B7" transform="translate(54,47)"/>
<path d="M0,0 L1,0 L1,1 L0,1 Z " fill="#383743" transform="translate(53,47)"/>
<path d="M0,0 L1,0 L1,1 L0,1 Z " fill="#7B7E86" transform="translate(51,47)"/>
<path d="M0,0 L1,0 L1,1 L0,1 Z " fill="#9FA6AE" transform="translate(48,47)"/>
<path d="M0,0 L1,0 L1,1 L0,1 Z " fill="#747882" transform="translate(26,47)"/>
<path d="M0,0 L1,0 L1,1 L0,1 Z " fill="#434450" transform="translate(25,47)"/>
<path d="M0,0 L1,0 L1,1 L0,1 Z " fill="#848A93" transform="translate(24,47)"/>
<path d="M0,0 L1,0 L1,1 L0,1 Z " fill="#7A7E88" transform="translate(18,47)"/>
<path d="M0,0 L1,0 L1,1 L0,1 Z " fill="#777B84" transform="translate(16,47)"/>
<path d="M0,0 L1,0 L1,1 L0,1 Z " fill="#A6ADB4" transform="translate(13,47)"/>
<path d="M0,0 L1,0 L1,1 L0,1 Z " fill="#D6DCE0" transform="translate(12,47)"/>
<path d="M0,0 L1,0 L1,1 L0,1 Z " fill="#A88997" transform="translate(11,47)"/>
<path d="M0,0 L1,0 L1,1 L0,1 Z " fill="#EDB4C7" transform="translate(5,47)"/>
<path d="M0,0 L1,0 L1,1 L0,1 Z " fill="#534A57" transform="translate(4,47)"/>
<path d="M0,0 L1,0 L1,1 L0,1 Z " fill="#DAA8B8" transform="translate(59,46)"/>
<path d="M0,0 L1,0 L1,1 L0,1 Z " fill="#866D7C" transform="translate(54,46)"/>
<path d="M0,0 L1,0 L1,1 L0,1 Z " fill="#383945" transform="translate(51,46)"/>
<path d="M0,0 L1,0 L1,1 L0,1 Z " fill="#B7BCC2" transform="translate(50,46)"/>
<path d="M0,0 L1,0 L1,1 L0,1 Z " fill="#9FA5AD" transform="translate(47,46)"/>
<path d="M0,0 L1,0 L1,1 L0,1 Z " fill="#AAB1B9" transform="translate(14,46)"/>
<path d="M0,0 L1,0 L1,1 L0,1 Z " fill="#ABAFB5" transform="translate(12,46)"/>
<path d="M0,0 L1,0 L1,1 L0,1 Z " fill="#3A3845" transform="translate(11,46)"/>
<path d="M0,0 L1,0 L1,1 L0,1 Z " fill="#9D7D8C" transform="translate(10,46)"/>
<path d="M0,0 L1,0 L1,1 L0,1 Z " fill="#F2B8CA" transform="translate(9,46)"/>
<path d="M0,0 L1,0 L1,1 L0,1 Z " fill="#DCA9BA" transform="translate(6,46)"/>
<path d="M0,0 L1,0 L1,1 L0,1 Z " fill="#655664" transform="translate(5,46)"/>
<path d="M0,0 L1,0 L1,1 L0,1 Z " fill="#343441" opacity="0.24705882" transform="translate(0,46)"/>
<path d="M0,0 L1,0 L1,1 L0,1 Z " fill="#EBB3C5" transform="translate(59,45)"/>
<path d="M0,0 L1,0 L1,1 L0,1 Z " fill="#615461" transform="translate(54,45)"/>
<path d="M0,0 L1,0 L1,1 L0,1 Z " fill="#51525D" transform="translate(50,45)"/>
<path d="M0,0 L1,0 L1,1 L0,1 Z " fill="#D1D7DB" transform="translate(49,45)"/>
<path d="M0,0 L1,0 L1,1 L0,1 Z " fill="#A4A8B0" transform="translate(46,45)"/>
<path d="M0,0 L1,0 L1,1 L0,1 Z " fill="#B9C1C8" transform="translate(45,45)"/>
<path d="M0,0 L1,0 L1,1 L0,1 Z " fill="#B6BBC1" transform="translate(14,45)"/>
<path d="M0,0 L1,0 L1,1 L0,1 Z " fill="#6B6D77" transform="translate(12,45)"/>
<path d="M0,0 L1,0 L1,1 L0,1 Z " fill="#433F4B" transform="translate(9,45)"/>
<path d="M0,0 L1,0 L1,1 L0,1 Z " fill="#584D5B" transform="translate(7,45)"/>
<path d="M0,0 L1,0 L1,1 L0,1 Z " fill="#383743" transform="translate(6,45)"/>
<path d="M0,0 L1,0 L1,1 L0,1 Z " fill="#787A83" transform="translate(49,44)"/>
<path d="M0,0 L1,0 L1,1 L0,1 Z " fill="#AFB7BE" transform="translate(44,44)"/>
<path d="M0,0 L1,0 L1,1 L0,1 Z " fill="#A1A7AF" transform="translate(15,44)"/>
<path d="M0,0 L1,0 L1,1 L0,1 Z " fill="#C0C5CA" transform="translate(13,44)"/>
<path d="M0,0 L1,0 L1,1 L0,1 Z " fill="#383844" transform="translate(12,44)"/>
<path d="M0,0 L1,0 L1,1 L0,1 Z " fill="#353540" opacity="0.8117647" transform="translate(2,44)"/>
<path d="M0,0 L1,0 L1,1 L0,1 Z " fill="#353540" opacity="0.050980393" transform="translate(1,44)"/>
<path d="M0,0 L1,0 L1,1 L0,1 Z " fill="#DAA8B8" transform="translate(59,43)"/>
<path d="M0,0 L1,0 L1,1 L0,1 Z " fill="#403C48" transform="translate(54,43)"/>
<path d="M0,0 L1,0 L1,1 L0,1 Z " fill="#868991" transform="translate(48,43)"/>
<path d="M0,0 L1,0 L1,1 L0,1 Z " fill="#C4CBD0" transform="translate(44,43)"/>
<path d="M0,0 L1,0 L1,1 L0,1 Z " fill="#A5ADB4" transform="translate(43,43)"/>
<path d="M0,0 L1,0 L1,1 L0,1 Z " fill="#A4ABB4" transform="translate(16,43)"/>
<path d="M0,0 L1,0 L1,1 L0,1 Z " fill="#D3D9DD" transform="translate(15,43)"/>
<path d="M0,0 L1,0 L1,1 L0,1 Z " fill="#71737C" transform="translate(13,43)"/>
<path d="M0,0 L1,0 L1,1 L0,1 Z " fill="#343440" opacity="0.06666667" transform="translate(2,43)"/>
<path d="M0,0 L1,0 L1,1 L0,1 Z " fill="#5D505E" transform="translate(54,42)"/>
<path d="M0,0 L1,0 L1,1 L0,1 Z " fill="#90939B" transform="translate(47,42)"/>
<path d="M0,0 L1,0 L1,1 L0,1 Z " fill="#D3D8DC" transform="translate(43,42)"/>
<path d="M0,0 L1,0 L1,1 L0,1 Z " fill="#A1A6AD" transform="translate(42,42)"/>
<path d="M0,0 L1,0 L1,1 L0,1 Z " fill="#B7BFC6" transform="translate(41,42)"/>
<path d="M0,0 L1,0 L1,1 L0,1 Z " fill="#BAC3CB" transform="translate(29,42)"/>
<path d="M0,0 L1,0 L1,1 L0,1 Z " fill="#BBC3CA" transform="translate(28,42)"/>
<path d="M0,0 L1,0 L1,1 L0,1 Z " fill="#BAC4CB" transform="translate(27,42)"/>
<path d="M0,0 L1,0 L1,1 L0,1 Z " fill="#BBC3CB" transform="translate(25,42)"/>
<path d="M0,0 L1,0 L1,1 L0,1 Z " fill="#AFB7BF" transform="translate(17,42)"/>
<path d="M0,0 L1,0 L1,1 L0,1 Z " fill="#C3C8CD" transform="translate(16,42)"/>
<path d="M0,0 L1,0 L1,1 L0,1 Z " fill="#BBC0C6" transform="translate(14,42)"/>
<path d="M0,0 L1,0 L1,1 L0,1 Z " fill="#383843" transform="translate(13,42)"/>
<path d="M0,0 L1,0 L1,1 L0,1 Z " fill="#343440" opacity="0.8392157" transform="translate(5,42)"/>
<path d="M0,0 L1,0 L1,1 L0,1 Z " fill="#333340" opacity="0.011764706" transform="translate(3,42)"/>
<path d="M0,0 L1,0 L1,1 L0,1 Z " fill="#343440" opacity="0.6509804" transform="translate(63,41)"/>
<path d="M0,0 L1,0 L1,1 L0,1 Z " fill="#866D7C" transform="translate(59,41)"/>
<path d="M0,0 L1,0 L1,1 L0,1 Z " fill="#787A83" transform="translate(46,41)"/>
<path d="M0,0 L1,0 L1,1 L0,1 Z " fill="#D3D9DD" transform="translate(45,41)"/>
<path d="M0,0 L1,0 L1,1 L0,1 Z " fill="#C0C7CB" transform="translate(41,41)"/>
<path d="M0,0 L1,0 L1,1 L0,1 Z " fill="#AEB7C0" transform="translate(40,41)"/>
<path d="M0,0 L1,0 L1,1 L0,1 Z " fill="#BAC4CB" transform="translate(33,41)"/>
<path d="M0,0 L1,0 L1,1 L0,1 Z " fill="#BBC4CA" transform="translate(32,41)"/>
<path d="M0,0 L1,0 L1,1 L0,1 Z " fill="#BBC3CB" transform="translate(31,41)"/>
<path d="M0,0 L1,0 L1,1 L0,1 Z " fill="#BAC4CB" transform="translate(25,41)"/>
<path d="M0,0 L1,0 L1,1 L0,1 Z " fill="#BBC4CA" transform="translate(23,41)"/>
<path d="M0,0 L1,0 L1,1 L0,1 Z " fill="#B8BEC3" transform="translate(17,41)"/>
<path d="M0,0 L1,0 L1,1 L0,1 Z " fill="#565863" transform="translate(14,41)"/>
<path d="M0,0 L1,0 L1,1 L0,1 Z " fill="#353541" opacity="0.16862746" transform="translate(9,41)"/>
<path d="M0,0 L1,0 L1,1 L0,1 Z " fill="#333341" opacity="0.27450982" transform="translate(8,41)"/>
<path d="M0,0 L1,0 L1,1 L0,1 Z " fill="#303040" opacity="0.1254902" transform="translate(6,41)"/>
<path d="M0,0 L1,0 L1,1 L0,1 Z " fill="#45404D" transform="translate(59,40)"/>
<path d="M0,0 L1,0 L1,1 L0,1 Z " fill="#F0B6C9" transform="translate(58,40)"/>
<path d="M0,0 L1,0 L1,1 L0,1 Z " fill="#766270" transform="translate(54,40)"/>
<path d="M0,0 L1,0 L1,1 L0,1 Z " fill="#5A5B66" transform="translate(45,40)"/>
<path d="M0,0 L1,0 L1,1 L0,1 Z " fill="#C6CCD1" transform="translate(44,40)"/>
<path d="M0,0 L1,0 L1,1 L0,1 Z " fill="#CAD2D8" transform="translate(39,40)"/>
<path d="M0,0 L1,0 L1,1 L0,1 Z " fill="#B8C1C9" transform="translate(37,40)"/>
<path d="M0,0 L1,0 L1,1 L0,1 Z " fill="#BBC3CB" transform="translate(33,40)"/>
<path d="M0,0 L1,0 L1,1 L0,1 Z " fill="#BAC4CB" transform="translate(23,40)"/>
<path d="M0,0 L1,0 L1,1 L0,1 Z " fill="#BBC3CB" transform="translate(22,40)"/>
<path d="M0,0 L1,0 L1,1 L0,1 Z " fill="#A8B1B7" transform="translate(19,40)"/>
<path d="M0,0 L1,0 L1,1 L0,1 Z " fill="#BDC3C9" transform="translate(18,40)"/>
<path d="M0,0 L1,0 L1,1 L0,1 Z " fill="#83868E" transform="translate(15,40)"/>
<path d="M0,0 L1,0 L1,1 L0,1 Z " fill="#333340" opacity="0.29411766" transform="translate(10,40)"/>
<path d="M0,0 L1,0 L1,1 L0,1 Z " fill="#343440" opacity="0.043137256" transform="translate(63,39)"/>
<path d="M0,0 L1,0 L1,1 L0,1 Z " fill="#343440" opacity="0.9490196" transform="translate(62,39)"/>
<path d="M0,0 L1,0 L1,1 L0,1 Z " fill="#927585" transform="translate(58,39)"/>
<path d="M0,0 L1,0 L1,1 L0,1 Z " fill="#A98696" transform="translate(55,39)"/>
<path d="M0,0 L1,0 L1,1 L0,1 Z " fill="#383742" transform="translate(54,39)"/>
<path d="M0,0 L1,0 L1,1 L0,1 Z " fill="#353540" opacity="0.5647059" transform="translate(50,39)"/>
<path d="M0,0 L1,0 L1,1 L0,1 Z " fill="#343440" opacity="0.9607843" transform="translate(49,39)"/>
<path d="M0,0 L1,0 L1,1 L0,1 Z " fill="#454651" transform="translate(44,39)"/>
<path d="M0,0 L1,0 L1,1 L0,1 Z " fill="#B2B6BD" transform="translate(43,39)"/>
<path d="M0,0 L1,0 L1,1 L0,1 Z " fill="#D4DADE" transform="translate(37,39)"/>
<path d="M0,0 L1,0 L1,1 L0,1 Z " fill="#BFC8CF" transform="translate(36,39)"/>
<path d="M0,0 L1,0 L1,1 L0,1 Z " fill="#B5C1C9" transform="translate(35,39)"/>
<path d="M0,0 L1,0 L1,1 L0,1 Z " fill="#BBC4CA" transform="translate(34,39)"/>
<path d="M0,0 L1,0 L1,1 L0,1 Z " fill="#A1A6AE" transform="translate(20,39)"/>
<path d="M0,0 L1,0 L1,1 L0,1 Z " fill="#CFD5DA" transform="translate(19,39)"/>
<path d="M0,0 L1,0 L1,1 L0,1 Z " fill="#B0B5BB" transform="translate(16,39)"/>
<path d="M0,0 L1,0 L1,1 L0,1 Z " fill="#383843" transform="translate(15,39)"/>
<path d="M0,0 L1,0 L1,1 L0,1 Z " fill="#343441" opacity="0.64705884" transform="translate(11,39)"/>
<path d="M0,0 L1,0 L1,1 L0,1 Z " fill="#333341" opacity="0.6" transform="translate(62,38)"/>
<path d="M0,0 L1,0 L1,1 L0,1 Z " fill="#3D3A47" transform="translate(57,38)"/>
<path d="M0,0 L1,0 L1,1 L0,1 Z " fill="#383742" transform="translate(56,38)"/>
<path d="M0,0 L1,0 L1,1 L0,1 Z " fill="#32323D" opacity="0.18039216" transform="translate(49,38)"/>
<path d="M0,0 L1,0 L1,1 L0,1 Z " fill="#343441" opacity="0.8784314" transform="translate(48,38)"/>
<path d="M0,0 L1,0 L1,1 L0,1 Z " fill="#383945" transform="translate(43,38)"/>
<path d="M0,0 L1,0 L1,1 L0,1 Z " fill="#84878F" transform="translate(42,38)"/>
<path d="M0,0 L1,0 L1,1 L0,1 Z " fill="#D3DADF" transform="translate(41,38)"/>
<path d="M0,0 L1,0 L1,1 L0,1 Z " fill="#D2D9DD" transform="translate(36,38)"/>
<path d="M0,0 L1,0 L1,1 L0,1 Z " fill="#BCC5CC" transform="translate(35,38)"/>
<path d="M0,0 L1,0 L1,1 L0,1 Z " fill="#C9D0D6" transform="translate(20,38)"/>
<path d="M0,0 L1,0 L1,1 L0,1 Z " fill="#C6CBD0" transform="translate(17,38)"/>
<path d="M0,0 L1,0 L1,1 L0,1 Z " fill="#474854" transform="translate(16,38)"/>
<path d="M0,0 L1,0 L1,1 L0,1 Z " fill="#343440" opacity="0.0627451" transform="translate(11,38)"/>
<path d="M0,0 L1,0 L1,1 L0,1 Z " fill="#33333D" opacity="0.09803922" transform="translate(62,37)"/>
<path d="M0,0 L1,0 L1,1 L0,1 Z " fill="#343440" opacity="0.9764706" transform="translate(52,37)"/>
<path d="M0,0 L1,0 L1,1 L0,1 Z " fill="#343441" opacity="0.23137255" transform="translate(51,37)"/>
<path d="M0,0 L1,0 L1,1 L0,1 Z " fill="#30303C" opacity="0.08235294" transform="translate(48,37)"/>
<path d="M0,0 L1,0 L1,1 L0,1 Z " fill="#424553" transform="translate(42,37)"/>
<path d="M0,0 L1,0 L1,1 L0,1 Z " fill="#9CABB9" transform="translate(41,37)"/>
<path d="M0,0 L1,0 L1,1 L0,1 Z " fill="#C1CAD2" transform="translate(40,37)"/>
<path d="M0,0 L1,0 L1,1 L0,1 Z " fill="#C2CBD1" transform="translate(36,37)"/>
<path d="M0,0 L1,0 L1,1 L0,1 Z " fill="#BBC4CC" transform="translate(20,37)"/>
<path d="M0,0 L1,0 L1,1 L0,1 Z " fill="#CDD2D6" transform="translate(18,37)"/>
<path d="M0,0 L1,0 L1,1 L0,1 Z " fill="#53555E" transform="translate(17,37)"/>
<path d="M0,0 L1,0 L1,1 L0,1 Z " fill="#343440" opacity="0.99607843" transform="translate(13,37)"/>
<path d="M0,0 L1,0 L1,1 L0,1 Z " fill="#343440" opacity="0.2509804" transform="translate(12,37)"/>
<path d="M0,0 L1,0 L1,1 L0,1 Z " fill="#333340" opacity="0.23529412" transform="translate(61,36)"/>
<path d="M0,0 L1,0 L1,1 L0,1 Z " fill="#343440" opacity="0.93333334" transform="translate(60,36)"/>
<path d="M0,0 L1,0 L1,1 L0,1 Z " fill="#33333F" opacity="0.34901962" transform="translate(52,36)"/>
<path d="M0,0 L1,0 L1,1 L0,1 Z " fill="#353540" opacity="0.019607844" transform="translate(47,36)"/>
<path d="M0,0 L1,0 L1,1 L0,1 Z " fill="#353540" opacity="0.62352943" transform="translate(46,36)"/>
<path d="M0,0 L1,0 L1,1 L0,1 Z " fill="#9CABBA" transform="translate(39,36)"/>
<path d="M0,0 L1,0 L1,1 L0,1 Z " fill="#B6C1CC" transform="translate(38,36)"/>
<path d="M0,0 L1,0 L1,1 L0,1 Z " fill="#CBD3D8" transform="translate(37,36)"/>
<path d="M0,0 L1,0 L1,1 L0,1 Z " fill="#4D4E59" transform="translate(18,36)"/>
<path d="M0,0 L1,0 L1,1 L0,1 Z " fill="#333340" opacity="0.078431375" transform="translate(60,35)"/>
<path d="M0,0 L1,0 L1,1 L0,1 Z " fill="#343440" opacity="0.59607846" transform="translate(59,35)"/>
<path d="M0,0 L1,0 L1,1 L0,1 Z " fill="#343440" opacity="0.88235295" transform="translate(57,35)"/>
<path d="M0,0 L1,0 L1,1 L0,1 Z " fill="#353541" opacity="0.83137256" transform="translate(55,35)"/>
<path d="M0,0 L1,0 L1,1 L0,1 Z " fill="#353540" opacity="0.09411765" transform="translate(53,35)"/>
<path d="M0,0 L1,0 L1,1 L0,1 Z " fill="#34343D" opacity="0.21176471" transform="translate(46,35)"/>
<path d="M0,0 L1,0 L1,1 L0,1 Z " fill="#494C58" transform="translate(42,35)"/>
<path d="M0,0 L1,0 L1,1 L0,1 Z " fill="#AAB6C1" transform="translate(37,35)"/>
<path d="M0,0 L1,0 L1,1 L0,1 Z " fill="#ADB5BE" transform="translate(19,35)"/>
<path d="M0,0 L1,0 L1,1 L0,1 Z " fill="#343440" opacity="0.7019608" transform="translate(14,35)"/>
<path d="M0,0 L1,0 L1,1 L0,1 Z " fill="#343440" opacity="0.011764706" transform="translate(13,35)"/>
<path d="M0,0 L1,0 L1,1 L0,1 Z " fill="#3A3B47" transform="translate(42,34)"/>
<path d="M0,0 L1,0 L1,1 L0,1 Z " fill="#B3BDC6" transform="translate(37,34)"/>
<path d="M0,0 L1,0 L1,1 L0,1 Z " fill="#353541" opacity="0.16862746" transform="translate(14,34)"/>
<path d="M0,0 L1,0 L1,1 L0,1 Z " fill="#343441" opacity="0.011764706" transform="translate(46,33)"/>
<path d="M0,0 L1,0 L1,1 L0,1 Z " fill="#B8C2CA" transform="translate(37,33)"/>
<path d="M0,0 L1,0 L1,1 L0,1 Z " fill="#3B3B47" transform="translate(18,33)"/>
<path d="M0,0 L1,0 L1,1 L0,1 Z " fill="#343441" opacity="0.69411767" transform="translate(45,32)"/>
<path d="M0,0 L1,0 L1,1 L0,1 Z " fill="#626B78" transform="translate(41,32)"/>
<path d="M0,0 L1,0 L1,1 L0,1 Z " fill="#A2A9B1" transform="translate(19,32)"/>
<path d="M0,0 L1,0 L1,1 L0,1 Z " fill="#353540" opacity="0.043137256" transform="translate(14,32)"/>
<path d="M0,0 L1,0 L1,1 L0,1 Z " fill="#3B3C48" transform="translate(41,31)"/>
<path d="M0,0 L1,0 L1,1 L0,1 Z " fill="#8898A7" transform="translate(40,31)"/>
<path d="M0,0 L1,0 L1,1 L0,1 Z " fill="#B7C1C8" transform="translate(37,31)"/>
<path d="M0,0 L1,0 L1,1 L0,1 Z " fill="#686B76" transform="translate(19,31)"/>
<path d="M0,0 L1,0 L1,1 L0,1 Z " fill="#343440" opacity="0.78039217" transform="translate(15,31)"/>
<path d="M0,0 L1,0 L1,1 L0,1 Z " fill="#343440" opacity="0.05490196" transform="translate(45,30)"/>
<path d="M0,0 L1,0 L1,1 L0,1 Z " fill="#343440" opacity="0.9607843" transform="translate(44,30)"/>
<path d="M0,0 L1,0 L1,1 L0,1 Z " fill="#454854" transform="translate(40,30)"/>
<path d="M0,0 L1,0 L1,1 L0,1 Z " fill="#8695A4" transform="translate(39,30)"/>
<path d="M0,0 L1,0 L1,1 L0,1 Z " fill="#959CA5" transform="translate(20,30)"/>
<path d="M0,0 L1,0 L1,1 L0,1 Z " fill="#343440" opacity="0.48235294" transform="translate(44,29)"/>
<path d="M0,0 L1,0 L1,1 L0,1 Z " fill="#5A616E" transform="translate(38,29)"/>
<path d="M0,0 L1,0 L1,1 L0,1 Z " fill="#909CA8" transform="translate(37,29)"/>
<path d="M0,0 L1,0 L1,1 L0,1 Z " fill="#9FA6AE" transform="translate(21,29)"/>
<path d="M0,0 L1,0 L1,1 L0,1 Z " fill="#3C3D49" transform="translate(20,29)"/>
<path d="M0,0 L1,0 L1,1 L0,1 Z " fill="#353540" opacity="0.019607844" transform="translate(15,29)"/>
<path d="M0,0 L1,0 L1,1 L0,1 Z " fill="#343440" opacity="0.02745098" transform="translate(44,28)"/>
<path d="M0,0 L1,0 L1,1 L0,1 Z " fill="#383945" transform="translate(37,28)"/>
<path d="M0,0 L1,0 L1,1 L0,1 Z " fill="#9BA2AA" transform="translate(36,28)"/>
<path d="M0,0 L1,0 L1,1 L0,1 Z " fill="#8B919A" transform="translate(22,28)"/>
<path d="M0,0 L1,0 L1,1 L0,1 Z " fill="#3C3C48" transform="translate(21,28)"/>
<path d="M0,0 L1,0 L1,1 L0,1 Z " fill="#343441" opacity="0.9882353" transform="translate(17,28)"/>
<path d="M0,0 L1,0 L1,1 L0,1 Z " fill="#34343D" opacity="0.21176471" transform="translate(16,28)"/>
<path d="M0,0 L1,0 L1,1 L0,1 Z " fill="#343441" opacity="0.0627451" transform="translate(43,27)"/>
<path d="M0,0 L1,0 L1,1 L0,1 Z " fill="#343441" opacity="0.7411765" transform="translate(42,27)"/>
<path d="M0,0 L1,0 L1,1 L0,1 Z " fill="#3D3E49" transform="translate(36,27)"/>
<path d="M0,0 L1,0 L1,1 L0,1 Z " fill="#8B919A" transform="translate(35,27)"/>
<path d="M0,0 L1,0 L1,1 L0,1 Z " fill="#9EA5AD" transform="translate(24,27)"/>
<path d="M0,0 L1,0 L1,1 L0,1 Z " fill="#5B5D67" transform="translate(23,27)"/>
<path d="M0,0 L1,0 L1,1 L0,1 Z " fill="#343440" opacity="0.41960785" transform="translate(17,27)"/>
<path d="M0,0 L1,0 L1,1 L0,1 Z " fill="#353541" opacity="0.41568628" transform="translate(41,26)"/>
<path d="M0,0 L1,0 L1,1 L0,1 Z " fill="#343441" opacity="0.8784314" transform="translate(40,26)"/>
<path d="M0,0 L1,0 L1,1 L0,1 Z " fill="#80858E" transform="translate(33,26)"/>
<path d="M0,0 L1,0 L1,1 L0,1 Z " fill="#A3ABB3" transform="translate(32,26)"/>
<path d="M0,0 L1,0 L1,1 L0,1 Z " fill="#B4BCC4" transform="translate(28,26)"/>
<path d="M0,0 L1,0 L1,1 L0,1 Z " fill="#777B84" transform="translate(26,26)"/>
<path d="M0,0 L1,0 L1,1 L0,1 Z " fill="#4B4C58" transform="translate(25,26)"/>
<path d="M0,0 L1,0 L1,1 L0,1 Z " fill="#333340" opacity="0.4862745" transform="translate(18,26)"/>
<path d="M0,0 L1,0 L1,1 L0,1 Z " fill="#343440" opacity="0.015686275" transform="translate(40,25)"/>
<path d="M0,0 L1,0 L1,1 L0,1 Z " fill="#343440" opacity="0.57254905" transform="translate(39,25)"/>
<path d="M0,0 L1,0 L1,1 L0,1 Z " fill="#363743" transform="translate(31,25)"/>
<path d="M0,0 L1,0 L1,1 L0,1 Z " fill="#3B3B47" transform="translate(29,25)"/>
<path d="M0,0 L1,0 L1,1 L0,1 Z " fill="#333340" opacity="0.37254903" transform="translate(19,25)"/>
<path d="M0,0 L1,0 L1,1 L0,1 Z " fill="#343441" opacity="0.007843138" transform="translate(39,24)"/>
<path d="M0,0 L1,0 L1,1 L0,1 Z " fill="#343441" opacity="0.49411765" transform="translate(38,24)"/>
<path d="M0,0 L1,0 L1,1 L0,1 Z " fill="#30303C" opacity="0.16470589" transform="translate(20,24)"/>
<path d="M0,0 L1,0 L1,1 L0,1 Z " fill="#333340" opacity="0.15686275" transform="translate(37,23)"/>
<path d="M0,0 L1,0 L1,1 L0,1 Z " fill="#343440" opacity="0.59607846" transform="translate(36,23)"/>
<path d="M0,0 L1,0 L1,1 L0,1 Z " fill="#353540" opacity="0.9647059" transform="translate(35,23)"/>
<path d="M0,0 L1,0 L1,1 L0,1 Z " fill="#343441" opacity="0.972549" transform="translate(24,23)"/>
<path d="M0,0 L1,0 L1,1 L0,1 Z " fill="#343441" opacity="0.24705882" transform="translate(22,23)"/>
<path d="M0,0 L1,0 L1,1 L0,1 Z " fill="#333340" opacity="0.07058824" transform="translate(35,22)"/>
<path d="M0,0 L1,0 L1,1 L0,1 Z " fill="#353541" opacity="0.6784314" transform="translate(33,22)"/>
<path d="M0,0 L1,0 L1,1 L0,1 Z " fill="#343441" opacity="0.9098039" transform="translate(32,22)"/>
<path d="M0,0 L1,0 L1,1 L0,1 Z " fill="#343440" opacity="0.96862745" transform="translate(28,22)"/>
<path d="M0,0 L1,0 L1,1 L0,1 Z " fill="#353540" opacity="0.6039216" transform="translate(26,22)"/>
<path d="M0,0 L1,0 L1,1 L0,1 Z " fill="#343440" opacity="0.05490196" transform="translate(24,22)"/>
<path d="M0,0 L1,0 L1,1 L0,1 Z " fill="#333340" opacity="0.011764706" transform="translate(31,21)"/>
<path d="M0,0 L1,0 L1,1 L0,1 Z " fill="#333340" opacity="0.039215688" transform="translate(29,21)"/>
</svg>
