<?xml version="1.0" encoding="UTF-8"?>
<!-- Generator: visioncortex VTracer 0.6.4 -->
<svg version="1.1" xmlns="http://www.w3.org/2000/svg" width="64" height="64">
<path d="M0,0 L32,0 L32,1 L36,1 L36,2 L38,2 L38,4 L39,4 L39,8 L40,8 L40,56 L39,56 L39,60 L38,60 L38,62 L36,62 L36,63 L32,63 L32,64 L0,64 L0,63 L-4,63 L-4,62 L-6,62 L-6,60 L-7,60 L-7,56 L-8,56 L-8,8 L-7,8 L-7,4 L-6,4 L-6,2 L-4,2 L-4,1 L0,1 Z M-3,4 L-3,5 L0,5 L0,4 Z M32,4 L32,5 L35,5 L35,4 Z M-4,5 L-4,8 L-3,8 L-3,5 Z M35,5 L35,8 L36,8 L36,5 Z M-3,8 L-3,9 L0,9 L0,8 Z M32,8 L32,9 L35,9 L35,8 Z M-4,9 L-4,12 L-3,12 L-3,9 Z M35,9 L35,12 L36,12 L36,9 Z M-4,56 L-4,59 L-3,59 L-3,56 Z M35,56 L35,59 L36,59 L36,56 Z M-3,59 L-3,60 L0,60 L0,59 Z M32,59 L32,60 L35,60 L35,59 Z " fill="#2CC987" transform="translate(16,0)"/>
<path d="M0,0 L32,0 L32,1 L36,1 L36,2 L38,2 L38,4 L39,4 L39,8 L40,8 L40,56 L39,56 L39,60 L38,60 L38,62 L36,62 L36,63 L32,63 L32,64 L0,64 L0,63 L-4,63 L-4,62 L-6,62 L-6,60 L-7,60 L-7,56 L-8,56 L-8,8 L-7,8 L-7,4 L-6,4 L-6,2 L-4,2 L-4,1 L0,1 Z M-3,4 L-3,5 L-4,5 L-4,59 L-3,59 L-3,60 L35,60 L35,59 L36,59 L36,5 L35,5 L35,4 Z " fill="#353541" transform="translate(16,0)"/>
<path d="M0,0 L32,0 L32,1 L35,1 L35,4 L22,4 L22,6 L21,6 L21,7 L20,7 L20,8 L19,8 L19,9 L18,9 L18,10 L14,10 L14,9 L13,9 L13,8 L12,8 L12,7 L11,7 L11,6 L10,6 L10,4 L-3,4 L-3,1 L0,1 Z M-4,4 L-3,4 L-3,5 L-4,5 Z M35,4 L36,4 L36,5 L35,5 Z " fill="#59F0B0" transform="translate(16,4)"/>
<path d="M0,0 L18,0 L18,3 L17,3 L17,5 L18,5 L18,8 L0,8 L0,5 L1,5 L1,3 L0,3 Z " fill="#FFFFFF" transform="translate(23,36)"/>
<path d="M0,0 L6,0 L6,1 L7,1 L7,3 L8,3 L8,6 L7,6 L7,7 L6,7 L6,8 L5,8 L5,9 L0,9 L0,8 L-1,8 L-1,7 L-2,7 L-2,2 L-1,2 L-1,1 L0,1 Z " fill="#FABA2D" transform="translate(40,24)"/>
<path d="M0,0 L6,0 L6,1 L7,1 L7,3 L8,3 L8,6 L7,6 L7,7 L6,7 L6,8 L5,8 L5,9 L0,9 L0,8 L-1,8 L-1,7 L-2,7 L-2,2 L-1,2 L-1,1 L0,1 Z " fill="#FABA2D" transform="translate(19,24)"/>
<path d="M0,0 L10,0 L10,1 L9,1 L9,3 L8,3 L8,4 L7,4 L7,5 L3,5 L3,4 L2,4 L2,3 L1,3 L1,2 L0,2 Z " fill="#1AA074" transform="translate(27,44)"/>
<path d="M0,0 L1,0 L1,1 L2,1 L2,3 L3,3 L3,6 L2,6 L2,5 L-2,5 L-2,1 L0,1 Z " fill="#DBCA64" transform="translate(45,24)"/>
<path d="M0,0 L1,0 L1,1 L2,1 L2,3 L3,3 L3,6 L2,6 L2,5 L-2,5 L-2,1 L0,1 Z " fill="#DBCA64" transform="translate(24,24)"/>
<path d="M0,0 L2,0 L2,1 L3,1 L3,5 L2,5 L2,6 L0,6 L0,4 L-1,4 L-1,2 L0,2 Z " fill="#353541" transform="translate(41,37)"/>
<path d="M0,0 L2,0 L2,2 L3,2 L3,4 L2,4 L2,6 L0,6 L0,5 L-1,5 L-1,1 L0,1 Z " fill="#353541" transform="translate(21,37)"/>
<path d="M0,0 L10,0 L10,1 L0,1 Z " fill="#58F0B0" transform="translate(27,6)"/>
<path d="M0,0 L3,0 L3,3 L0,3 Z " fill="#FFFFFF" transform="translate(43,26)"/>
<path d="M0,0 L3,0 L3,3 L0,3 Z " fill="#FFFFFF" transform="translate(22,26)"/>
<path d="M0,0 L2,0 L2,1 L1,1 L1,2 L0,2 L0,5 L-1,5 L-1,1 L0,1 Z " fill="#353541" transform="translate(21,37)"/>
<path d="M0,0 L1,0 L1,1 L0,1 Z " fill="#343440" opacity="0.9019608" transform="translate(14,63)"/>
<path d="M0,0 L2,0 L2,1 L1,1 L1,3 L0,3 Z " fill="#FFFFFF" transform="translate(23,36)"/>
<path d="M0,0 L1,0 L1,1 L0,1 Z " fill="#343440" opacity="0.9019608" transform="translate(55,6)"/>
<path d="M0,0 L1,0 L1,1 L0,1 Z " fill="#343441" opacity="0.9098039" transform="translate(8,6)"/>
<path d="M0,0 L1,0 L1,1 L0,1 Z " fill="#343441" opacity="0.9098039" transform="translate(14,0)"/>
<path d="M0,0 L1,0 L1,1 L0,1 Z M1,1 L2,1 L2,2 L1,2 Z " fill="#33333F" opacity="0.4117647" transform="translate(9,61)"/>
<path d="M0,0 L1,0 L1,1 L0,1 Z M1,1 L2,1 L2,2 L1,2 Z M2,2 L3,2 L3,3 L2,3 Z " fill="#2BC886" transform="translate(27,46)"/>
<path d="M0,0 L2,0 L2,1 L1,1 L1,2 L0,2 Z " fill="#1AA074" transform="translate(27,44)"/>
<path d="M0,0 L1,0 L1,3 L0,3 Z " fill="#334247" transform="translate(20,39)"/>
<path d="M0,0 L1,0 L1,3 L0,3 Z " fill="#FEFEFE" transform="translate(40,36)"/>
<path d="M0,0 L3,0 L3,1 L0,1 Z " fill="#8AC25D" transform="translate(41,33)"/>
<path d="M0,0 L3,0 L3,1 L0,1 Z " fill="#8AC25D" transform="translate(20,33)"/>
<path d="M0,0 L1,0 L1,2 L-1,2 L-1,1 L0,1 Z " fill="#2CC986" transform="translate(46,31)"/>
<path d="M0,0 L1,0 L1,1 L2,1 L2,2 L0,2 Z " fill="#2CC986" transform="translate(38,31)"/>
<path d="M0,0 L1,0 L1,2 L-1,2 L-1,1 L0,1 Z " fill="#2CC986" transform="translate(25,31)"/>
<path d="M0,0 L1,0 L1,1 L2,1 L2,2 L0,2 Z " fill="#2CC986" transform="translate(17,31)"/>
<path d="M0,0 L3,0 L3,1 L0,1 Z " fill="#CADCA1" transform="translate(43,29)"/>
<path d="M0,0 L3,0 L3,1 L0,1 Z " fill="#CADCA1" transform="translate(22,29)"/>
<path d="M0,0 L1,0 L1,3 L0,3 Z " fill="#93C159" transform="translate(47,27)"/>
<path d="M0,0 L1,0 L1,3 L0,3 Z " fill="#8AC25D" transform="translate(37,27)"/>
<path d="M0,0 L1,0 L1,3 L0,3 Z " fill="#93C159" transform="translate(26,27)"/>
<path d="M0,0 L1,0 L1,3 L0,3 Z " fill="#8AC25D" transform="translate(16,27)"/>
<path d="M0,0 L1,0 L1,3 L0,3 Z " fill="#C9DDA3" transform="translate(42,26)"/>
<path d="M0,0 L1,0 L1,3 L0,3 Z " fill="#C9DDA3" transform="translate(21,26)"/>
<path d="M0,0 L3,0 L3,1 L0,1 Z " fill="#8AC25D" transform="translate(41,23)"/>
<path d="M0,0 L3,0 L3,1 L0,1 Z " fill="#8AC25D" transform="translate(20,23)"/>
<path d="M0,0 L1,0 L1,1 L0,1 Z M-1,1 L0,1 L0,2 L-1,2 Z " fill="#343440" opacity="0.40392157" transform="translate(10,1)"/>
<path d="M0,0 L1,0 L1,1 L0,1 Z " fill="#30303C" opacity="0.08235294" transform="translate(52,63)"/>
<path d="M0,0 L1,0 L1,1 L0,1 Z " fill="#343440" opacity="0.48235294" transform="translate(12,63)"/>
<path d="M0,0 L1,0 L1,1 L0,1 Z " fill="#30303C" opacity="0.08235294" transform="translate(55,60)"/>
<path d="M0,0 L1,0 L1,1 L0,1 Z " fill="#353540" opacity="0.09411765" transform="translate(8,60)"/>
<path d="M0,0 L1,0 L1,1 L0,1 Z " fill="#2BC886" opacity="0.9411765" transform="translate(15,59)"/>
<path d="M0,0 L1,0 L1,1 L0,1 Z M1,1 L2,1 L2,2 L1,2 Z " fill="#30715C" opacity="0.78431374" transform="translate(12,58)"/>
<path d="M0,0 L2,0 L2,1 L0,1 Z " fill="#1DA978" transform="translate(30,48)"/>
<path d="M0,0 L1,0 L1,1 L0,1 Z M-1,1 L0,1 L0,2 L-1,2 Z " fill="#2BC786" transform="translate(35,47)"/>
<path d="M0,0 L1,0 L1,2 L0,2 Z " fill="#2BC886" transform="translate(36,45)"/>
<path d="M0,0 L1,0 L1,1 L0,1 Z M-1,1 L0,1 L0,2 L-1,2 Z " fill="#1EAA78" transform="translate(35,46)"/>
<path d="M0,0 L1,0 L1,1 L0,1 Z M1,1 L2,1 L2,2 L1,2 Z " fill="#1FAD7A" transform="translate(28,46)"/>
<path d="M0,0 L2,0 L2,1 L0,1 Z " fill="#344247" transform="translate(41,42)"/>
<path d="M0,0 L1,0 L1,2 L0,2 Z " fill="#3F5C59" transform="translate(40,39)"/>
<path d="M0,0 L1,0 L1,2 L0,2 Z " fill="#3F5D59" transform="translate(23,39)"/>
<path d="M0,0 L1,0 L1,2 L0,2 Z " fill="#344347" transform="translate(43,38)"/>
<path d="M0,0 L2,0 L2,1 L0,1 Z " fill="#343F45" transform="translate(41,37)"/>
<path d="M0,0 L1,0 L1,2 L0,2 Z " fill="#DDC95F" transform="translate(46,27)"/>
<path d="M0,0 L1,0 L1,2 L0,2 Z " fill="#DDC95F" transform="translate(25,27)"/>
<path d="M0,0 L2,0 L2,1 L0,1 Z " fill="#CADDA3" transform="translate(43,25)"/>
<path d="M0,0 L2,0 L2,1 L0,1 Z " fill="#CADDA3" transform="translate(22,25)"/>
<path d="M0,0 L2,0 L2,1 L0,1 Z " fill="#2DCA88" transform="translate(31,14)"/>
<path d="M0,0 L2,0 L2,1 L0,1 Z " fill="#57EFAE" transform="translate(30,13)"/>
<path d="M0,0 L1,0 L1,1 L0,1 Z " fill="#2ECC8A" opacity="0.81960785" transform="translate(51,10)"/>
<path d="M0,0 L1,0 L1,1 L0,1 Z " fill="#2ECB89" opacity="0.827451" transform="translate(12,10)"/>
<path d="M0,0 L1,0 L1,1 L0,1 Z " fill="#2ECD89" opacity="0.827451" transform="translate(14,8)"/>
<path d="M0,0 L1,0 L1,1 L0,1 Z " fill="#58EFAF" opacity="0.9372549" transform="translate(51,7)"/>
<path d="M0,0 L1,0 L1,1 L0,1 Z " fill="#58F0B0" opacity="0.9411765" transform="translate(12,7)"/>
<path d="M0,0 L1,0 L1,1 L0,1 Z " fill="#34343F" opacity="0.4745098" transform="translate(55,4)"/>
<path d="M0,0 L1,0 L1,1 L0,1 Z " fill="#58F0B0" opacity="0.9411765" transform="translate(15,4)"/>
<path d="M0,0 L1,0 L1,1 L0,1 Z M-1,1 L0,1 L0,2 L-1,2 Z " fill="#407E6D" opacity="0.7882353" transform="translate(13,4)"/>
<path d="M0,0 L1,0 L1,1 L0,1 Z " fill="#333340" opacity="0.4862745" transform="translate(8,4)"/>
<path d="M0,0 L1,0 L1,1 L0,1 Z " fill="#343440" opacity="0.96862745" transform="translate(54,3)"/>
<path d="M0,0 L1,0 L1,1 L0,1 Z " fill="#2E2E3A" opacity="0.08627451" transform="translate(52,0)"/>
<path d="M0,0 L1,0 L1,1 L0,1 Z " fill="#333340" opacity="0.4862745" transform="translate(12,0)"/>
<path d="M0,0 L1,0 L1,1 L0,1 Z " fill="#34343F" opacity="0.4745098" transform="translate(51,63)"/>
<path d="M0,0 L1,0 L1,1 L0,1 Z " fill="#343441" opacity="0.7411765" transform="translate(50,63)"/>
<path d="M0,0 L1,0 L1,1 L0,1 Z " fill="#343440" opacity="0.8980392" transform="translate(49,63)"/>
<path d="M0,0 L1,0 L1,1 L0,1 Z " fill="#353540" opacity="0.9843137" transform="translate(48,63)"/>
<path d="M0,0 L1,0 L1,1 L0,1 Z " fill="#343441" opacity="0.9882353" transform="translate(15,63)"/>
<path d="M0,0 L1,0 L1,1 L0,1 Z " fill="#343440" opacity="0.7490196" transform="translate(13,63)"/>
<path d="M0,0 L1,0 L1,1 L0,1 Z " fill="#2C2C42" opacity="0.09019608" transform="translate(11,63)"/>
<path d="M0,0 L1,0 L1,1 L0,1 Z " fill="#35353F" opacity="0.39607844" transform="translate(53,62)"/>
<path d="M0,0 L1,0 L1,1 L0,1 Z " fill="#353540" opacity="0.9647059" transform="translate(52,62)"/>
<path d="M0,0 L1,0 L1,1 L0,1 Z " fill="#343440" opacity="0.96862745" transform="translate(11,62)"/>
<path d="M0,0 L1,0 L1,1 L0,1 Z " fill="#33333F" opacity="0.003921569" transform="translate(9,62)"/>
<path d="M0,0 L1,0 L1,1 L0,1 Z " fill="#333340" opacity="0.39215687" transform="translate(54,61)"/>
<path d="M0,0 L1,0 L1,1 L0,1 Z " fill="#343440" opacity="0.9607843" transform="translate(54,60)"/>
<path d="M0,0 L1,0 L1,1 L0,1 Z " fill="#343440" opacity="0.96862745" transform="translate(9,60)"/>
<path d="M0,0 L1,0 L1,1 L0,1 Z " fill="#34343F" opacity="0.4745098" transform="translate(55,59)"/>
<path d="M0,0 L1,0 L1,1 L0,1 Z " fill="#2F6E5B" opacity="0.7882353" transform="translate(50,59)"/>
<path d="M0,0 L1,0 L1,1 L0,1 Z " fill="#2BBF82" opacity="0.8235294" transform="translate(49,59)"/>
<path d="M0,0 L1,0 L1,1 L0,1 Z " fill="#2BC886" opacity="0.9372549" transform="translate(48,59)"/>
<path d="M0,0 L1,0 L1,1 L0,1 Z " fill="#2BBF81" opacity="0.827451" transform="translate(14,59)"/>
<path d="M0,0 L1,0 L1,1 L0,1 Z " fill="#35353F" opacity="0.49019608" transform="translate(8,59)"/>
<path d="M0,0 L1,0 L1,1 L0,1 Z " fill="#343440" opacity="0.74509805" transform="translate(55,58)"/>
<path d="M0,0 L1,0 L1,1 L0,1 Z " fill="#306E5B" opacity="0.7921569" transform="translate(51,58)"/>
<path d="M0,0 L1,0 L1,1 L0,1 Z " fill="#343440" opacity="0.7607843" transform="translate(8,58)"/>
<path d="M0,0 L1,0 L1,1 L0,1 Z " fill="#343440" opacity="0.8980392" transform="translate(55,57)"/>
<path d="M0,0 L1,0 L1,1 L0,1 Z " fill="#2ABE81" opacity="0.8235294" transform="translate(51,57)"/>
<path d="M0,0 L1,0 L1,1 L0,1 Z " fill="#2BC082" opacity="0.83137256" transform="translate(12,57)"/>
<path d="M0,0 L1,0 L1,1 L0,1 Z " fill="#343441" opacity="0.9098039" transform="translate(8,57)"/>
<path d="M0,0 L1,0 L1,1 L0,1 Z " fill="#343440" opacity="0.99215686" transform="translate(55,56)"/>
<path d="M0,0 L1,0 L1,1 L0,1 Z " fill="#2BC887" opacity="0.9647059" transform="translate(51,56)"/>
<path d="M0,0 L1,0 L1,1 L0,1 Z " fill="#2BC986" opacity="0.96862745" transform="translate(12,56)"/>
<path d="M0,0 L1,0 L1,1 L0,1 Z " fill="#343440" opacity="0.99215686" transform="translate(8,56)"/>
<path d="M0,0 L1,0 L1,1 L0,1 Z " fill="#22B47D" transform="translate(33,48)"/>
<path d="M0,0 L1,0 L1,1 L0,1 Z " fill="#1DA777" transform="translate(32,48)"/>
<path d="M0,0 L1,0 L1,1 L0,1 Z " fill="#23B77E" transform="translate(30,48)"/>
<path d="M0,0 L1,0 L1,1 L0,1 Z " fill="#22B57E" transform="translate(36,45)"/>
<path d="M0,0 L1,0 L1,1 L0,1 Z " fill="#22B67E" transform="translate(27,45)"/>
<path d="M0,0 L1,0 L1,1 L0,1 Z " fill="#2CC987" transform="translate(37,44)"/>
<path d="M0,0 L1,0 L1,1 L0,1 Z " fill="#1CA877" transform="translate(36,44)"/>
<path d="M0,0 L1,0 L1,1 L0,1 Z " fill="#1CA877" transform="translate(27,44)"/>
<path d="M0,0 L1,0 L1,1 L0,1 Z " fill="#2CB77E" transform="translate(42,43)"/>
<path d="M0,0 L1,0 L1,1 L0,1 Z " fill="#7ABFA4" transform="translate(41,43)"/>
<path d="M0,0 L1,0 L1,1 L0,1 Z " fill="#E7F9F2" transform="translate(40,43)"/>
<path d="M0,0 L1,0 L1,1 L0,1 Z " fill="#E8F9F2" transform="translate(23,43)"/>
<path d="M0,0 L1,0 L1,1 L0,1 Z " fill="#7EC1A7" transform="translate(22,43)"/>
<path d="M0,0 L1,0 L1,1 L0,1 Z " fill="#2CB47D" transform="translate(21,43)"/>
<path d="M0,0 L1,0 L1,1 L0,1 Z " fill="#2CBB80" transform="translate(43,42)"/>
<path d="M0,0 L1,0 L1,1 L0,1 Z " fill="#3F5C59" transform="translate(41,42)"/>
<path d="M0,0 L1,0 L1,1 L0,1 Z " fill="#415F5B" transform="translate(22,42)"/>
<path d="M0,0 L1,0 L1,1 L0,1 Z " fill="#343F45" transform="translate(21,42)"/>
<path d="M0,0 L1,0 L1,1 L0,1 Z " fill="#2CB77E" transform="translate(20,42)"/>
<path d="M0,0 L1,0 L1,1 L0,1 Z " fill="#316A59" transform="translate(43,41)"/>
<path d="M0,0 L1,0 L1,1 L0,1 Z " fill="#A4C1B7" transform="translate(40,41)"/>
<path d="M0,0 L1,0 L1,1 L0,1 Z " fill="#A8C4BB" transform="translate(23,41)"/>
<path d="M0,0 L1,0 L1,1 L0,1 Z " fill="#316557" transform="translate(20,41)"/>
<path d="M0,0 L1,0 L1,1 L0,1 Z " fill="#334347" transform="translate(43,40)"/>
<path d="M0,0 L1,0 L1,1 L0,1 Z " fill="#3F5C5A" transform="translate(23,39)"/>
<path d="M0,0 L1,0 L1,1 L0,1 Z " fill="#316758" transform="translate(43,38)"/>
<path d="M0,0 L1,0 L1,1 L0,1 Z " fill="#A2C0B7" transform="translate(40,38)"/>
<path d="M0,0 L1,0 L1,1 L0,1 Z " fill="#A5C2B9" transform="translate(23,38)"/>
<path d="M0,0 L1,0 L1,1 L0,1 Z " fill="#316356" transform="translate(20,38)"/>
<path d="M0,0 L1,0 L1,1 L0,1 Z " fill="#2DB97F" transform="translate(43,37)"/>
<path d="M0,0 L1,0 L1,1 L0,1 Z " fill="#3F5B58" transform="translate(41,37)"/>
<path d="M0,0 L1,0 L1,1 L0,1 Z " fill="#405E5A" transform="translate(22,37)"/>
<path d="M0,0 L1,0 L1,1 L0,1 Z " fill="#343B44" transform="translate(21,37)"/>
<path d="M0,0 L1,0 L1,1 L0,1 Z " fill="#2CB37D" transform="translate(20,37)"/>
<path d="M0,0 L1,0 L1,1 L0,1 Z " fill="#2CB37D" transform="translate(42,36)"/>
<path d="M0,0 L1,0 L1,1 L0,1 Z " fill="#7BBEA5" transform="translate(41,36)"/>
<path d="M0,0 L1,0 L1,1 L0,1 Z " fill="#E9FAF3" transform="translate(40,36)"/>
<path d="M0,0 L1,0 L1,1 L0,1 Z " fill="#E9FAF3" transform="translate(23,36)"/>
<path d="M0,0 L1,0 L1,1 L0,1 Z " fill="#7EC0A6" transform="translate(22,36)"/>
<path d="M0,0 L1,0 L1,1 L0,1 Z " fill="#2CB07B" transform="translate(21,36)"/>
<path d="M0,0 L1,0 L1,1 L0,1 Z " fill="#3EC77F" transform="translate(44,33)"/>
<path d="M0,0 L1,0 L1,1 L0,1 Z " fill="#6CC46B" transform="translate(43,33)"/>
<path d="M0,0 L1,0 L1,1 L0,1 Z " fill="#6CC46B" transform="translate(41,33)"/>
<path d="M0,0 L1,0 L1,1 L0,1 Z " fill="#3EC77F" transform="translate(40,33)"/>
<path d="M0,0 L1,0 L1,1 L0,1 Z " fill="#3EC77F" transform="translate(23,33)"/>
<path d="M0,0 L1,0 L1,1 L0,1 Z " fill="#6CC46B" transform="translate(22,33)"/>
<path d="M0,0 L1,0 L1,1 L0,1 Z " fill="#6CC46B" transform="translate(20,33)"/>
<path d="M0,0 L1,0 L1,1 L0,1 Z " fill="#3EC77F" transform="translate(19,33)"/>
<path d="M0,0 L1,0 L1,1 L0,1 Z " fill="#80C361" transform="translate(45,32)"/>
<path d="M0,0 L1,0 L1,1 L0,1 Z " fill="#F1BB31" transform="translate(44,32)"/>
<path d="M0,0 L1,0 L1,1 L0,1 Z " fill="#F0BB30" transform="translate(40,32)"/>
<path d="M0,0 L1,0 L1,1 L0,1 Z " fill="#7CC363" transform="translate(39,32)"/>
<path d="M0,0 L1,0 L1,1 L0,1 Z " fill="#80C361" transform="translate(24,32)"/>
<path d="M0,0 L1,0 L1,1 L0,1 Z " fill="#F1BB31" transform="translate(23,32)"/>
<path d="M0,0 L1,0 L1,1 L0,1 Z " fill="#F0BB30" transform="translate(19,32)"/>
<path d="M0,0 L1,0 L1,1 L0,1 Z " fill="#7CC363" transform="translate(18,32)"/>
<path d="M0,0 L1,0 L1,1 L0,1 Z " fill="#83C361" transform="translate(46,31)"/>
<path d="M0,0 L1,0 L1,1 L0,1 Z " fill="#7AC364" transform="translate(38,31)"/>
<path d="M0,0 L1,0 L1,1 L0,1 Z " fill="#83C361" transform="translate(25,31)"/>
<path d="M0,0 L1,0 L1,1 L0,1 Z " fill="#7AC364" transform="translate(17,31)"/>
<path d="M0,0 L1,0 L1,1 L0,1 Z " fill="#43C87D" transform="translate(47,30)"/>
<path d="M0,0 L1,0 L1,1 L0,1 Z " fill="#F2BA30" transform="translate(46,30)"/>
<path d="M0,0 L1,0 L1,1 L0,1 Z " fill="#EFBA31" transform="translate(38,30)"/>
<path d="M0,0 L1,0 L1,1 L0,1 Z " fill="#3DC77E" transform="translate(37,30)"/>
<path d="M0,0 L1,0 L1,1 L0,1 Z " fill="#43C87D" transform="translate(26,30)"/>
<path d="M0,0 L1,0 L1,1 L0,1 Z " fill="#F2BA30" transform="translate(25,30)"/>
<path d="M0,0 L1,0 L1,1 L0,1 Z " fill="#EFBA31" transform="translate(17,30)"/>
<path d="M0,0 L1,0 L1,1 L0,1 Z " fill="#3DC77E" transform="translate(16,30)"/>
<path d="M0,0 L1,0 L1,1 L0,1 Z " fill="#73C467" transform="translate(47,29)"/>
<path d="M0,0 L1,0 L1,1 L0,1 Z " fill="#DEC75E" transform="translate(45,29)"/>
<path d="M0,0 L1,0 L1,1 L0,1 Z " fill="#DBCA63" transform="translate(43,29)"/>
<path d="M0,0 L1,0 L1,1 L0,1 Z " fill="#6BC46A" transform="translate(37,29)"/>
<path d="M0,0 L1,0 L1,1 L0,1 Z " fill="#73C467" transform="translate(26,29)"/>
<path d="M0,0 L1,0 L1,1 L0,1 Z " fill="#DEC75E" transform="translate(24,29)"/>
<path d="M0,0 L1,0 L1,1 L0,1 Z " fill="#DBCA63" transform="translate(22,29)"/>
<path d="M0,0 L1,0 L1,1 L0,1 Z " fill="#6BC46A" transform="translate(16,29)"/>
<path d="M0,0 L1,0 L1,1 L0,1 Z " fill="#FAFEFC" transform="translate(45,28)"/>
<path d="M0,0 L1,0 L1,1 L0,1 Z " fill="#FBFEFD" transform="translate(43,28)"/>
<path d="M0,0 L1,0 L1,1 L0,1 Z " fill="#DDC860" transform="translate(42,28)"/>
<path d="M0,0 L1,0 L1,1 L0,1 Z " fill="#FAFEFC" transform="translate(24,28)"/>
<path d="M0,0 L1,0 L1,1 L0,1 Z " fill="#FBFEFD" transform="translate(22,28)"/>
<path d="M0,0 L1,0 L1,1 L0,1 Z " fill="#DDC860" transform="translate(21,28)"/>
<path d="M0,0 L1,0 L1,1 L0,1 Z " fill="#74C466" transform="translate(47,27)"/>
<path d="M0,0 L1,0 L1,1 L0,1 Z " fill="#C9DDA1" transform="translate(46,27)"/>
<path d="M0,0 L1,0 L1,1 L0,1 Z " fill="#6CC46B" transform="translate(37,27)"/>
<path d="M0,0 L1,0 L1,1 L0,1 Z " fill="#74C466" transform="translate(26,27)"/>
<path d="M0,0 L1,0 L1,1 L0,1 Z " fill="#C9DDA1" transform="translate(25,27)"/>
<path d="M0,0 L1,0 L1,1 L0,1 Z " fill="#6CC46B" transform="translate(16,27)"/>
<path d="M0,0 L1,0 L1,1 L0,1 Z " fill="#44C77C" transform="translate(47,26)"/>
<path d="M0,0 L1,0 L1,1 L0,1 Z " fill="#D4CB67" transform="translate(46,26)"/>
<path d="M0,0 L1,0 L1,1 L0,1 Z " fill="#FDFFFE" transform="translate(45,26)"/>
<path d="M0,0 L1,0 L1,1 L0,1 Z " fill="#FDFFFE" transform="translate(43,26)"/>
<path d="M0,0 L1,0 L1,1 L0,1 Z " fill="#D9CA66" transform="translate(42,26)"/>
<path d="M0,0 L1,0 L1,1 L0,1 Z " fill="#F0BB30" transform="translate(38,26)"/>
<path d="M0,0 L1,0 L1,1 L0,1 Z " fill="#3EC77F" transform="translate(37,26)"/>
<path d="M0,0 L1,0 L1,1 L0,1 Z " fill="#44C77C" transform="translate(26,26)"/>
<path d="M0,0 L1,0 L1,1 L0,1 Z " fill="#D4CB67" transform="translate(25,26)"/>
<path d="M0,0 L1,0 L1,1 L0,1 Z " fill="#FDFFFE" transform="translate(24,26)"/>
<path d="M0,0 L1,0 L1,1 L0,1 Z " fill="#FDFFFE" transform="translate(22,26)"/>
<path d="M0,0 L1,0 L1,1 L0,1 Z " fill="#D9CA66" transform="translate(21,26)"/>
<path d="M0,0 L1,0 L1,1 L0,1 Z " fill="#F0BB30" transform="translate(17,26)"/>
<path d="M0,0 L1,0 L1,1 L0,1 Z " fill="#3EC77F" transform="translate(16,26)"/>
<path d="M0,0 L1,0 L1,1 L0,1 Z " fill="#85C25F" transform="translate(46,25)"/>
<path d="M0,0 L1,0 L1,1 L0,1 Z " fill="#D8CB6A" transform="translate(43,25)"/>
<path d="M0,0 L1,0 L1,1 L0,1 Z " fill="#FABA2D" transform="translate(39,25)"/>
<path d="M0,0 L1,0 L1,1 L0,1 Z " fill="#7BC363" transform="translate(38,25)"/>
<path d="M0,0 L1,0 L1,1 L0,1 Z " fill="#85C25F" transform="translate(25,25)"/>
<path d="M0,0 L1,0 L1,1 L0,1 Z " fill="#D8CB6A" transform="translate(22,25)"/>
<path d="M0,0 L1,0 L1,1 L0,1 Z " fill="#FABA2D" transform="translate(18,25)"/>
<path d="M0,0 L1,0 L1,1 L0,1 Z " fill="#7BC363" transform="translate(17,25)"/>
<path d="M0,0 L1,0 L1,1 L0,1 Z " fill="#2DC985" transform="translate(46,24)"/>
<path d="M0,0 L1,0 L1,1 L0,1 Z " fill="#84C260" transform="translate(45,24)"/>
<path d="M0,0 L1,0 L1,1 L0,1 Z " fill="#F1BA30" transform="translate(44,24)"/>
<path d="M0,0 L1,0 L1,1 L0,1 Z " fill="#F1BB31" transform="translate(40,24)"/>
<path d="M0,0 L1,0 L1,1 L0,1 Z " fill="#80C362" transform="translate(39,24)"/>
<path d="M0,0 L1,0 L1,1 L0,1 Z " fill="#2CC986" transform="translate(38,24)"/>
<path d="M0,0 L1,0 L1,1 L0,1 Z " fill="#2DC985" transform="translate(25,24)"/>
<path d="M0,0 L1,0 L1,1 L0,1 Z " fill="#84C260" transform="translate(24,24)"/>
<path d="M0,0 L1,0 L1,1 L0,1 Z " fill="#F1BA30" transform="translate(23,24)"/>
<path d="M0,0 L1,0 L1,1 L0,1 Z " fill="#F1BB31" transform="translate(19,24)"/>
<path d="M0,0 L1,0 L1,1 L0,1 Z " fill="#80C362" transform="translate(18,24)"/>
<path d="M0,0 L1,0 L1,1 L0,1 Z " fill="#2CC986" transform="translate(17,24)"/>
<path d="M0,0 L1,0 L1,1 L0,1 Z " fill="#3FC87E" transform="translate(44,23)"/>
<path d="M0,0 L1,0 L1,1 L0,1 Z " fill="#6EC46A" transform="translate(43,23)"/>
<path d="M0,0 L1,0 L1,1 L0,1 Z " fill="#6EC46A" transform="translate(41,23)"/>
<path d="M0,0 L1,0 L1,1 L0,1 Z " fill="#3FC87E" transform="translate(40,23)"/>
<path d="M0,0 L1,0 L1,1 L0,1 Z " fill="#3FC87E" transform="translate(23,23)"/>
<path d="M0,0 L1,0 L1,1 L0,1 Z " fill="#6EC46A" transform="translate(22,23)"/>
<path d="M0,0 L1,0 L1,1 L0,1 Z " fill="#6EC46A" transform="translate(20,23)"/>
<path d="M0,0 L1,0 L1,1 L0,1 Z " fill="#3FC87E" transform="translate(19,23)"/>
<path d="M0,0 L1,0 L1,1 L0,1 Z " fill="#35D290" transform="translate(34,13)"/>
<path d="M0,0 L1,0 L1,1 L0,1 Z " fill="#4FE8A7" transform="translate(33,13)"/>
<path d="M0,0 L1,0 L1,1 L0,1 Z " fill="#58F0AF" transform="translate(32,13)"/>
<path d="M0,0 L1,0 L1,1 L0,1 Z " fill="#4CE6A5" transform="translate(30,13)"/>
<path d="M0,0 L1,0 L1,1 L0,1 Z " fill="#32CF8C" transform="translate(29,13)"/>
<path d="M0,0 L1,0 L1,1 L0,1 Z " fill="#3AD695" transform="translate(35,12)"/>
<path d="M0,0 L1,0 L1,1 L0,1 Z " fill="#57EFAF" transform="translate(34,12)"/>
<path d="M0,0 L1,0 L1,1 L0,1 Z " fill="#57EEAE" transform="translate(29,12)"/>
<path d="M0,0 L1,0 L1,1 L0,1 Z " fill="#36D391" transform="translate(28,12)"/>
<path d="M0,0 L1,0 L1,1 L0,1 Z " fill="#2BC986" opacity="0.9529412" transform="translate(51,11)"/>
<path d="M0,0 L1,0 L1,1 L0,1 Z " fill="#3BD795" transform="translate(36,11)"/>
<path d="M0,0 L1,0 L1,1 L0,1 Z " fill="#57F0AF" transform="translate(35,11)"/>
<path d="M0,0 L1,0 L1,1 L0,1 Z " fill="#56EEAE" transform="translate(28,11)"/>
<path d="M0,0 L1,0 L1,1 L0,1 Z " fill="#37D391" transform="translate(27,11)"/>
<path d="M0,0 L1,0 L1,1 L0,1 Z " fill="#2CC987" opacity="0.95686275" transform="translate(12,11)"/>
<path d="M0,0 L1,0 L1,1 L0,1 Z " fill="#33D18F" transform="translate(37,10)"/>
<path d="M0,0 L1,0 L1,1 L0,1 Z " fill="#57EFAF" transform="translate(36,10)"/>
<path d="M0,0 L1,0 L1,1 L0,1 Z " fill="#56EEAD" transform="translate(27,10)"/>
<path d="M0,0 L1,0 L1,1 L0,1 Z " fill="#31CE8C" transform="translate(26,10)"/>
<path d="M0,0 L1,0 L1,1 L0,1 Z " fill="#46E1A0" opacity="0.8" transform="translate(51,9)"/>
<path d="M0,0 L1,0 L1,1 L0,1 Z " fill="#4BE5A4" transform="translate(37,9)"/>
<path d="M0,0 L1,0 L1,1 L0,1 Z " fill="#4AE4A3" transform="translate(26,9)"/>
<path d="M0,0 L1,0 L1,1 L0,1 Z " fill="#2CC987" transform="translate(13,9)"/>
<path d="M0,0 L1,0 L1,1 L0,1 Z " fill="#45E0A0" opacity="0.7921569" transform="translate(12,9)"/>
<path d="M0,0 L1,0 L1,1 L0,1 Z " fill="#46E2A0" opacity="0.7921569" transform="translate(50,8)"/>
<path d="M0,0 L1,0 L1,1 L0,1 Z " fill="#2ECB89" opacity="0.827451" transform="translate(49,8)"/>
<path d="M0,0 L1,0 L1,1 L0,1 Z " fill="#2BC986" opacity="0.9411765" transform="translate(48,8)"/>
<path d="M0,0 L1,0 L1,1 L0,1 Z " fill="#2CC987" transform="translate(38,8)"/>
<path d="M0,0 L1,0 L1,1 L0,1 Z " fill="#55EDAD" transform="translate(37,8)"/>
<path d="M0,0 L1,0 L1,1 L0,1 Z " fill="#55EDAD" transform="translate(26,8)"/>
<path d="M0,0 L1,0 L1,1 L0,1 Z " fill="#2BC986" opacity="0.9411765" transform="translate(15,8)"/>
<path d="M0,0 L1,0 L1,1 L0,1 Z " fill="#44E19F" opacity="0.7882353" transform="translate(13,8)"/>
<path d="M0,0 L1,0 L1,1 L0,1 Z " fill="#343441" opacity="0.972549" transform="translate(55,7)"/>
<path d="M0,0 L1,0 L1,1 L0,1 Z " fill="#343441" opacity="0.972549" transform="translate(8,7)"/>
<path d="M0,0 L1,0 L1,1 L0,1 Z " fill="#55E3A9" opacity="0.8235294" transform="translate(51,6)"/>
<path d="M0,0 L1,0 L1,1 L0,1 Z " fill="#55E5AA" opacity="0.83137256" transform="translate(12,6)"/>
<path d="M0,0 L1,0 L1,1 L0,1 Z " fill="#343440" opacity="0.7294118" transform="translate(55,5)"/>
<path d="M0,0 L1,0 L1,1 L0,1 Z " fill="#417C6A" opacity="0.7921569" transform="translate(51,5)"/>
<path d="M0,0 L1,0 L1,1 L0,1 Z " fill="#59F0B0" transform="translate(13,5)"/>
<path d="M0,0 L1,0 L1,1 L0,1 Z " fill="#343440" opacity="0.74509805" transform="translate(8,5)"/>
<path d="M0,0 L1,0 L1,1 L0,1 Z " fill="#417D6B" opacity="0.7921569" transform="translate(50,4)"/>
<path d="M0,0 L1,0 L1,1 L0,1 Z " fill="#56E4A8" opacity="0.827451" transform="translate(49,4)"/>
<path d="M0,0 L1,0 L1,1 L0,1 Z " fill="#58EFAF" opacity="0.9372549" transform="translate(48,4)"/>
<path d="M0,0 L1,0 L1,1 L0,1 Z " fill="#55E5AA" opacity="0.83137256" transform="translate(14,4)"/>
<path d="M0,0 L1,0 L1,1 L0,1 Z " fill="#343541" transform="translate(12,4)"/>
<path d="M0,0 L1,0 L1,1 L0,1 Z " fill="#30303C" opacity="0.08235294" transform="translate(55,3)"/>
<path d="M0,0 L1,0 L1,1 L0,1 Z " fill="#343441" opacity="0.972549" transform="translate(9,3)"/>
<path d="M0,0 L1,0 L1,1 L0,1 Z " fill="#2C2C42" opacity="0.09019608" transform="translate(8,3)"/>
<path d="M0,0 L1,0 L1,1 L0,1 Z " fill="#333340" opacity="0.39215687" transform="translate(54,2)"/>
<path d="M0,0 L1,0 L1,1 L0,1 Z " fill="#353541" transform="translate(10,2)"/>
<path d="M0,0 L1,0 L1,1 L0,1 Z " fill="#35353F" opacity="0.39607844" transform="translate(53,1)"/>
<path d="M0,0 L1,0 L1,1 L0,1 Z " fill="#343440" opacity="0.96862745" transform="translate(52,1)"/>
<path d="M0,0 L1,0 L1,1 L0,1 Z " fill="#343441" opacity="0.972549" transform="translate(11,1)"/>
<path d="M0,0 L1,0 L1,1 L0,1 Z " fill="#343440" opacity="0.003921569" transform="translate(9,1)"/>
<path d="M0,0 L1,0 L1,1 L0,1 Z " fill="#343441" opacity="0.47843137" transform="translate(51,0)"/>
<path d="M0,0 L1,0 L1,1 L0,1 Z " fill="#343441" opacity="0.7411765" transform="translate(50,0)"/>
<path d="M0,0 L1,0 L1,1 L0,1 Z " fill="#343441" opacity="0.9098039" transform="translate(49,0)"/>
<path d="M0,0 L1,0 L1,1 L0,1 Z " fill="#343441" opacity="0.972549" transform="translate(48,0)"/>
<path d="M0,0 L1,0 L1,1 L0,1 Z " fill="#343441" opacity="0.972549" transform="translate(15,0)"/>
<path d="M0,0 L1,0 L1,1 L0,1 Z " fill="#343440" opacity="0.74509805" transform="translate(13,0)"/>
<path d="M0,0 L1,0 L1,1 L0,1 Z " fill="#2C2C42" opacity="0.09019608" transform="translate(11,0)"/>
</svg>
