<?xml version="1.0" encoding="UTF-8"?>
<!-- Generator: visioncortex VTracer 0.6.4 -->
<svg version="1.1" xmlns="http://www.w3.org/2000/svg" width="64" height="64">
<path d="M0,0 L6,0 L6,1 L7,1 L7,2 L8,2 L8,4 L9,4 L9,6 L10,6 L10,8 L11,8 L11,10 L12,10 L12,12 L13,12 L13,13 L15,13 L15,15 L16,15 L16,17 L19,17 L19,18 L22,18 L22,19 L24,19 L24,20 L26,20 L26,21 L27,21 L27,22 L28,22 L28,23 L29,23 L29,24 L30,24 L30,27 L31,27 L31,28 L30,28 L30,31 L29,31 L29,32 L28,32 L28,33 L26,33 L26,34 L19,34 L19,35 L-13,35 L-13,34 L-19,34 L-19,33 L-21,33 L-21,32 L-23,32 L-23,31 L-24,31 L-24,24 L-23,24 L-23,23 L-22,23 L-22,22 L-21,22 L-21,21 L-20,21 L-20,20 L-18,20 L-18,19 L-16,19 L-16,18 L-13,18 L-13,17 L-9,17 L-9,16 L-7,16 L-7,12 L-6,12 L-6,10 L-5,10 L-5,8 L-4,8 L-4,6 L-3,6 L-3,4 L-2,4 L-2,2 L-1,2 L-1,1 L0,1 Z " fill="#59F0B0" transform="translate(29,29)"/>
<path d="M0,0 L6,0 L6,1 L7,1 L7,2 L8,2 L8,4 L9,4 L9,6 L10,6 L10,8 L11,8 L11,10 L12,10 L12,12 L13,12 L13,13 L15,13 L15,15 L16,15 L16,17 L19,17 L19,18 L22,18 L22,19 L24,19 L24,20 L26,20 L26,21 L27,21 L27,22 L28,22 L28,23 L29,23 L29,24 L30,24 L30,27 L31,27 L31,28 L30,28 L30,31 L29,31 L29,32 L28,32 L28,33 L26,33 L26,34 L19,34 L19,35 L-13,35 L-13,34 L-19,34 L-19,33 L-21,33 L-21,32 L-23,32 L-23,31 L-24,31 L-24,24 L-23,24 L-23,23 L-22,23 L-22,22 L-21,22 L-21,21 L-20,21 L-20,20 L-18,20 L-18,19 L-16,19 L-16,18 L-13,18 L-13,17 L-9,17 L-9,16 L-7,16 L-7,12 L-6,12 L-6,10 L-5,10 L-5,8 L-4,8 L-4,6 L-3,6 L-3,4 L-2,4 L-2,2 L-1,2 L-1,1 L0,1 Z M2,3 L2,4 L1,4 L1,5 L0,5 L0,7 L-1,7 L-1,9 L-2,9 L-2,11 L-3,11 L-3,13 L-4,13 L-4,15 L-6,15 L-6,16 L-7,16 L-7,20 L-11,20 L-11,21 L-15,21 L-15,22 L-17,22 L-17,23 L-18,23 L-18,24 L-20,24 L-20,25 L-21,25 L-21,29 L-19,29 L-19,30 L-17,30 L-17,31 L23,31 L23,30 L26,30 L26,29 L27,29 L27,25 L26,25 L26,24 L24,24 L24,23 L23,23 L23,22 L20,22 L20,21 L16,21 L16,20 L13,20 L13,16 L12,16 L12,15 L10,15 L10,13 L9,13 L9,11 L8,11 L8,9 L7,9 L7,7 L6,7 L6,5 L5,5 L5,4 L4,4 L4,3 Z " fill="#353541" transform="translate(29,29)"/>
<path d="M0,0 L3,0 L3,2 L4,2 L4,3 L7,3 L7,2 L8,2 L8,1 L9,1 L9,0 L23,0 L23,3 L24,3 L24,4 L25,4 L25,5 L29,5 L29,4 L30,4 L30,3 L31,3 L31,1 L36,1 L36,2 L39,2 L39,1 L40,1 L40,2 L41,2 L41,6 L40,6 L40,7 L37,7 L37,8 L-3,8 L-3,7 L-5,7 L-5,6 L-7,6 L-7,2 L-6,2 L-6,1 L-5,1 L-5,2 L-2,2 L-2,1 L0,1 Z " fill="#2CC987" transform="translate(15,52)"/>
<path d="M0,0 L2,0 L2,1 L3,1 L3,2 L4,2 L4,4 L5,4 L5,6 L6,6 L6,8 L7,8 L7,10 L8,10 L8,12 L10,12 L10,13 L11,13 L11,16 L-9,16 L-9,13 L-8,13 L-8,12 L-6,12 L-6,10 L-5,10 L-5,8 L-4,8 L-4,6 L-3,6 L-3,4 L-2,4 L-2,2 L-1,2 L-1,1 L0,1 Z " fill="#BBC4CB" transform="translate(31,32)"/>
<path d="M0,0 L1,0 L1,2 L13,2 L13,0 L14,0 L14,2 L16,2 L16,3 L17,3 L17,6 L-3,6 L-3,3 L-2,3 L-2,2 L0,2 Z " fill="#92A1AD" transform="translate(25,42)"/>
<path d="M0,0 L6,0 L6,1 L10,1 L10,2 L13,2 L13,3 L14,3 L14,4 L15,4 L15,5 L12,5 L12,4 L7,4 L7,6 L6,6 L6,7 L5,7 L5,8 L1,8 L1,7 L0,7 L0,6 L-1,6 L-1,1 L0,1 Z " fill="#59F0B0" transform="translate(39,49)"/>
<path d="M0,0 L1,0 L1,1 L2,1 L2,2 L7,2 L7,1 L8,1 L8,0 L9,0 L9,2 L8,2 L8,3 L7,3 L7,4 L2,4 L2,3 L1,3 L1,2 L0,2 Z " fill="#353541" transform="translate(16,53)"/>
<path d="M0,0 L1,0 L1,1 L0,1 Z M-1,2 L0,2 L0,3 L-1,3 Z " fill="#343742" transform="translate(25,53)"/>
<path d="M0,0 L1,0 L1,2 L13,2 L13,0 L14,0 L14,2 L16,2 L16,3 L-2,3 L-2,2 L0,2 Z " fill="#848E99" transform="translate(25,42)"/>
<path d="M0,0 L3,0 L3,1 L6,1 L6,2 L7,2 L7,3 L8,3 L8,4 L5,4 L5,3 L1,3 L1,2 L0,2 Z " fill="#59F0B0" transform="translate(46,50)"/>
<path d="M0,0 L4,0 L4,1 L3,1 L3,2 L1,2 L1,3 L-1,3 L-1,4 L-4,4 L-4,3 L-3,3 L-3,2 L-2,2 L-2,1 L0,1 Z " fill="#59F0B0" transform="translate(14,50)"/>
<path d="M0,0 L5,0 L5,1 L4,1 L4,2 L3,2 L3,3 L0,3 L0,2 L-1,2 L-1,1 L0,1 Z " fill="#2CC987" transform="translate(19,52)"/>
<path d="M0,0 L12,0 L12,1 L0,1 Z " fill="#2CC886" transform="translate(26,52)"/>
<path d="M0,0 L1,0 L1,2 L7,2 L7,3 L-2,3 L-2,2 L0,2 Z " fill="#8F97A1" transform="translate(25,42)"/>
<path d="M0,0 L5,0 L5,1 L6,1 L6,2 L0,2 Z " fill="#BCC4CB" transform="translate(32,41)"/>
<path d="M0,0 L3,0 L3,1 L4,1 L4,3 L0,3 Z " fill="#C6CED3" transform="translate(32,37)"/>
<path d="M0,0 L1,0 L1,2 L2,2 L2,4 L1,4 L1,3 L-4,3 L-4,2 L0,2 Z " fill="#C1C9CF" transform="translate(36,38)"/>
<path d="M0,0 L8,0 L8,1 L0,1 Z " fill="#5DEAAF" transform="translate(22,48)"/>
<path d="M0,0 L1,0 L1,1 L0,1 Z " fill="#343440" opacity="0.91764706" transform="translate(31,28)"/>
<path d="M0,0 L3,0 L3,2 L1,2 L1,3 L0,3 Z " fill="#353541" transform="translate(15,52)"/>
<path d="M0,0 L2,0 L2,2 L1,2 L1,3 L-1,3 L-1,1 L0,1 Z " fill="#58F0B0" transform="translate(39,49)"/>
<path d="M0,0 L7,0 L7,1 L0,1 Z " fill="#60E5AF" transform="translate(35,48)"/>
<path d="M0,0 L1,0 L1,2 L2,2 L2,4 L1,4 L1,3 L-2,3 L-2,2 L0,2 Z " fill="#CBD2D7" transform="translate(34,34)"/>
<path d="M0,0 L2,0 L2,1 L1,1 L1,2 L0,2 L0,3 L-1,3 L-1,4 L-2,4 L-2,2 L-1,2 L-1,1 L0,1 Z " fill="#BBC4CB" transform="translate(31,32)"/>
<path d="M0,0 L1,0 L1,1 L2,1 L2,3 L1,3 L1,2 L-2,2 L-2,1 L0,1 Z " fill="#48CB96" transform="translate(54,53)"/>
<path d="M0,0 L1,0 L1,1 L3,1 L3,2 L0,2 L0,3 L-1,3 L-1,1 L0,1 Z " fill="#2FB07C" transform="translate(9,53)"/>
<path d="M0,0 L1,0 L1,1 L0,1 Z M-1,1 L0,1 L0,2 L-1,2 Z M-2,2 L-1,2 L-1,3 L-2,3 Z M-3,3 L-2,3 L-2,4 L-3,4 Z M-4,4 L-3,4 L-3,5 L-4,5 Z " fill="#353541" transform="translate(9,49)"/>
<path d="M0,0 L1,0 L1,1 L0,1 Z " fill="#343440" opacity="0.827451" transform="translate(8,49)"/>
<path d="M0,0 L6,0 L6,1 L0,1 Z " fill="#B9C2C9" transform="translate(32,43)"/>
<path d="M0,0 L1,0 L1,1 L0,1 Z " fill="#343440" opacity="0.6862745" transform="translate(21,43)"/>
<path d="M0,0 L2,0 L2,3 L0,3 Z " fill="#CED5D9" transform="translate(32,33)"/>
<path d="M0,0 L2,0 L2,1 L3,1 L3,2 L0,2 Z " fill="#59F0B0" transform="translate(51,52)"/>
<path d="M0,0 L1,0 L1,1 L0,1 Z M1,1 L2,1 L2,2 L1,2 Z " fill="#343441" opacity="0.9882353" transform="translate(56,50)"/>
<path d="M0,0 L4,0 L4,1 L3,1 L3,2 L2,2 L2,1 L0,1 Z " fill="#59F0B0" transform="translate(14,50)"/>
<path d="M0,0 L1,0 L1,2 L3,2 L3,3 L0,3 Z " fill="#898F98" transform="translate(38,42)"/>
<path d="M0,0 L1,0 L1,3 L-2,3 L-2,2 L0,2 Z " fill="#8E949C" transform="translate(25,42)"/>
<path d="M0,0 L5,0 L5,1 L0,1 Z " fill="#BFC7CD" transform="translate(32,41)"/>
<path d="M0,0 L1,0 L1,1 L0,1 Z " fill="#353540" opacity="0.54901963" transform="translate(12,63)"/>
<path d="M0,0 L4,0 L4,1 L0,1 Z " fill="#2CBD81" transform="translate(12,59)"/>
<path d="M0,0 L1,0 L1,1 L0,1 Z " fill="#343440" opacity="0.88235295" transform="translate(59,55)"/>
<path d="M0,0 L1,0 L1,1 L0,1 Z " fill="#333340" opacity="0.3137255" transform="translate(4,53)"/>
<path d="M0,0 L2,0 L2,1 L1,1 L1,3 L0,3 Z " fill="#58F0AF" transform="translate(45,52)"/>
<path d="M0,0 L4,0 L4,1 L0,1 Z " fill="#2FC486" transform="translate(26,52)"/>
<path d="M0,0 L3,0 L3,1 L2,1 L2,2 L1,2 L1,1 L0,1 Z " fill="#37AD7D" transform="translate(21,52)"/>
<path d="M0,0 L2,0 L2,1 L1,1 L1,2 L-1,2 L-1,1 L0,1 Z " fill="#59F0B0" transform="translate(14,51)"/>
<path d="M0,0 L4,0 L4,1 L0,1 Z " fill="#58F0AF" transform="translate(41,49)"/>
<path d="M0,0 L4,0 L4,1 L0,1 Z " fill="#6BD6AE" transform="translate(22,48)"/>
<path d="M0,0 L1,0 L1,1 L0,1 Z " fill="#353540" opacity="0.8509804" transform="translate(15,46)"/>
<path d="M0,0 L1,0 L1,1 L0,1 Z " fill="#343440" opacity="0.8666667" transform="translate(19,45)"/>
<path d="M0,0 L4,0 L4,1 L0,1 Z " fill="#C4CBD1" transform="translate(32,39)"/>
<path d="M0,0 L1,0 L1,1 L0,1 Z " fill="#333340" opacity="0.77254903" transform="translate(36,30)"/>
<path d="M0,0 L1,0 L1,1 L0,1 Z " fill="#343440" opacity="0.7490196" transform="translate(27,30)"/>
<path d="M0,0 L1,0 L1,1 L0,1 Z M-1,1 L0,1 L0,2 L-1,2 Z M-2,2 L-1,2 L-1,3 L-2,3 Z " fill="#353541" transform="translate(29,29)"/>
<path d="M0,0 L3,0 L3,1 L0,1 Z " fill="#32AC7C" transform="translate(47,53)"/>
<path d="M0,0 L1,0 L1,3 L0,3 Z " fill="#55ECAC" transform="translate(38,52)"/>
<path d="M0,0 L1,0 L1,3 L0,3 Z " fill="#343742" transform="translate(25,52)"/>
<path d="M0,0 L2,0 L2,2 L1,2 L1,1 L0,1 Z " fill="#2CC987" transform="translate(18,53)"/>
<path d="M0,0 L3,0 L3,1 L0,1 Z " fill="#31C085" transform="translate(35,52)"/>
<path d="M0,0 L3,0 L3,1 L0,1 Z " fill="#38464B" transform="translate(15,52)"/>
<path d="M0,0 L1,0 L1,1 L0,1 Z M-2,1 L0,1 L0,2 L-2,2 Z " fill="#59F0B0" transform="translate(40,50)"/>
<path d="M0,0 L1,0 L1,1 L0,1 Z " fill="#353540" opacity="0.2627451" transform="translate(50,46)"/>
<path d="M0,0 L1,0 L1,1 L0,1 Z " fill="#333340" opacity="0.15686275" transform="translate(47,45)"/>
<path d="M0,0 L1,0 L1,1 L0,1 Z " fill="#353540" opacity="0.90588236" transform="translate(42,41)"/>
<path d="M0,0 L3,0 L3,1 L0,1 Z " fill="#C9D0D5" transform="translate(32,37)"/>
<path d="M0,0 L1,0 L1,1 L0,1 Z " fill="#343440" opacity="0.003921569" transform="translate(55,63)"/>
<path d="M0,0 L1,0 L1,1 L0,1 Z " fill="#34343F" opacity="0.44313726" transform="translate(53,63)"/>
<path d="M0,0 L1,0 L1,1 L0,1 Z " fill="#353540" opacity="0.69803923" transform="translate(51,63)"/>
<path d="M0,0 L1,0 L1,1 L0,1 Z " fill="#353540" opacity="0.8117647" transform="translate(14,63)"/>
<path d="M0,0 L1,0 L1,1 L0,1 Z " fill="#313141" opacity="0.18431373" transform="translate(10,63)"/>
<path d="M0,0 L1,0 L1,1 L0,1 Z " fill="#353540" opacity="0.011764706" transform="translate(57,62)"/>
<path d="M0,0 L1,0 L1,1 L0,1 Z " fill="#35353F" opacity="0.49019608" transform="translate(8,62)"/>
<path d="M0,0 L1,0 L1,1 L0,1 Z " fill="#343440" opacity="0.53333336" transform="translate(6,61)"/>
<path d="M0,0 L1,0 L1,1 L0,1 Z " fill="#343441" opacity="0.019607844" transform="translate(59,60)"/>
<path d="M0,0 L1,0 L1,1 L0,1 Z " fill="#33333F" opacity="0.003921569" transform="translate(4,60)"/>
<path d="M0,0 L2,0 L2,1 L0,1 Z " fill="#334C4C" transform="translate(52,59)"/>
<path d="M0,0 L2,0 L2,1 L0,1 Z " fill="#2E9D72" transform="translate(50,59)"/>
<path d="M0,0 L2,0 L2,1 L0,1 Z " fill="#2E9A71" transform="translate(12,59)"/>
<path d="M0,0 L1,0 L1,1 L0,1 Z " fill="#343441" opacity="0.003921569" transform="translate(60,57)"/>
<path d="M0,0 L1,0 L1,1 L0,1 Z M-1,1 L0,1 L0,2 L-1,2 Z " fill="#2F8D6A" transform="translate(55,57)"/>
<path d="M0,0 L2,0 L2,1 L0,1 Z " fill="#33514D" transform="translate(18,57)"/>
<path d="M0,0 L2,0 L2,1 L0,1 Z " fill="#56EEAE" transform="translate(40,56)"/>
<path d="M0,0 L1,0 L1,2 L0,2 Z " fill="#2EAD7A" transform="translate(55,54)"/>
<path d="M0,0 L1,0 L1,2 L0,2 Z " fill="#2EA375" transform="translate(8,54)"/>
<path d="M0,0 L1,0 L1,1 L0,1 Z " fill="#343440" opacity="0.91764706" transform="translate(4,55)"/>
<path d="M0,0 L2,0 L2,1 L0,1 Z " fill="#38AE7E" transform="translate(52,54)"/>
<path d="M0,0 L1,0 L1,2 L0,2 Z " fill="#2CC987" transform="translate(46,53)"/>
<path d="M0,0 L1,0 L1,2 L0,2 Z " fill="#4BCD97" transform="translate(9,53)"/>
<path d="M0,0 L1,0 L1,1 L0,1 Z " fill="#343440" opacity="0.42352942" transform="translate(59,53)"/>
<path d="M0,0 L2,0 L2,1 L0,1 Z " fill="#2EC486" transform="translate(33,52)"/>
<path d="M0,0 L2,0 L2,1 L0,1 Z " fill="#31C086" transform="translate(26,52)"/>
<path d="M0,0 L2,0 L2,1 L0,1 Z " fill="#3DB584" transform="translate(19,52)"/>
<path d="M0,0 L1,0 L1,1 L0,1 Z " fill="#343440" opacity="0.8392157" transform="translate(5,52)"/>
<path d="M0,0 L2,0 L2,1 L0,1 Z " fill="#56E1A7" transform="translate(12,51)"/>
<path d="M0,0 L2,0 L2,1 L0,1 Z " fill="#363C44" transform="translate(49,50)"/>
<path d="M0,0 L2,0 L2,1 L0,1 Z " fill="#58F0B0" transform="translate(44,50)"/>
<path d="M0,0 L2,0 L2,1 L0,1 Z " fill="#4EB990" transform="translate(14,50)"/>
<path d="M0,0 L1,0 L1,1 L0,1 Z " fill="#343440" opacity="0.9764706" transform="translate(7,50)"/>
<path d="M0,0 L2,0 L2,1 L0,1 Z " fill="#3F6D61" transform="translate(45,49)"/>
<path d="M0,0 L2,0 L2,1 L0,1 Z " fill="#50C798" transform="translate(18,49)"/>
<path d="M0,0 L1,0 L1,1 L0,1 Z " fill="#343440" opacity="0.023529412" transform="translate(55,48)"/>
<path d="M0,0 L2,0 L2,1 L0,1 Z " fill="#353742" transform="translate(42,48)"/>
<path d="M0,0 L2,0 L2,1 L0,1 Z " fill="#7EBDAD" transform="translate(40,48)"/>
<path d="M0,0 L2,0 L2,1 L0,1 Z " fill="#71CEAE" transform="translate(38,48)"/>
<path d="M0,0 L2,0 L2,1 L0,1 Z " fill="#5CEAAF" transform="translate(33,48)"/>
<path d="M0,0 L2,0 L2,1 L0,1 Z " fill="#59EFAF" transform="translate(30,48)"/>
<path d="M0,0 L2,0 L2,1 L0,1 Z " fill="#60E5AF" transform="translate(26,48)"/>
<path d="M0,0 L2,0 L2,1 L0,1 Z " fill="#77C6AE" transform="translate(22,48)"/>
<path d="M0,0 L1,0 L1,1 L0,1 Z " fill="#333340" opacity="0.46666667" transform="translate(9,48)"/>
<path d="M0,0 L1,0 L1,1 L0,1 Z " fill="#33333F" opacity="0.05490196" transform="translate(53,47)"/>
<path d="M0,0 L1,0 L1,1 L0,1 Z " fill="#343440" opacity="0.42352942" transform="translate(11,47)"/>
<path d="M0,0 L1,0 L1,2 L0,2 Z " fill="#909FAB" transform="translate(41,45)"/>
<path d="M0,0 L1,0 L1,2 L0,2 Z " fill="#909FAB" transform="translate(22,45)"/>
<path d="M0,0 L1,0 L1,1 L0,1 Z " fill="#35353D" opacity="0.24313726" transform="translate(13,46)"/>
<path d="M0,0 L1,0 L1,1 L0,1 Z " fill="#343440" opacity="0.4392157" transform="translate(17,45)"/>
<path d="M0,0 L1,0 L1,1 L0,1 Z " fill="#343441" opacity="0.6313726" transform="translate(45,44)"/>
<path d="M0,0 L2,0 L2,1 L0,1 Z " fill="#595F6C" transform="translate(39,44)"/>
<path d="M0,0 L2,0 L2,1 L0,1 Z " fill="#636B77" transform="translate(23,44)"/>
<path d="M0,0 L1,0 L1,1 L0,1 Z " fill="#353540" opacity="0.69803923" transform="translate(21,44)"/>
<path d="M0,0 L1,0 L1,2 L0,2 Z " fill="#B6BDC4" transform="translate(37,40)"/>
<path d="M0,0 L1,0 L1,2 L0,2 Z " fill="#B4BCC4" transform="translate(26,40)"/>
<path d="M0,0 L1,0 L1,1 L0,1 Z " fill="#333340" opacity="0.32941177" transform="translate(21,41)"/>
<path d="M0,0 L1,0 L1,1 L0,1 Z " fill="#35353F" opacity="0.49019608" transform="translate(41,39)"/>
<path d="M0,0 L1,0 L1,2 L0,2 Z " fill="#BBC1C8" transform="translate(36,38)"/>
<path d="M0,0 L1,0 L1,2 L0,2 Z " fill="#B4BCC4" transform="translate(27,38)"/>
<path d="M0,0 L1,0 L1,1 L0,1 Z " fill="#333340" opacity="0.46666667" transform="translate(22,39)"/>
<path d="M0,0 L1,0 L1,1 L0,1 Z " fill="#35353F" opacity="0.49019608" transform="translate(40,37)"/>
<path d="M0,0 L1,0 L1,2 L0,2 Z " fill="#BFC6CB" transform="translate(35,36)"/>
<path d="M0,0 L1,0 L1,2 L0,2 Z " fill="#B4BCC4" transform="translate(28,36)"/>
<path d="M0,0 L1,0 L1,1 L0,1 Z " fill="#333340" opacity="0.46666667" transform="translate(23,37)"/>
<path d="M0,0 L1,0 L1,1 L0,1 Z " fill="#35353F" opacity="0.49019608" transform="translate(39,35)"/>
<path d="M0,0 L1,0 L1,2 L0,2 Z " fill="#C4CBCF" transform="translate(34,34)"/>
<path d="M0,0 L1,0 L1,2 L0,2 Z " fill="#B4BCC4" transform="translate(29,34)"/>
<path d="M0,0 L1,0 L1,1 L0,1 Z " fill="#333340" opacity="0.46666667" transform="translate(24,35)"/>
<path d="M0,0 L1,0 L1,2 L0,2 Z " fill="#D1D7DC" transform="translate(33,33)"/>
<path d="M0,0 L1,0 L1,2 L0,2 Z " fill="#D1D7DC" transform="translate(32,33)"/>
<path d="M0,0 L1,0 L1,1 L0,1 Z " fill="#35353F" opacity="0.49019608" transform="translate(38,33)"/>
<path d="M0,0 L1,0 L1,1 L0,1 Z " fill="#333340" opacity="0.46666667" transform="translate(25,33)"/>
<path d="M0,0 L1,0 L1,1 L0,1 Z " fill="#34343F" opacity="0.007843138" transform="translate(35,28)"/>
<path d="M0,0 L1,0 L1,1 L0,1 Z " fill="#353540" opacity="0.35686275" transform="translate(29,28)"/>
<path d="M0,0 L1,0 L1,1 L0,1 Z " fill="#343440" opacity="0.17254902" transform="translate(54,63)"/>
<path d="M0,0 L1,0 L1,1 L0,1 Z " fill="#343440" opacity="0.5921569" transform="translate(52,63)"/>
<path d="M0,0 L1,0 L1,1 L0,1 Z " fill="#343440" opacity="0.8039216" transform="translate(50,63)"/>
<path d="M0,0 L1,0 L1,1 L0,1 Z " fill="#343441" opacity="0.9098039" transform="translate(49,63)"/>
<path d="M0,0 L1,0 L1,1 L0,1 Z " fill="#343440" opacity="0.99607843" transform="translate(48,63)"/>
<path d="M0,0 L1,0 L1,1 L0,1 Z " fill="#343440" opacity="0.9490196" transform="translate(15,63)"/>
<path d="M0,0 L1,0 L1,1 L0,1 Z " fill="#353541" opacity="0.6784314" transform="translate(13,63)"/>
<path d="M0,0 L1,0 L1,1 L0,1 Z " fill="#353541" opacity="0.41568628" transform="translate(11,63)"/>
<path d="M0,0 L1,0 L1,1 L0,1 Z " fill="#343440" opacity="0.003921569" transform="translate(9,63)"/>
<path d="M0,0 L1,0 L1,1 L0,1 Z " fill="#35353F" opacity="0.39607844" transform="translate(56,62)"/>
<path d="M0,0 L1,0 L1,1 L0,1 Z " fill="#343440" opacity="0.84313726" transform="translate(55,62)"/>
<path d="M0,0 L1,0 L1,1 L0,1 Z " fill="#343440" opacity="0.8392157" transform="translate(9,62)"/>
<path d="M0,0 L1,0 L1,1 L0,1 Z " fill="#333341" opacity="0.13725491" transform="translate(7,62)"/>
<path d="M0,0 L1,0 L1,1 L0,1 Z " fill="#333340" opacity="0.078431375" transform="translate(58,61)"/>
<path d="M0,0 L1,0 L1,1 L0,1 Z " fill="#353540" opacity="0.75686276" transform="translate(57,61)"/>
<path d="M0,0 L1,0 L1,1 L0,1 Z " fill="#343440" opacity="0.99215686" transform="translate(7,61)"/>
<path d="M0,0 L1,0 L1,1 L0,1 Z " fill="#333340" opacity="0.019607844" transform="translate(5,61)"/>
<path d="M0,0 L1,0 L1,1 L0,1 Z " fill="#343440" opacity="0.7882353" transform="translate(58,60)"/>
<path d="M0,0 L1,0 L1,1 L0,1 Z " fill="#333340" opacity="0.65882355" transform="translate(5,60)"/>
<path d="M0,0 L1,0 L1,1 L0,1 Z " fill="#343441" opacity="0.4" transform="translate(59,59)"/>
<path d="M0,0 L1,0 L1,1 L0,1 Z " fill="#307760" transform="translate(52,59)"/>
<path d="M0,0 L1,0 L1,1 L0,1 Z " fill="#2DAE7A" transform="translate(50,59)"/>
<path d="M0,0 L1,0 L1,1 L0,1 Z " fill="#2CBB80" transform="translate(49,59)"/>
<path d="M0,0 L1,0 L1,1 L0,1 Z " fill="#2BC785" transform="translate(48,59)"/>
<path d="M0,0 L1,0 L1,1 L0,1 Z " fill="#2DAC79" transform="translate(14,59)"/>
<path d="M0,0 L1,0 L1,1 L0,1 Z " fill="#2F8064" transform="translate(12,59)"/>
<path d="M0,0 L1,0 L1,1 L0,1 Z " fill="#325851" transform="translate(11,59)"/>
<path d="M0,0 L1,0 L1,1 L0,1 Z " fill="#343742" transform="translate(10,59)"/>
<path d="M0,0 L1,0 L1,1 L0,1 Z " fill="#33333F" opacity="0.33333334" transform="translate(4,59)"/>
<path d="M0,0 L1,0 L1,1 L0,1 Z " fill="#343440" opacity="0.7490196" transform="translate(59,58)"/>
<path d="M0,0 L1,0 L1,1 L0,1 Z " fill="#343C43" transform="translate(55,58)"/>
<path d="M0,0 L1,0 L1,1 L0,1 Z " fill="#2CBD81" transform="translate(10,58)"/>
<path d="M0,0 L1,0 L1,1 L0,1 Z " fill="#316F5C" transform="translate(9,58)"/>
<path d="M0,0 L1,0 L1,1 L0,1 Z " fill="#343641" transform="translate(8,58)"/>
<path d="M0,0 L1,0 L1,1 L0,1 Z " fill="#353540" opacity="0.69803923" transform="translate(4,58)"/>
<path d="M0,0 L1,0 L1,1 L0,1 Z " fill="#343441" opacity="0.95686275" transform="translate(59,57)"/>
<path d="M0,0 L1,0 L1,1 L0,1 Z " fill="#2DB97F" transform="translate(23,57)"/>
<path d="M0,0 L1,0 L1,1 L0,1 Z " fill="#31705C" transform="translate(22,57)"/>
<path d="M0,0 L1,0 L1,1 L0,1 Z " fill="#33514D" transform="translate(21,57)"/>
<path d="M0,0 L1,0 L1,1 L0,1 Z " fill="#343B44" transform="translate(20,57)"/>
<path d="M0,0 L1,0 L1,1 L0,1 Z " fill="#30705C" transform="translate(18,57)"/>
<path d="M0,0 L1,0 L1,1 L0,1 Z " fill="#2CB97F" transform="translate(17,57)"/>
<path d="M0,0 L1,0 L1,1 L0,1 Z " fill="#307F64" transform="translate(8,57)"/>
<path d="M0,0 L1,0 L1,1 L0,1 Z " fill="#343441" opacity="0.89411765" transform="translate(4,57)"/>
<path d="M0,0 L1,0 L1,1 L0,1 Z " fill="#353541" opacity="0.02745098" transform="translate(60,56)"/>
<path d="M0,0 L1,0 L1,1 L0,1 Z " fill="#343842" transform="translate(56,56)"/>
<path d="M0,0 L1,0 L1,1 L0,1 Z " fill="#2BC686" transform="translate(55,56)"/>
<path d="M0,0 L1,0 L1,1 L0,1 Z " fill="#31CE8C" transform="translate(44,56)"/>
<path d="M0,0 L1,0 L1,1 L0,1 Z " fill="#49E3A2" transform="translate(43,56)"/>
<path d="M0,0 L1,0 L1,1 L0,1 Z " fill="#55ECAC" transform="translate(42,56)"/>
<path d="M0,0 L1,0 L1,1 L0,1 Z " fill="#49E2A1" transform="translate(40,56)"/>
<path d="M0,0 L1,0 L1,1 L0,1 Z " fill="#30CD8B" transform="translate(39,56)"/>
<path d="M0,0 L1,0 L1,1 L0,1 Z " fill="#2F976F" transform="translate(24,56)"/>
<path d="M0,0 L1,0 L1,1 L0,1 Z " fill="#333D45" transform="translate(23,56)"/>
<path d="M0,0 L1,0 L1,1 L0,1 Z " fill="#343F45" transform="translate(17,56)"/>
<path d="M0,0 L1,0 L1,1 L0,1 Z " fill="#2E9B71" transform="translate(16,56)"/>
<path d="M0,0 L1,0 L1,1 L0,1 Z " fill="#2CC284" transform="translate(8,56)"/>
<path d="M0,0 L1,0 L1,1 L0,1 Z " fill="#343440" opacity="0.99215686" transform="translate(4,56)"/>
<path d="M0,0 L1,0 L1,1 L0,1 Z " fill="#31CD8C" transform="translate(45,55)"/>
<path d="M0,0 L1,0 L1,1 L0,1 Z " fill="#56EDAD" transform="translate(44,55)"/>
<path d="M0,0 L1,0 L1,1 L0,1 Z " fill="#55EDAD" transform="translate(39,55)"/>
<path d="M0,0 L1,0 L1,1 L0,1 Z " fill="#30CE8C" transform="translate(38,55)"/>
<path d="M0,0 L1,0 L1,1 L0,1 Z " fill="#2DAA78" transform="translate(25,55)"/>
<path d="M0,0 L1,0 L1,1 L0,1 Z " fill="#343943" transform="translate(16,55)"/>
<path d="M0,0 L1,0 L1,1 L0,1 Z " fill="#2DAC79" transform="translate(15,55)"/>
<path d="M0,0 L1,0 L1,1 L0,1 Z " fill="#2CC987" transform="translate(9,55)"/>
<path d="M0,0 L1,0 L1,1 L0,1 Z " fill="#343440" opacity="0.7019608" transform="translate(59,54)"/>
<path d="M0,0 L1,0 L1,1 L0,1 Z " fill="#417C6C" transform="translate(55,54)"/>
<path d="M0,0 L1,0 L1,1 L0,1 Z " fill="#30B17C" transform="translate(52,54)"/>
<path d="M0,0 L1,0 L1,1 L0,1 Z " fill="#2BC584" transform="translate(51,54)"/>
<path d="M0,0 L1,0 L1,1 L0,1 Z " fill="#4AE3A2" transform="translate(45,54)"/>
<path d="M0,0 L1,0 L1,1 L0,1 Z " fill="#49E3A2" transform="translate(38,54)"/>
<path d="M0,0 L1,0 L1,1 L0,1 Z " fill="#325C52" transform="translate(25,54)"/>
<path d="M0,0 L1,0 L1,1 L0,1 Z " fill="#334B4B" transform="translate(22,54)"/>
<path d="M0,0 L1,0 L1,1 L0,1 Z " fill="#2DA275" transform="translate(21,54)"/>
<path d="M0,0 L1,0 L1,1 L0,1 Z " fill="#2CC182" transform="translate(20,54)"/>
<path d="M0,0 L1,0 L1,1 L0,1 Z " fill="#2DA074" transform="translate(19,54)"/>
<path d="M0,0 L1,0 L1,1 L0,1 Z " fill="#334649" transform="translate(18,54)"/>
<path d="M0,0 L1,0 L1,1 L0,1 Z " fill="#326055" transform="translate(15,54)"/>
<path d="M0,0 L1,0 L1,1 L0,1 Z " fill="#2BC485" transform="translate(12,54)"/>
<path d="M0,0 L1,0 L1,1 L0,1 Z " fill="#38AD7F" transform="translate(10,54)"/>
<path d="M0,0 L1,0 L1,1 L0,1 Z " fill="#3F6F63" transform="translate(8,54)"/>
<path d="M0,0 L1,0 L1,1 L0,1 Z " fill="#343440" opacity="0.6901961" transform="translate(4,54)"/>
<path d="M0,0 L1,0 L1,1 L0,1 Z " fill="#353642" transform="translate(55,53)"/>
<path d="M0,0 L1,0 L1,1 L0,1 Z " fill="#489D7E" transform="translate(54,53)"/>
<path d="M0,0 L1,0 L1,1 L0,1 Z " fill="#59F0B0" transform="translate(53,53)"/>
<path d="M0,0 L1,0 L1,1 L0,1 Z " fill="#56EBAC" transform="translate(51,53)"/>
<path d="M0,0 L1,0 L1,1 L0,1 Z " fill="#48C793" transform="translate(50,53)"/>
<path d="M0,0 L1,0 L1,1 L0,1 Z " fill="#3BB081" transform="translate(49,53)"/>
<path d="M0,0 L1,0 L1,1 L0,1 Z " fill="#2EB47D" transform="translate(47,53)"/>
<path d="M0,0 L1,0 L1,1 L0,1 Z " fill="#2CC384" transform="translate(46,53)"/>
<path d="M0,0 L1,0 L1,1 L0,1 Z " fill="#55ECAC" transform="translate(45,53)"/>
<path d="M0,0 L1,0 L1,1 L0,1 Z " fill="#2CC987" transform="translate(26,53)"/>
<path d="M0,0 L1,0 L1,1 L0,1 Z " fill="#343741" transform="translate(23,53)"/>
<path d="M0,0 L1,0 L1,1 L0,1 Z " fill="#2CB07A" transform="translate(22,53)"/>
<path d="M0,0 L1,0 L1,1 L0,1 Z " fill="#2DA877" transform="translate(18,53)"/>
<path d="M0,0 L1,0 L1,1 L0,1 Z " fill="#343641" transform="translate(17,53)"/>
<path d="M0,0 L1,0 L1,1 L0,1 Z " fill="#343A43" transform="translate(15,53)"/>
<path d="M0,0 L1,0 L1,1 L0,1 Z " fill="#3AB182" transform="translate(14,53)"/>
<path d="M0,0 L1,0 L1,1 L0,1 Z " fill="#47C794" transform="translate(13,53)"/>
<path d="M0,0 L1,0 L1,1 L0,1 Z " fill="#56EBAC" transform="translate(12,53)"/>
<path d="M0,0 L1,0 L1,1 L0,1 Z " fill="#59F0B0" transform="translate(10,53)"/>
<path d="M0,0 L1,0 L1,1 L0,1 Z " fill="#479379" transform="translate(9,53)"/>
<path d="M0,0 L1,0 L1,1 L0,1 Z " fill="#343541" transform="translate(8,53)"/>
<path d="M0,0 L1,0 L1,1 L0,1 Z " fill="#343441" opacity="0.03529412" transform="translate(59,52)"/>
<path d="M0,0 L1,0 L1,1 L0,1 Z " fill="#343441" opacity="0.9098039" transform="translate(58,52)"/>
<path d="M0,0 L1,0 L1,1 L0,1 Z " fill="#427C6C" transform="translate(53,52)"/>
<path d="M0,0 L1,0 L1,1 L0,1 Z " fill="#56E2A7" transform="translate(52,52)"/>
<path d="M0,0 L1,0 L1,1 L0,1 Z " fill="#58EEAE" transform="translate(45,52)"/>
<path d="M0,0 L1,0 L1,1 L0,1 Z " fill="#55EBAC" transform="translate(38,52)"/>
<path d="M0,0 L1,0 L1,1 L0,1 Z " fill="#33BF86" transform="translate(37,52)"/>
<path d="M0,0 L1,0 L1,1 L0,1 Z " fill="#30C285" transform="translate(35,52)"/>
<path d="M0,0 L1,0 L1,1 L0,1 Z " fill="#2DC586" transform="translate(33,52)"/>
<path d="M0,0 L1,0 L1,1 L0,1 Z " fill="#2BC886" transform="translate(32,52)"/>
<path d="M0,0 L1,0 L1,1 L0,1 Z " fill="#2DC586" transform="translate(30,52)"/>
<path d="M0,0 L1,0 L1,1 L0,1 Z " fill="#30C285" transform="translate(28,52)"/>
<path d="M0,0 L1,0 L1,1 L0,1 Z " fill="#33BF86" transform="translate(26,52)"/>
<path d="M0,0 L1,0 L1,1 L0,1 Z " fill="#347461" transform="translate(25,52)"/>
<path d="M0,0 L1,0 L1,1 L0,1 Z " fill="#354348" transform="translate(24,52)"/>
<path d="M0,0 L1,0 L1,1 L0,1 Z " fill="#37816A" transform="translate(23,52)"/>
<path d="M0,0 L1,0 L1,1 L0,1 Z " fill="#39AF80" transform="translate(21,52)"/>
<path d="M0,0 L1,0 L1,1 L0,1 Z " fill="#45C290" transform="translate(19,52)"/>
<path d="M0,0 L1,0 L1,1 L0,1 Z " fill="#4ED9A1" transform="translate(18,52)"/>
<path d="M0,0 L1,0 L1,1 L0,1 Z " fill="#46957A" transform="translate(17,52)"/>
<path d="M0,0 L1,0 L1,1 L0,1 Z " fill="#469177" transform="translate(15,52)"/>
<path d="M0,0 L1,0 L1,1 L0,1 Z " fill="#55DEA6" transform="translate(11,52)"/>
<path d="M0,0 L1,0 L1,1 L0,1 Z " fill="#417667" transform="translate(10,52)"/>
<path d="M0,0 L1,0 L1,1 L0,1 Z " fill="#343440" opacity="0.007843138" transform="translate(4,52)"/>
<path d="M0,0 L1,0 L1,1 L0,1 Z " fill="#32323F" opacity="0.31764707" transform="translate(58,51)"/>
<path d="M0,0 L1,0 L1,1 L0,1 Z " fill="#374148" transform="translate(52,51)"/>
<path d="M0,0 L1,0 L1,1 L0,1 Z " fill="#47997C" transform="translate(51,51)"/>
<path d="M0,0 L1,0 L1,1 L0,1 Z " fill="#56E3A8" transform="translate(50,51)"/>
<path d="M0,0 L1,0 L1,1 L0,1 Z " fill="#59F0AF" transform="translate(45,51)"/>
<path d="M0,0 L1,0 L1,1 L0,1 Z " fill="#59F0AF" transform="translate(38,51)"/>
<path d="M0,0 L1,0 L1,1 L0,1 Z " fill="#47957A" transform="translate(12,51)"/>
<path d="M0,0 L1,0 L1,1 L0,1 Z " fill="#374047" transform="translate(11,51)"/>
<path d="M0,0 L1,0 L1,1 L0,1 Z " fill="#343441" opacity="0.972549" transform="translate(6,51)"/>
<path d="M0,0 L1,0 L1,1 L0,1 Z " fill="#353540" opacity="0.2627451" transform="translate(5,51)"/>
<path d="M0,0 L1,0 L1,1 L0,1 Z " fill="#33333F" opacity="0.33333334" transform="translate(57,50)"/>
<path d="M0,0 L1,0 L1,1 L0,1 Z " fill="#427B6A" transform="translate(49,50)"/>
<path d="M0,0 L1,0 L1,1 L0,1 Z " fill="#4EBC91" transform="translate(48,50)"/>
<path d="M0,0 L1,0 L1,1 L0,1 Z " fill="#57EAAD" transform="translate(47,50)"/>
<path d="M0,0 L1,0 L1,1 L0,1 Z " fill="#57E9AC" transform="translate(16,50)"/>
<path d="M0,0 L1,0 L1,1 L0,1 Z " fill="#417868" transform="translate(14,50)"/>
<path d="M0,0 L1,0 L1,1 L0,1 Z " fill="#363B44" transform="translate(13,50)"/>
<path d="M0,0 L1,0 L1,1 L0,1 Z " fill="#34343F" opacity="0.28627452" transform="translate(6,50)"/>
<path d="M0,0 L1,0 L1,1 L0,1 Z " fill="#32323E" opacity="0.23921569" transform="translate(56,49)"/>
<path d="M0,0 L1,0 L1,1 L0,1 Z " fill="#343440" opacity="0.8392157" transform="translate(55,49)"/>
<path d="M0,0 L1,0 L1,1 L0,1 Z " fill="#363D46" transform="translate(47,49)"/>
<path d="M0,0 L1,0 L1,1 L0,1 Z " fill="#49A181" transform="translate(45,49)"/>
<path d="M0,0 L1,0 L1,1 L0,1 Z " fill="#52CE9B" transform="translate(44,49)"/>
<path d="M0,0 L1,0 L1,1 L0,1 Z " fill="#58EEAE" transform="translate(43,49)"/>
<path d="M0,0 L1,0 L1,1 L0,1 Z " fill="#57E9AB" transform="translate(20,49)"/>
<path d="M0,0 L1,0 L1,1 L0,1 Z " fill="#499F80" transform="translate(18,49)"/>
<path d="M0,0 L1,0 L1,1 L0,1 Z " fill="#3E6A60" transform="translate(17,49)"/>
<path d="M0,0 L1,0 L1,1 L0,1 Z " fill="#363C44" transform="translate(16,49)"/>
<path d="M0,0 L1,0 L1,1 L0,1 Z " fill="#323240" opacity="0.21960784" transform="translate(7,49)"/>
<path d="M0,0 L1,0 L1,1 L0,1 Z " fill="#343440" opacity="0.48235294" transform="translate(54,48)"/>
<path d="M0,0 L1,0 L1,1 L0,1 Z " fill="#343440" opacity="0.9529412" transform="translate(53,48)"/>
<path d="M0,0 L1,0 L1,1 L0,1 Z " fill="#3A5352" transform="translate(42,48)"/>
<path d="M0,0 L1,0 L1,1 L0,1 Z " fill="#76C6AE" transform="translate(40,48)"/>
<path d="M0,0 L1,0 L1,1 L0,1 Z " fill="#6AD7AF" transform="translate(38,48)"/>
<path d="M0,0 L1,0 L1,1 L0,1 Z " fill="#64DFAF" transform="translate(37,48)"/>
<path d="M0,0 L1,0 L1,1 L0,1 Z " fill="#5EE7AF" transform="translate(35,48)"/>
<path d="M0,0 L1,0 L1,1 L0,1 Z " fill="#5BECB0" transform="translate(33,48)"/>
<path d="M0,0 L1,0 L1,1 L0,1 Z " fill="#59EFB0" transform="translate(32,48)"/>
<path d="M0,0 L1,0 L1,1 L0,1 Z " fill="#5BECB0" transform="translate(30,48)"/>
<path d="M0,0 L1,0 L1,1 L0,1 Z " fill="#5EE7AF" transform="translate(28,48)"/>
<path d="M0,0 L1,0 L1,1 L0,1 Z " fill="#65DEAF" transform="translate(26,48)"/>
<path d="M0,0 L1,0 L1,1 L0,1 Z " fill="#71CEAF" transform="translate(24,48)"/>
<path d="M0,0 L1,0 L1,1 L0,1 Z " fill="#7EBCAE" transform="translate(22,48)"/>
<path d="M0,0 L1,0 L1,1 L0,1 Z " fill="#3A5252" transform="translate(21,48)"/>
<path d="M0,0 L1,0 L1,1 L0,1 Z " fill="#353742" transform="translate(20,48)"/>
<path d="M0,0 L1,0 L1,1 L0,1 Z " fill="#343440" opacity="0.9529412" transform="translate(10,48)"/>
<path d="M0,0 L1,0 L1,1 L0,1 Z " fill="#333340" opacity="0.019607844" transform="translate(8,48)"/>
<path d="M0,0 L1,0 L1,1 L0,1 Z " fill="#33333F" opacity="0.42745098" transform="translate(52,47)"/>
<path d="M0,0 L1,0 L1,1 L0,1 Z " fill="#343441" opacity="0.84705883" transform="translate(51,47)"/>
<path d="M0,0 L1,0 L1,1 L0,1 Z " fill="#343440" opacity="0.8392157" transform="translate(12,47)"/>
<path d="M0,0 L1,0 L1,1 L0,1 Z " fill="#343440" opacity="0.05490196" transform="translate(10,47)"/>
<path d="M0,0 L1,0 L1,1 L0,1 Z " fill="#353540" opacity="0.003921569" transform="translate(51,46)"/>
<path d="M0,0 L1,0 L1,1 L0,1 Z " fill="#343440" opacity="0.5764706" transform="translate(49,46)"/>
<path d="M0,0 L1,0 L1,1 L0,1 Z " fill="#343440" opacity="0.8666667" transform="translate(48,46)"/>
<path d="M0,0 L1,0 L1,1 L0,1 Z " fill="#343440" opacity="0.5568628" transform="translate(14,46)"/>
<path d="M0,0 L1,0 L1,1 L0,1 Z " fill="#35353D" opacity="0.003921569" transform="translate(12,46)"/>
<path d="M0,0 L1,0 L1,1 L0,1 Z " fill="#333340" opacity="0.003921569" transform="translate(48,45)"/>
<path d="M0,0 L1,0 L1,1 L0,1 Z " fill="#353540" opacity="0.4509804" transform="translate(46,45)"/>
<path d="M0,0 L1,0 L1,1 L0,1 Z " fill="#343440" opacity="0.9529412" transform="translate(45,45)"/>
<path d="M0,0 L1,0 L1,1 L0,1 Z " fill="#757F8C" transform="translate(41,45)"/>
<path d="M0,0 L1,0 L1,1 L0,1 Z " fill="#747E8A" transform="translate(22,45)"/>
<path d="M0,0 L1,0 L1,1 L0,1 Z " fill="#343440" opacity="0.6862745" transform="translate(18,45)"/>
<path d="M0,0 L1,0 L1,1 L0,1 Z " fill="#30303E" opacity="0.14509805" transform="translate(16,45)"/>
<path d="M0,0 L1,0 L1,1 L0,1 Z " fill="#383844" transform="translate(41,44)"/>
<path d="M0,0 L1,0 L1,1 L0,1 Z " fill="#636B77" transform="translate(39,44)"/>
<path d="M0,0 L1,0 L1,1 L0,1 Z " fill="#767F8B" transform="translate(38,44)"/>
<path d="M0,0 L1,0 L1,1 L0,1 Z " fill="#7C848F" transform="translate(25,44)"/>
<path d="M0,0 L1,0 L1,1 L0,1 Z " fill="#595F6C" transform="translate(23,44)"/>
<path d="M0,0 L1,0 L1,1 L0,1 Z " fill="#383844" transform="translate(22,44)"/>
<path d="M0,0 L1,0 L1,1 L0,1 Z " fill="#353540" opacity="0.050980393" transform="translate(20,44)"/>
<path d="M0,0 L1,0 L1,1 L0,1 Z " fill="#34343D" opacity="0.21176471" transform="translate(45,43)"/>
<path d="M0,0 L1,0 L1,1 L0,1 Z " fill="#343441" opacity="0.9882353" transform="translate(44,43)"/>
<path d="M0,0 L1,0 L1,1 L0,1 Z " fill="#353540" opacity="0.43529412" transform="translate(44,42)"/>
<path d="M0,0 L1,0 L1,1 L0,1 Z " fill="#747881" transform="translate(38,42)"/>
<path d="M0,0 L1,0 L1,1 L0,1 Z " fill="#767A84" transform="translate(25,42)"/>
<path d="M0,0 L1,0 L1,1 L0,1 Z " fill="#353540" opacity="0.62352943" transform="translate(21,42)"/>
<path d="M0,0 L1,0 L1,1 L0,1 Z " fill="#333341" opacity="0.3529412" transform="translate(43,41)"/>
<path d="M0,0 L1,0 L1,1 L0,1 Z " fill="#3D3E49" transform="translate(38,41)"/>
<path d="M0,0 L1,0 L1,1 L0,1 Z " fill="#3F404B" transform="translate(25,41)"/>
<path d="M0,0 L1,0 L1,1 L0,1 Z " fill="#343440" opacity="0.0627451" transform="translate(42,40)"/>
<path d="M0,0 L1,0 L1,1 L0,1 Z " fill="#343440" opacity="0.9372549" transform="translate(41,40)"/>
<path d="M0,0 L1,0 L1,1 L0,1 Z " fill="#7A7E87" transform="translate(37,40)"/>
<path d="M0,0 L1,0 L1,1 L0,1 Z " fill="#7A7F89" transform="translate(26,40)"/>
<path d="M0,0 L1,0 L1,1 L0,1 Z " fill="#353541" opacity="0.9254902" transform="translate(22,40)"/>
<path d="M0,0 L1,0 L1,1 L0,1 Z " fill="#353541" opacity="0.043137256" transform="translate(21,40)"/>
<path d="M0,0 L1,0 L1,1 L0,1 Z " fill="#3D3E4A" transform="translate(37,39)"/>
<path d="M0,0 L1,0 L1,1 L0,1 Z " fill="#3F404B" transform="translate(26,39)"/>
<path d="M0,0 L1,0 L1,1 L0,1 Z " fill="#343440" opacity="0.05882353" transform="translate(41,38)"/>
<path d="M0,0 L1,0 L1,1 L0,1 Z " fill="#343440" opacity="0.9372549" transform="translate(40,38)"/>
<path d="M0,0 L1,0 L1,1 L0,1 Z " fill="#7C8089" transform="translate(36,38)"/>
<path d="M0,0 L1,0 L1,1 L0,1 Z " fill="#7A7F89" transform="translate(27,38)"/>
<path d="M0,0 L1,0 L1,1 L0,1 Z " fill="#353541" opacity="0.9254902" transform="translate(23,38)"/>
<path d="M0,0 L1,0 L1,1 L0,1 Z " fill="#353541" opacity="0.047058824" transform="translate(22,38)"/>
<path d="M0,0 L1,0 L1,1 L0,1 Z " fill="#3E3E4A" transform="translate(36,37)"/>
<path d="M0,0 L1,0 L1,1 L0,1 Z " fill="#3F404B" transform="translate(27,37)"/>
<path d="M0,0 L1,0 L1,1 L0,1 Z " fill="#343440" opacity="0.05882353" transform="translate(40,36)"/>
<path d="M0,0 L1,0 L1,1 L0,1 Z " fill="#343440" opacity="0.9372549" transform="translate(39,36)"/>
<path d="M0,0 L1,0 L1,1 L0,1 Z " fill="#7F828B" transform="translate(35,36)"/>
<path d="M0,0 L1,0 L1,1 L0,1 Z " fill="#7A7F89" transform="translate(28,36)"/>
<path d="M0,0 L1,0 L1,1 L0,1 Z " fill="#353541" opacity="0.9254902" transform="translate(24,36)"/>
<path d="M0,0 L1,0 L1,1 L0,1 Z " fill="#353541" opacity="0.047058824" transform="translate(23,36)"/>
<path d="M0,0 L1,0 L1,1 L0,1 Z " fill="#3E3F4A" transform="translate(35,35)"/>
<path d="M0,0 L1,0 L1,1 L0,1 Z " fill="#3F404B" transform="translate(28,35)"/>
<path d="M0,0 L1,0 L1,1 L0,1 Z " fill="#343440" opacity="0.05882353" transform="translate(39,34)"/>
<path d="M0,0 L1,0 L1,1 L0,1 Z " fill="#343440" opacity="0.9372549" transform="translate(38,34)"/>
<path d="M0,0 L1,0 L1,1 L0,1 Z " fill="#82858D" transform="translate(34,34)"/>
<path d="M0,0 L1,0 L1,1 L0,1 Z " fill="#7A7F89" transform="translate(29,34)"/>
<path d="M0,0 L1,0 L1,1 L0,1 Z " fill="#353541" opacity="0.9254902" transform="translate(25,34)"/>
<path d="M0,0 L1,0 L1,1 L0,1 Z " fill="#353541" opacity="0.047058824" transform="translate(24,34)"/>
<path d="M0,0 L1,0 L1,1 L0,1 Z " fill="#3E3F4A" transform="translate(34,33)"/>
<path d="M0,0 L1,0 L1,1 L0,1 Z " fill="#C9CED4" transform="translate(33,33)"/>
<path d="M0,0 L1,0 L1,1 L0,1 Z " fill="#D3D9DE" transform="translate(32,33)"/>
<path d="M0,0 L1,0 L1,1 L0,1 Z " fill="#B3BCC3" transform="translate(30,33)"/>
<path d="M0,0 L1,0 L1,1 L0,1 Z " fill="#3F404B" transform="translate(29,33)"/>
<path d="M0,0 L1,0 L1,1 L0,1 Z " fill="#343440" opacity="0.05882353" transform="translate(38,32)"/>
<path d="M0,0 L1,0 L1,1 L0,1 Z " fill="#343440" opacity="0.9372549" transform="translate(37,32)"/>
<path d="M0,0 L1,0 L1,1 L0,1 Z " fill="#666872" transform="translate(33,32)"/>
<path d="M0,0 L1,0 L1,1 L0,1 Z " fill="#C5CACF" transform="translate(32,32)"/>
<path d="M0,0 L1,0 L1,1 L0,1 Z " fill="#ACB4BB" transform="translate(31,32)"/>
<path d="M0,0 L1,0 L1,1 L0,1 Z " fill="#5F626C" transform="translate(30,32)"/>
<path d="M0,0 L1,0 L1,1 L0,1 Z " fill="#353541" opacity="0.9254902" transform="translate(26,32)"/>
<path d="M0,0 L1,0 L1,1 L0,1 Z " fill="#353541" opacity="0.047058824" transform="translate(25,32)"/>
<path d="M0,0 L1,0 L1,1 L0,1 Z " fill="#343440" opacity="0.48235294" transform="translate(37,31)"/>
<path d="M0,0 L1,0 L1,1 L0,1 Z " fill="#343440" opacity="0.45490196" transform="translate(26,31)"/>
<path d="M0,0 L1,0 L1,1 L0,1 Z " fill="#333340" opacity="0.019607844" transform="translate(37,30)"/>
<path d="M0,0 L1,0 L1,1 L0,1 Z " fill="#343440" opacity="0.015686275" transform="translate(26,30)"/>
<path d="M0,0 L1,0 L1,1 L0,1 Z " fill="#363640" opacity="0.10980392" transform="translate(36,29)"/>
<path d="M0,0 L1,0 L1,1 L0,1 Z " fill="#343440" opacity="0.8039216" transform="translate(35,29)"/>
<path d="M0,0 L1,0 L1,1 L0,1 Z " fill="#353540" opacity="0.7921569" transform="translate(28,29)"/>
<path d="M0,0 L1,0 L1,1 L0,1 Z " fill="#33333D" opacity="0.09803922" transform="translate(27,29)"/>
<path d="M0,0 L1,0 L1,1 L0,1 Z " fill="#34343F" opacity="0.38039216" transform="translate(34,28)"/>
<path d="M0,0 L1,0 L1,1 L0,1 Z " fill="#343440" opacity="0.73333335" transform="translate(33,28)"/>
<path d="M0,0 L1,0 L1,1 L0,1 Z " fill="#343440" opacity="0.9137255" transform="translate(32,28)"/>
<path d="M0,0 L1,0 L1,1 L0,1 Z " fill="#343441" opacity="0.7411765" transform="translate(30,28)"/>
<path d="M0,0 L1,0 L1,1 L0,1 Z " fill="#353540" opacity="0.007843138" transform="translate(28,28)"/>
</svg>
