<?xml version="1.0" encoding="UTF-8"?>
<!-- Generator: visioncortex VTracer 0.6.4 -->
<svg version="1.1" xmlns="http://www.w3.org/2000/svg" width="64" height="64">
<path d="M0,0 L9,0 L9,2 L10,2 L10,3 L14,3 L14,4 L15,4 L15,5 L16,5 L16,6 L17,6 L17,7 L18,7 L18,9 L19,9 L19,11 L20,11 L20,20 L19,20 L19,22 L18,22 L18,23 L17,23 L17,24 L16,24 L16,25 L14,25 L14,26 L12,26 L12,27 L9,27 L9,28 L4,28 L4,27 L0,27 L0,26 L-2,26 L-2,25 L-4,25 L-4,24 L-5,24 L-5,23 L-7,23 L-7,21 L-8,21 L-8,15 L-9,15 L-9,14 L-11,14 L-11,11 L-10,11 L-10,9 L-9,9 L-9,7 L-8,7 L-8,5 L-7,5 L-7,4 L-6,4 L-6,3 L-4,3 L-4,2 L-2,2 L-2,1 L0,1 Z M4,3 L4,4 L1,4 L1,5 L0,5 L0,6 L-1,6 L-1,7 L-2,7 L-2,9 L-3,9 L-3,16 L-2,16 L-2,17 L-1,17 L-1,18 L0,18 L0,19 L1,19 L1,20 L4,20 L4,21 L11,21 L11,20 L13,20 L13,19 L14,19 L14,18 L15,18 L15,17 L16,17 L16,10 L15,10 L15,8 L14,8 L14,7 L13,7 L13,6 L12,6 L12,5 L11,5 L11,4 L8,4 L8,3 Z M5,8 L10,8 L10,10 L11,10 L11,12 L12,12 L12,13 L11,13 L11,14 L10,14 L10,15 L5,15 L5,14 L4,14 L4,13 L3,13 L3,10 L4,10 L4,9 L5,9 Z " fill="#D699FA" transform="translate(35,21)"/>
<path d="M0,0 L1,0 L1,1 L0,1 Z M4,3 L5,3 L5,4 L4,4 Z M18,3 L19,3 L19,4 L18,4 Z M13,8 L14,8 L14,9 L13,9 Z M14,10 L15,10 L15,11 L14,11 Z M18,15 L19,15 L19,16 L18,16 Z " fill="#D598F9" transform="translate(32,22)"/>
<path d="M0,0 L1,0 L1,1 L7,1 L7,2 L10,2 L10,3 L12,3 L12,4 L14,4 L14,5 L15,5 L15,6 L17,6 L17,7 L18,7 L18,8 L19,8 L19,10 L20,10 L20,11 L21,11 L21,12 L22,12 L22,14 L23,14 L23,16 L24,16 L24,19 L25,19 L25,32 L24,32 L24,34 L23,34 L23,39 L24,39 L24,46 L23,46 L23,48 L22,48 L22,49 L21,49 L21,50 L16,50 L16,51 L-27,51 L-27,50 L-32,50 L-32,49 L-33,49 L-33,48 L-34,48 L-34,47 L-35,47 L-35,46 L-36,46 L-36,38 L-35,38 L-35,35 L-34,35 L-34,33 L-33,33 L-33,31 L-32,31 L-32,29 L-31,29 L-31,28 L-32,28 L-32,27 L-34,27 L-34,26 L-35,26 L-35,25 L-36,25 L-36,23 L-37,23 L-37,15 L-36,15 L-36,13 L-35,13 L-35,12 L-34,12 L-34,11 L-32,11 L-32,10 L-24,10 L-24,11 L-22,11 L-22,12 L-21,12 L-21,13 L-20,13 L-20,11 L-19,11 L-19,10 L-18,10 L-18,9 L-17,9 L-17,8 L-16,8 L-16,7 L-15,7 L-15,6 L-14,6 L-14,5 L-12,5 L-12,4 L-10,4 L-10,3 L-8,3 L-8,2 L-6,2 L-6,1 L0,1 Z M-4,4 L-4,5 L-7,5 L-7,6 L-9,6 L-9,7 L-11,7 L-11,8 L-12,8 L-12,9 L-13,9 L-13,10 L-14,10 L-14,11 L-15,11 L-15,12 L-16,12 L-16,13 L-17,13 L-17,15 L-18,15 L-18,17 L-19,17 L-19,19 L-20,19 L-20,21 L-21,21 L-21,19 L-22,19 L-22,16 L-23,16 L-23,15 L-24,15 L-24,14 L-26,14 L-26,13 L-31,13 L-31,14 L-32,14 L-32,15 L-33,15 L-33,16 L-34,16 L-34,21 L-33,21 L-33,23 L-32,23 L-32,24 L-31,24 L-31,25 L-26,25 L-26,28 L-27,28 L-27,29 L-28,29 L-28,31 L-29,31 L-29,32 L-30,32 L-30,34 L-31,34 L-31,36 L-32,36 L-32,39 L-33,39 L-33,44 L-32,44 L-32,45 L-31,45 L-31,46 L-30,46 L-30,47 L18,47 L18,46 L20,46 L20,38 L19,38 L19,34 L20,34 L20,32 L21,32 L21,30 L22,30 L22,20 L21,20 L21,18 L20,18 L20,16 L19,16 L19,14 L18,14 L18,13 L17,13 L17,11 L16,11 L16,10 L15,10 L15,9 L14,9 L14,8 L12,8 L12,7 L11,7 L11,6 L8,6 L8,5 L5,5 L5,4 Z " fill="#353541" transform="translate(38,13)"/>
<path d="M0,0 L5,0 L5,1 L7,1 L7,2 L8,2 L8,3 L9,3 L9,6 L10,6 L10,8 L11,8 L11,13 L12,13 L12,16 L13,16 L13,18 L14,18 L14,19 L15,19 L15,21 L16,21 L16,22 L17,22 L17,23 L18,23 L18,24 L20,24 L20,25 L21,25 L21,26 L23,26 L23,27 L26,27 L26,28 L31,28 L31,29 L39,29 L39,28 L42,28 L42,27 L45,27 L45,26 L46,26 L46,25 L48,25 L48,24 L49,24 L49,23 L50,23 L50,25 L51,25 L51,33 L49,33 L49,34 L1,34 L1,33 L0,33 L0,32 L-1,32 L-1,31 L-2,31 L-2,26 L-1,26 L-1,23 L0,23 L0,21 L1,21 L1,19 L2,19 L2,18 L3,18 L3,16 L4,16 L4,15 L5,15 L5,12 L0,12 L0,11 L-1,11 L-1,10 L-2,10 L-2,8 L-3,8 L-3,3 L-2,3 L-2,2 L-1,2 L-1,1 L0,1 Z " fill="#E28F2B" transform="translate(7,26)"/>
<path d="M0,0 L9,0 L9,1 L12,1 L12,2 L15,2 L15,3 L16,3 L16,4 L18,4 L18,5 L19,5 L19,6 L20,6 L20,7 L21,7 L21,9 L22,9 L22,10 L23,10 L23,12 L24,12 L24,14 L25,14 L25,16 L26,16 L26,26 L25,26 L25,28 L24,28 L24,30 L23,30 L23,32 L22,32 L22,33 L21,33 L21,34 L19,34 L19,35 L18,35 L18,36 L15,36 L15,37 L12,37 L12,38 L4,38 L4,37 L-1,37 L-1,36 L-4,36 L-4,35 L-6,35 L-6,34 L-7,34 L-7,33 L-9,33 L-9,32 L-10,32 L-10,31 L-11,31 L-11,30 L-12,30 L-12,28 L-13,28 L-13,27 L-14,27 L-14,25 L-15,25 L-15,22 L-16,22 L-16,15 L-15,15 L-15,13 L-14,13 L-14,11 L-13,11 L-13,9 L-12,9 L-12,8 L-11,8 L-11,7 L-10,7 L-10,6 L-9,6 L-9,5 L-8,5 L-8,4 L-7,4 L-7,3 L-5,3 L-5,2 L-3,2 L-3,1 L0,1 Z M0,4 L0,5 L-2,5 L-2,6 L-4,6 L-4,7 L-5,7 L-5,8 L-6,8 L-6,9 L-7,9 L-7,10 L-8,10 L-8,12 L-9,12 L-9,15 L-10,15 L-10,18 L-9,18 L-9,19 L-8,19 L-8,20 L-7,20 L-7,22 L-8,22 L-8,26 L-7,26 L-7,27 L-6,27 L-6,28 L-5,28 L-5,29 L-3,29 L-3,30 L-1,30 L-1,31 L1,31 L1,32 L13,32 L13,31 L15,31 L15,30 L17,30 L17,29 L18,29 L18,28 L19,28 L19,26 L20,26 L20,24 L21,24 L21,15 L20,15 L20,12 L19,12 L19,11 L18,11 L18,9 L17,9 L17,8 L16,8 L16,7 L15,7 L15,6 L11,6 L11,5 L10,5 L10,4 Z " fill="#BA6BE9" transform="translate(34,17)"/>
<path d="M0,0 L8,0 L8,1 L10,1 L10,2 L11,2 L11,3 L12,3 L12,4 L13,4 L13,7 L14,7 L14,12 L13,12 L13,14 L12,14 L12,15 L11,15 L11,16 L1,16 L1,15 L-1,15 L-1,14 L-2,14 L-2,13 L-3,13 L-3,12 L-4,12 L-4,11 L-5,11 L-5,5 L-4,5 L-4,3 L-3,3 L-3,2 L-2,2 L-2,1 L0,1 Z " fill="#BA6BE9" transform="translate(37,25)"/>
<path d="M0,0 L9,0 L9,1 L12,1 L12,2 L15,2 L15,3 L16,3 L16,4 L18,4 L18,5 L16,5 L16,7 L15,7 L15,6 L11,6 L11,5 L10,5 L10,4 L0,4 L0,5 L-2,5 L-2,6 L-4,6 L-4,7 L-5,7 L-5,8 L-6,8 L-6,9 L-7,9 L-7,10 L-8,10 L-8,12 L-9,12 L-9,15 L-10,15 L-10,18 L-9,18 L-9,19 L-8,19 L-8,20 L-7,20 L-7,22 L-8,22 L-8,23 L-9,23 L-9,26 L-12,26 L-12,28 L-13,28 L-13,27 L-14,27 L-14,25 L-15,25 L-15,22 L-16,22 L-16,15 L-15,15 L-15,13 L-14,13 L-14,11 L-13,11 L-13,9 L-12,9 L-12,8 L-11,8 L-11,7 L-10,7 L-10,6 L-9,6 L-9,5 L-8,5 L-8,4 L-7,4 L-7,3 L-5,3 L-5,2 L-3,2 L-3,1 L0,1 Z " fill="#BA6BE9" transform="translate(34,17)"/>
<path d="M0,0 L5,0 L5,1 L7,1 L7,2 L8,2 L8,3 L9,3 L9,6 L10,6 L10,8 L11,8 L11,11 L9,11 L9,12 L8,12 L8,13 L6,13 L6,15 L5,15 L5,12 L0,12 L0,11 L-1,11 L-1,10 L-2,10 L-2,8 L-3,8 L-3,3 L-2,3 L-2,2 L-1,2 L-1,1 L0,1 Z " fill="#FABA2D" transform="translate(7,26)"/>
<path d="M0,0 L2,0 L2,2 L3,2 L3,5 L4,5 L4,7 L5,7 L5,8 L6,8 L6,9 L5,9 L5,12 L4,12 L4,13 L3,13 L3,14 L2,14 L2,15 L-3,15 L-3,14 L-4,14 L-4,13 L-5,13 L-5,12 L-6,12 L-6,10 L-7,10 L-7,11 L-8,11 L-8,12 L-9,12 L-9,10 L-8,10 L-8,8 L-7,8 L-7,7 L-6,7 L-6,5 L-5,5 L-5,4 L-3,4 L-3,2 L-1,2 L-1,1 L0,1 Z " fill="#FABA2D" transform="translate(16,37)"/>
<path d="M0,0 L1,0 L1,1 L2,1 L2,2 L3,2 L3,3 L4,3 L4,4 L6,4 L6,6 L4,6 L4,7 L3,7 L3,8 L2,8 L2,9 L1,9 L1,10 L-2,10 L-2,11 L-4,11 L-4,10 L-6,10 L-6,9 L-7,9 L-7,8 L-8,8 L-8,7 L-10,7 L-10,6 L-11,6 L-11,5 L-14,5 L-14,3 L-13,3 L-13,2 L-12,2 L-12,1 L-11,1 L-11,3 L-10,3 L-10,4 L-9,4 L-9,5 L-8,5 L-8,6 L-3,6 L-3,5 L-2,5 L-2,4 L-1,4 L-1,3 L0,3 Z " fill="#FABA2D" transform="translate(21,46)"/>
<path d="M0,0 L5,0 L5,2 L6,2 L6,4 L7,4 L7,5 L6,5 L6,6 L5,6 L5,7 L0,7 L0,6 L-1,6 L-1,5 L-2,5 L-2,2 L-1,2 L-1,1 L0,1 Z " fill="#D699FA" transform="translate(40,29)"/>
<path d="M0,0 L1,0 L1,1 L0,1 Z M1,2 L2,2 L2,3 L1,3 Z " fill="#D598F9" transform="translate(45,30)"/>
<path d="M0,0 L3,0 L3,2 L4,2 L4,3 L7,3 L7,2 L8,2 L8,1 L9,1 L9,0 L11,0 L11,3 L10,3 L10,4 L9,4 L9,5 L8,5 L8,6 L3,6 L3,5 L2,5 L2,4 L1,4 L1,3 L0,3 Z " fill="#9F4F0E" transform="translate(10,46)"/>
<path d="M0,0 L1,0 L1,3 L2,3 L2,5 L3,5 L3,8 L1,8 L1,9 L0,9 L0,10 L-2,10 L-2,12 L-3,12 L-3,9 L-8,9 L-8,8 L-1,8 L-1,7 L0,7 Z " fill="#E28F2B" transform="translate(15,29)"/>
<path d="M0,0 L1,0 L1,1 L4,1 L4,2 L5,2 L5,3 L7,3 L7,4 L5,4 L5,6 L4,6 L4,5 L0,5 L0,3 L1,3 L1,2 L0,2 Z " fill="#BA6BE9" transform="translate(45,18)"/>
<path d="M0,0 L1,0 L1,1 L0,1 Z M-1,1 L0,1 L0,2 L-1,2 Z M-2,2 L-1,2 L-1,3 L-2,3 Z M-3,3 L-2,3 L-2,4 L-3,4 Z M-4,4 L-3,4 L-3,5 L-4,5 Z M-5,5 L-4,5 L-4,6 L-5,6 Z M-6,6 L-5,6 L-5,7 L-6,7 Z " fill="#353541" transform="translate(24,18)"/>
<path d="M0,0 L2,0 L2,1 L1,1 L1,2 L0,2 L0,3 L-1,3 L-1,4 L-2,4 L-2,5 L-3,5 L-3,6 L-4,6 L-4,11 L-5,11 L-5,5 L-4,5 L-4,3 L-3,3 L-3,2 L-2,2 L-2,1 L0,1 Z " fill="#BA6BE9" transform="translate(37,25)"/>
<path d="M0,0 L1,0 L1,1 L0,1 Z " fill="#343440" opacity="0.91764706" transform="translate(63,38)"/>
<path d="M0,0 L1,0 L1,2 L2,2 L2,3 L3,3 L3,4 L4,4 L4,6 L2,6 L2,5 L1,5 L1,4 L-2,4 L-2,2 L-1,2 L-1,1 L0,1 Z " fill="#FABA2D" transform="translate(9,47)"/>
<path d="M0,0 L5,0 L5,1 L1,1 L1,2 L0,2 L0,3 L-1,3 L-1,4 L-2,4 L-2,8 L-3,8 L-3,3 L-2,3 L-2,2 L-1,2 L-1,1 L0,1 Z " fill="#FABA2D" transform="translate(7,26)"/>
<path d="M0,0 L2,0 L2,1 L1,1 L1,2 L0,2 L0,3 L-1,3 L-1,4 L-2,4 L-2,5 L-3,5 L-3,6 L-4,6 L-4,7 L-5,7 L-5,8 L-6,8 L-6,6 L-5,6 L-5,5 L-4,5 L-4,4 L-3,4 L-3,3 L-2,3 L-2,2 L-1,2 L-1,1 L0,1 Z " fill="#BA6BE9" transform="translate(27,20)"/>
<path d="M0,0 L1,0 L1,1 L0,1 Z " fill="#353540" opacity="0.94509804" transform="translate(1,55)"/>
<path d="M0,0 L1,0 L1,2 L2,2 L2,5 L0,5 L0,4 L-1,4 L-1,3 L-2,3 L-2,2 L-1,2 L-1,1 L0,1 Z " fill="#FABA2D" transform="translate(56,49)"/>
<path d="M0,0 L1,0 L1,1 L0,1 Z " fill="#343440" opacity="0.9607843" transform="translate(0,32)"/>
<path d="M0,0 L1,0 L1,1 L0,1 Z " fill="#343440" opacity="0.9607843" transform="translate(10,22)"/>
<path d="M0,0 L1,0 L1,1 L0,1 Z " fill="#353540" opacity="0.5294118" transform="translate(62,56)"/>
<path d="M0,0 L1,0 L1,1 L0,1 Z M-2,1 L0,1 L0,2 L-1,2 L-1,3 L-2,3 Z M-4,3 L-2,3 L-2,4 L-3,4 L-3,5 L-4,5 L-4,6 L-5,6 L-5,4 L-4,4 Z " fill="#FABA2D" transform="translate(15,38)"/>
<path d="M0,0 L9,0 L9,1 L0,1 Z " fill="#B481D5" transform="translate(35,20)"/>
<path d="M0,0 L9,0 L9,1 L0,1 Z " fill="#B267E0" transform="translate(34,17)"/>
<path d="M0,0 L6,0 L6,1 L4,1 L4,2 L2,2 L2,1 L0,1 Z " fill="#FABA2D" transform="translate(37,55)"/>
<path d="M0,0 L8,0 L8,1 L0,1 Z " fill="#BC6EE1" transform="translate(38,54)"/>
<path d="M0,0 L1,0 L1,1 L0,1 Z " fill="#343441" opacity="0.89411765" transform="translate(62,31)"/>
<path d="M0,0 L1,0 L1,1 L0,1 Z " fill="#353540" opacity="0.9843137" transform="translate(37,13)"/>
<path d="M0,0 L1,0 L1,7 L0,7 Z " fill="#A673C8" transform="translate(55,33)"/>
<path d="M0,0 L1,0 L1,3 L2,3 L2,5 L0,5 Z " fill="#F7B52C" transform="translate(15,29)"/>
<path d="M0,0 L1,0 L1,1 L0,1 Z M-1,1 L0,1 L0,2 L-1,2 Z " fill="#343440" opacity="0.654902" transform="translate(3,24)"/>
<path d="M0,0 L1,0 L1,1 L0,1 Z " fill="#343440" opacity="0.99607843" transform="translate(2,50)"/>
<path d="M0,0 L3,0 L3,1 L2,1 L2,2 L1,2 L1,3 L0,3 Z " fill="#9F4F0E" transform="translate(10,46)"/>
<path d="M0,0 L6,0 L6,1 L0,1 Z " fill="#D794C2" transform="translate(39,41)"/>
<path d="M0,0 L6,0 L6,1 L0,1 Z " fill="#E6AC2E" transform="translate(7,37)"/>
<path d="M0,0 L1,0 L1,1 L0,1 Z " fill="#343440" opacity="0.7137255" transform="translate(23,18)"/>
<path d="M0,0 L1,0 L1,5 L0,5 Z " fill="#805C36" transform="translate(58,53)"/>
<path d="M0,0 L3,0 L3,1 L2,1 L2,2 L0,2 Z " fill="#DD8C2A" transform="translate(35,54)"/>
<path d="M0,0 L1,0 L1,5 L0,5 Z " fill="#D5872B" transform="translate(5,52)"/>
<path d="M0,0 L1,0 L1,2 L3,2 L3,3 L0,3 Z " fill="#C08730" transform="translate(6,49)"/>
<path d="M0,0 L1,0 L1,2 L0,2 L0,3 L-2,3 L-2,2 L-1,2 L-1,1 L0,1 Z " fill="#FABA2D" transform="translate(56,49)"/>
<path d="M0,0 L1,0 L1,1 L0,1 Z " fill="#333340" opacity="0.5254902" transform="translate(63,42)"/>
<path d="M0,0 L1,0 L1,1 L0,1 Z M-2,1 L-1,1 L-1,2 L-2,2 Z " fill="#BA6AE9" transform="translate(24,41)"/>
<path d="M0,0 L1,0 L1,1 L0,1 Z " fill="#B96AE9" transform="translate(24,42)"/>
<path d="M0,0 L1,0 L1,1 L0,1 Z M1,1 L2,1 L2,2 L1,2 Z " fill="#343440" opacity="0.88235295" transform="translate(5,40)"/>
<path d="M0,0 L1,0 L1,2 L0,2 L0,4 L-1,4 L-1,1 L0,1 Z " fill="#E28F2A" transform="translate(13,37)"/>
<path d="M0,0 L5,0 L5,1 L0,1 Z " fill="#B481D4" transform="translate(40,36)"/>
<path d="M0,0 L1,0 L1,5 L0,5 Z " fill="#A774C7" transform="translate(50,32)"/>
<path d="M0,0 L1,0 L1,5 L0,5 Z " fill="#AC6BD4" transform="translate(32,31)"/>
<path d="M0,0 L1,0 L1,5 L0,5 Z " fill="#E8AE2E" transform="translate(4,29)"/>
<path d="M0,0 L5,0 L5,1 L0,1 Z " fill="#AB7ACC" transform="translate(40,28)"/>
<path d="M0,0 L1,0 L1,2 L0,2 L0,3 L-2,3 L-2,2 L-1,2 L-1,1 L0,1 Z " fill="#B56AE2" transform="translate(35,26)"/>
<path d="M0,0 L5,0 L5,1 L0,1 Z " fill="#E8AE2E" transform="translate(7,26)"/>
<path d="M0,0 L1,0 L1,1 L0,1 Z " fill="#353540" opacity="0.7764706" transform="translate(56,63)"/>
<path d="M0,0 L1,0 L1,1 L0,1 Z " fill="#343440" opacity="0.8392157" transform="translate(9,63)"/>
<path d="M0,0 L1,0 L1,1 L0,1 Z " fill="#34343F" opacity="0.45882353" transform="translate(62,54)"/>
<path d="M0,0 L2,0 L2,1 L1,1 L1,2 L-1,2 L-1,1 L0,1 Z " fill="#DF8D2B" transform="translate(25,52)"/>
<path d="M0,0 L4,0 L4,1 L0,1 Z " fill="#D99CE4" transform="translate(35,48)"/>
<path d="M0,0 L1,0 L1,4 L0,4 Z " fill="#9D5FC4" transform="translate(59,33)"/>
<path d="M0,0 L1,0 L1,1 L0,1 Z " fill="#343441" opacity="0.8784314" transform="translate(0,30)"/>
<path d="M0,0 L1,0 L1,1 L2,1 L2,3 L1,3 L1,2 L0,2 Z " fill="#B76AE5" transform="translate(48,28)"/>
<path d="M0,0 L1,0 L1,1 L0,1 Z " fill="#35353F" opacity="0.3019608" transform="translate(61,27)"/>
<path d="M0,0 L1,0 L1,1 L0,1 Z " fill="#343440" opacity="0.85490197" transform="translate(58,23)"/>
<path d="M0,0 L1,0 L1,1 L0,1 Z " fill="#343441" opacity="0.8784314" transform="translate(8,22)"/>
<path d="M0,0 L2,0 L2,1 L0,1 Z M-1,1 L0,1 L0,3 L-1,3 Z " fill="#BA6BE9" transform="translate(50,21)"/>
<path d="M0,0 L1,0 L1,1 L0,1 Z " fill="#353540" opacity="0.5647059" transform="translate(56,20)"/>
<path d="M0,0 L4,0 L4,1 L0,1 Z " fill="#AA64D5" transform="translate(34,17)"/>
<path d="M0,0 L1,0 L1,1 L0,1 Z " fill="#353540" opacity="0.94509804" transform="translate(50,16)"/>
<path d="M0,0 L1,0 L1,1 L0,1 Z " fill="#343441" opacity="0.8" transform="translate(35,13)"/>
<path d="M0,0 L1,0 L1,1 L0,1 Z " fill="#343440" opacity="0.96862745" transform="translate(3,60)"/>
<path d="M0,0 L1,0 L1,1 L2,1 L2,2 L0,2 Z " fill="#353540" transform="translate(5,57)"/>
<path d="M0,0 L1,0 L1,1 L2,1 L2,2 L0,2 Z " fill="#DF8D2B" transform="translate(12,53)"/>
<path d="M0,0 L1,0 L1,1 L0,1 Z " fill="#35353F" opacity="0.3019608" transform="translate(61,49)"/>
<path d="M0,0 L3,0 L3,1 L0,1 Z " fill="#C67CD2" transform="translate(40,49)"/>
<path d="M0,0 L3,0 L3,1 L0,1 Z " fill="#DA98C4" transform="translate(44,48)"/>
<path d="M0,0 L3,0 L3,1 L0,1 Z " fill="#F5B32A" transform="translate(14,48)"/>
<path d="M0,0 L1,0 L1,1 L2,1 L2,2 L0,2 Z " fill="#FABA2D" transform="translate(21,46)"/>
<path d="M0,0 L1,0 L1,3 L0,3 Z " fill="#A0510E" transform="translate(20,46)"/>
<path d="M0,0 L3,0 L3,1 L0,1 Z " fill="#A75810" transform="translate(10,46)"/>
<path d="M0,0 L1,0 L1,3 L0,3 Z " fill="#8957AB" transform="translate(59,40)"/>
<path d="M0,0 L1,0 L1,3 L0,3 Z " fill="#AD65DA" transform="translate(59,37)"/>
<path d="M0,0 L1,0 L1,1 L2,1 L2,2 L0,2 Z " fill="#B56AE2" transform="translate(38,34)"/>
<path d="M0,0 L1,0 L1,3 L0,3 Z " fill="#A66DCA" transform="translate(23,32)"/>
<path d="M0,0 L1,0 L1,3 L0,3 Z " fill="#A56EC8" transform="translate(37,31)"/>
<path d="M0,0 L1,0 L1,1 L0,1 Z M-1,1 L0,1 L0,2 L-1,2 Z M-2,2 L-1,2 L-1,3 L-2,3 Z " fill="#D699FA" transform="translate(40,29)"/>
<path d="M0,0 L2,0 L2,2 L1,2 L1,1 L0,1 Z " fill="#B76AE5" transform="translate(52,27)"/>
<path d="M0,0 L1,0 L1,1 L0,1 Z M-1,1 L0,1 L0,2 L-1,2 Z M-2,2 L-1,2 L-1,3 L-2,3 Z " fill="#D699FA" transform="translate(29,24)"/>
<path d="M0,0 L1,0 L1,1 L0,1 Z M-1,1 L0,1 L0,2 L-1,2 Z M-2,2 L-1,2 L-1,3 L-2,3 Z " fill="#353541" transform="translate(4,24)"/>
<path d="M0,0 L1,0 L1,1 L0,1 Z " fill="#343440" opacity="0.8745098" transform="translate(20,21)"/>
<path d="M0,0 L3,0 L3,1 L0,1 Z " fill="#A571C8" transform="translate(41,20)"/>
<path d="M0,0 L1,0 L1,1 L0,1 Z " fill="#343441" opacity="0.9882353" transform="translate(53,18)"/>
<path d="M0,0 L1,0 L1,1 L0,1 Z " fill="#343441" opacity="0.24705882" transform="translate(44,13)"/>
<path d="M0,0 L1,0 L1,1 L0,1 Z " fill="#343441" opacity="0.4627451" transform="translate(7,63)"/>
<path d="M0,0 L1,0 L1,1 L0,1 Z " fill="#353540" opacity="0.7176471" transform="translate(5,62)"/>
<path d="M0,0 L1,0 L1,1 L0,1 Z " fill="#34343D" opacity="0.003921569" transform="translate(62,59)"/>
<path d="M0,0 L2,0 L2,1 L0,1 Z " fill="#3D393F" transform="translate(56,59)"/>
<path d="M0,0 L2,0 L2,1 L0,1 Z " fill="#AF7431" transform="translate(8,59)"/>
<path d="M0,0 L1,0 L1,1 L0,1 Z " fill="#333340" opacity="0.039215688" transform="translate(1,59)"/>
<path d="M0,0 L1,0 L1,2 L0,2 Z " fill="#DE8D2B" transform="translate(43,55)"/>
<path d="M0,0 L2,0 L2,1 L0,1 Z " fill="#F4B52B" transform="translate(39,56)"/>
<path d="M0,0 L2,0 L2,1 L0,1 Z " fill="#C58E2F" transform="translate(37,56)"/>
<path d="M0,0 L2,0 L2,1 L0,1 Z " fill="#DA8A2B" transform="translate(20,56)"/>
<path d="M0,0 L2,0 L2,1 L0,1 Z " fill="#F0B12D" transform="translate(17,56)"/>
<path d="M0,0 L2,0 L2,1 L0,1 Z " fill="#C28830" transform="translate(15,56)"/>
<path d="M0,0 L1,0 L1,2 L0,2 Z " fill="#DA8A2B" transform="translate(57,54)"/>
<path d="M0,0 L2,0 L2,1 L0,1 Z " fill="#FABA2D" transform="translate(37,55)"/>
<path d="M0,0 L1,0 L1,2 L0,2 Z " fill="#7B6439" transform="translate(58,53)"/>
<path d="M0,0 L2,0 L2,1 L0,1 Z " fill="#DA8752" transform="translate(46,54)"/>
<path d="M0,0 L2,0 L2,1 L0,1 Z " fill="#C477CB" transform="translate(38,54)"/>
<path d="M0,0 L2,0 L2,1 L0,1 Z " fill="#D58C99" transform="translate(36,54)"/>
<path d="M0,0 L2,0 L2,1 L0,1 Z " fill="#DC8A44" transform="translate(49,53)"/>
<path d="M0,0 L2,0 L2,1 L0,1 Z " fill="#BE71D4" transform="translate(33,53)"/>
<path d="M0,0 L1,0 L1,2 L0,2 Z " fill="#B97A30" transform="translate(5,52)"/>
<path d="M0,0 L1,0 L1,1 L0,1 Z " fill="#343441" opacity="0.76862746" transform="translate(1,53)"/>
<path d="M0,0 L1,0 L1,1 L0,1 Z " fill="#34343C" opacity="0.13333334" transform="translate(62,52)"/>
<path d="M0,0 L1,0 L1,2 L0,2 Z " fill="#F9B92C" transform="translate(57,51)"/>
<path d="M0,0 L1,0 L1,2 L0,2 Z " fill="#DA8B2B" transform="translate(53,51)"/>
<path d="M0,0 L2,0 L2,1 L0,1 Z " fill="#BD6DD9" transform="translate(30,52)"/>
<path d="M0,0 L1,0 L1,2 L0,2 Z " fill="#E18E2A" transform="translate(9,51)"/>
<path d="M0,0 L2,0 L2,1 L0,1 Z " fill="#BB6CE0" transform="translate(28,51)"/>
<path d="M0,0 L2,0 L2,1 L0,1 Z " fill="#B06313" transform="translate(13,51)"/>
<path d="M0,0 L1,0 L1,1 L0,1 Z " fill="#353540" opacity="0.35686275" transform="translate(1,51)"/>
<path d="M0,0 L1,0 L1,2 L0,2 Z " fill="#E0A92F" transform="translate(6,49)"/>
<path d="M0,0 L1,0 L1,2 L0,2 Z " fill="#363542" transform="translate(57,47)"/>
<path d="M0,0 L2,0 L2,1 L0,1 Z " fill="#D693C3" transform="translate(35,48)"/>
<path d="M0,0 L1,0 L1,2 L0,2 Z " fill="#F2B42D" transform="translate(7,47)"/>
<path d="M0,0 L1,0 L1,1 L0,1 Z " fill="#333340" opacity="0.39215687" transform="translate(2,48)"/>
<path d="M0,0 L1,0 L1,1 L0,1 Z " fill="#313142" opacity="0.12156863" transform="translate(62,47)"/>
<path d="M0,0 L2,0 L2,1 L0,1 Z " fill="#DA9CE2" transform="translate(33,47)"/>
<path d="M0,0 L1,0 L1,2 L0,2 Z " fill="#453B56" transform="translate(58,45)"/>
<path d="M0,0 L2,0 L2,1 L0,1 Z " fill="#D79AF1" transform="translate(31,46)"/>
<path d="M0,0 L1,0 L1,1 L0,1 Z " fill="#343440" opacity="0.5882353" transform="translate(3,46)"/>
<path d="M0,0 L1,0 L1,1 L0,1 Z " fill="#33333D" opacity="0.003921569" transform="translate(63,45)"/>
<path d="M0,0 L2,0 L2,1 L0,1 Z " fill="#DA9CDE" transform="translate(29,45)"/>
<path d="M0,0 L1,0 L1,2 L0,2 Z " fill="#373544" transform="translate(59,43)"/>
<path d="M0,0 L1,0 L1,2 L0,2 Z " fill="#B269DF" transform="translate(53,43)"/>
<path d="M0,0 L1,0 L1,1 L0,1 Z " fill="#343440" opacity="0.5921569" transform="translate(4,44)"/>
<path d="M0,0 L1,0 L1,2 L0,2 Z " fill="#A76CCB" transform="translate(54,41)"/>
<path d="M0,0 L1,0 L1,1 L0,1 Z " fill="#35353F" opacity="0.39607844" transform="translate(5,42)"/>
<path d="M0,0 L2,0 L2,1 L0,1 Z " fill="#DA99C7" transform="translate(39,41)"/>
<path d="M0,0 L1,0 L1,2 L0,2 Z " fill="#C073DC" transform="translate(25,40)"/>
<path d="M0,0 L2,0 L2,1 L0,1 Z " fill="#C38DDE" transform="translate(46,40)"/>
<path d="M0,0 L1,0 L1,2 L0,2 Z " fill="#EFAC4D" transform="translate(18,39)"/>
<path d="M0,0 L1,0 L1,2 L0,2 Z " fill="#A66DCB" transform="translate(55,38)"/>
<path d="M0,0 L1,0 L1,2 L0,2 Z " fill="#3D393F" transform="translate(11,38)"/>
<path d="M0,0 L1,0 L1,1 L0,1 Z " fill="#353540" opacity="0.54901963" transform="translate(3,39)"/>
<path d="M0,0 L1,0 L1,2 L0,2 Z " fill="#C37AEF" transform="translate(26,37)"/>
<path d="M0,0 L1,0 L1,2 L0,2 Z " fill="#A978CA" transform="translate(55,36)"/>
<path d="M0,0 L2,0 L2,1 L0,1 Z " fill="#BF9232" transform="translate(7,37)"/>
<path d="M0,0 L1,0 L1,1 L0,1 Z " fill="#343441" opacity="0.8" transform="translate(63,36)"/>
<path d="M0,0 L2,0 L2,1 L0,1 Z " fill="#AB7ACC" transform="translate(40,36)"/>
<path d="M0,0 L1,0 L1,1 L0,1 Z " fill="#333341" opacity="0.03137255" transform="translate(0,36)"/>
<path d="M0,0 L1,0 L1,2 L0,2 Z " fill="#E18D2F" transform="translate(17,34)"/>
<path d="M0,0 L1,0 L1,1 L0,1 Z M-1,1 L0,1 L0,2 L-1,2 Z " fill="#F2AB2C" transform="translate(14,35)"/>
<path d="M0,0 L1,0 L1,2 L0,2 Z " fill="#363640" transform="translate(4,34)"/>
<path d="M0,0 L1,0 L1,1 L0,1 Z " fill="#343440" opacity="0.6509804" transform="translate(63,34)"/>
<path d="M0,0 L1,0 L1,2 L0,2 Z " fill="#7B519A" transform="translate(59,33)"/>
<path d="M0,0 L2,0 L2,1 L0,1 Z " fill="#BA6AE8" transform="translate(21,34)"/>
<path d="M0,0 L2,0 L2,1 L0,1 Z " fill="#E28F2B" transform="translate(15,34)"/>
<path d="M0,0 L1,0 L1,2 L0,2 Z " fill="#B96AE7" transform="translate(47,32)"/>
<path d="M0,0 L1,0 L1,2 L0,2 Z " fill="#975CBD" transform="translate(18,32)"/>
<path d="M0,0 L1,0 L1,2 L0,2 Z " fill="#DF8D2B" transform="translate(16,32)"/>
<path d="M0,0 L1,0 L1,1 L0,1 Z " fill="#35353C" opacity="0.14901961" transform="translate(63,32)"/>
<path d="M0,0 L1,0 L1,2 L0,2 Z " fill="#B669E4" transform="translate(58,31)"/>
<path d="M0,0 L1,0 L1,2 L0,2 Z " fill="#B381D3" transform="translate(46,30)"/>
<path d="M0,0 L1,0 L1,2 L0,2 Z " fill="#C89730" transform="translate(15,29)"/>
<path d="M0,0 L1,0 L1,2 L0,2 Z " fill="#C59632" transform="translate(4,29)"/>
<path d="M0,0 L1,0 L1,1 L0,1 Z " fill="#35353D" opacity="0.24313726" transform="translate(62,29)"/>
<path d="M0,0 L2,0 L2,1 L0,1 Z " fill="#B17FD0" transform="translate(40,28)"/>
<path d="M0,0 L2,0 L2,1 L0,1 Z " fill="#B46BE1" transform="translate(33,28)"/>
<path d="M0,0 L1,0 L1,1 L0,1 Z " fill="#35353F" opacity="0.39607844" transform="translate(0,28)"/>
<path d="M0,0 L1,0 L1,1 L0,1 Z M-1,1 L0,1 L0,2 L-1,2 Z " fill="#D6A12F" transform="translate(6,27)"/>
<path d="M0,0 L1,0 L1,1 L0,1 Z " fill="#353541" opacity="0.83137256" transform="translate(60,26)"/>
<path d="M0,0 L2,0 L2,1 L0,1 Z " fill="#363640" transform="translate(12,26)"/>
<path d="M0,0 L2,0 L2,1 L0,1 Z " fill="#C59632" transform="translate(7,26)"/>
<path d="M0,0 L1,0 L1,1 L0,1 Z " fill="#33333F" opacity="0.4117647" transform="translate(1,26)"/>
<path d="M0,0 L2,0 L2,1 L0,1 Z " fill="#A674C7" transform="translate(43,25)"/>
<path d="M0,0 L2,0 L2,1 L0,1 Z " fill="#A66DCC" transform="translate(37,25)"/>
<path d="M0,0 L2,0 L2,1 L0,1 Z " fill="#C58DE7" transform="translate(40,24)"/>
<path d="M0,0 L1,0 L1,1 L0,1 Z " fill="#34343F" opacity="0.28627452" transform="translate(17,24)"/>
<path d="M0,0 L1,0 L1,1 L0,1 Z " fill="#353541" opacity="0.58431375" transform="translate(18,23)"/>
<path d="M0,0 L1,0 L1,1 L0,1 Z " fill="#33333F" opacity="0.4117647" transform="translate(4,23)"/>
<path d="M0,0 L1,0 L1,1 L0,1 Z " fill="#333341" opacity="0.03137255" transform="translate(14,22)"/>
<path d="M0,0 L1,0 L1,1 L0,1 Z " fill="#35353F" opacity="0.39607844" transform="translate(6,22)"/>
<path d="M0,0 L2,0 L2,1 L0,1 Z " fill="#B96AE9" transform="translate(48,21)"/>
<path d="M0,0 L2,0 L2,1 L0,1 Z " fill="#AC79CC" transform="translate(32,21)"/>
<path d="M0,0 L2,0 L2,1 L0,1 Z " fill="#B784D8" transform="translate(39,20)"/>
<path d="M0,0 L2,0 L2,1 L0,1 Z " fill="#A775C8" transform="translate(35,20)"/>
<path d="M0,0 L1,0 L1,2 L0,2 Z " fill="#BA6AE9" transform="translate(45,18)"/>
<path d="M0,0 L2,0 L2,1 L0,1 Z " fill="#B96AE8" transform="translate(29,19)"/>
<path d="M0,0 L1,0 L1,1 L0,1 Z " fill="#353541" opacity="0.83137256" transform="translate(22,19)"/>
<path d="M0,0 L2,0 L2,1 L0,1 Z " fill="#3E384C" transform="translate(46,18)"/>
<path d="M0,0 L2,0 L2,1 L0,1 Z " fill="#B569E2" transform="translate(31,18)"/>
<path d="M0,0 L2,0 L2,1 L0,1 Z " fill="#493C5B" transform="translate(43,17)"/>
<path d="M0,0 L2,0 L2,1 L0,1 Z " fill="#7E529E" transform="translate(41,17)"/>
<path d="M0,0 L2,0 L2,1 L0,1 Z " fill="#935BB8" transform="translate(34,17)"/>
<path d="M0,0 L1,0 L1,1 L0,1 Z " fill="#35353F" opacity="0.39607844" transform="translate(24,17)"/>
<path d="M0,0 L1,0 L1,1 L0,1 Z " fill="#343440" opacity="0.6509804" transform="translate(26,16)"/>
<path d="M0,0 L1,0 L1,1 L0,1 Z " fill="#333341" opacity="0.6" transform="translate(28,15)"/>
<path d="M0,0 L1,0 L1,1 L0,1 Z " fill="#333341" opacity="0.015686275" transform="translate(48,14)"/>
<path d="M0,0 L1,0 L1,1 L0,1 Z " fill="#343441" opacity="0.5372549" transform="translate(30,14)"/>
<path d="M0,0 L1,0 L1,1 L0,1 Z " fill="#343440" opacity="0.5921569" transform="translate(42,13)"/>
<path d="M0,0 L1,0 L1,1 L0,1 Z " fill="#33333F" opacity="0.33333334" transform="translate(33,13)"/>
<path d="M0,0 L1,0 L1,1 L0,1 Z " fill="#353541" opacity="0.007843138" transform="translate(38,12)"/>
<path d="M0,0 L1,0 L1,1 L0,1 Z " fill="#313140" opacity="0.14117648" transform="translate(58,63)"/>
<path d="M0,0 L1,0 L1,1 L0,1 Z " fill="#35353F" opacity="0.49019608" transform="translate(57,63)"/>
<path d="M0,0 L1,0 L1,1 L0,1 Z " fill="#343441" opacity="0.8784314" transform="translate(55,63)"/>
<path d="M0,0 L1,0 L1,1 L0,1 Z " fill="#343440" opacity="0.96862745" transform="translate(54,63)"/>
<path d="M0,0 L1,0 L1,1 L0,1 Z " fill="#343440" opacity="0.9607843" transform="translate(10,63)"/>
<path d="M0,0 L1,0 L1,1 L0,1 Z " fill="#343440" opacity="0.7137255" transform="translate(8,63)"/>
<path d="M0,0 L1,0 L1,1 L0,1 Z " fill="#343440" opacity="0.17254902" transform="translate(6,63)"/>
<path d="M0,0 L1,0 L1,1 L0,1 Z " fill="#343441" opacity="0.011764706" transform="translate(60,62)"/>
<path d="M0,0 L1,0 L1,1 L0,1 Z " fill="#353540" opacity="0.50980395" transform="translate(59,62)"/>
<path d="M0,0 L1,0 L1,1 L0,1 Z " fill="#33333E" opacity="0.1764706" transform="translate(4,62)"/>
<path d="M0,0 L1,0 L1,1 L0,1 Z " fill="#343441" opacity="0.6156863" transform="translate(60,61)"/>
<path d="M0,0 L1,0 L1,1 L0,1 Z " fill="#343440" opacity="0.9607843" transform="translate(4,61)"/>
<path d="M0,0 L1,0 L1,1 L0,1 Z " fill="#33333F" opacity="0.27058825" transform="translate(3,61)"/>
<path d="M0,0 L1,0 L1,1 L0,1 Z " fill="#323240" opacity="0.2784314" transform="translate(61,60)"/>
<path d="M0,0 L1,0 L1,1 L0,1 Z " fill="#33333D" opacity="0.19607843" transform="translate(2,60)"/>
<path d="M0,0 L1,0 L1,1 L0,1 Z " fill="#343440" opacity="0.80784315" transform="translate(61,59)"/>
<path d="M0,0 L1,0 L1,1 L0,1 Z " fill="#8D6335" transform="translate(56,59)"/>
<path d="M0,0 L1,0 L1,1 L0,1 Z " fill="#C47F2D" transform="translate(55,59)"/>
<path d="M0,0 L1,0 L1,1 L0,1 Z " fill="#DA8A2C" transform="translate(54,59)"/>
<path d="M0,0 L1,0 L1,1 L0,1 Z " fill="#D0852C" transform="translate(10,59)"/>
<path d="M0,0 L1,0 L1,1 L0,1 Z " fill="#906434" transform="translate(8,59)"/>
<path d="M0,0 L1,0 L1,1 L0,1 Z " fill="#53443C" transform="translate(7,59)"/>
<path d="M0,0 L1,0 L1,1 L0,1 Z " fill="#343440" opacity="0.8745098" transform="translate(2,59)"/>
<path d="M0,0 L1,0 L1,1 L0,1 Z " fill="#34343D" opacity="0.21176471" transform="translate(62,58)"/>
<path d="M0,0 L1,0 L1,1 L0,1 Z " fill="#353540" transform="translate(58,58)"/>
<path d="M0,0 L1,0 L1,1 L0,1 Z " fill="#B37730" transform="translate(57,58)"/>
<path d="M0,0 L1,0 L1,1 L0,1 Z " fill="#916434" transform="translate(6,58)"/>
<path d="M0,0 L1,0 L1,1 L0,1 Z " fill="#333340" opacity="0.37254903" transform="translate(1,58)"/>
<path d="M0,0 L1,0 L1,1 L0,1 Z " fill="#343440" opacity="0.40392157" transform="translate(62,57)"/>
<path d="M0,0 L1,0 L1,1 L0,1 Z " fill="#624C3B" transform="translate(58,57)"/>
<path d="M0,0 L1,0 L1,1 L0,1 Z " fill="#745638" transform="translate(5,57)"/>
<path d="M0,0 L1,0 L1,1 L0,1 Z " fill="#353540" opacity="0.7176471" transform="translate(1,57)"/>
<path d="M0,0 L1,0 L1,1 L0,1 Z " fill="#BC812F" transform="translate(42,56)"/>
<path d="M0,0 L1,0 L1,1 L0,1 Z " fill="#D69B2E" transform="translate(41,56)"/>
<path d="M0,0 L1,0 L1,1 L0,1 Z " fill="#E6AA2D" transform="translate(39,56)"/>
<path d="M0,0 L1,0 L1,1 L0,1 Z " fill="#C4812E" transform="translate(37,56)"/>
<path d="M0,0 L1,0 L1,1 L0,1 Z " fill="#BC8130" transform="translate(20,56)"/>
<path d="M0,0 L1,0 L1,1 L0,1 Z " fill="#D59A2F" transform="translate(19,56)"/>
<path d="M0,0 L1,0 L1,1 L0,1 Z " fill="#E3A62D" transform="translate(17,56)"/>
<path d="M0,0 L1,0 L1,1 L0,1 Z " fill="#CA832D" transform="translate(15,56)"/>
<path d="M0,0 L1,0 L1,1 L0,1 Z " fill="#BB7A2F" transform="translate(5,56)"/>
<path d="M0,0 L1,0 L1,1 L0,1 Z " fill="#353540" opacity="0.8509804" transform="translate(1,56)"/>
<path d="M0,0 L1,0 L1,1 L0,1 Z " fill="#353540" opacity="0.50980395" transform="translate(62,55)"/>
<path d="M0,0 L1,0 L1,1 L0,1 Z " fill="#866337" transform="translate(58,55)"/>
<path d="M0,0 L1,0 L1,1 L0,1 Z " fill="#CC842D" transform="translate(44,55)"/>
<path d="M0,0 L1,0 L1,1 L0,1 Z " fill="#DDA22D" transform="translate(43,55)"/>
<path d="M0,0 L1,0 L1,1 L0,1 Z " fill="#FAB92C" transform="translate(37,55)"/>
<path d="M0,0 L1,0 L1,1 L0,1 Z " fill="#C1882F" transform="translate(36,55)"/>
<path d="M0,0 L1,0 L1,1 L0,1 Z " fill="#C5812E" transform="translate(22,55)"/>
<path d="M0,0 L1,0 L1,1 L0,1 Z " fill="#E8AB2D" transform="translate(21,55)"/>
<path d="M0,0 L1,0 L1,1 L0,1 Z " fill="#F7B62C" transform="translate(15,55)"/>
<path d="M0,0 L1,0 L1,1 L0,1 Z " fill="#BD8230" transform="translate(14,55)"/>
<path d="M0,0 L1,0 L1,1 L0,1 Z " fill="#D99E2F" transform="translate(57,54)"/>
<path d="M0,0 L1,0 L1,1 L0,1 Z " fill="#D1862D" transform="translate(56,54)"/>
<path d="M0,0 L1,0 L1,1 L0,1 Z " fill="#E28E2B" transform="translate(48,54)"/>
<path d="M0,0 L1,0 L1,1 L0,1 Z " fill="#D07F7C" transform="translate(46,54)"/>
<path d="M0,0 L1,0 L1,1 L0,1 Z " fill="#BC73A0" transform="translate(45,54)"/>
<path d="M0,0 L1,0 L1,1 L0,1 Z " fill="#C479C3" transform="translate(44,54)"/>
<path d="M0,0 L1,0 L1,1 L0,1 Z " fill="#C274D2" transform="translate(43,54)"/>
<path d="M0,0 L1,0 L1,1 L0,1 Z " fill="#BF71DA" transform="translate(42,54)"/>
<path d="M0,0 L1,0 L1,1 L0,1 Z " fill="#BF71D8" transform="translate(40,54)"/>
<path d="M0,0 L1,0 L1,1 L0,1 Z " fill="#C97DBC" transform="translate(38,54)"/>
<path d="M0,0 L1,0 L1,1 L0,1 Z " fill="#E39D70" transform="translate(36,54)"/>
<path d="M0,0 L1,0 L1,1 L0,1 Z " fill="#CC8F46" transform="translate(35,54)"/>
<path d="M0,0 L1,0 L1,1 L0,1 Z " fill="#D8892B" transform="translate(34,54)"/>
<path d="M0,0 L1,0 L1,1 L0,1 Z " fill="#BD802F" transform="translate(23,54)"/>
<path d="M0,0 L1,0 L1,1 L0,1 Z " fill="#F6B52C" transform="translate(22,54)"/>
<path d="M0,0 L1,0 L1,1 L0,1 Z " fill="#C58B30" transform="translate(13,54)"/>
<path d="M0,0 L1,0 L1,1 L0,1 Z " fill="#D2862C" transform="translate(5,54)"/>
<path d="M0,0 L1,0 L1,1 L0,1 Z " fill="#343440" opacity="0.8745098" transform="translate(1,54)"/>
<path d="M0,0 L1,0 L1,1 L0,1 Z " fill="#353541" opacity="0.32156864" transform="translate(62,53)"/>
<path d="M0,0 L1,0 L1,1 L0,1 Z " fill="#5E503C" transform="translate(58,53)"/>
<path d="M0,0 L1,0 L1,1 L0,1 Z " fill="#EAAD2D" transform="translate(56,53)"/>
<path d="M0,0 L1,0 L1,1 L0,1 Z " fill="#C1802E" transform="translate(55,53)"/>
<path d="M0,0 L1,0 L1,1 L0,1 Z " fill="#CD7C8C" transform="translate(49,53)"/>
<path d="M0,0 L1,0 L1,1 L0,1 Z " fill="#BF70CF" transform="translate(48,53)"/>
<path d="M0,0 L1,0 L1,1 L0,1 Z " fill="#C07498" transform="translate(33,53)"/>
<path d="M0,0 L1,0 L1,1 L0,1 Z " fill="#D8855A" transform="translate(32,53)"/>
<path d="M0,0 L1,0 L1,1 L0,1 Z " fill="#E18E2E" transform="translate(31,53)"/>
<path d="M0,0 L1,0 L1,1 L0,1 Z " fill="#C08730" transform="translate(24,53)"/>
<path d="M0,0 L1,0 L1,1 L0,1 Z " fill="#FABA2C" transform="translate(23,53)"/>
<path d="M0,0 L1,0 L1,1 L0,1 Z " fill="#D39A2F" transform="translate(12,53)"/>
<path d="M0,0 L1,0 L1,1 L0,1 Z " fill="#D2862C" transform="translate(11,53)"/>
<path d="M0,0 L1,0 L1,1 L0,1 Z " fill="#413D3E" transform="translate(58,52)"/>
<path d="M0,0 L1,0 L1,1 L0,1 Z " fill="#F9B82B" transform="translate(55,52)"/>
<path d="M0,0 L1,0 L1,1 L0,1 Z " fill="#BD8430" transform="translate(54,52)"/>
<path d="M0,0 L1,0 L1,1 L0,1 Z " fill="#DE8B3C" transform="translate(52,52)"/>
<path d="M0,0 L1,0 L1,1 L0,1 Z " fill="#CA7999" transform="translate(51,52)"/>
<path d="M0,0 L1,0 L1,1 L0,1 Z " fill="#BB6BE5" transform="translate(50,52)"/>
<path d="M0,0 L1,0 L1,1 L0,1 Z " fill="#CE7C8C" transform="translate(30,52)"/>
<path d="M0,0 L1,0 L1,1 L0,1 Z " fill="#DF8C39" transform="translate(29,52)"/>
<path d="M0,0 L1,0 L1,1 L0,1 Z " fill="#C7822E" transform="translate(26,52)"/>
<path d="M0,0 L1,0 L1,1 L0,1 Z " fill="#D3982E" transform="translate(25,52)"/>
<path d="M0,0 L1,0 L1,1 L0,1 Z " fill="#EAAD2D" transform="translate(11,52)"/>
<path d="M0,0 L1,0 L1,1 L0,1 Z " fill="#C0802F" transform="translate(10,52)"/>
<path d="M0,0 L1,0 L1,1 L0,1 Z " fill="#E28F2B" transform="translate(6,52)"/>
<path d="M0,0 L1,0 L1,1 L0,1 Z " fill="#8D6335" transform="translate(5,52)"/>
<path d="M0,0 L1,0 L1,1 L0,1 Z " fill="#343441" opacity="0.6313726" transform="translate(1,52)"/>
<path d="M0,0 L1,0 L1,1 L0,1 Z " fill="#343440" opacity="0.007843138" transform="translate(62,51)"/>
<path d="M0,0 L1,0 L1,1 L0,1 Z " fill="#343440" opacity="0.93333334" transform="translate(61,51)"/>
<path d="M0,0 L1,0 L1,1 L0,1 Z " fill="#CC9B31" transform="translate(57,51)"/>
<path d="M0,0 L1,0 L1,1 L0,1 Z " fill="#FAB92E" transform="translate(54,51)"/>
<path d="M0,0 L1,0 L1,1 L0,1 Z " fill="#D78F87" transform="translate(53,51)"/>
<path d="M0,0 L1,0 L1,1 L0,1 Z " fill="#BA6CE1" transform="translate(52,51)"/>
<path d="M0,0 L1,0 L1,1 L0,1 Z " fill="#BE7993" transform="translate(28,51)"/>
<path d="M0,0 L1,0 L1,1 L0,1 Z " fill="#D79A38" transform="translate(27,51)"/>
<path d="M0,0 L1,0 L1,1 L0,1 Z " fill="#F0AD29" transform="translate(18,51)"/>
<path d="M0,0 L1,0 L1,1 L0,1 Z " fill="#C37919" transform="translate(17,51)"/>
<path d="M0,0 L1,0 L1,1 L0,1 Z " fill="#B06313" transform="translate(16,51)"/>
<path d="M0,0 L1,0 L1,1 L0,1 Z " fill="#A3530F" transform="translate(15,51)"/>
<path d="M0,0 L1,0 L1,1 L0,1 Z " fill="#C47A1A" transform="translate(13,51)"/>
<path d="M0,0 L1,0 L1,1 L0,1 Z " fill="#F0AF29" transform="translate(12,51)"/>
<path d="M0,0 L1,0 L1,1 L0,1 Z " fill="#E4A72E" transform="translate(9,51)"/>
<path d="M0,0 L1,0 L1,1 L0,1 Z " fill="#C68D2F" transform="translate(8,51)"/>
<path d="M0,0 L1,0 L1,1 L0,1 Z " fill="#C78E2F" transform="translate(6,51)"/>
<path d="M0,0 L1,0 L1,1 L0,1 Z " fill="#5A4B3C" transform="translate(5,51)"/>
<path d="M0,0 L1,0 L1,1 L0,1 Z " fill="#343441" opacity="0.6156863" transform="translate(61,50)"/>
<path d="M0,0 L1,0 L1,1 L0,1 Z " fill="#7F6739" transform="translate(57,50)"/>
<path d="M0,0 L1,0 L1,1 L0,1 Z " fill="#F7B735" transform="translate(55,50)"/>
<path d="M0,0 L1,0 L1,1 L0,1 Z " fill="#CF84AC" transform="translate(54,50)"/>
<path d="M0,0 L1,0 L1,1 L0,1 Z " fill="#C274D2" transform="translate(27,50)"/>
<path d="M0,0 L1,0 L1,1 L0,1 Z " fill="#E8A45F" transform="translate(26,50)"/>
<path d="M0,0 L1,0 L1,1 L0,1 Z " fill="#DC9521" transform="translate(19,50)"/>
<path d="M0,0 L1,0 L1,1 L0,1 Z " fill="#A4550F" transform="translate(18,50)"/>
<path d="M0,0 L1,0 L1,1 L0,1 Z " fill="#A55610" transform="translate(12,50)"/>
<path d="M0,0 L1,0 L1,1 L0,1 Z " fill="#DE9923" transform="translate(11,50)"/>
<path d="M0,0 L1,0 L1,1 L0,1 Z " fill="#353540" transform="translate(5,50)"/>
<path d="M0,0 L1,0 L1,1 L0,1 Z " fill="#30303C" opacity="0.08235294" transform="translate(1,50)"/>
<path d="M0,0 L1,0 L1,1 L0,1 Z " fill="#373640" transform="translate(57,49)"/>
<path d="M0,0 L1,0 L1,1 L0,1 Z " fill="#D59D3E" transform="translate(56,49)"/>
<path d="M0,0 L1,0 L1,1 L0,1 Z " fill="#C67AC4" transform="translate(55,49)"/>
<path d="M0,0 L1,0 L1,1 L0,1 Z " fill="#BE70E1" transform="translate(43,49)"/>
<path d="M0,0 L1,0 L1,1 L0,1 Z " fill="#C378D9" transform="translate(42,49)"/>
<path d="M0,0 L1,0 L1,1 L0,1 Z " fill="#C376D9" transform="translate(40,49)"/>
<path d="M0,0 L1,0 L1,1 L0,1 Z " fill="#BC6EE4" transform="translate(39,49)"/>
<path d="M0,0 L1,0 L1,1 L0,1 Z " fill="#D68E96" transform="translate(25,49)"/>
<path d="M0,0 L1,0 L1,1 L0,1 Z " fill="#F9B82F" transform="translate(24,49)"/>
<path d="M0,0 L1,0 L1,1 L0,1 Z " fill="#E7A425" transform="translate(20,49)"/>
<path d="M0,0 L1,0 L1,1 L0,1 Z " fill="#A0510E" transform="translate(19,49)"/>
<path d="M0,0 L1,0 L1,1 L0,1 Z " fill="#A1510E" transform="translate(11,49)"/>
<path d="M0,0 L1,0 L1,1 L0,1 Z " fill="#E9A526" transform="translate(10,49)"/>
<path d="M0,0 L1,0 L1,1 L0,1 Z " fill="#967637" transform="translate(6,49)"/>
<path d="M0,0 L1,0 L1,1 L0,1 Z " fill="#333340" opacity="0.77254903" transform="translate(2,49)"/>
<path d="M0,0 L1,0 L1,1 L0,1 Z " fill="#343440" opacity="0.5764706" transform="translate(61,48)"/>
<path d="M0,0 L1,0 L1,1 L0,1 Z " fill="#A466B8" transform="translate(56,48)"/>
<path d="M0,0 L1,0 L1,1 L0,1 Z " fill="#BE71E0" transform="translate(47,48)"/>
<path d="M0,0 L1,0 L1,1 L0,1 Z " fill="#D089C7" transform="translate(46,48)"/>
<path d="M0,0 L1,0 L1,1 L0,1 Z " fill="#DA9BDC" transform="translate(44,48)"/>
<path d="M0,0 L1,0 L1,1 L0,1 Z " fill="#DB9BCB" transform="translate(37,48)"/>
<path d="M0,0 L1,0 L1,1 L0,1 Z " fill="#C87ED1" transform="translate(35,48)"/>
<path d="M0,0 L1,0 L1,1 L0,1 Z " fill="#CE83AE" transform="translate(24,48)"/>
<path d="M0,0 L1,0 L1,1 L0,1 Z " fill="#F7B635" transform="translate(23,48)"/>
<path d="M0,0 L1,0 L1,1 L0,1 Z " fill="#B76B15" transform="translate(20,48)"/>
<path d="M0,0 L1,0 L1,1 L0,1 Z " fill="#AD5F11" transform="translate(17,48)"/>
<path d="M0,0 L1,0 L1,1 L0,1 Z " fill="#E29E24" transform="translate(16,48)"/>
<path d="M0,0 L1,0 L1,1 L0,1 Z " fill="#E19C23" transform="translate(14,48)"/>
<path d="M0,0 L1,0 L1,1 L0,1 Z " fill="#AA5B11" transform="translate(13,48)"/>
<path d="M0,0 L1,0 L1,1 L0,1 Z " fill="#BA6E16" transform="translate(10,48)"/>
<path d="M0,0 L1,0 L1,1 L0,1 Z " fill="#443F3E" transform="translate(6,48)"/>
<path d="M0,0 L1,0 L1,1 L0,1 Z " fill="#343440" opacity="0.98039216" transform="translate(61,47)"/>
<path d="M0,0 L1,0 L1,1 L0,1 Z " fill="#714D8E" transform="translate(57,47)"/>
<path d="M0,0 L1,0 L1,1 L0,1 Z " fill="#C87ED1" transform="translate(49,47)"/>
<path d="M0,0 L1,0 L1,1 L0,1 Z " fill="#DB9CCD" transform="translate(48,47)"/>
<path d="M0,0 L1,0 L1,1 L0,1 Z " fill="#D699F7" transform="translate(47,47)"/>
<path d="M0,0 L1,0 L1,1 L0,1 Z " fill="#D895C2" transform="translate(33,47)"/>
<path d="M0,0 L1,0 L1,1 L0,1 Z " fill="#C073DD" transform="translate(32,47)"/>
<path d="M0,0 L1,0 L1,1 L0,1 Z " fill="#C97EBB" transform="translate(23,47)"/>
<path d="M0,0 L1,0 L1,1 L0,1 Z " fill="#F8B733" transform="translate(22,47)"/>
<path d="M0,0 L1,0 L1,1 L0,1 Z " fill="#A0500D" transform="translate(18,47)"/>
<path d="M0,0 L1,0 L1,1 L0,1 Z " fill="#EAA827" transform="translate(17,47)"/>
<path d="M0,0 L1,0 L1,1 L0,1 Z " fill="#E6A326" transform="translate(13,47)"/>
<path d="M0,0 L1,0 L1,1 L0,1 Z " fill="#9F500D" transform="translate(12,47)"/>
<path d="M0,0 L1,0 L1,1 L0,1 Z " fill="#A3530F" transform="translate(10,47)"/>
<path d="M0,0 L1,0 L1,1 L0,1 Z " fill="#A58034" transform="translate(7,47)"/>
<path d="M0,0 L1,0 L1,1 L0,1 Z " fill="#343441" opacity="0.95686275" transform="translate(3,47)"/>
<path d="M0,0 L1,0 L1,1 L0,1 Z " fill="#343441" opacity="0.050980393" transform="translate(2,47)"/>
<path d="M0,0 L1,0 L1,1 L0,1 Z " fill="#343440" opacity="0.5176471" transform="translate(62,46)"/>
<path d="M0,0 L1,0 L1,1 L0,1 Z " fill="#B86AE6" transform="translate(57,46)"/>
<path d="M0,0 L1,0 L1,1 L0,1 Z " fill="#BE70E1" transform="translate(51,46)"/>
<path d="M0,0 L1,0 L1,1 L0,1 Z " fill="#DA99C9" transform="translate(50,46)"/>
<path d="M0,0 L1,0 L1,1 L0,1 Z " fill="#D699F9" transform="translate(49,46)"/>
<path d="M0,0 L1,0 L1,1 L0,1 Z " fill="#D895C2" transform="translate(31,46)"/>
<path d="M0,0 L1,0 L1,1 L0,1 Z " fill="#BC6EE4" transform="translate(30,46)"/>
<path d="M0,0 L1,0 L1,1 L0,1 Z " fill="#D086A6" transform="translate(22,46)"/>
<path d="M0,0 L1,0 L1,1 L0,1 Z " fill="#FAB92D" transform="translate(21,46)"/>
<path d="M0,0 L1,0 L1,1 L0,1 Z " fill="#CA811C" transform="translate(20,46)"/>
<path d="M0,0 L1,0 L1,1 L0,1 Z " fill="#A95A10" transform="translate(19,46)"/>
<path d="M0,0 L1,0 L1,1 L0,1 Z " fill="#D58F1F" transform="translate(18,46)"/>
<path d="M0,0 L1,0 L1,1 L0,1 Z " fill="#CE861D" transform="translate(12,46)"/>
<path d="M0,0 L1,0 L1,1 L0,1 Z " fill="#CC831D" transform="translate(10,46)"/>
<path d="M0,0 L1,0 L1,1 L0,1 Z " fill="#F7B82D" transform="translate(8,46)"/>
<path d="M0,0 L1,0 L1,1 L0,1 Z " fill="#4E453D" transform="translate(7,46)"/>
<path d="M0,0 L1,0 L1,1 L0,1 Z " fill="#343440" opacity="0.8745098" transform="translate(62,45)"/>
<path d="M0,0 L1,0 L1,1 L0,1 Z " fill="#795098" transform="translate(58,45)"/>
<path d="M0,0 L1,0 L1,1 L0,1 Z " fill="#C378D8" transform="translate(52,45)"/>
<path d="M0,0 L1,0 L1,1 L0,1 Z " fill="#DA9CDC" transform="translate(51,45)"/>
<path d="M0,0 L1,0 L1,1 L0,1 Z " fill="#CA81CE" transform="translate(29,45)"/>
<path d="M0,0 L1,0 L1,1 L0,1 Z " fill="#DA9389" transform="translate(21,45)"/>
<path d="M0,0 L1,0 L1,1 L0,1 Z " fill="#997836" transform="translate(8,45)"/>
<path d="M0,0 L1,0 L1,1 L0,1 Z " fill="#343440" opacity="0.98039216" transform="translate(4,45)"/>
<path d="M0,0 L1,0 L1,1 L0,1 Z " fill="#33333B" opacity="0.11764706" transform="translate(3,45)"/>
<path d="M0,0 L1,0 L1,1 L0,1 Z " fill="#33333D" opacity="0.19607843" transform="translate(63,44)"/>
<path d="M0,0 L1,0 L1,1 L0,1 Z " fill="#AD65D9" transform="translate(58,44)"/>
<path d="M0,0 L1,0 L1,1 L0,1 Z " fill="#D196E5" transform="translate(52,44)"/>
<path d="M0,0 L1,0 L1,1 L0,1 Z " fill="#D69AF5" transform="translate(29,44)"/>
<path d="M0,0 L1,0 L1,1 L0,1 Z " fill="#D18BC5" transform="translate(28,44)"/>
<path d="M0,0 L1,0 L1,1 L0,1 Z " fill="#BB6CE5" transform="translate(21,44)"/>
<path d="M0,0 L1,0 L1,1 L0,1 Z " fill="#EFAD4B" transform="translate(20,44)"/>
<path d="M0,0 L1,0 L1,1 L0,1 Z " fill="#DBA530" transform="translate(9,44)"/>
<path d="M0,0 L1,0 L1,1 L0,1 Z " fill="#3B393F" transform="translate(8,44)"/>
<path d="M0,0 L1,0 L1,1 L0,1 Z " fill="#35353F" opacity="0.39607844" transform="translate(63,43)"/>
<path d="M0,0 L1,0 L1,1 L0,1 Z " fill="#5D4573" transform="translate(59,43)"/>
<path d="M0,0 L1,0 L1,1 L0,1 Z " fill="#B17FD1" transform="translate(53,43)"/>
<path d="M0,0 L1,0 L1,1 L0,1 Z " fill="#D490C3" transform="translate(27,43)"/>
<path d="M0,0 L1,0 L1,1 L0,1 Z " fill="#CA7FB9" transform="translate(20,43)"/>
<path d="M0,0 L1,0 L1,1 L0,1 Z " fill="#FAB92D" transform="translate(19,43)"/>
<path d="M0,0 L1,0 L1,1 L0,1 Z " fill="#64553B" transform="translate(9,43)"/>
<path d="M0,0 L1,0 L1,1 L0,1 Z " fill="#343441" opacity="0.9411765" transform="translate(5,43)"/>
<path d="M0,0 L1,0 L1,1 L0,1 Z " fill="#353540" opacity="0.09411765" transform="translate(4,43)"/>
<path d="M0,0 L1,0 L1,1 L0,1 Z " fill="#785096" transform="translate(59,42)"/>
<path d="M0,0 L1,0 L1,1 L0,1 Z " fill="#D699F8" transform="translate(27,42)"/>
<path d="M0,0 L1,0 L1,1 L0,1 Z " fill="#D089C8" transform="translate(26,42)"/>
<path d="M0,0 L1,0 L1,1 L0,1 Z " fill="#B96BE9" transform="translate(23,42)"/>
<path d="M0,0 L1,0 L1,1 L0,1 Z " fill="#B96BE9" transform="translate(21,42)"/>
<path d="M0,0 L1,0 L1,1 L0,1 Z " fill="#E39D70" transform="translate(19,42)"/>
<path d="M0,0 L1,0 L1,1 L0,1 Z " fill="#957536" transform="translate(10,42)"/>
<path d="M0,0 L1,0 L1,1 L0,1 Z " fill="#343440" opacity="0.654902" transform="translate(63,41)"/>
<path d="M0,0 L1,0 L1,1 L0,1 Z " fill="#B280D3" transform="translate(54,41)"/>
<path d="M0,0 L1,0 L1,1 L0,1 Z " fill="#D89AED" transform="translate(45,41)"/>
<path d="M0,0 L1,0 L1,1 L0,1 Z " fill="#DA9ACB" transform="translate(44,41)"/>
<path d="M0,0 L1,0 L1,1 L0,1 Z " fill="#D693C3" transform="translate(43,41)"/>
<path d="M0,0 L1,0 L1,1 L0,1 Z " fill="#D895C4" transform="translate(41,41)"/>
<path d="M0,0 L1,0 L1,1 L0,1 Z " fill="#DA9CDC" transform="translate(39,41)"/>
<path d="M0,0 L1,0 L1,1 L0,1 Z " fill="#D79AF0" transform="translate(26,41)"/>
<path d="M0,0 L1,0 L1,1 L0,1 Z " fill="#BA6AE9" transform="translate(24,41)"/>
<path d="M0,0 L1,0 L1,1 L0,1 Z " fill="#C376CF" transform="translate(19,41)"/>
<path d="M0,0 L1,0 L1,1 L0,1 Z " fill="#FAB92D" transform="translate(18,41)"/>
<path d="M0,0 L1,0 L1,1 L0,1 Z " fill="#B18834" transform="translate(11,41)"/>
<path d="M0,0 L1,0 L1,1 L0,1 Z " fill="#353540" transform="translate(10,41)"/>
<path d="M0,0 L1,0 L1,1 L0,1 Z " fill="#343440" opacity="0.03137255" transform="translate(5,41)"/>
<path d="M0,0 L1,0 L1,1 L0,1 Z " fill="#343441" opacity="0.78431374" transform="translate(63,40)"/>
<path d="M0,0 L1,0 L1,1 L0,1 Z " fill="#995DC0" transform="translate(59,40)"/>
<path d="M0,0 L1,0 L1,1 L0,1 Z " fill="#AF6BDA" transform="translate(55,40)"/>
<path d="M0,0 L1,0 L1,1 L0,1 Z " fill="#C682C9" transform="translate(46,40)"/>
<path d="M0,0 L1,0 L1,1 L0,1 Z " fill="#BA6BE8" transform="translate(45,40)"/>
<path d="M0,0 L1,0 L1,1 L0,1 Z " fill="#C67AD5" transform="translate(38,40)"/>
<path d="M0,0 L1,0 L1,1 L0,1 Z " fill="#DA98C6" transform="translate(37,40)"/>
<path d="M0,0 L1,0 L1,1 L0,1 Z " fill="#D699F7" transform="translate(36,40)"/>
<path d="M0,0 L1,0 L1,1 L0,1 Z " fill="#D698FA" transform="translate(26,40)"/>
<path d="M0,0 L1,0 L1,1 L0,1 Z " fill="#C075E2" transform="translate(25,40)"/>
<path d="M0,0 L1,0 L1,1 L0,1 Z " fill="#E0A42E" transform="translate(12,40)"/>
<path d="M0,0 L1,0 L1,1 L0,1 Z " fill="#3A3840" transform="translate(11,40)"/>
<path d="M0,0 L1,0 L1,1 L0,1 Z " fill="#343440" opacity="0.34117648" transform="translate(4,40)"/>
<path d="M0,0 L1,0 L1,1 L0,1 Z " fill="#343440" opacity="0.9137255" transform="translate(63,39)"/>
<path d="M0,0 L1,0 L1,1 L0,1 Z " fill="#AB65D6" transform="translate(59,39)"/>
<path d="M0,0 L1,0 L1,1 L0,1 Z " fill="#AC7ACC" transform="translate(48,39)"/>
<path d="M0,0 L1,0 L1,1 L0,1 Z " fill="#B86BE6" transform="translate(47,39)"/>
<path d="M0,0 L1,0 L1,1 L0,1 Z " fill="#C77BD4" transform="translate(36,39)"/>
<path d="M0,0 L1,0 L1,1 L0,1 Z " fill="#DB9BD0" transform="translate(35,39)"/>
<path d="M0,0 L1,0 L1,1 L0,1 Z " fill="#CC89F5" transform="translate(26,39)"/>
<path d="M0,0 L1,0 L1,1 L0,1 Z " fill="#DB9387" transform="translate(18,39)"/>
<path d="M0,0 L1,0 L1,1 L0,1 Z " fill="#F2AB2B" transform="translate(13,39)"/>
<path d="M0,0 L1,0 L1,1 L0,1 Z " fill="#D98B2A" transform="translate(12,39)"/>
<path d="M0,0 L1,0 L1,1 L0,1 Z " fill="#353540" opacity="0.011764706" transform="translate(2,39)"/>
<path d="M0,0 L1,0 L1,1 L0,1 Z " fill="#A571C7" transform="translate(55,38)"/>
<path d="M0,0 L1,0 L1,1 L0,1 Z " fill="#B280D2" transform="translate(49,38)"/>
<path d="M0,0 L1,0 L1,1 L0,1 Z " fill="#BB6BE6" transform="translate(35,38)"/>
<path d="M0,0 L1,0 L1,1 L0,1 Z " fill="#DA9BCC" transform="translate(34,38)"/>
<path d="M0,0 L1,0 L1,1 L0,1 Z " fill="#C87CC0" transform="translate(18,38)"/>
<path d="M0,0 L1,0 L1,1 L0,1 Z " fill="#EEA52B" transform="translate(14,38)"/>
<path d="M0,0 L1,0 L1,1 L0,1 Z " fill="#E28F2B" transform="translate(12,38)"/>
<path d="M0,0 L1,0 L1,1 L0,1 Z " fill="#7E5A37" transform="translate(11,38)"/>
<path d="M0,0 L1,0 L1,1 L0,1 Z " fill="#353540" opacity="0.5647059" transform="translate(2,38)"/>
<path d="M0,0 L1,0 L1,1 L0,1 Z " fill="#343440" opacity="0.85882354" transform="translate(63,37)"/>
<path d="M0,0 L1,0 L1,1 L0,1 Z " fill="#A663CF" transform="translate(59,37)"/>
<path d="M0,0 L1,0 L1,1 L0,1 Z " fill="#AF6BD9" transform="translate(49,37)"/>
<path d="M0,0 L1,0 L1,1 L0,1 Z " fill="#BB6DE5" transform="translate(34,37)"/>
<path d="M0,0 L1,0 L1,1 L0,1 Z " fill="#DB9CD2" transform="translate(33,37)"/>
<path d="M0,0 L1,0 L1,1 L0,1 Z " fill="#C57DF0" transform="translate(26,37)"/>
<path d="M0,0 L1,0 L1,1 L0,1 Z " fill="#BF71D8" transform="translate(18,37)"/>
<path d="M0,0 L1,0 L1,1 L0,1 Z " fill="#F6B32C" transform="translate(16,37)"/>
<path d="M0,0 L1,0 L1,1 L0,1 Z " fill="#E89A2A" transform="translate(15,37)"/>
<path d="M0,0 L1,0 L1,1 L0,1 Z " fill="#EA9F2B" transform="translate(12,37)"/>
<path d="M0,0 L1,0 L1,1 L0,1 Z " fill="#EBA92D" transform="translate(11,37)"/>
<path d="M0,0 L1,0 L1,1 L0,1 Z " fill="#E7AD2E" transform="translate(9,37)"/>
<path d="M0,0 L1,0 L1,1 L0,1 Z " fill="#846A38" transform="translate(7,37)"/>
<path d="M0,0 L1,0 L1,1 L0,1 Z " fill="#363640" transform="translate(6,37)"/>
<path d="M0,0 L1,0 L1,1 L0,1 Z " fill="#343440" opacity="0.34509805" transform="translate(1,37)"/>
<path d="M0,0 L1,0 L1,1 L0,1 Z " fill="#AB7ACB" transform="translate(55,36)"/>
<path d="M0,0 L1,0 L1,1 L0,1 Z " fill="#B683D7" transform="translate(50,36)"/>
<path d="M0,0 L1,0 L1,1 L0,1 Z " fill="#B56AE1" transform="translate(45,36)"/>
<path d="M0,0 L1,0 L1,1 L0,1 Z " fill="#A674C7" transform="translate(44,36)"/>
<path d="M0,0 L1,0 L1,1 L0,1 Z " fill="#B683D7" transform="translate(42,36)"/>
<path d="M0,0 L1,0 L1,1 L0,1 Z " fill="#A76CCD" transform="translate(40,36)"/>
<path d="M0,0 L1,0 L1,1 L0,1 Z " fill="#C578D6" transform="translate(33,36)"/>
<path d="M0,0 L1,0 L1,1 L0,1 Z " fill="#D79AF3" transform="translate(32,36)"/>
<path d="M0,0 L1,0 L1,1 L0,1 Z " fill="#D291F7" transform="translate(26,36)"/>
<path d="M0,0 L1,0 L1,1 L0,1 Z " fill="#BD70EB" transform="translate(25,36)"/>
<path d="M0,0 L1,0 L1,1 L0,1 Z " fill="#BB6CE5" transform="translate(18,36)"/>
<path d="M0,0 L1,0 L1,1 L0,1 Z " fill="#EB9F2B" transform="translate(17,36)"/>
<path d="M0,0 L1,0 L1,1 L0,1 Z " fill="#E2902A" transform="translate(16,36)"/>
<path d="M0,0 L1,0 L1,1 L0,1 Z " fill="#E3922A" transform="translate(14,36)"/>
<path d="M0,0 L1,0 L1,1 L0,1 Z " fill="#C69732" transform="translate(6,36)"/>
<path d="M0,0 L1,0 L1,1 L0,1 Z " fill="#4A433E" transform="translate(5,36)"/>
<path d="M0,0 L1,0 L1,1 L0,1 Z " fill="#343440" opacity="0.8862745" transform="translate(1,36)"/>
<path d="M0,0 L1,0 L1,1 L0,1 Z " fill="#343441" opacity="0.7411765" transform="translate(63,35)"/>
<path d="M0,0 L1,0 L1,1 L0,1 Z " fill="#955BBB" transform="translate(59,35)"/>
<path d="M0,0 L1,0 L1,1 L0,1 Z " fill="#A876C9" transform="translate(55,35)"/>
<path d="M0,0 L1,0 L1,1 L0,1 Z " fill="#AA79CA" transform="translate(50,35)"/>
<path d="M0,0 L1,0 L1,1 L0,1 Z " fill="#AA6BD1" transform="translate(46,35)"/>
<path d="M0,0 L1,0 L1,1 L0,1 Z " fill="#C78FEA" transform="translate(45,35)"/>
<path d="M0,0 L1,0 L1,1 L0,1 Z " fill="#B17FD1" transform="translate(39,35)"/>
<path d="M0,0 L1,0 L1,1 L0,1 Z " fill="#C489C7" transform="translate(32,35)"/>
<path d="M0,0 L1,0 L1,1 L0,1 Z " fill="#D395F9" transform="translate(25,35)"/>
<path d="M0,0 L1,0 L1,1 L0,1 Z " fill="#C57DF0" transform="translate(24,35)"/>
<path d="M0,0 L1,0 L1,1 L0,1 Z " fill="#E28F2A" transform="translate(15,35)"/>
<path d="M0,0 L1,0 L1,1 L0,1 Z " fill="#CB9A31" transform="translate(5,35)"/>
<path d="M0,0 L1,0 L1,1 L0,1 Z " fill="#333341" opacity="0.36862746" transform="translate(0,35)"/>
<path d="M0,0 L1,0 L1,1 L0,1 Z " fill="#A673C8" transform="translate(50,34)"/>
<path d="M0,0 L1,0 L1,1 L0,1 Z " fill="#BF8AE0" transform="translate(46,34)"/>
<path d="M0,0 L1,0 L1,1 L0,1 Z " fill="#B17FD0" transform="translate(38,34)"/>
<path d="M0,0 L1,0 L1,1 L0,1 Z " fill="#A76CCD" transform="translate(32,34)"/>
<path d="M0,0 L1,0 L1,1 L0,1 Z " fill="#A870CC" transform="translate(23,34)"/>
<path d="M0,0 L1,0 L1,1 L0,1 Z " fill="#BA6AE9" transform="translate(21,34)"/>
<path d="M0,0 L1,0 L1,1 L0,1 Z " fill="#AC65D7" transform="translate(18,34)"/>
<path d="M0,0 L1,0 L1,1 L0,1 Z " fill="#B07530" transform="translate(17,34)"/>
<path d="M0,0 L1,0 L1,1 L0,1 Z " fill="#EA9F2B" transform="translate(15,34)"/>
<path d="M0,0 L1,0 L1,1 L0,1 Z " fill="#866C38" transform="translate(4,34)"/>
<path d="M0,0 L1,0 L1,1 L0,1 Z " fill="#343440" opacity="0.67058825" transform="translate(0,34)"/>
<path d="M0,0 L1,0 L1,1 L0,1 Z " fill="#333340" opacity="0.40784314" transform="translate(63,33)"/>
<path d="M0,0 L1,0 L1,1 L0,1 Z " fill="#58436E" transform="translate(59,33)"/>
<path d="M0,0 L1,0 L1,1 L0,1 Z " fill="#A66ECA" transform="translate(55,33)"/>
<path d="M0,0 L1,0 L1,1 L0,1 Z " fill="#AD6AD7" transform="translate(37,33)"/>
<path d="M0,0 L1,0 L1,1 L0,1 Z " fill="#AE69D8" transform="translate(32,33)"/>
<path d="M0,0 L1,0 L1,1 L0,1 Z " fill="#57473C" transform="translate(17,33)"/>
<path d="M0,0 L1,0 L1,1 L0,1 Z " fill="#F2AD2C" transform="translate(15,33)"/>
<path d="M0,0 L1,0 L1,1 L0,1 Z " fill="#C39532" transform="translate(4,33)"/>
<path d="M0,0 L1,0 L1,1 L0,1 Z " fill="#353540" opacity="0.87058824" transform="translate(0,33)"/>
<path d="M0,0 L1,0 L1,1 L0,1 Z " fill="#393648" transform="translate(59,32)"/>
<path d="M0,0 L1,0 L1,1 L0,1 Z " fill="#B26ADE" transform="translate(55,32)"/>
<path d="M0,0 L1,0 L1,1 L0,1 Z " fill="#AE7CCE" transform="translate(50,32)"/>
<path d="M0,0 L1,0 L1,1 L0,1 Z " fill="#B76AE4" transform="translate(47,32)"/>
<path d="M0,0 L1,0 L1,1 L0,1 Z " fill="#AD6AD7" transform="translate(23,32)"/>
<path d="M0,0 L1,0 L1,1 L0,1 Z " fill="#7E529E" transform="translate(18,32)"/>
<path d="M0,0 L1,0 L1,1 L0,1 Z " fill="#353541" transform="translate(17,32)"/>
<path d="M0,0 L1,0 L1,1 L0,1 Z " fill="#8B6235" transform="translate(16,32)"/>
<path d="M0,0 L1,0 L1,1 L0,1 Z " fill="#343441" opacity="0.003921569" transform="translate(63,31)"/>
<path d="M0,0 L1,0 L1,1 L0,1 Z " fill="#975CBD" transform="translate(58,31)"/>
<path d="M0,0 L1,0 L1,1 L0,1 Z " fill="#BC87DE" transform="translate(54,31)"/>
<path d="M0,0 L1,0 L1,1 L0,1 Z " fill="#C890EA" transform="translate(50,31)"/>
<path d="M0,0 L1,0 L1,1 L0,1 Z " fill="#B96AE8" transform="translate(49,31)"/>
<path d="M0,0 L1,0 L1,1 L0,1 Z " fill="#AA6AD3" transform="translate(37,31)"/>
<path d="M0,0 L1,0 L1,1 L0,1 Z " fill="#A570C8" transform="translate(32,31)"/>
<path d="M0,0 L1,0 L1,1 L0,1 Z " fill="#C18BE1" transform="translate(24,31)"/>
<path d="M0,0 L1,0 L1,1 L0,1 Z " fill="#514064" transform="translate(18,31)"/>
<path d="M0,0 L1,0 L1,1 L0,1 Z " fill="#383640" transform="translate(16,31)"/>
<path d="M0,0 L1,0 L1,1 L0,1 Z " fill="#F4B42C" transform="translate(15,31)"/>
<path d="M0,0 L1,0 L1,1 L0,1 Z " fill="#353540" opacity="0.9647059" transform="translate(0,31)"/>
<path d="M0,0 L1,0 L1,1 L0,1 Z " fill="#343440" opacity="0.63529414" transform="translate(62,30)"/>
<path d="M0,0 L1,0 L1,1 L0,1 Z " fill="#5C4573" transform="translate(58,30)"/>
<path d="M0,0 L1,0 L1,1 L0,1 Z " fill="#A671C8" transform="translate(54,30)"/>
<path d="M0,0 L1,0 L1,1 L0,1 Z " fill="#A56DC8" transform="translate(49,30)"/>
<path d="M0,0 L1,0 L1,1 L0,1 Z " fill="#A76BCD" transform="translate(46,30)"/>
<path d="M0,0 L1,0 L1,1 L0,1 Z " fill="#D598F9" transform="translate(45,30)"/>
<path d="M0,0 L1,0 L1,1 L0,1 Z " fill="#B280D3" transform="translate(38,30)"/>
<path d="M0,0 L1,0 L1,1 L0,1 Z " fill="#B985DA" transform="translate(32,30)"/>
<path d="M0,0 L1,0 L1,1 L0,1 Z " fill="#A571C8" transform="translate(24,30)"/>
<path d="M0,0 L1,0 L1,1 L0,1 Z " fill="#9F60C7" transform="translate(19,30)"/>
<path d="M0,0 L1,0 L1,1 L0,1 Z " fill="#353441" transform="translate(18,30)"/>
<path d="M0,0 L1,0 L1,1 L0,1 Z " fill="#353441" transform="translate(58,29)"/>
<path d="M0,0 L1,0 L1,1 L0,1 Z " fill="#A361CB" transform="translate(57,29)"/>
<path d="M0,0 L1,0 L1,1 L0,1 Z " fill="#B76BE3" transform="translate(54,29)"/>
<path d="M0,0 L1,0 L1,1 L0,1 Z " fill="#CA92ED" transform="translate(53,29)"/>
<path d="M0,0 L1,0 L1,1 L0,1 Z " fill="#BF8AE0" transform="translate(49,29)"/>
<path d="M0,0 L1,0 L1,1 L0,1 Z " fill="#A572C8" transform="translate(45,29)"/>
<path d="M0,0 L1,0 L1,1 L0,1 Z " fill="#BA86DB" transform="translate(39,29)"/>
<path d="M0,0 L1,0 L1,1 L0,1 Z " fill="#B16ADD" transform="translate(38,29)"/>
<path d="M0,0 L1,0 L1,1 L0,1 Z " fill="#A76CCD" transform="translate(33,29)"/>
<path d="M0,0 L1,0 L1,1 L0,1 Z " fill="#D196F5" transform="translate(25,29)"/>
<path d="M0,0 L1,0 L1,1 L0,1 Z " fill="#B26ADE" transform="translate(24,29)"/>
<path d="M0,0 L1,0 L1,1 L0,1 Z " fill="#6A4A83" transform="translate(19,29)"/>
<path d="M0,0 L1,0 L1,1 L0,1 Z " fill="#846A38" transform="translate(15,29)"/>
<path d="M0,0 L1,0 L1,1 L0,1 Z " fill="#8E7137" transform="translate(4,29)"/>
<path d="M0,0 L1,0 L1,1 L0,1 Z " fill="#343440" opacity="0.6901961" transform="translate(0,29)"/>
<path d="M0,0 L1,0 L1,1 L0,1 Z " fill="#353540" opacity="0.003921569" transform="translate(62,28)"/>
<path d="M0,0 L1,0 L1,1 L0,1 Z " fill="#353540" opacity="0.7764706" transform="translate(61,28)"/>
<path d="M0,0 L1,0 L1,1 L0,1 Z " fill="#64487C" transform="translate(57,28)"/>
<path d="M0,0 L1,0 L1,1 L0,1 Z " fill="#A774C8" transform="translate(53,28)"/>
<path d="M0,0 L1,0 L1,1 L0,1 Z " fill="#A875C8" transform="translate(48,28)"/>
<path d="M0,0 L1,0 L1,1 L0,1 Z " fill="#AC6BD3" transform="translate(44,28)"/>
<path d="M0,0 L1,0 L1,1 L0,1 Z " fill="#B280D3" transform="translate(42,28)"/>
<path d="M0,0 L1,0 L1,1 L0,1 Z " fill="#A66FC8" transform="translate(40,28)"/>
<path d="M0,0 L1,0 L1,1 L0,1 Z " fill="#B66AE4" transform="translate(39,28)"/>
<path d="M0,0 L1,0 L1,1 L0,1 Z " fill="#C28CE4" transform="translate(33,28)"/>
<path d="M0,0 L1,0 L1,1 L0,1 Z " fill="#A977C9" transform="translate(25,28)"/>
<path d="M0,0 L1,0 L1,1 L0,1 Z " fill="#B167DE" transform="translate(20,28)"/>
<path d="M0,0 L1,0 L1,1 L0,1 Z " fill="#3B3748" transform="translate(19,28)"/>
<path d="M0,0 L1,0 L1,1 L0,1 Z " fill="#363640" transform="translate(15,28)"/>
<path d="M0,0 L1,0 L1,1 L0,1 Z " fill="#C69732" transform="translate(14,28)"/>
<path d="M0,0 L1,0 L1,1 L0,1 Z " fill="#383740" transform="translate(4,28)"/>
<path d="M0,0 L1,0 L1,1 L0,1 Z " fill="#373643" transform="translate(57,27)"/>
<path d="M0,0 L1,0 L1,1 L0,1 Z " fill="#A160C9" transform="translate(56,27)"/>
<path d="M0,0 L1,0 L1,1 L0,1 Z " fill="#BD88DE" transform="translate(52,27)"/>
<path d="M0,0 L1,0 L1,1 L0,1 Z " fill="#A670C7" transform="translate(47,27)"/>
<path d="M0,0 L1,0 L1,1 L0,1 Z " fill="#B884D8" transform="translate(34,27)"/>
<path d="M0,0 L1,0 L1,1 L0,1 Z " fill="#C58EE7" transform="translate(26,27)"/>
<path d="M0,0 L1,0 L1,1 L0,1 Z " fill="#B56AE2" transform="translate(25,27)"/>
<path d="M0,0 L1,0 L1,1 L0,1 Z " fill="#6A4A83" transform="translate(20,27)"/>
<path d="M0,0 L1,0 L1,1 L0,1 Z " fill="#4A433E" transform="translate(14,27)"/>
<path d="M0,0 L1,0 L1,1 L0,1 Z " fill="#CB9A31" transform="translate(13,27)"/>
<path d="M0,0 L1,0 L1,1 L0,1 Z " fill="#554B3D" transform="translate(5,27)"/>
<path d="M0,0 L1,0 L1,1 L0,1 Z " fill="#343440" opacity="0.91764706" transform="translate(1,27)"/>
<path d="M0,0 L1,0 L1,1 L0,1 Z " fill="#343440" opacity="0.047058824" transform="translate(0,27)"/>
<path d="M0,0 L1,0 L1,1 L0,1 Z " fill="#353541" opacity="0.007843138" transform="translate(61,26)"/>
<path d="M0,0 L1,0 L1,1 L0,1 Z " fill="#4B3D5D" transform="translate(56,26)"/>
<path d="M0,0 L1,0 L1,1 L0,1 Z " fill="#B569E4" transform="translate(55,26)"/>
<path d="M0,0 L1,0 L1,1 L0,1 Z " fill="#AB6AD3" transform="translate(52,26)"/>
<path d="M0,0 L1,0 L1,1 L0,1 Z " fill="#D195F5" transform="translate(51,26)"/>
<path d="M0,0 L1,0 L1,1 L0,1 Z " fill="#A977C9" transform="translate(46,26)"/>
<path d="M0,0 L1,0 L1,1 L0,1 Z " fill="#B76BE3" transform="translate(45,26)"/>
<path d="M0,0 L1,0 L1,1 L0,1 Z " fill="#AB6BD2" transform="translate(36,26)"/>
<path d="M0,0 L1,0 L1,1 L0,1 Z " fill="#C08AE1" transform="translate(35,26)"/>
<path d="M0,0 L1,0 L1,1 L0,1 Z " fill="#A76CCC" transform="translate(26,26)"/>
<path d="M0,0 L1,0 L1,1 L0,1 Z " fill="#985DBE" transform="translate(21,26)"/>
<path d="M0,0 L1,0 L1,1 L0,1 Z " fill="#353441" transform="translate(20,26)"/>
<path d="M0,0 L1,0 L1,1 L0,1 Z " fill="#866C38" transform="translate(12,26)"/>
<path d="M0,0 L1,0 L1,1 L0,1 Z " fill="#C39532" transform="translate(11,26)"/>
<path d="M0,0 L1,0 L1,1 L0,1 Z " fill="#8E7137" transform="translate(7,26)"/>
<path d="M0,0 L1,0 L1,1 L0,1 Z " fill="#383740" transform="translate(6,26)"/>
<path d="M0,0 L1,0 L1,1 L0,1 Z " fill="#333341" opacity="0.27450982" transform="translate(60,25)"/>
<path d="M0,0 L1,0 L1,1 L0,1 Z " fill="#704D8C" transform="translate(55,25)"/>
<path d="M0,0 L1,0 L1,1 L0,1 Z " fill="#A66FC8" transform="translate(51,25)"/>
<path d="M0,0 L1,0 L1,1 L0,1 Z " fill="#C78FE8" transform="translate(45,25)"/>
<path d="M0,0 L1,0 L1,1 L0,1 Z " fill="#AC6AD4" transform="translate(43,25)"/>
<path d="M0,0 L1,0 L1,1 L0,1 Z " fill="#B96AE7" transform="translate(42,25)"/>
<path d="M0,0 L1,0 L1,1 L0,1 Z " fill="#B569E2" transform="translate(39,25)"/>
<path d="M0,0 L1,0 L1,1 L0,1 Z " fill="#B07ED0" transform="translate(37,25)"/>
<path d="M0,0 L1,0 L1,1 L0,1 Z " fill="#A570C8" transform="translate(27,25)"/>
<path d="M0,0 L1,0 L1,1 L0,1 Z " fill="#B569E2" transform="translate(22,25)"/>
<path d="M0,0 L1,0 L1,1 L0,1 Z " fill="#473C58" transform="translate(21,25)"/>
<path d="M0,0 L1,0 L1,1 L0,1 Z " fill="#343441" opacity="0.9882353" transform="translate(17,25)"/>
<path d="M0,0 L1,0 L1,1 L0,1 Z " fill="#343440" opacity="0.003921569" transform="translate(1,25)"/>
<path d="M0,0 L1,0 L1,1 L0,1 Z " fill="#343440" opacity="0.5764706" transform="translate(59,24)"/>
<path d="M0,0 L1,0 L1,1 L0,1 Z " fill="#363542" transform="translate(55,24)"/>
<path d="M0,0 L1,0 L1,1 L0,1 Z " fill="#975CBD" transform="translate(54,24)"/>
<path d="M0,0 L1,0 L1,1 L0,1 Z " fill="#A66EC9" transform="translate(50,24)"/>
<path d="M0,0 L1,0 L1,1 L0,1 Z " fill="#D397F8" transform="translate(49,24)"/>
<path d="M0,0 L1,0 L1,1 L0,1 Z " fill="#D196F5" transform="translate(42,24)"/>
<path d="M0,0 L1,0 L1,1 L0,1 Z " fill="#C890EA" transform="translate(40,24)"/>
<path d="M0,0 L1,0 L1,1 L0,1 Z " fill="#D497F8" transform="translate(39,24)"/>
<path d="M0,0 L1,0 L1,1 L0,1 Z " fill="#A572C8" transform="translate(28,24)"/>
<path d="M0,0 L1,0 L1,1 L0,1 Z " fill="#B86AE6" transform="translate(23,24)"/>
<path d="M0,0 L1,0 L1,1 L0,1 Z " fill="#5E4574" transform="translate(22,24)"/>
<path d="M0,0 L1,0 L1,1 L0,1 Z " fill="#353540" opacity="0.5647059" transform="translate(16,24)"/>
<path d="M0,0 L1,0 L1,1 L0,1 Z " fill="#343440" opacity="0.03529412" transform="translate(2,24)"/>
<path d="M0,0 L1,0 L1,1 L0,1 Z " fill="#343440" opacity="0.043137256" transform="translate(59,23)"/>
<path d="M0,0 L1,0 L1,1 L0,1 Z " fill="#3C384A" transform="translate(54,23)"/>
<path d="M0,0 L1,0 L1,1 L0,1 Z " fill="#9A5DC1" transform="translate(53,23)"/>
<path d="M0,0 L1,0 L1,1 L0,1 Z " fill="#A76DCC" transform="translate(49,23)"/>
<path d="M0,0 L1,0 L1,1 L0,1 Z " fill="#CA91EC" transform="translate(48,23)"/>
<path d="M0,0 L1,0 L1,1 L0,1 Z " fill="#D698FA" transform="translate(47,23)"/>
<path d="M0,0 L1,0 L1,1 L0,1 Z " fill="#D394F8" transform="translate(46,23)"/>
<path d="M0,0 L1,0 L1,1 L0,1 Z " fill="#D598FA" transform="translate(45,23)"/>
<path d="M0,0 L1,0 L1,1 L0,1 Z " fill="#C990EB" transform="translate(30,23)"/>
<path d="M0,0 L1,0 L1,1 L0,1 Z " fill="#A66DCC" transform="translate(29,23)"/>
<path d="M0,0 L1,0 L1,1 L0,1 Z " fill="#B86AE7" transform="translate(24,23)"/>
<path d="M0,0 L1,0 L1,1 L0,1 Z " fill="#604678" transform="translate(23,23)"/>
<path d="M0,0 L1,0 L1,1 L0,1 Z " fill="#343440" opacity="0.34509805" transform="translate(15,23)"/>
<path d="M0,0 L1,0 L1,1 L0,1 Z " fill="#343440" opacity="0.8862745" transform="translate(14,23)"/>
<path d="M0,0 L1,0 L1,1 L0,1 Z " fill="#343440" opacity="0.91764706" transform="translate(5,23)"/>
<path d="M0,0 L1,0 L1,1 L0,1 Z " fill="#33333F" opacity="0.003921569" transform="translate(3,23)"/>
<path d="M0,0 L1,0 L1,1 L0,1 Z " fill="#333341" opacity="0.21568628" transform="translate(58,22)"/>
<path d="M0,0 L1,0 L1,1 L0,1 Z " fill="#343441" opacity="0.9882353" transform="translate(57,22)"/>
<path d="M0,0 L1,0 L1,1 L0,1 Z " fill="#3A3748" transform="translate(53,22)"/>
<path d="M0,0 L1,0 L1,1 L0,1 Z " fill="#975CBD" transform="translate(52,22)"/>
<path d="M0,0 L1,0 L1,1 L0,1 Z " fill="#B569E2" transform="translate(48,22)"/>
<path d="M0,0 L1,0 L1,1 L0,1 Z " fill="#B86BE6" transform="translate(47,22)"/>
<path d="M0,0 L1,0 L1,1 L0,1 Z " fill="#C277EE" transform="translate(45,22)"/>
<path d="M0,0 L1,0 L1,1 L0,1 Z " fill="#D698FA" transform="translate(44,22)"/>
<path d="M0,0 L1,0 L1,1 L0,1 Z " fill="#AF7DCF" transform="translate(31,22)"/>
<path d="M0,0 L1,0 L1,1 L0,1 Z " fill="#B169DC" transform="translate(30,22)"/>
<path d="M0,0 L1,0 L1,1 L0,1 Z " fill="#B86AE6" transform="translate(25,22)"/>
<path d="M0,0 L1,0 L1,1 L0,1 Z " fill="#64487C" transform="translate(24,22)"/>
<path d="M0,0 L1,0 L1,1 L0,1 Z " fill="#343440" opacity="0.81960785" transform="translate(19,22)"/>
<path d="M0,0 L1,0 L1,1 L0,1 Z " fill="#343440" opacity="0.043137256" transform="translate(18,22)"/>
<path d="M0,0 L1,0 L1,1 L0,1 Z " fill="#333341" opacity="0.36862746" transform="translate(13,22)"/>
<path d="M0,0 L1,0 L1,1 L0,1 Z " fill="#343440" opacity="0.67058825" transform="translate(12,22)"/>
<path d="M0,0 L1,0 L1,1 L0,1 Z " fill="#353540" opacity="0.87058824" transform="translate(11,22)"/>
<path d="M0,0 L1,0 L1,1 L0,1 Z " fill="#353540" opacity="0.9647059" transform="translate(9,22)"/>
<path d="M0,0 L1,0 L1,1 L0,1 Z " fill="#343440" opacity="0.6901961" transform="translate(7,22)"/>
<path d="M0,0 L1,0 L1,1 L0,1 Z " fill="#35353F" opacity="0.047058824" transform="translate(5,22)"/>
<path d="M0,0 L1,0 L1,1 L0,1 Z " fill="#34343F" opacity="0.4745098" transform="translate(57,21)"/>
<path d="M0,0 L1,0 L1,1 L0,1 Z " fill="#3A3747" transform="translate(52,21)"/>
<path d="M0,0 L1,0 L1,1 L0,1 Z " fill="#8D58B1" transform="translate(51,21)"/>
<path d="M0,0 L1,0 L1,1 L0,1 Z " fill="#BA6AE9" transform="translate(48,21)"/>
<path d="M0,0 L1,0 L1,1 L0,1 Z " fill="#C584EC" transform="translate(44,21)"/>
<path d="M0,0 L1,0 L1,1 L0,1 Z " fill="#D196F5" transform="translate(34,21)"/>
<path d="M0,0 L1,0 L1,1 L0,1 Z " fill="#AD6AD6" transform="translate(32,21)"/>
<path d="M0,0 L1,0 L1,1 L0,1 Z " fill="#A562CF" transform="translate(26,21)"/>
<path d="M0,0 L1,0 L1,1 L0,1 Z " fill="#4F3F63" transform="translate(25,21)"/>
<path d="M0,0 L1,0 L1,1 L0,1 Z " fill="#31313B" opacity="0.101960786" transform="translate(19,21)"/>
<path d="M0,0 L1,0 L1,1 L0,1 Z " fill="#353540" opacity="0.003921569" transform="translate(57,20)"/>
<path d="M0,0 L1,0 L1,1 L0,1 Z " fill="#353441" transform="translate(51,20)"/>
<path d="M0,0 L1,0 L1,1 L0,1 Z " fill="#604677" transform="translate(50,20)"/>
<path d="M0,0 L1,0 L1,1 L0,1 Z " fill="#AE66DA" transform="translate(49,20)"/>
<path d="M0,0 L1,0 L1,1 L0,1 Z " fill="#BA6BE9" transform="translate(45,20)"/>
<path d="M0,0 L1,0 L1,1 L0,1 Z " fill="#B96BE8" transform="translate(44,20)"/>
<path d="M0,0 L1,0 L1,1 L0,1 Z " fill="#A76CCD" transform="translate(43,20)"/>
<path d="M0,0 L1,0 L1,1 L0,1 Z " fill="#AB7ACC" transform="translate(41,20)"/>
<path d="M0,0 L1,0 L1,1 L0,1 Z " fill="#B17FD1" transform="translate(37,20)"/>
<path d="M0,0 L1,0 L1,1 L0,1 Z " fill="#A76BCD" transform="translate(35,20)"/>
<path d="M0,0 L1,0 L1,1 L0,1 Z " fill="#B76BE3" transform="translate(34,20)"/>
<path d="M0,0 L1,0 L1,1 L0,1 Z " fill="#8254A3" transform="translate(27,20)"/>
<path d="M0,0 L1,0 L1,1 L0,1 Z " fill="#393648" transform="translate(26,20)"/>
<path d="M0,0 L1,0 L1,1 L0,1 Z " fill="#343441" opacity="0.9098039" transform="translate(21,20)"/>
<path d="M0,0 L1,0 L1,1 L0,1 Z " fill="#35353C" opacity="0.14901961" transform="translate(20,20)"/>
<path d="M0,0 L1,0 L1,1 L0,1 Z " fill="#333340" opacity="0.007843138" transform="translate(56,19)"/>
<path d="M0,0 L1,0 L1,1 L0,1 Z " fill="#333340" opacity="0.56078434" transform="translate(55,19)"/>
<path d="M0,0 L1,0 L1,1 L0,1 Z " fill="#3C384A" transform="translate(49,19)"/>
<path d="M0,0 L1,0 L1,1 L0,1 Z " fill="#955BBA" transform="translate(48,19)"/>
<path d="M0,0 L1,0 L1,1 L0,1 Z " fill="#B769E6" transform="translate(47,19)"/>
<path d="M0,0 L1,0 L1,1 L0,1 Z " fill="#BA6AE9" transform="translate(46,19)"/>
<path d="M0,0 L1,0 L1,1 L0,1 Z " fill="#BA6AE9" transform="translate(44,19)"/>
<path d="M0,0 L1,0 L1,1 L0,1 Z " fill="#8F59B3" transform="translate(29,19)"/>
<path d="M0,0 L1,0 L1,1 L0,1 Z " fill="#503F65" transform="translate(28,19)"/>
<path d="M0,0 L1,0 L1,1 L0,1 Z " fill="#303040" opacity="0.1254902" transform="translate(21,19)"/>
<path d="M0,0 L1,0 L1,1 L0,1 Z " fill="#333341" opacity="0.43137255" transform="translate(54,18)"/>
<path d="M0,0 L1,0 L1,1 L0,1 Z " fill="#6B4A85" transform="translate(46,18)"/>
<path d="M0,0 L1,0 L1,1 L0,1 Z " fill="#9D5FC4" transform="translate(45,18)"/>
<path d="M0,0 L1,0 L1,1 L0,1 Z " fill="#8756A8" transform="translate(31,18)"/>
<path d="M0,0 L1,0 L1,1 L0,1 Z " fill="#4A3D5C" transform="translate(30,18)"/>
<path d="M0,0 L1,0 L1,1 L0,1 Z " fill="#343440" opacity="0.05882353" transform="translate(22,18)"/>
<path d="M0,0 L1,0 L1,1 L0,1 Z " fill="#32323D" opacity="0.18039216" transform="translate(53,17)"/>
<path d="M0,0 L1,0 L1,1 L0,1 Z " fill="#343441" opacity="0.78431374" transform="translate(52,17)"/>
<path d="M0,0 L1,0 L1,1 L0,1 Z " fill="#674881" transform="translate(43,17)"/>
<path d="M0,0 L1,0 L1,1 L0,1 Z " fill="#945BBA" transform="translate(41,17)"/>
<path d="M0,0 L1,0 L1,1 L0,1 Z " fill="#AB64D7" transform="translate(40,17)"/>
<path d="M0,0 L1,0 L1,1 L0,1 Z " fill="#AE66DA" transform="translate(38,17)"/>
<path d="M0,0 L1,0 L1,1 L0,1 Z " fill="#A662D0" transform="translate(36,17)"/>
<path d="M0,0 L1,0 L1,1 L0,1 Z " fill="#734E90" transform="translate(34,17)"/>
<path d="M0,0 L1,0 L1,1 L0,1 Z " fill="#524067" transform="translate(33,17)"/>
<path d="M0,0 L1,0 L1,1 L0,1 Z " fill="#383545" transform="translate(32,17)"/>
<path d="M0,0 L1,0 L1,1 L0,1 Z " fill="#353540" opacity="0.94509804" transform="translate(25,17)"/>
<path d="M0,0 L1,0 L1,1 L0,1 Z " fill="#35353F" opacity="0.003921569" transform="translate(23,17)"/>
<path d="M0,0 L1,0 L1,1 L0,1 Z " fill="#353541" opacity="0.011764706" transform="translate(52,16)"/>
<path d="M0,0 L1,0 L1,1 L0,1 Z " fill="#353541" opacity="0.41568628" transform="translate(51,16)"/>
<path d="M0,0 L1,0 L1,1 L0,1 Z " fill="#343440" opacity="0.99215686" transform="translate(27,16)"/>
<path d="M0,0 L1,0 L1,1 L0,1 Z " fill="#363640" opacity="0.10980392" transform="translate(25,16)"/>
<path d="M0,0 L1,0 L1,1 L0,1 Z " fill="#31313B" opacity="0.101960786" transform="translate(50,15)"/>
<path d="M0,0 L1,0 L1,1 L0,1 Z " fill="#333340" opacity="0.54509807" transform="translate(49,15)"/>
<path d="M0,0 L1,0 L1,1 L0,1 Z " fill="#353540" opacity="0.90588236" transform="translate(48,15)"/>
<path d="M0,0 L1,0 L1,1 L0,1 Z " fill="#343440" opacity="0.9764706" transform="translate(29,15)"/>
<path d="M0,0 L1,0 L1,1 L0,1 Z " fill="#333341" opacity="0.13725491" transform="translate(27,15)"/>
<path d="M0,0 L1,0 L1,1 L0,1 Z " fill="#333341" opacity="0.2901961" transform="translate(47,14)"/>
<path d="M0,0 L1,0 L1,1 L0,1 Z " fill="#343440" opacity="0.6666667" transform="translate(46,14)"/>
<path d="M0,0 L1,0 L1,1 L0,1 Z " fill="#343440" opacity="0.9764706" transform="translate(45,14)"/>
<path d="M0,0 L1,0 L1,1 L0,1 Z " fill="#343441" opacity="0.84705883" transform="translate(31,14)"/>
<path d="M0,0 L1,0 L1,1 L0,1 Z " fill="#31313B" opacity="0.101960786" transform="translate(29,14)"/>
<path d="M0,0 L1,0 L1,1 L0,1 Z " fill="#343441" opacity="0.05882353" transform="translate(45,13)"/>
<path d="M0,0 L1,0 L1,1 L0,1 Z " fill="#343440" opacity="0.41960785" transform="translate(43,13)"/>
<path d="M0,0 L1,0 L1,1 L0,1 Z " fill="#343440" opacity="0.7647059" transform="translate(41,13)"/>
<path d="M0,0 L1,0 L1,1 L0,1 Z " fill="#353541" opacity="0.9254902" transform="translate(40,13)"/>
<path d="M0,0 L1,0 L1,1 L0,1 Z " fill="#353540" opacity="0.9843137" transform="translate(39,13)"/>
<path d="M0,0 L1,0 L1,1 L0,1 Z " fill="#343440" opacity="0.9019608" transform="translate(36,13)"/>
<path d="M0,0 L1,0 L1,1 L0,1 Z " fill="#343440" opacity="0.5764706" transform="translate(34,13)"/>
<path d="M0,0 L1,0 L1,1 L0,1 Z " fill="#353540" opacity="0.09411765" transform="translate(32,13)"/>
<path d="M0,0 L1,0 L1,1 L0,1 Z " fill="#353540" opacity="0.003921569" transform="translate(37,12)"/>
</svg>
